<svg width="801" height="253" viewBox="0 0 801 253" fill="none" xmlns="http://www.w3.org/2000/svg">
<path d="M299.689 227.225C299.529 227.24 299.389 227.199 299.268 227.104C299.146 227.008 299.074 226.881 299.051 226.723L295.382 201.185C295.325 200.789 295.411 200.447 295.638 200.158C295.889 199.84 296.213 199.663 296.611 199.626L303.541 198.979C305.028 198.841 306.433 199.071 307.757 199.669C309.107 200.266 310.23 201.151 311.125 202.324C312.016 203.472 312.566 204.771 312.775 206.223C313.052 208.15 312.684 209.896 311.671 211.462C310.658 213.028 309.249 214.082 307.444 214.625L315.58 224.619C315.674 224.717 315.733 224.846 315.756 225.004C315.786 225.215 315.731 225.394 315.591 225.541C315.477 225.685 315.314 225.767 315.102 225.787L313.071 225.977C312.805 226.001 312.589 225.901 312.422 225.676L303.842 215.121L300.736 215.411L302.317 226.418C302.34 226.576 302.306 226.713 302.215 226.829C302.124 226.944 301.999 227.01 301.839 227.024L299.689 227.225ZM305.157 211.909C306.59 211.775 307.706 211.203 308.502 210.193C309.325 209.18 309.636 207.974 309.435 206.575C309.227 205.123 308.578 203.98 307.489 203.145C306.424 202.282 305.174 201.917 303.74 202.05L298.881 202.504L300.298 212.362L305.157 211.909ZM331.172 224.81C329.34 224.981 327.618 224.7 326.006 223.968C324.394 223.235 323.036 222.118 321.932 220.616C320.851 219.085 320.165 217.304 319.873 215.271L317.426 198.246C317.404 198.088 317.438 197.951 317.529 197.835C317.62 197.72 317.745 197.654 317.904 197.64L320.055 197.439C320.214 197.424 320.355 197.465 320.476 197.56C320.597 197.656 320.669 197.783 320.692 197.941L323.167 215.164C323.372 216.59 323.831 217.818 324.544 218.848C325.283 219.875 326.186 220.634 327.252 221.123C328.318 221.612 329.475 221.798 330.722 221.682C331.944 221.568 333.004 221.175 333.903 220.503C334.802 219.83 335.452 218.927 335.854 217.793C336.283 216.656 336.395 215.375 336.19 213.95L333.716 196.726C333.693 196.568 333.727 196.431 333.818 196.316C333.909 196.2 334.034 196.135 334.194 196.12L336.344 195.919C336.504 195.905 336.644 195.945 336.765 196.041C336.887 196.136 336.959 196.263 336.981 196.422L339.428 213.447C339.72 215.479 339.543 217.342 338.898 219.033C338.276 220.696 337.284 222.033 335.923 223.043C334.561 224.052 332.977 224.641 331.172 224.81ZM349.843 222.547C349.445 222.584 349.081 222.484 348.751 222.247C348.443 221.982 348.261 221.651 348.204 221.255L344.535 195.717C344.512 195.559 344.547 195.422 344.638 195.306C344.729 195.191 344.854 195.126 345.013 195.111L347.164 194.91C347.323 194.895 347.463 194.936 347.585 195.031C347.706 195.127 347.778 195.254 347.801 195.413L351.237 219.327L361.313 218.387C361.473 218.372 361.613 218.413 361.734 218.508C361.856 218.604 361.928 218.731 361.951 218.889L362.229 220.829C362.252 220.988 362.218 221.125 362.127 221.24C362.036 221.356 361.911 221.421 361.751 221.436L349.843 222.547ZM368.706 220.787C368.308 220.824 367.944 220.724 367.614 220.488C367.307 220.222 367.125 219.891 367.068 219.495L363.524 194.829C363.467 194.433 363.552 194.09 363.78 193.802C364.03 193.484 364.354 193.307 364.753 193.269L377.856 192.047C378.015 192.032 378.156 192.073 378.277 192.168C378.398 192.264 378.47 192.391 378.493 192.549L378.772 194.49C378.795 194.648 378.76 194.785 378.669 194.9C378.578 195.016 378.453 195.081 378.294 195.096L367.023 196.147L368.24 204.62L376.843 203.818C377.002 203.803 377.143 203.843 377.264 203.939C377.385 204.035 377.457 204.162 377.48 204.32L377.748 206.181C377.77 206.339 377.736 206.476 377.645 206.592C377.554 206.707 377.429 206.772 377.27 206.787L368.667 207.59L370.1 217.567L381.372 216.516C381.531 216.501 381.671 216.541 381.793 216.637C381.914 216.733 381.986 216.86 382.009 217.018L382.288 218.958C382.31 219.117 382.276 219.254 382.185 219.369C382.094 219.485 381.969 219.55 381.81 219.565L368.706 220.787ZM389.592 218.839C389.194 218.876 388.83 218.776 388.5 218.539C388.193 218.274 388.011 217.943 387.954 217.547L384.41 192.88C384.353 192.484 384.438 192.142 384.666 191.853C384.916 191.536 385.24 191.358 385.639 191.321L392.529 190.678C393.883 190.552 395.161 190.741 396.364 191.244C397.562 191.72 398.544 192.471 399.311 193.497C400.1 194.493 400.589 195.651 400.779 196.971C400.938 198.079 400.847 199.131 400.505 200.126C400.191 201.118 399.644 201.998 398.867 202.766C400.357 203.216 401.59 204.024 402.565 205.19C403.566 206.354 404.179 207.714 404.403 209.272C404.619 210.776 404.457 212.182 403.919 213.49C403.376 214.771 402.532 215.826 401.387 216.655C400.268 217.482 398.965 217.964 397.478 218.103L389.592 218.839ZM393.701 202.486C394.948 202.37 395.946 201.822 396.693 200.843C397.463 199.835 397.759 198.71 397.581 197.47C397.41 196.282 396.855 195.317 395.914 194.576C394.973 193.834 393.879 193.522 392.631 193.638L387.812 194.088L389.081 202.917L393.701 202.486ZM396.852 215.152C398.286 215.018 399.399 214.433 400.192 213.396C401.011 212.357 401.321 211.137 401.12 209.739C400.919 208.34 400.274 207.223 399.185 206.388C398.123 205.551 396.875 205.199 395.442 205.333L389.507 205.886L390.918 215.706L396.852 215.152ZM420.102 216.514C418.35 216.678 416.654 216.394 415.016 215.665C413.404 214.932 412.053 213.868 410.965 212.471C409.876 211.075 409.207 209.506 408.956 207.764L407.631 198.538C407.381 196.796 407.587 195.145 408.251 193.585C408.915 192.026 409.928 190.741 411.289 189.731C412.678 188.719 414.248 188.131 416 187.967C417.753 187.804 419.435 188.088 421.047 188.821C422.686 189.551 424.049 190.614 425.138 192.01C426.226 193.407 426.896 194.976 427.146 196.718L428.472 205.943C428.722 207.685 428.515 209.336 427.851 210.896C427.188 212.456 426.161 213.742 424.773 214.754C423.411 215.764 421.854 216.351 420.102 216.514ZM419.664 213.466C420.832 213.357 421.864 212.953 422.759 212.254C423.681 211.553 424.362 210.673 424.802 209.616C425.238 208.532 425.373 207.409 425.206 206.248L423.88 197.023C423.713 195.861 423.266 194.806 422.538 193.858C421.806 192.883 420.891 192.139 419.795 191.626C418.726 191.11 417.607 190.907 416.438 191.016C415.27 191.125 414.225 191.53 413.303 192.231C412.408 192.93 411.743 193.821 411.306 194.905C410.866 195.963 410.73 197.072 410.897 198.234L412.222 207.459C412.389 208.62 412.838 209.689 413.57 210.664C414.299 211.612 415.198 212.344 416.267 212.86C417.363 213.373 418.496 213.575 419.664 213.466ZM445.577 214.138C443.825 214.301 442.129 214.018 440.491 213.288C438.879 212.556 437.529 211.491 436.44 210.095C435.351 208.699 434.682 207.129 434.432 205.387L433.106 196.162C432.856 194.42 433.063 192.769 433.726 191.209C434.39 189.649 435.403 188.364 436.765 187.355C438.153 186.342 439.723 185.754 441.476 185.591C443.228 185.428 444.91 185.712 446.522 186.444C448.161 187.174 449.525 188.237 450.613 189.634C451.702 191.03 452.371 192.599 452.621 194.342L453.947 203.567C454.197 205.309 453.99 206.96 453.327 208.52C452.663 210.08 451.637 211.366 450.249 212.378C448.887 213.388 447.33 213.974 445.577 214.138ZM445.139 211.089C446.308 210.98 447.339 210.576 448.234 209.878C449.156 209.176 449.837 208.297 450.277 207.239C450.713 206.156 450.848 205.033 450.681 203.871L449.356 194.646C449.189 193.485 448.741 192.43 448.013 191.481C447.281 190.506 446.367 189.762 445.271 189.249C444.201 188.734 443.082 188.531 441.914 188.64C440.745 188.749 439.701 189.154 438.779 189.855C437.884 190.554 437.218 191.445 436.782 192.529C436.342 193.586 436.205 194.696 436.372 195.857L437.697 205.083C437.864 206.244 438.314 207.312 439.046 208.287C439.774 209.236 440.673 209.968 441.743 210.483C442.839 210.996 443.971 211.198 445.139 211.089ZM462.421 212.045C462.261 212.06 462.11 212.034 461.965 211.967C461.844 211.871 461.772 211.744 461.749 211.586L457.949 185.138C457.926 184.979 457.96 184.842 458.052 184.727C458.143 184.611 458.268 184.546 458.427 184.531L460.578 184.331C460.737 184.316 460.877 184.356 460.999 184.452C461.12 184.548 461.192 184.675 461.215 184.833L462.91 196.632L464.065 196.524L471.98 183.628C472.158 183.371 472.38 183.23 472.645 183.205L475.154 182.971C475.34 182.954 475.481 182.994 475.575 183.092C475.693 183.162 475.763 183.275 475.786 183.434C475.809 183.592 475.775 183.729 475.684 183.845L467.194 197.516L479.324 209.465C479.446 209.561 479.518 209.688 479.541 209.846C479.567 210.031 479.522 210.182 479.404 210.3C479.313 210.416 479.188 210.481 479.028 210.496L476.519 210.73C476.28 210.752 476.038 210.654 475.791 210.437L464.651 199.479L463.337 199.601L465.015 211.281C465.038 211.44 464.99 211.578 464.873 211.696C464.778 211.785 464.651 211.837 464.492 211.852L462.421 212.045Z" fill="black"/>
<path d="M359.019 83.6117L433.458 0.996623L399.986 52.6063L422.136 46.1682L391.727 86.1009L420.223 79.5186L345.183 166.898L373.15 111.802L355.416 115.899L382.817 78.1148L359.019 83.6117Z" fill="#FDF468" stroke="black" stroke-width="3"/>
<path d="M362.679 67.7133L352.183 58.5152L347.835 59.619L351.583 70.4114L350.234 72.0058L350.834 78.5058L348.434 78.9963L347.835 82.5529L352.183 93.2227L351.133 103.77L344.086 118.242L348.734 119.713L353.233 115.544L356.981 113.091L361.18 107.449L367.028 105.855L367.777 100.827L376.024 92.2416L382.022 86.3548L385.021 89.7888L392.369 90.5246L402.265 86.3548L414.411 84.5152L405.564 89.7888V87.8265H402.265L396.117 89.7888L393.718 95.4303L388.92 96.6567L387.12 99.2322L387.87 100.459L387.12 101.685L380.523 102.421L378.723 104.996L381.722 106.959L395.667 109.779L414.411 96.6567L428.056 83.1661L433.604 80.3454L430.605 75.8076L428.506 72.0058L425.657 72.7416L422.958 74.3359L419.659 73.8454L416.21 74.3359L413.661 75.3171L406.613 76.5435L413.661 71.1473L415.16 73.4775L418.009 72.7416L422.958 73.4775L424.157 70.0435L424.907 65.3831L426.256 59.0058L427.306 56.185L424.157 55.6944L417.41 57.7793L412.012 59.0058L410.662 62.9303L409.462 61.9491L406.613 62.4397L392.968 72.0058V67.7133L398.067 63.5435L396.417 61.9491L401.665 58.5152L403.615 48.3359L362.679 92.3643L364.329 75.3171L362.679 73.4775V67.7133Z" fill="#CA0303" stroke="black" stroke-width="3"/>
<path d="M382.32 85.9096L389.863 79.137L386.63 77.4438L394.443 70.8828" stroke="black" stroke-width="3"/>
<path d="M24.0501 172.367L0 142.004C47.0545 89.7105 68.9262 92.5223 73.9802 100.465C91.582 90.4842 127.622 70.1012 130.968 68.4143C134.315 66.7274 134.977 68.6954 134.89 69.8903L134.367 79.1681C139.177 77.1438 139.682 78.8869 139.334 80.0115L137.765 99.1996C128.79 105.596 110.526 118.683 109.271 119.864C108.016 121.045 109.271 121.059 110.055 120.918C115.022 117.685 125.792 110.713 129.139 108.688C132.485 106.664 133.495 108.829 133.583 110.164L134.105 118.81L136.458 117.545C136.458 68.6264 178.546 55.7628 186.388 52.1782C192.662 49.3105 194.405 51.6862 194.492 53.2325L193.708 61.6668C197.681 60.3173 198.5 62.2291 198.413 63.3537L196.583 82.1201L203.641 77.9029H205.471C204.6 73.9669 202.7 65.5466 202.073 63.3537C201.446 61.1607 202.857 59.9096 203.641 59.5582C223.073 52.108 262.982 36.828 267.165 35.3095C271.348 33.7909 271.871 35.6607 271.609 36.7855L269.518 46.2741C274.119 44.4186 274.92 46.2038 274.746 47.3284C278.232 46.2038 286.091 43.5751 289.647 42.0569C293.202 40.5388 294.439 41.8461 294.614 42.6895L303.502 71.1554L302.979 34.2552C311.693 32.0059 329.852 27.3388 332.78 26.6641C335.708 25.9893 336.091 28.2104 335.917 29.4052C335.469 31.9863 334.476 37.1602 334.087 37.2077C337.433 36.7016 337.747 38.5431 337.485 39.5271L322.585 117.545C319.186 118.81 311.658 121.593 308.73 122.605C305.802 123.618 304.722 122.184 304.547 121.34L293.829 104.893L294.352 129.986C291.128 131.462 284 134.793 281.281 136.311C278.563 137.829 277.535 136.241 277.36 135.257L275.792 126.19L274.485 125.347C271.609 107.353 265.806 70.9024 265.597 69.0468C265.387 67.1913 263.767 68.1331 262.982 68.836L236.318 82.5418V84.2287C242.505 81.3471 255.611 75.3309 258.538 74.3188C261.466 73.3067 262.024 74.7405 261.937 75.584L260.63 84.8614C264.394 83.3432 265.161 85.0723 265.074 86.1266L262.982 98.7781L259.846 101.098L259.323 108.688C262.041 107.508 262.895 109.18 262.982 110.164L261.937 123.027C251.567 130.758 230.253 146.685 227.953 148.541C225.653 150.396 224.206 148.752 223.77 147.697L221.418 139.052L219.849 137.576L210.438 101.519L211.223 148.962C208.695 150.649 202.91 154.487 199.982 156.342C197.054 158.197 195.973 156.553 195.799 155.499L194.231 148.962C188.654 153.461 174.729 162.204 163.645 161.192C152.561 160.18 142.819 141.09 139.334 131.672L136.458 134.624L137.504 142.636C140.222 140.612 141.251 142.917 141.425 144.323L142.732 156.342C134.28 165.128 116.8 183.29 114.499 185.651C112.199 188.013 110.752 186.635 110.317 185.651L106.395 177.428L104.304 176.584L99.5987 166.463C87.3123 172.508 62.3734 184.808 60.9095 185.651C59.4455 186.495 59.6024 187.268 59.8638 187.549C61.6066 191.555 65.2489 200.116 65.8763 202.309C66.5037 204.502 65.6149 205.472 65.0921 205.683C62.8265 207.37 57.8771 211.039 56.204 212.22C54.531 213.4 53.5899 212.712 53.3285 212.22L48.1002 203.153H46.2703L26.4028 171.946C24.9389 172.62 24.2244 172.508 24.0501 172.367Z" fill="#19CACA"/>
<path d="M18.6238 158.208L6.51562 142.892L25.4676 123.172C31.5217 117.017 47.5782 103.995 63.3715 101.142C83.1132 97.5749 67.5831 141.843 63.3715 148.977C60.0023 154.683 63.3715 154.152 65.4773 153.173L91.0098 146.879L94.1685 153.173C82.4113 158.837 57.686 170.754 52.8427 173.104C47.9994 175.454 47.8415 177.44 48.3679 178.139L54.9484 194.084L48.3679 197.86C40.8222 185.902 25.2044 161.229 23.0986 158.208C20.9928 155.187 19.238 156.949 18.6238 158.208Z" fill="#2A7E2E"/>
<path d="M107.658 171.556L77.3906 104.295L130.097 74.6328V88.0015C121.313 94.1288 103.17 106.718 100.874 108.055C98.5775 109.391 99.0472 110.7 99.569 111.188C100.352 114.53 102.126 122.05 102.961 125.392C103.796 128.734 106.44 128.456 107.658 127.899L130.097 114.112V121.214C124.096 126.715 111.624 138.176 109.745 140.014C107.866 141.852 107.571 142.59 107.658 142.73C108.006 144.192 108.91 147.826 109.745 150.667C110.58 153.508 112.702 152.965 113.659 152.338L133.228 137.716L134.272 145.236L107.658 171.556Z" fill="#2A7E2E"/>
<path d="M190.116 58.1094L187.534 79.7351C181.597 79.1053 153.706 95.0622 158.612 124.456C162.537 147.972 182.454 133.275 191.922 122.987C191.405 120.117 190.321 113.329 190.116 109.129C189.911 104.93 187.103 105.14 185.725 105.77L173.072 112.489V104.3L203.283 85.404V139.154L195.537 143.773C195.278 142.373 194.71 138.944 194.504 136.424C194.297 133.905 191.663 134.534 190.372 135.164C179.097 148.532 154.172 166.07 144.671 129.285C133.723 86.2859 170.406 63.9182 190.116 58.1094Z" fill="#2A7E2E"/>
<path d="M221.692 134.644L205.544 63.7739L263.678 41.233L260.945 54.5255C251.014 59.4592 230.516 69.5833 227.975 70.6097C225.433 71.6361 225.629 72.9996 226.045 73.553C226.135 76.9794 226.35 84.6904 226.492 88.1237C226.633 91.5569 229.302 91.6287 230.619 91.2355L255.606 80.4873L254.154 87.5489C247.1 92.2267 232.436 101.977 230.204 103.557C227.972 105.137 227.529 105.832 227.586 105.982C227.631 107.482 227.781 111.215 228.025 114.149C228.269 117.084 230.477 116.824 231.55 116.327L253.873 104.37L253.366 111.984L221.692 134.644Z" fill="#2A7E2E"/>
<path d="M287.042 120.948L278.38 124.975L267.617 56.5257L290.193 49.1086C293.168 58.5036 299.853 79.4976 302.793 88.3133C305.733 97.1291 308.568 93.1874 308.043 90.2206L307.518 39.9962L330.093 34.0625L316.18 107.81L305.418 111.836C302.355 107.103 295.285 96.2388 291.505 90.6442C287.725 85.0495 286.605 89.302 286.517 92.1276L287.042 120.948Z" fill="#2A7E2E"/>
<path d="M41.4805 159.144L32.6328 136.773C33.1533 133.846 37.6812 127.156 51.6294 123.811C69.0646 119.629 49.2874 156.008 46.6851 160.189C44.6033 163.534 42.348 160.886 41.4805 159.144Z" fill="#19CACA"/>
<path d="M442.75 103.831L453.185 70.1925C451.097 70.1925 450.75 68.6503 450.838 67.8793L457.882 33.4005C522.999 18.095 541.887 31.9288 543.192 40.7589C573.037 41.4317 600.848 44.2629 611.022 45.5945C615.822 46.099 614.935 48.1874 613.892 49.1686L605.804 55.686C611.231 56.0224 610.5 58.0687 609.457 59.0499L592.499 72.9257L554.149 73.7667L553.366 75.0281L577.89 75.4486C582.69 75.2804 581.977 77.6211 581.02 78.8125L573.715 85.9606L576.585 86.5912C617.805 46.2251 667.635 62.2033 671.548 63.4648C674.679 64.4739 673.896 65.9877 673.113 66.6184L665.287 73.1358C668.835 74.145 668.33 75.9391 667.635 76.7099L650.938 89.9551L659.808 90.3756L661.634 91.2165C664.678 86.8716 670.922 77.9714 671.548 77.1304C672.174 76.2895 674.244 76.4997 675.2 76.7099C696.593 81.125 740.161 90.1653 743.292 91.0063C746.422 91.8473 745.814 93.4591 745.118 94.1599L735.726 100.047C738.857 100.383 739.292 102.429 739.118 103.41C743.727 104.672 753.466 107.321 755.554 107.826C757.641 108.33 757.815 109.998 757.641 110.769L742.509 135.998L771.207 108.456C779.642 111.259 797.087 117.118 799.383 118.127C801.678 119.136 801.035 120.51 800.426 121.071L792.078 126.747C794.791 127.588 793.904 129.48 793.121 130.321C769.381 147.07 721.69 180.737 720.856 181.41C720.021 182.083 718.942 182.111 718.508 182.04C713.812 180.919 704.211 178.593 703.376 178.256C702.541 177.92 702.68 176.855 702.854 176.364L707.289 157.863L689.81 175.943C688.975 177.121 687.027 177.275 686.158 177.205C682.331 176.574 674.157 175.229 672.07 174.892C669.983 174.556 670.504 173.21 671.026 172.58L676.766 165.011V163.119L715.116 114.763C704.681 113.572 683.34 111.147 681.462 110.979C679.583 110.811 679.809 111.61 680.157 112.03C686.505 113.082 700.141 115.31 703.898 115.815C707.655 116.319 706.855 118.267 705.985 119.179L697.898 125.276C701.446 125.444 701.115 127.588 700.506 128.639L688.766 137.259H684.331L678.07 143.356C680.575 143.524 680.157 145.248 679.635 146.089L668.939 155.13C654.677 155.62 625.371 156.601 622.24 156.601C619.11 156.601 619.371 154.919 619.892 154.078L624.849 146.72V144.407L646.242 112.451L609.196 148.822C605.37 148.682 596.986 148.402 594.065 148.402C591.143 148.402 592.151 146.3 593.021 145.248L596.413 139.992C553.836 143.356 556.932 121.491 563.802 110.138V108.246L568.498 98.3647L563.019 99.2057L558.062 105.723C560.567 105.891 560.497 107.896 560.149 108.877L551.54 119.179C538.235 121.421 510.633 126.116 506.667 126.957C502.702 127.798 502.754 125.626 503.276 124.435L506.667 116.445L505.885 114.763L519.451 82.8069C509.537 99.6262 449.011 115.604 444.576 116.445C441.028 117.118 440.836 115.324 441.184 114.343L443.532 105.933L442.75 103.831Z" fill="#19CACA"/>
<path d="M461.465 60.7278C462.303 57.669 459.371 57.1876 457.801 57.3292L461.465 39.2735C531.607 28.0155 544.955 32.4762 533.439 54.7799C518.992 84.1783 470.189 100.308 447.594 104.698C451.869 91.3156 460.628 63.7866 461.465 60.7278Z" fill="#CA0303"/>
<path d="M512.266 114.015L541.164 45.8266L605.554 49.0533L595.107 59.5738C583.45 59.9675 559.427 60.7285 556.587 60.6231C553.746 60.5177 553.091 61.7846 553.118 62.4312C551.118 65.4559 546.629 72.2681 544.67 75.3191C542.711 78.3701 544.996 79.4837 546.383 79.6592L574.702 80.1215L569.152 85.7105C560.161 87.014 541.453 89.746 538.547 90.2456C535.642 90.7451 534.834 91.1769 534.793 91.3303C533.922 92.6563 531.789 95.9725 530.222 98.629C528.655 101.286 530.739 101.928 531.976 101.917L558.704 100.275L553.643 106.719L512.266 114.015Z" fill="#CA0303"/>
<path d="M665.055 68.0213L645.465 83.0378C641.436 79.3921 607.102 76.6053 586.913 101.507C570.763 121.428 597.971 120.915 613.593 118.168C615.535 115.717 620.235 109.992 623.499 106.699C626.762 103.407 624.443 102.067 622.875 101.809L607.723 100.151L614.393 93.9432L652.896 95.7396L609.117 136.487L599.429 135.855C600.371 134.656 602.73 131.753 604.624 129.733C606.518 127.712 603.99 126.785 602.489 126.573C582.976 130.69 549.621 130.685 572.314 97.7282C598.962 59.288 645.244 61.9068 665.055 68.0213Z" fill="#CA0303"/>
<path d="M628.303 143.66L673.13 81.3124L735.507 94.5819L722.717 103.261C711.188 101.818 687.441 98.7949 684.681 98.2458C681.92 97.6967 680.971 98.8365 680.841 99.4749C678.149 102.128 672.099 108.105 669.44 110.79C666.781 113.475 668.753 114.926 670.071 115.316L697.736 120.214L690.941 124.825C681.807 124.692 662.797 124.436 659.827 124.47C656.856 124.504 655.959 124.801 655.882 124.945C654.708 126.109 651.814 129.027 649.635 131.387C647.455 133.746 649.344 134.703 650.56 134.887L677.173 137.471L670.652 142.997L628.303 143.66Z" fill="#CA0303"/>
<path d="M693.068 163.906L683.288 162.433L729.981 105.135L753.003 111.298C747.728 119.943 735.967 139.28 731.129 147.469C726.291 155.659 731.594 154.16 733.573 151.646L773.412 113.445L795.246 120.728L725.639 169.169L714.27 166.601C715.745 161.431 719.099 149.542 720.721 143.348C722.343 137.153 718.089 139.781 715.759 141.869L693.068 163.906Z" fill="#CA0303"/>
<path d="M464.523 87.5498L484.522 48.6538C492.486 45.9907 509.246 43.1032 512.571 52.8588C516.726 65.0532 474.652 88.8113 467.639 91.3343C462.029 93.3527 463.224 89.6523 464.523 87.5498Z" fill="#19CACA"/>
<path d="M46.3734 153.529L43.8125 147.726L51.2391 141.508C51.6489 142.005 48.166 149.729 46.3734 153.529Z" fill="#E5E5E5"/>
<path d="M88.5876 143.027L83.2471 132.484C83.8574 137.675 81.4669 143.162 80.1953 145.257L88.5876 143.027Z" fill="#E5E5E5"/>
<path d="M171.529 117.461C169.513 118.974 167.833 118.371 167.244 117.881C166.824 121.173 165.984 128.47 165.984 131.327C165.984 134.184 170.689 133.218 173.041 132.378C175.864 132.041 181.946 125.795 184.634 122.713C183.122 123.554 179.241 125.739 175.813 127.755C172.386 129.772 171.529 127.755 171.529 126.495V117.461Z" fill="#E5E5E5"/>
<path d="M603.468 102.812C600.662 102.965 599.754 101.624 599.651 100.934C596.781 103.312 590.494 108.632 588.3 110.885C586.107 113.137 590.686 114.801 593.25 115.352C595.81 116.542 605.566 114.754 610.125 113.711C608.246 113.593 603.403 113.315 599.059 113.137C594.715 112.96 595.565 110.928 596.532 109.934L603.468 102.812Z" fill="#E5E5E5"/>
<path d="M484.357 62.2596L472.766 84.2445C473.293 86.57 504.38 64.7963 501.482 61.6254C499.163 59.0887 489.1 60.9912 484.357 62.2596Z" fill="#E5E5E5"/>
</svg>
