<svg width="100" height="51" viewBox="0 0 100 51" fill="none" xmlns="http://www.w3.org/2000/svg">
<path d="M20.7882 16.0391L10.3923 20.6397L-0.00373407 25.2403C7.0444 28.0129 14.0925 30.7855 21.1406 33.5582C21.0232 27.7185 20.9057 21.8788 20.7882 16.0391Z" fill="#1BCF81"/>
<path d="M19.6433 19.8125L13.729 22.4298L7.81475 25.0471C11.8244 26.6244 15.8341 28.2017 19.8437 29.7791C19.7769 26.4569 19.7101 23.1347 19.6433 19.8125Z" fill="#FCFF53"/>
<path d="M89.8099 25.281C89.8099 24.9273 90.1947 24.6406 90.6692 24.6406L94.9845 24.6406C95.4591 24.6406 95.8437 24.9274 95.8437 25.281C95.8437 25.6347 95.459 25.9214 94.9845 25.9214L90.6694 25.9214C90.1948 25.9215 89.8099 25.6347 89.8099 25.281Z" fill="#1FD083"/>
<path d="M97.0851 28.3198C95.4753 28.3198 94.1702 26.9558 94.1702 25.2732C94.1702 23.5906 95.4752 22.2266 97.0851 22.2266C98.6949 22.2266 100 23.5906 100 25.2732C100 26.9558 98.695 28.3198 97.0851 28.3198Z" fill="#110031"/>
<path d="M91.0937 30.8735L91.0937 19.7029C91.0938 18.8615 90.4413 18.1797 89.6364 18.1797L88.5029 18.1797L88.5028 32.3967L89.6363 32.3967C90.4413 32.3967 91.0937 31.7147 91.0937 30.8735Z" fill="#110031"/>
<path d="M97.0852 23.5848C98.4716 23.5848 99.6311 24.5966 99.9264 25.9522C99.974 25.7337 100 25.5068 100 25.2732C100 23.5905 98.6951 22.2266 97.0852 22.2266C95.4754 22.2266 94.1704 23.5905 94.1704 25.2732C94.1704 25.5067 94.1963 25.7337 94.244 25.9522C94.5394 24.5966 95.6989 23.5848 97.0852 23.5848Z" fill="#231F20" fill-opacity="0.0980392"/>
<path d="M91.0937 21.0611L91.0937 19.703C91.0938 18.8615 90.4413 18.1797 89.6364 18.1797L88.5029 18.1797L88.5028 19.5379L89.6364 19.5379C90.4413 19.5379 91.0937 20.2196 91.0937 21.0611Z" fill="#231F20" fill-opacity="0.0980392"/>
<path d="M65.3537 28.6928L65.3536 20.9218C65.3537 20.0806 66.0063 19.3984 66.8111 19.3984L67.6207 19.3984C68.4256 19.3984 69.0781 20.0805 69.0781 20.9218L69.078 29.6381C69.0781 30.4796 68.4256 31.1614 67.6207 31.1614L66.8111 31.1614C66.0062 31.1614 65.3537 30.4796 65.3537 29.6381L65.3536 28.6928" fill="#110031"/>
<path d="M66.8111 20.7566L67.6207 20.7566C68.4255 20.7566 69.0781 21.4387 69.0781 22.2799L69.078 20.9218C69.0781 20.0806 68.4255 19.3985 67.6207 19.3985L66.8111 19.3984C66.0062 19.3984 65.3537 20.0806 65.3537 20.9218L65.3536 22.2799C65.3537 21.4387 66.0063 20.7565 66.8111 20.7566Z" fill="#231F20" fill-opacity="0.0980392"/>
<path d="M83.0156 11.6423C83.0042 9.56843 81.133 7.89062 78.8257 7.89062C76.5183 7.89062 74.647 9.56841 74.6355 11.6423L83.0156 11.6423Z" fill="#110031"/>
<path d="M83.0156 38.9063C83.0043 40.9799 81.133 42.6579 78.8256 42.6579C76.5182 42.6579 74.647 40.9799 74.6355 38.9062L83.0156 38.9063Z" fill="#110031"/>
<path d="M88.5937 39.0645L88.5937 16.0458L88.5937 13.9111L88.5937 11.4765C88.5937 10.6352 87.9412 9.95315 87.1363 9.95315L70.3761 9.95312C69.5711 9.95313 68.9187 10.6352 68.9187 11.4765L68.9186 39.0644C68.9187 39.9056 69.5712 40.5876 70.3761 40.5876L87.1363 40.5877C87.9413 40.5877 88.5937 39.9057 88.5937 39.0645Z" fill="#F6FDFF"/>
<path d="M82.4675 22.2305C80.8358 22.2305 79.513 20.848 79.513 19.1426C79.513 17.4372 80.8357 16.0547 82.4674 16.0547C84.0991 16.0547 85.4219 17.4372 85.4219 19.1426C85.4219 20.848 84.0992 22.2305 82.4675 22.2305Z" fill="#10CD7B"/>
<path d="M82.4675 34.5352C80.8358 34.5352 79.513 33.1527 79.513 31.4473C79.513 29.7419 80.8357 28.3594 82.4674 28.3594C84.0991 28.3594 85.4219 29.7419 85.4219 31.4473C85.4219 33.1527 84.0992 34.5352 82.4675 34.5352Z" fill="#1FD083"/>
<path d="M55.0469 5.39801C55.0469 3.41876 53.4975 1.79933 51.6038 1.79934L20.6166 1.79934C20.6166 0.719655 19.928 -1.60446e-06 18.895 -1.65165e-06C17.862 -1.69884e-06 17.1735 0.719653 17.1735 1.79933L17.1733 7.19733C17.1735 8.27702 17.862 8.99666 18.895 8.99666C19.928 8.99666 20.6166 8.27702 20.6166 7.19733L55.0469 8.99667L55.0469 5.39801ZM20.6166 48.5814L51.6038 48.5814C53.4975 48.5814 55.0469 46.962 55.0469 44.9827L55.0467 41.3841L20.6166 43.1836C20.6166 42.1039 19.928 41.3843 18.895 41.3843C17.862 41.3843 17.1735 42.1039 17.1735 43.1836L17.1733 48.5816C17.1735 49.6613 17.862 50.381 18.895 50.381C19.928 50.381 20.6166 49.6609 20.6166 48.5814Z" fill="#F6FDFF"/>
<path d="M18.895 8.99689C19.928 8.99689 20.6166 8.27724 20.6166 7.19756L55.0469 8.9969L55.0467 5.39844L20.6166 5.39844L17.1735 7.19776C17.1735 8.27724 17.862 8.99689 18.895 8.99689ZM55.0469 44.9831L55.0467 41.3845L20.6166 43.184C20.6166 42.1043 19.928 41.3847 18.895 41.3847C17.862 41.3847 17.1735 42.1043 17.1735 43.184L20.6166 44.9834L55.0469 44.9834L55.0467 44.9831L55.0469 44.9831Z" fill="#110031"/>
<path d="M19.173 24.9695C19.173 34.8657 26.7478 42.7825 36.216 42.7825L67.0311 42.7825L67.0312 7.15625L36.216 7.15626C26.7478 7.15627 19.173 15.0731 19.173 24.9695Z" fill="#F6FDFF"/>
<path d="M67.1094 25.1924C67.1094 27.1717 65.56 28.7911 63.6663 28.7911C61.7726 28.7911 60.2232 27.1717 60.2232 25.1924C60.2232 23.2132 61.7726 21.5937 63.6663 21.5937C65.56 21.5937 67.1094 23.213 67.1094 25.1924Z" fill="#110031"/>
<path d="M54.7225 6.07208L54.7223 6.07208L51.112 5.38281L51.6036 42.998L55.0469 42.998L54.9628 6.36819L55.0469 7.3718L54.7225 6.07208Z" fill="#110031"/>
<path d="M46.4375 30.594L46.4375 30.5938L29.2222 30.5937L29.2222 34.1926L46.4375 34.1924L46.4375 30.594L46.4375 30.5938L46.4375 30.594Z" fill="#10CD7B"/>
<path d="M46.4375 23.3987L46.4375 23.3985L29.2222 23.3984L29.2222 26.9973L46.4375 26.9971L46.4375 23.3987L46.4375 23.3985L46.4375 23.3987Z" fill="#10CD7B"/>
<path d="M46.4375 16.1955L46.4375 16.1954L29.2222 16.1953L29.2222 19.7942L46.4375 19.794L46.4375 16.1955L46.4375 16.1954L46.4375 16.1955Z" fill="#10CD7B"/>
<path d="M23.2656 12.2891L23.2654 37.4793L19.8227 33.8807L19.8225 15.8877L23.2656 12.2891Z" fill="#110031"/>
</svg>
