<svg width="201" height="200" viewBox="0 0 201 200" fill="none" xmlns="http://www.w3.org/2000/svg">
<path d="M88.6998 63.5505V57.0045L88.5686 56.459L86.0745 46.0946L85.2869 42.8216C79.8262 43.3671 78.0235 40.6851 77.8047 39.2759V29.0478C77.8047 25.0111 80.9551 24.5474 82.5303 24.8202V26.1839C98.1511 -12.9556 130.705 10.5008 131.887 26.1839V24.8202C133.331 24.502 136.219 24.902 136.219 29.0478V39.2759C135.99 40.5032 134.277 42.9307 129.247 42.8216L128.493 46.0946L126.105 56.459L125.98 57.0045C125.936 58.141 125.98 61.0389 125.98 63.5505C125.98 66.278 123.923 67.6872 122.304 68.1873H92.9004C89.4349 68.1873 88.6561 65.0961 88.6998 63.5505Z" fill="#FEFEFE"/>
<path d="M82.5303 7.36422V24.8202M131.887 0V24.8202M131.887 26.1839V31.3661L129.247 42.8216M131.887 26.1839C124.623 18.8197 104.583 8.50977 82.5303 26.1839M131.887 26.1839C130.705 10.5008 98.1511 -12.9556 82.5303 26.1839M131.887 26.1839V24.8202M82.5303 26.1839V31.3661L85.2869 42.8216M82.5303 26.1839V24.8202M131.887 24.8202C133.331 24.502 136.219 24.902 136.219 29.0478C136.219 33.1936 136.219 37.5939 136.219 39.2759C135.99 40.5032 134.277 42.9307 129.247 42.8216M129.247 42.8216L128.493 46.0946M82.5303 24.8202C80.9551 24.5474 77.8047 25.0111 77.8047 29.0478C77.8047 33.0845 77.8047 37.5485 77.8047 39.2759C78.0235 40.6851 79.8262 43.3671 85.2869 42.8216M85.2869 42.8216L86.0745 46.0946M88.5686 56.4591L88.6998 57.0045V63.5505C88.6561 65.0961 89.4349 68.1873 92.9004 68.1873C96.3658 68.1873 114.297 68.1873 122.304 68.1873C123.923 67.6872 125.98 66.278 125.98 63.5505C125.98 61.0389 125.936 58.141 125.98 57.0045L126.105 56.4591M88.5686 56.4591H126.105M88.5686 56.4591L86.0745 46.0946M126.105 56.4591L128.493 46.0946M86.0745 46.0946H128.493M91.9815 49.6403C93.0754 51.095 95.4732 53.8407 96.3133 53.1861C97.3635 52.3678 99.595 48.9585 100.776 49.6403C101.958 50.3222 104.321 53.7316 105.108 53.1861C105.896 52.6406 108.127 48.5493 109.309 49.6403C110.49 50.7313 112.197 54.2771 113.641 53.1861C115.085 52.0951 116.922 48.9585 117.841 49.6403C118.76 50.3222 121.254 54.0043 122.304 53.1861" stroke="#15003E" stroke-width="1.85354"/>
<rect x="90.3815" y="71.4205" width="32.7848" height="2.40936" rx="0.810924" fill="#26E798" stroke="#FEFEFE" stroke-width="0.231693"/>
<rect x="87.044" y="77.0361" width="39.7057" height="9.91116" fill="#FEFEFE" stroke="#110031" stroke-width="1.85354"/>
<mask id="path-5-inside-1_4141_119474" fill="white">
<rect x="78.0391" y="85.4766" width="57.4903" height="15.3661" rx="0.926771"/>
</mask>
<rect x="78.0391" y="85.4766" width="57.4903" height="15.3661" rx="0.926771" fill="#FEFEFE" stroke="#110031" stroke-width="3.70708" mask="url(#path-5-inside-1_4141_119474)"/>
<rect x="61.6455" y="98.8877" width="90.2694" height="7.03001" fill="#110031" stroke="#110031" stroke-width="1.85354"/>
<ellipse cx="106.891" cy="99.9969" rx="6.69566" ry="7.08283" fill="#110031"/>
<path d="M111.627 100C111.627 102.662 109.605 104.806 107.126 104.806C104.646 104.806 102.624 102.662 102.624 100C102.624 97.3387 104.646 95.194 107.126 95.194C109.605 95.194 111.627 97.3387 111.627 100Z" fill="#26E798" stroke="#FEFEFE" stroke-width="0.231693"/>
<path d="M135.29 106.367H78.5375C78.2215 107.474 79.6348 109.781 80.381 110.795C77.7475 116.773 82.005 116.146 84.4629 115.085C87.0965 117.963 97.4988 117.576 102.371 117.022C106.268 111.377 109.964 114.67 111.325 117.022C124.808 118.019 128.882 116.146 129.233 115.085C135.659 117.188 134.631 113.102 133.315 110.795C134.473 109.467 135.114 107.29 135.29 106.367Z" fill="#110031" stroke="white" stroke-width="0.463385"/>
<rect x="76.1875" y="105.406" width="63.7242" height="1.44058" fill="#110031"/>
<rect x="-1.28203" y="0.0874901" width="19.4009" height="58.0481" rx="6.02401" transform="matrix(-0.6426 0.766202 -0.740734 -0.671799 71.8183 99.0739)" fill="#FEFEFE" stroke="#110031" stroke-width="1.85354"/>
<rect x="0.134008" y="-1.32878" width="19.4273" height="57.9729" rx="6.02401" transform="matrix(-0.61763 -0.786468 0.762228 -0.647309 156.628 112.057)" fill="#FEFEFE" stroke="#110031" stroke-width="1.85354"/>
<ellipse cx="83.4547" cy="112.01" rx="1.96252" ry="2.04082" fill="#FEFEFE"/>
<ellipse cx="130.441" cy="112.01" rx="1.84708" ry="2.04082" fill="#FEFEFE"/>
<path d="M80.3438 118.367H85.4963L90.2718 122.929" stroke="#110031" stroke-width="1.85354"/>
<path d="M133.68 118.367H128.168L123.059 122.929" stroke="#110031" stroke-width="1.85354"/>
<path d="M91.1953 125.328V157.981" stroke="#110031" stroke-width="1.85354"/>
<path d="M122.594 125.328V157.981" stroke="#110031" stroke-width="1.85354"/>
<path d="M76.6406 126.581V156.04C84.0033 157.251 86.0192 153.883 86.1069 152.048V126.581C81.8997 118.652 78.043 123.277 76.6406 126.581Z" fill="#FEFEFE" stroke="#110031" stroke-width="1.85354"/>
<path d="M137.141 126.581V156.04C129.778 157.251 127.762 153.883 127.674 152.048V126.581C131.882 118.652 135.738 123.277 137.141 126.581Z" fill="#FEFEFE" stroke="#110031" stroke-width="1.85354"/>
<path d="M86.8008 159.783C86.8008 161.869 85.1363 163.539 83.1099 163.539C81.0835 163.539 79.419 161.869 79.419 159.783C79.419 157.697 81.0835 156.028 83.1099 156.028C85.1363 156.028 86.8008 157.697 86.8008 159.783Z" fill="#FEFEFE" stroke="#110031" stroke-width="1.85354"/>
<path d="M134.363 159.783C134.363 161.869 132.699 163.539 130.672 163.539C128.646 163.539 126.981 161.869 126.981 159.783C126.981 157.697 128.646 156.028 130.672 156.028C132.699 156.028 134.363 157.697 134.363 159.783Z" fill="#FEFEFE" stroke="#110031" stroke-width="1.85354"/>
<path d="M75.5 163.266H83.4277M91.8928 163.266H83.4277M83.4277 163.266V168.068" stroke="#110031" stroke-width="1.85354"/>
<path d="M122.133 163.266H129.949M138.295 163.266H129.949M129.949 163.266V168.068" stroke="#110031" stroke-width="1.85354"/>
<rect x="75.958" y="167.067" width="15.4628" height="7.5102" rx="2.78031" fill="#FEFEFE" stroke="#110031" stroke-width="1.85354"/>
<rect x="122.591" y="167.067" width="15.4628" height="7.5102" rx="2.78031" fill="#FEFEFE" stroke="#110031" stroke-width="1.85354"/>
<rect x="79.6533" y="174.036" width="8.0745" height="13.9928" fill="#FEFEFE" stroke="#110031" stroke-width="1.85354"/>
<rect x="125.833" y="174.036" width="8.0745" height="13.9928" fill="#FEFEFE" stroke="#110031" stroke-width="1.85354"/>
<rect x="68.1143" y="187.966" width="30.2394" height="8.95078" rx="3.2437" fill="#FEFEFE" stroke="#110031" stroke-width="1.85354"/>
<rect x="115.208" y="187.966" width="30.2394" height="8.95078" rx="3.2437" fill="#FEFEFE" stroke="#110031" stroke-width="1.85354"/>
<rect x="72.9531" y="195.922" width="9.92804" height="4.08163" fill="#110031"/>
<rect x="83.5703" y="195.922" width="9.69716" height="4.08163" fill="#110031"/>
<rect x="131.375" y="195.922" width="9.69716" height="4.08163" fill="#110031"/>
<rect x="120.75" y="195.922" width="9.69716" height="4.08163" fill="#110031"/>
<path d="M66.6797 105.766L53.8033 94.0876" stroke="#110031" stroke-width="1.85354"/>
<path d="M59.5625 87.2109L48.029 100.963" stroke="#110031" stroke-width="1.85354"/>
<path d="M51.5625 79.9453L40.029 93.6973" stroke="#110031" stroke-width="1.85354"/>
<path d="M149.18 105.477L162.413 94.2384" stroke="#110031" stroke-width="1.85354"/>
<path d="M167.961 101.297L156.57 86.7917" stroke="#110031" stroke-width="1.85354"/>
<path d="M176.195 94.3125L164.804 79.8074" stroke="#110031" stroke-width="1.85354"/>
<path d="M27.5651 77.3284C25.376 75.343 25.1249 71.9991 26.9148 69.8649C28.7046 67.7308 31.9245 67.5349 34.1136 69.5203C36.3028 71.5057 36.5539 74.8496 34.764 76.9837C32.9742 79.1179 29.7543 79.3138 27.5651 77.3284Z" fill="#26E798" stroke="#110031" stroke-width="1.85354"/>
<path d="M31.1797 73.5781L19.5214 63.0048" stroke="#110031" stroke-width="1.62185"/>
<rect x="-1.28203" y="0.0874901" width="9.24601" height="19.5231" rx="2.54862" transform="matrix(-0.6426 0.766202 -0.740734 -0.671799 21.623 59.9176)" fill="#FEFEFE" stroke="#110031" stroke-width="1.85354"/>
<path d="M4.68637 55.3046C2.81059 53.6034 2.61081 50.6363 4.25449 48.6765C5.89817 46.7166 8.75207 46.5191 10.6278 48.2203C12.5036 49.9215 12.7034 52.8886 11.0597 54.8484C9.41604 56.8082 6.56215 57.0058 4.68637 55.3046Z" fill="#26E798" stroke="#110031" stroke-width="1.85354"/>
<rect x="0.134008" y="-1.32878" width="9.25978" height="19.4963" rx="2.54862" transform="matrix(-0.61763 -0.786468 0.762228 -0.647309 179.526 85.7915)" fill="#FEFEFE" stroke="#110031" stroke-width="1.85354"/>
<path d="M184.704 69.0816C186.566 67.5003 189.375 67.7985 190.971 69.8298C192.566 71.8611 192.286 74.7828 190.423 76.3641C188.561 77.9454 185.752 77.6472 184.157 75.6159C182.562 73.5846 182.842 70.6629 184.704 69.0816Z" fill="#26E798" stroke="#110031" stroke-width="1.85354"/>
<path d="M124.206 29.7702C124.206 39.9065 116.364 48.0511 106.777 48.0511C97.1909 48.0511 89.3486 39.9065 89.3486 29.7702C89.3486 19.6338 97.1909 11.4893 106.777 11.4893C116.364 11.4893 124.206 19.6338 124.206 29.7702Z" fill="#FEFEFE" stroke="#15003E" stroke-width="1.85354"/>
<ellipse cx="106.658" cy="30.0078" rx="16.3928" ry="17.0468" fill="#10CD7B"/>
<path d="M123.976 46.1016H91.8828L93.0569 52.4519L120.845 52.5842L123.976 46.1016Z" stroke="#15003E" stroke-width="1.85354"/>
<path d="M127.443 47.3047H87.5L89.4774 55.2279H125.597L127.443 47.3047Z" fill="#26E798"/>
<path d="M91.8828 49.15C92.1441 48.8889 93.2936 49.3588 95.8018 53.327C96.4549 54.3713 99.0676 47.8446 100.243 49.15C101.419 50.4554 103.378 54.5019 104.423 53.327C105.469 52.1522 107.951 48.4974 108.734 49.15C109.518 49.8026 112.261 54.2408 113.045 53.327C113.829 52.4132 116.18 48.3668 117.095 49.15C118.009 49.9331 121.275 53.8492 121.667 53.327" stroke="#110031" stroke-width="1.85354"/>
</svg>
