<svg width="100" height="51" viewBox="0 0 100 51" fill="none" xmlns="http://www.w3.org/2000/svg">
<path d="M79.2039 16.0469L89.5998 20.6475L99.9956 25.2481C92.9476 28.0207 85.8996 30.7933 78.8516 33.566C78.969 27.7263 79.0865 21.8866 79.2039 16.0469Z" fill="#CC2F2F"/>
<path d="M80.3489 19.9141L86.2631 22.5313L92.1773 25.1486C88.1677 26.726 84.158 28.3033 80.1484 29.8807C80.2153 26.5585 80.2821 23.2363 80.3489 19.9141Z" fill="#FCFF53"/>
<path d="M10.2056 25.2888C10.2056 24.9351 9.82085 24.6484 9.34632 24.6484L5.03115 24.6484C4.55655 24.6484 4.17188 24.9352 4.17188 25.2888C4.17188 25.6425 4.55662 25.9292 5.03115 25.9292L9.34616 25.9292C9.82077 25.9293 10.2056 25.6425 10.2056 25.2888Z" fill="#CC2F2F"/>
<path d="M2.91484 28.3276C4.52468 28.3276 5.82971 26.9636 5.82971 25.281C5.82971 23.5984 4.52469 22.2344 2.91486 22.2344C1.30503 22.2344 1.05372e-07 23.5984 2.3535e-07 25.281C3.65331e-07 26.9636 1.30502 28.3276 2.91484 28.3276Z" fill="#222C33"/>
<path d="M8.90625 30.8578L8.90633 19.6873C8.90625 18.8459 9.55864 18.1641 10.3636 18.1641L11.4971 18.1641L11.4971 32.3811L10.3636 32.3811C9.55871 32.3811 8.90625 31.6991 8.90625 30.8578Z" fill="#222C33"/>
<path d="M2.91475 23.5926C1.52841 23.5926 0.368914 24.6045 0.0736129 25.96C0.0259677 25.7415 2.53708e-07 25.5146 2.35662e-07 25.281C-2.32361e-05 23.5983 1.30493 22.2344 2.91477 22.2344C4.52454 22.2344 5.82956 23.5983 5.82956 25.281C5.82956 25.5145 5.80357 25.7415 5.75592 25.96C5.46048 24.6044 4.30106 23.5926 2.91475 23.5926Z" fill="#231F20" fill-opacity="0.0980392"/>
<path d="M8.90625 21.0454L8.90633 19.6873C8.90625 18.8459 9.55864 18.1641 10.3636 18.1641L11.4971 18.1641L11.4972 19.5223L10.3636 19.5223C9.55871 19.5223 8.90625 20.204 8.90625 21.0454Z" fill="#231F20" fill-opacity="0.0980392"/>
<path d="M34.6463 28.7007L34.6463 20.9296C34.6463 20.0884 33.9937 19.4062 33.1889 19.4062L32.3793 19.4062C31.5744 19.4063 30.9219 20.0884 30.9219 20.9296L30.922 29.6459C30.9219 30.4874 31.5744 31.1693 32.3793 31.1693L33.1889 31.1692C33.9937 31.1693 34.6463 30.4874 34.6463 29.6459L34.6464 28.7007" fill="#222C33"/>
<path d="M33.1889 20.7644L32.3793 20.7644C31.5745 20.7644 30.9219 21.4465 30.9219 22.2877L30.922 20.9296C30.9219 20.0884 31.5745 19.4063 32.3793 19.4063L33.1889 19.4062C33.9938 19.4062 34.6463 20.0884 34.6463 20.9296L34.6464 22.2877C34.6463 21.4465 33.9937 20.7644 33.1889 20.7644Z" fill="#231F20" fill-opacity="0.0980392"/>
<path d="M16.9844 11.6501C16.9958 9.57624 18.867 7.89844 21.1743 7.89844C23.4817 7.89844 25.3528 9.57622 25.3643 11.6501L16.9844 11.6501Z" fill="#222C33"/>
<path d="M16.9844 38.9141C16.9957 40.9877 18.867 42.6657 21.1743 42.6657C23.4817 42.6658 25.3529 40.9877 25.3644 38.9141L16.9844 38.9141Z" fill="#222C33"/>
<path d="M11.4063 39.0723L11.4063 16.0536L11.4063 13.9189L11.4063 11.4843C11.4063 10.643 12.0588 9.96096 12.8636 9.96096L29.6237 9.96094C30.4286 9.96094 31.0811 10.643 31.0811 11.4843L31.0811 39.0723C31.0811 39.9134 30.4285 40.5955 29.6236 40.5955L12.8636 40.5955C12.0587 40.5955 11.4063 39.9135 11.4063 39.0723Z" fill="#757087"/>
<path d="M17.5325 22.2305C19.1642 22.2305 20.4869 20.848 20.4869 19.1426C20.4869 17.4372 19.1642 16.0547 17.5325 16.0547C15.9009 16.0547 14.5781 17.4372 14.5781 19.1426C14.5781 20.848 15.9008 22.2305 17.5325 22.2305Z" fill="#CC2F2F"/>
<path d="M17.5325 34.5352C19.1642 34.5352 20.4869 33.1527 20.4869 31.4473C20.4869 29.7419 19.1642 28.3594 17.5325 28.3594C15.9009 28.3594 14.5781 29.7419 14.5781 31.4473C14.5781 33.1527 15.9008 34.5352 17.5325 34.5352Z" fill="#CC2F2F"/>
<path d="M44.9531 5.39801C44.9531 3.41876 46.5025 1.79933 48.3962 1.79934L79.3829 1.79934C79.3829 0.719654 80.0715 -2.84549e-06 81.1045 -2.92919e-06C82.1375 -3.01289e-06 82.826 0.719652 82.826 1.79933L82.8262 7.19733C82.826 8.27702 82.1375 8.99666 81.1045 8.99666C80.0715 8.99666 79.3829 8.27702 79.3829 7.19733L44.9531 8.99667L44.9531 5.39801ZM79.3829 48.5814L48.3962 48.5814C46.5025 48.5814 44.9531 46.962 44.9531 44.9827L44.9533 41.3841L79.383 43.1836C79.383 42.1039 80.0715 41.3843 81.1045 41.3843C82.1375 41.3843 82.826 42.1039 82.826 43.1836L82.8262 48.5816C82.826 49.6613 82.1375 50.381 81.1045 50.381C80.0715 50.381 79.3829 49.6609 79.3829 48.5814Z" fill="#757087"/>
<path d="M81.1045 8.98907C80.0715 8.98907 79.3829 8.26943 79.3829 7.18975L44.9531 8.98908L44.9533 5.39062L79.3829 5.39062L82.826 7.18995C82.826 8.26943 82.1375 8.98907 81.1045 8.98907ZM44.9531 44.9753L44.9533 41.3767L79.383 43.1762C79.383 42.0965 80.0715 41.3769 81.1045 41.3769C82.1375 41.3769 82.826 42.0965 82.826 43.1762L79.3829 44.9756L44.9531 44.9755L44.9533 44.9753L44.9531 44.9753Z" fill="#222C33"/>
<path d="M80.8263 24.9617C80.8263 34.8579 73.2517 42.7747 63.7836 42.7747L32.9689 42.7747L32.9688 7.14844L63.7836 7.14845C73.2517 7.14846 80.8263 15.0652 80.8263 24.9617Z" fill="#757087"/>
<path d="M32.8984 25.1924C32.8984 27.1717 34.4478 28.7911 36.3415 28.7911C38.2351 28.7911 39.7845 27.1717 39.7845 25.1924C39.7845 23.2132 38.2351 21.5937 36.3415 21.5937C34.4478 21.5937 32.8984 23.213 32.8984 25.1924Z" fill="#222C33"/>
<path d="M45.2775 6.07989L45.2777 6.07989L48.8879 5.39062L48.3964 43.0058L44.9531 43.0058L45.0372 6.37601L44.9531 7.37962L45.2775 6.07989Z" fill="#222C33"/>
<path d="M53.5625 30.5862L53.5625 30.586L70.7776 30.5859L70.7776 34.1848L53.5625 34.1846L53.5625 30.5862L53.5625 30.586L53.5625 30.5862Z" fill="#CC2F2F"/>
<path d="M53.5625 23.3909L53.5625 23.3907L70.7776 23.3906L70.7776 26.9895L53.5625 26.9893L53.5625 23.3909L53.5625 23.3907L53.5625 23.3909Z" fill="#CC2F2F"/>
<path d="M53.5625 16.1955L53.5625 16.1954L70.7776 16.1953L70.7776 19.7942L53.5625 19.794L53.5625 16.1955L53.5625 16.1954L53.5625 16.1955Z" fill="#CC2F2F"/>
<path d="M76.7422 12.2891L76.7424 37.4793L80.1851 33.8807L80.1853 15.8877L76.7422 12.2891Z" fill="#637079"/>
</svg>
