<svg width="80" height="141" viewBox="0 0 80 141" fill="none" xmlns="http://www.w3.org/2000/svg">
<path d="M32.6953 129.797L40.3434 129.797L47.9915 129.797C47.9916 133.332 47.9916 136.866 47.9916 140.4C42.8928 140.4 37.7941 140.4 32.6953 140.4C32.6953 136.866 32.6953 133.331 32.6953 129.797Z" fill="#313440"/>
<path d="M22.5859 121.984H40.364L58.1421 121.985C58.1421 126.235 58.1421 130.485 58.1421 134.736C46.2901 134.736 34.438 134.736 22.586 134.736C22.5859 130.485 22.5859 126.235 22.5859 121.984Z" fill="#3F434F"/>
<path d="M63.5238 112.537C63.5238 113.157 63.0535 113.634 62.442 113.634L17.4802 113.634C16.8687 113.634 16.3985 113.157 16.3985 112.537L16.3984 110.199C16.3984 109.579 16.8687 109.102 17.4802 109.102L62.3949 109.102C63.0063 109.102 63.4768 109.579 63.4767 110.199L63.4768 112.537H63.5238Z" fill="#3F434F"/>
<path d="M63.5237 119.552C63.5237 120.172 63.0532 120.649 62.442 120.649L17.4802 120.65C16.8688 120.649 16.3984 120.172 16.3984 119.552V117.214C16.3984 116.594 16.8687 116.117 17.4801 116.117L62.395 116.117C63.0063 116.117 63.4767 116.594 63.4767 117.214V119.552H63.5237Z" fill="#3F434F"/>
<path d="M17.6641 98.9531L40.0835 98.9532H62.5029C62.5029 108.64 62.5029 118.326 62.5028 128.012C47.5566 128.012 32.6103 128.012 17.6641 128.012C17.6641 118.326 17.6641 108.64 17.6641 98.9531Z" fill="#292B37"/>
<path d="M39.9766 0C17.9661 0 6.8427e-05 18.1767 9.32093e-09 40.5994C-3.41995e-05 41.4104 0.0941003 42.4122 0.188106 43.4141C0.799544 48.9483 2.49256 54.3392 5.12639 59.2055C7.94827 64.501 12.181 72.4681 15.6613 78.7655C17.2604 81.6758 19.9412 85.4447 19.4708 97.3716L39.9763 97.3721L60.529 97.3715C60.0588 85.3969 62.7396 81.6758 64.3386 78.7655C67.8188 72.4681 72.0517 64.5487 74.8736 59.2532C77.5074 54.3391 79.2006 48.948 79.8119 43.4141C79.9059 42.4122 80 41.4103 80 40.5993C80 18.1766 61.9871 0 39.9766 0Z" fill="#5BF1CD"/>
<path d="M27.6072 97.402L19.4708 97.4025C19.9412 85.4273 17.2604 81.7061 15.6613 78.7959C12.181 72.4985 7.94827 64.579 5.12639 59.2835C2.49256 54.3694 0.799544 48.9786 0.188106 43.4443C0.0941003 42.4426 -3.41995e-05 41.4407 9.32086e-09 40.6297C9.32086e-09 24.9339 8.79494 11.3371 21.5874 4.5625C12.6515 12.4821 6.96064 24.1227 6.96064 37.0993C6.96064 37.9581 7.05467 39.0077 7.19581 40.1049C7.80717 45.973 9.64131 51.6978 12.4162 56.8982C15.4262 62.5277 19.9412 70.9718 23.6096 77.6509C25.2557 80.7043 28.1245 84.7594 27.6072 97.402Z" fill="#02E2AC"/>
<path d="M63.68 100.864C63.68 101.485 63.2095 101.962 62.5982 101.962L17.6365 101.962C17.0251 101.962 16.5548 101.485 16.5548 100.864L16.5547 98.5268C16.5548 97.9067 17.0251 97.4297 17.6365 97.4297L62.5512 97.4299C63.1625 97.4296 63.6329 97.9066 63.6329 98.5267V100.864H63.68Z" fill="#3F434F"/>
<path d="M65.7994 13.152C54.6059 2.513 39.4149 3.22862 38.8035 3.27632C37.0633 3.37188 35.7466 4.89837 35.8407 6.616C35.9346 8.38115 37.4396 9.71696 39.1327 9.62162C39.2739 9.62162 52.2544 9.00128 61.5195 17.7796C67.6336 23.5999 70.7376 32.2351 70.8316 43.5418C70.8316 45.1161 71.9604 46.4042 73.4655 46.6428C73.6535 46.6905 73.8417 46.6905 73.9828 46.6905C75.7228 46.6905 77.0868 45.2593 77.0868 43.4942C76.9926 30.3743 73.1833 20.1649 65.7994 13.152Z" fill="#86EC9A"/>
</svg>
