<svg width="80" height="141" viewBox="0 0 80 141" fill="none" xmlns="http://www.w3.org/2000/svg">
<path d="M32.6953 129.812L40.3434 129.813L47.9915 129.813C47.9916 133.347 47.9916 136.881 47.9916 140.416C42.8928 140.416 37.7941 140.416 32.6953 140.416C32.6953 136.881 32.6953 133.347 32.6953 129.812Z" fill="#313440"/>
<path d="M22.5859 121.992H40.364L58.1421 121.992C58.1421 126.243 58.1421 130.493 58.1421 134.744C46.2901 134.744 34.438 134.744 22.586 134.744C22.5859 130.493 22.5859 126.243 22.5859 121.992Z" fill="#3F434F"/>
<path d="M17.6641 98.9531L40.0835 98.9532H62.5029C62.5029 108.639 62.5029 118.326 62.5028 128.012C47.5566 128.012 32.6103 128.012 17.6641 128.012C17.6641 118.326 17.6641 108.639 17.6641 98.9531Z" fill="#292B37"/>
<path d="M39.9766 0C17.9661 0 6.8427e-05 18.1766 9.32093e-09 40.5991C-3.41995e-05 41.4101 0.0941003 42.4119 0.188106 43.4138C0.799544 48.9479 2.49256 54.3388 5.12639 59.205C7.94827 64.5005 12.181 72.4676 15.6613 78.7649C17.2604 81.6751 19.9412 85.444 19.4708 97.3708L39.9763 97.3713L60.529 97.3707C60.0588 85.3962 62.7396 81.6751 64.3386 78.7649C67.8188 72.4675 72.0517 64.5482 74.8736 59.2528C77.5074 54.3387 79.2006 48.9477 79.8119 43.4137C79.9059 42.4119 80 41.41 80 40.599C80 18.1765 61.9871 0 39.9766 0Z" fill="#FDF468"/>
<path d="M27.6072 97.4012L19.4708 97.4018C19.9412 85.4267 17.2604 81.7055 15.6613 78.7953C12.181 72.4979 7.94827 64.5785 5.12639 59.2831C2.49256 54.369 0.799544 48.9783 0.188106 43.444C0.0941003 42.4423 -3.41995e-05 41.4404 9.32086e-09 40.6294C9.32086e-09 24.9337 8.79494 11.337 21.5874 4.5625C12.6515 12.482 6.96064 24.1226 6.96064 37.099C6.96064 37.9578 7.05467 39.0075 7.19581 40.1047C7.80717 45.9726 9.64131 51.6975 12.4162 56.8977C15.4262 62.5273 19.9412 70.9713 23.6096 77.6503C25.2557 80.7036 28.1245 84.7587 27.6072 97.4012Z" fill="#E2A305"/>
<path d="M63.68 100.849C63.68 101.469 63.2095 101.946 62.5982 101.946L17.6365 101.947C17.0251 101.946 16.5548 101.469 16.5548 100.849L16.5547 98.5112C16.5548 97.891 17.0251 97.4141 17.6365 97.4141L62.5512 97.4142C63.1625 97.414 63.6329 97.891 63.6329 98.511V100.849H63.68Z" fill="#3F434F"/>
<path d="M63.5238 112.529C63.5238 113.149 63.0535 113.626 62.442 113.626L17.4802 113.627C16.8687 113.626 16.3985 113.149 16.3985 112.529L16.3984 110.191C16.3984 109.571 16.8687 109.094 17.4802 109.094L62.3949 109.094C63.0063 109.094 63.4768 109.571 63.4767 110.191L63.4768 112.529H63.5238Z" fill="#3F434F"/>
<path d="M63.5237 119.544C63.5237 120.164 63.0532 120.642 62.442 120.642L17.4802 120.642C16.8688 120.642 16.3984 120.165 16.3984 119.544V117.207C16.3984 116.586 16.8687 116.109 17.4801 116.109L62.395 116.11C63.0063 116.109 63.4767 116.586 63.4767 117.206V119.544H63.5237Z" fill="#3F434F"/>
<path d="M65.7994 13.1519C54.6059 2.513 39.4149 3.22863 38.8035 3.27632C37.0633 3.37188 35.7466 4.89836 35.8407 6.61598C35.9346 8.38111 37.4396 9.71691 39.1327 9.62156C39.2739 9.62156 52.2544 9.00124 61.5195 17.7795C67.6336 23.5998 70.7376 32.2349 70.8316 43.5415C70.8316 45.1157 71.9604 46.4039 73.4655 46.6424C73.6535 46.6902 73.8417 46.6901 73.9828 46.6901C75.7228 46.6901 77.0868 45.2589 77.0868 43.4938C76.9926 30.3741 73.1833 20.1648 65.7994 13.1519Z" fill="#FED96F"/>
</svg>
