<svg width="80" height="141" viewBox="0 0 80 141" fill="none" xmlns="http://www.w3.org/2000/svg">
<path d="M32.6953 129.797L40.3434 129.797L47.9915 129.797C47.9916 133.331 47.9916 136.866 47.9916 140.4C42.8928 140.4 37.7941 140.4 32.6953 140.4C32.6953 136.866 32.6953 133.331 32.6953 129.797Z" fill="#313440"/>
<path d="M22.5859 121.984H40.364L58.1421 121.985C58.1421 126.235 58.1421 130.485 58.1421 134.736C46.2901 134.736 34.438 134.736 22.586 134.736C22.5859 130.485 22.5859 126.235 22.5859 121.984Z" fill="#3F434F"/>
<path d="M17.6641 98.9531L40.0835 98.9532H62.5029C62.5029 108.639 62.5029 118.326 62.5028 128.012C47.5566 128.012 32.6103 128.012 17.6641 128.012C17.6641 118.326 17.6641 108.639 17.6641 98.9531Z" fill="#292B37"/>
<path d="M39.9766 0C17.9661 0 6.8427e-05 18.1766 9.32093e-09 40.5991C-3.41995e-05 41.4101 0.0941003 42.4119 0.188106 43.4138C0.799544 48.948 2.49256 54.3388 5.12639 59.2051C7.94827 64.5005 12.181 72.4676 15.6613 78.765C17.2604 81.6752 19.9412 85.4441 19.4708 97.3708L39.9763 97.3713L60.529 97.3707C60.0588 85.3962 62.7396 81.6752 64.3386 78.765C67.8188 72.4675 72.0517 64.5482 74.8736 59.2528C77.5074 54.3387 79.2006 48.9477 79.8119 43.4137C79.9059 42.4119 80 41.41 80 40.599C80 18.1765 61.9871 0 39.9766 0Z" fill="#DA8585"/>
<path d="M27.6072 97.4013L19.4708 97.4018C19.9412 85.4267 17.2604 81.7055 15.6613 78.7953C12.181 72.498 7.94827 64.5785 5.12639 59.2831C2.49256 54.3691 0.799544 48.9783 0.188106 43.444C0.0941003 42.4423 -3.41995e-05 41.4404 9.32086e-09 40.6294C9.32086e-09 24.9337 8.79494 11.337 21.5874 4.5625C12.6515 12.482 6.96064 24.1226 6.96064 37.0991C6.96064 37.9578 7.05467 39.0075 7.19581 40.1047C7.80717 45.9727 9.64131 51.6975 12.4162 56.8978C15.4262 62.5273 19.9412 70.9713 23.6096 77.6503C25.2557 80.7037 28.1245 84.7588 27.6072 97.4013Z" fill="#BA584D"/>
<path d="M63.68 100.857C63.68 101.477 63.2095 101.954 62.5982 101.954L17.6365 101.954C17.0251 101.954 16.5548 101.477 16.5548 100.857L16.5547 98.519C16.5548 97.8988 17.0251 97.4219 17.6365 97.4219L62.5512 97.4221C63.1625 97.4218 63.6329 97.8988 63.6329 98.5188V100.857H63.68Z" fill="#3F434F"/>
<path d="M63.5238 112.521C63.5238 113.141 63.0535 113.618 62.442 113.618L17.4802 113.619C16.8687 113.618 16.3985 113.141 16.3985 112.521L16.3984 110.183C16.3984 109.563 16.8687 109.086 17.4802 109.086L62.3949 109.086C63.0063 109.086 63.4768 109.563 63.4767 110.183L63.4768 112.521H63.5238Z" fill="#3F434F"/>
<path d="M63.5237 119.536C63.5237 120.157 63.0532 120.634 62.442 120.634L17.4802 120.634C16.8688 120.634 16.3984 120.157 16.3984 119.537V117.199C16.3984 116.579 16.8687 116.102 17.4801 116.102L62.395 116.102C63.0063 116.101 63.4767 116.578 63.4767 117.199V119.536H63.5237Z" fill="#3F434F"/>
<path d="M65.7994 13.1597C54.6059 2.52082 39.4149 3.23644 38.8035 3.28413C37.0633 3.37969 35.7466 4.90617 35.8407 6.62379C35.9346 8.38893 37.4396 9.72473 39.1327 9.62938C39.2739 9.62938 52.2544 9.00905 61.5195 17.7873C67.6336 23.6076 70.7376 32.2427 70.8316 43.5493C70.8316 45.1236 71.9604 46.4117 73.4655 46.6502C73.6535 46.698 73.8417 46.698 73.9828 46.698C75.7228 46.698 77.0868 45.2668 77.0868 43.5017C76.9926 30.382 73.1833 20.1726 65.7994 13.1597Z" fill="#FF003A"/>
</svg>
