<svg width="200" height="131" viewBox="0 0 200 131" fill="none" xmlns="http://www.w3.org/2000/svg">
<path d="M38.7294 41.6153V37.3287L38.6555 36.9715L37.2509 30.1845L36.8074 28.0412C33.7322 28.3984 32.717 26.6421 32.5938 25.7193V19.0216C32.5938 16.3782 34.3679 16.0746 35.255 16.2532V17.1462C44.0519 -8.4838 62.3849 6.87634 63.0503 17.1462V16.2532C63.8634 16.0448 65.4897 16.3068 65.4897 19.0216V25.7193C65.3613 26.523 64.3963 28.1126 61.5639 28.0412L61.1392 30.1845L59.7945 36.9715L59.7237 37.3287C59.6991 38.0729 59.7237 39.9705 59.7237 41.6153C59.7237 43.4013 58.5656 44.3241 57.6538 44.6516H41.095C39.1434 44.6516 38.7048 42.6274 38.7294 41.6153Z" fill="#FEFEFE"/>
<path d="M35.255 4.82237V16.2532M63.0503 0V16.2532M63.0503 17.1462V20.5397L61.5639 28.0412M63.0503 17.1462C58.9598 12.3238 47.6742 5.57251 35.255 17.1462M63.0503 17.1462C62.3849 6.87634 44.0519 -8.4838 35.255 17.1462M63.0503 17.1462V16.2532M35.255 17.1462V20.5397L36.8074 28.0412M35.255 17.1462V16.2532M63.0503 16.2532C63.8634 16.0448 65.4897 16.3068 65.4897 19.0216C65.4897 21.7364 65.4897 24.6179 65.4897 25.7193C65.3613 26.523 64.3963 28.1126 61.5639 28.0412M61.5639 28.0412L61.1392 30.1845M35.255 16.2532C34.3679 16.0746 32.5938 16.3782 32.5938 19.0216C32.5938 21.6649 32.5938 24.5881 32.5938 25.7193C32.717 26.6421 33.7322 28.3984 36.8074 28.0412M36.8074 28.0412L37.2509 30.1845M38.6555 36.9715L38.7294 37.3287V41.6153C38.7048 42.6274 39.1434 44.6516 41.095 44.6516C43.0465 44.6516 53.1445 44.6516 57.6538 44.6516C58.5656 44.3241 59.7237 43.4013 59.7237 41.6153C59.7237 39.9705 59.6991 38.0729 59.7237 37.3287L59.7945 36.9715M38.6555 36.9715H59.7945M38.6555 36.9715L37.2509 30.1845M59.7945 36.9715L61.1392 30.1845M37.2509 30.1845H61.1392M40.5775 32.5063C41.1935 33.4589 42.5439 35.2569 43.017 34.8282C43.6084 34.2924 44.8651 32.0598 45.5304 32.5063C46.1957 32.9529 47.5263 35.1854 47.9698 34.8282C48.4134 34.471 49.6701 31.7919 50.3354 32.5063C51.0007 33.2208 51.9617 35.5426 52.7749 34.8282C53.588 34.1138 54.623 32.0598 55.1404 32.5063C55.6579 32.9529 57.0624 35.364 57.6538 34.8282" stroke="#1F0257" stroke-width="2"/>
<rect x="40.0496" y="47.1277" width="17.7286" height="0.864731" rx="0.432366" fill="#26E798" stroke="#FEFEFE" stroke-width="0.864731"/>
<rect x="38.2812" y="50.8359" width="21.4043" height="5.70397" fill="#FEFEFE" stroke="#110031" stroke-width="2"/>
<mask id="path-5-inside-1_4307_120231" fill="white">
<rect x="32.7266" y="55.9766" width="32.3759" height="10.0623" rx="1.47403"/>
</mask>
<rect x="32.7266" y="55.9766" width="32.3759" height="10.0623" rx="1.47403" fill="#FEFEFE" stroke="#110031" stroke-width="4" mask="url(#path-5-inside-1_4307_120231)"/>
<rect x="23.9766" y="65.1484" width="49.8794" height="3.81728" fill="#110031" stroke="#110031" stroke-width="2"/>
<ellipse cx="48.9738" cy="65.474" rx="3.77069" ry="4.6381" fill="#110031"/>
<path d="M50.7088 65.4809C50.7088 66.9198 49.8024 67.704 49.1083 67.704C48.4141 67.704 47.5078 66.9198 47.5078 65.4809C47.5078 64.042 48.4141 63.2578 49.1083 63.2578C49.8024 63.2578 50.7088 64.042 50.7088 65.4809Z" fill="#26E798" stroke="#FEFEFE" stroke-width="2"/>
<path d="M64.9702 69.6484H33.0099C32.8319 70.3734 33.6279 71.8836 34.0481 72.5481C32.565 76.4627 34.9626 76.052 36.3468 75.3572C37.8299 77.242 43.6881 76.9883 46.4317 76.6259C48.6267 72.9287 50.7079 75.0854 51.4742 76.6259C59.0675 77.2783 61.3614 76.052 61.5591 75.3572C65.1778 76.7346 64.5994 74.0584 63.8579 72.5481C64.5104 71.6782 64.8713 70.2525 64.9702 69.6484Z" fill="#110031" stroke="white" stroke-width="2"/>
<rect x="31.6875" y="69.0234" width="35.8865" height="0.943343" fill="#110031"/>
<rect x="0.473517" y="1.44155" width="10.2312" height="36.8037" rx="5.11558" transform="matrix(0.855705 0.517464 -0.382187 0.924085 19.5802 60.2628)" fill="#FEFEFE" stroke="#110031" stroke-width="2"/>
<rect x="0.15186" y="-1.53135" width="11.2252" height="34.0914" rx="5.6126" transform="matrix(-0.559683 -0.828707 0.711543 -0.702643 77.6233 72.2607)" fill="#FEFEFE" stroke="#110031" stroke-width="2"/>
<ellipse cx="35.7771" cy="73.3442" rx="1.1052" ry="1.3364" fill="#FEFEFE"/>
<ellipse cx="62.2355" cy="73.3442" rx="1.04019" ry="1.3364" fill="#FEFEFE"/>
<path d="M34.0234 77.5078H36.9251L39.6145 80.4951" stroke="#110031" stroke-width="2"/>
<path d="M64.0625 77.5078H60.9584L58.0814 80.4951" stroke="#110031" stroke-width="2"/>
<path d="M40.1328 82.0703V103.453" stroke="#110031" stroke-width="2"/>
<path d="M57.8203 82.0703V103.453" stroke="#110031" stroke-width="2"/>
<path d="M31.9453 82.8904V102.181C36.0916 102.974 37.2269 100.769 37.2763 99.567V82.8904C34.907 77.6981 32.7351 80.7269 31.9453 82.8904Z" fill="#FEFEFE" stroke="#110031" stroke-width="2"/>
<path d="M66.0156 82.8904V102.181C61.8693 102.974 60.734 100.769 60.6847 99.567V82.8904C63.054 77.6981 65.2259 80.7269 66.0156 82.8904Z" fill="#FEFEFE" stroke="#110031" stroke-width="2"/>
<path d="M37.1853 104.628C37.1853 105.93 36.3207 106.694 35.5848 106.694C34.849 106.694 33.9844 105.93 33.9844 104.628C33.9844 103.327 34.849 102.562 35.5848 102.562C36.3207 102.562 37.1853 103.327 37.1853 104.628Z" fill="#FEFEFE" stroke="#110031" stroke-width="2"/>
<path d="M63.9744 104.628C63.9744 105.93 63.1098 106.694 62.3739 106.694C61.638 106.694 60.7734 105.93 60.7734 104.628C60.7734 103.327 61.638 102.562 62.3739 102.562C63.1098 102.562 63.9744 103.327 63.9744 104.628Z" fill="#FEFEFE" stroke="#110031" stroke-width="2"/>
<path d="M31.2969 106.914H35.7614M40.5286 106.914H35.7614M35.7614 106.914V110.059" stroke="#110031" stroke-width="2"/>
<path d="M57.5625 106.914H61.9641M66.6642 106.914H61.9641M61.9641 106.914V110.059" stroke="#110031" stroke-width="2"/>
<rect x="32.0391" y="109.805" width="7.75177" height="4.13173" rx="2.06586" fill="#FEFEFE" stroke="#110031" stroke-width="2"/>
<rect x="58.2969" y="109.805" width="7.75177" height="4.13173" rx="2.06586" fill="#FEFEFE" stroke="#110031" stroke-width="2"/>
<rect x="34.1172" y="114.359" width="3.59102" height="8.37677" fill="#FEFEFE" stroke="#110031" stroke-width="2"/>
<rect x="60.125" y="114.359" width="3.59102" height="8.37677" fill="#FEFEFE" stroke="#110031" stroke-width="2"/>
<rect x="27.6094" y="123.484" width="16.0733" height="5.07507" rx="2.53754" fill="#FEFEFE" stroke="#110031" stroke-width="2"/>
<rect x="54.1406" y="123.484" width="16.0733" height="5.07507" rx="2.53754" fill="#FEFEFE" stroke="#110031" stroke-width="2"/>
<rect x="29.8672" y="128.289" width="5.59102" height="2.67281" fill="#110031"/>
<rect x="35.8438" y="128.289" width="5.46099" height="2.67281" fill="#110031"/>
<rect x="62.7656" y="128.289" width="5.46099" height="2.67281" fill="#110031"/>
<rect x="56.7812" y="128.289" width="5.46099" height="2.67281" fill="#110031"/>
<path d="M24.0781 63.8438L19.7744 74.2496" stroke="#110031" stroke-width="2"/>
<path d="M15.3516 71.5781L24.1897 76.9228" stroke="#110031" stroke-width="2"/>
<path d="M12.6797 78.0547L21.5179 83.3993" stroke="#110031" stroke-width="2"/>
<path d="M72.7891 69.0703L80.2415 61.7111" stroke="#110031" stroke-width="2"/>
<path d="M83.3672 66.3359L76.9522 56.8374" stroke="#110031" stroke-width="2"/>
<path d="M88.0078 61.7578L81.5928 52.2593" stroke="#110031" stroke-width="2"/>
<path d="M14.2918 94.0611C13.5953 95.7452 12.0712 96.2214 11.0231 95.5876C9.97497 94.9538 9.37583 93.1935 10.0723 91.5095C10.7688 89.8255 12.293 89.3492 13.3411 89.983C14.3892 90.6168 14.9883 92.3771 14.2918 94.0611Z" fill="#26E798" stroke="#110031" stroke-width="2"/>
<path d="M12.2188 92.5391L8.32216 101.961" stroke="#110031" stroke-width="2"/>
<rect x="0.473517" y="1.44155" width="4.38738" height="11.8476" rx="2.19369" transform="matrix(0.855705 0.517464 -0.382187 0.924085 6.14271 99.7785)" fill="#FEFEFE" stroke="#110031" stroke-width="2"/>
<path d="M5.97767 112.756C5.39215 114.172 4.0643 114.575 3.11599 114.002C2.16769 113.428 1.63784 111.902 2.22337 110.486C2.80889 109.07 4.13674 108.667 5.08504 109.241C6.03335 109.814 6.56319 111.341 5.97767 112.756Z" fill="#26E798" stroke="#110031" stroke-width="2"/>
<rect x="0.15186" y="-1.53135" width="4.9065" height="10.8797" rx="2.45325" transform="matrix(-0.559683 -0.828707 0.711543 -0.702643 90.514 55.0576)" fill="#FEFEFE" stroke="#110031" stroke-width="2"/>
<path d="M93.034 45.5836C93.8812 44.7469 95.2219 44.8623 96.0117 46.0319C96.8016 47.2015 96.6273 48.8129 95.78 49.6496C94.9328 50.4863 93.5922 50.3708 92.8023 49.2013C92.0124 48.0317 92.1867 46.4202 93.034 45.5836Z" fill="#26E798" stroke="#110031" stroke-width="2"/>
<path d="M58.2441 19.4998C58.2441 26.0866 53.8892 31.0777 48.9072 31.0777C43.9252 31.0777 39.5703 26.0866 39.5703 19.4998C39.5703 12.913 43.9252 7.92188 48.9072 7.92188C53.8892 7.92188 58.2441 12.913 58.2441 19.4998Z" fill="#FEFEFE" stroke="#1F0257" stroke-width="2"/>
<ellipse cx="48.8489" cy="19.6473" rx="9.23168" ry="11.1629" fill="#10CD7B"/>
<path d="M58.6045 30.1875H40.5312L41.1925 34.3459L56.8413 34.4325L58.6045 30.1875Z" stroke="#1F0257" stroke-width="2"/>
<path d="M39.4844 13.9931C44.9244 9.54736 51.7758 8.19507 58.5978 13.5296" stroke="#1F0257" stroke-width="2"/>
<path d="M57.4538 11.6867C49.0514 6.98126 43.3024 10.5538 39.6172 12.7323L39.9857 10.4668C40.993 9.39208 43.0371 7.22529 43.155 7.15559C43.2729 7.08588 45.2679 6.02282 46.2506 5.5L53.3263 6.02282L57.7486 9.8568C57.9697 10.2634 58.1613 11.1987 57.4538 11.6867Z" fill="#FEFEFE" stroke="black" stroke-width="2"/>
<ellipse cx="52.1733" cy="15.644" rx="2.66548" ry="3.06586" fill="#FEFEFE"/>
<ellipse cx="55.2849" cy="20.126" rx="1.1052" ry="1.41501" fill="#FEFEFE"/>
<path d="M60.6104 30.5391H37.6016L38.7406 36.6464H59.5472L60.6104 30.5391Z" fill="#26E798" stroke="black" stroke-width="2"/>
<path d="M40.5312 32.1917C40.6784 32.0207 41.3258 32.3284 42.7382 34.927C43.1061 35.6108 44.5774 31.3369 45.2395 32.1917C45.9016 33.0465 47.0051 35.6963 47.5936 34.927C48.1821 34.1576 49.5799 31.7643 50.0213 32.1917C50.4627 32.619 52.0075 35.5253 52.4489 34.927C52.8903 34.3286 54.2145 31.6788 54.7295 32.1917C55.2444 32.7045 57.0836 35.2689 57.3043 34.927" stroke="#110031" stroke-width="2"/>
<path d="M140.354 41.6153V37.3287L140.28 36.9715L138.876 30.1845L138.432 28.0412C135.357 28.3984 134.342 26.6421 134.219 25.7193V19.0216C134.219 16.3782 135.993 16.0746 136.88 16.2532V17.1462C145.677 -8.4838 164.01 6.87634 164.675 17.1462V16.2532C165.488 16.0448 167.115 16.3068 167.115 19.0216V25.7193C166.986 26.523 166.021 28.1126 163.189 28.0412L162.764 30.1845L161.419 36.9715L161.349 37.3287C161.324 38.0729 161.349 39.9705 161.349 41.6153C161.349 43.4013 160.191 44.3241 159.279 44.6516H142.72C140.768 44.6516 140.33 42.6274 140.354 41.6153Z" fill="#FEFEFE"/>
<path d="M136.88 4.82237V16.2532M164.675 0V16.2532M164.675 17.1462V20.5397L163.189 28.0412M164.675 17.1462C160.585 12.3238 149.299 5.57251 136.88 17.1462M164.675 17.1462C164.01 6.87634 145.677 -8.4838 136.88 17.1462M164.675 17.1462V16.2532M136.88 17.1462V20.5397L138.432 28.0412M136.88 17.1462V16.2532M164.675 16.2532C165.488 16.0448 167.115 16.3068 167.115 19.0216C167.115 21.7364 167.115 24.6179 167.115 25.7193C166.986 26.523 166.021 28.1126 163.189 28.0412M163.189 28.0412L162.764 30.1845M136.88 16.2532C135.993 16.0746 134.219 16.3782 134.219 19.0216C134.219 21.6649 134.219 24.5881 134.219 25.7193C134.342 26.6421 135.357 28.3984 138.432 28.0412M138.432 28.0412L138.876 30.1845M140.28 36.9715L140.354 37.3287V41.6153C140.33 42.6274 140.768 44.6516 142.72 44.6516C144.672 44.6516 154.769 44.6516 159.279 44.6516C160.191 44.3241 161.349 43.4013 161.349 41.6153C161.349 39.9705 161.324 38.0729 161.349 37.3287L161.419 36.9715M140.28 36.9715H161.419M140.28 36.9715L138.876 30.1845M161.419 36.9715L162.764 30.1845M138.876 30.1845H162.764M142.202 32.5063C142.819 33.4589 144.169 35.2569 144.642 34.8282C145.233 34.2924 146.49 32.0598 147.155 32.5063C147.821 32.9529 149.151 35.1854 149.595 34.8282C150.038 34.471 151.295 31.7919 151.96 32.5063C152.626 33.2208 153.587 35.5426 154.4 34.8282C155.213 34.1138 156.248 32.0598 156.765 32.5063C157.283 32.9529 158.687 35.364 159.279 34.8282" stroke="#1F0257" stroke-width="2"/>
<rect x="141.667" y="47.1277" width="17.7286" height="0.864731" rx="0.432366" fill="#26E798" stroke="#FEFEFE" stroke-width="0.864731"/>
<rect x="139.898" y="50.8359" width="21.4043" height="5.70397" fill="#FEFEFE" stroke="#110031" stroke-width="2"/>
<mask id="path-60-inside-2_4307_120231" fill="white">
<rect x="134.352" y="55.9766" width="32.3759" height="10.0623" rx="1.47403"/>
</mask>
<rect x="134.352" y="55.9766" width="32.3759" height="10.0623" rx="1.47403" fill="#FEFEFE" stroke="#110031" stroke-width="4" mask="url(#path-60-inside-2_4307_120231)"/>
<rect x="125.594" y="65.1484" width="49.8794" height="3.81728" fill="#110031" stroke="#110031" stroke-width="2"/>
<ellipse cx="150.599" cy="65.474" rx="3.77069" ry="4.6381" fill="#110031"/>
<path d="M152.326 65.4809C152.326 66.9198 151.42 67.704 150.725 67.704C150.031 67.704 149.125 66.9198 149.125 65.4809C149.125 64.042 150.031 63.2578 150.725 63.2578C151.42 63.2578 152.326 64.042 152.326 65.4809Z" fill="#26E798" stroke="#FEFEFE" stroke-width="2"/>
<path d="M166.587 69.6484H134.627C134.449 70.3734 135.245 71.8836 135.665 72.5481C134.182 76.4627 136.58 76.052 137.964 75.3572C139.447 77.242 145.305 76.9883 148.049 76.6259C150.244 72.9287 152.325 75.0854 153.091 76.6259C160.685 77.2783 162.979 76.052 163.176 75.3572C166.795 76.7346 166.217 74.0584 165.475 72.5481C166.128 71.6782 166.489 70.2525 166.587 69.6484Z" fill="#110031" stroke="white" stroke-width="2"/>
<rect x="133.305" y="69.0234" width="35.8865" height="0.943343" fill="#110031"/>
<rect x="-1.26927" y="0.158267" width="11.2848" height="33.9153" rx="5.6424" transform="matrix(-0.539514 0.841977 -0.729754 -0.68371 131.091 64.3742)" fill="#FEFEFE" stroke="#110031" stroke-width="2"/>
<rect x="1.27311" y="0.0838976" width="10.8202" height="35.2462" rx="5.41009" transform="matrix(0.687193 -0.726475 0.585915 0.810373 169.716 70.3939)" fill="#FEFEFE" stroke="#110031" stroke-width="2"/>
<ellipse cx="137.402" cy="73.3442" rx="1.1052" ry="1.3364" fill="#FEFEFE"/>
<ellipse cx="163.861" cy="73.3442" rx="1.04019" ry="1.3364" fill="#FEFEFE"/>
<path d="M135.648 77.5078H138.55L141.239 80.4951" stroke="#110031" stroke-width="2"/>
<path d="M165.688 77.5078H162.583L159.706 80.4951" stroke="#110031" stroke-width="2"/>
<path d="M141.758 82.0703V103.453" stroke="#110031" stroke-width="2"/>
<path d="M159.438 82.0703V103.453" stroke="#110031" stroke-width="2"/>
<path d="M133.562 82.8904V102.181C137.709 102.974 138.844 100.769 138.893 99.567V82.8904C136.524 77.6981 134.352 80.7269 133.562 82.8904Z" fill="#FEFEFE" stroke="#110031" stroke-width="2"/>
<path d="M167.633 82.8904V102.181C163.487 102.974 162.351 100.769 162.302 99.567V82.8904C164.671 77.6981 166.843 80.7269 167.633 82.8904Z" fill="#FEFEFE" stroke="#110031" stroke-width="2"/>
<path d="M138.803 104.628C138.803 105.93 137.938 106.694 137.202 106.694C136.466 106.694 135.602 105.93 135.602 104.628C135.602 103.327 136.466 102.562 137.202 102.562C137.938 102.562 138.803 103.327 138.803 104.628Z" fill="#FEFEFE" stroke="#110031" stroke-width="2"/>
<path d="M165.592 104.628C165.592 105.93 164.727 106.694 163.991 106.694C163.255 106.694 162.391 105.93 162.391 104.628C162.391 103.327 163.255 102.562 163.991 102.562C164.727 102.562 165.592 103.327 165.592 104.628Z" fill="#FEFEFE" stroke="#110031" stroke-width="2"/>
<path d="M132.922 106.914H137.386M142.154 106.914H137.386M137.386 106.914V110.059" stroke="#110031" stroke-width="2"/>
<path d="M159.18 106.914H163.581M168.281 106.914H163.581M163.581 106.914V110.059" stroke="#110031" stroke-width="2"/>
<rect x="133.656" y="109.805" width="7.75177" height="4.13173" rx="2.06586" fill="#FEFEFE" stroke="#110031" stroke-width="2"/>
<rect x="159.922" y="109.805" width="7.75177" height="4.13173" rx="2.06586" fill="#FEFEFE" stroke="#110031" stroke-width="2"/>
<rect x="135.734" y="114.359" width="3.59102" height="8.37677" fill="#FEFEFE" stroke="#110031" stroke-width="2"/>
<rect x="161.742" y="114.359" width="3.59102" height="8.37677" fill="#FEFEFE" stroke="#110031" stroke-width="2"/>
<rect x="129.234" y="123.484" width="16.0733" height="5.07507" rx="2.53754" fill="#FEFEFE" stroke="#110031" stroke-width="2"/>
<rect x="155.758" y="123.484" width="16.0733" height="5.07507" rx="2.53754" fill="#FEFEFE" stroke="#110031" stroke-width="2"/>
<rect x="131.484" y="128.289" width="5.59102" height="2.67281" fill="#110031"/>
<rect x="137.461" y="128.289" width="5.46099" height="2.67281" fill="#110031"/>
<rect x="164.383" y="128.289" width="5.46099" height="2.67281" fill="#110031"/>
<rect x="158.398" y="128.289" width="5.46099" height="2.67281" fill="#110031"/>
<path d="M129.141 68.4219L121.535 61.2959" stroke="#110031" stroke-width="2"/>
<path d="M124.555 56.5781L118.502 66.0236" stroke="#110031" stroke-width="2"/>
<path d="M119.828 52.1484L113.776 61.594" stroke="#110031" stroke-width="2"/>
<path d="M173.945 65.0312L180.278 73.7903" stroke="#110031" stroke-width="2"/>
<path d="M176.555 77.7188L184.19 69.647" stroke="#110031" stroke-width="2"/>
<path d="M180.5 83.1719L188.135 75.1001" stroke="#110031" stroke-width="2"/>
<path d="M106.481 51.0384C105.385 50.012 105.15 48.135 105.978 46.843C106.806 45.5509 108.368 45.3575 109.463 46.3839C110.559 47.4102 110.794 49.2872 109.966 50.5793C109.138 51.8713 107.576 52.0647 106.481 51.0384Z" fill="#26E798" stroke="#110031" stroke-width="2"/>
<rect x="1.27311" y="0.0838976" width="4.69498" height="11.2918" rx="2.34749" transform="matrix(0.687193 -0.726475 0.585915 0.810373 184.365 85.4017)" fill="#FEFEFE" stroke="#110031" stroke-width="2"/>
<path d="M194.007 88.7336C194.772 89.7923 194.665 91.4116 193.776 92.351C192.888 93.2904 191.546 93.2031 190.781 92.1444C190.015 91.0857 190.123 89.4664 191.011 88.5269C191.9 87.5875 193.241 87.6749 194.007 88.7336Z" fill="#26E798" stroke="#110031" stroke-width="2"/>
<path d="M159.869 19.4998C159.869 26.0866 155.514 31.0777 150.532 31.0777C145.55 31.0777 141.195 26.0866 141.195 19.4998C141.195 12.913 145.55 7.92188 150.532 7.92188C155.514 7.92188 159.869 12.913 159.869 19.4998Z" fill="#FEFEFE" stroke="#1F0257" stroke-width="2"/>
<ellipse cx="150.466" cy="19.6473" rx="9.23168" ry="11.1629" fill="#10CD7B"/>
<path d="M160.222 30.1875H142.148L142.81 34.3459L158.458 34.4325L160.222 30.1875Z" stroke="#1F0257" stroke-width="2"/>
<path d="M141.109 13.9931C146.549 9.54736 153.401 8.19507 160.223 13.5296" stroke="#1F0257" stroke-width="2"/>
<path d="M159.071 11.6867C150.669 6.98126 144.92 10.5538 141.234 12.7323L141.603 10.4668C142.61 9.39208 144.654 7.22529 144.772 7.15559C144.89 7.08588 146.885 6.02282 147.868 5.5L154.943 6.02282L159.366 9.8568C159.587 10.2634 159.779 11.1987 159.071 11.6867Z" fill="#FEFEFE" stroke="black" stroke-width="2"/>
<ellipse cx="153.783" cy="15.644" rx="2.66548" ry="3.06586" fill="#FEFEFE"/>
<ellipse cx="156.91" cy="20.126" rx="1.1052" ry="1.41501" fill="#FEFEFE"/>
<path d="M162.235 30.5391H139.227L140.366 36.6464H161.172L162.235 30.5391Z" fill="#26E798" stroke="black" stroke-width="2"/>
<path d="M142.148 32.1917C142.296 32.0207 142.943 32.3284 144.355 34.927C144.723 35.6108 146.195 31.3369 146.857 32.1917C147.519 33.0465 148.622 35.6963 149.211 34.927C149.799 34.1576 151.197 31.7643 151.638 32.1917C152.08 32.619 153.625 35.5253 154.066 34.927C154.508 34.3286 155.832 31.6788 156.347 32.1917C156.862 32.7045 158.701 35.2689 158.921 34.927" stroke="#110031" stroke-width="2"/>
<path d="M106.679 15.9782C104.554 15.9388 102.564 17.1555 101.35 19.2347L101.1 19.6071L100.94 19.3519C99.7944 17.151 97.8327 15.8143 95.6857 15.7745C92.0221 15.7066 89.3222 18.8754 89.2662 23.3088C89.1833 29.8549 98.8528 39.6836 99.558 40.3915C99.8903 40.7874 100.328 41.01 100.797 41.0188C101.265 41.0274 101.708 40.8211 102.051 40.4369C102.776 39.751 112.824 30.1351 112.905 23.7469C112.96 19.3135 110.342 16.0461 106.679 15.9782Z" fill="#D62127"/>
</svg>
