<svg width="400" height="602" viewBox="0 0 400 602" fill="none" xmlns="http://www.w3.org/2000/svg">
<path d="M350.292 462.524L348.945 466.531C342.561 474.602 323.883 481.057 292.909 485.897C261.721 490.732 224.995 492.693 182.731 491.779C142.396 490.502 110.136 486.764 85.9528 480.566C78.2042 478.562 71.8218 476.379 66.8054 474.017L60.4812 470.373C57.0067 467.866 55.25 465.25 55.2109 462.524C56.2657 454.161 70.6702 447.202 98.4246 441.648C126.179 436.094 160.955 433.211 202.752 433C244.549 433.211 279.324 436.094 307.078 441.647C334.833 447.201 349.237 454.16 350.292 462.524Z" fill="#222B32"/>
<path d="M374.551 487.144L372.965 492.522C365.444 503.358 343.439 512.024 306.95 518.521C270.208 525.012 226.941 527.645 177.151 526.418C129.633 524.703 91.6284 519.685 63.1384 511.364C54.0099 508.674 46.4908 505.744 40.5811 502.572L33.1307 497.681C29.0375 494.315 26.9679 490.803 26.9219 487.144C28.1644 475.916 45.1341 466.573 77.831 459.117C110.528 451.661 151.497 447.791 200.737 447.508C249.977 447.791 290.945 451.661 323.642 459.117C356.339 466.573 373.309 475.915 374.551 487.144Z" fill="#222B32"/>
<path d="M392.925 522.332L391.194 528.293C382.988 540.301 358.981 549.905 319.17 557.105C279.084 564.299 231.88 567.216 177.558 565.857C125.715 563.956 84.2519 558.395 53.169 549.174C43.2097 546.193 35.0062 542.945 28.5587 539.43L20.4302 534.009C15.9644 530.279 13.7064 526.387 13.6562 522.332C15.0119 509.888 33.5261 499.535 69.1989 491.272C104.872 483.009 149.569 478.72 203.29 478.406C257.012 478.72 301.709 483.009 337.382 491.272C373.055 499.535 391.569 509.888 392.925 522.332Z" fill="#222B32"/>
<path d="M400 555.899L398.174 562.054C389.521 574.454 364.201 584.372 322.214 591.807C279.937 599.236 230.153 602.248 172.861 600.844C118.184 598.881 74.4545 593.139 41.6726 583.617C31.1688 580.539 22.517 577.185 15.7171 573.555L7.14424 567.957C2.43438 564.106 0.0529757 560.086 0 555.899C1.42983 543.049 20.9561 532.358 58.5788 523.825C96.2014 515.292 143.342 510.864 200 510.539C256.659 510.863 303.799 515.292 341.421 523.825C379.044 532.357 398.57 543.049 400 555.899Z" fill="#222B32"/>
<path d="M203.615 41.158L204.434 40.5693L204.853 40.2847C206.912 38.7712 209.464 38.3995 212.509 39.1699C222.433 44.1016 231.993 47.3363 241.189 48.8739L252.375 43.2443C261.54 39.4286 265.464 25.0138 264.148 0C272.574 18.4831 275.564 31.6483 273.118 39.4959C271.861 47.5918 263.318 58.3418 247.487 71.7459C265.542 69.0305 277.253 71.5919 282.621 79.4302C281.463 85.0498 276.252 89.7943 266.99 93.6639C261.768 95.8769 254.317 96.3767 244.638 95.1631L255.638 152.176C274.989 156.523 287.395 163.014 292.857 171.648C299.071 179.129 304.179 196.811 308.181 224.695L322.502 237.414C335.558 224.396 341.202 209.962 339.434 194.111C339.125 186.473 337.772 178.612 335.375 170.526C333.716 165.178 331.696 160.016 329.314 155.041L317.597 131.275C316.624 128.612 316.491 126.788 317.195 125.803C318.706 123.928 321.748 124.492 326.32 127.493C329.401 129.574 332.359 134.196 335.194 141.359C335.709 141.011 336.217 140.643 336.72 140.255C339.532 138.276 341.133 134.442 341.521 128.754C342.011 127.525 341.631 117.283 340.381 98.0281C340.397 94.7556 340.505 93.2819 340.707 93.607C341.787 92.4203 345.472 102.136 351.763 122.754C356.977 98.7669 360.119 87.3611 361.191 88.5363C362.593 87.6326 363.016 99.968 362.459 125.542C369.224 101.997 372.979 92.6307 373.724 97.4446C374.713 101.16 374.636 113.833 373.493 135.462C385.416 117.798 391.851 109.515 392.797 110.613C392.908 111.602 392.258 113.935 390.846 117.611L378.226 149.74C376.617 154.34 375.303 159.22 374.286 164.381L373.415 169.297C374.827 194.104 375.386 210.209 375.093 217.613C375.02 225.267 374.594 232.521 373.817 239.376C372.472 255.468 367.226 270.465 358.077 284.366C349.736 295.113 337.427 304.041 321.149 311.149C309.744 307.062 301.685 302.751 296.972 298.214C292.082 294.122 285.736 285.49 277.933 272.318C280.942 290.734 280.276 305.582 275.936 316.862C288.174 330.754 297.274 343.516 303.237 355.147C308.389 365.053 312.359 376.769 315.146 390.294C318.447 405.998 321.257 428.384 323.576 457.449L317.783 461.975C310.385 472.271 270.218 478.746 197.281 481.399L204.223 158.484L203.615 41.158Z" fill="url(#paint0_linear_4307_121419)"/>
<path d="M204.444 41.158L203.625 40.5693L203.206 40.2847C201.147 38.771 198.595 38.3994 195.55 39.1699C185.626 44.1014 176.066 47.3361 166.871 48.8739L155.684 43.2443C146.519 39.4286 142.595 25.0138 143.911 0C135.485 18.4832 132.495 31.6485 134.941 39.4959C136.198 47.592 144.741 58.3419 160.572 71.7459C142.517 69.0305 130.806 71.592 125.438 79.4304C126.596 85.0498 131.807 89.7943 141.069 93.6639C146.291 95.877 153.742 96.3768 163.421 95.1634L152.421 152.176C133.07 156.523 120.664 163.014 115.202 171.648C108.988 179.129 103.88 196.812 99.8783 224.695L85.5571 237.414C72.5006 224.397 66.8566 209.962 68.6252 194.112C68.9341 186.474 70.287 178.612 72.6837 170.527C74.3432 165.178 76.3635 160.016 78.7446 155.041L90.4624 131.275C91.4346 128.612 91.5684 126.788 90.8638 125.803C89.3528 123.928 86.3111 124.492 81.7387 127.493C78.658 129.574 75.7003 134.196 72.8655 141.359C72.3503 141.011 71.8416 140.643 71.3393 140.255C68.5266 138.276 66.9261 134.443 66.5379 128.754C66.0484 127.525 66.4283 117.283 67.6775 98.0281C67.6622 94.7557 67.5538 93.282 67.3524 93.607C66.2723 92.4203 62.5867 102.136 56.2957 122.754C51.0822 98.7672 47.9398 87.3613 46.8683 88.5363C45.466 87.6326 45.0432 99.968 45.5999 125.543C38.8355 101.997 35.0804 92.6308 34.3348 97.4448C33.3465 101.16 33.4234 113.833 34.5655 135.462C22.6425 117.798 16.2081 109.515 15.2621 110.613C15.1511 111.603 15.8014 113.935 17.2128 117.611L29.833 149.74C31.4421 154.34 32.7556 159.22 33.7733 164.381L34.6441 169.297C33.2325 194.104 32.6733 210.21 32.9664 217.614C33.0393 225.267 33.4647 232.521 34.2425 239.376C35.5869 255.468 40.8334 270.465 49.9821 284.366C58.3229 295.113 70.6322 304.041 86.9101 311.148C98.3145 307.062 106.374 302.751 111.087 298.214C115.977 294.122 122.324 285.49 130.126 272.318C127.117 290.734 127.783 305.582 132.123 316.862C119.885 330.754 110.785 343.516 104.822 355.148C99.6697 365.054 95.6997 376.769 92.9125 390.294C89.612 405.999 86.8023 428.384 84.4834 457.449L90.2758 461.975C97.6743 472.272 137.842 478.746 210.778 481.4L203.836 158.484L204.444 41.158Z" fill="url(#paint1_linear_4307_121419)"/>
<path d="M220.235 124.516L220.301 125.281C220.576 128.1 220.562 130.308 220.259 131.906C219.907 133.793 219.139 135.342 217.956 136.552C217.377 137.131 216.736 137.535 216.033 137.766C215.313 138.001 214.545 137.991 213.73 137.735C212.957 137.481 212.268 137.095 211.663 136.578C211.368 136.327 211.115 136.064 210.906 135.789L210.635 135.379C210.48 135.104 210.389 134.838 210.363 134.582C210.327 134.077 210.571 133.649 211.092 133.298C211.345 133.119 211.64 132.947 211.979 132.782L214.258 131.758C214.661 131.572 215.053 131.37 215.434 131.149L215.983 130.799C216.335 130.553 216.66 130.283 216.959 129.99C217.551 129.398 218.066 128.737 218.503 128.007C219.146 126.901 219.723 125.738 220.235 124.516Z" fill="#2D166E"/>
<path d="M188.122 124.508L188.056 125.273C187.781 128.092 187.795 130.3 188.098 131.897C188.45 133.785 189.217 135.334 190.4 136.545C190.979 137.123 191.62 137.527 192.323 137.758C193.043 137.993 193.811 137.983 194.626 137.728C195.4 137.474 196.089 137.088 196.694 136.571C196.989 136.319 197.241 136.056 197.451 135.782L197.721 135.372C197.877 135.097 197.968 134.831 197.994 134.574C198.029 134.069 197.786 133.641 197.264 133.29C197.012 133.111 196.716 132.939 196.377 132.775L194.098 131.75C193.695 131.565 193.304 131.362 192.923 131.142L192.374 130.792C192.022 130.545 191.696 130.276 191.398 129.982C190.805 129.39 190.291 128.729 189.854 127.999C189.211 126.894 188.634 125.73 188.122 124.508Z" fill="#2D166E"/>
<path d="M174.703 138.254L175.396 136.013C176.751 131.424 178.25 127.309 179.894 123.669C180.453 122.491 181.044 121.418 181.667 120.451L182.632 119.099C183.161 118.348 183.999 117.56 185.148 116.735C186.926 115.579 189.167 115.177 191.871 115.53C193.705 115.668 197 116.672 201.754 118.542C197.62 117.792 194.542 117.562 192.52 117.853C190.951 118.094 189.849 118.369 189.214 118.68C188.355 119.022 187.518 119.487 186.704 120.076C185.953 120.627 185.222 121.283 184.51 122.046C184.135 122.324 183.102 123.658 181.41 126.049C179.736 128.531 177.5 132.6 174.703 138.254Z" fill="#2D166E"/>
<path d="M233.645 138.254L232.952 136.013C231.598 131.424 230.099 127.309 228.454 123.669C227.896 122.491 227.305 121.418 226.681 120.451L225.716 119.099C225.188 118.348 224.349 117.56 223.201 116.735C221.422 115.579 219.181 115.177 216.478 115.53C214.643 115.668 211.348 116.672 206.594 118.542C210.729 117.792 213.807 117.562 215.828 117.853C217.397 118.094 218.499 118.369 219.134 118.68C219.993 119.022 220.83 119.487 221.644 120.076C222.395 120.627 223.126 121.283 223.838 122.046C224.213 122.324 225.247 123.658 226.938 126.049C228.613 128.531 230.848 132.6 233.645 138.254Z" fill="#2D166E"/>
<path d="M180.25 151.13L201.548 144.577L226.536 149.69C221.122 147.37 216.874 145.824 213.79 145.052C212.558 144.731 211.317 144.47 210.067 144.27L208.183 144.026L206.283 143.895L204.321 143.891L202.182 144.04L200.246 144.302L198.293 144.673C196.985 144.957 195.669 145.299 194.344 145.699C191.036 146.672 186.338 148.482 180.25 151.13Z" fill="#2D166E"/>
<path d="M228.083 151.13L206.785 144.577L181.797 149.69C187.21 147.37 191.459 145.824 194.543 145.052C195.775 144.731 197.016 144.47 198.266 144.27L200.149 144.026L202.049 143.895L204.012 143.891L206.15 144.04L208.087 144.302L210.04 144.673C211.348 144.957 212.664 145.299 213.989 145.699C217.297 146.672 221.994 148.482 228.083 151.13Z" fill="#2D166E"/>
<path d="M246.502 76.9461L246.502 76.9463C250.519 76.0439 253.605 75.4554 255.76 75.1807C258.507 74.8226 260.861 74.7346 262.821 74.9167C263.665 74.9908 264.494 75.1075 265.309 75.2666C265.731 75.3046 266.927 75.6196 268.899 76.2117C270.859 76.8406 273.521 77.959 276.888 79.5671C275.147 82.3742 273.572 84.4138 272.163 85.686C270.692 86.918 269.743 87.6135 269.314 87.7723C268.596 88.1806 267.807 88.5426 266.946 88.8584C266.082 89.1715 265.146 89.4384 264.139 89.6591C263.705 89.8143 262.067 90.062 259.226 90.4021C256.323 90.7023 251.86 90.8636 245.838 90.8863L246.502 76.9461Z" fill="#2D166E"/>
<path d="M161.548 76.1587L161.548 76.1591C157.492 75.4344 154.381 74.9823 152.215 74.8028C149.454 74.5661 147.099 74.582 145.149 74.8503C144.31 74.9615 143.487 75.1146 142.681 75.3094C142.261 75.3659 141.081 75.7332 139.14 76.4115C137.213 77.1261 134.607 78.3606 131.321 80.1149C133.195 82.8426 134.866 84.8107 136.335 86.0195C137.864 87.1854 138.846 87.8384 139.282 87.9781C140.019 88.3544 140.824 88.6813 141.699 88.9588C142.578 89.2336 143.525 89.4589 144.542 89.6348C144.983 89.7709 146.631 89.9464 149.486 90.1611C152.4 90.3329 156.866 90.2975 162.882 90.0549L161.548 76.1587Z" fill="#2D166E"/>
<path d="M137.635 475.42L137.001 466.703C135.633 446.464 135.346 432.651 136.142 425.263C136.489 420.167 137.144 415.357 138.107 410.834L139.849 404.326C144.047 390.603 153.197 381.748 167.299 377.76C184.6 373.342 200.274 376.265 214.323 386.53C219.814 390.816 224.207 397.509 227.502 406.609C230.412 415.415 232.134 425.377 232.668 436.496C233.302 444.608 233.227 459.23 232.443 480.361C207.683 481.802 190.126 482.187 179.773 481.513C169.058 481.088 155.012 479.057 137.635 475.42Z" fill="black"/>
<path d="M241.016 245.607V245.609C240.603 240.027 240.424 236.172 240.478 234.043C240.477 231.119 240.759 228.518 241.326 226.239C241.619 225.112 242.014 224.099 242.51 223.201L243.345 221.957C243.461 221.738 243.957 221.265 244.833 220.538C245.57 220.001 246.374 219.584 247.245 219.288C249.629 218.595 251.796 218.553 253.746 219.16C255.823 219.727 257.567 220.835 258.979 222.484C261.344 225.109 262.46 230.445 262.327 238.493C262.337 239.202 262.27 241.428 262.125 245.172L241.016 245.607Z" fill="black"/>
<path d="M238.047 244.883L251.362 244.885L264.677 244.883V249.16C255.8 249.159 246.924 249.159 238.047 249.159C238.047 247.734 238.047 246.308 238.047 244.883Z" fill="black"/>
<path d="M187.501 205.919V205.922C187.087 200.339 186.908 196.484 186.963 194.355C186.961 191.432 187.244 188.831 187.81 186.552C188.103 185.424 188.498 184.411 188.994 183.513L189.83 182.27C189.946 182.05 190.442 181.577 191.318 180.851C192.054 180.313 192.858 179.896 193.729 179.601C196.113 178.908 198.28 178.865 200.23 179.472C202.307 180.04 204.051 181.148 205.464 182.796C207.828 185.421 208.944 190.758 208.811 198.805C208.821 199.514 208.754 201.741 208.609 205.485L187.501 205.919Z" fill="black"/>
<path d="M184.555 205.203L197.87 205.205L211.185 205.203L211.185 209.479C202.308 209.479 193.431 209.479 184.555 209.479C184.555 208.054 184.555 206.629 184.555 205.203Z" fill="black"/>
<path d="M187.805 242.444V242.446C187.392 236.864 187.213 233.008 187.267 230.879C187.266 227.956 187.548 225.355 188.115 223.075C188.408 221.948 188.803 220.935 189.299 220.037L190.134 218.794C190.25 218.574 190.746 218.101 191.622 217.375C192.359 216.837 193.163 216.42 194.034 216.124C196.418 215.431 198.585 215.388 200.535 215.996C202.612 216.563 204.356 217.671 205.768 219.32C208.133 221.945 209.249 227.281 209.116 235.329C209.126 236.038 209.059 238.264 208.914 242.008L187.805 242.444Z" fill="black"/>
<path d="M184.844 241.704L198.159 241.703L211.474 241.705V245.98C202.597 245.98 193.72 245.98 184.844 245.98C184.844 244.555 184.844 243.129 184.844 241.704Z" fill="black"/>
<path d="M215.079 277.349V277.352C214.666 271.769 214.486 267.914 214.541 265.785C214.539 262.862 214.822 260.26 215.388 257.982C215.681 256.854 216.076 255.841 216.572 254.943L217.408 253.7C217.524 253.48 218.02 253.007 218.896 252.281C219.633 251.743 220.437 251.326 221.308 251.03C223.692 250.338 225.859 250.295 227.808 250.902C229.885 251.469 231.63 252.577 233.042 254.226C235.407 256.851 236.523 262.187 236.39 270.235C236.4 270.944 236.332 273.171 236.187 276.914L215.079 277.349Z" fill="black"/>
<path d="M212.133 276.625L225.448 276.627L238.763 276.625V280.901C229.886 280.901 221.009 280.901 212.133 280.901C212.133 279.476 212.133 278.05 212.133 276.625Z" fill="black"/>
<path d="M161.454 276.482V276.484C161.041 270.902 160.861 267.047 160.916 264.918C160.914 261.995 161.197 259.393 161.763 257.114C162.056 255.987 162.451 254.974 162.947 254.076L163.783 252.833C163.899 252.613 164.395 252.14 165.271 251.414C166.008 250.875 166.812 250.459 167.683 250.163C170.066 249.47 172.233 249.428 174.184 250.035C176.26 250.602 178.005 251.71 179.417 253.359C181.782 255.984 182.897 261.32 182.764 269.368C182.775 270.077 182.707 272.304 182.562 276.047L161.454 276.482Z" fill="black"/>
<path d="M158.516 275.75L171.831 275.752L185.146 275.75V280.027C176.269 280.027 167.392 280.027 158.516 280.027C158.516 278.601 158.516 277.176 158.516 275.75Z" fill="black"/>
<path d="M137.891 246.217V246.219C137.478 240.637 137.299 236.781 137.353 234.652C137.352 231.729 137.634 229.128 138.201 226.849C138.494 225.721 138.889 224.708 139.385 223.81L140.22 222.567C140.336 222.347 140.832 221.874 141.708 221.148C142.445 220.61 143.249 220.193 144.12 219.898C146.504 219.205 148.671 219.162 150.621 219.769C152.698 220.336 154.442 221.444 155.854 223.093C158.219 225.718 159.335 231.055 159.202 239.102C159.212 239.811 159.145 242.038 159 245.782L137.891 246.217Z" fill="black"/>
<path d="M134.953 245.453L148.268 245.455L161.583 245.453V249.729C152.707 249.729 143.83 249.729 134.953 249.729C134.953 248.304 134.953 246.879 134.953 245.453Z" fill="black"/>
<path d="M188.415 308.873V308.875C188.001 303.293 187.822 299.437 187.877 297.309C187.875 294.385 188.158 291.784 188.724 289.505C189.017 288.377 189.412 287.364 189.908 286.466L190.744 285.223C190.86 285.003 191.356 284.53 192.232 283.804C192.969 283.266 193.772 282.849 194.644 282.554C197.027 281.861 199.194 281.818 201.144 282.426C203.221 282.993 204.965 284.101 206.378 285.749C208.742 288.374 209.858 293.711 209.725 301.759C209.735 302.468 209.668 304.694 209.523 308.438L188.415 308.873Z" fill="black"/>
<path d="M185.453 308.133L198.768 308.134L212.083 308.133V312.409C203.207 312.409 194.33 312.409 185.453 312.409C185.453 310.984 185.453 309.558 185.453 308.133Z" fill="black"/>
<path d="M112.203 313.047L203.636 313.048L295.069 313.049C295.069 320.627 295.069 328.206 295.069 335.784C234.114 335.785 173.158 335.785 112.203 335.786C112.203 328.207 112.203 320.627 112.203 313.047Z" fill="#FCB826"/>
<path d="M147.346 465.138L146.846 458.26C145.924 443.232 145.601 433.88 145.876 430.203C146.102 422.417 147.174 415.366 149.092 409.048C152.036 399.425 158.067 392.835 167.186 389.28C181.635 384.162 195.19 386.071 207.849 395.008C211.7 398.013 214.866 402.52 217.348 408.527C219.591 413.622 221.191 421.292 222.147 431.538C222.829 438.329 222.828 450.828 222.144 469.036C205.759 470.096 191.907 470.399 180.591 469.945C174.567 469.95 163.486 468.348 147.346 465.138Z" fill="url(#paint2_radial_4307_121419)"/>
<path d="M264.166 0.03125C265.477 25.0281 261.552 39.4336 252.39 43.248L241.57 48.6936L250.1 69.5169C264.27 57.1468 271.948 47.141 273.134 39.4996C275.578 31.6559 272.592 18.4998 264.177 0.03125H264.166Z" fill="url(#paint3_linear_4307_121419)"/>
<path d="M144.182 0.0234375C135.766 18.4936 132.779 31.6507 135.224 39.4945C136.402 47.0841 143.984 57.006 157.969 69.2602L166.895 48.7424L155.967 43.2431C146.805 39.4285 142.88 25.0219 144.192 0.0234375H144.182Z" fill="url(#paint4_linear_4307_121419)"/>
<path d="M243.67 242.112V242.113C243.334 237.588 243.203 234.488 243.279 232.813C243.319 230.932 243.526 229.24 243.9 227.736C244.227 226.443 244.759 225.338 245.498 224.422C246.152 223.641 247.084 223.026 248.294 222.577C248.687 222.462 249.072 222.372 249.45 222.305C250.379 222.18 250.927 222.134 251.094 222.166C251.801 222.176 252.476 222.281 253.119 222.481C253.804 222.669 254.441 222.935 255.028 223.281C255.322 223.453 255.604 223.646 255.873 223.858C256.023 223.94 256.4 224.303 257.004 224.948C257.394 225.381 257.738 225.914 258.036 226.546L258.45 227.568C258.703 228.299 258.91 229.13 259.071 230.06C259.393 231.847 259.532 234.176 259.489 237.049C259.484 237.739 259.434 239.319 259.339 241.789L243.67 242.112Z" fill="#FF001F"/>
<path d="M190.428 202.495V202.497C190.129 198.475 189.992 195.578 190.019 193.808C190.033 191.694 190.246 189.798 190.658 188.12C191.324 185.42 192.789 183.7 195.052 182.96C196.857 182.458 198.393 182.405 199.661 182.802C201.344 183.216 202.753 184.109 203.89 185.48C205.451 187.23 206.24 190.902 206.254 196.495C206.27 197.168 206.218 199.06 206.096 202.173L190.428 202.495Z" fill="#FF001F"/>
<path d="M190.206 238.651V238.653C189.939 235.289 189.803 232.392 189.797 229.964C189.861 227.432 190.074 225.536 190.436 224.276C190.732 223.076 191.186 222.07 191.797 221.257C192.103 220.851 192.448 220.492 192.833 220.183L193.439 219.755C193.863 219.494 194.327 219.281 194.83 219.117C196.789 218.556 198.509 218.555 199.99 219.114C201.431 219.577 202.657 220.417 203.668 221.636L204.16 222.291C204.469 222.775 204.739 223.353 204.972 224.027C205.204 224.7 205.398 225.469 205.554 226.332C205.866 227.969 206.026 230.165 206.035 232.921C206.036 233.759 205.982 235.562 205.874 238.329L190.206 238.651Z" fill="#FF001F"/>
<path d="M218.112 273.585V273.586C217.877 270.871 217.741 267.975 217.703 264.897C217.76 262.646 217.934 260.898 218.227 259.653C218.886 256.706 220.334 254.858 222.57 254.106C224.478 253.551 226.086 253.476 227.394 253.881C229.062 254.328 230.456 255.224 231.574 256.57C233.154 258.321 233.943 262.082 233.941 267.854C233.929 269.105 233.876 270.908 233.781 273.262L218.112 273.585Z" fill="#FF001F"/>
<path d="M140.545 242.827V242.828C140.249 238.826 140.112 235.93 140.135 234.14C140.192 231.888 140.367 230.14 140.659 228.895C141.318 225.949 142.766 224.1 145.002 223.348C146.91 222.793 148.518 222.718 149.826 223.124C151.495 223.569 152.888 224.465 154.006 225.811C155.586 227.563 156.375 231.324 156.374 237.096C156.362 238.347 156.308 240.15 156.213 242.504L140.545 242.827Z" fill="#FF001F"/>
<path d="M164.334 273.373V273.376C164.01 268.743 163.873 265.847 163.925 264.687C164.022 262.053 164.196 260.305 164.448 259.442C164.595 258.787 164.78 258.186 165.005 257.64L165.37 256.861C165.634 256.369 165.936 255.931 166.277 255.547C166.959 254.78 167.797 254.229 168.791 253.895C169.46 253.657 170.428 253.497 171.693 253.415C172.393 253.405 173.034 253.49 173.615 253.67C174.357 253.869 175.044 254.156 175.677 254.532C176.747 255.251 177.453 255.86 177.795 256.358C178.498 257.137 179.044 258.312 179.433 259.885C179.628 260.671 179.784 261.556 179.901 262.541L180.047 264.093C180.125 265.177 180.163 266.36 180.163 267.643C180.138 269.302 180.085 271.105 180.002 273.051L164.334 273.373Z" fill="#FF001F"/>
<path d="M191.026 304.647V304.649C190.791 301.934 190.655 299.037 190.617 295.96C190.674 293.709 190.849 291.961 191.141 290.715C191.8 287.769 193.248 285.92 195.484 285.169C197.392 284.614 199 284.539 200.308 284.944C201.977 285.39 203.37 286.286 204.488 287.632C206.068 289.383 206.857 293.144 206.855 298.916C206.843 300.168 206.79 301.971 206.695 304.324L191.026 304.647Z" fill="#FF001F"/>
<path d="M173.061 414.661C177.02 404.81 176.257 389.922 176.257 389.922C176.257 389.922 186.785 394.143 194.054 405.734C200.886 416.628 194.432 432.858 194.432 432.858C199.465 428.04 201.331 423.223 201.502 417.44C207.156 426.076 211.525 435.973 211.525 445.987C211.525 458.378 199.749 468.412 185.208 468.419C170.673 468.411 158.891 458.378 158.891 445.987C158.891 433.928 168.392 426.277 173.061 414.661Z" fill="#E17A2D"/>
<path d="M178.221 435.754C180.393 429.779 179.976 420.75 179.976 420.75C179.976 420.75 200.827 435.933 199.342 454.753C198.749 462.247 192.877 468.354 184.889 468.358C176.908 468.354 170.438 462.269 170.438 454.753C170.438 447.439 175.656 442.8 178.221 435.754Z" fill="#F4E028"/>
<path d="M180.674 447.46C182.051 443.674 181.786 437.953 181.786 437.953C181.786 437.953 194.997 447.574 194.057 459.499C193.681 464.247 189.96 468.115 184.899 468.119C179.843 468.115 175.742 464.259 175.742 459.499C175.743 454.863 179.051 451.923 180.674 447.46Z" fill="white"/>
<path d="M194.236 285.78C195.599 282.39 195.336 277.266 195.336 277.266C195.336 277.266 198.96 278.718 201.461 282.707C203.813 286.457 201.591 292.042 201.591 292.042C203.323 290.384 203.966 288.727 204.024 286.736C205.97 289.708 207.474 293.114 207.474 296.561C207.474 300.825 203.421 304.279 198.417 304.281C193.414 304.278 189.359 300.825 189.359 296.561C189.359 292.411 192.629 289.778 194.236 285.78Z" fill="#E17A2D"/>
<path d="M196.007 293.054C196.754 290.998 196.611 287.891 196.611 287.891C196.611 287.891 203.787 293.116 203.276 299.593C203.072 302.172 201.051 304.274 198.302 304.275C195.555 304.274 193.328 302.18 193.328 299.593C193.328 297.076 195.124 295.479 196.007 293.054Z" fill="#F4E028"/>
<path d="M196.861 297.069C197.335 295.766 197.244 293.797 197.244 293.797C197.244 293.797 201.791 297.108 201.467 301.212C201.338 302.846 200.057 304.177 198.316 304.179C196.575 304.177 195.164 302.85 195.164 301.212C195.164 299.617 196.303 298.605 196.861 297.069Z" fill="white"/>
<path d="M175.532 257.496C174.412 254.711 174.628 250.5 174.628 250.5C174.628 250.5 171.65 251.694 169.595 254.972C167.662 258.053 169.488 262.643 169.488 262.643C168.064 261.28 167.537 259.918 167.488 258.282C165.889 260.725 164.654 263.523 164.654 266.356C164.654 269.86 167.984 272.697 172.096 272.699C176.207 272.697 179.539 269.86 179.539 266.356C179.539 262.945 176.852 260.781 175.532 257.496Z" fill="#E17A2D"/>
<path d="M174.065 263.462C173.45 261.772 173.568 259.219 173.568 259.219C173.568 259.219 167.671 263.513 168.091 268.835C168.259 270.954 169.92 272.681 172.179 272.683C174.436 272.681 176.266 270.96 176.266 268.835C176.265 266.766 174.79 265.455 174.065 263.462Z" fill="#F4E028"/>
<path d="M173.363 266.775C172.974 265.704 173.049 264.086 173.049 264.086C173.049 264.086 169.312 266.807 169.578 270.179C169.685 271.522 170.737 272.616 172.168 272.617C173.598 272.616 174.758 271.526 174.758 270.179C174.758 268.868 173.822 268.037 173.363 266.775Z" fill="white"/>
<path d="M221.573 256.305C222.754 253.365 222.527 248.922 222.527 248.922C222.527 248.922 225.669 250.182 227.838 253.641C229.877 256.892 227.951 261.736 227.951 261.736C229.453 260.298 230.01 258.861 230.061 257.135C231.749 259.712 233.052 262.666 233.052 265.655C233.052 269.353 229.538 272.347 225.198 272.349C220.86 272.347 217.344 269.353 217.344 265.655C217.344 262.055 220.179 259.772 221.573 256.305Z" fill="#E17A2D"/>
<path d="M223.12 262.603C223.768 260.82 223.644 258.125 223.644 258.125C223.644 258.125 229.867 262.657 229.423 268.273C229.246 270.51 227.494 272.332 225.11 272.334C222.728 272.332 220.797 270.516 220.797 268.273C220.797 266.09 222.354 264.706 223.12 262.603Z" fill="#F4E028"/>
<path d="M223.847 266.103C224.258 264.973 224.179 263.266 224.179 263.266C224.179 263.266 228.122 266.137 227.841 269.696C227.729 271.113 226.618 272.267 225.108 272.269C223.599 272.267 222.375 271.117 222.375 269.696C222.375 268.313 223.362 267.435 223.847 266.103Z" fill="white"/>
<path d="M247.816 225.389C248.967 222.525 248.745 218.195 248.745 218.195C248.745 218.195 251.807 219.423 253.92 222.793C255.907 225.961 254.03 230.68 254.03 230.68C255.494 229.279 256.036 227.879 256.086 226.197C257.73 228.708 259 231.586 259 234.498C259 238.101 255.576 241.018 251.348 241.02C247.121 241.018 243.695 238.101 243.695 234.498C243.695 230.991 246.458 228.767 247.816 225.389Z" fill="#E17A2D"/>
<path d="M249.318 231.535C249.95 229.797 249.828 227.172 249.828 227.172C249.828 227.172 255.891 231.587 255.46 237.059C255.287 239.238 253.58 241.014 251.257 241.015C248.936 241.014 247.055 239.245 247.055 237.059C247.055 234.932 248.572 233.583 249.318 231.535Z" fill="#F4E028"/>
<path d="M250.028 234.928C250.428 233.828 250.351 232.164 250.351 232.164C250.351 232.164 254.193 234.962 253.919 238.429C253.81 239.81 252.728 240.935 251.256 240.936C249.786 240.934 248.594 239.813 248.594 238.429C248.594 237.081 249.556 236.226 250.028 234.928Z" fill="white"/>
<path d="M193.48 222.241C194.631 219.376 194.409 215.047 194.409 215.047C194.409 215.047 197.471 216.274 199.584 219.645C201.571 222.812 199.694 227.532 199.694 227.532C201.158 226.131 201.7 224.73 201.75 223.048C203.394 225.56 204.664 228.437 204.664 231.349C204.664 234.952 201.24 237.87 197.012 237.872C192.785 237.87 189.359 234.952 189.359 231.349C189.359 227.843 192.122 225.618 193.48 222.241Z" fill="#E17A2D"/>
<path d="M194.982 228.371C195.614 226.633 195.492 224.008 195.492 224.008C195.492 224.008 201.555 228.423 201.124 233.895C200.951 236.074 199.244 237.85 196.921 237.851C194.6 237.85 192.719 236.081 192.719 233.895C192.719 231.768 194.236 230.419 194.982 228.371Z" fill="#F4E028"/>
<path d="M195.7 231.78C196.1 230.679 196.023 229.016 196.023 229.016C196.023 229.016 199.865 231.813 199.591 235.281C199.482 236.661 198.4 237.786 196.928 237.787C195.458 237.786 194.266 236.665 194.266 235.281C194.266 233.933 195.228 233.078 195.7 231.78Z" fill="white"/>
<path d="M152.794 226.959C151.643 224.095 151.864 219.766 151.864 219.766C151.864 219.766 148.803 220.993 146.689 224.363C144.703 227.531 146.58 232.251 146.58 232.251C145.116 230.85 144.573 229.449 144.524 227.767C142.879 230.278 141.609 233.156 141.609 236.068C141.609 239.671 145.033 242.589 149.262 242.591C153.488 242.589 156.914 239.671 156.914 236.068C156.914 232.562 154.151 230.337 152.794 226.959Z" fill="#E17A2D"/>
<path d="M151.284 233.105C150.652 231.368 150.773 228.742 150.773 228.742C150.773 228.742 144.71 233.157 145.142 238.63C145.315 240.809 147.022 242.584 149.345 242.586C151.665 242.584 153.547 240.815 153.547 238.63C153.547 236.503 152.029 235.154 151.284 233.105Z" fill="#F4E028"/>
<path d="M150.566 236.507C150.166 235.406 150.243 233.742 150.243 233.742C150.243 233.742 146.401 236.54 146.675 240.007C146.784 241.388 147.866 242.513 149.337 242.514C150.808 242.513 152 241.392 152 240.007C152 238.659 151.038 237.804 150.566 236.507Z" fill="white"/>
<path d="M194.292 186.795C195.443 183.931 195.222 179.602 195.222 179.602C195.222 179.602 198.283 180.829 200.397 184.199C202.383 187.367 200.506 192.086 200.506 192.086C201.97 190.686 202.513 189.285 202.562 187.603C204.206 190.114 205.477 192.992 205.477 195.904C205.477 199.507 202.053 202.425 197.824 202.427C193.598 202.425 190.172 199.507 190.172 195.904C190.172 192.397 192.935 190.173 194.292 186.795Z" fill="#E17A2D"/>
<path d="M195.802 192.933C196.434 191.196 196.313 188.57 196.313 188.57C196.313 188.57 202.376 192.985 201.944 198.458C201.771 200.637 200.064 202.412 197.741 202.414C195.42 202.412 193.539 200.643 193.539 198.458C193.539 196.331 195.057 194.982 195.802 192.933Z" fill="#F4E028"/>
<path d="M196.512 196.327C196.913 195.226 196.835 193.562 196.835 193.562C196.835 193.562 200.677 196.36 200.404 199.828C200.294 201.208 199.212 202.333 197.741 202.334C196.271 202.333 195.078 201.212 195.078 199.828C195.078 198.48 196.04 197.625 196.512 196.327Z" fill="white"/>
<path d="M243.334 96.0408L243.461 95.9632C244.41 95.0524 245.495 97.8817 246.717 104.451C247.873 110.02 251.654 126.119 255.621 152.415C249.728 146.195 243.73 143.611 240.066 144.997C238.821 145.138 236.655 146.739 233.566 149.8C231.351 152.122 228.191 156.244 224.086 162.164C234.239 146.22 240.241 134.605 242.092 127.32C242.623 125.483 243.048 123.67 243.366 121.879C243.629 120.962 243.915 118.317 244.222 113.944C244.437 109.59 244.141 103.623 243.334 96.0408Z" fill="#2D166E"/>
<path d="M163.835 95.3125L152.477 151.888C155.752 148.769 158.015 147.002 159.265 146.586C160.802 145.969 161.746 145.683 162.095 145.727C163.353 145.583 164.556 145.702 165.704 146.084C169.161 146.842 175.406 152.173 184.439 162.078C174.286 146.134 168.284 134.519 166.433 127.233C165.901 125.397 165.477 123.583 165.159 121.793C164.895 120.875 164.61 118.23 164.302 113.857C164.087 109.503 163.028 102.894 163.835 95.3125Z" fill="#2D166E"/>
<g filter="url(#filter0_d_4307_121419)">
<path d="M182.898 91.5489L182.334 91.5307C179.328 91.4391 177.229 91.2928 176.036 91.0918C174.439 90.8428 173.255 90.4824 172.485 90.0105C171.488 89.452 170.525 88.5701 169.595 87.3648C170.621 87.0704 171.426 86.8761 172.012 86.7818C172.599 86.6971 172.954 86.6568 173.077 86.6607C173.316 86.6473 173.558 86.6449 173.803 86.6535C174.9 86.6684 176.098 87.0223 177.397 87.715C178.763 88.4412 180.597 89.7192 182.898 91.5489Z" fill="#FF8D8E"/>
</g>
<g filter="url(#filter1_d_4307_121419)">
<path d="M225.578 91.5489L226.143 91.5307C229.149 91.4391 231.248 91.2928 232.44 91.0918C234.038 90.8428 235.221 90.4824 235.991 90.0105C236.989 89.452 237.952 88.5701 238.881 87.3648C237.856 87.0704 237.05 86.8761 236.465 86.7818C235.877 86.6971 235.522 86.6568 235.4 86.6607C235.16 86.6473 234.918 86.6449 234.673 86.6535C233.577 86.6684 232.379 87.0223 231.079 87.715C229.714 88.4412 227.88 89.7192 225.578 91.5489Z" fill="#FF8D8E"/>
</g>
<defs>
<filter id="filter0_d_4307_121419" x="158.795" y="75.8498" width="34.9019" height="26.4956" filterUnits="userSpaceOnUse" color-interpolation-filters="sRGB">
<feFlood flood-opacity="0" result="BackgroundImageFix"/>
<feColorMatrix in="SourceAlpha" type="matrix" values="0 0 0 0 0 0 0 0 0 0 0 0 0 0 0 0 0 0 127 0" result="hardAlpha"/>
<feOffset/>
<feGaussianBlur stdDeviation="5.3993"/>
<feComposite in2="hardAlpha" operator="out"/>
<feColorMatrix type="matrix" values="0 0 0 0 1 0 0 0 0 0 0 0 0 0 0 0 0 0 0.8 0"/>
<feBlend mode="normal" in2="BackgroundImageFix" result="effect1_dropShadow_4307_121419"/>
<feBlend mode="normal" in="SourceGraphic" in2="effect1_dropShadow_4307_121419" result="shape"/>
</filter>
<filter id="filter1_d_4307_121419" x="214.78" y="75.8498" width="34.9019" height="26.4956" filterUnits="userSpaceOnUse" color-interpolation-filters="sRGB">
<feFlood flood-opacity="0" result="BackgroundImageFix"/>
<feColorMatrix in="SourceAlpha" type="matrix" values="0 0 0 0 0 0 0 0 0 0 0 0 0 0 0 0 0 0 127 0" result="hardAlpha"/>
<feOffset/>
<feGaussianBlur stdDeviation="5.3993"/>
<feComposite in2="hardAlpha" operator="out"/>
<feColorMatrix type="matrix" values="0 0 0 0 1 0 0 0 0 0 0 0 0 0 0 0 0 0 0.8 0"/>
<feBlend mode="normal" in2="BackgroundImageFix" result="effect1_dropShadow_4307_121419"/>
<feBlend mode="normal" in="SourceGraphic" in2="effect1_dropShadow_4307_121419" result="shape"/>
</filter>
<linearGradient id="paint0_linear_4307_121419" x1="295.554" y1="50.8074" x2="295.088" y2="481.4" gradientUnits="userSpaceOnUse">
<stop stop-color="#613AD2"/>
<stop offset="1" stop-color="#4725A8"/>
</linearGradient>
<linearGradient id="paint1_linear_4307_121419" x1="109.625" y1="66.9509" x2="112.727" y2="481.402" gradientUnits="userSpaceOnUse">
<stop stop-color="#613AD2"/>
<stop offset="1" stop-color="#4725A8"/>
</linearGradient>
<radialGradient id="paint2_radial_4307_121419" cx="0" cy="0" r="1" gradientUnits="userSpaceOnUse" gradientTransform="translate(184.411 440.735) rotate(44.7767) scale(46.9711 41.3216)">
<stop stop-color="#DBFF00"/>
<stop offset="1" stop-color="#FF7A00"/>
</radialGradient>
<linearGradient id="paint3_linear_4307_121419" x1="257.765" y1="0.03125" x2="257.765" y2="69.5169" gradientUnits="userSpaceOnUse">
<stop stop-color="#40BEAE"/>
<stop offset="1" stop-color="#CA0303"/>
</linearGradient>
<linearGradient id="paint4_linear_4307_121419" x1="150.647" y1="0.0234375" x2="150.647" y2="69.2602" gradientUnits="userSpaceOnUse">
<stop stop-color="#40BEAE"/>
<stop offset="1" stop-color="#CA0303"/>
</linearGradient>
</defs>
</svg>
