<svg width="400" height="301" viewBox="0 0 400 301" fill="none" xmlns="http://www.w3.org/2000/svg">
<path d="M0 290.491L1.82577 291.815C10.4792 294.482 35.7992 296.616 77.7859 298.215C120.063 299.813 169.847 300.461 227.139 300.159C281.816 299.737 325.546 298.501 358.327 296.453C368.831 295.791 377.483 295.07 384.283 294.289L392.856 293.085C397.566 292.256 399.947 291.392 400 290.491C398.57 287.727 379.044 285.427 341.421 283.592C303.799 281.757 256.658 280.804 200 280.734C143.342 280.804 96.2013 281.757 58.5786 283.592C20.956 285.427 1.42979 287.727 0 290.491Z" fill="#222B32" fill-opacity="0.329412"/>
<path d="M246.992 30.9216V30.9219C247.18 23.763 247.821 18.7995 248.913 16.0315C249.327 14.896 249.857 13.9018 250.502 13.0489L251.577 11.9021L252.869 11.0203L254.399 10.4299C256.78 9.7476 260.449 10.1546 265.407 11.651C268.328 12.3413 275.442 15.2782 286.75 20.4616L265.581 16.0854L246.992 30.9216Z" fill="black" fill-opacity="0.996078"/>
<path d="M211.206 166.625L198.732 169.421L197.114 176.027L200.521 175.986L202.101 171.973L204.543 172.675L196.25 180.77L200.488 184.851L203.344 182.781C202.786 183.139 203.186 183.704 204.545 184.476C207.001 185.879 209.335 186.968 211.547 187.742C213.187 188.342 214.808 188.755 216.41 188.981C217.199 189.083 217.949 189.109 218.658 189.057L219.677 188.911C220.332 188.77 220.942 188.556 221.509 188.269C221.834 188.195 222.61 187.638 223.836 186.597C225.211 185.188 226.47 183.581 227.612 181.779L211.206 166.625Z" fill="#FEBA9B"/>
<path d="M328.444 21.8203L328.447 21.8206V21.8208V21.8203L328.444 21.8206V21.8203ZM52.6216 256.515C52.6459 256.52 52.6674 256.522 52.687 256.522L52.6875 256.522L52.6259 256.515H52.6216ZM103.594 257.326C103.583 257.328 103.578 257.329 103.578 257.33L103.58 257.33C103.583 257.329 103.59 257.328 103.598 257.326H103.594ZM87.353 257.641C87.3582 257.642 87.362 257.643 87.3639 257.643L87.3653 257.643C87.3653 257.643 87.3626 257.642 87.357 257.641H87.353ZM262.223 256.017L226.095 256.25L226.095 256.25C206.871 256.4 173.465 256.619 149.774 256.775L146.785 256.795L146.786 256.796C124.467 256.979 105.906 257.164 103.773 257.308L103.776 257.309C103.801 257.684 104.032 258.685 104.442 259.887L104.443 259.89L105.252 262.347L187.815 262.464L187.815 262.464L269.87 262.541L266.261 259.444L262.223 256.017ZM52.8717 256.526C52.7736 256.899 52.683 258.031 52.683 259.493V262.542L89.0439 262.541L88.2427 260.229C87.8108 258.996 87.393 257.948 87.2344 257.627L87.2384 257.628C86.172 257.535 78.9131 257.282 70.1705 257.029V257.029L60.4569 256.746L55.4202 256.598L55.4202 256.599C54.1301 256.561 53.241 256.536 52.8761 256.526H52.8717ZM331.471 290.255L331.473 290.255L331.474 290.255L331.471 290.255V290.255ZM325.642 21.7812C325.644 21.7812 325.646 21.7812 325.647 21.7812L328.447 21.8203V21.8208L328.452 21.8204C329.978 21.8597 334.841 22.0936 339.25 22.3663V22.3667L339.272 22.3676L339.272 22.368L339.294 22.369V22.3693C347.314 22.8356 347.415 22.8489 363.956 26.6993L363.956 26.6998C379.092 30.1686 380.872 30.5799 380.608 31.643L380.604 31.6577L380.605 31.6582C380.361 32.6606 370.081 87.4581 357.663 153.958L353.026 178.8L349.452 197.945C333.727 282.186 332.363 289.418 331.854 290.081V290.081C331.761 290.202 331.639 290.247 331.521 290.254L331.522 290.255C331.426 290.347 331.276 290.73 331.276 291.283V292.413C331.276 292.483 331.244 292.549 331.185 292.599C331.127 292.648 331.049 292.676 330.967 292.676L25.8908 292.675C25.7233 292.675 25.5859 292.562 25.5813 292.42L25.3059 284.162C25.1223 279.64 24.9844 270.596 24.9844 264.09L24.9844 252.287C24.9844 252.141 25.1231 252.024 25.294 252.024L280.629 252.023V250.494V248.702C280.629 248.606 280.691 248.517 280.79 248.471C280.837 248.449 280.888 248.439 280.939 248.439C280.997 248.439 281.055 248.453 281.106 248.48L282.253 249.104L282.262 249.108C282.588 249.299 282.809 249.385 282.935 249.416V249.416C283.413 246.038 300.653 154.138 301.102 152.546L301.101 152.546C301.1 152.546 301.115 152.495 301.152 152.446L301.151 152.447C301.233 152.342 301.375 152.321 301.383 152.32L301.383 152.32C301.505 152.296 301.736 152.29 302.009 152.29C303.257 152.29 306.263 152.432 309.693 152.642L309.693 152.642C312.975 152.82 314.961 152.916 316.244 152.916C317.759 152.916 318.232 152.781 318.678 152.529L318.685 152.526C319.794 151.933 320.306 150.659 319.885 149.515L319.884 149.514C319.46 148.334 317.505 147.835 309.704 147.518L309.704 147.518C305.473 147.378 302.891 147.148 302.389 146.84L302.389 146.841C302.325 146.801 302.201 146.708 302.201 146.554C302.201 146.539 302.202 146.525 302.202 146.523V146.523C302.264 145.953 307.43 117.939 313.77 84.024V84.0244L325.336 22.003C325.36 21.8751 325.49 21.7812 325.642 21.7812Z" fill="#222B32"/>
<path d="M362.23 38.1175L345.092 33.6564L327.954 29.1953C315.06 101.28 302.167 173.364 289.273 245.449C299.139 253.673 309.004 261.897 318.869 270.121L362.23 38.1175Z" fill="#44C5E5" fill-opacity="0.996078"/>
<path d="M262.236 255.992L262.259 256L266.296 259.428L266.296 259.428L269.905 262.524L269.882 262.57L187.827 262.494L187.827 262.493L105.264 262.377L105.234 262.357L104.425 259.899L104.425 259.9L104.424 259.897C104.016 258.699 103.783 257.698 103.758 257.317L103.762 257.318L103.779 257.335L103.783 257.284C105.916 257.14 124.48 256.955 146.794 256.772L146.797 256.772L146.798 256.771L149.787 256.751L150.465 256.747L151.154 256.742C174.733 256.587 207.259 256.373 226.104 256.226L226.107 256.226L226.107 256.225L262.236 255.992Z" fill="#677678" fill-opacity="0.996078"/>
<path d="M52.8859 256.492L52.8872 256.493C53.2758 256.502 54.1176 256.526 55.4307 256.565L55.4315 256.564L60.4682 256.711L70.1811 256.995L70.1819 256.994C78.9226 257.248 86.185 257.5 87.2527 257.594L87.2495 257.649L87.2533 257.65C87.2542 257.651 87.2551 257.653 87.2559 257.654V257.655L87.2855 257.617C87.4455 257.941 87.8632 258.989 88.2951 260.222L88.2951 260.222L89.0963 262.534L89.0537 262.582L52.6928 262.583L52.6484 262.546V259.496C52.6484 258.035 52.739 256.899 52.8383 256.522L52.8815 256.492H52.8859Z" fill="#677678" fill-opacity="0.996078"/>
<path d="M243.289 193.812L252.095 206.8L243.291 193.813L243.289 193.812Z" fill="white"/>
<path d="M277.461 123.883L275.023 127.081L272.586 130.28C250.125 142.891 227.664 155.503 205.203 168.114C212.766 173.203 220.328 178.291 227.891 183.38C249.618 172.787 271.346 162.193 293.073 151.599L277.461 123.883Z" fill="black"/>
<path d="M273.828 117.013L281.485 157.931L298.64 189.188L289.143 245.644L319.767 271.187L340.29 154.694C341.443 149.865 342.782 141.839 343.447 137.016C344.273 131.026 344.321 127.431 344.252 126.239C344.116 123.856 343.991 121.481 343.608 119.112C342.459 112.011 338.981 105.039 333.206 98.1473C326.497 90.1422 315.108 79.9471 298.944 67.6172L273.828 117.013Z" fill="black"/>
<path d="M296.903 67.3784L296.916 67.263C296.981 58.7805 297.198 53.8695 297.396 52.5095C297.616 50.9869 297.755 49.6029 298.122 48.4012C299.45 44.0536 300.271 41.1262 300.493 39.5928C300.955 36.3882 301.174 33.8358 301.111 31.9312C300.974 27.792 300.564 24.8835 300.018 23.1727C299.661 22.0552 299.314 20.974 298.837 19.9587L298.051 18.499C297.478 17.5667 296.82 16.7146 296.066 15.9501C294.556 14.417 292.725 13.2862 290.749 12.2996C289.231 11.542 286.565 10.7081 282.532 10.2604C279.796 9.95655 276.823 10.1868 273.642 10.7246C270.051 11.3316 265.513 12.7893 259.737 14.404C257.773 14.953 256.183 14.7524 255.216 14.8791C252.716 15.2065 257.954 23.3457 256.11 20.1406C254.382 23.1843 253.652 21.7957 253.481 23.3324C253.205 25.8029 246.983 24.1537 249.992 29.8524L268.664 51.8814L296.903 67.3784Z" fill="black" fill-opacity="0.996078"/>
<path d="M299.777 72.4191L299.777 72.4197L297.219 63.2794L297.057 59.7462C294.002 59.8594 291.545 59.4401 289.757 58.3959C288.082 57.4176 286.724 55.8558 285.767 53.7475C284.952 51.9513 284.647 50.6043 284.602 49.7597C284.573 49.2125 284.498 48.6697 284.527 48.129C284.709 44.6718 284.765 42.8554 284.631 42.6782C284.606 41.798 284.347 40.6945 283.408 39.6169C281.252 37.1418 279.076 36.5346 277.204 37.3611C276.71 37.5793 276.119 38.1409 275.364 39.1302C275.108 39.4667 274.301 41.1815 272.956 44.3238C272.629 45.0894 272.23 45.3887 272.011 45.1593C271.594 44.7213 271.4 44.1559 271.247 43.5589C270.13 39.2203 269.313 36.2796 268.765 34.7488C267.76 31.9408 266.963 30.3746 266.722 29.9039C265.331 27.1895 263.08 24.7927 259.307 23.5347C253.759 21.6855 249.567 22.195 247.045 24.3275C245.256 29.9011 244.48 33.5526 244.463 35.2859C244.446 37.2076 245.17 39.0309 246.891 40.7605C242.871 46.8774 241.132 50.5908 241.102 51.9205C241.065 53.5637 242.705 54.2654 246.592 54.0589C246.168 56.488 246.163 57.9952 246.402 58.6336C246.668 59.3463 247.426 59.8562 248.856 60.1229C247.859 60.339 247.504 60.9733 247.867 62.0055C248.188 62.9195 249.095 64.3983 250.511 66.4623C250.483 68.9905 250.689 70.8321 251.31 71.918C251.911 72.9686 252.621 73.5189 253.266 73.6467C254.254 74.1606 256.709 74.3198 260.633 74.1252L267.087 71.7598L276.602 83.2042L299.777 72.4191Z" fill="black"/>
<path d="M285.992 119.625C286.099 119.657 286.206 119.692 286.311 119.729C286.311 119.729 286.311 119.729 286.311 119.729L286.313 119.73C286.208 119.692 286.101 119.657 285.994 119.625H285.992Z" fill="white"/>
<path d="M288.258 99.0391C288.227 99.1461 288.195 99.2534 288.164 99.3608C288.166 99.3609 288.168 99.3611 288.17 99.3614V99.3622C288.199 99.2536 288.229 99.1461 288.26 99.0391H288.258Z" fill="white"/>
<path d="M288.45 98.3672L288.43 98.4105L288.45 98.3679L288.45 98.3672Z" fill="white"/>
<path d="M260.063 39.4658L259.783 39.2228C258.577 38.1358 257.516 37.4096 256.599 37.0444C256.395 36.9652 256.188 36.8987 255.979 36.8449C255.877 36.8051 255.558 36.7466 255.022 36.6693C254.485 36.6029 253.717 36.5803 252.719 36.6014C254.164 37.0117 255.299 37.3815 256.124 37.7107C256.931 38.0182 258.244 38.6032 260.063 39.4658Z" fill="black" fill-opacity="0.996078"/>
<path d="M259.138 37.0052L259.138 37.0059L250.428 39.5904C250.102 40.5527 249.999 41.2448 250.12 41.6667C250.19 42.0986 250.578 42.6872 251.285 43.4325L259.138 37.0052Z" fill="white" fill-opacity="0.996078"/>
<path d="M259.758 65.4966L259.758 65.497C276.545 38.6366 276.545 38.6364 259.758 65.4966Z" fill="white" fill-opacity="0.996078"/>
<path d="M326.371 140.789L314.434 171.012L294.491 181.825L298.368 189L289.062 245.63L312.612 265.468L326.371 140.789Z" fill="#222B32" fill-opacity="0.2"/>
<path d="M298.353 67.2734L296.868 68.4225C290.29 73.5565 285.516 77.0498 282.546 78.9024C279.794 80.6703 277.22 81.6504 274.826 81.8425L273.536 87.1402C271.532 96.1356 271.042 104.325 272.067 111.709C272.722 117.632 275.677 126.464 280.932 138.206L338.083 111.279L298.353 67.2734Z" fill="black"/>
<path d="M298.523 189.092L297.865 187.657C302.52 190.102 306.984 191.264 311.254 191.144C315.18 191.258 322.964 190.074 334.607 187.594L319.798 271.225L289.07 245.713L298.523 189.092Z" fill="black" fill-opacity="0.996078"/>
<path d="M290.332 151.016L238.266 187.51C244.146 195.049 247.412 200.528 253.292 208.068C273.115 195.389 292.938 182.71 312.761 170.032L290.332 151.016Z" fill="black"/>
<path d="M244.226 31.9375L270.539 36.2953C271.598 38.3066 272.285 39.8004 272.599 40.7767C272.986 42.1159 273.097 42.9872 272.931 43.3904C272.813 44.6326 271.306 45.8107 268.409 46.9247L243.588 46.4538C247.762 45.6338 251.476 44.7781 254.731 43.8867C255.77 43.5861 256.69 43.2762 257.492 42.957L258.578 42.4694C259.235 42.139 259.721 41.7954 260.037 41.4386L260.358 40.8914C260.454 40.5551 260.405 40.2127 260.21 39.8643L259.837 39.3474C259.524 39.0032 259.122 38.6733 258.63 38.3576C257.609 37.7129 256.455 37.2066 255.166 36.8388C254.541 36.6616 253.938 36.5394 253.357 36.472L252.532 36.4224C251.857 36.4224 251.319 36.5359 250.919 36.7629L250.436 37.1345C250.163 37.4266 249.97 37.7911 249.857 38.2281C249.426 38.9169 249.719 41.3415 250.737 45.5017L242.297 47.0974L244.226 31.9375Z" fill="black" fill-opacity="0.996078"/>
<path d="M86.6769 154.953C86.2909 155.776 86.0788 156.674 86.0788 157.613L86.0781 157.614L86.0788 157.614C86.0788 157.615 86.0788 157.615 86.0788 157.615L86.0793 159.634L86.0788 157.614L86.0781 157.614C86.0791 156.674 86.2912 155.776 86.6769 154.954V154.953Z" fill="#2F8694"/>
<path d="M238.898 237.113L238.883 178.562L238.898 237.115V237.113Z" fill="#2F8694"/>
<path d="M230.426 244.312L94.5757 244.339C89.8943 244.338 86.1001 241.119 86.0989 237.145L86.0781 157.616C86.0769 153.643 89.8697 150.422 94.5514 150.421L230.402 150.398C235.083 150.395 238.878 153.614 238.879 157.588L238.899 237.117C238.9 241.09 235.107 244.311 230.426 244.312Z" fill="#CFE17D"/>
<path d="M238.884 178.569L238.882 170.289L238.879 159.609L86.0781 159.638L86.083 178.597L238.884 178.569Z" fill="#A3B260"/>
<path d="M207.278 219.718C207.28 227.129 200.205 233.136 191.474 233.138C182.744 233.139 175.666 227.135 175.664 219.724C175.662 212.314 182.737 206.306 191.468 206.305C200.198 206.303 207.276 212.308 207.278 219.718Z" fill="#96AA3D"/>
<path d="M225.723 219.718C225.725 227.129 218.65 233.136 209.919 233.138C201.189 233.139 194.111 227.135 194.109 219.724C194.107 212.314 201.182 206.306 209.913 206.305C218.643 206.303 225.721 212.308 225.723 219.718Z" fill="#647611"/>
<path d="M135.461 188.367L135.461 196.398L135.461 204.429C124.037 204.429 112.612 204.429 101.188 204.429C101.188 199.075 101.188 193.721 101.188 188.367C112.612 188.367 124.037 188.367 135.461 188.367Z" fill="white"/>
<path d="M240.004 188.969L227.111 189.375L223.826 195.519L227.161 196.113L229.739 192.492L231.94 193.632L221.758 199.986L224.838 204.756L228.16 203.268C227.522 203.514 227.767 204.14 228.893 205.145C230.928 206.972 232.924 208.468 234.882 209.636C236.327 210.526 237.801 211.23 239.306 211.749C240.05 211.996 240.774 212.16 241.479 212.242L242.512 212.289C243.187 212.273 243.838 212.179 244.465 212.004C244.802 211.992 245.702 211.593 247.167 210.806C248.873 209.686 250.516 208.354 252.096 206.807L240.004 188.969Z" fill="#FEBA9B"/>
<path d="M246.563 26.0793L298.982 43.8193L304.504 30.0341L305.277 25.0306L304.504 18.3464C302.143 17.3961 299.032 5.88188 292.26 3.33072C289.977 2.50586 283.57 0.411773 280.8 0.126032C278.024 -0.143001 275.098 0.0186828 272.022 0.611084C266.136 1.74196 260.018 4.07821 253.669 7.61983C251.481 8.88203 249.843 10.0885 248.755 11.2393C247.635 12.2956 247.126 13.7051 247.229 15.4678L245.113 16.6822L243.492 25.0306L246.563 26.0793Z" fill="black"/>
<path d="M246.992 30.9216V30.9219C247.18 23.763 247.821 18.7995 248.913 16.0315C249.327 14.896 249.857 13.9018 250.502 13.0489L251.577 11.9021L252.869 11.0203L254.399 10.4299C256.78 9.7476 260.449 10.1546 265.407 11.651C268.328 12.3413 275.442 15.2782 286.75 20.4616L265.581 16.0854L246.992 30.9216Z" fill="black" fill-opacity="0.996078"/>
<path d="M211.206 166.625L198.732 169.421L197.114 176.027L200.521 175.986L202.101 171.973L204.543 172.675L196.25 180.77L200.488 184.851L203.344 182.781C202.786 183.139 203.186 183.704 204.545 184.476C207.001 185.879 209.335 186.968 211.547 187.742C213.187 188.342 214.808 188.755 216.41 188.981C217.199 189.083 217.949 189.109 218.658 189.057L219.677 188.911C220.332 188.77 220.942 188.556 221.509 188.269C221.834 188.195 222.61 187.638 223.836 186.597C225.211 185.188 226.47 183.581 227.612 181.779L211.206 166.625Z" fill="#FEBA9B"/>
<path d="M52.6216 256.515C52.6459 256.52 52.6674 256.522 52.687 256.522L52.6875 256.522L52.6259 256.515H52.6216ZM103.594 257.326C103.583 257.328 103.578 257.33 103.578 257.33L103.58 257.33C103.583 257.329 103.59 257.328 103.598 257.326H103.594ZM87.353 257.641C87.3582 257.642 87.362 257.643 87.3639 257.643L87.3653 257.643C87.3653 257.643 87.3626 257.642 87.357 257.641H87.353ZM262.223 256.017L226.095 256.249L226.095 256.25C206.871 256.4 173.465 256.619 149.774 256.775L146.785 256.795L146.786 256.795C124.467 256.979 105.906 257.164 103.773 257.308L103.776 257.309C103.801 257.684 104.032 258.685 104.442 259.887L104.443 259.89L105.252 262.347L187.815 262.464L269.87 262.541L266.261 259.444L262.223 256.017ZM52.8717 256.526C52.7736 256.899 52.683 258.031 52.683 259.493V262.542L89.0439 262.541L88.2427 260.229C87.8108 258.996 87.393 257.948 87.2344 257.627L87.2384 257.628C86.1721 257.535 78.9131 257.282 70.1705 257.029V257.029L60.4569 256.746L55.4202 256.598C54.13 256.561 53.241 256.536 52.8761 256.526H52.8717ZM331.471 290.255L331.473 290.255L331.475 290.255H331.471ZM325.642 21.7812C325.644 21.7812 325.646 21.7812 325.647 21.7812L328.447 21.8206L328.452 21.8204C329.978 21.8597 334.841 22.0936 339.25 22.3663L339.272 22.3676L339.294 22.369C347.314 22.8353 347.415 22.8489 363.956 26.6993L363.956 26.6998C379.092 30.1686 380.872 30.5799 380.608 31.643L380.604 31.6577L380.605 31.6582C380.361 32.6606 370.081 87.4581 357.663 153.958L353.026 178.8L349.452 197.945C333.727 282.186 332.363 289.418 331.855 290.081C331.761 290.202 331.639 290.247 331.521 290.254L331.522 290.255C331.426 290.347 331.276 290.73 331.276 291.283V292.413C331.276 292.483 331.244 292.55 331.185 292.599C331.127 292.648 331.049 292.676 330.967 292.676L25.8908 292.675C25.7233 292.675 25.5859 292.562 25.5813 292.42L25.3059 284.162C25.1223 279.64 24.9844 270.596 24.9844 264.09L24.9844 252.287C24.9844 252.141 25.1231 252.024 25.294 252.024L280.629 252.023V250.494V248.702C280.629 248.606 280.691 248.517 280.79 248.471C280.837 248.449 280.888 248.439 280.939 248.439C280.997 248.439 281.055 248.453 281.106 248.48L282.253 249.104L282.262 249.108C282.588 249.299 282.809 249.385 282.935 249.416C283.413 246.038 300.653 154.138 301.102 152.546L301.101 152.546C301.1 152.546 301.115 152.495 301.152 152.446L301.151 152.447C301.233 152.342 301.375 152.321 301.383 152.32C301.505 152.296 301.736 152.29 302.009 152.29C303.257 152.29 306.263 152.432 309.693 152.642L309.693 152.642C312.975 152.82 314.961 152.916 316.245 152.916C317.759 152.916 318.233 152.781 318.678 152.529L318.685 152.526C319.794 151.933 320.306 150.659 319.885 149.515L319.884 149.514C319.46 148.334 317.505 147.835 309.704 147.518L309.704 147.518C305.473 147.378 302.891 147.148 302.389 146.84C302.325 146.801 302.201 146.708 302.201 146.554C302.201 146.539 302.202 146.525 302.203 146.523C302.264 145.954 307.43 117.939 313.77 84.024L325.336 22.003C325.36 21.8751 325.49 21.7812 325.642 21.7812Z" fill="#222B32"/>
<path d="M362.23 38.1175L345.092 33.6564L327.954 29.1953C315.06 101.28 302.167 173.364 289.273 245.449C299.139 253.673 309.004 261.897 318.869 270.121L362.23 38.1175Z" fill="#44C5E5" fill-opacity="0.996078"/>
<path d="M262.236 255.992L262.259 256L266.296 259.428L266.296 259.428L269.905 262.524L269.882 262.57L187.827 262.494L187.827 262.493L105.264 262.377L105.234 262.357L104.425 259.899L104.425 259.9L104.424 259.897C104.016 258.699 103.783 257.698 103.758 257.317L103.762 257.318L103.779 257.335L103.783 257.284C105.916 257.14 124.48 256.955 146.794 256.772L146.797 256.772L146.798 256.771L149.787 256.751L150.465 256.747L151.154 256.742C174.733 256.587 207.259 256.373 226.104 256.226L226.107 256.226L226.107 256.225L262.236 255.992Z" fill="#677678" fill-opacity="0.996078"/>
<path d="M52.8859 256.492L52.8872 256.493C53.2758 256.502 54.1176 256.526 55.4307 256.565L55.4315 256.564L60.4682 256.711L70.1811 256.995L70.1819 256.994C78.9226 257.248 86.185 257.5 87.2527 257.594L87.2495 257.649L87.2533 257.65C87.2542 257.651 87.2551 257.653 87.2559 257.654V257.655L87.2855 257.617C87.4455 257.941 87.8632 258.989 88.2951 260.222L88.2951 260.222L89.0963 262.534L89.0537 262.582L52.6928 262.583L52.6484 262.546V259.496C52.6484 258.035 52.739 256.899 52.8383 256.522L52.8815 256.492H52.8859Z" fill="#677678" fill-opacity="0.996078"/>
<path d="M243.289 193.812L252.095 206.8L243.291 193.813L243.289 193.812Z" fill="white"/>
<path d="M277.461 123.883L275.023 127.081L272.586 130.28C250.125 142.891 227.664 155.503 205.203 168.114C212.766 173.203 220.328 178.291 227.891 183.38C249.618 172.787 271.346 162.193 293.073 151.599L277.461 123.883Z" fill="black"/>
<path d="M273.828 117.013L281.485 157.931L298.64 189.188L289.143 245.644L319.767 271.187L340.29 154.694C341.443 149.865 342.782 141.839 343.447 137.016C344.273 131.026 344.321 127.431 344.252 126.239C344.116 123.856 343.991 121.481 343.608 119.112C342.459 112.011 338.981 105.039 333.206 98.1473C326.497 90.1422 315.108 79.9471 298.944 67.6172L273.828 117.013Z" fill="black"/>
<path d="M296.903 67.3784L296.916 67.263C296.981 58.7805 297.198 53.8695 297.396 52.5095C297.616 50.9869 297.755 49.6029 298.122 48.4012C299.45 44.0536 300.271 41.1262 300.493 39.5928C300.955 36.3882 301.174 33.8358 301.111 31.9312C300.974 27.792 300.564 24.8835 300.018 23.1727C299.661 22.0552 299.314 20.974 298.837 19.9587L298.051 18.499C297.478 17.5667 296.82 16.7146 296.066 15.9501C294.556 14.417 292.725 13.2862 290.749 12.2996C289.231 11.542 286.565 10.7081 282.532 10.2604C279.796 9.95655 276.823 10.1868 273.642 10.7246C270.051 11.3316 265.513 12.7893 259.737 14.404C257.773 14.953 256.183 14.7524 255.216 14.8791C252.716 15.2065 257.954 23.3457 256.11 20.1406C254.382 23.1843 253.652 21.7957 253.481 23.3324C253.205 25.8029 246.983 24.1537 249.992 29.8524L268.664 51.8814L296.903 67.3784Z" fill="black" fill-opacity="0.996078"/>
<path d="M299.777 72.4191L299.777 72.4197L297.219 63.2794L297.057 59.7462C294.002 59.8594 291.545 59.4401 289.757 58.3959C288.082 57.4176 286.724 55.8558 285.767 53.7475C284.952 51.9513 284.647 50.6043 284.602 49.7597C284.573 49.2125 284.498 48.6697 284.527 48.129C284.709 44.6718 284.765 42.8554 284.631 42.6782C284.606 41.798 284.347 40.6945 283.408 39.6169C281.252 37.1418 279.076 36.5346 277.204 37.3611C276.71 37.5793 276.119 38.1409 275.364 39.1302C275.108 39.4667 274.301 41.1815 272.956 44.3238C272.629 45.0894 272.23 45.3887 272.011 45.1593C271.594 44.7213 271.4 44.1559 271.247 43.5589C270.13 39.2203 269.313 36.2796 268.765 34.7488C267.76 31.9408 266.963 30.3746 266.722 29.9039C265.331 27.1895 263.08 24.7927 259.307 23.5347C253.759 21.6855 249.567 22.195 247.045 24.3275C245.256 29.9011 244.48 33.5526 244.463 35.2859C244.446 37.2076 245.17 39.0309 246.891 40.7605C242.871 46.8774 241.132 50.5908 241.102 51.9205C241.065 53.5637 242.705 54.2654 246.592 54.0589C246.168 56.488 246.163 57.9952 246.402 58.6336C246.668 59.3463 247.426 59.8562 248.856 60.1229C247.859 60.339 247.504 60.9733 247.867 62.0055C248.188 62.9195 249.095 64.3983 250.511 66.4623C250.483 68.9905 250.689 70.8321 251.31 71.918C251.911 72.9686 252.621 73.5189 253.266 73.6467C254.254 74.1606 256.709 74.3198 260.633 74.1252L267.087 71.7598L276.602 83.2042L299.777 72.4191Z" fill="black"/>
<path d="M285.992 119.625C286.099 119.657 286.206 119.692 286.311 119.729C286.311 119.729 286.311 119.729 286.311 119.729L286.313 119.73C286.208 119.692 286.101 119.657 285.994 119.625H285.992Z" fill="white"/>
<path d="M288.258 99.0391C288.227 99.1461 288.195 99.2534 288.164 99.3608C288.166 99.3609 288.168 99.3611 288.17 99.3614V99.3622C288.199 99.2536 288.229 99.1461 288.26 99.0391H288.258Z" fill="white"/>
<path d="M288.45 98.3672L288.43 98.4105L288.45 98.3679L288.45 98.3672Z" fill="white"/>
<path d="M260.063 39.4658L259.783 39.2228C258.577 38.1358 257.516 37.4096 256.599 37.0444C256.395 36.9652 256.188 36.8987 255.979 36.8449C255.877 36.8051 255.558 36.7466 255.022 36.6693C254.485 36.6029 253.717 36.5803 252.719 36.6014C254.164 37.0117 255.299 37.3815 256.124 37.7107C256.931 38.0182 258.244 38.6032 260.063 39.4658Z" fill="black" fill-opacity="0.996078"/>
<path d="M259.138 37.0052L259.138 37.0059L250.428 39.5904C250.102 40.5527 249.999 41.2448 250.12 41.6667C250.19 42.0986 250.578 42.6872 251.285 43.4325L259.138 37.0052Z" fill="white" fill-opacity="0.996078"/>
<path d="M326.371 140.789L314.434 171.012L294.491 181.825L298.368 189L289.062 245.63L312.612 265.468L326.371 140.789Z" fill="#222B32" fill-opacity="0.2"/>
<path d="M298.353 67.2734L296.868 68.4225C290.29 73.5565 285.516 77.0498 282.546 78.9024C279.794 80.6703 277.22 81.6504 274.826 81.8425L273.536 87.1402C271.532 96.1356 271.042 104.325 272.067 111.709C272.722 117.632 275.677 126.464 280.932 138.206L338.083 111.279L298.353 67.2734Z" fill="black"/>
<path d="M298.523 189.092L297.865 187.657C302.52 190.102 306.984 191.264 311.254 191.144C315.18 191.258 322.964 190.074 334.607 187.594L319.798 271.225L289.07 245.713L298.523 189.092Z" fill="black" fill-opacity="0.996078"/>
<path d="M290.332 151.016L238.266 187.51C244.146 195.049 247.412 200.528 253.292 208.068C273.115 195.389 292.938 182.71 312.761 170.032L290.332 151.016Z" fill="black"/>
<path d="M244.226 31.9375L270.539 36.2953C271.598 38.3066 272.285 39.8004 272.599 40.7767C272.986 42.1159 273.097 42.9872 272.931 43.3904C272.813 44.6326 271.306 45.8107 268.409 46.9247L243.588 46.4538C247.762 45.6338 251.476 44.7781 254.731 43.8867C255.77 43.5861 256.69 43.2762 257.492 42.957L258.578 42.4694C259.235 42.139 259.721 41.7954 260.037 41.4386L260.358 40.8914C260.454 40.5551 260.405 40.2127 260.21 39.8643L259.837 39.3474C259.524 39.0032 259.122 38.6733 258.63 38.3576C257.609 37.7129 256.455 37.2066 255.166 36.8388C254.541 36.6616 253.938 36.5394 253.357 36.472L252.532 36.4224C251.857 36.4224 251.319 36.5359 250.919 36.7629L250.436 37.1345C250.163 37.4266 249.97 37.7911 249.857 38.2281C249.426 38.9169 249.719 41.3415 250.737 45.5017L242.297 47.0974L244.226 31.9375Z" fill="black" fill-opacity="0.996078"/>
<path d="M86.6769 154.953C86.2909 155.776 86.0788 156.674 86.0788 157.613L86.0781 157.614L86.0788 157.614C86.0788 157.615 86.0788 157.615 86.0788 157.615L86.0793 159.634L86.0788 157.614L86.0781 157.614C86.0791 156.674 86.2912 155.776 86.6769 154.954V154.953Z" fill="#2F8694"/>
<path d="M238.898 237.113L238.883 178.562L238.898 237.115V237.113Z" fill="#2F8694"/>
<path d="M230.426 244.312L94.5757 244.339C89.8943 244.338 86.1001 241.119 86.0989 237.145L86.0781 157.616C86.0769 153.643 89.8697 150.422 94.5514 150.421L230.402 150.398C235.083 150.395 238.878 153.614 238.879 157.588L238.899 237.117C238.9 241.09 235.107 244.311 230.426 244.312Z" fill="#CFE17D"/>
<path d="M238.884 178.569L238.882 170.289L238.879 159.609L86.0781 159.638L86.083 178.597L238.884 178.569Z" fill="#A3B260"/>
<path d="M207.278 219.718C207.28 227.129 200.205 233.136 191.474 233.138C182.744 233.139 175.666 227.135 175.664 219.724C175.662 212.314 182.737 206.306 191.468 206.305C200.198 206.303 207.276 212.308 207.278 219.718Z" fill="#96AA3D"/>
<path d="M225.723 219.718C225.725 227.129 218.65 233.136 209.919 233.138C201.189 233.139 194.111 227.135 194.109 219.724C194.107 212.314 201.182 206.306 209.913 206.305C218.643 206.303 225.721 212.308 225.723 219.718Z" fill="#647611"/>
<path d="M135.461 188.367L135.461 196.398L135.461 204.429C124.037 204.429 112.612 204.429 101.188 204.429C101.188 199.075 101.188 193.721 101.188 188.367C112.612 188.367 124.037 188.367 135.461 188.367Z" fill="white"/>
<path d="M240.004 188.969L227.111 189.375L223.826 195.519L227.161 196.113L229.739 192.492L231.94 193.632L221.758 199.986L224.838 204.756L228.16 203.268C227.522 203.514 227.767 204.14 228.893 205.145C230.928 206.972 232.924 208.468 234.882 209.636C236.327 210.526 237.801 211.23 239.306 211.749C240.05 211.996 240.774 212.16 241.479 212.242L242.512 212.289C243.187 212.273 243.838 212.179 244.465 212.004C244.802 211.992 245.702 211.593 247.167 210.806C248.873 209.686 250.516 208.354 252.096 206.807L240.004 188.969Z" fill="#FEBA9B"/>
<path d="M246.563 26.0793L298.982 43.8193L304.504 30.0341L305.277 25.0306L304.504 18.3464C302.143 17.3961 299.032 5.88188 292.26 3.33072C289.977 2.50586 283.57 0.411773 280.8 0.126032C278.024 -0.143001 275.098 0.0186828 272.022 0.611084C266.136 1.74196 260.018 4.07821 253.669 7.61983C251.481 8.88203 249.843 10.0885 248.755 11.2393C247.635 12.2956 247.126 13.7051 247.229 15.4678L245.113 16.6822L243.492 25.0306L246.563 26.0793Z" fill="black"/>
</svg>
