<svg width="402" height="352" viewBox="0 0 402 352" fill="none" xmlns="http://www.w3.org/2000/svg">
<ellipse rx="60.5911" ry="122.746" transform="matrix(-1 0 0 1 293.12 122.746)" fill="black"/>
<path d="M143.129 307.502L141.765 298.593L140.401 295.539L153.224 296.557L154.588 307.502L155.68 318.192L147.222 324.809L137.946 323.791L141.765 320.737L143.129 314.374V307.502Z" fill="black" stroke="black" stroke-width="1.54797"/>
<path d="M312.254 312.037L307.489 298.893L245.017 287.771L207.958 278.418L201.605 276.648H196.311L185.458 279.935L176.722 282.462L169.84 287.771L166.928 288.782L162.693 289.54L160.31 291.31V293.332L162.693 295.101L166.928 295.86H171.693V297.123L158.193 303.948H146.81V305.212V309.004L150.516 313.048L155.81 314.06L160.31 313.048L162.693 316.082L166.928 317.851H171.693L175.399 321.643L182.016 322.907L187.575 328.721L197.899 332.765H205.84L216.429 330.237L235.223 322.907L241.841 320.126L304.577 340.854L313.312 328.721L312.254 312.037Z" fill="#FFC892" stroke="#FFC892" stroke-width="1.54797"/>
<ellipse rx="44.335" ry="65.6219" transform="matrix(-1 0 0 1 291.642 80.7234)" fill="url(#paint0_linear_4307_120839)"/>
<path d="M333.846 118.472L322.427 112.359L262.201 115.67L251.541 120L244.837 117.963L245.903 128.66L202.999 149.8L195.537 153.111L190.474 157.696L189.141 160.243L166.223 248.387L137.964 293.804L108.662 291.412L67.6222 154.13L1 169.412L40.1739 297.016L45.5037 298.544V305.421L72.1526 308.987L95.8701 299.563L145.97 303.638L147.569 307.458L146.769 315.354L142.772 321.212L143.871 324.778L146.769 325.287L152.133 326.561L158.262 328.598L163.558 329.362L166.223 328.598L163.558 350.076H333.097L335.71 347.191C343.616 349.993 364.384 352.489 377.815 347.191C391.247 341.894 398.868 303.553 401 285.045L399.401 232.577C400.556 231.898 398.193 203.032 394.904 185.713C385.619 136.81 360.762 130.952 333.846 118.472Z" fill="black"/>
<path d="M137.964 293.804L108.662 291.412L67.6222 154.13L0.999995 169.412L40.1739 297.016L45.5037 298.544V305.421L72.1526 308.987L95.8701 299.563L145.97 303.638L147.569 307.458L146.769 315.354L142.772 321.212L143.871 324.778L146.769 325.287L152.133 326.561L158.262 328.598L163.558 329.362L166.223 328.598L163.558 350.076H333.097L335.71 347.191C343.616 349.993 364.384 352.489 377.815 347.191C391.247 341.894 398.868 303.553 401 285.045L399.401 232.577C400.556 231.898 398.193 203.032 394.904 185.713C385.619 136.81 360.762 130.952 333.846 118.472L322.427 112.359L262.201 115.67L251.541 120L244.837 117.963L245.903 128.66L202.999 149.8L195.537 153.111L190.474 157.696L189.141 160.243L166.223 248.387L137.964 293.804ZM137.964 293.804L175.044 296.019" stroke="black" stroke-width="1.54797"/>
<ellipse rx="7.38916" ry="7.0815" transform="matrix(-1 0 0 1 307.9 51.4643)" fill="url(#paint1_radial_4307_120839)" fill-opacity="0.8"/>
<ellipse rx="7.38916" ry="7.0815" transform="matrix(-1 0 0 1 274.4 51.4643)" fill="url(#paint2_radial_4307_120839)" fill-opacity="0.8"/>
<path d="M95.7823 299.432L145.474 303.961H147.797V309.314V317.423L144.313 324.803L137.345 323.916L125.732 322.142L109.92 319.45L95.7823 317.423L91.2477 316.916L83.2455 318.183L78.7109 319.45L75.2433 320.717L73.3761 321.73L70.9754 322.49L68.0413 322.997H65.6406L61.3727 321.224L57.6383 319.196L52.837 316.916H49.9028H47.2354L45.635 316.409L44.3013 315.396L43.7678 313.368L43.2343 310.074V300.699H41.3671H36.5658L32.2979 300.192L27.7633 298.419L26.1629 296.645L25.6294 295.125L26.1629 293.351L27.7633 292.084L30.4307 291.324L34.6986 290.817H41.3671L45.635 291.577L44.8348 283.215V279.921V277.894V277.134V275.614L45.3682 273.333L46.1685 272.066L47.5022 270.799L48.5691 270.039H49.6361L50.7031 270.292L51.5033 271.306L53.1037 287.523L54.1707 301.713L54.7042 302.726L54.4374 297.658L52.3035 272.066V270.799L53.1037 270.039H54.7042L55.7712 270.292L57.9051 271.559L61.106 277.894L62.4397 287.776L63.7734 304.246L64.3069 305.767L64.8404 306.02L65.6406 305.007L66.1741 300.192L66.9743 293.858L68.0413 291.324L69.375 289.297L70.9754 288.79H73.3761L74.9765 290.31C75.1899 290.513 75.9546 291.577 76.3102 292.084L77.1105 294.364L77.3772 298.672L77.1105 301.966V304.246H77.6439L78.7109 303.74L86.7131 295.885L90.4475 293.858H93.1149L95.2489 295.125L96.5826 296.391V297.658L95.2489 298.419L95.7823 299.432Z" fill="#9DFF9B" stroke="#FFBA9B" stroke-width="1.54797"/>
<path d="M318.155 311.827L313.334 298.761L250.123 287.705L212.625 278.407L206.197 276.648H200.84L189.859 279.915L181.02 282.428L174.056 287.705L171.11 288.71L166.824 289.464L164.414 291.223V293.233L166.824 294.992L171.11 295.746H175.931V297.002L162.271 303.787H150.754V305.043V308.812L154.503 312.833L159.86 313.838L164.414 312.833L166.824 315.848L171.11 317.607H175.931L179.681 321.376L186.377 322.632L192.001 328.412L202.447 332.432H210.483L221.196 329.92L240.213 322.632L246.909 319.868L313.334 338.966L319.227 328.412L318.155 311.827Z" fill="#9DFF9B" stroke="#FFBA9B" stroke-width="1.54797"/>
<path d="M246.318 321.747L248.43 287.039L318.138 292.531L331.047 316.255L312.27 340.858L246.318 321.747Z" fill="black" stroke="black" stroke-width="1.54797"/>
<path d="M102.804 299.305L147.695 304.018L158.633 326.686H149.518L91.6377 323.32L102.804 299.305Z" fill="black" stroke="black" stroke-width="1.54797"/>
<path d="M162.816 294.678L178.263 295.529L187.947 293.827L195.094 280.422L182.874 281.911C179.339 283.259 170.378 286.592 162.816 289.146C155.254 291.699 159.665 293.898 162.816 294.678Z" fill="#9DFF9B"/>
<defs>
<linearGradient id="paint0_linear_4307_120839" x1="44.335" y1="0" x2="44.335" y2="131.244" gradientUnits="userSpaceOnUse">
<stop offset="0.3125" stop-color="#171717"/>
<stop offset="1"/>
</linearGradient>
<radialGradient id="paint1_radial_4307_120839" cx="0" cy="0" r="1" gradientUnits="userSpaceOnUse" gradientTransform="translate(7.38916 7.0815) rotate(90) scale(7.0815 7.38916)">
<stop stop-color="#FF0000"/>
<stop offset="1" stop-color="#FF0000" stop-opacity="0"/>
</radialGradient>
<radialGradient id="paint2_radial_4307_120839" cx="0" cy="0" r="1" gradientUnits="userSpaceOnUse" gradientTransform="translate(7.38916 7.0815) rotate(90) scale(7.0815 7.38916)">
<stop stop-color="#FF0000"/>
<stop offset="1" stop-color="#FF0000" stop-opacity="0"/>
</radialGradient>
</defs>
</svg>
