<svg width="304" height="253" viewBox="0 0 304 253" fill="none" xmlns="http://www.w3.org/2000/svg">
<rect x="-0.0278652" y="1.96418" width="66.0787" height="41.792" rx="20.896" transform="matrix(-0.709882 0.704321 0.689616 0.724175 123.434 172.358)" fill="#E6B249" stroke="black" stroke-width="2.75"/>
<rect x="-0.0278652" y="1.96418" width="66.0787" height="35.9673" rx="17.9836" transform="matrix(-0.709882 0.704321 0.689616 0.724175 123.434 172.358)" fill="#E6B249" stroke="black" stroke-width="2.75"/>
<rect x="-1.91412" y="0.203863" width="65.6747" height="41.6964" rx="20.8482" transform="matrix(-0.771678 -0.636013 -0.620411 0.784277 258.048 176.741)" fill="#E6B249" stroke="black" stroke-width="2.75"/>
<rect x="-1.91412" y="0.203863" width="65.6747" height="35.8842" rx="17.9421" transform="matrix(-0.771678 -0.636013 -0.620411 0.784277 258.048 176.741)" fill="#E6B249" stroke="black" stroke-width="2.75"/>
<rect x="-0.343184" y="1.93295" width="65.5804" height="41.7571" rx="20.8785" transform="matrix(-0.814276 0.580478 0.564688 0.825305 136.301 149.068)" fill="#E6B249" stroke="black" stroke-width="2.75"/>
<rect x="-0.343184" y="1.93295" width="65.5804" height="35.9369" rx="17.9685" transform="matrix(-0.814276 0.580478 0.564688 0.825305 136.301 149.068)" fill="#E6B249" stroke="black" stroke-width="2.75"/>
<path d="M72.665 157.485L13.3783 122.705V82.402L2 9.97882L138.739 2L147.522 65.2168L212.198 89.5624V132.73L72.665 157.485Z" fill="#EDEDED" stroke="black" stroke-width="2.75"/>
<path d="M71.407 111.046L14.0269 82.4218L148.07 65.4203L212.345 89.3482L71.407 111.046Z" stroke="black" stroke-width="2.75"/>
<path d="M72.5089 157.483L71.8438 111.312" stroke="black" stroke-width="2.75"/>
<path d="M115.75 104.694V149.341L180.938 137.773V94.3438L115.75 104.694Z" fill="#D40000" stroke="black" stroke-width="2.75"/>
<path d="M133.337 106.719C133.364 106.565 133.49 106.415 133.715 106.271C133.94 106.118 134.158 106.026 134.371 105.997C134.491 105.98 134.582 105.992 134.644 106.03C134.715 106.067 134.742 106.13 134.725 106.217L134.294 109.145C134.268 109.309 134.143 109.467 133.919 109.621C133.704 109.773 133.49 109.864 133.277 109.893C133.157 109.91 133.061 109.899 132.99 109.862C132.928 109.814 132.899 109.738 132.904 109.634C132.926 109.301 132.919 109.005 132.885 108.746C132.815 108.218 132.657 107.948 132.411 107.935C132.305 107.921 132.184 108.037 132.047 108.282C131.918 108.517 131.773 108.805 131.611 109.148C131.043 110.263 130.655 111.531 130.448 112.954C130.381 113.444 130.335 113.879 130.311 114.259C130.286 114.64 130.297 115.01 130.345 115.371C130.394 115.741 130.483 116.063 130.614 116.337C130.746 116.621 130.933 116.863 131.176 117.065C131.418 117.258 131.678 117.335 131.955 117.297C132.224 117.26 132.47 117.132 132.695 116.912C132.92 116.693 133.152 116.411 133.388 116.068L133.287 115.94C133.253 115.898 133.234 115.858 133.229 115.821C133.21 115.682 133.304 115.538 133.51 115.387C133.715 115.227 133.928 115.131 134.15 115.101C134.363 115.071 134.524 115.115 134.633 115.232L134.851 115.484C134.862 115.502 134.871 115.529 134.875 115.566C134.882 115.612 134.874 115.665 134.854 115.724C134.832 115.774 134.81 115.82 134.787 115.861C134.426 116.476 133.958 117.03 133.384 117.524C132.818 118.017 132.23 118.305 131.62 118.389C131.148 118.454 130.695 118.375 130.261 118.153C129.512 117.757 129.067 117.027 128.926 115.963C128.839 115.306 128.872 114.448 129.023 113.391C129.187 112.21 129.471 111.082 129.875 110.009C130.278 108.927 130.83 108.083 131.531 107.477C131.927 107.13 132.329 106.929 132.736 106.873C132.921 106.847 133.111 106.863 133.307 106.921L133.337 106.719ZM140.743 108.171C140.897 108.196 140.979 108.284 140.99 108.433C141.059 110.949 141.022 113.587 140.88 116.349C140.866 116.529 140.756 116.695 140.55 116.846C140.344 116.997 140.13 117.088 139.908 117.119C139.77 117.138 139.655 117.125 139.565 117.081C139.473 117.028 139.433 116.944 139.446 116.829C139.541 115.836 139.595 114.825 139.61 113.796C139.624 112.767 139.614 111.591 139.58 110.267C138.915 111.075 138.259 111.948 137.611 112.885L137.407 117.209C137.393 117.39 137.279 117.561 137.065 117.723C136.851 117.884 136.629 117.981 136.397 118.013C136.259 118.032 136.149 118.019 136.067 117.973C135.985 117.919 135.945 117.83 135.947 117.707L136.122 113.797C136.007 113.784 135.943 113.727 135.93 113.626C135.92 113.552 135.949 113.453 136.018 113.331L136.155 113.086L136.504 106.127C136.51 105.956 136.62 105.795 136.836 105.643C137.051 105.491 137.269 105.399 137.491 105.369C137.621 105.351 137.726 105.365 137.807 105.41C137.889 105.455 137.927 105.53 137.922 105.634L137.699 110.781C138.293 110.002 138.969 109.244 139.729 108.508C139.972 108.286 140.21 108.159 140.441 108.128C140.552 108.112 140.653 108.127 140.743 108.171ZM144.037 105.413C143.932 105.399 143.828 105.399 143.727 105.413C143.523 105.441 143.35 105.517 143.206 105.64C143.017 105.779 142.916 105.906 142.903 106.021C142.841 106.473 142.8 106.77 142.781 106.914L142.787 106.956C142.793 107.002 142.818 107.046 142.861 107.087C142.903 107.119 142.948 107.141 142.997 107.153C143.076 107.18 143.161 107.187 143.254 107.174C143.402 107.154 143.572 107.088 143.764 106.977C143.965 106.855 144.087 106.711 144.131 106.544C144.165 106.38 144.207 106.091 144.256 105.679L144.252 105.651C144.246 105.605 144.222 105.561 144.179 105.52C144.134 105.47 144.087 105.434 144.037 105.413ZM144.233 111.053C144.227 111.43 144.209 112.116 144.181 113.109C144.16 114.092 144.151 114.983 144.154 115.784C144.149 115.964 144.044 116.133 143.84 116.294C143.643 116.443 143.434 116.533 143.212 116.564C143.064 116.584 142.945 116.572 142.854 116.528C142.771 116.474 142.731 116.385 142.734 116.262C142.769 115.315 142.795 114.238 142.814 113.029C142.841 111.81 142.858 110.941 142.865 110.422L142.904 108.48C142.91 108.31 143.016 108.149 143.222 107.998C143.437 107.846 143.651 107.755 143.863 107.726C143.993 107.708 144.098 107.722 144.179 107.767C144.261 107.813 144.299 107.887 144.294 107.992L144.233 111.053ZM149.518 106.437C149.547 106.301 149.653 106.174 149.835 106.054C150.015 105.926 150.203 105.848 150.397 105.821C150.674 105.783 150.826 105.861 150.852 106.055C150.855 106.083 150.853 106.135 150.844 106.212C150.626 107.618 150.411 108.698 150.2 109.452C150.163 109.599 150.049 109.737 149.859 109.867C149.678 109.986 149.489 110.059 149.295 110.086C149.064 110.118 148.92 110.058 148.862 109.905C148.597 109.188 148.29 108.854 147.938 108.902C147.772 108.925 147.599 109.039 147.418 109.242C147.029 109.711 146.75 110.31 146.583 111.039C146.425 111.768 146.388 112.447 146.471 113.076C146.533 113.538 146.666 113.944 146.873 114.292C147.078 114.632 147.371 114.822 147.753 114.863C147.811 114.874 147.9 114.871 148.02 114.855C148.325 114.813 148.611 114.66 148.878 114.397C149.152 114.124 149.371 113.854 149.533 113.586C149.694 113.31 149.899 112.937 150.148 112.47C150.208 112.358 150.313 112.263 150.463 112.186C150.612 112.099 150.765 112.045 150.922 112.024C151.07 112.003 151.189 112.015 151.279 112.059C151.378 112.093 151.434 112.16 151.448 112.262C151.46 112.355 151.44 112.456 151.389 112.567C151.001 113.403 150.493 114.151 149.865 114.812C149.235 115.464 148.533 115.844 147.756 115.951C147.599 115.973 147.44 115.981 147.279 115.975C146.646 115.958 146.144 115.721 145.773 115.264C145.4 114.797 145.17 114.23 145.082 113.564C145.05 113.324 145.038 113.061 145.048 112.777C145.078 111.869 145.264 111 145.607 110.171C145.948 109.332 146.455 108.683 147.128 108.223C147.465 107.997 147.814 107.859 148.175 107.81C148.517 107.762 148.844 107.812 149.155 107.957L149.518 106.437ZM157.412 108.344C157.764 108.512 157.973 108.842 158.038 109.332C158.078 109.637 158.066 110.007 158.001 110.44L157.938 110.929C157.866 111.447 157.795 111.98 157.726 112.527C157.667 113.072 157.625 113.577 157.602 114.042C157.596 114.212 157.49 114.373 157.284 114.524C157.088 114.673 156.878 114.763 156.657 114.794C156.518 114.813 156.408 114.8 156.327 114.755C156.245 114.709 156.206 114.63 156.21 114.516C156.244 113.918 156.342 113.024 156.505 111.833L156.657 110.639C156.701 110.256 156.711 109.981 156.689 109.815C156.672 109.685 156.636 109.587 156.579 109.519C156.446 109.368 156.255 109.309 156.006 109.344C155.793 109.373 155.528 109.471 155.211 109.637C154.82 109.814 154.334 110.121 153.752 110.559L153.969 114.119C153.983 114.296 153.883 114.465 153.669 114.627C153.464 114.787 153.246 114.883 153.015 114.915C152.867 114.935 152.748 114.923 152.657 114.879C152.575 114.825 152.53 114.737 152.523 114.615C152.46 113.286 152.408 112.29 152.368 111.626C152.228 111.636 152.109 111.624 152.01 111.591C151.911 111.557 151.857 111.499 151.846 111.416C151.83 111.296 151.886 111.156 152.016 110.997C152.091 110.92 152.192 110.798 152.32 110.63C152.196 108.197 152.068 105.987 151.937 103.998C151.924 103.83 152.02 103.671 152.226 103.52C152.44 103.358 152.658 103.262 152.88 103.232C153.019 103.213 153.129 103.226 153.21 103.271C153.301 103.315 153.349 103.393 153.354 103.506C153.446 105.339 153.549 107.177 153.66 109.017C154.594 107.89 155.508 106.864 156.402 105.94C156.477 105.864 156.572 105.803 156.689 105.759C156.813 105.704 156.936 105.668 157.056 105.652C157.195 105.633 157.309 105.64 157.398 105.675C157.495 105.699 157.55 105.753 157.561 105.837C157.575 105.948 157.517 106.073 157.385 106.214L156.175 107.639L155.394 108.566C155.839 108.373 156.21 108.256 156.506 108.215C156.857 108.166 157.159 108.21 157.412 108.344ZM162.614 106.242C162.191 106.668 161.884 107.303 161.695 108.149C162.555 107.682 163.336 107.282 164.036 106.95C163.674 106.567 163.326 106.322 162.992 106.218C162.924 106.199 162.857 106.189 162.791 106.189C162.734 106.187 162.701 106.187 162.692 106.189C162.702 106.197 162.694 106.207 162.668 106.22C162.651 106.232 162.633 106.239 162.614 106.242ZM162.539 105.249C162.682 105.191 162.837 105.151 163.003 105.128C163.891 105.006 164.774 105.491 165.654 106.586C165.686 106.619 165.706 106.663 165.714 106.719C165.727 106.82 165.677 106.936 165.562 107.065C165.475 107.19 165.357 107.295 165.208 107.382C164.338 107.917 163.117 108.58 161.546 109.371C161.516 109.856 161.534 110.348 161.6 110.847C161.631 111.079 161.657 111.245 161.68 111.345C161.754 111.759 161.885 112.108 162.073 112.393C162.133 112.489 162.21 112.577 162.306 112.658C162.411 112.738 162.488 112.788 162.538 112.81C162.568 112.824 162.615 112.827 162.68 112.818C162.745 112.809 162.816 112.781 162.895 112.732C162.982 112.682 163.077 112.617 163.18 112.537C163.427 112.343 163.653 112.128 163.857 111.893C164.061 111.657 164.303 111.355 164.584 110.987C164.696 110.84 164.905 110.745 165.21 110.703C165.377 110.68 165.519 110.688 165.637 110.729C165.764 110.758 165.833 110.819 165.845 110.912C165.856 110.995 165.822 111.094 165.743 111.209C165.252 111.908 164.735 112.516 164.191 113.034C163.648 113.552 163.076 113.852 162.475 113.935C162.188 113.974 161.912 113.951 161.647 113.865C161.205 113.728 160.863 113.46 160.622 113.06C160.381 112.66 160.222 112.173 160.146 111.599C160.09 111.174 160.079 110.666 160.114 110.077L160.007 110.12L159.901 110.177C159.769 110.243 159.661 110.281 159.578 110.293C159.448 110.31 159.342 110.292 159.26 110.238C159.177 110.183 159.129 110.105 159.116 110.003C159.1 109.883 159.131 109.761 159.209 109.637C159.294 109.503 159.429 109.385 159.614 109.284L160.258 108.927C160.307 108.656 160.387 108.301 160.499 107.862C160.682 107.253 160.94 106.713 161.273 106.243C161.606 105.773 162.028 105.442 162.539 105.249ZM171.222 104.037C171.619 104.189 171.861 104.594 171.948 105.251C171.98 105.491 171.992 105.763 171.985 106.065C171.977 106.359 171.962 106.639 171.941 106.905L171.918 107.474L171.907 111.871C172.098 111.891 172.192 111.996 172.188 112.185C172.154 112.708 171.836 113.081 171.235 113.306L171.098 113.339C170.941 113.36 170.798 113.347 170.669 113.299C170.541 113.251 170.476 113.156 170.477 113.015C170.492 110.148 170.5 107.999 170.498 106.567C170.503 106.529 170.507 106.42 170.512 106.24C170.525 106.06 170.522 105.89 170.501 105.733C170.462 105.437 170.363 105.295 170.205 105.308C170.082 105.306 169.905 105.5 169.674 105.89C169.452 106.269 169.329 106.479 169.306 106.52C168.834 107.226 168.41 108 168.032 108.844C167.989 110.225 167.958 111.341 167.939 112.192L167.928 112.646C167.924 112.825 167.814 112.996 167.6 113.157C167.386 113.318 167.168 113.415 166.947 113.445C166.808 113.464 166.693 113.452 166.603 113.408C166.52 113.353 166.48 113.265 166.483 113.142C166.536 111.693 166.572 110.51 166.592 109.594C166.529 109.546 166.493 109.485 166.483 109.411C166.477 109.364 166.484 109.312 166.504 109.252C166.526 109.202 166.544 109.157 166.557 109.118C166.58 109.077 166.599 109.041 166.614 109.011L166.724 105.576C166.729 105.405 166.835 105.245 167.041 105.094C167.247 104.943 167.461 104.852 167.683 104.822C167.822 104.803 167.932 104.816 168.013 104.861C168.094 104.906 168.133 104.986 168.129 105.099C168.123 105.411 168.111 105.813 168.091 106.306L168.591 105.601C168.928 105.159 169.256 104.788 169.574 104.49C169.892 104.192 170.231 104.018 170.592 103.968C170.823 103.936 171.033 103.959 171.222 104.037ZM138.102 126.392C138.307 126.373 138.417 126.424 138.433 126.544C138.452 126.683 138.361 126.856 138.163 127.062C137.972 127.258 137.794 127.368 137.627 127.39C136.832 127.5 135.952 127.645 134.988 127.825C134.619 131.089 134.461 134.088 134.512 136.822C134.643 136.814 134.754 136.832 134.844 136.876C134.943 136.909 134.998 136.968 135.009 137.051C135.023 137.162 134.956 137.294 134.807 137.446L134.321 137.937C134.265 138.011 134.148 138.088 133.971 138.169C133.802 138.249 133.639 138.3 133.482 138.321C133.196 138.361 133.051 138.263 133.048 138.028C132.969 134.939 133.136 131.656 133.552 128.179L133.53 128.125C132.489 128.363 131.517 128.601 130.617 128.838C130.481 128.876 130.367 128.873 130.277 128.828C130.185 128.775 130.135 128.683 130.127 128.552C130.119 128.422 130.184 128.304 130.321 128.201C130.467 128.096 130.625 128.008 130.794 127.937C131.647 127.556 132.613 127.244 133.692 127.001L133.744 126.753C133.764 126.619 133.879 126.49 134.088 126.367C134.297 126.234 134.507 126.153 134.72 126.124C134.859 126.105 134.969 126.118 135.05 126.163C135.141 126.207 135.179 126.282 135.164 126.388L135.123 126.718L135.773 126.615C136.448 126.521 137.225 126.447 138.102 126.392ZM139.913 129.562C139.489 129.988 139.183 130.624 138.993 131.47C139.854 131.003 140.634 130.603 141.334 130.271C140.973 129.887 140.625 129.643 140.291 129.539C140.223 129.52 140.155 129.51 140.09 129.51C140.033 129.508 140 129.508 139.991 129.509C140.001 129.517 139.993 129.528 139.967 129.541C139.949 129.553 139.931 129.56 139.913 129.562ZM139.838 128.569C139.981 128.512 140.136 128.472 140.302 128.449C141.19 128.326 142.073 128.812 142.952 129.906C142.985 129.94 143.005 129.984 143.012 130.039C143.026 130.141 142.975 130.256 142.86 130.385C142.773 130.51 142.656 130.616 142.507 130.703C141.636 131.237 140.415 131.9 138.844 132.692C138.814 133.176 138.833 133.669 138.899 134.168C138.929 134.4 138.956 134.565 138.979 134.666C139.052 135.08 139.183 135.429 139.372 135.714C139.431 135.809 139.509 135.898 139.604 135.979C139.709 136.058 139.786 136.109 139.836 136.13C139.867 136.145 139.914 136.148 139.979 136.139C140.043 136.13 140.115 136.101 140.193 136.053C140.281 136.003 140.376 135.938 140.478 135.858C140.725 135.664 140.951 135.449 141.155 135.214C141.36 134.978 141.602 134.676 141.883 134.308C141.995 134.16 142.204 134.066 142.509 134.023C142.675 134.001 142.818 134.009 142.936 134.049C143.062 134.079 143.132 134.14 143.144 134.233C143.155 134.316 143.121 134.415 143.042 134.529C142.551 135.228 142.033 135.837 141.49 136.355C140.947 136.872 140.374 137.173 139.774 137.256C139.487 137.295 139.211 137.272 138.945 137.186C138.503 137.049 138.162 136.781 137.921 136.381C137.679 135.98 137.521 135.494 137.445 134.92C137.388 134.494 137.378 133.987 137.413 133.398L137.306 133.441L137.2 133.498C137.068 133.563 136.96 133.602 136.876 133.613C136.747 133.631 136.641 133.613 136.558 133.558C136.476 133.504 136.428 133.426 136.414 133.324C136.398 133.204 136.429 133.081 136.507 132.958C136.593 132.823 136.728 132.706 136.912 132.605L137.557 132.248C137.606 131.977 137.686 131.622 137.797 131.183C137.98 130.573 138.238 130.034 138.572 129.564C138.905 129.094 139.327 128.762 139.838 128.569ZM148.521 127.357C148.918 127.51 149.16 127.915 149.247 128.572C149.279 128.812 149.291 129.084 149.284 129.386C149.276 129.679 149.261 129.959 149.24 130.226L149.216 130.795L149.205 135.191C149.396 135.212 149.49 135.317 149.487 135.506C149.453 136.029 149.135 136.402 148.534 136.626L148.397 136.66C148.24 136.681 148.097 136.668 147.968 136.62C147.839 136.572 147.775 136.477 147.775 136.335C147.791 133.469 147.798 131.32 147.797 129.888C147.801 129.85 147.806 129.741 147.81 129.561C147.824 129.38 147.82 129.211 147.8 129.054C147.76 128.758 147.662 128.616 147.503 128.628C147.381 128.627 147.204 128.82 146.973 129.21C146.75 129.59 146.627 129.8 146.605 129.841C146.133 130.546 145.708 131.321 145.331 132.164C145.288 133.546 145.256 134.662 145.237 135.513L145.227 135.966C145.222 136.146 145.113 136.316 144.899 136.478C144.685 136.639 144.467 136.735 144.245 136.766C144.106 136.785 143.992 136.773 143.901 136.729C143.819 136.674 143.779 136.585 143.781 136.462C143.834 135.014 143.871 133.831 143.891 132.914C143.828 132.866 143.791 132.805 143.782 132.731C143.775 132.685 143.783 132.632 143.803 132.573C143.825 132.523 143.842 132.478 143.856 132.439C143.879 132.398 143.897 132.362 143.912 132.332L144.022 128.897C144.028 128.726 144.134 128.566 144.34 128.415C144.546 128.264 144.76 128.173 144.982 128.142C145.12 128.123 145.23 128.136 145.312 128.182C145.393 128.227 145.432 128.307 145.428 128.42C145.422 128.732 145.409 129.134 145.39 129.627L145.89 128.922C146.227 128.48 146.554 128.109 146.872 127.811C147.191 127.513 147.53 127.339 147.891 127.289C148.122 127.257 148.332 127.28 148.521 127.357ZM152.073 134.273C152.267 134.387 152.502 134.426 152.78 134.387C153.103 134.343 153.501 134.179 153.972 133.898C154.041 132.145 154.049 130.429 153.996 128.75L153.969 128.754C153.469 128.823 153.034 129.057 152.664 129.457C152.293 129.857 152.003 130.33 151.793 130.877C151.592 131.423 151.474 131.953 151.438 132.467C151.423 132.704 151.429 132.934 151.459 133.156C151.531 133.702 151.736 134.074 152.073 134.273ZM153.747 124.305C153.734 124.137 153.831 123.978 154.036 123.827C154.241 123.666 154.459 123.57 154.69 123.539C154.977 123.499 155.13 123.586 155.149 123.8C155.396 126.875 155.48 130.072 155.402 133.39C155.559 133.443 155.646 133.53 155.662 133.651C155.68 133.789 155.587 133.939 155.382 134.099L155.367 134.624C155.354 134.805 155.24 134.976 155.026 135.137C154.82 135.288 154.606 135.379 154.384 135.41C154.245 135.429 154.131 135.416 154.04 135.372C153.948 135.319 153.908 135.23 153.92 135.106C153.914 135.06 153.914 135.027 153.921 135.007C153.354 135.274 152.876 135.434 152.488 135.488C152.062 135.546 151.666 135.507 151.3 135.369C150.935 135.24 150.651 135.02 150.45 134.709C150.249 134.397 150.12 134.033 150.065 133.617C150.046 133.469 150.037 133.263 150.04 132.999C150.07 132.231 150.252 131.471 150.585 130.719C150.919 129.966 151.38 129.323 151.968 128.79C152.556 128.256 153.223 127.924 153.969 127.793C153.912 126.51 153.838 125.347 153.747 124.305ZM157.849 123.696C157.744 123.683 157.64 123.683 157.539 123.697C157.335 123.725 157.162 123.801 157.018 123.924C156.829 124.063 156.729 124.19 156.715 124.305C156.653 124.756 156.612 125.054 156.594 125.198L156.599 125.24C156.605 125.286 156.63 125.33 156.673 125.371C156.715 125.403 156.76 125.425 156.809 125.437C156.888 125.464 156.973 125.471 157.066 125.458C157.214 125.438 157.384 125.372 157.576 125.26C157.777 125.138 157.899 124.994 157.943 124.828C157.977 124.663 158.019 124.375 158.068 123.963L158.065 123.935C158.058 123.889 158.034 123.845 157.991 123.804C157.946 123.754 157.899 123.718 157.849 123.696ZM158.045 129.336C158.039 129.714 158.021 130.4 157.993 131.393C157.972 132.376 157.963 133.267 157.966 134.068C157.961 134.247 157.857 134.417 157.652 134.577C157.455 134.727 157.246 134.817 157.024 134.848C156.876 134.868 156.757 134.856 156.666 134.812C156.584 134.758 156.544 134.669 156.546 134.546C156.581 133.599 156.608 132.521 156.627 131.313C156.653 130.094 156.67 129.225 156.677 128.706L156.716 126.764C156.722 126.594 156.828 126.433 157.034 126.282C157.249 126.13 157.463 126.039 157.676 126.01C157.805 125.992 157.91 126.006 157.992 126.051C158.073 126.096 158.111 126.171 158.106 126.275L158.045 129.336ZM162.504 126.446C162.08 126.872 161.773 127.508 161.584 128.354C162.445 127.886 163.225 127.487 163.925 127.154C163.563 126.771 163.216 126.527 162.882 126.422C162.813 126.403 162.746 126.394 162.68 126.393C162.624 126.392 162.591 126.392 162.581 126.393C162.592 126.401 162.584 126.411 162.557 126.425C162.54 126.436 162.522 126.444 162.504 126.446ZM162.429 125.453C162.572 125.396 162.726 125.355 162.893 125.332C163.78 125.21 164.664 125.696 165.543 126.79C165.576 126.823 165.596 126.867 165.603 126.923C165.617 127.025 165.566 127.14 165.451 127.269C165.364 127.394 165.246 127.5 165.098 127.586C164.227 128.121 163.006 128.784 161.435 129.575C161.405 130.06 161.423 130.552 161.489 131.052C161.52 131.283 161.547 131.449 161.569 131.55C161.643 131.963 161.774 132.313 161.962 132.598C162.022 132.693 162.1 132.781 162.195 132.862C162.3 132.942 162.377 132.993 162.427 133.014C162.457 133.029 162.505 133.032 162.569 133.023C162.634 133.014 162.706 132.985 162.784 132.937C162.872 132.887 162.967 132.822 163.069 132.742C163.316 132.547 163.542 132.333 163.746 132.097C163.95 131.862 164.193 131.56 164.474 131.191C164.586 131.044 164.795 130.949 165.1 130.907C165.266 130.884 165.408 130.893 165.527 130.933C165.653 130.963 165.722 131.024 165.735 131.116C165.746 131.2 165.712 131.298 165.633 131.413C165.141 132.112 164.624 132.72 164.081 133.238C163.537 133.756 162.965 134.056 162.364 134.139C162.078 134.179 161.802 134.156 161.536 134.07C161.094 133.933 160.753 133.664 160.511 133.264C160.27 132.864 160.112 132.377 160.036 131.804C159.979 131.378 159.969 130.871 160.004 130.282L159.896 130.325L159.791 130.382C159.658 130.447 159.55 130.485 159.467 130.497C159.338 130.515 159.232 130.496 159.149 130.442C159.067 130.387 159.019 130.309 159.005 130.207C158.989 130.087 159.02 129.965 159.098 129.841C159.184 129.707 159.319 129.589 159.503 129.489L160.148 129.131C160.197 128.861 160.277 128.506 160.388 128.066C160.571 127.457 160.829 126.917 161.162 126.447C161.495 125.977 161.918 125.646 162.429 125.453ZM167.869 126.625C167.915 126.976 168.044 127.274 168.255 127.518C168.476 127.761 168.728 127.957 169.011 128.106C169.294 128.256 169.675 128.425 170.151 128.613C170.798 128.873 171.296 129.119 171.648 129.354C172.008 129.587 172.267 129.904 172.423 130.307C172.485 130.487 172.521 130.618 172.532 130.701C172.618 131.349 172.338 131.864 171.691 132.245C171.044 132.617 170.286 132.863 169.417 132.983C169.075 133.03 168.771 133.048 168.506 133.038C168.194 133.024 167.86 132.962 167.507 132.85C167.161 132.728 166.862 132.567 166.61 132.366C166.365 132.155 166.226 131.925 166.193 131.675C166.142 131.286 166.395 130.889 166.953 130.482C167.109 130.376 167.265 130.312 167.422 130.29C167.57 130.27 167.694 130.285 167.795 130.337C167.906 130.388 167.967 130.46 167.979 130.552C168.001 130.719 167.889 130.899 167.641 131.093C167.59 131.129 167.567 131.174 167.575 131.23C167.589 131.341 167.695 131.463 167.891 131.596C168.088 131.729 168.241 131.816 168.35 131.858C168.648 131.977 169.105 132.013 169.72 131.966C169.795 131.965 169.925 131.951 170.11 131.926C170.443 131.88 170.704 131.788 170.892 131.648C171.081 131.509 171.142 131.294 171.075 131.001C170.985 130.609 170.524 130.215 169.69 129.822L169.119 129.561C168.599 129.331 168.167 129.127 167.823 128.949C167.488 128.759 167.188 128.523 166.924 128.239C166.66 127.945 166.501 127.6 166.448 127.202C166.415 126.952 166.428 126.696 166.488 126.433C166.611 125.804 166.929 125.289 167.441 124.889C167.952 124.479 168.526 124.23 169.164 124.142C169.821 124.052 170.393 124.142 170.881 124.414C171.378 124.685 171.667 125.125 171.748 125.736C171.773 125.93 171.773 126.142 171.747 126.372C171.732 126.544 171.612 126.706 171.388 126.86C171.164 127.013 170.945 127.105 170.732 127.134C170.603 127.152 170.497 127.138 170.416 127.093C170.344 127.046 170.32 126.969 170.343 126.863C170.373 126.661 170.375 126.463 170.349 126.268C170.309 125.963 170.196 125.715 170.011 125.524C169.825 125.332 169.575 125.216 169.258 125.175C169.087 125.161 168.96 125.16 168.877 125.171C168.544 125.217 168.278 125.376 168.078 125.649C167.887 125.911 167.817 126.236 167.869 126.625Z" fill="white"/>
<path d="M2 10.1205L10.4263 17.6164L134.012 10.1205L139.028 2" stroke="black" stroke-width="2.75"/>
<path d="M250.057 152.733L224.086 138.222V111.654L219.657 109.201L218.852 108.384L219.657 107.566L270.794 91.625H271.801L302 105.727V106.953V108.384L298.778 109.814L296.966 136.791L250.057 152.733Z" fill="url(#paint0_linear_4307_120283)" stroke="black" stroke-width="2.75"/>
<path d="M271.486 94.3438L223.508 108.329L249.696 121.503L298.674 106.707L271.486 94.3438Z" fill="#61130D" stroke="black" stroke-width="2.75"/>
<path d="M224.172 111.761L244.855 122.002L249.273 123.979L251.482 124.212L253.691 123.609L298.673 109.953" stroke="black" stroke-width="2.75"/>
<path d="M250.117 152.736L250.782 124.219" stroke="black" stroke-width="2.75"/>
<path d="M234.269 107.92C234.909 105.891 238.404 105.948 240.072 106.229C240.739 106.441 242.394 106.398 243.674 104.539C245.275 102.215 247.876 103.271 247.676 104.539C247.476 105.807 251.878 105.595 256.279 104.539C260.681 103.483 258.68 104.75 262.882 106.229C267.084 107.709 266.484 105.384 267.284 107.92C268.084 110.455 264.883 110.033 261.081 108.554C257.28 107.074 255.879 110.033 251.878 110.878C247.876 111.723 251.477 112.568 251.077 115.103C250.677 117.639 247.476 114.258 244.475 115.103C241.473 115.949 239.272 113.413 240.673 112.568C242.074 111.723 238.871 109.399 237.871 110.033C236.87 110.666 233.469 110.455 234.269 107.92Z" fill="url(#paint1_linear_4307_120283)" stroke="black" stroke-width="2.75"/>
<path d="M267.324 97.8696L254.773 100.973C258.16 99.6802 265.73 96.8997 268.918 96.1238C272.105 95.3478 273.301 95.8004 273.5 96.1238L294.019 105.201C289.172 103.261 278.122 99.8483 275.094 98.4516C272.066 97.0548 268.652 97.4816 267.324 97.8696Z" fill="#881F15" stroke="black" stroke-width="2.75"/>
<defs>
<linearGradient id="paint0_linear_4307_120283" x1="260.426" y1="91.625" x2="260.426" y2="153.141" gradientUnits="userSpaceOnUse">
<stop offset="0.484375" stop-color="#FDFCFC"/>
<stop offset="0.729167" stop-color="#F3ECEC"/>
</linearGradient>
<linearGradient id="paint1_linear_4307_120283" x1="250.778" y1="103.164" x2="250.778" y2="116.065" gradientUnits="userSpaceOnUse">
<stop stop-color="#912117"/>
<stop offset="0.723958" stop-color="#912117" stop-opacity="0"/>
</linearGradient>
</defs>
</svg>
