<svg width="400" height="801" viewBox="0 0 400 801" fill="none" xmlns="http://www.w3.org/2000/svg">
<path d="M236.001 791.178L235.38 792.514C232.438 795.205 223.829 797.357 209.553 798.97C195.179 800.582 178.252 801.236 158.773 800.931C140.183 800.505 125.315 799.259 114.169 797.193C110.597 796.525 107.656 795.797 105.344 795.009L102.429 793.795C100.828 792.959 100.018 792.087 100 791.178C100.486 788.39 107.125 786.07 119.917 784.219C132.709 782.367 148.736 781.406 168 781.336C187.264 781.406 203.292 782.367 216.084 784.219C228.876 786.07 235.515 788.39 236.001 791.178Z" fill="black" fill-opacity="0.6"/>
<path d="M156.797 356.812L170.412 356.813L184.027 356.814C184.027 499.492 184.027 642.17 184.027 784.848C174.95 784.848 165.874 784.849 156.797 784.849C156.797 642.17 156.797 499.491 156.797 356.812Z" fill="black"/>
<path d="M132.188 661.023L170.412 661.024L208.637 661.025C208.637 703.01 208.637 744.995 208.637 786.98C183.154 786.981 157.671 786.981 132.188 786.982C132.188 744.996 132.188 703.01 132.188 661.023Z" fill="black"/>
<path d="M120.344 699.055L170.419 699.055L220.495 699.055C220.495 728.933 220.495 758.811 220.495 788.689C187.111 788.689 153.727 788.689 120.344 788.689C120.344 758.811 120.344 728.933 120.344 699.055Z" fill="black"/>
<path d="M163.875 8.72656L170.404 8.72716L176.932 8.72774V398.787C172.58 398.787 168.227 398.787 163.875 398.788C163.875 268.767 163.875 138.747 163.875 8.72656Z" fill="black"/>
<path d="M197.305 18.9399L327.889 18.1953L341.57 42.189L328.233 66.5546L197.649 67.3001L210.986 43.0183C210.986 43.0187 197.305 18.9399 197.305 18.9399Z" fill="white"/>
<path d="M155.922 35.8906L194.376 35.8909L232.831 35.8912C232.831 40.8955 232.831 45.8999 232.831 50.9043C207.194 50.9044 181.558 50.9046 155.922 50.9048C155.922 45.9 155.922 40.8953 155.922 35.8906Z" fill="white"/>
<path d="M161.172 34.6016L171.209 34.6017L181.246 34.6018C181.246 40.9687 181.246 47.3357 181.246 53.7026C174.555 53.7027 167.863 53.7028 161.172 53.7028C161.172 47.3357 161.172 40.9686 161.172 34.6016Z" fill="white"/>
<path d="M144.265 75.1195L13.6803 74.375L0 98.3687L13.3362 122.734L143.921 123.48L130.584 99.198C130.584 99.1984 144.265 75.1195 144.265 75.1195Z" fill="white"/>
<path d="M185.635 92.0781L147.181 92.0784L108.727 92.0787C108.727 97.0831 108.727 102.087 108.727 107.092C134.363 107.092 159.999 107.092 185.635 107.092C185.635 102.088 185.635 97.0828 185.635 92.0781Z" fill="white"/>
<path d="M180.403 90.7969L170.365 90.797L160.328 90.7971C160.328 97.1641 160.328 103.531 160.328 109.898C167.02 109.898 173.711 109.898 180.403 109.898C180.403 103.531 180.403 97.164 180.403 90.7969Z" fill="white"/>
<path d="M196.984 143.557L327.569 142.812L341.249 166.806L327.913 191.172L197.329 191.917L210.665 167.635C210.665 167.636 196.984 143.557 196.984 143.557Z" fill="white"/>
<path d="M155.602 160.5L194.056 160.5L232.51 160.501C232.51 165.505 232.51 170.509 232.51 175.514C206.874 175.514 181.238 175.514 155.602 175.514C155.602 170.509 155.602 165.505 155.602 160.5Z" fill="white"/>
<path d="M160.852 159.227L170.889 159.227L180.926 159.227C180.926 165.594 180.926 171.961 180.926 178.328C174.234 178.328 167.543 178.328 160.852 178.328C160.852 171.961 160.852 165.594 160.852 159.227Z" fill="white"/>
<path d="M144.796 205.104L14.2116 204.359L0.53125 228.353L13.8674 252.719L144.452 253.464L131.115 229.182C131.115 229.183 144.796 205.104 144.796 205.104Z" fill="white"/>
<path d="M186.174 222.062L147.72 222.063L109.266 222.063C109.266 227.067 109.266 232.072 109.266 237.076C134.902 237.076 160.538 237.076 186.174 237.077C186.174 232.072 186.174 227.067 186.174 222.062Z" fill="white"/>
<path d="M180.934 220.773L170.897 220.774L160.859 220.774C160.859 227.141 160.859 233.508 160.859 239.874C167.551 239.875 174.242 239.875 180.934 239.875C180.934 233.508 180.934 227.141 180.934 220.773Z" fill="white"/>
<path d="M222.25 149.628H231.1V177.128H246.3V184.578H222.25V149.628ZM264.855 185.328C261.321 185.328 258.121 184.561 255.255 183.028C252.421 181.495 250.171 179.361 248.505 176.628C246.871 173.861 246.055 170.695 246.055 167.128C246.055 163.561 246.871 160.395 248.505 157.628C250.171 154.861 252.421 152.711 255.255 151.178C258.121 149.645 261.321 148.878 264.855 148.878C268.355 148.878 271.521 149.645 274.355 151.178C277.221 152.711 279.471 154.861 281.105 157.628C282.738 160.395 283.555 163.561 283.555 167.128C283.555 170.695 282.738 173.861 281.105 176.628C279.471 179.361 277.221 181.495 274.355 183.028C271.521 184.561 268.355 185.328 264.855 185.328ZM264.855 177.028C266.621 177.028 268.238 176.628 269.705 175.828C271.171 175.028 272.338 173.878 273.205 172.378C274.071 170.878 274.505 169.128 274.505 167.128C274.505 165.128 274.071 163.395 273.205 161.928C272.371 160.428 271.221 159.278 269.755 158.478C268.288 157.645 266.655 157.228 264.855 157.228C263.021 157.228 261.371 157.645 259.905 158.478C258.438 159.278 257.271 160.428 256.405 161.928C255.571 163.395 255.155 165.128 255.155 167.128C255.155 169.128 255.571 170.878 256.405 172.378C257.271 173.878 258.438 175.028 259.905 175.828C261.405 176.628 263.055 177.028 264.855 177.028ZM296.675 185.328C294.475 185.328 292.292 185.111 290.125 184.678C287.959 184.278 286.175 183.711 284.775 182.978V175.028C286.575 175.961 288.442 176.661 290.375 177.128C292.342 177.595 294.209 177.828 295.975 177.828C297.609 177.828 298.842 177.578 299.675 177.078C300.509 176.578 300.925 175.861 300.925 174.928C300.925 174.228 300.692 173.628 300.225 173.128C299.792 172.595 299.142 172.111 298.275 171.678C297.409 171.245 296.059 170.645 294.225 169.878C290.992 168.511 288.642 166.995 287.175 165.328C285.709 163.661 284.975 161.611 284.975 159.178C284.975 157.178 285.525 155.395 286.625 153.828C287.759 152.261 289.325 151.045 291.325 150.178C293.325 149.311 295.625 148.878 298.225 148.878C300.359 148.878 302.259 149.045 303.925 149.378C305.592 149.711 307.192 150.245 308.725 150.978V158.728C305.792 157.195 302.842 156.428 299.875 156.428C298.275 156.428 296.992 156.695 296.025 157.228C295.092 157.728 294.625 158.461 294.625 159.428C294.625 160.395 295.109 161.178 296.075 161.778C297.042 162.378 298.825 163.195 301.425 164.228C303.792 165.195 305.625 166.145 306.925 167.078C308.259 168.011 309.225 169.095 309.825 170.328C310.425 171.561 310.725 173.128 310.725 175.028C310.725 178.261 309.542 180.795 307.175 182.628C304.842 184.428 301.342 185.328 296.675 185.328ZM323.873 185.328C321.673 185.328 319.489 185.111 317.323 184.678C315.156 184.278 313.373 183.711 311.973 182.978V175.028C313.773 175.961 315.639 176.661 317.573 177.128C319.539 177.595 321.406 177.828 323.173 177.828C324.806 177.828 326.039 177.578 326.873 177.078C327.706 176.578 328.123 175.861 328.123 174.928C328.123 174.228 327.889 173.628 327.423 173.128C326.989 172.595 326.339 172.111 325.473 171.678C324.606 171.245 323.256 170.645 321.423 169.878C318.189 168.511 315.839 166.995 314.373 165.328C312.906 163.661 312.173 161.611 312.173 159.178C312.173 157.178 312.723 155.395 313.823 153.828C314.956 152.261 316.523 151.045 318.523 150.178C320.523 149.311 322.823 148.878 325.423 148.878C327.556 148.878 329.456 149.045 331.123 149.378C332.789 149.711 334.389 150.245 335.923 150.978V158.728C332.989 157.195 330.039 156.428 327.073 156.428C325.473 156.428 324.189 156.695 323.223 157.228C322.289 157.728 321.823 158.461 321.823 159.428C321.823 160.395 322.306 161.178 323.273 161.778C324.239 162.378 326.023 163.195 328.623 164.228C330.989 165.195 332.823 166.145 334.123 167.078C335.456 168.011 336.423 169.095 337.023 170.328C337.623 171.561 337.923 173.128 337.923 175.028C337.923 178.261 336.739 180.795 334.373 182.628C332.039 184.428 328.539 185.328 323.873 185.328Z" fill="black"/>
<path d="M245 55.55C245 57.9833 244.608 59.6917 243.825 60.675C243.042 61.6417 241.708 62.125 239.825 62.125H228.275C226.925 62.125 225.85 61.7333 225.05 60.95C224.25 60.15 223.85 59.05 223.85 57.65V27.875L224.2 27.525H227C228.483 27.525 229.6 27.9083 230.35 28.675C231.117 29.4417 231.5 30.675 231.5 32.375V55.725C233.117 55.6083 234.667 55.55 236.15 55.55H245ZM247.242 44.9C247.242 41.35 247.775 38.2417 248.842 35.575C249.908 32.9083 251.525 30.8333 253.692 29.35C255.875 27.8667 258.633 27.125 261.967 27.125C265.333 27.125 268.1 27.875 270.267 29.375C272.45 30.875 274.067 32.9583 275.117 35.625C276.183 38.2917 276.717 41.3833 276.717 44.9C276.717 48.45 276.183 51.5667 275.117 54.25C274.05 56.9167 272.425 59 270.242 60.5C268.075 61.9833 265.317 62.725 261.967 62.725C258.617 62.725 255.85 61.975 253.667 60.475C251.483 58.975 249.867 56.8833 248.817 54.2C247.767 51.5167 247.242 48.4167 247.242 44.9ZM255.192 44.9C255.192 46.25 255.267 47.625 255.417 49.025C255.583 50.4083 255.9 51.7 256.367 52.9C256.833 54.0833 257.508 55.0417 258.392 55.775C259.292 56.4917 260.483 56.85 261.967 56.85C263.467 56.85 264.658 56.4917 265.542 55.775C266.442 55.0417 267.125 54.0833 267.592 52.9C268.058 51.7 268.367 50.4083 268.517 49.025C268.667 47.625 268.742 46.25 268.742 44.9C268.742 43.55 268.667 42.1833 268.517 40.8C268.367 39.4 268.058 38.1167 267.592 36.95C267.125 35.7667 266.442 34.8167 265.542 34.1C264.658 33.3667 263.467 33 261.967 33C260.483 33 259.292 33.3667 258.392 34.1C257.508 34.8167 256.833 35.7667 256.367 36.95C255.9 38.1167 255.583 39.4 255.417 40.8C255.267 42.1833 255.192 43.55 255.192 44.9ZM279.444 59.025C279.544 57.9417 279.877 56.875 280.444 55.825C281.027 54.775 281.685 53.9333 282.419 53.3C283.835 54.15 285.427 54.9083 287.194 55.575C288.977 56.2417 290.76 56.575 292.544 56.575C294.077 56.575 295.194 56.2167 295.894 55.5C296.594 54.7667 296.944 53.9583 296.944 53.075C296.944 52.4583 296.735 51.7917 296.319 51.075C295.902 50.3583 294.994 49.7083 293.594 49.125L287.569 46.6C285.502 45.7333 283.794 44.5833 282.444 43.15C281.11 41.7167 280.444 39.8167 280.444 37.45C280.444 35.4167 280.977 33.625 282.044 32.075C283.11 30.525 284.552 29.3167 286.369 28.45C288.202 27.5667 290.244 27.125 292.494 27.125C294.827 27.125 297.019 27.4333 299.069 28.05C301.119 28.65 302.794 29.2833 304.094 29.95C304.027 31.0333 303.76 32.0917 303.294 33.125C302.827 34.1417 302.227 34.9917 301.494 35.675C300.21 35.075 298.727 34.525 297.044 34.025C295.36 33.5083 293.852 33.25 292.519 33.25C291.035 33.25 289.952 33.5917 289.269 34.275C288.602 34.9583 288.269 35.6833 288.269 36.45C288.269 37.15 288.502 37.7667 288.969 38.3C289.452 38.8167 290.252 39.3083 291.369 39.775L297.494 42.325C299.877 43.2917 301.727 44.625 303.044 46.325C304.36 48.0083 305.019 49.9417 305.019 52.125C305.019 54.125 304.535 55.925 303.569 57.525C302.619 59.125 301.177 60.3917 299.244 61.325C297.31 62.2583 294.902 62.725 292.019 62.725C289.985 62.725 287.835 62.4083 285.569 61.775C283.319 61.125 281.277 60.2083 279.444 59.025ZM307.276 59.025C307.376 57.9417 307.709 56.875 308.276 55.825C308.859 54.775 309.517 53.9333 310.251 53.3C311.667 54.15 313.259 54.9083 315.026 55.575C316.809 56.2417 318.592 56.575 320.376 56.575C321.909 56.575 323.026 56.2167 323.726 55.5C324.426 54.7667 324.776 53.9583 324.776 53.075C324.776 52.4583 324.567 51.7917 324.151 51.075C323.734 50.3583 322.826 49.7083 321.426 49.125L315.401 46.6C313.334 45.7333 311.626 44.5833 310.276 43.15C308.942 41.7167 308.276 39.8167 308.276 37.45C308.276 35.4167 308.809 33.625 309.876 32.075C310.942 30.525 312.384 29.3167 314.201 28.45C316.034 27.5667 318.076 27.125 320.326 27.125C322.659 27.125 324.851 27.4333 326.901 28.05C328.951 28.65 330.626 29.2833 331.926 29.95C331.859 31.0333 331.592 32.0917 331.126 33.125C330.659 34.1417 330.059 34.9917 329.326 35.675C328.042 35.075 326.559 34.525 324.876 34.025C323.192 33.5083 321.684 33.25 320.351 33.25C318.867 33.25 317.784 33.5917 317.101 34.275C316.434 34.9583 316.101 35.6833 316.101 36.45C316.101 37.15 316.334 37.7667 316.801 38.3C317.284 38.8167 318.084 39.3083 319.201 39.775L325.326 42.325C327.709 43.2917 329.559 44.625 330.876 46.325C332.192 48.0083 332.851 49.9417 332.851 52.125C332.851 54.125 332.367 55.925 331.401 57.525C330.451 59.125 329.009 60.3917 327.076 61.325C325.142 62.2583 322.734 62.725 319.851 62.725C317.817 62.725 315.667 62.4083 313.401 61.775C311.151 61.125 309.109 60.2083 307.276 59.025Z" fill="black"/>
<path d="M28.5078 242.628V214.178C28.5078 212.745 28.2745 211.695 27.8078 211.028C27.3745 210.328 26.5578 209.978 25.3578 209.978C24.8578 209.978 24.4911 209.845 24.2578 209.578C24.0578 209.311 23.9578 208.978 23.9578 208.578C23.9578 208.245 24.0911 207.945 24.3578 207.678C24.6578 207.411 24.9745 207.278 25.3078 207.278H31.1578C32.0578 207.278 32.7078 207.578 33.1078 208.178C33.5411 208.745 33.7578 209.311 33.7578 209.878V235.578C33.7578 237.078 34.1078 238.028 34.8078 238.428C35.5411 238.795 36.5078 238.978 37.7078 238.978H43.4578C44.3245 238.978 44.9911 238.878 45.4578 238.678C45.9578 238.445 46.3411 238.128 46.6078 237.728C46.9078 237.295 47.1245 236.795 47.2578 236.228C47.3911 235.628 47.5411 234.945 47.7078 234.178C47.7745 233.811 47.9578 233.545 48.2578 233.378C48.5911 233.178 48.9245 233.095 49.2578 233.128C49.5911 233.161 49.8911 233.278 50.1578 233.478C50.4245 233.678 50.5578 233.978 50.5578 234.378L50.3078 242.628H28.5078ZM68.5344 243.128C65.9677 243.128 63.651 242.695 61.5844 241.828C59.5177 240.995 57.7677 239.778 56.3344 238.178C54.901 236.611 53.801 234.711 53.0344 232.478C52.2677 230.245 51.8844 227.745 51.8844 224.978C51.8844 222.211 52.301 219.711 53.1344 217.478C53.9677 215.245 55.1177 213.328 56.5844 211.728C58.051 210.161 59.801 208.945 61.8344 208.078C63.8677 207.211 66.0844 206.778 68.4844 206.778C70.9177 206.778 73.151 207.211 75.1844 208.078C77.251 208.911 79.001 210.111 80.4344 211.678C81.901 213.245 83.0344 215.145 83.8344 217.378C84.6677 219.611 85.0844 222.128 85.0844 224.928C85.0844 227.728 84.6844 230.245 83.8844 232.478C83.1177 234.711 82.001 236.628 80.5344 238.228C79.101 239.795 77.3677 240.995 75.3344 241.828C73.301 242.695 71.0344 243.128 68.5344 243.128ZM68.5344 239.428C70.501 239.428 72.1844 239.045 73.5844 238.278C75.0177 237.478 76.1844 236.428 77.0844 235.128C78.0177 233.795 78.701 232.261 79.1344 230.528C79.5677 228.761 79.7844 226.895 79.7844 224.928C79.7844 222.928 79.551 221.045 79.0844 219.278C78.6177 217.511 77.9344 215.961 77.0344 214.628C76.101 213.328 74.9177 212.295 73.4844 211.528C72.0844 210.728 70.4177 210.328 68.4844 210.328C66.6177 210.328 64.9844 210.728 63.5844 211.528C62.1844 212.295 61.001 213.345 60.0344 214.678C59.101 216.011 58.3844 217.578 57.8844 219.378C57.4177 221.145 57.1844 223.011 57.1844 224.978C57.1844 226.878 57.3844 228.711 57.7844 230.478C58.2177 232.211 58.901 233.745 59.8344 235.078C60.7677 236.411 61.951 237.478 63.3844 238.278C64.8177 239.045 66.5344 239.428 68.5344 239.428ZM108.396 207.828V212.378C107.196 211.811 105.913 211.278 104.546 210.778C103.179 210.278 101.496 210.028 99.4961 210.028C97.7628 210.028 96.3628 210.445 95.2961 211.278C94.2628 212.078 93.7461 213.228 93.7461 214.728C93.7461 215.961 94.0461 217.011 94.6461 217.878C95.2461 218.711 96.3128 219.611 97.8461 220.578C98.9128 221.278 100.179 221.978 101.646 222.678C103.113 223.378 104.513 224.178 105.846 225.078C107.179 225.978 108.313 227.045 109.246 228.278C110.179 229.478 110.646 230.945 110.646 232.678C110.646 235.178 109.929 237.278 108.496 238.978C107.063 240.645 105.063 241.795 102.496 242.428C101.296 242.728 100.063 242.911 98.7961 242.978C97.5628 243.078 96.3794 243.095 95.2461 243.028C94.1128 242.928 93.0628 242.778 92.0961 242.578C91.1628 242.411 90.4294 242.195 89.8961 241.928C89.1961 241.661 88.7294 241.245 88.4961 240.678C88.2628 240.078 88.1961 239.528 88.2961 239.028C88.3961 238.495 88.6628 238.095 89.0961 237.828C89.5294 237.528 90.0961 237.511 90.7961 237.778C91.4961 238.111 92.3794 238.428 93.4461 238.728C94.5128 238.995 95.6128 239.178 96.7461 239.278C97.8794 239.378 98.9961 239.345 100.096 239.178C101.229 239.011 102.213 238.611 103.046 237.978C103.613 237.578 104.129 236.978 104.596 236.178C105.063 235.345 105.296 234.395 105.296 233.328C105.296 232.295 104.929 231.411 104.196 230.678C103.496 229.911 102.596 229.195 101.496 228.528C100.363 227.861 99.0794 227.178 97.6461 226.478C96.2128 225.745 94.7794 224.861 93.3461 223.828C91.9128 222.828 90.7461 221.728 89.8461 220.528C88.9461 219.295 88.4961 217.678 88.4961 215.678C88.4961 212.611 89.5961 210.328 91.7961 208.828C93.9961 207.328 96.7961 206.578 100.196 206.578C101.029 206.578 101.829 206.628 102.596 206.728C103.396 206.795 104.129 206.895 104.796 207.028C105.496 207.161 106.146 207.311 106.746 207.478C107.346 207.611 107.896 207.728 108.396 207.828ZM133.396 207.828V212.378C132.196 211.811 130.913 211.278 129.546 210.778C128.179 210.278 126.496 210.028 124.496 210.028C122.763 210.028 121.363 210.445 120.296 211.278C119.263 212.078 118.746 213.228 118.746 214.728C118.746 215.961 119.046 217.011 119.646 217.878C120.246 218.711 121.313 219.611 122.846 220.578C123.913 221.278 125.179 221.978 126.646 222.678C128.113 223.378 129.513 224.178 130.846 225.078C132.179 225.978 133.313 227.045 134.246 228.278C135.179 229.478 135.646 230.945 135.646 232.678C135.646 235.178 134.929 237.278 133.496 238.978C132.063 240.645 130.063 241.795 127.496 242.428C126.296 242.728 125.063 242.911 123.796 242.978C122.563 243.078 121.379 243.095 120.246 243.028C119.113 242.928 118.063 242.778 117.096 242.578C116.163 242.411 115.429 242.195 114.896 241.928C114.196 241.661 113.729 241.245 113.496 240.678C113.263 240.078 113.196 239.528 113.296 239.028C113.396 238.495 113.663 238.095 114.096 237.828C114.529 237.528 115.096 237.511 115.796 237.778C116.496 238.111 117.379 238.428 118.446 238.728C119.513 238.995 120.613 239.178 121.746 239.278C122.879 239.378 123.996 239.345 125.096 239.178C126.229 239.011 127.213 238.611 128.046 237.978C128.613 237.578 129.129 236.978 129.596 236.178C130.063 235.345 130.296 234.395 130.296 233.328C130.296 232.295 129.929 231.411 129.196 230.678C128.496 229.911 127.596 229.195 126.496 228.528C125.363 227.861 124.079 227.178 122.646 226.478C121.213 225.745 119.779 224.861 118.346 223.828C116.913 222.828 115.746 221.728 114.846 220.528C113.946 219.295 113.496 217.678 113.496 215.678C113.496 212.611 114.596 210.328 116.796 208.828C118.996 207.328 121.796 206.578 125.196 206.578C126.029 206.578 126.829 206.628 127.596 206.728C128.396 206.795 129.129 206.895 129.796 207.028C130.496 207.161 131.146 207.311 131.746 207.478C132.346 207.611 132.896 207.728 133.396 207.828Z" fill="black"/>
<path d="M32.6 118V83.6H39.5V111.75H48.2V118H32.6ZM61.5953 118.4C58.1286 118.4 55.662 117.9 54.1953 116.9C52.7286 115.867 51.812 114.233 51.4453 112C51.0786 109.733 50.8953 106 50.8953 100.8C50.8953 95.5667 51.0786 91.8333 51.4453 89.6C51.812 87.3667 52.7286 85.75 54.1953 84.75C55.662 83.7167 58.1286 83.2 61.5953 83.2C65.062 83.2 67.5286 83.7167 68.9953 84.75C70.462 85.75 71.3786 87.3667 71.7453 89.6C72.112 91.8333 72.2953 95.5667 72.2953 100.8C72.2953 106 72.112 109.733 71.7453 112C71.3786 114.233 70.462 115.867 68.9953 116.9C67.5286 117.9 65.062 118.4 61.5953 118.4ZM61.5953 112.35C62.9286 112.35 63.8286 112.167 64.2953 111.8C64.762 111.433 65.062 110.533 65.1953 109.1C65.3286 107.667 65.3953 104.9 65.3953 100.8C65.3953 96.7 65.3286 93.9333 65.1953 92.5C65.062 91.0667 64.762 90.1667 64.2953 89.8C63.8286 89.4333 62.9286 89.25 61.5953 89.25C60.262 89.25 59.362 89.4333 58.8953 89.8C58.4286 90.1667 58.1286 91.0667 57.9953 92.5C57.862 93.9333 57.7953 96.7 57.7953 100.8C57.7953 104.9 57.862 107.667 57.9953 109.1C58.1286 110.533 58.4286 111.433 58.8953 111.8C59.362 112.167 60.262 112.35 61.5953 112.35ZM85.2883 118.4C83.8883 118.4 82.3549 118.317 80.6883 118.15C79.0549 118.017 77.6049 117.817 76.3383 117.55V111.95C79.7383 112.217 82.0883 112.35 83.3883 112.35C84.5549 112.35 85.4383 112.283 86.0383 112.15C86.6383 112.017 87.0883 111.783 87.3883 111.45C87.6549 111.183 87.8216 110.817 87.8883 110.35C87.9883 109.85 88.0383 109.15 88.0383 108.25C88.0383 107.017 87.9716 106.15 87.8383 105.65C87.7049 105.117 87.4216 104.733 86.9883 104.5C86.5883 104.233 85.8716 104 84.8383 103.8L80.1383 102.95C78.4716 102.65 77.3216 101.733 76.6883 100.2C76.0549 98.6667 75.7383 96.45 75.7383 93.55C75.7383 90.7167 76.1383 88.55 76.9383 87.05C77.7716 85.55 78.9049 84.5333 80.3383 84C81.7716 83.4667 83.5883 83.2 85.7883 83.2C87.3216 83.2 88.7883 83.3 90.1883 83.5C91.6216 83.7 92.7883 83.9 93.6883 84.1V89.7C91.8883 89.4 89.8716 89.25 87.6383 89.25C86.4383 89.25 85.5049 89.3 84.8383 89.4C84.2049 89.5 83.7383 89.6833 83.4383 89.95C83.0716 90.2167 82.8383 90.6 82.7383 91.1C82.6383 91.6 82.5883 92.3333 82.5883 93.3C82.5883 94.3333 82.6383 95.0833 82.7383 95.55C82.8716 96.0167 83.0883 96.35 83.3883 96.55C83.6883 96.75 84.2049 96.9167 84.9383 97.05L89.3383 97.85C90.5049 98.0167 91.4883 98.3833 92.2883 98.95C93.1216 99.4833 93.7716 100.383 94.2383 101.65C94.7049 102.983 94.9383 104.867 94.9383 107.3C94.9383 110.467 94.5549 112.85 93.7883 114.45C93.0216 116.05 91.9549 117.117 90.5883 117.65C89.2549 118.15 87.4883 118.4 85.2883 118.4ZM107.456 118.4C106.056 118.4 104.523 118.317 102.856 118.15C101.223 118.017 99.7729 117.817 98.5063 117.55V111.95C101.906 112.217 104.256 112.35 105.556 112.35C106.723 112.35 107.606 112.283 108.206 112.15C108.806 112.017 109.256 111.783 109.556 111.45C109.823 111.183 109.99 110.817 110.056 110.35C110.156 109.85 110.206 109.15 110.206 108.25C110.206 107.017 110.14 106.15 110.006 105.65C109.873 105.117 109.59 104.733 109.156 104.5C108.756 104.233 108.04 104 107.006 103.8L102.306 102.95C100.64 102.65 99.4896 101.733 98.8563 100.2C98.2229 98.6667 97.9063 96.45 97.9063 93.55C97.9063 90.7167 98.3063 88.55 99.1063 87.05C99.9396 85.55 101.073 84.5333 102.506 84C103.94 83.4667 105.756 83.2 107.956 83.2C109.49 83.2 110.956 83.3 112.356 83.5C113.79 83.7 114.956 83.9 115.856 84.1V89.7C114.056 89.4 112.04 89.25 109.806 89.25C108.606 89.25 107.673 89.3 107.006 89.4C106.373 89.5 105.906 89.6833 105.606 89.95C105.24 90.2167 105.006 90.6 104.906 91.1C104.806 91.6 104.756 92.3333 104.756 93.3C104.756 94.3333 104.806 95.0833 104.906 95.55C105.04 96.0167 105.256 96.35 105.556 96.55C105.856 96.75 106.373 96.9167 107.106 97.05L111.506 97.85C112.673 98.0167 113.656 98.3833 114.456 98.95C115.29 99.4833 115.94 100.383 116.406 101.65C116.873 102.983 117.106 104.867 117.106 107.3C117.106 110.467 116.723 112.85 115.956 114.45C115.19 116.05 114.123 117.117 112.756 117.65C111.423 118.15 109.656 118.4 107.456 118.4Z" fill="black"/>
</svg>
