<svg width="400" height="350" viewBox="0 0 400 350" fill="none" xmlns="http://www.w3.org/2000/svg">
<path d="M2.43396e-07 0H152.136C184.687 -2.87165e-08 216.919 5.76166 246.992 16.956C277.065 28.1503 304.39 44.5581 327.406 65.2425C350.423 85.9268 368.68 110.483 381.136 137.508C393.591 164.533 400.001 193.498 400 222.75V350H247.886C215.333 350.003 183.099 344.243 153.023 333.05C122.948 321.856 95.6203 305.449 72.6015 284.765C49.5828 264.08 31.3235 239.523 18.8665 212.497C6.40941 185.47 -0.00144231 156.503 2.43396e-07 127.25V0Z" fill="#EC6357"/>
<path d="M155.665 6.39062L158.421 6.40251C174.039 6.46641 189.071 9.06725 203.517 14.205C212.791 16.8375 225.823 23.0721 242.613 32.9088C255.975 33.2694 263.409 33.757 264.915 34.3717C270.741 37.0761 273.422 39.8947 272.958 42.8273C272.48 45.5748 272.016 47.1319 271.566 47.4987C266.508 40.5371 261.555 38.8968 256.706 42.578C266.712 45.2582 269.698 50.6845 265.663 58.8569C261.607 50.4057 256.632 46.7885 250.741 48.0053C258.089 54.5591 258.077 59.4925 250.704 62.8057C251.215 56.9989 249.111 53.7729 244.392 53.1277C242.77 52.884 240.676 52.9966 238.112 53.4653C240.981 58.9018 242.167 61.922 241.669 62.5261C238.688 62.5021 235.984 60.7029 233.831 59.4522C232.465 57.6228 231.099 56.7081 230.021 50.2169L226.004 46.4747C217.754 40.498 209.562 36.4571 201.43 34.3521C173.69 29.853 152.937 32.0759 139.171 41.0207C128.051 48.1373 121.273 62.234 118.835 83.3109C128.073 62.2225 136.113 54.103 144.19 51.1772C167.242 42.8273 177.837 56.1595 183.061 71.8053C185.354 77.973 181.31 84.9443 170.929 92.7192L161.612 93.7444C161.794 90.4602 160.496 89.4373 157.716 90.6758C157.679 87.8321 157.329 86.8932 156.874 86.6645C156.112 86.0707 155.144 86.4867 153.916 87.5286L153.862 84.2782C153.862 82.7771 152.775 77.9749 151.409 76.6028C146.628 79.8043 147.43 94.1265 148.373 96.3366C150.036 99.0289 153.225 100.632 157.941 101.147C158.279 101.332 158.406 101.796 158.322 102.537L147.704 112.525C160.549 107.028 175.629 102.902 192.945 100.148C205.43 98.6437 225.571 99.4364 253.367 102.526L256.388 101.184L261.782 91.7235C263.327 90.0854 264.903 89.2938 266.509 89.3486C268.544 88.9096 271.989 90.9976 276.843 95.6124C269.953 94.3872 266.846 93.9821 266.509 95.6124C265.252 97.4123 265.467 99.5091 268.826 103.491C269.491 103.879 271.088 104.003 273.616 103.863C280.166 101.278 284.617 100.164 286.971 100.519C291.594 102.398 294.617 105.78 296.039 110.663C296.033 111.041 295.922 111.227 295.706 111.222C294.479 109.95 291.25 108.685 286.019 107.429C283.434 107.541 280.404 109.037 276.93 111.916C287.184 110.818 292.791 114.408 293.752 122.684C293.776 123.555 293.693 123.938 293.503 123.832C291.504 121.044 289.272 119.333 286.808 118.698C282.274 118.203 279.325 118.617 277.962 119.94C281.089 122.39 282.893 125.219 283.373 128.425C284.478 130.617 283.011 135.215 278.972 142.218C280.876 132.093 278.277 126.236 271.176 124.646C273.094 130.101 272.387 135.328 269.054 140.326C265.752 127.028 260.792 120.815 254.176 121.687C227.309 114.286 205.058 113.612 187.426 119.663C175.011 120.955 158.398 135.029 137.587 161.885C115.191 195.085 110.625 225.643 123.889 253.557C133.104 270.444 147.005 285.834 165.593 299.728C183.582 314.13 183.547 325.519 208.509 338.956L187.139 342.84C123.889 329.144 75.3407 292.35 48.2321 259.235C24.4703 220.663 17.0473 189.243 18.962 151.631C19.4104 115.506 35.9446 80.2803 68.5646 45.9547C83.4799 31.2905 99.3526 20.6995 116.182 14.1818C120.091 11.2795 133.252 8.68242 155.665 6.39062Z" fill="black" fill-opacity="0.505882"/>
<path d="M263.088 202.386L264.406 202.166C268.364 201.523 271.364 200.617 273.405 199.445C275.891 198.183 278.184 196.02 280.286 192.956C280.972 191.929 281.601 190.819 282.174 189.625L282.974 187.788C283.474 186.526 283.882 185.211 284.2 183.842C284.799 180.354 285.013 178.228 284.841 177.463C284.799 176.005 284.608 174.543 284.268 173.075C283.549 170.11 282.285 167.27 280.473 164.555C280.147 163.787 278.584 161.937 275.786 159.005C274.607 157.894 273.362 156.894 272.052 156.005C266.716 152.382 260.813 151.156 254.344 152.328C246.582 153.542 237.39 157.88 226.766 165.342L263.088 202.386Z" fill="black" fill-opacity="0.996078"/>
<path d="M268.913 194.629L269.144 195.3C270.48 198.912 270.023 201.132 267.771 201.957C266.787 202.417 265.567 202.8 264.111 203.106C257.968 204.246 254.97 204.851 255.118 204.92L247.684 207.24C246.725 207.468 245.808 207.551 244.933 207.491L238.547 206.505L230.411 206.107C228.94 205.962 227.551 205.626 226.246 205.096C224.549 204.557 222.72 202.842 220.759 199.949C219.517 197.906 218.366 195.703 217.306 193.34L200.992 166.507L213.077 167.566L236.503 161.815C240.862 157.345 244.007 155.626 245.939 156.657C247.047 157.231 247.838 158.143 248.314 159.396C248.705 160.81 248.741 161.775 248.424 162.289C247.781 163.835 245.923 165.335 242.848 166.786C250.272 167.878 255.104 168.814 257.344 169.595C260.508 170.56 262.789 171.858 264.187 173.49C265.182 174.439 266 176.142 266.642 178.6C266.99 179.691 267.352 183.304 267.725 189.438C267.878 190.812 268.274 192.542 268.913 194.629Z" fill="#F0C4A9"/>
<path d="M220.715 194.671L223.109 180.02L211.739 177.328L220.715 194.671Z" fill="#FF0023" fill-opacity="0.152941"/>
<path d="M208.903 183.243V183.243C212.271 185.852 215.64 188.46 219.008 191.068C217.752 182.509 216.496 173.95 215.239 165.391C211.103 167.054 206.967 168.718 202.831 170.382L208.903 183.243Z" fill="black" fill-opacity="0.996078"/>
<path d="M309.033 337.086L349.441 340.952L363.25 337.194C350.841 330.555 341.857 325.879 336.297 323.164C330.69 320.393 327.013 318.947 325.267 318.824C324.545 318.798 324.102 318.901 323.938 319.133C323.691 319.311 323.575 319.8 323.589 320.598L309.033 337.086Z" fill="#F0C4A9"/>
<path d="M285.894 237.898V237.899L319.797 262.371C314.397 266.969 308.997 271.566 303.597 276.164L285.894 237.898Z" fill="white"/>
<path d="M159.385 321.112L157.121 318.54C148.784 309.647 144.386 298.298 143.941 280.157C143.538 264.633 143.89 252.825 144.999 244.733C146.626 232.197 147.826 224.813 148.598 222.584C149.678 217.847 150.966 213.391 152.461 209.216C157.089 196.948 163.404 187.833 171.406 181.872C176.679 177.786 182.328 174.405 188.353 171.729C189.813 170.972 194.379 169.053 202.051 165.972L211.518 163.805L213.168 176.203L235.727 220.975L159.385 321.112Z" fill="white"/>
<path d="M330 319.753L326.363 320.522C323.016 329.045 319.336 334.481 315.323 336.829C313.687 337.973 312.005 339.041 310.276 340.032C308.968 340.342 306.962 339.101 304.257 336.308C294.094 324.851 283.329 309.182 271.964 289.301C266.375 279.193 261.59 266.293 257.609 250.602C245.063 284.265 236.29 305.982 231.291 315.755C225.299 328.18 219.258 335.968 213.167 339.119C203.177 344.405 192.534 344.598 181.239 339.696C170.95 334.802 160.465 325.163 149.783 310.779C147.65 307.758 146.804 305.151 147.246 302.958L179.88 277.082C200.743 249.254 216.925 229.868 228.427 218.925C239.234 209.196 247.074 204.24 251.947 204.058C256.578 202.854 261.672 203.809 267.23 206.922C272.887 210.483 278.487 216.514 284.03 225.013C295.23 241.939 310.554 273.519 330 319.753Z" fill="black" fill-opacity="0.996078"/>
<path d="M151.607 277.081L150.704 278.59C146.503 285.049 144.515 290.947 144.738 296.283C144.654 298.017 145.408 301.155 147 305.696C148.226 308.964 150.548 312.707 155.076 318.086L183.062 280.202L191.398 256.312L151.607 277.081Z" fill="white"/>
<path d="M190.879 236.174L243.652 279.788L313.234 280.794L303.643 259.815L255.272 251.859C246.187 237.176 239.649 226.424 235.657 219.602C231.567 212.688 225.982 202.836 218.902 190.047L190.879 236.174Z" fill="white"/>
<path d="M302.859 273.106L314.739 276.231L318.175 292.988L329.374 284.388C330.201 280.146 330.681 276.907 330.814 274.669C331.034 271.962 330.825 269.411 330.187 267.017C329.517 264.597 328.309 262.547 326.564 260.868C325.981 260.322 325.335 259.837 324.628 259.414L323.519 258.833C322.748 258.479 321.914 258.201 321.015 258.001C317.58 257.003 310.639 257.773 300.192 260.311L302.859 273.106Z" fill="#F0C4A9"/>
<path d="M299.714 279.828L293.749 284.459L308.183 299.409C309.355 298.677 310.487 297.911 311.581 297.113C314.554 294.888 316.301 292.486 316.824 289.907C317.169 288.905 317.325 286.879 317.293 283.828C317.158 281.124 316.894 278.308 316.498 275.382L305.939 273.188L299.714 279.828Z" fill="#F0C4A9"/>
<path d="M249.204 184.403L249.204 184.403C249.878 183.209 250.367 182.294 250.672 181.656C250.796 181.4 250.912 181.148 251.019 180.898L251.173 180.526C251.271 180.28 251.358 180.038 251.434 179.8L251.539 179.446L251.626 179.098L251.699 178.756C251.742 178.53 251.778 178.307 251.805 178.087C251.877 177.535 251.916 176.785 251.922 175.837L249.204 184.403Z" fill="black" fill-opacity="0.996078"/>
<path d="M248.982 183.671L248.982 183.671C248.684 182.827 248.482 182.173 248.374 181.709C248.33 181.524 248.292 181.338 248.262 181.154L248.221 180.877L248.194 180.602L248.181 180.327L248.182 180.054L248.197 179.782L248.225 179.511C248.248 179.33 248.277 179.15 248.314 178.971C248.401 178.522 248.575 177.898 248.836 177.098L248.982 183.671Z" fill="black" fill-opacity="0.996078"/>
<path d="M250.392 193.58L250.392 193.58C251.24 194.647 251.864 195.47 252.263 196.049C252.424 196.281 252.577 196.511 252.722 196.74L252.931 197.082C253.065 197.309 253.188 197.534 253.3 197.756L253.457 198.088L253.597 198.417L253.722 198.743C253.799 198.959 253.869 199.174 253.929 199.387C254.086 199.921 254.24 200.655 254.392 201.591L250.392 193.58Z" fill="black" fill-opacity="0.996078"/>
<path d="M250.336 194.582L250.336 194.582C250.239 195.476 250.19 196.161 250.191 196.639C250.19 196.83 250.195 197.02 250.207 197.207L250.231 197.485L250.267 197.76L250.316 198.03L250.379 198.295L250.456 198.556L250.544 198.813C250.608 198.983 250.677 199.15 250.753 199.316C250.939 199.73 251.25 200.294 251.685 201.007L250.336 194.582Z" fill="black" fill-opacity="0.996078"/>
<path d="M238.789 195.794L236.71 194.77L234.63 193.746C235.685 192.513 236.74 191.28 237.795 190.047C237.622 191.011 237.45 191.976 237.277 192.94C237.781 193.892 238.285 194.843 238.789 195.794Z" fill="#FF0000" fill-opacity="0.180392"/>
<path d="M229.917 200.118L229.971 199.803C230.106 199.035 230.195 198.386 230.239 197.858C230.274 197.349 230.29 197.014 230.289 196.856C230.291 196.516 230.277 196.127 230.246 195.691C230.163 194.648 229.879 193.031 229.394 190.84L229.917 200.118Z" fill="#FF0000" fill-opacity="0.211765"/>
<path d="M269.272 158.137L268.799 159.652C268.107 162.811 268.511 165.74 270.011 168.437C271.527 171.139 273.84 172.947 276.951 173.86C279.978 174.583 282.783 174.161 285.366 172.595C286.196 172.087 286.956 171.472 287.644 170.751L288.606 169.597C289.206 168.777 289.7 167.866 290.089 166.864C291.199 163.755 291.167 160.767 289.996 157.902C288.824 155.037 286.779 152.948 283.86 151.634C280.881 150.476 278.02 150.508 275.276 151.732C272.531 152.955 270.53 155.09 269.272 158.137Z" fill="black" fill-opacity="0.996078"/>
</svg>
