<svg width="401" height="353" viewBox="0 0 401 353" fill="none" xmlns="http://www.w3.org/2000/svg">
<path d="M199.277 275.452L200.771 275.773C210.916 277.804 217.555 280.078 220.687 282.596L224.21 285.307C236.613 296.745 244.836 303.958 248.877 306.945C256.088 312.59 261.755 316.35 265.876 318.225C270.977 320.727 277.013 322.392 283.986 323.222C291.982 324.201 297.394 324.009 300.221 322.648C311.472 317.926 325.044 312.477 340.937 306.302C345.629 304.252 348.773 302.689 350.371 301.613C352.635 300.236 354.651 298.705 356.421 297.019L368.147 284.536L371.971 281.734L382.454 275.314C383.733 274.511 385.504 272.771 387.768 270.096L397.979 254.579C399.023 252.869 399.633 251.131 399.809 249.366C398.736 241.533 395.305 237.996 389.514 238.754L392.664 215.454C392.591 211.415 391.587 209.368 389.653 209.314C387.295 208.865 384.204 209.346 380.379 210.755C377.856 212.389 375.225 214.831 372.487 218.082C369.44 221.438 368.052 226.704 368.323 233.88C364.884 236.662 362.082 239.513 359.915 242.435L349.877 259.519C348.518 261.659 346.457 264.142 343.695 266.97C341.215 269.347 338.827 271.016 336.53 271.976L325.052 276.348C323.534 276.843 322.497 277.06 321.941 277C321.345 277.11 320.407 276.811 319.128 276.106C314.734 271.373 310.381 267.999 306.068 265.984L300.699 263.867C292.152 261.373 284.346 258.719 277.283 255.905C271.337 253.505 266.588 251.058 263.033 248.563C260.627 247.066 257.156 244.074 252.621 239.587L230.053 215.273C225.354 211.096 222 208.637 219.991 207.897C212.819 203.92 202.435 204.385 188.839 209.291C181.563 211.717 173.739 215.473 165.367 220.559L199.277 275.452Z" fill="#FFB799"/>
<path d="M303.747 270.531V270.532C308.319 273.233 311.034 275.121 311.892 276.195C313.498 277.728 314.358 279.444 314.471 281.342C314.499 281.968 314.446 282.59 314.311 283.208C314.176 283.826 313.967 284.42 313.683 284.991L313.206 285.815C311.987 287.514 310.517 288.529 308.793 288.86C308.02 289.04 307.046 289.095 305.872 289.025C305.584 289.047 304.602 288.899 302.924 288.58C302.599 288.535 301.542 288.252 299.752 287.731C298.674 287.411 296.822 286.778 294.195 285.832L303.747 270.531Z" fill="#FFB799"/>
<path d="M139.07 214.475L160.563 208.902L182.057 203.328C190.071 229.599 198.086 255.87 206.101 282.142L163.115 293.29C155.1 267.018 147.085 240.747 139.07 214.475Z" fill="white"/>
<path d="M154.718 196.961L53.7502 226.587L0 242.358L0.000135079 352.588C63.0892 334.077 126.178 315.566 189.267 297.055C188.152 293.823 187.036 290.591 185.921 287.36L163.121 293.272L185.92 287.36C176.939 261.339 167.958 235.319 158.976 209.298L158.975 209.299C157.556 205.186 156.137 201.073 154.718 196.961Z" fill="black"/>
<path d="M388.372 76.5442L340.951 2L252.213 48.6446L239.067 54.3117L230.146 59.5429L215.122 70.0053L201.036 84.391L193.524 95.7252L189.298 107.495L188.359 113.598V120.137L189.298 124.497L216.295 167.218L229.794 188.579L236.543 199.259L245.17 207.324L247.987 210.811L266.768 219.53H288.835L312.311 214.734L338.603 202.092L359.732 186.399L374.286 167.654L379.921 152.396L378.982 139.754L378.043 136.703L376.634 133.651L373.465 128.202L367.009 117.522L354.097 96.1611L388.372 76.5442Z" fill="#F2F2F2" stroke="#A8A8A8" stroke-width="1.84503"/>
<path d="M377.898 135.739C383.824 146.562 381.62 160.063 372.925 173.245C364.243 186.408 349.171 199.097 329.743 208.139C310.316 217.181 290.292 220.826 273.649 219.45C256.982 218.072 243.892 211.69 237.966 200.866C232.04 190.042 234.243 176.541 242.939 163.36C251.621 150.197 266.693 137.508 286.121 128.466C305.548 119.424 325.572 115.779 342.215 117.155C358.882 118.533 371.972 124.915 377.898 135.739Z" fill="#ECECEC" stroke="#A8A8A8" stroke-width="1.84503"/>
<path d="M327.678 159.477C329.298 162.436 328.748 166.233 326.209 170.082C323.682 173.912 319.268 177.642 313.54 180.308C307.812 182.974 301.936 184.034 297.093 183.633C292.226 183.231 288.586 181.384 286.966 178.425C285.346 175.466 285.895 171.669 288.435 167.82C290.961 163.99 295.376 160.26 301.104 157.594C306.832 154.928 312.708 153.868 317.551 154.269C322.418 154.671 326.057 156.518 327.678 159.477Z" fill="#868686" stroke="#A8A8A8" stroke-width="1.84503"/>
</svg>
