<svg width="300" height="342" viewBox="0 0 300 342" fill="none" xmlns="http://www.w3.org/2000/svg">
<path d="M36.2578 288.175V332.476H262.755L266.033 327.035L269.312 315.636L271.078 297.501V281.698V255.532L269.312 239.729L266.033 216.931L258.971 190.246L248.882 163.821L191.123 132.474L179.521 110.453H121.005L111.673 132.474L57.6968 166.671L36.2578 225.998V288.175Z" fill="#1D1210" stroke="black" stroke-width="0.833784"/>
<path d="M143.612 153.15L149.158 170.729L161.008 149.273L168.571 140.483L167.563 130.66L178.908 118.51V102.999V95.2442L181.177 93.6931L187.48 92.9176L190.001 89.2985L192.522 84.1283V79.9921V70.9443V67.5837L190.757 65.5156L187.48 64.4816L184.455 63.9646L181.177 61.8965L178.908 54.6582L176.135 46.903L177.143 39.6647L176.135 31.6509L172.353 26.2222L161.008 24.9297L139.83 26.2222L121.93 31.6509L117.896 36.0456V46.1274L117.391 57.5018L111.845 67.5837L110.836 68.8762L107.055 72.2369V79.9921V84.9038L109.576 91.625L113.105 95.2442H118.652L124.451 120.837L123.694 130.66L143.612 153.15Z" fill="#FFCEA5"/>
<path d="M121.727 154.762L123.988 130.406L144.345 149.839L149.12 170.049L157.163 151.653L159.424 147.766L164.702 142.843L167.698 133.065L178.273 159.685V166.422L174.504 194.664H135.046L121.727 154.762Z" fill="#89CBE5" stroke="#89CBE5" stroke-width="0.833784"/>
<path d="M114.586 74.1211L112.566 72.3061L110.547 65.8237L108.275 57.5263L105.75 46.6359V38.5978L106.76 33.4119L110.294 23.0401L117.615 14.4833L125.946 6.96378L136.044 2.55577L141.346 1H150.182C150.384 1 155.988 2.03718 158.765 2.55577L164.319 5.14872L169.621 8.26026L175.932 13.9647L178.456 18.8913L179.719 22.2622V25.8923L180.224 26.4109L182.496 27.4481L185.525 29.5224L187.797 32.1154L189.059 35.7455V43.0058L188.302 51.5625L186.282 62.4529L185.525 68.6759L181.486 72.8247L180.728 67.6388L178.456 59.8599L175.427 52.859V42.4872L174.922 38.0792C174.838 37.2148 174.619 35.3825 174.417 34.9676C174.165 34.449 172.397 32.1154 171.64 31.8561C171.034 31.6486 169.2 30.7325 168.358 30.3003H165.581L154.221 31.3375L136.044 33.4119C133.015 33.7576 126.754 34.5528 125.946 34.9676C124.936 35.4862 120.392 37.8199 120.14 38.0792C119.938 38.2866 118.878 41.45 118.373 43.0058L117.868 60.3785L116.858 66.8609L115.343 72.3061L114.586 74.1211Z" fill="black" stroke="black" stroke-width="0.833784"/>
<path d="M147.272 139.056L123.453 113.827L130.68 119.928L139.308 126.151L143.732 128.455L147.714 129.377H153.908L159.439 126.612L168.509 117.854L170.721 114.858L178.705 104.703L163.642 127.534L152.139 144.587L147.272 139.056Z" fill="#FFBA91"/>
<path d="M145.449 101.52L138.562 102.93L145.449 102.648L157.183 101.238L161.009 99.8281L153.867 100.392L145.449 101.52Z" fill="#F1A079"/>
<path d="M150.137 92.7376L143.742 89.7319L150.137 90.7338L157.555 86.9766L150.137 92.7376Z" fill="#F1A079"/>
<rect y="332.047" width="300" height="9.30633" fill="#976C47"/>
<path d="M143.677 154.117L136.74 147.68L135.969 165.705L146.76 166.736L143.677 154.117Z" fill="#6FA7BB"/>
<path d="M158.926 151.234L152.805 167.188H164.028L161.477 154.373L158.926 151.234Z" fill="#6FA5BC"/>
<path d="M148.922 169.836L149.354 194.21L149.055 177.355L148.922 169.836Z" stroke="#6FA5BC" stroke-width="0.833784"/>
<rect x="57.3679" y="195.469" width="192.607" height="135.321" rx="8.75473" fill="#020103" stroke="#D0D0D0" stroke-width="2.50135"/>
<rect x="64.3203" y="205.289" width="178.273" height="115.664" fill="#551023"/>
<path d="M90.5669 299.856L82.2215 293.104L86.1448 288.205L92.8232 293.486L109.963 291.542L113.621 286.976L112.112 272.957L107.572 269.32L82.5321 272.161L79.6589 245.465L113.194 241.661L113.868 247.924L87.1146 250.959L88.6636 265.351L109.977 262.933L118.644 269.876L120.651 288.518L113.669 297.235L90.5669 299.856ZM130.791 295.293L130.117 289.029L138.538 288.074L133.971 245.644L126.445 246.498L125.771 240.234L140.079 238.611L145.32 287.305L153.741 286.349L154.415 292.613L130.791 295.293ZM168.2 292.559L163.932 289.345L206.752 229.538L210.946 232.761L168.2 292.559ZM167.446 261.018L158.77 254.002L157.759 244.606L164.733 235.814L175.464 234.597L184.14 241.613L185.151 251.009L178.177 259.801L167.446 261.018ZM169.915 255.228L174.535 254.704L178.392 249.889L177.782 244.222L172.994 240.387L168.374 240.911L164.517 245.726L165.127 251.394L169.915 255.228ZM199.413 287.508L190.812 280.483L189.801 271.088L196.701 262.304L207.506 261.078L216.107 268.103L217.119 277.499L210.219 286.283L199.413 287.508ZM201.883 281.718L206.578 281.186L210.36 276.379L209.75 270.712L205.037 266.868L200.342 267.401L196.56 272.208L197.17 277.875L201.883 281.718Z" fill="#BEB5B5"/>
<path d="M17.2656 229.947V245.236L20.0411 250.678L24.3306 257.156L31.1432 261.821V263.894L28.8723 278.923L34.4234 282.033V284.884L40.2267 290.844V296.545L39.2175 297.581L38.9651 299.395L40.9837 301.727L41.4883 306.651L37.7035 310.797L37.9559 314.166L40.2267 327.641L43.2546 330.491L46.2824 332.046L50.5719 329.973L53.852 328.159L54.1043 277.109L59.6554 276.591V274.518L55.1136 264.412V262.08L64.7018 255.083L69.4958 245.236V236.684V229.947L62.9355 218.804L56.3752 213.362L48.5533 209.734H40.9837L35.4327 210.771L27.8631 215.176L21.5551 221.136L17.2656 229.947Z" fill="#E2D7B7"/>
<ellipse cx="43.3828" cy="236.321" rx="28.2734" ry="28.8053" fill="#E2D7B9"/>
<path d="M51.8142 228.791C51.8142 233.711 47.9321 237.68 43.1663 237.68C38.4005 237.68 34.5185 233.711 34.5185 228.791C34.5185 223.871 38.4005 219.901 43.1663 219.901C47.9321 219.901 51.8142 223.871 51.8142 228.791Z" fill="#1D120D" stroke="black" stroke-width="0.833784"/>
<path d="M51.797 277.094H48.3438L48.9912 330.716L51.797 329.386V328.015V277.094Z" fill="#BAB098"/>
<path d="M158.209 60.7202L152.325 70.7403L159.242 63.3982L168.472 59.6434L168.843 56.3941L158.209 60.7202Z" fill="#020101" stroke="black" stroke-width="0.833784"/>
<path d="M135.596 62.6944L143.127 71.4757L135.045 65.5188L125.311 63.5156L124.381 60.3864L135.596 62.6944Z" fill="#020101" stroke="black" stroke-width="0.833784"/>
<path d="M117.072 63.4177L111.581 65.9308L113.189 72.0573L116.638 71.8725C127.39 96.3244 140.78 83.3738 146.13 73.842L153.243 73.4608C167.682 92.2124 180.875 75.6779 185.667 65.0667L186.043 59.7213L178.829 58.111C173.565 59.4286 160.721 62.4097 151.455 63.7939C142.189 65.178 124.672 64.1198 117.072 63.4177Z" fill="black" stroke="black" stroke-width="0.833784"/>
<path d="M126.935 74.8338L123.883 72.7066L125.918 70.3136L127.698 69.25L138.127 71.909L136.347 73.7702L133.294 75.6315L130.242 75.8974L126.935 74.8338Z" fill="#FFFBF6"/>
<path d="M126.935 74.8338L123.883 72.7066L125.918 70.3136L127.698 69.25L138.127 71.909L136.347 73.7702L133.294 75.6315L130.242 75.8974L126.935 74.8338Z" fill="#FFD3D3"/>
<path d="M126.935 74.8338L123.883 72.7066L125.918 70.3136L127.698 69.25L138.127 71.909L136.347 73.7702L133.294 75.6315L130.242 75.8974L126.935 74.8338Z" stroke="black" stroke-width="0.833784"/>
<path d="M162.334 72.6881L159.281 70.7028L168.947 67.4766L170.982 67.9729L173.526 69.9582L171.745 71.6954L168.693 73.4326L165.64 73.6808L162.334 72.6881Z" fill="#FFFBF6"/>
<path d="M162.334 72.6881L159.281 70.7028L168.947 67.4766L170.982 67.9729L173.526 69.9582L171.745 71.6954L168.693 73.4326L165.64 73.6808L162.334 72.6881Z" fill="#FFD3D3"/>
<path d="M162.334 72.6881L159.281 70.7028L168.947 67.4766L170.982 67.9729L173.526 69.9582L171.745 71.6954L168.693 73.4326L165.64 73.6808L162.334 72.6881Z" stroke="black" stroke-width="0.833784"/>
<ellipse cx="166.19" cy="69.0233" rx="2.15827" ry="2.43737" fill="#020101"/>
<path d="M132.949 71.2342C132.949 72.5804 131.983 73.6716 130.791 73.6716C129.599 73.6716 128.633 72.5804 128.633 71.2342C128.633 69.8881 129.599 68.7969 130.791 68.7969C131.983 68.7969 132.949 69.8881 132.949 71.2342Z" fill="#020101"/>
</svg>
