<svg width="401" height="301" viewBox="0 0 401 301" fill="none" xmlns="http://www.w3.org/2000/svg">
<path d="M0.859375 161.375L47.2747 161.375L93.69 161.375C93.69 207.611 93.69 253.847 93.69 300.083C62.7465 300.083 31.8029 300.083 0.859375 300.083C0.859375 253.847 0.859375 207.611 0.859375 161.375Z" fill="#E4B58B"/>
<path d="M0.859375 158.883L47.2747 158.883L93.69 158.883C93.69 166.183 93.69 173.484 93.69 180.784C62.7465 180.784 31.8029 180.784 0.859375 180.784C0.859375 173.484 0.859375 166.183 0.859375 158.883Z" fill="#AA3636"/>
<path d="M154.146 25.148C154.096 25.1964 154.081 25.3371 154.101 25.5702C153.827 25.5685 153.718 25.6663 153.774 25.8635C153.792 25.935 153.824 26.02 153.869 26.1188C154.246 26.8675 154.491 27.3893 154.603 27.6842C154.784 28.1202 155.04 28.8103 155.372 29.7544L155.376 29.7726C155.225 29.7092 155.12 29.677 155.062 29.6762C154.995 29.6714 154.944 29.6893 154.909 29.7299C154.832 29.8308 154.826 30.0298 154.889 30.3268C154.965 30.7805 155.36 31.7052 156.075 33.1009L160.413 36.5142C160.924 34.7878 161.16 33.4764 161.121 32.58C161.122 31.6282 160.838 30.6438 160.271 29.6266C159.458 28.2191 158.484 27.045 157.349 26.1041L156.461 25.5567C156.414 25.5271 156.371 25.509 156.333 25.5023C156.295 25.493 156.258 25.5086 156.224 25.5491L156.038 25.8705C156 25.9028 155.96 25.9089 155.92 25.8886C155.875 25.8695 155.812 25.812 155.732 25.7161L155.256 25.0974C155.187 25.0214 155.129 24.978 155.083 24.9671C155.001 24.9287 154.914 25.006 154.822 25.199C154.528 25.0448 154.304 25.0269 154.149 25.1452L154.146 25.148Z" fill="#FEC5A1"/>
<path d="M155.971 32.7149L154.823 35.021L159.909 40.1686L160.896 36.3035L160.789 36.0887C160.634 35.7897 160.49 35.5709 160.358 35.4324C160.304 35.3743 160.248 35.3218 160.19 35.275C159.838 35.0259 159.66 34.8857 159.656 34.8546C159.623 34.8144 159.598 34.7683 159.58 34.7164C159.52 34.467 159.481 34.3282 159.463 34.2998C159.433 34.224 159.39 34.1446 159.333 34.0618C159.18 33.8416 158.965 33.6332 158.689 33.4364C158.199 33.0392 157.297 32.7991 155.981 32.7159L155.971 32.7149Z" fill="#FFF0AD"/>
<path d="M151.801 33.8187C149.99 33.6168 148.395 33.8994 147.015 34.6665C145.258 35.6773 143.991 36.9502 143.214 38.4852C142.66 39.5763 142.427 40.9959 142.514 42.7439C142.586 44.412 143.008 46.9318 143.78 50.3031L158.017 37.8771C156.872 36.0118 156.099 35.0008 155.697 34.8441C154.919 34.369 153.627 34.0278 151.821 33.8206L151.801 33.8187Z" fill="#040000"/>
<path d="M155.599 36.2075C154.546 35.9073 153.429 35.8456 152.248 36.0225C150.975 36.2404 150.124 36.6156 149.693 37.148C149.499 37.4255 149.486 37.711 149.653 38.0042C149.732 38.1564 149.848 38.3205 150.001 38.4965L151.189 39.7723C151.372 40.0154 151.459 40.2537 151.449 40.4873C151.45 40.6416 151.396 40.8312 151.288 41.0561L150.505 42.402L149.63 44.3451C149.518 44.5545 149.43 44.6715 149.368 44.696C149.267 44.7468 149.163 44.7325 149.057 44.653C148.281 43.9877 147.713 43.5579 147.351 43.3636C147.004 43.1621 146.675 43.0243 146.362 42.9505C145.601 42.796 144.984 43.0118 144.511 43.5977C144.232 43.9611 144.135 44.3955 144.22 44.9007C144.17 44.996 144.498 45.78 145.204 47.2525C145.316 47.5784 145.353 47.8445 145.315 48.0507C145.293 48.5546 144.735 49.155 143.642 49.8516L143.292 52.3625L153.799 60.1021C154.354 59.2755 154.777 58.7643 155.07 58.5684C155.216 58.4552 155.375 58.3661 155.547 58.301C156.329 58.1132 156.767 57.9781 156.86 57.8958C157.107 57.7676 157.324 57.557 157.511 57.2641C157.695 56.9777 157.879 56.5258 158.063 55.9087L158.819 52.8594C158.847 52.782 158.882 52.7096 158.925 52.6424C159.178 52.3919 159.373 52.1185 159.51 51.8224C159.771 51.299 160.011 50.7179 160.231 50.0792C160.473 49.3939 160.501 49.0129 160.315 48.9362C161.192 48.5722 161.65 48.1321 161.689 47.6158C161.756 47.2069 161.374 46.4495 160.543 45.3438C160.785 44.9893 160.916 44.7486 160.934 44.6216C160.98 44.5482 160.935 44.3306 160.799 43.9687C160.999 43.6407 161.074 43.2985 161.023 42.9421C160.935 42.2196 160.593 41.2826 159.999 40.1313C158.9 38.0093 157.436 36.7024 155.609 36.2106L155.599 36.2075Z" fill="#FEC5A1"/>
<path d="M65.2193 68.254C64.8918 68.7725 65.141 69.1917 65.9671 69.5116C65.3208 69.6719 64.9258 69.921 64.7821 70.259C64.6815 70.5535 64.889 70.8621 65.4043 71.1845C65.9674 71.5303 66.9638 71.9454 68.3935 72.4299C68.725 72.5694 71.1263 73.3082 75.5974 74.6463C74.4291 74.8631 73.6429 75.0379 73.2387 75.1708C72.7005 75.337 72.3131 75.5256 72.0765 75.7366C71.7919 75.9911 71.6746 76.3008 71.7247 76.6656C71.8061 77.0537 72.0247 77.329 72.3805 77.4913C72.6633 77.6252 73.0691 77.6364 73.5978 77.5251C73.8075 77.4803 74.0391 77.4147 74.2926 77.3284L75.6523 76.8005C75.8273 76.7374 75.9472 76.7037 76.0118 76.6994C76.4631 76.9474 77.4028 76.917 78.8312 76.6081C80.7864 76.2231 81.84 75.8875 81.9921 75.6014L82.7229 74.5538C82.9223 74.3141 83.2847 73.9506 83.8101 73.4632L82.7724 69.5461C81.3115 69.1441 80.2919 68.9098 79.7137 68.843C79.1074 68.7575 78.4043 68.7663 77.6044 68.8693C75.2779 67.504 73.8594 66.8349 73.3489 66.8619C72.682 66.8786 72.5178 67.1427 72.8563 67.654C72.97 67.7886 73.1706 67.9436 73.4579 68.1189C74.6232 68.7198 75.253 69.0691 75.3474 69.1667C71.1693 67.5001 69.018 66.7363 68.8934 66.8752C68.5072 66.8451 68.2285 66.9205 68.0571 67.1016C67.9066 67.2657 67.9269 67.4671 68.1181 67.7056C68.3256 68.003 69.2662 68.5062 70.9398 69.2151C68.9341 68.5592 67.566 68.1748 66.8354 68.0617C66.042 67.9191 65.5067 67.9798 65.2294 68.2438L65.2193 68.254Z" fill="#FEC5A1"/>
<path d="M107.012 128.108C104.116 128.416 102.044 128.729 100.794 129.047C99.4459 129.361 98.2808 129.83 97.2989 130.454C96.0372 131.24 94.8025 132.45 93.5947 134.085C92.9301 135.06 92.724 136.015 92.9764 136.95C93.4093 138.344 94.3646 139.112 95.8423 139.254C96.3004 139.29 96.8666 139.26 97.5409 139.165C97.4712 139.204 98.8775 138.945 101.76 138.39C102.449 138.276 103.136 138.193 103.823 138.142C105.504 138.014 107.466 138.034 109.71 138.202L107.016 128.122L107.012 128.108Z" fill="black"/>
<path d="M202.329 154.949L204.679 156.466L204.205 157.958C205.02 158.254 205.605 158.482 205.961 158.642C206.359 158.817 206.666 158.982 206.882 159.137C207.04 159.248 207.167 159.38 207.261 159.533L207.595 160.463C207.685 160.63 207.827 160.797 208.021 160.964C208.223 161.143 208.536 161.361 208.962 161.618C210.965 162.717 211.958 163.284 211.942 163.319C212.257 163.515 212.514 163.806 212.714 164.191C213.752 164.351 214.745 163.917 215.694 162.891C216.243 162.258 216.785 161.343 217.32 160.147C217.383 160.089 218.233 158.025 219.869 153.957L221.743 149.898C221.961 149.381 222.134 148.909 222.261 148.481C223.155 145.154 223.038 143.122 221.908 142.384C221.674 142.231 221.475 142.297 221.313 142.582C220.013 142.251 219.11 142.225 218.602 142.505C218.348 142.619 218.112 142.825 217.893 143.123C216.989 144.741 216.405 145.67 216.141 145.912C215.71 146.42 215.22 146.843 214.67 147.179C213.455 147.998 210.829 148.883 206.791 149.834L202.334 154.943L202.329 154.949Z" fill="black"/>
<path d="M132.969 97.0984C131.347 98.8319 130.304 100.22 129.839 101.263C129.364 102.078 128.746 104.039 127.986 107.144C127.76 107.812 127.402 108.541 126.914 109.329L121.188 116.505L115.591 124.671C114.906 125.519 114.128 126.147 113.255 126.556C112.993 126.687 112.587 126.817 112.036 126.944C109.583 127.231 108.12 127.484 107.647 127.701C106.596 128.047 105.884 128.55 105.512 129.209C104.701 131.564 106.024 134.736 109.48 138.724C110.471 139.573 111.333 139.955 112.064 139.87C112.455 139.874 113.036 139.678 113.806 139.282C114.569 139.693 115.884 139.729 117.752 139.391C118.939 139.194 119.937 138.877 120.747 138.442C121.973 137.844 123.771 136.478 126.14 134.343C128.902 132.792 130.943 131.508 132.265 130.489C133.869 129.32 135.987 127.25 138.618 124.281L144.151 120.578L172.327 130.746C174.523 132.978 176.76 134.752 179.038 136.07C183.314 140.968 190.672 147.746 201.113 156.406C202.76 155.295 203.851 154.465 204.385 153.916L205.163 153.006C206.115 151.221 206.66 150.332 206.8 150.337L210.156 147.888C210.602 147.523 211.097 146.915 211.641 146.065C208.341 143.651 205.785 141.866 203.971 140.71L196.961 136.821C196.112 136.327 195.321 135.761 194.586 135.122C193.61 134.268 192.595 133.194 191.541 131.899C191.093 131.453 189.135 128.773 185.666 123.859C184.834 122.788 184.055 121.942 183.33 121.321C183.078 120.884 180.666 119.437 176.097 116.98C170.738 113.315 167.88 111.434 167.521 111.337C165.626 110.239 163.049 109.174 159.791 108.142C161.524 105.654 161.675 104.247 160.245 103.921L157.303 103.357C150.608 100.092 146.177 98.2509 144.01 97.8343C141.295 97.0966 137.625 96.8509 132.998 97.0974L132.969 97.0984Z" fill="black"/>
<path d="M143.469 51.2078L142.315 53.0696C140.139 53.8225 138.475 54.3119 137.325 54.538C136.85 54.6864 135.434 54.8236 133.075 54.9499C132.695 54.9899 132.32 55.07 131.95 55.1902C131.434 55.2947 130.404 55.9048 128.86 57.0202L125.454 57.7742C125.315 57.7198 124.679 58.2598 123.545 59.3945C123.082 59.6809 122.548 59.8994 121.945 60.0499L113.852 61.501C113.172 61.6208 111.666 62.2116 109.335 63.2732C109.07 63.4293 108.243 63.2048 106.855 62.5998C106.585 62.5467 106.313 62.5353 106.041 62.5656C105.651 62.6132 105.279 62.6962 104.925 62.8146C102.166 63.8912 100.564 64.4296 100.119 64.43C99.7357 64.4924 99.3605 64.5211 98.9931 64.5161C96.8008 64.345 95.3169 64.3034 94.5413 64.3913C93.1929 64.4774 92.0595 64.6977 91.141 65.0521C90.6647 65.2554 90.3073 65.4662 90.0688 65.6844C88.8168 67.1554 87.9409 67.9418 87.4409 68.0437C86.4783 68.4799 84.6387 68.792 81.9221 68.9802L83.2502 74.9169L90.2033 73.7872C96.1619 73.7427 100.545 73.5473 103.354 73.2011C104.808 73.082 108.638 72.4858 114.844 71.4125C115.876 71.2569 116.914 71.1338 117.959 71.043C120.073 70.8215 123.76 70.8349 129.02 71.0833C129.752 74.2487 130.357 76.3722 130.836 77.4537C131.064 78.2031 132.007 79.8809 133.663 82.4871C133.881 82.8811 134.029 83.2737 134.109 83.665C134.167 83.9236 134.144 84.2442 134.039 84.6268C133.303 86.0348 133.008 86.7452 133.154 86.758C133.022 86.8698 133.428 87.5405 134.373 88.7703C134.516 89.0226 134.568 89.2957 134.529 89.5895C134.46 89.8831 134.316 90.163 134.098 90.429C132.683 91.9042 132.004 92.716 132.061 92.8645C131.878 93.368 132.038 93.8524 132.541 94.3178C132.919 94.656 133.274 94.8939 133.606 95.0315L159.117 99.4822C160.832 98.2472 161.328 93.89 160.606 86.4105C160.293 82.7362 159.874 79.3663 159.351 76.3008C159.224 75.082 158.273 70.9408 156.497 63.8771C155.683 60.0721 155.407 58.0967 155.67 57.951C154.611 58.831 153.441 58.894 152.16 58.1399C151.967 58.2573 150.119 56.7072 146.616 53.4895C145.945 52.9465 144.914 52.1976 143.52 51.2428L143.469 51.2078Z" fill="#FFF0AD"/>
<path d="M159.143 99.4703L152.517 97.5998L152.479 97.5872C149.809 96.5687 147.724 95.8683 146.224 95.4861C144.441 95.0048 142.512 94.684 140.439 94.5235C138.797 94.3816 136.386 94.2995 133.207 94.2771L133.004 97.3395L136.659 96.9854C139.89 97.2324 142.257 97.5588 143.76 97.9648C144.997 98.2681 146.616 98.824 148.616 99.6324C150.167 100.248 152.882 101.381 156.761 103.033L158.055 103.671C158.539 102.966 158.838 102.373 158.953 101.891C159.091 101.399 159.155 100.598 159.143 99.4898L159.143 99.4703Z" fill="black"/>
<path d="M154.266 58.7533C153.91 58.6102 153.617 58.6467 153.386 58.8628C152.727 59.4548 152.42 59.8877 152.464 60.1614C152.489 60.2138 152.531 60.2553 152.588 60.2861C153.084 60.4765 153.398 60.6487 153.529 60.8025C154.279 61.9048 154.719 62.4756 154.85 62.5148C154.969 62.6124 155.097 62.6994 155.234 62.7758L156.31 63.3516C156.437 63.468 156.447 63.5999 156.339 63.7475C156.211 63.9213 155.993 64.1113 155.685 64.3174C154.141 65.2115 153.402 65.6741 153.468 65.7052L150.805 68.6221C150.306 69.133 149.695 69.6806 148.971 70.265L137.603 78.9268L137.733 83.4836L142.915 85.2851L150.247 79.8008C151.108 79.0886 151.965 78.0863 152.82 76.794C154.242 74.5802 155.297 72.668 155.982 71.0572C156.307 70.3928 156.533 69.3511 156.661 67.932C157.307 66.8735 157.659 65.8117 157.716 64.7467C157.794 63.7638 157.682 63.0196 157.38 62.5141C157.258 62.3035 157.114 62.1165 156.948 61.9529L155.999 61.1731L155.726 60.8763C155.616 60.8287 155.59 60.506 155.648 59.9084C155.636 59.8125 155.58 59.6976 155.479 59.5638C155.183 59.2331 154.787 58.9663 154.293 58.7634L154.266 58.7533Z" fill="black"/>
<path d="M158.64 43.5127L158.64 43.5127C158.268 43.3553 157.954 43.2414 157.7 43.1709C157.426 43.0994 157.2 43.07 157.024 43.0827C156.94 43.087 156.857 43.0978 156.776 43.115C156.734 43.1173 156.614 43.1546 156.417 43.227C156.221 43.3049 155.954 43.45 155.617 43.6622L158.64 43.5127Z" fill="black"/>
<path d="M157.975 44.4483L157.975 44.4484L157.013 45.3357C157.417 45.4133 157.82 45.4909 158.224 45.5686L157.975 44.4483Z" fill="white"/>
<path d="M157.945 44.4922L158 44.522C158.089 44.5722 158.141 44.6028 158.156 44.6137C158.235 44.6672 158.28 44.7002 158.29 44.7128C158.316 44.736 158.339 44.7604 158.358 44.7858L158.385 44.825C158.4 44.8517 158.411 44.88 158.417 44.9097L158.423 44.9557L158.422 45.0039L158.414 45.0542C158.407 45.0884 158.397 45.1237 158.383 45.1601C158.35 45.2506 158.279 45.3858 158.169 45.5657L157.945 44.4922Z" fill="black"/>
<path d="M159.658 51.5356C159.582 51.5297 159.507 51.5274 159.434 51.5286C159.139 51.5398 158.962 51.5554 158.901 51.5755C158.782 51.5971 158.666 51.6272 158.552 51.6659C158.439 51.7045 158.33 51.7525 158.228 51.8099L158.08 51.9037C157.984 51.9711 157.899 52.0493 157.823 52.1382C157.67 52.3196 157.567 52.5396 157.514 52.7981L157.483 52.9922C157.469 53.1247 157.468 53.2592 157.479 53.3958C157.49 53.5325 157.513 53.6674 157.55 53.8007C157.665 54.2524 157.925 54.6106 158.328 54.8753L158.826 52.8657C158.854 52.7883 158.889 52.7159 158.932 52.6487C159.185 52.3982 159.38 52.1248 159.517 51.8287C159.565 51.733 159.612 51.6354 159.658 51.5358L159.658 51.5356Z" fill="#FF0000"/>
<path d="M252.844 176.878L253.035 173.444C254.072 166.518 257.31 160.947 262.749 156.732C268.227 152.519 274.722 150.755 282.234 151.441C289.408 152.442 295.178 155.568 299.544 160.819C300.943 162.517 302.102 164.372 303.021 166.383L304.187 169.489C304.833 171.628 305.176 173.864 305.215 176.197C305.128 183.362 302.654 189.354 297.794 194.174C292.934 198.993 286.797 201.542 279.381 201.819C271.96 201.734 265.754 199.346 260.762 194.654C255.77 189.962 253.13 184.037 252.844 176.878Z" fill="#FDD908"/>
<path d="M256.938 176.772L257.099 173.876C257.974 168.034 260.705 163.335 265.293 159.779C269.914 156.226 275.392 154.739 281.728 155.317C287.78 156.161 292.647 158.798 296.33 163.228C297.509 164.66 298.487 166.224 299.261 167.921L300.245 170.54C300.79 172.344 301.08 174.23 301.113 176.199C301.039 182.242 298.952 187.296 294.853 191.362C290.754 195.427 285.577 197.577 279.321 197.81C273.062 197.739 267.827 195.724 263.617 191.767C259.406 187.81 257.18 182.811 256.938 176.772Z" fill="#EEAA01"/>
<path d="M257.484 176.737L257.642 173.912C258.495 168.212 261.16 163.628 265.636 160.16C270.143 156.693 275.488 155.242 281.67 155.806C287.573 156.629 292.321 159.202 295.914 163.524C297.065 164.921 298.018 166.447 298.774 168.102L299.734 170.657C300.266 172.417 300.548 174.257 300.58 176.178C300.508 182.073 298.472 187.004 294.473 190.97C290.474 194.936 285.424 197.033 279.321 197.261C273.215 197.191 268.108 195.226 264 191.366C259.893 187.505 257.721 182.629 257.484 176.737Z" fill="#FFB70D"/>
<path d="M275.545 176.773L275.516 183.823L275.551 183.823L275.516 183.823L275.545 176.773Z" fill="#FFE500" fill-opacity="0.996078"/>
<path d="M301.008 222.838L301.199 219.405C302.236 212.479 305.474 206.908 310.913 202.693C316.391 198.48 322.886 196.716 330.398 197.402C337.572 198.402 343.342 201.529 347.708 206.78C349.107 208.478 350.266 210.333 351.185 212.344L352.351 215.45C352.997 217.588 353.34 219.825 353.379 222.158C353.292 229.323 350.818 235.315 345.958 240.135C341.098 244.954 334.961 247.503 327.545 247.78C320.124 247.695 313.918 245.307 308.926 240.615C303.934 235.923 301.294 229.998 301.008 222.838Z" fill="#FDD908"/>
<path d="M305.109 222.733L305.271 219.837C306.146 213.995 308.877 209.296 313.465 205.74C318.086 202.187 323.564 200.7 329.9 201.278C335.952 202.122 340.819 204.759 344.501 209.189C345.681 210.621 346.659 212.185 347.433 213.882L348.417 216.501C348.962 218.305 349.252 220.191 349.285 222.16C349.211 228.203 347.124 233.257 343.025 237.323C338.926 241.388 333.749 243.538 327.493 243.771C321.234 243.7 315.999 241.685 311.788 237.728C307.578 233.77 305.351 228.772 305.109 222.733Z" fill="#EEAA01"/>
<path d="M305.648 222.706L305.806 219.881C306.659 214.181 309.324 209.597 313.8 206.128C318.308 202.662 323.652 201.211 329.834 201.775C335.737 202.598 340.485 205.171 344.078 209.492C345.229 210.889 346.182 212.416 346.938 214.071L347.898 216.626C348.43 218.386 348.712 220.226 348.744 222.147C348.672 228.042 346.637 232.973 342.637 236.939C338.639 240.905 333.588 243.002 327.485 243.23C321.379 243.16 316.272 241.195 312.164 237.334C308.057 233.473 305.885 228.597 305.648 222.706Z" fill="#FFB70D"/>
<path d="M323.717 222.75L323.688 229.8L323.723 229.8L323.688 229.8L323.717 222.75Z" fill="#FFE500" fill-opacity="0.996078"/>
<path d="M348.625 269.354L348.816 265.921C349.853 258.994 353.091 253.424 358.531 249.208C364.008 244.996 370.503 243.232 378.015 243.917C385.189 244.918 390.959 248.044 395.325 253.296C396.725 254.994 397.883 256.848 398.802 258.86L399.968 261.965C400.614 264.104 400.957 266.34 400.996 268.674C400.909 275.839 398.435 281.831 393.575 286.651C388.716 291.47 382.578 294.018 375.162 294.295C367.741 294.211 361.535 291.823 356.543 287.131C351.551 282.439 348.912 276.513 348.625 269.354Z" fill="#FDD908"/>
<path d="M352.727 269.225L352.888 266.329C353.763 260.487 356.494 255.788 361.082 252.233C365.703 248.679 371.181 247.192 377.518 247.77C383.569 248.614 388.436 251.251 392.119 255.681C393.299 257.113 394.276 258.677 395.051 260.374L396.034 262.993C396.579 264.797 396.869 266.683 396.902 268.652C396.828 274.695 394.741 279.75 390.642 283.815C386.543 287.88 381.366 290.03 375.111 290.264C368.851 290.192 363.616 288.178 359.406 284.22C355.195 280.263 352.969 275.264 352.727 269.225Z" fill="#EEAA01"/>
<path d="M353.258 269.222L353.416 266.396C354.269 260.697 356.933 256.113 361.409 252.644C365.917 249.178 371.261 247.726 377.443 248.29C383.346 249.114 388.094 251.686 391.687 256.008C392.838 257.405 393.792 258.931 394.547 260.586L395.507 263.142C396.039 264.902 396.321 266.742 396.354 268.662C396.282 274.558 394.246 279.489 390.247 283.454C386.248 287.421 381.197 289.518 375.095 289.746C368.988 289.676 363.881 287.711 359.774 283.85C355.666 279.989 353.494 275.113 353.258 269.222Z" fill="#FFB70D"/>
<path d="M371.334 269.25L371.305 276.3L371.34 276.3L371.305 276.3L371.334 269.25Z" fill="#FFE500" fill-opacity="0.996078"/>
<rect x="2.24119" y="236.382" width="42.0908" height="61.4652" fill="#6DC6E6" stroke="#C67D21" stroke-width="4.48237"/>
</svg>
