<svg width="601" height="302" viewBox="0 0 601 302" fill="none" xmlns="http://www.w3.org/2000/svg">
<path d="M447.698 165.191L430.74 165.231L413.782 165.271C413.825 193.048 413.867 220.824 413.91 248.601L447.826 248.521C447.783 220.745 447.741 192.968 447.698 165.191Z" fill="white"/>
<path d="M431.014 149.837C431.399 185.469 431.784 221.101 432.169 256.733C480.347 255.938 529.271 255.087 577.449 254.292L577.449 148.049L517.55 148.41L431.014 149.837Z" fill="black"/>
<path d="M413.431 165.15V248.075L407.979 245.378L386.715 228.523L377.718 221.444L368.449 209.309L354.001 187.735L345.005 175.937L316.107 144.25L305.475 130.092L302.477 126.721V124.361V120.653V117.957L304.112 115.934L317.743 102.113L318.833 98.4052L324.558 89.3037L331.919 80.8764L343.369 71.7749L349.366 69.0781H353.728L357.545 71.7749L370.63 83.5731L378.536 91.3263L385.352 94.3601L393.53 102.113L399.8 112.563L406.616 135.485L413.431 165.15Z" fill="#FFC29D" stroke="#FFC29D" stroke-width="1.82"/>
<path d="M345.254 132.82L340.633 140.544L359.66 159.015L365.368 145.918L361.562 138.194L354.767 132.82H345.254Z" fill="#EFECFE" stroke="#02E2AC" stroke-width="1.82"/>
<path d="M319.181 122.652L311.664 130.198H316.579L320.337 125.396L324.385 120.594H322.939L319.181 122.652Z" fill="#FDA76F"/>
<path d="M330.257 110.809L327.203 112.73L333.866 110.809L339.697 106.647L342.751 103.125L338.864 105.046L330.257 110.809Z" fill="#FDA76F"/>
<path d="M359.782 112.14L350.523 104.008L357.876 108.413L365.773 114.512L372.581 120.272L380.206 126.71L372.581 121.966L359.782 112.14Z" fill="#FDA76F"/>
<path d="M359.681 93.5915L353.359 86.5391L363.253 93.5915L369.575 99.3005L373.147 104.002L368.475 100.644L359.681 93.5915Z" fill="#FDA76F" stroke="#FDA76F" stroke-width="1.82"/>
<path d="M331.988 91.7285L320.844 99.6382H322.475L333.619 91.7285L337.968 88.8522L338.512 87.4141H338.24L331.988 91.7285Z" fill="#FDA76F"/>
<path d="M310.883 132.313L308.43 135.298L296.437 152.213L280.629 167.469L257.461 182.726L229.932 195.992L191.228 207.269L165.062 211.249L141.077 211.581L125.813 210.254L120.362 209.259L118.999 209.922L118.727 212.244L120.635 213.571L127.721 214.565L164.79 214.897L192.591 211.249L230.477 200.304L258.551 187.037L281.992 171.449L299.163 154.866L309.793 141.268L315.517 133.64L316.607 130.986L315.517 129.328H314.427L310.883 132.313Z" fill="black" stroke="black" stroke-width="1.82"/>
<path d="M70.1518 231.526C70.7124 231.879 71.1208 231.595 71.3771 230.675C71.5979 231.387 71.8879 231.819 72.2471 231.971C72.5581 232.077 72.8566 231.842 73.1426 231.265C73.4483 230.636 73.7874 229.526 74.1599 227.936C74.2742 227.566 74.8232 224.896 75.8067 219.926C76.1309 221.214 76.3788 222.08 76.5503 222.524C76.7677 223.116 76.995 223.541 77.2321 223.799C77.518 224.109 77.846 224.232 78.2159 224.17C78.607 224.072 78.8704 223.825 79.0061 223.429C79.1187 223.113 79.0949 222.664 78.9346 222.082C78.8703 221.851 78.7829 221.596 78.6723 221.317L78.0123 219.824C77.9322 219.631 77.8872 219.499 77.8772 219.428C78.0923 218.924 77.9792 217.885 77.5379 216.312C76.9726 214.157 76.5365 212.998 76.2297 212.835L75.0912 212.047C74.8279 211.831 74.4233 211.437 73.8775 210.866L69.9488 212.089C69.6637 213.712 69.512 214.844 69.4939 215.485C69.459 216.157 69.5292 216.935 69.7045 217.817C68.5063 220.417 67.9433 221.998 68.0154 222.562C68.0908 223.299 68.376 223.476 68.8711 223.092C68.9993 222.963 69.1408 222.739 69.2957 222.417C69.8107 221.117 70.1142 220.414 70.2063 220.308C68.8601 224.96 68.2638 227.354 68.4172 227.489C68.4199 227.917 68.5216 228.224 68.7223 228.41C68.9038 228.573 69.1086 228.547 69.3368 228.331C69.6238 228.096 70.0581 227.046 70.6398 225.181C70.1415 227.412 69.8661 228.932 69.8137 229.743C69.7366 230.623 69.8455 231.214 70.1405 231.515L70.1518 231.526Z" fill="#FEC5A1"/>
<path d="M0.686088 108.48C0.758511 108.553 0.953996 108.572 1.27255 108.536C1.30241 108.943 1.4498 109.103 1.71473 109.015C1.81107 108.986 1.92453 108.936 2.05512 108.866C3.04204 108.287 3.73199 107.91 4.12497 107.736C4.70427 107.457 5.62457 107.059 6.8859 106.542L6.9105 106.535C6.84077 106.761 6.80872 106.918 6.81435 107.004C6.81568 107.104 6.8463 107.179 6.9062 107.23C7.05419 107.341 7.32895 107.346 7.73045 107.243C8.34634 107.119 9.57345 106.509 11.4118 105.412L15.6049 98.8856C13.1679 98.1715 11.3345 97.8548 10.1047 97.9355C8.79403 97.9594 7.47149 98.4054 6.13713 99.2734C4.29404 100.516 2.79113 101.992 1.62837 103.701L0.97825 105.033C0.943081 105.105 0.923084 105.169 0.918257 105.225C0.909915 105.282 0.935673 105.335 0.995525 105.386L1.4598 105.653C1.50885 105.709 1.52176 105.768 1.49854 105.829C1.47747 105.896 1.40557 105.99 1.28285 106.111L0.48653 106.834C0.390083 106.939 0.337039 107.026 0.327398 107.094C0.284203 107.217 0.400773 107.344 0.677111 107.476C0.499125 107.915 0.500734 108.249 0.681944 108.476L0.686088 108.48Z" fill="#FEC5A1"/>
<path d="M10.9069 105.584L14.2166 107.229L20.7104 99.5474L15.2727 98.1819L14.9894 98.3458C14.5959 98.5847 14.3114 98.8037 14.1359 99.0026C14.0624 99.0843 13.9968 99.169 13.939 99.2567C13.6371 99.7854 13.4649 100.053 13.4225 100.06C13.371 100.11 13.3105 100.148 13.2411 100.176C12.9047 100.272 12.718 100.333 12.6811 100.361C12.5801 100.408 12.4759 100.474 12.3685 100.56C12.0833 100.793 11.8214 101.117 11.5826 101.532C11.093 102.269 10.8677 103.615 10.9069 105.57L10.9069 105.584Z" fill="white"/>
<path d="M12.9175 111.753C12.8512 114.445 13.4268 116.806 14.6444 118.835C16.2417 121.417 18.1426 123.265 20.3471 124.378C21.9143 125.172 23.8963 125.482 26.2932 125.307C28.5819 125.157 32.0024 124.466 36.5544 123.232L17.7793 102.421C15.3446 104.169 14.0429 105.343 13.874 105.944C13.3107 107.111 12.992 109.038 12.9178 111.724L12.9175 111.753Z" fill="#040000"/>
<path d="M15.7506 106.062C15.4603 107.633 15.506 109.293 15.8876 111.041C16.3363 112.924 16.9525 114.178 17.7359 114.804C18.1408 115.085 18.5354 115.097 18.9199 114.841C19.1201 114.72 19.3325 114.544 19.557 114.312L21.1749 112.516C21.4882 112.238 21.8063 112.103 22.1291 112.111C22.3414 112.106 22.6088 112.181 22.9312 112.335L24.8761 113.463L27.654 114.712C27.9555 114.873 28.1268 114.999 28.1678 115.091C28.2496 115.24 28.242 115.394 28.1448 115.554C27.3194 116.722 26.794 117.578 26.5689 118.12C26.3318 118.639 26.1807 119.132 26.1155 119.599C25.9918 120.731 26.361 121.641 27.2232 122.329C27.7561 122.733 28.3656 122.866 29.0516 122.728C29.1885 122.799 30.2295 122.291 32.1748 121.206C32.6105 121.031 32.9725 120.969 33.2609 121.02C33.9574 121.04 34.8493 121.852 35.9365 123.457L39.435 123.912L48.8643 108.117C47.6613 107.315 46.9078 106.699 46.6039 106.27C46.4308 106.056 46.2895 105.822 46.1799 105.569C45.8299 104.413 45.5927 103.767 45.4683 103.63C45.263 103.268 44.9477 102.951 44.5224 102.68C44.1065 102.415 43.4629 102.153 42.5916 101.896L38.3043 100.854C38.1943 100.814 38.0905 100.763 37.9929 100.701C37.6184 100.332 37.2193 100.05 36.7954 99.854C36.0441 99.4798 35.2159 99.1382 34.3108 98.8294C33.3388 98.4874 32.8109 98.4556 32.7271 98.7339C32.1233 97.4409 31.4636 96.7723 30.7481 96.7282C30.1773 96.6398 29.1791 97.2263 27.7536 98.4875C27.2371 98.1373 26.8904 97.9501 26.7135 97.9259C26.607 97.8594 26.3126 97.9321 25.8303 98.1441C25.355 97.8551 24.8751 97.7529 24.3905 97.8374C23.4057 97.9874 22.1553 98.5182 20.6393 99.4296C17.8459 101.116 16.2173 103.322 15.7537 106.046L15.7506 106.062Z" fill="#FEC5A1"/>
<path d="M147.982 175.788C148.745 180.077 149.418 183.145 150.003 184.992C150.592 186.985 151.374 188.702 152.348 190.144C153.578 191.996 155.389 193.798 157.781 195.548C159.201 196.509 160.541 196.791 161.799 196.392C163.667 195.713 164.613 194.275 164.637 192.079C164.632 191.398 164.525 190.558 164.316 189.56C164.377 189.662 163.857 187.582 162.755 183.318C162.517 182.298 162.323 181.28 162.173 180.261C161.799 177.771 161.597 174.858 161.566 171.523L148.002 175.782L147.982 175.788Z" fill="black"/>
<path d="M170.505 37.8311L173.123 35.1829L174.957 36.6296C175.563 35.5948 176.018 34.8591 176.322 34.4228C176.657 33.9324 176.955 33.5696 177.217 33.3343C177.405 33.1601 177.612 33.0432 177.838 32.9837L179.148 32.9704C179.391 32.9243 179.648 32.8024 179.919 32.6045C180.208 32.4025 180.578 32.0568 181.029 31.5676C183.005 29.2124 184.013 28.0554 184.054 28.0963C184.395 27.7379 184.846 27.5114 185.405 27.4168C185.89 25.9877 185.583 24.3223 184.486 22.4205C183.799 21.3002 182.741 20.0471 181.31 18.6612C181.25 18.5401 178.764 16.2555 173.85 11.8074L169.011 7.0188C168.39 6.4396 167.815 5.94846 167.286 5.54538C163.15 2.5545 160.448 1.69334 159.179 2.96191C158.916 3.22539 158.951 3.54767 159.282 3.92874C158.502 5.6513 158.229 6.95263 158.462 7.83273C158.544 8.26024 158.752 8.70891 159.086 9.17875C160.973 11.3153 162.04 12.6373 162.288 13.1445C162.842 14.0292 163.267 14.9571 163.563 15.9282C164.318 18.1119 164.785 22.3829 164.965 28.741L170.499 37.8204L170.505 37.8311Z" fill="black"/>
<path d="M37.8365 123.681L40.5352 125.346C41.8263 128.557 42.6947 131.014 43.1405 132.715C43.4002 133.416 43.7548 135.515 44.2043 139.013C44.3038 139.575 44.458 140.13 44.6668 140.676C44.871 141.439 45.8314 142.951 47.548 145.215L48.9845 150.251C48.9256 150.459 49.7437 151.389 51.4387 153.042C51.8872 153.723 52.2504 154.509 52.5282 155.401L55.4725 167.375C55.7168 168.382 56.7063 170.601 58.4408 174.034C58.6866 174.423 58.4741 175.656 57.8033 177.732C57.7619 178.135 57.7779 178.538 57.8515 178.942C57.9626 179.519 58.1203 180.069 58.3246 180.591C60.1296 184.659 61.0583 187.023 61.1109 187.684C61.2416 188.25 61.325 188.807 61.3611 189.352C61.3817 192.611 61.4979 194.814 61.7095 195.963C61.9856 197.962 62.4214 199.639 63.0169 200.993C63.3526 201.695 63.6846 202.22 64.013 202.568C66.1849 204.388 67.3702 205.668 67.569 206.408C68.2821 207.825 68.927 210.547 69.5037 214.575L77.5233 212.451L75.1549 202.159C74.397 193.316 73.6157 186.815 72.8108 182.656C72.4766 180.5 71.2079 174.83 69.0047 165.646C68.67 164.12 68.3789 162.583 68.1316 161.034C67.5795 157.901 67.1671 152.429 66.8943 144.615C71.1677 143.447 74.021 142.493 75.4543 141.754C76.4596 141.397 78.6597 139.955 82.0546 137.429C82.5718 137.096 83.0953 136.865 83.6249 136.737C83.9742 136.644 84.4183 136.67 84.9573 136.816C86.9823 137.872 87.995 138.291 87.9955 138.075C88.1649 138.268 89.041 137.647 90.6239 136.212C90.9547 135.995 91.3246 135.911 91.7338 135.96C92.1462 136.055 92.5483 136.261 92.9401 136.578C95.1369 138.64 96.3342 139.627 96.5321 139.539C97.2468 139.798 97.8951 139.548 98.477 138.789C98.8985 138.22 99.1846 137.687 99.3354 137.19L102.482 99.2107C100.581 96.6967 94.5231 96.0722 84.3082 97.3371C79.2853 97.8969 74.6938 98.6048 70.5336 99.4609C68.8701 99.6806 63.2787 101.199 53.7596 104.017C48.6152 105.324 45.9273 105.785 45.6959 105.399C47.0315 106.947 47.2549 108.682 46.3662 110.603C46.5505 110.885 44.632 113.668 40.6106 118.951C39.9413 119.961 39.0306 121.512 37.8787 123.605L37.8365 123.681Z" fill="white"/>
<path d="M102.451 99.1402L100.649 109.023L100.636 109.08C99.546 113.07 98.8254 116.183 98.4744 118.418C98.0202 121.078 97.8037 123.948 97.825 127.03C97.8217 129.471 97.9904 133.051 98.3312 137.771L102.572 137.992L101.657 132.577C101.619 127.774 101.792 124.252 102.176 122.011C102.449 120.168 103.025 117.751 103.904 114.76C104.57 112.443 105.814 108.384 107.634 102.584L108.363 100.647C107.335 99.9467 106.483 99.5177 105.807 99.3605C105.112 99.1677 104.002 99.0941 102.477 99.1397L102.451 99.1402Z" fill="black"/>
<path d="M46.9486 107.469C46.7932 108 46.8777 108.434 47.2023 108.771C48.0944 109.734 48.7264 110.179 49.0982 110.106C49.1673 110.067 49.2197 110.005 49.2554 109.919C49.4598 109.178 49.6602 108.708 49.8566 108.509C51.2869 107.368 52.0214 106.7 52.0601 106.504C52.1805 106.325 52.2853 106.133 52.3745 105.927L53.0418 104.316C53.1872 104.124 53.3677 104.107 53.5834 104.263C53.8378 104.448 54.1249 104.767 54.4448 105.219C55.8563 107.486 56.5797 108.571 56.615 108.473L60.9427 112.351C61.7046 113.078 62.5301 113.971 63.4194 115.03L76.6756 131.679L82.9351 131.369L84.8102 123.631L76.4013 112.891C75.3199 111.631 73.8395 110.384 71.9601 109.15C68.7454 107.095 65.9889 105.579 63.6907 104.603C62.7379 104.139 61.277 103.83 59.308 103.676C57.7749 102.745 56.2717 102.25 54.7983 102.192C53.4359 102.102 52.4242 102.288 51.7632 102.749C51.4876 102.935 51.2469 103.154 51.0411 103.405L50.0782 104.834L49.7013 105.246C49.6486 105.41 49.2073 105.457 48.3775 105.387C48.247 105.408 48.0955 105.494 47.9229 105.646C47.5023 106.095 47.1811 106.69 46.9595 107.429L46.9486 107.469Z" fill="black"/>
<path d="M102.245 138.062C104.821 140.424 106.855 141.937 108.345 142.6C109.524 143.284 112.295 144.15 116.66 145.198C117.607 145.517 118.652 146.028 119.794 146.733L130.345 155.047L142.244 163.143C143.491 164.138 144.447 165.278 145.112 166.563C145.324 166.947 145.55 167.547 145.79 168.361C146.472 171.995 146.99 174.16 147.344 174.857C147.944 176.408 148.72 177.451 149.671 177.987C153.009 179.13 157.222 177.084 162.309 171.851C163.363 170.358 163.788 169.07 163.586 167.987C163.545 167.406 163.208 166.549 162.572 165.415C163.049 164.273 162.945 162.319 162.262 159.556C161.85 157.799 161.298 156.326 160.605 155.135C159.638 153.331 157.546 150.698 154.33 147.236C151.871 143.177 149.864 140.18 148.307 138.245C146.509 135.893 143.411 132.804 139.015 128.976L133.27 120.859L143.978 78.7755C146.794 75.4588 148.976 72.0926 150.524 68.677C156.769 62.2043 165.243 51.1075 175.947 35.3865C174.224 32.9708 172.954 31.3735 172.135 30.5946L170.792 29.464C168.223 28.0971 166.934 27.31 166.926 27.1027L163.161 22.1845C162.605 21.5322 161.711 20.813 160.477 20.0269C157.539 24.9875 155.38 28.8283 153.999 31.5493L149.464 42.0551C148.883 43.3276 148.195 44.5174 147.402 45.6245C146.34 47.0947 144.979 48.6285 143.319 50.2261C142.757 50.9026 139.296 53.8789 132.936 59.155C131.558 60.4176 130.484 61.5948 129.714 62.6865C129.141 63.0727 127.43 66.689 124.581 73.5353C120.161 81.5835 117.905 85.8748 117.813 86.4093C116.523 89.2505 115.357 93.1024 114.317 97.965C110.689 95.4576 108.733 95.2692 108.451 97.3998L108.018 101.782C104.305 111.803 102.288 118.427 101.967 121.655C101.269 125.703 101.36 131.158 102.24 138.018L102.245 138.062Z" fill="black"/>
</svg>
