<svg width="500" height="351" viewBox="0 0 500 351" fill="none" xmlns="http://www.w3.org/2000/svg">
<path d="M157.062 289.765L282.36 193.84L331.363 244.15L441.154 171.703L452.242 204.346L325.569 274.899L282.469 225.686L157.062 289.765Z" fill="#165353"/>
<path d="M427.859 154.672V154.672L460.035 223.229C473.357 201.963 486.679 180.697 500.001 159.431L427.859 154.672Z" fill="#165353"/>
<path d="M153.836 285.116L279.134 189.191L328.136 239.502L437.927 167.055L449.015 199.698L322.342 270.25L279.242 221.038L153.836 285.116Z" fill="#FF003A"/>
<path d="M424.625 150.016V150.016L456.801 218.573C470.122 197.307 483.444 176.04 496.766 154.774L424.625 150.016Z" fill="#FF003A"/>
<path d="M3.23438 211.234L128.532 307.16L177.535 256.849L287.326 329.296L298.413 296.653L171.741 226.101L128.641 275.313L3.23438 211.234Z" fill="#165353"/>
<path d="M274.016 346.338V346.338L306.191 277.781C319.513 299.047 332.835 320.313 346.157 341.58L274.016 346.338Z" fill="#165353"/>
<path d="M0 215.867L125.298 311.792L174.3 261.482L284.091 333.929L295.179 301.286L168.506 230.733L125.406 279.946L0 215.867Z" fill="#FF003A"/>
<path d="M270.797 350.979V350.979L302.973 282.422C316.294 303.688 329.616 324.954 342.938 346.22L270.797 350.979Z" fill="#FF003A"/>
<path d="M232.572 0.901013C232.534 1.00894 232.601 1.23683 232.772 1.5847C232.399 1.76268 232.311 1.986 232.509 2.25466C232.578 2.3534 232.674 2.46425 232.796 2.58722C233.77 3.49908 234.425 4.14651 234.759 4.52953C235.273 5.08639 236.047 5.98696 237.08 7.23124L237.097 7.2567C236.853 7.25774 236.691 7.27686 236.611 7.31406C236.517 7.35072 236.459 7.41194 236.437 7.49773C236.396 7.70464 236.51 8.01716 236.78 8.43527C237.163 9.08843 238.27 10.261 240.102 11.9529L248.092 14.3869C247.718 11.3759 247.228 9.18878 246.622 7.82554C246.034 6.35064 245.042 5.01189 243.644 3.80926C241.672 2.16355 239.626 0.985377 237.506 0.274746L235.964 0.010955C235.881 -0.00368592 235.812 -0.00365213 235.756 0.0110597C235.699 0.0216785 235.659 0.0697794 235.637 0.155359L235.584 0.775387C235.552 0.850695 235.502 0.886068 235.434 0.881502C235.362 0.881447 235.241 0.833464 235.074 0.737559L234.046 0.0921586C233.905 0.0202277 233.8 -0.0090845 233.731 0.00421418C233.596 -0.00111581 233.525 0.175916 233.52 0.535314C233.027 0.489566 232.711 0.609498 232.574 0.895109L232.572 0.901013Z" fill="#FEC5A1"/>
<path d="M239.726 11.4363L239.594 15.7646L249.67 20.393L248.621 13.7554L248.343 13.4928C247.947 13.1321 247.617 12.8877 247.353 12.7596C247.244 12.7053 247.135 12.6609 247.027 12.6266C246.396 12.4722 246.069 12.3722 246.044 12.3266C245.975 12.2859 245.912 12.2312 245.856 12.1625C245.62 11.8156 245.481 11.6262 245.439 11.5942C245.352 11.4965 245.244 11.402 245.116 11.3108C244.772 11.0708 244.352 10.8891 243.857 10.7657C242.947 10.4727 241.575 10.6946 239.74 11.4313L239.726 11.4363Z" fill="white"/>
<path d="M234.768 15.8955C232.188 16.7742 230.199 18.2618 228.802 20.3583C227.044 23.0806 226.112 25.8865 226.007 28.7759C225.93 30.8308 226.491 33.1835 227.69 35.834C228.818 38.3713 230.947 41.9974 234.077 46.7121L245.704 18.0926C242.999 15.9561 241.326 14.8987 240.684 14.9205C239.335 14.6965 237.372 15.0182 234.795 15.8856L234.768 15.8955Z" fill="#040000"/>
<path d="M241.365 17.099C239.751 17.3269 238.199 17.9664 236.707 19.0175C235.116 20.1925 234.193 21.3341 233.938 22.4422C233.847 22.9999 234.005 23.451 234.413 23.7953C234.614 23.9792 234.872 24.1571 235.189 24.3291L237.588 25.5236C237.986 25.7799 238.251 26.092 238.383 26.46C238.479 26.6987 238.523 27.0278 238.516 27.4472L238.285 30.0481L238.3 33.634C238.277 34.0324 238.231 34.2711 238.161 34.3501C238.055 34.4954 237.906 34.5414 237.713 34.488C236.25 33.9676 235.213 33.6761 234.602 33.6134C234.008 33.529 233.476 33.5325 233.006 33.6242C231.88 33.885 231.177 34.6252 230.896 35.8447C230.744 36.5909 230.88 37.3277 231.307 38.0551C231.299 38.2352 232.228 39.2338 234.095 41.0509C234.448 41.4818 234.663 41.8696 234.739 42.2142C235.02 43.0096 234.635 44.3066 233.583 46.1052L234.659 50.226L253.689 55.3025C253.93 53.657 254.188 52.5863 254.464 52.0903C254.592 51.8185 254.753 51.5758 254.945 51.3622C255.89 50.5565 256.4 50.0591 256.476 49.87C256.731 49.5093 256.895 49.0403 256.969 48.4629C257.041 47.8983 257.011 47.0773 256.88 45.9998L256.346 40.7044C256.329 40.8366 256.336 40.5658 256.346 40.7044C256.346 40.1176 256.313 39.2662 256.316 38.7171C256.347 37.7343 256.314 36.6761 256.216 35.5422C256.121 34.3211 255.924 33.7124 255.624 33.716C256.589 32.5747 256.939 31.5914 256.672 30.766C256.51 30.0886 255.524 29.1666 253.714 28C253.824 27.2915 253.852 26.8329 253.798 26.624C253.816 26.4799 253.62 26.1725 253.211 25.7018C253.28 25.0616 253.17 24.4822 252.881 23.9636C252.315 22.9023 251.273 21.6753 249.756 20.2825C246.954 17.7185 244.163 16.6566 241.381 17.0967L241.365 17.099Z" fill="#FEC5A1"/>
<path d="M138.649 126.205C138.525 127.224 139.122 127.709 140.44 127.661C139.662 128.335 139.281 128.981 139.295 129.599C139.34 130.121 139.812 130.463 140.71 130.623C141.687 130.789 143.295 130.776 145.533 130.586C146.069 130.584 149.781 130.148 156.67 129.279C155.22 130.384 154.262 131.172 153.796 131.644C153.169 132.256 152.76 132.803 152.57 133.285C152.341 133.867 152.374 134.424 152.667 134.956C153.017 135.504 153.484 135.786 154.066 135.804C154.533 135.825 155.09 135.575 155.738 135.055C155.994 134.848 156.268 134.594 156.558 134.293L158.076 132.581C158.274 132.368 158.416 132.237 158.501 132.187C159.266 132.275 160.521 131.609 162.267 130.191C164.681 128.308 165.902 127.094 165.931 126.551L166.275 124.447C166.397 123.945 166.664 123.143 167.075 122.042L163.248 116.656C161.019 116.995 159.491 117.303 158.666 117.58C157.791 117.846 156.843 118.323 155.822 119.008C151.824 118.424 149.487 118.321 148.812 118.699C147.918 119.163 147.858 119.681 148.633 120.25C148.871 120.384 149.238 120.492 149.736 120.574C151.688 120.738 152.757 120.865 152.946 120.954C146.251 121.122 142.862 121.354 142.779 121.651C142.236 121.859 141.905 122.159 141.785 122.552C141.682 122.905 141.834 123.204 142.24 123.448C142.706 123.772 144.292 123.933 146.999 123.93C143.874 124.233 141.782 124.538 140.721 124.843C139.557 125.145 138.869 125.591 138.656 126.182L138.649 126.205Z" fill="#FEC5A1"/>
<path d="M232.273 191.461C228.538 193.844 225.922 195.693 224.424 197.008C222.789 198.381 221.499 199.874 220.553 201.487C219.328 203.535 218.402 206.222 217.774 209.55C217.475 211.498 217.786 213.113 218.706 214.396C220.154 216.27 221.924 216.831 224.016 216.08C224.659 215.833 225.408 215.415 226.264 214.824C226.193 214.93 227.94 213.604 231.505 210.847C232.369 210.217 233.251 209.636 234.151 209.106C236.349 207.801 239.022 206.54 242.168 205.324L232.288 191.481L232.273 191.461Z" fill="black"/>
<path d="M378.117 170.312L382.241 171.116L382.521 173.739C383.809 173.662 384.743 173.63 385.324 173.643C385.971 173.652 386.49 173.706 386.879 173.805C387.162 173.872 387.415 173.993 387.638 174.168L388.665 175.389C388.89 175.588 389.185 175.753 389.552 175.884C389.936 176.029 390.496 176.161 391.233 176.279C394.628 176.664 396.325 176.889 396.324 176.953C396.872 177.05 397.4 177.331 397.909 177.796C399.415 177.361 400.494 176.036 401.147 173.821C401.5 172.479 401.67 170.705 401.656 168.5C401.705 168.369 401.583 164.613 401.288 157.233L401.321 149.711C401.298 148.767 401.24 147.922 401.148 147.174C400.305 141.432 398.89 138.361 396.902 137.962C396.49 137.879 396.262 138.112 396.218 138.66C394.25 139.002 393.009 139.557 392.495 140.324C392.22 140.667 392.027 141.142 391.914 141.748C391.689 144.849 391.471 146.674 391.262 147.222C390.992 148.293 390.589 149.27 390.051 150.153C388.909 152.221 385.895 155.321 381.007 159.452L378.121 170.299L378.117 170.312Z" fill="black"/>
<path d="M248.312 126.322C247.184 130.075 246.627 132.912 246.641 134.834C246.5 136.41 246.874 139.853 247.762 145.164C247.868 146.349 247.834 147.712 247.659 149.254L244.328 164.14L241.785 180.474C241.38 182.238 240.712 183.724 239.781 184.932C239.508 185.308 239.037 185.776 238.369 186.336C235.22 188.395 233.392 189.749 232.884 190.396C231.674 191.624 231.02 192.872 230.922 194.138C231.277 198.32 235.03 202.363 242.181 206.268C244.05 206.931 245.454 206.956 246.393 206.343C246.926 206.092 247.592 205.406 248.393 204.285C249.681 204.42 251.487 203.611 253.81 201.859C255.298 200.771 256.456 199.624 257.285 198.417C258.578 196.684 260.171 193.384 262.065 188.518C264.851 184.298 266.825 180.964 267.988 178.517C269.441 175.649 271.034 171.049 272.766 164.718L277.981 155.34L322.469 152.553C326.825 154.566 330.955 155.843 334.858 156.385C343.682 161.159 357.848 166.819 377.356 173.365C378.902 170.56 379.868 168.556 380.254 167.354L380.746 165.433C380.934 162.041 381.124 160.304 381.317 160.221L384.354 154.218C384.733 153.358 385.029 152.091 385.242 150.416C379.276 148.848 374.706 147.765 371.533 147.166L359.625 145.755C358.169 145.548 356.745 145.192 355.354 144.686C353.504 144.005 351.464 143.007 349.235 141.695C348.352 141.299 344.04 138.436 336.3 133.106C334.51 131.994 332.932 131.196 331.566 130.711C330.953 130.199 326.789 129.544 319.075 128.745C309.544 126.593 304.506 125.56 303.96 125.645C300.712 125.191 296.561 125.237 291.505 125.782C292.317 120.787 291.653 118.508 289.513 118.943L285.174 120.005C274.079 119.352 266.933 119.416 263.738 120.197C259.601 120.84 254.472 122.875 248.351 126.301L248.312 126.322Z" fill="black"/>
<path d="M234.184 48.3203L233.77 51.9641C231.284 54.5629 229.33 56.4159 227.91 57.523C227.359 58.0651 225.523 59.21 222.402 60.9577C221.912 61.2697 221.453 61.6407 221.025 62.0704C220.391 62.5715 219.371 64.1943 217.966 66.9387L213.813 70.3483C213.592 70.3553 213.063 71.6106 212.227 74.1144C211.776 74.8629 211.187 75.5525 210.461 76.183L200.385 83.7562C199.537 84.3894 197.86 86.2955 195.355 89.4744C195.092 89.8904 193.833 90.0865 191.576 90.0628C191.177 90.1585 190.802 90.3196 190.451 90.5458C189.952 90.8758 189.499 91.249 189.093 91.6654C186.016 95.149 184.176 97.0376 183.573 97.331C183.092 97.6797 182.601 97.9711 182.1 98.2051C179.022 99.3827 176.984 100.295 175.986 100.941C174.211 101.962 172.811 103.049 171.784 104.202C171.264 104.831 170.91 105.393 170.721 105.888C169.932 108.99 169.23 110.785 168.616 111.272C167.58 112.581 165.278 114.275 161.711 116.354L167.18 124.678L175.91 118.352C183.962 114.363 189.785 111.175 193.379 108.791C195.277 107.649 200.103 104.205 207.855 98.4589C209.157 97.5394 210.488 96.6655 211.849 95.837C214.579 94.1028 219.586 91.6975 226.872 88.6212C229.821 93.0435 231.954 95.9348 233.271 97.2953C234.044 98.3063 236.358 100.286 240.214 103.233C240.753 103.7 241.197 104.211 241.546 104.765C241.785 105.127 241.951 105.639 242.046 106.301C241.918 108.967 241.957 110.261 242.163 110.185C242.052 110.445 243.018 111.217 245.059 112.5C245.408 112.798 245.647 113.186 245.777 113.667C245.864 114.167 245.843 114.695 245.711 115.251C244.704 118.468 244.285 120.172 244.453 120.365C244.516 121.266 245.032 121.911 246.002 122.301C246.723 122.576 247.352 122.711 247.888 122.706L285.228 112.814C286.791 109.772 284.772 102.695 279.171 91.5825C276.476 86.0963 273.827 81.1507 271.223 76.7458C270.298 74.9409 266.45 69.1509 259.678 59.3758C256.222 54.0169 254.627 51.1381 254.894 50.7393C254.002 52.7993 252.455 53.6666 250.252 53.3412C250.063 53.65 246.599 52.4646 239.861 49.7848C238.616 49.3847 236.754 48.9035 234.275 48.3412L234.184 48.3203Z" fill="white"/>
<path d="M285.275 112.773L275.136 114.235L275.076 114.241C270.826 114.42 267.566 114.707 265.296 115.102C262.581 115.53 259.768 116.302 256.857 117.417C254.543 118.278 251.223 119.737 246.898 121.795L248.516 126.672L253.252 123.719C257.787 121.975 261.199 120.923 263.487 120.563C265.352 120.219 267.89 120.015 271.102 119.951C273.584 119.884 277.966 119.854 284.246 119.86L286.395 119.998C286.616 118.587 286.655 117.471 286.513 116.65C286.396 115.795 285.988 114.513 285.288 112.804L285.275 112.773Z" fill="black"/>
<path d="M253.488 52.9087C252.917 52.9211 252.542 53.1706 252.363 53.6573C251.836 55.0078 251.686 55.8806 251.915 56.2758C251.982 56.3403 252.064 56.3775 252.161 56.3872C252.95 56.3561 253.482 56.4164 253.756 56.5681C255.453 57.7827 256.403 58.3773 256.604 58.3518C256.826 58.4247 257.053 58.4752 257.287 58.5033L259.1 58.6879C259.345 58.7845 259.44 58.9825 259.385 59.282C259.319 59.6355 259.14 60.0732 258.85 60.5954C257.31 62.996 256.594 64.1989 256.702 64.2041L254.893 70.4756C254.532 71.5952 254.042 72.8458 253.421 74.2275L243.359 95.1273L246.351 102.101L254.49 101.483L261.043 88.1618C261.77 86.4917 262.314 84.3745 262.674 81.8103C263.235 77.4443 263.483 73.788 263.417 70.8414C263.447 69.5987 263.11 67.8358 262.408 65.5528C262.629 63.488 262.45 61.6116 261.87 59.9234C261.368 58.3497 260.756 57.2704 260.035 56.6857C259.739 56.44 259.428 56.245 259.102 56.1009L257.333 55.5173L256.78 55.2368C256.602 55.2353 256.367 54.7525 256.076 53.7885C256 53.6482 255.853 53.5072 255.634 53.3657C255.028 53.0488 254.326 52.8958 253.531 52.9068L253.488 52.9087Z" fill="black"/>
<path d="M249.52 26.0828L249.52 26.0828C249.002 26.3815 248.591 26.6518 248.287 26.8938C247.966 27.1591 247.741 27.4077 247.613 27.6394C247.55 27.7476 247.496 27.8608 247.452 27.979C247.421 28.0333 247.373 28.2194 247.308 28.5374C247.252 28.8598 247.228 29.3388 247.235 29.9745L249.52 26.0828Z" fill="black"/>
<path d="M249.685 28.2891V28.2891L248.93 30.2966C249.525 30.1513 250.12 30.0059 250.716 29.8605L249.685 28.2891Z" fill="white"/>
<path d="M249.672 28.3828L249.764 28.3934C249.916 28.4125 250.005 28.4255 250.033 28.4324C250.173 28.4632 250.254 28.485 250.276 28.4978C250.325 28.5166 250.371 28.5392 250.414 28.5658L250.473 28.6093C250.511 28.6405 250.543 28.6771 250.57 28.7191L250.606 28.7865L250.634 28.862L250.655 28.9448C250.667 29.0025 250.674 29.0641 250.678 29.1295C250.69 29.2912 250.677 29.5477 250.638 29.8989L249.672 28.3828Z" fill="black"/>
</svg>
