<svg width="402" height="401" viewBox="0 0 402 401" fill="none" xmlns="http://www.w3.org/2000/svg">
<ellipse rx="4.80918" ry="4.97617" transform="matrix(-0.341412 0.939914 -0.948793 -0.315898 245.801 48.2373)" fill="#C20BBB"/>
<path d="M201.498 137.253L183.206 120.221C156.59 149.516 104.623 208.175 109.689 208.448C114.754 208.72 173.005 161.098 201.498 137.253Z" fill="#AA6DA9"/>
<path d="M172.157 98.72C170.346 87.6048 173.991 68.9518 176.04 61.0146C146.103 92.6192 88.0014 156.016 95.0983 156.767C102.195 157.517 149.427 118.382 172.157 98.72Z" fill="#6E3FF9"/>
<path d="M222.016 144.698C233.627 146.425 253.108 142.926 261.398 140.96C228.401 169.638 162.212 225.296 161.425 218.502C160.637 211.708 201.491 166.468 222.016 144.698Z" fill="#E5AC51"/>
<ellipse cx="247.576" cy="72.2294" rx="57.2165" ry="53.8095" fill="#6E3FF9"/>
<ellipse cx="261.753" cy="55.2638" rx="58.2292" ry="55.2638" fill="#EFECFE"/>
<path d="M316.799 297.431C316.325 355.008 267.188 401.315 207.05 400.86C146.911 400.407 98.5444 353.363 99.0191 295.786C99.4938 238.21 148.63 191.902 208.769 192.357C268.907 192.811 317.274 239.854 316.799 297.431Z" fill="#66CFFF"/>
<path d="M265.408 250.354C265.408 250.354 241.89 254.825 233.519 250.444C233.519 250.444 227.966 243.435 212.142 249.291C212.142 249.291 184.329 265.009 183.835 280.942C183.835 280.942 175.868 312.421 204.925 316.952C204.925 316.952 235.497 307.559 239.259 318.873C239.259 318.873 240.198 332.825 242.981 335.832C242.981 335.832 247.48 342.278 247.1 346.15C247.1 346.15 243.832 359.07 247.966 369.067C247.966 369.067 250.692 377.717 250.322 380.37C250.322 380.37 277.029 373.264 285.633 349.431C285.633 349.431 290.68 332.872 291.064 328.557C291.064 328.557 298.229 309.358 300.034 303.398C300.034 303.398 306.492 285.518 295.952 287.767C295.952 287.767 288.642 281.069 283.431 276.048C278.21 271.029 268.204 252.033 265.408 250.354Z" fill="#5C9340"/>
<path d="M288.662 275.418L259.432 249.3C259.432 249.3 265.786 244.039 263.71 241.04C261.635 238.032 257.043 241.981 253.185 241.952C249.336 241.923 244.053 244.87 241.972 242.195C239.89 239.523 238.485 240.176 236.364 241.825C234.247 243.468 230.371 246.097 230.032 244.43C229.698 242.768 223.381 243.388 223.047 241.724C222.713 240.061 224.141 235.426 220.981 236.396C217.83 237.364 213.238 240.659 212.525 242.309C211.811 243.965 209.322 248.922 206.86 248.903C204.405 248.885 198.087 250.165 197.052 248.165C196.016 246.165 193.968 239.506 196.091 237.537C198.207 235.557 208.478 237.743 208.02 235.304C207.567 232.868 206.398 227.516 207.95 226.768C209.51 226.025 213.778 217.422 216.596 216.448C219.401 215.475 226.736 219.181 227.81 216.864C227.81 216.864 228.215 209.896 226.821 208.888C225.425 207.88 224.392 204.892 221.953 205.195C219.483 205.509 218.415 207.829 220.162 208.838C221.915 209.846 223.276 213.84 222.224 213.832C221.162 213.824 211.702 214.417 211.369 212.095C211.033 209.767 212.484 204.131 215.648 202.166C218.833 200.202 225.482 200.579 227.577 201.592C229.679 202.603 232.143 200.63 232.863 198.977C233.57 197.326 222.956 191.688 219.798 191.664C219.798 191.664 302.816 198.227 316.403 279.643C316.403 279.643 307.787 251.661 301.842 249.958C301.842 249.958 298.67 251.926 296.57 251.577C294.469 251.228 284.008 244.838 283.294 246.498C282.573 248.151 288.137 253.835 294.103 254.541C300.042 255.253 300.395 255.92 300.713 258.912C301.043 261.898 302.056 266.557 301.338 269.534C300.604 272.516 296.326 281.449 288.662 275.418Z" fill="#5C9340"/>
<path d="M202.233 215.674C202.233 215.674 199.423 217.311 197.997 219.619C196.571 221.934 196.555 223.926 196.555 223.926C196.555 223.926 198.328 224.931 200.121 224.95C201.922 224.97 206.728 223.345 206.747 221.019C206.766 218.694 202.233 215.674 202.233 215.674Z" fill="#5C9340"/>
<path d="M198.21 195.734C198.21 195.734 189.717 205.297 185.506 206.263C181.288 207.228 174.254 210.489 172.494 211.81C170.728 213.125 164.789 210.757 168.314 208.127C171.846 205.492 181.35 199.588 179.259 198.914C177.161 198.237 167.644 204.475 163.77 207.098C159.886 209.725 156.702 213.676 154.938 216.321C153.155 218.964 153.452 225.937 149.589 227.236C145.71 228.535 128.835 235.045 123.196 239.654C117.548 244.256 111.48 247.639 108.98 252.268C106.493 256.898 110.282 244.859 112.487 240.423C112.487 240.423 127.602 215.12 161.733 199.439C161.726 199.443 187.712 193.335 198.21 195.734Z" fill="#5C9340"/>
<path d="M99.1057 311.843C99.1057 311.843 95.7433 293.889 99.6092 292.26C103.474 290.631 104.643 290.288 108.018 293.652C111.374 297.013 115.996 302.675 117.72 305.678C119.464 308.674 125.741 312.372 125.722 314.695C125.702 317.02 124.25 322.655 125.634 325.318C127.005 327.985 129.107 328.334 132.257 329.686C135.401 331.034 141.343 333.069 144.815 336.088C148.294 339.103 153.181 342.788 152.093 346.764C151.006 350.74 148.856 356.696 149.537 359.021C150.218 361.351 152.64 365.352 149.826 366.995C147.003 368.633 144.905 368.289 145.233 371.272C145.563 374.264 149 383.577 150.035 385.244C150.033 385.243 106.479 367.107 99.1057 311.843Z" fill="#5C9340"/>
<ellipse rx="1.39483" ry="1.41719" transform="matrix(0.580002 0.814615 -0.837439 0.546531 273.708 325.282)" fill="#C20BBB"/>
<ellipse rx="2.20442" ry="2.22963" transform="matrix(-0.624372 -0.781127 0.806661 -0.591014 75.5472 286.829)" fill="#C20BBB"/>
<ellipse rx="2.25835" ry="2.17498" transform="matrix(-0.968195 0.250197 -0.271347 -0.962481 327.95 309.134)" fill="#C20BBB"/>
<path d="M274.168 359.303C275.899 357.584 275.837 354.822 273.984 353.135C272.164 351.476 269.279 351.564 267.551 353.308C265.82 355.055 265.912 357.817 267.732 359.476C268.612 360.291 269.736 360.669 270.86 360.669C272.072 360.669 273.258 360.232 274.168 359.303Z" fill="#D3D73A"/>
<path d="M291.982 336.741C293.289 335.133 292.589 333.049 290.435 332.076C288.281 331.1 285.489 331.622 284.185 333.23C282.879 334.816 283.578 336.922 285.732 337.895C286.461 338.214 287.279 338.371 288.067 338.371C289.617 338.371 291.102 337.805 291.982 336.741Z" fill="#D3D73A"/>
<path d="M304.559 310.855C305.351 309.091 304.105 307.146 301.705 306.558C299.304 305.947 296.72 306.898 295.931 308.685C295.112 310.446 296.388 312.391 298.788 312.979C299.275 313.091 299.758 313.16 300.245 313.16C302.129 313.16 303.921 312.279 304.559 310.855Z" fill="#D3D73A"/>
<path d="M316.957 276.29C319.086 275.302 319.991 272.839 318.956 270.801C317.948 268.754 315.37 267.886 313.232 268.849C311.08 269.845 310.173 272.312 311.207 274.348C312.177 276.291 314.51 277.157 316.535 276.466C316.67 276.42 316.823 276.336 316.957 276.29Z" fill="#D3D73A"/>
<path d="M284.555 286.942C286.655 285.875 287.432 283.396 286.316 281.386C285.2 279.378 282.598 278.604 280.51 279.695C278.411 280.761 277.605 283.251 278.721 285.261C279.734 287.073 281.983 287.879 283.982 287.197C284.172 287.132 284.349 287.041 284.555 286.942Z" fill="#D3D73A"/>
<path d="M297.679 333.589L297.044 333.892C292.718 335.883 289.997 337.626 288.882 339.122L287.614 340.748C283.371 347.356 280.515 351.564 279.046 353.371C276.462 356.745 274.352 359.081 272.717 360.379C270.715 362.069 268.194 363.467 265.154 364.571C261.671 365.85 259.214 366.318 257.783 365.975C252.17 364.932 245.427 363.79 237.556 362.547C235.206 362.075 233.608 361.67 232.764 361.333C231.584 360.924 230.498 360.418 229.505 359.815L222.771 355.204L220.723 354.291L215.257 352.378C214.587 352.135 213.587 351.507 212.256 350.493L205.849 344.312C205.18 343.623 204.702 342.876 204.417 342.071C203.984 338.31 205.114 336.308 207.808 336.066L203.668 325.531C203.229 323.641 203.441 322.583 204.305 322.359C205.313 321.907 206.76 321.813 208.645 322.076C209.971 322.578 211.44 323.445 213.052 324.679C214.815 325.929 216.055 328.241 216.771 331.613C218.643 332.555 220.238 333.596 221.554 334.735L228.066 341.664C228.928 342.521 230.145 343.467 231.718 344.5C233.112 345.353 234.381 345.885 235.527 346.096L241.201 346.952C241.942 347.026 242.434 347.021 242.677 346.936C242.958 346.925 243.345 346.69 243.838 346.229C245.261 343.571 246.825 341.551 248.53 340.168L250.698 338.629C254.252 336.586 257.453 334.546 260.302 332.508C262.696 330.777 264.547 329.148 265.854 327.619C266.762 326.674 267.973 324.922 269.489 322.364L276.8 308.709C278.426 306.279 279.648 304.788 280.465 304.236C283.227 301.644 287.953 300.792 294.642 301.679C298.199 302.061 302.158 303.006 306.518 304.515L297.679 333.589Z" fill="#FFC5A1" fill-opacity="0.996078"/>
<path d="M250.086 342.036L250.086 342.036C248.345 343.766 247.344 344.925 247.084 345.514C246.54 346.394 246.354 347.282 246.525 348.178C246.585 348.473 246.682 348.757 246.815 349.031C246.948 349.305 247.111 349.561 247.306 349.798L247.617 350.133C248.364 350.799 249.144 351.121 249.958 351.098C250.327 351.102 250.771 351.027 251.291 350.874C251.423 350.855 251.848 350.684 252.566 350.363C252.707 350.309 253.149 350.068 253.893 349.641C254.341 349.381 255.1 348.895 256.171 348.184L250.086 342.036Z" fill="#FFF1E8" fill-opacity="0.996078"/>
<path d="M317.615 298.969L307.295 298.583L296.974 298.198C296.439 311.267 295.904 324.336 295.369 337.405L316.01 338.176C316.545 325.107 317.08 312.038 317.615 298.969Z" fill="white" fill-opacity="0.996078"/>
<path d="M390.659 292.934L337.533 292.934L311.513 293.343C311.798 309.911 312.083 326.48 312.367 343.049C329.714 342.777 373.312 340.441 390.659 340.169L390.659 292.934Z" fill="#222B32" fill-opacity="0.996078"/>
<path d="M298.099 256.215L297.482 255.88C293.278 253.674 290.663 251.798 289.636 250.253L288.464 248.57C284.61 241.78 282.002 237.448 280.64 235.574C278.255 232.086 276.284 229.654 274.727 228.278C272.826 226.492 270.389 224.971 267.418 223.713C264.015 222.258 261.589 221.664 260.141 221.93C254.476 222.671 247.678 223.451 239.748 224.271C237.374 224.617 235.756 224.935 234.893 225.225C233.692 225.57 232.578 226.015 231.552 226.562L224.562 230.79L222.464 231.589L216.896 233.202C216.214 233.408 215.179 233.98 213.792 234.918L207.037 240.723C206.329 241.372 205.809 242.09 205.477 242.874C204.828 246.589 205.84 248.638 208.516 249.021L203.773 259.272C203.225 261.127 203.376 262.189 204.225 262.458C205.206 262.96 206.645 263.13 208.542 262.967C209.895 262.539 211.412 261.754 213.092 260.613C214.925 259.463 216.296 257.231 217.207 253.918C219.131 253.08 220.782 252.13 222.162 251.067L229.065 244.524C229.975 243.718 231.245 242.842 232.875 241.898C234.316 241.124 235.614 240.663 236.77 240.513L242.485 239.961C243.229 239.926 243.719 239.957 243.957 240.055C244.237 240.08 244.61 240.334 245.076 240.818C246.343 243.534 247.788 245.625 249.41 247.089L251.485 248.733C254.915 250.949 257.993 253.146 260.719 255.321C263.009 257.167 264.763 258.884 265.979 260.472C266.831 261.459 267.939 263.264 269.305 265.885L275.814 279.84C277.296 282.341 278.43 283.887 279.214 284.478C281.821 287.199 286.49 288.295 293.22 287.766C296.794 287.574 300.801 286.843 305.241 285.573L298.099 256.215Z" fill="#FFC5A1" fill-opacity="0.996078"/>
<path d="M251.079 245.316L251.079 245.316C249.441 243.505 248.509 242.301 248.283 241.702C247.792 240.799 247.657 239.907 247.88 239.025C247.957 238.735 248.07 238.457 248.218 238.192C248.367 237.927 248.545 237.682 248.753 237.457L249.083 237.14C249.867 236.517 250.664 236.239 251.476 236.304C251.844 236.319 252.284 236.417 252.794 236.597C252.925 236.623 253.339 236.814 254.037 237.172C254.174 237.233 254.602 237.496 255.321 237.959C255.753 238.241 256.483 238.764 257.511 239.527L251.079 245.316Z" fill="#FFF1E8" fill-opacity="0.996078"/>
<path d="M316 291.663L305.674 291.503L295.347 291.343C295.569 278.327 295.791 265.311 296.013 252.296L316.665 252.616C316.443 265.632 316.222 278.648 316 291.663Z" fill="white" fill-opacity="0.996078"/>
<path d="M390.637 290.321L335.447 291.549L310.725 291.744C311.967 275.293 312.051 264.042 313.294 247.591C330.597 248.775 373.334 249.774 390.637 250.958L390.637 276.57L390.637 290.321Z" fill="#222B32" fill-opacity="0.996078"/>
<path d="M241.363 310.006C242.056 309.998 242.427 309.99 242.434 309.982C242.463 309.913 242.476 302.172 242.46 292.761L242.442 275.652L206.454 275.617L170.466 275.595L170.469 292.843L170.472 310.091L206.417 310.085C223.221 310.082 237.444 310.05 241.363 310.006ZM229.851 303.181L206.46 303.186L183.068 303.19L229.851 303.181ZM206.296 284.264C206.308 284.264 206.32 284.264 206.332 284.264C206.344 284.264 206.355 284.263 206.367 284.263L206.296 284.264ZM229.775 282.484L183.036 282.493L206.412 282.488L229.775 282.484Z" fill="#26785F"/>
<path d="M208.5 302.289C210.114 302 211.787 301.198 212.982 300.136C214.136 299.101 214.813 298.107 215.388 296.645C215.792 295.637 215.821 295.402 215.821 293.815C215.82 292.27 215.776 291.98 215.416 291.056C214.652 289.042 213.311 287.469 211.539 286.448C208.18 284.517 203.698 284.946 200.874 287.457C197.574 290.397 196.954 295.019 199.405 298.551C201.366 301.381 205.07 302.897 208.5 302.289Z" fill="#26785F"/>
<path d="M206.983 302.425C204.026 302.426 201.085 300.967 199.412 298.554C196.961 295.022 197.581 290.4 200.881 287.46C202.52 286.003 204.717 285.246 206.929 285.246C208.529 285.246 210.136 285.641 211.546 286.451C213.319 287.472 214.659 289.045 215.423 291.059C215.783 291.983 215.827 292.273 215.828 293.818C215.828 295.405 215.799 295.64 215.395 296.648C214.82 298.111 214.143 299.104 212.989 300.139C211.794 301.202 210.121 302.003 208.507 302.292C208.003 302.382 207.493 302.425 206.983 302.425ZM230.342 304.164L230.342 303.765C230.343 302.84 231.048 301.405 231.913 300.577C232.72 299.804 233.743 299.265 234.664 299.127C235.948 298.948 235.818 299.527 235.817 293.815L235.816 288.71L235.485 288.655C235.311 288.613 234.908 288.544 234.592 288.503C233.251 288.296 231.593 287.069 230.901 285.785C230.756 285.509 230.555 284.875 230.454 284.378L230.267 283.467L183.528 283.476L183.427 284.207C183.297 285.104 182.793 286.14 182.13 286.899C181.467 287.629 180.011 288.416 179.089 288.526C178.699 288.582 178.311 288.678 178.224 288.733C178.052 288.871 178.053 298.641 178.226 298.903C178.27 298.971 178.658 299.082 179.091 299.123C179.596 299.193 180.172 299.399 180.72 299.703C182.219 300.545 183.084 301.731 183.401 303.373L183.56 304.173L230.342 304.164Z" fill="#2AAF86"/>
<rect x="143.827" y="274.472" width="39.3967" height="35.6888" rx="13.8011" fill="#A8A8A6" stroke="black" stroke-width="2.12324"/>
<path d="M2 297.464V289.003H52.8754V278.989H83.6873L99.9889 267.594H150.864V318.01H99.9889L83.6873 305.924H52.8754V297.464H2Z" fill="black" stroke="black" stroke-width="2.12324"/>
<rect x="100.227" y="277.291" width="44.558" height="31.0253" rx="15.5126" fill="#262525"/>
<path d="M183.274 290.863H178.075V294.741H171.442V292.221H153.872V294.741H145.805" stroke="black" stroke-width="2.12324"/>
<rect x="164.077" y="280.29" width="5.97822" height="4.66354" fill="#C4C4C4"/>
<rect x="164.077" y="280.29" width="5.97822" height="4.66354" fill="white"/>
<rect x="164.077" y="280.29" width="5.97822" height="4.66354" stroke="black" stroke-width="2.12324"/>
<rect x="164.077" y="298.712" width="5.97822" height="6.60262" fill="#C4C4C4"/>
<rect x="164.077" y="298.712" width="5.97822" height="6.60262" fill="white"/>
<rect x="164.077" y="298.712" width="5.97822" height="6.60262" stroke="black" stroke-width="2.12324"/>
</svg>
