<svg width="400" height="400" viewBox="0 0 400 400" fill="none" xmlns="http://www.w3.org/2000/svg">
<path d="M234.571 206.357L210.188 180.277C174.707 225.134 105.434 314.952 112.186 315.37C118.939 315.787 196.589 242.868 234.571 206.357Z" fill="#AA6DA9"/>
<path d="M196.263 149.073C193.877 131.969 198.682 103.266 201.382 91.0528C161.924 139.685 85.3451 237.238 94.6989 238.393C104.053 239.548 166.306 179.327 196.263 149.073Z" fill="#6E3FF9" fill-opacity="0.2"/>
<path d="M261.968 219.816C277.271 222.475 302.948 217.09 313.873 214.066C270.384 258.194 183.145 343.838 182.107 333.383C181.069 322.929 234.915 253.316 261.968 219.816Z" fill="#E5AC51" fill-opacity="0.2"/>
<ellipse cx="295.988" cy="108.299" rx="76.4805" ry="85.2643" fill="#6E3FF9" fill-opacity="0.5"/>
<path d="M207.468 203.672L19.1996 299.645L19.1996 345.487L180.476 345.488L207.468 203.672Z" fill="white" fill-opacity="0.113725"/>
<path d="M195.697 203.166L205.373 211.66L215.05 220.154C210.868 224.919 206.687 229.685 202.506 234.45C196.055 228.787 189.604 223.125 183.153 217.462C187.334 212.697 191.516 207.931 195.697 203.166Z" fill="#313440"/>
<path d="M192.131 181.385L214.623 201.129L237.116 220.874C232.088 226.604 227.059 232.335 222.031 238.066C207.036 224.903 192.041 211.741 177.045 198.578C182.074 192.847 187.102 187.116 192.131 181.385Z" fill="#3F434F"/>
<path d="M213.157 144.892L241.522 169.79L269.887 194.689C258.427 207.749 246.968 220.809 235.509 233.868C216.599 217.269 197.689 200.67 178.779 184.071C190.239 171.011 201.698 157.951 213.157 144.892Z" fill="#292B37"/>
<path d="M358.445 36.2278C330.597 11.7831 286.363 16.3376 259.837 46.5695C258.877 47.6629 257.811 49.1181 256.745 50.5735C250.971 58.714 246.736 67.8628 244.311 77.3489C241.616 87.6227 237.547 103.065 234.5 115.421C233.08 121.121 232.013 129.18 217.308 144.738L243.251 167.512L269.255 190.337C282.826 173.669 290.62 171.63 296.086 169.482C307.939 164.856 322.663 158.88 332.498 154.874C341.644 151.173 350.164 145.785 357.484 139.003C358.788 137.756 360.093 136.51 361.052 135.416C387.579 105.185 386.292 60.6725 358.445 36.2278Z" fill="#FDC00F"/>
<path d="M227.542 153.839L217.248 144.803C232.01 129.18 233.02 121.185 234.44 115.486C237.487 103.13 241.5 87.7512 244.195 77.4775C246.676 67.9269 250.911 58.7782 256.685 50.6375C257.751 49.1824 258.817 47.7271 259.777 46.6336C278.345 25.4713 305.558 16.9067 329.757 21.9799C309.083 22.7335 288.111 32.1083 272.76 49.6041C271.744 50.762 270.621 52.2816 269.502 53.9176C263.333 62.5084 258.881 72.2641 256.24 82.3573C253.388 93.2903 249.111 109.69 245.85 122.769C244.321 128.714 243.153 137.367 227.542 153.839Z" fill="#E2A305"/>
<path d="M269.128 198.534C268.394 199.37 267.235 199.491 266.462 198.812L209.576 148.878C208.803 148.199 208.772 147.033 209.506 146.197L212.271 143.045C213.005 142.209 214.164 142.088 214.938 142.767L271.763 192.649C272.537 193.328 272.568 194.493 271.834 195.329L269.069 198.481L269.128 198.534Z" fill="#3F434F"/>
<path d="M255.113 214.104C254.379 214.94 253.22 215.061 252.446 214.382L195.56 164.449C194.787 163.769 194.756 162.604 195.49 161.767L198.256 158.615C198.989 157.779 200.149 157.658 200.922 158.337L257.748 208.22C258.522 208.898 258.552 210.064 257.819 210.9L255.053 214.052L255.113 214.104Z" fill="#3F434F"/>
<path d="M246.816 223.559C246.082 224.395 244.922 224.516 244.149 223.837L187.263 173.904C186.49 173.224 186.459 172.059 187.193 171.222L189.959 168.07C190.692 167.234 191.852 167.113 192.625 167.792L249.451 217.675C250.225 218.353 250.256 219.519 249.522 220.355L246.756 223.507L246.816 223.559Z" fill="#3F434F"/>
<path d="M375.535 82.6556C373.959 55.8802 353.893 39.974 353.063 39.3592C350.749 37.5554 347.276 38.1512 345.364 40.5714C343.394 43.0558 343.718 46.5283 345.973 48.2801C346.152 48.4368 363.308 62.0165 364.645 84.1419C365.495 98.7794 359.207 113.869 345.95 129.218C344.087 131.341 343.992 134.331 345.614 136.324C345.795 136.597 346.033 136.806 346.212 136.963C348.413 138.896 351.832 138.481 353.92 136.101C369.322 118.307 376.581 100.312 375.535 82.6556Z" fill="#FED96F"/>
<path d="M280.855 49.511L276.677 50.5358L272.5 51.5605C273.521 51.8532 274.542 52.1459 275.563 52.4385C275.433 53.4491 275.302 54.4598 275.171 55.4705L280.855 49.511Z" fill="white"/>
<path d="M276.927 48.8323L276.713 48.4682L276.5 48.104C276.212 49.5835 275.924 51.063 275.636 52.5425C277.056 52.9834 278.475 53.4243 279.895 53.8652L276.927 48.8323Z" fill="white"/>
<path d="M75.8626 210.975L80.0107 210.919L84.1587 210.864C83.3045 210.328 82.4502 209.793 81.5959 209.257C82.0136 208.266 82.4313 207.275 82.8491 206.284L75.8626 210.975Z" fill="white"/>
<path d="M164.1 50.2217L163.851 50.1212C162.104 49.4081 160.084 49.3723 157.792 50.0138C155.514 50.5226 153.359 51.6061 151.329 53.2645C147.657 56.716 146.035 60.7712 146.463 65.4303C146.753 69.2658 148.183 72.4154 150.751 74.879C151.893 75.884 153.31 76.682 155.005 77.2731C156.966 77.9734 159.813 78.6286 163.547 79.2386L166.178 81.8437L164.1 50.2217Z" fill="black" fill-opacity="0.996078"/>
<path d="M167.532 84.1403L167.532 84.142L167.532 84.1411L164.641 80.3488L163.284 79.1825C164.216 78.1111 164.762 77.0891 164.866 76.1143C164.963 75.2009 164.736 74.2191 164.176 73.2114C163.699 72.3532 163.252 71.8208 162.929 71.5394C162.72 71.3573 162.526 71.1602 162.303 71.0014C160.876 69.983 160.138 69.435 160.106 69.3305C159.764 69.0454 159.401 68.6058 159.245 67.9278C158.887 66.3706 159.276 65.3919 160.148 64.9727C160.378 64.862 160.773 64.8238 161.385 64.8609C161.593 64.8733 162.509 65.1183 164.147 65.616C164.547 65.7375 164.781 65.6861 164.753 65.5354C164.701 65.2471 164.532 64.9996 164.339 64.7566C162.939 62.992 162.008 61.7744 161.558 61.0964C160.734 59.8518 160.343 59.0722 160.226 58.8373C159.551 57.4825 159.251 55.9157 159.846 54.154C160.72 51.5643 162.139 50.2053 163.718 49.9602C166.452 51.0583 168.128 51.9219 168.822 52.459C169.591 53.0551 169.753 53.8943 170.294 55.0549C173.936 55.7485 174.606 56.1199 176.408 56.4552C177.072 56.9569 176.567 57.5989 175.449 58.9193C176.537 59.5273 177.107 60.1211 177.292 60.4077C177.498 60.7274 176.126 62.0929 174.708 62.9384C175.546 63.8697 177.809 61.1084 178.453 62.0674C178.723 62.4703 179.048 63.2622 179.457 64.4222C180.47 65.2046 181.142 65.8568 181.394 66.4225C181.637 66.9691 181.65 67.399 181.513 67.6723C181.431 68.1918 180.782 69.1312 179.566 70.4918L176.754 72.0891L180.755 82.3033L167.532 84.1403Z" fill="#FFB298"/>
<path d="M167.601 58.2214L167.56 58.0495C167.366 57.2969 167.297 56.6894 167.351 56.227C167.364 56.1245 167.383 56.0238 167.409 55.9249C167.415 55.8739 167.464 55.7295 167.556 55.4916C167.652 55.2551 167.822 54.9346 168.064 54.5303C167.906 55.2205 167.803 55.7739 167.754 56.1904C167.699 56.5939 167.648 57.2709 167.601 58.2214Z" fill="black" fill-opacity="0.996078"/>
<path d="M168.725 57.8434L168.631 55.7479C168.901 55.6763 169.108 55.6568 169.253 55.6894C169.396 55.7098 169.622 55.8088 169.93 55.9864L168.725 57.8434Z" fill="white" fill-opacity="0.996078"/>
<path d="M168.617 55.75L169.075 56.4123L169.888 56.0156C169.74 55.8854 169.624 55.7941 169.54 55.7419C169.456 55.6924 169.405 55.6657 169.387 55.6617C169.352 55.6481 169.317 55.6374 169.282 55.6297C169.247 55.6228 169.211 55.6188 169.175 55.6178C169.158 55.614 169.103 55.6186 169.011 55.6316C168.919 55.647 168.788 55.6864 168.617 55.75Z" fill="black" fill-opacity="0.996078"/>
<path d="M163.461 82.1262L171.096 79.1808L178.73 76.2354C179.79 77.607 180.85 78.9787 181.911 80.3504C177.098 83.0239 172.286 85.6973 167.474 88.3707L163.461 82.1262Z" fill="black"/>
<path d="M183.315 89.8609L208.073 79.601L232.831 69.3406C234.336 73.7582 235.841 78.1757 237.346 82.5932C220.841 89.4345 204.336 96.2756 187.832 103.117C186.326 98.6982 184.821 94.2796 183.315 89.8609Z" fill="black"/>
<path d="M202.324 122.42L202.325 122.421L201.46 120.383L199.106 119.404L197.703 120.766L194.414 130.671C200.677 135.156 210.784 149.548 216.553 148.549C219.498 148.039 221.623 147.16 223.029 146.359C223.906 145.859 224.831 145.406 225.741 144.87L233.864 139.896C235.626 138.865 237.33 138.099 238.934 137.462C241.424 136.474 292.032 145.58 258.861 129.721L273.198 133.207C270.091 133.594 266.554 116.649 257.962 112.82C246.229 107.592 228.849 115.096 225.025 116.665L210.939 110.621L202.702 115.807L198.14 124.945L200.977 124.231L201.34 120.412L200.679 121.006L202.324 122.42Z" fill="black"/>
<path d="M167.022 87.8027L167.024 87.8039C166.41 93.2135 166.41 97.4478 167.024 100.507C167.584 104.168 169.392 107.898 172.446 111.698C174.602 114.246 177.119 116.76 179.997 119.24C181.599 120.665 185.705 124.072 192.316 129.462C193.5 130.467 194.551 131.412 195.468 132.296C196.057 132.806 197.185 134.007 198.853 135.899C199.649 136.824 200.994 138.593 202.888 141.205C203.845 142.339 204.452 142.987 204.709 143.148C206.756 144.889 209.848 146.565 213.982 148.176L227.771 113.353C226.458 114.197 224.96 114.615 223.278 114.606C221.749 114.308 220.77 113.983 220.338 113.633C219.605 113.232 218.803 112.673 217.933 111.957C216.171 110.469 214.131 108.346 211.812 105.588L199.082 90.2225C196.693 87.4783 194.518 85.3135 192.557 83.7281C189.475 80.9682 185.386 79.1948 180.292 78.408L167.022 87.8027Z" fill="black"/>
<path d="M184.347 94.1602L209.104 83.8999L233.862 73.6395C235.367 78.0572 236.872 82.4748 238.377 86.8923C221.872 93.7334 205.368 100.575 188.863 107.416C187.357 102.997 185.852 98.5785 184.347 94.1602Z" fill="black"/>
<path d="M194.465 85.2403C194.577 85.3459 194.688 85.4519 194.799 85.5583L194.64 85.5484C194.804 85.7045 194.97 85.8635 195.137 86.0254L196.366 84.4512L194.467 85.2383L194.465 85.2403Z" fill="black"/>
<path d="M181.344 78.4219L184.3 81.919L188.68 81.6447L193.517 85.6355L193.839 85.5019L194.635 85.5521C194.54 85.4636 194.447 85.3762 194.353 85.29L194.463 85.2434C194.014 84.8178 193.558 84.3967 193.096 83.9803C191.498 82.558 190.008 81.5274 188.626 80.8884C186.884 80.0639 184.496 79.2495 181.462 78.4451L181.344 78.4219Z" fill="black"/>
<path d="M306.993 156.03L307.568 155.913C310.249 155.365 312.161 154.692 313.301 153.894C313.976 153.478 314.613 152.998 315.212 152.455C315.554 152.146 315.895 151.82 316.234 151.477C318.404 149.195 319.55 148.031 319.67 147.984C320.488 147.257 321.175 146.82 321.729 146.674C322.398 146.382 323.166 146.656 324.033 147.495C324.758 148.388 325.111 149.581 325.091 151.074C325.116 152.746 324.12 155.001 322.102 157.84C321.933 158.097 321.351 158.874 320.357 160.172L310.134 173.385C309.409 174.554 308.831 175.404 308.399 175.936C307.434 177.096 306.587 177.713 305.859 177.786C304.975 177.988 303.866 177.583 302.532 176.573C301.71 176.072 299.861 174.231 296.985 171.05L303.518 168.707L306.993 156.03Z" fill="black" fill-opacity="0.996078"/>
<path d="M309.866 155.387L283.833 134.625L257.801 113.863C255.417 120.931 253.033 127.999 250.649 135.067L280.451 157.12C287.393 163.161 294.335 169.203 301.276 175.244L309.866 155.387Z" fill="black"/>
<path d="M230.791 70.7874L242.186 63.0718L248.241 70.5509C248.739 71.2265 249.051 71.9281 249.175 72.6558C249.299 73.3834 249.085 74.1579 248.535 74.9793C248.197 75.4722 247.674 76.0071 246.966 76.584C246.436 77.0138 245.823 77.455 245.129 77.9076C242.699 79.492 238.592 81.6659 232.808 84.4293L230.791 70.7874Z" fill="#FFB298" fill-opacity="0.996078"/>
<path d="M231.822 75.0804L243.218 67.3645L249.272 74.8435C249.771 75.5191 250.082 76.2207 250.206 76.9483C250.33 77.6759 250.117 78.4504 249.566 79.2719C249.228 79.7646 248.705 80.2994 247.998 80.8762C247.467 81.3064 246.855 81.7478 246.16 82.2004C243.73 83.7848 239.623 85.9585 233.839 88.7218L231.822 75.0804Z" fill="#FFB298" fill-opacity="0.996078"/>
</svg>
