<svg width="201" height="401" viewBox="0 0 201 401" fill="none" xmlns="http://www.w3.org/2000/svg">
<path d="M81.4609 145.797L104.704 145.798L127.948 145.8C127.948 169.586 127.948 193.372 127.948 217.159C112.452 217.159 96.9565 217.159 81.4609 217.159C81.4609 193.372 81.4609 169.584 81.4609 145.797Z" fill="#15003E"/>
<path d="M46.625 215.289L104.273 215.29L161.921 215.294C161.921 225.105 161.921 234.917 161.921 244.731C123.489 244.731 85.0571 244.731 46.625 244.731C46.625 234.917 46.625 225.103 46.625 215.289Z" fill="#15003E"/>
<path d="M162.976 319.931V319.771V319.526V319.281V319.036V318.791V318.546V318.301V318.056V317.811V317.566V317.321V317.076V316.831V316.586V316.341V316.096V315.851V315.606V315.361V315.116V314.871V314.626V314.381V314.136V313.891V313.646V313.401V313.157V312.912V312.667V312.422V312.177V311.932V311.687V311.442V311.197V310.952V310.707V310.462V310.217V309.972V309.727V309.482V309.237V308.992V308.747V308.502V308.257V308.012V307.767V307.522V307.277V307.032V306.787V306.542V306.297V306.052V305.807V305.562V305.317V305.072V304.827V304.582V304.337V304.092V303.848V303.603V303.358V303.113V302.868V302.623V302.378V302.133V301.888V301.643V301.398V301.153V300.908V300.663V300.418V300.173V299.928V299.683V299.438V299.193V298.948V298.703V298.458V298.213V297.968V297.723V297.478V297.233V296.988V296.743V296.498V296.253V296.008V295.763V295.518V295.273V295.028V294.783V294.538V294.294V294.049V293.804V293.559V293.314V293.069V292.824V292.579V292.334V292.089V291.844V291.599V291.354V291.109V290.864V290.619V290.374V290.129V289.884V289.639V289.394V289.149V288.904V288.659V288.414V288.169V287.924V287.679V287.434V287.189V286.944V286.699V286.454V286.209V285.964V285.719V285.474V285.229V284.985V284.74V284.495V284.25V284.005V283.76V283.515V283.27V283.025V282.78V282.535V282.29V282.045V281.8V281.555V281.31V281.065V280.82V280.575V280.33V280.085V279.84V279.595V279.35V279.105V278.86V278.615V278.37V278.125V277.88V277.635V277.39V277.145V276.9V276.655V276.41V276.165V275.92V275.676V275.431V275.186V274.941V274.696V274.451V274.206V273.961V273.716V273.471V273.226V272.981V272.736V272.491V272.246V272.001V271.756V271.511V271.266V271.021V270.776V270.531V270.286V270.041V269.796V269.551V269.306V269.061V268.816V268.571V268.326V268.081V267.836V267.591V267.346V267.101V266.856V266.611V266.367V266.122V265.877V265.632V265.387V265.142V264.897V264.652V264.407V264.162V263.917V263.672V263.427V263.182V262.937V262.692V262.447V262.202V261.957V261.712V261.467V261.222V260.977V260.732V260.487V260.242V259.997V259.752V259.507V259.262V259.017V258.772V258.527V258.282V258.037V257.792V257.547V257.302V257.058V256.813V256.568V256.323V256.078V255.833V255.588V255.343V255.098V254.853V254.608V254.363V254.118V253.873V253.628V253.383V253.138V252.893V252.648V252.403V252.158V251.913V251.668V251.423V251.178V250.933V250.688V250.443V250.198V249.953V249.708V249.463V249.218V248.973V248.728V248.483V248.238V247.993V247.749V247.504V247.259V247.014V246.769V246.524V246.279V246.034V245.789V245.544V245.299V245.054V244.809V244.564V244.319V244.074V243.829V243.584V243.339V243.094V242.849V242.604V242.359V242.114V241.869V241.624V241.379V241.134V240.889V240.644V240.399V240.154V239.909V239.664V239.419V239.174V238.929V238.684V238.44V238.195V237.95V237.705V237.46V237.215V236.97V236.725V236.48V236.235V235.99V235.745V235.5V235.255V235.01V234.765V234.52V234.275V234.03V233.785V233.54V233.295V233.05V232.805V232.56V232.315V232.07V231.825V231.58V231.335V231.09V230.845V230.6V230.355V230.11V229.865V229.62V229.375V229.131V228.886V228.641V228.396V228.151V227.906V227.661V227.416V227.171V226.926V226.681V226.436V226.191V225.946V225.701V225.456V225.211V224.966V224.721V224.476V224.231V223.986V223.741V223.496V223.251V223.006V222.761V222.516V222.271V222.026V221.781V221.536V221.291V221.046V220.801V220.556V220.311V220.067V219.822V219.577V219.332V219.087V218.842V218.597V218.352V218.107V217.862V217.617V217.372V217.127V216.882V216.637V216.392V216.147V215.902V215.657V215.412V215.167V214.922V214.677V214.432V214.187V213.942V213.697V213.452V213.207V212.962V212.717V212.472V212.227V211.982V211.737V211.492V211.247V211.002V210.758V210.513V210.268V210.023V209.778V209.533V209.288V209.043V208.798V208.553V208.308V208.063V207.818V207.573V207.328V207.083V206.838V206.593V206.348V206.103V205.858V205.613V205.368V205.123V204.878V204.633V204.388V204.143V203.898V203.653V203.408V203.163V202.918V202.673V202.428V202.183V201.938V201.694V201.449V201.204V200.959V200.714V200.469V200.224V199.979V199.734V199.489V199.244V198.999V198.754V198.509V198.264V198.019V197.774V197.529V197.284V197.039V196.794V196.549V196.304V196.144L181.529 196.145L181.529 196.145L200.082 196.147V196.307V196.552V196.797V197.042V197.287V197.532V197.777V198.022V198.267V198.512V198.757V199.002V199.247V199.492V199.737V199.982V200.227V200.472V200.717V200.962V201.207V201.452V201.696V201.941V202.186V202.431V202.676V202.921V203.166V203.411V203.656V203.901V204.146V204.391V204.636V204.881V205.126V205.371V205.616V205.861V206.106V206.351V206.596V206.841V207.086V207.331V207.576V207.821V208.065V208.31V208.555V208.8V209.045V209.29V209.535V209.78V210.025V210.27V210.515V210.76V211.005V211.25V211.495V211.74V211.985V212.23V212.475V212.72V212.965V213.21V213.455V213.7V213.945V214.19V214.434V214.679V214.924V215.169V215.414V215.659V215.904V216.149V216.394V216.639V216.884V217.129V217.374V217.619V217.864V218.109V218.354V218.599V218.844V219.089V219.334V219.579V219.824V220.069V220.314V220.559V220.804V221.048V221.293V221.538V221.783V222.028V222.273V222.518V222.763V223.008V223.253V223.498V223.743V223.988V224.233V224.478V224.723V224.968V225.213V225.458V225.703V225.948V226.193V226.438V226.683V226.928V227.173V227.418V227.662V227.907V228.152V228.397V228.642V228.887V229.132V229.377V229.622V229.867V230.112V230.357V230.602V230.847V231.092V231.337V231.582V231.827V232.072V232.317V232.562V232.807V233.052V233.297V233.542V233.787V234.032V234.277V234.521V234.766V235.011V235.256V235.501V235.746V235.991V236.236V236.481V236.726V236.971V237.216V237.461V237.706V237.951V238.196V238.441V238.686V238.931V239.176V239.421V239.666V239.911V240.156V240.401V240.646V240.891V241.135V241.38V241.625V241.87V242.115V242.36V242.605V242.85V243.095V243.34V243.585V243.83V244.075V244.32V244.565V244.81V245.055V245.3V245.545V245.79V246.035V246.28V246.525V246.77V247.015V247.26V247.505V247.75V247.995V248.239V248.484V248.729V248.974V249.219V249.464V249.709V249.954V250.199V250.444V250.689V250.934V251.179V251.424V251.669V251.914V252.159V252.404V252.649V252.894V253.139V253.384V253.629V253.874V254.119V254.364V254.609V254.854V255.099V255.343V255.588V255.833V256.078V256.323V256.568V256.813V257.058V257.303V257.548V257.793V258.038V258.283V258.528V258.773V259.018V259.263V259.508V259.753V259.998V260.243V260.488V260.733V260.978V261.223V261.468V261.713V261.958V262.203V262.448V262.692V262.937V263.182V263.427V263.672V263.917V264.162V264.407V264.652V264.897V265.142V265.387V265.632V265.877V266.122V266.367V266.612V266.857V267.102V267.347V267.592V267.837V268.082V268.327V268.572V268.817V269.062V269.307V269.552V269.797V270.041V270.286V270.531V270.776V271.021V271.266V271.511V271.756V272.001V272.246V272.491V272.736V272.981V273.226V273.471V273.716V273.961V274.206V274.451V274.696V274.941V275.186V275.431V275.676V275.921V276.166V276.411V276.656V276.901V277.146V277.39V277.635V277.88V278.125V278.37V278.615V278.86V279.105V279.35V279.595V279.84V280.085V280.33V280.575V280.82V281.065V281.31V281.555V281.8V282.045V282.29V282.535V282.78V283.025V283.27V283.515V283.76V284.005V284.25V284.495V284.74V284.984V285.229V285.474V285.719V285.964V286.209V286.454V286.699V286.944V287.189V287.434V287.679V287.924V288.169V288.414V288.659V288.904V289.149V289.394V289.639V289.884V290.129V290.374V290.619V290.864V291.109V291.354V291.599V291.844V292.089V292.334V292.579V292.823V293.068V293.313V293.558V293.803V294.048V294.293V294.538V294.783V295.028V295.273V295.518V295.763V296.008V296.253V296.498V296.743V296.988V297.233V297.478V297.723V297.968V298.213V298.458V298.703V298.948V299.193V299.438V299.683V299.928V300.173V300.418V300.662V300.907V301.152V301.397V301.642V301.887V302.132V302.377V302.622V302.867V303.112V303.357V303.602V303.847V304.092V304.337V304.582V304.827V305.072V305.317V305.562V305.807V306.052V306.297V306.542V306.787V307.032V307.277V307.522V307.767V308.012V308.257V308.502V308.746V308.991V309.236V309.481V309.726V309.971V310.216V310.461V310.706V310.951V311.196V311.441V311.686V311.931V312.176V312.421V312.666V312.911V313.156V313.401V313.646V313.891V314.136V314.381V314.626V314.871V315.116V315.361V315.606V315.851V316.096V316.341V316.586V316.831V317.075V317.32V317.565V317.81V318.055V318.3V318.545V318.79V319.035V319.28V319.525V319.77V319.93C187.714 319.93 175.345 319.93 162.976 319.931Z" fill="#7548CC" stroke="black" stroke-width="1.63981"/>
<path d="M45.6988 319.672L17.3199 319.672V202.531L45.6988 202.531V319.672Z" fill="#7548CC" stroke="black" stroke-width="1.63981"/>
<path d="M72.4688 270.422L81.949 270.424L91.4292 270.422C91.4292 313.615 91.4292 356.808 91.4292 400.001C85.109 400.001 78.7889 400.001 72.4688 400.001C72.4688 356.808 72.4688 313.615 72.4688 270.422Z" fill="#15003E"/>
<path d="M46.625 384.57L75.212 384.573L103.799 384.57C103.799 389.645 103.799 394.719 103.799 399.794C84.7408 399.794 65.683 399.794 46.625 399.794C46.625 394.719 46.625 389.645 46.625 384.57Z" fill="#15003E"/>
<path d="M120.539 264.82L129.772 264.823L139.004 264.821C139.004 308.013 139.004 351.206 139.004 394.4C132.849 394.4 126.694 394.4 120.539 394.4C120.539 351.206 120.539 308.013 120.539 264.82Z" fill="white"/>
<path d="M120.539 264.82L129.772 264.823L139.004 264.821C139.004 308.013 139.004 351.206 139.004 394.4C132.849 394.4 126.694 394.4 120.539 394.4C120.539 351.206 120.539 308.013 120.539 264.82Z" fill="#15003E"/>
<path d="M104.039 384.57L132.626 384.573L161.212 384.57C161.212 389.645 161.212 394.719 161.212 399.794C142.155 399.794 123.097 399.794 104.039 399.794C104.039 394.719 104.039 389.645 104.039 384.57Z" fill="#15003E"/>
<path d="M68.875 243.266L107.454 243.268L146.034 243.266C146.034 248.607 146.034 253.948 146.034 259.289C120.314 259.289 94.5946 259.289 68.875 259.289C68.875 253.948 68.875 248.607 68.875 243.266Z" fill="#15003E"/>
<path d="M62.4219 258.434L152.829 258.434L152.829 271.214L62.4219 271.216V258.434Z" fill="#7548CC"/>
<path d="M80.4683 180.915V180.912V180.864V180.815V180.767V180.719V180.67V180.622V180.574V180.525V180.477V180.428V180.38V180.332V180.283V180.235V180.187V180.138V180.09V180.042V179.993V179.945V179.896V179.848V179.8V179.751V179.703V179.655V179.606V179.558V179.509V179.461V179.413V179.364V179.316V179.268V179.219V179.171V179.122V179.074V179.026V178.977V178.929V178.881V178.832V178.784V178.735V178.687V178.639V178.59V178.542V178.494V178.445V178.397V178.349V178.3V178.252V178.203V178.155V178.107V178.058V178.01V177.962V177.913V177.865V177.816V177.768V177.72V177.671V177.623V177.575V177.526V177.478V177.429V177.381V177.333V177.284V177.236V177.188V177.139V177.091V177.043V176.994V176.946V176.897V176.849V176.801V176.752V176.704V176.656V176.607V176.559V176.51V176.462V176.414V176.365V176.317V176.269V176.22V176.172V176.123V176.075V176.027V175.978V175.93V175.882V175.833V175.785V175.736V175.688V175.64V175.591V175.543V175.495V175.446V175.398V175.35V175.301V175.253V175.204V175.156V175.108V175.059V175.011V174.963V174.914V174.866V174.817V174.769V174.721V174.672V174.624V174.576V174.527V174.479V174.43V174.382V174.334V174.285V174.237V174.189V174.14V174.092V174.044V173.995V173.947V173.898V173.85V173.802V173.753V173.705V173.657V173.608V173.56V173.511V173.463V173.415V173.366V173.318V173.27V173.221V173.173V173.124V173.076V173.028V172.979V172.931V172.883V172.834V172.786V172.738V172.689V172.641V172.592V172.544V172.496V172.447V172.399V172.351V172.302V172.254V172.205V172.157V172.109V172.06V172.012V171.964V171.915V171.867V171.818V171.77V171.722V171.673V171.625V171.577V171.528V171.48V171.432V171.383V171.335V171.286V171.238V171.19V171.141V171.093V171.045V170.996V170.948V170.899V170.851V170.803V170.754V170.706V170.658V170.609V170.561V170.512V170.464V170.416V170.367V170.319V170.271V170.222V170.174V170.126V170.077V170.029V169.98V169.932V169.884V169.835V169.787V169.739V169.69V169.642V169.593V169.545V169.497V169.448V169.4V169.352V169.303V169.255V169.206V169.158V169.11V169.061V169.013V168.965V168.916V168.868V168.819V168.771V168.723V168.674V168.626V168.578V168.529V168.481V168.433V168.384V168.336V168.287V168.239V168.191V168.142V168.094V168.046V167.997V167.949V167.9V167.852V167.804V167.755V167.707V167.659V167.61V167.562V167.513V167.465V167.417V167.368V167.32V167.272V167.223V167.175V167.127V167.078V167.03V166.981V166.933V166.885V166.836V166.788V166.74V166.691V166.643V166.594V166.546V166.498V166.449V166.401V166.353V166.304V166.256V166.207V166.159V166.111V166.062V166.014V165.966V165.917V165.869V165.821V165.772V165.724V165.675V165.627V165.579V165.53V165.482V165.434V165.385V165.337V165.288V165.24V165.192V165.143V165.095V165.047V164.998V164.95V164.901V164.853V164.805V164.756V164.708V164.66V164.611V164.563V164.515V164.466V164.418V164.369V164.321V164.273V164.224V164.176V164.128V164.079V164.031V163.982V163.934V163.886V163.837V163.789V163.741V163.692V163.644V163.595V163.547V163.499V163.45V163.402V163.354V163.305V163.257V163.209V163.16V163.112V163.063V163.015V162.967V162.918V162.87V162.822V162.773V162.725V162.676V162.628V162.58V162.531V162.483V162.435V162.386V162.338V162.289V162.241V162.193V162.144V162.096V162.048V161.999V161.951V161.903V161.854V161.806V161.757V161.709V161.661V161.612V161.564V161.516V161.467V161.419V161.37V161.322V161.274V161.225V161.177V161.129V161.08V161.032V160.983V160.935V160.887V160.838V160.79V160.742V160.693V160.645V160.597V160.548V160.5V160.451V160.403V160.355V160.306V160.258V160.21V160.161V160.113V160.064V160.016V159.968V159.919V159.871V159.823V159.774V159.726V159.677V159.629V159.581V159.532V159.484V159.436V159.387V159.339V159.291V159.242V159.194V159.145V159.097V159.049V159V158.952V158.904V158.855V158.807V158.758V158.71V158.662V158.613V158.565V158.517V158.468V158.42V158.371V158.323V158.275V158.226V158.178V158.13V158.081V158.033V157.985V157.936V157.888V157.839V157.791V157.789L105.12 157.79H105.12L129.772 157.789V157.791V157.839V157.888V157.936V157.985V158.033V158.081V158.13V158.178V158.226V158.275V158.323V158.371V158.42V158.468V158.517V158.565V158.613V158.662V158.71V158.758V158.807V158.855V158.904V158.952V159V159.049V159.097V159.145V159.194V159.242V159.291V159.339V159.387V159.436V159.484V159.532V159.581V159.629V159.677V159.726V159.774V159.823V159.871V159.919V159.968V160.016V160.064V160.113V160.161V160.21V160.258V160.306V160.355V160.403V160.451V160.5V160.548V160.597V160.645V160.693V160.742V160.79V160.838V160.887V160.935V160.983V161.032V161.08V161.129V161.177V161.225V161.274V161.322V161.37V161.419V161.467V161.516V161.564V161.612V161.661V161.709V161.757V161.806V161.854V161.903V161.951V161.999V162.048V162.096V162.144V162.193V162.241V162.289V162.338V162.386V162.435V162.483V162.531V162.58V162.628V162.676V162.725V162.773V162.822V162.87V162.918V162.967V163.015V163.063V163.112V163.16V163.208V163.257V163.305V163.354V163.402V163.45V163.499V163.547V163.595V163.644V163.692V163.741V163.789V163.837V163.886V163.934V163.982V164.031V164.079V164.128V164.176V164.224V164.273V164.321V164.369V164.418V164.466V164.514V164.563V164.611V164.66V164.708V164.756V164.805V164.853V164.901V164.95V164.998V165.047V165.095V165.143V165.192V165.24V165.288V165.337V165.385V165.433V165.482V165.53V165.579V165.627V165.675V165.724V165.772V165.82V165.869V165.917V165.966V166.014V166.062V166.111V166.159V166.207V166.256V166.304V166.353V166.401V166.449V166.498V166.546V166.594V166.643V166.691V166.739V166.788V166.836V166.885V166.933V166.981V167.03V167.078V167.126V167.175V167.223V167.272V167.32V167.368V167.417V167.465V167.513V167.562V167.61V167.658V167.707V167.755V167.804V167.852V167.9V167.949V167.997V168.045V168.094V168.142V168.191V168.239V168.287V168.336V168.384V168.432V168.481V168.529V168.578V168.626V168.674V168.723V168.771V168.819V168.868V168.916V168.964V169.013V169.061V169.11V169.158V169.206V169.255V169.303V169.351V169.4V169.448V169.497V169.545V169.593V169.642V169.69V169.738V169.787V169.835V169.883V169.932V169.98V170.029V170.077V170.125V170.174V170.222V170.27V170.319V170.367V170.416V170.464V170.512V170.561V170.609V170.657V170.706V170.754V170.802V170.851V170.899V170.948V170.996V171.044V171.093V171.141V171.189V171.238V171.286V171.335V171.383V171.431V171.48V171.528V171.576V171.625V171.673V171.722V171.77V171.818V171.867V171.915V171.963V172.012V172.06V172.108V172.157V172.205V172.254V172.302V172.35V172.399V172.447V172.495V172.544V172.592V172.641V172.689V172.737V172.786V172.834V172.882V172.931V172.979V173.027V173.076V173.124V173.173V173.221V173.269V173.318V173.366V173.414V173.463V173.511V173.56V173.608V173.656V173.705V173.753V173.801V173.85V173.898V173.946V173.995V174.043V174.092V174.14V174.188V174.237V174.285V174.333V174.382V174.43V174.479V174.527V174.575V174.624V174.672V174.72V174.769V174.817V174.865V174.914V174.962V175.011V175.059V175.107V175.156V175.204V175.252V175.301V175.349V175.398V175.446V175.494V175.543V175.591V175.639V175.688V175.736V175.784V175.833V175.881V175.93V175.978V176.026V176.075V176.123V176.171V176.22V176.268V176.317V176.365V176.413V176.462V176.51V176.558V176.607V176.655V176.704V176.752V176.8V176.849V176.897V176.945V176.994V177.042V177.09V177.139V177.187V177.236V177.284V177.332V177.381V177.429V177.477V177.526V177.574V177.623V177.671V177.719V177.768V177.816V177.864V177.913V177.961V178.009V178.058V178.106V178.155V178.203V178.251V178.3V178.348V178.396V178.445V178.493V178.542V178.59V178.638V178.687V178.735V178.783V178.832V178.88V178.928V178.977V179.025V179.074V179.122V179.17V179.219V179.267V179.315V179.364V179.412V179.461V179.509V179.557V179.606V179.654V179.702V179.751V179.799V179.847V179.896V179.944V179.993V180.041V180.089V180.138V180.186V180.234V180.283V180.331V180.38V180.428V180.476V180.525V180.573V180.621V180.67V180.718V180.766V180.815V180.863V180.912V180.914C113.338 180.914 96.903 180.914 80.4683 180.915Z" fill="#7548CC" stroke="black" stroke-width="1.63981"/>
<path d="M63.2418 328.833V328.807V328.737V328.667V328.596V328.526V328.455V328.385V328.314V328.244V328.173V328.103V328.033V327.962V327.892V327.821V327.751V327.68V327.61V327.54V327.469V327.399V327.328V327.258V327.187V327.117V327.047V326.976V326.906V326.835V326.765V326.694V326.624V326.553V326.483V326.413V326.342V326.272V326.201V326.131V326.06V325.99V325.92V325.849V325.779V325.708V325.638V325.567V325.497V325.426V325.356V325.286V325.215V325.145V325.074V325.004V324.933V324.863V324.793V324.722V324.652V324.581V324.511V324.44V324.37V324.3V324.229V324.159V324.088V324.018V323.947V323.877V323.806V323.736V323.666V323.595V323.525V323.454V323.384V323.313V323.243V323.173V323.102V323.032V322.961V322.891V322.82V322.75V322.68V322.609V322.539V322.468V322.398V322.327V322.257V322.186V322.116V322.046V321.975V321.905V321.834V321.764V321.693V321.623V321.553V321.482V321.412V321.341V321.271V321.2V321.13V321.059V320.989V320.919V320.848V320.778V320.707V320.637V320.566V320.496V320.426V320.355V320.285V320.214V320.144V320.073V320.003V319.933V319.862V319.792V319.721V319.651V319.58V319.51V319.439V319.369V319.299V319.228V319.158V319.087V319.017V318.946V318.876V318.806V318.735V318.665V318.594V318.524V318.453V318.383V318.313V318.242V318.172V318.101V318.031V317.96V317.89V317.819V317.749V317.679V317.608V317.538V317.467V317.397V317.326V317.256V317.186V317.115V317.045V316.974V316.904V316.833V316.763V316.693V316.622V316.552V316.481V316.411V316.34V316.27V316.199V316.129V316.059V315.988V315.918V315.847V315.777V315.706V315.636V315.566V315.495V315.425V315.354V315.284V315.213V315.143V315.072V315.002V314.932V314.861V314.791V314.72V314.65V314.579V314.509V314.439V314.368V314.298V314.227V314.157V314.086V314.016V313.946V313.875V313.805V313.734V313.664V313.593V313.523V313.452V313.382V313.312V313.241V313.171V313.1V313.03V312.959V312.889V312.819V312.748V312.678V312.607V312.537V312.466V312.396V312.326V312.255V312.185V312.114V312.044V311.973V311.903V311.832V311.762V311.692V311.621V311.551V311.48V311.41V311.339V311.269V311.199V311.128V311.058V310.987V310.917V310.846V310.776V310.706V310.635V310.565V310.494V310.424V310.353V310.283V310.212V310.142V310.072V310.001V309.931V309.86V309.79V309.719V309.649V309.579V309.508V309.438V309.367V309.297V309.226V309.156V309.086V309.015V308.945V308.874V308.804V308.733V308.663V308.592V308.522V308.452V308.381V308.311V308.24V308.17V308.099V308.029V307.959V307.888V307.818V307.747V307.677V307.606V307.536V307.466V307.395V307.325V307.254V307.184V307.113V307.043V306.972V306.902V306.832V306.761V306.691V306.62V306.55V306.479V306.409V306.339V306.268V306.198V306.127V306.057V305.986V305.916V305.846V305.775V305.705V305.634V305.564V305.493V305.423V305.352V305.282V305.212V305.141V305.071V305V304.93V304.859V304.789V304.719V304.648V304.578V304.507V304.437V304.366V304.296V304.226V304.155V304.085V304.014V303.944V303.873V303.803V303.732V303.662V303.592V303.521V303.451V303.38V303.31V303.239V303.169V303.099V303.028V302.958V302.887V302.817V302.746V302.676V302.606V302.535V302.465V302.394V302.324V302.253V302.183V302.112V302.042V301.972V301.901V301.831V301.76V301.69V301.619V301.549V301.479V301.408V301.338V301.267V301.197V301.126V301.056V300.986V300.915V300.845V300.774V300.704V300.633V300.563V300.492V300.422V300.352V300.281V300.211V300.14V300.07V299.999V299.929V299.859V299.788V299.718V299.647V299.577V299.506V299.436V299.365V299.295V299.225V299.154V299.084V299.013V298.943V298.872V298.802V298.732V298.661V298.591V298.52V298.45V298.379V298.309V298.239V298.168V298.098V298.027V297.957V297.886V297.816V297.745V297.675V297.605V297.534V297.464V297.393V297.323V297.252V297.182V297.112V297.041V296.971V296.9V296.83V296.759V296.689V296.619V296.548V296.478V296.407V296.337V296.266V296.196V296.125V296.055V295.985V295.914V295.844V295.773V295.703V295.632V295.562V295.492V295.421V295.351V295.28V295.21V295.139V295.069V294.999V294.928V294.858V294.787V294.717V294.646V294.576V294.505V294.435V294.41L81.436 294.412L81.4362 294.412L99.6305 294.41V294.435V294.505V294.576V294.646V294.717V294.787V294.858V294.928V294.999V295.069V295.139V295.21V295.28V295.351V295.421V295.492V295.562V295.632V295.703V295.773V295.844V295.914V295.985V296.055V296.125V296.196V296.266V296.337V296.407V296.478V296.548V296.619V296.689V296.759V296.83V296.9V296.971V297.041V297.112V297.182V297.252V297.323V297.393V297.464V297.534V297.605V297.675V297.745V297.816V297.886V297.957V298.027V298.098V298.168V298.239V298.309V298.379V298.45V298.52V298.591V298.661V298.732V298.802V298.872V298.943V299.013V299.084V299.154V299.225V299.295V299.365V299.436V299.506V299.577V299.647V299.718V299.788V299.859V299.929V299.999V300.07V300.14V300.211V300.281V300.352V300.422V300.492V300.563V300.633V300.704V300.774V300.845V300.915V300.985V301.056V301.126V301.197V301.267V301.338V301.408V301.479V301.549V301.619V301.69V301.76V301.831V301.901V301.972V302.042V302.112V302.183V302.253V302.324V302.394V302.465V302.535V302.605V302.676V302.746V302.817V302.887V302.958V303.028V303.098V303.169V303.239V303.31V303.38V303.451V303.521V303.592V303.662V303.732V303.803V303.873V303.944V304.014V304.085V304.155V304.225V304.296V304.366V304.437V304.507V304.578V304.648V304.718V304.789V304.859V304.93V305V305.071V305.141V305.212V305.282V305.352V305.423V305.493V305.564V305.634V305.705V305.775V305.845V305.916V305.986V306.057V306.127V306.198V306.268V306.338V306.409V306.479V306.55V306.62V306.691V306.761V306.831V306.902V306.972V307.043V307.113V307.184V307.254V307.325V307.395V307.465V307.536V307.606V307.677V307.747V307.818V307.888V307.958V308.029V308.099V308.17V308.24V308.311V308.381V308.451V308.522V308.592V308.663V308.733V308.804V308.874V308.944V309.015V309.085V309.156V309.226V309.297V309.367V309.438V309.508V309.578V309.649V309.719V309.79V309.86V309.931V310.001V310.071V310.142V310.212V310.283V310.353V310.424V310.494V310.564V310.635V310.705V310.776V310.846V310.917V310.987V311.057V311.128V311.198V311.269V311.339V311.41V311.48V311.551V311.621V311.691V311.762V311.832V311.903V311.973V312.044V312.114V312.184V312.255V312.325V312.396V312.466V312.537V312.607V312.677V312.748V312.818V312.889V312.959V313.03V313.1V313.17V313.241V313.311V313.382V313.452V313.523V313.593V313.664V313.734V313.804V313.875V313.945V314.016V314.086V314.157V314.227V314.297V314.368V314.438V314.509V314.579V314.65V314.72V314.79V314.861V314.931V315.002V315.072V315.143V315.213V315.283V315.354V315.424V315.495V315.565V315.636V315.706V315.777V315.847V315.917V315.988V316.058V316.129V316.199V316.27V316.34V316.41V316.481V316.551V316.622V316.692V316.763V316.833V316.903V316.974V317.044V317.115V317.185V317.256V317.326V317.396V317.467V317.537V317.608V317.678V317.749V317.819V317.889V317.96V318.03V318.101V318.171V318.242V318.312V318.383V318.453V318.523V318.594V318.664V318.735V318.805V318.876V318.946V319.016V319.087V319.157V319.228V319.298V319.369V319.439V319.509V319.58V319.65V319.721V319.791V319.862V319.932V320.002V320.073V320.143V320.214V320.284V320.355V320.425V320.495V320.566V320.636V320.707V320.777V320.848V320.918V320.989V321.059V321.129V321.2V321.27V321.341V321.411V321.482V321.552V321.622V321.693V321.763V321.834V321.904V321.975V322.045V322.115V322.186V322.256V322.327V322.397V322.468V322.538V322.608V322.679V322.749V322.82V322.89V322.961V323.031V323.101V323.172V323.242V323.313V323.383V323.454V323.524V323.595V323.665V323.735V323.806V323.876V323.947V324.017V324.088V324.158V324.228V324.299V324.369V324.44V324.51V324.581V324.651V324.721V324.792V324.862V324.933V325.003V325.074V325.144V325.214V325.285V325.355V325.426V325.496V325.567V325.637V325.707V325.778V325.848V325.919V325.989V326.06V326.13V326.201V326.271V326.341V326.412V326.482V326.553V326.623V326.694V326.764V326.834V326.905V326.975V327.046V327.116V327.187V327.257V327.327V327.398V327.468V327.539V327.609V327.68V327.75V327.82V327.891V327.961V328.032V328.102V328.173V328.243V328.313V328.384V328.454V328.525V328.595V328.666V328.736V328.806V328.832C87.5009 328.832 75.3714 328.832 63.2418 328.833Z" fill="#7548CC" stroke="black" stroke-width="1.63981"/>
<path d="M63.2418 367.056V367.033V366.963V366.893V366.823V366.753V366.682V366.612V366.542V366.472V366.402V366.331V366.261V366.191V366.121V366.05V365.98V365.91V365.84V365.77V365.699V365.629V365.559V365.489V365.418V365.348V365.278V365.208V365.138V365.067V364.997V364.927V364.857V364.787V364.716V364.646V364.576V364.506V364.435V364.365V364.295V364.225V364.155V364.084V364.014V363.944V363.874V363.804V363.733V363.663V363.593V363.523V363.452V363.382V363.312V363.242V363.172V363.101V363.031V362.961V362.891V362.82V362.75V362.68V362.61V362.54V362.469V362.399V362.329V362.259V362.189V362.118V362.048V361.978V361.908V361.837V361.767V361.697V361.627V361.557V361.486V361.416V361.346V361.276V361.206V361.135V361.065V360.995V360.925V360.854V360.784V360.714V360.644V360.574V360.503V360.433V360.363V360.293V360.223V360.152V360.082V360.012V359.942V359.871V359.801V359.731V359.661V359.591V359.52V359.45V359.38V359.31V359.239V359.169V359.099V359.029V358.959V358.888V358.818V358.748V358.678V358.608V358.537V358.467V358.397V358.327V358.256V358.186V358.116V358.046V357.976V357.905V357.835V357.765V357.695V357.625V357.554V357.484V357.414V357.344V357.273V357.203V357.133V357.063V356.993V356.922V356.852V356.782V356.712V356.642V356.571V356.501V356.431V356.361V356.29V356.22V356.15V356.08V356.01V355.939V355.869V355.799V355.729V355.659V355.588V355.518V355.448V355.378V355.307V355.237V355.167V355.097V355.027V354.956V354.886V354.816V354.746V354.675V354.605V354.535V354.465V354.395V354.324V354.254V354.184V354.114V354.044V353.973V353.903V353.833V353.763V353.692V353.622V353.552V353.482V353.412V353.341V353.271V353.201V353.131V353.061V352.99V352.92V352.85V352.78V352.709V352.639V352.569V352.499V352.429V352.358V352.288V352.218V352.148V352.078V352.007V351.937V351.867V351.797V351.726V351.656V351.586V351.516V351.446V351.375V351.305V351.235V351.165V351.095V351.024V350.954V350.884V350.814V350.743V350.673V350.603V350.533V350.463V350.392V350.322V350.252V350.182V350.111V350.041V349.971V349.901V349.831V349.76V349.69V349.62V349.55V349.48V349.409V349.339V349.269V349.199V349.128V349.058V348.988V348.918V348.848V348.777V348.707V348.637V348.567V348.497V348.426V348.356V348.286V348.216V348.145V348.075V348.005V347.935V347.865V347.794V347.724V347.654V347.584V347.514V347.443V347.373V347.303V347.233V347.162V347.092V347.022V346.952V346.882V346.811V346.741V346.671V346.601V346.531V346.46V346.39V346.32V346.25V346.179V346.109V346.039V345.969V345.899V345.828V345.758V345.688V345.618V345.548V345.477V345.407V345.337V345.267V345.196V345.126V345.056V344.986V344.916V344.845V344.775V344.705V344.635V344.564V344.494V344.424V344.354V344.284V344.213V344.143V344.073V344.003V343.933V343.862V343.792V343.722V343.652V343.581V343.511V343.441V343.371V343.301V343.23V343.16V343.09V343.02V342.95V342.879V342.809V342.739V342.669V342.598V342.528V342.458V342.388V342.318V342.247V342.177V342.107V342.037V341.967V341.896V341.826V341.756V341.686V341.615V341.545V341.475V341.405V341.335V341.264V341.194V341.124V341.054V340.984V340.913V340.843V340.773V340.703V340.632V340.562V340.492V340.422V340.352V340.281V340.211V340.141V340.071V340.001V339.93V339.86V339.79V339.72V339.649V339.579V339.509V339.439V339.369V339.298V339.228V339.158V339.088V339.018V338.947V338.877V338.807V338.737V338.666V338.596V338.526V338.456V338.386V338.315V338.245V338.175V338.105V338.034V337.964V337.894V337.824V337.754V337.683V337.613V337.543V337.473V337.403V337.332V337.262V337.192V337.122V337.051V336.981V336.911V336.841V336.771V336.7V336.63V336.56V336.49V336.42V336.349V336.279V336.209V336.139V336.068V335.998V335.928V335.858V335.788V335.717V335.647V335.577V335.507V335.437V335.366V335.296V335.226V335.156V335.085V335.015V334.945V334.875V334.805V334.734V334.664V334.594V334.524V334.454V334.383V334.313V334.243V334.173V334.102V334.032V333.962V333.892V333.822V333.751V333.681V333.611V333.541V333.471V333.4V333.33V333.26V333.19V333.119V333.049V332.979V332.909V332.839V332.768V332.746L81.436 332.748L81.4362 332.748L99.6305 332.746V332.768V332.839V332.909V332.979V333.049V333.119V333.19V333.26V333.33V333.4V333.471V333.541V333.611V333.681V333.751V333.822V333.892V333.962V334.032V334.102V334.173V334.243V334.313V334.383V334.454V334.524V334.594V334.664V334.734V334.805V334.875V334.945V335.015V335.085V335.156V335.226V335.296V335.366V335.437V335.507V335.577V335.647V335.717V335.788V335.858V335.928V335.998V336.068V336.139V336.209V336.279V336.349V336.42V336.49V336.56V336.63V336.7V336.771V336.841V336.911V336.981V337.051V337.122V337.192V337.262V337.332V337.403V337.473V337.543V337.613V337.683V337.754V337.824V337.894V337.964V338.034V338.105V338.175V338.245V338.315V338.386V338.456V338.526V338.596V338.666V338.737V338.807V338.877V338.947V339.017V339.088V339.158V339.228V339.298V339.369V339.439V339.509V339.579V339.649V339.72V339.79V339.86V339.93V340V340.071V340.141V340.211V340.281V340.352V340.422V340.492V340.562V340.632V340.703V340.773V340.843V340.913V340.983V341.054V341.124V341.194V341.264V341.335V341.405V341.475V341.545V341.615V341.686V341.756V341.826V341.896V341.966V342.037V342.107V342.177V342.247V342.318V342.388V342.458V342.528V342.598V342.669V342.739V342.809V342.879V342.949V343.02V343.09V343.16V343.23V343.301V343.371V343.441V343.511V343.581V343.652V343.722V343.792V343.862V343.932V344.003V344.073V344.143V344.213V344.284V344.354V344.424V344.494V344.564V344.635V344.705V344.775V344.845V344.915V344.986V345.056V345.126V345.196V345.267V345.337V345.407V345.477V345.547V345.618V345.688V345.758V345.828V345.898V345.969V346.039V346.109V346.179V346.25V346.32V346.39V346.46V346.53V346.601V346.671V346.741V346.811V346.881V346.952V347.022V347.092V347.162V347.233V347.303V347.373V347.443V347.513V347.584V347.654V347.724V347.794V347.864V347.935V348.005V348.075V348.145V348.216V348.286V348.356V348.426V348.496V348.567V348.637V348.707V348.777V348.847V348.918V348.988V349.058V349.128V349.198V349.269V349.339V349.409V349.479V349.55V349.62V349.69V349.76V349.83V349.901V349.971V350.041V350.111V350.181V350.252V350.322V350.392V350.462V350.533V350.603V350.673V350.743V350.813V350.884V350.954V351.024V351.094V351.164V351.235V351.305V351.375V351.445V351.516V351.586V351.656V351.726V351.796V351.867V351.937V352.007V352.077V352.147V352.218V352.288V352.358V352.428V352.499V352.569V352.639V352.709V352.779V352.85V352.92V352.99V353.06V353.13V353.201V353.271V353.341V353.411V353.482V353.552V353.622V353.692V353.762V353.833V353.903V353.973V354.043V354.113V354.184V354.254V354.324V354.394V354.464V354.535V354.605V354.675V354.745V354.816V354.886V354.956V355.026V355.096V355.167V355.237V355.307V355.377V355.447V355.518V355.588V355.658V355.728V355.799V355.869V355.939V356.009V356.079V356.15V356.22V356.29V356.36V356.43V356.501V356.571V356.641V356.711V356.782V356.852V356.922V356.992V357.062V357.133V357.203V357.273V357.343V357.413V357.484V357.554V357.624V357.694V357.764V357.835V357.905V357.975V358.045V358.116V358.186V358.256V358.326V358.396V358.467V358.537V358.607V358.677V358.747V358.818V358.888V358.958V359.028V359.099V359.169V359.239V359.309V359.379V359.45V359.52V359.59V359.66V359.73V359.801V359.871V359.941V360.011V360.082V360.152V360.222V360.292V360.362V360.433V360.503V360.573V360.643V360.713V360.784V360.854V360.924V360.994V361.064V361.135V361.205V361.275V361.345V361.416V361.486V361.556V361.626V361.696V361.767V361.837V361.907V361.977V362.047V362.118V362.188V362.258V362.328V362.399V362.469V362.539V362.609V362.679V362.75V362.82V362.89V362.96V363.03V363.101V363.171V363.241V363.311V363.382V363.452V363.522V363.592V363.662V363.733V363.803V363.873V363.943V364.013V364.084V364.154V364.224V364.294V364.364V364.435V364.505V364.575V364.645V364.716V364.786V364.856V364.926V364.996V365.067V365.137V365.207V365.277V365.347V365.418V365.488V365.558V365.628V365.699V365.769V365.839V365.909V365.979V366.05V366.12V366.19V366.26V366.33V366.401V366.471V366.541V366.611V366.681V366.752V366.822V366.892V366.962V367.033V367.055C87.5009 367.055 75.3714 367.056 63.2418 367.056Z" fill="#7548CC" stroke="black" stroke-width="1.63981"/>
<path d="M111.312 367.056V367.033V366.963V366.893V366.823V366.753V366.682V366.612V366.542V366.472V366.402V366.331V366.261V366.191V366.121V366.05V365.98V365.91V365.84V365.77V365.699V365.629V365.559V365.489V365.418V365.348V365.278V365.208V365.138V365.067V364.997V364.927V364.857V364.787V364.716V364.646V364.576V364.506V364.435V364.365V364.295V364.225V364.155V364.084V364.014V363.944V363.874V363.804V363.733V363.663V363.593V363.523V363.452V363.382V363.312V363.242V363.172V363.101V363.031V362.961V362.891V362.82V362.75V362.68V362.61V362.54V362.469V362.399V362.329V362.259V362.189V362.118V362.048V361.978V361.908V361.837V361.767V361.697V361.627V361.557V361.486V361.416V361.346V361.276V361.206V361.135V361.065V360.995V360.925V360.854V360.784V360.714V360.644V360.574V360.503V360.433V360.363V360.293V360.223V360.152V360.082V360.012V359.942V359.871V359.801V359.731V359.661V359.591V359.52V359.45V359.38V359.31V359.239V359.169V359.099V359.029V358.959V358.888V358.818V358.748V358.678V358.608V358.537V358.467V358.397V358.327V358.256V358.186V358.116V358.046V357.976V357.905V357.835V357.765V357.695V357.625V357.554V357.484V357.414V357.344V357.273V357.203V357.133V357.063V356.993V356.922V356.852V356.782V356.712V356.642V356.571V356.501V356.431V356.361V356.29V356.22V356.15V356.08V356.01V355.939V355.869V355.799V355.729V355.659V355.588V355.518V355.448V355.378V355.307V355.237V355.167V355.097V355.027V354.956V354.886V354.816V354.746V354.675V354.605V354.535V354.465V354.395V354.324V354.254V354.184V354.114V354.044V353.973V353.903V353.833V353.763V353.692V353.622V353.552V353.482V353.412V353.341V353.271V353.201V353.131V353.061V352.99V352.92V352.85V352.78V352.709V352.639V352.569V352.499V352.429V352.358V352.288V352.218V352.148V352.078V352.007V351.937V351.867V351.797V351.726V351.656V351.586V351.516V351.446V351.375V351.305V351.235V351.165V351.095V351.024V350.954V350.884V350.814V350.743V350.673V350.603V350.533V350.463V350.392V350.322V350.252V350.182V350.111V350.041V349.971V349.901V349.831V349.76V349.69V349.62V349.55V349.48V349.409V349.339V349.269V349.199V349.128V349.058V348.988V348.918V348.848V348.777V348.707V348.637V348.567V348.497V348.426V348.356V348.286V348.216V348.145V348.075V348.005V347.935V347.865V347.794V347.724V347.654V347.584V347.514V347.443V347.373V347.303V347.233V347.162V347.092V347.022V346.952V346.882V346.811V346.741V346.671V346.601V346.531V346.46V346.39V346.32V346.25V346.179V346.109V346.039V345.969V345.899V345.828V345.758V345.688V345.618V345.548V345.477V345.407V345.337V345.267V345.196V345.126V345.056V344.986V344.916V344.845V344.775V344.705V344.635V344.564V344.494V344.424V344.354V344.284V344.213V344.143V344.073V344.003V343.933V343.862V343.792V343.722V343.652V343.581V343.511V343.441V343.371V343.301V343.23V343.16V343.09V343.02V342.95V342.879V342.809V342.739V342.669V342.598V342.528V342.458V342.388V342.318V342.247V342.177V342.107V342.037V341.967V341.896V341.826V341.756V341.686V341.615V341.545V341.475V341.405V341.335V341.264V341.194V341.124V341.054V340.984V340.913V340.843V340.773V340.703V340.632V340.562V340.492V340.422V340.352V340.281V340.211V340.141V340.071V340.001V339.93V339.86V339.79V339.72V339.649V339.579V339.509V339.439V339.369V339.298V339.228V339.158V339.088V339.018V338.947V338.877V338.807V338.737V338.666V338.596V338.526V338.456V338.386V338.315V338.245V338.175V338.105V338.034V337.964V337.894V337.824V337.754V337.683V337.613V337.543V337.473V337.403V337.332V337.262V337.192V337.122V337.051V336.981V336.911V336.841V336.771V336.7V336.63V336.56V336.49V336.42V336.349V336.279V336.209V336.139V336.068V335.998V335.928V335.858V335.788V335.717V335.647V335.577V335.507V335.437V335.366V335.296V335.226V335.156V335.085V335.015V334.945V334.875V334.805V334.734V334.664V334.594V334.524V334.454V334.383V334.313V334.243V334.173V334.102V334.032V333.962V333.892V333.822V333.751V333.681V333.611V333.541V333.471V333.4V333.33V333.26V333.19V333.119V333.049V332.979V332.909V332.839V332.768V332.746L129.506 332.748L129.507 332.748L147.701 332.746V332.768V332.839V332.909V332.979V333.049V333.119V333.19V333.26V333.33V333.4V333.471V333.541V333.611V333.681V333.751V333.822V333.892V333.962V334.032V334.102V334.173V334.243V334.313V334.383V334.454V334.524V334.594V334.664V334.734V334.805V334.875V334.945V335.015V335.085V335.156V335.226V335.296V335.366V335.437V335.507V335.577V335.647V335.717V335.788V335.858V335.928V335.998V336.068V336.139V336.209V336.279V336.349V336.42V336.49V336.56V336.63V336.7V336.771V336.841V336.911V336.981V337.051V337.122V337.192V337.262V337.332V337.403V337.473V337.543V337.613V337.683V337.754V337.824V337.894V337.964V338.034V338.105V338.175V338.245V338.315V338.386V338.456V338.526V338.596V338.666V338.737V338.807V338.877V338.947V339.017V339.088V339.158V339.228V339.298V339.369V339.439V339.509V339.579V339.649V339.72V339.79V339.86V339.93V340V340.071V340.141V340.211V340.281V340.352V340.422V340.492V340.562V340.632V340.703V340.773V340.843V340.913V340.983V341.054V341.124V341.194V341.264V341.335V341.405V341.475V341.545V341.615V341.686V341.756V341.826V341.896V341.966V342.037V342.107V342.177V342.247V342.318V342.388V342.458V342.528V342.598V342.669V342.739V342.809V342.879V342.949V343.02V343.09V343.16V343.23V343.301V343.371V343.441V343.511V343.581V343.652V343.722V343.792V343.862V343.932V344.003V344.073V344.143V344.213V344.284V344.354V344.424V344.494V344.564V344.635V344.705V344.775V344.845V344.915V344.986V345.056V345.126V345.196V345.267V345.337V345.407V345.477V345.547V345.618V345.688V345.758V345.828V345.898V345.969V346.039V346.109V346.179V346.25V346.32V346.39V346.46V346.53V346.601V346.671V346.741V346.811V346.881V346.952V347.022V347.092V347.162V347.233V347.303V347.373V347.443V347.513V347.584V347.654V347.724V347.794V347.864V347.935V348.005V348.075V348.145V348.216V348.286V348.356V348.426V348.496V348.567V348.637V348.707V348.777V348.847V348.918V348.988V349.058V349.128V349.198V349.269V349.339V349.409V349.479V349.55V349.62V349.69V349.76V349.83V349.901V349.971V350.041V350.111V350.181V350.252V350.322V350.392V350.462V350.533V350.603V350.673V350.743V350.813V350.884V350.954V351.024V351.094V351.164V351.235V351.305V351.375V351.445V351.516V351.586V351.656V351.726V351.796V351.867V351.937V352.007V352.077V352.147V352.218V352.288V352.358V352.428V352.499V352.569V352.639V352.709V352.779V352.85V352.92V352.99V353.06V353.13V353.201V353.271V353.341V353.411V353.482V353.552V353.622V353.692V353.762V353.833V353.903V353.973V354.043V354.113V354.184V354.254V354.324V354.394V354.464V354.535V354.605V354.675V354.745V354.816V354.886V354.956V355.026V355.096V355.167V355.237V355.307V355.377V355.447V355.518V355.588V355.658V355.728V355.799V355.869V355.939V356.009V356.079V356.15V356.22V356.29V356.36V356.43V356.501V356.571V356.641V356.711V356.782V356.852V356.922V356.992V357.062V357.133V357.203V357.273V357.343V357.413V357.484V357.554V357.624V357.694V357.764V357.835V357.905V357.975V358.045V358.116V358.186V358.256V358.326V358.396V358.467V358.537V358.607V358.677V358.747V358.818V358.888V358.958V359.028V359.099V359.169V359.239V359.309V359.379V359.45V359.52V359.59V359.66V359.73V359.801V359.871V359.941V360.011V360.082V360.152V360.222V360.292V360.362V360.433V360.503V360.573V360.643V360.713V360.784V360.854V360.924V360.994V361.064V361.135V361.205V361.275V361.345V361.416V361.486V361.556V361.626V361.696V361.767V361.837V361.907V361.977V362.047V362.118V362.188V362.258V362.328V362.399V362.469V362.539V362.609V362.679V362.75V362.82V362.89V362.96V363.03V363.101V363.171V363.241V363.311V363.382V363.452V363.522V363.592V363.662V363.733V363.803V363.873V363.943V364.013V364.084V364.154V364.224V364.294V364.364V364.435V364.505V364.575V364.645V364.716V364.786V364.856V364.926V364.996V365.067V365.137V365.207V365.277V365.347V365.418V365.488V365.558V365.628V365.699V365.769V365.839V365.909V365.979V366.05V366.12V366.19V366.26V366.33V366.401V366.471V366.541V366.611V366.681V366.752V366.822V366.892V366.962V367.033V367.055C135.571 367.055 123.442 367.056 111.312 367.056Z" fill="#7548CC" stroke="black" stroke-width="1.63981"/>
<path d="M112.039 328.833V328.807V328.737V328.667V328.596V328.526V328.455V328.385V328.314V328.244V328.173V328.103V328.033V327.962V327.892V327.821V327.751V327.68V327.61V327.54V327.469V327.399V327.328V327.258V327.187V327.117V327.047V326.976V326.906V326.835V326.765V326.694V326.624V326.553V326.483V326.413V326.342V326.272V326.201V326.131V326.06V325.99V325.92V325.849V325.779V325.708V325.638V325.567V325.497V325.426V325.356V325.286V325.215V325.145V325.074V325.004V324.933V324.863V324.793V324.722V324.652V324.581V324.511V324.44V324.37V324.3V324.229V324.159V324.088V324.018V323.947V323.877V323.806V323.736V323.666V323.595V323.525V323.454V323.384V323.313V323.243V323.173V323.102V323.032V322.961V322.891V322.82V322.75V322.68V322.609V322.539V322.468V322.398V322.327V322.257V322.186V322.116V322.046V321.975V321.905V321.834V321.764V321.693V321.623V321.553V321.482V321.412V321.341V321.271V321.2V321.13V321.059V320.989V320.919V320.848V320.778V320.707V320.637V320.566V320.496V320.426V320.355V320.285V320.214V320.144V320.073V320.003V319.933V319.862V319.792V319.721V319.651V319.58V319.51V319.439V319.369V319.299V319.228V319.158V319.087V319.017V318.946V318.876V318.806V318.735V318.665V318.594V318.524V318.453V318.383V318.313V318.242V318.172V318.101V318.031V317.96V317.89V317.819V317.749V317.679V317.608V317.538V317.467V317.397V317.326V317.256V317.186V317.115V317.045V316.974V316.904V316.833V316.763V316.693V316.622V316.552V316.481V316.411V316.34V316.27V316.199V316.129V316.059V315.988V315.918V315.847V315.777V315.706V315.636V315.566V315.495V315.425V315.354V315.284V315.213V315.143V315.072V315.002V314.932V314.861V314.791V314.72V314.65V314.579V314.509V314.439V314.368V314.298V314.227V314.157V314.086V314.016V313.946V313.875V313.805V313.734V313.664V313.593V313.523V313.452V313.382V313.312V313.241V313.171V313.1V313.03V312.959V312.889V312.819V312.748V312.678V312.607V312.537V312.466V312.396V312.326V312.255V312.185V312.114V312.044V311.973V311.903V311.832V311.762V311.692V311.621V311.551V311.48V311.41V311.339V311.269V311.199V311.128V311.058V310.987V310.917V310.846V310.776V310.706V310.635V310.565V310.494V310.424V310.353V310.283V310.212V310.142V310.072V310.001V309.931V309.86V309.79V309.719V309.649V309.579V309.508V309.438V309.367V309.297V309.226V309.156V309.086V309.015V308.945V308.874V308.804V308.733V308.663V308.592V308.522V308.452V308.381V308.311V308.24V308.17V308.099V308.029V307.959V307.888V307.818V307.747V307.677V307.606V307.536V307.466V307.395V307.325V307.254V307.184V307.113V307.043V306.972V306.902V306.832V306.761V306.691V306.62V306.55V306.479V306.409V306.339V306.268V306.198V306.127V306.057V305.986V305.916V305.846V305.775V305.705V305.634V305.564V305.493V305.423V305.352V305.282V305.212V305.141V305.071V305V304.93V304.859V304.789V304.719V304.648V304.578V304.507V304.437V304.366V304.296V304.226V304.155V304.085V304.014V303.944V303.873V303.803V303.732V303.662V303.592V303.521V303.451V303.38V303.31V303.239V303.169V303.099V303.028V302.958V302.887V302.817V302.746V302.676V302.606V302.535V302.465V302.394V302.324V302.253V302.183V302.112V302.042V301.972V301.901V301.831V301.76V301.69V301.619V301.549V301.479V301.408V301.338V301.267V301.197V301.126V301.056V300.985V300.915V300.845V300.774V300.704V300.633V300.563V300.492V300.422V300.352V300.281V300.211V300.14V300.07V299.999V299.929V299.859V299.788V299.718V299.647V299.577V299.506V299.436V299.365V299.295V299.225V299.154V299.084V299.013V298.943V298.872V298.802V298.732V298.661V298.591V298.52V298.45V298.379V298.309V298.239V298.168V298.098V298.027V297.957V297.886V297.816V297.745V297.675V297.605V297.534V297.464V297.393V297.323V297.252V297.182V297.112V297.041V296.971V296.9V296.83V296.759V296.689V296.619V296.548V296.478V296.407V296.337V296.266V296.196V296.125V296.055V295.985V295.914V295.844V295.773V295.703V295.632V295.562V295.492V295.421V295.351V295.28V295.21V295.139V295.069V294.999V294.928V294.858V294.787V294.717V294.646V294.576V294.505V294.435V294.41L130.233 294.412L130.233 294.412L148.427 294.41V294.435V294.505V294.576V294.646V294.717V294.787V294.858V294.928V294.999V295.069V295.139V295.21V295.28V295.351V295.421V295.492V295.562V295.632V295.703V295.773V295.844V295.914V295.985V296.055V296.125V296.196V296.266V296.337V296.407V296.478V296.548V296.619V296.689V296.759V296.83V296.9V296.971V297.041V297.112V297.182V297.252V297.323V297.393V297.464V297.534V297.605V297.675V297.745V297.816V297.886V297.957V298.027V298.098V298.168V298.239V298.309V298.379V298.45V298.52V298.591V298.661V298.732V298.802V298.872V298.943V299.013V299.084V299.154V299.225V299.295V299.365V299.436V299.506V299.577V299.647V299.718V299.788V299.859V299.929V299.999V300.07V300.14V300.211V300.281V300.352V300.422V300.492V300.563V300.633V300.704V300.774V300.845V300.915V300.985V301.056V301.126V301.197V301.267V301.338V301.408V301.479V301.549V301.619V301.69V301.76V301.831V301.901V301.972V302.042V302.112V302.183V302.253V302.324V302.394V302.465V302.535V302.605V302.676V302.746V302.817V302.887V302.958V303.028V303.098V303.169V303.239V303.31V303.38V303.451V303.521V303.592V303.662V303.732V303.803V303.873V303.944V304.014V304.085V304.155V304.225V304.296V304.366V304.437V304.507V304.578V304.648V304.718V304.789V304.859V304.93V305V305.071V305.141V305.212V305.282V305.352V305.423V305.493V305.564V305.634V305.705V305.775V305.845V305.916V305.986V306.057V306.127V306.198V306.268V306.338V306.409V306.479V306.55V306.62V306.691V306.761V306.831V306.902V306.972V307.043V307.113V307.184V307.254V307.325V307.395V307.465V307.536V307.606V307.677V307.747V307.818V307.888V307.958V308.029V308.099V308.17V308.24V308.311V308.381V308.451V308.522V308.592V308.663V308.733V308.804V308.874V308.944V309.015V309.085V309.156V309.226V309.297V309.367V309.438V309.508V309.578V309.649V309.719V309.79V309.86V309.931V310.001V310.071V310.142V310.212V310.283V310.353V310.424V310.494V310.564V310.635V310.705V310.776V310.846V310.917V310.987V311.057V311.128V311.198V311.269V311.339V311.41V311.48V311.551V311.621V311.691V311.762V311.832V311.903V311.973V312.044V312.114V312.184V312.255V312.325V312.396V312.466V312.537V312.607V312.677V312.748V312.818V312.889V312.959V313.03V313.1V313.17V313.241V313.311V313.382V313.452V313.523V313.593V313.664V313.734V313.804V313.875V313.945V314.016V314.086V314.157V314.227V314.297V314.368V314.438V314.509V314.579V314.65V314.72V314.79V314.861V314.931V315.002V315.072V315.143V315.213V315.283V315.354V315.424V315.495V315.565V315.636V315.706V315.777V315.847V315.917V315.988V316.058V316.129V316.199V316.27V316.34V316.41V316.481V316.551V316.622V316.692V316.763V316.833V316.903V316.974V317.044V317.115V317.185V317.256V317.326V317.396V317.467V317.537V317.608V317.678V317.749V317.819V317.889V317.96V318.03V318.101V318.171V318.242V318.312V318.383V318.453V318.523V318.594V318.664V318.735V318.805V318.876V318.946V319.016V319.087V319.157V319.228V319.298V319.369V319.439V319.509V319.58V319.65V319.721V319.791V319.862V319.932V320.002V320.073V320.143V320.214V320.284V320.355V320.425V320.495V320.566V320.636V320.707V320.777V320.848V320.918V320.989V321.059V321.129V321.2V321.27V321.341V321.411V321.482V321.552V321.622V321.693V321.763V321.834V321.904V321.975V322.045V322.115V322.186V322.256V322.327V322.397V322.468V322.538V322.608V322.679V322.749V322.82V322.89V322.961V323.031V323.101V323.172V323.242V323.313V323.383V323.454V323.524V323.595V323.665V323.735V323.806V323.876V323.947V324.017V324.088V324.158V324.228V324.299V324.369V324.44V324.51V324.581V324.651V324.721V324.792V324.862V324.933V325.003V325.074V325.144V325.214V325.285V325.355V325.426V325.496V325.567V325.637V325.707V325.778V325.848V325.919V325.989V326.06V326.13V326.201V326.271V326.341V326.412V326.482V326.553V326.623V326.694V326.764V326.834V326.905V326.975V327.046V327.116V327.187V327.257V327.327V327.398V327.468V327.539V327.609V327.68V327.75V327.82V327.891V327.961V328.032V328.102V328.173V328.243V328.313V328.384V328.454V328.525V328.595V328.666V328.736V328.806V328.832C136.298 328.832 124.168 328.832 112.039 328.833Z" fill="#7548CC" stroke="black" stroke-width="1.63981"/>
<path d="M103.675 196.146L146.257 196.144V214.569H146.229H146.059H145.89H145.72H145.551H145.381H145.212H145.042H144.872H144.703H144.533H144.364H144.194H144.025H143.855H143.686H143.516H143.347H143.177H143.008H142.838H142.668H142.499H142.329H142.16H141.99H141.821H141.651H141.482H141.312H141.143H140.973H140.804H140.634H140.464H140.295H140.125H139.956H139.786H139.617H139.447H139.278H139.108H138.939H138.769H138.6H138.43H138.26H138.091H137.921H137.752H137.582H137.413H137.243H137.074H136.904H136.735H136.565H136.396H136.226H136.057H135.887H135.717H135.548H135.378H135.209H135.039H134.87H134.7H134.531H134.361H134.192H134.022H133.853H133.683H133.513H133.344H133.174H133.005H132.835H132.666H132.496H132.327H132.157H131.988H131.818H131.649H131.479H131.309H131.14H130.97H130.801H130.631H130.462H130.292H130.123H129.953H129.784H129.614H129.445H129.275H129.105H128.936H128.766H128.597H128.427H128.258H128.088H127.919H127.749H127.58H127.41H127.241H127.071H126.902H126.732H126.562H126.393H126.223H126.054H125.884H125.715H125.545H125.376H125.206H125.037H124.867H124.698H124.528H124.358H124.189H124.019H123.85H123.68H123.511H123.341H123.172H123.002H122.833H122.663H122.494H122.324H122.154H121.985H121.815H121.646H121.476H121.307H121.137H120.968H120.798H120.629H120.459H120.29H120.12H119.951H119.781H119.611H119.442H119.272H119.103H118.933H118.764H118.594H118.425H118.255H118.086H117.916H117.747H117.577H117.407H117.238H117.068H116.899H116.729H116.56H116.39H116.221H116.051H115.882H115.712H115.543H115.373H115.203H115.034H114.864H114.695H114.525H114.356H114.186H114.017H113.847H113.678H113.508H113.339H113.169H112.999H112.83H112.66H112.491H112.321H112.152H111.982H111.813H111.643H111.474H111.304H111.135H110.965H110.796H110.626H110.456H110.287H110.117H109.948H109.778H109.609H109.439H109.27H109.1H108.931H108.761H108.592H108.422H108.252H108.083H107.913H107.744H107.574H107.405H107.235H107.066H106.896H106.727H106.557H106.388H106.218H106.048H105.879H105.709H105.54H105.37H105.201H105.031H104.862H104.692H104.523H104.353H104.184H104.014H103.844H103.675H103.505H103.336H103.166H102.997H102.827H102.658H102.488H102.319H102.149H101.98H101.81H101.641H101.471H101.301H101.132H100.962H100.793H100.623H100.454H100.284H100.115H99.9451H99.7756H99.6061H99.4365H99.267H99.0975H98.9279H98.7584H98.5888H98.4193H98.2498H98.0802H97.9107H97.7412H97.5716H97.4021H97.2325H97.063H96.8935H96.7239H96.5544H96.3849H96.2153H96.0458H95.8762H95.7067H95.5372H95.3676H95.1981H95.0286H94.859H94.6895H94.5199H94.3504H94.1809H94.0113H93.8418H93.6723H93.5027H93.3332H93.1637H92.9941H92.8246H92.655H92.4855H92.316H92.1464H91.9769H91.8074H91.6378H91.4683H91.2987H91.1292H90.9597H90.7901H90.6206H90.4511H90.2815H90.112H89.9424H89.7729H89.6034H89.4338H89.2643H89.0948H88.9252H88.7557H88.5861H88.4166H88.2471H88.0775H87.908H87.7385H87.5689H87.3994H87.2299H87.0603H86.8908H86.7212H86.5517H86.3822H86.2126H86.0431H85.8736H85.704H85.5345H85.3649H85.1954H85.0259H84.8563H84.6868H84.5173H84.3477H84.1782H84.0086H83.8391H83.6696H83.5H83.3305H83.161H82.9914H82.8219H82.6523H82.4828H82.3133H82.1437H81.9742H81.8047H81.6351H81.4656H81.2961H81.1265H80.957H80.7874H80.6179H80.4484H80.2788H80.1093H79.9398H79.7702H79.6007H79.4311H79.2616H79.0921H78.9225H78.753H78.5835H78.4139H78.2444H78.0748H77.9053H77.7358H77.5662H77.3967H77.2272H77.0576H76.8881H76.7185H76.549H76.3795H76.2099H76.0404H75.8709H75.7013H75.5318H75.3622H75.1927H75.0232H74.8536H74.6841H74.5146H74.345H74.1755H74.006H73.8364H73.6669H73.4973H73.3278H73.1583H72.9887H72.8192H72.6497H72.4801H72.3106H72.141H71.9715H71.802H71.6324H71.4629H71.2934H71.1238H70.9543H70.7847H70.6152H70.4457H70.2761H70.1066H69.9371H69.7675H69.598H69.4284H69.2589H69.0894H68.9198H68.7503H68.5808H68.4112H68.2417H68.0721H67.9026H67.7331H67.5635H67.394H67.2245H67.0549H66.8854H66.7159H66.5463H66.3768H66.2072H66.0377H65.8682H65.6986H65.5291H65.3596H65.19H65.0205H64.8509H64.6814H64.5119H64.3423H64.1728H64.0033H63.8337H63.6642H63.4946H63.3251H63.1556H62.986H62.8165H62.647H62.4774H62.3079H62.1383H61.9688H61.7993H61.6297H61.4602H61.2907H61.1211H61.0933V214.566V214.527V214.487V214.448V214.409V214.37V214.331V214.291V214.252V214.213V214.174V214.135V214.095V214.056V214.017V213.978V213.939V213.899V213.86V213.821V213.782V213.743V213.704V213.664V213.625V213.586V213.547V213.508V213.468V213.429V213.39V213.351V213.312V213.272V213.233V213.194V213.155V213.116V213.077V213.037V212.998V212.959V212.92V212.881V212.841V212.802V212.763V212.724V212.685V212.645V212.606V212.567V212.528V212.489V212.45V212.41V212.371V212.332V212.293V212.254V212.214V212.175V212.136V212.097V212.058V212.018V211.979V211.94V211.901V211.862V211.823V211.783V211.744V211.705V211.666V211.627V211.587V211.548V211.509V211.47V211.431V211.391V211.352V211.313V211.274V211.235V211.196V211.156V211.117V211.078V211.039V211V210.96V210.921V210.882V210.843V210.804V210.764V210.725V210.686V210.647V210.608V210.569V210.529V210.49V210.451V210.412V210.373V210.333V210.294V210.255V210.216V210.177V210.137V210.098V210.059V210.02V209.981V209.942V209.902V209.863V209.824V209.785V209.746V209.706V209.667V209.628V209.589V209.55V209.51V209.471V209.432V209.393V209.354V209.314V209.275V209.236V209.197V209.158V209.119V209.079V209.04V209.001V208.962V208.923V208.883V208.844V208.805V208.766V208.727V208.687V208.648V208.609V208.57V208.531V208.492V208.452V208.413V208.374V208.335V208.296V208.256V208.217V208.178V208.139V208.1V208.06V208.021V207.982V207.943V207.904V207.865V207.825V207.786V207.747V207.708V207.669V207.629V207.59V207.551V207.512V207.473V207.433V207.394V207.355V207.316V207.277V207.238V207.198V207.159V207.12V207.081V207.042V207.002V206.963V206.924V206.885V206.846V206.806V206.767V206.728V206.689V206.65V206.611V206.571V206.532V206.493V206.454V206.415V206.375V206.336V206.297V206.258V206.219V206.179V206.14V206.101V206.062V206.023V205.983V205.944V205.905V205.866V205.827V205.788V205.748V205.709V205.67V205.631V205.592V205.552V205.513V205.474V205.435V205.396V205.356V205.317V205.278V205.239V205.2V205.161V205.121V205.082V205.043V205.004V204.965V204.925V204.886V204.847V204.808V204.769V204.729V204.69V204.651V204.612V204.573V204.534V204.494V204.455V204.416V204.377V204.338V204.298V204.259V204.22V204.181V204.142V204.102V204.063V204.024V203.985V203.946V203.907V203.867V203.828V203.789V203.75V203.711V203.671V203.632V203.593V203.554V203.515V203.475V203.436V203.397V203.358V203.319V203.279V203.24V203.201V203.162V203.123V203.084V203.044V203.005V202.966V202.927V202.888V202.848V202.809V202.77V202.731V202.692V202.652V202.613V202.574V202.535V202.496V202.457V202.417V202.378V202.339V202.3V202.261V202.221V202.182V202.143V202.104V202.065V202.025V201.986V201.947V201.908V201.869V201.83V201.79V201.751V201.712V201.673V201.634V201.594V201.555V201.516V201.477V201.438V201.398V201.359V201.32V201.281V201.242V201.202V201.163V201.124V201.085V201.046V201.007V200.967V200.928V200.889V200.85V200.811V200.771V200.732V200.693V200.654V200.615V200.575V200.536V200.497V200.458V200.419V200.38V200.34V200.301V200.262V200.223V200.184V200.144V200.105V200.066V200.027V199.988V199.948V199.909V199.87V199.831V199.792V199.753V199.713V199.674V199.635V199.596V199.557V199.517V199.478V199.439V199.4V199.361V199.321V199.282V199.243V199.204V199.165V199.126V199.086V199.047V199.008V198.969V198.93V198.89V198.851V198.812V198.773V198.734V198.694V198.655V198.616V198.577V198.538V198.498V198.459V198.42V198.381V198.342V198.303V198.263V198.224V198.185V198.146V198.107V198.067V198.028V197.989V197.95V197.911V197.871V197.832V197.793V197.754V197.715V197.676V197.636V197.597V197.558V197.519V197.48V197.44V197.401V197.362V197.323V197.284V197.244V197.205V197.166V197.127V197.088V197.049V197.009V196.97V196.931V196.892V196.853V196.813V196.774V196.735V196.696V196.657V196.617V196.578V196.539V196.5V196.461V196.421V196.382V196.343V196.304V196.265V196.226V196.186V196.147V196.144L103.675 196.146H103.675Z" fill="#7548CC" stroke="black" stroke-width="1.63981"/>
<path d="M116.889 209.557L116.778 211.31C116.253 214.839 114.716 217.662 112.168 219.779C109.602 221.893 106.58 222.751 103.103 222.351C99.7844 221.792 97.1303 220.157 95.1409 217.447C93.1528 214.718 92.3467 211.504 92.7224 207.805C93.2475 204.275 94.7843 201.452 97.3326 199.335C99.8986 197.221 102.92 196.364 106.397 196.763C109.716 197.322 112.37 198.957 114.359 201.667C114.997 202.543 115.522 203.498 115.935 204.531L116.455 206.125C116.741 207.221 116.885 208.365 116.889 209.557Z" fill="#25E899"/>
<path d="M57.1593 222.109L56.8985 226.236C55.6654 234.473 52.0863 241.021 46.172 245.934C40.2253 250.834 33.2355 252.828 25.1421 251.902C17.4301 250.598 11.2816 246.809 6.6569 240.509C2.04001 234.17 0.152699 226.7 1.02795 218.047C2.25852 209.802 5.83836 203.248 11.7568 198.332C17.7032 193.433 24.6928 191.439 32.786 192.364C40.498 193.667 46.6464 197.457 51.2716 203.758C52.7489 205.788 53.9679 208.001 54.9281 210.399L56.1553 214.16C56.8141 216.695 57.1495 219.344 57.1593 222.109Z" fill="#DA4985" stroke="black" stroke-width="1.63981"/>
<path d="M193.584 304.077L193.473 305.829C192.948 309.359 191.411 312.182 188.863 314.298C186.297 316.413 183.275 317.27 179.798 316.87C176.48 316.311 173.826 314.677 171.836 311.967C169.848 309.237 169.042 306.023 169.418 302.325C169.943 298.795 171.48 295.971 174.028 293.855C176.594 291.741 179.615 290.883 183.092 291.283C186.411 291.841 189.065 293.476 191.055 296.187C191.692 297.063 192.217 298.017 192.63 299.051L193.15 300.645C193.436 301.741 193.581 302.885 193.584 304.077Z" fill="#DA4985"/>
<path d="M149.887 53.169L148.296 53.1691V53.1685V53.0939V53.0193V52.9447V52.8701V52.7955V52.721V52.6464V52.5718V52.4972V52.4226V52.348V52.2734V52.1988V52.1242V52.0496V51.975V51.9004V51.8258V51.7512V51.6766V51.6021V51.5275V51.4529V51.3783V51.3037V51.2291V51.1545V51.0799V51.0053V50.9307V50.8561V50.7815V50.7069V50.6323V50.5577V50.4831V50.4086V50.334V50.2594V50.1848V50.1102V50.0356V49.961V49.8864V49.8118V49.7372V49.6626V49.588V49.5134V49.4388V49.3642V49.2897V49.2151V49.1405V49.0659V48.9913V48.9167V48.8421V48.7675V48.6929V48.6183V48.5437V48.4691V48.3945V48.3199V48.2453V48.1707V48.0962V48.0216V47.947V47.8724V47.7978V47.7232V47.6486V47.574V47.4994V47.4248V47.3502V47.2756V47.201V47.1264V47.0518V46.9773V46.9027V46.8281V46.7535V46.6789V46.6043V46.5297V46.4551V46.3805V46.3059V46.2313V46.1567V46.0821V46.0075V45.9329V45.8584V45.7838V45.7092V45.6346V45.56V45.4854V45.4108V45.3362V45.2616V45.187V45.1124V45.0378V44.9632V44.8886V44.814V44.7394V44.6649V44.5903V44.5157V44.4411V44.3665V44.2919V44.2173V44.1427V44.0681V43.9935V43.9189V43.8443V43.7697V43.6951V43.6205V43.5459V43.4714V43.3968V43.3222V43.2476V43.173V43.0984V43.0238V42.9492V42.8746V42.8V42.7254V42.6508V42.5762V42.5016V42.427V42.3524V42.2779V42.2033V42.1287V42.0541V41.9795V41.9049V41.8303V41.7557V41.6811V41.6065V41.5319V41.4573V41.3827V41.3081V41.2335V41.1589V41.0844V41.0098V40.9352V40.8606V40.786V40.7114V40.6368V40.5622V40.4876V40.413V40.3384V40.2638V40.1892V40.1146V40.04V39.9654V39.8909V39.8163V39.7417V39.6671V39.5925V39.5179V39.4433V39.3687V39.2941V39.2195V39.1449V39.0703V38.9957V38.9211V38.8465V38.7719V38.6974V38.6228V38.5482V38.4736V38.399V38.3244V38.2498V38.1752V38.1006V38.026V37.9514V37.8768V37.8022V37.7276V37.653V37.5784V37.5038V37.4293V37.3547V37.2801V37.2055V37.1309V37.0563V36.9817V36.9071V36.8325V36.7579V36.6833V36.6087V36.5341V36.4595V36.3849V36.3103V36.2358V36.1612V36.0866V36.012V35.9374V35.8628V35.7882V35.7136V35.639V35.5644V35.4898V35.4152V35.3406V35.266V35.1914V35.1168V35.0422V34.9677V34.8931V34.8185V34.7439V34.6693V34.5947V34.5201V34.4455V34.3709V34.2963V34.2217V34.1471V34.0725V33.9979V33.9233V33.8487V33.7741V33.6996V33.625V33.5504V33.4758V33.4012V33.3266V33.252V33.1774V33.1028V33.0282V32.9536V32.879V32.8044V32.7298V32.6552V32.5806V32.506V32.4315V32.3569V32.2823V32.2077V32.1331V32.0585V31.9839V31.9093V31.8347V31.7601V31.6855V31.6109V31.5363V31.4617V31.3871V31.3125V31.2379V31.1634V31.0888V31.0142V30.9396V30.865V30.7904V30.7158V30.6412V30.5666V30.492V30.4174V30.3428V30.2682V30.1936V30.119V30.0444V29.9698V29.8953V29.8207V29.7461V29.6715V29.5969V29.5223V29.4477V29.3731V29.2985V29.2239V29.1493V29.0747V29.0001V28.9255V28.8509V28.7763V28.7017V28.6271V28.5526V28.478V28.4034V28.3288V28.2542V28.1796V28.105V28.0304V27.9558V27.8812V27.8066V27.732V27.6574V27.5828V27.5082V27.4336V27.359V27.2844V27.2099V27.1353V27.0607V26.9861V26.9115V26.8369V26.7623V26.6877V26.6131V26.5385V26.4639V26.3893V26.3147V26.2401V26.1655V26.0909V26.0163V25.9417V25.8672V25.7926V25.718V25.6434V25.5688V25.4942V25.4196V25.345V25.2704V25.1958V25.1212V25.0466V24.972V24.8974V24.8228V24.7482V24.6736V24.599V24.5245V24.4499V24.3753V24.3007V24.2261V24.1515V24.0769V24.0023V23.9277V23.8531V23.7785V23.7039V23.6293V23.5547V23.4801V23.4055V23.3309V23.2563V23.1818V23.1072V23.0326V22.958V22.8834V22.8088V22.7342V22.6596V22.585V22.5104V22.4358V22.3612V22.2866V22.212V22.1374V22.0628V21.9882V21.9136V21.8391V21.7645V21.6899V21.6153V21.5407V21.4661V21.3915V21.3169V21.2423V21.1677V21.0931V21.0185V20.9439V20.8693V20.7947V20.7201V20.6455V20.5709V20.4963V20.4218V20.3472V20.2726V20.198V20.1234V20.0488V19.9742V19.8996V19.825V19.7504V19.6758V19.6012V19.5266V19.452V19.3774V19.3028V19.2282V19.1536V19.079V19.0045V18.9299V18.8553V18.7807V18.7061V18.6315V18.5569V18.4823V18.4077V18.3331V18.2585V18.1839V18.1093V18.0347V17.9601V17.8855V17.8109V17.7363V17.6617V17.5872V17.5126V17.438V17.3634V17.2888V17.2142V17.1396V17.065V16.9904V16.9158V16.8412V16.7666V16.692V16.6174V16.617L149.091 16.6171L149.091 16.6171L149.887 16.618V16.6195V16.6941V16.7687V16.8433V16.9178V16.9924V17.067V17.1416V17.2162V17.2908V17.3654V17.44V17.5145V17.5891V17.6637V17.7383V17.8129V17.8875V17.9621V18.0367V18.1112V18.1858V18.2604V18.335V18.4096V18.4842V18.5588V18.6333V18.7079V18.7825V18.8571V18.9317V19.0063V19.0809V19.1555V19.23V19.3046V19.3792V19.4538V19.5284V19.603V19.6776V19.7522V19.8267V19.9013V19.9759V20.0505V20.1251V20.1997V20.2743V20.3489V20.4234V20.498V20.5726V20.6472V20.7218V20.7964V20.871V20.9455V21.0201V21.0947V21.1693V21.2439V21.3185V21.3931V21.4677V21.5422V21.6168V21.6914V21.766V21.8406V21.9152V21.9898V22.0644V22.1389V22.2135V22.2881V22.3627V22.4373V22.5119V22.5865V22.6611V22.7357V22.8102V22.8848V22.9594V23.034V23.1086V23.1832V23.2578V23.3324V23.4069V23.4815V23.5561V23.6307V23.7053V23.7799V23.8545V23.9291V24.0036V24.0782V24.1528V24.2274V24.302V24.3766V24.4512V24.5258V24.6003V24.6749V24.7495V24.8241V24.8987V24.9733V25.0479V25.1225V25.197V25.2716V25.3462V25.4208V25.4954V25.57V25.6446V25.7192V25.7938V25.8683V25.9429V26.0175V26.0921V26.1667V26.2413V26.3159V26.3905V26.465V26.5396V26.6142V26.6888V26.7634V26.838V26.9126V26.9872V27.0618V27.1363V27.2109V27.2855V27.3601V27.4347V27.5093V27.5839V27.6585V27.733V27.8076V27.8822V27.9568V28.0314V28.106V28.1806V28.2552V28.3298V28.4043V28.4789V28.5535V28.6281V28.7027V28.7773V28.8519V28.9265V29.0011V29.0756V29.1502V29.2248V29.2994V29.374V29.4486V29.5232V29.5978V29.6723V29.7469V29.8215V29.8961V29.9707V30.0453V30.1199V30.1945V30.2691V30.3436V30.4182V30.4928V30.5674V30.642V30.7166V30.7912V30.8658V30.9404V31.0149V31.0895V31.1641V31.2387V31.3133V31.3879V31.4625V31.5371V31.6117V31.6862V31.7608V31.8354V31.91V31.9846V32.0592V32.1338V32.2084V32.283V32.3575V32.4321V32.5067V32.5813V32.6559V32.7305V32.8051V32.8797V32.9543V33.0289V33.1034V33.178V33.2526V33.3272V33.4018V33.4764V33.551V33.6256V33.7002V33.7747V33.8493V33.9239V33.9985V34.0731V34.1477V34.2223V34.2969V34.3715V34.446V34.5206V34.5952V34.6698V34.7444V34.819V34.8936V34.9682V35.0428V35.1174V35.1919V35.2665V35.3411V35.4157V35.4903V35.5649V35.6395V35.7141V35.7887V35.8633V35.9378V36.0124V36.087V36.1616V36.2362V36.3108V36.3854V36.46V36.5346V36.6091V36.6837V36.7583V36.8329V36.9075V36.9821V37.0567V37.1313V37.2059V37.2805V37.355V37.4296V37.5042V37.5788V37.6534V37.728V37.8026V37.8772V37.9518V38.0264V38.1009V38.1755V38.2501V38.3247V38.3993V38.4739V38.5485V38.6231V38.6977V38.7723V38.8468V38.9214V38.996V39.0706V39.1452V39.2198V39.2944V39.369V39.4436V39.5182V39.5927V39.6673V39.7419V39.8165V39.8911V39.9657V40.0403V40.1149V40.1895V40.2641V40.3387V40.4132V40.4878V40.5624V40.637V40.7116V40.7862V40.8608V40.9354V41.01V41.0846V41.1591V41.2337V41.3083V41.3829V41.4575V41.5321V41.6067V41.6813V41.7559V41.8305V41.9051V41.9796V42.0542V42.1288V42.2034V42.278V42.3526V42.4272V42.5018V42.5764V42.651V42.7256V42.8001V42.8747V42.9493V43.0239V43.0985V43.1731V43.2477V43.3223V43.3969V43.4715V43.5461V43.6206V43.6952V43.7698V43.8444V43.919V43.9936V44.0682V44.1428V44.2174V44.292V44.3666V44.4411V44.5157V44.5903V44.6649V44.7395V44.8141V44.8887V44.9633V45.0379V45.1125V45.1871V45.2616V45.3362V45.4108V45.4854V45.56V45.6346V45.7092V45.7838V45.8584V45.933V46.0076V46.0822V46.1567V46.2313V46.3059V46.3805V46.4551V46.5297V46.6043V46.6789V46.7535V46.8281V46.9027V46.9772V47.0518V47.1264V47.201V47.2756V47.3502V47.4248V47.4994V47.574V47.6486V47.7232V47.7978V47.8723V47.9469V48.0215V48.0961V48.1707V48.2453V48.3199V48.3945V48.4691V48.5437V48.6183V48.6929V48.7675V48.842V48.9166V48.9912V49.0658V49.1404V49.215V49.2896V49.3642V49.4388V49.5134V49.588V49.6626V49.7371V49.8117V49.8863V49.9609V50.0355V50.1101V50.1847V50.2593V50.3339V50.4085V50.4831V50.5577V50.6323V50.7068V50.7814V50.856V50.9306V51.0052V51.0798V51.1544V51.229V51.3036V51.3782V51.4528V51.5274V51.602V51.6765V51.7511V51.8257V51.9003V51.9749V52.0495V52.1241V52.1987V52.2733V52.3479V52.4225V52.4971V52.5717V52.6462V52.7208V52.7954V52.87V52.9446V53.0192V53.0938V53.1684V53.169Z" fill="#1E5EA9" stroke="black" stroke-width="1.63981"/>
<path d="M63.9215 53.4615V53.4334V53.3274V53.2214V53.1153V53.0093V52.9033V52.7973V52.6913V52.5853V52.4792V52.3732V52.2672V52.1612V52.0552V51.9491V51.8431V51.7371V51.6311V51.5251V51.4191V51.313V51.207V51.101V50.995V50.889V50.7829V50.6769V50.5709V50.4649V50.3589V50.2529V50.1468V50.0408V49.9348V49.8288V49.7228V49.6167V49.5107V49.4047V49.2987V49.1927V49.0867V48.9806V48.8746V48.7686V48.6626V48.5566V48.4506V48.3445V48.2385V48.1325V48.0265V47.9205V47.8144V47.7084V47.6024V47.4964V47.3904V47.2844V47.1783V47.0723V46.9663V46.8603V46.7543V46.6482V46.5422V46.4362V46.3302V46.2242V46.1182V46.0121V45.9061V45.8001V45.6941V45.5881V45.482V45.376V45.27V45.164V45.058V44.952V44.8459V44.7399V44.6339V44.5279V44.4219V44.3158V44.2098V44.1038V43.9978V43.8918V43.7858V43.6797V43.5737V43.4677V43.3617V43.2557V43.1497V43.0436V42.9376V42.8316V42.7256V42.6196V42.5135V42.4075V42.3015V42.1955V42.0895V41.9834V41.8774V41.7714V41.6654V41.5594V41.4534V41.3473V41.2413V41.1353V41.0293V40.9233V40.8172V40.7112V40.6052V40.4992V40.3932V40.2872V40.1811V40.0751V39.9691V39.8631V39.7571V39.651V39.545V39.439V39.333V39.227V39.121V39.0149V38.9089V38.8029V38.6969V38.5909V38.4848V38.3788V38.2728V38.1668V38.0608V37.9548V37.8487V37.7427V37.6367V37.5307V37.4247V37.3186V37.2126V37.1066V37.0006V36.8946V36.7886V36.6825V36.5765V36.4705V36.3645V36.2585V36.1524V36.0464V35.9404V35.8344V35.7284V35.6223V35.5163V35.4103V35.3043V35.1983V35.0923V34.9862V34.8802V34.7742V34.6682V34.5622V34.4561V34.3501V34.2441V34.1381V34.0321V33.9261V33.82V33.714V33.608V33.502V33.396V33.2899V33.1839V33.0779V32.9719V32.8659V32.7599V32.6538V32.5478V32.4418V32.3358V32.2298V32.1237V32.0177V31.9117V31.8057V31.6997V31.5936V31.4876V31.3816V31.2756V31.1696V31.0636V30.9575V30.8515V30.7455V30.6395V30.5335V30.4274V30.3214V30.2154V30.1094V30.0034V29.8974V29.7913V29.6853V29.5793V29.4733V29.3673V29.2612V29.1552V29.0492V28.9432V28.8372V28.7311V28.6251V28.5191V28.4131V28.3071V28.2011V28.095V27.989V27.883V27.777V27.671V27.5649V27.4589V27.3529V27.2469V27.1409V27.0348V26.9288V26.8228V26.7168V26.6108V26.5048V26.3987V26.2927V26.1867V26.0807V25.9747V25.8686V25.7626V25.6566V25.5506V25.4446V25.3385V25.2325V25.1265V25.0205V24.9145V24.8085V24.7024V24.5964V24.4904V24.3844V24.2784V24.1723V24.0663V23.9603V23.8543V23.7483V23.6422V23.5362V23.4302V23.3242V23.2182V23.1122V23.0061V22.9001V22.7941V22.6881V22.5821V22.476V22.37V22.264V22.158V22.052V21.9459V21.8399V21.7339V21.6279V21.5219V21.4159V21.3098V21.2038V21.0978V20.9918V20.8858V20.7797V20.6737V20.5677V20.4617V20.3557V20.2496V20.1436V20.0376V19.9316V19.8256V19.7196V19.6135V19.5075V19.4015V19.2955V19.1895V19.0834V18.9774V18.8714V18.7654V18.6594V18.5533V18.4473V18.3413V18.2353V18.1293V18.0232V17.9172V17.8112V17.7052V17.5992V17.4932V17.3871V17.2811V17.1751V17.0691V16.9631V16.857V16.751V16.645V16.539V16.433V16.3269V16.2209V16.1149V16.0089V15.9029V15.7969V15.6908V15.5848V15.4788V15.3728V15.2668V15.1607V15.0547V14.9487V14.8427V14.7367V14.6306V14.5246V14.4186V14.3126V14.2066V14.1005V13.9945V13.8885V13.7825V13.6765V13.5705V13.4644V13.3584V13.2524V13.1464V13.0404V12.9343V12.8283V12.7223V12.6163V12.5103V12.4042V12.2982V12.1922V12.0862V11.9802V11.8741V11.7681V11.6621V11.5561V11.4501V11.3441V11.238V11.132V11.026V10.92V10.814V10.7079V10.6019V10.4959V10.3899V10.2839V10.1778V10.0718V9.9658V9.85978V9.75377V9.64775V9.54173V9.43571V9.32969V9.22367V9.11765V9.01163V8.90561V8.79959V8.69357V8.58755V8.48154V8.37552V8.2695V8.16348V8.05746V7.95144V7.84542V7.7394V7.63338V7.52736V7.42134V7.31533V7.20931V7.10329V6.99727V6.89125V6.78523V6.67921V6.57319V6.46717V6.36115V6.25513V6.14911V6.0431V5.93708V5.83106V5.72504V5.61902V5.513V5.40698V5.30096V5.19494V5.08892V4.9829V4.87688V4.77086V4.66485V4.55883V4.45281V4.34679V4.24077V4.13475V4.02873V3.92271V3.81669V3.71067V3.60465V3.49863V3.39262V3.2866V3.18058V3.07456V2.96854V2.86252V2.7565V2.65048V2.54446V2.43844V2.33242V2.2264V2.12038V2.01437V1.90835V1.80233V1.69631V1.59029V1.48427V1.37825V1.27223V1.16621V1.06019V0.954173V0.848154V0.821385L64.7151 0.822818V0.822824L64.718 0.822818L65.5116 0.821385V0.848154V0.954173V1.06019V1.16621V1.27223V1.37825V1.48427V1.59029V1.69631V1.80233V1.90835V2.01436V2.12038V2.2264V2.33242V2.43844V2.54446V2.65048V2.7565V2.86252V2.96854V3.07456V3.18058V3.28659V3.39261V3.49863V3.60465V3.71067V3.81669V3.92271V4.02873V4.13475V4.24077V4.34679V4.4528V4.55882V4.66484V4.77086V4.87688V4.9829V5.08892V5.19494V5.30096V5.40698V5.51299V5.61901V5.72503V5.83105V5.93707V6.04309V6.14911V6.25513V6.36115V6.46717V6.57318V6.6792V6.78522V6.89124V6.99726V7.10328V7.2093V7.31532V7.42134V7.52735V7.63337V7.73939V7.84541V7.95143V8.05745V8.16347V8.26949V8.37551V8.48152V8.58754V8.69356V8.79958V8.9056V9.01162V9.11764V9.22366V9.32968V9.43569V9.54171V9.64773V9.75375V9.85977V9.96579V10.0718V10.1778V10.2838V10.3899V10.4959V10.6019V10.7079V10.8139V10.92V11.026V11.132V11.238V11.344V11.4501V11.5561V11.6621V11.7681V11.8741V11.9801V12.0862V12.1922V12.2982V12.4042V12.5102V12.6163V12.7223V12.8283V12.9343V13.0403V13.1463V13.2524V13.3584V13.4644V13.5704V13.6764V13.7825V13.8885V13.9945V14.1005V14.2065V14.3126V14.4186V14.5246V14.6306V14.7366V14.8426V14.9487V15.0547V15.1607V15.2667V15.3727V15.4788V15.5848V15.6908V15.7968V15.9028V16.0089V16.1149V16.2209V16.3269V16.4329V16.5389V16.645V16.751V16.857V16.963V17.069V17.1751V17.2811V17.3871V17.4931V17.5991V17.7051V17.8112V17.9172V18.0232V18.1292V18.2352V18.3413V18.4473V18.5533V18.6593V18.7653V18.8713V18.9774V19.0834V19.1894V19.2954V19.4014V19.5075V19.6135V19.7195V19.8255V19.9315V20.0375V20.1436V20.2496V20.3556V20.4616V20.5676V20.6737V20.7797V20.8857V20.9917V21.0977V21.2038V21.3098V21.4158V21.5218V21.6278V21.7338V21.8399V21.9459V22.0519V22.1579V22.2639V22.37V22.476V22.582V22.688V22.794V22.9V23.0061V23.1121V23.2181V23.3241V23.4301V23.5361V23.6422V23.7482V23.8542V23.9602V24.0662V24.1723V24.2783V24.3843V24.4903V24.5963V24.7024V24.8084V24.9144V25.0204V25.1264V25.2324V25.3385V25.4445V25.5505V25.6565V25.7625V25.8685V25.9746V26.0806V26.1866V26.2926V26.3986V26.5047V26.6107V26.7167V26.8227V26.9287V27.0347V27.1408V27.2468V27.3528V27.4588V27.5648V27.6709V27.7769V27.8829V27.9889V28.0949V28.2009V28.307V28.413V28.519V28.625V28.731V28.8371V28.9431V29.0491V29.1551V29.2611V29.3671V29.4732V29.5792V29.6852V29.7912V29.8972V30.0032V30.1093V30.2153V30.3213V30.4273V30.5333V30.6394V30.7454V30.8514V30.9574V31.0634V31.1694V31.2755V31.3815V31.4875V31.5935V31.6995V31.8055V31.9116V32.0176V32.1236V32.2296V32.3356V32.4417V32.5477V32.6537V32.7597V32.8657V32.9717V33.0778V33.1838V33.2898V33.3958V33.5018V33.6078V33.7139V33.8199V33.9259V34.0319V34.1379V34.244V34.35V34.456V34.562V34.668V34.774V34.8801V34.9861V35.0921V35.1981V35.3041V35.4101V35.5162V35.6222V35.7282V35.8342V35.9402V36.0463V36.1523V36.2583V36.3643V36.4703V36.5763V36.6824V36.7884V36.8944V37.0004V37.1064V37.2124V37.3185V37.4245V37.5305V37.6365V37.7425V37.8486V37.9546V38.0606V38.1666V38.2726V38.3786V38.4847V38.5907V38.6967V38.8027V38.9087V39.0147V39.1208V39.2268V39.3328V39.4388V39.5448V39.6508V39.7569V39.8629V39.9689V40.0749V40.1809V40.287V40.393V40.499V40.605V40.711V40.817V40.9231V41.0291V41.1351V41.2411V41.3471V41.4531V41.5592V41.6652V41.7712V41.8772V41.9832V42.0892V42.1953V42.3013V42.4073V42.5133V42.6193V42.7253V42.8314V42.9374V43.0434V43.1494V43.2554V43.3615V43.4675V43.5735V43.6795V43.7855V43.8915V43.9976V44.1036V44.2096V44.3156V44.4216V44.5276V44.6337V44.7397V44.8457V44.9517V45.0577V45.1637V45.2698V45.3758V45.4818V45.5878V45.6938V45.7998V45.9059V46.0119V46.1179V46.2239V46.3299V46.4359V46.542V46.648V46.754V46.86V46.966V47.072V47.1781V47.2841V47.3901V47.4961V47.6021V47.7081V47.8142V47.9202V48.0262V48.1322V48.2382V48.3443V48.4503V48.5563V48.6623V48.7683V48.8743V48.9804V49.0864V49.1924V49.2984V49.4044V49.5104V49.6165V49.7225V49.8285V49.9345V50.0405V50.1465V50.2526V50.3586V50.4646V50.5706V50.6766V50.7826V50.8887V50.9947V51.1007V51.2067V51.3127V51.4187V51.5248V51.6308V51.7368V51.8428V51.9488V52.0548V52.1609V52.2669V52.3729V52.4789V52.5849V52.6909V52.797V52.903V53.009V53.115V53.221V53.327V53.4331V53.4613C64.9815 53.4613 64.4515 53.4614 63.9215 53.4615Z" fill="#1E5EA9" stroke="black" stroke-width="1.63981"/>
<path d="M45.0074 93.29C45.0074 83.748 50.7139 76.2856 57.5726 75.6866L57.5725 110.894C50.7138 110.295 45.0074 102.832 45.0074 93.29Z" fill="#637079" stroke="black" stroke-width="1.63981"/>
<path d="M152.234 75.4796C159.092 76.0786 164.799 83.5412 164.799 93.0832C164.799 102.625 159.092 110.088 152.234 110.687L152.234 75.4796Z" fill="#637079" stroke="black" stroke-width="1.63981"/>
<path d="M73.1989 51.1251H73.199L153.232 51.1246C154.287 51.1246 155.389 51.8531 156.271 53.3451C157.143 54.8189 157.708 56.9084 157.708 59.2605V162.252C157.708 164.604 157.143 166.694 156.271 168.168C155.389 169.66 154.287 170.388 153.232 170.389C153.232 170.389 153.232 170.389 153.232 170.389L57.3121 170.388C56.2566 170.388 55.155 169.66 54.2727 168.168C53.4011 166.694 52.8355 164.605 52.8355 162.252L52.8356 59.2605C52.8356 56.9086 53.4012 54.8191 54.2728 53.3454C55.1551 51.8534 56.2566 51.125 57.3121 51.1251H57.3122L65.7769 51.1248H65.777L73.1989 51.1251Z" fill="#7548CC" stroke="black" stroke-width="1.63981"/>
<path d="M57.2889 162.478L57.289 59.3827C57.289 54.4319 59.9087 50.4179 63.1414 50.418L57.9229 50.4184C54.6907 50.418 52.0704 54.4319 52.0704 59.3827L52.0703 162.479C52.0703 167.43 54.6906 171.444 57.9228 171.444L63.1408 171.444C59.9086 171.444 57.2888 167.43 57.2889 162.478Z" fill="#231F20" fill-opacity="0.0980392"/>
<path d="M145.078 102.263L144.719 108.211C143.016 120.144 138.061 129.64 129.875 136.757C121.645 143.857 111.972 146.738 100.795 145.399C90.1407 143.516 81.6292 138.03 75.2275 128.901C73.1804 125.956 71.4917 122.746 70.1622 119.267L68.47 113.843C67.5537 110.156 67.0889 106.304 67.0777 102.286C67.3606 89.9007 71.1893 79.6494 78.5311 71.4751C85.8657 63.309 95.0309 59.0776 106.078 58.7616C117.126 59.0776 126.292 63.309 133.626 71.4754L134.236 70.9275L133.626 71.4754C140.963 79.6444 144.791 89.8881 145.078 102.263Z" fill="#2BD2C9" stroke="black" stroke-width="1.63981"/>
<path d="M133.422 87.4483L133.278 89.7843C132.973 91.8745 132.408 93.7795 131.582 95.4991C131.169 96.3587 130.691 97.1714 130.147 97.9374C128.675 99.7715 127.714 100.816 127.263 101.072C126.927 101.489 125.745 102.242 123.717 103.332C122.884 103.71 122.023 104.005 121.132 104.218C119.351 104.643 117.451 104.737 115.434 104.5C113.511 104.169 111.757 103.555 110.175 102.658C109.384 102.209 108.636 101.69 107.931 101.1C107.525 100.893 106.564 99.848 105.046 97.9648C102.47 94.08 101.4 90.043 101.837 85.8534C102.029 83.7675 102.504 81.8431 103.262 80.0805C103.641 79.2001 104.091 78.3596 104.611 77.5593C104.791 77.0994 105.723 75.9995 107.406 74.259C110.203 71.6888 113.596 70.3487 117.584 70.2383C119.578 70.2935 121.424 70.656 123.12 71.3261C123.59 71.3976 124.779 72.0732 126.684 73.3527C127.421 73.9182 128.121 74.5604 128.783 75.2795C130.107 76.7186 131.148 78.3189 131.906 80.0805C132.73 82.3547 133.139 83.7681 133.134 84.3202C133.301 85.322 133.397 86.3648 133.422 87.4483Z" fill="white"/>
<path d="M63.4801 170.4L63.4793 170.4C60.6931 170.4 58.6659 170.399 57.1475 170.192C55.6427 169.987 54.8037 169.599 54.2609 168.96C53.6933 168.292 53.3233 167.206 53.121 165.297C52.9203 163.402 52.8965 160.854 52.8952 157.383L52.9013 147.449L157.781 147.531L157.775 157.465L157.775 157.465C157.774 161.561 157.682 164.418 157.399 166.416C157.113 168.437 156.653 169.395 156.081 169.895C155.516 170.389 154.67 170.588 153.153 170.604C152.453 170.612 151.659 170.582 150.733 170.547C150.674 170.545 150.616 170.542 150.556 170.54C149.562 170.503 148.436 170.463 147.173 170.464C147.173 170.464 147.173 170.464 147.172 170.464L63.4801 170.4Z" fill="#29D2C6" stroke="black" stroke-width="1.63981"/>
<path d="M108.304 240.008H105.461L102.617 240.008C102.617 268.185 102.617 296.361 102.617 324.538C104.513 324.538 106.409 324.538 108.304 324.538C108.304 296.361 108.304 268.184 108.304 240.008Z" fill="#A5B3BC"/>
<path d="M134.173 223.279C134.173 240.928 121.324 255.235 105.473 255.235C89.6229 255.235 76.7734 240.928 76.7734 223.279C76.7734 205.631 89.6229 191.324 105.473 191.324C121.324 191.324 134.173 205.631 134.173 223.279Z" fill="white"/>
<path d="M95.8999 238.127C90.3531 240.758 80.9328 240.185 77.5469 230.679C78.9056 237.061 81.9821 242.701 86.2041 246.962C90.0756 246.589 94.0563 245.36 98.0097 242.155C104.588 236.822 106.491 227.61 105.472 223.28C105.13 227.35 102.577 234.961 95.8999 238.127ZM118.807 233.937C121.169 240.114 120.655 250.602 112.118 254.372C117.849 252.859 122.915 249.434 126.742 244.733C126.407 240.423 125.303 235.99 122.424 231.588C117.634 224.264 109.361 222.145 105.472 223.28C109.128 223.661 115.964 226.503 118.807 233.937ZM92.137 212.622C89.7746 206.446 90.2887 195.957 98.8263 192.188C93.0948 193.701 88.0287 197.126 84.2017 201.826C84.537 206.137 85.6412 210.57 88.5197 214.971C93.3097 222.296 101.583 224.415 105.472 223.28C101.816 222.898 94.9805 220.056 92.137 212.622ZM115.044 208.432C120.591 205.802 130.011 206.375 133.397 215.88C132.038 209.499 128.962 203.858 124.74 199.597C120.868 199.97 116.887 201.2 112.934 204.405C106.356 209.738 104.453 218.949 105.472 223.28C105.814 219.209 108.367 211.598 115.044 208.432Z" fill="#20A59F"/>
<path d="M89.2754 226.242C83.6826 223.735 77.3854 215.913 81.0276 206.525C77.936 212.107 76.5289 218.518 76.8081 224.855C79.7824 227.639 83.3785 229.905 88.2092 230.75C96.2478 232.158 103.443 227.143 105.473 223.279C102.646 225.888 96.007 229.26 89.2754 226.242ZM108.134 241.314C105.882 247.541 98.8573 254.553 90.426 250.497C95.4396 253.94 101.197 255.506 106.889 255.195C109.389 251.883 111.423 247.879 112.183 242.501C113.448 233.551 108.943 225.538 105.473 223.279C107.816 226.426 110.844 233.819 108.134 241.314ZM102.813 205.244C105.064 199.017 112.089 192.006 120.52 196.061C115.507 192.619 109.749 191.052 104.058 191.363C101.557 194.675 99.5226 198.679 98.7628 204.057C97.4983 213.008 102.002 221.019 105.473 223.279C103.13 220.131 100.101 212.739 102.813 205.244ZM121.671 220.316C127.263 222.824 133.561 230.645 129.918 240.033C133.01 234.45 134.417 228.04 134.138 221.703C131.164 218.918 127.568 216.654 122.737 215.808C114.698 214.4 107.502 219.415 105.473 223.279C108.299 220.67 114.939 217.299 121.671 220.316Z" fill="#7548CC"/>
<path d="M82.0502 161.25L82.0542 159.452L82.0477 153.702C98.9924 163.799 116.734 163.799 131.33 152.824C131.329 154.023 130.803 160.098 130.803 161.297C115.165 165.994 97.819 166.433 82.0502 161.25Z" fill="#1E5EA9"/>
</svg>
