<svg width="301" height="201" viewBox="0 0 301 201" fill="none" xmlns="http://www.w3.org/2000/svg">
<path d="M287.917 0C282.799 23.9577 277.558 47.3339 267.766 61.155C257.724 75.3296 242.847 79.4717 227.589 83.6763L227.52 83.6954C227.123 83.8048 226.836 84.1314 226.836 84.5172C226.836 84.7912 226.983 85.0486 227.232 85.2109C227.401 85.3211 227.604 85.3784 227.809 85.3784C227.906 85.3784 228.003 85.3656 228.098 85.3395L228.168 85.3204C243.374 81.1299 258.947 76.8463 269.415 62.0696C279.484 47.8572 284.784 23.9556 289.897 2.19884e-05L287.919 0H287.917Z" fill="#535D66"/>
<path d="M265.518 0L263.567 0.00020889L263.565 0.000406786C265.795 20.6079 267.951 40.8343 262.095 53.088C256.311 65.1913 242.602 69.5998 228.332 74.1375C227.826 74.2983 227.563 74.7914 227.745 75.2389C227.888 75.5902 228.262 75.809 228.661 75.809C228.77 75.809 228.881 75.7926 228.99 75.758C243.072 71.2802 257.715 66.6733 263.887 53.7586C269.967 41.0384 267.721 20.3439 265.52 0H265.518Z" fill="#535D66"/>
<path d="M112.507 188.184C113.256 188.743 114.172 188.895 115.255 188.643C115.522 188.576 115.854 188.435 116.251 188.222C118.165 186.991 119.434 186.264 120.059 186.04C121 185.628 122.121 185.326 123.424 185.135C126.502 184.725 129.613 184.726 132.757 185.141C134.01 185.344 134.681 185.712 134.768 186.244C130.394 188.925 128.336 190.546 128.595 191.108C128.597 191.544 129.039 191.822 129.918 191.942C130.787 192.047 131.656 191.926 132.525 191.58C132.937 191.414 133.35 191.185 133.764 190.894C135.573 189.441 136.824 188.501 137.515 188.073L143.604 184.241C144.146 183.889 144.849 183.32 145.715 182.535C145.848 182.428 146 182.327 146.17 182.232C146.779 181.846 148.556 181.5 151.5 181.194L150.828 172.631C141.216 173.789 133.238 175.647 126.892 178.203C122.838 179.851 118.58 182.107 114.119 184.973C112.075 186.342 111.526 187.403 112.473 188.155L112.507 188.184Z" fill="#FFB89B"/>
<path d="M230.962 108.127L205.279 111.709L202.182 113.922L185.311 119.177C183.157 122.961 181.967 126.06 181.742 128.474L181.512 132.029C182.386 139.295 182.618 143.61 182.42 145.002C181.822 149.203 180.127 156.809 177.12 167.797L147.586 173.023L149.507 187.804L182.157 184.275C182.405 185.517 182.076 190.811 181.171 200.156L254.678 200.156C253.585 186.574 252.876 178.893 252.554 177.112C252.476 176.677 252.648 174.103 253.065 169.392C255.979 180.148 260.655 186.905 268.192 190.516C274.284 191.322 276.695 189.552 277.986 188.659C279.925 187.318 281.299 185.964 281.063 180.241L275.084 169.249C274.318 167.951 272.944 165.164 271.49 160.742C269.315 154.126 266.776 141.916 263.339 124.242L235.693 112.968L232.085 109.225L230.962 108.127Z" fill="#0F1D2A"/>
<path d="M229.527 106.754L205.834 111.482C200.634 126.895 196.979 140.388 194.869 151.96C192.833 163.629 191.036 179.693 189.477 200.151L215.055 200.151C216.825 175.426 218.191 160.212 219.155 154.511C219.954 149.364 221.046 144.438 222.432 139.734L224.904 132.174L230.384 116.941C230.492 116.891 230.624 114.337 230.782 109.278L230.112 106.907L229.527 106.754Z" fill="white"/>
<path d="M209.952 117.867L214.549 118.61L217.702 123.48L212.005 126.866C212.381 126.86 212.577 127.676 212.593 129.312C212.63 130.957 212.505 133.911 212.218 138.173C211.766 145.208 210.219 163.232 207.576 192.248L201.077 197.899L195.766 192.632L195.766 192.525L204.735 135.352L207.87 126.086L206.662 120.674L209.945 117.874L209.952 117.867Z" fill="black"/>
<path d="M216.547 98.5821L216.887 98.6536C218.551 98.9982 219.78 99.2839 220.572 99.5107C221.241 99.7015 222.011 99.9706 222.881 100.318C223.158 100.249 223.595 100.182 224.189 100.118C224.525 100.088 224.85 100.078 225.164 100.087C226.11 100.114 227.39 100.224 229.003 100.417C227.835 101.341 226.702 101.923 225.604 102.163C224.397 102.413 222.976 102.376 221.341 102.051C220.206 101.803 219.332 101.468 218.721 101.043C218.447 100.852 218.172 100.611 217.897 100.322C217.032 99.1547 216.582 98.5748 216.547 98.5821Z" fill="#FFA988"/>
<path d="M218.32 93.9668V93.967C219.561 94.999 220.522 95.7177 221.202 96.1233C222.039 96.6427 222.828 96.9385 223.568 97.0106C223.853 97.0337 224.135 97.0236 224.416 96.9804L224.836 96.895C225.115 96.8232 225.393 96.7271 225.67 96.6068C226.363 96.3181 227.324 95.7281 228.552 94.8366L223.191 98.8543L218.32 93.9668Z" fill="#FFA988"/>
<path d="M229.43 87.562L229.43 87.5624C230.133 87.3582 230.687 87.2341 231.091 87.1899C231.253 87.1705 231.416 87.1592 231.58 87.1562L231.828 87.1593L232.079 87.1774L232.333 87.2121L232.591 87.2648L232.852 87.3339L233.115 87.4182C233.292 87.4796 233.471 87.549 233.65 87.6265C234.099 87.816 234.74 88.1437 235.572 88.6096L229.43 87.562Z" fill="white" fill-opacity="0.996078"/>
<path d="M233.95 87.7538L233.96 87.7713C234.007 87.8444 234.022 87.9157 234.004 87.9854C233.991 88.046 233.923 88.1557 233.799 88.3143L231.143 87.9228C231.116 87.5771 231.144 87.3718 231.229 87.3069C231.258 87.2677 231.306 87.2202 231.372 87.1642C231.495 87.1518 231.618 87.1418 231.743 87.1343C232.088 87.1159 232.39 87.1445 232.649 87.2201C232.722 87.2401 232.797 87.2633 232.873 87.2895C232.909 87.2997 233.026 87.3443 233.222 87.4235C233.461 87.5253 233.703 87.6354 233.95 87.7538Z" fill="black" fill-opacity="0.996078"/>
<path d="M220.375 85.9063L220.375 85.9066C219.817 85.4757 219.362 85.1703 219.009 84.9903C218.869 84.9168 218.724 84.8503 218.574 84.7908L218.344 84.7079L218.105 84.6378L217.855 84.5823L217.595 84.5417L217.324 84.5155L217.044 84.5023C216.855 84.4977 216.66 84.5001 216.46 84.5094C215.963 84.5291 215.229 84.6099 214.258 84.752L220.375 85.9063Z" fill="white" fill-opacity="0.996078"/>
<path d="M222.375 85.0195L222.583 85.0429C223.489 85.1393 224.222 85.2503 224.78 85.3759C225.281 85.4833 225.965 85.7022 226.831 86.0326L226.56 87.1791C226.003 86.9607 225.571 86.8006 225.265 86.6987C224.837 86.5599 224.533 86.4725 224.353 86.4365C224.171 86.3897 223.873 86.3391 223.459 86.2847C223.164 86.2485 222.753 86.2154 222.227 86.1854L222.375 85.0195Z" fill="black" fill-opacity="0.996078"/>
<path d="M228.875 84.7286L229.185 84.6703C229.805 84.5466 230.419 84.4558 231.027 84.3978C231.229 84.381 231.43 84.3714 231.63 84.3691L231.927 84.3726C232.125 84.379 232.321 84.3955 232.515 84.4221L232.804 84.4704L233.091 84.5337L233.374 84.6105C233.563 84.6665 233.75 84.7298 233.935 84.8003C234.4 84.973 235.04 85.271 235.855 85.6944L228.875 84.7286Z" fill="black" fill-opacity="0.996078"/>
<path d="M229.562 94.627L229.706 94.9154C230.14 95.8124 230.552 96.582 230.94 97.224C231.069 97.4219 231.179 97.5814 231.268 97.7024L231.953 98.4705C232.012 98.5602 232.057 98.6413 232.087 98.7139C232.142 98.9335 232.141 99.1802 232.083 99.4538C232.029 99.7421 231.897 100.201 231.685 100.832C231.822 100.182 231.904 99.7116 231.932 99.42C231.964 99.1423 231.953 98.8984 231.897 98.6883C231.869 98.6199 231.828 98.5447 231.776 98.4625C231.437 98.0762 231.236 97.8368 231.174 97.7445C231.111 97.6535 231.05 97.5582 230.989 97.4588L230.79 97.1287C230.546 96.6994 230.137 95.8655 229.562 94.627Z" fill="#FF0C00" fill-opacity="0.105882"/>
<path d="M217.806 92.6602L217.583 92.9057C216.9 93.6718 216.276 94.3202 215.712 94.8508C215.529 95.0122 215.377 95.1409 215.255 95.2371L214.368 95.8214C214.284 95.8942 214.217 95.9622 214.167 96.0255C214.049 96.2248 213.978 96.4633 213.954 96.741C213.92 97.0316 213.913 97.5056 213.933 98.1631C213.991 97.5043 214.05 97.0309 214.109 96.7428C214.159 96.4673 214.242 96.2345 214.358 96.0446C214.405 95.985 214.466 95.9215 214.541 95.8543C214.982 95.5591 215.246 95.3742 215.334 95.2995C215.421 95.2259 215.508 95.1481 215.596 95.0661L215.885 94.7931C216.247 94.4349 216.887 93.7239 217.806 92.6602Z" fill="#FF0C00" fill-opacity="0.105882"/>
<path d="M247.167 187.153C246.364 186.809 245.903 186.254 245.783 185.488C245.752 184.614 246.096 184.062 246.814 183.832C247.121 183.737 247.529 183.709 248.037 183.746C250.063 184.065 251.167 184.208 251.351 184.174C251.906 184.191 252.467 184.147 253.034 184.042C253.892 183.881 254.846 183.601 255.897 183.202C256.436 183.037 257.853 182.374 260.148 181.215C260.756 180.956 261.409 180.744 262.106 180.578C262.61 180.46 263.194 180.352 263.857 180.255C267.513 179.812 269.541 179.53 269.94 179.411C271.377 179.121 272.753 178.716 274.069 178.195L276.016 178.599C277.18 179.263 277.901 179.9 278.18 180.511C278.482 181.145 278.497 182.048 278.224 183.223C277.56 185.931 276.083 187.58 273.795 188.169C273.249 188.332 272.612 188.47 271.886 188.582L266.941 189.221C266.135 189.315 265.085 189.337 263.792 189.289C260.414 189.221 257.717 188.608 255.699 187.447C251.139 187.798 248.306 187.704 247.2 187.166L247.167 187.153Z" fill="#FFB89B"/>
<path d="M228.353 105.243L228.786 105.237C230.803 105.206 231.904 104.874 232.089 104.241C232.18 104.196 232.254 103.858 232.309 103.227C232.215 101.617 232.186 100.501 232.223 99.8775C232.334 98.6619 232.45 97.8976 232.571 97.5845L233.166 95.8413C234.715 92.6018 235.666 90.5258 236.018 89.6134C236.326 88.8389 236.592 88.0371 236.816 87.2081C237.287 85.5492 237.437 83.7836 237.265 81.9113C237.32 81.452 236.984 80.0298 236.259 77.6448C235.559 75.7209 234.593 73.8907 233.361 72.1542C232.749 71.2944 232.085 70.4831 231.368 69.7204C230.999 69.2122 229.89 68.2605 228.041 66.8653C227.015 66.036 225.103 65.1389 222.303 64.174C220.001 63.4624 217.339 63.1149 214.317 63.1314C208.789 63.3071 203.605 64.6066 198.763 67.0301C194.996 68.8593 192.01 71.5637 189.805 75.1434L228.353 105.243Z" fill="#7A270F"/>
<path d="M206.411 113.001L205.297 111.496L195.882 111.531C195.595 111.169 195.353 110.732 195.155 110.222C194.957 109.712 194.893 108.98 194.962 108.026C195.869 102.867 196.285 100.066 196.209 99.6239C196.286 97.1189 196.169 95.1679 195.855 93.7707C195.526 90.5684 193.509 86.3172 189.805 81.0172C190.56 78.7401 191.619 76.513 192.981 74.3359C195.17 77.3 196.797 79.028 197.862 79.5199C198.638 79.9364 199.285 80.153 199.803 80.1699C202.608 80.1101 204.061 80.1511 204.163 80.2931C204.749 80.4009 205.328 80.737 205.901 81.3016C207.202 82.745 208.492 85.758 209.772 90.3405L212.606 89.9088L216.588 86.2741C217.916 85.7456 218.932 85.3891 219.636 85.2047C221.792 84.509 223.497 84.8968 224.751 86.3682C225.293 86.8304 225.945 88.4336 226.706 91.1778C227.225 93.2204 227.79 96.6107 228.401 101.349L230.195 108.8L213.776 117.866L206.411 113.001Z" fill="#FFB093"/>
<path d="M192.402 80.6494C192.004 80.5734 191.595 80.5121 191.176 80.4654C190.691 80.4601 190.284 80.4916 189.958 80.5601C189.906 80.7106 189.855 80.8613 189.805 81.0122C193.509 86.3123 195.526 90.5635 195.856 93.7658C196.169 95.163 196.286 97.114 196.209 99.6189C196.285 100.061 195.869 102.862 194.962 108.021C194.893 108.975 194.957 109.707 195.155 110.217C195.345 110.708 195.577 111.131 195.85 111.485C196.965 111.041 198.028 110.142 199.039 108.786C199.795 107.791 200.484 106.605 201.106 105.228C201.822 103.452 202.211 102.347 202.275 101.913C202.912 99.5122 203.129 97.0025 202.925 94.3845C202.717 91.7646 202.12 89.3968 201.131 87.2808C200.804 86.5934 200.435 85.9609 200.026 85.3834C199.858 85.024 199.172 84.2937 197.967 83.1925C196.419 81.9103 194.564 81.0626 192.402 80.6494Z" fill="#FF0000" fill-opacity="0.666667"/>
<path d="M202.283 89.9492L202.413 90.7896C203.027 94.459 203.257 97.411 203.101 99.6457C203.004 101.654 202.288 104.365 200.953 107.78L213.751 95.4681L202.283 89.9492Z" fill="#FFB093" fill-opacity="0.996078"/>
<path d="M197.899 87.9733L197.899 87.9734L194.96 86.7988C194.815 87.2646 194.777 87.6117 194.845 87.8399C194.888 88.069 195.092 88.4081 195.458 88.8571L197.899 87.9733Z" fill="white" fill-opacity="0.996078"/>
<path d="M194.964 86.8125L194.992 86.8191C195.174 86.8587 195.325 86.9053 195.444 86.9589C195.54 87.0018 195.628 87.0611 195.708 87.1368C195.864 87.2957 195.978 87.5392 196.051 87.8672C196.106 88.1096 196.155 88.3661 196.195 88.637L195.517 88.9043C195.281 88.6681 195.115 88.4817 195.019 88.3453C194.927 88.2081 194.877 88.125 194.869 88.0959C194.843 88.0396 194.822 87.9823 194.806 87.9242C194.791 87.8661 194.781 87.8071 194.777 87.7473C194.77 87.7182 194.773 87.627 194.788 87.4737C194.808 87.3196 194.867 87.0992 194.964 86.8125Z" fill="black" fill-opacity="0.996078"/>
<path d="M191.242 83.7266L191.242 83.7267L197.191 85.1696C195.396 84.998 194.202 84.901 193.609 84.8788C192.962 84.8454 192.296 84.8587 191.613 84.9189L191.242 83.7266Z" fill="black" fill-opacity="0.996078"/>
<path d="M190.164 101.742C192.253 101.925 194.342 102.108 196.431 102.29C195.187 103.273 193.943 104.256 192.7 105.238C191.989 105.146 191.523 104.976 191.303 104.731C191.051 104.371 191.142 103.702 191.574 102.725C190.712 102.48 190.249 102.184 190.184 101.837C190.176 101.806 190.169 101.774 190.164 101.742H190.164Z" fill="#FF0000" fill-opacity="0.133333"/>
<path d="M191.586 97.7282L191.395 97.6811C191.014 97.5828 190.635 97.5039 190.257 97.4443C190.131 97.4259 190.005 97.4118 189.88 97.402L189.693 97.3914C189.568 97.3868 189.444 97.388 189.32 97.3952C188.94 97.4246 188.626 97.4849 188.379 97.5763L188.277 97.6185L188.2 97.6606L188.15 97.7012L188.133 97.7392L188.15 97.7731C188.195 97.7986 188.225 97.8112 188.238 97.8108L188.355 97.8307L188.515 97.8436L188.713 97.8501C188.858 97.8524 189.023 97.8512 189.209 97.8467C189.662 97.8371 190.455 97.7976 191.586 97.7282Z" fill="black" fill-opacity="0.513726"/>
<path d="M197.984 111.206L198.527 110.383C201.446 106.018 203.269 102.396 203.996 99.5161C205.102 95.8289 205.271 92.2939 204.503 88.911C204.326 87.8755 203.604 86.4876 202.337 84.7474C201.56 83.8065 200.739 83.001 199.872 82.3311C199.005 81.6611 198.202 81.1263 197.463 80.7267C196.151 79.9774 194.992 79.6137 193.986 79.6357C192.36 79.6824 191.25 80.1049 190.655 80.9031C190.469 81.2054 190.378 81.5922 190.382 82.0636C190.322 82.2629 190.522 83.5824 190.984 86.0222C191.036 86.8295 191.002 87.3797 190.881 87.673C190.846 87.9612 190.573 88.5254 190.06 89.3655C190.118 89.3525 189.296 90.4578 187.592 92.6816C186.968 93.5658 186.62 94.0888 186.548 94.2506C186.119 95.0705 185.914 95.5392 185.934 95.6567C185.864 95.9328 185.856 96.1926 185.91 96.4359C186.078 97.3543 187.474 98.0422 190.099 98.4998C190.163 98.7684 190.174 99.0279 190.132 99.2784C190.188 99.231 190.012 99.7558 189.604 100.853C189.548 101.061 189.533 101.25 189.561 101.42C189.617 101.789 190.05 102.119 190.86 102.409C190.337 103.353 190.482 103.736 190.693 104.106C190.834 104.369 191.057 104.863 191.962 105.041C192.324 105.545 192.565 105.941 192.684 106.229C192.835 106.633 192.894 106.927 192.859 107.11C192.892 107.154 192.781 107.598 192.527 108.442L192.467 109.066C192.502 109.503 192.686 109.92 193.02 110.317C194.424 111.984 196.079 112.28 197.984 111.206Z" fill="#FFB093" fill-opacity="0.996078"/>
<path d="M197.899 87.9732L197.899 87.9734L194.96 86.7988C194.815 87.2646 194.777 87.6117 194.845 87.8399C194.888 88.069 195.092 88.4081 195.458 88.857L197.899 87.9732Z" fill="white" fill-opacity="0.996078"/>
<path d="M194.964 86.8125L194.992 86.8191C195.174 86.8588 195.325 86.9054 195.444 86.959C195.54 87.0019 195.628 87.0612 195.708 87.1369C195.864 87.2958 195.978 87.5392 196.051 87.8673C196.106 88.1096 196.155 88.3661 196.195 88.6369L195.517 88.9043C195.281 88.6681 195.115 88.4818 195.019 88.3453C194.927 88.2081 194.877 88.125 194.869 88.096C194.843 88.0396 194.822 87.9824 194.806 87.9243C194.791 87.8662 194.781 87.8072 194.777 87.7474C194.77 87.7183 194.773 87.6271 194.788 87.4737C194.808 87.3196 194.867 87.0992 194.964 86.8125Z" fill="black" fill-opacity="0.996078"/>
<path d="M191.242 83.7266L191.242 83.7267L197.191 85.1696C195.396 84.998 194.202 84.9011 193.609 84.8789C192.962 84.8453 192.296 84.8587 191.613 84.9189L191.242 83.7266Z" fill="black" fill-opacity="0.996078"/>
<path d="M191.586 97.7281L191.395 97.6811C191.014 97.5828 190.634 97.5039 190.257 97.4444C190.131 97.426 190.005 97.4119 189.88 97.402L189.693 97.3914C189.568 97.3868 189.444 97.388 189.32 97.3952C188.94 97.4246 188.627 97.485 188.379 97.5763L188.277 97.6185L188.2 97.6606L188.15 97.7012L188.133 97.7392L188.15 97.7731C188.195 97.7986 188.225 97.8112 188.238 97.8108L188.355 97.8307L188.515 97.8436L188.713 97.8501C188.858 97.8524 189.023 97.8512 189.209 97.8467C189.662 97.8371 190.455 97.7976 191.586 97.7281Z" fill="black" fill-opacity="0.172549"/>
<path d="M185.596 80.6953L191.782 81.014L190.982 93.1625L184.797 92.8441L185.596 80.6953Z" fill="white"/>
<path d="M189.931 80.0234L196.282 80.4L202.632 80.7765C202.293 85.2542 201.954 89.7319 201.615 94.2096C197.381 93.9586 193.148 93.7076 188.914 93.4567C189.253 88.9789 189.592 84.5012 189.931 80.0234Z" fill="black"/>
<path d="M198.283 85.9551L207.989 86.7682L217.695 87.5813C217.579 88.6567 217.464 89.7321 217.349 90.8076C210.879 90.2655 204.408 89.7235 197.938 89.1814C198.053 88.106 198.168 87.0305 198.283 85.9551Z" fill="black"/>
<path d="M39.375 72.136C39.375 64.8273 45.2999 58.9024 52.6087 58.9024L86.2658 58.9024L119.923 58.9025C127.232 58.9025 133.157 64.8274 133.157 72.1361C133.157 77.1967 133.157 82.2573 133.157 87.3178C133.157 94.6266 127.232 100.551 119.923 100.551C97.4849 100.552 75.0468 100.552 52.6087 100.552C45.2999 100.552 39.375 94.6267 39.375 87.318C39.375 82.2573 39.375 77.1967 39.375 72.136Z" fill="white" fill-opacity="0.435294"/>
<path d="M139.711 26.4388C139.711 19.13 145.636 13.2051 152.945 13.2051L186.602 13.2052L220.259 13.2053C227.568 13.2053 233.493 19.1302 233.493 26.4389C233.493 26.5388 233.493 26.6387 233.493 26.7386C233.493 34.0473 227.568 39.9722 220.259 39.9723C197.821 39.9723 175.383 39.9723 152.945 39.9724C145.636 39.9724 139.711 34.0475 139.711 26.7388C139.711 26.6388 139.711 26.5388 139.711 26.4388Z" fill="white" fill-opacity="0.435294"/>
<path d="M238.263 96.2454L212.867 96.0917L203.281 63.5006C211.675 59.4148 224.788 63.6905 227.708 65.0489C228.892 65.5772 229.993 66.1806 231.012 66.859L232.461 67.947C233.38 68.7144 234.185 69.5851 234.876 70.5589C235.56 71.5389 236.129 72.6221 236.584 73.8084L237.196 75.6512C237.553 76.9266 237.826 78.2771 238.016 79.7026C238.532 83.2287 238.614 88.743 238.263 96.2454Z" fill="black"/>
<path d="M268.889 0L266.946 0.00020889L266.944 0.000406786C267.503 19.4961 267.689 38.3095 261.539 49.9501C255.115 62.1114 241.684 66.5113 227.755 71.0309C227.251 71.1946 226.992 71.6892 227.177 72.1356C227.321 72.4842 227.694 72.7004 228.091 72.7004C228.202 72.7004 228.315 72.6834 228.425 72.6475C242.206 68.1759 256.485 63.5845 263.302 50.6794C269.674 38.6193 269.449 19.3602 268.891 0H268.889Z" fill="#535D66"/>
<path d="M283.242 0L281.846 0.00020889C278.752 23.1918 275.279 45.4574 266.645 58.7949C257.384 73.1002 242.124 77.16 226.429 81.3029C226.011 81.4131 225.716 81.7624 225.735 82.1645C225.748 82.4298 225.898 82.675 226.143 82.8291C226.309 82.9343 226.507 82.9889 226.707 82.9889C226.801 82.9889 226.894 82.9771 226.986 82.953C242.594 78.8329 258.637 74.63 268.334 59.6508C277.218 45.9271 280.72 23.1811 283.803 0L283.801 0.00020889L283.242 0.000406786V0Z" fill="#535D66"/>
<path d="M45.3281 67.5633C45.3281 65.1153 47.3126 63.1309 49.7606 63.1309L71.9395 63.131L94.1188 63.1311C96.5666 63.1311 98.5509 65.1155 98.5509 67.5633V67.5633C98.5509 70.0111 96.5666 71.9955 94.1188 71.9955C79.3327 71.9956 64.5466 71.9956 49.7606 71.9957C47.3126 71.9957 45.3281 70.0112 45.3281 67.5633V67.5633Z" fill="#74C3CE"/>
<path d="M51.7344 78.7752C51.7344 77.3212 52.913 76.1426 54.367 76.1426L62.6223 76.1427L70.8779 76.1427C72.3318 76.1428 73.5103 77.3213 73.5103 78.7752V78.7752C73.5103 80.229 72.3318 81.4075 70.8779 81.4075C65.3743 81.4076 59.8706 81.4076 54.367 81.4077C52.913 81.4077 51.7344 80.2291 51.7344 78.7752V78.7752Z" fill="#74C3CE"/>
<path d="M64.2188 94.2381C64.2188 93.4324 64.8719 92.7793 65.6775 92.7793L96.0266 92.7794L126.376 92.7795C127.181 92.7795 127.834 93.4326 127.834 94.2381V94.2381C127.834 95.0437 127.181 95.6967 126.376 95.6967C106.143 95.6968 85.9103 95.6968 65.6775 95.6969C64.8719 95.6969 64.2188 95.0437 64.2188 94.2381V94.2381Z" fill="#74C3CE"/>
<path d="M145.219 20.1741C145.219 18.2075 146.813 16.6133 148.78 16.6133L163.419 16.6134L178.059 16.6135C180.025 16.6135 181.619 18.2076 181.619 20.1741V20.1741C181.619 22.1406 180.025 23.7348 178.059 23.7348C168.299 23.7349 158.539 23.7349 148.78 23.735C146.813 23.735 145.219 22.1407 145.219 20.1741V20.1741Z" fill="#74C3CE"/>
<path d="M150.219 31.6602C150.219 30.726 150.976 29.9688 151.91 29.9688L188.731 29.9689L225.552 29.969C226.486 29.969 227.243 30.7262 227.243 31.6602V31.6602C227.243 32.5943 226.486 33.3515 225.552 33.3515C201.005 33.3515 176.457 33.3516 151.91 33.3517C150.976 33.3517 150.219 32.5944 150.219 31.6602V31.6602Z" fill="#74C3CE"/>
<path d="M117.242 84.2771C117.242 81.7596 119.283 79.7188 121.801 79.7188L122.534 79.7188L123.267 79.7188C125.784 79.7189 127.825 81.7597 127.825 84.2771V84.2771C127.825 86.7945 125.784 88.8354 123.267 88.8354C122.778 88.8354 122.289 88.8354 121.801 88.8354C119.283 88.8354 117.242 86.7946 117.242 84.2771V84.2771Z" fill="#74C3CE"/>
<path d="M53.4453 171.786C53.4453 171.31 53.8313 170.924 54.3075 170.924L70.0937 170.924L85.8801 170.924C86.3561 170.924 86.742 171.31 86.742 171.786V171.786C86.742 172.262 86.3561 172.648 85.8801 172.648C75.3559 172.648 64.8317 172.648 54.3075 172.648C53.8313 172.648 53.4453 172.262 53.4453 171.786V171.786Z" fill="#74C3CE"/>
<path d="M187.911 87.3458V87.3459L0.258547 115.238C0.172365 87.8875 0.0861825 60.5365 0 33.1855L187.911 87.3458Z" fill="white" fill-opacity="0.211765"/>
<path d="M78.0461 2.5998C90.1749 2.5998 102.428 5.44013 114.368 8.20805C125.4 10.7651 135.821 13.1802 145.534 13.2454C155.959 13.3076 166.698 10.8857 178.084 8.3155C194.494 4.60957 211.466 0.777472 228.701 4.33038C245.821 7.85612 262.856 14.7698 276.669 23.7978C292.577 34.1945 300.991 45.5196 301 56.5472C301.007 65.9002 294.991 74.5894 283.116 82.3742C276.46 86.7384 270.994 91.6534 265.708 96.406C256.807 104.41 248.399 111.97 235.145 116.563C211.29 124.831 181.977 128.851 145.531 128.855C145.51 128.855 145.488 128.855 145.468 128.855C121.71 128.855 93.7438 127.254 66.3955 115.414C62.6851 113.808 57.302 111.902 51.0692 109.694C31.41 102.731 4.48595 93.1942 4.65082 83.531L5.04933 83.5366L4.65082 83.531C4.7257 79.1341 5.8588 75.632 6.95364 72.2447C8.84038 66.4096 10.6235 60.8977 6.83743 51.476C1.73987 38.7941 1.07058 33.1231 14.3825 23.8054C28.0495 14.2392 48.3956 6.41905 67.4832 3.39619C70.9857 2.84132 74.5112 2.5998 78.0461 2.5998ZM145.969 13.9597C145.821 13.9597 145.675 13.9588 145.527 13.9579C135.716 13.8928 125.25 11.4666 114.168 8.89812C98.8311 5.34172 82.9725 1.66557 67.6223 4.09765C48.6562 7.10182 28.4437 14.8682 14.8744 24.3658C1.91526 33.4364 2.52869 38.6493 7.58672 51.2348C11.461 60.874 9.64393 66.4931 7.71968 72.4424C6.63817 75.7848 5.52172 79.2404 5.44781 83.5421C5.29103 92.7132 31.9195 102.145 51.3618 109.031C57.6105 111.244 63.0059 113.155 66.742 114.773C93.9453 126.549 121.801 128.143 145.468 128.143C145.49 128.143 145.509 128.143 145.531 128.143C181.876 128.139 211.094 124.134 234.856 115.899C247.954 111.36 256.302 103.852 265.144 95.9034C270.451 91.1315 275.939 86.1967 282.645 81.8001C294.303 74.1566 300.21 65.6607 300.203 56.5478C300.194 45.7562 291.893 34.6305 276.197 24.3731C262.47 15.4006 245.539 8.52897 228.522 5.02454C211.469 1.51253 194.597 5.32126 178.28 9.00675C167.003 11.5518 156.341 13.9597 145.969 13.9597Z" fill="url(#paint0_linear_4317_123016)" fill-opacity="0.08"/>
<path d="M209.41 8.02065C212.53 8.02064 215.629 8.20726 218.701 8.63422C234.769 10.8636 254.002 18.1365 268.893 27.6136C283.958 37.2029 292.109 47.632 292.464 57.7741C292.766 66.4099 287.521 74.7002 276.876 82.4158C271.361 86.4126 266.706 90.6716 262.205 94.7899C253.332 102.906 244.953 110.573 231.293 115.229C207.466 123.35 179.427 127.308 145.571 127.326C145.481 127.326 145.391 127.326 145.3 127.326C117.937 127.326 95.0102 125.021 72.146 113.862C67.9918 111.835 61.5511 109.416 54.7315 106.855C37.0275 100.206 14.995 91.9315 12.9949 83.3693C11.9829 79.0344 13.3987 75.3197 14.8973 71.3868C16.701 66.6576 18.5647 61.7672 16.8163 54.9522C16.4416 53.4921 16.0657 52.1347 15.7139 50.8611C12.9992 41.0476 11.6374 36.1221 22.3208 27.6767C49.4438 6.23459 83.3328 10.5733 113.233 14.3999C124.644 15.8604 135.423 17.2399 145.532 17.2829C145.612 17.2829 145.692 17.2837 145.771 17.2837C154.737 17.2837 164.615 15.17 175.068 12.933C186.394 10.5094 198.026 8.02065 209.41 8.02065ZM145.3 126.614C145.392 126.614 145.479 126.614 145.571 126.614C179.328 126.595 207.274 122.653 231.008 114.563C244.505 109.963 252.826 102.35 261.634 94.292C266.151 90.1588 270.824 85.8852 276.374 81.8621C286.815 74.2949 291.961 66.1979 291.667 57.7963C291.321 47.8858 283.286 37.6494 268.431 28.1944C253.634 18.7766 234.533 11.5514 218.578 9.33743C204.452 7.37788 189.608 10.5546 175.254 13.626C164.754 15.8723 154.832 17.9963 145.771 17.9963C145.69 17.9963 145.61 17.9954 145.528 17.9954C135.363 17.9516 124.559 16.5691 113.12 15.1052C81.939 11.1142 49.695 6.98716 22.848 28.2111C12.5268 36.3697 13.8501 41.1556 16.4871 50.69C16.8411 51.9671 17.2168 53.3282 17.5924 54.7925C19.3919 61.8054 17.4056 67.018 15.6518 71.6167C14.1895 75.4546 12.8071 79.0793 13.7753 83.2236C15.69 91.4199 37.508 99.6138 55.0398 106.198C61.879 108.766 68.3383 111.192 72.5278 113.237C95.2424 124.322 118.062 126.614 145.3 126.614Z" fill="url(#paint1_linear_4317_123016)" fill-opacity="0.08"/>
<path d="M85.8472 14.9798C96.874 14.9798 108.011 15.9558 118.654 16.8892C128.245 17.7299 137.306 18.5243 145.535 18.5427C154.951 18.5546 164.445 17.9396 173.673 17.3357C202.666 15.4372 232.644 13.4764 261.324 31.2833C275.697 40.2073 283.348 49.5355 284.063 59.0077C284.664 66.9621 280.259 74.8547 270.969 82.466C266.828 85.86 263.195 89.2588 259.682 92.5462C250.655 100.992 242.129 108.969 227.659 113.93C203.961 122.056 177.151 126.016 145.698 126.037C145.606 126.037 145.509 126.037 145.417 126.037C119.697 126.037 99.4509 123.722 78.149 112.306C73.073 109.586 65.9888 106.834 58.4875 103.921C43.3066 98.0257 26.0994 91.3428 21.777 83.0968C19.9151 79.5442 21.1678 74.0683 22.494 68.2717C23.5258 63.758 24.5936 59.0906 24.1504 55.2734C23.9897 53.8845 23.8028 52.5762 23.6264 51.3339C22.494 43.3803 21.746 38.1263 29.9071 31.3388C45.5854 18.3015 65.5217 14.9799 85.8472 14.9798ZM145.993 19.2561C145.839 19.2561 145.687 19.2552 145.533 19.2552C137.266 19.2368 128.187 18.4408 118.576 17.5982C88.4803 14.9594 54.3695 11.9698 30.4509 31.8604C22.5887 38.3991 23.3161 43.5088 24.4172 51.2439C24.5946 52.4918 24.7815 53.8051 24.9435 55.2001C25.399 59.1266 24.3186 63.8479 23.2746 68.4139C21.9763 74.0925 20.7497 79.4554 22.4992 82.7946C26.6933 90.7966 43.7537 97.4221 58.805 103.268C66.3302 106.19 73.4381 108.951 78.5576 111.695C99.7021 123.025 119.835 125.324 145.417 125.324C145.51 125.324 145.604 125.324 145.698 125.324C177.051 125.304 203.768 121.359 227.375 113.264C241.677 108.36 250.142 100.44 259.106 92.0535C262.628 88.7582 266.27 85.3507 270.432 81.9406C279.532 74.4829 283.851 66.7831 283.268 59.0558C282.57 49.8103 275.034 40.6629 260.869 31.8676C232.423 14.2068 202.583 16.1591 173.731 18.0462C164.638 18.6411 155.241 19.2561 145.993 19.2561Z" fill="url(#paint2_linear_4317_123016)" fill-opacity="0.08"/>
<path d="M104.027 17.5687C111.754 17.5687 119.356 17.8575 126.531 18.1291C133.264 18.3844 139.624 18.6256 145.538 18.6294C151.197 18.6378 156.873 18.5348 162.394 18.4393C194.556 17.8815 224.94 17.3555 253.844 34.8633C267.521 43.1472 274.971 51.7806 275.989 60.5242C276.834 67.783 273.235 75.1911 265.292 82.5428C262.927 84.7322 260.695 86.8856 258.536 88.9687C248.379 98.7683 239.606 107.231 224.134 112.684C200.665 120.956 175.075 124.981 145.901 124.992C145.864 124.992 145.824 124.992 145.786 124.992C123.069 124.992 103.901 122.569 84.2086 110.788C78.0959 107.131 70.2947 103.88 62.7506 100.736C50.4069 95.591 37.6421 90.271 30.8711 82.7586C27.4071 78.916 28.7343 71.1494 29.905 64.297C30.3678 61.5884 30.8048 59.0305 30.8787 57.0253C30.9378 55.4326 30.9293 53.9485 30.9221 52.5131C30.8888 45.928 30.862 40.7266 37.6927 34.9422C54.9412 20.3384 80.0779 17.5687 104.027 17.5687ZM145.538 19.3419C139.606 19.3381 133.239 19.0969 126.498 18.8408C95.7096 17.6756 60.811 16.3506 38.2408 35.46C31.661 41.0317 31.6848 45.8465 31.7191 52.5099C31.7263 53.9517 31.7348 55.4428 31.6757 57.0484C31.5999 59.0959 31.1599 61.6743 30.6928 64.4045C29.5469 71.1111 28.2485 78.7131 31.4917 82.3115C38.1474 89.6948 50.8263 94.9795 63.0881 100.09C70.6589 103.246 78.4882 106.509 84.6529 110.197C104.176 121.876 123.217 124.28 145.786 124.28C145.825 124.28 145.863 124.28 145.901 124.28C174.974 124.269 200.467 120.259 223.841 112.021C239.145 106.628 247.86 98.2201 257.951 88.4845C260.113 86.3991 262.348 84.2421 264.719 82.0475C272.49 74.8541 276.015 67.6376 275.196 60.5981C274.204 52.0739 266.87 43.6136 253.398 35.4532C224.702 18.0728 194.443 18.5923 162.409 19.1518C156.888 19.2473 151.17 19.3449 145.538 19.3419Z" fill="url(#paint3_linear_4317_123016)" fill-opacity="0.08"/>
<path d="M134.847 18.7515C136.76 18.7515 138.638 18.7562 140.476 18.7608C142.202 18.7646 143.889 18.7681 145.53 18.7681C181.443 18.7681 216.199 20.2601 246.624 38.2816C259.621 45.9803 266.599 53.7268 267.954 61.964C269.05 68.6203 266.285 75.5664 259.738 82.6088C233.755 110.556 196.761 124.146 146.671 124.147C146.5 124.147 146.335 124.147 146.163 124.146C123.726 124.105 107.363 121.667 90.1157 109.32C82.7326 104.035 74.0149 100.111 65.584 96.3167C56.1565 92.0737 47.251 88.0661 40.1139 82.3326C35.7333 78.813 34.7047 72.5555 34.6125 67.9265C34.3944 56.9512 39.2048 43.7208 45.3342 38.4329C66.9412 19.7926 105.063 18.7515 134.847 18.7515ZM146.671 123.434C196.515 123.434 233.302 109.929 259.126 82.1532C265.521 75.2732 268.227 68.5152 267.166 62.0679C265.864 54.1538 258.804 46.3509 246.184 38.8756C215.943 20.9645 181.316 19.481 145.53 19.481C143.888 19.481 142.201 19.4772 140.475 19.4734C110.161 19.3919 68.6505 19.3093 45.8881 38.946C39.896 44.1148 35.1946 57.1098 35.4095 67.9139C35.4987 72.4016 36.4793 78.4541 40.6473 81.8025C47.7043 87.4724 56.5631 91.4593 65.943 95.6806C74.4104 99.4914 83.1664 103.432 90.6138 108.764C107.679 120.98 123.905 123.393 146.165 123.434C146.333 123.434 146.503 123.434 146.671 123.434Z" fill="url(#paint4_linear_4317_123016)" fill-opacity="0.08"/>
<path d="M145.523 19.9513C164.227 19.9513 242.928 29.5056 258.523 56.5574C263.121 64.5343 261.675 73.322 254.221 82.6767C226.006 118.09 175.437 123.492 147.265 123.492C147.005 123.492 146.749 123.492 146.492 123.491C125.103 123.416 110.68 120.921 95.742 107.973C87.2517 100.616 77.8451 96.1679 67.887 91.4591C61.791 88.5767 55.4875 85.5959 49.4048 81.883C42.6123 77.7364 40.8481 71.3484 40.5646 66.7199C40.0031 57.5629 44.7139 47.257 52.0202 41.6583C77.5877 22.0668 125.927 19.9513 145.523 19.9513ZM147.265 122.779C175.281 122.779 225.561 117.42 253.571 82.2629C260.838 73.1435 262.265 64.6044 257.815 56.8836C249.701 42.8098 223.822 33.9436 203.543 28.9843C180.075 23.2452 155.487 20.6639 145.523 20.6639C126.015 20.6639 77.9042 22.7628 52.5389 42.1992C45.408 47.6635 40.8115 57.7308 41.3605 66.6808C41.6346 71.1495 43.3306 77.3118 49.8552 81.2949C55.8993 84.985 62.1833 87.9559 68.2598 90.8289C78.2694 95.5625 87.725 100.033 96.2964 107.462C111.042 120.241 125.314 122.704 146.496 122.778C146.749 122.779 147.008 122.779 147.265 122.779Z" fill="url(#paint5_linear_4317_123016)" fill-opacity="0.08"/>
<path d="M145.525 22.9507C164.849 22.9507 235.435 34.265 250.757 59.2474C255.254 66.5816 254.545 74.4926 248.648 82.7613C228.782 110.613 183.765 123.014 147.657 123.014C147.4 123.014 147.146 123.013 146.889 123.012C127.718 122.918 114.745 120.327 101.118 106.927C91.6757 97.6419 81.7863 92.8514 70.3362 87.3045C66.5681 85.479 62.671 83.5913 58.6121 81.4498C51.199 77.5394 47.0144 72.1557 46.5111 65.8825C45.931 58.643 50.5149 50.7843 58.7728 44.8612C79.8738 29.7259 117.548 22.9507 145.525 22.9507ZM147.659 122.301C183.548 122.301 228.272 110.005 247.975 82.3781C253.705 74.3454 254.405 66.6786 250.057 59.5897C241.881 46.2586 217.794 37.442 199.026 32.3936C176.643 26.3719 154.265 23.6632 145.525 23.6632C117.687 23.6632 80.2214 30.3894 59.271 45.4173C51.2176 51.194 46.7446 58.8252 47.3061 65.8314C47.7899 71.8611 51.8392 77.0499 59.0168 80.8365C63.0633 82.9704 66.9539 84.8555 70.7161 86.6778C82.2306 92.2556 92.1738 97.0731 101.707 106.447C115.212 119.727 127.521 122.205 146.894 122.299C147.147 122.301 147.405 122.301 147.659 122.301Z" fill="url(#paint6_linear_4317_123016)" fill-opacity="0.08"/>
<path d="M145.527 27.0731C163.118 27.073 228.019 37.6777 243.389 61.0931C247.844 67.8809 247.688 75.1897 242.922 82.8168C226.69 108.798 182.305 122.65 148.323 122.65C147.992 122.65 147.665 122.65 147.337 122.647C129.236 122.502 117.327 119.816 106.247 106.063C96.221 93.6174 86.5723 89.3791 71.9673 82.9625C70.5706 82.3486 69.1249 81.7135 67.6271 81.0491C58.3088 76.9136 53.0855 71.6222 52.5217 65.7467C51.9448 59.7273 56.2372 53.5376 64.934 47.8464C88.3418 32.5297 121.914 27.0731 145.527 27.0731ZM148.326 121.938C182.081 121.938 226.143 108.215 242.226 82.4698C246.844 75.0787 247.004 68.0079 242.701 61.4535C227.454 38.2256 160.924 27.7856 145.527 27.7856C122.04 27.7856 88.6573 33.2073 65.4051 48.4217C56.9441 53.9578 52.7647 59.9276 53.3167 65.6857C53.8544 71.3001 58.9262 76.3917 67.9823 80.4107C69.4786 81.0751 70.9224 81.7094 72.3191 82.3232C87.0323 88.7866 96.7512 93.0567 106.895 105.646C117.775 119.154 129.506 121.792 147.344 121.934C147.669 121.937 147.999 121.938 148.326 121.938Z" fill="url(#paint7_linear_4317_123016)" fill-opacity="0.08"/>
<path d="M145.509 29.9287C159.375 29.9287 220.19 39.9969 235.927 62.3981C240.445 68.8299 240.781 75.7175 236.924 82.8695C222.928 108.829 177.047 122.391 148.692 122.391C148.392 122.391 148.097 122.389 147.803 122.386C129.663 122.201 120.687 118.104 110.867 105.527C100.005 91.6154 94.2605 88.2041 76.2888 80.7327C63.5498 75.4366 57.8646 69.6233 59.3913 63.4523C63.8568 45.3964 130.729 29.9287 145.509 29.9287ZM148.696 121.678C176.838 121.678 222.352 108.256 236.206 82.5605C239.936 75.6436 239.614 68.9876 235.251 62.7768C219.677 40.6061 159.285 30.6413 145.509 30.6413C130.851 30.6413 64.5604 45.8508 60.1684 63.6065C58.7341 69.4061 64.271 74.9509 76.6252 80.0867C94.7515 87.6224 100.548 91.0658 111.521 105.118C121.282 117.621 129.762 121.489 147.811 121.673C148.104 121.676 148.399 121.678 148.696 121.678Z" fill="url(#paint8_linear_4317_123016)" fill-opacity="0.08"/>
<path d="M145.538 31.9021C160.521 31.9021 213.942 43.2352 228.879 63.857C233.306 69.9695 233.893 76.3765 230.622 82.9C217.657 108.755 175.609 122.168 149.467 122.168C149.088 122.168 148.713 122.165 148.342 122.16C131.668 121.908 123.877 117.969 114.997 105.3C105.142 91.2441 102.146 87.6544 84.5547 80.5126C72.0179 75.4228 66.417 69.7187 67.9081 63.5585C70.2993 53.6778 90.4482 45.4123 102.246 41.365C119.511 35.4419 137.816 31.9021 145.538 31.9021ZM149.49 121.456C163.098 121.456 179.705 117.837 194.187 111.689C206.43 106.491 222.564 97.227 229.895 82.6086C233.048 76.3196 232.481 70.141 228.21 64.2442C213.677 44.1808 159.945 32.6147 145.538 32.6147C129.543 32.6147 72.6551 47.314 68.6865 63.7095C67.2865 69.4965 72.7361 74.9318 84.8846 79.864C102.631 87.0688 105.916 91.006 115.671 104.922C124.376 117.339 132.013 121.2 148.354 121.447C148.73 121.452 149.11 121.456 149.49 121.456Z" fill="url(#paint9_linear_4317_123016)" fill-opacity="0.08"/>
<path d="M145.519 33.4578C160.283 33.4578 206.292 45.8897 220.754 64.6512C225.395 70.673 226.431 76.8198 223.831 82.9198C214.462 104.907 176.522 121.655 148.858 121.939C132.778 122.125 125.646 115.955 118.737 105.278L117.369 103.159C109.95 91.6409 106.879 86.8734 92.1659 80.4565C80.6171 75.4201 75.5712 69.733 77.1675 63.5544C81.4432 46.9992 130.677 33.4578 145.519 33.4578ZM148.24 121.23C148.442 121.23 148.644 121.229 148.85 121.227C176.257 120.945 213.827 104.394 223.086 82.6666C225.587 76.7982 224.581 70.8731 220.097 65.0557C205.779 46.4793 160.162 34.1703 145.519 34.1703C129.194 34.1703 81.8636 48.5379 77.9435 63.715C76.442 69.5271 81.3446 74.9444 92.5144 79.8161C107.448 86.3288 110.774 91.4914 118.06 102.803L119.426 104.921C126.099 115.233 132.99 121.23 148.24 121.23Z" fill="url(#paint10_linear_4317_123016)" fill-opacity="0.08"/>
<path d="M145.512 34.9294C159.983 34.9294 197.056 46.0606 211.791 63.5118C217.265 69.9944 218.974 76.6285 216.871 83.2312C209.255 107.138 171.207 122.19 149.358 121.64C135.808 121.305 128.684 117.037 122.134 105.329C115.337 93.182 111.302 87.5691 98.554 80.868C88.0544 75.3486 83.7225 69.2935 85.6778 62.8708C90.4134 47.3196 131.044 34.9294 145.512 34.9294ZM150.525 120.941C172.272 120.941 208.721 106.212 216.105 83.0364C218.136 76.6601 216.471 70.2356 211.156 63.9411C197.114 47.3123 160.176 35.642 145.512 35.642C131.216 35.642 91.0932 47.7994 86.4467 63.0577C84.5985 69.132 88.8067 74.9175 98.9587 80.2539C111.891 87.0516 115.976 92.7293 122.846 105.01C129.239 116.436 136.182 120.601 149.381 120.927C149.756 120.936 150.14 120.941 150.525 120.941Z" fill="url(#paint11_linear_4317_123016)" fill-opacity="0.08"/>
<path d="M145.909 36.6247C161.759 36.6247 189.174 47.3502 202.568 61.9205C209.252 69.1922 211.779 76.5427 210.081 83.768C205.054 105.149 174.333 120.66 149.906 121.209C134.598 121.559 127.464 110.554 120.535 99.9193C115.968 92.9101 111.247 85.6627 104.235 81.6014C94.3249 75.8602 90.3915 69.5721 92.544 62.912C97.2784 48.2667 130.643 36.7888 145.535 36.6264C145.658 36.6253 145.785 36.6247 145.909 36.6247ZM149.194 120.504C149.422 120.504 149.653 120.502 149.885 120.496C173.967 119.956 204.494 104.071 209.301 83.6214C210.948 76.6183 208.475 69.4696 201.952 62.3734C188.698 47.9539 161.583 37.3372 145.915 37.3372C145.79 37.3372 145.667 37.3378 145.545 37.339C130.85 37.4993 97.9509 48.7529 93.31 63.1097C91.2652 69.4331 95.0876 75.4528 104.669 81.003C111.839 85.1569 116.61 92.4794 121.224 99.5607C128.237 110.326 134.869 120.504 149.194 120.504Z" fill="url(#paint12_linear_4317_123016)" fill-opacity="0.08"/>
<path d="M146.294 38.7673C160.917 38.7673 181.324 47.9322 193.166 59.8998C201.162 67.9819 204.684 76.4801 203.349 84.4752C200.023 104.403 172.749 119.485 150.352 120.556C136.287 121.226 128.882 109.551 121.706 98.2563C117.725 91.991 113.965 86.0729 109.259 82.5577C100.813 76.2512 97.7776 69.2476 100.481 62.3053C105.378 49.7338 129.118 39.1536 145.511 38.776C145.769 38.7702 146.032 38.7673 146.294 38.7673ZM149.22 119.871C149.579 119.871 149.941 119.863 150.308 119.845C172.399 118.788 199.291 103.959 202.56 84.3703C204.201 74.5404 198.032 65.8947 192.568 60.372C180.654 48.3294 160.039 39.1583 145.531 39.4886C129.388 39.8603 106.029 50.2259 101.234 62.5395C98.6118 69.2727 101.484 75.8234 109.77 82.0113C114.587 85.6092 118.382 91.5813 122.399 97.9042C129.264 108.708 136.357 119.871 149.22 119.871Z" fill="url(#paint13_linear_4317_123016)" fill-opacity="0.08"/>
<path d="M146.088 41.5578C158.434 41.5578 173.22 48.0807 183.93 58.2897C192.987 66.922 197.53 76.5139 196.72 85.2983C194.959 104.411 171.075 118.71 150.74 119.59C136.793 120.197 129.304 107.552 122.668 96.3992C119.736 91.4705 116.965 86.8155 113.887 83.6732C104.808 74.4051 106.023 66.1528 108.641 60.8617C113.959 50.1165 129.814 41.8195 145.523 41.5625C145.711 41.5599 145.9 41.5578 146.088 41.5578ZM149.802 118.898C150.1 118.898 150.397 118.891 150.701 118.879C170.705 118.013 194.198 103.985 195.925 85.2399C196.705 76.7835 192.122 67.1378 183.349 58.7771C172.622 48.5521 157.821 42.0558 145.537 42.2751C130.372 42.5233 114.485 50.8139 109.37 61.1499C105.75 68.4654 107.519 76.0916 114.487 83.2036C117.627 86.4075 120.417 91.0985 123.372 96.0648C129.749 106.782 136.96 118.898 149.802 118.898Z" fill="url(#paint14_linear_4317_123016)" fill-opacity="0.08"/>
<path d="M145.59 45.3602C155.658 45.3602 167.577 50.6166 176.702 59.08C185.603 67.3367 190.494 77.2207 190.121 86.1982C189.373 104.157 168.91 117.477 151.011 118.199C137.116 118.736 129.748 105.173 123.821 94.2572C121.905 90.7282 120.095 87.3952 118.265 84.8887C112.527 77.037 112.008 68.3472 116.806 60.4193C122.253 51.4159 133.817 45.364 145.581 45.3602C145.584 45.3602 145.587 45.3602 145.59 45.3602ZM150.195 117.503C150.453 117.503 150.713 117.498 150.975 117.488C168.527 116.78 188.593 103.745 189.323 86.1713C189.689 77.3869 184.88 67.6925 176.128 59.5747C167.149 51.2462 155.448 46.0728 145.59 46.0728C145.587 46.0728 145.585 46.0728 145.581 46.0728C134.101 46.0766 122.818 51.9783 117.506 60.7587C112.855 68.4453 113.361 76.8764 118.931 84.4988C120.791 87.043 122.611 90.3959 124.538 93.9459C130.248 104.464 137.327 117.503 150.195 117.503Z" fill="url(#paint15_linear_4317_123016)" fill-opacity="0.08"/>
<path d="M145.206 51.0228C145.448 51.0228 145.688 51.026 145.93 51.0322C154.55 51.2544 164.246 55.7354 171.869 63.0199C179.509 70.3214 183.874 79.3374 183.545 87.1377C183.221 94.815 178.711 103.154 171.773 108.9C165.735 113.9 158.414 116.527 151.125 116.261C137.101 115.774 130.638 102.494 125.443 91.8228C124.454 89.7894 123.519 87.8684 122.582 86.1363C118.37 78.3469 119.101 68.8829 124.494 61.4371C129.306 54.7921 136.824 51.0231 145.206 51.0228ZM152.091 115.565C158.847 115.565 165.61 113.033 171.231 108.377C178.02 102.755 182.433 94.6065 182.748 87.1105C183.07 79.496 178.786 70.6727 171.286 63.5071C163.806 56.3586 154.318 51.9609 145.908 51.7447C137.522 51.5266 129.959 55.2024 125.163 61.8246C119.921 69.0628 119.207 78.2598 123.3 85.8265C124.244 87.5708 125.182 89.4979 126.175 91.5384C131.279 102.027 137.632 115.079 151.156 115.549C151.467 115.56 151.78 115.565 152.091 115.565Z" fill="url(#paint16_linear_4317_123016)" fill-opacity="0.08"/>
<path d="M146.745 58.0733C152.897 58.0733 159.429 60.8187 165.173 65.826C172.353 72.0855 176.863 80.5925 176.944 88.0286C177.017 94.6697 173.256 102.267 167.362 107.385C163.987 110.315 158.436 113.763 151.09 113.497C137.723 113.03 131.731 98.6858 127.766 89.1944C127.5 88.5601 127.244 87.945 126.992 87.3531C124.182 80.7253 125.336 72.791 130.002 66.6472C134.072 61.2878 140.071 58.1638 146.46 58.0751L146.466 58.4314L146.46 58.0751C146.554 58.0739 146.65 58.0733 146.745 58.0733ZM151.86 112.798C158.55 112.798 163.658 109.607 166.807 106.873C172.551 101.886 176.218 94.4913 176.147 88.0353C176.069 80.7823 171.65 72.4677 164.617 66.3365C158.937 61.3853 152.53 58.6927 146.472 58.7876C140.346 58.8726 134.584 61.8832 130.661 67.047C126.138 73.0028 125.019 80.6862 127.737 87.1005C127.989 87.693 128.246 88.3095 128.512 88.9453C132.404 98.26 138.284 112.337 151.121 112.786C151.37 112.794 151.617 112.798 151.86 112.798Z" fill="url(#paint17_linear_4317_123016)" fill-opacity="0.08"/>
<path d="M146.853 65.9355C146.954 65.9355 147.053 65.9363 147.154 65.938C159.811 66.1503 169.81 77.7644 170.296 88.0068C170.545 93.2443 167.924 98.9599 163.457 102.923C159.867 106.108 155.466 107.855 151.047 107.855C150.993 107.855 150.94 107.855 150.887 107.855C138.604 107.737 133.069 92.3407 131.665 87.6243C129.942 81.835 131.45 75.2434 135.508 70.8307C138.456 67.6243 142.374 65.936 146.853 65.9355ZM151.047 107.169C155.249 107.169 159.446 105.495 162.884 102.445C167.206 98.6128 169.74 93.0907 169.499 88.0346C169.039 78.2993 159.17 66.8259 147.14 66.6245C141.672 66.5387 138.123 69.0924 136.132 71.2565C132.224 75.5072 130.773 81.8648 132.437 87.4536C133.805 92.0507 139.18 107.056 150.895 107.168C150.946 107.169 150.996 107.169 151.047 107.169Z" fill="url(#paint18_linear_4317_123016)" fill-opacity="0.08"/>
<path d="M147.736 74.1506C147.796 74.1506 147.854 74.1506 147.913 74.1515C155.935 74.2526 163.111 81.3131 163.585 89.5689C164.033 97.4259 158.307 103.87 150.548 104.238C142.442 104.629 138.069 96.482 136.786 89.3934C135.932 84.6782 137.061 80.1663 139.805 77.3242C141.813 75.2458 144.552 74.1506 147.736 74.1506ZM150.004 103.539C150.169 103.539 150.337 103.535 150.506 103.527C157.82 103.179 163.214 97.064 162.788 89.6052C162.336 81.7109 155.519 74.9602 147.902 74.8641C147.848 74.8632 147.792 74.8632 147.737 74.8632C144.791 74.8632 142.26 75.8731 140.408 77.79C137.816 80.4744 136.755 84.7696 137.572 89.2792C138.776 95.9251 142.748 103.539 150.004 103.539Z" fill="url(#paint19_linear_4317_123016)" fill-opacity="0.08"/>
<path d="M148.712 82.3182C152.821 82.3182 156.413 85.7998 156.735 90.1126C156.901 92.3265 156.144 94.4514 154.658 95.9413C153.431 97.1714 151.782 97.8901 150.014 97.9652C149.925 97.969 149.836 97.9707 149.747 97.9707C145.676 97.9707 142.975 93.9634 142.483 90.1001C142.181 87.7159 142.827 85.5206 144.252 84.0774C145.374 82.9431 146.893 82.3348 148.644 82.3185C148.666 82.3185 148.689 82.3182 148.712 82.3182ZM149.749 97.2581C149.825 97.2581 149.9 97.2567 149.977 97.2535C151.529 97.1872 152.98 96.5529 154.063 95.4668C155.407 94.1188 156.092 92.1846 155.94 90.1599C155.645 86.1947 152.36 83.027 148.653 83.031C147.133 83.0451 145.819 83.5701 144.85 84.549C143.573 85.8416 142.999 87.8356 143.276 90.0195C143.726 93.5709 146.139 97.2581 149.749 97.2581Z" fill="url(#paint20_linear_4317_123016)" fill-opacity="0.08"/>
<path d="M48.8182 141.419C48.8192 134.11 54.7447 128.186 62.0533 128.187L88.1772 128.19C95.4861 128.191 101.41 134.117 101.409 141.425L101.405 169.939C101.404 177.247 95.4791 183.171 88.1705 183.171L62.0466 183.168C54.7377 183.167 48.8133 177.241 48.8143 169.932L48.8182 141.419Z" fill="white" fill-opacity="0.55"/>
<path d="M53.4453 138.008C53.4453 134.396 56.373 131.469 59.9843 131.469L60.8352 131.469L61.6863 131.469C65.2976 131.469 68.2251 134.396 68.2251 138.008V138.008C68.2251 141.619 65.2976 144.547 61.6863 144.547C61.119 144.547 60.5516 144.547 59.9843 144.547C56.373 144.547 53.4453 141.619 53.4453 138.008V138.008Z" fill="#74C3CE"/>
<path d="M53.4453 148.917C53.4453 148.441 53.8313 148.055 54.3075 148.055L66.3571 148.055L78.407 148.055C78.883 148.055 79.2689 148.441 79.2689 148.917V148.917C79.2689 149.393 78.883 149.779 78.407 149.779C70.3738 149.779 62.3407 149.779 54.3075 149.779C53.8313 149.779 53.4453 149.393 53.4453 148.917V148.917Z" fill="#74C3CE"/>
<path d="M69.1172 164.637C69.1172 163.682 69.8912 162.908 70.8459 162.908L82.029 162.908L93.2126 162.909C94.167 162.909 94.9407 163.683 94.9407 164.637V164.637C94.9407 165.591 94.167 166.365 93.2126 166.365C85.757 166.365 78.3015 166.365 70.8459 166.366C69.8912 166.366 69.1172 165.592 69.1172 164.637V164.637Z" fill="#74C3CE"/>
<path d="M53.4453 156.617C53.4453 157.569 54.2172 158.341 55.1693 158.341L70.1402 158.341L85.1108 158.341C86.0631 158.341 86.835 157.569 86.835 156.617V156.617C86.835 155.665 86.0631 154.893 85.1108 154.893C75.1303 154.893 65.1498 154.893 55.1693 154.893C54.2172 154.893 53.4453 155.665 53.4453 156.617V156.617Z" fill="#74C3CE"/>
<defs>
<linearGradient id="paint0_linear_4317_123016" x1="152.229" y1="128.855" x2="152.229" y2="2.59978" gradientUnits="userSpaceOnUse">
<stop stop-color="white" stop-opacity="0"/>
<stop offset="0.244792" stop-color="white" stop-opacity="0.29"/>
<stop offset="0.953125" stop-color="white" stop-opacity="0.42"/>
</linearGradient>
<linearGradient id="paint1_linear_4317_123016" x1="152.565" y1="127.326" x2="152.565" y2="8.02065" gradientUnits="userSpaceOnUse">
<stop stop-color="white" stop-opacity="0"/>
<stop offset="0.244792" stop-color="white" stop-opacity="0.29"/>
<stop offset="0.953125" stop-color="white" stop-opacity="0.42"/>
</linearGradient>
<linearGradient id="paint2_linear_4317_123016" x1="152.476" y1="126.037" x2="152.476" y2="14.9798" gradientUnits="userSpaceOnUse">
<stop stop-color="white" stop-opacity="0"/>
<stop offset="0.244792" stop-color="white" stop-opacity="0.29"/>
<stop offset="0.953125" stop-color="white" stop-opacity="0.42"/>
</linearGradient>
<linearGradient id="paint3_linear_4317_123016" x1="152.378" y1="124.992" x2="152.378" y2="17.5687" gradientUnits="userSpaceOnUse">
<stop stop-color="white" stop-opacity="0"/>
<stop offset="0.244792" stop-color="white" stop-opacity="0.29"/>
<stop offset="0.953125" stop-color="white" stop-opacity="0.42"/>
</linearGradient>
<linearGradient id="paint4_linear_4317_123016" x1="151.396" y1="124.147" x2="151.396" y2="18.7515" gradientUnits="userSpaceOnUse">
<stop stop-color="white" stop-opacity="0"/>
<stop offset="0.244792" stop-color="white" stop-opacity="0.29"/>
<stop offset="0.953125" stop-color="white" stop-opacity="0.42"/>
</linearGradient>
<linearGradient id="paint5_linear_4317_123016" x1="150.834" y1="123.492" x2="150.834" y2="19.9513" gradientUnits="userSpaceOnUse">
<stop stop-color="white" stop-opacity="0"/>
<stop offset="0.244792" stop-color="white" stop-opacity="0.29"/>
<stop offset="0.953125" stop-color="white" stop-opacity="0.42"/>
</linearGradient>
<linearGradient id="paint6_linear_4317_123016" x1="150.067" y1="123.014" x2="150.067" y2="22.9507" gradientUnits="userSpaceOnUse">
<stop stop-color="white" stop-opacity="0"/>
<stop offset="0.244792" stop-color="white" stop-opacity="0.29"/>
<stop offset="0.953125" stop-color="white" stop-opacity="0.42"/>
</linearGradient>
<linearGradient id="paint7_linear_4317_123016" x1="149.544" y1="122.65" x2="149.544" y2="27.0731" gradientUnits="userSpaceOnUse">
<stop stop-color="white" stop-opacity="0"/>
<stop offset="0.244792" stop-color="white" stop-opacity="0.29"/>
<stop offset="0.953125" stop-color="white" stop-opacity="0.42"/>
</linearGradient>
<linearGradient id="paint8_linear_4317_123016" x1="149.367" y1="122.391" x2="149.367" y2="29.9287" gradientUnits="userSpaceOnUse">
<stop stop-color="white" stop-opacity="0"/>
<stop offset="0.244792" stop-color="white" stop-opacity="0.29"/>
<stop offset="0.953125" stop-color="white" stop-opacity="0.42"/>
</linearGradient>
<linearGradient id="paint9_linear_4317_123016" x1="150.188" y1="122.168" x2="150.188" y2="31.9021" gradientUnits="userSpaceOnUse">
<stop stop-color="white" stop-opacity="0"/>
<stop offset="0.244792" stop-color="white" stop-opacity="0.29"/>
<stop offset="0.953125" stop-color="white" stop-opacity="0.42"/>
</linearGradient>
<linearGradient id="paint10_linear_4317_123016" x1="151.053" y1="121.943" x2="151.053" y2="33.4578" gradientUnits="userSpaceOnUse">
<stop stop-color="white" stop-opacity="0"/>
<stop offset="0.244792" stop-color="white" stop-opacity="0.29"/>
<stop offset="0.953125" stop-color="white" stop-opacity="0.42"/>
</linearGradient>
<linearGradient id="paint11_linear_4317_123016" x1="151.482" y1="121.654" x2="151.482" y2="34.9294" gradientUnits="userSpaceOnUse">
<stop stop-color="white" stop-opacity="0"/>
<stop offset="0.244792" stop-color="white" stop-opacity="0.29"/>
<stop offset="0.953125" stop-color="white" stop-opacity="0.42"/>
</linearGradient>
<linearGradient id="paint12_linear_4317_123016" x1="151.283" y1="121.217" x2="151.283" y2="36.6247" gradientUnits="userSpaceOnUse">
<stop stop-color="white" stop-opacity="0"/>
<stop offset="0.244792" stop-color="white" stop-opacity="0.29"/>
<stop offset="0.953125" stop-color="white" stop-opacity="0.42"/>
</linearGradient>
<linearGradient id="paint13_linear_4317_123016" x1="151.573" y1="120.584" x2="151.573" y2="38.7673" gradientUnits="userSpaceOnUse">
<stop stop-color="white" stop-opacity="0"/>
<stop offset="0.244792" stop-color="white" stop-opacity="0.29"/>
<stop offset="0.953125" stop-color="white" stop-opacity="0.42"/>
</linearGradient>
<linearGradient id="paint14_linear_4317_123016" x1="151.777" y1="119.611" x2="151.777" y2="41.5578" gradientUnits="userSpaceOnUse">
<stop stop-color="white" stop-opacity="0"/>
<stop offset="0.244792" stop-color="white" stop-opacity="0.29"/>
<stop offset="0.953125" stop-color="white" stop-opacity="0.42"/>
</linearGradient>
<linearGradient id="paint15_linear_4317_123016" x1="151.845" y1="118.215" x2="151.845" y2="45.3602" gradientUnits="userSpaceOnUse">
<stop stop-color="white" stop-opacity="0"/>
<stop offset="0.244792" stop-color="white" stop-opacity="0.29"/>
<stop offset="0.953125" stop-color="white" stop-opacity="0.42"/>
</linearGradient>
<linearGradient id="paint16_linear_4317_123016" x1="151.715" y1="116.279" x2="151.715" y2="51.0228" gradientUnits="userSpaceOnUse">
<stop stop-color="white" stop-opacity="0"/>
<stop offset="0.244792" stop-color="white" stop-opacity="0.29"/>
<stop offset="0.953125" stop-color="white" stop-opacity="0.42"/>
</linearGradient>
<linearGradient id="paint17_linear_4317_123016" x1="151.211" y1="113.512" x2="151.211" y2="58.0733" gradientUnits="userSpaceOnUse">
<stop stop-color="white" stop-opacity="0"/>
<stop offset="0.244792" stop-color="white" stop-opacity="0.29"/>
<stop offset="0.953125" stop-color="white" stop-opacity="0.42"/>
</linearGradient>
<linearGradient id="paint18_linear_4317_123016" x1="150.637" y1="107.855" x2="150.637" y2="65.9355" gradientUnits="userSpaceOnUse">
<stop stop-color="white" stop-opacity="0"/>
<stop offset="0.244792" stop-color="white" stop-opacity="0.29"/>
<stop offset="0.953125" stop-color="white" stop-opacity="0.42"/>
</linearGradient>
<linearGradient id="paint19_linear_4317_123016" x1="150.058" y1="104.252" x2="150.058" y2="74.1506" gradientUnits="userSpaceOnUse">
<stop stop-color="white" stop-opacity="0"/>
<stop offset="0.244792" stop-color="white" stop-opacity="0.29"/>
<stop offset="0.953125" stop-color="white" stop-opacity="0.42"/>
</linearGradient>
<linearGradient id="paint20_linear_4317_123016" x1="149.584" y1="97.9707" x2="149.584" y2="82.3182" gradientUnits="userSpaceOnUse">
<stop stop-color="white" stop-opacity="0"/>
<stop offset="0.244792" stop-color="white" stop-opacity="0.29"/>
<stop offset="0.953125" stop-color="white" stop-opacity="0.42"/>
</linearGradient>
</defs>
</svg>
