<svg width="206" height="206" viewBox="0 0 206 206" fill="none" xmlns="http://www.w3.org/2000/svg">
<path d="M103.642 3L3 53.0044V153.571L103.642 203.203L203 153.571V53.0044L103.642 3Z" fill="#00CB9B" stroke="#CBE625" stroke-width="4.97593"/>
<path d="M106.043 21L21 61.9619V144.343L106.043 185L190 144.343V61.9619L106.043 21Z" fill="url(#paint0_linear_4317_121875)" stroke="#CBE625" stroke-width="9.95186"/>
<ellipse cx="34.8308" cy="169.262" rx="4.11985" ry="3.58671" fill="url(#paint1_linear_4317_121875)"/>
<ellipse rx="0.768309" ry="0.834012" transform="matrix(-0.501199 -0.865332 -0.915655 0.401965 143.554 150.686)" fill="white"/>
<ellipse rx="0.768309" ry="0.834012" transform="matrix(-0.501199 -0.865332 -0.915655 0.401965 170.929 100.053)" fill="white"/>
<ellipse rx="0.576232" ry="0.625509" transform="matrix(0.501199 0.865332 -0.915655 0.401965 33.7942 147.035)" fill="#48ECC2"/>
<ellipse rx="1.34454" ry="1.45952" transform="matrix(0.501199 0.865332 -0.915655 0.401965 163.658 113.461)" fill="#48ECC2"/>
<ellipse rx="1.34454" ry="1.45952" transform="matrix(0.501199 0.865332 -0.915655 0.401965 65.8843 53.9962)" fill="#52EEC6"/>
<rect width="1.2213" height="1.18567" rx="0.592834" transform="matrix(0.819309 0.573353 -0.678371 0.73472 41.0078 129.906)" fill="white"/>
<rect width="0.973067" height="1.1108" rx="0.486533" transform="matrix(-0.170114 0.985425 -0.991549 -0.129735 155.648 85.7891)" fill="#48ECC2"/>
<rect width="1.1549" height="1.32502" rx="0.57745" transform="matrix(-0.0739739 0.99726 -0.998423 -0.0561325 142.531 50.3555)" fill="#48ECC2"/>
<path d="M146.824 97.5797C146.622 97.83 146.276 97.9336 145.94 97.8438L145.878 97.8273C145.52 97.7316 145.263 97.4187 145.256 97.0719V97.0719C145.25 96.7577 145.453 96.4868 145.762 96.3944L145.943 96.3405C146.252 96.2481 146.603 96.3538 146.82 96.605V96.605C147.059 96.8822 147.077 97.2669 146.861 97.5336L146.824 97.5797Z" fill="white"/>
<path d="M134.13 73.7978C134.061 73.9433 133.897 74.0309 133.717 74.0186L133.698 74.0173C133.511 74.0045 133.35 73.8816 133.305 73.7172V73.7172C133.262 73.5618 133.333 73.4046 133.48 73.3256L133.528 73.3002C133.676 73.2213 133.869 73.2379 134.009 73.3417V73.3417C134.156 73.4515 134.209 73.6323 134.137 73.7831L134.13 73.7978Z" fill="white"/>
<path d="M129.008 144.94C128.878 145.133 128.63 145.227 128.379 145.178L128.34 145.171C128.075 145.119 127.87 144.909 127.842 144.661V144.661C127.817 144.433 127.948 144.225 128.17 144.141L128.28 144.099C128.502 144.015 128.766 144.074 128.94 144.245V144.245C129.13 144.432 129.166 144.706 129.029 144.91L129.008 144.94Z" fill="white"/>
<path d="M119.338 58.6755C119.626 58.8785 119.545 59.3286 119.198 59.4445V59.4445C118.884 59.55 118.58 59.2949 118.638 58.9736V58.9736C118.696 58.6523 119.075 58.4908 119.338 58.6755V58.6755Z" fill="#48ECC2"/>
<rect width="1.20431" height="1.28028" rx="0.602155" transform="matrix(0.58056 -0.814218 0.879749 0.475438 115.469 158.852)" fill="#48ECC2"/>
<ellipse cx="168.538" cy="74.4042" rx="0.749064" ry="0.326064" fill="white"/>
<ellipse cx="58.0611" cy="137.662" rx="1.1236" ry="0.978193" fill="white"/>
<ellipse cx="41.9522" cy="117.121" rx="0.749064" ry="0.652129" fill="white"/>
<ellipse cx="146.069" cy="74.4042" rx="0.749064" ry="0.326064" fill="white"/>
<ellipse rx="0.749064" ry="0.326064" transform="matrix(-1 0 0 1 33.7119 122.303)" fill="#48ECC2"/>
<ellipse rx="9.3633" ry="7.49948" transform="matrix(-1 0 0 1 47.5742 64.6245)" fill="url(#paint2_linear_4317_121875)"/>
<ellipse rx="10.6589" ry="9.53904" transform="matrix(-0.960961 0.276683 0.35512 0.934821 168.012 132.878)" fill="url(#paint3_linear_4317_121875)" fill-opacity="0.77"/>
<ellipse rx="1.1236" ry="0.978193" transform="matrix(-1 0 0 1 40.0795 109.916)" fill="#48ECC2"/>
<rect width="0.626582" height="0.572207" rx="0.286104" transform="matrix(-0.92982 -0.368014 -0.462886 0.886418 67.5625 126.297)" fill="white"/>
<path d="M86.1834 158.424C85.8135 158.422 85.4911 158.624 85.375 158.93L85.367 158.951C85.248 159.265 85.3819 159.619 85.6953 159.819V159.819C85.9965 160.011 86.3953 160.018 86.6869 159.836L86.7518 159.795C87.0435 159.612 87.1631 159.281 87.0494 158.971V158.971C86.9311 158.649 86.5884 158.426 86.2091 158.424L86.1834 158.424Z" fill="white"/>
<ellipse rx="0.804033" ry="0.799628" transform="matrix(-0.767016 0.641628 0.741062 0.671436 100.843 59.1504)" fill="white"/>
<ellipse rx="0.804033" ry="0.799628" transform="matrix(-0.767016 0.641628 0.741062 0.671436 147.46 60.2637)" fill="white"/>
<ellipse rx="0.603025" ry="0.599721" transform="matrix(0.767016 -0.641628 0.741062 0.671436 60.3601 102.82)" fill="#48ECC2"/>
<rect width="0.5692" height="0.629315" rx="0.2846" transform="matrix(0.415652 -0.909524 0.944922 0.327296 122.156 122.516)" fill="white"/>
<rect width="1.1108" height="0.973069" rx="0.486535" transform="matrix(0.991542 -0.129787 0.170181 0.985413 83.3906 51.543)" fill="#48ECC2"/>
<rect width="1.17905" height="1.30358" rx="0.589527" transform="matrix(0.415652 -0.909524 0.944922 0.327296 72.7031 142.188)" fill="#52EEC6"/>
<path d="M102.17 168.207C102.356 168.223 102.512 168.342 102.553 168.501V168.501C102.594 168.662 102.511 168.831 102.346 168.915V168.915C102.185 168.999 101.982 168.983 101.843 168.877L101.831 168.867C101.692 168.761 101.649 168.588 101.723 168.438V168.438C101.799 168.285 101.982 168.192 102.17 168.207V168.207Z" fill="white"/>
<ellipse rx="0.804033" ry="0.799628" transform="matrix(0.767016 -0.641628 0.741062 0.671436 112.686 133.392)" fill="white"/>
<ellipse rx="1.00504" ry="0.999535" transform="matrix(-0.767016 0.641628 0.741062 0.671436 62.2355 84.355)" fill="#48ECC2"/>
<rect width="0.631378" height="0.566911" rx="0.283455" transform="matrix(-0.956034 0.293255 0.375151 0.926964 57.0547 149.309)" fill="white"/>
<rect width="1.30785" height="1.17431" rx="0.587156" transform="matrix(-0.956034 0.293255 0.375151 0.926964 149.641 138.516)" fill="#52EEC6"/>
<path d="M142.3 120.203C142.31 120.371 142.446 120.516 142.633 120.559V120.559C142.812 120.601 142.998 120.539 143.098 120.406L143.109 120.39C143.209 120.256 143.196 120.077 143.077 119.949V119.949C142.957 119.821 142.759 119.774 142.587 119.832L142.568 119.838C142.397 119.895 142.29 120.042 142.3 120.203V120.203Z" fill="white"/>
<path d="M126.832 95.4636C126.885 95.6978 127.106 95.8769 127.378 95.9055V95.9055C127.652 95.9343 127.92 95.8053 128.036 95.5864V95.5864C128.152 95.3694 128.095 95.1138 127.896 94.9525L127.886 94.9444C127.686 94.7831 127.389 94.7527 127.149 94.8691V94.8691C126.907 94.9865 126.779 95.2282 126.832 95.4636V95.4636Z" fill="white"/>
<path d="M139.727 137.836C139.439 137.835 139.187 137.993 139.097 138.231L139.09 138.248C138.998 138.492 139.102 138.768 139.347 138.924V138.924C139.581 139.074 139.892 139.08 140.12 138.937L140.17 138.906C140.398 138.763 140.491 138.505 140.403 138.263V138.263C140.31 138.012 140.043 137.838 139.747 137.837L139.727 137.836Z" fill="#48ECC2"/>
<ellipse rx="47.6942" ry="44.516" transform="matrix(0.893483 0.449097 -0.552681 0.833393 102.815 101.401)" fill="#02E2AC"/>
<path d="M125.583 115.4C122.697 113.325 112.713 106.384 111.387 105.462C112.139 104.223 112.527 102.842 112.514 101.441C112.502 100.04 112.089 98.6641 111.315 97.4363L122.414 90.1188L125.661 87.8262C126.46 87.3648 126.59 86.8599 126.01 86.1859C125.254 85.3205 124.436 84.4975 123.56 83.7218C118.764 79.4661 112.394 76.823 105.576 76.2594V71.394C105.586 70.7701 105.325 70.1661 104.845 69.7028C104.364 69.2396 103.701 68.9514 102.987 68.8961C102.607 68.8739 102.227 68.9199 101.868 69.0313C101.51 69.1427 101.181 69.3172 100.904 69.5438C100.626 69.7703 100.405 70.0442 100.254 70.3484C100.103 70.6526 100.026 70.9805 100.026 71.3119V76.2594C97.6598 76.4539 95.3298 76.9018 93.0892 77.5929V71.394C93.099 70.7701 92.8377 70.1661 92.3576 69.7028C91.8775 69.2396 91.2141 68.9514 90.5002 68.8961C90.1205 68.8739 89.7396 68.9199 89.3811 69.0313C89.0227 69.1427 88.6944 69.3172 88.4167 69.5438C88.1391 69.7703 87.9179 70.0442 87.7669 70.3484C87.616 70.6526 87.5386 70.9805 87.5394 71.3119V79.9C83.3329 82.1518 79.8527 85.2974 77.4257 89.0414C74.9988 92.7854 73.7047 97.005 73.665 101.304C73.5373 115.369 87.0011 126.875 103.156 126.875H124.723C125.116 126.875 125.496 126.753 125.797 126.532C126.097 126.311 126.297 126.005 126.363 125.667L126.385 116.893C126.386 116.608 126.315 116.327 126.176 116.068C126.037 115.81 125.835 115.582 125.583 115.4ZM120.838 122.044H103.093C90.0507 122.044 79.1509 112.757 79.2286 101.405C79.241 98.4453 79.9904 95.5226 81.4251 92.8389C82.8599 90.1551 84.9459 87.7741 87.5394 85.8598V90.5561C87.5296 91.18 87.7909 91.784 88.271 92.2472C88.7511 92.7105 89.4145 92.9986 90.1284 93.054C90.5081 93.0762 90.889 93.0302 91.2475 92.9188C91.6059 92.8073 91.9342 92.6329 92.2119 92.4063C92.4896 92.1797 92.7107 91.9059 92.8617 91.6017C93.0126 91.2975 93.09 90.9696 93.0892 90.6382V82.799C96.1399 81.5943 99.4515 80.9724 102.801 80.975C109.006 80.975 114.234 82.7676 118.446 86.1762L107.116 93.9358C105.633 93.295 103.986 92.995 102.332 93.0645C100.678 93.1339 99.0714 93.5704 97.6657 94.3324C96.2599 95.0945 95.1014 96.1568 94.3 97.4185C93.4987 98.6802 93.0813 100.099 93.0874 101.541C93.0934 102.983 93.5229 104.399 94.3348 105.656C95.1468 106.912 96.3143 107.967 97.7264 108.72C99.1386 109.473 100.748 109.899 102.403 109.958C104.058 110.017 105.702 109.707 107.18 109.056L107.039 109.167L120.838 118.42V122.044ZM106.964 101.509C106.964 102.226 106.72 102.927 106.262 103.523C105.805 104.118 105.155 104.583 104.394 104.857C103.634 105.131 102.797 105.203 101.989 105.063C101.182 104.924 100.44 104.578 99.8581 104.072C99.276 103.565 98.8796 102.919 98.7189 102.216C98.5583 101.513 98.6408 100.785 98.9558 100.123C99.2708 99.4604 99.8043 98.8945 100.489 98.4963C101.173 98.0981 101.978 97.8856 102.801 97.8856C103.905 97.8856 104.964 98.2674 105.745 98.947C106.525 99.6265 106.964 100.548 106.964 101.509Z" fill="#0E0333"/>
<path d="M120.913 101.513C120.917 104.552 119.908 107.527 118.008 110.077C119.47 111.099 120.971 112.147 122.292 113.075C124.936 109.696 126.362 105.706 126.385 101.618C126.409 97.529 125.03 93.5272 122.425 90.125L118.063 93.007C119.931 95.5454 120.921 98.4983 120.913 101.513V101.513Z" fill="#0E0333"/>
<path d="M55.9588 61.7036C89.5346 53.8967 10.3777 84.033 39.5495 68.0049" stroke="white" stroke-opacity="0.4" stroke-width="1.65864"/>
<path d="M125.899 182.545L130.153 180.407C130.406 180.788 130.616 181.15 130.794 181.488C130.966 181.816 131.079 182.147 131.156 182.469C131.26 182.924 131.263 183.364 131.2 183.796C131.13 184.219 130.982 184.614 130.75 184.998C130.522 185.367 130.234 185.712 129.879 186.024C129.523 186.337 129.111 186.61 128.644 186.845C128.005 187.166 127.352 187.374 126.69 187.453C126.039 187.527 125.416 187.505 124.814 187.354C124.211 187.202 123.649 186.95 123.12 186.588C122.591 186.226 122.136 185.746 121.763 185.185C121.391 184.624 121.148 184.051 121.041 183.477C120.945 182.896 120.958 182.342 121.127 181.816C121.295 181.291 121.59 180.795 122 180.335C122.409 179.875 122.954 179.481 123.616 179.149C124.483 178.713 125.342 178.495 126.211 178.499C127.081 178.503 127.926 178.746 128.762 179.248L127.212 181.016C126.752 180.713 126.326 180.553 125.905 180.537C125.496 180.516 125.094 180.598 124.706 180.793C124.386 180.953 124.123 181.152 123.934 181.394C123.738 181.626 123.61 181.891 123.549 182.189C123.492 182.472 123.504 182.787 123.581 183.109C123.664 183.441 123.818 183.765 124.044 184.106C124.25 184.416 124.482 184.674 124.746 184.889C125.01 185.104 125.3 185.265 125.608 185.364C125.917 185.463 126.245 185.498 126.592 185.471C126.932 185.434 127.273 185.329 127.638 185.146C127.855 185.037 128.036 184.919 128.214 184.776C128.382 184.638 128.518 184.476 128.606 184.312C128.699 184.131 128.756 183.942 128.766 183.75C128.776 183.558 128.718 183.333 128.612 183.106L126.844 183.994L125.887 182.551L125.899 182.545ZM132.413 175.008L137.225 182.265L135.081 183.342L130.268 176.085L132.413 175.008ZM139.419 173.624L143.168 179.278L141.024 180.355L137.275 174.702L135.507 175.591L134.443 173.987L140.112 171.138L141.169 172.731L139.412 173.614L139.419 173.624ZM149.192 169.808C148.338 169.529 147.554 169.562 146.824 169.929C146.504 170.09 146.241 170.289 146.022 170.533C145.815 170.77 145.68 171.025 145.606 171.303C145.525 171.571 145.505 171.862 145.55 172.16C145.596 172.458 145.729 172.751 145.916 173.032C146.108 173.323 146.338 173.554 146.607 173.753C146.881 173.937 147.18 174.067 147.494 174.15C147.818 174.227 148.151 174.247 148.48 174.215C148.82 174.178 149.139 174.085 149.458 173.924C150.142 173.58 150.585 173.01 150.794 172.224L152.276 174.459L152.106 174.638C151.842 174.905 151.587 175.14 151.328 175.323C151.076 175.516 150.811 175.69 150.537 175.827C149.967 176.114 149.36 176.299 148.709 176.372C148.069 176.44 147.422 176.404 146.797 176.264C146.165 176.114 145.591 175.868 145.028 175.523C144.476 175.172 144.005 174.714 143.632 174.153C143.26 173.591 143.035 173.023 142.969 172.441C142.896 171.85 142.95 171.288 143.129 170.757C143.303 170.216 143.598 169.72 143.996 169.266C144.394 168.812 144.875 168.436 145.457 168.144C145.788 167.977 146.127 167.847 146.482 167.762C146.841 167.662 147.243 167.58 147.672 167.538L149.18 169.814L149.192 169.808ZM153.982 169.004C154.175 169.295 154.404 169.527 154.696 169.714C154.981 169.892 155.292 170.016 155.617 170.094C155.953 170.165 156.286 170.185 156.626 170.148C156.978 170.105 157.301 169.996 157.62 169.835C157.939 169.675 158.191 169.481 158.417 169.248C158.635 169.004 158.793 168.737 158.879 168.454C158.976 168.165 159.008 167.868 158.973 167.564C158.939 167.261 158.817 166.961 158.624 166.671C158.431 166.38 158.202 166.148 157.91 165.961C157.625 165.783 157.314 165.659 156.978 165.587C156.641 165.516 156.309 165.496 155.964 165.549C155.624 165.586 155.294 165.685 154.974 165.846C154.655 166.006 154.392 166.205 154.173 166.449C153.966 166.687 153.801 166.943 153.716 167.227C153.619 167.516 153.598 167.807 153.633 168.111C153.673 168.424 153.789 168.714 153.982 169.004ZM151.735 170.134C151.376 169.592 151.157 169.034 151.08 168.458C150.996 167.872 151.038 167.317 151.216 166.759C151.382 166.208 151.688 165.707 152.114 165.225C152.54 164.744 153.09 164.334 153.763 163.996C154.424 163.663 155.107 163.454 155.799 163.373C156.484 163.283 157.154 163.307 157.786 163.457C158.429 163.601 159.014 163.842 159.555 164.198C160.089 164.545 160.535 164.989 160.894 165.53C161.253 166.071 161.471 166.63 161.556 167.215C161.633 167.791 161.58 168.353 161.402 168.91C161.235 169.461 160.936 169.973 160.498 170.46C160.066 170.931 159.516 171.341 158.855 171.674C158.182 172.012 157.499 172.221 156.814 172.312C156.122 172.392 155.464 172.362 154.832 172.212C154.2 172.062 153.615 171.822 153.081 171.475C152.54 171.119 152.094 170.675 151.735 170.134ZM162.389 159.941L167.201 167.198L165.057 168.275L160.244 161.018L162.389 159.941ZM169.334 166.125L164.522 158.868L166.666 157.791L173.58 160.236L170.636 155.795L172.769 154.723L177.581 161.98L175.448 163.052L168.534 160.607L171.479 165.048L169.334 166.125Z" fill="white"/>
<defs>
<linearGradient id="paint0_linear_4317_121875" x1="105.5" y1="21" x2="105.5" y2="185" gradientUnits="userSpaceOnUse">
<stop stop-color="#003333"/>
<stop offset="1" stop-color="#003333" stop-opacity="0"/>
</linearGradient>
<linearGradient id="paint1_linear_4317_121875" x1="34.8308" y1="165.676" x2="34.8308" y2="172.849" gradientUnits="userSpaceOnUse">
<stop stop-color="#00DD9E"/>
<stop offset="1" stop-color="white" stop-opacity="0"/>
</linearGradient>
<linearGradient id="paint2_linear_4317_121875" x1="9.3633" y1="0" x2="9.3633" y2="14.999" gradientUnits="userSpaceOnUse">
<stop stop-color="#9098A4" stop-opacity="0.77"/>
<stop offset="1" stop-color="white" stop-opacity="0"/>
</linearGradient>
<linearGradient id="paint3_linear_4317_121875" x1="10.6589" y1="0" x2="10.6589" y2="19.0781" gradientUnits="userSpaceOnUse">
<stop stop-color="#79EA89" stop-opacity="0.55"/>
<stop offset="1" stop-color="white" stop-opacity="0"/>
</linearGradient>
</defs>
</svg>
