<svg width="301" height="201" viewBox="0 0 301 201" fill="none" xmlns="http://www.w3.org/2000/svg">
<path d="M142.979 142.932L68.3599 170.523L0 200.321L300.997 200.321L301 166.04L246.768 159.154L142.979 142.932Z" fill="#3C464F"/>
<path d="M87.8359 49.5931L88.1363 45.8543C89.0742 31.9707 91.0549 21.905 94.0783 15.657C97.6543 8.43737 103.192 3.76058 110.691 1.62667C119.759 -1.18346 129.493 -0.352641 139.894 4.11913L142.006 5.18945C143.376 5.93622 144.654 6.73437 145.838 7.58392C148.225 9.29806 150.133 11.1274 151.561 13.0719C153.708 16.1053 154.611 19.285 154.271 22.611C154.113 25.3383 152.994 29.1944 150.913 34.1795L115.857 66.21L87.8359 49.5931Z" fill="black"/>
<path d="M139.704 160.482L138.964 161.079C135.621 163.603 133.535 166.074 132.706 168.491C131.863 170.592 132.057 174.401 133.289 179.919L114.455 179.396L86.0657 175.351C82.3339 175.485 79.7423 175.434 78.291 175.199C75.387 174.828 72.7461 173.451 70.3682 171.069C54.0408 177.861 39.0248 183.937 25.3203 189.294C26.456 181.488 28.1662 176.398 30.4509 174.025C29.421 171.155 28.8589 168.435 28.7647 165.864C28.7331 162.644 29.4066 158.167 30.7851 152.435C29.3708 144.363 28.8104 137.33 29.1039 131.337C29.314 123.453 30.3929 113.998 32.3407 102.971C34.6769 91.172 36.8581 83.3331 38.8842 79.4541C41.1374 74.6751 43.7298 71.2251 46.6615 69.1041C48.9911 66.5479 59.937 62.0856 79.4993 55.7171L86.5343 47.8105L138.253 69.2243L139.874 70.7959C143.352 74.0251 146.633 78.6061 149.717 84.5389C151.632 87.9329 156.646 99.0997 164.757 118.039L175.98 124.57L162.753 127.103L158.924 129.976L177.403 133.515L178.571 134.914L178.543 140.483L182.234 141.875L181.821 144.823L179.901 145.559L179.825 151.065C175.497 150.794 172.721 151.137 171.497 152.094C169.957 152.876 168.283 155.182 166.475 159.013L161.959 154.725C153.811 153.562 148.074 151.573 144.75 148.757C141.291 146.339 136.853 140.478 131.435 131.174L126.106 151.921L128.616 157.772L139.704 160.482Z" fill="white"/>
<path d="M103.363 81.7698L104.107 76.0918C96.9971 68.5483 92.5513 63.3886 90.7697 60.6129C88.6716 57.6594 87.2979 54.2251 86.6484 50.3101L87.451 48.3986L98.6353 51.8453C96.7686 44.7357 96.7537 40.5205 98.5905 39.1996C100.768 37.9543 102.901 38.128 104.989 39.7208C105.752 40.2959 106.502 41.4442 107.238 43.1656C107.956 44.9062 108.897 48.0882 110.062 52.7116L114.527 53.5823L115.472 45.9958L133.54 30.7642C142.052 28.1676 147.428 27.7156 149.667 29.4081C150.554 29.7902 151.285 30.9768 151.859 32.9677C152.335 34.1761 152.306 37.2296 151.77 42.128C151.521 44.2515 150.821 48.1522 149.668 53.83C147.545 60.039 146.07 63.8283 145.243 65.1979C143.98 68.0444 142.215 68.6599 139.948 67.0445C140.211 68.7657 139.454 69.7491 137.677 69.9948C137.723 71.1557 137.572 71.9412 137.223 72.3512C136.941 72.7917 136.146 73.2819 134.838 73.8218C134.53 76.5456 133.822 78.415 132.714 79.4301C131.985 80.0181 131.087 80.3487 130.02 80.4219C128.455 80.5059 126.921 80.3108 125.419 79.8366C123.305 79.353 119.757 77.4726 114.777 74.1954L110.107 83.6089L103.363 81.7698Z" fill="#FFB4A0"/>
<path d="M211.783 124.491L189.441 119.256L151.82 127.274L154.21 156.696C156.459 157.279 172.799 162.6 203.232 172.661L211.783 124.491Z" fill="black"/>
<path d="M179.164 94.4727L182.368 103.748L184.536 104.919L184.407 114.165L187.907 117.597L192.761 114.487L192.871 104.51L195.838 104.645L200.267 114.334L204.277 116.287L200.007 98.5649L179.164 94.4727Z" fill="black"/>
<path d="M166.71 81.4518L165.862 81.62C163.318 82.134 161.344 82.3256 159.938 82.1947C158.25 82.1111 156.57 81.5669 154.899 80.5622C153.225 79.6866 150.454 77.2073 146.586 73.1244L145.967 68.5503L135.427 62.1328L128.026 57.2365C127.451 54.4286 127.625 52.3519 128.549 51.0063C129.245 49.804 131.475 48.3739 135.239 46.7159L142.551 51.6834L142.405 54.3244L145.82 56.0484L146.308 57.8185L151.968 61.2674L154.411 61.0822C153.32 60.2748 150.1 58.3818 144.751 55.4031C145.388 51.9337 146.104 49.7582 146.898 48.8765C147.658 47.6927 149.379 46.4631 152.059 45.1875L156.683 48.6249L157.383 50.9921L160.86 53.283L160.461 54.9259L177.207 65.0576L166.71 81.4518Z" fill="black"/>
<path d="M161.148 82.096L168.735 66.0368L187.396 63.8633L193.585 68.7132L205.379 69.4835L208.17 86.165L245.415 92.3946L254.275 182.288L223.255 191.939L184.999 180.636L183.973 161.996C189.538 161.555 193.537 160.479 195.97 158.767C199.011 156.982 201.188 153.279 202.502 147.659C204.495 137.198 204.205 124.997 201.629 111.056C200.714 106.495 198.977 103.266 196.418 101.372L178.423 95.1814L175.542 88.878L161.148 82.096Z" fill="#DCE5EB"/>
<path d="M211.729 164.196L211.665 165.442C211.362 167.953 210.474 169.96 209.002 171.466C207.519 172.969 205.773 173.579 203.765 173.295C201.847 172.898 200.314 171.735 199.164 169.807C198.796 169.184 198.493 168.505 198.254 167.771L197.954 166.637C197.788 165.858 197.705 165.044 197.703 164.196C197.753 161.595 198.438 159.431 199.757 157.703C201.076 155.976 202.729 155.079 204.716 155.014C206.703 155.079 208.356 155.976 209.675 157.703C210.994 159.431 211.679 161.595 211.729 164.196Z" fill="black"/>
<path d="M132.965 179.304L132.71 178.229C131.477 173.486 131.14 169.916 131.7 167.52C132.096 165.326 134.081 162.907 137.652 160.263L160.922 161.813C165.845 157.108 168.988 154.253 170.349 153.249C171.663 152.122 172.899 151.474 174.058 151.305L177.394 151.608C177.554 151.639 178.331 151.632 179.725 151.586C181.788 151.485 184.998 151.166 189.355 150.631C190.184 151.742 190.14 152.726 189.224 153.581C188.546 154.382 186.199 155.884 182.182 158.086C182.929 158.548 184.043 158.781 185.524 158.785L194.69 158.554C196.582 158.592 197.667 158.644 197.944 158.709C200.09 158.953 201.344 159.508 201.707 160.373C202.032 161.766 200.621 162.886 197.474 163.734C193.884 164.613 187.623 165.271 178.692 165.706C180.293 166.374 182.129 166.805 184.199 166.998C185.885 167.162 186.999 167.254 187.542 167.273L199.53 167.864C201.438 167.974 203.118 168.137 204.57 168.355C206.963 168.75 208.204 169.341 208.291 170.127C208.47 171.128 207.668 172.363 205.884 173.833C204.791 174.662 203.513 174.79 202.051 174.217C203.305 176.441 202.248 178.17 198.879 179.404C197.529 179.862 195.695 180.11 193.377 180.15C190.698 180.204 186.68 180.015 181.322 179.585C190.224 179.339 195.769 179.677 197.959 180.599C199.284 181.323 199.302 182.194 198.013 183.213C197.234 183.931 195.36 184.485 192.391 184.874C191.112 185.077 187.958 185.205 182.929 185.257C179.515 184.886 176.898 184.571 175.078 184.313C170.869 183.883 165.378 182.535 158.602 180.268L132.965 179.304Z" fill="#FFB4A0"/>
<path d="M224.873 124.299L224.865 124.419C224.827 124.661 224.715 124.855 224.53 125C224.343 125.145 224.124 125.204 223.871 125.176C223.63 125.138 223.438 125.026 223.293 124.84C223.247 124.78 223.209 124.715 223.179 124.644L223.141 124.534C223.12 124.459 223.11 124.381 223.109 124.299C223.116 124.048 223.202 123.84 223.368 123.673C223.533 123.507 223.741 123.42 223.991 123.414C224.241 123.42 224.449 123.507 224.615 123.673C224.78 123.84 224.866 124.048 224.873 124.299Z" fill="#3C464F"/>
<path d="M247.131 119.791L247.123 119.911C247.106 120.019 247.074 120.117 247.028 120.205C246.964 120.312 246.922 120.373 246.9 120.388C246.866 120.425 246.829 120.46 246.788 120.492C246.705 120.556 246.616 120.604 246.52 120.634C246.498 120.647 246.422 120.66 246.293 120.674C246.24 120.676 246.186 120.674 246.129 120.668C246 120.641 245.925 120.62 245.905 120.606C245.858 120.586 245.814 120.563 245.772 120.536C245.689 120.483 245.615 120.415 245.551 120.332C245.408 120.132 245.348 119.925 245.372 119.709C245.383 119.602 245.41 119.503 245.452 119.412C245.473 119.367 245.498 119.324 245.527 119.283C245.537 119.259 245.589 119.202 245.682 119.113C245.838 118.981 246.027 118.912 246.249 118.906C246.36 118.909 246.463 118.928 246.557 118.962C246.672 119.012 246.738 119.047 246.756 119.066C246.797 119.095 246.836 119.128 246.873 119.165C246.958 119.262 247.004 119.322 247.012 119.346C247.037 119.389 247.058 119.435 247.075 119.482C247.109 119.577 247.128 119.68 247.131 119.791Z" fill="#3C464F"/>
<path d="M246.31 129.541L246.302 129.662C246.278 129.791 246.247 129.889 246.208 129.955C246.169 130.022 246.132 130.077 246.098 130.121C246.054 130.167 246.011 130.208 245.968 130.242C245.787 130.383 245.58 130.443 245.346 130.422C245.107 130.392 244.916 130.296 244.775 130.135C244.746 130.105 244.716 130.065 244.686 130.015C244.667 129.993 244.635 129.925 244.589 129.811C244.559 129.719 244.545 129.626 244.547 129.531C244.555 129.285 244.642 129.08 244.806 128.918C244.976 128.747 245.184 128.66 245.429 128.656C245.517 128.655 245.62 128.674 245.737 128.712C245.842 128.759 245.902 128.789 245.916 128.801C245.968 128.838 246.013 128.876 246.052 128.916C246.22 129.087 246.306 129.296 246.31 129.541Z" fill="#3C464F"/>
<path d="M229.545 133.608L229.537 133.728C229.52 133.835 229.488 133.933 229.442 134.022C229.419 134.066 229.393 134.108 229.363 134.147C229.281 134.242 229.227 134.295 229.202 134.308C229.119 134.373 229.03 134.42 228.934 134.451C228.912 134.464 228.836 134.477 228.707 134.49C228.654 134.493 228.6 134.491 228.544 134.485C228.436 134.468 228.339 134.436 228.251 134.39C228.145 134.326 228.084 134.283 228.069 134.262C228.032 134.228 227.997 134.19 227.965 134.149C227.822 133.949 227.762 133.741 227.787 133.526C227.797 133.418 227.824 133.319 227.866 133.229C227.887 133.184 227.912 133.14 227.941 133.099C227.951 133.075 228.003 133.019 228.097 132.929C228.252 132.797 228.441 132.728 228.663 132.723C228.774 132.725 228.877 132.744 228.971 132.779C228.998 132.782 229.064 132.817 229.17 132.883C229.211 132.912 229.25 132.945 229.287 132.982C229.36 133.056 229.418 133.138 229.46 133.229C229.506 133.346 229.529 133.418 229.529 133.447C229.538 133.498 229.543 133.552 229.545 133.608Z" fill="#3C464F"/>
<path d="M247.139 151.202L247.131 151.322C247.1 151.472 247.069 151.57 247.037 151.616C247.006 151.669 246.969 151.725 246.926 151.781C246.893 151.819 246.85 151.859 246.797 151.902C246.756 151.934 246.715 151.961 246.672 151.984C246.653 152.001 246.585 152.027 246.471 152.062C246.378 152.085 246.279 152.091 246.175 152.082C246.046 152.06 245.972 152.042 245.952 152.03C245.906 152.014 245.863 151.994 245.821 151.971C245.742 151.929 245.667 151.867 245.594 151.785C245.528 151.715 245.469 151.611 245.418 151.471C245.385 151.359 245.371 151.265 245.376 151.191C245.378 151.136 245.384 151.084 245.393 151.033C245.393 151.005 245.416 150.934 245.462 150.819C245.504 150.731 245.562 150.65 245.635 150.578C245.711 150.502 245.794 150.443 245.884 150.4C245.929 150.378 245.976 150.361 246.025 150.348C246.047 150.336 246.125 150.326 246.258 150.316C246.369 150.32 246.472 150.338 246.566 150.372C246.66 150.414 246.717 150.442 246.739 150.457C246.787 150.49 246.834 150.53 246.881 150.576C246.919 150.614 246.952 150.654 246.981 150.696C247.047 150.803 247.082 150.87 247.085 150.896C247.12 150.991 247.138 151.092 247.139 151.202Z" fill="#3C464F"/>
<path d="M231.459 156.643L231.451 156.763C231.419 156.986 231.315 157.174 231.137 157.329C231.06 157.394 230.957 157.45 230.825 157.494C230.663 157.526 230.553 157.536 230.495 157.523C230.372 157.51 230.262 157.477 230.165 157.425C230.043 157.355 229.963 157.292 229.923 157.237C229.894 157.206 229.865 157.166 229.835 157.117C229.772 157.004 229.74 156.936 229.738 156.913C229.707 156.821 229.693 156.727 229.696 156.632C229.704 156.386 229.79 156.182 229.954 156.019C230.125 155.848 230.332 155.761 230.577 155.758C230.703 155.763 230.814 155.784 230.909 155.821C231.045 155.885 231.142 155.95 231.201 156.017C231.287 156.109 231.345 156.192 231.375 156.264C231.404 156.336 231.425 156.4 231.44 156.457C231.451 156.522 231.457 156.584 231.459 156.643Z" fill="#3C464F"/>
<path d="M240.25 166.902V166.902L246.966 164.744C247.13 168.368 247.293 171.992 247.457 175.616C245.267 176.333 243.078 177.05 240.889 177.767L240.25 166.902Z" fill="#637079"/>
<path d="M229.819 172.48L233.894 171.887C233.828 174.023 233.763 176.16 233.697 178.296C232.376 178.748 231.055 179.2 229.734 179.652L229.819 172.48Z" fill="#637079"/>
<path d="M223.43 100.05L242.39 96.6484L244.196 116.207L224.558 120.855L223.43 100.05Z" fill="#637079"/>
<path d="M198.957 125.798L198.888 126.529C198.461 128.016 197.05 129.262 194.653 130.267C192.24 131.272 189.362 131.78 186.021 131.79C182.829 131.726 180.25 131.184 178.284 130.162C176.32 129.133 175.478 127.843 175.758 126.293C176.185 124.806 177.596 123.56 179.993 122.555C182.406 121.55 185.284 121.042 188.625 121.032C191.817 121.096 194.396 121.638 196.362 122.66C196.992 122.99 197.516 123.359 197.934 123.766L198.467 124.399C198.764 124.838 198.928 125.305 198.957 125.798Z" fill="white"/>
</svg>
