<svg width="309" height="355" viewBox="0 0 309 355" fill="none" xmlns="http://www.w3.org/2000/svg">
<path d="M90.3547 333.775L95.3208 350.999L72.4216 350.725L69.9386 347.171L66.9038 343.617L66.352 342.25L67.4555 341.43L68.835 338.969V335.689L67.1797 331.588L66.9038 331.315L64.1448 329.948H62.2136L61.3859 328.854V326.667L60.5582 325.573V323.113L61.11 312.177L61.9377 308.076L63.593 306.436L65.2484 306.163L67.1797 306.436L69.3868 307.53L71.3181 308.623L73.5252 309.99L75.7324 306.983L77.9395 304.249L76.2841 300.421L74.6288 294.133L73.8011 288.392V278.55L74.6288 274.723L76.56 271.989L79.0431 270.348L83.1815 268.708L87.3199 268.435H92.0101V266.521L90.0788 265.974L84.2851 262.42L81.802 259.96L80.9743 258.046V252.305L80.1467 250.391L72.6975 230.433L65.5243 214.85L55.0403 194.893L54.2127 194.072L53.6609 194.346L49.2466 210.749L45.9358 228.52L42.3492 241.642L40.6939 244.65L40.418 249.844L42.6251 251.211L43.7287 253.398L44.0046 258.593L45.1082 275.269L48.9707 288.666L52.0055 297.961L58.6269 313.271L58.9028 317.918L58.6269 322.019L58.3511 324.206L58.9028 325.847L60.5582 326.394V328.854L61.9377 330.494H64.1448L66.9038 331.861L68.5591 335.689V338.969L67.1797 341.157L65.8002 341.977L66.352 343.617L69.6627 347.445L71.8699 350.725H69.9386H62.7654H50.626H36.2796L34.3483 348.538L33.7965 344.437L34.3483 341.157L36.2796 338.149L37.3831 336.782L36.2796 335.689L32.1412 331.588L27.7269 325.847L23.3126 316.005L21.6572 309.443L15.5875 294.68L9.51787 284.565L5.93126 280.737L5.10357 278.003L4 270.895L5.10357 255.312L6.48304 251.758L10.6214 248.751L12.8286 247.93L13.3804 243.556L12.8286 242.189L12.2768 240.549L12.8286 236.995L13.9322 221.685L16.1393 195.166L18.8983 181.496L22.209 171.928L18.8983 170.014L15.3116 166.733L13.9322 161.812V155.798L15.3116 149.236L17.2429 140.488L20.0018 133.106L24.1402 125.725L26.3474 121.897L29.3822 119.983L31.8653 119.163L34.3483 119.983L34.9001 118.343L36.0037 111.508L37.1072 106.041L39.5903 100.299L42.6251 94.5581L45.6599 90.7307L49.7984 87.1766L52.8332 85.2629L54.4885 83.3491L55.0403 80.3418L56.4198 77.0611L58.3511 75.1474L63.3171 72.9603L83.7333 66.6723L103.598 59.5641L120.151 57.6504L138.084 62.8448L170.088 78.9749L174.778 83.0757L180.02 90.7307L183.055 98.9324L184.986 113.969L185.814 112.602L187.745 109.868L189.676 109.048L193.263 109.868L195.47 111.782L198.505 114.789L201.54 119.437L204.023 126.271L206.782 133.38L207.885 138.301V145.682V148.69L204.023 151.423L206.782 159.078L209.541 169.194L210.92 181.77L212.852 214.85L216.162 217.037L218.645 221.411V226.879L221.956 228.52L224.991 232.347L231.061 247.93L234.647 255.585L243.2 265.154L247.89 269.528L249.545 267.068L252.856 259.686L255.063 255.585L258.374 252.851L261.685 251.758L264.444 251.211L267.203 249.571L271.341 248.477L277.135 249.571L280.17 252.305L284.86 257.499L286.515 261.053L287.343 269.528H290.378L295.068 271.442L298.93 273.356L303.069 277.457L305 282.651V288.392L304.172 291.4L303.069 294.407L304.172 297.687V300.968L302.241 304.796L298.93 307.53L293.412 308.897L286.515 307.53L281.825 302.335L279.066 298.234L272.72 297.687L268.306 296.594L267.203 297.687L263.34 299.601L259.202 299.054L256.719 297.414L256.443 299.054L257.822 302.335L260.305 306.709H264.995L272.169 307.53L277.135 310.537L279.894 313.271L280.997 316.825V323.386V328.307L278.514 331.315L275.203 333.775L269.41 334.322L255.063 335.142L251.477 332.955L247.89 328.307L246.235 324.48V320.106L244.855 318.465L242.096 316.825L240.441 313.271L239.061 307.53L238.51 300.968L238.786 296.321L236.854 295.774L233.819 294.407L230.509 290.579L216.162 275.816L195.47 255.585L193.263 251.758V247.657V239.729L194.643 235.081L192.435 232.347L191.056 228.52L190.228 221.411L189.125 217.857L186.918 210.476L183.055 217.037L181.951 226.879L180.848 237.542L177.813 256.952L176.158 261.053L171.467 265.154L167.605 267.068L168.157 269.528L171.467 270.622L172.847 273.356V279.917L170.64 291.4L168.984 297.687H170.64L175.33 295.774L177.261 296.594L180.848 300.421L183.883 306.709V318.465L182.779 328.307L179.468 350.999H143.878L145.809 336.509L146.913 330.494L144.706 332.135L141.671 333.775H137.257L135.325 332.135H130.359L125.945 331.315L122.634 327.76L119.875 329.401H110.219L102.494 326.394L100.563 328.854L95.3208 332.682L90.3547 333.775Z" fill="white"/>
<path d="M90.3547 333.775L95.3208 350.999L72.4216 350.725L69.9386 347.171L66.9038 343.617L66.352 342.25L67.4555 341.43L68.835 338.969V335.689L67.1797 331.588L66.9038 331.315L64.1448 329.948H62.2136L61.3859 328.854V326.667L60.5582 325.573V323.113L61.11 312.177L61.9377 308.076L63.593 306.436L65.2484 306.163L67.1797 306.436L69.3868 307.53L71.3181 308.623L73.5252 309.99L75.7324 306.983L77.9395 304.249L76.2841 300.421L74.6288 294.133L73.8011 288.392V278.55L74.6288 274.723L76.56 271.989L79.0431 270.348L83.1815 268.708L87.3199 268.435H92.0101V266.521L90.0788 265.974L84.2851 262.42L81.802 259.96L80.9743 258.046V252.305L80.1467 250.391L72.6975 230.433L65.5243 214.85L55.0403 194.893L54.2127 194.072L53.6609 194.346L49.2466 210.749L45.9358 228.52L42.3492 241.642L40.6939 244.65L40.418 249.844L42.6251 251.211L43.7287 253.398L44.0046 258.593L45.1082 275.269L48.9707 288.666L52.0055 297.961L58.6269 313.271L58.9028 317.918L58.6269 322.019L58.3511 324.206L58.9028 325.847L60.5582 326.394V328.854L61.9377 330.494H64.1448L66.9038 331.861L68.5591 335.689V338.969L67.1797 341.157L65.8002 341.977L66.352 343.617L69.6627 347.445L71.8699 350.725H69.9386H62.7654H50.626H36.2796L34.3483 348.538L33.7965 344.437L34.3483 341.157L36.2796 338.149L37.3831 336.782L36.2796 335.689L32.1412 331.588L27.7269 325.847L23.3126 316.005L21.6572 309.443L15.5875 294.68L9.51787 284.565L5.93126 280.737L5.10357 278.003L4 270.895L5.10357 255.312L6.48304 251.758L10.6214 248.751L12.8286 247.93L13.3804 243.556L12.8286 242.189L12.2768 240.549L12.8286 236.995L13.9322 221.685L16.1393 195.166L18.8983 181.496L22.209 171.928L18.8983 170.014L15.3116 166.733L13.9322 161.812V155.798L15.3116 149.236L17.2429 140.488L20.0018 133.106L24.1402 125.725L26.3474 121.897L29.3822 119.983L31.8653 119.163L34.3483 119.983L34.9001 118.343L36.0037 111.508L37.1072 106.041L39.5903 100.299L42.6251 94.5581L45.6599 90.7307L49.7984 87.1766L52.8332 85.2629L54.4885 83.3491L55.0403 80.3418L56.4198 77.0611L58.3511 75.1474L63.3171 72.9603L83.7333 66.6723L103.598 59.5641L120.151 57.6504L138.084 62.8448L170.088 78.9749L174.778 83.0757L180.02 90.7307L183.055 98.9324L184.986 113.969L185.814 112.602L187.745 109.868L189.676 109.048L193.263 109.868L195.47 111.782L198.505 114.789L201.54 119.437L204.023 126.271L206.782 133.38L207.885 138.301V145.682V148.69L204.023 151.423L206.782 159.078L209.541 169.194L210.92 181.77L212.852 214.85L216.162 217.037L218.645 221.411V226.879L221.956 228.52L224.991 232.347L231.061 247.93L234.647 255.585L243.2 265.154L247.89 269.528L249.545 267.068L252.856 259.686L255.063 255.585L258.374 252.851L261.685 251.758L264.444 251.211L267.203 249.571L271.341 248.477L277.135 249.571L280.17 252.305L284.86 257.499L286.515 261.053L287.343 269.528H290.378L295.068 271.442L298.93 273.356L303.069 277.457L305 282.651V288.392L304.172 291.4L303.069 294.407L304.172 297.687V300.968L302.241 304.796L298.93 307.53L293.412 308.897L286.515 307.53L281.825 302.335L279.066 298.234L272.72 297.687L268.306 296.594L267.203 297.687L263.34 299.601L259.202 299.054L256.719 297.414L256.443 299.054L257.822 302.335L260.305 306.709H264.995L272.169 307.53L277.135 310.537L279.894 313.271L280.997 316.825V323.386V328.307L278.514 331.315L275.203 333.775L269.41 334.322L255.063 335.142L251.477 332.955L247.89 328.307L246.235 324.48V320.106L244.855 318.465L242.096 316.825L240.441 313.271L239.061 307.53L238.51 300.968L238.786 296.321L236.854 295.774L233.819 294.407L230.509 290.579L216.162 275.816L195.47 255.585L193.263 251.758V247.657V239.729L194.643 235.081L192.435 232.347L191.056 228.52L190.228 221.411L189.125 217.857L186.918 210.476L183.055 217.037L181.951 226.879L180.848 237.542L177.813 256.952L176.158 261.053L171.467 265.154L167.605 267.068L168.157 269.528L171.467 270.622L172.847 273.356V279.917L170.64 291.4L168.984 297.687H170.64L175.33 295.774L177.261 296.594L180.848 300.421L183.883 306.709V318.465L182.779 328.307L179.468 350.999H143.878L145.809 336.509L146.913 330.494L144.706 332.135L141.671 333.775H137.257L135.325 332.135H130.359L125.945 331.315L122.634 327.76L119.875 329.401H110.219L102.494 326.394L100.563 328.854L95.3208 332.682L90.3547 333.775Z" stroke="black" stroke-width="7.64591"/>
<path d="M90.3547 333.775L95.3208 350.999L72.4216 350.725L69.9386 347.171L66.9038 343.617L66.352 342.25L67.4555 341.43L68.835 338.969V335.689L67.1797 331.588L66.9038 331.315L64.1448 329.948H62.2136L61.3859 328.854V326.667L60.5582 325.573V323.113L61.11 312.177L61.9377 308.076L63.593 306.436L65.2484 306.163L67.1797 306.436L69.3868 307.53L71.3181 308.623L73.5252 309.99L75.7324 306.983L77.9395 304.249L76.2841 300.421L74.6288 294.133L73.8011 288.392V278.55L74.6288 274.723L76.56 271.989L79.0431 270.348L83.1815 268.708L87.3199 268.435H92.0101V266.521L90.0788 265.974L84.2851 262.42L81.802 259.96L80.9743 258.046V252.305L80.1467 250.391L72.6975 230.433L65.5243 214.85L55.0403 194.893L54.2127 194.072L53.6609 194.346L49.2466 210.749L45.9358 228.52L42.3492 241.642L40.6939 244.65L40.418 249.844L42.6251 251.211L43.7287 253.398L44.0046 258.593L45.1082 275.269L48.9707 288.666L52.0055 297.961L58.6269 313.271L58.9028 317.918L58.6269 322.019L58.3511 324.206L58.9028 325.847L60.5582 326.394V328.854L61.9377 330.494H64.1448L66.9038 331.861L68.5591 335.689V338.969L67.1797 341.157L65.8002 341.977L66.352 343.617L69.6627 347.445L71.8699 350.725H69.9386H62.7654H50.626H36.2796L34.3483 348.538L33.7965 344.437L34.3483 341.157L36.2796 338.149L37.3831 336.782L36.2796 335.689L32.1412 331.588L27.7269 325.847L23.3126 316.005L21.6572 309.443L15.5875 294.68L9.51787 284.565L5.93126 280.737L5.10357 278.003L4 270.895L5.10357 255.312L6.48304 251.758L10.6214 248.751L12.8286 247.93L13.3804 243.556L12.8286 242.189L12.2768 240.549L12.8286 236.995L13.9322 221.685L16.1393 195.166L18.8983 181.496L22.209 171.928L18.8983 170.014L15.3116 166.733L13.9322 161.812V155.798L15.3116 149.236L17.2429 140.488L20.0018 133.106L24.1402 125.725L26.3474 121.897L29.3822 119.983L31.8653 119.163L34.3483 119.983L34.9001 118.343L36.0037 111.508L37.1072 106.041L39.5903 100.299L42.6251 94.5581L45.6599 90.7307L49.7984 87.1766L52.8332 85.2629L54.4885 83.3491L55.0403 80.3418L56.4198 77.0611L58.3511 75.1474L63.3171 72.9603L83.7333 66.6723L103.598 59.5641L120.151 57.6504L138.084 62.8448L170.088 78.9749L174.778 83.0757L180.02 90.7307L183.055 98.9324L184.986 113.969L185.814 112.602L187.745 109.868L189.676 109.048L193.263 109.868L195.47 111.782L198.505 114.789L201.54 119.437L204.023 126.271L206.782 133.38L207.885 138.301V145.682V148.69L204.023 151.423L206.782 159.078L209.541 169.194L210.92 181.77L212.852 214.85L216.162 217.037L218.645 221.411V226.879L221.956 228.52L224.991 232.347L231.061 247.93L234.647 255.585L243.2 265.154L247.89 269.528L249.545 267.068L252.856 259.686L255.063 255.585L258.374 252.851L261.685 251.758L264.444 251.211L267.203 249.571L271.341 248.477L277.135 249.571L280.17 252.305L284.86 257.499L286.515 261.053L287.343 269.528H290.378L295.068 271.442L298.93 273.356L303.069 277.457L305 282.651V288.392L304.172 291.4L303.069 294.407L304.172 297.687V300.968L302.241 304.796L298.93 307.53L293.412 308.897L286.515 307.53L281.825 302.335L279.066 298.234L272.72 297.687L268.306 296.594L267.203 297.687L263.34 299.601L259.202 299.054L256.719 297.414L256.443 299.054L257.822 302.335L260.305 306.709H264.995L272.169 307.53L277.135 310.537L279.894 313.271L280.997 316.825V323.386V328.307L278.514 331.315L275.203 333.775L269.41 334.322L255.063 335.142L251.477 332.955L247.89 328.307L246.235 324.48V320.106L244.855 318.465L242.096 316.825L240.441 313.271L239.061 307.53L238.51 300.968L238.786 296.321L236.854 295.774L233.819 294.407L230.509 290.579L216.162 275.816L195.47 255.585L193.263 251.758V247.657V239.729L194.643 235.081L192.435 232.347L191.056 228.52L190.228 221.411L189.125 217.857L186.918 210.476L183.055 217.037L181.951 226.879L180.848 237.542L177.813 256.952L176.158 261.053L171.467 265.154L167.605 267.068L168.157 269.528L171.467 270.622L172.847 273.356V279.917L170.64 291.4L168.984 297.687H170.64L175.33 295.774L177.261 296.594L180.848 300.421L183.883 306.709V318.465L182.779 328.307L179.468 350.999H143.878L145.809 336.509L146.913 330.494L144.706 332.135L141.671 333.775H137.257L135.325 332.135H130.359L125.945 331.315L122.634 327.76L119.875 329.401H110.219L102.494 326.394L100.563 328.854L95.3208 332.682L90.3547 333.775Z" stroke="black" stroke-width="7.64591"/>
<path d="M90.3547 333.775L95.3208 350.999L72.4216 350.725L69.9386 347.171L66.9038 343.617L66.352 342.25L67.4555 341.43L68.835 338.969V335.689L67.1797 331.588L66.9038 331.315L64.1448 329.948H62.2136L61.3859 328.854V326.667L60.5582 325.573V323.113L61.11 312.177L61.9377 308.076L63.593 306.436L65.2484 306.163L67.1797 306.436L69.3868 307.53L71.3181 308.623L73.5252 309.99L75.7324 306.983L77.9395 304.249L76.2841 300.421L74.6288 294.133L73.8011 288.392V278.55L74.6288 274.723L76.56 271.989L79.0431 270.348L83.1815 268.708L87.3199 268.435H92.0101V266.521L90.0788 265.974L84.2851 262.42L81.802 259.96L80.9743 258.046V252.305L80.1467 250.391L72.6975 230.433L65.5243 214.85L55.0403 194.893L54.2127 194.072L53.6609 194.346L49.2466 210.749L45.9358 228.52L42.3492 241.642L40.6939 244.65L40.418 249.844L42.6251 251.211L43.7287 253.398L44.0046 258.593L45.1082 275.269L48.9707 288.666L52.0055 297.961L58.6269 313.271L58.9028 317.918L58.6269 322.019L58.3511 324.206L58.9028 325.847L60.5582 326.394V328.854L61.9377 330.494H64.1448L66.9038 331.861L68.5591 335.689V338.969L67.1797 341.157L65.8002 341.977L66.352 343.617L69.6627 347.445L71.8699 350.725H69.9386H62.7654H50.626H36.2796L34.3483 348.538L33.7965 344.437L34.3483 341.157L36.2796 338.149L37.3831 336.782L36.2796 335.689L32.1412 331.588L27.7269 325.847L23.3126 316.005L21.6572 309.443L15.5875 294.68L9.51787 284.565L5.93126 280.737L5.10357 278.003L4 270.895L5.10357 255.312L6.48304 251.758L10.6214 248.751L12.8286 247.93L13.3804 243.556L12.8286 242.189L12.2768 240.549L12.8286 236.995L13.9322 221.685L16.1393 195.166L18.8983 181.496L22.209 171.928L18.8983 170.014L15.3116 166.733L13.9322 161.812V155.798L15.3116 149.236L17.2429 140.488L20.0018 133.106L24.1402 125.725L26.3474 121.897L29.3822 119.983L31.8653 119.163L34.3483 119.983L34.9001 118.343L36.0037 111.508L37.1072 106.041L39.5903 100.299L42.6251 94.5581L45.6599 90.7307L49.7984 87.1766L52.8332 85.2629L54.4885 83.3491L55.0403 80.3418L56.4198 77.0611L58.3511 75.1474L63.3171 72.9603L83.7333 66.6723L103.598 59.5641L120.151 57.6504L138.084 62.8448L170.088 78.9749L174.778 83.0757L180.02 90.7307L183.055 98.9324L184.986 113.969L185.814 112.602L187.745 109.868L189.676 109.048L193.263 109.868L195.47 111.782L198.505 114.789L201.54 119.437L204.023 126.271L206.782 133.38L207.885 138.301V145.682V148.69L204.023 151.423L206.782 159.078L209.541 169.194L210.92 181.77L212.852 214.85L216.162 217.037L218.645 221.411V226.879L221.956 228.52L224.991 232.347L231.061 247.93L234.647 255.585L243.2 265.154L247.89 269.528L249.545 267.068L252.856 259.686L255.063 255.585L258.374 252.851L261.685 251.758L264.444 251.211L267.203 249.571L271.341 248.477L277.135 249.571L280.17 252.305L284.86 257.499L286.515 261.053L287.343 269.528H290.378L295.068 271.442L298.93 273.356L303.069 277.457L305 282.651V288.392L304.172 291.4L303.069 294.407L304.172 297.687V300.968L302.241 304.796L298.93 307.53L293.412 308.897L286.515 307.53L281.825 302.335L279.066 298.234L272.72 297.687L268.306 296.594L267.203 297.687L263.34 299.601L259.202 299.054L256.719 297.414L256.443 299.054L257.822 302.335L260.305 306.709H264.995L272.169 307.53L277.135 310.537L279.894 313.271L280.997 316.825V323.386V328.307L278.514 331.315L275.203 333.775L269.41 334.322L255.063 335.142L251.477 332.955L247.89 328.307L246.235 324.48V320.106L244.855 318.465L242.096 316.825L240.441 313.271L239.061 307.53L238.51 300.968L238.786 296.321L236.854 295.774L233.819 294.407L230.509 290.579L216.162 275.816L195.47 255.585L193.263 251.758V247.657V239.729L194.643 235.081L192.435 232.347L191.056 228.52L190.228 221.411L189.125 217.857L186.918 210.476L183.055 217.037L181.951 226.879L180.848 237.542L177.813 256.952L176.158 261.053L171.467 265.154L167.605 267.068L168.157 269.528L171.467 270.622L172.847 273.356V279.917L170.64 291.4L168.984 297.687H170.64L175.33 295.774L177.261 296.594L180.848 300.421L183.883 306.709V318.465L182.779 328.307L179.468 350.999H143.878L145.809 336.509L146.913 330.494L144.706 332.135L141.671 333.775H137.257L135.325 332.135H130.359L125.945 331.315L122.634 327.76L119.875 329.401H110.219L102.494 326.394L100.563 328.854L95.3208 332.682L90.3547 333.775Z" stroke="black" stroke-width="7.64591"/>
<path d="M90.3547 333.775L95.3208 350.999L72.4216 350.725L69.9386 347.171L66.9038 343.617L66.352 342.25L67.4555 341.43L68.835 338.969V335.689L67.1797 331.588L66.9038 331.315L64.1448 329.948H62.2136L61.3859 328.854V326.667L60.5582 325.573V323.113L61.11 312.177L61.9377 308.076L63.593 306.436L65.2484 306.163L67.1797 306.436L69.3868 307.53L71.3181 308.623L73.5252 309.99L75.7324 306.983L77.9395 304.249L76.2841 300.421L74.6288 294.133L73.8011 288.392V278.55L74.6288 274.723L76.56 271.989L79.0431 270.348L83.1815 268.708L87.3199 268.435H92.0101V266.521L90.0788 265.974L84.2851 262.42L81.802 259.96L80.9743 258.046V252.305L80.1467 250.391L72.6975 230.433L65.5243 214.85L55.0403 194.893L54.2127 194.072L53.6609 194.346L49.2466 210.749L45.9358 228.52L42.3492 241.642L40.6939 244.65L40.418 249.844L42.6251 251.211L43.7287 253.398L44.0046 258.593L45.1082 275.269L48.9707 288.666L52.0055 297.961L58.6269 313.271L58.9028 317.918L58.6269 322.019L58.3511 324.206L58.9028 325.847L60.5582 326.394V328.854L61.9377 330.494H64.1448L66.9038 331.861L68.5591 335.689V338.969L67.1797 341.157L65.8002 341.977L66.352 343.617L69.6627 347.445L71.8699 350.725H69.9386H62.7654H50.626H36.2796L34.3483 348.538L33.7965 344.437L34.3483 341.157L36.2796 338.149L37.3831 336.782L36.2796 335.689L32.1412 331.588L27.7269 325.847L23.3126 316.005L21.6572 309.443L15.5875 294.68L9.51787 284.565L5.93126 280.737L5.10357 278.003L4 270.895L5.10357 255.312L6.48304 251.758L10.6214 248.751L12.8286 247.93L13.3804 243.556L12.8286 242.189L12.2768 240.549L12.8286 236.995L13.9322 221.685L16.1393 195.166L18.8983 181.496L22.209 171.928L18.8983 170.014L15.3116 166.733L13.9322 161.812V155.798L15.3116 149.236L17.2429 140.488L20.0018 133.106L24.1402 125.725L26.3474 121.897L29.3822 119.983L31.8653 119.163L34.3483 119.983L34.9001 118.343L36.0037 111.508L37.1072 106.041L39.5903 100.299L42.6251 94.5581L45.6599 90.7307L49.7984 87.1766L52.8332 85.2629L54.4885 83.3491L55.0403 80.3418L56.4198 77.0611L58.3511 75.1474L63.3171 72.9603L83.7333 66.6723L103.598 59.5641L120.151 57.6504L138.084 62.8448L170.088 78.9749L174.778 83.0757L180.02 90.7307L183.055 98.9324L184.986 113.969L185.814 112.602L187.745 109.868L189.676 109.048L193.263 109.868L195.47 111.782L198.505 114.789L201.54 119.437L204.023 126.271L206.782 133.38L207.885 138.301V145.682V148.69L204.023 151.423L206.782 159.078L209.541 169.194L210.92 181.77L212.852 214.85L216.162 217.037L218.645 221.411V226.879L221.956 228.52L224.991 232.347L231.061 247.93L234.647 255.585L243.2 265.154L247.89 269.528L249.545 267.068L252.856 259.686L255.063 255.585L258.374 252.851L261.685 251.758L264.444 251.211L267.203 249.571L271.341 248.477L277.135 249.571L280.17 252.305L284.86 257.499L286.515 261.053L287.343 269.528H290.378L295.068 271.442L298.93 273.356L303.069 277.457L305 282.651V288.392L304.172 291.4L303.069 294.407L304.172 297.687V300.968L302.241 304.796L298.93 307.53L293.412 308.897L286.515 307.53L281.825 302.335L279.066 298.234L272.72 297.687L268.306 296.594L267.203 297.687L263.34 299.601L259.202 299.054L256.719 297.414L256.443 299.054L257.822 302.335L260.305 306.709H264.995L272.169 307.53L277.135 310.537L279.894 313.271L280.997 316.825V323.386V328.307L278.514 331.315L275.203 333.775L269.41 334.322L255.063 335.142L251.477 332.955L247.89 328.307L246.235 324.48V320.106L244.855 318.465L242.096 316.825L240.441 313.271L239.061 307.53L238.51 300.968L238.786 296.321L236.854 295.774L233.819 294.407L230.509 290.579L216.162 275.816L195.47 255.585L193.263 251.758V247.657V239.729L194.643 235.081L192.435 232.347L191.056 228.52L190.228 221.411L189.125 217.857L186.918 210.476L183.055 217.037L181.951 226.879L180.848 237.542L177.813 256.952L176.158 261.053L171.467 265.154L167.605 267.068L168.157 269.528L171.467 270.622L172.847 273.356V279.917L170.64 291.4L168.984 297.687H170.64L175.33 295.774L177.261 296.594L180.848 300.421L183.883 306.709V318.465L182.779 328.307L179.468 350.999H143.878L145.809 336.509L146.913 330.494L144.706 332.135L141.671 333.775H137.257L135.325 332.135H130.359L125.945 331.315L122.634 327.76L119.875 329.401H110.219L102.494 326.394L100.563 328.854L95.3208 332.682L90.3547 333.775Z" stroke="black" stroke-width="7.64591"/>
<path d="M112.167 264.919L109.422 268.741L100.089 267.922L91.0309 265.465L83.6197 260.552L82.7962 257.823V253.182L78.1299 240.627L68.2482 217.426L56.4451 194.498L53.9747 193.68L47.9359 176.211L38.3287 138.271L36.1328 122.167L39.1522 107.155L44.642 95.6909L50.6808 89.686L56.1706 85.5918H62.7584L73.4635 88.5942L82.5217 95.6909L89.6585 106.336L93.2268 120.529L93.7758 128.172L95.6972 161.745L100.089 198.866L104.206 223.704L97.3442 215.243L93.2268 205.689L89.6585 192.315L84.9921 174.3L83.0707 161.745L81.6982 156.013L78.4043 146.732L74.836 137.998L69.3462 135.541L66.6013 137.998L63.3074 144.003L61.9349 156.013V158.742L63.3074 168.841L66.6013 181.397L78.4043 207.054L89.6585 226.16L101.736 241.446L108.324 248.269L110.794 253.182L112.167 260.552V264.919Z" fill="#8ECBEC" stroke="#8ECBEC" stroke-width="1.52918"/>
<path d="M61.2266 157.792L61.7738 164.099L67.5196 183.844L77.0959 206.331L89.9556 226.35L102.268 241.981L107.193 247.191L120.326 248.014L138.658 248.562L152.339 248.014L160.273 245.546L166.019 243.078L172.038 235.673L174.774 230.189L177.237 217.849L169.029 227.172L163.557 232.108L156.716 234.577L138.658 237.593L127.714 238.142L122.241 237.045L113.212 232.108L107.193 227.172L98.7111 216.477L93.5125 206.331L88.5875 189.329L83.9361 166.842L79.832 145.726L77.6431 138.322L76.0015 135.854L74.0862 134.482H71.0765H68.3404L66.1515 136.402L63.9627 139.967L62.321 145.726L61.2266 155.598V157.792Z" fill="#74AFCE"/>
<path d="M143.134 128.526C121.143 130.242 114.897 141.038 114.523 146.221V152.655C114.522 159.373 120.133 165.524 126.585 165.524C133.036 165.524 136.122 159.894 138.085 156.409C140.049 152.923 143.134 152.655 146.781 151.851C150.427 151.046 156.037 159.894 163.33 159.894C169.164 159.894 171.184 150.526 171.745 145.968V142.2L171.184 138.178C170.997 134.246 165.125 126.81 143.134 128.526Z" fill="black" stroke="black" stroke-width="1.52918"/>
<path d="M164.139 140.552C164.513 143.801 155.938 145.718 145.078 146.944C134.219 148.17 125.187 148.24 124.813 144.991C124.439 141.742 133.116 139.168 143.975 137.942C154.835 136.717 163.765 137.303 164.139 140.552Z" fill="#FEF301"/>
<path d="M164.139 140.552C164.513 143.801 155.938 145.718 145.078 146.944C134.219 148.17 125.187 148.24 124.813 144.991C124.439 141.742 133.116 139.168 143.975 137.942C154.835 136.717 163.765 137.303 164.139 140.552Z" fill="#FEF301"/>
<path d="M62.5539 82.8923L54.9453 87.335L58.2061 78.4496L60.38 76.2282L68.8039 73.1738L80.2168 75.6729L89.7275 82.8923L92.7166 87.335L95.7057 97.0535V103.44L86.7384 92.8884L79.945 86.2243L70.706 82.0593L62.5539 82.8923Z" fill="#8ECBEC" stroke="#8ECBEC" stroke-width="1.52918"/>
<path d="M55.6974 66.5649V75.5012L68.6745 73.606H77.51L99.3227 75.5012L157.858 66.5649V59.5246L158.41 54.1087C167.43 49.9564 183.592 37.0482 176.081 18.6341C168.571 0.219983 142.764 -0.231343 130.799 1.84476L117.822 5.0943L101.256 11.8642L81.3756 22.4252L62.324 37.319L36.9219 60.3366L41.3396 63.3154L55.6974 66.5649Z" fill="#00112B" stroke="#00112B" stroke-width="1.52918"/>
<path d="M56.5156 76.2797V67.346L71.3077 64.3681L87.7434 61.1195L107.74 57.0588L126.367 54.6223L140.337 52.998H151.568L158.417 54.6223L157.869 60.3074L138.694 61.1195L101.44 65.9924L71.3077 73.0311L56.5156 76.2797Z" fill="#003466" stroke="#003466" stroke-width="1.52918"/>
<path d="M78.063 71.2027L69.8438 73.9514C70.3917 74.7759 76.8575 78.0193 98.3371 84.3961C119.817 90.773 143.452 87.0531 152.584 84.3961C155.506 83.6632 162.721 81.4826 168.201 78.624C173.68 75.7654 169.753 69.92 167.105 67.3546C164.548 65.1556 159.159 60.5379 158.064 59.6584C154.557 58.1192 130.849 60.8495 119.433 62.4071L95.5974 67.0798L78.063 71.2027Z" fill="black" stroke="black" stroke-width="1.52918"/>
<path d="M201.477 151.557L194.334 138.495L188.514 122.932L185.075 123.766L184.281 118.485L186.927 113.205L188.514 111.26L189.837 110.426L191.16 110.704L194.334 113.761L196.98 116.54L199.361 120.708L202.8 129.88L205.181 137.383L205.445 148.778L201.477 151.557Z" fill="#74AFCE" stroke="#74AFCE" stroke-width="1.52918"/>
<path d="M189.144 136.033L186.633 138.748L189.144 172.686C189.33 175.583 189.758 183.329 189.981 191.149C190.204 198.968 188.121 204.453 187.47 207.439L191.655 220.471L192.213 224.001L192.771 229.16H194.724H203.094V224.001L196.956 186.262L193.887 164.27L189.144 136.033Z" fill="#74AFCE" stroke="#74AFCE" stroke-width="1.52918"/>
<path d="M197.799 129.899C195.536 122.045 188.276 122.301 185.07 123.423L186.767 146.123L192.708 143.925C195.348 142.522 200.062 137.753 197.799 129.899Z" fill="black" stroke="black" stroke-width="1.52918"/>
<path d="M76.3707 139.139L54.9453 141.312L55.7292 155.436L80.0286 153.263C79.6106 145.44 77.8513 140.406 76.3707 139.139Z" fill="black" stroke="black" stroke-width="1.52918"/>
<path d="M197.871 220.616H191.344L192.16 227.879L193.247 232.628C194.426 233.746 195.097 235.369 195.967 235.369C199.448 232.24 212.918 228.624 217.179 227.879L217.995 222.797L215.275 218.048C214.006 216.838 211.686 214.808 211.468 215.255C209.945 219.277 200.862 220.709 197.871 220.616Z" fill="black" stroke="black" stroke-width="1.52918"/>
<path d="M25.1641 127.056L22.8125 131.724V138.589L23.0738 170.443L23.8576 173.738L24.6415 174.562L26.7318 174.837L30.651 174.288L34.5703 170.169L36.138 165.226L36.6606 159.734L36.9219 157.811L36.6606 155.065L36.138 139.413L36.6606 138.589L34.5703 122.387L31.4349 121.289L29.6059 122.113L27.5156 123.486L25.1641 127.056Z" fill="#8ECBEC" stroke="#8ECBEC" stroke-width="1.52918"/>
<path d="M37.7701 156.699L36.9219 139.344C38.5242 137.24 43.8212 133.334 49.9287 134.806C57.5632 136.647 59.2598 140.659 60.9563 147.233C62.3136 152.492 58.1287 156.962 55.8667 158.54L37.7701 156.699Z" fill="black" stroke="black" stroke-width="1.52918"/>
<path d="M19.3779 137.428L17.0264 145.943L14.9688 153.867V162.649C17.7906 172.017 24.9629 172.349 26.7266 169.096V162.649C26.5306 159.899 25.6096 147.434 24.6689 137.428C23.7283 127.422 20.6517 134.146 19.3779 137.428Z" fill="#74AFCE" stroke="#74AFCE" stroke-width="1.52918"/>
<path d="M22.965 173.301C26.4779 175.873 36.2968 174.669 36.8934 161.21V158.541C36.932 159.48 36.9307 160.369 36.8934 161.21V171.934L35.5279 184.507L28.7002 220.586V238.353V244.092L27.3347 245.459L21.8726 242.999H17.776L15.5911 244.092L13.9525 243.546L13.4062 241.086L13.9525 235.073L15.0449 217.58L16.9566 195.987L18.5953 188.334L19.6877 182.594L22.965 173.301Z" fill="#74AFCE"/>
<path d="M22.965 173.301C26.6974 176.034 37.5489 174.503 36.8934 158.541V171.934L35.5279 184.507L28.7002 220.586V238.353V244.092L27.3347 245.459L21.8726 242.999H17.776L15.5911 244.092L13.9525 243.546L13.4062 241.086L13.9525 235.073L15.0449 217.58L16.9566 195.987L18.5953 188.334L19.6877 182.594L22.965 173.301Z" stroke="#74AFCE" stroke-width="1.52918"/>
<path d="M58.0859 161.004C58.0859 158.628 45.0625 158.034 37.8772 157.764L39.7633 164.785L38.4161 182.067L36.5299 196.109L34.9132 211.501L33.8354 220.682C34.1947 222.843 34.9132 228.297 34.9132 232.834C34.9132 237.371 33.1169 240.845 32.2188 242.015L34.9132 243.096L38.955 243.906L40.8411 240.395L45.4218 220.682L50.8108 198.539L52.9664 192.328L56.1998 178.287C56.8285 173.876 58.0859 163.38 58.0859 161.004Z" fill="#9ADBFE" stroke="#9ADBFE" stroke-width="1.52918"/>
<path d="M17.7479 239.255C15.0115 241.103 13.1873 240.025 12.6172 239.255L13.1873 249.361C25.2729 247.513 36.8454 249.347 39.6958 250.888L40.8359 244.535L33.71 243.297L28.8643 242.142L25.1589 240.41C23.8287 239.255 20.4842 237.407 17.7479 239.255Z" fill="#1A1A1A" stroke="#1A1A1A" stroke-width="1.52918"/>
<path d="M166.173 266.272C126.387 271.129 100.961 267.87 93.3594 265.633V269.787L166.998 271.065C167.272 268.402 166.173 267.039 166.173 266.272Z" fill="#1A1A1A" stroke="#1A1A1A" stroke-width="1.52918"/>
<path d="M97.8383 293.048C87.1798 281.663 78.9793 296.579 79.2568 304.607L87.8383 314.679C90.0589 317.963 101.501 324.851 101.723 325.07C107.829 328.628 115.602 329.176 120.875 327.807L123.93 325.616C123.93 325.616 108.497 304.433 97.8383 293.048Z" fill="#6296B3" stroke="#6296B2" stroke-width="1.52918"/>
<path d="M77.2656 300.014L79.4407 304.922C80.5282 288.999 95.0283 292.561 98.744 296.196L106.085 304.922L113.969 313.647L118.591 319.646L119.95 321.827L121.31 324.281L122.397 326.462L125.932 330.28L129.466 330.825H134.904C130.771 330.171 118.41 311.285 114.513 304.922L110.707 296.196L106.085 284.472L101.735 273.292L100.647 271.656L97.9283 270.566H92.7627C92.7627 270.566 88.1407 270.293 85.1501 270.293C77.1025 270.293 74.8188 276.746 74.5469 279.564L75.6344 293.197L77.2656 300.014Z" fill="#74AFCE" stroke="#74AFCE" stroke-width="1.52918"/>
<path d="M82.7183 320.27L73.7578 311.867C74.8439 299.543 87.6059 299.637 93.8511 301.224C93.6339 298.087 96.4759 296.369 97.9241 295.902L115.302 316.349C111.501 323.911 104.441 322.511 103.626 323.071C103.409 332.258 93.9416 336.608 89.2351 336.235L82.7183 320.27Z" fill="black" stroke="black" stroke-width="1.52918"/>
<path d="M145.883 330.824L154.849 322.321L165.907 305.589L168.615 299.006" stroke="#1A1A1A" stroke-width="7.64591"/>
<path d="M37.7057 139.141L34.5703 115.859" stroke="black" stroke-width="6.11673"/>
<path d="M5.5625 271.777L7.20386 280.713L11.0337 284.233L15.4107 291.543L18.6934 298.042L24.9852 316.184L27.7208 322.412L29.3622 325.661L32.3714 329.722L35.3805 332.972L39.2104 336.492L44.408 337.033L46.3229 335.138L44.408 331.618L40.8517 325.661L35.3805 314.559L27.1737 293.98L21.1554 270.423L18.6934 256.072L18.1463 252.823L16.5049 250.657L14.0429 250.115L12.1279 250.657L11.0337 251.198L7.75098 253.365L6.38318 257.426L6.10962 265.549L5.5625 271.777Z" fill="#74AFCE" stroke="#74AFCE" stroke-width="1.52918"/>
<path d="M56.8381 324.626C50.2632 336.968 40.1264 338.158 37.6608 336.534C33.7162 342.596 34.371 346.277 35.1928 347.901C34.3161 337.075 41.7659 338.609 45.6012 340.864C46.2587 336.75 51.5269 337.354 53.6273 337.895C53.1889 333.998 59.3037 331.933 61.2214 331.662C59.7603 329.226 57.0573 324.41 56.8381 324.626Z" fill="#000100" stroke="#000100" stroke-width="1.52918"/>
<path d="M194.477 247.717V238.471L205.239 249.077L223.729 267.026L243.598 284.158L242.494 288.238L243.598 293.133L246.082 297.756L255.189 306.73L249.945 308.09L247.462 309.722L246.082 312.169V315.161L246.91 317.608L250.773 314.073L254.637 312.169H258.5L257.12 316.52L257.672 322.775L260.156 328.214L268.159 333.109L255.189 333.925L252.153 331.75L247.462 325.223V319.784L245.806 317.608L241.666 314.617L239.735 306.73V295.58L236.147 294.221L232.56 292.317L223.729 281.983L216.002 274.096L207.171 266.21L197.236 255.876L194.477 252.612V247.717Z" fill="#74AFCE" stroke="#74AFCE" stroke-width="1.52918"/>
<path d="M81.6068 349.45L73.1908 311.926C72.7218 311.652 67.844 308.365 65.0299 307.543C60.5267 307.543 61.1834 318.041 61.371 320.689C60.9958 325.985 62.4785 327.701 62.4785 328.358C70.3579 332.083 70.2567 340.502 67.8178 342.876L72.0389 349.45H81.6068Z" fill="#74AFCE" stroke="#74AFCE" stroke-width="1.52918"/>
<path d="M170.177 331.011C158.75 332.638 154.848 329.474 152.897 326.943L148.159 331.282L146.487 340.23L145.094 349.449H166.554L170.177 331.011Z" fill="#74AFCE" stroke="#74AFCE" stroke-width="1.52918"/>
<path d="M155.553 322.361L152.148 326.495C156.688 331.456 163.498 331.181 170.024 330.354C172.293 326.587 182.167 315.857 183.075 314.093C185.345 306.155 177.968 297.923 175.131 295.902L168.889 298.934C173.239 301.139 182.735 309.407 174.563 319.329C166.392 329.251 158.958 325.852 155.553 322.361Z" fill="#8ECBEC" stroke="#8ECBEC" stroke-width="1.52918"/>
<path d="M168.522 299.779C166.193 308.469 158.73 317.882 155.289 321.503C159.171 325.304 168.522 330.355 174.873 320.145C181.225 309.935 173.285 302.314 168.522 299.779Z" fill="black" stroke="#1A1A1A" stroke-width="1.52918"/>
<path d="M61.2266 330.045L65.5584 334.45L66.7135 340.91" stroke="black" stroke-width="7.64591"/>
<ellipse rx="6.56333" ry="6.13078" transform="matrix(0.942984 -0.332838 0.338797 0.940859 60.2193 337.871)" fill="#9ADBFE"/>
<ellipse rx="6.56333" ry="6.13078" transform="matrix(0.942984 -0.332838 0.338797 0.940859 60.2193 337.871)" fill="#9ADBFE"/>
<path d="M58.135 340.132C59.2822 343.317 57.4411 346.878 54.023 348.084C50.6048 349.291 46.9039 347.686 45.7568 344.501C44.6096 341.315 46.4507 337.754 49.8688 336.548C53.287 335.341 56.9879 336.946 58.135 340.132Z" fill="#9ADBFE"/>
<path d="M58.135 340.132C59.2822 343.317 57.4411 346.878 54.023 348.084C50.6048 349.291 46.9039 347.686 45.7568 344.501C44.6096 341.315 46.4507 337.754 49.8688 336.548C53.287 335.341 56.9879 336.946 58.135 340.132Z" fill="#9ADBFE"/>
<ellipse rx="3.00122" ry="1.93818" transform="matrix(0.870227 0.492651 -0.500133 0.865948 89.6893 305.331)" fill="white"/>
<ellipse rx="3.00122" ry="1.93818" transform="matrix(0.870227 0.492651 -0.500133 0.865948 89.6893 305.331)" fill="white"/>
<ellipse cx="170.182" cy="305.602" rx="3.13542" ry="1.94013" fill="white"/>
<ellipse cx="170.182" cy="305.602" rx="3.13542" ry="1.94013" fill="white"/>
<ellipse rx="3.0884" ry="1.68901" transform="matrix(0.95769 0.287803 -0.293123 0.956075 190.408 126.261)" fill="white"/>
<ellipse rx="3.0884" ry="1.68901" transform="matrix(0.95769 0.287803 -0.293123 0.956075 190.408 126.261)" fill="white"/>
<ellipse rx="3.2542" ry="1.7441" transform="matrix(0.942456 0.334331 -0.34031 0.940313 51.2 138.488)" fill="#FEFEFE"/>
<ellipse rx="3.2542" ry="1.7441" transform="matrix(0.942456 0.334331 -0.34031 0.940313 51.2 138.488)" fill="white"/>
<path d="M252.386 265.46L248.627 271.716L250.507 277.428L249.97 280.421L246.211 285.045L247.016 286.405L249.433 286.677L251.849 287.493L254.266 289.397L255.609 290.485L256.683 292.933V295.654L258.025 297.014L259.905 297.83L261.784 298.102L263.664 298.374L266.349 296.47L267.154 295.654L271.719 296.198L275.746 296.742L278.968 297.014L280.042 297.558L282.19 300.822L284.607 304.086L286.486 305.99L286.218 302.182L287.292 298.374L288.903 295.654L291.319 294.838L294.004 294.294L292.662 293.478L290.782 293.75L288.366 294.294L285.412 291.573L284.07 287.765V284.773L286.218 281.509L289.977 279.061L294.81 277.972L288.903 275.796L281.653 274.98L277.626 276.612L272.256 279.061L267.96 276.612L266.349 272.532L267.154 268.996L271.987 264.644L267.154 255.939L266.349 254.307L265.275 253.219H263.664L259.905 254.307L256.683 255.939L255.34 259.203L252.386 265.46Z" fill="#74AFCE" stroke="#74AFCE" stroke-width="1.52918"/>
<path d="M249.556 278.053C238.479 280.432 240.115 288.758 242.318 292.624C247.352 283.346 253.228 287.965 255.537 291.434V295.895C260.824 296.133 260.677 290.443 259.943 287.568H253.963L249.556 284V278.053Z" fill="#000100" stroke="#000100" stroke-width="1.52918"/>
<path d="M254.308 277.398L252.218 274.947L251.695 276.663L253.002 278.623L255.092 279.604H257.444L257.966 278.623H256.66L254.308 277.398Z" fill="#000100" stroke="#000100" stroke-width="1.52918"/>
<path d="M266.385 254.167C264.444 255.332 264.266 258.887 264.42 260.519C263.595 260.55 262.938 257.844 263.162 256.471C263.341 255.373 265.385 254.478 266.385 254.167Z" fill="#000100" stroke="#000100" stroke-width="1.52918"/>
<path d="M266.1 276.498L263.242 279.085C262.808 279.688 261.786 281.465 261.162 283.741C260.538 286.018 264.887 287.621 267.139 288.139C266.533 288.484 265.216 289.536 264.801 290.984C264.386 292.433 266.533 294.865 267.658 295.899L268.957 295.641C264.592 292.536 267.138 289.346 268.957 288.139L272.076 286.587H267.139C262.774 286.794 262.722 284.431 263.242 283.224V281.672L264.801 279.085L267.139 277.791L266.1 276.498Z" fill="black" stroke="black" stroke-width="1.52918"/>
<path d="M243.859 300.558C244.233 296.642 246.323 290.556 251.698 297.545C251.418 297.847 246.939 296.34 243.859 300.558Z" fill="#000001" stroke="#000001" stroke-width="1.52918"/>
<path d="M247 314.527C247.091 312.56 248.309 308.921 252.453 310.102C252.889 310.338 248.999 313.15 247 314.527Z" fill="black" stroke="#000001" stroke-width="1.52918"/>
<path d="M279.922 278.48L281.49 275.727V283.487L279.922 281.484V278.48Z" fill="#000001" stroke="#000001" stroke-width="1.52918"/>
<path d="M279.922 291.505L281.322 288.918L283.841 291.246V292.54L281.882 294.35L280.762 293.316L279.922 291.505Z" fill="black" stroke="#000001" stroke-width="1.52918"/>
<path d="M38.1669 349.451C32.6447 348.388 34.1573 341.47 38.1675 340.139C32.1359 348.121 41.0987 348.476 43.1927 349.185C42.6909 349.451 39.5739 349.451 38.1669 349.451Z" fill="#B3B3B3" stroke="#B3B3B3" stroke-width="1.52918"/>
<path d="M48.0177 337.033C45.8145 337.322 45.5391 339.921 45.5391 340.787C47.4669 341.942 47.7423 347.429 47.1915 349.45C47.1915 349.45 55.1783 348.295 55.7292 348.295C49.3397 347.833 45.2637 339.632 48.0177 337.033Z" fill="#B2B2B2" stroke="#B3B3B3" stroke-width="1.52918"/>
<path d="M63.3936 342.251C63.9679 342.284 64.3516 342.337 64.3516 342.466C64.0216 342.405 63.7024 342.333 63.3936 342.251C62.0067 342.174 59.5082 342.221 58.6165 341.637C56.4395 340.212 53.1522 336.958 56.1449 333.93C55.9097 336.53 58.1154 340.851 63.3936 342.251Z" fill="#B3B3B3"/>
<path d="M56.1449 333.93C55.896 336.682 58.3818 341.362 64.3516 342.466C64.3516 342.026 59.8774 342.463 58.6165 341.637C56.4395 340.212 53.1522 336.958 56.1449 333.93Z" stroke="#B3B3B3" stroke-width="1.52918"/>
<path d="M53.4647 345.496C52.977 348.92 46.5552 350.184 45.5391 350.082L49.8067 350.999H57.1227L57.4275 350.082L60.4758 350.999L63.829 349.47L66.5725 350.999H69.0111L66.8773 346.719C66.9789 346.209 67.2431 345.129 67.487 344.884C71.145 344.64 72.6691 343.152 72.974 342.439V340.91C72.974 342.133 66.8773 342.133 65.9628 341.827C66.5725 343.662 65.9628 345.802 61.3903 347.942C56.8179 350.082 53.7695 345.496 53.4647 345.496Z" fill="black" stroke="black" stroke-width="1.52918"/>
<path d="M110.599 86.3687L94.0746 81.971L84.0517 78.6081L74.8414 75.5039L73.7578 76.28L83.239 79.3842L95.9709 83.5231L105.994 85.8513L110.599 86.3687Z" fill="white" stroke="white" stroke-width="1.52918"/>
<path d="M163.862 66.9668C166.219 69.9539 168.274 76.9296 157.641 80.9358C164.899 79.2665 176.305 74.1358 163.862 66.9668Z" fill="white" stroke="white" stroke-width="1.52918"/>
<path d="M185.07 114.307L186.638 125.171" stroke="black" stroke-width="7.64591"/>
<path d="M153.228 23.5972C146.848 16.943 136.281 16.7212 129.626 23.1019C122.972 29.4826 122.751 40.0494 129.131 46.7036L153.228 23.5972ZM146.389 40.5828L134.34 52.136L146.367 64.6783L158.416 52.1577L146.389 40.5828ZM163.397 46.9818C169.79 40.3391 169.587 29.7719 162.945 23.3793C156.302 16.9866 145.735 17.1893 139.342 23.832L163.397 46.9818ZM129.131 46.7036L134.34 52.136L158.437 29.0296L153.228 23.5972L129.131 46.7036ZM158.416 52.1577L163.397 46.9818L139.342 23.832L134.361 29.0079L158.416 52.1577Z" fill="#9ADBFE"/>
</svg>
