<svg width="301" height="232" viewBox="0 0 301 232" fill="none" xmlns="http://www.w3.org/2000/svg">
<path d="M54.626 96.5398L54.3484 95.9293L54.626 96.5398L196.797 27.3403C214.695 18.6288 231.159 18.8996 244.682 24.7021C258.219 30.511 268.855 41.8855 275.027 55.457C281.199 69.0286 282.889 84.7576 278.585 99.2506C274.285 113.728 263.99 127.023 246.091 135.735L103.92 204.934C86.0206 213.646 69.5562 213.375 56.0341 207.573C42.4969 201.764 31.861 190.389 25.6893 176.817C19.5176 163.245 17.8283 147.516 22.133 133.023C26.4328 118.546 36.7277 105.251 54.626 96.5398Z" fill="#10BA90" stroke="black" stroke-width="1.34146"/>
<path d="M246.503 134.953L175.987 169.275L126.829 61.1871L197.347 26.8655C215.255 18.1499 231.717 18.399 245.23 24.1711C258.759 29.9495 269.38 41.2844 275.534 54.817C281.689 68.3497 283.36 84.0407 279.038 98.5067C274.722 112.957 264.412 126.236 246.503 134.953Z" fill="#10BA90" stroke="black" stroke-width="1.34146"/>
<path d="M54.9463 96.1452L197.098 26.9012C215.016 18.1731 231.153 17.71 244.162 22.4074C257.18 27.1077 267.118 36.9935 272.601 49.0591C278.084 61.1247 279.104 75.3541 274.302 88.7338C269.504 102.105 258.871 114.682 240.952 123.41L98.8011 192.654C80.8817 201.382 64.7444 201.846 51.7352 197.148C38.7176 192.448 28.7797 182.562 23.2973 170.496C17.815 158.43 16.7954 144.2 21.5971 130.821C26.3957 117.45 37.028 104.873 54.9463 96.1452Z" fill="#5BF1CD" stroke="black" stroke-width="1.34146"/>
<path d="M170.457 157.747L126.601 61.2373L197.075 26.9091C214.994 18.1811 231.13 17.718 244.14 22.4153C257.157 27.1157 267.096 37.0015 272.578 49.067C278.061 61.1326 279.081 75.3621 274.28 88.7417C269.481 102.113 258.849 114.689 240.93 123.418L170.457 157.747Z" fill="#02E2AC" stroke="black" stroke-width="1.34146"/>
</svg>
