<svg width="200" height="201" viewBox="0 0 200 201" fill="none" xmlns="http://www.w3.org/2000/svg">
<path d="M81.0391 15.276C57.1239 32.4324 29.3821 47.9224 4.94214 52.6979C39.3434 136.649 55.4541 168.562 118.961 185.198C170.214 146.928 171.355 111.764 167.021 22.1442C142.508 26.5967 110.372 22.3942 81.0391 15.276Z" fill="#1C8ADB"/>
<path d="M85.3389 27.3105C64.9573 41.9321 41.3143 55.1334 20.4854 59.2032C49.8038 130.751 63.5341 157.948 117.658 172.126C161.338 139.511 162.311 109.542 158.617 33.164C137.726 36.9586 110.338 33.3769 85.339 27.3105L85.3389 27.3105Z" fill="white"/>
<path d="M81.0392 15.276C57.1239 32.4324 29.3821 47.9224 4.94214 52.6979C39.3434 136.649 55.4541 168.562 118.961 185.198C119.754 184.605 120.536 184.014 121.306 183.422C108.85 127.604 96.3938 71.7861 83.9369 15.9682C82.9695 15.7405 82.0028 15.5098 81.0392 15.276Z" fill="black" fill-opacity="0.207843"/>
<path d="M72.7847 120.295C75.504 137.586 92.3672 150.024 110.45 148.077L110.45 148.077C128.532 146.13 140.987 130.534 138.267 113.243C135.532 95.8503 124.249 82.9152 128.437 70.0828C128.437 70.0828 118.97 72.8711 115.702 87.3731C115.702 87.3731 94.7766 71.9386 98.5469 46.7698C98.5469 46.7698 81.1276 55.7206 86.6196 78.1234C91.3292 97.3338 88.2392 100.943 88.2392 100.943C85.7777 85.2893 71.8843 79.71 71.8843 79.71C78.5971 98.4439 70.3228 104.641 72.7847 120.295Z" fill="#FFB446"/>
<path d="M130.325 121.637C132.373 134.659 123.606 146.908 109.95 148.124C97.099 149.268 86.099 140.972 85.2028 128.684C84.8028 123.2 87.7378 113.929 93.3845 104.256L98.511 106.468C96.6268 95.4684 99.7817 80.2419 99.7817 80.2419C105.792 95.28 126.469 97.1189 130.325 121.637Z" fill="#FFDC64"/>
<path d="M95.8826 114.266C95.705 124.899 92.6646 129.09 93.7082 135.726C94.8024 142.683 102.412 148.939 110.448 148.073L110.448 148.074C118.543 147.201 124.028 140.18 122.788 132.442C119.458 111.66 105.156 102.656 105.156 102.656C108.616 112.896 103.98 118.701 103.98 118.701C101.194 115.686 95.8826 114.266 95.8826 114.266Z" fill="white"/>
</svg>
