<svg width="1204" height="801" viewBox="0 0 1204 801" fill="none" xmlns="http://www.w3.org/2000/svg">
<path d="M403.792 515.757L819.727 515.449L819.73 520.716L403.796 521.024L403.792 515.757Z" fill="white"/>
<path d="M392.584 520.33L830.844 520.006L830.847 525.273L392.588 525.597L392.584 520.33Z" fill="white"/>
<path d="M380.193 525.464L843.312 525.121L843.316 530.387L380.197 530.729L380.193 525.464Z" fill="white"/>
<path d="M366.263 531.186L857.227 530.822L857.23 536.088L366.267 536.451L366.263 531.186Z" fill="white"/>
<path d="M350.581 537.683L872.953 537.297L872.957 542.562L350.585 542.949L350.581 537.683Z" fill="white"/>
<path d="M332.729 545.044L890.805 544.631L890.808 549.896L332.733 550.309L332.729 545.044Z" fill="white"/>
<path d="M312.239 553.474L911.258 553.031L911.262 558.297L312.243 558.74L312.239 553.474Z" fill="white"/>
<path d="M288.519 563.256L934.961 562.777L934.965 568.044L288.523 568.523L288.519 563.256Z" fill="white"/>
<path d="M260.753 574.687L962.773 574.168L962.777 579.435L260.757 579.955L260.753 574.687Z" fill="white"/>
<path d="M227.74 588.291L995.797 587.723L995.801 592.99L227.744 593.558L227.74 588.291Z" fill="white"/>
<path d="M187.89 604.733L1035.7 604.105L1035.7 609.373L187.893 610L187.89 604.733Z" fill="white"/>
<path d="M138.822 624.971L1084.85 624.271L1084.86 629.537L138.826 630.237L138.822 624.971Z" fill="white"/>
<path d="M76.7969 650.524L1146.8 649.732L1146.8 654.998L76.8006 655.79L76.7969 650.524Z" fill="white"/>
<path d="M2.26835 683.77L1201.35 682.883L1201.36 688.15L2.27206 689.037L2.26835 683.77Z" fill="white"/>
<path d="M1.86345 728.743L1201.35 727.855L1201.36 733.123L1.86715 734.01L1.86345 728.743Z" fill="white"/>
<path d="M402.973 515.843L404.43 520.82L2.03246 686.546L2.01288 681.145L402.973 515.843Z" fill="white"/>
<path d="M430.627 515.912L432.273 520.797L2.03418 725.217L2.02256 720.131L430.627 515.912Z" fill="white"/>
<path d="M458.256 515.927L460.156 520.689L2.05752 778.047L2.05751 772.363L458.256 515.927Z" fill="white"/>
<path d="M485.842 516.024L488.062 520.58L84.0979 797.998L81.8773 793.442L485.842 516.024Z" fill="white"/>
<path d="M513.333 516.193L515.977 520.42L202.352 797.82L199.709 793.593L513.333 516.193Z" fill="white"/>
<path d="M540.808 516.399L544.008 520.047L319.672 797.33L316.472 793.682L540.808 516.399Z" fill="white"/>
<path d="M568.185 516.93L572.023 519.561L437.745 796.788L433.907 794.157L568.185 516.93Z" fill="white"/>
<path d="M595.681 517.731L600.039 518.723L555.327 795.874L550.969 794.882L595.681 517.731Z" fill="white"/>
<path d="M627.695 517.673L672.938 794.725L668.58 795.726L623.338 518.675L627.695 517.673Z" fill="white"/>
<path d="M655.205 516.852L790.125 793.867L786.284 796.503L651.363 519.488L655.205 516.852Z" fill="white"/>
<path d="M682.702 516.292L907.406 793.271L904.211 796.924L679.507 519.945L682.702 516.292Z" fill="white"/>
<path d="M710.139 515.932L1024.56 793L1021.92 797.229L707.495 520.161L710.139 515.932Z" fill="white"/>
<path d="M737.692 515.782L1141.98 792.734L1139.77 797.293L735.476 520.34L737.692 515.782Z" fill="white"/>
<path d="M765.193 515.692L1201.43 758.759L1201.44 765.011L763.299 520.457L765.193 515.692Z" fill="white"/>
<path d="M792.816 515.644L1201.45 709.303L1201.45 714.986L791.174 520.532L792.816 515.644Z" fill="white"/>
<path d="M820.335 515.764L1201.42 671.965L1201.42 677.484L818.887 520.743L820.335 515.764Z" fill="white"/>
<path d="M83.1445 286.66H1.92969V796.931H148.784V286.66H129.871L124.864 263.31H111.514V237.683H107.064V263.31H99.2762V200.096H94.8261V263.31H90.9322L87.0384 268.436L83.1445 286.66Z" fill="#AA8BFC" stroke="#AA8BFC"/>
<path d="M56.678 321.531H1.92969V796.93H56.678V321.531Z" fill="#5932C4" stroke="#5932C4"/>
<path d="M30.9141 362.932H1.92969V796.931H30.9141V362.932Z" fill="#4427AD" stroke="#4427AD"/>
<path d="M58.6172 319.997V796.932H144.926V287.725L140.01 289.431L137.279 305.403L79.9213 328.211L66.8111 316.807L58.6172 319.997Z" fill="#8C65F7" stroke="#8C65F7"/>
<path d="M87.5878 270.475L83.7422 285.654H121.1L117.804 270.475H87.5878Z" fill="#5B35BE" stroke="#5B35BE"/>
<path d="M103.703 376.428V412.61L126.247 399.538V362.932L103.703 376.428Z" fill="#02E2AC" stroke="#3356AC" stroke-width="2"/>
<path d="M103.703 538.139V571.306L126.247 559.324V525.768L103.703 538.139Z" fill="#02E2AC" stroke="#3356AC" stroke-width="2"/>
<path d="M103.703 591.456V625.125L126.247 612.961V578.896L103.703 591.456Z" fill="#02E2AC" stroke="#3356AC" stroke-width="2"/>
<path d="M103.703 644.772V678.944L126.247 666.598V632.025L103.703 644.772Z" fill="#02E2AC" stroke="#3356AC" stroke-width="2"/>
<path d="M103.703 698.59V732.763L126.247 720.417V685.844L103.703 698.59Z" fill="#02E2AC" stroke="#3356AC" stroke-width="2"/>
<path d="M103.703 751.53V785.2L126.247 773.035V738.971L103.703 751.53Z" fill="#02E2AC" stroke="#3356AC" stroke-width="2"/>
<path d="M103.703 484.506V518.176L126.247 506.012V471.947L103.703 484.506Z" fill="#02E2AC" stroke="#3356AC" stroke-width="2"/>
<path d="M103.703 431.88V465.047L126.247 453.064V419.508L103.703 431.88Z" fill="#02E2AC" stroke="#3356AC" stroke-width="2"/>
<path d="M81.8047 329.123L83.737 796.932" stroke="#3356AC" stroke-width="3"/>
<path d="M136.547 307.73L137.835 796.928" stroke="#3356AC" stroke-width="3"/>
<path d="M81.8047 365.943L98.0057 367.072L130.966 351.829L136.553 342.232" stroke="#3356AC" stroke-width="3"/>
<path d="M83.7422 793.668L99.7526 794.86L132.326 778.771L137.846 768.641" stroke="#3356AC" stroke-width="3"/>
<path d="M83.7422 741.198L99.7526 742.421L132.326 725.909L137.846 715.512" stroke="#3356AC" stroke-width="3"/>
<path d="M83.7422 687.412L99.7526 688.604L132.326 672.515L137.846 662.385" stroke="#3356AC" stroke-width="3"/>
<path d="M83.7422 633.592L99.7526 634.784L132.326 618.695L137.846 608.564" stroke="#3356AC" stroke-width="3"/>
<path d="M83.7422 581.122L99.7526 582.345L132.326 565.832L137.846 555.436" stroke="#3356AC" stroke-width="3"/>
<path d="M81.8047 527.334L98.0057 528.526L130.966 512.437L136.553 502.307" stroke="#3356AC" stroke-width="3"/>
<path d="M81.8047 420.387L98.0057 421.579L130.966 405.49L136.553 395.359" stroke="#3356AC" stroke-width="3"/>
<path d="M81.8047 474.901L98.0057 476.092L130.966 460.003L136.553 449.873" stroke="#3356AC" stroke-width="3"/>
<path d="M686.617 532.667V513.348L702.076 532.667H686.617Z" fill="#02E2AC" stroke="#4427AD" stroke-width="2"/>
<path d="M381.308 563.85L370.241 578.203H224.148L244.07 509.309H265.652V412.282H270.079L282.807 393.91H288.894V386.447H290.554V365.204L292.767 362.908L297.195 355.444L298.301 357.741L301.068 360.037L306.049 368.649L309.922 349.129L313.796 361.185L315.456 358.889L317.116 367.501L319.883 365.204V386.447H320.99V393.91H326.524L337.591 400.226L347.552 415.727L352.532 418.023V509.309H364.707L381.308 563.85Z" fill="#8C65F7" stroke="#8C65F7"/>
<path d="M352.662 517.769L368.422 578.207H268.969H229.297L247.231 513.208H268.969V416.28H272.773L284.186 398.034H291.794V395.754H295.055V387.771H316.25V395.754H318.967V398.034H326.032L328.206 399.745L336.901 416.28H340.162V517.769L352.118 509.787H362.444L352.662 517.769Z" fill="#5934BB" stroke="#5934BB"/>
<path d="M319.471 387.77H288.555V353.452L291.365 363.747L295.862 355.74L296.987 358.028L299.797 344.301L304.856 367.751L308.791 348.304L312.726 361.46L314.974 359.172L316.661 362.603L319.471 349.448V387.77Z" fill="#F579A6"/>
<path d="M298.867 368.974V387.77H310.461V366.381L307.24 376.103L304.664 371.566L302.732 375.455L298.867 368.974Z" fill="#D44D6E"/>
<path d="M355.543 569.926L346.605 525.768H263.365L246.047 569.926H355.543Z" fill="#4427AD" stroke="#4427AD"/>
<path d="M347.174 566.476L339.919 528.527H272.347L258.289 566.476H347.174Z" fill="#5932C4" stroke="#5932C4"/>
<path d="M340.097 563.027L333.893 532.668H276.115L264.094 563.027H340.097Z" fill="#4427AD" stroke="#4427AD"/>
<path d="M319.475 526.459V425.662L313.056 416.752H293.798L287.914 425.662V526.459" stroke="#4427AD" stroke-width="3"/>
<path d="M287.914 424.338H319.475" stroke="#4427AD" stroke-width="3"/>
<path d="M288.57 441.588H319.487" stroke="#4427AD" stroke-width="3"/>
<path d="M287.914 456.77H319.475" stroke="#4427AD" stroke-width="3"/>
<path d="M287.914 473.328H319.475" stroke="#4427AD" stroke-width="3"/>
<path d="M287.914 494.719H319.475" stroke="#4427AD" stroke-width="3"/>
<path d="M287.914 513.348H319.475" stroke="#4427AD" stroke-width="3"/>
<path d="M383.237 563.027L365.489 508.754H353.841V417.735L348.295 415.473L338.311 399.644L327.218 393.425H323.336V387.771" stroke="#02E2AC" stroke-width="3"/>
<path d="M294.12 730.692H186.797V629.321L196.326 618.405V563.3L191.812 554.463V508.716L196.827 502.478V443.215L187.298 434.378V427.1H316.688V436.457L312.175 442.695V500.918L318.193 505.597V551.864L313.679 557.062V615.285L318.193 622.043L316.688 704.18L294.12 730.692Z" fill="#8C65F7" stroke="#8C65F7"/>
<path d="M188.086 629.841V730.692H293.479V623.083L295.006 618.924V561.221L293.479 552.903V509.236L288.387 504.557V441.655L293.479 434.378V427.1H189.613V434.378L197.76 441.655V504.557L193.687 509.236V553.943L197.76 561.221V618.924L188.086 629.841Z" fill="#5932C4" stroke="#5932C4"/>
<rect x="212.562" y="646.514" width="63.1215" height="66.9284" fill="#4427AD"/>
<rect x="212.562" y="646.514" width="63.1215" height="66.9284" fill="#4427AD"/>
<path d="M197.294 617.533L188.086 631.333H292.96L295.006 617.533H197.294Z" fill="#4427AD" stroke="#4427AD"/>
<path d="M193.875 552.044L197.658 560.961H294.998L293.982 551.301L193.875 552.044Z" fill="#4427AD" stroke="#4427AD"/>
<path d="M197.501 504.375L193.875 505.065H294.354L289.693 504.375H197.501Z" fill="#4427AD" stroke="#4427AD"/>
<path d="M212.849 472.297C212.849 478.441 212.312 483.973 211.456 487.943C211.027 489.937 210.529 491.483 210.007 492.506C209.746 493.019 209.504 493.35 209.303 493.541C209.206 493.634 209.132 493.68 209.086 493.702C209.043 493.722 209.023 493.722 209.018 493.722C209.013 493.722 208.993 493.722 208.951 493.702C208.904 493.68 208.831 493.634 208.733 493.541C208.532 493.35 208.29 493.019 208.029 492.506C207.508 491.483 207.009 489.937 206.58 487.943C205.725 483.973 205.188 478.441 205.188 472.297C205.188 466.154 205.725 460.622 206.58 456.652C207.009 454.658 207.508 453.112 208.029 452.089C208.29 451.576 208.532 451.245 208.733 451.054C208.831 450.961 208.904 450.915 208.951 450.893C208.993 450.873 209.013 450.873 209.018 450.873C209.023 450.873 209.043 450.873 209.086 450.893C209.132 450.915 209.206 450.961 209.303 451.054C209.504 451.245 209.746 451.576 210.007 452.089C210.529 453.112 211.027 454.658 211.456 456.652C212.312 460.622 212.849 466.154 212.849 472.297Z" fill="#C4C4C4" stroke="#4427AD" stroke-width="2"/>
<path d="M232.166 472.297C232.166 478.444 231.664 483.981 230.865 487.957C230.464 489.953 229.997 491.503 229.509 492.53C229.264 493.046 229.037 493.377 228.852 493.565C228.75 493.67 228.686 493.706 228.657 493.718C228.629 493.706 228.564 493.67 228.462 493.565C228.277 493.377 228.051 493.046 227.805 492.53C227.317 491.503 226.851 489.953 226.449 487.957C225.65 483.981 225.148 478.444 225.148 472.297C225.148 466.151 225.65 460.614 226.449 456.638C226.851 454.642 227.317 453.092 227.805 452.065C228.051 451.549 228.277 451.218 228.462 451.029C228.564 450.925 228.629 450.889 228.657 450.877C228.686 450.889 228.75 450.925 228.852 451.029C229.037 451.218 229.264 451.549 229.509 452.065C229.997 453.092 230.464 454.642 230.865 456.638C231.664 460.614 232.166 466.151 232.166 472.297ZM228.64 493.724C228.64 493.724 228.642 493.723 228.645 493.723C228.642 493.724 228.64 493.724 228.64 493.724ZM228.669 493.723C228.672 493.723 228.674 493.724 228.674 493.724C228.674 493.724 228.672 493.724 228.669 493.723ZM228.674 450.871C228.674 450.871 228.672 450.872 228.669 450.872C228.672 450.871 228.674 450.871 228.674 450.871ZM228.645 450.872C228.642 450.872 228.64 450.871 228.64 450.871C228.64 450.871 228.642 450.871 228.645 450.872Z" fill="#C4C4C4" stroke="#4427AD" stroke-width="2"/>
<path d="M248.922 472.297C248.922 478.431 248.278 483.949 247.256 487.904C246.743 489.889 246.148 491.424 245.528 492.438C244.873 493.511 244.37 493.722 244.125 493.722C243.88 493.722 243.377 493.511 242.722 492.438C242.102 491.424 241.507 489.889 240.994 487.904C239.972 483.949 239.328 478.431 239.328 472.297C239.328 466.164 239.972 460.646 240.994 456.691C241.507 454.706 242.102 453.171 242.722 452.157C243.377 451.084 243.88 450.873 244.125 450.873C244.37 450.873 244.873 451.084 245.528 452.157C246.148 453.171 246.743 454.706 247.256 456.691C248.278 460.646 248.922 466.164 248.922 472.297Z" fill="#C4C4C4" stroke="#4427AD" stroke-width="2"/>
<path d="M265.672 472.297C265.672 478.431 265.028 483.949 264.006 487.904C263.493 489.889 262.898 491.424 262.278 492.438C261.623 493.511 261.12 493.722 260.875 493.722C260.63 493.722 260.127 493.511 259.472 492.438C258.852 491.424 258.257 489.889 257.744 487.904C256.722 483.949 256.078 478.431 256.078 472.297C256.078 466.164 256.722 460.646 257.744 456.691C258.257 454.706 258.852 453.171 259.472 452.157C260.127 451.084 260.63 450.873 260.875 450.873C261.12 450.873 261.623 451.084 262.278 452.157C262.898 453.171 263.493 454.706 264.006 456.691C265.028 460.646 265.672 466.164 265.672 472.297Z" fill="#C4C4C4" stroke="#4427AD" stroke-width="2"/>
<path d="M279.829 472.297C279.829 478.438 279.256 483.965 278.345 487.93C277.888 489.921 277.357 491.462 276.803 492.482C276.526 492.993 276.268 493.325 276.05 493.52C275.838 493.708 275.717 493.722 275.676 493.722C275.635 493.722 275.515 493.708 275.303 493.52C275.085 493.325 274.827 492.993 274.549 492.482C273.995 491.462 273.465 489.921 273.007 487.93C272.096 483.965 271.523 478.438 271.523 472.297C271.523 466.157 272.096 460.63 273.007 456.665C273.465 454.674 273.995 453.133 274.549 452.113C274.827 451.602 275.085 451.27 275.303 451.075C275.515 450.887 275.635 450.873 275.676 450.873C275.717 450.873 275.838 450.887 276.05 451.075C276.268 451.27 276.526 451.602 276.803 452.113C277.357 453.133 277.888 454.674 278.345 456.665C279.256 460.63 279.829 466.157 279.829 472.297Z" fill="#C4C4C4" stroke="#4427AD" stroke-width="2"/>
<path d="M212.849 588.554C212.849 594.601 212.312 600.046 211.457 603.953C211.028 605.914 210.53 607.434 210.01 608.439C209.75 608.943 209.509 609.268 209.309 609.455C209.116 609.635 209.023 609.634 209.018 609.634H209.018H209.018C209.014 609.634 208.92 609.635 208.728 609.455C208.528 609.268 208.287 608.943 208.026 608.439C207.506 607.434 207.008 605.914 206.579 603.953C205.725 600.046 205.188 594.601 205.188 588.554C205.188 582.507 205.725 577.062 206.579 573.155C207.008 571.194 207.506 569.674 208.026 568.669C208.287 568.165 208.528 567.841 208.728 567.654C208.92 567.473 209.014 567.475 209.018 567.475L209.018 567.475L209.018 567.475C209.023 567.475 209.116 567.473 209.309 567.654C209.509 567.841 209.75 568.165 210.01 568.669C210.53 569.674 211.028 571.194 211.457 573.155C212.312 577.062 212.849 582.507 212.849 588.554Z" fill="#C4C4C4" stroke="#4427AD" stroke-width="2"/>
<path d="M232.166 588.554C232.166 594.605 231.664 600.055 230.865 603.967C230.464 605.931 229.999 607.455 229.512 608.464C229.267 608.97 229.042 609.294 228.858 609.479C228.75 609.586 228.684 609.621 228.657 609.631C228.63 609.621 228.564 609.586 228.456 609.479C228.273 609.294 228.047 608.97 227.803 608.464C227.316 607.455 226.85 605.931 226.449 603.967C225.65 600.055 225.148 594.605 225.148 588.554C225.148 582.503 225.65 577.054 226.449 573.142C226.85 571.177 227.316 569.653 227.803 568.644C228.047 568.138 228.273 567.814 228.456 567.63C228.564 567.522 228.63 567.487 228.657 567.477C228.684 567.487 228.75 567.522 228.858 567.63C229.042 567.814 229.267 568.138 229.512 568.644C229.999 569.653 230.464 571.177 230.865 573.142C231.664 577.054 232.166 582.503 232.166 588.554ZM228.643 609.635C228.643 609.635 228.645 609.634 228.648 609.634C228.645 609.635 228.643 609.635 228.643 609.635ZM228.666 609.634C228.669 609.634 228.671 609.635 228.671 609.635C228.671 609.635 228.669 609.635 228.666 609.634ZM228.671 567.473C228.671 567.473 228.669 567.474 228.666 567.474C228.669 567.473 228.671 567.473 228.671 567.473ZM228.648 567.474C228.645 567.474 228.643 567.473 228.643 567.473C228.643 567.473 228.645 567.473 228.648 567.474Z" fill="#C4C4C4" stroke="#4427AD" stroke-width="2"/>
<path d="M248.922 588.554C248.922 594.591 248.278 600.021 247.257 603.913C246.744 605.866 246.15 607.374 245.532 608.371C244.88 609.422 244.377 609.634 244.125 609.634C243.873 609.634 243.37 609.422 242.718 608.371C242.1 607.374 241.506 605.866 240.993 603.913C239.972 600.021 239.328 594.591 239.328 588.554C239.328 582.517 239.972 577.087 240.993 573.195C241.506 571.242 242.1 569.734 242.718 568.737C243.37 567.687 243.873 567.475 244.125 567.475C244.377 567.475 244.88 567.687 245.532 568.737C246.15 569.734 246.744 571.242 247.257 573.195C248.278 577.087 248.922 582.517 248.922 588.554Z" fill="#C4C4C4" stroke="#4427AD" stroke-width="2"/>
<path d="M265.672 588.554C265.672 594.591 265.028 600.021 264.007 603.913C263.494 605.866 262.9 607.374 262.282 608.371C261.63 609.422 261.127 609.634 260.875 609.634C260.623 609.634 260.12 609.422 259.468 608.371C258.85 607.374 258.256 605.866 257.743 603.913C256.722 600.021 256.078 594.591 256.078 588.554C256.078 582.517 256.722 577.087 257.743 573.195C258.256 571.242 258.85 569.734 259.468 568.737C260.12 567.687 260.623 567.475 260.875 567.475C261.127 567.475 261.63 567.687 262.282 568.737C262.9 569.734 263.494 571.242 264.007 573.195C265.028 577.087 265.672 582.517 265.672 588.554Z" fill="#C4C4C4" stroke="#4427AD" stroke-width="2"/>
<path d="M279.829 588.554C279.829 594.598 279.256 600.038 278.346 603.939C277.889 605.898 277.359 607.414 276.806 608.415C276.53 608.916 276.273 609.243 276.055 609.433C275.845 609.618 275.722 609.634 275.676 609.634C275.63 609.634 275.508 609.618 275.297 609.433C275.08 609.243 274.823 608.916 274.546 608.415C273.993 607.414 273.464 605.898 273.006 603.939C272.096 600.038 271.523 594.598 271.523 588.554C271.523 582.51 272.096 577.07 273.006 573.169C273.464 571.21 273.993 569.694 274.546 568.693C274.823 568.192 275.08 567.866 275.297 567.675C275.508 567.49 275.63 567.475 275.676 567.475C275.722 567.475 275.845 567.49 276.055 567.675C276.273 567.866 276.53 568.192 276.806 568.693C277.359 569.694 277.889 571.21 278.346 573.169C279.256 577.07 279.829 582.51 279.829 588.554Z" fill="#C4C4C4" stroke="#4427AD" stroke-width="2"/>
<path d="M189.383 436.07L197.179 441.59H289.693L294.371 436.07H189.383Z" fill="#4427AD" stroke="#4427AD"/>
<path d="M311.796 698.153L301.946 707.48L313.3 699.729L313.937 637.364L301.959 640.467L312.384 640.466L311.796 698.153Z" fill="#5932C4"/>
<path d="M308.529 449.32L298.867 447.801H310.461V495.41H300.799L308.529 493.384V449.32Z" fill="#5932C4"/>
<path d="M313.686 516.107H305.312L313.686 547.157V516.107Z" fill="#5932C4"/>
<path d="M308.529 547.157L298.867 516.107V547.157H308.529Z" fill="#5932C4"/>
<path d="M318.425 427.1H320.419V434.901L316.43 441.662V503.552L321.417 507.192V553.999L317.926 560.76V619.01L321.417 629.411V699.622L317.926 703.783V629.411H294.489L296.983 619.53H314.934L315.433 560.76H296.983L295.985 553.999H318.425V508.752H294.988L290.999 504.072H313.438L313.937 441.662H290.5L294.988 434.901H318.425V427.1Z" fill="#AA8BFC" stroke="#AA8BFC"/>
<path d="M799.969 500.238L801.901 362.932" stroke="#02E2AC" stroke-width="2"/>
<path d="M790.309 498.168L779.359 520.247" stroke="#02E2AC" stroke-width="2"/>
<path d="M790.953 498.016L779.359 518.494L786.536 526.457H845.057V363.204C837.991 361.384 831.439 357.137 829.047 355.241C829.967 353.914 831.697 351.487 831.255 352.397C831.255 352.397 838.064 355.431 841.745 356.379L842.849 352.397C831.366 349.211 823.894 339.693 821.87 335.332L818.005 337.039C816.239 337.039 823.526 345.381 827.391 349.553L825.734 352.397C823.084 351.942 814.693 341.21 810.828 335.901L800.891 341.589V498.016H790.953Z" fill="#8C65F7"/>
<path d="M785.805 527.838L798.482 505.017L790.214 499.312H800.136L810.057 505.017V336.713C813.915 342.228 823.175 353.258 824.939 353.258L826.593 350.405C822.735 346.412 815.349 337.854 816.671 337.854L819.979 336.713C822.735 344.13 832.105 353.258 841.475 354.97L840.924 357.252C837.104 356.122 830.149 353.762 830.44 353.272L828.246 356.111C831.921 358.773 840.373 363.527 843.129 363.708V527.838H785.805Z" fill="#5A34BB"/>
<path d="M799.969 356.029H809.55C815.749 363.347 832.657 377.419 845.056 377.419" stroke="#4427AD" stroke-width="3"/>
<path d="M800.085 520.248L796.117 526.458H838.628V520.248H800.085Z" fill="#4427AD" stroke="#4427AD"/>
<path d="M818.664 365V525.766H831.546V374.154" stroke="#4427AD" stroke-width="2"/>
<path d="M831.546 383.402L818.664 377.422V389.925L831.546 395.361V383.402Z" fill="#02E2AC" stroke="#4427AD" stroke-width="2"/>
<path d="M831.546 417.209L818.664 410.539V424.485L831.546 430.549V417.209Z" fill="#02E2AC" stroke="#4427AD" stroke-width="2"/>
<path d="M831.546 482.99L818.664 476.09V490.517L831.546 496.789V482.99Z" fill="#02E2AC" stroke="#4427AD" stroke-width="2"/>
<path d="M831.546 449.87L818.664 443.66V456.644L831.546 462.29V449.87Z" fill="#02E2AC" stroke="#4427AD" stroke-width="2"/>
<path d="M891.35 345.68L890.797 338.106L897.992 329.731H904.923V319.461H942.821H946.142V329.949H958.871L965.512 338.106L964.405 345.098" stroke="#02E2AC"/>
<path d="M892.766 338.738L892.766 554.145L912.173 566.08L964.272 563.807L964.272 338.738L958.729 331.917L944.873 331.917L944.873 321.686L927.137 321.686L927.137 309.184L924.92 309.184L924.92 321.686L907.185 321.686L907.185 331.917L898.871 331.917L892.766 338.738Z" fill="#8C65F7" stroke="#8C65F7" stroke-width="3"/>
<path d="M912.992 333.172V319.461H945.953V329.744H958.802L965.506 337.742V566.26L910.758 568.545V525.698H938.691C953.886 523.413 945.022 522.08 938.691 521.699H910.758V500.561H938.691C952.992 497.819 944.65 496.371 938.691 495.991H910.758V474.853H938.691C951.204 472.568 943.905 470.854 938.691 470.282H910.758V449.716H938.691C949.864 447.431 943.346 445.717 938.691 445.145H910.758V423.436H938.691C948.523 421.151 942.787 419.818 938.691 419.437H910.758V397.728H938.691C947.629 396.357 942.415 394.872 938.691 394.3H910.758V373.163H938.691C949.417 371.791 943.16 370.306 938.691 369.735H910.758V347.454H938.691C947.629 346.54 942.415 344.788 938.691 344.027H910.758V333.172H912.992Z" fill="#5932C4"/>
<path d="M951.344 344.301V409.849H961.005V354.742C961.005 348.245 954.564 345.074 951.344 344.301Z" fill="#4427AD" stroke="#4427AD"/>
<path d="M890.797 344.301L897.882 350.555V528.526" stroke="#5932C4" stroke-width="3"/>
<path d="M926.219 319.46V307.73" stroke="#02E2AC" stroke-width="5"/>
<path d="M969.545 761.052L928.148 715.351L928.653 387.781H961.467V377.064H971.564V368.66L983.175 369.71V340.016H992.767V324.535H994.786V340.016H996.806V317.393H998.825V340.016H999.33V370.447H1009.93V379.691L1025.58 382.843V391.247L1040.22 395.45V761.052H969.545Z" fill="#8C65F7"/>
<path d="M1040.22 396.249V405.709H971.269L928.148 388.459H961.123V391.798L982.937 399.031H1025.55V391.798L1040.22 396.249Z" fill="#AA8BFC"/>
<path d="M983.547 383.629V397.429H1027.35V383.632L983.547 383.629Z" fill="#5932C4"/>
<path d="M987.414 379.491V370.098H992.455V339.868H993.463V324.176H995.479V339.832H997.496V317.393H999.512V339.832H1000.02V370.098H1010.6V379.279L987.414 379.491Z" fill="#5932C4"/>
<path d="M941.03 440.112L928.644 429.168L928.148 650.653L941.03 641.793V440.112Z" fill="#02E2AC" stroke="#4427AD" stroke-width="2"/>
<path d="M970.238 405.711H1013.82V760.776L968.094 761.052L970.238 405.711Z" fill="#5932C4"/>
<path d="M1039.58 761.053H998.124V709.664L1005.2 702.365V585.053L992.562 572.018V407.781H1039.58V761.053Z" fill="#4427AD" stroke="#4427AD"/>
<path d="M1029.27 405.711H1009.3V558.197H1029.27V405.711Z" fill="#37198C"/>
<path d="M972.599 456.77L951.344 471.389V625.934L960.157 642.12M960.157 642.12L971.044 636.899M960.157 642.12V729.313" stroke="#5B34C6" stroke-width="2"/>
<path d="M930.734 699.643L969.938 738.282H1037.65" stroke="#4427AD" stroke-width="2"/>
<path d="M965.504 411.62L954.555 407.781V424.235L965.504 429.171V411.62Z" fill="#5932C4"/>
<ellipse cx="958.741" cy="419.854" rx="4.18663" ry="2.41494" fill="#02E2AC"/>
<ellipse cx="958.741" cy="415.024" rx="4.18663" ry="2.41494" fill="#02E2AC"/>
<path d="M1023.48 773.368V799H1201.89V431.614L1194.64 428.766H1162.31L1148.37 410.539L1137.77 411.109L1137.22 424.209H1121.6L1108.22 410.539H1095.96V423.07L1087.59 431.614H1031.28V443.006L1034.07 446.993V514.204L1025.71 519.331V530.153L1031.28 535.849V607.048L1037.97 620.718V726.662L1031.28 735.775V763.685L1023.48 773.368Z" fill="#8C65F7" stroke="#8C65F7"/>
<path d="M1096.65 750.566V798.998H1201.9V447.436H1092.77V459.971L1039.04 445.727V453.134L1092.77 526.637L1039.04 512.962V515.811L1035.72 516.951L1094.99 532.335H1158.69L1159.58 536.893H1094.99V549.999L1035.72 534.044V539.173L1098.31 556.266V625.211L1092.22 631.479L1091.67 740.879L1094.99 745.437H1140.41L1145.4 750.566H1096.65Z" fill="#5932C4" stroke="#5932C4"/>
<path d="M1153.56 748.503V799.002H1193.51V569.206V540.269H1164.25V517.573H1191.82V510.764H1174.38V498.281H1193.51V463.67H1153.56V509.629H1143.43V520.41H1153.56V531.758L1158.06 536.297V548.78L1153.56 553.319V625.946H1096.73L1091.1 631.62H1147.93V650.911H1164.82V667.933H1174.94V679.848H1163.13V669.068H1147.93V697.438H1155.25V706.516H1145.68V698.572H1117.55V742.829H1148.5L1153.56 748.503Z" fill="#4427AD" stroke="#4427AD"/>
<path d="M1201.88 799.001H1189.54V746.372H1171.58V717.511H1189.54V607.16H1177.2V567.547H1189.54V465.119H1093.03V462.289H1201.88V799.001Z" fill="#37198C"/>
<path d="M1091.12 465.693L1040.23 451.248L1091.12 522.316V465.693Z" fill="#8C65F7" stroke="#8C65F7"/>
<path d="M1071.14 555.866L1054.4 551.301V757.896L1071.14 765.885V555.866Z" fill="#02E2AC" stroke="#4427AD" stroke-width="3"/>
<path d="M1032.48 798.998V777.42L1025.41 773.469L1071.14 798.998" stroke="#5932C4" stroke-width="3"/>
<path d="M1031.85 764.621L1078.28 789.312M1095.62 799.003L1078.28 789.312M1078.28 789.312L1074.36 773.639L1043.6 758.984L1036.33 766.312" stroke="#5932C4" stroke-width="3"/>
<path d="M1086.76 431.93H1080.16L1106.56 442.969L1086.76 431.93Z" fill="#5932C4"/>
<path d="M1093.03 410.539V423.699L1112.35 433.998V425.988L1093.03 410.539Z" fill="#5932C4"/>
<path d="M1136.79 410.539L1136.19 424.519L1154.22 436.068V430.598L1136.79 410.539Z" fill="#5932C4"/>
<path d="M1023.48 772.822V799.001H1027.03V773.96L1033.63 763.147V736.399L1039.72 726.725V620.303L1033.63 607.782V540.059V533.799L1028.55 529.246V520.71L1036.67 515.588V452.986V445.019L1033.12 443.312V435.344L1035.66 436.483L1040.22 435.344L1031.09 431.93V443.312L1033.12 447.295V513.88L1025.51 519.571V530.953L1030.58 536.645V607.782L1036.67 620.303V726.156L1030.58 735.261V763.147L1023.48 772.822Z" fill="#AA8BFC" stroke="#AA8BFC"/>
<ellipse cx="600.625" cy="172.152" rx="136.227" ry="138.342" fill="#EDFFEF" fill-opacity="0.8"/>
<ellipse rx="124.544" ry="126.12" transform="matrix(0.860495 0.509458 -0.490601 0.871384 600.217 173.349)" fill="#02E2AC"/>
<path d="M657.47 214.829C650.212 208.682 625.103 188.122 621.767 185.388C623.66 181.72 624.634 177.627 624.602 173.478C624.571 169.328 623.534 165.252 621.586 161.615L649.5 139.939L657.665 133.147C659.675 131.78 660.003 130.285 658.544 128.288C656.642 125.725 654.584 123.287 652.382 120.989C640.319 108.382 624.3 100.553 607.154 98.8831V84.4703C607.179 82.6223 606.522 80.8329 605.314 79.4607C604.107 78.0885 602.438 77.2348 600.643 77.0708C599.688 77.005 598.73 77.1414 597.829 77.4715C596.927 77.8015 596.102 78.3182 595.403 78.9894C594.705 79.6606 594.149 80.472 593.769 81.373C593.39 82.274 593.195 83.2455 593.197 84.227V98.8831C587.245 99.4592 581.386 100.786 575.751 102.833V84.4703C575.775 82.6223 575.118 80.8329 573.911 79.4607C572.703 78.0885 571.035 77.2348 569.24 77.0708C568.285 77.005 567.327 77.1414 566.425 77.4715C565.524 77.8015 564.698 78.3182 564 78.9894C563.302 79.6606 562.745 80.472 562.366 81.373C561.986 82.274 561.791 83.2455 561.793 84.227V109.668C551.214 116.338 542.462 125.656 536.359 136.747C530.255 147.838 527.001 160.337 526.901 173.072C526.58 214.736 560.44 248.821 601.069 248.821H655.306C656.295 248.82 657.251 248.46 658.006 247.805C658.761 247.15 659.266 246.243 659.431 245.243L659.486 219.251C659.489 218.407 659.309 217.573 658.961 216.809C658.612 216.044 658.103 215.368 657.47 214.829ZM645.536 234.509H600.908C568.109 234.509 540.697 207 540.893 173.373C540.924 164.604 542.809 155.946 546.417 147.996C550.025 140.046 555.271 132.993 561.793 127.322V141.234C561.769 143.082 562.426 144.871 563.633 146.243C564.841 147.616 566.509 148.469 568.304 148.633C569.259 148.699 570.217 148.563 571.119 148.233C572.02 147.903 572.846 147.386 573.544 146.715C574.243 146.044 574.799 145.232 575.178 144.331C575.558 143.43 575.753 142.459 575.751 141.477V118.255C583.423 114.687 591.751 112.844 600.176 112.852C615.78 112.852 628.927 118.162 639.521 128.26L611.027 151.245C607.297 149.347 603.155 148.459 598.995 148.664C594.835 148.87 590.795 150.163 587.26 152.42C583.725 154.678 580.811 157.825 578.796 161.562C576.781 165.3 575.731 169.504 575.746 173.774C575.761 178.045 576.841 182.241 578.883 185.963C580.925 189.685 583.861 192.81 587.413 195.041C590.964 197.271 595.013 198.534 599.174 198.708C603.335 198.883 607.471 197.963 611.188 196.036L610.832 196.366L645.536 223.774V234.509ZM610.643 173.68C610.643 175.803 610.029 177.879 608.879 179.644C607.729 181.409 606.094 182.785 604.181 183.598C602.269 184.41 600.164 184.623 598.133 184.208C596.103 183.794 594.238 182.772 592.774 181.271C591.31 179.769 590.313 177.857 589.909 175.774C589.505 173.692 589.712 171.534 590.505 169.572C591.297 167.611 592.639 165.934 594.36 164.755C596.081 163.575 598.105 162.946 600.176 162.946C602.952 162.946 605.614 164.077 607.577 166.09C609.541 168.103 610.643 170.833 610.643 173.68Z" fill="#0E0333"/>
<path d="M645.721 173.668C645.731 182.671 643.192 191.484 638.414 199.037C642.092 202.064 645.867 205.17 649.189 207.918C655.839 197.908 659.423 186.09 659.483 173.978C659.543 161.866 656.075 150.012 649.524 139.934L638.554 148.471C643.252 155.99 645.74 164.738 645.721 173.668V173.668Z" fill="#0E0333"/>
<path d="M942.715 296.631C940.382 294.654 932.309 288.044 931.236 287.165C931.845 285.986 932.158 284.67 932.148 283.336C932.138 282.001 931.804 280.691 931.178 279.521L940.153 272.552L942.778 270.369C943.424 269.929 943.53 269.448 943.061 268.806C942.449 267.982 941.787 267.198 941.079 266.459C937.201 262.406 932.051 259.889 926.538 259.352V254.718C926.546 254.124 926.335 253.549 925.946 253.108C925.558 252.666 925.022 252.392 924.444 252.339C924.137 252.318 923.829 252.362 923.54 252.468C923.25 252.574 922.984 252.74 922.76 252.956C922.535 253.172 922.356 253.433 922.234 253.722C922.112 254.012 922.05 254.324 922.05 254.64V259.352C920.137 259.537 918.253 259.964 916.441 260.622V254.718C916.449 254.124 916.238 253.549 915.85 253.108C915.461 252.666 914.925 252.392 914.348 252.339C914.041 252.318 913.733 252.362 913.443 252.468C913.153 252.574 912.888 252.74 912.663 252.956C912.439 253.172 912.26 253.433 912.138 253.722C912.016 254.012 911.953 254.324 911.954 254.64V262.82C908.552 264.964 905.738 267.96 903.776 271.526C901.814 275.092 900.767 279.111 900.735 283.205C900.632 296.601 911.518 307.56 924.581 307.56H942.02C942.337 307.559 942.645 307.444 942.888 307.233C943.13 307.022 943.293 306.731 943.346 306.409L943.364 298.052C943.364 297.781 943.307 297.513 943.195 297.267C943.082 297.021 942.919 296.804 942.715 296.631ZM938.878 302.958H924.53C913.984 302.958 905.171 294.113 905.234 283.302C905.244 280.482 905.85 277.699 907.01 275.143C908.17 272.587 909.857 270.319 911.954 268.496V272.969C911.946 273.563 912.157 274.138 912.545 274.579C912.933 275.02 913.47 275.295 914.047 275.348C914.354 275.369 914.662 275.325 914.952 275.219C915.242 275.113 915.507 274.947 915.732 274.731C915.956 274.515 916.135 274.254 916.257 273.964C916.379 273.675 916.442 273.362 916.441 273.047V265.581C918.908 264.433 921.586 263.841 924.294 263.843C929.311 263.843 933.538 265.551 936.944 268.797L927.783 276.187C926.584 275.577 925.252 275.292 923.914 275.358C922.577 275.424 921.278 275.839 920.142 276.565C919.005 277.291 918.068 278.303 917.42 279.505C916.772 280.706 916.435 282.058 916.44 283.431C916.445 284.804 916.792 286.153 917.448 287.35C918.105 288.546 919.049 289.551 920.191 290.268C921.333 290.986 922.634 291.392 923.972 291.448C925.31 291.504 926.64 291.208 927.835 290.589L927.72 290.694L938.878 299.507V302.958ZM927.66 283.401C927.66 284.083 927.462 284.751 927.093 285.318C926.723 285.886 926.197 286.328 925.582 286.589C924.967 286.85 924.29 286.919 923.638 286.786C922.985 286.652 922.385 286.324 921.914 285.841C921.444 285.358 921.123 284.743 920.993 284.074C920.863 283.404 920.93 282.711 921.185 282.08C921.439 281.449 921.871 280.91 922.424 280.531C922.978 280.152 923.628 279.949 924.294 279.949C925.187 279.949 926.043 280.313 926.674 280.96C927.305 281.607 927.66 282.485 927.66 283.401Z" fill="#5932C4"/>
<path d="M938.927 283.415C938.93 286.309 938.114 289.143 936.578 291.571C937.761 292.544 938.974 293.543 940.042 294.426C942.18 291.208 943.333 287.408 943.352 283.514C943.371 279.62 942.256 275.809 940.15 272.568L936.623 275.313C938.134 277.731 938.933 280.543 938.927 283.415Z" fill="#5932C4" stroke="#5932C4"/>
<path d="M642.82 583.213V587.864H794.183L763.036 556.472V332.867C762.854 294.367 762.599 213.27 763.036 196.884C763.473 180.498 754.475 185.505 749.922 190.057C733.164 202.953 696.59 231.364 684.349 241.833C672.109 252.302 670.871 268.195 671.781 274.833C670.871 275.971 668.394 278.588 665.771 279.953C654.842 285.416 652.838 300.816 653.203 307.833V563.868L642.82 583.213Z" fill="#AA8BFC"/>
<path d="M642.82 583.213V587.864H794.183L763.036 556.472V332.867C762.854 294.367 762.599 213.27 763.036 196.884C763.473 180.498 754.475 185.505 749.922 190.057C733.164 202.953 696.59 231.364 684.349 241.833C672.109 252.302 670.871 268.195 671.781 274.833C670.871 275.971 668.394 278.588 665.771 279.953C654.842 285.416 652.838 300.816 653.203 307.833V563.868L642.82 583.213Z" stroke="#AA8BFC"/>
<path d="M642.82 583.213V587.864H794.183L763.036 556.472V332.867C762.854 294.367 762.599 213.27 763.036 196.884C763.473 180.498 754.475 185.505 749.922 190.057C733.164 202.953 696.59 231.364 684.349 241.833C672.109 252.302 670.871 268.195 671.781 274.833C670.871 275.971 668.394 278.588 665.771 279.953C654.842 285.416 652.838 300.816 653.203 307.833V563.868L642.82 583.213Z" stroke="#AA8BFC"/>
<path d="M642.82 583.213V587.864H794.183L763.036 556.472V332.867C762.854 294.367 762.599 213.27 763.036 196.884C763.473 180.498 754.475 185.505 749.922 190.057C733.164 202.953 696.59 231.364 684.349 241.833C672.109 252.302 670.871 268.195 671.781 274.833C670.871 275.971 668.394 278.588 665.771 279.953C654.842 285.416 652.838 300.816 653.203 307.833V563.868L642.82 583.213Z" stroke="#AA8BFC"/>
<path d="M647.328 583.318V587.865H792.25L761.509 557.179V329.288C761.341 293.816 761.106 213.676 761.509 198.578C761.912 183.481 752.529 189.837 748.334 194.031C732.898 205.913 695.383 234.963 684.108 244.609C672.832 254.254 672.29 268.045 673.129 274.161C672.29 275.209 670.887 280.838 668.471 282.096C658.404 287.129 656.558 301.318 656.894 307.783V564.564L647.328 583.318Z" fill="#6F3FF5" stroke="#6F3FF5"/>
<path d="M653.133 583.321V587.863H785.173L755.582 556.636V332.714C755.428 300.711 755.582 260.265 755.582 246.639C755.582 210.298 742.651 213.775 731.462 222.223C717.259 232.943 699.266 248.341 688.892 257.043C678.518 265.745 677.468 278.956 678.24 284.474C677.468 285.42 675.368 287.595 673.145 288.73C663.883 293.27 662.185 306.071 662.493 311.904V564.59L653.133 583.321Z" fill="#5932C4" stroke="#5932C4"/>
<path d="M722.042 264.264L691.125 292.18V587.866H722.042V264.264Z" fill="#4427AD" stroke="#4427AD"/>
<path d="M669.867 278.062L678.042 285.381V479.59L691.122 498.167" stroke="#4427AD" stroke-width="3"/>
<path d="M764.559 271.166H757.309L746.713 275.717V530.6H718.828" stroke="#4427AD" stroke-width="3"/>
<path d="M651.195 564.796L664.477 569.926H750.258L765.201 556.816" stroke="#4427AD" stroke-width="3"/>
<path d="M681.2 555.437L675.672 543.707H739.798L745.878 555.437H681.2Z" stroke="#4427AD" stroke-width="3"/>
<path d="M734.916 264.264L714.305 284.354L734.916 332.572V264.264Z" fill="#C4C4C4" stroke="#4427AD" stroke-width="2"/>
<path d="M714.305 405.71L734.916 345.336L714.305 305.662V405.71Z" fill="#02E2AC" stroke="#4427AD" stroke-width="2"/>
<path d="M693.054 242.184V251.419L680.853 262.193C677.458 254.805 687.572 245.775 693.054 242.184Z" fill="#02E2AC" stroke="#6F3FF5"/>
<path d="M703.513 476.433C703.513 482.998 703.297 488.935 702.949 493.225C702.774 495.373 702.568 497.095 702.342 498.273C702.254 498.73 702.166 499.091 702.081 499.357C701.995 499.091 701.907 498.73 701.82 498.273C701.594 497.095 701.387 495.373 701.213 493.225C700.864 488.935 700.648 482.998 700.648 476.433C700.648 469.869 700.864 463.932 701.213 459.642C701.387 457.494 701.594 455.772 701.82 454.594C701.907 454.137 701.995 453.776 702.081 453.51C702.166 453.776 702.254 454.137 702.342 454.594C702.568 455.772 702.774 457.494 702.949 459.642C703.297 463.932 703.513 469.869 703.513 476.433ZM701.882 499.81C701.882 499.809 701.883 499.808 701.884 499.807C701.883 499.809 701.882 499.81 701.882 499.81ZM702.277 499.807C702.279 499.808 702.28 499.809 702.28 499.81C702.28 499.81 702.279 499.809 702.277 499.807ZM702.28 453.057C702.28 453.057 702.279 453.058 702.277 453.06C702.279 453.058 702.28 453.057 702.28 453.057ZM701.884 453.06C701.883 453.058 701.882 453.057 701.882 453.057C701.882 453.057 701.883 453.058 701.884 453.06Z" fill="#02E2AC" stroke="#4427AD"/>
<path d="M716.391 466.084C716.391 475.508 716.139 484.035 715.732 490.202C715.529 493.287 715.287 495.771 715.021 497.477C714.894 498.288 714.765 498.905 714.637 499.322C714.51 498.905 714.38 498.288 714.254 497.477C713.987 495.771 713.746 493.287 713.542 490.202C713.135 484.035 712.883 475.508 712.883 466.084C712.883 456.66 713.135 448.133 713.542 441.966C713.746 438.881 713.987 436.397 714.254 434.691C714.38 433.88 714.51 433.263 714.637 432.846C714.765 433.263 714.894 433.88 715.021 434.691C715.287 436.397 715.529 438.881 715.732 441.966C716.139 448.133 716.391 456.66 716.391 466.084ZM714.426 499.819C714.426 499.818 714.429 499.815 714.434 499.81C714.429 499.817 714.426 499.819 714.426 499.819ZM714.84 499.81C714.845 499.815 714.848 499.818 714.848 499.819C714.848 499.819 714.845 499.817 714.84 499.81ZM714.848 432.349C714.848 432.349 714.845 432.353 714.84 432.358C714.845 432.351 714.848 432.349 714.848 432.349ZM714.434 432.358C714.429 432.353 714.426 432.349 714.426 432.349C714.426 432.349 714.429 432.351 714.434 432.358Z" fill="#02E2AC" stroke="#4427AD"/>
<path d="M736.352 447.799C736.352 463.417 736.027 477.553 735.503 487.781C735.241 492.896 734.93 497.026 734.585 499.872C734.412 501.298 734.233 502.384 734.052 503.107C734.018 503.243 733.985 503.362 733.953 503.465C733.921 503.362 733.888 503.243 733.854 503.107C733.673 502.384 733.494 501.298 733.321 499.872C732.977 497.026 732.665 492.896 732.403 487.781C731.879 477.553 731.555 463.417 731.555 447.799C731.555 432.181 731.879 418.046 732.403 407.818C732.665 402.702 732.977 398.573 733.321 395.727C733.494 394.301 733.673 393.214 733.854 392.492C733.888 392.356 733.921 392.237 733.953 392.133C733.985 392.237 734.018 392.356 734.052 392.492C734.233 393.214 734.412 394.301 734.585 395.727C734.93 398.573 735.241 402.702 735.503 407.818C736.027 418.046 736.352 432.181 736.352 447.799Z" fill="#02E2AC" stroke="#4427AD"/>
<ellipse cx="756.818" cy="189.398" rx="3.86458" ry="3.79491" fill="#AA8BFC"/>
<ellipse cx="756.818" cy="189.398" rx="3.86458" ry="3.79491" fill="#AA8BFC"/>
<path d="M582.983 604.423H399.258H398.703V576.045H404.809L419.795 547.1H425.901V493.183L418.13 484.103V431.888L424.236 426.78L418.13 419.97V337.675L427.566 331.432V311.001L418.685 304.19V288.866C418.685 278.877 428.306 276.002 433.117 275.813H454.764L466.976 262.191H514.711L525.257 274.678C541.687 272.862 543.574 293.974 542.464 304.758H536.358V308.163H538.023V331.433H536.358L542.464 337.108V421.105H541.354V422.808L546.349 427.916L548.014 426.213L581.873 456.293V483.535H577.988V538.02H584.093V569.235H587.424V579.451L582.983 604.423Z" fill="#8C65F7"/>
<path d="M582.957 604.428H398.703V579.447H404.845L420.479 548.222H425.504V490.88L419.362 484.068V432.403L425.504 427.294L419.362 419.913V337.789L425.504 333.617H429.412V310.908L419.362 303.527V288.766C419.362 281.953 427.551 280.061 431.645 279.114H453.421L454.538 278.547H461.796L468.496 271.166H509.814L514.839 277.411H521.539C529.579 277.411 531.961 286.116 532.148 290.469V304.663H536.056V308.069H527.122V331.346H536.056L542.198 337.024H529.356V419.913L531.589 422.752H541.081L546.106 427.862H536.614L571.79 457.952V484.068H576.257V538.003H584.074L579.048 547.654V582.286L584.074 569.228H587.424L582.399 583.989L582.957 604.428Z" fill="#5932C4"/>
<path d="M464.958 604.427H438.458V545.505H428.521V540.406H480.417C487.042 540.406 489.434 538.518 489.802 537.574C496.243 527.187 509.788 505.62 512.438 502.448C515.088 499.275 512.438 498.482 510.781 498.482H428.521V483.751H435.146V426.53H423.552L418.031 420.298H441.219V331.916H430.177V312.086L425.76 308.687L441.771 309.254V295.656L437.906 304.155H435.146L441.771 287.725H515.75L522.375 304.155H527.344V331.916H503.052V304.155H519.615L513.542 289.991H467.719V420.298H529L534.521 426.53H461.646V483.751H576.479V537.574L571.51 546.072H464.958V604.427Z" fill="#4427AD"/>
<path d="M522.058 502.52L503.597 533.299C500.016 538.315 502.478 539.569 504.156 539.569H517.023C524.631 539.569 526.906 536.529 527.093 535.009C532.314 525.7 543.204 506.396 544.994 503.66C546.784 500.924 543.875 500.24 542.197 500.24H525.974C523.288 500.24 522.244 501.76 522.058 502.52Z" fill="#5932C4" stroke="#5932C4"/>
<path d="M486.305 420.199H468.914V352.861H473.963V344.301H480.695V352.861H486.305V420.199Z" fill="#02E2AC" stroke="#4427AD"/>
<path d="M472.671 340.852L468.914 322.542L472.671 317.393H484.48L488.237 322.542L484.48 340.852H472.671Z" fill="#02E2AC" stroke="#4427AD"/>
<path d="M405.781 582.347H419.411M565.517 582.347H555.159M555.159 582.347L542.62 560.957H432.495L419.411 582.347M555.159 582.347H419.411" stroke="#37198C" stroke-width="3"/>
<path d="M418.68 477.469H541.702L508.706 443.66H418.68" stroke="#37198C" stroke-width="3"/>
<path d="M445.07 324.98H454.088V420.198" stroke="#37198C" stroke-width="3"/>
<path d="M514 324.98H503.694V420.198" stroke="#37198C" stroke-width="3"/>
<path d="M424.469 305.662H526.236" stroke="#37198C" stroke-width="5"/>
<path d="M686.617 532.667V513.348L700.143 532.667H686.617Z" fill="#02E2AC" stroke="#4427AD" stroke-width="2"/>
<path d="M306.059 278.062L287.914 310.578L306.059 322.911L325.272 310.578L306.059 278.062Z" fill="#F3ADC3"/>
<path d="M306.322 302.215L287.914 310.265L306.322 322.914L325.272 310.265L306.322 302.215Z" fill="#F35890"/>
<path d="M307.242 322.911V278.062L325.277 310.578L307.242 322.911Z" fill="#F579A6"/>
<path d="M307.242 322.914V302.215L325.277 310.265L307.242 322.914Z" fill="#D44D6E"/>
<path d="M306.314 324.842L287.914 313.83L306.314 342.229L325.272 313.25L306.314 324.842Z" fill="#F35890"/>
<path d="M307.242 342.229V324.842L325.277 313.25L307.242 342.229Z" fill="#D44D6E"/>
</svg>
