<svg width="225" height="226" viewBox="0 0 225 226" fill="none" xmlns="http://www.w3.org/2000/svg">
<path fill-rule="evenodd" clip-rule="evenodd" d="M85.2985 222.383C145.64 237.454 206.644 200.552 221.656 140.119C236.631 79.6496 199.911 18.2566 139.532 3.37005C79.3379 -11.7012 18.3707 25.2011 3.35892 85.6337C-11.6529 146.066 25.0672 207.275 85.2985 222.383ZM140.777 69.9364C156.402 75.2561 167.799 83.1247 165.777 98.1971C164.233 109.169 158.277 114.525 150.042 116.41C161.292 122.209 166.917 131.002 161.77 146.406C155.373 165.727 139.601 167.463 118.498 163.695L113.645 184.272L101.292 181.28L106.145 161.035C103.02 160.26 99.7477 159.447 96.2918 158.523L91.4389 178.915L79.0859 175.923L83.9389 155.346C82.2405 154.852 80.4742 154.427 78.6812 153.994C77.5245 153.716 76.3567 153.434 75.1889 153.13L59.0859 149.362L64.9315 135.065C64.9315 135.065 74.1595 137.43 74.0124 137.282C77.4315 138.058 79.0124 135.841 79.6374 134.289L87.1374 101.78L92.6153 78.3592C92.7992 75.8471 91.8433 72.5593 86.8433 71.3033C87.1742 71.1186 77.9462 69.0868 77.9462 69.0868L81.0712 55.8984L98.0933 59.999C99.4168 60.313 100.75 60.5901 102.082 60.8671C103.415 61.1442 104.748 61.4213 106.071 61.7353L110.924 41.3433L123.424 44.3356L118.718 64.2843C121.99 64.9492 125.299 65.725 128.571 66.5008L133.277 46.5521L145.63 49.5444L140.777 69.9364ZM102.323 144.113C112.255 146.673 134.653 152.445 137.983 138.205C141.335 123.776 120.338 119.233 109.803 116.954C108.551 116.683 107.447 116.444 106.549 116.225L100.152 143.562C100.781 143.716 101.51 143.904 102.323 144.113ZM111.22 104.135C119.504 106.284 138.361 111.176 141.402 98.1971C144.487 85.1711 126.889 81.3886 118.185 79.5179C117.139 79.293 116.221 79.0957 115.483 78.9133L109.527 103.701C110.023 103.824 110.591 103.971 111.22 104.135Z" fill="#F7931A"/>
</svg>
