<svg width="86" height="86" viewBox="0 0 86 86" fill="none" xmlns="http://www.w3.org/2000/svg">
<g filter="url(#filter0_d_3865_110332)">
<ellipse cx="43" cy="42.3763" rx="40" ry="40.3763" fill="#FDFF90"/>
<path d="M82.8716 42.3763C82.8716 64.6057 65.0194 82.6242 43 82.6242C20.9806 82.6242 3.12838 64.6057 3.12838 42.3763C3.12838 20.1468 20.9806 2.12838 43 2.12838C65.0194 2.12838 82.8716 20.1468 82.8716 42.3763Z" stroke="white" stroke-width="0.256753"/>
</g>
<path fill-rule="evenodd" clip-rule="evenodd" d="M33.8887 78.4887C53.7559 83.4808 73.8411 71.2575 78.7837 51.2402C83.7141 31.2107 71.6242 10.8753 51.7449 5.9444C31.9262 0.952313 11.8532 13.1756 6.91059 33.1929C1.96803 53.2101 14.0579 73.4844 33.8887 78.4887ZM52.1542 27.9871C57.2986 29.7492 61.051 32.3555 60.3853 37.348C59.8769 40.9822 57.916 42.7565 55.2045 43.3806C58.9085 45.3017 60.7605 48.214 59.0659 53.3166C56.9597 59.7162 51.7668 60.2913 44.8188 59.0432L43.221 65.8589L39.1539 64.8678L40.7517 58.1622C39.7228 57.9052 38.6455 57.636 37.5076 57.3301L35.9098 64.0846L31.8427 63.0935L33.4405 56.2778C32.8813 56.1141 32.2998 55.9731 31.7095 55.83C31.3286 55.7376 30.9441 55.6444 30.5596 55.5436L25.2578 54.2955L27.1824 49.56C27.1824 49.56 30.2207 50.3431 30.1723 50.2942C31.298 50.5511 31.8185 49.8169 32.0243 49.303L34.4936 38.5349L36.2972 30.777C36.3577 29.945 36.043 28.8559 34.3968 28.4399C34.5057 28.3787 31.4675 27.7057 31.4675 27.7057L32.4963 23.3373L38.1008 24.6955C38.5365 24.7995 38.9753 24.8913 39.4141 24.9831C39.8529 25.0749 40.2917 25.1666 40.7275 25.2706L42.3253 18.5161L46.4408 19.5073L44.8914 26.115C45.9687 26.3352 47.0581 26.5922 48.1355 26.8491L49.6848 20.2415L53.752 21.2326L52.1542 27.9871ZM39.4934 52.5569C42.7635 53.4047 50.1377 55.3166 51.2342 50.6001C52.3378 45.8206 45.4247 44.3159 41.9561 43.561C41.544 43.4713 41.1805 43.3922 40.8848 43.3194L38.7786 52.3743C38.9856 52.4253 39.2258 52.4875 39.4934 52.5569ZM42.4226 39.3147C45.1502 40.0266 51.3587 41.6469 52.36 37.348C53.3757 33.0334 47.5815 31.7805 44.7159 31.1608C44.3714 31.0863 44.0692 31.021 43.8262 30.9606L41.8653 39.1712C42.0285 39.2118 42.2155 39.2606 42.4226 39.3147Z" fill="#F7931A"/>
<defs>
<filter id="filter0_d_3865_110332" x="0.945979" y="0.716237" width="84.108" height="84.858" filterUnits="userSpaceOnUse" color-interpolation-filters="sRGB">
<feFlood flood-opacity="0" result="BackgroundImageFix"/>
<feColorMatrix in="SourceAlpha" type="matrix" values="0 0 0 0 0 0 0 0 0 0 0 0 0 0 0 0 0 0 127 0" result="hardAlpha"/>
<feMorphology radius="0.770258" operator="dilate" in="SourceAlpha" result="effect1_dropShadow_3865_110332"/>
<feOffset dy="0.770258"/>
<feGaussianBlur stdDeviation="0.641881"/>
<feComposite in2="hardAlpha" operator="out"/>
<feColorMatrix type="matrix" values="0 0 0 0 0 0 0 0 0 0 0 0 0 0 0 0 0 0 0.15 0"/>
<feBlend mode="normal" in2="BackgroundImageFix" result="effect1_dropShadow_3865_110332"/>
<feBlend mode="normal" in="SourceGraphic" in2="effect1_dropShadow_3865_110332" result="shape"/>
</filter>
</defs>
</svg>
