<svg width="166" height="166" viewBox="0 0 166 166" fill="none" xmlns="http://www.w3.org/2000/svg">
<g filter="url(#filter0_d_3865_110334)">
<ellipse cx="83" cy="82.0393" rx="80" ry="80.0393" fill="#EDFFEF" fill-opacity="0.8" shape-rendering="crispEdges"/>
</g>
<ellipse cx="83.0409" cy="82.0695" rx="74.08" ry="74.1164" fill="#02E2AC"/>
<path fill-rule="evenodd" clip-rule="evenodd" d="M100.93 69.2094C103.982 73.4896 105.639 78.687 105.595 83.928C105.595 89.0817 103.938 94.2354 100.93 98.4283L107.295 103.276C111.35 97.6858 113.574 90.8724 113.574 83.9717C113.617 76.6779 111.219 69.5152 106.816 63.75L103.165 67.0424L100.93 69.2094Z" fill="#0E0333"/>
<path fill-rule="evenodd" clip-rule="evenodd" d="M114.661 107.709L93.2527 91.4178C94.7787 89.4087 95.6508 86.9629 95.7816 84.4297C95.8688 81.8965 95.2147 79.407 93.8631 77.2669L104.109 68.0077L114.835 57.9624C115.533 57.3073 115.576 56.1717 114.879 55.4729L113.396 53.9879C105.766 46.2574 95.4763 41.7588 84.6634 41.4094L84.707 35.5132C84.7506 35.1202 84.707 34.7271 84.6198 34.334C84.489 33.9409 84.3146 33.5915 84.053 33.2858C83.7914 32.9801 83.4862 32.7617 83.0938 32.587C82.745 32.4123 82.3526 32.3249 81.9602 32.3249C81.5678 32.3249 81.1754 32.4123 80.8265 32.587C80.4777 32.7617 80.1289 32.9801 79.8673 33.2858C79.6057 33.5915 79.3877 33.9409 79.3005 34.2903C79.1697 34.6834 79.1261 35.0765 79.2133 35.4696L79.1697 41.5404C76.5973 41.8025 74.0249 42.2829 71.5396 43.0254L71.5832 35.4696C71.6268 35.0765 71.5832 34.6834 71.496 34.2903C71.3652 33.8972 71.1908 33.5478 70.9292 33.2421C70.6676 32.9364 70.3624 32.718 69.97 32.5433C69.6212 32.3686 69.2288 32.2812 68.8364 32.2812C68.444 32.2812 68.0516 32.3686 67.7028 32.5433C67.354 32.718 67.0052 32.9364 66.7436 33.2421C66.482 33.5478 66.264 33.8972 66.1767 34.2466C66.0459 34.6397 66.0023 35.0328 66.0895 35.4259L65.9587 45.0781C57.1514 49.0089 49.9137 55.866 45.5101 64.47C41.1064 73.0741 39.7112 82.9447 41.6296 92.4223C43.548 101.9 48.6493 110.46 56.0614 116.662C63.4735 122.864 72.804 126.358 82.4398 126.533L113.614 126.664C114.573 126.664 115.358 125.878 115.358 124.917V109.15C115.358 108.582 115.097 108.058 114.661 107.709ZM83.0502 118.933C75.3765 118.89 67.9208 116.313 61.8603 111.639C55.7998 106.923 51.4398 100.328 49.4777 92.9027C47.5157 85.4779 48.0825 77.5727 51.0037 70.4972C53.9686 63.4218 59.1571 57.482 65.8279 53.6385L65.7843 65.1252C65.7407 65.5182 65.7843 65.9113 65.8715 66.3044C66.0023 66.6975 66.1768 67.0469 66.4384 67.3526C66.7 67.6583 67.0052 67.8767 67.3976 68.0514C67.7464 68.2261 68.1388 68.3135 68.5312 68.3135C68.9236 68.3135 69.316 68.2261 69.6648 68.0514C70.0136 67.8767 70.3624 67.6583 70.624 67.3526C70.8856 67.0469 71.1036 66.6975 71.1908 66.3481C71.3216 65.955 71.3652 65.5619 71.278 65.1688L71.3216 51.0617C75.1585 49.6641 79.2133 49.0089 83.3118 49.0089C90.8547 49.0089 98.1796 51.4984 104.153 56.0407C104.589 56.3901 104.632 57.0015 104.24 57.3946L87.9334 72.3753C86.451 71.7638 84.8378 71.4144 83.2246 71.4144C81.437 71.4144 79.6493 71.7638 77.9925 72.5063C76.3357 73.2488 74.8969 74.3407 73.7197 75.6946C72.5424 77.0486 71.6704 78.6645 71.1472 80.3679C70.624 82.1149 70.4932 83.9056 70.7548 85.6963C71.0164 87.487 71.6268 89.1903 72.586 90.719C73.5453 92.2476 74.8533 93.5142 76.3357 94.5187C77.8617 95.4796 79.5621 96.1347 81.3498 96.3968C83.1374 96.6588 84.9686 96.5278 86.669 96.0037L107.51 111.858C107.728 112.033 107.859 112.295 107.859 112.557L107.815 118.147C107.815 118.628 107.423 119.021 106.943 119.021L83.0502 118.933ZM88.1514 83.993C88.1514 84.9538 87.8462 85.9147 87.323 86.7445C86.7562 87.5743 86.015 88.1858 85.0994 88.5789C84.1838 88.9719 83.181 89.0593 82.2654 88.8409C81.3498 88.6225 80.4341 88.1858 79.7365 87.487C79.0389 86.7882 78.5593 85.9147 78.3849 84.9538C78.2105 83.9929 78.2977 82.9884 78.6901 82.1149C79.0825 81.1977 79.6929 80.4552 80.5213 79.8875C81.3498 79.3634 82.309 79.0576 83.2682 79.0576C84.5762 79.0576 85.8406 79.5817 86.7562 80.5426C87.6282 81.4161 88.1514 82.639 88.1514 83.993Z" fill="#0E0333"/>
<defs>
<filter id="filter0_d_3865_110334" x="0.847371" y="0.654607" width="164.305" height="164.383" filterUnits="userSpaceOnUse" color-interpolation-filters="sRGB">
<feFlood flood-opacity="0" result="BackgroundImageFix"/>
<feColorMatrix in="SourceAlpha" type="matrix" values="0 0 0 0 0 0 0 0 0 0 0 0 0 0 0 0 0 0 127 0" result="hardAlpha"/>
<feMorphology radius="0.807236" operator="dilate" in="SourceAlpha" result="effect1_dropShadow_3865_110334"/>
<feOffset dy="0.807236"/>
<feGaussianBlur stdDeviation="0.672696"/>
<feComposite in2="hardAlpha" operator="out"/>
<feColorMatrix type="matrix" values="0 0 0 0 0 0 0 0 0 0 0 0 0 0 0 0 0 0 0.15 0"/>
<feBlend mode="normal" in2="BackgroundImageFix" result="effect1_dropShadow_3865_110334"/>
<feBlend mode="normal" in="SourceGraphic" in2="effect1_dropShadow_3865_110334" result="shape"/>
</filter>
</defs>
</svg>
