<svg width="225" height="226" viewBox="0 0 225 226" fill="none" xmlns="http://www.w3.org/2000/svg">
<ellipse cx="112.5" cy="112.583" rx="112.5" ry="112.583" fill="#02E2AC"/>
<path fill-rule="evenodd" clip-rule="evenodd" d="M139.672 93.0429C144.307 99.5446 146.823 107.439 146.757 115.401C146.757 123.229 144.241 131.058 139.672 137.427L149.339 144.791C155.497 136.299 158.874 125.949 158.874 115.467C158.94 104.388 155.298 93.5073 148.611 84.75L143.067 89.7512L139.672 93.0429Z" fill="#0E0333"/>
<path fill-rule="evenodd" clip-rule="evenodd" d="M160.527 151.512L128.017 126.766C130.334 123.715 131.658 119.999 131.857 116.151C131.989 112.304 130.996 108.522 128.944 105.271L144.504 91.2063L160.792 75.9474C161.851 74.9522 161.918 73.2273 160.858 72.1658L158.607 69.9101C147.02 58.1674 131.393 51.334 114.973 50.8033L115.039 41.8469C115.105 41.2498 115.039 40.6527 114.906 40.0556C114.708 39.4585 114.443 38.9278 114.046 38.4634C113.648 37.999 113.185 37.6673 112.589 37.4019C112.059 37.1365 111.463 37.0038 110.867 37.0038C110.271 37.0038 109.676 37.1365 109.146 37.4019C108.616 37.6673 108.086 37.999 107.689 38.4634C107.292 38.9278 106.961 39.4585 106.828 39.9893C106.63 40.5864 106.564 41.1835 106.696 41.7806L106.63 51.0023C102.723 51.4003 98.8166 52.1301 95.0424 53.258L95.1086 41.7806C95.1749 41.1835 95.1086 40.5864 94.9762 39.9893C94.7776 39.3922 94.5127 38.8615 94.1154 38.3971C93.7182 37.9327 93.2547 37.6009 92.6588 37.3356C92.1291 37.0702 91.5331 36.9375 90.9372 36.9375C90.3413 36.9375 89.7454 37.0702 89.2157 37.3356C88.686 37.6009 88.1563 37.9327 87.759 38.3971C87.3617 38.8615 87.0306 39.3922 86.8982 39.9229C86.6996 40.52 86.6334 41.1171 86.7658 41.7142L86.5671 56.3761C73.1921 62.347 62.2007 72.7629 55.5132 85.8325C48.8257 98.9022 46.7069 113.896 49.6202 128.292C52.5336 142.689 60.2806 155.692 71.5368 165.113C82.793 174.534 96.9626 179.841 111.596 180.106L158.938 180.305C160.395 180.305 161.587 179.111 161.587 177.652V153.702C161.587 152.839 161.189 152.043 160.527 151.512ZM112.523 168.563C100.869 168.496 89.5467 164.582 80.3431 157.483C71.1395 150.318 64.5182 140.3 61.5386 129.022C58.559 117.744 59.4198 105.736 63.8561 94.9879C68.3585 84.2403 76.2379 75.2176 86.3685 69.3794L86.3023 86.8277C86.2361 87.4248 86.3023 88.0218 86.4347 88.6189C86.6334 89.216 86.8982 89.7468 87.2955 90.2112C87.6928 90.6756 88.1563 91.0073 88.7522 91.2727C89.2819 91.538 89.8778 91.6707 90.4737 91.6707C91.0696 91.6707 91.6656 91.538 92.1953 91.2727C92.725 91.0073 93.2547 90.6756 93.652 90.2112C94.0492 89.7468 94.3803 89.216 94.5127 88.6853C94.7114 88.0882 94.7776 87.4911 94.6451 86.894L94.7114 65.4651C100.538 63.3421 106.696 62.347 112.92 62.347C124.375 62.347 135.499 66.1286 144.57 73.0283C145.232 73.559 145.298 74.4878 144.702 75.0849L119.939 97.8407C117.687 96.9119 115.237 96.3811 112.788 96.3811C110.073 96.3811 107.358 96.9119 104.842 98.0397C102.326 99.1675 100.141 100.826 98.3531 102.883C96.5653 104.939 95.2411 107.394 94.4465 109.981C93.6519 112.635 93.4533 115.355 93.8506 118.075C94.2479 120.795 95.1749 123.383 96.6315 125.705C98.0882 128.027 100.075 129.951 102.326 131.477C104.643 132.936 107.226 133.931 109.94 134.329C112.655 134.728 115.436 134.529 118.018 133.732L149.668 157.815C149.999 158.08 150.198 158.478 150.198 158.877L150.132 167.368C150.132 168.098 149.536 168.695 148.807 168.695L112.523 168.563ZM120.27 115.488C120.27 116.948 119.806 118.407 119.012 119.668C118.151 120.928 117.025 121.857 115.635 122.454C114.244 123.051 112.721 123.184 111.331 122.852C109.94 122.52 108.55 121.857 107.49 120.795C106.431 119.734 105.703 118.407 105.438 116.948C105.173 115.488 105.305 113.962 105.901 112.635C106.497 111.242 107.424 110.114 108.682 109.252C109.94 108.456 111.397 107.991 112.854 107.991C114.84 107.991 116.76 108.787 118.151 110.247C119.475 111.574 120.27 113.431 120.27 115.488Z" fill="#0E0333"/>
</svg>
