<svg width="3669" height="100" viewBox="0 0 3669 100" fill="none" xmlns="http://www.w3.org/2000/svg">
<path d="M678.608 56.8551L653.043 69.7114L635.313 29.4301L660.878 16.574C667.363 13.3126 673.306 13.4043 678.177 15.5459C683.059 17.6925 686.899 21.9146 689.123 26.9683C691.348 32.022 691.943 37.8757 690.378 43.2649C688.816 48.6414 685.093 53.5935 678.608 56.8551Z" fill="#10BA90" stroke="black"/>
<path d="M608.713 42.6517L660.694 16.5135C667.173 13.2553 673.114 13.3549 677.987 15.5068C682.871 17.6639 686.715 21.899 688.946 26.9652C691.176 32.0315 691.778 37.8969 690.219 43.2938C688.664 48.6779 684.948 53.6334 678.468 56.8919L626.487 83.0299C620.007 86.2883 614.066 86.1887 609.193 84.0368C604.309 81.8797 600.465 77.6445 598.235 72.5781C596.005 67.5117 595.403 61.6463 596.962 56.2493C598.517 50.8653 602.233 45.9099 608.713 42.6517Z" fill="#10BA90" stroke="black"/>
<path d="M608.832 42.5302L608.631 42.0724L608.832 42.5302L660.804 16.3772C667.299 13.1085 673.126 12.9372 677.811 14.6769C682.502 16.4192 686.085 20.0923 688.061 24.5836C690.036 29.0749 690.398 34.3692 688.662 39.3452C686.929 44.3137 683.091 49.0061 676.595 52.275L624.623 78.4278C618.127 81.6967 612.3 81.8681 607.616 80.1283C602.925 78.386 599.341 74.7128 597.366 70.2214C595.39 65.73 595.03 60.4356 596.765 55.4596C598.498 50.4911 602.336 45.7988 608.832 42.5302Z" fill="#5BF1CD" stroke="black"/>
<path d="M651.063 65.1443L635.268 29.2291L660.815 16.3716C667.312 13.1014 673.141 12.93 677.826 14.6705C682.519 16.4136 686.104 20.0884 688.08 24.5819C690.056 29.0753 690.417 34.3721 688.681 39.3504C686.948 44.3212 683.108 49.0158 676.61 52.2862L651.063 65.1443Z" fill="#02E2AC" stroke="black"/>
<path d="M680.039 56.384C685.154 53.7286 689.074 49.0151 690.94 43.2764C692.806 37.5377 692.467 31.2419 689.995 25.7687C687.505 20.305 683.089 16.1179 677.715 14.1252C672.341 12.1324 666.448 12.4966 661.326 15.1378L634.269 29.1894L652.982 70.4357L680.039 56.384Z" fill="#02E2AC" stroke="#0E0333" stroke-width="2.37141" stroke-miterlimit="10" stroke-linejoin="round"/>
<path d="M634.27 29.178L607.237 43.169C602.122 45.8244 598.201 50.5379 596.335 56.2766C594.469 62.0153 594.809 68.3111 597.28 73.7843V73.7843C599.77 79.248 604.186 83.4351 609.56 85.4278C614.934 87.4206 620.827 87.0564 625.949 84.4152L652.983 70.4243L634.27 29.178Z" fill="#5BF1CD" stroke="#0E0333" stroke-width="2.37141" stroke-miterlimit="10" stroke-linejoin="round"/>
<path d="M688.101 22.3997C689.493 27.5925 689.127 33.1429 687.067 38.0746C685.007 43.0062 681.384 47.0034 676.837 49.363L649.804 63.3539L652.993 70.4126L680.026 56.4217C685.141 53.7663 689.062 49.0528 690.928 43.3141C692.794 37.5754 692.454 31.2795 689.983 25.8064C689.45 24.6141 688.82 23.4742 688.101 22.3997V22.3997Z" fill="#11BC92" stroke="#0E0333" stroke-width="2.37141" stroke-miterlimit="10" stroke-linejoin="round"/>
<path d="M649.814 63.3297L622.766 77.3144C618.218 79.6591 613.041 80.2171 608.144 78.8905C603.248 77.5638 598.945 74.4373 595.99 70.0598C596.341 71.3179 596.781 72.5459 597.306 73.7331V73.7331C599.796 79.1968 604.212 83.3839 609.586 85.3766C614.96 87.3694 620.854 87.0053 625.975 84.364L653.009 70.3732L649.82 63.3145L649.814 63.3297Z" fill="#11BC92" stroke="#0E0333" stroke-width="2.37141" stroke-miterlimit="10" stroke-linejoin="round"/>
<path d="M489.949 56.2285L514.901 68.7769L532.08 29.7491L507.127 17.2009C500.811 14.0246 495.071 14.1294 490.383 16.1905C485.668 18.2636 481.936 22.3536 479.77 27.2762C477.603 32.1988 477.033 37.8788 478.545 43.0835C480.048 48.2579 483.632 53.0519 489.949 56.2285Z" fill="#10BA90" stroke="black" stroke-width="2.37"/>
<path d="M559.316 43.2785L559.316 43.2785L507.334 17.1404C501.025 13.9676 495.286 14.08 490.596 16.1511C485.879 18.2344 482.143 22.3375 479.97 27.2732C477.797 32.2089 477.221 37.901 478.727 43.1135C480.224 48.2955 483.802 53.0923 490.112 56.2653L542.093 82.4033C548.404 85.5762 554.142 85.4639 558.832 83.3927C563.549 81.3094 567.285 77.2062 569.458 72.2704C571.63 67.3347 572.206 61.6424 570.7 56.4299C569.203 51.2479 565.626 46.4512 559.316 43.2785Z" fill="#2C2525" stroke="black" stroke-width="2.37"/>
<path d="M559.182 43.1574L559.626 42.1447L559.182 43.1574L507.209 17.0044C500.86 13.8095 495.221 13.6652 490.722 15.336C486.207 17.0131 482.748 20.5522 480.839 24.8924C478.93 29.2326 478.586 34.338 480.256 39.1268C481.92 43.8981 485.619 48.4528 491.969 51.648L543.941 77.8008C550.29 80.996 555.93 81.1403 560.429 79.4694C564.944 77.7924 568.402 74.2532 570.311 69.9128C572.22 65.5725 572.564 60.4671 570.894 55.6782C569.23 50.907 565.531 46.3523 559.182 43.1574Z" fill="#757087" stroke="black" stroke-width="2.37"/>
<path d="M516.905 64.2095L532.149 29.548L507.215 16.9988C500.864 13.8023 495.222 13.6579 490.722 15.3296C486.205 17.0074 482.746 20.5483 480.836 24.8906C478.926 29.233 478.582 34.3408 480.253 39.132C481.918 43.9055 485.617 48.4624 491.969 51.6592L516.905 64.2095Z" fill="#222C33" stroke="#222C33" stroke-width="2.37"/>
<path d="M908.608 56.8551L883.043 69.7114L865.313 29.4301L890.878 16.574C897.363 13.3126 903.306 13.4043 908.177 15.5458C913.059 17.6925 916.899 21.9146 919.123 26.9683C921.348 32.022 921.943 37.8756 920.378 43.2649C918.816 48.6413 915.093 53.5934 908.608 56.8551Z" fill="#10BA90" stroke="black"/>
<path d="M838.713 42.6517L890.694 16.5135C897.173 13.2553 903.114 13.3549 907.987 15.5068C912.871 17.6639 916.715 21.899 918.946 26.9652C921.176 32.0315 921.778 37.8969 920.219 43.2938C918.664 48.6779 914.948 53.6334 908.468 56.8919L856.487 83.0299C850.007 86.2883 844.066 86.1887 839.193 84.0367C834.309 81.8796 830.465 77.6445 828.235 72.5781C826.005 67.5117 825.403 61.6463 826.962 56.2493C828.517 50.8653 832.233 45.9098 838.713 42.6517Z" fill="#10BA90" stroke="black"/>
<path d="M838.832 42.5302L890.804 16.3772C897.299 13.1085 903.126 12.9372 907.811 14.6769C912.502 16.4192 916.085 20.0923 918.061 24.5836C920.036 29.0749 920.398 34.3692 918.662 39.3452C916.929 44.3137 913.091 49.006 906.595 52.275L854.623 78.4278C848.127 81.6967 842.3 81.8681 837.616 80.1283C832.925 78.386 829.341 74.7128 827.366 70.2214C825.39 65.73 825.03 60.4356 826.765 55.4596C828.498 50.4911 832.336 45.7988 838.832 42.5302Z" fill="#5BF1CD" stroke="black"/>
<path d="M881.063 65.1443L865.268 29.2291L890.815 16.3716C897.312 13.1014 903.141 12.93 907.826 14.6705C912.519 16.4136 916.104 20.0884 918.08 24.5819C920.056 29.0753 920.417 34.3721 918.681 39.3504C916.948 44.3212 913.108 49.0157 906.61 52.2862L881.063 65.1443Z" fill="#02E2AC" stroke="black"/>
<path d="M910.039 56.384C915.154 53.7286 919.074 49.0151 920.94 43.2764C922.806 37.5377 922.467 31.2419 919.995 25.7687C917.505 20.305 913.089 16.1179 907.715 14.1252C902.341 12.1324 896.448 12.4966 891.326 15.1378L864.269 29.1894L882.982 70.4357L910.039 56.384Z" fill="#02E2AC" stroke="#0E0333" stroke-width="2.37141" stroke-miterlimit="10" stroke-linejoin="round"/>
<path d="M864.27 29.178L837.237 43.169C832.122 45.8243 828.201 50.5379 826.335 56.2766C824.469 62.0153 824.809 68.3111 827.28 73.7843V73.7843C829.77 79.248 834.186 83.4351 839.56 85.4278C844.934 87.4206 850.827 87.0564 855.949 84.4152L882.983 70.4243L864.27 29.178Z" fill="#5BF1CD" stroke="#0E0333" stroke-width="2.37141" stroke-miterlimit="10" stroke-linejoin="round"/>
<path d="M918.101 22.3997C919.493 27.5925 919.127 33.1429 917.067 38.0746C915.007 43.0062 911.384 47.0034 906.837 49.363L879.804 63.3539L882.993 70.4126L910.026 56.4217C915.141 53.7663 919.062 49.0528 920.928 43.3141C922.794 37.5754 922.454 31.2795 919.983 25.8064C919.45 24.6141 918.821 23.4742 918.101 22.3997V22.3997Z" fill="#11BC92" stroke="#0E0333" stroke-width="2.37141" stroke-miterlimit="10" stroke-linejoin="round"/>
<path d="M879.814 63.3297L852.766 77.3144C848.218 79.6591 843.041 80.2171 838.144 78.8905C833.248 77.5638 828.945 74.4373 825.99 70.0598C826.341 71.3179 826.781 72.5459 827.306 73.7331V73.7331C829.796 79.1968 834.212 83.3839 839.586 85.3766C844.96 87.3694 850.854 87.0053 855.975 84.364L883.009 70.3732L879.82 63.3145L879.814 63.3297Z" fill="#11BC92" stroke="#0E0333" stroke-width="2.37141" stroke-miterlimit="10" stroke-linejoin="round"/>
<path d="M718.949 56.2285L743.901 68.7769L761.08 29.7491L736.127 17.2009C729.811 14.0246 724.071 14.1294 719.383 16.1905C714.668 18.2636 710.936 22.3536 708.77 27.2762C706.603 32.1988 706.033 37.8788 707.545 43.0835C709.048 48.2579 712.632 53.0519 718.949 56.2285Z" fill="#10BA90" stroke="black" stroke-width="2.37"/>
<path d="M788.316 43.2785L788.316 43.2785L736.334 17.1404C730.025 13.9676 724.286 14.08 719.596 16.1511C714.879 18.2344 711.143 22.3375 708.97 27.2732C706.797 32.2089 706.221 37.901 707.727 43.1135C709.224 48.2955 712.802 53.0923 719.112 56.2653L771.093 82.4033C777.404 85.5762 783.142 85.4639 787.832 83.3927C792.549 81.3094 796.285 77.2062 798.458 72.2704C800.63 67.3347 801.206 61.6424 799.7 56.4299C798.203 51.2479 794.626 46.4512 788.316 43.2785Z" fill="#2C2525" stroke="black" stroke-width="2.37"/>
<path d="M788.182 43.1574L788.626 42.1447L788.182 43.1574L736.209 17.0044C729.86 13.8095 724.221 13.6652 719.722 15.336C715.207 17.0131 711.748 20.5522 709.839 24.8924C707.93 29.2326 707.586 34.338 709.256 39.1268C710.92 43.8981 714.619 48.4528 720.969 51.648L772.941 77.8008C779.29 80.996 784.93 81.1403 789.429 79.4694C793.944 77.7924 797.402 74.2532 799.311 69.9128C801.22 65.5725 801.564 60.4671 799.894 55.6782C798.23 50.907 794.531 46.3523 788.182 43.1574Z" fill="#757087" stroke="black" stroke-width="2.37"/>
<path d="M745.905 64.2095L761.149 29.548L736.215 16.9988C729.864 13.8023 724.222 13.6579 719.722 15.3296C715.205 17.0074 711.746 20.5483 709.836 24.8906C707.926 29.233 707.582 34.3408 709.253 39.132C710.918 43.9055 714.617 48.4624 720.969 51.6592L745.905 64.2095Z" fill="#222C33" stroke="#222C33" stroke-width="2.37"/>
<path d="M209.754 56.8199L184.382 69.723L166.887 29.5302L192.26 16.6273C198.696 13.3542 204.587 13.4314 209.412 15.5587C214.248 17.6911 218.046 21.8992 220.241 26.9421C222.436 31.985 223.014 37.8307 221.451 43.2174C219.891 48.5914 216.19 53.5465 209.754 56.8199Z" fill="#10BA90" stroke="black"/>
<path d="M140.572 42.7491L140.372 42.2908L140.572 42.7491L192.131 16.5391C198.557 13.2724 204.443 13.3576 209.265 15.4931C214.1 17.6338 217.9 21.8506 220.099 26.9009C222.298 31.9512 222.882 37.8027 221.326 43.1917C219.774 48.5678 216.083 53.5214 209.656 56.7884L158.097 82.9982C151.671 86.2651 145.785 86.18 140.963 84.0445C136.128 81.9038 132.329 77.6868 130.13 72.6364C127.931 67.586 127.346 61.7344 128.902 56.3454C130.454 50.9693 134.146 46.0158 140.572 42.7491Z" fill="#10BA90" stroke="black"/>
<path d="M140.69 42.6137L192.235 16.3931C198.677 13.1164 204.449 12.9314 209.085 14.6558C213.729 16.3827 217.271 20.0386 219.219 24.5149C221.167 28.9912 221.513 34.2724 219.784 39.2408C218.057 44.2018 214.245 48.8923 207.803 52.1693L156.258 78.3897C149.816 81.6667 144.044 81.8516 139.407 80.1273C134.764 78.4004 131.222 74.7443 129.274 70.2679C127.326 65.7915 126.98 60.5102 128.71 55.5418C130.437 50.5808 134.248 45.8904 140.69 42.6137Z" fill="#5BF1CD" stroke="black"/>
<path d="M182.402 65.1594L166.819 29.3292L192.17 16.4268C198.618 13.1453 204.396 12.9601 209.037 14.6869C213.684 16.4164 217.23 20.0779 219.18 24.5609C221.13 29.0439 221.477 34.3329 219.745 39.3088C218.017 44.2771 214.201 48.9746 207.753 52.2564L182.402 65.1594Z" fill="#02E2AC" stroke="black"/>
<path d="M211.208 56.384C216.277 53.7287 220.161 49.0151 222.011 43.2764C223.86 37.5377 223.523 31.2419 221.074 25.7687C218.607 20.305 214.231 16.1179 208.906 14.1252C203.581 12.1324 197.741 12.4966 192.666 15.1378L165.855 29.1894L184.398 70.4357L211.208 56.384Z" fill="#02E2AC" stroke="#0E0333" stroke-width="2.37141" stroke-miterlimit="10" stroke-linejoin="round"/>
<path d="M165.86 29.178L139.072 43.169C134.003 45.8243 130.119 50.5379 128.269 56.2766C126.42 62.0153 126.757 68.3111 129.206 73.7843V73.7843C131.673 79.248 136.049 83.4351 141.374 85.4278C146.699 87.4206 152.539 87.0564 157.614 84.4152L184.402 70.4243L165.86 29.178Z" fill="#5BF1CD" stroke="#0E0333" stroke-width="2.37141" stroke-miterlimit="10" stroke-linejoin="round"/>
<path d="M219.198 22.3997C220.578 27.5925 220.215 33.1429 218.173 38.0746C216.132 43.0062 212.542 47.0034 208.036 49.363L181.249 63.3539L184.409 70.4126L211.197 56.4217C216.265 53.7663 220.15 49.0528 221.999 43.3141C223.848 37.5754 223.512 31.2795 221.063 25.8064C220.535 24.6141 219.911 23.4742 219.198 22.3997V22.3997Z" fill="#11BC92" stroke="#0E0333" stroke-width="2.37141" stroke-miterlimit="10" stroke-linejoin="round"/>
<path d="M181.258 63.3297L154.456 77.3144C149.949 79.6591 144.82 80.2171 139.968 78.8905C135.116 77.5638 130.852 74.4373 127.924 70.0598C128.272 71.3179 128.708 72.5459 129.228 73.7331V73.7331C131.695 79.1968 136.071 83.3839 141.396 85.3766C146.721 87.3694 152.562 87.0053 157.637 84.364L184.424 70.3732L181.264 63.3145L181.258 63.3297Z" fill="#11BC92" stroke="#0E0333" stroke-width="2.37141" stroke-miterlimit="10" stroke-linejoin="round"/>
<path d="M45.8038 68.7261L62.9333 29.7407L38.0285 17.1942C31.7246 14.0184 25.9967 14.1209 21.3196 16.1783C16.615 18.2476 12.8931 22.3325 10.7325 27.2499C8.57186 32.1672 8.00558 37.8419 9.51597 43.0423C11.0176 48.2125 14.5957 53.0034 20.8999 56.1794L45.8038 68.7261Z" fill="#10BA90" stroke="black" stroke-width="2.37"/>
<path d="M90.0828 43.2728L90.0828 43.2728L38.2045 17.1408C31.9077 13.9691 26.1824 14.0791 21.504 16.1461C16.798 18.2254 13.0716 22.3226 10.9052 27.2522C8.7389 32.1818 8.16621 37.8677 9.67023 43.0751C11.1654 48.2519 14.7366 53.0448 21.0337 56.2168L72.9119 82.3486C79.2091 85.5206 84.9346 85.4106 89.613 83.3436C94.3189 81.2643 98.0452 77.167 100.211 72.2373C102.378 67.3075 102.95 61.6216 101.446 56.4142C99.9507 51.2373 96.3796 46.4446 90.0828 43.2728ZM90.5595 42.1883L90.5344 42.2454L90.5595 42.1883Z" fill="#2C2525" stroke="black" stroke-width="2.37"/>
<path d="M89.9721 43.1208L90.4474 42.0356L89.9721 43.1208L38.1041 16.9746C31.768 13.7807 26.1414 13.6344 21.6534 15.3016C17.1489 16.975 13.6996 20.5088 11.7961 24.8435C9.89265 29.1782 9.55087 34.2777 11.2191 39.0618C12.8811 43.8282 16.5729 48.3793 22.9094 51.5735L74.7773 77.7195C81.1139 80.9136 86.7407 81.0599 91.2286 79.3927C95.7331 77.7193 99.1823 74.1854 101.086 69.8506C102.989 65.5158 103.33 60.4162 101.662 55.6321C100 50.8656 96.3083 46.3147 89.9721 43.1208Z" fill="#757087" stroke="black" stroke-width="2.37"/>
<path d="M47.8023 64.1545L63.0023 29.5318L38.1165 16.9846C31.7779 13.7887 26.1489 13.6423 21.659 15.3106C17.1525 16.9851 13.7016 20.5212 11.7973 24.8588C9.89303 29.1964 9.55111 34.2992 11.22 39.0864C12.8828 43.856 16.5762 48.4099 22.9152 51.6061L47.8023 64.1545Z" fill="#222C33" stroke="#222C33" stroke-width="2.37"/>
<path d="M2069.12 56.8199L2043.75 69.723L2026.25 29.5302L2051.63 16.6273C2058.06 13.3542 2063.95 13.4314 2068.78 15.5587C2073.61 17.6911 2077.41 21.8992 2079.61 26.9421C2081.8 31.985 2082.38 37.8307 2080.82 43.2174C2079.26 48.5914 2075.56 53.5465 2069.12 56.8199Z" fill="#10BA90" stroke="black"/>
<path d="M1999.94 42.7491L1999.74 42.2908L1999.94 42.7491L2051.5 16.5391C2057.92 13.2724 2063.81 13.3576 2068.63 15.4931C2073.47 17.6338 2077.27 21.8506 2079.47 26.9009C2081.67 31.9512 2082.25 37.8027 2080.69 43.1917C2079.14 48.5678 2075.45 53.5214 2069.02 56.7884L2017.46 82.9982C2011.04 86.2651 2005.15 86.18 2000.33 84.0445C1995.5 81.9038 1991.7 77.6868 1989.5 72.6364C1987.3 67.586 1986.71 61.7344 1988.27 56.3454C1989.82 50.9693 1993.51 46.0158 1999.94 42.7491Z" fill="#10BA90" stroke="black"/>
<path d="M2000.06 42.6137L2051.6 16.3931C2058.04 13.1164 2063.82 12.9314 2068.45 14.6558C2073.1 16.3827 2076.64 20.0386 2078.59 24.5149C2080.53 28.9912 2080.88 34.2724 2079.15 39.2408C2077.42 44.2018 2073.61 48.8923 2067.17 52.1693L2015.63 78.3897C2009.18 81.6667 2003.41 81.8516 1998.77 80.1273C1994.13 78.4004 1990.59 74.7443 1988.64 70.2679C1986.69 65.7915 1986.35 60.5102 1988.08 55.5418C1989.8 50.5808 1993.62 45.8904 2000.06 42.6137Z" fill="#5BF1CD" stroke="black"/>
<path d="M2041.77 65.1594L2026.19 29.3292L2051.54 16.4268C2057.98 13.1453 2063.76 12.9601 2068.4 14.6869C2073.05 16.4164 2076.6 20.0779 2078.55 24.5609C2080.5 29.0439 2080.84 34.3329 2079.11 39.3088C2077.38 44.2771 2073.57 48.9746 2067.12 52.2564L2041.77 65.1594Z" fill="#02E2AC" stroke="black"/>
<path d="M2070.58 56.384C2075.64 53.7287 2079.53 49.0151 2081.38 43.2764C2083.23 37.5377 2082.89 31.2419 2080.44 25.7687C2077.97 20.305 2073.6 16.1179 2068.27 14.1252C2062.95 12.1324 2057.11 12.4966 2052.03 15.1378L2025.22 29.1894L2043.76 70.4357L2070.58 56.384Z" fill="#02E2AC" stroke="#0E0333" stroke-width="2.37141" stroke-miterlimit="10" stroke-linejoin="round"/>
<path d="M2025.23 29.178L1998.44 43.169C1993.37 45.8243 1989.49 50.5379 1987.64 56.2766C1985.79 62.0153 1986.12 68.3111 1988.57 73.7843V73.7843C1991.04 79.248 1995.42 83.4351 2000.74 85.4278C2006.07 87.4206 2011.91 87.0564 2016.98 84.4152L2043.77 70.4243L2025.23 29.178Z" fill="#5BF1CD" stroke="#0E0333" stroke-width="2.37141" stroke-miterlimit="10" stroke-linejoin="round"/>
<path d="M2078.57 22.3997C2079.94 27.5925 2079.58 33.1429 2077.54 38.0746C2075.5 43.0062 2071.91 47.0034 2067.4 49.363L2040.62 63.3539L2043.78 70.4126L2070.56 56.4217C2075.63 53.7663 2079.52 49.0528 2081.37 43.3141C2083.22 37.5754 2082.88 31.2795 2080.43 25.8064C2079.9 24.6141 2079.28 23.4742 2078.57 22.3997V22.3997Z" fill="#11BC92" stroke="#0E0333" stroke-width="2.37141" stroke-miterlimit="10" stroke-linejoin="round"/>
<path d="M2040.63 63.3297L2013.82 77.3144C2009.32 79.6591 2004.19 80.2171 1999.33 78.8905C1994.48 77.5638 1990.22 74.4373 1987.29 70.0598C1987.64 71.3179 1988.08 72.5459 1988.6 73.7331V73.7331C1991.06 79.1968 1995.44 83.3839 2000.76 85.3766C2006.09 87.3694 2011.93 87.0053 2017 84.364L2043.79 70.3732L2040.63 63.3145L2040.63 63.3297Z" fill="#11BC92" stroke="#0E0333" stroke-width="2.37141" stroke-miterlimit="10" stroke-linejoin="round"/>
<path d="M1905.17 68.7261L1922.3 29.7407L1897.4 17.1942C1891.09 14.0184 1885.36 14.1209 1880.69 16.1783C1875.98 18.2476 1872.26 22.3325 1870.1 27.2499C1867.94 32.1672 1867.37 37.8419 1868.88 43.0423C1870.38 48.2125 1873.96 53.0034 1880.27 56.1794L1905.17 68.7261Z" fill="#10BA90" stroke="black" stroke-width="2.37"/>
<path d="M1949.45 43.2728L1949.45 43.2728L1897.57 17.1408C1891.27 13.9691 1885.55 14.0791 1880.87 16.1461C1876.17 18.2254 1872.44 22.3226 1870.27 27.2522C1868.11 32.1818 1867.53 37.8677 1869.04 43.0751C1870.53 48.2519 1874.1 53.0448 1880.4 56.2168L1932.28 82.3486C1938.58 85.5206 1944.3 85.4106 1948.98 83.3436C1953.69 81.2643 1957.41 77.167 1959.58 72.2373C1961.74 67.3075 1962.32 61.6216 1960.81 56.4142C1959.32 51.2373 1955.75 46.4446 1949.45 43.2728ZM1949.93 42.1883L1949.9 42.2454L1949.93 42.1883Z" fill="#2C2525" stroke="black" stroke-width="2.37"/>
<path d="M1949.34 43.1208L1949.81 42.0356L1949.34 43.1208L1897.47 16.9746C1891.14 13.7807 1885.51 13.6344 1881.02 15.3016C1876.52 16.975 1873.07 20.5088 1871.16 24.8435C1869.26 29.1782 1868.92 34.2777 1870.59 39.0618C1872.25 43.8282 1875.94 48.3793 1882.28 51.5735L1934.14 77.7195C1940.48 80.9136 1946.11 81.0599 1950.6 79.3927C1955.1 77.7193 1958.55 74.1854 1960.45 69.8506C1962.36 65.5158 1962.7 60.4162 1961.03 55.6321C1959.37 50.8656 1955.68 46.3147 1949.34 43.1208Z" fill="#757087" stroke="black" stroke-width="2.37"/>
<path d="M1907.17 64.1545L1922.37 29.5318L1897.48 16.9846C1891.15 13.7887 1885.52 13.6423 1881.03 15.3106C1876.52 16.9851 1873.07 20.5212 1871.16 24.8588C1869.26 29.1964 1868.92 34.2992 1870.59 39.0864C1872.25 43.856 1875.94 48.4099 1882.28 51.6061L1907.17 64.1545Z" fill="#222C33" stroke="#222C33" stroke-width="2.37"/>
<path d="M2296.12 56.8199L2270.75 69.723L2253.25 29.5302L2278.63 16.6273C2285.06 13.3542 2290.95 13.4314 2295.78 15.5587C2300.61 17.6911 2304.41 21.8992 2306.61 26.9421C2308.8 31.985 2309.38 37.8307 2307.82 43.2174C2306.26 48.5914 2302.56 53.5465 2296.12 56.8199Z" fill="#10BA90" stroke="black"/>
<path d="M2226.94 42.7491L2226.74 42.2908L2226.94 42.7491L2278.5 16.5391C2284.92 13.2724 2290.81 13.3576 2295.63 15.4931C2300.47 17.6338 2304.27 21.8506 2306.47 26.9009C2308.67 31.9512 2309.25 37.8027 2307.69 43.1917C2306.14 48.5678 2302.45 53.5214 2296.02 56.7884L2244.46 82.9982C2238.04 86.2651 2232.15 86.18 2227.33 84.0445C2222.5 81.9038 2218.7 77.6868 2216.5 72.6364C2214.3 67.586 2213.71 61.7344 2215.27 56.3454C2216.82 50.9693 2220.51 46.0158 2226.94 42.7491Z" fill="#10BA90" stroke="black"/>
<path d="M2227.06 42.6137L2278.6 16.3931C2285.04 13.1164 2290.82 12.9314 2295.45 14.6558C2300.1 16.3827 2303.64 20.0386 2305.59 24.5149C2307.53 28.9912 2307.88 34.2724 2306.15 39.2408C2304.42 44.2018 2300.61 48.8923 2294.17 52.1693L2242.63 78.3897C2236.18 81.6667 2230.41 81.8516 2225.77 80.1273C2221.13 78.4004 2217.59 74.7443 2215.64 70.2679C2213.69 65.7915 2213.35 60.5102 2215.08 55.5418C2216.8 50.5808 2220.62 45.8904 2227.06 42.6137Z" fill="#5BF1CD" stroke="black"/>
<path d="M2268.77 65.1594L2253.19 29.3292L2278.54 16.4268C2284.98 13.1453 2290.76 12.9601 2295.4 14.6869C2300.05 16.4164 2303.6 20.0779 2305.55 24.5609C2307.5 29.0439 2307.84 34.3329 2306.11 39.3088C2304.38 44.2771 2300.57 48.9746 2294.12 52.2564L2268.77 65.1594Z" fill="#02E2AC" stroke="black"/>
<path d="M2297.58 56.384C2302.64 53.7287 2306.53 49.0151 2308.38 43.2764C2310.23 37.5377 2309.89 31.2419 2307.44 25.7687C2304.97 20.305 2300.6 16.1179 2295.27 14.1252C2289.95 12.1324 2284.11 12.4966 2279.03 15.1378L2252.22 29.1894L2270.76 70.4357L2297.58 56.384Z" fill="#02E2AC" stroke="#0E0333" stroke-width="2.37141" stroke-miterlimit="10" stroke-linejoin="round"/>
<path d="M2252.23 29.178L2225.44 43.169C2220.37 45.8243 2216.49 50.5379 2214.64 56.2766C2212.79 62.0153 2213.12 68.3111 2215.57 73.7843V73.7843C2218.04 79.248 2222.42 83.4351 2227.74 85.4278C2233.07 87.4206 2238.91 87.0564 2243.98 84.4152L2270.77 70.4243L2252.23 29.178Z" fill="#5BF1CD" stroke="#0E0333" stroke-width="2.37141" stroke-miterlimit="10" stroke-linejoin="round"/>
<path d="M2305.57 22.3997C2306.94 27.5925 2306.58 33.1429 2304.54 38.0746C2302.5 43.0062 2298.91 47.0034 2294.4 49.363L2267.62 63.3539L2270.78 70.4126L2297.56 56.4217C2302.63 53.7663 2306.52 49.0528 2308.37 43.3141C2310.22 37.5754 2309.88 31.2795 2307.43 25.8064C2306.9 24.6141 2306.28 23.4742 2305.57 22.3997V22.3997Z" fill="#11BC92" stroke="#0E0333" stroke-width="2.37141" stroke-miterlimit="10" stroke-linejoin="round"/>
<path d="M2267.63 63.3297L2240.82 77.3144C2236.32 79.6591 2231.19 80.2171 2226.33 78.8905C2221.48 77.5638 2217.22 74.4373 2214.29 70.0598C2214.64 71.3179 2215.08 72.5459 2215.6 73.7331V73.7331C2218.06 79.1968 2222.44 83.3839 2227.76 85.3766C2233.09 87.3694 2238.93 87.0053 2244 84.364L2270.79 70.3732L2267.63 63.3145L2267.63 63.3297Z" fill="#11BC92" stroke="#0E0333" stroke-width="2.37141" stroke-miterlimit="10" stroke-linejoin="round"/>
<path d="M2132.17 68.7261L2149.3 29.7407L2124.4 17.1942C2118.09 14.0184 2112.36 14.1209 2107.69 16.1783C2102.98 18.2476 2099.26 22.3325 2097.1 27.2499C2094.94 32.1672 2094.37 37.8419 2095.88 43.0423C2097.38 48.2125 2100.96 53.0034 2107.27 56.1794L2132.17 68.7261Z" fill="#10BA90" stroke="black" stroke-width="2.37"/>
<path d="M2176.45 43.2728L2176.45 43.2728L2124.57 17.1408C2118.27 13.9691 2112.55 14.0791 2107.87 16.1461C2103.17 18.2254 2099.44 22.3226 2097.27 27.2522C2095.11 32.1818 2094.53 37.8677 2096.04 43.0751C2097.53 48.2519 2101.1 53.0448 2107.4 56.2168L2159.28 82.3486C2165.58 85.5206 2171.3 85.4106 2175.98 83.3436C2180.69 81.2643 2184.41 77.167 2186.58 72.2373C2188.74 67.3075 2189.32 61.6216 2187.81 56.4142C2186.32 51.2373 2182.75 46.4446 2176.45 43.2728ZM2176.93 42.1883L2176.9 42.2454L2176.93 42.1883Z" fill="#2C2525" stroke="black" stroke-width="2.37"/>
<path d="M2176.34 43.1208L2176.81 42.0356L2176.34 43.1208L2124.47 16.9746C2118.14 13.7807 2112.51 13.6344 2108.02 15.3016C2103.52 16.975 2100.07 20.5088 2098.16 24.8435C2096.26 29.1782 2095.92 34.2777 2097.59 39.0618C2099.25 43.8282 2102.94 48.3793 2109.28 51.5735L2161.14 77.7195C2167.48 80.9136 2173.11 81.0599 2177.6 79.3927C2182.1 77.7193 2185.55 74.1854 2187.45 69.8506C2189.36 65.5158 2189.7 60.4162 2188.03 55.6321C2186.37 50.8656 2182.68 46.3147 2176.34 43.1208Z" fill="#757087" stroke="black" stroke-width="2.37"/>
<path d="M2134.17 64.1545L2149.37 29.5318L2124.48 16.9846C2118.15 13.7887 2112.52 13.6423 2108.03 15.3106C2103.52 16.9851 2100.07 20.5212 2098.16 24.8588C2096.26 29.1964 2095.92 34.2992 2097.59 39.0864C2099.25 43.856 2102.94 48.4099 2109.28 51.6061L2134.17 64.1545Z" fill="#222C33" stroke="#222C33" stroke-width="2.37"/>
<path d="M2523.12 56.8199L2497.75 69.723L2480.25 29.5302L2505.63 16.6273C2512.06 13.3542 2517.95 13.4314 2522.78 15.5587C2527.61 17.6911 2531.41 21.8992 2533.61 26.9421C2535.8 31.985 2536.38 37.8307 2534.82 43.2174C2533.26 48.5914 2529.56 53.5465 2523.12 56.8199Z" fill="#10BA90" stroke="black"/>
<path d="M2453.94 42.7491L2453.74 42.2908L2453.94 42.7491L2505.5 16.5391C2511.92 13.2724 2517.81 13.3576 2522.63 15.4931C2527.47 17.6338 2531.27 21.8506 2533.47 26.9009C2535.67 31.9512 2536.25 37.8027 2534.69 43.1917C2533.14 48.5678 2529.45 53.5214 2523.02 56.7884L2471.46 82.9982C2465.04 86.2651 2459.15 86.18 2454.33 84.0445C2449.5 81.9038 2445.7 77.6868 2443.5 72.6364C2441.3 67.586 2440.71 61.7344 2442.27 56.3454C2443.82 50.9693 2447.51 46.0158 2453.94 42.7491Z" fill="#10BA90" stroke="black"/>
<path d="M2454.06 42.6137L2505.6 16.3931C2512.04 13.1164 2517.82 12.9314 2522.45 14.6558C2527.1 16.3827 2530.64 20.0386 2532.59 24.5149C2534.53 28.9912 2534.88 34.2724 2533.15 39.2408C2531.42 44.2018 2527.61 48.8923 2521.17 52.1693L2469.63 78.3897C2463.18 81.6667 2457.41 81.8516 2452.77 80.1273C2448.13 78.4004 2444.59 74.7443 2442.64 70.2679C2440.69 65.7915 2440.35 60.5102 2442.08 55.5418C2443.8 50.5808 2447.62 45.8904 2454.06 42.6137Z" fill="#5BF1CD" stroke="black"/>
<path d="M2495.77 65.1594L2480.19 29.3292L2505.54 16.4268C2511.98 13.1453 2517.76 12.9601 2522.4 14.6869C2527.05 16.4164 2530.6 20.0779 2532.55 24.5609C2534.5 29.0439 2534.84 34.3329 2533.11 39.3088C2531.38 44.2771 2527.57 48.9746 2521.12 52.2564L2495.77 65.1594Z" fill="#02E2AC" stroke="black"/>
<path d="M2524.58 56.384C2529.64 53.7287 2533.53 49.0151 2535.38 43.2764C2537.23 37.5377 2536.89 31.2419 2534.44 25.7687C2531.97 20.305 2527.6 16.1179 2522.27 14.1252C2516.95 12.1324 2511.11 12.4966 2506.03 15.1378L2479.22 29.1894L2497.76 70.4357L2524.58 56.384Z" fill="#02E2AC" stroke="#0E0333" stroke-width="2.37141" stroke-miterlimit="10" stroke-linejoin="round"/>
<path d="M2479.23 29.178L2452.44 43.169C2447.37 45.8243 2443.49 50.5379 2441.64 56.2766C2439.79 62.0153 2440.12 68.3111 2442.57 73.7843V73.7843C2445.04 79.248 2449.42 83.4351 2454.74 85.4278C2460.07 87.4206 2465.91 87.0564 2470.98 84.4152L2497.77 70.4243L2479.23 29.178Z" fill="#5BF1CD" stroke="#0E0333" stroke-width="2.37141" stroke-miterlimit="10" stroke-linejoin="round"/>
<path d="M2532.57 22.3997C2533.94 27.5925 2533.58 33.1429 2531.54 38.0746C2529.5 43.0062 2525.91 47.0034 2521.4 49.363L2494.62 63.3539L2497.78 70.4126L2524.56 56.4217C2529.63 53.7663 2533.52 49.0528 2535.37 43.3141C2537.22 37.5754 2536.88 31.2795 2534.43 25.8064C2533.9 24.6141 2533.28 23.4742 2532.57 22.3997V22.3997Z" fill="#11BC92" stroke="#0E0333" stroke-width="2.37141" stroke-miterlimit="10" stroke-linejoin="round"/>
<path d="M2494.63 63.3297L2467.82 77.3144C2463.32 79.6591 2458.19 80.2171 2453.33 78.8905C2448.48 77.5638 2444.22 74.4373 2441.29 70.0598C2441.64 71.3179 2442.08 72.5459 2442.6 73.7331V73.7331C2445.06 79.1968 2449.44 83.3839 2454.76 85.3766C2460.09 87.3694 2465.93 87.0053 2471 84.364L2497.79 70.3732L2494.63 63.3145L2494.63 63.3297Z" fill="#11BC92" stroke="#0E0333" stroke-width="2.37141" stroke-miterlimit="10" stroke-linejoin="round"/>
<path d="M2359.17 68.7261L2376.3 29.7407L2351.4 17.1942C2345.09 14.0184 2339.36 14.1209 2334.69 16.1783C2329.98 18.2476 2326.26 22.3325 2324.1 27.2499C2321.94 32.1672 2321.37 37.8419 2322.88 43.0423C2324.38 48.2125 2327.96 53.0034 2334.27 56.1794L2359.17 68.7261Z" fill="#10BA90" stroke="black" stroke-width="2.37"/>
<path d="M2403.45 43.2728L2403.45 43.2728L2351.57 17.1408C2345.27 13.9691 2339.55 14.0791 2334.87 16.1461C2330.17 18.2254 2326.44 22.3226 2324.27 27.2522C2322.11 32.1818 2321.53 37.8677 2323.04 43.0751C2324.53 48.2519 2328.1 53.0448 2334.4 56.2168L2386.28 82.3486C2392.58 85.5206 2398.3 85.4106 2402.98 83.3436C2407.69 81.2643 2411.41 77.167 2413.58 72.2373C2415.74 67.3075 2416.32 61.6216 2414.81 56.4142C2413.32 51.2373 2409.75 46.4446 2403.45 43.2728ZM2403.93 42.1883L2403.9 42.2454L2403.93 42.1883Z" fill="#2C2525" stroke="black" stroke-width="2.37"/>
<path d="M2403.34 43.1208L2403.81 42.0356L2403.34 43.1208L2351.47 16.9746C2345.14 13.7807 2339.51 13.6344 2335.02 15.3016C2330.52 16.975 2327.07 20.5088 2325.16 24.8435C2323.26 29.1782 2322.92 34.2777 2324.59 39.0618C2326.25 43.8282 2329.94 48.3793 2336.28 51.5735L2388.14 77.7195C2394.48 80.9136 2400.11 81.0599 2404.6 79.3927C2409.1 77.7193 2412.55 74.1854 2414.45 69.8506C2416.36 65.5158 2416.7 60.4162 2415.03 55.6321C2413.37 50.8656 2409.68 46.3147 2403.34 43.1208Z" fill="#757087" stroke="black" stroke-width="2.37"/>
<path d="M2361.17 64.1545L2376.37 29.5318L2351.48 16.9846C2345.15 13.7887 2339.52 13.6423 2335.03 15.3106C2330.52 16.9851 2327.07 20.5212 2325.16 24.8588C2323.26 29.1964 2322.92 34.2992 2324.59 39.0864C2326.25 43.856 2329.94 48.4099 2336.28 51.6061L2361.17 64.1545Z" fill="#222C33" stroke="#222C33" stroke-width="2.37"/>
<path d="M2748.12 56.8199L2722.75 69.723L2705.25 29.5302L2730.63 16.6273C2737.06 13.3542 2742.95 13.4314 2747.78 15.5587C2752.61 17.6911 2756.41 21.8992 2758.61 26.9421C2760.8 31.985 2761.38 37.8307 2759.82 43.2174C2758.26 48.5914 2754.56 53.5465 2748.12 56.8199Z" fill="#10BA90" stroke="black"/>
<path d="M2678.94 42.7491L2678.74 42.2908L2678.94 42.7491L2730.5 16.5391C2736.92 13.2724 2742.81 13.3576 2747.63 15.4931C2752.47 17.6338 2756.27 21.8506 2758.47 26.9009C2760.67 31.9512 2761.25 37.8027 2759.69 43.1917C2758.14 48.5678 2754.45 53.5214 2748.02 56.7884L2696.46 82.9982C2690.04 86.2651 2684.15 86.18 2679.33 84.0445C2674.5 81.9038 2670.7 77.6868 2668.5 72.6364C2666.3 67.586 2665.71 61.7344 2667.27 56.3454C2668.82 50.9693 2672.51 46.0158 2678.94 42.7491Z" fill="#10BA90" stroke="black"/>
<path d="M2679.06 42.6137L2730.6 16.3931C2737.04 13.1164 2742.82 12.9314 2747.45 14.6558C2752.1 16.3827 2755.64 20.0386 2757.59 24.5149C2759.53 28.9912 2759.88 34.2724 2758.15 39.2408C2756.42 44.2018 2752.61 48.8923 2746.17 52.1693L2694.63 78.3897C2688.18 81.6667 2682.41 81.8516 2677.77 80.1273C2673.13 78.4004 2669.59 74.7443 2667.64 70.2679C2665.69 65.7915 2665.35 60.5102 2667.08 55.5418C2668.8 50.5808 2672.62 45.8904 2679.06 42.6137Z" fill="#5BF1CD" stroke="black"/>
<path d="M2720.77 65.1594L2705.19 29.3292L2730.54 16.4268C2736.98 13.1453 2742.76 12.9601 2747.4 14.6869C2752.05 16.4164 2755.6 20.0779 2757.55 24.5609C2759.5 29.0439 2759.84 34.3329 2758.11 39.3088C2756.38 44.2771 2752.57 48.9746 2746.12 52.2564L2720.77 65.1594Z" fill="#02E2AC" stroke="black"/>
<path d="M2749.58 56.384C2754.64 53.7287 2758.53 49.0151 2760.38 43.2764C2762.23 37.5377 2761.89 31.2419 2759.44 25.7687C2756.97 20.305 2752.6 16.1179 2747.27 14.1252C2741.95 12.1324 2736.11 12.4966 2731.03 15.1378L2704.22 29.1894L2722.76 70.4357L2749.58 56.384Z" fill="#02E2AC" stroke="#0E0333" stroke-width="2.37141" stroke-miterlimit="10" stroke-linejoin="round"/>
<path d="M2704.23 29.178L2677.44 43.169C2672.37 45.8243 2668.49 50.5379 2666.64 56.2766C2664.79 62.0153 2665.12 68.3111 2667.57 73.7843V73.7843C2670.04 79.248 2674.42 83.4351 2679.74 85.4278C2685.07 87.4206 2690.91 87.0564 2695.98 84.4152L2722.77 70.4243L2704.23 29.178Z" fill="#5BF1CD" stroke="#0E0333" stroke-width="2.37141" stroke-miterlimit="10" stroke-linejoin="round"/>
<path d="M2757.57 22.3997C2758.94 27.5925 2758.58 33.1429 2756.54 38.0746C2754.5 43.0062 2750.91 47.0034 2746.4 49.363L2719.62 63.3539L2722.78 70.4126L2749.56 56.4217C2754.63 53.7663 2758.52 49.0528 2760.37 43.3141C2762.22 37.5754 2761.88 31.2795 2759.43 25.8064C2758.9 24.6141 2758.28 23.4742 2757.57 22.3997V22.3997Z" fill="#11BC92" stroke="#0E0333" stroke-width="2.37141" stroke-miterlimit="10" stroke-linejoin="round"/>
<path d="M2719.63 63.3297L2692.82 77.3144C2688.32 79.6591 2683.19 80.2171 2678.33 78.8905C2673.48 77.5638 2669.22 74.4373 2666.29 70.0598C2666.64 71.3179 2667.08 72.5459 2667.6 73.7331V73.7331C2670.06 79.1968 2674.44 83.3839 2679.76 85.3766C2685.09 87.3694 2690.93 87.0053 2696 84.364L2722.79 70.3732L2719.63 63.3145L2719.63 63.3297Z" fill="#11BC92" stroke="#0E0333" stroke-width="2.37141" stroke-miterlimit="10" stroke-linejoin="round"/>
<path d="M2584.17 68.7261L2601.3 29.7407L2576.4 17.1942C2570.09 14.0184 2564.36 14.1209 2559.69 16.1783C2554.98 18.2476 2551.26 22.3325 2549.1 27.2499C2546.94 32.1672 2546.37 37.8419 2547.88 43.0423C2549.38 48.2125 2552.96 53.0034 2559.27 56.1794L2584.17 68.7261Z" fill="#10BA90" stroke="black" stroke-width="2.37"/>
<path d="M2628.45 43.2728L2628.45 43.2728L2576.57 17.1408C2570.27 13.9691 2564.55 14.0791 2559.87 16.1461C2555.17 18.2254 2551.44 22.3226 2549.27 27.2522C2547.11 32.1818 2546.53 37.8677 2548.04 43.0751C2549.53 48.2519 2553.1 53.0448 2559.4 56.2168L2611.28 82.3486C2617.58 85.5206 2623.3 85.4106 2627.98 83.3436C2632.69 81.2643 2636.41 77.167 2638.58 72.2373C2640.74 67.3075 2641.32 61.6216 2639.81 56.4142C2638.32 51.2373 2634.75 46.4446 2628.45 43.2728ZM2628.93 42.1883L2628.9 42.2454L2628.93 42.1883Z" fill="#2C2525" stroke="black" stroke-width="2.37"/>
<path d="M2628.34 43.1208L2628.81 42.0356L2628.34 43.1208L2576.47 16.9746C2570.14 13.7807 2564.51 13.6344 2560.02 15.3016C2555.52 16.975 2552.07 20.5088 2550.16 24.8435C2548.26 29.1782 2547.92 34.2777 2549.59 39.0618C2551.25 43.8282 2554.94 48.3793 2561.28 51.5735L2613.14 77.7195C2619.48 80.9136 2625.11 81.0599 2629.6 79.3927C2634.1 77.7193 2637.55 74.1854 2639.45 69.8506C2641.36 65.5158 2641.7 60.4162 2640.03 55.6321C2638.37 50.8656 2634.68 46.3147 2628.34 43.1208Z" fill="#757087" stroke="black" stroke-width="2.37"/>
<path d="M2586.17 64.1545L2601.37 29.5318L2576.48 16.9846C2570.15 13.7887 2564.52 13.6423 2560.03 15.3106C2555.52 16.9851 2552.07 20.5212 2550.16 24.8588C2548.26 29.1964 2547.92 34.2992 2549.59 39.0864C2551.25 43.856 2554.94 48.4099 2561.28 51.6061L2586.17 64.1545Z" fill="#222C33" stroke="#222C33" stroke-width="2.37"/>
<path d="M2973.12 56.8199L2947.75 69.723L2930.25 29.5302L2955.63 16.6273C2962.06 13.3542 2967.95 13.4314 2972.78 15.5587C2977.61 17.6911 2981.41 21.8992 2983.61 26.9421C2985.8 31.985 2986.38 37.8307 2984.82 43.2174C2983.26 48.5914 2979.56 53.5465 2973.12 56.8199Z" fill="#10BA90" stroke="black"/>
<path d="M2903.94 42.7491L2903.74 42.2908L2903.94 42.7491L2955.5 16.5391C2961.92 13.2724 2967.81 13.3576 2972.63 15.4931C2977.47 17.6338 2981.27 21.8506 2983.47 26.9009C2985.67 31.9512 2986.25 37.8027 2984.69 43.1917C2983.14 48.5678 2979.45 53.5214 2973.02 56.7884L2921.46 82.9982C2915.04 86.2651 2909.15 86.18 2904.33 84.0445C2899.5 81.9038 2895.7 77.6868 2893.5 72.6364C2891.3 67.586 2890.71 61.7344 2892.27 56.3454C2893.82 50.9693 2897.51 46.0158 2903.94 42.7491Z" fill="#10BA90" stroke="black"/>
<path d="M2904.06 42.6137L2955.6 16.3931C2962.04 13.1164 2967.82 12.9314 2972.45 14.6558C2977.1 16.3827 2980.64 20.0386 2982.59 24.5149C2984.53 28.9912 2984.88 34.2724 2983.15 39.2408C2981.42 44.2018 2977.61 48.8923 2971.17 52.1693L2919.63 78.3897C2913.18 81.6667 2907.41 81.8516 2902.77 80.1273C2898.13 78.4004 2894.59 74.7443 2892.64 70.2679C2890.69 65.7915 2890.35 60.5102 2892.08 55.5418C2893.8 50.5808 2897.62 45.8904 2904.06 42.6137Z" fill="#5BF1CD" stroke="black"/>
<path d="M2945.77 65.1594L2930.19 29.3292L2955.54 16.4268C2961.98 13.1453 2967.76 12.9601 2972.4 14.6869C2977.05 16.4164 2980.6 20.0779 2982.55 24.5609C2984.5 29.0439 2984.84 34.3329 2983.11 39.3088C2981.38 44.2771 2977.57 48.9746 2971.12 52.2564L2945.77 65.1594Z" fill="#02E2AC" stroke="black"/>
<path d="M2974.58 56.384C2979.64 53.7287 2983.53 49.0151 2985.38 43.2764C2987.23 37.5377 2986.89 31.2419 2984.44 25.7687C2981.97 20.305 2977.6 16.1179 2972.27 14.1252C2966.95 12.1324 2961.11 12.4966 2956.03 15.1378L2929.22 29.1894L2947.76 70.4357L2974.58 56.384Z" fill="#02E2AC" stroke="#0E0333" stroke-width="2.37141" stroke-miterlimit="10" stroke-linejoin="round"/>
<path d="M2929.23 29.178L2902.44 43.169C2897.37 45.8243 2893.49 50.5379 2891.64 56.2766C2889.79 62.0153 2890.12 68.3111 2892.57 73.7843V73.7843C2895.04 79.248 2899.42 83.4351 2904.74 85.4278C2910.07 87.4206 2915.91 87.0564 2920.98 84.4152L2947.77 70.4243L2929.23 29.178Z" fill="#5BF1CD" stroke="#0E0333" stroke-width="2.37141" stroke-miterlimit="10" stroke-linejoin="round"/>
<path d="M2982.57 22.3997C2983.94 27.5925 2983.58 33.1429 2981.54 38.0746C2979.5 43.0062 2975.91 47.0034 2971.4 49.363L2944.62 63.3539L2947.78 70.4126L2974.56 56.4217C2979.63 53.7663 2983.52 49.0528 2985.37 43.3141C2987.22 37.5754 2986.88 31.2795 2984.43 25.8064C2983.9 24.6141 2983.28 23.4742 2982.57 22.3997V22.3997Z" fill="#11BC92" stroke="#0E0333" stroke-width="2.37141" stroke-miterlimit="10" stroke-linejoin="round"/>
<path d="M2944.63 63.3297L2917.82 77.3144C2913.32 79.6591 2908.19 80.2171 2903.33 78.8905C2898.48 77.5638 2894.22 74.4373 2891.29 70.0598C2891.64 71.3179 2892.08 72.5459 2892.6 73.7331V73.7331C2895.06 79.1968 2899.44 83.3839 2904.76 85.3766C2910.09 87.3694 2915.93 87.0053 2921 84.364L2947.79 70.3732L2944.63 63.3145L2944.63 63.3297Z" fill="#11BC92" stroke="#0E0333" stroke-width="2.37141" stroke-miterlimit="10" stroke-linejoin="round"/>
<path d="M2809.17 68.7261L2826.3 29.7407L2801.4 17.1942C2795.09 14.0184 2789.36 14.1209 2784.69 16.1783C2779.98 18.2476 2776.26 22.3325 2774.1 27.2499C2771.94 32.1672 2771.37 37.8419 2772.88 43.0423C2774.38 48.2125 2777.96 53.0034 2784.27 56.1794L2809.17 68.7261Z" fill="#10BA90" stroke="black" stroke-width="2.37"/>
<path d="M2853.45 43.2728L2853.45 43.2728L2801.57 17.1408C2795.27 13.9691 2789.55 14.0791 2784.87 16.1461C2780.17 18.2254 2776.44 22.3226 2774.27 27.2522C2772.11 32.1818 2771.53 37.8677 2773.04 43.0751C2774.53 48.2519 2778.1 53.0448 2784.4 56.2168L2836.28 82.3486C2842.58 85.5206 2848.3 85.4106 2852.98 83.3436C2857.69 81.2643 2861.41 77.167 2863.58 72.2373C2865.74 67.3075 2866.32 61.6216 2864.81 56.4142C2863.32 51.2373 2859.75 46.4446 2853.45 43.2728ZM2853.93 42.1883L2853.9 42.2454L2853.93 42.1883Z" fill="#2C2525" stroke="black" stroke-width="2.37"/>
<path d="M2853.34 43.1208L2853.81 42.0356L2853.34 43.1208L2801.47 16.9746C2795.14 13.7807 2789.51 13.6344 2785.02 15.3016C2780.52 16.975 2777.07 20.5088 2775.16 24.8435C2773.26 29.1782 2772.92 34.2777 2774.59 39.0618C2776.25 43.8282 2779.94 48.3793 2786.28 51.5735L2838.14 77.7195C2844.48 80.9136 2850.11 81.0599 2854.6 79.3927C2859.1 77.7193 2862.55 74.1854 2864.45 69.8506C2866.36 65.5158 2866.7 60.4162 2865.03 55.6321C2863.37 50.8656 2859.68 46.3147 2853.34 43.1208Z" fill="#757087" stroke="black" stroke-width="2.37"/>
<path d="M2811.17 64.1545L2826.37 29.5318L2801.48 16.9846C2795.15 13.7887 2789.52 13.6423 2785.03 15.3106C2780.52 16.9851 2777.07 20.5212 2775.16 24.8588C2773.26 29.1964 2772.92 34.2992 2774.59 39.0864C2776.25 43.856 2779.94 48.4099 2786.28 51.6061L2811.17 64.1545Z" fill="#222C33" stroke="#222C33" stroke-width="2.37"/>
<path d="M3198.12 56.8199L3172.75 69.723L3155.25 29.5302L3180.63 16.6273C3187.06 13.3542 3192.95 13.4314 3197.78 15.5587C3202.61 17.6911 3206.41 21.8992 3208.61 26.9421C3210.8 31.985 3211.38 37.8307 3209.82 43.2174C3208.26 48.5914 3204.56 53.5465 3198.12 56.8199Z" fill="#10BA90" stroke="black"/>
<path d="M3128.94 42.7491L3128.74 42.2908L3128.94 42.7491L3180.5 16.5391C3186.92 13.2724 3192.81 13.3576 3197.63 15.4931C3202.47 17.6338 3206.27 21.8506 3208.47 26.9009C3210.67 31.9512 3211.25 37.8027 3209.69 43.1917C3208.14 48.5678 3204.45 53.5214 3198.02 56.7884L3146.46 82.9982C3140.04 86.2651 3134.15 86.18 3129.33 84.0445C3124.5 81.9038 3120.7 77.6868 3118.5 72.6364C3116.3 67.586 3115.71 61.7344 3117.27 56.3454C3118.82 50.9693 3122.51 46.0158 3128.94 42.7491Z" fill="#10BA90" stroke="black"/>
<path d="M3129.06 42.6137L3180.6 16.3931C3187.04 13.1164 3192.82 12.9314 3197.45 14.6558C3202.1 16.3827 3205.64 20.0386 3207.59 24.5149C3209.53 28.9912 3209.88 34.2724 3208.15 39.2408C3206.42 44.2018 3202.61 48.8923 3196.17 52.1693L3144.63 78.3897C3138.18 81.6667 3132.41 81.8516 3127.77 80.1273C3123.13 78.4004 3119.59 74.7443 3117.64 70.2679C3115.69 65.7915 3115.35 60.5102 3117.08 55.5418C3118.8 50.5808 3122.62 45.8904 3129.06 42.6137Z" fill="#5BF1CD" stroke="black"/>
<path d="M3170.77 65.1594L3155.19 29.3292L3180.54 16.4268C3186.98 13.1453 3192.76 12.9601 3197.4 14.6869C3202.05 16.4164 3205.6 20.0779 3207.55 24.5609C3209.5 29.0439 3209.84 34.3329 3208.11 39.3088C3206.38 44.2771 3202.57 48.9746 3196.12 52.2564L3170.77 65.1594Z" fill="#02E2AC" stroke="black"/>
<path d="M3199.58 56.384C3204.64 53.7287 3208.53 49.0151 3210.38 43.2764C3212.23 37.5377 3211.89 31.2419 3209.44 25.7687C3206.97 20.305 3202.6 16.1179 3197.27 14.1252C3191.95 12.1324 3186.11 12.4966 3181.03 15.1378L3154.22 29.1894L3172.76 70.4357L3199.58 56.384Z" fill="#02E2AC" stroke="#0E0333" stroke-width="2.37141" stroke-miterlimit="10" stroke-linejoin="round"/>
<path d="M3154.23 29.178L3127.44 43.169C3122.37 45.8243 3118.49 50.5379 3116.64 56.2766C3114.79 62.0153 3115.12 68.3111 3117.57 73.7843V73.7843C3120.04 79.248 3124.42 83.4351 3129.74 85.4278C3135.07 87.4206 3140.91 87.0564 3145.98 84.4152L3172.77 70.4243L3154.23 29.178Z" fill="#5BF1CD" stroke="#0E0333" stroke-width="2.37141" stroke-miterlimit="10" stroke-linejoin="round"/>
<path d="M3207.57 22.3997C3208.94 27.5925 3208.58 33.1429 3206.54 38.0746C3204.5 43.0062 3200.91 47.0034 3196.4 49.363L3169.62 63.3539L3172.78 70.4126L3199.56 56.4217C3204.63 53.7663 3208.52 49.0528 3210.37 43.3141C3212.22 37.5754 3211.88 31.2795 3209.43 25.8064C3208.9 24.6141 3208.28 23.4742 3207.57 22.3997V22.3997Z" fill="#11BC92" stroke="#0E0333" stroke-width="2.37141" stroke-miterlimit="10" stroke-linejoin="round"/>
<path d="M3169.63 63.3297L3142.82 77.3144C3138.32 79.6591 3133.19 80.2171 3128.33 78.8905C3123.48 77.5638 3119.22 74.4373 3116.29 70.0598C3116.64 71.3179 3117.08 72.5459 3117.6 73.7331V73.7331C3120.06 79.1968 3124.44 83.3839 3129.76 85.3766C3135.09 87.3694 3140.93 87.0053 3146 84.364L3172.79 70.3732L3169.63 63.3145L3169.63 63.3297Z" fill="#11BC92" stroke="#0E0333" stroke-width="2.37141" stroke-miterlimit="10" stroke-linejoin="round"/>
<path d="M3034.17 68.7261L3051.3 29.7407L3026.4 17.1942C3020.09 14.0184 3014.36 14.1209 3009.69 16.1783C3004.98 18.2476 3001.26 22.3325 2999.1 27.2499C2996.94 32.1672 2996.37 37.8419 2997.88 43.0423C2999.38 48.2125 3002.96 53.0034 3009.27 56.1794L3034.17 68.7261Z" fill="#10BA90" stroke="black" stroke-width="2.37"/>
<path d="M3078.45 43.2728L3078.45 43.2728L3026.57 17.1408C3020.27 13.9691 3014.55 14.0791 3009.87 16.1461C3005.17 18.2254 3001.44 22.3226 2999.27 27.2522C2997.11 32.1818 2996.53 37.8677 2998.04 43.0751C2999.53 48.2519 3003.1 53.0448 3009.4 56.2168L3061.28 82.3486C3067.58 85.5206 3073.3 85.4106 3077.98 83.3436C3082.69 81.2643 3086.41 77.167 3088.58 72.2373C3090.74 67.3075 3091.32 61.6216 3089.81 56.4142C3088.32 51.2373 3084.75 46.4446 3078.45 43.2728ZM3078.93 42.1883L3078.9 42.2454L3078.93 42.1883Z" fill="#2C2525" stroke="black" stroke-width="2.37"/>
<path d="M3078.34 43.1208L3078.81 42.0356L3078.34 43.1208L3026.47 16.9746C3020.14 13.7807 3014.51 13.6344 3010.02 15.3016C3005.52 16.975 3002.07 20.5088 3000.16 24.8435C2998.26 29.1782 2997.92 34.2777 2999.59 39.0618C3001.25 43.8282 3004.94 48.3793 3011.28 51.5735L3063.14 77.7195C3069.48 80.9136 3075.11 81.0599 3079.6 79.3927C3084.1 77.7193 3087.55 74.1854 3089.45 69.8506C3091.36 65.5158 3091.7 60.4162 3090.03 55.6321C3088.37 50.8656 3084.68 46.3147 3078.34 43.1208Z" fill="#757087" stroke="black" stroke-width="2.37"/>
<path d="M3036.17 64.1545L3051.37 29.5318L3026.48 16.9846C3020.15 13.7887 3014.52 13.6423 3010.03 15.3106C3005.52 16.9851 3002.07 20.5212 3000.16 24.8588C2998.26 29.1964 2997.92 34.2992 2999.59 39.0864C3001.25 43.856 3004.94 48.4099 3011.28 51.6061L3036.17 64.1545Z" fill="#222C33" stroke="#222C33" stroke-width="2.37"/>
<path d="M3423.12 56.8199L3397.75 69.723L3380.25 29.5302L3405.63 16.6273C3412.06 13.3542 3417.95 13.4314 3422.78 15.5587C3427.61 17.6911 3431.41 21.8992 3433.61 26.9421C3435.8 31.985 3436.38 37.8307 3434.82 43.2174C3433.26 48.5914 3429.56 53.5465 3423.12 56.8199Z" fill="#10BA90" stroke="black"/>
<path d="M3353.94 42.7491L3353.74 42.2908L3353.94 42.7491L3405.5 16.5391C3411.92 13.2724 3417.81 13.3576 3422.63 15.4931C3427.47 17.6338 3431.27 21.8506 3433.47 26.9009C3435.67 31.9512 3436.25 37.8027 3434.69 43.1917C3433.14 48.5678 3429.45 53.5214 3423.02 56.7884L3371.46 82.9982C3365.04 86.2651 3359.15 86.18 3354.33 84.0445C3349.5 81.9038 3345.7 77.6868 3343.5 72.6364C3341.3 67.586 3340.71 61.7344 3342.27 56.3454C3343.82 50.9693 3347.51 46.0158 3353.94 42.7491Z" fill="#10BA90" stroke="black"/>
<path d="M3354.06 42.6137L3405.6 16.3931C3412.04 13.1164 3417.82 12.9314 3422.45 14.6558C3427.1 16.3827 3430.64 20.0386 3432.59 24.5149C3434.53 28.9912 3434.88 34.2724 3433.15 39.2408C3431.42 44.2018 3427.61 48.8923 3421.17 52.1693L3369.63 78.3897C3363.18 81.6667 3357.41 81.8516 3352.77 80.1273C3348.13 78.4004 3344.59 74.7443 3342.64 70.2679C3340.69 65.7915 3340.35 60.5102 3342.08 55.5418C3343.8 50.5808 3347.62 45.8904 3354.06 42.6137Z" fill="#5BF1CD" stroke="black"/>
<path d="M3395.77 65.1594L3380.19 29.3292L3405.54 16.4268C3411.98 13.1453 3417.76 12.9601 3422.4 14.6869C3427.05 16.4164 3430.6 20.0779 3432.55 24.5609C3434.5 29.0439 3434.84 34.3329 3433.11 39.3088C3431.38 44.2771 3427.57 48.9746 3421.12 52.2564L3395.77 65.1594Z" fill="#02E2AC" stroke="black"/>
<path d="M3424.58 56.384C3429.64 53.7287 3433.53 49.0151 3435.38 43.2764C3437.23 37.5377 3436.89 31.2419 3434.44 25.7687C3431.97 20.305 3427.6 16.1179 3422.27 14.1252C3416.95 12.1324 3411.11 12.4966 3406.03 15.1378L3379.22 29.1894L3397.76 70.4357L3424.58 56.384Z" fill="#02E2AC" stroke="#0E0333" stroke-width="2.37141" stroke-miterlimit="10" stroke-linejoin="round"/>
<path d="M3379.23 29.178L3352.44 43.169C3347.37 45.8243 3343.49 50.5379 3341.64 56.2766C3339.79 62.0153 3340.12 68.3111 3342.57 73.7843V73.7843C3345.04 79.248 3349.42 83.4351 3354.74 85.4278C3360.07 87.4206 3365.91 87.0564 3370.98 84.4152L3397.77 70.4243L3379.23 29.178Z" fill="#5BF1CD" stroke="#0E0333" stroke-width="2.37141" stroke-miterlimit="10" stroke-linejoin="round"/>
<path d="M3432.57 22.3997C3433.94 27.5925 3433.58 33.1429 3431.54 38.0746C3429.5 43.0062 3425.91 47.0034 3421.4 49.363L3394.62 63.3539L3397.78 70.4126L3424.56 56.4217C3429.63 53.7663 3433.52 49.0528 3435.37 43.3141C3437.22 37.5754 3436.88 31.2795 3434.43 25.8064C3433.9 24.6141 3433.28 23.4742 3432.57 22.3997V22.3997Z" fill="#11BC92" stroke="#0E0333" stroke-width="2.37141" stroke-miterlimit="10" stroke-linejoin="round"/>
<path d="M3394.63 63.3297L3367.82 77.3144C3363.32 79.6591 3358.19 80.2171 3353.33 78.8905C3348.48 77.5638 3344.22 74.4373 3341.29 70.0598C3341.64 71.3179 3342.08 72.5459 3342.6 73.7331V73.7331C3345.06 79.1968 3349.44 83.3839 3354.76 85.3766C3360.09 87.3694 3365.93 87.0053 3371 84.364L3397.79 70.3732L3394.63 63.3145L3394.63 63.3297Z" fill="#11BC92" stroke="#0E0333" stroke-width="2.37141" stroke-miterlimit="10" stroke-linejoin="round"/>
<path d="M3259.17 68.7261L3276.3 29.7407L3251.4 17.1942C3245.09 14.0184 3239.36 14.1209 3234.69 16.1783C3229.98 18.2476 3226.26 22.3325 3224.1 27.2499C3221.94 32.1672 3221.37 37.8419 3222.88 43.0423C3224.38 48.2125 3227.96 53.0034 3234.27 56.1794L3259.17 68.7261Z" fill="#10BA90" stroke="black" stroke-width="2.37"/>
<path d="M3303.45 43.2728L3303.45 43.2728L3251.57 17.1408C3245.27 13.9691 3239.55 14.0791 3234.87 16.1461C3230.17 18.2254 3226.44 22.3226 3224.27 27.2522C3222.11 32.1818 3221.53 37.8677 3223.04 43.0751C3224.53 48.2519 3228.1 53.0448 3234.4 56.2168L3286.28 82.3486C3292.58 85.5206 3298.3 85.4106 3302.98 83.3436C3307.69 81.2643 3311.41 77.167 3313.58 72.2373C3315.74 67.3075 3316.32 61.6216 3314.81 56.4142C3313.32 51.2373 3309.75 46.4446 3303.45 43.2728ZM3303.93 42.1883L3303.9 42.2454L3303.93 42.1883Z" fill="#2C2525" stroke="black" stroke-width="2.37"/>
<path d="M3303.34 43.1208L3303.81 42.0356L3303.34 43.1208L3251.47 16.9746C3245.14 13.7807 3239.51 13.6344 3235.02 15.3016C3230.52 16.975 3227.07 20.5088 3225.16 24.8435C3223.26 29.1782 3222.92 34.2777 3224.59 39.0618C3226.25 43.8282 3229.94 48.3793 3236.28 51.5735L3288.14 77.7195C3294.48 80.9136 3300.11 81.0599 3304.6 79.3927C3309.1 77.7193 3312.55 74.1854 3314.45 69.8506C3316.36 65.5158 3316.7 60.4162 3315.03 55.6321C3313.37 50.8656 3309.68 46.3147 3303.34 43.1208Z" fill="#757087" stroke="black" stroke-width="2.37"/>
<path d="M3261.17 64.1545L3276.37 29.5318L3251.48 16.9846C3245.15 13.7887 3239.52 13.6423 3235.03 15.3106C3230.52 16.9851 3227.07 20.5212 3225.16 24.8588C3223.26 29.1964 3222.92 34.2992 3224.59 39.0864C3226.25 43.856 3229.94 48.4099 3236.28 51.6061L3261.17 64.1545Z" fill="#222C33" stroke="#222C33" stroke-width="2.37"/>
<path d="M3648.12 56.8199L3622.75 69.723L3605.25 29.5302L3630.63 16.6273C3637.06 13.3542 3642.95 13.4314 3647.78 15.5587C3652.61 17.6911 3656.41 21.8992 3658.61 26.9421C3660.8 31.985 3661.38 37.8307 3659.82 43.2174C3658.26 48.5914 3654.56 53.5465 3648.12 56.8199Z" fill="#10BA90" stroke="black"/>
<path d="M3578.94 42.7491L3578.74 42.2908L3578.94 42.7491L3630.5 16.5391C3636.92 13.2724 3642.81 13.3576 3647.63 15.4931C3652.47 17.6338 3656.27 21.8506 3658.47 26.9009C3660.67 31.9512 3661.25 37.8027 3659.69 43.1917C3658.14 48.5678 3654.45 53.5214 3648.02 56.7884L3596.46 82.9982C3590.04 86.2651 3584.15 86.18 3579.33 84.0445C3574.5 81.9038 3570.7 77.6868 3568.5 72.6364C3566.3 67.586 3565.71 61.7344 3567.27 56.3454C3568.82 50.9693 3572.51 46.0158 3578.94 42.7491Z" fill="#10BA90" stroke="black"/>
<path d="M3579.06 42.6137L3630.6 16.3931C3637.04 13.1164 3642.82 12.9314 3647.45 14.6558C3652.1 16.3827 3655.64 20.0386 3657.59 24.5149C3659.53 28.9912 3659.88 34.2724 3658.15 39.2408C3656.42 44.2018 3652.61 48.8923 3646.17 52.1693L3594.63 78.3897C3588.18 81.6667 3582.41 81.8516 3577.77 80.1273C3573.13 78.4004 3569.59 74.7443 3567.64 70.2679C3565.69 65.7915 3565.35 60.5102 3567.08 55.5418C3568.8 50.5808 3572.62 45.8904 3579.06 42.6137Z" fill="#5BF1CD" stroke="black"/>
<path d="M3620.77 65.1594L3605.19 29.3292L3630.54 16.4268C3636.98 13.1453 3642.76 12.9601 3647.4 14.6869C3652.05 16.4164 3655.6 20.0779 3657.55 24.5609C3659.5 29.0439 3659.84 34.3329 3658.11 39.3088C3656.38 44.2771 3652.57 48.9746 3646.12 52.2564L3620.77 65.1594Z" fill="#02E2AC" stroke="black"/>
<path d="M3649.58 56.384C3654.64 53.7287 3658.53 49.0151 3660.38 43.2764C3662.23 37.5377 3661.89 31.2419 3659.44 25.7687C3656.97 20.305 3652.6 16.1179 3647.27 14.1252C3641.95 12.1324 3636.11 12.4966 3631.03 15.1378L3604.22 29.1894L3622.76 70.4357L3649.58 56.384Z" fill="#02E2AC" stroke="#0E0333" stroke-width="2.37141" stroke-miterlimit="10" stroke-linejoin="round"/>
<path d="M3604.23 29.178L3577.44 43.169C3572.37 45.8243 3568.49 50.5379 3566.64 56.2766C3564.79 62.0153 3565.12 68.3111 3567.57 73.7843V73.7843C3570.04 79.248 3574.42 83.4351 3579.74 85.4278C3585.07 87.4206 3590.91 87.0564 3595.98 84.4152L3622.77 70.4243L3604.23 29.178Z" fill="#5BF1CD" stroke="#0E0333" stroke-width="2.37141" stroke-miterlimit="10" stroke-linejoin="round"/>
<path d="M3657.57 22.3997C3658.94 27.5925 3658.58 33.1429 3656.54 38.0746C3654.5 43.0062 3650.91 47.0034 3646.4 49.363L3619.62 63.3539L3622.78 70.4126L3649.56 56.4217C3654.63 53.7663 3658.52 49.0528 3660.37 43.3141C3662.22 37.5754 3661.88 31.2795 3659.43 25.8064C3658.9 24.6141 3658.28 23.4742 3657.57 22.3997V22.3997Z" fill="#11BC92" stroke="#0E0333" stroke-width="2.37141" stroke-miterlimit="10" stroke-linejoin="round"/>
<path d="M3619.63 63.3297L3592.82 77.3144C3588.32 79.6591 3583.19 80.2171 3578.33 78.8905C3573.48 77.5638 3569.22 74.4373 3566.29 70.0598C3566.64 71.3179 3567.08 72.5459 3567.6 73.7331V73.7331C3570.06 79.1968 3574.44 83.3839 3579.76 85.3766C3585.09 87.3694 3590.93 87.0053 3596 84.364L3622.79 70.3732L3619.63 63.3145L3619.63 63.3297Z" fill="#11BC92" stroke="#0E0333" stroke-width="2.37141" stroke-miterlimit="10" stroke-linejoin="round"/>
<path d="M3484.17 68.7261L3501.3 29.7407L3476.4 17.1942C3470.09 14.0184 3464.36 14.1209 3459.69 16.1783C3454.98 18.2476 3451.26 22.3325 3449.1 27.2499C3446.94 32.1672 3446.37 37.8419 3447.88 43.0423C3449.38 48.2125 3452.96 53.0034 3459.27 56.1794L3484.17 68.7261Z" fill="#10BA90" stroke="black" stroke-width="2.37"/>
<path d="M3528.45 43.2728L3528.45 43.2728L3476.57 17.1408C3470.27 13.9691 3464.55 14.0791 3459.87 16.1461C3455.17 18.2254 3451.44 22.3226 3449.27 27.2522C3447.11 32.1818 3446.53 37.8677 3448.04 43.0751C3449.53 48.2519 3453.1 53.0448 3459.4 56.2168L3511.28 82.3486C3517.58 85.5206 3523.3 85.4106 3527.98 83.3436C3532.69 81.2643 3536.41 77.167 3538.58 72.2373C3540.74 67.3075 3541.32 61.6216 3539.81 56.4142C3538.32 51.2373 3534.75 46.4446 3528.45 43.2728ZM3528.93 42.1883L3528.9 42.2454L3528.93 42.1883Z" fill="#2C2525" stroke="black" stroke-width="2.37"/>
<path d="M3528.34 43.1208L3528.81 42.0356L3528.34 43.1208L3476.47 16.9746C3470.14 13.7807 3464.51 13.6344 3460.02 15.3016C3455.52 16.975 3452.07 20.5088 3450.16 24.8435C3448.26 29.1782 3447.92 34.2777 3449.59 39.0618C3451.25 43.8282 3454.94 48.3793 3461.28 51.5735L3513.14 77.7195C3519.48 80.9136 3525.11 81.0599 3529.6 79.3927C3534.1 77.7193 3537.55 74.1854 3539.45 69.8506C3541.36 65.5158 3541.7 60.4162 3540.03 55.6321C3538.37 50.8656 3534.68 46.3147 3528.34 43.1208Z" fill="#757087" stroke="black" stroke-width="2.37"/>
<path d="M3486.17 64.1545L3501.37 29.5318L3476.48 16.9846C3470.15 13.7887 3464.52 13.6423 3460.03 15.3106C3455.52 16.9851 3452.07 20.5212 3450.16 24.8588C3448.26 29.1964 3447.92 34.2992 3449.59 39.0864C3451.25 43.856 3454.94 48.4099 3461.28 51.6061L3486.17 64.1545Z" fill="#222C33" stroke="#222C33" stroke-width="2.37"/>
<path d="M439.608 56.8551L414.043 69.7114L396.313 29.4301L421.878 16.574C428.363 13.3126 434.306 13.4043 439.177 15.5458C444.059 17.6925 447.899 21.9146 450.123 26.9683C452.348 32.022 452.943 37.8756 451.378 43.2649C449.816 48.6413 446.093 53.5934 439.608 56.8551Z" fill="#10BA90" stroke="black"/>
<path d="M369.713 42.6517L421.694 16.5135C428.173 13.2553 434.114 13.3549 438.987 15.5068C443.871 17.6639 447.715 21.899 449.946 26.9652C452.176 32.0315 452.778 37.8969 451.219 43.2938C449.664 48.6779 445.948 53.6334 439.468 56.8919L387.487 83.0299C381.007 86.2883 375.066 86.1887 370.193 84.0367C365.309 81.8796 361.465 77.6445 359.235 72.5781C357.005 67.5117 356.403 61.6463 357.962 56.2493C359.517 50.8653 363.233 45.9098 369.713 42.6517Z" fill="#10BA90" stroke="black"/>
<path d="M369.832 42.5302L421.804 16.3772C428.299 13.1085 434.126 12.9372 438.811 14.6769C443.502 16.4192 447.085 20.0923 449.061 24.5836C451.036 29.0749 451.398 34.3692 449.662 39.3452C447.929 44.3137 444.091 49.006 437.595 52.275L385.623 78.4278C379.127 81.6967 373.3 81.8681 368.616 80.1283C363.925 78.386 360.341 74.7128 358.366 70.2214C356.39 65.73 356.03 60.4356 357.765 55.4596C359.498 50.4911 363.336 45.7988 369.832 42.5302Z" fill="#5BF1CD" stroke="black"/>
<path d="M412.063 65.1443L396.268 29.2291L421.815 16.3716C428.312 13.1014 434.141 12.93 438.826 14.6705C443.519 16.4136 447.104 20.0884 449.08 24.5819C451.056 29.0753 451.417 34.3721 449.681 39.3504C447.948 44.3212 444.108 49.0157 437.61 52.2862L412.063 65.1443Z" fill="#02E2AC" stroke="black"/>
<path d="M441.039 56.384C446.154 53.7286 450.074 49.0151 451.94 43.2764C453.806 37.5377 453.467 31.2419 450.995 25.7687C448.505 20.305 444.089 16.1179 438.715 14.1252C433.341 12.1324 427.448 12.4966 422.326 15.1378L395.269 29.1894L413.982 70.4357L441.039 56.384Z" fill="#02E2AC" stroke="#0E0333" stroke-width="2.37141" stroke-miterlimit="10" stroke-linejoin="round"/>
<path d="M395.27 29.178L368.237 43.169C363.122 45.8243 359.201 50.5379 357.335 56.2766C355.469 62.0153 355.809 68.3111 358.28 73.7843V73.7843C360.77 79.248 365.186 83.4351 370.56 85.4278C375.934 87.4206 381.827 87.0564 386.949 84.4152L413.983 70.4243L395.27 29.178Z" fill="#5BF1CD" stroke="#0E0333" stroke-width="2.37141" stroke-miterlimit="10" stroke-linejoin="round"/>
<path d="M449.101 22.3997C450.493 27.5925 450.127 33.1429 448.067 38.0746C446.007 43.0062 442.384 47.0034 437.837 49.363L410.804 63.3539L413.993 70.4126L441.026 56.4217C446.141 53.7663 450.062 49.0528 451.928 43.3141C453.794 37.5754 453.454 31.2795 450.983 25.8064C450.45 24.6141 449.821 23.4742 449.101 22.3997V22.3997Z" fill="#11BC92" stroke="#0E0333" stroke-width="2.37141" stroke-miterlimit="10" stroke-linejoin="round"/>
<path d="M410.814 63.3297L383.766 77.3144C379.218 79.6591 374.041 80.2171 369.144 78.8905C364.248 77.5638 359.945 74.4373 356.99 70.0598C357.341 71.3179 357.781 72.5459 358.306 73.7331V73.7331C360.796 79.1968 365.212 83.3839 370.586 85.3766C375.96 87.3694 381.854 87.0053 386.975 84.364L414.009 70.3732L410.82 63.3145L410.814 63.3297Z" fill="#11BC92" stroke="#0E0333" stroke-width="2.37141" stroke-miterlimit="10" stroke-linejoin="round"/>
<path d="M250.105 56.2953L275.249 68.7998L292.659 29.6819L267.515 17.1776C261.15 14.0121 255.358 14.1309 250.625 16.206C245.864 18.293 242.092 22.397 239.897 27.3304C237.701 32.2638 237.114 37.952 238.629 43.1597C240.134 48.3375 243.74 53.1296 250.105 56.2953Z" fill="#10BA90" stroke="black" stroke-width="2.37"/>
<path d="M320.126 43.2032L320.126 43.2031L267.723 17.1364C261.36 13.9712 255.566 14.0975 250.828 16.1847C246.061 18.2841 242.282 22.4054 240.078 27.3569C237.875 32.3085 237.281 38.0147 238.79 43.2357C240.29 48.4264 243.892 53.2262 250.256 56.3917L302.658 82.4583C309.022 85.6237 314.816 85.4974 319.554 83.4102C324.321 81.3107 328.1 77.1894 330.304 72.2377C332.507 67.286 333.1 61.5797 331.591 56.3587C330.091 51.168 326.489 46.3683 320.126 43.2032ZM320.608 42.1208L320.583 42.1777L320.608 42.1208Z" fill="#2C2525" stroke="black" stroke-width="2.37"/>
<path d="M320.014 43.057L267.616 16.9712C261.212 13.7835 255.519 13.6521 250.973 15.3381C246.411 17.0302 242.912 20.5864 240.976 24.9416C239.039 29.2968 238.681 34.4155 240.357 39.2126C242.027 43.9922 245.752 48.5497 252.156 51.7377L304.554 77.8233C310.958 81.0112 316.651 81.1426 321.197 79.4566C325.759 77.7645 329.258 74.2082 331.194 69.8529C333.13 65.4976 333.489 60.3788 331.812 55.5817C330.142 50.8021 326.417 46.2447 320.014 43.057Z" fill="#757087" stroke="black" stroke-width="2.37"/>
<path d="M277.276 64.2132L292.728 29.4651L267.599 16.9577C261.198 13.7717 255.507 13.6404 250.963 15.3254C246.402 17.0166 242.905 20.5708 240.969 24.9235C239.033 29.2762 238.675 34.392 240.351 39.1863C242.021 43.9633 245.744 48.5183 252.145 51.7046L277.276 64.2132Z" fill="#222C33" stroke="#222C33" stroke-width="2.37"/>
<path d="M1606.61 56.8551L1581.04 69.7114L1563.31 29.4301L1588.88 16.574C1595.36 13.3126 1601.31 13.4043 1606.18 15.5459C1611.06 17.6925 1614.9 21.9146 1617.12 26.9683C1619.35 32.022 1619.94 37.8757 1618.38 43.2649C1616.82 48.6414 1613.09 53.5935 1606.61 56.8551Z" fill="#10BA90" stroke="black"/>
<path d="M1536.71 42.6517L1588.69 16.5135C1595.17 13.2553 1601.11 13.3549 1605.99 15.5068C1610.87 17.6639 1614.72 21.899 1616.95 26.9652C1619.18 32.0315 1619.78 37.8969 1618.22 43.2938C1616.66 48.6779 1612.95 53.6334 1606.47 56.8919L1554.49 83.0299C1548.01 86.2883 1542.07 86.1887 1537.19 84.0368C1532.31 81.8797 1528.46 77.6445 1526.23 72.5781C1524 67.5117 1523.4 61.6463 1524.96 56.2493C1526.52 50.8653 1530.23 45.9099 1536.71 42.6517Z" fill="#10BA90" stroke="black"/>
<path d="M1536.83 42.5302L1536.63 42.0724L1536.83 42.5302L1588.8 16.3772C1595.3 13.1085 1601.13 12.9372 1605.81 14.6769C1610.5 16.4192 1614.09 20.0923 1616.06 24.5836C1618.04 29.0749 1618.4 34.3692 1616.66 39.3452C1614.93 44.3137 1611.09 49.0061 1604.59 52.275L1552.62 78.4278C1546.13 81.6967 1540.3 81.8681 1535.62 80.1283C1530.92 78.386 1527.34 74.7128 1525.37 70.2214C1523.39 65.73 1523.03 60.4356 1524.77 55.4596C1526.5 50.4911 1530.34 45.7988 1536.83 42.5302Z" fill="#5BF1CD" stroke="black"/>
<path d="M1579.06 65.1443L1563.27 29.2291L1588.81 16.3716C1595.31 13.1014 1601.14 12.93 1605.83 14.6705C1610.52 16.4136 1614.1 20.0884 1616.08 24.5819C1618.06 29.0753 1618.42 34.3721 1616.68 39.3504C1614.95 44.3212 1611.11 49.0158 1604.61 52.2862L1579.06 65.1443Z" fill="#02E2AC" stroke="black"/>
<path d="M1608.04 56.384C1613.15 53.7286 1617.07 49.0151 1618.94 43.2764C1620.81 37.5377 1620.47 31.2419 1618 25.7687C1615.51 20.305 1611.09 16.1179 1605.72 14.1252C1600.34 12.1324 1594.45 12.4966 1589.33 15.1378L1562.27 29.1894L1580.98 70.4357L1608.04 56.384Z" fill="#02E2AC" stroke="#0E0333" stroke-width="2.37141" stroke-miterlimit="10" stroke-linejoin="round"/>
<path d="M1562.27 29.178L1535.24 43.169C1530.12 45.8244 1526.2 50.5379 1524.34 56.2766C1522.47 62.0153 1522.81 68.3111 1525.28 73.7843V73.7843C1527.77 79.248 1532.19 83.4351 1537.56 85.4278C1542.93 87.4206 1548.83 87.0564 1553.95 84.4152L1580.98 70.4243L1562.27 29.178Z" fill="#5BF1CD" stroke="#0E0333" stroke-width="2.37141" stroke-miterlimit="10" stroke-linejoin="round"/>
<path d="M1616.1 22.3997C1617.49 27.5925 1617.13 33.1429 1615.07 38.0746C1613.01 43.0062 1609.38 47.0034 1604.84 49.363L1577.8 63.3539L1580.99 70.4126L1608.03 56.4217C1613.14 53.7663 1617.06 49.0528 1618.93 43.3141C1620.79 37.5754 1620.45 31.2795 1617.98 25.8064C1617.45 24.6141 1616.82 23.4742 1616.1 22.3997V22.3997Z" fill="#11BC92" stroke="#0E0333" stroke-width="2.37141" stroke-miterlimit="10" stroke-linejoin="round"/>
<path d="M1577.81 63.3297L1550.77 77.3144C1546.22 79.6591 1541.04 80.2171 1536.14 78.8905C1531.25 77.5638 1526.94 74.4373 1523.99 70.0598C1524.34 71.3179 1524.78 72.5459 1525.31 73.7331V73.7331C1527.8 79.1968 1532.21 83.3839 1537.59 85.3766C1542.96 87.3694 1548.85 87.0053 1553.98 84.364L1581.01 70.3732L1577.82 63.3145L1577.81 63.3297Z" fill="#11BC92" stroke="#0E0333" stroke-width="2.37141" stroke-miterlimit="10" stroke-linejoin="round"/>
<path d="M1417.95 56.2285L1442.9 68.7769L1460.08 29.7491L1435.13 17.2009C1428.81 14.0246 1423.07 14.1294 1418.38 16.1905C1413.67 18.2636 1409.94 22.3536 1407.77 27.2762C1405.6 32.1988 1405.03 37.8788 1406.55 43.0835C1408.05 48.2579 1411.63 53.0519 1417.95 56.2285Z" fill="#10BA90" stroke="black" stroke-width="2.37"/>
<path d="M1487.32 43.2785L1487.32 43.2785L1435.33 17.1404C1429.02 13.9676 1423.29 14.08 1418.6 16.1511C1413.88 18.2344 1410.14 22.3375 1407.97 27.2732C1405.8 32.2089 1405.22 37.901 1406.73 43.1135C1408.22 48.2955 1411.8 53.0923 1418.11 56.2653L1470.09 82.4033C1476.4 85.5762 1482.14 85.4639 1486.83 83.3927C1491.55 81.3094 1495.28 77.2062 1497.46 72.2704C1499.63 67.3347 1500.21 61.6424 1498.7 56.4299C1497.2 51.2479 1493.63 46.4512 1487.32 43.2785Z" fill="#2C2525" stroke="black" stroke-width="2.37"/>
<path d="M1487.18 43.1574L1487.63 42.1447L1487.18 43.1574L1435.21 17.0044C1428.86 13.8095 1423.22 13.6652 1418.72 15.336C1414.21 17.0131 1410.75 20.5522 1408.84 24.8924C1406.93 29.2326 1406.59 34.338 1408.26 39.1268C1409.92 43.8981 1413.62 48.4528 1419.97 51.648L1471.94 77.8008C1478.29 80.996 1483.93 81.1403 1488.43 79.4694C1492.94 77.7924 1496.4 74.2532 1498.31 69.9128C1500.22 65.5725 1500.56 60.4671 1498.89 55.6782C1497.23 50.907 1493.53 46.3523 1487.18 43.1574Z" fill="#757087" stroke="black" stroke-width="2.37"/>
<path d="M1444.91 64.2095L1460.15 29.548L1435.21 16.9988C1428.86 13.8023 1423.22 13.6579 1418.72 15.3296C1414.21 17.0074 1410.75 20.5483 1408.84 24.8906C1406.93 29.233 1406.58 34.3408 1408.25 39.132C1409.92 43.9055 1413.62 48.4624 1419.97 51.6592L1444.91 64.2095Z" fill="#222C33" stroke="#222C33" stroke-width="2.37"/>
<path d="M1836.61 56.8473L1811.04 69.7036L1793.31 29.4223L1818.88 16.5662C1825.36 13.3048 1831.31 13.3965 1836.18 15.538C1841.06 17.6846 1844.9 21.9067 1847.12 26.9605C1849.35 32.0142 1849.94 37.8678 1848.38 43.257C1846.82 48.6335 1843.09 53.5856 1836.61 56.8473Z" fill="#10BA90" stroke="black"/>
<path d="M1766.71 42.6751L1818.69 16.5369C1825.17 13.2787 1831.11 13.3783 1835.99 15.5303C1840.87 17.6873 1844.72 21.9224 1846.95 26.9887C1849.18 32.0549 1849.78 37.9203 1848.22 43.3172C1846.66 48.7013 1842.95 53.6568 1836.47 56.9153L1784.49 83.0533C1778.01 86.3117 1772.07 86.2121 1767.19 84.0602C1762.31 81.9031 1758.46 77.6679 1756.23 72.6015C1754 67.5352 1753.4 61.6697 1754.96 56.2728C1756.52 50.8887 1760.23 45.9333 1766.71 42.6751Z" fill="#10BA90" stroke="black"/>
<path d="M1766.83 42.5224L1818.8 16.3694C1825.3 13.1007 1831.13 12.9294 1835.81 14.6691C1840.5 16.4113 1844.09 20.0845 1846.06 24.5758C1848.04 29.0671 1848.4 34.3614 1846.66 39.3374C1844.93 44.3059 1841.09 48.9982 1834.59 52.2672L1782.62 78.42C1776.13 81.6889 1770.3 81.8603 1765.62 80.1205C1760.92 78.3782 1757.34 74.705 1755.37 70.2136C1753.39 65.7221 1753.03 60.4277 1754.77 55.4518C1756.5 50.4833 1760.34 45.791 1766.83 42.5224Z" fill="#5BF1CD" stroke="black"/>
<path d="M1809.04 65.1287L1793.24 29.2135L1818.79 16.3559C1825.29 13.0858 1831.12 12.9143 1835.8 14.6548C1840.5 16.3979 1844.08 20.0728 1846.06 24.5662C1848.03 29.0597 1848.39 34.3565 1846.66 39.3348C1844.92 44.3056 1841.08 49.0001 1834.59 52.2706L1809.04 65.1287Z" fill="#02E2AC" stroke="black"/>
<path d="M1838.04 56.384C1843.15 53.7286 1847.07 49.0151 1848.94 43.2764C1850.81 37.5377 1850.47 31.2419 1848 25.7687C1845.51 20.305 1841.09 16.1179 1835.72 14.1252C1830.34 12.1324 1824.45 12.4966 1819.33 15.1378L1792.27 29.1894L1810.98 70.4357L1838.04 56.384Z" fill="#02E2AC" stroke="#0E0333" stroke-width="2.37141" stroke-miterlimit="10" stroke-linejoin="round"/>
<path d="M1792.27 29.178L1765.24 43.169C1760.12 45.8243 1756.2 50.5379 1754.34 56.2766C1752.47 62.0153 1752.81 68.3111 1755.28 73.7843V73.7843C1757.77 79.248 1762.19 83.4351 1767.56 85.4278C1772.93 87.4206 1778.83 87.0564 1783.95 84.4152L1810.98 70.4243L1792.27 29.178Z" fill="#5BF1CD" stroke="#0E0333" stroke-width="2.37141" stroke-miterlimit="10" stroke-linejoin="round"/>
<path d="M1846.1 22.3997C1847.49 27.5925 1847.13 33.1429 1845.07 38.0746C1843.01 43.0062 1839.38 47.0034 1834.84 49.363L1807.8 63.3539L1810.99 70.4126L1838.03 56.4217C1843.14 53.7663 1847.06 49.0528 1848.93 43.3141C1850.79 37.5754 1850.45 31.2795 1847.98 25.8064C1847.45 24.6141 1846.82 23.4742 1846.1 22.3997V22.3997Z" fill="#11BC92" stroke="#0E0333" stroke-width="2.37141" stroke-miterlimit="10" stroke-linejoin="round"/>
<path d="M1807.81 63.3297L1780.77 77.3144C1776.22 79.6591 1771.04 80.2171 1766.14 78.8905C1761.25 77.5638 1756.94 74.4373 1753.99 70.0598C1754.34 71.3179 1754.78 72.5459 1755.31 73.7331V73.7331C1757.8 79.1968 1762.21 83.3839 1767.59 85.3766C1772.96 87.3694 1778.85 87.0053 1783.98 84.364L1811.01 70.3732L1807.82 63.3145L1807.81 63.3297Z" fill="#11BC92" stroke="#0E0333" stroke-width="2.37141" stroke-miterlimit="10" stroke-linejoin="round"/>
<path d="M1646.95 56.2285L1671.9 68.7769L1689.08 29.7491L1664.13 17.2009C1657.81 14.0246 1652.07 14.1294 1647.38 16.1905C1642.67 18.2636 1638.94 22.3536 1636.77 27.2762C1634.6 32.1988 1634.03 37.8788 1635.55 43.0835C1637.05 48.2579 1640.63 53.0519 1646.95 56.2285Z" fill="#10BA90" stroke="black" stroke-width="2.37"/>
<path d="M1716.32 43.2785L1716.32 43.2785L1664.33 17.1404C1658.02 13.9676 1652.29 14.08 1647.6 16.1511C1642.88 18.2344 1639.14 22.3375 1636.97 27.2732C1634.8 32.2089 1634.22 37.901 1635.73 43.1135C1637.22 48.2955 1640.8 53.0923 1647.11 56.2653L1699.09 82.4033C1705.4 85.5762 1711.14 85.4639 1715.83 83.3927C1720.55 81.3094 1724.28 77.2062 1726.46 72.2704C1728.63 67.3347 1729.21 61.6424 1727.7 56.4299C1726.2 51.2479 1722.63 46.4512 1716.32 43.2785Z" fill="#2C2525" stroke="black" stroke-width="2.37"/>
<path d="M1716.18 43.1574L1716.63 42.1447L1716.18 43.1574L1664.21 17.0044C1657.86 13.8095 1652.22 13.6652 1647.72 15.336C1643.21 17.0131 1639.75 20.5522 1637.84 24.8924C1635.93 29.2326 1635.59 34.338 1637.26 39.1268C1638.92 43.8981 1642.62 48.4528 1648.97 51.648L1700.94 77.8008C1707.29 80.996 1712.93 81.1403 1717.43 79.4694C1721.94 77.7924 1725.4 74.2532 1727.31 69.9128C1729.22 65.5725 1729.56 60.4671 1727.89 55.6782C1726.23 50.907 1722.53 46.3523 1716.18 43.1574Z" fill="#757087" stroke="black" stroke-width="2.37"/>
<path d="M1673.91 64.2095L1689.15 29.548L1664.21 16.9988C1657.86 13.8023 1652.22 13.6579 1647.72 15.3296C1643.21 17.0074 1639.75 20.5483 1637.84 24.8906C1635.93 29.233 1635.58 34.3408 1637.25 39.132C1638.92 43.9055 1642.62 48.4624 1648.97 51.6592L1673.91 64.2095Z" fill="#222C33" stroke="#222C33" stroke-width="2.37"/>
<path d="M1138.61 56.8551L1113.04 69.7114L1095.31 29.4301L1120.88 16.574C1127.36 13.3126 1133.31 13.4043 1138.18 15.5458C1143.06 17.6925 1146.9 21.9146 1149.12 26.9683C1151.35 32.022 1151.94 37.8756 1150.38 43.2649C1148.82 48.6413 1145.09 53.5934 1138.61 56.8551Z" fill="#10BA90" stroke="black"/>
<path d="M1068.71 42.6517L1120.69 16.5135C1127.17 13.2553 1133.11 13.3549 1137.99 15.5068C1142.87 17.6639 1146.72 21.899 1148.95 26.9652C1151.18 32.0315 1151.78 37.8969 1150.22 43.2938C1148.66 48.6779 1144.95 53.6334 1138.47 56.8919L1086.49 83.0299C1080.01 86.2883 1074.07 86.1887 1069.19 84.0367C1064.31 81.8796 1060.46 77.6445 1058.23 72.5781C1056 67.5117 1055.4 61.6463 1056.96 56.2493C1058.52 50.8653 1062.23 45.9098 1068.71 42.6517Z" fill="#10BA90" stroke="black"/>
<path d="M1068.83 42.5302L1120.8 16.3772C1127.3 13.1085 1133.13 12.9372 1137.81 14.6769C1142.5 16.4192 1146.09 20.0923 1148.06 24.5836C1150.04 29.0749 1150.4 34.3692 1148.66 39.3452C1146.93 44.3137 1143.09 49.006 1136.59 52.275L1084.62 78.4278C1078.13 81.6967 1072.3 81.8681 1067.62 80.1283C1062.92 78.386 1059.34 74.7128 1057.37 70.2214C1055.39 65.73 1055.03 60.4356 1056.77 55.4596C1058.5 50.4911 1062.34 45.7988 1068.83 42.5302Z" fill="#5BF1CD" stroke="black"/>
<path d="M1111.06 65.1443L1095.27 29.2291L1120.81 16.3716C1127.31 13.1014 1133.14 12.93 1137.83 14.6705C1142.52 16.4136 1146.1 20.0884 1148.08 24.5819C1150.06 29.0753 1150.42 34.3721 1148.68 39.3504C1146.95 44.3212 1143.11 49.0157 1136.61 52.2862L1111.06 65.1443Z" fill="#02E2AC" stroke="black"/>
<path d="M1140.04 56.384C1145.15 53.7286 1149.07 49.0151 1150.94 43.2764C1152.81 37.5377 1152.47 31.2419 1150 25.7687C1147.51 20.305 1143.09 16.1179 1137.72 14.1252C1132.34 12.1324 1126.45 12.4966 1121.33 15.1378L1094.27 29.1894L1112.98 70.4357L1140.04 56.384Z" fill="#02E2AC" stroke="#0E0333" stroke-width="2.37141" stroke-miterlimit="10" stroke-linejoin="round"/>
<path d="M1094.27 29.178L1067.24 43.169C1062.12 45.8243 1058.2 50.5379 1056.34 56.2766C1054.47 62.0153 1054.81 68.3111 1057.28 73.7843V73.7843C1059.77 79.248 1064.19 83.4351 1069.56 85.4278C1074.93 87.4206 1080.83 87.0564 1085.95 84.4152L1112.98 70.4243L1094.27 29.178Z" fill="#5BF1CD" stroke="#0E0333" stroke-width="2.37141" stroke-miterlimit="10" stroke-linejoin="round"/>
<path d="M1148.1 22.3997C1149.49 27.5925 1149.13 33.1429 1147.07 38.0746C1145.01 43.0062 1141.38 47.0034 1136.84 49.363L1109.8 63.3539L1112.99 70.4126L1140.03 56.4217C1145.14 53.7663 1149.06 49.0528 1150.93 43.3141C1152.79 37.5754 1152.45 31.2795 1149.98 25.8064C1149.45 24.6141 1148.82 23.4742 1148.1 22.3997V22.3997Z" fill="#11BC92" stroke="#0E0333" stroke-width="2.37141" stroke-miterlimit="10" stroke-linejoin="round"/>
<path d="M1109.81 63.3297L1082.77 77.3144C1078.22 79.6591 1073.04 80.2171 1068.14 78.8905C1063.25 77.5638 1058.94 74.4373 1055.99 70.0598C1056.34 71.3179 1056.78 72.5459 1057.31 73.7331V73.7331C1059.8 79.1968 1064.21 83.3839 1069.59 85.3766C1074.96 87.3694 1080.85 87.0053 1085.98 84.364L1113.01 70.3732L1109.82 63.3145L1109.81 63.3297Z" fill="#11BC92" stroke="#0E0333" stroke-width="2.37141" stroke-miterlimit="10" stroke-linejoin="round"/>
<path d="M948.949 56.2285L973.901 68.7769L991.08 29.7491L966.127 17.2009C959.811 14.0246 954.071 14.1294 949.383 16.1905C944.668 18.2636 940.936 22.3536 938.77 27.2762C936.603 32.1988 936.033 37.8788 937.545 43.0835C939.048 48.2579 942.632 53.0519 948.949 56.2285Z" fill="#10BA90" stroke="black" stroke-width="2.37"/>
<path d="M1018.32 43.2785L1018.32 43.2785L966.334 17.1404C960.025 13.9676 954.286 14.08 949.596 16.1511C944.879 18.2344 941.143 22.3375 938.97 27.2732C936.797 32.2089 936.221 37.901 937.727 43.1135C939.224 48.2955 942.802 53.0923 949.112 56.2653L1001.09 82.4033C1007.4 85.5762 1013.14 85.4639 1017.83 83.3927C1022.55 81.3094 1026.28 77.2062 1028.46 72.2704C1030.63 67.3347 1031.21 61.6424 1029.7 56.4299C1028.2 51.2479 1024.63 46.4512 1018.32 43.2785Z" fill="#2C2525" stroke="black" stroke-width="2.37"/>
<path d="M1018.18 43.1574L1018.63 42.1447L1018.18 43.1574L966.209 17.0044C959.86 13.8095 954.221 13.6652 949.722 15.336C945.207 17.0131 941.748 20.5522 939.839 24.8924C937.93 29.2326 937.586 34.338 939.256 39.1268C940.92 43.8981 944.619 48.4528 950.969 51.648L1002.94 77.8008C1009.29 80.996 1014.93 81.1403 1019.43 79.4694C1023.94 77.7924 1027.4 74.2532 1029.31 69.9128C1031.22 65.5725 1031.56 60.4671 1029.89 55.6782C1028.23 50.907 1024.53 46.3523 1018.18 43.1574Z" fill="#757087" stroke="black" stroke-width="2.37"/>
<path d="M975.905 64.2095L991.149 29.548L966.215 16.9988C959.864 13.8023 954.222 13.6579 949.722 15.3296C945.205 17.0074 941.746 20.5483 939.836 24.8906C937.926 29.233 937.582 34.3408 939.253 39.132C940.918 43.9055 944.617 48.4624 950.969 51.6592L975.905 64.2095Z" fill="#222C33" stroke="#222C33" stroke-width="2.37"/>
<path d="M1367.61 56.8551L1342.04 69.7114L1324.31 29.4301L1349.88 16.574C1356.36 13.3126 1362.31 13.4043 1367.18 15.5458C1372.06 17.6925 1375.9 21.9146 1378.12 26.9683C1380.35 32.022 1380.94 37.8756 1379.38 43.2649C1377.82 48.6413 1374.09 53.5934 1367.61 56.8551Z" fill="#10BA90" stroke="black"/>
<path d="M1297.71 42.6517L1349.69 16.5135C1356.17 13.2553 1362.11 13.3549 1366.99 15.5068C1371.87 17.6639 1375.72 21.899 1377.95 26.9652C1380.18 32.0315 1380.78 37.8969 1379.22 43.2938C1377.66 48.6779 1373.95 53.6334 1367.47 56.8919L1315.49 83.0299C1309.01 86.2883 1303.07 86.1887 1298.19 84.0367C1293.31 81.8796 1289.46 77.6445 1287.23 72.5781C1285 67.5117 1284.4 61.6463 1285.96 56.2493C1287.52 50.8653 1291.23 45.9098 1297.71 42.6517Z" fill="#10BA90" stroke="black"/>
<path d="M1297.83 42.5302L1349.8 16.3772C1356.3 13.1085 1362.13 12.9372 1366.81 14.6769C1371.5 16.4192 1375.09 20.0923 1377.06 24.5836C1379.04 29.0749 1379.4 34.3692 1377.66 39.3452C1375.93 44.3137 1372.09 49.006 1365.59 52.275L1313.62 78.4278C1307.13 81.6967 1301.3 81.8681 1296.62 80.1283C1291.92 78.386 1288.34 74.7128 1286.37 70.2214C1284.39 65.73 1284.03 60.4356 1285.77 55.4596C1287.5 50.4911 1291.34 45.7988 1297.83 42.5302Z" fill="#5BF1CD" stroke="black"/>
<path d="M1340.06 65.1443L1324.27 29.2291L1349.81 16.3716C1356.31 13.1014 1362.14 12.93 1366.83 14.6705C1371.52 16.4136 1375.1 20.0884 1377.08 24.5819C1379.06 29.0753 1379.42 34.3721 1377.68 39.3504C1375.95 44.3212 1372.11 49.0157 1365.61 52.2862L1340.06 65.1443Z" fill="#02E2AC" stroke="black"/>
<path d="M1369.04 56.384C1374.15 53.7286 1378.07 49.0151 1379.94 43.2764C1381.81 37.5377 1381.47 31.2419 1379 25.7687C1376.51 20.305 1372.09 16.1179 1366.72 14.1252C1361.34 12.1324 1355.45 12.4966 1350.33 15.1378L1323.27 29.1894L1341.98 70.4357L1369.04 56.384Z" fill="#02E2AC" stroke="#0E0333" stroke-width="2.37141" stroke-miterlimit="10" stroke-linejoin="round"/>
<path d="M1323.27 29.178L1296.24 43.169C1291.12 45.8243 1287.2 50.5379 1285.34 56.2766C1283.47 62.0153 1283.81 68.3111 1286.28 73.7843V73.7843C1288.77 79.248 1293.19 83.4351 1298.56 85.4278C1303.93 87.4206 1309.83 87.0564 1314.95 84.4152L1341.98 70.4243L1323.27 29.178Z" fill="#5BF1CD" stroke="#0E0333" stroke-width="2.37141" stroke-miterlimit="10" stroke-linejoin="round"/>
<path d="M1377.1 22.3997C1378.49 27.5925 1378.13 33.1429 1376.07 38.0746C1374.01 43.0062 1370.38 47.0034 1365.84 49.363L1338.8 63.3539L1341.99 70.4126L1369.03 56.4217C1374.14 53.7663 1378.06 49.0528 1379.93 43.3141C1381.79 37.5754 1381.45 31.2795 1378.98 25.8064C1378.45 24.6141 1377.82 23.4742 1377.1 22.3997V22.3997Z" fill="#11BC92" stroke="#0E0333" stroke-width="2.37141" stroke-miterlimit="10" stroke-linejoin="round"/>
<path d="M1338.81 63.3297L1311.77 77.3144C1307.22 79.6591 1302.04 80.2171 1297.14 78.8905C1292.25 77.5638 1287.94 74.4373 1284.99 70.0598C1285.34 71.3179 1285.78 72.5459 1286.31 73.7331V73.7331C1288.8 79.1968 1293.21 83.3839 1298.59 85.3766C1303.96 87.3694 1309.85 87.0053 1314.98 84.364L1342.01 70.3732L1338.82 63.3145L1338.81 63.3297Z" fill="#11BC92" stroke="#0E0333" stroke-width="2.37141" stroke-miterlimit="10" stroke-linejoin="round"/>
<path d="M1178.95 56.2285L1203.9 68.7769L1221.08 29.7491L1196.13 17.2009C1189.81 14.0246 1184.07 14.1294 1179.38 16.1905C1174.67 18.2636 1170.94 22.3536 1168.77 27.2762C1166.6 32.1988 1166.03 37.8788 1167.55 43.0835C1169.05 48.2579 1172.63 53.0519 1178.95 56.2285Z" fill="#10BA90" stroke="black" stroke-width="2.37"/>
<path d="M1248.32 43.2785L1196.33 17.1404C1190.02 13.9677 1184.29 14.08 1179.6 16.1511C1174.88 18.2345 1171.14 22.3375 1168.97 27.2732C1166.8 32.2089 1166.22 37.9011 1167.73 43.1136C1169.22 48.2956 1172.8 53.0923 1179.11 56.2654L1231.09 82.4033C1237.4 85.5762 1243.14 85.4639 1247.83 83.3928C1252.55 81.3094 1256.28 77.2062 1258.46 72.2704C1260.63 67.3347 1261.21 61.6424 1259.7 56.4299C1258.2 51.2479 1254.63 46.4512 1248.32 43.2785Z" fill="#2C2525" stroke="black" stroke-width="2.37"/>
<path d="M1248.18 43.1574L1248.18 43.1574L1196.21 17.0045C1189.86 13.8095 1184.22 13.6652 1179.72 15.3361C1175.21 17.0131 1171.75 20.5522 1169.84 24.8924C1167.93 29.2327 1167.59 34.338 1169.26 39.1268C1170.92 43.8981 1174.62 48.4528 1180.97 51.6481L1232.94 77.8008C1239.29 80.996 1244.93 81.1403 1249.43 79.4694C1253.94 77.7924 1257.4 74.2532 1259.31 69.9129C1261.22 65.5725 1261.56 60.4671 1259.89 55.6782C1258.23 50.907 1254.53 46.3524 1248.18 43.1574Z" fill="#757087" stroke="black" stroke-width="2.37"/>
<path d="M1205.91 64.2095L1221.15 29.548L1196.21 16.9988C1189.86 13.8023 1184.22 13.6579 1179.72 15.3296C1175.21 17.0074 1171.75 20.5483 1169.84 24.8907C1167.93 29.233 1167.58 34.3408 1169.25 39.132C1170.92 43.9056 1174.62 48.4624 1180.97 51.6592L1205.91 64.2095Z" fill="#222C33" stroke="#222C33" stroke-width="2.37"/>
</svg>
