<svg width="2034" height="99" viewBox="0 0 2034 99" fill="none" xmlns="http://www.w3.org/2000/svg">
<path d="M715.66 68.4941L695.531 29.2912L723.169 17.2719C730.189 14.219 736.681 14.4054 742.037 16.5543C747.403 18.7074 751.669 22.8466 754.192 27.7589C756.714 32.6711 757.48 38.332 755.88 43.5145C754.284 48.6871 750.318 53.4213 743.298 56.4744L715.66 68.4941Z" fill="#10BA90" stroke="black"/>
<path d="M666.236 41.8654L666.008 41.42L666.236 41.8654L722.723 17.2884C729.78 14.2181 736.309 14.4149 741.7 16.5909C747.1 18.771 751.396 22.954 753.939 27.9149C756.482 32.8757 757.26 38.5896 755.656 43.8171C754.055 49.0345 750.072 53.8056 743.015 56.8762L686.528 81.453C679.471 84.5235 672.941 84.3267 667.55 82.1507C662.15 79.9706 657.854 75.7874 655.311 70.8265C652.768 65.8655 651.991 60.1515 653.595 54.9241C655.195 49.7066 659.179 44.9357 666.236 41.8654Z" fill="#10BA90" stroke="black"/>
<path d="M666.378 41.7587L722.9 17.141C729.978 14.0584 736.382 13.9887 741.563 15.7635C746.75 17.5401 750.751 21.1779 753.004 25.5803C755.258 29.9827 755.76 35.144 753.952 39.9664C752.145 44.7841 748.018 49.3013 740.94 52.3842L684.417 77.0017C677.339 80.0846 670.934 80.1543 665.753 78.3794C660.567 76.6028 656.566 72.9649 654.313 68.5624C652.06 64.1599 651.557 58.9985 653.366 54.1761C655.172 49.3584 659.3 44.8414 666.378 41.7587Z" fill="#5BF1CD" stroke="black"/>
<path d="M713.406 64.1078L695.454 29.1142L723.105 17.0813C730.144 14.0179 736.514 13.9471 741.668 15.7082C746.826 17.4711 750.807 21.0824 753.049 25.4534C755.292 29.8244 755.793 34.9495 753.996 39.7388C752.201 44.5234 748.097 49.0106 741.057 52.0742L713.406 64.1078Z" fill="#02E2AC" stroke="black"/>
<path d="M744.569 55.6956C750.175 53.1488 754.471 48.628 756.516 43.124C758.561 37.6199 758.189 31.5815 755.48 26.3322C752.752 21.0919 747.912 17.076 742.023 15.1648C736.134 13.2535 729.675 13.6027 724.062 16.136L694.411 29.613L714.918 69.1727L744.569 55.6956Z" fill="#02E2AC" stroke="#0E0333" stroke-width="2.37141" stroke-miterlimit="10" stroke-linejoin="round"/>
<path d="M694.415 29.6151L664.789 43.034C659.183 45.5808 654.887 50.1015 652.842 55.6056C650.797 61.1097 651.169 67.148 653.878 72.3973V72.3973C656.606 77.6377 661.446 81.6535 667.335 83.5648C673.224 85.4761 679.683 85.1268 685.296 82.5936L714.922 69.1748L694.415 29.6151Z" fill="#5BF1CD" stroke="#0E0333" stroke-width="2.37141" stroke-miterlimit="10" stroke-linejoin="round"/>
<path d="M753.4 23.1002C754.926 28.0807 754.525 33.4041 752.267 38.1341C750.009 42.8641 746.04 46.6978 741.056 48.961L711.43 62.3798L714.925 69.1498L744.551 55.731C750.157 53.1842 754.453 48.6634 756.498 43.1594C758.543 37.6553 758.171 31.6169 755.462 26.3676C754.879 25.2241 754.189 24.1308 753.4 23.1002V23.1002Z" fill="#11BC92" stroke="#0E0333" stroke-width="2.37141" stroke-miterlimit="10" stroke-linejoin="round"/>
<path d="M711.448 62.3501L681.806 75.7629C676.822 78.0117 671.148 78.5469 665.782 77.2745C660.416 76.0021 655.701 73.0034 652.463 68.8049C652.848 70.0116 653.33 71.1894 653.905 72.328V72.328C656.634 77.5683 661.473 81.5842 667.362 83.4955C673.252 85.4067 679.711 85.0575 685.323 82.5243L714.949 69.1055L711.454 62.3355L711.448 62.3501Z" fill="#11BC92" stroke="#0E0333" stroke-width="2.37141" stroke-miterlimit="10" stroke-linejoin="round"/>
<path d="M555.463 17.8818L556.004 16.8267L555.463 17.8818C548.606 14.8997 542.318 15.0984 537.157 17.1687C531.973 19.2487 527.834 23.2563 525.381 28.0324C522.929 32.8085 522.193 38.2958 523.738 43.3021C525.276 48.2851 529.102 52.8822 535.96 55.8646L562.97 67.6112L582.473 29.6278L555.463 17.8818Z" fill="#10BA90" stroke="black" stroke-width="2.37"/>
<path d="M612.397 42.4755L612.397 42.4755L555.909 17.8986C549.016 14.8994 542.69 15.1081 537.496 17.205C532.277 19.3118 528.106 23.3631 525.633 28.1886C523.159 33.014 522.413 38.5547 523.962 43.606C525.504 48.6336 529.348 53.2668 536.242 56.2663L592.729 80.843C599.623 83.8424 605.949 83.6337 611.144 81.5368C616.363 79.43 620.533 75.3786 623.006 70.5531C625.48 65.7275 626.226 60.1867 624.676 55.1354C623.134 50.1078 619.29 45.4747 612.397 42.4755ZM612.906 41.4821L612.906 41.4822L612.906 41.4821Z" fill="#2C2525" stroke="black" stroke-width="2.37"/>
<path d="M612.256 42.3694L555.733 17.7517C548.796 14.7304 542.58 14.6847 537.595 16.3924C532.597 18.1042 528.741 21.6091 526.567 25.8549C524.394 30.1007 523.912 35.0738 525.654 39.7195C527.391 44.3541 531.379 48.7522 538.316 51.7738L594.839 76.3913C601.777 79.4128 607.993 79.4585 612.978 77.7508C617.975 76.0389 621.832 72.534 624.005 68.2881C626.178 64.0422 626.66 59.069 624.918 54.4232C623.18 49.7886 619.193 45.3907 612.256 42.3694Z" fill="#757087" stroke="black" stroke-width="2.37"/>
<path d="M565.224 63.2246L582.551 29.4508L555.528 17.6916C548.63 14.6895 542.448 14.6427 537.49 16.3369C532.521 18.0351 528.685 21.5135 526.523 25.7278C524.361 29.942 523.879 34.8788 525.61 39.4916C527.337 44.0933 531.301 48.4615 538.2 51.464L565.224 63.2246Z" fill="#222C33" stroke="#222C33" stroke-width="2.37"/>
<path d="M967.715 68.4941L947.586 29.2912L975.224 17.2719C982.244 14.219 988.736 14.4054 994.092 16.5543C999.458 18.7074 1003.72 22.8466 1006.25 27.7588C1008.77 32.6711 1009.53 38.332 1007.94 43.5145C1006.34 48.6871 1002.37 53.4213 995.353 56.4744L967.715 68.4941Z" fill="#10BA90" stroke="black"/>
<path d="M918.29 41.8654L918.062 41.42L918.29 41.8654L974.777 17.2884C981.834 14.2181 988.364 14.4149 993.754 16.5908C999.155 18.771 1003.45 22.954 1005.99 27.9149C1008.54 32.8757 1009.31 38.5896 1007.71 43.8171C1006.11 49.0345 1002.13 53.8056 995.07 56.8762L938.583 81.453C931.525 84.5235 924.995 84.3267 919.605 82.1507C914.204 79.9706 909.908 75.7874 907.366 70.8265C904.823 65.8655 904.046 60.1515 905.65 54.9241C907.25 49.7066 911.234 44.9357 918.29 41.8654Z" fill="#10BA90" stroke="black"/>
<path d="M918.432 41.7587L918.238 41.3767L918.432 41.7587L974.955 17.141C982.033 14.0584 988.437 13.9886 993.618 15.7635C998.804 17.5401 1002.81 21.1779 1005.06 25.5803C1007.31 29.9827 1007.81 35.144 1006.01 39.9664C1004.2 44.7841 1000.07 49.3012 992.994 52.3842L936.472 77.0017C929.393 80.0846 922.989 80.1543 917.808 78.3794C912.622 76.6028 908.62 72.9649 906.367 68.5624C904.114 64.1599 903.612 58.9985 905.42 54.1761C907.227 49.3584 911.354 44.8414 918.432 41.7587Z" fill="#5BF1CD" stroke="black"/>
<path d="M965.46 64.1078L947.508 29.1142L975.159 17.0813C982.199 14.0179 988.569 13.9471 993.722 15.7082C998.881 17.471 1002.86 21.0824 1005.1 25.4534C1007.35 29.8244 1007.85 34.9495 1006.05 39.7388C1004.26 44.5234 1000.15 49.0105 993.112 52.0742L965.46 64.1078Z" fill="#02E2AC" stroke="black"/>
<path d="M996.624 55.6956C1002.23 53.1488 1006.53 48.628 1008.57 43.124C1010.62 37.6199 1010.24 31.5815 1007.54 26.3322C1004.81 21.0919 999.967 17.076 994.078 15.1648C988.188 13.2535 981.73 13.6027 976.117 16.136L946.465 29.613L966.973 69.1727L996.624 55.6956Z" fill="#02E2AC" stroke="#0E0333" stroke-width="2.37141" stroke-miterlimit="10" stroke-linejoin="round"/>
<path d="M946.469 29.6151L916.844 43.034C911.238 45.5808 906.942 50.1015 904.897 55.6056C902.851 61.1097 903.224 67.148 905.932 72.3973V72.3973C908.661 77.6377 913.5 81.6535 919.39 83.5648C925.279 85.4761 931.738 85.1268 937.35 82.5936L966.976 69.1748L946.469 29.6151Z" fill="#5BF1CD" stroke="#0E0333" stroke-width="2.37141" stroke-miterlimit="10" stroke-linejoin="round"/>
<path d="M1005.45 23.1002C1006.98 28.0807 1006.58 33.4041 1004.32 38.1341C1002.06 42.8641 998.094 46.6978 993.111 48.961L963.485 62.3798L966.98 69.1498L996.606 55.731C1002.21 53.1842 1006.51 48.6634 1008.55 43.1594C1010.6 37.6553 1010.23 31.6169 1007.52 26.3676C1006.93 25.2241 1006.24 24.1308 1005.45 23.1002V23.1002Z" fill="#11BC92" stroke="#0E0333" stroke-width="2.37141" stroke-miterlimit="10" stroke-linejoin="round"/>
<path d="M963.502 62.3501L933.861 75.7629C928.876 78.0117 923.203 78.5469 917.837 77.2745C912.471 76.0021 907.755 73.0034 904.518 68.8049C904.902 70.0116 905.384 71.1894 905.96 72.328V72.328C908.689 77.5683 913.528 81.5842 919.417 83.4955C925.306 85.4067 931.765 85.0575 937.378 82.5243L967.004 69.1055L963.509 62.3355L963.502 62.3501Z" fill="#11BC92" stroke="#0E0333" stroke-width="2.37141" stroke-miterlimit="10" stroke-linejoin="round"/>
<path d="M806.432 17.8818L806.973 16.8267L806.432 17.8818C799.575 14.8997 793.286 15.0984 788.126 17.1687C782.942 19.2487 778.802 23.2563 776.35 28.0324C773.898 32.8085 773.162 38.2958 774.707 43.3021C776.245 48.2851 780.071 52.8822 786.928 55.8646L813.938 67.6112L833.442 29.6278L806.432 17.8818Z" fill="#10BA90" stroke="black" stroke-width="2.37"/>
<path d="M863.366 42.4755L863.366 42.4755L806.878 17.8986C799.985 14.8994 793.659 15.1081 788.465 17.205C783.246 19.3118 779.075 23.3631 776.602 28.1886C774.128 33.014 773.381 38.5547 774.931 43.606C776.473 48.6336 780.317 53.2668 787.211 56.2663L843.698 80.843C850.592 83.8424 856.918 83.6337 862.112 81.5368C867.331 79.43 871.502 75.3786 873.975 70.5531C876.448 65.7275 877.195 60.1867 875.645 55.1354C874.103 50.1078 870.259 45.4747 863.366 42.4755ZM863.874 41.4821L863.874 41.4822L863.874 41.4821Z" fill="#2C2525" stroke="black" stroke-width="2.37"/>
<path d="M863.225 42.3694L806.702 17.7517C799.764 14.7304 793.549 14.6847 788.563 16.3924C783.566 18.1042 779.709 21.6091 777.536 25.8549C775.363 30.1007 774.88 35.0738 776.622 39.7195C778.36 44.3541 782.347 48.7522 789.285 51.7738L845.808 76.3913C852.746 79.4128 858.962 79.4585 863.947 77.7508C868.944 76.0389 872.801 72.534 874.974 68.2881C877.147 64.0422 877.629 59.069 875.887 54.4232C874.149 49.7886 870.162 45.3907 863.225 42.3694Z" fill="#757087" stroke="black" stroke-width="2.37"/>
<path d="M816.193 63.2246L833.519 29.4508L806.497 17.6916C799.598 14.6895 793.417 14.6427 788.459 16.3369C783.489 18.0351 779.654 21.5135 777.492 25.7278C775.33 29.942 774.848 34.8788 776.579 39.4916C778.306 44.0933 782.269 48.4615 789.169 51.464L816.193 63.2246Z" fill="#222C33" stroke="#222C33" stroke-width="2.37"/>
<path d="M202.063 68.4859L182.199 29.3681L209.63 17.3039C216.597 14.2397 223.033 14.4122 228.338 16.5475C233.653 18.6869 237.873 22.8127 240.362 27.7144C242.851 32.6162 243.597 38.2695 241.999 43.4495C240.403 48.6196 236.461 53.3568 229.493 56.4212L202.063 68.4859Z" fill="#10BA90" stroke="black"/>
<path d="M153.183 41.956L209.213 17.3093C216.211 14.2307 222.68 14.4134 228.015 16.5734C233.361 18.7376 237.607 22.9029 240.115 27.8482C242.623 32.7935 243.379 38.4939 241.778 43.7137C240.18 48.9233 236.222 53.6925 229.223 56.7714L173.193 81.418C166.194 84.4968 159.725 84.3141 154.39 82.154C149.044 79.9898 144.798 75.8245 142.291 70.879C139.783 65.9336 139.027 60.2331 140.628 55.0134C142.226 49.8037 146.184 45.0346 153.183 41.956Z" fill="#10BA90" stroke="black"/>
<path d="M153.323 41.8509L209.383 17.1674C216.402 14.0769 222.746 13.994 227.875 15.7538C233.008 17.5154 236.963 21.1364 239.185 25.5242C241.407 29.9119 241.892 35.0604 240.09 39.8755C238.289 44.6858 234.189 49.2012 227.17 52.292L171.11 76.9753C164.09 80.0661 157.746 80.149 152.618 78.3892C147.484 76.6276 143.529 73.0064 141.307 68.6186C139.086 64.2307 138.601 59.0822 140.403 54.2671C142.204 49.4568 146.304 44.9414 153.323 41.8509Z" fill="#5BF1CD" stroke="black"/>
<path d="M199.827 64.1027L182.114 29.1911L209.554 17.115C216.539 14.0407 222.854 13.9566 227.958 15.7046C233.068 17.4543 237.006 21.0527 239.218 25.4137C241.431 29.7746 241.915 34.8922 240.123 39.6791C238.332 44.4613 234.253 48.9513 227.267 52.0259L199.827 64.1027Z" fill="#02E2AC" stroke="black"/>
<path d="M230.787 55.6956C236.341 53.1488 240.598 48.628 242.625 43.124C244.652 37.6199 244.283 31.5815 241.599 26.3322C238.895 21.0919 234.099 17.076 228.264 15.1648C222.428 13.2535 216.028 13.6027 210.466 16.136L181.084 29.613L201.405 69.1727L230.787 55.6956Z" fill="#02E2AC" stroke="#0E0333" stroke-width="2.37141" stroke-miterlimit="10" stroke-linejoin="round"/>
<path d="M181.085 29.6151L151.729 43.034C146.174 45.5808 141.917 50.1015 139.89 55.6056C137.864 61.1097 138.233 67.148 140.917 72.3974V72.3974C143.621 77.6377 148.416 81.6535 154.252 83.5648C160.087 85.4761 166.487 85.1268 172.049 82.5936L201.406 69.1748L181.085 29.6151Z" fill="#5BF1CD" stroke="#0E0333" stroke-width="2.37141" stroke-miterlimit="10" stroke-linejoin="round"/>
<path d="M239.535 23.1002C241.047 28.0807 240.649 33.4041 238.412 38.1341C236.175 42.8641 232.241 46.6978 227.303 48.961L197.946 62.3798L201.41 69.1498L230.766 55.731C236.321 53.1842 240.578 48.6634 242.605 43.1594C244.631 37.6553 244.262 31.6169 241.578 26.3676C241 25.2241 240.316 24.1308 239.535 23.1002V23.1002Z" fill="#11BC92" stroke="#0E0333" stroke-width="2.37141" stroke-miterlimit="10" stroke-linejoin="round"/>
<path d="M197.963 62.3501L168.591 75.7629C163.652 78.0117 158.03 78.5469 152.713 77.2745C147.396 76.0021 142.723 73.0034 139.515 68.8049C139.896 70.0116 140.374 71.1894 140.944 72.328V72.328C143.648 77.5683 148.443 81.5842 154.279 83.4955C160.115 85.4067 166.515 85.0575 172.076 82.5243L201.433 69.1055L197.97 62.3355L197.963 62.3501Z" fill="#11BC92" stroke="#0E0333" stroke-width="2.37141" stroke-miterlimit="10" stroke-linejoin="round"/>
<path d="M41.0104 18.1364L41.4352 17.2886L41.0104 18.1364C34.0495 15.0673 27.7315 15.1732 22.5964 17.15C17.441 19.1346 13.3821 23.042 11.0291 27.7288C8.67602 32.4157 8.0516 37.8367 9.70648 42.8234C11.3548 47.7904 15.2953 52.4194 22.2566 55.4887L49.6255 67.5562L68.3785 30.203L41.0104 18.1364Z" fill="#10BA90" stroke="black" stroke-width="2.37"/>
<path d="M98.0252 43.1467L41.172 18.0832C34.2188 15.0179 27.9035 15.1311 22.7673 17.1172C17.6105 19.1113 13.5465 23.0304 11.1871 27.7291C8.82782 32.4278 8.19647 37.8596 9.84431 42.8528C11.4856 47.8261 15.4183 52.457 22.3719 55.5226L79.225 80.5859C86.1788 83.6513 92.4942 83.5382 97.6304 81.5521C102.787 79.558 106.851 75.6388 109.21 70.94C111.569 66.2412 112.201 60.8093 110.553 55.816C108.911 50.8428 104.979 46.2119 98.0252 43.1467Z" fill="#2C2525" stroke="black" stroke-width="2.37"/>
<path d="M97.8931 43.0042L41.0512 17.9272C34.0619 14.8438 27.856 14.706 22.9219 16.3102C17.9797 17.9169 14.2219 21.2986 12.1528 25.4223C10.0838 29.5459 9.70159 34.4152 11.5315 39.0081C13.3585 43.5936 17.4271 47.9886 24.4169 51.0724L81.2587 76.1492C88.2486 79.2329 94.4546 79.3707 99.3887 77.7665C104.331 76.1597 108.089 72.778 110.157 68.6542C112.226 64.5305 112.608 59.661 110.778 55.0682C108.951 50.4827 104.883 46.0877 97.8931 43.0042Z" fill="#757087" stroke="black" stroke-width="2.37"/>
<path d="M51.794 63.1634L68.4324 29.9947L41.0851 17.9275C34.093 14.8421 27.8845 14.7042 22.9482 16.3094C18.0039 17.9172 14.2444 21.3011 12.1745 25.4276C10.1045 29.554 9.72213 34.4265 11.5528 39.0224C13.3806 43.6108 17.451 48.0087 24.4437 51.0943L51.794 63.1634Z" fill="#222C33" stroke="#222C33" stroke-width="2.37"/>
<path d="M453.739 68.4941L433.609 29.2912L461.247 17.2719C468.267 14.219 474.759 14.4054 480.115 16.5543C485.482 18.7074 489.747 22.8466 492.27 27.7588C494.792 32.6711 495.558 38.332 493.959 43.5145C492.362 48.6871 488.396 53.4213 481.376 56.4744L453.739 68.4941Z" fill="#10BA90" stroke="black"/>
<path d="M404.314 41.8654L404.086 41.42L404.314 41.8654L460.801 17.2884C467.858 14.2181 474.388 14.4149 479.778 16.5908C485.179 18.771 489.475 22.954 492.018 27.9149C494.56 32.8757 495.338 38.5896 493.734 43.8171C492.134 49.0345 488.15 53.8056 481.093 56.8762L424.606 81.453C417.549 84.5235 411.019 84.3267 405.628 82.1507C400.228 79.9706 395.932 75.7874 393.389 70.8265C390.846 65.8655 390.069 60.1515 391.673 54.9241C393.274 49.7066 397.257 44.9357 404.314 41.8654Z" fill="#10BA90" stroke="black"/>
<path d="M404.456 41.7587L404.261 41.3767L404.456 41.7587L460.979 17.141C468.056 14.0584 474.46 13.9886 479.642 15.7635C484.828 17.5401 488.829 21.1779 491.083 25.5803C493.336 29.9827 493.838 35.144 492.03 39.9664C490.223 44.7841 486.096 49.3012 479.018 52.3842L422.495 77.0017C415.417 80.0846 409.013 80.1543 403.831 78.3794C398.645 76.6028 394.644 72.9649 392.391 68.5624C390.138 64.1599 389.636 58.9985 391.444 54.1761C393.251 49.3584 397.378 44.8414 404.456 41.7587Z" fill="#5BF1CD" stroke="black"/>
<path d="M451.484 64.1078L433.532 29.1142L461.183 17.0813C468.222 14.0179 474.592 13.9471 479.746 15.7082C484.904 17.471 488.885 21.0824 491.128 25.4534C493.37 29.8244 493.871 34.9495 492.074 39.7388C490.279 44.5234 486.175 49.0105 479.135 52.0742L451.484 64.1078Z" fill="#02E2AC" stroke="black"/>
<path d="M482.647 55.6956C488.253 53.1488 492.549 48.628 494.594 43.124C496.639 37.6199 496.267 31.5815 493.558 26.3322C490.83 21.0919 485.99 17.076 480.101 15.1648C474.212 13.2535 467.753 13.6027 462.14 16.136L432.489 29.613L452.996 69.1727L482.647 55.6956Z" fill="#02E2AC" stroke="#0E0333" stroke-width="2.37141" stroke-miterlimit="10" stroke-linejoin="round"/>
<path d="M432.493 29.6151L402.867 43.034C397.262 45.5808 392.965 50.1015 390.92 55.6056C388.875 61.1097 389.247 67.148 391.956 72.3973V72.3973C394.685 77.6377 399.524 81.6535 405.413 83.5648C411.302 85.4761 417.761 85.1268 423.374 82.5936L453 69.1748L432.493 29.6151Z" fill="#5BF1CD" stroke="#0E0333" stroke-width="2.37141" stroke-miterlimit="10" stroke-linejoin="round"/>
<path d="M491.478 23.1002C493.004 28.0807 492.603 33.4041 490.345 38.1341C488.087 42.8641 484.118 46.6978 479.134 48.961L449.508 62.3798L453.003 69.1498L482.629 55.731C488.235 53.1842 492.531 48.6634 494.576 43.1594C496.621 37.6553 496.249 31.6169 493.541 26.3676C492.957 25.2241 492.267 24.1308 491.478 23.1002V23.1002Z" fill="#11BC92" stroke="#0E0333" stroke-width="2.37141" stroke-miterlimit="10" stroke-linejoin="round"/>
<path d="M449.526 62.3501L419.884 75.7629C414.9 78.0117 409.226 78.5469 403.86 77.2745C398.495 76.0021 393.779 73.0034 390.541 68.8049C390.926 70.0116 391.408 71.1894 391.983 72.328V72.328C394.712 77.5683 399.551 81.5842 405.441 83.4955C411.33 85.4067 417.789 85.0575 423.401 82.5243L453.027 69.1055L449.532 62.3355L449.526 62.3501Z" fill="#11BC92" stroke="#0E0333" stroke-width="2.37141" stroke-miterlimit="10" stroke-linejoin="round"/>
<path d="M292.89 17.8403L293.327 16.9979L292.89 17.8403C285.98 14.8686 279.636 15.0806 274.426 17.1644C269.191 19.2578 265.007 23.2787 262.522 28.0653C260.037 32.8518 259.281 38.3471 260.828 43.3565C262.368 48.3428 266.216 52.9381 273.126 55.9101L300.342 67.6147L320.106 29.5443L292.89 17.8403Z" fill="#10BA90" stroke="black" stroke-width="2.37"/>
<path d="M350.318 42.3756L350.318 42.3756L293.374 17.8679C286.423 14.8761 280.036 15.0984 274.787 17.211C269.514 19.3335 265.295 23.4026 262.787 28.2435C260.278 33.0844 259.511 38.6389 261.063 43.6986C262.608 48.7347 266.477 53.3707 273.429 56.3627L330.373 80.8703C337.325 83.8622 343.711 83.6399 348.96 81.5273C354.234 79.4048 358.453 75.3356 360.961 70.4946C363.469 65.6536 364.236 60.099 362.684 55.0394C361.139 50.0032 357.27 45.3673 350.318 42.3756Z" fill="#2C2525" stroke="black" stroke-width="2.37"/>
<path d="M350.175 42.2757L350.719 41.2216L350.175 42.2757L293.19 17.7233C286.194 14.7092 279.919 14.6761 274.881 16.3986C269.832 18.1252 265.93 21.6467 263.726 25.9072C261.522 30.1676 261.023 35.1539 262.77 39.8077C264.514 44.4505 268.529 48.8511 275.525 51.8656L332.51 76.4178C339.507 79.4322 345.782 79.4652 350.82 77.7427C355.869 76.0161 359.771 72.4945 361.975 68.2339C364.178 63.9734 364.678 58.987 362.93 54.3332C361.186 49.6904 357.171 45.2899 350.175 42.2757Z" fill="#757087" stroke="black" stroke-width="2.37"/>
<path d="M302.623 63.2328L320.184 29.375L292.952 17.6562C285.999 14.6642 279.763 14.6301 274.757 16.3371C269.739 18.0482 265.861 21.5396 263.67 25.7639C261.479 29.9881 260.981 34.9328 262.716 39.5487C264.447 44.1538 268.436 48.5201 275.389 51.5124L302.623 63.2328Z" fill="#222C33" stroke="#222C33" stroke-width="2.37"/>
<path d="M1732.66 68.4941L1712.53 29.2912L1740.17 17.2719C1747.19 14.219 1753.68 14.4054 1759.04 16.5543C1764.4 18.7074 1768.67 22.8466 1771.19 27.7589C1773.71 32.6711 1774.48 38.332 1772.88 43.5145C1771.28 48.6871 1767.32 53.4213 1760.3 56.4744L1732.66 68.4941Z" fill="#10BA90" stroke="black"/>
<path d="M1683.24 41.8654L1683.01 41.42L1683.24 41.8654L1739.72 17.2884C1746.78 14.2181 1753.31 14.4149 1758.7 16.5909C1764.1 18.771 1768.4 22.954 1770.94 27.9149C1773.48 32.8757 1774.26 38.5896 1772.66 43.8171C1771.06 49.0345 1767.07 53.8056 1760.01 56.8762L1703.53 81.453C1696.47 84.5235 1689.94 84.3267 1684.55 82.1507C1679.15 79.9706 1674.85 75.7874 1672.31 70.8265C1669.77 65.8655 1668.99 60.1515 1670.59 54.9241C1672.2 49.7066 1676.18 44.9357 1683.24 41.8654Z" fill="#10BA90" stroke="black"/>
<path d="M1683.38 41.7587L1739.9 17.141C1746.98 14.0584 1753.38 13.9887 1758.56 15.7635C1763.75 17.5401 1767.75 21.1779 1770 25.5803C1772.26 29.9827 1772.76 35.144 1770.95 39.9664C1769.15 44.7841 1765.02 49.3013 1757.94 52.3842L1701.42 77.0017C1694.34 80.0846 1687.93 80.1543 1682.75 78.3794C1677.57 76.6028 1673.57 72.9649 1671.31 68.5624C1669.06 64.1599 1668.56 58.9985 1670.37 54.1761C1672.17 49.3584 1676.3 44.8414 1683.38 41.7587Z" fill="#5BF1CD" stroke="black"/>
<path d="M1730.41 64.1078L1712.45 29.1142L1740.1 17.0813C1747.14 14.0179 1753.51 13.9471 1758.67 15.7082C1763.83 17.4711 1767.81 21.0824 1770.05 25.4534C1772.29 29.8244 1772.79 34.9495 1771 39.7388C1769.2 44.5234 1765.1 49.0106 1758.06 52.0742L1730.41 64.1078Z" fill="#02E2AC" stroke="black"/>
<path d="M1761.57 55.6956C1767.17 53.1488 1771.47 48.628 1773.52 43.124C1775.56 37.6199 1775.19 31.5815 1772.48 26.3322C1769.75 21.0919 1764.91 17.076 1759.02 15.1648C1753.13 13.2535 1746.67 13.6027 1741.06 16.136L1711.41 29.613L1731.92 69.1727L1761.57 55.6956Z" fill="#02E2AC" stroke="#0E0333" stroke-width="2.37141" stroke-miterlimit="10" stroke-linejoin="round"/>
<path d="M1711.41 29.6151L1681.79 43.034C1676.18 45.5808 1671.89 50.1015 1669.84 55.6056C1667.8 61.1097 1668.17 67.148 1670.88 72.3973V72.3973C1673.61 77.6377 1678.45 81.6535 1684.34 83.5648C1690.22 85.4761 1696.68 85.1268 1702.3 82.5936L1731.92 69.1748L1711.41 29.6151Z" fill="#5BF1CD" stroke="#0E0333" stroke-width="2.37141" stroke-miterlimit="10" stroke-linejoin="round"/>
<path d="M1770.4 23.1002C1771.93 28.0807 1771.52 33.4041 1769.27 38.1341C1767.01 42.8641 1763.04 46.6978 1758.06 48.961L1728.43 62.3798L1731.93 69.1498L1761.55 55.731C1767.16 53.1842 1771.45 48.6634 1773.5 43.1594C1775.54 37.6553 1775.17 31.6169 1772.46 26.3676C1771.88 25.2241 1771.19 24.1308 1770.4 23.1002V23.1002Z" fill="#11BC92" stroke="#0E0333" stroke-width="2.37141" stroke-miterlimit="10" stroke-linejoin="round"/>
<path d="M1728.45 62.3501L1698.81 75.7629C1693.82 78.0117 1688.15 78.5469 1682.78 77.2745C1677.42 76.0021 1672.7 73.0034 1669.46 68.8049C1669.85 70.0116 1670.33 71.1894 1670.9 72.328V72.328C1673.63 77.5683 1678.47 81.5842 1684.36 83.4955C1690.25 85.4067 1696.71 85.0575 1702.32 82.5243L1731.95 69.1055L1728.45 62.3355L1728.45 62.3501Z" fill="#11BC92" stroke="#0E0333" stroke-width="2.37141" stroke-miterlimit="10" stroke-linejoin="round"/>
<path d="M1572.46 17.8818L1573 16.8267L1572.46 17.8818C1565.6 14.8997 1559.31 15.0984 1554.15 17.1687C1548.97 19.2487 1544.83 23.2563 1542.37 28.0324C1539.92 32.8085 1539.19 38.2958 1540.73 43.3021C1542.27 48.2851 1546.09 52.8822 1552.95 55.8646L1579.96 67.6112L1599.47 29.6278L1572.46 17.8818Z" fill="#10BA90" stroke="black" stroke-width="2.37"/>
<path d="M1629.39 42.4755L1629.39 42.4755L1572.9 17.8986C1566.01 14.8994 1559.68 15.1081 1554.49 17.205C1549.27 19.3118 1545.1 23.3631 1542.63 28.1886C1540.15 33.014 1539.4 38.5547 1540.95 43.606C1542.5 48.6336 1546.34 53.2668 1553.23 56.2663L1609.72 80.843C1616.62 83.8424 1622.94 83.6337 1628.14 81.5368C1633.35 79.43 1637.53 75.3786 1640 70.5531C1642.47 65.7275 1643.22 60.1867 1641.67 55.1354C1640.13 50.1078 1636.28 45.4747 1629.39 42.4755ZM1629.9 41.4821L1629.9 41.4822L1629.9 41.4821Z" fill="#2C2525" stroke="black" stroke-width="2.37"/>
<path d="M1629.25 42.3694L1572.73 17.7517C1565.79 14.7304 1559.57 14.6847 1554.59 16.3924C1549.59 18.1042 1545.73 21.6091 1543.56 25.8549C1541.39 30.1007 1540.9 35.0738 1542.65 39.7195C1544.38 44.3541 1548.37 48.7522 1555.31 51.7738L1611.83 76.3913C1618.77 79.4128 1624.99 79.4585 1629.97 77.7508C1634.97 76.0389 1638.82 72.534 1641 68.2881C1643.17 64.0422 1643.65 59.069 1641.91 54.4232C1640.17 49.7886 1636.19 45.3907 1629.25 42.3694Z" fill="#757087" stroke="black" stroke-width="2.37"/>
<path d="M1582.22 63.2246L1599.54 29.4508L1572.52 17.6916C1565.62 14.6895 1559.44 14.6427 1554.48 16.3369C1549.51 18.0351 1545.68 21.5135 1543.52 25.7278C1541.35 29.942 1540.87 34.8788 1542.6 39.4916C1544.33 44.0933 1548.29 48.4615 1555.19 51.464L1582.22 63.2246Z" fill="#222C33" stroke="#222C33" stroke-width="2.37"/>
<path d="M1984.71 68.4941L1964.58 29.2912L1992.22 17.2719C1999.24 14.219 2005.73 14.4054 2011.08 16.5543C2016.45 18.7074 2020.72 22.8466 2023.24 27.7588C2025.76 32.6711 2026.53 38.332 2024.93 43.5145C2023.33 48.6871 2019.37 53.4213 2012.34 56.4744L1984.71 68.4941Z" fill="#10BA90" stroke="black"/>
<path d="M1935.28 41.8654L1935.05 41.42L1935.28 41.8654L1991.77 17.2884C1998.83 14.2181 2005.36 14.4149 2010.75 16.5908C2016.15 18.771 2020.44 22.954 2022.99 27.9149C2025.53 32.8757 2026.31 38.5896 2024.7 43.8171C2023.1 49.0345 2019.12 53.8056 2012.06 56.8762L1955.57 81.453C1948.52 84.5235 1941.99 84.3267 1936.6 82.1507C1931.2 79.9706 1926.9 75.7874 1924.36 70.8265C1921.82 65.8655 1921.04 60.1515 1922.64 54.9241C1924.24 49.7066 1928.23 44.9357 1935.28 41.8654Z" fill="#10BA90" stroke="black"/>
<path d="M1935.42 41.7587L1935.23 41.3767L1935.42 41.7587L1991.95 17.141C1999.03 14.0584 2005.43 13.9886 2010.61 15.7635C2015.8 17.5401 2019.8 21.1779 2022.05 25.5803C2024.3 29.9827 2024.81 35.144 2023 39.9664C2021.19 44.7841 2017.06 49.3012 2009.99 52.3842L1953.46 77.0017C1946.39 80.0846 1939.98 80.1543 1934.8 78.3794C1929.61 76.6028 1925.61 72.9649 1923.36 68.5624C1921.11 64.1599 1920.6 58.9985 1922.41 54.1761C1924.22 49.3584 1928.35 44.8414 1935.42 41.7587Z" fill="#5BF1CD" stroke="black"/>
<path d="M1982.45 64.1078L1964.5 29.1142L1992.15 17.0813C1999.19 14.0179 2005.56 13.9471 2010.71 15.7082C2015.87 17.471 2019.85 21.0824 2022.1 25.4534C2024.34 29.8244 2024.84 34.9495 2023.04 39.7388C2021.25 44.5234 2017.14 49.0105 2010.1 52.0742L1982.45 64.1078Z" fill="#02E2AC" stroke="black"/>
<path d="M2013.62 55.6956C2019.22 53.1488 2023.52 48.628 2025.56 43.124C2027.61 37.6199 2027.24 31.5815 2024.53 26.3322C2021.8 21.0919 2016.96 17.076 2011.07 15.1648C2005.18 13.2535 1998.72 13.6027 1993.11 16.136L1963.46 29.613L1983.96 69.1727L2013.62 55.6956Z" fill="#02E2AC" stroke="#0E0333" stroke-width="2.37141" stroke-miterlimit="10" stroke-linejoin="round"/>
<path d="M1963.46 29.6151L1933.84 43.034C1928.23 45.5808 1923.93 50.1015 1921.89 55.6056C1919.84 61.1097 1920.22 67.148 1922.92 72.3973V72.3973C1925.65 77.6377 1930.49 81.6535 1936.38 83.5648C1942.27 85.4761 1948.73 85.1268 1954.34 82.5936L1983.97 69.1748L1963.46 29.6151Z" fill="#5BF1CD" stroke="#0E0333" stroke-width="2.37141" stroke-miterlimit="10" stroke-linejoin="round"/>
<path d="M2022.45 23.1002C2023.97 28.0807 2023.57 33.4041 2021.31 38.1341C2019.06 42.8641 2015.09 46.6978 2010.1 48.961L1980.48 62.3798L1983.97 69.1498L2013.6 55.731C2019.2 53.1842 2023.5 48.6634 2025.54 43.1594C2027.59 37.6553 2027.22 31.6169 2024.51 26.3676C2023.93 25.2241 2023.24 24.1308 2022.45 23.1002V23.1002Z" fill="#11BC92" stroke="#0E0333" stroke-width="2.37141" stroke-miterlimit="10" stroke-linejoin="round"/>
<path d="M1980.49 62.3501L1950.85 75.7629C1945.87 78.0117 1940.2 78.5469 1934.83 77.2745C1929.46 76.0021 1924.75 73.0034 1921.51 68.8049C1921.89 70.0116 1922.38 71.1894 1922.95 72.328V72.328C1925.68 77.5683 1930.52 81.5842 1936.41 83.4955C1942.3 85.4067 1948.76 85.0575 1954.37 82.5243L1984 69.1055L1980.5 62.3355L1980.49 62.3501Z" fill="#11BC92" stroke="#0E0333" stroke-width="2.37141" stroke-miterlimit="10" stroke-linejoin="round"/>
<path d="M1823.42 17.8818L1823.97 16.8267L1823.42 17.8818C1816.57 14.8997 1810.28 15.0984 1805.12 17.1687C1799.93 19.2487 1795.79 23.2563 1793.34 28.0324C1790.89 32.8085 1790.15 38.2958 1791.7 43.3021C1793.24 48.2851 1797.06 52.8822 1803.92 55.8646L1830.93 67.6112L1850.43 29.6278L1823.42 17.8818Z" fill="#10BA90" stroke="black" stroke-width="2.37"/>
<path d="M1880.36 42.4755L1880.36 42.4755L1823.87 17.8986C1816.98 14.8994 1810.65 15.1081 1805.46 17.205C1800.24 19.3118 1796.07 23.3631 1793.59 28.1886C1791.12 33.014 1790.37 38.5547 1791.92 43.606C1793.47 48.6336 1797.31 53.2668 1804.2 56.2663L1860.69 80.843C1867.58 83.8424 1873.91 83.6337 1879.1 81.5368C1884.32 79.43 1888.49 75.3786 1890.97 70.5531C1893.44 65.7275 1894.19 60.1867 1892.64 55.1354C1891.09 50.1078 1887.25 45.4747 1880.36 42.4755ZM1880.87 41.4821L1880.87 41.4822L1880.87 41.4821Z" fill="#2C2525" stroke="black" stroke-width="2.37"/>
<path d="M1880.22 42.3694L1823.69 17.7517C1816.76 14.7304 1810.54 14.6847 1805.56 16.3924C1800.56 18.1042 1796.7 21.6091 1794.53 25.8549C1792.36 30.1007 1791.87 35.0738 1793.61 39.7195C1795.35 44.3541 1799.34 48.7522 1806.28 51.7738L1862.8 76.3913C1869.74 79.4128 1875.95 79.4585 1880.94 77.7508C1885.94 76.0389 1889.79 72.534 1891.97 68.2881C1894.14 64.0422 1894.62 59.069 1892.88 54.4232C1891.14 49.7886 1887.15 45.3907 1880.22 42.3694Z" fill="#757087" stroke="black" stroke-width="2.37"/>
<path d="M1833.19 63.2246L1850.51 29.4508L1823.49 17.6916C1816.59 14.6895 1810.41 14.6427 1805.45 16.3369C1800.48 18.0351 1796.65 21.5135 1794.48 25.7278C1792.32 29.942 1791.84 34.8788 1793.57 39.4916C1795.3 44.0933 1799.26 48.4615 1806.16 51.464L1833.19 63.2246Z" fill="#222C33" stroke="#222C33" stroke-width="2.37"/>
<path d="M1219.78 68.4941L1199.65 29.2912L1227.29 17.2719C1234.31 14.219 1240.8 14.4054 1246.15 16.5543C1251.52 18.7074 1255.79 22.8466 1258.31 27.7588C1260.83 32.6711 1261.6 38.332 1260 43.5145C1258.4 48.6871 1254.44 53.4213 1247.42 56.4744L1219.78 68.4941Z" fill="#10BA90" stroke="black"/>
<path d="M1170.35 41.8654L1170.12 41.42L1170.35 41.8654L1226.84 17.2884C1233.9 14.2181 1240.43 14.4149 1245.82 16.5908C1251.22 18.771 1255.51 22.954 1258.06 27.9149C1260.6 32.8757 1261.38 38.5896 1259.77 43.8171C1258.17 49.0345 1254.19 53.8056 1247.13 56.8762L1190.65 81.453C1183.59 84.5235 1177.06 84.3267 1171.67 82.1507C1166.27 79.9706 1161.97 75.7874 1159.43 70.8265C1156.89 65.8655 1156.11 60.1515 1157.71 54.9241C1159.31 49.7066 1163.3 44.9357 1170.35 41.8654Z" fill="#10BA90" stroke="black"/>
<path d="M1170.49 41.7587L1170.3 41.3767L1170.49 41.7587L1227.02 17.141C1234.1 14.0584 1240.5 13.9886 1245.68 15.7635C1250.87 17.5401 1254.87 21.1779 1257.12 25.5803C1259.37 29.9827 1259.88 35.144 1258.07 39.9664C1256.26 44.7841 1252.14 49.3012 1245.06 52.3842L1188.53 77.0017C1181.46 80.0846 1175.05 80.1543 1169.87 78.3794C1164.68 76.6028 1160.68 72.9649 1158.43 68.5624C1156.18 64.1599 1155.67 58.9985 1157.48 54.1761C1159.29 49.3584 1163.42 44.8414 1170.49 41.7587Z" fill="#5BF1CD" stroke="black"/>
<path d="M1217.52 64.1078L1199.57 29.1142L1227.22 17.0813C1234.26 14.0179 1240.63 13.9471 1245.78 15.7082C1250.94 17.471 1254.92 21.0824 1257.17 25.4534C1259.41 29.8244 1259.91 34.9495 1258.11 39.7388C1256.32 44.5234 1252.21 49.0105 1245.17 52.0742L1217.52 64.1078Z" fill="#02E2AC" stroke="black"/>
<path d="M1248.69 55.6956C1254.29 53.1488 1258.59 48.628 1260.63 43.124C1262.68 37.6199 1262.31 31.5815 1259.6 26.3322C1256.87 21.0919 1252.03 17.076 1246.14 15.1648C1240.25 13.2535 1233.79 13.6027 1228.18 16.136L1198.53 29.613L1219.04 69.1727L1248.69 55.6956Z" fill="#02E2AC" stroke="#0E0333" stroke-width="2.37141" stroke-miterlimit="10" stroke-linejoin="round"/>
<path d="M1198.53 29.6151L1168.91 43.034C1163.3 45.5808 1159 50.1015 1156.96 55.6056C1154.91 61.1097 1155.29 67.148 1157.99 72.3973V72.3973C1160.72 77.6377 1165.56 81.6535 1171.45 83.5648C1177.34 85.4761 1183.8 85.1268 1189.41 82.5936L1219.04 69.1748L1198.53 29.6151Z" fill="#5BF1CD" stroke="#0E0333" stroke-width="2.37141" stroke-miterlimit="10" stroke-linejoin="round"/>
<path d="M1257.52 23.1002C1259.04 28.0807 1258.64 33.4041 1256.38 38.1341C1254.13 42.8641 1250.16 46.6978 1245.17 48.961L1215.55 62.3798L1219.04 69.1498L1248.67 55.731C1254.27 53.1842 1258.57 48.6634 1260.62 43.1594C1262.66 37.6553 1262.29 31.6169 1259.58 26.3676C1259 25.2241 1258.31 24.1308 1257.52 23.1002V23.1002Z" fill="#11BC92" stroke="#0E0333" stroke-width="2.37141" stroke-miterlimit="10" stroke-linejoin="round"/>
<path d="M1215.56 62.3501L1185.92 75.7629C1180.94 78.0117 1175.27 78.5469 1169.9 77.2745C1164.53 76.0021 1159.82 73.0034 1156.58 68.8049C1156.96 70.0116 1157.45 71.1894 1158.02 72.328V72.328C1160.75 77.5683 1165.59 81.5842 1171.48 83.4955C1177.37 85.4067 1183.83 85.0575 1189.44 82.5243L1219.07 69.1055L1215.57 62.3355L1215.56 62.3501Z" fill="#11BC92" stroke="#0E0333" stroke-width="2.37141" stroke-miterlimit="10" stroke-linejoin="round"/>
<path d="M1058.48 17.8818L1059.02 16.8267L1058.48 17.8818C1051.62 14.8997 1045.33 15.0984 1040.17 17.1687C1034.99 19.2487 1030.85 23.2563 1028.4 28.0324C1025.94 32.8085 1025.21 38.2958 1026.75 43.3021C1028.29 48.2851 1032.12 52.8822 1038.98 55.8646L1065.99 67.6112L1085.49 29.6278L1058.48 17.8818Z" fill="#10BA90" stroke="black" stroke-width="2.37"/>
<path d="M1115.41 42.4755L1115.41 42.4755L1058.93 17.8986C1052.03 14.8994 1045.71 15.1081 1040.51 17.205C1035.29 19.3118 1031.12 23.3631 1028.65 28.1886C1026.17 33.014 1025.43 38.5547 1026.98 43.606C1028.52 48.6336 1032.36 53.2668 1039.26 56.2663L1095.74 80.843C1102.64 83.8424 1108.96 83.6337 1114.16 81.5368C1119.38 79.43 1123.55 75.3786 1126.02 70.5531C1128.5 65.7275 1129.24 60.1867 1127.69 55.1354C1126.15 50.1078 1122.31 45.4747 1115.41 42.4755ZM1115.92 41.4821L1115.92 41.4822L1115.92 41.4821Z" fill="#2C2525" stroke="black" stroke-width="2.37"/>
<path d="M1115.27 42.3694L1058.75 17.7517C1051.81 14.7304 1045.6 14.6847 1040.61 16.3924C1035.61 18.1042 1031.76 21.6091 1029.58 25.8549C1027.41 30.1007 1026.93 35.0738 1028.67 39.7195C1030.41 44.3541 1034.39 48.7522 1041.33 51.7738L1097.85 76.3913C1104.79 79.4128 1111.01 79.4585 1115.99 77.7508C1120.99 76.0389 1124.85 72.534 1127.02 68.2881C1129.19 64.0422 1129.68 59.069 1127.93 54.4232C1126.2 49.7886 1122.21 45.3907 1115.27 42.3694Z" fill="#757087" stroke="black" stroke-width="2.37"/>
<path d="M1068.24 63.2246L1085.57 29.4508L1058.54 17.6916C1051.65 14.6895 1045.46 14.6427 1040.51 16.3369C1035.54 18.0351 1031.7 21.5135 1029.54 25.7278C1027.38 29.942 1026.9 34.8788 1028.63 39.4916C1030.35 44.0933 1034.32 48.4615 1041.22 51.464L1068.24 63.2246Z" fill="#222C33" stroke="#222C33" stroke-width="2.37"/>
<path d="M1470.74 68.4941L1450.61 29.2912L1478.25 17.2719C1485.27 14.219 1491.76 14.4054 1497.12 16.5543C1502.48 18.7074 1506.75 22.8466 1509.27 27.7588C1511.79 32.6711 1512.56 38.332 1510.96 43.5145C1509.36 48.6871 1505.4 53.4213 1498.38 56.4744L1470.74 68.4941Z" fill="#10BA90" stroke="black"/>
<path d="M1421.31 41.8654L1421.09 41.42L1421.31 41.8654L1477.8 17.2884C1484.86 14.2181 1491.39 14.4149 1496.78 16.5908C1502.18 18.771 1506.47 22.954 1509.02 27.9149C1511.56 32.8757 1512.34 38.5896 1510.73 43.8171C1509.13 49.0345 1505.15 53.8056 1498.09 56.8762L1441.61 81.453C1434.55 84.5235 1428.02 84.3267 1422.63 82.1507C1417.23 79.9706 1412.93 75.7874 1410.39 70.8265C1407.85 65.8655 1407.07 60.1515 1408.67 54.9241C1410.27 49.7066 1414.26 44.9357 1421.31 41.8654Z" fill="#10BA90" stroke="black"/>
<path d="M1421.46 41.7587L1421.26 41.3767L1421.46 41.7587L1477.98 17.141C1485.06 14.0584 1491.46 13.9886 1496.64 15.7635C1501.83 17.5401 1505.83 21.1779 1508.08 25.5803C1510.34 29.9827 1510.84 35.144 1509.03 39.9664C1507.22 44.7841 1503.1 49.3012 1496.02 52.3842L1439.5 77.0017C1432.42 80.0846 1426.01 80.1543 1420.83 78.3794C1415.65 76.6028 1411.64 72.9649 1409.39 68.5624C1407.14 64.1599 1406.64 58.9985 1408.44 54.1761C1410.25 49.3584 1414.38 44.8414 1421.46 41.7587Z" fill="#5BF1CD" stroke="black"/>
<path d="M1468.48 64.1078L1450.53 29.1142L1478.18 17.0813C1485.22 14.0179 1491.59 13.9471 1496.75 15.7082C1501.9 17.471 1505.89 21.0824 1508.13 25.4534C1510.37 29.8244 1510.87 34.9495 1509.07 39.7388C1507.28 44.5234 1503.17 49.0105 1496.14 52.0742L1468.48 64.1078Z" fill="#02E2AC" stroke="black"/>
<path d="M1499.65 55.6956C1505.25 53.1488 1509.55 48.628 1511.59 43.124C1513.64 37.6199 1513.27 31.5815 1510.56 26.3322C1507.83 21.0919 1502.99 17.076 1497.1 15.1648C1491.21 13.2535 1484.75 13.6027 1479.14 16.136L1449.49 29.613L1470 69.1727L1499.65 55.6956Z" fill="#02E2AC" stroke="#0E0333" stroke-width="2.37141" stroke-miterlimit="10" stroke-linejoin="round"/>
<path d="M1449.49 29.6151L1419.87 43.034C1414.26 45.5808 1409.97 50.1015 1407.92 55.6056C1405.87 61.1097 1406.25 67.148 1408.96 72.3973V72.3973C1411.68 77.6377 1416.52 81.6535 1422.41 83.5648C1428.3 85.4761 1434.76 85.1268 1440.37 82.5936L1470 69.1748L1449.49 29.6151Z" fill="#5BF1CD" stroke="#0E0333" stroke-width="2.37141" stroke-miterlimit="10" stroke-linejoin="round"/>
<path d="M1508.48 23.1002C1510 28.0807 1509.6 33.4041 1507.35 38.1341C1505.09 42.8641 1501.12 46.6978 1496.13 48.961L1466.51 62.3798L1470 69.1498L1499.63 55.731C1505.23 53.1842 1509.53 48.6634 1511.58 43.1594C1513.62 37.6553 1513.25 31.6169 1510.54 26.3676C1509.96 25.2241 1509.27 24.1308 1508.48 23.1002V23.1002Z" fill="#11BC92" stroke="#0E0333" stroke-width="2.37141" stroke-miterlimit="10" stroke-linejoin="round"/>
<path d="M1466.53 62.3501L1436.88 75.7629C1431.9 78.0117 1426.23 78.5469 1420.86 77.2745C1415.49 76.0021 1410.78 73.0034 1407.54 68.8049C1407.93 70.0116 1408.41 71.1894 1408.98 72.328V72.328C1411.71 77.5683 1416.55 81.5842 1422.44 83.4955C1428.33 85.4067 1434.79 85.0575 1440.4 82.5243L1470.03 69.1055L1466.53 62.3355L1466.53 62.3501Z" fill="#11BC92" stroke="#0E0333" stroke-width="2.37141" stroke-miterlimit="10" stroke-linejoin="round"/>
<path d="M1310.54 17.8819L1311.08 16.8267L1310.54 17.8819C1303.68 14.8997 1297.4 15.0984 1292.24 17.1688C1287.05 19.2487 1282.91 23.2563 1280.46 28.0324C1278.01 32.8085 1277.27 38.2959 1278.82 43.3022C1280.35 48.2851 1284.18 52.8822 1291.04 55.8646L1318.05 67.6112L1337.55 29.6278L1310.54 17.8819Z" fill="#10BA90" stroke="black" stroke-width="2.37"/>
<path d="M1367.48 42.4755L1367.48 42.4755L1310.99 17.8986C1304.09 14.8994 1297.77 15.1081 1292.57 17.205C1287.35 19.3118 1283.18 23.3632 1280.71 28.1886C1278.24 33.014 1277.49 38.5547 1279.04 43.6061C1280.58 48.6336 1284.43 53.2668 1291.32 56.2663L1347.81 80.843C1354.7 83.8424 1361.03 83.6338 1366.22 81.5368C1371.44 79.43 1375.61 75.3786 1378.08 70.5531C1380.56 65.7276 1381.3 60.1867 1379.75 55.1354C1378.21 50.1078 1374.37 45.4747 1367.48 42.4755ZM1367.98 41.4822L1367.98 41.4822L1367.98 41.4822Z" fill="#2C2525" stroke="black" stroke-width="2.37"/>
<path d="M1367.33 42.3694L1310.81 17.7517C1303.87 14.7304 1297.66 14.6847 1292.67 16.3924C1287.68 18.1042 1283.82 21.6091 1281.65 25.8549C1279.47 30.1007 1278.99 35.0738 1280.73 39.7195C1282.47 44.3541 1286.46 48.7522 1293.39 51.7738L1349.92 76.3913C1356.86 79.4128 1363.07 79.4586 1368.06 77.7508C1373.05 76.0389 1376.91 72.534 1379.08 68.2881C1381.26 64.0422 1381.74 59.069 1380 54.4232C1378.26 49.7886 1374.27 45.3907 1367.33 42.3694Z" fill="#757087" stroke="black" stroke-width="2.37"/>
<path d="M1320.3 63.2247L1337.63 29.4508L1310.61 17.6917C1303.71 14.6895 1297.53 14.6427 1292.57 16.3369C1287.6 18.0351 1283.76 21.5135 1281.6 25.7278C1279.44 29.942 1278.96 34.8789 1280.69 39.4916C1282.41 44.0933 1286.38 48.4615 1293.28 51.464L1320.3 63.2247Z" fill="#222C33" stroke="#222C33" stroke-width="2.37"/>
</svg>
