<svg width="34" height="28" viewBox="0 0 34 28" fill="none" xmlns="http://www.w3.org/2000/svg">
<path d="M6.09375 19.618C8.3 21.4541 11.6313 23.3727 17 23.3727C22.3688 23.3727 25.7 21.4541 27.9063 19.618M27 7.24686C24.3063 5.73398 21.6438 4.31738 17 4.31738C12.3563 4.31738 9.70625 5.74774 7 7.24686" stroke="black" stroke-width="2"/>
<path d="M14.075 4.53066L12.9063 2C10.4361 2.32645 8.08708 3.3603 6.09375 4.99828C6.09375 4.99828 2.625 10.5616 2 21.5026C5.51875 25.9656 10.8625 26 10.8625 26L12.9375 22.9398M21.0625 22.9398L23.1375 25.9794C23.1375 25.9794 28.4812 25.9656 32 21.5026C31.375 10.5685 27.9063 4.99828 27.9063 4.99828C27.9063 4.99828 24.7812 2.30258 21.0937 2L19.9562 4.53754" stroke="black" stroke-width="2"/>
<path d="M12.5684 18.504C11.8906 18.4511 11.2593 18.1055 10.8121 17.5426C10.3649 16.9798 10.138 16.2452 10.1809 15.4991C10.1397 14.7541 10.3673 14.0213 10.8144 13.4599C11.2614 12.8986 11.8918 12.5539 12.5684 12.501C13.2451 12.5539 13.8754 12.8986 14.3225 13.4599C14.7695 14.0213 14.9972 14.7541 14.9559 15.4991C14.9989 16.2452 14.772 16.9798 14.3248 17.5426C13.8776 18.1055 13.2463 18.4511 12.5684 18.504V18.504ZM21.4309 18.504C20.7531 18.4511 20.1218 18.1055 19.6746 17.5426C19.2274 16.9798 19.0005 16.2452 19.0434 15.4991C19.0022 14.7541 19.2299 14.0213 19.6769 13.4599C20.1239 12.8986 20.7543 12.5539 21.4309 12.501C22.1076 12.5539 22.7379 12.8986 23.185 13.4599C23.632 14.0213 23.8597 14.7541 23.8185 15.4991C23.8614 16.2452 23.6345 16.9798 23.1873 17.5426C22.7401 18.1055 22.1088 18.4511 21.4309 18.504V18.504Z" stroke="black" stroke-width="2"/>
</svg>
