<svg width="31" height="23" viewBox="0 0 31 23" fill="none" xmlns="http://www.w3.org/2000/svg">
<path d="M28 3.94033C26.545 3.73024 25.078 3.60421 23.6071 3.56291C22.8087 2.76342 21.7573 2.23634 20.6146 2.0627C19.4718 1.88905 18.3009 2.07845 17.2819 2.60178C16.2629 3.1251 15.4522 3.95339 14.9744 4.95932C14.4965 5.96525 14.378 7.09313 14.6371 8.16959C10.2604 7.95761 6.94542 5.81196 3.84708 2.62192C3.42458 3.4078 2.62292 5.91537 3.24583 7.72495C3.98557 9.51358 5.25631 11.0571 6.90208 12.1662C5.31838 12.0971 3.7582 11.7737 2.28708 11.2097C3.05083 13.6035 5.6725 17.0779 9.79458 17.6208C7.93282 19.0247 5.62929 19.7879 3.25667 19.7871C2.83697 19.7918 2.41735 19.7728 2 19.7303C4.40483 21.2136 7.20759 22.0018 10.0708 22C19.7504 22 25.0479 14.3015 25.0479 7.62155V6.96493L28 3.94033Z" stroke="black" stroke-width="2"/>
</svg>
