<svg width="32" height="22" viewBox="0 0 32 22" fill="none" xmlns="http://www.w3.org/2000/svg">
<path d="M30.4748 4.23291C30.3303 3.501 29.939 2.83184 29.3585 2.32374C28.778 1.81564 28.0389 1.49541 27.2498 1.41009C23.4999 1.18755 19.7499 1.00599 15.9999 1.00014C12.2499 0.994281 8.49997 1.17583 4.75 1.39838C3.95977 1.48252 3.21926 1.80223 2.63755 2.31042C2.05583 2.81861 1.66365 3.48842 1.51878 4.2212C0.827075 8.66422 0.827075 13.1778 1.51878 17.6208C1.66377 18.3659 2.05493 19.0494 2.63698 19.5748C3.21903 20.1003 3.96255 20.441 4.7625 20.5491C8.51247 20.7716 12.2624 21 16.0124 21C19.7624 21 23.5124 20.8009 27.2623 20.5725C28.0673 20.454 28.8125 20.1021 29.3931 19.5664C29.9738 19.0307 30.3608 18.3381 30.4998 17.5857C30.8394 15.3785 31.0065 13.151 30.9998 10.921C30.9999 8.6826 30.8244 6.44721 30.4748 4.23291ZM12.5999 14.9561V6.79219L20.7249 10.8917L12.5999 14.9561Z" stroke="black"/>
<path d="M30.4748 4.23291C30.3303 3.501 29.939 2.83184 29.3585 2.32374C28.778 1.81564 28.0389 1.49541 27.2498 1.41009C23.4999 1.18755 19.7499 1.00599 15.9999 1.00014C12.2499 0.994281 8.49997 1.17583 4.75 1.39838C3.95977 1.48252 3.21926 1.80223 2.63755 2.31042C2.05583 2.81861 1.66365 3.48842 1.51878 4.2212C0.827075 8.66422 0.827075 13.1778 1.51878 17.6208C1.66377 18.3659 2.05493 19.0494 2.63698 19.5748C3.21903 20.1003 3.96255 20.441 4.7625 20.5491C8.51247 20.7716 12.2624 21 16.0124 21C19.7624 21 23.5124 20.8009 27.2623 20.5725C28.0673 20.454 28.8125 20.1021 29.3931 19.5664C29.9738 19.0307 30.3608 18.3381 30.4998 17.5857C30.8394 15.3785 31.0065 13.151 30.9998 10.921C30.9999 8.6826 30.8244 6.44721 30.4748 4.23291ZM12.5999 14.9561V6.79219L20.7249 10.8917L12.5999 14.9561Z" stroke="black" stroke-width="2"/>
</svg>
