<svg width="600" height="500" viewBox="0 0 500 400" fill="none" xmlns="http://www.w3.org/2000/svg">
<path d="M130.45 46.5007L270.236 232.937L113.379 321.794" stroke="#6F3FF5" stroke-width="2.40717" stroke-miterlimit="10"/>
<path d="M288.946 259.762L363.979 357.818" stroke="#6F3FF5" stroke-width="2.40717" stroke-miterlimit="10"/>
<path d="M396.333 179.421L269.401 228.75L323.161 45.0393" stroke="#6F3FF5" stroke-width="2.40717" stroke-miterlimit="10"/>
<path d="M264.982 269.549C284.098 269.933 299.935 253.322 300.355 232.448C300.774 211.574 285.616 194.341 266.5 193.957C247.383 193.573 231.546 210.184 231.127 231.058C230.708 251.932 245.865 269.165 264.982 269.549Z" fill="white" stroke="#6F3FF5" stroke-width="2.40717" stroke-miterlimit="10"/>
<path fill-rule="evenodd" clip-rule="evenodd" d="M288.306 232.754C288.333 231.415 288.259 230.077 288.085 228.753L280.918 225.793L284.362 218.29C282.969 216.089 281.261 214.146 279.302 212.538L272.298 215.993L269.879 208.053C267.465 207.567 264.993 207.517 262.561 207.907L259.826 215.743L252.966 212.009C250.944 213.538 249.159 215.41 247.679 217.554L250.819 225.189L243.539 227.858C243.084 230.496 243.03 233.195 243.378 235.849L250.545 238.808L247.101 246.311C248.495 248.513 250.203 250.455 252.161 252.064L259.166 248.608L261.584 256.548C263.998 257.035 266.471 257.084 268.902 256.695L271.638 248.859L278.498 252.593C280.519 251.064 282.304 249.192 283.785 247.048L280.644 239.412L287.925 236.743C288.152 235.427 288.279 234.092 288.306 232.754Z" stroke="#6F3FF5" stroke-width="2.40717" stroke-miterlimit="10"/>
<ellipse cx="265.732" cy="232.301" rx="3.76314" ry="4.10905" transform="rotate(1.15044 265.732 232.301)" stroke="#6F3FF5" stroke-width="2.40717" stroke-miterlimit="10"/>
<rect width="6.62655" height="6.78427" transform="matrix(0.782327 -0.622867 0.554514 0.832175 201.818 268.172)" fill="#DAD1FF" stroke="#6F3FF5" stroke-width="2.40717" stroke-miterlimit="10"/>
<rect width="6.98345" height="6.41629" transform="matrix(-0.144 0.989578 -0.985903 -0.167317 295.13 151.103)" fill="#DAD1FF" stroke="#6F3FF5" stroke-width="2.40717" stroke-miterlimit="10"/>
<rect width="6.71823" height="6.69349" transform="matrix(0.644597 0.764522 -0.705092 0.709116 196.649 128.986)" fill="#DAD1FF" stroke="#6F3FF5" stroke-width="2.40717" stroke-miterlimit="10"/>
<rect width="6.53682" height="6.87076" transform="matrix(-0.877282 0.479974 -0.415286 -0.909691 372.001 191.541)" fill="#DAD1FF" stroke="#6F3FF5" stroke-width="2.40717" stroke-miterlimit="10"/>
<rect width="6.71823" height="6.69349" transform="matrix(0.644597 0.764522 -0.705092 0.709116 232.313 177.379)" fill="#DAD1FF" stroke="#6F3FF5" stroke-width="2.40717" stroke-miterlimit="10"/>
<rect width="6.71823" height="6.69349" transform="matrix(0.644597 0.764522 -0.705092 0.709116 305.842 275.684)" fill="#DAD1FF" stroke="#6F3FF5" stroke-width="2.40717" stroke-miterlimit="10"/>
<rect width="6.53682" height="6.87076" transform="matrix(-0.877282 0.479974 -0.415286 -0.909691 328.006 208.552)" fill="#DAD1FF" stroke="#6F3FF5" stroke-width="2.40717" stroke-miterlimit="10"/>
<path d="M351.258 400.515C380.267 401.098 404.299 375.892 404.935 344.216C405.571 312.541 382.57 286.391 353.561 285.808C324.552 285.226 300.52 310.431 299.884 342.107C299.248 373.782 322.249 399.932 351.258 400.515Z" fill="white" stroke="#6F3FF5" stroke-width="2.40717" stroke-miterlimit="10"/>
<path d="M351.328 360.672C368.653 361.019 383.012 345.609 383.401 326.252C383.79 306.895 370.06 290.921 352.735 290.573C335.411 290.225 321.051 305.635 320.662 324.992C320.274 344.35 334.003 360.324 351.328 360.672Z" fill="#5BF1CD"/>
<path d="M358.845 366.851C359.097 367.011 359.354 367.157 359.613 367.29C355.597 369.018 352.505 369.744 349.682 369.648C347.005 369.556 344.463 368.722 341.497 367.112C341.945 366.962 342.402 366.789 342.851 366.591C344.353 365.928 346.043 364.854 346.725 363.102C347.267 361.708 347.533 360.437 347.664 359.512C347.681 359.396 347.695 359.285 347.708 359.18L354.984 359.327C354.998 359.444 355.013 359.569 355.031 359.701C355.156 360.62 355.4 361.887 355.881 363.286C356.446 364.929 357.616 366.073 358.845 366.851Z" stroke="#6F3FF5" stroke-width="2.40717"/>
<path d="M384.636 385.688L384.674 383.801C384.679 383.541 384.682 383.368 384.688 383.108C384.691 382.935 384.694 382.762 384.698 382.589C384.703 382.329 384.627 382.154 384.631 381.981L384.633 381.895C384.636 381.721 384.562 381.46 384.565 381.287C384.569 381.114 384.574 380.854 384.498 380.68C384.498 380.68 384.502 380.506 384.426 380.332C384.144 378.594 383.541 377.023 382.698 375.534C382.623 375.359 382.467 375.183 382.392 375.008C382.316 374.834 382.24 374.659 382.085 374.483C381.699 373.955 381.313 373.428 380.848 372.899C380.538 372.546 380.148 372.192 379.838 371.84C377.114 369.274 373.957 368.517 372.137 368.308C370.327 367.967 365.513 367.719 360.308 367.561M315.783 382.417C315.787 382.244 315.79 382.071 315.794 381.898C315.811 381.032 315.987 380.17 316.163 379.307C316.686 376.98 317.599 374.92 318.904 373.127C319.558 372.188 320.368 371.338 321.255 370.577C323.756 368.462 326.874 367.226 330.283 367.294C333.074 367.278 336.597 367.271 340.42 367.283" stroke="#6F3FF5" stroke-width="2.40717"/>
<path d="M373.487 391.889L373.415 395.487" stroke="#6F3FF5" stroke-width="2.40717"/>
<path d="M330.519 391.026L330.433 395.292" stroke="#6F3FF5" stroke-width="2.40717"/>
<path d="M341.919 327.053C341.605 329.866 341.29 332.679 340.961 335.507C337.438 336.627 334.215 332.491 330.563 332.888C329.621 329.799 328.807 325.772 329.516 322.607C330.225 319.442 333.278 316.668 336.082 317.743C336.169 314.831 337.661 311.995 339.929 310.443C342.198 308.891 345.172 308.653 347.615 309.83C349.607 307.082 352.253 304.583 355.445 304.224C358.636 303.865 362.182 306.567 361.94 310.055C366.101 308.525 371.145 311.665 372.055 316.351C373.107 321.822 368.839 327.187 363.943 328.858C359.047 330.53 353.761 329.484 348.734 328.427C346.277 327.893 341.919 327.053 341.919 327.053Z" fill="#6F3FF5" stroke="#6F3FF5" stroke-width="2.40717" stroke-miterlimit="10"/>
<path d="M333.298 341.495C332.705 341.045 332.23 340.393 332.003 339.574C331.735 338.629 331.841 337.644 332.245 336.823" stroke="#6F3FF5" stroke-width="2.40717"/>
<path d="M348.081 334.675C348.166 332.98 349.494 331.676 351.046 331.763C352.599 331.85 353.788 333.295 353.703 334.99" stroke="#6F3FF5" stroke-width="2.40717"/>
<path d="M349.887 337.918C350.566 337.932 351.128 337.342 351.143 336.601C351.158 335.86 350.62 335.248 349.941 335.234C349.262 335.221 348.7 335.81 348.685 336.551C348.67 337.293 349.208 337.905 349.887 337.918Z" fill="#6F3FF5"/>
<path d="M364.068 338.203C364.746 338.217 365.309 337.627 365.324 336.886C365.339 336.144 364.8 335.533 364.122 335.519C363.443 335.505 362.881 336.095 362.866 336.836C362.851 337.577 363.389 338.189 364.068 338.203Z" fill="#6F3FF5"/>
<path d="M359.381 335.004C359.416 333.307 360.703 331.956 362.258 331.987C363.812 332.018 365.045 333.42 365.011 335.117" stroke="#6F3FF5" stroke-width="2.40717"/>
<path d="M355.222 345.423L359.326 343.555L357.845 337.226" stroke="#6F3FF5" stroke-width="2.40717"/>
<path d="M350.699 350.584C351.198 352.176 352.522 353.361 353.989 353.923C355.455 354.485 357.047 354.486 358.584 354.345" stroke="#6F3FF5" stroke-width="2.40717"/>
<path d="M351.614 357.824C343.699 357.666 336.215 352.14 335.14 344.261C335.133 344.161 335.119 344.069 335.115 344.04C335.115 344.037 335.114 344.035 335.114 344.033C335.108 343.993 335.103 343.956 335.099 343.93L335.094 343.897L335.092 343.887L335.092 343.884L335.091 343.883L335.091 343.883L335.091 343.883L335.091 343.883L333.903 344.076L335.091 343.883L334.864 342.481L333.518 342.936C331.405 343.649 329.034 342.395 328.327 339.872C327.609 337.313 328.96 334.705 331.126 333.971C331.69 333.785 332.268 333.735 332.818 333.803L333.778 336.017L334.92 333.65C334.953 333.582 334.975 333.522 334.99 333.475L335.004 333.447L335.034 333.329C337.159 324.941 344.24 318.972 352.391 319.135C362.038 319.329 369.841 328.039 369.624 338.826C369.408 349.613 361.247 358.018 351.614 357.824Z" stroke="#6F3FF5" stroke-width="2.40717"/>
<path d="M117.984 373.69C148.604 374.305 173.971 347.699 174.643 314.263C175.314 280.828 151.035 253.225 120.415 252.61C89.7945 251.995 64.4274 278.602 63.7559 312.037C63.0845 345.472 87.363 373.075 117.984 373.69Z" fill="white" stroke="#6F3FF5" stroke-width="2.40717" stroke-miterlimit="10"/>
<path d="M120.277 351.529C143.753 352 163.201 331.602 163.716 305.969C164.231 280.335 145.617 259.173 122.141 258.701C98.6656 258.23 79.2175 278.628 78.7027 304.262C78.1879 329.895 96.8015 351.057 120.277 351.529Z" fill="#FFE88F"/>
<path d="M127.385 332.71C127.823 332.987 128.275 333.23 128.728 333.442C123.698 335.653 119.847 336.592 116.325 336.472C112.943 336.357 109.749 335.26 105.991 333.16C106.678 332.948 107.395 332.692 108.093 332.384C109.871 331.599 111.812 330.35 112.591 328.35C113.23 326.709 113.544 325.211 113.698 324.121C113.729 323.905 113.753 323.705 113.772 323.522L122.865 323.705C122.885 323.899 122.91 324.114 122.942 324.347C123.089 325.432 123.378 326.928 123.945 328.578C124.596 330.473 125.948 331.8 127.385 332.71Z" stroke="#6F3FF5" stroke-width="2.40717"/>
<path d="M136.274 293.816C137.871 294.364 138.695 295.723 138.668 297.065C138.643 298.304 137.57 299.935 136.049 300.317M99.9737 292.984C97.7027 293.041 96.5351 294.67 96.504 296.218C96.4729 297.767 97.9461 299.759 99.839 299.693" stroke="#6F3FF5" stroke-width="2.40717"/>
<path d="M135.896 298.352C135.801 298.35 135.803 298.247 135.805 298.144C135.904 297.939 136.315 296.295 136.979 296.205C137.168 296.209 137.355 296.316 137.54 296.526C137.538 296.63 137.538 296.63 137.536 296.733C137.442 296.731 137.442 296.731 137.347 296.729C137.162 296.519 137.068 296.517 136.973 296.515C136.593 296.611 136.194 297.635 135.99 298.354C135.99 298.354 135.896 298.352 135.896 298.352Z" fill="#6F3FF5"/>
<path d="M137.311 298.588C137.219 298.483 137.219 298.483 137.221 298.379C137.317 298.278 137.32 298.175 137.229 297.966C137.145 297.448 136.399 296.917 136.304 296.915C136.21 296.913 136.212 296.81 136.309 296.709C136.311 296.605 136.405 296.607 136.498 296.712C136.498 296.712 137.338 297.246 137.515 297.869C137.605 298.077 137.507 298.282 137.41 298.383C137.408 298.486 137.406 298.59 137.311 298.588Z" fill="#6F3FF5"/>
<path d="M99.3106 297.617C99.2161 297.615 99.2161 297.615 99.2182 297.512C99.0415 296.889 98.6862 295.746 98.3101 295.635C98.3101 295.635 98.121 295.631 97.9278 295.834C97.9257 295.937 97.8312 295.935 97.7387 295.83C97.6442 295.828 97.6462 295.725 97.7428 295.624C97.9361 295.421 98.1293 295.218 98.3163 295.325C98.976 295.442 99.3189 297.204 99.4114 297.309C99.5018 297.518 99.4051 297.619 99.3106 297.617Z" fill="#6F3FF5"/>
<path d="M97.8882 297.795C97.8882 297.795 97.7937 297.793 97.7958 297.69C97.7054 297.481 97.7095 297.275 97.7116 297.172C97.9131 296.556 98.6798 296.055 98.7743 296.057C98.8688 296.059 98.8688 296.059 98.9634 296.061C98.9613 296.164 98.9613 296.164 98.9592 296.267C98.9592 296.267 98.1926 296.768 97.9931 297.281C97.991 297.384 97.989 297.487 97.9848 297.694C97.9869 297.59 97.9848 297.694 97.8882 297.795Z" fill="#6F3FF5"/>
<path d="M113.29 307.915C114.015 309.479 115.602 310.544 117.398 310.58C118.249 310.597 119.106 310.304 119.87 309.906C120.54 309.507 121.215 308.901 121.609 308.082" stroke="#6F3FF5" stroke-width="2.40717"/>
<path d="M122.328 291.17C122.827 289.838 124.262 289.04 125.489 289.168C126.81 289.298 127.922 290.456 128.176 291.907" stroke="#6F3FF5" stroke-width="2.40717"/>
<path d="M108.148 290.886C108.647 289.553 110.082 288.756 111.309 288.884C112.631 289.013 113.742 290.172 113.997 291.623" stroke="#6F3FF5" stroke-width="2.40717"/>
<path d="M110.489 296.707C111.167 296.72 111.73 296.13 111.745 295.389C111.759 294.648 111.221 294.036 110.542 294.023C109.864 294.009 109.301 294.599 109.287 295.34C109.272 296.081 109.81 296.693 110.489 296.707Z" fill="#6F3FF5"/>
<path d="M124.67 296.991C125.349 297.005 125.911 296.415 125.926 295.674C125.941 294.933 125.403 294.321 124.724 294.307C124.045 294.294 123.483 294.884 123.468 295.625C123.453 296.366 123.991 296.978 124.67 296.991Z" fill="#6F3FF5"/>
<path d="M119.697 300.882L115.631 300.801L117.365 294.536" stroke="#6F3FF5" stroke-width="2.40717"/>
<path d="M158.019 355.369L158.064 353.118C158.07 352.809 158.074 352.602 158.081 352.292C158.085 352.086 158.089 351.879 158.093 351.673C158.099 351.363 158.009 351.155 158.013 350.949L158.015 350.845C158.019 350.639 157.931 350.327 157.935 350.121C157.939 349.914 157.945 349.605 157.855 349.396C157.855 349.396 157.859 349.19 157.769 348.981C157.432 346.909 156.713 345.036 155.708 343.26C155.618 343.052 155.433 342.842 155.343 342.633C155.252 342.425 155.162 342.217 154.977 342.006C154.517 341.377 154.056 340.749 153.502 340.118C153.132 339.697 152.667 339.275 152.298 338.854C149.049 335.794 145.284 334.893 143.114 334.642C140.955 334.236 135.215 333.941 129.007 333.752M75.9101 351.468C75.9142 351.262 75.9184 351.056 75.9225 350.849C75.9432 349.817 76.153 348.788 76.3628 347.76C76.9861 344.984 78.0757 342.527 79.6319 340.39C80.411 339.27 81.3771 338.256 82.4357 337.348C85.4182 334.826 89.1363 333.352 93.2015 333.434C96.5292 333.414 100.732 333.406 105.29 333.421" stroke="#6F3FF5" stroke-width="2.40717"/>
<path d="M120.295 313.481L120.316 313.478L120.337 313.474L121.75 313.195C128.478 311.994 133.872 306.983 135.341 299.926L135.456 299.459L135.87 305.632C135.839 306.995 135.59 312.33 131.758 316.916C128.167 320.948 123.903 321.685 122.561 321.872L114.336 321.707C109.275 321.605 104.643 318.32 102.555 313.308L102.552 313.3L102.548 313.292L102.187 312.458C101.454 310.77 101.134 308.867 101.083 306.909L101.095 299.625L102.444 305.019L102.493 305.213L102.602 305.381C104.308 308.014 108.148 311.361 112.824 312.881C115.193 313.719 117.85 313.876 120.295 313.481Z" stroke="#6F3FF5" stroke-width="2.40717"/>
<path d="M135.762 288.072C135.735 287.928 135.706 287.783 135.674 287.637L135.672 287.625L135.669 287.613C135.116 285.311 133.987 283.869 133.067 282.694C133.001 282.609 132.936 282.526 132.872 282.444C131.936 281.24 131.295 280.296 131.252 278.685L131.252 278.685L131.251 278.672C131.18 276.741 129.809 275.629 128.236 275.042C126.69 274.464 124.669 274.262 122.569 274.226C119.741 274.178 116.458 274.44 113.573 274.67C112.193 274.78 110.903 274.883 109.798 274.941C107.932 275.039 106.462 275.369 105.341 275.99C104.174 276.637 103.459 277.558 103.066 278.657C102.691 279.704 102.621 280.876 102.634 282.034C102.642 282.679 102.68 283.417 102.718 284.166C102.746 284.706 102.774 285.251 102.791 285.77C102.896 289.287 101.912 291.05 101.086 291.927C100.91 292.113 100.735 292.266 100.569 292.392C100.508 292.078 100.445 291.715 100.389 291.308C100.175 289.742 100.062 287.539 100.472 285.004L100.473 284.993L100.475 284.983C100.824 282.552 102.932 277.048 106.918 272.927C108.892 270.887 111.285 269.229 114.103 268.427C116.905 267.629 120.21 267.651 124.07 269.095C131.683 271.993 134.496 278.254 135.402 283.98C135.628 285.41 135.732 286.796 135.762 288.072Z" stroke="#6F3FF5" stroke-width="2.40717"/>
<path d="M120.69 306.546C120.212 306.332 119.828 306.141 119.539 305.971C120.441 305.543 121.257 305.637 122.059 306.045C122.879 306.461 123.675 307.209 124.39 308.107C123.871 307.877 123.348 307.658 122.846 307.451C122.696 307.389 122.549 307.329 122.404 307.269C121.785 307.015 121.209 306.778 120.69 306.546ZM119.024 306.282C119.023 306.282 119.027 306.277 119.038 306.267C119.03 306.277 119.025 306.282 119.024 306.282Z" stroke="#6F3FF5" stroke-width="2.40717"/>
<path d="M116.674 305.913C116.554 305.977 116.412 306.048 116.246 306.124C115.792 306.333 115.238 306.55 114.609 306.784C114.343 306.882 114.064 306.984 113.776 307.089C113.087 307.34 112.348 307.61 111.63 307.898C111.672 307.844 111.715 307.79 111.759 307.737C112.525 306.798 113.361 306.07 114.214 305.731C114.942 305.442 115.739 305.41 116.674 305.913ZM117.177 305.574C117.177 305.574 117.176 305.575 117.173 305.578C117.175 305.576 117.177 305.574 117.177 305.574Z" stroke="#6F3FF5" stroke-width="2.40717"/>
<path d="M144.725 362.763L144.638 367.054" stroke="#6F3FF5" stroke-width="2.40717"/>
<path d="M93.4834 361.734L93.3812 366.822" stroke="#6F3FF5" stroke-width="2.40717"/>
<path d="M144.012 118.381C173.194 118.967 197.37 93.6109 198.01 61.7463C198.65 29.8817 175.511 3.57522 146.329 2.98919C117.147 2.40317 92.9715 27.7595 92.3316 59.6241C91.6917 91.4887 114.83 117.795 144.012 118.381Z" fill="white" stroke="#6F3FF5" stroke-width="2.40717" stroke-miterlimit="10"/>
<path d="M145.18 96.2655C163.569 96.6348 178.803 80.6568 179.206 60.5777C179.609 40.4987 165.029 23.922 146.641 23.5527C128.252 23.1835 113.018 39.1614 112.615 59.2405C112.211 79.3196 126.792 95.8962 145.18 96.2655Z" fill="#5BF1CD"/>
<path d="M142.227 41.4056C143.618 41.4336 144.769 40.2255 144.8 38.7074C144.83 37.1893 143.728 35.936 142.338 35.908C140.947 35.8801 139.796 37.0882 139.765 38.6063C139.735 40.1244 140.837 41.3777 142.227 41.4056Z" fill="#6F3FF5"/>
<path d="M154.742 45.3234C157.522 45.3792 159.826 42.9631 159.887 39.9269C159.948 36.8906 157.743 34.384 154.963 34.3282C152.182 34.2723 149.878 36.6884 149.817 39.7247C149.756 42.7609 151.961 45.2675 154.742 45.3234Z" fill="#6F3FF5"/>
<path d="M164.339 57.0769C162.134 63.6256 145.737 62.315 136.225 59.1799C130.92 57.4424 129.946 55.8472 129.616 54.7763C127.939 49.4351 136.253 38.4064 145.638 37.8485C156.633 37.1847 166.396 51.009 164.339 57.0769Z" fill="#6F3FF5"/>
<path d="M131.833 53.488C131.027 53.2675 130.141 53.2769 129.287 53.5594C126.813 54.395 125.421 57.2681 126.177 59.9664C126.934 62.6648 129.56 64.1749 132.034 63.3392C132.034 63.3392 132.068 63.5442 132.067 63.5987C133.064 71.0824 140.108 76.1952 147.415 76.3419C156.454 76.5234 163.947 68.6654 164.145 58.7949C164.343 48.9244 157.172 40.7719 148.133 40.5903C140.49 40.4368 133.954 46.026 132.003 53.7229C131.99 53.7499 131.989 53.7771 131.976 53.8041L131.833 53.488Z" fill="#5BF1CD" stroke="#6F3FF5" stroke-width="2.40717" stroke-miterlimit="10"/>
<path d="M130.912 59.976C130.396 59.5843 129.983 59.0176 129.785 58.3054C129.552 57.4835 129.644 56.6273 129.995 55.9125" stroke="#6F3FF5" stroke-width="1.92574" stroke-miterlimit="10"/>
<path d="M129.93 60.7065C129.598 60.6998 129.323 60.9638 129.316 61.2961C129.31 61.6284 129.574 61.9032 129.906 61.9099L129.93 60.7065ZM129.906 61.9099C129.983 61.9114 130.165 61.9741 130.356 62.3156C130.538 62.6413 130.664 63.1276 130.653 63.6928L131.856 63.717C131.871 62.9752 131.71 62.2708 131.407 61.7287C131.113 61.2024 130.614 60.7202 129.93 60.7065L129.906 61.9099ZM130.653 63.6928C130.642 64.258 130.496 64.7389 130.301 65.057C130.097 65.3905 129.912 65.4459 129.835 65.4443L129.811 66.6477C130.494 66.6614 131.013 66.1997 131.327 65.6856C131.652 65.1561 131.841 64.4588 131.856 63.717L130.653 63.6928ZM129.835 65.4443C129.758 65.4428 129.576 65.3801 129.385 65.0386C129.203 64.7129 129.077 64.2266 129.088 63.6614L127.885 63.6372C127.87 64.379 128.032 65.0834 128.334 65.6255C128.628 66.1518 129.128 66.634 129.811 66.6477L129.835 65.4443ZM129.088 63.6614C129.093 63.4259 129.119 63.208 129.164 63.0066L127.99 62.743C127.925 63.0296 127.891 63.3282 127.885 63.6372L129.088 63.6614Z" fill="#6F3FF5"/>
<path d="M135.2 56.8475C140.298 56.9498 150.506 47.1407 150.618 41.5742C150.729 36.0078 140.593 42.2895 135.495 42.1872C130.397 42.0848 130.425 43.8498 130.313 49.4162C127.686 54.8633 130.103 56.7451 135.2 56.8475Z" fill="#6F3FF5"/>
<path d="M148.1 41.5464C148.008 46.1224 155.789 54.5109 159.836 54.5922C176.878 54.9345 148.293 31.93 148.1 41.5464Z" fill="#6F3FF5"/>
<path d="M131.172 48.5166C133.953 48.5724 136.257 46.1563 136.318 43.1201C136.379 40.0839 134.174 37.5772 131.393 37.5214C128.613 37.4656 126.309 39.8816 126.248 42.9179C126.187 45.9541 128.392 48.4608 131.172 48.5166Z" fill="#6F3FF5"/>
<path d="M158.641 84.9735C156.783 84.5286 152.849 83.3898 152.003 80.9271C151.156 78.4645 151.43 75.9849 151.43 75.9849C147.387 76.6729 145.415 76.6566 142.475 75.8051C142.475 75.8051 142.201 78.2846 141.256 80.7113C140.312 83.138 136.335 84.118 134.461 84.4879" stroke="#6F3FF5" stroke-width="2.40717"/>
<path d="M145.061 66.7281C145.633 67.9625 146.96 68.8043 148.303 68.8313C148.975 68.8448 149.652 68.6138 150.255 68.2999C150.784 67.9844 151.316 67.506 151.628 66.86" stroke="#6F3FF5" stroke-width="1.20359"/>
<path d="M152.343 53.5052C152.723 53.1867 153.554 52.7143 154.672 52.8182C155.864 52.9237 156.67 53.6736 156.962 54.0055" stroke="#6F3FF5" stroke-width="1.20359"/>
<path d="M141.15 53.2804C141.453 53.0419 142.213 52.405 143.407 52.4289C144.749 52.5374 145.55 53.5318 145.769 53.7807" stroke="#6F3FF5" stroke-width="1.20359"/>
<path d="M148.894 58.0822L150.064 62.997L146.781 62.9311" stroke="#6F3FF5" stroke-width="1.20359"/>
<path d="M178.007 105.816L178.112 100.609C178.143 99.0604 177.948 97.5891 177.382 96.0288C177.316 95.6199 177.175 95.2094 177.034 94.799C176.398 92.9927 175.385 91.4235 174.218 90.0142C173.488 89.1843 172.682 88.4344 171.946 87.9305C171.725 87.763 171.503 87.677 171.282 87.5095C170.692 87.1716 170.174 86.9166 169.582 86.6602C169.285 86.5727 168.99 86.4037 168.693 86.3162C168.099 86.1413 167.58 85.9678 167.059 85.8758C166.761 85.8698 166.539 85.7838 166.315 85.7793C166.092 85.6934 165.869 85.6889 165.645 85.6844C164.975 85.5894 164.379 85.4959 163.709 85.4009C163.635 85.3994 163.635 85.3994 163.56 85.3979C163.336 85.3934 163.114 85.3074 162.89 85.303C162.593 85.2155 162.22 85.208 161.923 85.1205C161.625 85.1145 161.402 85.0285 161.104 85.0225C160.062 84.8386 159.021 84.6546 157.903 84.5506C157.828 84.5491 157.754 84.5476 157.679 84.5461C157.009 84.4512 156.259 84.5991 155.505 84.9916C154.75 85.3841 153.918 85.938 153.084 86.5734C152.932 86.7334 152.704 86.8919 152.477 87.0504C150.279 88.7182 148 90.629 145.836 90.5855C143.45 90.4561 141.339 87.7235 139.287 85.8072C139.143 85.5598 138.922 85.3923 138.702 85.2248C137.748 84.3905 136.789 83.8005 135.743 83.8611C134.995 83.9276 134.322 83.9956 133.648 84.0636C132.526 84.2041 131.479 84.2646 130.431 84.4066C130.133 84.4006 129.834 84.3946 129.609 84.4716C129.234 84.5456 128.935 84.5396 128.56 84.6136C128.26 84.6891 127.962 84.6831 127.662 84.7586C127.361 84.8341 127.138 84.8296 126.837 84.905C126.24 84.8931 125.642 84.9626 125.043 85.0321C124.818 85.1091 124.519 85.1031 124.293 85.1801C123.695 85.2496 123.095 85.4005 122.567 85.6345C122.265 85.7915 121.965 85.867 121.663 86.024C121.136 86.258 120.607 86.5734 120.078 86.8889C119.927 86.9674 119.7 87.1259 119.473 87.2843C117.051 88.9477 115.209 91.4379 114.18 94.352C114.022 94.7564 113.865 95.1609 113.782 95.5668C113.459 96.7832 113.285 98.0025 113.259 99.3064L113.116 106.406" stroke="#6F3FF5" stroke-width="2.40717"/>
<path d="M168.086 112.335C167.811 111.369 167.542 110.141 167.101 110.132C166.66 110.123 166.341 111.339 166.028 112.294C165.634 113.596 165.165 114.984 164.283 114.967C163.327 114.947 162.988 113.543 162.647 112.226C162.372 111.26 162.103 110.031 161.662 110.023C161.22 110.014 160.902 111.23 160.589 112.185C160.195 113.487 159.726 114.875 158.844 114.857C157.888 114.838 157.549 113.434 157.207 112.117C156.933 111.15 156.663 109.922 156.222 109.913C155.781 109.905 155.463 111.121 155.149 112.075C154.755 113.378 154.36 114.767 153.404 114.748C152.449 114.729 152.109 113.325 151.768 112.008C151.493 111.041 151.224 109.813 150.783 109.804C150.342 109.795 150.023 111.012 149.71 111.966C149.316 113.268 148.92 114.658 147.965 114.639C147.009 114.62 146.67 113.215 146.329 111.898C146.054 110.932 145.784 109.704 145.343 109.695C144.902 109.686 144.584 110.902 144.27 111.857C143.877 113.159 143.481 114.549 142.525 114.53C141.57 114.51 141.23 113.106 140.889 111.789C140.615 110.823 140.345 109.595 139.904 109.586C139.463 109.577 139.144 110.793 138.831 111.748C138.437 113.05 137.968 114.438 137.086 114.42C136.131 114.401 135.791 112.997 135.45 111.68C135.175 110.714 134.906 109.485 134.465 109.476C134.024 109.468 133.705 110.684 133.392 111.639C132.998 112.941 132.529 114.329 131.647 114.311C130.691 114.292 130.352 112.888 130.01 111.571C129.736 110.604 129.466 109.376 129.025 109.367C128.584 109.358 128.266 110.575 127.952 111.529C127.559 112.832 127.163 114.221 126.207 114.202C125.252 114.183 124.912 112.778 124.571 111.461C124.296 110.495 124.027 109.267 123.586 109.258C123.145 109.249 121.919 111.299 121.605 112.254M119.132 111.352C118.857 110.386 118.588 109.158 118.146 109.149" stroke="#6F3FF5" stroke-width="1.20359"/>
<path d="M177.416 101.779C177.336 102.127 177.182 102.473 177.103 102.733C176.709 104.036 176.24 105.424 175.358 105.406C174.476 105.388 174.063 103.983 173.722 102.666C173.447 101.699 173.178 100.471 172.736 100.462C172.295 100.453 171.977 101.67 171.664 102.624C171.27 103.926 170.874 105.316 169.919 105.297C168.963 105.278 168.624 103.873 168.282 102.556C168.008 101.59 167.738 100.362 167.297 100.353C166.856 100.344 166.537 101.56 166.224 102.515C165.83 103.817 165.361 105.205 164.479 105.188C163.524 105.168 163.184 103.764 162.843 102.447C162.568 101.481 162.299 100.253 161.858 100.244C161.417 100.235 161.098 101.451 160.785 102.406C160.391 103.708 159.922 105.096 159.04 105.078C158.084 105.059 157.745 103.655 157.404 102.338C157.129 101.372 156.859 100.143 156.418 100.134C155.977 100.126 155.659 101.342 155.345 102.297C154.952 103.599 154.556 104.988 153.6 104.969C152.645 104.95 152.305 103.546 151.964 102.229C151.689 101.262 151.42 100.034 150.979 100.025C150.538 100.016 150.219 101.233 149.906 102.187C149.512 103.49 149.117 104.879 148.161 104.86C147.205 104.841 146.866 103.436 146.525 102.119C146.25 101.153 145.981 99.9248 145.54 99.916C145.099 99.9071 144.78 101.124 144.467 102.078C144.073 103.38 143.677 104.77 142.722 104.751C141.766 104.732 141.427 103.327 141.085 102.01C140.811 101.044 140.541 99.8156 140.1 99.8067C139.659 99.7979 139.341 101.014 139.027 101.969C138.633 103.271 138.164 104.659 137.282 104.641C136.327 104.622 135.987 103.218 135.646 101.901C135.371 100.935 135.102 99.7064 134.661 99.6975C134.22 99.6886 133.901 100.905 133.588 101.86C133.194 103.162 132.725 104.55 131.843 104.532C130.887 104.513 130.548 103.109 130.207 101.792C129.932 100.825 129.662 99.5971 129.221 99.5883C128.78 99.5794 128.462 100.796 128.149 101.75C127.755 103.053 127.359 104.442 126.404 104.423C125.448 104.404 125.109 102.999 124.767 101.682C124.493 100.716 124.223 99.4879 123.782 99.479C123.341 99.4702 123.022 100.687 122.709 101.641C122.315 102.943 121.92 104.333 120.964 104.314C120.009 104.295 119.669 102.89 119.328 101.573C119.053 100.607 118.784 99.3787 118.343 99.3698C117.902 99.3609 117.583 100.577 117.27 101.532C116.876 102.834 116.407 104.222 115.525 104.205C114.643 104.187 114.298 103.044 113.955 101.815" stroke="#6F3FF5" stroke-width="1.20359"/>
<path d="M176.088 93.5999C176.01 93.9478 175.861 94.2941 175.785 94.5546C175.404 95.8572 174.95 97.2456 174.099 97.2285C173.248 97.2114 172.851 95.8059 172.523 94.4891C172.258 93.523 171.999 92.295 171.574 92.2865C171.148 92.2779 170.84 93.4946 170.537 94.4493C170.156 95.7518 169.774 97.1416 168.852 97.1231C167.93 97.1046 167.604 95.7005 167.275 94.3838C167.011 93.4177 166.752 92.1896 166.326 92.1811C165.901 92.1725 165.593 93.3892 165.29 94.3439C164.909 95.6464 164.455 97.0348 163.604 97.0178C162.683 96.9992 162.356 95.5952 162.028 94.2784C161.764 93.3123 161.504 92.0843 161.079 92.0757C160.654 92.0672 160.345 93.2838 160.042 94.2385C159.662 95.5411 159.208 96.9295 158.357 96.9124C157.435 96.8939 157.109 95.4898 156.78 94.173C156.516 93.2069 156.257 91.9789 155.832 91.9703C155.406 91.9618 155.098 93.1784 154.795 94.1331C154.414 95.4357 154.032 96.8255 153.11 96.807C152.188 96.7885 151.861 95.3844 151.533 94.0676C151.269 93.1015 151.01 91.8735 150.584 91.865C150.159 91.8564 149.851 93.0731 149.548 94.0278C149.167 95.3303 148.784 96.7201 147.862 96.7016C146.94 96.6831 146.614 95.279 146.286 93.9623C146.021 92.9962 145.762 91.7681 145.337 91.7596C144.911 91.751 144.603 92.9677 144.3 93.9224C143.919 95.2249 143.537 96.6148 142.615 96.5962C141.693 96.5777 141.367 95.1737 141.038 93.8569C140.774 92.8908 140.515 91.6627 140.089 91.6542C139.664 91.6457 139.356 92.8623 139.053 93.817C138.672 95.1195 138.218 96.508 137.367 96.4909C136.446 96.4724 136.119 95.0683 135.791 93.7515C135.527 92.7854 135.267 91.5574 134.842 91.5488C134.416 91.5403 134.108 92.7569 133.805 93.7116C133.425 95.0142 132.971 96.4026 132.12 96.3855C131.198 96.367 130.872 94.9629 130.543 93.6461C130.279 92.68 130.02 91.452 129.595 91.4435C129.169 91.4349 128.861 92.6516 128.558 93.6063C128.177 94.9088 127.795 96.2986 126.873 96.2801C125.951 96.2616 125.624 94.8575 125.296 93.5408C125.032 92.5747 124.773 91.3466 124.347 91.3381C123.922 91.3295 123.614 92.5462 123.311 93.5009C122.93 94.8034 122.547 96.1933 121.625 96.1747C120.703 96.1562 120.377 94.7522 120.049 93.4354C119.784 92.4693 119.525 91.2412 119.1 91.2327C118.674 91.2242 118.366 92.4408 118.063 93.3955C117.682 94.698 117.229 96.0865 116.378 96.0694C115.527 96.0523 115.195 94.9101 114.865 93.6807" stroke="#6F3FF5" stroke-width="1.20359"/>
<path d="M122.485 85.9597C122.087 87.1746 121.688 88.4709 120.718 88.4514C120.121 88.4394 120.131 87.9116 119.848 87.1722" stroke="#6F3FF5" stroke-width="1.20359"/>
<path d="M128.48 84.8996C128.322 85.304 128.24 85.6677 128.081 86.1536C127.683 87.3685 127.284 88.6648 126.314 88.6453C125.344 88.6259 124.707 86.8619 124.359 85.632" stroke="#6F3FF5" stroke-width="1.20359"/>
<path d="M139.282 86.052C139.204 86.2135 139.202 86.2949 139.124 86.4564C138.727 87.6713 138.253 88.9661 137.357 88.9481C136.387 88.9286 136.04 87.6173 135.691 86.3875C135.411 85.4851 134.906 84.6207 134.458 84.6117C134.01 84.6027 133.918 85.4551 133.602 86.3455C133.204 87.5604 132.73 88.8552 131.835 88.8372C130.864 88.8177 130.518 87.5064 130.169 86.2766C130.029 85.7847 129.893 85.1297 129.676 84.7993" stroke="#6F3FF5" stroke-width="1.20359"/>
<path d="M161.691 85.5669C161.294 86.7818 160.497 89.2504 159.602 89.2324C158.632 89.2129 158.285 87.9016 157.936 86.6717C157.656 85.7694 157.296 85.071 156.849 85.062C156.401 85.0531 156.163 85.7394 155.847 86.6298C155.449 87.8446 155.05 89.141 154.079 89.1215C153.258 89.105 152.905 88.1196 152.553 87.0528" stroke="#6F3FF5" stroke-width="1.20359"/>
<path d="M167.281 86.0439C167.2 86.3683 167.046 86.6098 166.965 86.9343C166.567 88.1491 166.093 89.4439 165.198 89.426C164.227 89.4065 163.88 88.0952 163.532 86.8653C163.392 86.3734 163.394 86.2917 163.177 85.9613" stroke="#6F3FF5" stroke-width="1.20359"/>
<path d="M172.09 88.178C171.775 88.9869 171.39 89.5498 170.718 89.5363C169.748 89.5169 169.401 88.2055 169.053 86.9757" stroke="#6F3FF5" stroke-width="1.20359"/>
<path d="M126.39 107.152L126.247 114.239" stroke="#6F3FF5" stroke-width="2.40717"/>
<path d="M167.885 107.985L167.78 113.181" stroke="#6F3FF5" stroke-width="2.40717"/>
<path d="M143.146 58.7781C143.856 58.7924 144.443 58.1759 144.459 57.4013C144.474 56.6266 143.912 55.9871 143.203 55.9729C142.493 55.9586 141.905 56.5751 141.89 57.3497C141.874 58.1243 142.437 58.7639 143.146 58.7781Z" fill="#6F3FF5"/>
<path d="M154.992 59.0155C155.701 59.0298 156.289 58.4134 156.305 57.6387C156.32 56.8641 155.758 56.2246 155.048 56.2103C154.339 56.1961 153.751 56.8125 153.736 57.5871C153.72 58.3618 154.282 59.0013 154.992 59.0155Z" fill="#6F3FF5"/>
<path d="M97.67 86.3425L35.5798 184.11" stroke="#6F3FF5" stroke-width="2.40717" stroke-miterlimit="10"/>
<rect width="6.85134" height="6.55718" transform="matrix(-0.485084 0.874468 -0.835053 -0.550169 77.9756 123.36)" fill="#DAD1FF" stroke="#6F3FF5" stroke-width="2.40717" stroke-miterlimit="10"/>
<path d="M43.8722 227.894C66.2572 228.344 84.8017 208.893 85.2926 184.451C85.7834 160.008 68.0347 139.829 45.6498 139.379C23.2648 138.93 4.72025 158.38 4.22941 182.823C3.73856 207.265 21.4873 227.445 43.8722 227.894Z" fill="white" stroke="#6F3FF5" stroke-width="2.40717" stroke-miterlimit="10"/>
<path d="M81.8976 201.188C81.8374 200.415 80.354 182.593 71.2936 181.585L67.75 180.935C67.9603 179.259 68.6723 172.691 67.8053 165.623C66.4604 154.716 61.9884 147.548 54.8785 144.871C48.069 142.311 41.5528 142.731 36.0605 146.174C29.1895 150.442 25.5552 158.081 24.4821 163.789C22.3676 174.873 23.018 176.401 22.8798 177.004" stroke="#6F3FF5" stroke-width="2.40717" stroke-miterlimit="10"/>
<path d="M67.7497 180.908C67.1449 182.135 66.0998 183.932 64.3768 185.578C61.1363 188.68 57.564 189.462 56.1235 189.598C43.0564 190.906 35.8281 185.335 33.6027 181.847C27.5147 172.25 21.396 177.994 20.3836 178.166C13.2177 179.537 8.11245 189.266 5.7814 194.811" stroke="#6F3FF5" stroke-width="2.40717" stroke-miterlimit="10"/>
<path d="M56.2786 145.45C56.1279 145.42 41.5151 143.308 34.8442 153.944C27.443 165.776 28.8081 176.931 28.8059 177.041" stroke="#6F3FF5" stroke-width="2.40717" stroke-miterlimit="10"/>
<path d="M24.1484 176.617C24.3984 176.732 32.492 189.454 31.6064 204.667C30.7213 219.853 30.2995 224.515 30.3225 224.625" stroke="#6F3FF5" stroke-width="2.40717" stroke-miterlimit="10"/>
<path d="M71.32 216.714C71.3502 216.467 71.5891 208.335 71.6646 199.55C71.7768 187.682 67.6723 182.311 67.5254 182.088" stroke="#6F3FF5" stroke-width="2.40717" stroke-miterlimit="10"/>
<path d="M53.217 213.75C56.9234 213.824 60.0259 210.058 60.121 205.323C60.2161 200.587 57.2673 196.7 53.5609 196.625C49.8544 196.551 46.7514 200.345 46.6568 205.052C46.5623 209.76 49.5105 213.675 53.217 213.75Z" fill="#5BF1CD" stroke="#6F3FF5" stroke-width="2.40717" stroke-miterlimit="10"/>
<path d="M31.1289 213.306C31.0018 209.586 34.1236 202.35 39.3699 201.105C45.1743 199.707 44.6011 189.312 44.5842 188.898" stroke="#6F3FF5" stroke-width="2.40717" stroke-miterlimit="10"/>
<path d="M61.3772 188.023C61.3471 188.271 60.2371 194.556 63.1751 197.727C63.9648 198.597 64.8833 199.331 65.7772 200.038C68.1848 201.986 71.1493 203.836 71.4698 207.974" stroke="#6F3FF5" stroke-width="2.40717" stroke-miterlimit="10"/>
<path d="M17.3493 216.255C17.4271 216.146 20.9784 207.594 23.888 197.104C26.9051 186.285 20.3564 178.276 20.2818 178.22" stroke="#6F3FF5" stroke-width="2.40717" stroke-miterlimit="10"/>
<path d="M10.3535 186.558C12.9354 194.9 22.0474 195.854 23.7115 195.888C23.8628 195.891 23.9636 195.893 23.9636 195.893" stroke="#6F3FF5" stroke-width="2.40717" stroke-miterlimit="10"/>
<path d="M6.66902 192.929C5.34597 198.521 18.7787 206.641 20.8897 205.774C21.0678 205.695 21.167 205.78 21.1922 205.78" stroke="#6F3FF5" stroke-width="2.40717" stroke-miterlimit="10"/>
<path d="M71.2888 194.392C77.0927 193.021 78.0079 187.641 78.0342 187.587" stroke="#6F3FF5" stroke-width="2.40717" stroke-miterlimit="10"/>
<path d="M71.5154 205.689C79.5463 203.95 80.9466 195.771 80.9482 195.688" stroke="#6F3FF5" stroke-width="2.40717" stroke-miterlimit="10"/>
<path d="M67.845 179.918C58.2927 189.586 42.9383 184.21 39.0498 181.901C38.3268 181.473 37.889 180.666 37.8563 179.784C37.4421 169.006 37.3545 155.784 47.0428 151.902C57.1378 147.864 63.5584 152.207 63.5584 152.207C64.3947 153.27 64.9437 154.823 65.8844 156.963C67.5501 160.687 67.7874 163.942 68.0159 167.637C68.2072 170.671 68.6034 174.81 67.845 179.918ZM65.1384 179.037C65.8192 179.051 66.4113 178.457 66.4268 177.686C66.4423 176.915 65.8997 176.298 65.1937 176.284C64.513 176.27 63.9461 176.865 63.9306 177.636C63.9151 178.407 64.4325 179.023 65.1384 179.037ZM64.1319 173.894C64.0408 174.663 64.557 175.335 65.2635 175.321C65.8692 175.306 66.3593 174.765 66.3726 174.104C66.3731 174.077 66.3737 174.049 66.3737 174.049C66.2499 170.163 65.6052 158.307 62.0507 154.435C62.1466 154.685 65.2616 164.112 64.1319 173.894ZM45.6358 170.465C46.6389 170.761 47.6624 170.038 47.9635 168.86C48.2394 167.681 47.6575 166.512 46.6539 166.244C45.6503 165.976 44.6022 166.671 44.3263 167.85C44.0504 169.029 44.6323 170.197 45.6358 170.465ZM44.5493 161.768C45.5433 163.771 48.9219 163.839 52.0373 161.946C55.1778 160.053 56.9055 156.92 55.9116 154.917C54.9176 152.914 51.5642 152.847 48.4236 154.739C45.283 156.632 43.5548 159.792 44.5493 161.768Z" fill="#6F3FF5"/>
<path d="M443.705 218.632C472.61 219.212 496.555 194.097 497.189 162.536C497.823 130.974 474.905 104.918 446 104.337C417.096 103.757 393.15 128.872 392.516 160.434C391.883 191.995 414.801 218.051 443.705 218.632Z" fill="white" stroke="#6F3FF5" stroke-width="2.40717" stroke-miterlimit="10"/>
<path d="M443.477 203.102C466.442 203.563 485.475 183.252 485.987 157.735C486.5 132.219 468.298 111.16 445.332 110.699C422.367 110.238 403.335 130.549 402.822 156.065C402.31 181.582 420.512 202.64 443.477 203.102Z" fill="#FFE88F"/>
<path d="M468.623 189.007C470.331 189.042 469.573 186.957 470.557 186.621C473.097 185.784 476.829 186.392 478.504 184.026C480.013 181.834 478.629 177.807 479.341 174.799C479.964 172.145 483.189 169.632 483.17 166.521C483.227 163.678 480.106 161.038 479.595 158.095C479.081 155.329 481.19 151.638 480.187 148.863C479.263 146.267 475.545 144.948 474.213 142.344C472.961 139.83 473.778 135.669 472.115 133.325C471.799 132.874 468.609 133.61 467.021 131.623C466.144 130.716 466.946 127.266 465.666 126.174C464.544 125.262 461.744 126.895 460.458 126.069C459.335 125.247 459.324 121.78 457.953 121.131C456.663 120.482 454.417 122.926 452.959 122.541C451.583 122.158 450.675 118.762 449.212 118.644C447.832 118.439 446.303 121.608 444.837 121.667C443.125 121.81 441.065 119.014 439.51 119.427C437.872 119.927 437.231 123.47 435.752 124.151C434.192 124.831 431.463 122.909 430.06 123.859C428.574 124.896 428.91 128.458 427.666 129.588C426.341 130.717 423.187 129.676 422.104 130.898C420.855 132.295 421.925 135.783 421.005 137.009C419.581 139.025 416.247 138.869 415.824 139.66C414.725 141.682 416.364 145.182 415.508 147.298C414.649 149.502 411.209 150.589 410.595 152.798C409.979 155.097 412.279 158.076 411.991 160.292C411.617 162.685 408.643 164.847 408.68 167.07C408.712 169.559 411.768 171.398 412.294 173.541C412.816 175.952 411.121 179.295 412.222 181.184C413.404 183.163 416.833 182.609 418.68 183.891C419.723 184.623 420.232 187.655 421.619 187.505" stroke="#6F3FF5" stroke-width="2.40717"/>
<path d="M478.746 204.473C478.799 201.808 478.28 199.309 477.023 197.061C476.71 196.433 476.397 195.804 476.002 195.174C475.61 194.456 475.134 193.824 474.577 193.19C473.862 192.287 473.063 191.56 472.26 191.011C468.81 188.542 465.313 188.383 464.499 188.366C462.714 188.064 457.857 188.499 455.828 188.192M408.46 202.398C408.53 198.933 409.15 196.409 410.91 193.867C412 192.289 413.329 190.983 414.815 189.946C417.127 188.304 419.911 187.471 422.84 187.53C426.207 187.06 430.142 187.333 434.103 187.1" stroke="#6F3FF5" stroke-width="2.40717"/>
<path d="M433.951 187.926C433.798 187.843 433.651 187.762 433.51 187.682C434.243 187.475 435.036 187.209 435.803 186.87C437.344 186.19 439.068 185.092 439.763 183.306C440.334 181.84 440.587 180.276 440.702 179.109C440.714 178.986 440.725 178.867 440.734 178.753C441.983 179.128 443.154 179.348 444.388 179.345C445.664 179.342 446.95 179.101 448.409 178.62C448.415 178.763 448.423 178.911 448.432 179.065C448.509 180.325 448.707 182.003 449.22 183.496C449.843 185.308 451.521 186.475 453.033 187.216C453.776 187.58 454.545 187.874 455.26 188.109C454.264 188.596 452.942 189.137 451.403 189.602C447.799 190.69 443.165 191.311 438.828 189.981L438.819 189.978L438.809 189.975C437.256 189.528 435.402 188.707 433.951 187.926Z" stroke="#6F3FF5" stroke-width="2.40717"/>
<path d="M421.166 155.058C421.166 155.058 422.703 154.869 424.027 153.577C426.186 151.751 424.702 149.303 426.279 147.136C428.098 144.645 431.134 146.135 432.831 143.86C434.89 141.153 431.773 137.793 433.459 136.068C435.383 134.238 439.565 137.4 444.551 135.741C445.739 135.325 446.933 134.58 448.494 133.182C453.18 128.879 461.04 136.842 459.29 141.753C458.038 145.356 463.23 145.24 464.445 149.332C465.778 153.426 464.606 156.7 468.158 156.002" stroke="#6F3FF5" stroke-width="2.40717"/>
<path d="M422.947 146.472C421.841 146.169 420.626 146.182 419.455 146.57C416.063 147.716 414.153 151.656 415.191 155.356C416.228 159.056 419.83 161.127 423.223 159.981C423.223 159.981 423.268 160.262 423.267 160.337C424.635 170.599 434.295 177.611 444.314 177.812C455.89 178.044 465.616 168.663 467.073 156.398" stroke="#6F3FF5" stroke-width="2.40717" stroke-miterlimit="10"/>
<path d="M419.113 156.854C418.405 156.317 417.839 155.54 417.568 154.563C417.249 153.436 417.375 152.262 417.856 151.282" stroke="#6F3FF5" stroke-width="2.40717" stroke-miterlimit="10"/>
<path d="M443.932 150.128C444.395 150.137 444.787 149.324 444.807 148.312C444.828 147.3 444.469 146.472 444.005 146.463C443.542 146.453 443.15 147.266 443.129 148.278C443.109 149.29 443.468 150.118 443.932 150.128Z" fill="#6F3FF5"/>
<path d="M457.359 150.397C457.823 150.407 458.215 149.594 458.235 148.582C458.256 147.57 457.896 146.742 457.433 146.732C456.969 146.723 456.577 147.536 456.557 148.548C456.537 149.56 456.896 150.388 457.359 150.397Z" fill="#6F3FF5"/>
<path d="M448.639 148.389C448.549 152.887 445.164 156.282 441.292 156.204C437.419 156.126 434.173 152.598 434.263 148.1C434.354 143.603 437.739 140.207 441.611 140.285C445.484 140.363 448.73 143.891 448.639 148.389Z" stroke="#6F3FF5" stroke-width="2.40717"/>
<path d="M468.78 148.793C468.69 153.291 465.305 156.686 461.432 156.608C457.56 156.531 454.314 153.002 454.404 148.505C454.494 144.007 457.88 140.612 461.752 140.69C465.624 140.767 468.87 144.296 468.78 148.793Z" stroke="#6F3FF5" stroke-width="2.40717"/>
<path d="M449.604 160.325L453.67 160.289L452.19 153.96" stroke="#6F3FF5" stroke-width="2.40717"/>
<path d="M443.252 167.761C443.847 169.659 445.426 171.073 447.175 171.743C448.923 172.413 450.822 172.414 452.655 172.245" stroke="#6F3FF5" stroke-width="2.40717" stroke-miterlimit="10"/>
<path d="M423.028 146.041C423.623 147.94 425.203 149.354 426.951 150.024C428.699 150.694 430.598 150.695 432.432 150.526" stroke="#6F3FF5" stroke-width="2.40717" stroke-miterlimit="10"/>
<path d="M448.985 149.312C450.681 148.43 452.378 147.547 454.019 149.414" stroke="#6F3FF5" stroke-width="2.40717" stroke-miterlimit="10"/>
<path d="M420.319 157.196C421.362 157.217 422.187 158.69 422.151 160.483C422.115 162.275 421.231 163.714 420.188 163.693C419.145 163.672 418.32 162.199 418.356 160.406C418.363 160.033 418.404 159.679 418.48 159.344" stroke="#6F3FF5" stroke-width="2.40717" stroke-miterlimit="10"/>
<path d="M463.68 214.569L453.883 214.372L453.817 217.653" stroke="#6F3FF5" stroke-width="2.40717"/>
<path d="M316.402 109.265C293.181 108.798 274.768 87.8649 275.278 62.5086C275.787 37.1523 295.024 16.9749 318.246 17.4413C341.468 17.9076 359.88 38.841 359.371 64.1973C358.862 89.5536 339.624 109.731 316.402 109.265Z" fill="white" stroke="#6F3FF5" stroke-width="2.40717" stroke-miterlimit="10"/>
<path fill-rule="evenodd" clip-rule="evenodd" d="M360.428 110.719L366.735 98.7032L360.915 86.4441L348.789 86.2006L342.482 98.2162L348.302 110.475L360.428 110.719ZM354.607 98.4581L348.787 86.199ZM354.607 98.4592L342.481 98.2157ZM354.606 98.4593L348.3 110.475ZM354.607 98.4593L360.426 110.718ZM354.609 98.4591L366.735 98.7026ZM354.607 98.4581L360.914 86.4424Z" fill="white"/>
<path d="M360.428 110.719L361.494 111.278L361.148 111.937L360.404 111.922L360.428 110.719ZM366.735 98.7032L367.822 98.1871L368.08 98.7303L367.8 99.2626L366.735 98.7032ZM360.915 86.4441L360.94 85.2407L361.684 85.2557L362.003 85.9279L360.915 86.4441ZM348.789 86.2006L347.724 85.6412L348.069 84.9823L348.813 84.9972L348.789 86.2006ZM342.482 98.2162L341.395 98.7324L341.137 98.1892L341.417 97.6568L342.482 98.2162ZM348.302 110.475L348.278 111.679L347.534 111.664L347.214 110.992L348.302 110.475ZM359.362 110.16L365.669 98.1439L367.8 99.2626L361.494 111.278L359.362 110.16ZM365.647 99.2194L359.828 86.9602L362.003 85.9279L367.822 98.1871L365.647 99.2194ZM360.891 87.6474L348.765 87.4039L348.813 84.9972L360.94 85.2407L360.891 87.6474ZM349.855 86.7599L343.548 98.7756L341.417 97.6568L347.724 85.6412L349.855 86.7599ZM343.57 97.7001L349.389 109.959L347.214 110.992L341.395 98.7324L343.57 97.7001ZM348.326 109.272L360.452 109.516L360.404 111.922L348.278 111.679L348.326 109.272ZM353.52 98.9743L347.7 86.7151L349.875 85.6828L355.694 97.942L353.52 98.9743ZM354.583 99.6625L342.456 99.419L342.505 97.0123L354.631 97.2558L354.583 99.6625ZM355.672 99.0187L349.365 111.034L347.234 109.916L353.541 97.8999L355.672 99.0187ZM355.694 97.9432L361.514 110.202L359.339 111.235L353.52 98.9754L355.694 97.9432ZM354.633 97.2557L366.759 97.4992L366.711 99.9059L354.584 99.6624L354.633 97.2557ZM353.542 97.8987L359.848 85.8831L361.98 87.0018L355.673 99.0174L353.542 97.8987Z" fill="#6F3FF5"/>
<path d="M322.868 56.8598C333.514 61.3531 324.41 73.4508 315.208 73.4521C311.968 73.5731 306.01 73.2674 303.007 70.0439C299.172 65.8734 302.365 59.6112 305.62 58.7462" stroke="#6F3FF5" stroke-width="2.40717" stroke-miterlimit="10"/>
<path d="M305.742 52.6081C305.118 66.7367 303.426 66.1445 317.389 66.611L317.393 66.425C317.393 66.425 318.857 61.4306 322.426 61.8744L322.761 53.6941" stroke="#6F3FF5" stroke-width="2.40717" stroke-miterlimit="10"/>
<path d="M325.954 47.6181C325.976 46.5021 325.143 45.555 324.292 45.5379L322.759 45.5072C322.759 45.5072 322.588 45.5038 322.414 45.6863C322.07 45.8655 321.711 46.7886 321.495 49.0171C321.458 50.877 321.606 51.9964 321.932 52.7472C322.091 53.3086 322.598 53.5049 323.109 53.5151L324.476 53.3565C325.161 53.1842 325.687 52.4505 325.705 51.5205L325.954 47.6181Z" stroke="#6F3FF5" stroke-width="2.40717" stroke-miterlimit="10"/>
<path d="M324.634 45.5444C324.849 43.3159 325.603 31.2366 315.387 30.8454C304.148 30.4336 304.95 41.4277 304.95 41.4277" stroke="#6F3FF5" stroke-width="2.40717" stroke-miterlimit="10"/>
<path d="M323.261 45.7041C323.261 45.7041 323.978 35.4848 314.276 34.9179C309.681 34.6395 307.403 37.7569 306.143 41.0808" stroke="#6F3FF5" stroke-width="2.40717" stroke-miterlimit="10"/>
<path d="M312.934 59.4509C312.79 58.1456 310.931 57.3639 309.561 57.7086C308.876 57.8809 308.187 58.2392 308.172 58.9832C308.161 59.5412 308.324 59.9166 308.657 60.2954C308.99 60.6742 309.501 60.6845 309.838 60.8773C310.519 60.891 311.03 60.9012 311.716 60.7289C311.886 60.7324 312.23 60.5532 312.404 60.3706C312.753 60.0055 312.93 59.6369 312.934 59.4509Z" stroke="#6F3FF5" stroke-width="2.40717" stroke-miterlimit="10"/>
<path d="M318.423 49.1403L318.506 45.0485C318.547 43.0025 317.047 41.2978 315.174 41.2602L306.998 41.096C305.124 41.0584 303.557 42.7015 303.516 44.7474L303.434 48.8393C303.393 50.8852 304.892 52.5899 306.766 52.6275L314.942 52.7917C316.816 52.8294 318.382 51.1862 318.423 49.1403Z" fill="#5BF1CD" stroke="#6F3FF5" stroke-width="2.40717" stroke-miterlimit="10"/>
<path d="M314.435 52.5961L314.551 46.8303C314.551 46.8303 314.577 45.5283 312.703 45.4907" stroke="#6F3FF5" stroke-width="2.40717" stroke-miterlimit="10"/>
<path d="M327.312 64.9497L322.603 61.8781" stroke="#6F3FF5" stroke-width="2.40717" stroke-miterlimit="10"/>
<path d="M324.785 63.4097C324.785 63.4097 318.245 66.6276 319.151 72.4139" stroke="#6F3FF5" stroke-width="2.40717" stroke-miterlimit="10"/>
<path d="M299.74 105.288C299.77 103.8 299.784 103.098 299.81 101.796C299.829 100.866 300.696 100.14 301.373 100.339C310.871 102.577 319.728 102.755 329.308 100.9C330.164 100.731 330.83 101.489 330.811 102.419C330.785 103.721 330.838 105.649 330.808 107.137" stroke="#6F3FF5" stroke-width="2.40717" stroke-miterlimit="10"/>
<path d="M304.263 100.769L303.873 107.21" stroke="#6F3FF5" stroke-width="2.40717" stroke-miterlimit="10"/>
<path d="M310.379 102.01L310.237 109.077" stroke="#6F3FF5" stroke-width="2.40717" stroke-miterlimit="10"/>
<path d="M317.019 102.143L316.877 109.211" stroke="#6F3FF5" stroke-width="2.40717" stroke-miterlimit="10"/>
<path d="M324.879 101.183L325.252 108.075" stroke="#6F3FF5" stroke-width="2.40717" stroke-miterlimit="10"/>
<path d="M327.39 60.858L333.151 62.4622C334.336 62.8581 335.343 63.6226 336.002 64.7523C336.328 65.5031 336.279 67.921 336.279 67.921" stroke="#6F3FF5" stroke-width="2.40717" stroke-miterlimit="10"/>
<path d="M303.347 70.2371C303.347 70.2371 300.313 77.0606 301.038 100.334" stroke="#6F3FF5" stroke-width="2.40717" stroke-miterlimit="10"/>
<path d="M301.648 78.389C301.648 78.389 311.794 82.3141 325.802 80.5487" stroke="#6F3FF5" stroke-width="2.40717" stroke-miterlimit="10"/>
<path d="M301.574 82.1096C301.574 82.1096 312.742 86.0552 326.921 84.2932" stroke="#6F3FF5" stroke-width="2.40717" stroke-miterlimit="10"/>
<path d="M327.308 64.9495L329.507 65.7379" stroke="#6F3FF5" stroke-width="2.40717" stroke-miterlimit="10"/>
<path d="M330.367 65.3832C330.026 65.3763 329.852 65.5589 329.508 65.738C328.808 66.6543 327.396 69.0449 326.481 72.1896C324.832 77.9246 324.838 86.1117 332.614 89.245L332.685 85.7111C332.685 85.7111 327.457 83.0011 328.973 75.4028C330.099 70.2155 331.499 68.383 332.362 67.8421C332.71 67.477 332.892 66.9224 332.559 66.5436C332.229 65.9787 331.559 65.4071 330.367 65.3832Z" stroke="#6F3FF5" stroke-width="2.40717" stroke-miterlimit="10"/>
<path d="M331.628 78.8055L331.508 84.7572" stroke="#6F3FF5" stroke-width="2.40717" stroke-miterlimit="10"/>
<path d="M331.266 88.6597L329.827 100.911" stroke="#6F3FF5" stroke-width="2.40717" stroke-miterlimit="10"/>
<path d="M330.057 97.753C330.057 97.753 335.693 97.1219 335.842 89.6822C335.988 82.4285 336.062 78.7086 336.062 78.7086" stroke="#6F3FF5" stroke-width="2.40717" stroke-miterlimit="10"/>
<path d="M301.357 67.4053C301.357 67.4053 298.197 71.9935 298.662 82.7948C298.716 88.564 300.772 88.0471 300.772 88.0471" stroke="#6F3FF5" stroke-width="2.40717" stroke-miterlimit="10"/>
<path d="M310.991 88.4376C314.095 88.4999 316.667 85.8025 316.735 82.4127C316.803 79.0229 314.342 76.2244 311.237 76.1621C308.133 76.0997 305.561 78.7972 305.493 82.187C305.425 85.5768 307.886 88.3752 310.991 88.4376Z" fill="#5BF1CD" stroke="#6F3FF5" stroke-width="2.40717" stroke-miterlimit="10"/>
<path d="M298.47 83.9561C298.47 83.9561 296.612 83.9188 292.871 94.2231C292.871 94.2231 289.203 95.0163 286.058 90.1664C286.058 90.1664 289.567 77.198 301.419 67.0998" stroke="#6F3FF5" stroke-width="2.40717" stroke-miterlimit="10"/>
<path d="M287.367 85.7345C287.367 85.7345 289.923 89.6751 294.459 89.5755" stroke="#6F3FF5" stroke-width="2.40717" stroke-miterlimit="10"/>
<path d="M286.591 90.6618C286.591 90.6618 285.657 92.1371 286.181 93.9859M292.258 94.2407C291.421 95.2357 290.97 97.1576 290.729 98.8125" stroke="#6F3FF5" stroke-width="2.40717" stroke-miterlimit="10"/>
<path d="M293.486 101.079L293.519 99.4142L292.65 94.8497" stroke="#6F3FF5" stroke-width="2.40717" stroke-miterlimit="10"/>
<path d="M366.41 95.1331C366.122 92.5223 361.605 88.3382 361.605 88.3382C360.867 86.0127 358.847 80.4928 356.623 79.4677C354.458 75.5024 347.978 72.145 345.015 70.6557C344.576 73.915 344.138 80.8102 345.903 82.3163C347.669 83.8225 351.402 87.9418 353.048 89.8132L355.231 92.9209L356.23 99.0688C356.907 99.2685 360.007 100.028 360.007 100.028C364.806 98.6362 366.41 95.1331 366.41 95.1331Z" fill="white"/>
<path d="M352.706 90.0201L355.202 93.0472C355.202 93.0472 359.664 91.4623 361.949 87.9729L359.636 84.3911" stroke="#6F3FF5" stroke-width="2.40717" stroke-miterlimit="10"/>
<path d="M332.54 67.6586C332.54 67.6586 345.826 67.9254 354.667 77.4063C354.667 77.4063 358.011 80.6366 359.647 84.0187C359.647 84.0187 358.035 87.8937 352.366 90.1988C352.366 90.1988 349.434 83.4415 342.851 80.3322C336.264 77.4089 331.787 79.7378 331.787 79.7378" stroke="#6F3FF5" stroke-width="2.40717" stroke-miterlimit="10"/>
<path d="M361.605 88.3382C361.605 88.3382 366.122 92.5224 366.41 95.1331C366.41 95.1331 364.806 98.6362 360.007 100.028C360.007 100.028 356.912 92.8957 356.235 92.696" stroke="#6F3FF5" stroke-width="2.40717" stroke-miterlimit="10"/>
<path d="M360.006 100.028L356.274 99.2085L355.371 93.2362" stroke="#6F3FF5" stroke-width="2.40717" stroke-miterlimit="10"/>
</svg>
