<svg width="532" height="476" viewBox="0 0 532 476" fill="none" xmlns="http://www.w3.org/2000/svg">
<path d="M317.579 201.788C317.579 201.788 318.326 203.024 319.821 206.655V206.578C320.045 206.655 339.85 216.697 352.405 235.546L353.302 235.623H354.946C356.142 235.546 356.441 236.396 356.515 237.632L357.113 246.438C357.113 247.056 357.039 247.829 356.665 248.37C356.291 248.91 355.768 249.142 355.17 249.297L353.152 249.451C351.433 252.85 345.38 265.441 332.003 276.488L320.344 285.449L320.493 291.552C321.39 291.32 322.81 291.088 323.558 291.629C324.454 292.247 325.575 292.942 325.426 294.024L325.351 301.517C325.351 303.525 324.454 305.379 322.885 306.538L319.97 353.582C319.97 353.969 320.045 363.547 315.262 371.35L315.86 371.427L310.853 410.283L309.956 411.751C311.974 412.137 316.906 412.909 323.109 413.836C327.294 414.454 330.508 416.386 332.6 419.321C336.487 424.806 335.366 432.144 335.216 432.453L335.141 433.071H288.283V414.995L289.778 412.755L288.657 410.978L287.237 378.611L285.592 377.452V377.066C285.592 376.834 287.76 352.887 280.511 339.678C275.802 347.325 269.076 359.685 265.265 373.126L265.19 373.513L264.667 373.59L264.891 373.667C264.816 373.899 259.062 393.134 257.567 418.626C257.866 418.858 258.165 419.167 258.464 419.476C261.379 422.488 262.649 427.123 262.649 435.157V435.93H227.15V435.312C227.15 434.925 227.075 426.737 232.307 420.943C232.905 420.325 233.428 419.476 234.175 419.012L231.56 415.536V415.304C231.56 415.227 230.737 399.005 233.503 368.878L232.307 367.951V367.178C233.727 341.3 236.791 321.215 237.389 316.657C236.567 316.58 236.343 316.426 235.894 315.885C235.296 315.267 234.549 314.494 234.549 313.567L233.876 305.765C233.876 304.838 234.25 303.989 234.923 303.371C235.296 302.984 235.969 302.598 236.567 302.444L236.343 299.74L229.99 297.113C227.076 296.032 224.908 293.637 224.535 290.47L221.246 264.36L211.904 282.05C212.129 282.282 212.278 282.591 212.502 282.822L213.324 284.522C213.922 285.912 213.25 286.685 211.979 287.457L202.712 293.174C202.338 293.483 201.815 293.56 201.292 293.56C201.068 293.56 200.694 293.869 200.545 293.792C199.797 293.56 199.573 293.483 199.125 292.865L198.079 290.856C198.004 290.625 197.854 290.084 197.854 289.775L168.26 276.874C167.662 276.643 167.064 276.488 166.914 275.793V275.87L158.694 272.935L156.302 273.939L145.466 272.626C144.419 272.548 143.522 272.085 142.999 271.235C142.401 270.385 142.177 269.458 142.401 268.377L144.718 256.558C144.868 256.712 145.615 246.129 148.903 243.58C150.249 242.499 158.32 246.902 158.32 246.902C159.142 246.593 161.533 245.589 162.356 245.975L175.21 252L175.285 251.923C176.032 251.382 176.779 251.382 177.601 251.691L192.324 259.571L218.855 211.985L223.264 208.741C223.189 208.355 223.04 207.891 223.04 207.505C223.115 206.346 223.189 204.878 224.31 204.183L228.869 202.252C229.766 201.711 231.335 201.402 232.232 201.866L239.033 200.707C239.407 201.325 235.222 194.759 237.464 189.892C239.855 184.562 248.674 180.777 249.047 181.472L306.967 185.952C319.597 193.368 317.579 201.788 317.579 201.788ZM331.704 242.421L325.351 239.409L324.903 250.146L331.704 242.421Z" fill="white"/>
<path d="M223.42 282.379C223.42 297.183 231.535 298.54 236.309 298.663L234.877 280.529L233.445 277.938V272.757L234.877 269.426L232.013 247.221L229.865 246.481L221.271 264.615L223.42 282.379Z" fill="#B8A9E7"/>
<path d="M287.317 263.969C278.319 263.969 271.025 256.43 271.025 247.129C271.025 237.829 278.319 230.289 287.317 230.289C296.315 230.289 303.609 237.829 303.609 247.129C303.609 256.43 296.315 263.969 287.317 263.969Z" stroke="#3502C4" stroke-width="1.5" stroke-miterlimit="10"/>
<path d="M250.847 296.569C251.744 295.642 252.865 295.101 254.136 295.101L263.104 294.869C264.299 294.869 265.57 295.256 266.467 296.26C267.363 297.11 267.887 298.346 267.887 299.659V301.049V302.517L268.186 314.104V315.572V317.581C268.26 320.207 266.168 322.447 263.627 322.525L254.659 322.756H254.584C253.388 322.756 252.267 322.216 251.296 321.366C250.399 320.439 249.876 319.28 249.876 317.967V316.499V315.031L249.651 303.599V302.131V300.2C249.651 298.809 250.025 297.573 250.847 296.569Z" stroke="#3502C4" stroke-width="1.5" stroke-miterlimit="10"/>
<path d="M304.282 289.231C304.805 288.691 305.403 288.382 306.15 288.382L308.99 288.304C310.41 288.304 311.531 289.463 311.606 290.854L311.681 294.021L311.755 295.489L312.054 308.466V309.934L312.129 313.333C312.129 314.801 311.008 315.96 309.663 316.037L306.823 316.114H306.748C305.328 316.114 304.207 314.955 304.207 313.565L304.132 311.556V310.089L303.833 297.497V296.029L303.759 291.163C303.609 290.39 303.908 289.772 304.282 289.231Z" stroke="#3502C4" stroke-width="1.5" stroke-miterlimit="10"/>
<path d="M197.938 290.385L199.283 292.857C199.507 293.243 199.881 293.63 200.255 293.784C200.628 293.939 201.151 293.784 201.525 293.63L212.885 286.677C213.632 286.136 213.856 285.287 213.483 284.514L212.511 282.428C212.287 281.81 211.614 281.501 211.016 281.501C210.792 281.501 210.493 281.501 210.269 281.656L206.159 283.742L202.945 281.656L202.198 285.75L198.461 288.299C198.087 288.531 197.863 288.917 197.714 289.304C197.714 289.458 197.714 289.535 197.714 289.69C197.639 289.844 197.788 290.076 197.938 290.385Z" fill="#46FFD3" stroke="#3502C4" stroke-width="1.5" stroke-miterlimit="10"/>
<path d="M350.163 240.33V238.013C350.163 237.24 350.537 236.545 351.06 236.082C351.433 235.773 351.882 235.541 352.48 235.541H352.555L354.049 235.464C355.245 235.386 356.366 236.391 356.515 237.704L357.113 246.51C357.113 247.128 356.889 247.746 356.515 248.287C356.142 248.828 355.394 249.137 354.797 249.214L353.152 249.291H352.928H352.704C352.33 249.291 351.957 249.214 351.658 249.059C350.91 248.75 350.537 248.132 350.462 247.283L350.163 244.888L346.875 242.571L350.163 240.33Z" fill="#46FFD3" stroke="#3502C4" stroke-width="1.5" stroke-miterlimit="10"/>
<path d="M258.619 239.404C258.619 239.249 258.619 239.249 258.619 239.404C259.216 238.786 259.814 238.477 260.636 238.477H264.074C265.569 238.477 266.839 239.713 266.839 241.335V242.494V243.961L266.914 252.073V253.54V255.549C266.914 257.094 265.718 258.484 264.149 258.484H260.562C259.814 258.484 259.142 258.175 258.619 257.634C258.544 257.557 258.394 257.325 258.32 257.248C258.021 256.862 257.796 256.167 257.796 255.703V241.489C257.796 240.562 258.095 239.867 258.619 239.404Z" stroke="#3502C4" stroke-width="1.5" stroke-miterlimit="10"/>
<path d="M251.593 250.069L251.668 241.881V240.49C251.668 239.64 251.892 238.791 252.415 238.25L252.49 238.173C252.864 237.864 253.238 237.632 253.686 237.786L255.928 238.018C256.601 238.095 257.124 238.636 257.497 239.409C257.722 239.795 257.871 240.49 257.871 241.108V255.245C257.871 256.017 257.647 256.712 257.273 257.253C257.273 257.33 257.198 257.33 257.198 257.485C256.825 257.871 256.451 258.103 256.003 258.103H255.928L253.611 258.026C253.013 258.026 252.49 257.485 252.117 256.867C251.892 256.326 251.668 255.708 251.668 255.09L251.593 250.069Z" stroke="#3502C4" stroke-width="1.5" stroke-miterlimit="10"/>
<path d="M314.149 373.432C314.223 373.355 314.373 373.123 314.522 372.891C314.896 372.351 315.27 371.81 315.569 371.346C320.277 363.544 320.277 353.965 320.277 353.579L323.191 306.535V306.303" stroke="#3502C4" stroke-width="1.5" stroke-miterlimit="10"/>
<path d="M287.39 378.451L288.809 410.895L290.087 414.806L290.61 415.578H291.358L304.511 415.192H306.006L308.92 415.115H309.294L310.116 413.879L310.856 410.277L315.863 371.421L315.265 371.344" stroke="#3502C4" stroke-width="1.5" stroke-miterlimit="10"/>
<path d="M261.461 374.592L263.628 373.975L264.973 373.588L265.496 373.511L265.571 373.125C269.457 359.529 276.183 347.324 280.817 339.676C281.116 339.135 281.415 338.749 281.714 338.286C284.329 333.96 286.272 331.41 286.422 331.333" stroke="#3502C4" stroke-width="1.5" stroke-miterlimit="10"/>
<path d="M257.793 418.549C259.437 392.98 265.117 373.822 265.117 373.591L264.893 373.513" stroke="#3502C4" stroke-width="1.5" stroke-miterlimit="10"/>
<path d="M233.511 368.334V368.412C230.895 398.693 231.568 414.838 231.568 414.915V415.147L233.885 418.16L234.184 418.546" stroke="#3502C4" stroke-width="1.5" stroke-miterlimit="10"/>
<path d="M237.172 316.732C236.425 321.29 233.585 341.065 232.165 366.944L232.09 367.253L233.585 368.72L234.93 369.956L235.528 370.497" stroke="#3502C4" stroke-width="1.5" stroke-miterlimit="10"/>
<path d="M312.052 309.931C315.49 309.159 318.554 308.386 321.095 307.536C321.17 307.536 321.394 307.459 321.469 307.459C321.992 307.227 322.515 306.918 322.889 306.609C324.383 305.451 325.355 303.597 325.355 301.588L325.43 294.095C325.43 293.014 324.907 292.009 324.084 291.391C323.337 290.851 322.44 290.619 321.544 290.851C321.469 290.851 321.245 290.928 321.17 290.928C320.871 291.005 320.423 291.16 320.124 291.314C317.508 292.396 314.519 293.323 311.454 294.172" stroke="#3502C4" stroke-width="1.5" stroke-miterlimit="10"/>
<path d="M303.91 295.953C293.148 298.348 282.237 299.97 267.888 300.974" stroke="#3502C4" stroke-width="1.5" stroke-miterlimit="10"/>
<path d="M249.724 301.746C244.867 301.823 240.756 301.977 238.141 301.823H237.543C237.319 301.823 237.02 301.823 236.795 301.9C236.198 301.977 235.674 302.286 235.151 302.827C234.404 303.677 234.03 304.526 234.03 305.453V313.101C234.03 314.028 234.404 314.878 235.077 315.496C235.674 316.114 236.422 316.423 237.094 316.423C237.169 316.423 237.319 316.423 237.393 316.423H237.468C237.842 316.423 238.215 316.423 238.589 316.423C242.475 316.346 246.212 316.346 250.023 316.114" stroke="#3502C4" stroke-width="1.5" stroke-miterlimit="10"/>
<path d="M268.189 315.573C282.613 314.646 293.748 313.488 304.211 311.556" stroke="#3502C4" stroke-width="1.5" stroke-miterlimit="10"/>
<path d="M319.678 259.261L320.426 291.242V291.86" stroke="#3502C4" stroke-width="1.5" stroke-miterlimit="10"/>
<path d="M234.781 279.266L236.275 297.883L236.35 299.428L236.574 302.132" stroke="#3502C4" stroke-width="1.5" stroke-miterlimit="10"/>
<path d="M235.152 269.918L232.312 248.056C232.238 247.284 231.715 246.82 230.967 246.588C230.22 246.511 229.547 246.82 229.248 247.438L212.059 281.737" stroke="#3502C4" stroke-width="1.5" stroke-miterlimit="10"/>
<path d="M224.693 203.949L229.177 202.249C230.074 201.709 231.12 201.631 232.017 202.018C232.391 202.249 232.839 202.404 233.213 202.867C233.213 202.867 233.362 203.022 233.512 203.176C248.384 220.017 250.85 235.003 250.85 235.003C251.598 239.869 251.598 244.659 251.598 248.135C251.598 252.693 251.523 254.933 251.075 257.714C251.075 257.714 248.832 271.619 238.295 279.035C237.772 279.421 237.174 279.575 237.174 279.575C236.95 279.653 236.651 279.653 236.352 279.653H236.277C235.754 279.653 235.38 279.575 234.932 279.266C234.932 279.266 234.857 279.266 234.857 279.189C233.811 278.648 233.213 277.49 233.138 276.331L233.064 273.318C233.064 272.391 233.362 271.619 233.96 270.923C234.259 270.614 234.708 270.305 235.156 269.996C235.156 269.996 235.231 269.996 235.231 269.919C237.548 266.289 241.434 259.336 242.331 249.757C242.555 247.208 243.601 233.612 235.007 220.789C231.345 215.304 227.085 211.828 224.245 209.82C224.17 209.82 224.095 209.742 224.021 209.665C223.423 209.124 223.199 208.429 223.124 208.12C223.049 207.888 222.9 207.425 222.9 206.884C222.974 205.494 223.572 204.567 224.693 203.949Z" fill="#C9B8FF" stroke="#3502C4" stroke-width="1.5" stroke-miterlimit="10"/>
<path d="M223.273 208.043L223.199 208.12L218.789 211.365L192.259 258.95" stroke="#3502C4" stroke-width="1.5" stroke-miterlimit="10"/>
<path d="M196.369 260.805L193.305 259.337L191.96 258.719L177.536 251.535C176.789 251.149 175.892 251.226 175.219 251.767L175.145 251.844C174.771 252.153 174.397 252.617 174.322 253.08C174.248 253.312 174.248 253.621 174.248 253.853C174.547 258.256 174.024 266.676 167.522 272.779C167.223 273.088 166.924 273.551 166.774 273.937C166.774 274.323 166.774 274.71 166.774 275.019C166.774 275.096 166.849 275.328 166.849 275.405C167.073 276.023 167.447 276.564 168.045 276.795L197.789 289.773" stroke="#3502C4" stroke-width="1.5" stroke-miterlimit="10"/>
<path d="M221.029 264.05L224.318 290.237C224.691 293.404 226.859 296.031 229.848 297.112L236.574 299.43" stroke="#3502C4" stroke-width="1.5" stroke-miterlimit="10"/>
<path d="M310.712 209.972C316.093 216.152 317.737 225.808 318.634 235.542C318.709 236.082 318.708 236.623 318.708 237.009C318.933 239.713 319.082 242.339 319.082 244.811C319.082 245.352 319.082 245.893 319.082 246.356C319.157 253.231 318.783 258.175 318.783 258.33L318.708 259.411L319.531 259.18L320.427 258.948L320.951 258.871L322.669 258.484L323.193 258.407L323.267 258.021C323.79 255.317 324.164 252.536 324.463 249.987C324.538 249.369 324.538 248.597 324.687 247.979C324.986 245.584 325.061 243.112 325.21 240.949C325.21 240.408 325.21 239.867 325.285 239.404C325.584 225.499 322.968 215.225 320.577 208.813C320.353 208.041 320.054 207.423 319.83 206.805C318.335 203.097 317.064 201.243 316.99 201.089L316.765 200.857L313.851 200.239" fill="#C9B8FF"/>
<path d="M310.712 209.972C316.093 216.152 317.737 225.808 318.634 235.542C318.709 236.082 318.708 236.623 318.708 237.009C318.933 239.713 319.082 242.339 319.082 244.811C319.082 245.352 319.082 245.893 319.082 246.356C319.157 253.231 318.783 258.175 318.783 258.33L318.708 259.411L319.531 259.18L320.427 258.948L320.951 258.871L322.669 258.484L323.193 258.407L323.267 258.021C323.79 255.317 324.164 252.536 324.463 249.987C324.538 249.369 324.538 248.597 324.687 247.979C324.986 245.584 325.061 243.112 325.21 240.949C325.21 240.408 325.21 239.867 325.285 239.404C325.584 225.499 322.968 215.225 320.577 208.813C320.353 208.041 320.054 207.423 319.83 206.805C318.335 203.097 317.064 201.243 316.99 201.089L316.765 200.857L313.851 200.239" stroke="#3502C4" stroke-width="1.5" stroke-miterlimit="10"/>
<path d="M352.562 235.385C339.932 216.536 320.128 206.416 319.978 206.416V206.494" stroke="#3502C4" stroke-width="1.5" stroke-miterlimit="10"/>
<path d="M320.497 259.031C320.721 259.108 320.871 259.108 321.02 259.262C332.753 263.897 330.287 275.176 330.212 275.639L329.689 277.725L330.885 276.798L331.259 276.489C344.711 265.288 351.661 252.619 353.23 249.297" stroke="#3502C4" stroke-width="1.5" stroke-miterlimit="10"/>
<path d="M334.102 239.485L324.76 249.991" stroke="#3502C4" stroke-width="1.5" stroke-miterlimit="10"/>
<path d="M325.357 239.172L331.336 242.416" stroke="#3502C4" stroke-width="1.5" stroke-miterlimit="10"/>
<path d="M320.277 285.369L331.113 276.717" stroke="#3502C4" stroke-width="1.5" stroke-miterlimit="10"/>
<path d="M232.089 420.084C232.687 419.466 233.285 418.848 234.032 418.385C234.406 418.076 234.854 417.767 235.228 417.535C237.545 416.067 240.534 415.295 243.747 415.218C249.353 415.14 253.388 415.836 256.378 417.612C256.901 417.921 257.274 418.23 257.723 418.539C258.022 418.771 258.321 419.08 258.62 419.389C261.534 422.402 262.805 427.037 262.805 435.071V435.843H227.306V435.225C227.306 434.761 226.857 425.878 232.089 420.084Z" stroke="#3502C4" stroke-width="1.5" stroke-miterlimit="10"/>
<path d="M262.656 431.527H227.606" stroke="#3502C4" stroke-width="1.5" stroke-miterlimit="10"/>
<path d="M237.622 416.848L239.116 421.019C239.64 422.178 240.761 422.95 241.882 422.95H250.551C251.896 422.95 253.017 422.023 253.391 420.633L254.512 417.157" stroke="#3502C4" stroke-width="1.5" stroke-miterlimit="10"/>
<path d="M280.369 338.902C280.444 338.979 280.668 339.288 280.743 339.675C287.843 352.807 285.825 376.677 285.825 377.063V377.449L287.469 378.608L288.889 379.69L290.234 380.616" stroke="#3502C4" stroke-width="1.5" stroke-miterlimit="10"/>
<path d="M290.414 414.881L288.919 417.121V435.197H335.777L335.852 434.579C335.927 434.27 337.048 426.932 333.236 421.447C331.069 418.434 327.93 416.58 323.745 415.962C317.617 415.035 312.759 414.186 310.592 413.877" stroke="#3502C4" stroke-width="1.5" stroke-miterlimit="10"/>
<path d="M335.996 430.019H288.913" stroke="#3502C4" stroke-width="1.5" stroke-miterlimit="10"/>
<path d="M157.876 272.933L166.844 275.559" stroke="#3502C4" stroke-width="1.5" stroke-miterlimit="10"/>
<path d="M158.627 247.054L158.104 246.977L151.079 243.809C151.004 243.809 150.705 243.732 150.406 243.732C149.883 243.655 149.51 243.655 148.986 243.809C148.762 243.887 148.613 243.887 148.389 244.041C147.492 244.582 146.894 245.432 146.67 246.436L145.474 251.921L144.876 254.856L142.036 268.143C142.111 269.302 142.41 270.228 142.933 271.078C143.531 271.928 144.428 272.314 145.399 272.469L149.136 273.087L150.556 273.318L155.264 274.091C155.339 274.091 155.488 274.091 155.563 274.091C156.46 274.091 157.431 273.705 158.029 273.009C158.029 273.009 158.104 273.009 158.104 272.932C158.403 272.623 158.702 272.16 158.851 271.773C158.926 271.542 158.926 271.387 158.926 271.155L159.15 269.688L160.57 260.959V260.65" stroke="#3502C4" stroke-width="1.5" stroke-miterlimit="10"/>
<path d="M122.483 309.563C123.799 313.779 128.172 316.094 132.251 314.735L166.539 303.304C170.618 301.944 172.858 297.424 171.542 293.208L152.785 233.091C151.469 228.875 147.096 226.559 143.017 227.919L108.729 239.35C104.65 240.709 102.41 245.23 103.725 249.446L122.483 309.563Z" fill="white"/>
<path fill-rule="evenodd" clip-rule="evenodd" d="M166.182 302.159L131.893 313.59C128.426 314.745 124.709 312.777 123.591 309.194L104.833 249.076C103.715 245.493 105.619 241.651 109.086 240.495L143.374 229.064C146.841 227.908 150.559 229.876 151.677 233.46L170.435 293.577C171.553 297.161 169.649 301.003 166.182 302.159ZM132.251 314.735C128.172 316.094 123.799 313.779 122.483 309.563L103.725 249.446C102.41 245.23 104.65 240.709 108.729 239.35L143.017 227.919C147.096 226.559 151.469 228.875 152.785 233.091L171.542 293.208C172.858 297.424 170.618 301.944 166.539 303.304L132.251 314.735Z" fill="#3502C4"/>
<path d="M125.961 307.035C126.619 309.143 128.806 310.3 130.845 309.62L164.523 298.393C166.562 297.713 167.682 295.453 167.025 293.345L149.1 235.899C148.442 233.791 146.256 232.633 144.216 233.313L110.539 244.54C108.499 245.22 107.379 247.48 108.037 249.588L125.961 307.035Z" fill="#FCFAFF"/>
<path fill-rule="evenodd" clip-rule="evenodd" d="M128.56 270.734C128.559 270.197 128.602 269.661 128.687 269.131L131.749 268.002L130.354 264.965C130.963 264.093 131.703 263.328 132.547 262.698L135.485 264.14L136.577 260.975C137.604 260.799 138.652 260.799 139.679 260.975L140.772 264.14L143.71 262.698C144.554 263.328 145.294 264.093 145.903 264.965L144.508 268.002L147.57 269.131C147.74 270.193 147.74 271.276 147.57 272.337L144.508 273.467L145.903 276.504C145.294 277.376 144.554 278.141 143.71 278.771L140.772 277.328L139.679 280.493C138.652 280.669 137.604 280.669 136.577 280.493L135.485 277.328L132.547 278.771C131.703 278.141 130.963 277.376 130.354 276.504L131.749 273.467L128.687 272.337C128.602 271.808 128.559 271.271 128.56 270.734Z" fill="#F0EBFF" stroke="#3502C4" stroke-width="1.5"/>
<ellipse rx="1.61218" ry="1.63147" transform="matrix(-0.989222 0 0 1.01041 138.132 270.736)" fill="#F0EBFF" stroke="#3502C4" stroke-width="1.5"/>
<path fill-rule="evenodd" clip-rule="evenodd" d="M164.165 297.248L130.488 308.475C129.06 308.951 127.53 308.141 127.069 306.665L109.145 249.219C108.684 247.743 109.468 246.161 110.896 245.685L144.574 234.458C146.001 233.982 147.532 234.793 147.992 236.268L165.917 293.715C166.377 295.19 165.593 296.772 164.165 297.248ZM130.845 309.62C128.806 310.3 126.619 309.143 125.961 307.035L108.037 249.588C107.379 247.48 108.499 245.22 110.539 244.54L144.216 233.313C146.256 232.633 148.442 233.791 149.1 235.899L167.025 293.345C167.682 295.453 166.562 297.713 164.523 298.393L130.845 309.62Z" fill="#3502C4"/>
<path d="M175.215 251.92L162.51 246.204C161.688 245.818 160.791 245.818 160.044 246.127C159.67 246.204 159.222 246.513 158.848 246.899C158.773 246.976 158.773 246.976 158.624 247.131C158.549 247.208 158.325 247.44 158.25 247.672L157.877 248.444L154.738 253.774C154.364 254.701 154.215 255.706 154.439 256.633C154.663 257.56 155.261 258.332 156.083 258.718L159.222 260.495H159.296C159.67 260.727 160.119 260.881 160.642 260.881C160.716 260.881 160.866 260.881 160.941 260.881C161.24 260.881 161.688 260.804 161.987 260.804C162.884 260.495 163.631 259.877 164.005 259.027L165.35 256.324" fill="white"/>
<path d="M175.215 251.92L162.51 246.204C161.688 245.818 160.791 245.818 160.044 246.127C159.67 246.204 159.222 246.513 158.848 246.899C158.773 246.976 158.773 246.976 158.624 247.131C158.549 247.208 158.325 247.44 158.25 247.672L157.877 248.444L154.738 253.774C154.364 254.701 154.215 255.706 154.439 256.633C154.663 257.56 155.261 258.332 156.083 258.718L159.222 260.495H159.296C159.67 260.727 160.119 260.881 160.642 260.881C160.716 260.881 160.866 260.881 160.941 260.881C161.24 260.881 161.688 260.804 161.987 260.804C162.884 260.495 163.631 259.877 164.005 259.027L165.35 256.324" stroke="#3502C4" stroke-width="1.5" stroke-miterlimit="10"/>
<path d="M249.504 194.216L238.742 200.242L232.016 202.173" stroke="#3502C4" stroke-width="1.5" stroke-miterlimit="10"/>
<path d="M271.547 242.579C269.604 242.579 268.931 242.501 266.839 242.423" stroke="#3502C4" stroke-width="1.5" stroke-miterlimit="10"/>
<path d="M318.781 235.389C318.183 235.698 313.55 238.093 301.891 240.333" stroke="#3502C4" stroke-width="1.5" stroke-miterlimit="10"/>
<path d="M271.996 252.151C269.754 252.151 269.156 252.229 266.914 251.996" stroke="#3502C4" stroke-width="1.5" stroke-miterlimit="10"/>
<path d="M319.23 244.736C319.156 244.736 314.298 247.286 303.387 249.526" stroke="#3502C4" stroke-width="1.5" stroke-miterlimit="10"/>
<path d="M318.926 291.859V308.236" stroke="#3502C4" stroke-width="1.5" stroke-miterlimit="10"/>
<path d="M298.375 297.033V312.405" stroke="#3502C4" stroke-width="1.5" stroke-miterlimit="10"/>
<path d="M285.227 299.194V313.64" stroke="#3502C4" stroke-width="1.5" stroke-miterlimit="10"/>
<path d="M273.117 300.434V315.189" stroke="#3502C4" stroke-width="1.5" stroke-miterlimit="10"/>
<path d="M244.047 301.746V315.959" stroke="#3502C4" stroke-width="1.5" stroke-miterlimit="10"/>
<path d="M304.683 415.192L305.43 417.2C306.252 419.441 308.046 420.986 310.288 421.217L320.751 422.453C321.05 422.453 321.349 422.453 321.573 422.453C323.292 422.453 324.936 421.681 326.057 420.368L328 418.05" stroke="#3502C4" stroke-width="1.5" stroke-miterlimit="10"/>
<path d="M241.577 369.727C243.595 370.654 245.613 371.118 247.706 371.504C249.873 371.813 251.891 372.045 254.133 371.813" stroke="#3502C4" stroke-width="1.5" stroke-miterlimit="10"/>
<path d="M304.506 372.043C305.926 372.352 307.346 372.275 308.691 372.043C310.111 371.734 311.457 371.425 312.652 370.575" stroke="#3502C4" stroke-width="1.5" stroke-miterlimit="10"/>
<path d="M293.391 243.561C294.104 244.667 294.549 245.956 294.549 247.246C294.549 248.536 294.104 249.826 293.391 250.931L294.906 252.129C295.886 250.747 296.421 248.997 296.421 247.246C296.421 245.404 295.886 243.653 294.817 242.179L293.925 243.008L293.391 243.561Z" fill="#15EBB7"/>
<path d="M296.332 253.231L291.073 249.085C291.43 248.533 291.697 247.98 291.697 247.335C291.697 246.69 291.519 246.045 291.251 245.492L293.747 243.189L296.332 240.702C296.51 240.517 296.51 240.241 296.332 240.057L295.975 239.688C294.104 237.754 291.608 236.648 288.934 236.556V235.082C288.934 234.99 288.934 234.898 288.934 234.805C288.934 234.713 288.845 234.621 288.756 234.529C288.667 234.437 288.578 234.437 288.488 234.345C288.399 234.345 288.31 234.253 288.221 234.253C288.132 234.253 288.043 234.253 287.954 234.345C287.864 234.345 287.775 234.437 287.686 234.529C287.597 234.621 287.597 234.713 287.508 234.805C287.508 234.898 287.508 234.99 287.508 235.082V236.648C286.884 236.74 286.26 236.832 285.636 237.017V235.082C285.636 234.99 285.636 234.898 285.636 234.805C285.636 234.713 285.547 234.621 285.458 234.529C285.369 234.437 285.28 234.437 285.191 234.345C285.101 234.345 285.012 234.253 284.923 234.253C284.834 234.253 284.745 234.253 284.656 234.345C284.567 234.345 284.478 234.437 284.388 234.529C284.299 234.621 284.299 234.713 284.21 234.805C284.21 234.898 284.21 234.99 284.21 235.082V237.477C282.071 238.491 280.288 240.241 279.219 242.36C278.149 244.479 277.793 247.059 278.238 249.362C278.684 251.757 279.932 253.876 281.715 255.442C283.497 257.009 285.814 257.93 288.132 257.93H295.708C295.975 257.93 296.154 257.746 296.154 257.469V253.508C296.51 253.508 296.421 253.323 296.332 253.231ZM288.577 256.087C286.706 256.087 284.923 255.442 283.408 254.245C281.893 253.047 280.912 251.389 280.378 249.546C279.932 247.704 280.021 245.677 280.734 243.926C281.447 242.176 282.695 240.61 284.388 239.688V242.544C284.388 242.636 284.388 242.729 284.388 242.821C284.388 242.913 284.478 243.005 284.567 243.097C284.656 243.189 284.745 243.189 284.834 243.281C284.923 243.281 285.012 243.373 285.101 243.373C285.191 243.373 285.28 243.373 285.369 243.281C285.458 243.281 285.547 243.189 285.636 243.097C285.725 243.005 285.725 242.913 285.814 242.821C285.814 242.729 285.814 242.636 285.814 242.544V238.951C286.706 238.583 287.775 238.399 288.756 238.399C290.627 238.399 292.41 239.043 293.836 240.149C293.925 240.241 293.925 240.425 293.836 240.517L289.825 244.295C289.469 244.11 289.023 244.018 288.667 244.018C288.221 244.018 287.775 244.11 287.419 244.295C286.973 244.479 286.617 244.755 286.349 245.124C286.082 245.492 285.815 245.861 285.725 246.322C285.636 246.782 285.547 247.243 285.636 247.704C285.725 248.164 285.814 248.625 286.082 248.993C286.349 249.362 286.617 249.73 286.973 249.915C287.33 250.191 287.775 250.283 288.221 250.375C288.667 250.467 289.112 250.375 289.558 250.283L294.638 254.245C294.728 254.245 294.727 254.337 294.727 254.429V255.811C294.727 255.903 294.638 255.995 294.549 255.995L288.577 256.087ZM289.825 247.335C289.825 247.611 289.736 247.796 289.647 248.072C289.469 248.256 289.291 248.441 289.112 248.533C288.845 248.625 288.667 248.625 288.399 248.625C288.132 248.533 287.954 248.441 287.775 248.256C287.597 248.072 287.508 247.888 287.419 247.611C287.419 247.335 287.419 247.151 287.508 246.874C287.597 246.598 287.775 246.414 287.954 246.322C288.132 246.229 288.399 246.137 288.667 246.137C289.023 246.137 289.291 246.229 289.558 246.506C289.736 246.69 289.825 246.967 289.825 247.335Z" fill="#0E0333"/>
<path d="M304.884 207.657C306.154 205.494 305.781 202.867 305.407 201.168C305.631 195.22 306.603 182.705 307.574 170.732L310.339 170.964H310.937C314.226 170.964 317.215 168.337 317.364 164.938L318.336 152.424C318.336 150.57 317.962 149.025 316.767 147.557C315.795 146.398 314.674 145.78 314.001 145.549C313.478 145.471 312.88 145.471 312.357 145.394C311.46 145.317 310.713 145.162 309.966 145.008C309.966 145.008 311.087 128.245 299.428 117.276C298.457 116.349 285.826 106.77 271.253 111.791C259.072 116.04 251.598 130.949 250.851 143.308C249.805 143.231 248.758 143.695 247.712 143.617C246.516 143.849 245.395 143.772 244.424 144.622C243.228 145.858 242.481 147.48 242.481 149.257L241.36 161.771C241.36 165.402 244.199 169.032 247.712 169.264H250.477L249.73 194.293C251.374 195.142 252.943 195.992 254.588 196.919C256.232 197.923 259.595 200.241 261.986 204.644C263.929 208.197 264.378 211.442 264.527 213.296C273.57 213.682 280.969 213.45 286.35 213.141C299.204 212.292 300.699 214.609 304.884 207.657Z" fill="white"/>
<path d="M293.378 140.604C293.378 140.604 271.108 138.364 266.25 139.523C261.467 140.604 259.075 147.402 259.075 147.402C259.075 147.402 257.655 149.333 257.73 168.105C257.73 168.568 258.477 170.19 261.766 171.349C265.054 172.585 296.891 172.585 296.891 172.585C296.891 172.585 301.151 171.426 301.151 166.019C301.151 160.534 301.674 149.797 301.674 149.797L298.834 145.78L296.368 142.381L293.378 140.604Z" fill="#5BF1CD"/>
<path d="M249.507 194.216L250.254 169.188L251.001 143.386V140.528C251.001 140.142 255.261 107.466 282.465 110.247C309.593 112.873 309.967 141.919 309.967 142.305C309.967 142.305 309.967 143.309 309.743 145.163C309.369 150.03 308.397 160.072 307.575 170.81C306.604 182.938 305.632 195.607 305.408 201.478V203.718C305.408 204.954 305.184 206.112 305.034 206.962C304.81 207.58 304.661 208.198 304.287 208.816C303.913 209.434 303.54 210.052 303.091 210.438C300.177 213.297 296.066 213.297 295.842 213.297H264.229V212.524C264.229 212.292 263.034 199.624 250.553 195.143L249.507 194.216Z" stroke="#3502C4" stroke-width="1.5" stroke-miterlimit="10"/>
<path d="M265.275 188.574C264.901 190.582 265.051 192.204 266.022 193.44C267.218 195.063 269.161 195.294 269.161 195.294H283.809C288.517 195.294 290.46 192.282 290.834 190.891" stroke="#3502C4" stroke-width="1.5" stroke-miterlimit="10"/>
<path d="M258.102 150.26C258.102 149.256 258.476 148.251 259.074 147.402C259.821 146.397 260.867 145.779 261.988 145.393C262.362 145.393 262.586 145.393 262.96 145.393H263.184L296.74 146.397C296.964 146.397 296.964 146.397 297.114 146.397C298.309 146.397 299.281 147.015 300.028 147.788C300.028 147.788 300.028 147.788 300.252 148.02C301.224 149.024 301.598 150.26 301.598 151.65L301 167.795C301 169.186 300.402 170.422 299.43 171.194C298.459 171.967 297.263 172.585 296.142 172.585H295.918L262.362 171.349C259.597 171.349 257.504 168.954 257.654 166.096L258.102 150.26Z" stroke="#3502C4" stroke-width="1.5" stroke-miterlimit="10"/>
<path d="M241.956 149.875C241.956 148.021 242.628 146.476 243.6 145.24C244.422 144.468 245.394 143.85 246.365 143.618C246.664 143.618 247.038 143.386 247.486 143.618H247.785H249.429H250.625L249.803 169.264H248.831H246.888C243.974 169.033 241.657 166.02 241.657 162.389L241.956 149.875Z" fill="#5BF1CD" stroke="#3502C4" stroke-width="1.5" stroke-miterlimit="10"/>
<path d="M309.667 145.004H310.564L312.656 145.236H312.806C313.329 145.236 313.702 145.467 314.226 145.622C315.272 146.008 316.169 146.626 316.916 147.63C317.962 149.021 318.336 150.643 318.336 152.497L317.439 165.011C317.29 168.41 314.599 171.037 311.61 171.037C311.46 171.037 311.236 171.037 311.087 171.037L308.62 170.805H307.724L309.667 145.004Z" fill="#5BF1CD" stroke="#3502C4" stroke-width="1.5" stroke-miterlimit="10"/>
<path d="M313.926 145.779C314.151 139.521 314.151 101.592 284.631 99.1975C274.467 98.425 266.096 101.051 259.819 107.231C247.712 118.973 247.338 140.139 247.488 143.384V143.77" stroke="#3502C4" stroke-width="1.5" stroke-miterlimit="10"/>
<path d="M300.4 148.409L297.635 144.16C296.066 141.765 293.899 140.298 291.582 140.298L268.19 139.293C265.649 139.062 263.108 140.529 261.539 143.156L258.998 147.173" stroke="#3502C4" stroke-width="1.5" stroke-miterlimit="10"/>
<path d="M306.749 185.558C306.749 185.558 315.119 189.729 316.988 197.609C317.137 198.072 317.137 198.536 317.212 198.999C317.436 200.621 317.511 202.398 317.287 204.406C317.212 205.024 317.062 205.565 316.988 206.338C316.913 207.265 316.689 208.269 316.315 209.273C315.418 212.209 313.849 214.758 311.756 216.766C311.308 217.152 310.934 217.461 310.486 217.848C302.639 224.259 289.56 225.573 281.265 225.65C276.78 225.727 273.642 225.418 273.567 225.418C255.481 223.641 242.552 214.835 236.125 200.158C235.677 199.308 235.378 198.381 235.153 197.609C235.004 196.991 234.929 196.45 234.78 195.986C234.406 193.283 234.705 190.811 235.677 188.648C235.901 188.261 235.976 187.952 236.2 187.566C236.499 186.871 236.872 186.407 237.321 185.789C240.534 181.386 246.438 178.76 249.203 177.601C249.502 177.447 249.727 177.756 249.727 178.142L249.502 182.313C249.278 182.468 242.627 184.322 240.46 189.806C239.339 192.665 239.413 195.755 240.833 198.999C246.139 211.05 256.378 218.62 270.578 220.938C272.147 221.169 273.642 221.324 275.211 221.401C276.407 221.478 278.35 221.556 280.816 221.478C290.681 221.324 308.244 219.238 311.831 206.878C315.418 194.75 306.45 189.729 306.375 189.729L306.749 185.558Z" fill="#B3FFED" stroke="#3502C4" stroke-width="1.5" stroke-miterlimit="10"/>
<path d="M261.758 218.699C261.534 216.15 260.637 209.275 255.48 203.095C252.117 199.155 248.38 197.069 246.138 196.065" stroke="#3502C4" stroke-width="1.5" stroke-miterlimit="10"/>
<path d="M359.274 269.034C360.842 271.162 360.428 274.319 358.368 275.939C356.309 277.559 353.255 277.131 351.688 275.003C350.121 272.874 350.535 269.718 352.594 268.098C354.653 266.478 357.707 266.906 359.274 269.034Z" fill="#F0EBFF"/>
<path d="M201.522 190.629C203.09 192.757 202.676 195.914 200.616 197.534C198.557 199.154 195.503 198.726 193.936 196.598C192.369 194.469 192.783 191.313 194.842 189.693C196.901 188.073 199.955 188.501 201.522 190.629Z" fill="#F0EBFF"/>
<path d="M113.848 191.438C115.003 193.006 114.718 195.176 113.201 196.37C111.684 197.564 109.584 197.27 108.43 195.701C107.275 194.133 107.559 191.963 109.077 190.769C110.594 189.575 112.693 189.87 113.848 191.438Z" fill="#F0EBFF"/>
<path d="M219.536 111.82C220.691 113.388 220.406 115.558 218.889 116.752C217.371 117.946 215.272 117.652 214.117 116.083C212.962 114.515 213.247 112.345 214.764 111.151C216.281 109.957 218.381 110.252 219.536 111.82Z" fill="#F0EBFF"/>
<path d="M285.596 408.392C286.751 409.96 286.467 412.131 284.949 413.324C283.432 414.518 281.332 414.224 280.178 412.656C279.023 411.087 279.307 408.917 280.825 407.723C282.342 406.53 284.441 406.824 285.596 408.392Z" fill="#F0EBFF"/>
<path d="M463.686 280.656C464.841 282.224 464.556 284.395 463.039 285.588C461.522 286.782 459.422 286.488 458.267 284.92C457.113 283.351 457.397 281.181 458.914 279.987C460.432 278.794 462.531 279.088 463.686 280.656Z" fill="#F0EBFF"/>
<path d="M362.776 164.546C363.683 165.778 363.45 167.553 362.258 168.491C361.066 169.429 359.348 169.188 358.441 167.956C357.533 166.724 357.766 164.948 358.959 164.01C360.151 163.073 361.868 163.313 362.776 164.546Z" fill="#F0EBFF"/>
<path d="M189.653 158.86L191.91 130.546L194.608 130.723L192.351 159.038L189.653 158.86Z" fill="#8C65F7"/>
<path d="M226.846 195.58L227.962 179.663L230.66 179.84L229.544 195.757L226.846 195.58Z" fill="#8C65F7"/>
<path d="M332.82 141.756L335.23 115.975L338.011 116.264L335.601 142.045L332.82 141.756ZM386.682 194.21L387.515 176.747L390.213 176.924L389.38 194.388L386.682 194.21Z" fill="#8C65F7"/>
<path d="M91.4685 173.229C85.0746 160.322 70.3771 154.896 58.6408 161.108C46.9045 167.32 42.5737 182.818 48.9677 195.725C55.3616 208.631 70.0591 214.058 81.7953 207.846C93.5316 201.633 97.8624 186.135 91.4685 173.229Z" fill="#F0EBFF" stroke="#6F3FF5" stroke-width="1.5" stroke-miterlimit="10"/>
<path d="M96.1228 171.596C89.7288 158.69 75.0314 153.263 63.2951 159.475C51.5588 165.687 47.228 181.186 53.622 194.092C60.0159 206.999 74.7134 212.425 86.4496 206.213C98.1859 200.001 102.517 184.502 96.1228 171.596Z" fill="#F0EBFF" stroke="#6F3FF5" stroke-width="1.5" stroke-miterlimit="10"/>
<path d="M91.5717 174.005C86.5411 163.851 74.9853 159.577 65.7613 164.459C56.5372 169.342 53.1378 181.531 58.1685 191.686C63.1992 201.84 74.7549 206.114 83.9789 201.232C93.203 196.349 96.6024 184.16 91.5717 174.005Z" fill="white" stroke="#6F3FF5" stroke-width="1.5" stroke-miterlimit="10"/>
<path d="M79.2126 195.526L67.0626 185.058L71.3218 169.313L83.4718 179.781L79.2126 195.526Z" stroke="#6F3FF5" stroke-width="1.5"/>
<path d="M67.0625 185.059L76.6596 187.046L83.4717 179.781" stroke="#6F3FF5" stroke-width="1.5"/>
<path d="M71.3242 169.314L79.2151 195.527" stroke="#6F3FF5" stroke-width="1.5"/>
<path d="M392.173 272.565C404.936 275.94 417.898 268.109 421.123 255.075C424.348 242.041 416.616 228.74 403.853 225.365C391.089 221.991 378.128 229.821 374.902 242.855C371.677 255.889 379.409 269.191 392.173 272.565Z" fill="#FFD347" stroke="#6F3FF5" stroke-width="1.5" stroke-miterlimit="10"/>
<path d="M388.7 269.808C401.464 273.183 414.457 265.223 417.722 252.03C420.986 238.837 413.286 225.407 400.522 222.032C387.759 218.658 374.766 226.617 371.501 239.81C368.236 253.003 375.937 266.434 388.7 269.808Z" fill="#FFD347" stroke="#6F3FF5" stroke-width="1.5" stroke-miterlimit="10"/>
<path d="M389.984 264.627C399.98 267.269 410.156 261.036 412.712 250.704C415.269 240.373 409.238 229.855 399.243 227.212C389.247 224.569 379.072 230.803 376.515 241.134C373.959 251.466 379.989 261.984 389.984 264.627Z" fill="white" stroke="#6F3FF5" stroke-width="1.5" stroke-miterlimit="10"/>
<path d="M392.717 238.918L401.806 244.38C401.817 244.386 401.826 244.395 401.832 244.407C401.837 244.419 401.839 244.432 401.837 244.445C401.835 244.458 401.829 244.47 401.82 244.479C401.811 244.488 401.799 244.494 401.787 244.496L387.505 248.404C387.492 248.406 387.481 248.412 387.472 248.421C387.463 248.43 387.457 248.442 387.455 248.455C387.452 248.468 387.454 248.481 387.46 248.493C387.465 248.504 387.474 248.514 387.486 248.52L396.575 253.982" stroke="#6F3FF5" stroke-width="1.5"/>
<path d="M397.325 241.686L400.004 236.923" stroke="#6F3FF5" stroke-width="1.5"/>
<path d="M391.967 251.213L389.288 255.976" stroke="#6F3FF5" stroke-width="1.5"/>
<path d="M326.157 280.47C442.064 314.819 524.994 361.74 518.041 391.638C510.201 425.349 391.056 424.652 251.923 390.081C112.79 355.51 6.35571 300.157 14.1957 266.445C18.3057 248.772 53.0058 240.556 105.139 241.719" stroke="#8C65F7" stroke-width="1.5"/>
<path d="M340.438 308.799L335.276 315.101C325.699 327.776 331.231 348.9 347.736 362.212C364.242 375.524 385.319 376.063 394.919 363.281L400.85 356.49" fill="#FAADBF"/>
<path d="M340.438 308.799L335.276 315.101C325.699 327.776 331.231 348.9 347.736 362.212C364.242 375.524 385.319 376.063 394.919 363.281L400.85 356.49" stroke="#6F3FF5" stroke-width="1.5" stroke-miterlimit="10" stroke-linecap="round"/>
<path d="M387.818 309.991C371.248 296.617 350.022 296.093 340.408 308.819C330.795 321.545 336.434 342.703 353.005 356.077C369.575 369.451 390.801 369.976 400.415 357.249C410.028 344.523 404.388 323.365 387.818 309.991Z" fill="#FAADBF" stroke="#6F3FF5" stroke-width="1.5" stroke-miterlimit="10"/>
<path d="M384.153 314.843C371.101 304.309 354.367 303.914 346.777 313.961C339.188 324.008 343.616 340.692 356.669 351.227C369.722 361.761 386.455 362.157 394.045 352.11C401.634 342.063 397.206 325.378 384.153 314.843Z" fill="white" stroke="#6F3FF5" stroke-width="1.5" stroke-miterlimit="10"/>
<path d="M360.807 342.283L379.337 320.073" stroke="#6F3FF5" stroke-width="1.5"/>
<path d="M364.428 345.51L382.958 323.3" stroke="#6F3FF5" stroke-width="1.5"/>
<path d="M375.426 349.358L380.236 343.592C382.363 341.043 383.353 337.663 382.989 334.196C382.625 330.729 380.936 327.458 378.294 325.103C375.653 322.749 372.275 321.503 368.903 321.64C365.532 321.777 362.443 323.286 360.317 325.835L355.506 331.601L375.426 349.358Z" stroke="#6F3FF5" stroke-width="1.5"/>
<path d="M138.908 205.687C132.123 199.839 131.209 189.412 136.867 182.399C142.525 175.385 152.613 174.441 159.398 180.289C166.183 186.138 167.097 196.565 161.439 203.578C155.781 210.592 145.693 211.536 138.908 205.687Z" fill="#B3FFED" stroke="#6F3FF5" stroke-width="1.5" stroke-miterlimit="10"/>
<path d="M140.424 204.133C133.638 198.285 132.725 187.858 138.383 180.845C144.041 173.831 154.128 172.887 160.914 178.735C167.699 184.584 168.612 195.01 162.954 202.024C157.296 209.037 147.209 209.982 140.424 204.133Z" fill="#B3FFED" stroke="#6F3FF5" stroke-width="1.5" stroke-miterlimit="10"/>
<path d="M142.589 201.447C137.239 196.836 136.519 188.616 140.98 183.086C145.441 177.557 153.394 176.812 158.743 181.423C164.093 186.034 164.813 194.255 160.352 199.784C155.891 205.314 147.938 206.059 142.589 201.447Z" fill="white" stroke="#6F3FF5" stroke-width="1.5" stroke-miterlimit="10"/>
<path d="M148.779 191.858C147.328 191.452 146.469 189.906 146.862 188.405C147.256 186.905 148.751 186.018 150.203 186.424" stroke="#3502C4" stroke-width="1.5"/>
<path d="M151.41 192.594C152.862 193 153.72 194.546 153.327 196.047C152.934 197.547 151.438 198.434 149.987 198.028" stroke="#3502C4" stroke-width="1.5"/>
<path d="M152.227 184.074L151.515 186.791" stroke="#3502C4" stroke-width="1.5"/>
<path d="M148.668 197.66L147.957 200.377" stroke="#3502C4" stroke-width="1.5"/>
<path d="M148.776 191.858L151.405 192.594" stroke="#3502C4" stroke-width="1.5"/>
<path d="M155.1 189.256C155.1 189.256 154.142 187.53 152.828 187.162L150.199 186.426" stroke="#3502C4" stroke-width="1.5"/>
<path d="M145.082 195.198C145.082 195.198 146.04 196.924 147.355 197.292L149.983 198.028" stroke="#3502C4" stroke-width="1.5"/>
<path fill-rule="evenodd" clip-rule="evenodd" d="M66.768 265.749L54.3427 250.373L60.1223 231.25L78.3273 227.503L90.7526 242.879L84.973 262.002L66.768 265.749ZM72.5516 246.624L78.3313 227.501ZM72.5504 246.625L90.7554 242.878ZM72.551 246.626L84.9764 262.002ZM72.552 246.625L66.7723 265.748ZM72.5483 246.625L54.3433 250.372ZM72.5506 246.624L60.1253 231.248Z" fill="white"/>
<path d="M66.768 265.749L66.185 266.227L66.4675 266.576L66.9099 266.485L66.768 265.749ZM54.3427 250.373L53.627 250.162L53.5116 250.544L53.7597 250.851L54.3427 250.373ZM60.1223 231.25L59.9804 230.514L59.538 230.605L59.4066 231.039L60.1223 231.25ZM78.3273 227.503L78.9102 227.025L78.6278 226.676L78.1854 226.767L78.3273 227.503ZM90.7526 242.879L91.4683 243.09L91.5837 242.708L91.3356 242.401L90.7526 242.879ZM84.973 262.002L85.1149 262.738L85.5573 262.647L85.6887 262.213L84.973 262.002ZM67.351 265.271L54.9256 249.895L53.7597 250.851L66.185 266.227L67.351 265.271ZM55.0583 250.584L60.8379 231.461L59.4066 231.039L53.627 250.162L55.0583 250.584ZM60.2641 231.987L78.4691 228.24L78.1854 226.767L59.9804 230.514L60.2641 231.987ZM77.7443 227.981L90.1696 243.357L91.3356 242.401L78.9102 227.025L77.7443 227.981ZM90.0369 242.668L84.2573 261.791L85.6887 262.213L91.4683 243.09L90.0369 242.668ZM84.8311 261.265L66.6262 265.012L66.9099 266.485L85.1149 262.738L84.8311 261.265ZM73.2673 246.835L79.0469 227.712L77.6156 227.291L71.836 246.413L73.2673 246.835ZM72.6922 247.361L90.8972 243.614L90.6135 242.142L72.4085 245.888L72.6922 247.361ZM71.968 247.104L84.3934 262.48L85.5594 261.524L73.134 246.148L71.968 247.104ZM71.8363 246.415L66.0567 265.538L67.488 265.959L73.2676 246.836L71.8363 246.415ZM72.4065 245.889L54.2015 249.636L54.4852 251.109L72.6902 247.362L72.4065 245.889ZM73.1336 246.146L60.7082 230.77L59.5423 231.726L71.9676 247.102L73.1336 246.146Z" fill="#8C65F7"/>
<path d="M190.723 390.762L183.048 368.47L199.576 352.099L207.251 374.391L190.723 390.762Z" fill="white" stroke="#8C65F7" stroke-width="1.5"/>
<path d="M183.049 368.47L193.588 378.254L207.252 374.391" fill="white"/>
<path d="M183.049 368.47L193.588 378.254L207.252 374.391" stroke="#8C65F7" stroke-width="1.5"/>
<path d="M199.576 352.099L190.723 390.762Z" fill="white"/>
<path d="M199.576 352.099L190.723 390.762" stroke="#8C65F7" stroke-width="1.5"/>
<path d="M32.0345 294.216C32.0345 296.407 30.3224 298.141 28.2623 298.141C26.2023 298.141 24.4902 296.407 24.4902 294.216C24.4902 292.026 26.2023 290.292 28.2623 290.292C30.3224 290.292 32.0345 292.026 32.0345 294.216Z" fill="#6F3FF5" stroke="#8C65F7" stroke-width="1.5"/>
<path d="M364.191 411.034C364.191 413.225 362.479 414.958 360.419 414.958C358.359 414.958 356.646 413.225 356.646 411.034C356.646 408.843 358.359 407.11 360.419 407.11C362.479 407.11 364.191 408.843 364.191 411.034Z" fill="#6F3FF5" stroke="#8C65F7" stroke-width="1.5"/>
<path d="M481.986 344.465C481.986 346.655 480.274 348.389 478.214 348.389C476.153 348.389 474.441 346.655 474.441 344.465C474.441 342.274 476.153 340.54 478.214 340.54C480.274 340.54 481.986 342.274 481.986 344.465Z" fill="#6F3FF5" stroke="#8C65F7" stroke-width="1.5"/>
</svg>
