<svg width="263" height="241" viewBox="0 0 263 241" fill="none" xmlns="http://www.w3.org/2000/svg">
<path d="M69.6648 141.429L136.339 58.8429L226.339 141.429L151.857 238.824L69.6648 141.429Z" fill="#5932C4"/>
<path d="M133.643 109.206C131.4 107.099 130.547 104.361 131.737 103.09C132.926 101.82 135.709 102.499 137.952 104.606C140.195 106.714 141.049 109.452 139.859 110.722C138.669 111.992 135.886 111.313 133.643 109.206Z" fill="#826ECC" stroke="#5932C4" stroke-width="2" stroke-miterlimit="10"/>
<path d="M144.209 111.154C138.141 104.841 134.461 98.5299 135.989 97.0579C137.517 95.5849 143.674 99.5089 149.741 105.822C155.809 112.135 159.489 118.446 157.961 119.919C156.434 121.391 150.277 117.467 144.209 111.154Z" fill="#826ECC" stroke="#5932C4" stroke-width="2" stroke-miterlimit="10"/>
<path d="M145.554 122.366C143.311 120.258 142.458 117.52 143.648 116.25C144.837 114.98 147.62 115.659 149.863 117.766C152.106 119.874 152.96 122.612 151.77 123.882C150.58 125.152 147.797 124.473 145.554 122.366Z" fill="#826ECC" stroke="#5932C4" stroke-width="2" stroke-miterlimit="10"/>
<path d="M128.022 115.922C128.147 116.069 128.241 116.268 128.251 116.488C128.261 116.708 128.177 116.907 127.988 117.043C127.883 117.158 127.758 117.189 127.632 117.22C127.548 117.241 127.506 117.251 127.412 117.23C127.192 117.24 126.994 117.156 126.858 116.967C126.555 116.641 126.567 116.148 126.892 115.845C127.038 115.72 127.237 115.626 127.457 115.616C127.698 115.69 127.896 115.775 128.022 115.922Z" fill="#E2E0E7"/>
<path d="M135.405 118.813C135.656 119.107 135.665 119.506 135.382 119.798C135.267 119.871 135.194 119.934 135.068 119.965C134.817 120.027 134.576 119.953 134.399 119.775C134.148 119.481 134.138 119.082 134.421 118.79C134.568 118.664 134.725 118.581 134.914 118.623C135.081 118.582 135.28 118.666 135.405 118.813Z" fill="#E2E0E7"/>
<path d="M135.819 115.817C135.746 115.88 135.63 115.953 135.505 115.984C135.421 116.004 135.379 116.015 135.327 115.983C135.149 115.983 134.95 115.898 134.825 115.751C134.7 115.604 134.616 115.447 134.617 115.269C134.617 115.09 134.701 114.892 134.848 114.766C135.131 114.473 135.581 114.496 135.832 114.79C136.124 115.074 136.102 115.524 135.819 115.817Z" fill="#E2E0E7"/>
<path d="M140.523 129.612C140.648 129.759 140.69 129.926 140.689 130.105C140.689 130.283 140.595 130.44 140.49 130.555C140.416 130.617 140.301 130.69 140.175 130.722C140.134 130.732 140.05 130.753 139.997 130.721C139.82 130.721 139.663 130.626 139.548 130.521C139.308 130.269 139.288 129.828 139.581 129.578C139.654 129.515 139.77 129.442 139.895 129.411C139.937 129.4 140.021 129.38 140.073 129.411C140.251 129.412 140.408 129.506 140.523 129.612Z" fill="#E2E0E7"/>
<path d="M138.528 122.092C138.413 121.986 138.361 121.777 138.372 121.641C138.372 121.462 138.467 121.305 138.572 121.19C138.718 121.065 138.886 121.024 139.053 120.982C139.231 120.983 139.388 121.077 139.503 121.182C139.628 121.329 139.67 121.497 139.67 121.675C139.669 121.854 139.575 122.011 139.47 122.126C139.396 122.188 139.281 122.261 139.156 122.292C139.114 122.303 139.03 122.324 138.978 122.292C138.8 122.291 138.653 122.239 138.528 122.092Z" fill="#E2E0E7"/>
<path d="M166.979 71.8188C170.835 74.827 174.472 77.488 177.699 81.186C178.137 81.701 179.672 83.592 181.343 85.671C182.815 87.488 184.005 89.064 184.798 90.114C185.218 89.832 185.595 89.5609 186.004 89.2369C186.39 89.8979 187.017 90.277 187.676 90.247C188.064 90.196 188.336 90.0399 188.525 89.9039C189.982 88.6079 218.468 62.9021 224.103 44.7226L224.251 44.0627C223.884 44.3761 224.315 43.4236 224.315 43.4236C225.232 40.1246 225.341 37.6933 224.562 34.9033L224.479 34.5677L224.197 34.3259C221.53 33.4278 218.85 33.5568 215.562 34.2816C195.993 38.547 169.009 66.5524 167.635 68.0055L167.404 68.3298C167.331 68.3925 167.425 68.5919 167.404 68.6861C167.193 69.0943 167.297 69.692 168.017 70.6268L166.979 71.8188Z" fill="#C2BDFF"/>
<path d="M215.091 34.3535L207.854 36.9018C207.854 36.9018 212.172 39.2611 214.146 41.4884C216.12 43.7156 218.961 46.2177 221.214 50.4685C221.214 50.4685 224.059 45.9799 224.305 43.3813L223.459 42.4777C223.469 42.5197 219.139 35.8003 215.091 34.3535Z" fill="#C2BDFF"/>
<path d="M137.25 96.0959C137.332 96.6099 137.951 96.2339 139.749 97.0349C141.788 97.9109 143.648 99.4979 144.777 100.466C145.508 101.086 145.863 101.443 146.522 101.592C147.788 101.857 148.376 100.999 149.464 101.264C150.175 101.444 150.321 102.032 151.438 103.135C152.943 104.544 153.559 105.415 154.154 105.847C155.356 106.751 155.953 106.826 155.983 107.308C156.013 108.147 153.825 108.288 153.645 109.356C153.571 109.954 154.114 110.175 155.409 111.814C156.829 113.599 157.109 115.088 157.789 115.142C158.835 115.24 159.133 112.851 160.002 112.947C160.504 113.001 161.193 113.632 161.816 116.505C163.273 115.21 164.73 113.914 166.198 112.66C170.046 108.992 173.926 105.271 177.774 101.603L181.874 97.6939L181.905 97.6419C182 97.4849 182.441 96.5739 181.138 94.0029C181.002 93.8139 180.919 93.6559 180.783 93.4669C178.915 90.7689 176.629 87.8169 173.84 84.8119C170.08 80.7569 166.392 77.5289 163.121 75.0889C160.633 73.6569 159.659 74.0309 159.512 74.1569L155.381 78.1179L143.804 89.1749C143.385 89.8129 142.64 90.7549 141.497 91.7049C141.025 92.1339 140.501 92.7089 139.735 93.3879C137.733 94.9969 137.156 95.5399 137.25 96.0959Z" fill="#C2BDFF"/>
<path d="M157.317 115.571C158.152 116.967 158.725 118.205 159.131 119.129C160.589 117.833 164.657 113.798 166.115 112.503C169.963 108.834 173.801 105.124 177.649 101.455L181.759 97.5889L181.885 97.3789C181.98 97.2219 182.409 96.8039 181.106 94.2329C180.938 94.4529 180.96 94.0019 180.96 94.0019C180.824 93.8129 180.762 93.7399 180.626 93.5499C173.215 99.5259 163.715 108.555 157.317 115.571Z" fill="#F2F2F4"/>
<path d="M131.794 102.967L132.077 102.675C131.805 102.653 131.732 102.715 131.794 102.967Z" fill="#E2E0E7"/>
<path d="M186.899 86.3879C186.513 85.5489 185.866 84.9079 185.407 84.1309C185.104 83.6269 184.822 83.2069 184.425 82.8599C187.099 80.1949 189.335 77.0139 191.873 74.1599C196.813 68.6184 203.07 64.2648 207.248 58.1552C210.417 53.5417 211.881 49.2171 212.586 47.2172C214.364 42.1912 215.116 37.6864 215.437 34.3125C216.704 34.0434 218.326 33.7752 220.252 33.8328C221.77 33.8579 223.109 34.0606 224.197 34.3256C224.301 34.3888 224.364 34.4623 224.479 34.5674C224.852 36.2558 225.038 37.7237 225.078 38.7823C225.2 40.7111 225.02 41.7797 224.63 42.7219C224.546 42.9208 224.462 43.1197 224.399 43.2244C223.935 44.942 223.251 46.8476 222.379 48.8891C221.159 51.6842 219.825 54.0178 218.555 55.8904C209.435 69.1451 199.26 80.4789 188.273 90.1439C188.2 90.2069 188.168 90.2589 188.095 90.3219L187.969 90.1749C187.938 90.2269 187.865 90.2899 187.739 90.3209C187.697 90.3309 187.697 90.3309 187.655 90.3419L187.613 90.3519C187.846 88.9589 187.378 87.4269 186.899 86.3879Z" fill="white"/>
<path d="M127.473 112.986C127.598 113.311 127.775 113.49 128.036 113.826C128.287 114.12 128.412 114.267 128.632 114.435C129.436 114.993 130.452 114.786 130.62 114.744C131.08 114.63 131.468 114.401 131.667 114.307C131.856 114.171 132.013 114.088 132.086 114.025C132.233 113.9 132.38 113.774 132.548 113.555C132.653 113.44 132.768 113.189 132.863 112.853C133.313 112.876 133.993 112.93 134.821 112.681C135.69 112.421 136.256 112.014 136.633 111.742C136.842 111.69 137.178 111.607 137.554 111.514C137.931 111.421 138.183 111.359 138.539 111.181C138.78 111.077 139.105 110.952 139.492 110.723C139.45 110.911 139.408 111.1 139.407 111.278C139.407 111.278 139.554 111.153 139.701 111.027C139.68 111.122 139.585 111.278 139.585 111.457C139.574 111.771 139.762 111.992 139.825 112.065C139.657 112.285 139.384 112.619 139.236 113.101C139.026 113.688 139.015 114.18 139.035 114.442C138.92 114.515 138.763 114.599 138.574 114.734C138.197 115.006 138.008 115.142 137.935 115.204C137.505 115.622 137.743 116.944 138.484 117.784C138.965 118.289 139.759 118.804 140.241 118.596C140.325 118.575 140.43 118.46 140.796 118.325C141.111 118.158 141.205 118.179 141.31 118.064C141.456 117.939 141.635 117.761 141.751 117.332C141.991 117.406 142.399 117.438 142.828 117.377C143.467 117.263 143.886 116.981 144.159 116.825C144.001 117.086 143.865 117.432 143.759 117.903C143.696 118.186 143.685 118.5 143.653 118.731C143.348 119.118 142.95 119.662 142.655 120.447C142.329 121.285 142.244 122.018 142.222 122.469C141.709 122.729 141.352 123.085 141.142 123.315C140.828 123.66 140.261 124.245 140.134 125.167C140.07 125.628 140.195 125.953 140.237 126.121C140.351 126.583 140.591 126.835 140.79 127.097C141.04 127.391 141.249 127.696 141.657 127.907C141.96 128.054 142.201 128.128 142.671 128.234C142.86 128.277 142.996 128.288 143.215 128.278C143.257 128.267 143.435 128.268 143.728 128.195C144.472 127.967 145.017 127.476 145.017 127.476C145.489 127.047 145.731 126.587 145.836 126.293C146.286 126.316 147.175 126.318 148.129 125.859C148.967 125.474 149.46 124.951 149.596 124.784C150.435 123.864 150.626 122.837 150.689 122.376C150.899 122.324 151.118 122.314 151.432 122.326C151.746 122.337 152.018 122.359 152.259 122.433C152.311 122.643 152.352 123.167 152.121 123.669C152.068 123.816 151.963 123.931 151.89 123.993C152.015 123.962 152.141 123.931 152.267 123.9C154.28 121.977 156.325 120.002 158.338 118.079C158.328 118.037 158.328 118.037 158.317 117.995C158.154 115.542 157.362 114.135 156.662 113.284C155.514 111.877 153.444 110.697 153.718 109.472C153.782 109.189 153.876 109.21 155.491 107.475C156.372 106.544 156.498 106.335 156.603 106.042C156.666 105.759 156.709 105.214 155.634 103.566C154.988 102.569 154.226 101.466 152.836 100.341C151.571 99.3629 150.965 98.8889 150.264 98.9289C148.464 99.0189 148.249 101.743 146.616 101.97C145.056 102.133 144.412 99.7099 141.233 98.0039C141.024 97.8769 140.826 97.7929 140.575 97.6769C139.529 97.2239 138.577 96.9689 137.876 96.8309C137.834 96.8419 137.834 96.8419 137.782 96.8099C135.989 98.7229 134.143 100.605 132.349 102.518C132.485 102.529 132.59 102.592 132.726 102.603C133.197 102.709 133.626 102.647 133.972 102.606C133.877 102.763 133.793 102.962 133.761 103.193C133.614 103.674 133.592 104.125 133.633 104.471C132.733 104.605 132.052 104.907 131.664 105.136C131.433 105.282 131.193 105.387 130.909 105.679C130.333 106.223 130.07 106.778 129.933 107.123C129.565 107.971 129.543 108.778 129.573 109.26C129.249 109.385 128.725 109.604 128.295 110.022C127.97 110.325 127.823 110.628 127.76 110.733C127.445 111.256 127.433 111.749 127.401 111.979C127.286 112.052 127.254 112.461 127.473 112.986Z" fill="#E2E0E7"/>
<path d="M136.544 109.048C135.005 109.474 133.611 110.487 132.792 111.847C131.599 111.697 130.3 112.196 129.555 113.138C129.387 113.357 129.23 113.619 129.302 113.913C129.406 114.332 129.929 114.47 130.327 114.46C130.913 114.493 131.614 114.453 132.034 113.993C132.275 113.711 132.36 113.334 132.653 113.083C133.02 112.77 133.554 112.771 134.035 112.741C134.737 112.701 135.417 112.577 136.035 112.201C136.339 111.993 136.633 111.742 136.958 111.617C137.356 111.429 137.775 111.326 138.183 111.18C139.356 110.712 140.185 109.571 140.229 108.314C140.283 107.455 139.451 104.989 138.257 105.374C137.105 105.748 136.577 108.105 136.544 109.048Z" fill="#F2F2F4"/>
<path d="M142.123 114.346C140.583 114.771 139.189 115.784 138.37 117.144C138.37 117.322 138.422 117.71 138.714 117.994C139.059 118.31 139.53 118.237 139.959 118.176C140.65 118.094 141.153 117.791 141.572 117.509C142.033 117.217 142.054 117.123 142.494 116.925C142.893 116.737 143.311 116.634 143.72 116.488C144.893 116.019 145.722 114.879 145.766 113.622C145.82 112.762 144.988 110.297 143.794 110.682C142.684 111.046 142.156 113.402 142.123 114.346Z" fill="#F2F2F4"/>
<path d="M148.516 120.599C148.097 120.524 147.072 120.333 146.087 120.844C144.715 121.584 143.947 123.333 144.184 125.188C143.588 125.113 142.939 125.185 142.373 125.414C141.609 125.737 141.189 126.197 140.906 126.49C140.769 126.657 140.665 126.772 140.654 126.908C140.632 127.359 141.427 127.696 141.678 127.812C141.929 127.928 142.671 128.234 143.551 128.016C143.844 127.944 144.472 127.788 144.84 127.297C145.249 126.795 144.988 126.459 145.355 126.145C145.795 125.769 146.317 126.263 147.406 125.994C147.574 125.952 148.076 125.828 148.642 125.42C148.758 125.347 149.093 125.086 149.45 124.553C150.237 123.423 149.945 122.783 150.564 122.229C151.182 121.675 151.768 122.065 152.082 121.719C152.985 120.695 150.241 116.076 149.12 116.398C148.796 116.523 148.355 117.255 148.516 120.599Z" fill="#F2F2F4"/>
<path d="M153.527 121.807C153.663 121.818 154.011 120.352 153.71 118.957C153.036 115.696 148.979 114.029 148.884 114.186C148.779 114.301 152.136 115.829 153.123 119.28C153.445 120.581 153.391 121.796 153.527 121.807Z" fill="#F2F2F4"/>
<path d="M137.11 97.6889L145.022 103.611L150.324 100.428C148.752 101.619 147.514 102.726 146.696 103.552C144.148 106.008 144.724 106.178 142.837 107.713C142.019 108.361 141.191 108.966 141.305 109.428C141.441 109.795 142.09 109.723 143.094 110.187C144.411 110.841 144.462 111.585 145.027 111.712C146.994 112.116 149.273 102.825 152.077 102.844C152.705 102.866 153.625 103.351 154.741 105.701C151.857 108.419 149.026 111.168 146.143 113.885C146.384 113.781 152.186 111.543 156.063 114.813C157.191 115.78 157.88 116.945 158.254 117.921C158.092 115.468 157.299 114.062 156.6 113.211C155.451 111.803 153.381 110.624 153.656 109.398C153.719 109.115 153.813 109.137 155.428 107.401C156.309 106.471 156.435 106.262 156.54 105.968C156.604 105.686 156.647 105.141 155.572 103.492C154.925 102.495 154.163 101.392 152.773 100.267C151.509 99.2889 150.903 98.8159 150.201 98.8559C148.401 98.9449 148.186 101.67 146.553 101.896C144.993 102.059 144.349 99.6369 141.171 97.9299C140.962 97.8039 140.763 97.7189 140.512 97.6029C139.466 97.1499 138.514 96.8959 137.814 96.7579L137.11 97.6889Z" fill="#BFBFBF"/>
<path d="M137.548 104.125C139.356 105.681 139.721 105.902 139.763 105.892C139.837 105.829 138.29 104.787 137.884 103.329C137.552 102.165 137.859 100.353 140.512 97.6029C139.456 97.1079 138.598 97.0529 137.855 96.9259L132.035 102.685C132.349 102.696 132.862 102.792 133.553 102.71C133.353 102.982 133.668 102.815 133.678 102.857C133.761 103.014 134.033 103.036 134.201 102.995C134.505 102.964 134.976 102.892 135.499 103.03C136.608 103.2 137.297 103.831 137.548 104.125Z" fill="#CCCCCC"/>
<path d="M131.794 102.967L132.077 102.675C131.805 102.653 131.732 102.715 131.794 102.967Z" fill="#CCCCCC"/>
<path d="M165.989 112.356C169.743 108.844 173.497 105.333 177.261 101.863C177.459 102.126 177.751 102.588 177.907 103.217C178.094 103.972 178.019 104.569 177.977 104.936C177.502 106.79 177.028 108.644 176.553 110.498L172.596 116.597L168.83 120.601C168.979 119.763 169.127 118.925 169.306 118.035C169.192 117.395 168.995 116.598 168.651 115.748C168.037 114.342 167.254 113.334 166.658 112.724C166.407 112.608 166.198 112.482 165.989 112.356Z" fill="#02E2AC"/>
<path d="M144.024 89.3439C147.673 85.7689 151.364 82.1839 155.003 78.5679C154.731 78.3679 154.355 78.1049 153.821 77.9249C153.047 77.6719 152.378 77.6589 151.99 77.7109C150.127 78.0829 148.273 78.4969 146.41 78.8689L140.112 82.5209L135.94 86.1359C136.976 86.0129 138.023 85.9319 139.017 85.8189C139.906 86.1779 140.743 86.5049 141.632 86.8639C142.155 87.1799 142.823 87.7269 143.408 88.4719C143.701 88.7559 143.867 89.0709 144.024 89.3439Z" fill="#02E2AC"/>
<path d="M156.888 99.4709L165.521 94.6629L167.293 93.3789L168.112 91.8399L168.725 88.7499L168.799 88.5089L168.464 88.4139L168.014 88.5699L164.832 88.8229L163.291 89.7829L156.888 99.4709Z" fill="#02E2AC"/>
<path d="M156.888 99.4709L165.521 94.6629L167.293 93.3789L168.112 91.8399L168.725 88.7499L156.888 99.4709Z" fill="#0DB589"/>
<path d="M149.834 83.3639L144.182 88.7259C144.182 88.7259 140.274 85.3299 138.222 85.8379C138.264 85.8279 142.959 82.7059 149.834 83.3639Z" fill="#0DB589"/>
<path d="M172.238 106.891C170.34 108.741 168.442 110.591 166.544 112.441C166.544 112.441 169.77 116.495 169.201 118.506C169.778 117.606 170.324 116.581 170.819 115.345C172.133 112.037 172.307 108.966 172.238 106.891Z" fill="#0DB589"/>
<path d="M163.015 75.5598C163.015 75.5598 164.74 76.4238 164.793 76.4558C170.47 79.2798 177.787 89.8008 177.787 89.8008C178.475 90.7878 179.519 92.3108 180.677 94.2948C182.9 92.1418 185.081 89.9988 187.304 87.8458C187.294 87.8038 187.283 87.7618 187.231 87.7308C185.897 85.0328 183.79 81.3698 180.395 77.7128C176.458 73.4788 172.433 70.8688 169.558 69.3099L167.608 71.1283L163.015 75.5598Z" fill="#02E2AC"/>
<path d="M170.196 69.7309L170.122 69.7936L164.051 75.6149L163.842 75.8449L163.476 75.4459L163.623 75.3199L168.184 70.9412L168.541 70.5858L169.621 69.5616L169.872 69.3213L170.196 69.7309Z" fill="#0DB589"/>
<path d="M172.214 70.7008L165.681 76.9929L166.047 77.3919L172.58 71.1L172.214 70.7008Z" fill="#0DB589"/>
<path d="M174.942 72.5631L168.189 79.0429L168.555 79.4419L175.307 72.9619L174.942 72.5631Z" fill="#0DB589"/>
<path d="M177.366 74.8129L170.613 81.2929L170.979 81.6919L177.731 75.2119L177.366 74.8129Z" fill="#0DB589"/>
<path d="M186.502 86.0409L179.969 92.3329L180.335 92.7319L186.857 86.3979L186.502 86.0409Z" fill="#0DB589"/>
<path d="M184.708 82.924L177.955 89.4039L178.32 89.8029L185.073 83.323L184.708 82.924Z" fill="#0DB589"/>
<path d="M182.891 80.4349L176.138 86.9149L176.504 87.3139L183.257 80.8339L182.891 80.4349Z" fill="#0DB589"/>
<path d="M180.061 77.6179L173.308 84.0979L173.673 84.4969L180.426 78.0179L180.061 77.6179Z" fill="#0DB589"/>
<path d="M167.66 71.16C168.12 71.4023 169.187 71.9397 169.239 71.9713C174.917 74.7959 182.233 85.3169 182.233 85.3169C182.922 86.3039 183.965 87.8269 185.165 89.7999C185.878 89.0899 186.602 88.4209 187.273 87.7199C185.938 85.0229 183.831 81.3599 180.437 77.7029C176.5 73.4689 172.475 70.8585 169.6 69.2996L167.66 71.16Z" fill="#0DB589"/>
<path d="M173.099 83.6159L172.953 83.7409L172.743 83.9709C163.134 73.8839 160.129 74.4939 159.836 74.5659L140.091 93.3889L139.661 93.8069L137.292 96.0859C138.568 96.2149 141.665 97.0509 146.564 101.582L148.284 99.9089L148.682 99.5439L149.542 98.7069C149.605 98.6029 149.721 98.5299 149.888 98.4879C150.652 98.3439 152.23 99.5109 154.57 101.96L154.172 102.325C152.918 101.033 152.051 100.223 151.403 99.7609C151.236 99.6239 151.079 99.5289 150.964 99.4239C150.17 98.9079 149.971 99.0019 149.971 99.0019L149.541 99.4199L149.111 99.8379L147.706 101.165L147.276 101.584L146.594 102.242L146.417 102.063C145.957 101.643 145.497 101.222 145.048 100.844C142.008 98.2569 139.843 97.2349 138.441 96.7799C138.201 96.7059 138.013 96.6639 137.866 96.6109C137.113 96.4419 136.767 96.4829 136.726 96.4929L135.867 96.6159L143.889 88.9759L144.287 88.6109L149.939 83.2489L150.337 82.8839L155.077 78.3269L155.507 77.9089L159.638 73.9469C159.795 73.8639 160.759 73.4469 163.257 74.9209C163.414 75.0159 163.571 75.1109 163.728 75.2059C164.25 75.5219 164.846 75.9529 165.546 76.4469C165.661 76.5529 165.818 76.6469 165.985 76.7839C166.644 77.2889 167.323 77.8779 168.107 78.5289C168.222 78.6349 168.389 78.7709 168.504 78.8759C169.141 79.4759 169.83 80.1059 170.583 80.8109C170.698 80.9159 170.823 81.0629 170.938 81.1679C171.543 81.9969 172.264 82.7539 173.099 83.6159Z" fill="#5932C4"/>
<path d="M188.117 89.6929C188.127 89.7349 188.138 89.7769 188.148 89.8189C188.137 89.9549 188.095 90.1439 187.959 90.3109C187.927 90.3629 187.854 90.4259 187.728 90.4569C187.686 90.4679 187.686 90.4679 187.644 90.4779C187.226 90.5819 186.619 90.2869 185.815 89.5509C185.752 89.4769 185.647 89.4139 185.574 89.2989L185.921 88.9009C186.035 89.0059 186.098 89.0799 186.203 89.1429C187.164 89.9739 187.457 89.9009 187.541 89.8799C187.625 89.8599 187.635 89.7229 187.635 89.7229C187.595 89.1989 187.501 88.6429 187.314 88.0659C187.273 87.8989 187.179 87.6989 187.137 87.5309C186.981 87.0799 186.731 86.6079 186.481 86.1359C186.397 85.9779 186.314 85.8209 186.23 85.6629C185.813 84.8759 185.302 84.0679 184.759 83.3119C184.634 83.1649 184.55 83.0069 184.425 82.8599C183.83 82.0729 183.235 81.2849 182.713 80.6129C182.588 80.4659 182.462 80.3189 182.389 80.2029C181.136 78.7319 180.175 77.7239 180.165 77.6819L179.8 77.2819L179.434 76.8829C179.424 76.8409 178.661 76.0949 177.501 75.0019C177.386 74.8969 177.261 74.7499 177.104 74.6549C176.477 74.0979 175.736 73.4349 174.952 72.7834C174.837 72.6783 174.67 72.5416 174.513 72.4468C173.792 71.8685 173.029 71.3004 172.287 70.8163C172.13 70.7216 171.973 70.6268 171.817 70.5321C171.179 70.1111 170.51 69.7425 169.861 69.4577C169.663 69.3734 169.516 69.3206 169.318 69.2362C168.732 69.025 168.167 68.8977 167.654 68.802C167.654 68.802 167.571 68.8227 167.539 68.875C167.508 68.9274 167.455 69.2521 168.238 70.2604C168.3 70.3339 168.373 70.4494 168.488 70.5545L168.09 70.9203C168.027 70.8467 167.954 70.7313 167.892 70.6577C167.182 69.7649 166.89 69.1248 167.1 68.7166C167.121 68.6224 167.194 68.5597 167.268 68.497C167.415 68.3716 167.624 68.3198 167.708 68.299C167.75 68.2887 167.802 68.3203 167.844 68.3099C172.615 68.9097 179.54 76.2339 179.843 76.5589L180.616 77.3469C180.772 77.6199 187.781 84.9229 188.117 89.6929Z" fill="#5932C4"/>
<path d="M224.803 34.6209C225.572 37.3689 225.367 40.4916 224.503 43.8222C219.211 63.208 189.541 89.1619 188.084 90.4579L187.959 90.3109L187.76 90.0489C187.802 90.0379 187.907 89.9229 188.159 89.6829C190.853 87.2789 206.035 73.5489 215.995 59.1956C216.132 59.0283 216.226 58.8713 216.352 58.6621C218.147 56.0362 219.764 53.4099 221.088 50.8561C221.172 50.6572 221.298 50.4479 221.382 50.249C222.475 48.0196 223.368 45.8839 223.959 43.7788C224.032 43.538 224.096 43.2552 224.159 42.9723C224.855 40.0396 225.007 37.2416 224.311 34.7872L224.301 34.7453L224.248 34.7137C221.78 33.9 218.975 33.882 215.928 34.5026C215.677 34.5648 215.426 34.627 215.174 34.6892C213.07 35.1657 210.86 35.9353 208.576 36.9458C208.377 37.0396 208.178 37.1334 207.979 37.2272C205.339 38.4148 202.647 39.9273 199.912 41.6283C199.754 41.7117 199.566 41.8475 199.409 41.9309C184.644 51.24 170.193 65.7694 167.718 68.341C167.508 68.571 167.362 68.6964 167.33 68.7487L167.1 68.5385L166.933 68.4018C168.485 66.771 205.694 27.9979 224.322 34.2947L224.678 34.2956L224.803 34.6209Z" fill="#5932C4"/>
<path d="M169.883 69.3634L169.809 69.4261L163.623 75.3209L163.371 75.5609L163.006 75.1619L163.152 75.0359L167.787 70.5945L168.186 70.2288L169.266 69.2046L169.517 68.9642L169.883 69.3634Z" fill="#5932C4"/>
<path d="M151.539 99.5929L151.361 99.7709L150.03 101.035L149.704 101.338L148.624 102.363L148.299 102.666L147.219 103.69L146.894 103.993L145.814 105.017L145.489 105.32L144.409 106.344L144.084 106.648L143.004 107.672L142.679 107.975L141.599 108.999L141.274 109.302L140.949 109.605L139.764 110.744C139.691 110.807 139.659 110.859 139.586 110.922C139.45 111.089 139.292 111.173 139.292 111.173L139.094 110.91L138.969 110.763L139.367 110.397C139.682 110.052 140.028 109.477 140.103 108.702C140.21 107.517 139.616 106.195 138.29 104.787C136.493 102.917 134.798 102.535 133.574 102.616C132.265 102.717 131.479 103.312 131.448 103.364L131.082 102.965L137.698 96.6529L138.024 96.3489L138.389 96.7489L138.316 96.8109L137.666 97.4179L137.089 97.9609L136.365 98.6299L135.789 99.1729L135.065 99.8419L134.489 100.386L133.765 101.054L132.58 102.194C133.994 101.799 136.265 101.816 138.667 104.338C140.109 105.851 140.776 107.288 140.627 108.661C140.626 108.839 140.584 109.028 140.531 109.174L141.36 108.39L142.115 107.669L142.618 107.189L143.373 106.467L143.876 105.987L144.631 105.266L145.135 104.785L145.921 104.011L147.106 102.872L147.683 102.329L148.941 101.127L149.518 100.583L150.734 99.3919L150.986 99.1509L151.539 99.5929Z" fill="#5932C4"/>
<path d="M155.506 78.0869L155.265 78.5469C155.265 78.5469 155.16 78.4839 154.972 78.4419C153.884 77.9989 149.648 76.8659 142.836 81.1339C142.417 81.4159 141.956 81.7079 141.537 81.9899C140.133 82.9609 138.654 84.1729 137.05 85.5939C138.474 85.4189 141.226 85.5839 144.214 88.6729C144.266 88.7049 144.276 88.7469 144.329 88.7789L143.93 89.1439C143.878 89.1129 143.868 89.0709 143.815 89.0389C139.825 84.9509 136.243 86.2829 136.212 86.3359L134.955 86.8249L135.961 85.8629C147.464 74.8679 154.377 77.4759 155.391 77.9819C155.454 78.0549 155.506 78.0869 155.506 78.0869Z" fill="#5932C4"/>
<path d="M150.011 83.5429C146.836 80.2329 141.547 82.0319 141.505 82.0419L141.339 81.5489C141.58 81.4449 147.005 79.6569 150.42 83.2189L150.011 83.5429Z" fill="#5932C4"/>
<path d="M148.409 100.056C143.375 94.8018 139.661 93.8068 139.609 93.7748L139.746 93.2518C139.893 93.3048 143.648 94.2888 148.808 99.6898L148.409 100.056Z" fill="#5932C4"/>
<path d="M141.83 108.853L141.433 108.506C141.433 108.506 142.681 106.906 139.444 103.522C136.195 100.097 133.922 101.149 133.838 101.17L133.588 100.698C133.703 100.625 136.249 99.4159 139.842 103.157C143.445 106.939 141.903 108.79 141.83 108.853Z" fill="#5932C4"/>
<path d="M143.13 107.641L142.733 107.294C142.733 107.294 143.982 105.693 140.744 102.31C137.495 98.8839 135.222 99.9369 135.138 99.9579L134.888 99.4849C135.003 99.4119 137.549 98.2029 141.142 101.944C144.735 105.685 143.203 107.578 143.13 107.641Z" fill="#5932C4"/>
<path d="M144.43 106.429L144.033 106.082C144.033 106.082 145.282 104.481 142.044 101.098C138.795 97.6718 136.522 98.7248 136.438 98.7458L136.188 98.2728C136.303 98.1998 138.849 96.9908 142.442 100.732C145.993 104.483 144.451 106.334 144.43 106.429Z" fill="#5932C4"/>
<path d="M145.678 105.185L145.281 104.838C145.281 104.838 146.634 103.122 143.344 99.8859C139.98 96.5329 137.791 97.5649 137.749 97.5749L137.499 97.1029C137.614 97.0299 140.044 95.8939 143.7 99.5299C147.398 103.156 145.751 105.122 145.678 105.185Z" fill="#5932C4"/>
<path d="M147.796 103.146L147.273 103.009C147.495 102.108 147.119 101.31 147.119 101.31L147.601 101.102C147.601 101.102 148.06 102.057 147.796 103.146Z" fill="#5932C4"/>
<path d="M149.631 101.401L149.108 101.263C149.33 100.363 148.955 99.5649 148.955 99.5649L149.436 99.3569C149.436 99.3569 149.895 100.312 149.631 101.401Z" fill="#5932C4"/>
<path d="M181.947 97.6309L181.916 97.6839L177.816 101.592L177.386 102.011L172.647 106.567L172.248 106.933L166.596 112.295L166.198 112.66L158.187 120.342L158.377 119.494C158.377 119.494 158.461 119.117 158.316 118.351C158.275 118.183 158.223 117.974 158.171 117.764C157.828 116.379 156.87 114.124 154.448 110.983C154.114 110.532 153.717 110.007 153.289 109.534L153.111 109.355L153.835 108.686L154.265 108.268L155.659 106.899L156.089 106.481L156.446 106.125C156.457 105.989 156.415 105.643 156.144 105.087C156.061 104.93 155.978 104.772 155.894 104.615C155.529 104.037 154.997 103.323 154.14 102.378L154.539 102.012C157.306 104.933 157.042 106.2 157.032 106.337L157 106.389L156.025 107.298L155.627 107.664L153.907 109.336C158.157 114.473 158.883 117.588 158.933 118.866L161.303 116.588L161.733 116.17L181.477 97.3469C181.551 97.1059 182.321 94.1109 172.659 83.9919L172.869 83.7619L173.016 83.6359C173.141 83.7829 173.256 83.8889 173.381 84.0359C174.227 84.9389 174.969 85.7799 175.647 86.5469C175.773 86.6939 175.888 86.7989 176.013 86.9459C176.692 87.7129 177.276 88.4589 177.84 89.1199C177.966 89.2669 178.049 89.4249 178.164 89.5299C178.811 90.3489 179.354 91.1049 179.782 91.7559C179.865 91.9139 179.991 92.0609 180.074 92.2179C180.366 92.6799 180.648 93.0999 180.836 93.4989C180.919 93.6559 181.002 93.8139 181.086 93.9709C182.473 96.5219 182.042 97.4739 181.947 97.6309Z" fill="#5932C4"/>
<path d="M187.493 87.8889L187.241 88.1289L186.161 89.1529L185.762 89.5189L181.128 93.9609L180.981 94.0859L180.615 93.6869L180.867 93.4469L187.054 87.5519L187.127 87.4889L187.493 87.8889Z" fill="#5932C4"/>
<path d="M146.33 114.462L145.9 114.88C146.067 114.838 146.245 114.839 146.413 114.797C147.156 114.747 147.972 114.99 148.756 115.464L148.808 115.495C148.861 115.527 148.902 115.517 148.913 115.559C149.017 115.622 149.122 115.685 149.226 115.748C149.279 115.78 149.331 115.811 149.341 115.853C149.77 116.148 150.177 116.537 150.595 116.968C152.402 118.88 152.786 120.61 152.72 121.962C152.731 122.004 152.731 122.004 152.699 122.056C152.667 122.465 152.583 122.842 152.477 123.135L153.662 121.996L154.386 121.327L154.962 120.784L155.686 120.115L156.263 119.572L156.986 118.903L157.563 118.359L158.213 117.753L158.286 117.691L158.652 118.09L158.327 118.393L151.71 124.705L151.313 124.358C151.345 124.306 151.964 123.574 152.154 122.369C152.335 121.123 152.087 119.403 150.217 117.417C149.674 116.839 149.173 116.429 148.65 116.113C148.545 116.05 148.441 115.987 148.336 115.924C147.667 115.555 147.05 115.396 146.433 115.416C145.773 115.445 145.26 115.706 144.872 115.935C144.83 115.946 144.757 116.009 144.725 116.061L144.337 116.469L144.285 116.437L144.118 116.3L143.94 116.122C143.982 116.111 144.108 115.902 144.412 115.693L144.485 115.631L145.492 114.669L145.786 114.418L145.901 114.345L146.226 114.042L146.331 113.927L147.306 113.018L147.736 112.6L148.711 111.691L149.141 111.273L150.116 110.363L150.546 109.945L151.521 109.036L151.951 108.618L152.926 107.709L153.356 107.291L154.331 106.382L154.761 105.963L155.946 104.824L156.166 104.636L156.532 105.035L156.249 105.328L155.064 106.467L154.487 107.011L153.229 108.213L152.652 108.756L151.467 109.895L150.681 110.669L150.135 111.16L149.38 111.881L148.877 112.362L148.08 113.093L147.577 113.574L146.822 114.295L146.33 114.462Z" fill="#5932C4"/>
<path d="M169.019 120.644L168.054 121.595L168.59 120.349C168.643 120.202 170.104 116.769 166.23 112.608C166.177 112.576 166.167 112.534 166.115 112.503L166.513 112.137C166.565 112.168 166.576 112.21 166.628 112.242C169.542 115.394 169.599 118.14 169.377 119.575C170.908 118.039 172.156 116.617 173.195 115.247C173.531 114.807 173.824 114.378 174.129 113.992C178.673 107.39 177.792 103.112 177.418 101.958C177.366 101.748 177.303 101.675 177.303 101.675L177.774 101.424C177.774 101.424 177.795 101.508 177.848 101.54C178.264 102.683 180.49 109.701 169.019 120.644Z" fill="#5932C4"/>
<path d="M173.655 115.489L173.163 115.299C173.195 115.247 175.193 110.033 172.06 106.712L172.458 106.347C175.832 109.919 173.77 115.238 173.655 115.489Z" fill="#5932C4"/>
<path d="M161.858 116.495L161.345 116.578C161.334 116.536 160.536 112.771 155.491 107.475L155.889 107.109C161.007 112.521 161.816 116.327 161.858 116.495Z" fill="#5932C4"/>
<path d="M154.133 122.281L153.673 122.038L153.882 122.165L153.673 122.038C153.736 121.934 154.881 119.736 151.591 116.321C148.353 112.937 146.728 114.096 146.686 114.106L146.363 113.697C146.436 113.634 148.386 112.172 151.947 115.965C155.53 119.664 154.196 122.176 154.133 122.281Z" fill="#5932C4"/>
<path d="M155.433 121.068L154.973 120.826L155.182 120.952L154.973 120.826C155.036 120.721 156.181 118.523 152.891 115.108C149.653 111.725 148.029 112.884 147.987 112.894L147.663 112.484C147.736 112.422 149.686 110.96 153.247 114.753C156.83 118.452 155.496 120.964 155.433 121.068Z" fill="#5932C4"/>
<path d="M156.723 119.814L156.263 119.571C156.326 119.467 157.471 117.269 154.18 113.854C150.943 110.47 149.318 111.629 149.276 111.64L148.953 111.23C149.026 111.167 150.975 109.705 154.537 113.498C158.12 117.197 156.786 119.709 156.723 119.814Z" fill="#5932C4"/>
<path d="M157.97 118.57L157.51 118.328L157.719 118.454L157.469 118.338C157.469 118.338 158.572 116.151 155.428 112.61C152.295 109.112 150.576 110.428 150.576 110.428L150.253 110.018C150.326 109.955 152.38 108.378 155.827 112.244C159.263 116.069 158.033 118.466 157.97 118.57Z" fill="#5932C4"/>
<path d="M154.201 108.729C154.201 108.729 153.385 108.307 152.495 108.483L152.413 107.969C153.512 107.742 154.432 108.226 154.484 108.258L154.201 108.729Z" fill="#5932C4"/>
<path d="M156.036 106.984C156.036 106.984 155.22 106.562 154.33 106.738L154.248 106.224C155.347 105.996 156.267 106.481 156.319 106.513L156.036 106.984Z" fill="#5932C4"/>
<path d="M216.026 59.3214C211.609 49.0173 199.492 41.91 199.336 41.8152L199.63 41.3864C199.734 41.4496 212.06 48.6831 216.508 59.1131L216.026 59.3214Z" fill="#5932C4"/>
<path d="M221.077 50.9923C217.597 42.8603 208.021 37.2167 207.916 37.1536L208.2 36.6827C208.304 36.7458 218.027 42.4422 221.6 50.7736L221.077 50.9923Z" fill="#5932C4"/>
<path d="M224.503 43.8221L224.021 44.0304C224 43.9465 223.948 43.9149 223.927 43.831C221.718 38.8572 216.22 35.3208 215.164 34.6472C215.059 34.584 215.007 34.5524 215.007 34.5524L215.29 34.0815C215.343 34.1131 215.552 34.2395 215.918 34.4605C217.517 35.5339 221.938 38.6691 224.127 43.0245C224.242 43.3078 224.388 43.5388 224.503 43.8221Z" fill="#5932C4"/>
<path d="M171.943 70.3228L165.253 76.6979L165.618 77.0969L172.308 70.7221L171.943 70.3228Z" fill="#5932C4"/>
<path d="M174.671 72.1851L167.771 78.7909L168.137 79.1899L175.036 72.5844L174.671 72.1851Z" fill="#5932C4"/>
<path d="M177.157 74.5079L170.257 81.1139L170.623 81.5129L177.523 74.9069L177.157 74.5079Z" fill="#5932C4"/>
<path d="M186.367 85.4958L179.677 91.8708L180.042 92.2699L186.732 85.8949L186.367 85.4958Z" fill="#5932C4"/>
<path d="M184.635 82.6299L177.735 89.2359L178.101 89.6349L185.001 83.0299L184.635 82.6299Z" fill="#5932C4"/>
<path d="M182.442 80.0559L175.543 86.6619L175.908 87.0609L182.808 80.4559L182.442 80.0559Z" fill="#5932C4"/>
<path d="M179.821 77.1879L172.921 83.7929L173.287 84.1919L180.186 77.5869L179.821 77.1879Z" fill="#5932C4"/>
<path d="M198.877 46.0693C199.296 45.9656 199.548 45.5471 199.444 45.1276C199.341 44.7081 198.922 44.4554 198.504 44.5591C198.085 44.6627 197.833 45.0813 197.937 45.5008C198.04 45.9203 198.459 46.173 198.877 46.0693Z" fill="#5932C4"/>
<path d="M204.143 50.6426C204.562 50.5389 204.814 50.1203 204.71 49.7008C204.606 49.2813 204.188 49.0286 203.769 49.1323C203.351 49.236 203.099 49.6545 203.202 50.0741C203.306 50.4936 203.766 50.7359 204.143 50.6426Z" fill="#5932C4"/>
<path d="M172.837 68.0088C173.256 67.9051 173.508 67.4865 173.404 67.067C173.3 66.6475 172.882 66.3948 172.463 66.4985C172.044 66.6022 171.792 67.0207 171.896 67.4403C172.042 67.8494 172.418 68.1124 172.837 68.0088Z" fill="#5932C4"/>
<path d="M177.791 71.5018C178.21 71.3981 178.462 70.9796 178.358 70.5601C178.254 70.1406 177.836 69.8879 177.417 69.9916C176.998 70.0953 176.746 70.5138 176.85 70.9333C176.996 71.3425 177.414 71.5951 177.791 71.5018Z" fill="#5932C4"/>
<path d="M189.11 85.0839C189.529 84.9809 189.781 84.5619 189.677 84.1429C189.573 83.7229 189.155 83.4699 188.736 83.5739C188.317 83.6779 188.065 84.0959 188.169 84.5159C188.273 84.9349 188.691 85.1879 189.11 85.0839Z" fill="#5932C4"/>
<path d="M182.241 76.0099C182.659 75.9059 182.911 75.4879 182.808 75.0679C182.704 74.6489 182.286 74.3959 181.867 74.4999C181.448 74.6039 181.196 75.0219 181.3 75.4419C181.404 75.8609 181.822 76.1139 182.241 76.0099Z" fill="#5932C4"/>
<path d="M161.795 78.5329C162.214 78.4299 162.466 78.0109 162.362 77.5919C162.259 77.1719 161.84 76.9189 161.422 77.0229C161.003 77.1269 160.751 77.5449 160.855 77.9649C160.969 78.4259 161.377 78.6369 161.795 78.5329Z" fill="#5932C4"/>
<path d="M166.76 82.0679C167.179 81.9649 167.431 81.5459 167.327 81.1259C167.223 80.7069 166.805 80.4539 166.386 80.5579C165.967 80.6619 165.715 81.0799 165.819 81.4999C165.923 81.9189 166.341 82.1719 166.76 82.0679Z" fill="#5932C4"/>
<path d="M179.165 96.8059C179.584 96.7019 179.836 96.2839 179.732 95.8639C179.628 95.4449 179.21 95.1919 178.791 95.2959C178.372 95.3989 178.12 95.8179 178.224 96.2369C178.328 96.6569 178.746 96.9099 179.165 96.8059Z" fill="#5932C4"/>
<path d="M107.338 111.736C107.641 112.062 107.619 112.513 107.294 112.816C106.969 113.119 106.519 113.097 106.216 112.771C105.914 112.445 105.935 111.995 106.26 111.692C106.596 111.43 107.088 111.442 107.338 111.736Z" fill="#5932C4"/>
<path d="M106.214 73.297C105.922 73.013 105.933 72.5209 106.258 72.2179C106.583 71.9148 107.033 71.937 107.336 72.2627C107.639 72.5884 107.617 73.039 107.292 73.342C107.009 73.635 106.517 73.623 106.214 73.297Z" fill="#5932C4"/>
<path d="M159.329 55.2354C159.632 55.5612 159.611 56.0118 159.285 56.3148C158.96 56.6179 158.51 56.5957 158.208 56.27C157.915 55.9862 157.926 55.4937 158.252 55.1906C158.545 54.9399 159.037 54.9517 159.329 55.2354Z" fill="#5932C4"/>
<path d="M168.336 29.2625C168.639 29.5882 168.617 30.0388 168.292 30.3419C167.967 30.645 167.517 30.6228 167.214 30.2971C166.911 29.9713 166.933 29.5207 167.258 29.2176C167.583 28.9146 168.033 28.9368 168.336 29.2625Z" fill="#5932C4"/>
<path d="M189.843 116.78C190.136 117.064 190.125 117.556 189.799 117.859C189.474 118.162 189.024 118.14 188.722 117.815C188.419 117.489 188.44 117.038 188.766 116.735C189.091 116.432 189.582 116.444 189.843 116.78Z" fill="#5932C4"/>
<path d="M220.336 114.263C220.629 114.546 220.617 115.039 220.292 115.342C219.967 115.645 219.517 115.623 219.214 115.297C218.911 114.972 218.933 114.521 219.258 114.218C219.583 113.915 220.075 113.927 220.336 114.263Z" fill="#5932C4"/>
<path d="M215.336 90.2628C215.629 90.5458 215.617 91.0388 215.292 91.3418C214.967 91.6448 214.517 91.6228 214.214 91.2968C213.911 90.9718 213.933 90.5208 214.258 90.2178C214.583 89.9148 215.075 89.9268 215.336 90.2628Z" fill="#5932C4"/>
<path d="M245.336 49.2628C245.629 49.5466 245.617 50.0392 245.292 50.3422C244.967 50.6453 244.517 50.6231 244.214 50.2974C243.911 49.9717 243.933 49.5211 244.258 49.218C244.583 48.9149 245.075 48.9267 245.336 49.2628Z" fill="#5932C4"/>
<path d="M252.336 124.263C252.629 124.546 252.617 125.039 252.292 125.342C251.967 125.645 251.517 125.623 251.214 125.297C250.911 124.972 250.933 124.521 251.258 124.218C251.583 123.915 252.075 123.927 252.336 124.263Z" fill="#5932C4"/>
<path d="M220.336 183.263C220.629 183.546 220.617 184.039 220.292 184.342C219.967 184.645 219.517 184.623 219.214 184.297C218.911 183.972 218.933 183.521 219.258 183.218C219.583 182.915 220.075 182.927 220.336 183.263Z" fill="#5932C4"/>
<path d="M174.336 232.263C174.629 232.547 174.617 233.039 174.292 233.342C173.967 233.645 173.517 233.623 173.214 233.297C172.911 232.972 172.933 232.521 173.258 232.218C173.583 231.915 174.075 231.927 174.336 232.263Z" fill="#5932C4"/>
<path d="M72.3359 29.2628C72.6289 29.5466 72.6169 30.0392 72.2919 30.3422C71.9669 30.6453 71.5169 30.6231 71.2139 30.2974C70.9109 29.9717 70.9329 29.5211 71.2579 29.218C71.5829 28.9149 72.0749 28.9267 72.3359 29.2628Z" fill="#5932C4"/>
<path d="M117.336 37.2626C117.629 37.5463 117.617 38.0389 117.292 38.342C116.967 38.645 116.517 38.6229 116.214 38.2972C115.911 37.9714 115.933 37.5208 116.258 37.2177C116.583 36.9147 117.075 36.9265 117.336 37.2626Z" fill="#5932C4"/>
<path d="M28.336 94.2628C28.6285 94.5468 28.6171 95.0388 28.292 95.3418C27.967 95.6448 27.517 95.6228 27.2141 95.2968C26.9112 94.9718 26.9331 94.5208 27.2581 94.2178C27.5831 93.9148 28.075 93.9268 28.336 94.2628Z" fill="#5932C4"/>
<path d="M2.33597 160.263C2.62847 160.546 2.61707 161.039 2.29207 161.342C1.96697 161.645 1.51697 161.623 1.21407 161.297C0.91127 160.972 0.933073 160.521 1.25807 160.218C1.58317 159.915 2.07497 159.927 2.33597 160.263Z" fill="#5932C4"/>
<path d="M50.336 162.263C50.6285 162.546 50.6171 163.039 50.2921 163.342C49.967 163.645 49.517 163.623 49.2141 163.297C48.9113 162.972 48.9331 162.521 49.2581 162.218C49.5831 161.915 50.075 161.927 50.336 162.263Z" fill="#5932C4"/>
<path d="M1.33597 219.263C1.62847 219.546 1.61707 220.039 1.29207 220.342C0.966973 220.645 0.51697 220.623 0.21407 220.297C-0.08873 219.972 -0.0669275 219.521 0.258073 219.218C0.583073 218.915 1.07497 218.927 1.33597 219.263Z" fill="#5932C4"/>
<path d="M90.3359 200.263C90.6289 200.546 90.6169 201.039 90.2919 201.342C89.9669 201.645 89.5169 201.623 89.2139 201.297C88.9109 200.972 88.9329 200.521 89.2579 200.218C89.5829 199.915 90.0749 199.927 90.3359 200.263Z" fill="#5932C4"/>
<path d="M110.336 239.263C110.629 239.546 110.617 240.039 110.292 240.342C109.967 240.645 109.517 240.623 109.214 240.297C108.911 239.972 108.933 239.521 109.258 239.218C109.583 238.915 110.075 238.927 110.336 239.263Z" fill="#5932C4"/>
<path d="M151.336 0.262585C151.629 0.546285 151.617 1.03888 151.292 1.34198C150.967 1.64498 150.517 1.62288 150.214 1.29718C149.911 0.971384 149.933 0.520784 150.258 0.217684C150.583 -0.0853162 151.075 -0.0735153 151.336 0.262585Z" fill="#5932C4"/>
<path d="M158.336 155.263C158.629 155.546 158.617 156.039 158.292 156.342C157.967 156.645 157.517 156.623 157.214 156.297C156.911 155.972 156.933 155.521 157.258 155.218C157.583 154.915 158.075 154.927 158.336 155.263Z" fill="#FFCC00"/>
<path d="M185.336 120.263C185.629 120.546 185.617 121.039 185.292 121.342C184.967 121.645 184.517 121.623 184.214 121.297C183.911 120.972 183.933 120.521 184.258 120.218C184.583 119.915 185.075 119.927 185.336 120.263Z" fill="#FFCC00"/>
<path d="M165.336 189.263C165.629 189.546 165.617 190.039 165.292 190.342C164.967 190.645 164.517 190.623 164.214 190.297C163.911 189.972 163.933 189.521 164.258 189.218C164.583 188.915 165.075 188.927 165.336 189.263Z" fill="#FFCC00"/>
<path d="M181.336 162.263C181.629 162.546 181.617 163.039 181.292 163.342C180.967 163.645 180.517 163.623 180.214 163.297C179.911 162.972 179.933 162.521 180.258 162.218C180.583 161.915 181.075 161.927 181.336 162.263Z" fill="#FFCC00"/>
<path d="M113.336 97.2628C113.629 97.5458 113.617 98.0388 113.292 98.3418C112.967 98.6448 112.517 98.6228 112.214 98.2968C111.911 97.9718 111.933 97.5208 112.258 97.2178C112.583 96.9148 113.075 96.9268 113.336 97.2628Z" fill="#FFCC00"/>
<path d="M183.336 141.263C183.629 141.546 183.617 142.039 183.292 142.342C182.967 142.645 182.517 142.623 182.214 142.297C181.911 141.972 181.933 141.521 182.258 141.218C182.583 140.915 183.075 140.927 183.336 141.263Z" fill="#FFCC00"/>
<path d="M211.336 142.263C211.629 142.546 211.617 143.039 211.292 143.342C210.967 143.645 210.517 143.623 210.214 143.297C209.911 142.972 209.933 142.521 210.258 142.218C210.583 141.915 211.075 141.927 211.336 142.263Z" fill="#FFCC00"/>
<path d="M174.803 90.4959C175.221 90.3919 175.473 89.9729 175.37 89.5539C175.266 89.1339 174.848 88.8819 174.429 88.9849C174.01 89.0889 173.758 89.5079 173.862 89.9269C173.966 90.3469 174.384 90.5989 174.803 90.4959Z" fill="#5932C4"/>
<path d="M171.168 86.5869C171.587 86.4829 171.839 86.0649 171.735 85.6449C171.631 85.2259 171.213 84.9729 170.794 85.0769C170.375 85.1799 170.123 85.5989 170.227 86.0179C170.373 86.4279 170.791 86.6799 171.168 86.5869Z" fill="#5932C4"/>
<path d="M213.124 61.0638C213.543 60.9602 213.795 60.5416 213.691 60.1221C213.587 59.7026 213.169 59.4499 212.75 59.5536C212.331 59.6573 212.079 60.0758 212.183 60.4953C212.329 60.9045 212.705 61.1675 213.124 61.0638Z" fill="#5932C4"/>
<path d="M209.126 55.865C209.544 55.7613 209.796 55.3427 209.693 54.9232C209.589 54.5037 209.171 54.251 208.752 54.3547C208.333 54.4584 208.081 54.877 208.185 55.2965C208.33 55.7056 208.749 55.9583 209.126 55.865Z" fill="#5932C4"/>
<path d="M165.963 88.187C164.644 88.246 163.439 88.9449 162.746 90.0959L155.86 100.883L167.051 93.839C167.921 93.223 168.561 92.219 168.699 91.16L169.135 88.0699L165.963 88.187ZM168.187 91.0649C168.059 91.9869 167.514 92.8339 166.759 93.3769L157.6 99.117L163.206 90.339C163.679 89.554 164.433 89.0109 165.313 88.7929C165.522 88.7409 165.784 88.7209 166.004 88.7109L168.558 88.6129L168.187 91.0649Z" fill="#5932C4"/>
<path d="M139.951 106.112C139.93 106.029 139.868 105.955 139.816 105.923L139.753 105.85C138.386 103.918 136.399 102.718 133.983 102.292L133.794 102.249L133.7 102.406C133.668 102.459 133.605 102.563 133.584 102.658C133.342 103.118 133.247 103.631 133.246 104.166C132.241 104.237 131.278 104.653 130.565 105.364C129.589 106.273 129.116 107.592 129.228 108.945C128.768 109.059 128.348 109.341 127.982 109.654C127.373 110.25 127.027 111.004 127.004 111.811C126.982 112.618 127.315 113.425 127.858 114.003C128.641 114.833 129.782 115.13 130.829 114.871C131.331 114.746 131.803 114.496 132.201 114.13C132.526 113.827 132.747 113.461 132.905 113.021C134.244 113.224 135.647 112.788 136.664 111.868C136.978 111.879 137.282 111.849 137.617 111.766C138.161 111.631 138.675 111.37 139.105 110.952C139.146 110.942 139.178 110.89 139.22 110.879C140.677 109.584 140.964 107.509 139.951 106.112ZM136.623 111.344L136.529 111.323L136.456 111.385C136.414 111.396 136.424 111.438 136.382 111.448C135.449 112.347 134.161 112.71 132.853 112.455L132.623 112.423L132.549 112.664C132.433 113.093 132.213 113.46 131.888 113.763C130.881 114.724 129.228 114.688 128.267 113.68C127.786 113.175 127.536 112.525 127.548 111.854C127.56 111.183 127.844 110.534 128.347 110.053C128.672 109.75 129.06 109.521 129.479 109.417L129.521 109.407L129.772 109.345L129.71 109.093C129.534 107.845 129.987 106.62 130.878 105.732C131.559 105.073 132.481 104.667 133.497 104.638L133.758 104.618L133.738 104.356C133.697 103.832 133.782 103.276 134.023 102.816C136.168 103.22 137.956 104.336 139.177 106.037C139.198 106.121 139.208 106.163 139.26 106.194L139.333 106.31C140.357 107.57 139.84 109.435 138.76 110.459C138.298 111.107 137.481 111.399 136.623 111.344Z" fill="#5932C4"/>
<path d="M128.168 115.796C127.991 115.618 127.74 115.502 127.468 115.48C127.196 115.458 126.955 115.562 126.735 115.75C126.336 116.116 126.314 116.745 126.68 117.144C126.857 117.323 127.108 117.439 127.38 117.461C127.474 117.482 127.558 117.461 127.642 117.44C127.81 117.399 127.967 117.315 128.072 117.2C128.25 117.023 128.365 116.771 128.387 116.499C128.45 116.216 128.346 115.975 128.168 115.796ZM127.937 116.477C127.926 116.613 127.863 116.718 127.8 116.822C127.727 116.885 127.612 116.958 127.475 116.947C127.339 116.936 127.235 116.873 127.13 116.81C127.068 116.737 126.995 116.621 127.005 116.485C127.016 116.349 127.037 116.254 127.142 116.139C127.174 116.087 127.257 116.066 127.341 116.046C127.383 116.035 127.425 116.025 127.467 116.014C127.603 116.025 127.697 116.046 127.77 116.162C127.885 116.267 127.906 116.351 127.937 116.477Z" fill="#5932C4"/>
<path d="M149.446 115.916L149.394 115.885C149.394 115.885 149.394 115.885 149.383 115.843C149.331 115.811 149.279 115.78 149.268 115.738C149.268 115.738 149.268 115.738 149.226 115.748C149.164 115.675 149.059 115.611 148.955 115.548C148.902 115.517 148.892 115.475 148.85 115.485L148.798 115.453C148.076 115.053 147.166 114.967 146.328 115.174C145.868 115.288 145.428 115.486 145.008 115.768C144.82 115.904 144.631 116.04 144.495 116.207C144.463 116.259 144.38 116.28 144.348 116.332C144.096 116.573 143.865 116.897 143.729 117.243C143.529 117.693 143.382 118.174 143.381 118.709C142.374 119.67 141.911 121.032 142.023 122.384C141.573 122.54 141.227 122.759 140.902 123.062C140.294 123.658 139.947 124.412 139.966 125.208C139.944 126.015 140.235 126.834 140.82 127.401C141.416 128.011 142.158 128.317 142.964 128.34C143.236 128.361 143.54 128.331 143.791 128.269C144.294 128.144 144.765 127.894 145.153 127.486C145.52 127.173 145.772 126.754 145.93 126.314C147.259 126.475 148.578 126.06 149.543 125.108C150.267 124.44 150.739 123.477 150.888 122.46C151.338 122.483 151.809 122.41 152.259 122.254C152.385 122.223 152.542 122.14 152.668 122.109L152.825 122.025L152.867 122.015L152.846 121.931L152.825 121.847C152.411 119.456 151.285 117.42 149.446 115.916ZM150.627 121.946L150.355 121.924L150.334 122.197C150.269 123.192 149.828 124.103 149.146 124.761C148.244 125.608 147.009 126.003 145.753 125.779L145.523 125.747L145.449 125.988C145.302 126.47 145.081 126.836 144.756 127.139C143.749 128.101 142.096 128.065 141.135 127.056C140.655 126.552 140.405 125.901 140.416 125.23C140.428 124.56 140.712 123.911 141.215 123.43C141.54 123.127 141.897 122.95 142.357 122.836L142.609 122.773L142.588 122.511C142.402 121.222 142.834 119.913 143.778 119.056L143.924 118.93L143.935 118.794C143.947 117.945 144.242 117.16 144.85 116.564C145.741 115.676 147.239 115.261 148.441 115.809C148.546 115.872 148.65 115.935 148.755 115.998C148.859 116.062 148.922 116.135 149.027 116.198L149.089 116.272C149.142 116.303 149.194 116.335 149.246 116.367C150.908 117.692 151.94 119.529 152.208 121.688C151.695 121.949 151.13 122 150.627 121.946Z" fill="#5932C4"/>
<path d="M146.184 113.874C145.748 112.469 144.955 111.24 143.784 110.283L143.732 110.252C143.68 110.22 143.669 110.178 143.575 110.157C142.959 109.642 142.153 109.441 141.441 109.617C141.399 109.627 141.357 109.638 141.315 109.648C141.232 109.669 141.106 109.7 141.033 109.763C140.708 109.887 140.436 110.044 140.184 110.284C139.974 110.514 139.775 110.786 139.669 111.079C139.564 111.373 139.501 111.655 139.542 112.001C138.944 112.639 138.67 113.508 138.815 114.452C138.522 114.525 138.333 114.66 138.113 114.848C137.285 115.632 137.366 117.037 138.274 118.014C138.932 118.697 139.843 118.961 140.596 118.775C140.89 118.702 141.204 118.535 141.414 118.305C141.634 118.117 141.791 117.856 141.897 117.563C142.545 117.669 143.194 117.598 143.708 117.337C143.949 117.233 144.137 117.097 144.316 116.919C144.609 116.669 144.798 116.355 144.935 116.009C144.924 115.967 144.966 115.957 144.956 115.915C145.04 115.716 145.114 115.475 145.093 115.213C145.501 115.246 145.889 115.194 146.245 115.017L146.444 114.923L146.392 114.713C146.382 114.671 146.371 114.63 146.351 114.546C146.33 114.462 146.319 114.42 146.299 114.336C146.247 114.126 146.216 114 146.184 113.874ZM145.461 114.543C145.283 114.543 145.063 114.553 144.875 114.51L144.551 114.457L144.55 114.813C144.57 115.075 144.497 115.316 144.423 115.557C144.349 115.798 144.234 116.049 144.097 116.216C144.024 116.279 143.961 116.384 143.887 116.446C143.353 116.98 142.546 117.135 141.699 116.944L141.417 116.88L141.353 117.163C141.29 117.446 141.174 117.697 140.996 117.875C140.388 118.47 139.289 118.342 138.61 117.575C137.89 116.818 137.85 115.759 138.458 115.164C138.594 114.996 138.793 114.903 139.045 114.84C139.087 114.83 139.128 114.82 139.128 114.82L139.422 114.747L139.359 114.495C139.141 113.614 139.373 112.756 139.918 112.264L139.772 112.033L139.95 112.212L140.065 112.139L140.034 112.013C139.983 111.447 140.172 110.955 140.529 110.6C141.063 110.067 142.037 109.87 142.853 110.291C142.905 110.323 142.999 110.344 143.062 110.418C143.114 110.449 143.219 110.513 143.281 110.586L143.344 110.66C143.354 110.702 143.396 110.691 143.396 110.691L143.407 110.733L143.448 110.723C144.577 111.69 145.36 112.876 145.713 114.303L145.765 114.513C145.723 114.523 145.597 114.554 145.461 114.543Z" fill="#5932C4"/>
<path d="M140.785 129.413C140.607 129.234 140.356 129.118 140.084 129.097C140.001 129.118 139.906 129.096 139.823 129.117C139.655 129.159 139.498 129.242 139.393 129.357C138.995 129.723 138.972 130.351 139.338 130.751C139.516 130.929 139.767 131.045 140.039 131.067C140.122 131.046 140.217 131.068 140.3 131.047C140.468 131.005 140.625 130.922 140.73 130.807C140.908 130.629 141.024 130.378 141.045 130.106C141.067 129.833 140.962 129.592 140.785 129.413ZM140.511 130.104C140.501 130.24 140.438 130.345 140.364 130.408C140.291 130.47 140.176 130.543 140.04 130.533C139.904 130.522 139.799 130.459 139.695 130.395C139.632 130.322 139.559 130.206 139.57 130.07C139.58 129.934 139.601 129.84 139.717 129.767C139.832 129.694 139.905 129.631 140.041 129.642C140.177 129.653 140.272 129.674 140.345 129.789C140.491 129.842 140.522 129.968 140.511 130.104Z" fill="#5932C4"/>
<path d="M139.713 120.952C139.535 120.774 139.285 120.658 139.012 120.636C138.751 120.656 138.499 120.719 138.279 120.907C138.101 121.084 137.985 121.336 137.964 121.608C137.942 121.88 138.047 122.122 138.224 122.3C138.402 122.479 138.653 122.595 138.925 122.617C139.009 122.596 139.103 122.617 139.187 122.597C139.354 122.555 139.511 122.472 139.616 122.357C139.794 122.179 139.91 121.928 139.931 121.655C140.005 121.414 139.891 121.131 139.713 120.952ZM139.481 121.633C139.471 121.769 139.45 121.864 139.334 121.937C139.261 121.999 139.146 122.072 139.01 122.062C138.874 122.051 138.769 121.988 138.665 121.924C138.602 121.851 138.529 121.735 138.54 121.599C138.55 121.463 138.613 121.358 138.687 121.296C138.76 121.233 138.802 121.223 138.886 121.202C138.928 121.191 138.97 121.181 139.011 121.171C139.147 121.182 139.242 121.203 139.357 121.308C139.43 121.423 139.461 121.549 139.481 121.633Z" fill="#5932C4"/>
<path d="M135.615 118.583C135.437 118.405 135.186 118.289 134.914 118.267C134.642 118.245 134.401 118.349 134.223 118.527C133.825 118.893 133.802 119.522 134.178 119.963C134.419 120.215 134.795 120.3 135.13 120.217C135.298 120.176 135.455 120.092 135.56 119.977C135.958 119.611 135.98 118.983 135.615 118.583ZM135.205 119.62C135.026 119.797 134.712 119.786 134.535 119.608C134.472 119.534 134.462 119.492 134.441 119.408C134.4 119.24 134.452 119.094 134.557 118.979C134.63 118.916 134.672 118.906 134.756 118.885C134.798 118.875 134.84 118.864 134.882 118.854C135.018 118.865 135.112 118.886 135.185 119.001C135.404 119.17 135.383 119.442 135.205 119.62Z" fill="#5932C4"/>
<path d="M136.052 114.601C135.686 114.202 135.058 114.18 134.66 114.545C134.482 114.723 134.366 114.974 134.345 115.247C134.323 115.519 134.427 115.76 134.605 115.939C134.782 116.118 135.033 116.234 135.305 116.255C135.4 116.277 135.483 116.256 135.567 116.235C135.735 116.194 135.892 116.11 135.997 115.995C136.395 115.63 136.417 115.001 136.052 114.601ZM135.642 115.638C135.568 115.701 135.453 115.774 135.317 115.763C135.181 115.752 135.087 115.731 134.972 115.626C134.909 115.552 134.836 115.437 134.847 115.3C134.858 115.164 134.879 115.07 134.994 114.997C135.067 114.934 135.151 114.913 135.193 114.903C135.36 114.862 135.507 114.914 135.622 115.02C135.831 115.146 135.82 115.46 135.642 115.638Z" fill="#5932C4"/>
<path d="M146.404 114.221L145.891 114.303C145.175 110.696 141.326 109.512 141.274 109.48L141.411 108.956C141.61 109.041 145.605 110.278 146.404 114.221Z" fill="#5932C4"/>
<path d="M147.809 112.894L147.296 112.976C146.58 109.369 142.731 108.185 142.679 108.153L142.816 107.629C143.015 107.714 147.01 108.951 147.809 112.894Z" fill="#5932C4"/>
<path d="M149.203 111.524L148.69 111.607C147.975 107.999 144.126 106.815 144.074 106.784L144.211 106.26C144.42 106.386 148.415 107.623 149.203 111.524Z" fill="#5932C4"/>
<path d="M150.608 110.197L150.095 110.279C149.38 106.672 145.531 105.488 145.478 105.456L145.616 104.933C145.814 105.017 149.81 106.254 150.608 110.197Z" fill="#5932C4"/>
<path d="M152.013 108.87L151.5 108.952C150.785 105.345 146.936 104.161 146.884 104.129L147.021 103.605C147.219 103.69 151.215 104.927 152.013 108.87Z" fill="#5932C4"/>
<path d="M153.418 107.542L152.905 107.625C152.19 104.017 148.341 102.833 148.289 102.802L148.426 102.278C148.625 102.362 152.62 103.599 153.418 107.542Z" fill="#5932C4"/>
<path d="M154.813 106.173L154.3 106.256C153.585 102.648 149.736 101.464 149.683 101.433L149.82 100.909C150.019 100.993 154.015 102.23 154.813 106.173Z" fill="#5932C4"/>
<path d="M203.055 152.132C203.606 154.355 202.241 156.563 200.063 157.102C197.843 157.652 195.595 156.294 195.055 154.112C194.505 151.889 195.87 149.681 198.09 149.131C200.299 148.54 202.505 149.908 203.055 152.132Z" fill="#02E2AC"/>
<path d="M195.014 154.123C195.564 156.346 197.864 157.736 200.084 157.186C201.34 156.875 202.326 156.008 202.851 154.898C202.61 155.003 202.359 155.065 202.108 155.127C199.259 155.832 196.332 154.063 195.626 151.211C195.595 151.085 195.574 151.001 195.543 150.875C194.934 151.827 194.733 152.99 195.014 154.123Z" fill="#02C995"/>
<path d="M198.027 148.88C195.724 149.45 194.306 151.804 194.877 154.112C195.449 156.419 197.801 157.84 200.104 157.27C202.408 156.7 203.826 154.345 203.254 152.038C202.683 149.731 200.331 148.31 198.027 148.88ZM199.99 156.809C197.938 157.317 195.899 156.085 195.39 154.029C194.882 151.974 196.152 149.923 198.162 149.425C200.215 148.917 202.253 150.149 202.762 152.204C203.261 154.218 202.042 156.301 199.99 156.809Z" fill="#5932C4"/>
<path d="M110.44 11.2465C109.578 7.76447 111.688 4.25907 115.165 3.39857C118.641 2.53797 122.143 4.65407 123.005 8.13607C123.856 11.5761 121.756 15.1234 118.28 15.984C114.793 16.8026 111.291 14.6865 110.44 11.2465Z" fill="#6F3FF5"/>
<path d="M111.024 11.9917C112.076 14.6252 114.92 16.0583 117.223 15.8444C119.526 15.6305 121.318 14.2519 122.191 12.3886C121.845 12.786 120.471 14.2391 118.377 14.4012C117.896 14.4313 116.064 14.5731 114.957 13.3334C114.591 12.9341 114.445 12.525 114.394 12.3152C113.706 10.4373 114.861 8.63772 114.506 8.45862C114.14 8.23752 112.87 10.1101 112.117 9.76222C112.012 9.69912 111.897 9.59402 111.73 9.45732C111.73 9.45732 111.375 9.09992 111.209 8.60692C110.969 7.99842 111.065 7.12872 111.579 6.33362C111.38 6.60552 109.889 9.20072 111.024 11.9917Z" fill="#8271FF"/>
<path d="M115.122 3.40858C111.687 4.25878 109.535 7.77448 110.397 11.2565C111.248 14.6965 114.761 16.8545 118.237 15.994C121.713 15.1334 123.824 11.6281 122.962 8.14608C122.1 4.66408 118.598 2.54798 115.122 3.40858ZM118.102 15.4486C114.919 16.2366 111.72 14.268 110.941 11.1217C110.162 7.97528 112.115 4.73148 115.257 3.95398C118.44 3.16598 121.639 5.13448 122.418 8.28088C123.196 11.4272 121.285 14.6607 118.102 15.4486Z" fill="#5932C4"/>
<path d="M258.672 76.3219C260.427 77.8459 261.689 79.8929 262.281 82.2849C263.818 88.4929 260.007 94.8239 253.808 96.3589C251.714 96.8769 249.558 96.7869 247.623 96.1529C243.868 94.9899 240.755 91.9319 239.747 87.8629C238.211 81.6539 242.022 75.3229 248.221 73.7889C251.991 72.8559 255.756 73.8819 258.515 76.2269L258.557 76.2169C258.588 76.1639 258.609 76.2479 258.672 76.3219Z" fill="#FFCC00"/>
<path d="M250.599 94.1699C250.756 94.0859 250.861 93.9709 251.008 93.8459C251.5 93.6799 251.94 93.4819 252.37 93.2419C252.244 93.2729 252.108 93.2619 252.056 93.2299C253.576 91.8299 255.496 89.5289 256.852 86.5669C259.258 81.3859 259.117 78.6599 258.774 77.4539C258.952 77.4539 259.12 77.4129 259.277 77.3289C259.298 77.4129 259.318 77.4969 259.339 77.5809C259.65 79.0179 259.592 81.8369 257.343 86.7569C256.166 89.3639 254.728 91.2779 253.386 92.6789C258.29 89.8619 261.199 84.3779 260.719 78.6639C261.428 79.7349 261.949 80.9419 262.271 82.2429C263.818 88.4929 260.007 94.8239 253.766 96.3689C251.672 96.8869 249.558 96.7869 247.591 96.2049C248.629 95.5479 249.583 94.7329 250.599 94.1699Z" fill="#F4B400"/>
<path d="M258.745 76.2589C258.693 76.2279 258.64 76.1959 258.578 76.1219C255.809 73.7359 252.001 72.7192 248.19 73.6629C241.907 75.2179 238.106 81.5909 239.664 87.8829C240.692 92.0359 243.805 95.0949 247.612 96.2889C249.589 96.9129 251.703 97.0129 253.839 96.4839C260.122 94.9289 263.965 88.5459 262.407 82.2539C261.805 79.8199 260.5 77.7839 258.745 76.2589ZM253.704 95.9389C251.903 96.3849 250.124 96.3799 248.418 95.9559C248.136 95.8929 247.843 95.7869 247.561 95.7229C246.065 95.2479 244.706 94.4259 243.515 93.3859C243.348 93.2489 243.222 93.1019 243.055 92.9649C241.687 91.5679 240.623 89.7829 240.114 87.7269C238.629 81.7279 242.283 75.6589 248.273 74.1769C249.906 73.7719 251.549 73.7659 253.129 74.0429C253.359 74.0749 253.548 74.1169 253.788 74.1909C255.451 74.6259 257.03 75.4369 258.336 76.5829C258.618 76.8249 258.911 77.1079 259.161 77.4029C260.425 78.7369 261.385 80.4589 261.862 82.3879C263.389 88.3769 259.735 94.4459 253.704 95.9389Z" fill="#5932C4"/>
<path d="M243.19 93.5109L243.066 93.0069C243.107 92.9969 248.459 91.4499 251.781 83.8599C255.082 76.3649 253.15 74.1269 253.139 74.0849L253.538 73.7189C253.653 73.8239 255.752 76.1989 252.272 84.0499C248.835 91.8909 243.441 93.4479 243.19 93.5109Z" fill="#5932C4"/>
<path d="M259.203 77.3919C259.514 78.8289 259.467 81.6899 257.176 86.6199C254.307 92.8069 250.22 95.1539 248.46 95.9459C247.979 96.1539 247.643 96.2369 247.602 96.2469L247.477 95.7439C247.477 95.7439 247.519 95.7339 247.603 95.7129C248.461 95.4109 253.447 93.4649 256.684 86.4299C259.68 79.8569 258.722 77.2439 258.336 76.5829C258.263 76.4669 258.211 76.4359 258.211 76.4359L258.578 76.1219L258.62 76.1119C258.62 76.1119 258.682 76.1859 258.745 76.2589C258.87 76.4059 259.058 76.8049 259.203 77.3919Z" fill="#5932C4"/>
<path d="M37.7616 208.398C37.2178 210.659 37.3788 213.058 38.2855 215.349C40.6396 221.296 47.4188 224.237 53.3566 221.886C55.3626 221.092 57.0658 219.767 58.2728 218.127C60.6548 215 61.4128 210.702 59.8698 206.805C57.5158 200.857 50.7366 197.917 44.7989 200.267C41.1881 201.697 38.7185 204.719 37.8343 208.23L37.7941 208.246C37.7381 208.222 37.7699 208.302 37.7616 208.398Z" fill="#FFCC00"/>
<path d="M54.6981 218.241C54.5217 218.264 54.3695 218.231 54.1772 218.215C53.6799 218.365 53.2068 218.459 52.7177 218.513C52.8381 218.466 52.9425 218.378 52.9668 218.322C50.9159 218.065 48.017 217.306 45.1929 215.682C40.2246 212.861 38.7569 210.56 38.3357 209.379C38.1912 209.483 38.0307 209.546 37.8543 209.57C37.8861 209.65 37.9179 209.731 37.9497 209.811C38.5307 211.161 40.2148 213.423 44.903 216.122C47.3751 217.561 49.657 218.284 51.5633 218.645C45.9355 219.199 40.382 216.424 37.4558 211.494C37.4999 212.778 37.7765 214.063 38.2696 215.308C40.6397 221.296 47.4189 224.236 53.3968 221.87C55.4028 221.076 57.0659 219.767 58.3289 218.151C57.1029 218.219 55.8529 218.109 54.6981 218.241Z" fill="#F4B400"/>
<path d="M37.6657 208.39C37.6899 208.334 37.7141 208.277 37.7224 208.181C38.5907 204.63 41.1004 201.592 44.7513 200.147C50.7693 197.764 57.5639 200.745 59.9499 206.773C61.5249 210.751 60.7669 215.048 58.3609 218.232C57.1139 219.888 55.4506 221.197 53.4045 222.007C47.3865 224.389 40.5513 221.424 38.1653 215.396C37.2427 213.066 37.1218 210.65 37.6657 208.39ZM53.1977 221.484C54.9228 220.801 56.3689 219.764 57.5109 218.429C57.7039 218.213 57.8809 217.957 58.0739 217.741C59.0149 216.485 59.6449 215.028 60.0099 213.489C60.0669 213.28 60.0839 213.088 60.1399 212.879C60.4429 210.947 60.2729 208.876 59.4929 206.907C57.2189 201.161 50.7195 198.342 44.9823 200.613C43.4176 201.232 42.0764 202.182 40.9509 203.324C40.7821 203.484 40.6534 203.628 40.5006 203.828C39.3986 205.147 38.5843 206.725 38.1865 208.416C38.0972 208.777 38.0239 209.177 37.9907 209.562C37.7367 211.383 37.9551 213.341 38.6868 215.19C40.9214 220.952 47.4204 223.771 53.1977 221.484Z" fill="#5932C4"/>
<path d="M60.3468 213.402L60.1558 212.92C60.1158 212.936 54.861 214.783 47.7492 210.534C40.7093 206.348 40.9827 203.405 40.9668 203.365L40.4301 203.298C40.3975 203.45 40.0674 206.602 47.4593 210.974C54.8112 215.361 60.1058 213.497 60.3468 213.402Z" fill="#5932C4"/>
<path d="M37.9506 209.578C38.5315 210.929 40.2316 213.23 44.9599 215.914C50.8882 219.284 55.578 218.822 57.4709 218.445C57.9839 218.335 58.3049 218.208 58.3449 218.192L58.1539 217.71C58.1539 217.71 58.1139 217.725 58.0339 217.757C57.1589 218.01 51.9701 219.321 45.2497 215.474C38.9935 211.861 38.2563 209.178 38.1865 208.416C38.1789 208.279 38.2031 208.223 38.2031 208.223L37.7224 208.181L37.6823 208.197C37.6823 208.197 37.674 208.293 37.6657 208.39C37.6491 208.582 37.7279 209.016 37.9506 209.578Z" fill="#5932C4"/>
<path d="M200.788 72.7344C196.363 76.9459 189.383 76.7598 185.174 72.3254C183.137 70.2027 182.043 67.4015 182.112 64.4461C182.18 61.4907 183.41 58.7375 185.528 56.6994C186.934 55.3721 188.652 54.4126 190.495 53.9564C191.458 53.718 192.411 53.6157 193.436 53.629C196.388 53.6998 199.138 54.9335 201.175 57.0561C202.553 58.4957 203.471 60.2274 203.918 62.0313C204.8 65.7754 203.735 69.9125 200.788 72.7344Z" fill="white"/>
<path d="M200.992 64.9373C200.99 65.8281 200.8 66.6766 200.516 67.5038C200.463 67.6504 200.411 67.797 200.358 67.9436L200.326 67.9959C200.158 68.3937 199.938 68.7599 199.675 69.1365C199.581 69.2935 199.476 69.4085 199.381 69.5655C199.151 69.8897 198.867 70.1824 198.574 70.4332C197.169 71.7605 195.357 72.5207 193.42 72.5993C193.284 72.5885 193.159 72.6196 192.981 72.6191C192.897 72.6398 192.803 72.6186 192.709 72.5974C191.536 72.5313 190.438 72.2244 189.455 71.6663C189.299 71.5716 189.142 71.4768 188.985 71.3821C188.452 71.0243 187.95 70.6142 187.48 70.1517C184.483 67.0204 184.628 62.0424 187.753 59.0428C188.76 58.0813 189.975 57.4243 191.273 57.1029C193.912 56.4497 196.852 57.1913 198.836 59.2823C198.836 59.2823 198.836 59.2823 198.847 59.3242C198.972 59.4713 199.097 59.6184 199.223 59.7655C200.392 61.2569 201.016 63.0613 200.992 64.9373Z" fill="white"/>
<path d="M191.337 56.9983C186.981 58.0765 184.335 62.4713 185.415 66.8343C185.955 69.0157 187.322 70.7697 189.099 71.8436C189.079 71.7597 189.11 71.7073 189.131 71.6131C189.278 71.3095 191.167 69.0612 191.135 68.9354C191.052 68.778 189.168 69.0663 188.728 68.9079C187.065 68.2956 186.138 66.1655 186.487 64.5209C186.508 64.4266 186.581 64.3639 186.613 64.3116C186.94 62.7613 188.847 61.666 190.406 62.037C191.536 62.2916 192.224 63.635 193.07 64.3605C193.467 64.7074 193.78 65.0751 194.062 65.4951C194.396 65.9467 194.689 66.0523 195.159 66.3365C195.933 66.7683 196.309 67.0313 197.022 66.3206C197.452 65.9025 197.747 65.2954 198.187 64.9193C198.701 64.4805 199.35 64.2307 199.956 64.7039C200.604 65.1669 200.456 65.8267 200.214 66.4654C199.993 67.0098 199.438 67.459 199.165 67.9718C198.713 68.8405 199.152 68.9989 199.916 69.3888C201.154 67.5684 201.64 65.222 201.069 62.9147C200.083 58.573 195.693 55.92 191.337 56.9983Z" fill="#6F3FF5"/>
<path d="M199.203 58.969C196.018 55.617 190.701 55.5083 187.356 58.696C184.011 61.8836 183.907 67.2076 187.092 70.5596C187.635 71.1375 188.252 71.6527 188.921 72.0213C188.973 72.0529 189.026 72.0845 189.078 72.1161C190.259 72.7586 191.598 73.1399 192.938 73.1639C193.702 73.1979 194.435 73.1049 195.147 72.9289C196.529 72.5869 197.818 71.8672 198.898 70.8429C200.512 69.2857 201.427 67.2339 201.494 64.9912C201.551 62.7065 200.76 60.5872 199.203 58.969ZM200.992 64.9374C200.99 65.8283 200.8 66.6767 200.516 67.5039C200.463 67.6505 200.411 67.7971 200.358 67.9437L200.326 67.996C200.158 68.3938 199.938 68.7601 199.675 69.1367C199.581 69.2936 199.476 69.4086 199.381 69.5656C199.151 69.8899 198.867 70.1826 198.574 70.4333C197.169 71.7606 195.357 72.5208 193.42 72.5994C193.284 72.5886 193.159 72.6197 192.981 72.6192C192.897 72.6399 192.803 72.6187 192.709 72.5975C191.537 72.5315 190.438 72.2246 189.455 71.6664C189.299 71.5717 189.142 71.4769 188.985 71.3822C188.452 71.0244 187.95 70.6143 187.48 70.1519C184.483 67.0205 184.628 62.0425 187.753 59.0429C188.76 58.0814 189.975 57.4244 191.274 57.103C193.912 56.4498 196.852 57.1914 198.836 59.2824C198.836 59.2824 198.836 59.2824 198.847 59.3244C198.972 59.4714 199.097 59.6185 199.223 59.7656C200.392 61.257 201.016 63.0614 200.992 64.9374Z" fill="#5932C4"/>
<path d="M201.541 56.7428C199.39 54.5151 196.535 53.2182 193.406 53.1469C190.319 53.0652 187.396 54.1893 185.131 56.3527C182.898 58.4638 181.615 61.3635 181.536 64.4552C181.457 67.5468 182.582 70.474 184.744 72.7437C187.699 75.8859 192.009 76.9559 195.947 75.9809C197.831 75.5149 199.644 74.5759 201.154 73.1339C205.747 68.7023 205.928 61.3557 201.541 56.7428ZM200.788 72.7345C196.363 76.9459 189.383 76.7599 185.174 72.3256C183.137 70.203 182.043 67.4016 182.112 64.4462C182.18 61.4908 183.41 58.7377 185.528 56.6996C186.933 55.3723 188.652 54.4127 190.495 53.9566C191.458 53.7181 192.411 53.6158 193.436 53.6291C196.388 53.6999 199.138 54.9336 201.175 57.0562C202.553 58.4958 203.471 60.2276 203.917 62.0315C204.8 65.7756 203.735 69.9126 200.788 72.7345Z" fill="#5932C4"/>
<path d="M186.833 79.9289C187.252 79.8249 187.504 79.4069 187.4 78.9869C187.297 78.5679 186.878 78.3149 186.46 78.4189C186.041 78.5219 185.789 78.9409 185.893 79.3599C186.038 79.7689 186.415 80.0319 186.833 79.9289Z" fill="#5932C4"/>
<path d="M193.022 72.9649L190.203 69.6561L192.867 66.4142C193.612 65.473 194.994 65.309 195.966 66.0034L196.614 66.4663L196.32 66.8952L195.672 66.4323C194.92 65.9062 193.883 66.0292 193.306 66.7508L190.956 69.6477L193.504 72.5787L193.022 72.9649Z" fill="#5932C4"/>
<path d="M190.296 69.8553L188.629 71.7374L189.026 72.0844L190.693 70.2023L190.296 69.8553Z" fill="#5932C4"/>
<path d="M190.873 69.1338C190.245 69.2893 189.25 69.4019 188.351 69.0012C187.452 68.6005 186.815 67.8232 186.399 66.6797C185.628 64.4661 186.562 63.2109 187.181 62.6571C188.198 61.7376 189.821 61.4694 191.013 61.9757L191.316 62.1233L189.626 64.6341C189.73 64.8755 189.97 65.484 190.461 65.674C190.765 65.8215 191.152 65.7702 191.582 65.5303C192.399 65.0608 192.713 64.7158 192.829 64.4646C192.913 64.2657 193.102 64.1299 193.322 64.12C193.531 64.0682 193.772 64.1422 193.907 64.3312C194.325 64.7621 194.586 65.2763 194.574 65.7689L194.041 65.7675C194.031 65.3692 193.854 65.0123 193.509 64.697C193.457 64.6654 193.404 64.6338 193.362 64.6442C193.321 64.6546 193.279 64.6649 193.247 64.7172C193.006 65.1778 192.534 65.6062 191.79 66.0129C191.245 66.3259 190.68 66.3768 190.23 66.1764C189.383 65.8073 189.071 64.727 189.061 64.685L189.03 64.5591L190.489 62.3726C189.526 62.0765 188.301 62.3352 187.546 63.0564C186.676 63.8506 186.444 65.0657 186.933 66.5029C187.266 67.489 187.84 68.1928 188.582 68.4987C189.879 69.0682 191.367 68.4329 191.367 68.4329L191.575 68.9156C191.533 68.9259 191.25 69.0404 190.873 69.1338Z" fill="#5932C4"/>
<path d="M192.839 64.5065C192.506 63.5204 190.886 62.7195 190.886 62.7195L191.127 62.259C191.18 62.2906 192.947 63.1443 193.384 64.3717L192.839 64.5065Z" fill="#5932C4"/>
<path d="M199.869 66.5065C199.796 66.391 199.723 66.2755 199.566 66.1807L198.594 65.4864C198.489 65.4232 198.427 65.3497 198.291 65.3388C198.092 65.2545 197.83 65.2747 197.621 65.3266C197.411 65.3784 197.223 65.5141 197.086 65.6815L196.52 66.445L196.216 66.832C196.142 66.8947 196.069 66.9574 195.943 66.9885L193.838 67.6431C193.346 67.8095 193.021 68.2907 193.103 68.8045L193.238 69.7062C193.268 70.0102 193.425 70.2831 193.686 70.4411C193.947 70.599 194.23 70.6626 194.523 70.5901L197.696 69.7601C197.905 69.7083 198.136 69.5622 198.272 69.3949L198.608 68.9556L198.954 68.5582L199.668 67.6693C199.699 67.617 199.773 67.5543 199.794 67.46C199.878 67.2611 199.92 67.0726 199.91 66.8524C199.973 66.7478 199.942 66.6219 199.869 66.5065ZM199.375 67.3855L197.99 69.153C197.927 69.2577 197.812 69.3307 197.728 69.3515L194.555 70.1814C194.388 70.2229 194.252 70.212 194.137 70.1069C194.022 70.0018 193.907 69.8967 193.907 69.7185L193.773 68.8168C193.753 68.5547 193.868 68.3035 194.12 68.2413L196.225 67.5866C196.434 67.5348 196.623 67.3991 196.749 67.1898L197.62 66.0392C197.683 65.9346 197.798 65.8616 197.923 65.8304C198.049 65.7993 198.227 65.7998 198.342 65.9049L199.314 66.5993C199.429 66.7044 199.502 66.8199 199.533 66.9458C199.491 67.1343 199.438 67.2809 199.375 67.3855Z" fill="#5932C4"/>
<path d="M200.243 68.0166L199.533 66.9456L200.141 66.1717C200.246 66.0567 200.299 65.9101 200.257 65.7423C200.216 65.5745 200.185 65.4486 200.028 65.3539L199.411 64.8387C199.297 64.7335 199.15 64.6807 198.983 64.7222C198.815 64.7637 198.7 64.8367 198.595 64.9518L198.102 65.6526L197.673 65.358L198.166 64.6571C198.334 64.4375 198.607 64.281 198.9 64.2084C199.203 64.1778 199.486 64.2415 199.716 64.4517L200.332 64.9669C200.552 65.1352 200.708 65.4081 200.739 65.7122C200.77 66.0162 200.706 66.299 200.497 66.529L200.119 66.9787L200.62 67.7451L200.243 68.0166Z" fill="#5932C4"/>
<path d="M198.271 64.8987L197.133 63.1768L198.952 59.0312L199.454 59.2632L197.74 63.1155L198.732 64.6065L198.271 64.8987Z" fill="#5932C4"/>
<path d="M199.382 69.5654L198.598 68.9135L198.944 68.5161L199.728 69.1681L199.382 69.5654Z" fill="#5932C4"/>
<path d="M94.2579 52.2856C94.5169 54.0471 94.0629 55.8066 92.9929 57.2292C91.9219 58.6517 90.3299 59.5802 88.6029 59.7851C86.9269 60.0217 85.2749 59.6294 83.9259 58.672C83.8219 58.6089 83.7589 58.5353 83.6649 58.5141C83.6019 58.4406 83.4979 58.3774 83.4349 58.3039C82.1499 57.2418 81.3359 55.7514 81.0989 54.0738C80.8409 52.3123 81.2939 50.5528 82.3649 49.1303C83.3089 47.917 84.6079 47.0611 86.0739 46.6982C86.3259 46.636 86.5348 46.5842 86.7968 46.5639C88.5558 46.3066 90.3129 46.7621 91.7449 47.8769C92.6749 48.5816 93.3849 49.4744 93.8119 50.4817C93.9059 50.6811 93.9889 50.8385 94.0409 51.0483C94.0829 51.2161 94.1239 51.3839 94.1659 51.5517C94.1759 51.7718 94.2379 52.0235 94.2579 52.2856Z" fill="#F3587D"/>
<path d="M81.2129 54.8915C81.5449 56.2339 82.3269 57.4203 83.3929 58.3141C83.4559 58.3876 83.5599 58.4508 83.6229 58.5243C83.6859 58.5979 83.7899 58.661 83.8839 58.6822C85.2329 59.6396 86.8859 60.0319 88.5609 59.7953C90.3189 59.5381 91.8809 58.6619 92.9509 57.2394C93.9269 55.9738 94.3899 54.4344 94.2989 52.8096C94.0569 53.6265 93.6369 54.4428 93.1019 55.1541C91.8949 56.7439 90.1869 57.7455 88.2499 58.0023C86.3969 58.2383 84.5979 57.7933 83.0929 56.7412C82.9879 56.678 82.8839 56.6148 82.8209 56.5413C82.7169 56.4781 82.6539 56.4046 82.5489 56.3414C82.0369 55.8894 81.5669 55.4269 81.2129 54.8915Z" fill="#C64268"/>
<path d="M93.874 50.9115C93.884 50.9534 93.884 50.9534 93.936 50.985C94.02 51.1424 94.124 51.2056 94.239 51.3107C91.585 54.7727 87.686 57.3405 84.722 58.6531C84.596 58.506 84.429 58.3693 84.231 58.2849C87.174 57.0666 91.146 54.4361 93.874 50.9115Z" fill="#C64268"/>
<path d="M94.3559 50.5249C94.2619 50.3255 94.2099 50.1158 94.1269 49.9583C93.7099 49.1711 93.177 48.457 92.54 47.8579C92.415 47.7108 92.2579 47.6161 92.1009 47.5213C90.6169 46.3749 88.693 45.7828 86.714 46.0499C84.819 46.2964 83.111 47.2979 81.978 48.8251C80.803 50.3626 80.338 52.2584 80.586 54.1561C80.617 54.4601 80.689 54.7538 80.752 55.0055C80.793 55.1733 80.835 55.3411 80.876 55.5089C81.251 56.6628 81.9399 57.6498 82.8169 58.5012C82.9839 58.6379 83.152 58.7746 83.319 58.9113C84.855 60.0893 86.748 60.5555 88.643 60.3091C88.895 60.2469 89.156 60.2266 89.408 60.1644C90.999 59.7704 92.3719 58.8518 93.3789 57.534C93.9459 56.7704 94.3559 55.9121 94.6189 55.0009C94.8409 54.1002 94.916 53.1466 94.771 52.203C94.71 51.5949 94.5329 51.0599 94.3559 50.5249ZM94.258 52.2854C94.517 54.0469 94.063 55.8065 92.993 57.229C91.922 58.6515 90.33 59.58 88.602 59.7849C86.927 60.0215 85.275 59.6292 83.926 58.6718C83.822 58.6087 83.7589 58.5351 83.6649 58.5139C83.6019 58.4404 83.498 58.3772 83.435 58.3037C82.15 57.2417 81.336 55.7512 81.099 54.0736C80.841 52.3121 81.294 50.5526 82.364 49.1301C83.309 47.9168 84.608 47.0609 86.074 46.698C86.326 46.6358 86.5349 46.584 86.7969 46.5637C88.5549 46.3065 90.313 46.7619 91.745 47.8767C92.675 48.5814 93.385 49.4742 93.812 50.4815C93.906 50.6809 93.9889 50.8383 94.0409 51.0481C94.0819 51.2159 94.1239 51.3837 94.1659 51.5515C94.1759 51.7716 94.238 52.0233 94.258 52.2854Z" fill="#5932C4"/>
<path d="M95.2268 49.1963C94.9438 49.6672 94.6498 50.096 94.3558 50.525C94.2198 50.6923 94.1247 50.8492 93.9887 51.0166C91.1657 54.6982 86.9527 57.4329 83.9157 58.63C83.7167 58.7238 83.5068 58.7757 83.3078 58.8695C82.9838 58.9943 82.6488 59.0772 82.3548 59.1498L82.2718 59.1705C81.2248 59.4297 80.4708 59.4382 80.0008 59.1539C79.5298 58.8696 79.2588 58.4917 79.2278 58.0095C79.0638 56.6256 80.6788 54.89 80.7518 54.8273L80.6988 54.974L81.0438 55.2894C81.0128 55.3417 80.9388 55.4043 80.8658 55.467C80.4248 56.0213 79.6278 57.1091 79.7408 57.9269C79.7818 58.2729 79.9698 58.4936 80.2838 58.6831C80.5978 58.8726 81.3087 58.8745 82.1787 58.6149C82.3877 58.563 82.5968 58.5112 82.7958 58.4174C83.0058 58.3656 83.1627 58.282 83.3717 58.2302C86.4197 57.075 90.8837 54.2783 93.7067 50.4185C93.8437 50.2512 93.9377 50.0942 94.0747 49.9269C94.3047 49.6026 94.5257 49.2363 94.7457 48.87C95.8697 46.9446 95.5668 46.619 95.5568 46.577C95.2638 46.2932 93.7868 46.9704 92.4878 47.8263C92.3718 47.8994 92.2567 47.9725 92.1417 48.0455L91.8597 47.6256C91.9017 47.6152 91.9748 47.5526 92.0488 47.4899C92.9608 46.8635 95.1708 45.5593 95.9128 46.2216C96.3728 46.6421 96.1618 47.5848 95.2268 49.1963Z" fill="#5932C4"/>
<path d="M187.258 203.285C187.517 205.047 187.063 206.806 185.993 208.229C184.923 209.651 183.33 210.58 181.603 210.785C179.928 211.021 178.275 210.629 176.926 209.672C176.822 209.608 176.759 209.535 176.665 209.514C176.602 209.44 176.498 209.377 176.435 209.303C175.15 208.241 174.336 206.751 174.099 205.073C173.841 203.312 174.294 201.552 175.365 200.13C176.309 198.917 177.608 198.061 179.074 197.698C179.326 197.636 179.535 197.584 179.797 197.564C181.556 197.306 183.313 197.762 184.745 198.876C185.675 199.581 186.385 200.474 186.812 201.481C186.906 201.681 186.989 201.838 187.041 202.048C187.083 202.216 187.124 202.384 187.166 202.551C187.176 202.771 187.238 203.023 187.258 203.285Z" fill="#F3587D"/>
<path d="M174.213 205.891C174.545 207.234 175.328 208.42 176.393 209.314C176.456 209.387 176.561 209.45 176.623 209.524C176.686 209.597 176.79 209.661 176.885 209.682C178.233 210.639 179.886 211.031 181.561 210.795C183.32 210.538 184.881 209.661 185.951 208.239C186.927 206.973 187.39 205.434 187.299 203.809C187.057 204.626 186.637 205.442 186.102 206.154C184.895 207.744 183.187 208.745 181.25 209.002C179.397 209.238 177.598 208.793 176.093 207.741C175.988 207.678 175.884 207.614 175.821 207.541C175.717 207.478 175.654 207.404 175.549 207.341C175.037 206.889 174.567 206.427 174.213 205.891Z" fill="#C64268"/>
<path d="M186.874 201.911C186.884 201.953 186.884 201.953 186.937 201.985C187.02 202.142 187.124 202.205 187.239 202.31C184.585 205.772 180.686 208.34 177.722 209.653C177.597 209.506 177.429 209.369 177.231 209.285C180.174 208.066 184.146 205.436 186.874 201.911Z" fill="#C64268"/>
<path d="M187.356 201.525C187.262 201.325 187.21 201.115 187.127 200.958C186.71 200.171 186.177 199.457 185.54 198.857C185.415 198.71 185.258 198.616 185.101 198.521C183.617 197.375 181.693 196.782 179.714 197.05C177.819 197.296 176.111 198.298 174.978 199.825C173.803 201.362 173.338 203.258 173.586 205.156C173.617 205.46 173.689 205.753 173.752 206.005C173.793 206.173 173.835 206.341 173.876 206.509C174.251 207.662 174.94 208.649 175.817 209.501C175.984 209.637 176.152 209.774 176.319 209.911C177.855 211.089 179.749 211.555 181.643 211.309C181.895 211.246 182.156 211.226 182.408 211.164C183.999 210.77 185.372 209.851 186.379 208.534C186.946 207.77 187.356 206.912 187.619 206.001C187.841 205.1 187.916 204.146 187.771 203.203C187.71 202.595 187.533 202.06 187.356 201.525ZM187.258 203.285C187.517 205.047 187.063 206.806 185.993 208.229C184.922 209.651 183.33 210.58 181.602 210.785C179.927 211.021 178.275 210.629 176.926 209.671C176.822 209.608 176.759 209.535 176.665 209.514C176.602 209.44 176.498 209.377 176.435 209.303C175.15 208.241 174.336 206.751 174.099 205.073C173.841 203.312 174.294 201.552 175.365 200.13C176.309 198.916 177.608 198.061 179.074 197.698C179.326 197.635 179.535 197.584 179.797 197.563C181.555 197.306 183.313 197.761 184.745 198.876C185.675 199.581 186.385 200.474 186.812 201.481C186.906 201.681 186.989 201.838 187.041 202.048C187.083 202.216 187.124 202.383 187.166 202.551C187.176 202.771 187.238 203.023 187.258 203.285Z" fill="#5932C4"/>
<path d="M188.227 200.196C187.944 200.667 187.65 201.096 187.356 201.525C187.22 201.692 187.125 201.849 186.989 202.016C184.166 205.698 179.953 208.433 176.916 209.63C176.717 209.723 176.507 209.775 176.308 209.869C175.984 209.994 175.649 210.077 175.355 210.149L175.272 210.17C174.225 210.429 173.471 210.438 173.001 210.154C172.53 209.869 172.259 209.491 172.228 209.009C172.064 207.625 173.679 205.89 173.752 205.827L173.699 205.974L174.044 206.289C174.013 206.341 173.939 206.404 173.866 206.467C173.425 207.021 172.628 208.109 172.741 208.927C172.783 209.273 172.97 209.493 173.284 209.683C173.598 209.872 174.309 209.874 175.179 209.614C175.388 209.563 175.597 209.511 175.796 209.417C176.006 209.365 176.163 209.282 176.372 209.23C179.42 208.075 183.884 205.278 186.707 201.418C186.844 201.251 186.938 201.094 187.075 200.926C187.305 200.602 187.526 200.236 187.746 199.87C188.87 197.944 188.567 197.619 188.557 197.577C188.264 197.293 186.787 197.97 185.488 198.826C185.373 198.899 185.257 198.972 185.142 199.045L184.86 198.625C184.902 198.615 184.975 198.552 185.049 198.489C185.961 197.863 188.172 196.559 188.913 197.221C189.373 197.642 189.162 198.584 188.227 200.196Z" fill="#5932C4"/>
<path d="M152.94 240.417L66.9259 144.848L52.3258 91.3459L38.3401 33.8429L60.8399 53.3429L64.8599 64.5943L91.9939 91.3459L146.262 144.848L152.94 240.417Z" fill="#5BF1CD"/>
</svg>
