<svg width="325" height="402" viewBox="0 0 325 402" fill="none" xmlns="http://www.w3.org/2000/svg">
<path d="M154.797 84.1095L146.507 262.418M259.756 178.085L157.949 312.213L259.756 178.085ZM200.213 181.624L150.71 314.532L200.213 181.624ZM101.091 118.282L134.365 286.217L101.091 118.282ZM63.6138 173.203L134.132 321.732L63.6138 173.203Z" stroke="#6F3FF5" stroke-miterlimit="10"/>
<path d="M92.6027 122.884C108.949 121.092 120.716 104.877 118.886 86.6673C117.056 68.4576 102.321 55.1485 85.9743 56.9406C69.6282 58.7327 57.8608 74.9474 59.6911 93.1572C61.5215 111.367 76.2565 124.676 92.6027 122.884Z" fill="#6F3FF5" stroke="#02E2AC" stroke-miterlimit="10"/>
<path d="M86.6506 124.459C102.997 122.667 114.764 106.452 112.934 88.2427C111.103 70.033 96.3684 56.7239 80.0222 58.516C63.676 60.3081 51.9086 76.5229 53.739 94.7326C55.5694 112.942 70.3044 126.251 86.6506 124.459Z" fill="#6F3FF5" stroke="#02E2AC" stroke-miterlimit="10"/>
<path d="M85.9446 117.429C98.8292 116.016 108.107 103.257 106.667 88.9302C105.227 74.6034 93.6142 64.1344 80.7296 65.547C67.845 66.9597 58.5673 79.719 60.0074 94.0457C61.4475 108.373 73.0599 118.841 85.9446 117.429Z" fill="white" stroke="#6F3FF5" stroke-miterlimit="10"/>
<path d="M296.743 104.598L288.921 100.424C273.392 92.9337 252.96 104.598 243.386 126.577C233.812 148.556 238.599 172.376 254.244 179.866L262.768 184.777" fill="#02E2AC"/>
<path d="M296.743 104.598L288.921 100.424C273.392 92.9337 252.96 104.598 243.386 126.577C233.812 148.556 238.599 172.376 254.244 179.866L262.768 184.777" stroke="#6F3FF5" stroke-miterlimit="10" stroke-linecap="round"/>
<path d="M307.585 157.683C317.203 135.776 312.366 111.967 296.78 104.503C281.195 97.0398 260.764 108.748 251.146 130.655C241.528 152.562 246.365 176.371 261.951 183.834C277.536 191.298 297.967 179.589 307.585 157.683Z" fill="#02E2AC" stroke="#6F3FF5" stroke-miterlimit="10"/>
<path d="M301.644 154.838C309.22 137.582 305.387 118.816 293.083 112.924C280.779 107.032 264.663 116.244 257.086 133.5C249.51 150.756 253.343 169.522 265.647 175.414C277.952 181.306 294.068 172.094 301.644 154.838Z" fill="white" stroke="#6F3FF5" stroke-miterlimit="10"/>
<path d="M27.7476 101L35.5701 96.8814C51.0986 89.4927 71.5307 101 81.1046 122.681C90.6785 144.363 85.8916 167.861 70.2464 175.25L61.7233 180.095" fill="#02E2AC"/>
<path d="M27.7476 101L35.5701 96.8814C51.0986 89.4927 71.5307 101 81.1046 122.681C90.6785 144.363 85.8916 167.861 70.2464 175.25L61.7233 180.095" stroke="#6F3FF5" stroke-miterlimit="10" stroke-linecap="round"/>
<path d="M63.0494 180.183C78.6348 172.719 83.4724 148.91 73.8544 127.004C64.2365 105.097 43.8052 93.3883 28.2198 100.852C12.6344 108.315 7.79688 132.124 17.4148 154.031C27.0328 175.938 47.4641 187.646 63.0494 180.183Z" fill="#02E2AC" stroke="#6F3FF5" stroke-miterlimit="10"/>
<path d="M59.3526 171.762C71.6568 165.87 75.4897 147.105 67.9136 129.849C60.3374 112.593 44.2212 103.38 31.917 109.272C19.6127 115.165 15.7799 133.93 23.356 151.186C30.9321 168.442 47.0484 177.655 59.3526 171.762Z" fill="white" stroke="#6F3FF5" stroke-miterlimit="10"/>
<path d="M54.6474 155.779V137.716C54.6474 136.733 54.1594 135.75 53.4275 135.135L39.8862 123.339C38.4223 122.11 36.7144 122.847 36.7144 124.813V142.877C36.7144 143.86 37.2023 144.843 37.9343 145.457L51.4756 157.254C52.9395 158.483 54.6474 157.745 54.6474 155.779Z" fill="#02E2AC" stroke="#6F3FF5" stroke-miterlimit="10"/>
<path d="M240.806 145.249C243.047 122.956 228.599 103.1 208.535 100.9C188.47 98.7006 170.389 114.99 168.148 137.283C165.907 159.577 180.356 179.433 200.42 181.632C220.484 183.832 238.566 167.543 240.806 145.249Z" fill="#6F3FF5" stroke="#02E2AC" stroke-miterlimit="10"/>
<path d="M248.092 147.2C250.333 124.906 235.884 105.05 215.82 102.851C195.756 100.651 177.674 116.94 175.433 139.234C173.193 161.527 187.641 181.383 207.705 183.583C227.769 185.782 245.851 169.493 248.092 147.2Z" fill="#6F3FF5" stroke="#02E2AC" stroke-miterlimit="10"/>
<path d="M240.315 146.347C242.078 128.807 230.724 113.186 214.955 111.457C199.185 109.729 184.973 122.546 183.209 140.086C181.446 157.627 192.801 173.247 208.57 174.976C224.339 176.705 238.552 163.888 240.315 146.347Z" fill="white" stroke="#02E2AC" stroke-miterlimit="10"/>
<path d="M205.423 158.287L201.688 141.1C201.454 140.125 201.805 139.15 202.388 138.54L214.526 126.961C215.81 125.742 217.794 126.473 218.261 128.302L221.995 145.366C222.229 146.341 221.879 147.317 221.295 147.926L209.157 159.506C207.757 160.724 205.773 160.115 205.423 158.287Z" fill="#6F3FF5" stroke="#02E2AC" stroke-miterlimit="10"/>
<path d="M153.279 122.738C185.467 122.738 211.561 95.4859 211.561 61.8689C211.561 28.2519 185.467 1 153.279 1C121.09 1 94.9966 28.2519 94.9966 61.8689C94.9966 95.4859 121.09 122.738 153.279 122.738Z" fill="#02E2AC" stroke="#6F3FF5" stroke-miterlimit="10"/>
<path d="M153.839 109.862C179.528 109.862 200.353 88.3746 200.353 61.8689C200.353 35.3632 179.528 13.8761 153.839 13.8761C128.15 13.8761 107.325 35.3632 107.325 61.8689C107.325 88.3746 128.15 109.862 153.839 109.862Z" fill="white" stroke="#6F3FF5" stroke-miterlimit="10"/>
<path d="M150.227 87.0711L136.985 64.4917C136.294 63.2843 136.294 61.7146 136.985 60.5072L150.227 37.9278C151.609 35.5129 154.949 35.5129 156.331 37.9278L169.573 60.5072C170.264 61.7146 170.264 63.2843 169.573 64.4917L156.331 87.0711C154.949 89.3652 151.609 89.3652 150.227 87.0711Z" fill="#02E2AC" stroke="#6F3FF5" stroke-miterlimit="10"/>
<path d="M85.6577 102.889L75.3954 95.6417C74.8544 95.2505 74.5573 94.5532 74.6411 93.8716L76.3547 81.0577C76.5224 79.6945 78.0324 78.9926 79.1144 79.775L89.3767 87.0226C89.9177 87.4138 90.2148 88.1112 90.131 88.7928L88.4174 101.607C88.2269 102.916 86.7169 103.618 85.6577 102.889Z" fill="#6F3FF5" stroke="#6F3FF5" stroke-miterlimit="10"/>
<path d="M67.8091 338.12L70.6111 336.364C71.1715 337.73 72.6286 341.046 73.9736 343.388C75.3185 345.729 78.27 349.045 79.5776 350.411L82.9401 353.923L102.554 349.24L106.477 348.655C106.477 348.265 106.365 347.016 105.917 345.143C105.468 343.271 106.104 342.802 106.477 342.802C107.598 342.217 110.176 340.929 111.521 340.461C112.866 339.993 113.949 340.656 114.323 341.046L118.246 338.705V336.949C118.246 336.364 118.246 333.438 118.806 332.267C119.254 331.331 121.608 328.756 122.729 327.585L127.212 325.244L135.058 321.732L137.3 320.562C136.739 319.001 135.506 315.528 135.058 314.124C134.498 312.368 132.816 304.174 132.816 301.833C132.816 299.96 133.19 294.809 133.377 292.468L134.498 285.445L136.739 279.592L137.86 278.422L139.541 274.325L140.662 273.739L141.222 270.228L142.343 266.131L144.024 262.619H145.706H148.508L152.431 264.96L155.233 267.301L156.353 270.228L157.474 271.398L154.672 276.081L152.991 275.495L150.749 277.836L151.31 279.007L149.629 282.519L150.154 283.616C150.179 283.618 150.189 283.648 150.189 283.689L150.154 283.616C150.063 283.609 149.774 283.971 149.068 285.445C147.947 287.786 146.266 294.224 146.266 300.077C146.266 304.759 148.134 309.441 149.068 311.197L151.31 314.709L153.551 313.538L156.353 312.953L159.155 313.538L160.837 315.294L164.76 320.562L167.001 322.903L170.364 324.073L172.605 325.829L174.286 327.585L177.649 325.829C178.77 325.244 178.77 325.244 178.209 323.488C177.761 322.083 178.77 320.952 179.33 320.562C180.264 319.976 182.581 318.689 184.374 318.221C186.167 317.752 186.989 318.416 187.176 318.806L188.297 320.562C188.857 320.367 190.426 319.859 192.22 319.391C194.461 318.806 197.824 319.391 199.505 319.976C200.85 320.445 203.054 322.513 203.988 323.488C204.922 324.464 207.014 327.351 207.911 331.097C208.808 334.842 207.164 338.51 206.23 339.876L203.988 342.802L204.548 344.558L202.867 348.07C200.999 348.85 196.815 350.645 195.022 351.581C193.228 352.518 190.912 351.581 189.978 350.996L189.417 349.826L183.813 352.167L181.572 353.337V356.264C181.572 357.434 179.33 360.361 178.209 361.531C177.313 362.468 174.473 363.482 173.166 363.872L172.605 365.043L175.968 369.14L181.572 374.407L187.736 379.09C189.231 379.87 192.556 381.548 193.901 382.016C195.246 382.484 195.208 383.382 195.022 383.772L196.142 384.942L198.384 385.528L200.065 384.357L204.548 386.113C204.362 386.308 204.1 387.049 204.548 388.454C204.997 389.859 204.735 392.161 204.548 393.136L202.867 396.648C202.307 397.233 200.962 398.755 200.065 400.16C199.169 401.564 197.45 401.135 196.703 400.745L191.099 396.063L188.857 393.721H188.297C186.242 392.551 181.796 390.093 180.451 389.625C179.106 389.156 172.418 383.967 169.243 381.431L163.078 375.578L161.397 373.822C158.969 374.797 153.663 376.865 151.87 377.334C150.077 377.802 148.508 377.139 147.947 376.748L146.827 376.163L145.145 376.748L133.377 381.431C132.63 381.626 131.247 382.133 131.696 382.601C132.144 383.069 131.135 384.357 130.575 384.942C130.014 385.137 128.445 385.762 126.652 386.698C124.859 387.635 123.663 387.088 123.289 386.698L121.608 384.357L111.521 383.772L104.796 384.357H98.6315C96.3899 384.357 94.335 382.406 93.5878 381.431L89.1046 376.748C88.5442 375.578 86.6388 373.237 83.5005 373.237C79.5776 373.237 75.6548 370.896 73.9736 369.14C72.6286 367.735 70.4243 363.092 69.4903 360.946L65.5675 350.411L63.8862 344.558L65.5675 341.046L67.8091 338.12Z" fill="white"/>
<path d="M65.4876 331.126L62.3364 329.298H62.2197C62.103 329.298 55.6839 329.42 48.6813 332.101C45.997 333.076 44.4797 335.148 43.4293 337.099C42.6124 339.171 42.2622 341.121 42.1455 342.462C42.0288 343.559 42.7291 344.656 43.6628 345.143L47.5142 346.972" fill="white"/>
<path d="M65.4876 331.126L62.3364 329.298H62.2197C62.103 329.298 55.6839 329.42 48.6813 332.101C45.997 333.076 44.4797 335.148 43.4293 337.099C42.6124 339.171 42.2622 341.121 42.1455 342.462C42.0288 343.559 42.7291 344.656 43.6628 345.143L47.5142 346.972" stroke="#6F3FF5" stroke-miterlimit="10"/>
<path d="M65.4876 331.126L62.3364 329.298H62.2197C62.103 329.298 55.6839 329.42 48.6813 332.101C45.997 333.076 44.4797 335.148 43.4293 337.099C42.6124 339.171 42.2622 341.121 42.1455 342.462C42.0288 343.559 42.7291 344.656 43.6628 345.143L47.5142 346.972" fill="white"/>
<path d="M65.4876 331.126L62.3364 329.298H62.2197C62.103 329.298 55.6839 329.42 48.6813 332.101C45.997 333.076 44.4797 335.148 43.4293 337.099C42.6124 339.171 42.2622 341.121 42.1455 342.462C42.0288 343.559 42.7291 344.656 43.6628 345.143L47.5142 346.972" stroke="#6F3FF5" stroke-miterlimit="10"/>
<path d="M63.8537 344.656L51.7159 347.459C50.432 347.825 48.7981 347.338 47.3976 346.85C46.814 346.606 46.2305 346.241 45.7636 345.875C44.83 344.9 44.4798 343.559 44.83 342.34C45.4135 339.902 46.9307 335.758 51.0156 334.539C56.6177 332.833 63.5036 331.492 64.6707 331.248L70.2728 335.88" fill="white"/>
<path d="M63.8537 344.656L51.7159 347.459C50.432 347.825 48.7981 347.338 47.3976 346.85C46.814 346.606 46.2305 346.241 45.7636 345.875C44.83 344.9 44.4798 343.559 44.83 342.34C45.4135 339.902 46.9307 335.758 51.0156 334.539C56.6177 332.833 63.5036 331.492 64.6707 331.248L70.2728 335.88" stroke="#6F3FF5" stroke-miterlimit="10"/>
<path d="M181.615 353.31C182.432 358.43 176.246 366.231 168.893 363.062C163.291 360.502 159.323 351.97 157.689 347.216C152.437 333.93 162.474 314.306 174.262 327.226" stroke="#6F3FF5" stroke-miterlimit="10"/>
<path d="M172.977 327.957C162.473 317.597 154.771 336.246 159.206 346.728C160.723 350.995 164.107 358.43 169.126 360.746C173.794 363.183 179.98 358.43 180.33 354.286" stroke="#6F3FF5" stroke-miterlimit="10"/>
<path d="M178.346 325.52L168.075 330.517C170.76 335.515 165.274 340.39 165.158 340.268L164.924 340.39C173.327 360.38 171.693 358.186 189.2 349.776" stroke="#6F3FF5" stroke-miterlimit="10"/>
<path d="M179.513 320.278C178.463 320.766 177.879 321.985 177.996 323.082L178.58 325.154C178.813 325.885 179.397 326.495 180.214 326.495C181.264 326.495 182.781 326.251 185.115 325.154C187.917 323.813 188.617 322.716 188.733 322.107C188.85 321.741 188.733 321.497 188.733 321.497L187.8 319.425C187.216 318.084 185.582 317.353 184.182 318.084L179.513 320.278Z" stroke="#6F3FF5" stroke-miterlimit="10"/>
<path d="M204.023 344.9C204.023 344.9 218.378 340.024 211.492 324.179C205.19 309.674 190.367 317.231 187.566 318.815" stroke="#6F3FF5" stroke-miterlimit="10"/>
<path d="M203.789 342.949C207.29 339.415 209.858 334.295 206.94 327.957C200.638 314.184 188.267 320.766 188.267 320.766" stroke="#6F3FF5" stroke-miterlimit="10"/>
<path d="M204.607 324.179C204.607 324.179 202.156 325.154 203.79 329.176C204.957 332.102 205.54 332.589 208.108 332.467" stroke="#6F3FF5" stroke-miterlimit="10"/>
<path d="M194.218 351.848L202.155 348.191C203.905 347.338 204.722 345.266 204.022 343.437L197.836 328.567C197.019 326.738 195.035 325.885 193.285 326.616L185.348 330.273C183.598 331.126 182.781 333.198 183.481 335.027L189.667 349.897C190.367 351.726 192.351 352.579 194.218 351.848Z" fill="#02E2AC" stroke="#6F3FF5" stroke-miterlimit="10"/>
<path d="M195.852 332.223C194.802 329.786 193.051 330.395 193.051 330.395L183.598 334.661" stroke="#6F3FF5" stroke-miterlimit="10"/>
<path d="M168.076 330.395L163.174 326.495" stroke="#6F3FF5" stroke-miterlimit="10"/>
<path d="M158.155 340.512C166.092 338.684 164.924 327.957 164.924 327.957" stroke="#6F3FF5" stroke-miterlimit="10"/>
<path d="M105.636 374.397L99.9174 372.812C99.8007 372.812 84.8618 374.641 77.2757 371.715C70.0396 368.912 65.1378 347.216 63.9707 345.509C64.0874 344.656 65.0211 339.293 70.3898 336.002C71.3234 338.196 75.1749 347.337 82.6443 353.432L82.761 353.554L82.8777 353.676L83.3446 353.554L106.57 348.434" stroke="#6F3FF5" stroke-miterlimit="10"/>
<path d="M121.624 384.27C121.391 384.148 111.587 383.539 105.752 384.392C102.017 384.879 98.2824 384.514 94.7811 383.051L85.7944 373.3" stroke="#6F3FF5" stroke-miterlimit="10"/>
<path d="M82.9944 353.676L82.877 357.576Z" fill="white"/>
<path d="M82.9944 353.676L82.877 357.576" stroke="#6F3FF5" stroke-miterlimit="10"/>
<path d="M99.6831 384.88C99.7998 384.758 102.017 381.467 100.617 376.469Z" fill="white"/>
<path d="M99.6831 384.88C99.7998 384.758 102.017 381.467 100.617 376.469" stroke="#6F3FF5" stroke-miterlimit="10"/>
<path d="M77.1587 369.4C77.2754 369.278 80.5433 367.206 81.2435 362.087Z" fill="white"/>
<path d="M77.1587 369.4C77.2754 369.278 80.5433 367.206 81.2435 362.087" stroke="#6F3FF5" stroke-miterlimit="10"/>
<path d="M67.0053 339.049L61.4032 339.902C60.9364 340.024 60.5863 340.268 60.3529 340.634C60.3529 340.755 60.2361 340.877 60.2361 340.999V341.121C60.1194 341.609 60.2361 341.974 60.5863 342.34C60.9364 342.706 61.2865 342.828 61.7534 342.828L64.9046 342.462" fill="white"/>
<path d="M67.0053 339.049L61.4032 339.902C60.9364 340.024 60.5863 340.268 60.3529 340.634C60.3529 340.755 60.2361 340.877 60.2361 340.999V341.121C60.1194 341.609 60.2361 341.974 60.5863 342.34C60.9364 342.706 61.2865 342.828 61.7534 342.828L64.9046 342.462" stroke="#6F3FF5" stroke-miterlimit="10" stroke-linecap="round"/>
<path d="M45.2969 344.046C52.7663 344.656 52.9997 341.731 53.1164 340.999C53.5833 338.318 48.0979 338.927 47.3977 337.099" fill="white"/>
<path d="M45.2961 344.656C47.1635 344.778 49.1476 344.9 50.8982 344.29C51.8319 343.925 52.7656 343.437 53.2324 342.584C53.5826 342.096 53.6993 341.487 53.6993 340.877C53.816 339.415 52.4154 338.683 51.2483 338.318C50.5481 338.074 49.8478 337.952 49.1476 337.708C48.7974 337.586 48.564 337.465 48.3306 337.343C48.2139 337.221 48.2139 337.221 48.0972 337.099C48.0972 336.977 48.0972 337.221 48.0972 337.099C48.0972 336.977 47.9805 336.977 47.9805 336.855C47.8638 336.611 47.3969 336.489 47.1635 336.611C46.8134 336.733 46.8134 337.099 46.9301 337.465C47.3969 338.562 48.9141 338.927 49.8478 339.171C50.4314 339.293 51.0149 339.537 51.5985 339.78C51.8319 339.902 52.0653 340.024 52.2987 340.146C52.2987 340.146 52.4154 340.268 52.5322 340.268C52.6489 340.39 52.5322 340.268 52.5322 340.268C52.5322 340.268 52.6489 340.512 52.6489 340.39V340.512C52.6489 340.634 52.6489 340.512 52.6489 340.634C52.6489 340.756 52.6489 340.756 52.6489 340.877C52.6489 340.999 52.6489 340.877 52.6489 340.999C52.6489 341.121 52.6489 341.121 52.6489 341.243C52.6489 341.365 52.6489 341.487 52.5322 341.609V341.731C52.5322 341.853 52.5322 341.609 52.5322 341.853C52.4154 341.975 52.4154 342.096 52.2987 342.218C52.182 342.34 52.2987 342.218 52.2987 342.218C52.2987 342.218 52.2987 342.34 52.182 342.34C52.0653 342.462 52.0653 342.462 51.9486 342.584C51.8319 342.706 51.8319 342.706 51.7152 342.706C51.8319 342.584 51.5985 342.828 51.4818 342.828C51.3651 342.828 51.2483 342.95 51.2483 342.95C51.2483 342.95 51.1316 342.95 51.1316 343.072C51.0149 343.072 51.0149 343.072 51.0149 343.072C49.2643 343.803 47.1635 343.681 45.4128 343.559C44.4792 343.315 44.4792 344.534 45.2961 344.656Z" fill="#6F3FF5"/>
<path d="M105.753 345.022C109.021 360.502 114.39 373.422 123.026 386.586C123.61 387.439 124.66 387.683 125.477 387.317C127.344 386.464 128.628 385.855 130.379 385.123C131.546 384.636 132.013 383.051 131.313 381.954C123.143 369.278 117.891 356.845 114.623 341.853C114.39 340.512 112.989 339.902 111.822 340.39C110.071 341.121 108.671 341.731 106.92 342.584C106.103 342.95 105.52 343.925 105.753 345.022Z" fill="white" stroke="#6F3FF5" stroke-miterlimit="10"/>
<path d="M117.306 380.004L117.656 380.735C118.007 381.467 118.94 381.71 119.641 381.345L129.328 375.982C130.028 375.616 130.261 374.641 129.911 373.91L129.561 373.178C129.211 372.447 128.277 372.203 127.577 372.569L117.89 377.932C117.19 378.298 116.956 379.151 117.306 380.004Z" fill="white" stroke="#6F3FF5" stroke-miterlimit="10"/>
<path d="M105.753 353.676L107.387 358.308C107.854 359.527 109.138 360.258 110.421 359.771L119.525 356.358C120.692 355.87 121.392 354.529 120.925 353.189L119.291 348.557C118.824 347.338 117.541 346.607 116.257 347.094L107.153 350.507C105.87 350.995 105.286 352.457 105.753 353.676Z" fill="white" stroke="#6F3FF5" stroke-miterlimit="10"/>
<path d="M130.145 380.37L121.742 384.758" stroke="#6F3FF5" stroke-miterlimit="10"/>
<path d="M124.193 369.765L115.439 373.666" stroke="#6F3FF5" stroke-miterlimit="10"/>
<path d="M122.092 364.646L113.339 368.546" stroke="#6F3FF5" stroke-miterlimit="10"/>
<path d="M120.225 360.136L111.472 364.159" stroke="#6F3FF5" stroke-miterlimit="10"/>
<path d="M114.856 343.437L106.103 346.606" stroke="#6F3FF5" stroke-miterlimit="10"/>
<path fill-rule="evenodd" clip-rule="evenodd" d="M168.426 362.817C168.426 362.817 161.424 370.984 131.663 382.32Z" fill="white"/>
<path d="M168.426 362.817C168.426 362.817 161.424 370.984 131.663 382.32" stroke="#6F3FF5" stroke-miterlimit="10"/>
<path fill-rule="evenodd" clip-rule="evenodd" d="M159.206 369.522C159.206 369.522 148.585 357.089 142.633 335.758Z" fill="white"/>
<path d="M159.206 369.522C159.206 369.522 148.585 357.089 142.633 335.758" stroke="#6F3FF5" stroke-miterlimit="10"/>
<path fill-rule="evenodd" clip-rule="evenodd" d="M154.421 371.716C154.421 371.716 143.1 357.82 137.264 336.49Z" fill="white"/>
<path d="M154.421 371.716C154.421 371.716 143.1 357.82 137.264 336.49" stroke="#6F3FF5" stroke-miterlimit="10"/>
<path d="M161.54 325.154L159.323 322.716" stroke="#6F3FF5" stroke-miterlimit="10"/>
<path d="M159.323 321.253C159.556 321.741 159.439 322.228 159.323 322.594C158.622 324.057 156.522 327.47 153.02 330.517C146.601 336.124 136.331 340.512 128.044 330.883L132.363 328.932C132.363 328.932 138.665 335.027 147.418 328.81C153.487 324.422 154.888 321.375 155.121 319.791C155.238 319.059 155.938 318.45 156.755 318.694C157.572 318.815 158.506 319.547 159.323 321.253Z" fill="white" stroke="#6F3FF5" stroke-miterlimit="10"/>
<path d="M141.583 326.617L134.113 329.908" stroke="#6F3FF5" stroke-miterlimit="10"/>
<path d="M129.328 332.467L114.506 341.121" stroke="#6F3FF5" stroke-miterlimit="10"/>
<path d="M139.949 326.86C139.949 326.86 129.795 309.186 133.646 290.293C133.646 290.293 134.697 283.346 137.148 278.592C137.148 278.592 142.867 277.739 150.219 283.468C150.219 283.468 144.617 292.487 146.485 303.457C148.352 314.427 155.355 319.059 155.355 319.059" fill="white"/>
<path d="M139.949 326.86C139.949 326.86 129.795 309.186 133.646 290.293C133.646 290.293 134.697 283.346 137.148 278.592C137.148 278.592 142.867 277.739 150.219 283.468C150.219 283.468 144.617 292.487 146.485 303.457C148.352 314.427 155.355 319.059 155.355 319.059" stroke="#6F3FF5" stroke-miterlimit="10"/>
<path fill-rule="evenodd" clip-rule="evenodd" d="M151.036 314.671C151.036 314.671 155.588 312.599 156.755 312.721C158.506 312.965 160.14 314.062 161.19 315.525L166.559 322.96L151.036 314.671ZM137.031 320.888C137.031 320.888 134.347 322.107 125.243 326.251C116.14 330.395 118.358 338.927 118.358 338.927" fill="white"/>
<path d="M137.031 320.888C137.031 320.888 134.347 322.107 125.243 326.251C116.14 330.395 118.358 338.927 118.358 338.927M151.036 314.671C151.036 314.671 155.588 312.599 156.755 312.721C158.506 312.965 160.14 314.062 161.19 315.525L166.559 322.96L151.036 314.671Z" stroke="#6F3FF5" stroke-miterlimit="10"/>
<path d="M173.211 364.036C173.211 364.036 169.243 371.106 155.238 376.225C147.885 379.273 147.418 375.86 147.418 375.86" fill="white"/>
<path d="M173.211 364.036C173.211 364.036 169.243 371.106 155.238 376.225C147.885 379.273 147.418 375.86 147.418 375.86" stroke="#6F3FF5" stroke-miterlimit="10"/>
<path fill-rule="evenodd" clip-rule="evenodd" d="M138.898 348.313L139.132 349.044C139.365 349.898 140.182 350.263 140.999 350.02L147.652 347.704C148.469 347.46 148.819 346.607 148.585 345.753L148.352 345.022C148.118 344.169 147.302 343.803 146.485 344.047L139.832 346.363C139.015 346.728 138.548 347.582 138.898 348.313Z" fill="white" stroke="#6F3FF5" stroke-miterlimit="10"/>
<path fill-rule="evenodd" clip-rule="evenodd" d="M136.797 343.315L137.031 343.925C137.264 344.534 137.848 344.9 138.431 344.656L145.667 342.097C146.251 341.853 146.601 341.243 146.367 340.634L146.134 340.024C145.901 339.415 145.317 339.049 144.734 339.293L137.497 341.853C136.914 342.097 136.564 342.706 136.797 343.315Z" fill="white" stroke="#6F3FF5" stroke-miterlimit="10"/>
<path d="M148.701 364.646C152.246 364.646 155.12 361.644 155.12 357.942C155.12 354.239 152.246 351.238 148.701 351.238C145.156 351.238 142.282 354.239 142.282 357.942C142.282 361.644 145.156 364.646 148.701 364.646Z" fill="#02E2AC" stroke="#6F3FF5" stroke-miterlimit="10"/>
<path d="M149.519 282.98L151.153 278.958C151.153 278.958 145.667 274.326 139.948 273.96L137.964 278.592" stroke="#6F3FF5" stroke-miterlimit="10"/>
<path d="M140.649 273.838C140.649 273.838 141.817 264.697 144.618 262.381C144.618 262.381 149.986 261.893 155.355 267.134L156.755 270.913" stroke="#6F3FF5" stroke-miterlimit="10"/>
<path fill-rule="evenodd" clip-rule="evenodd" d="M150.803 278.47L151.503 276.763L153.02 275.666" fill="white"/>
<path d="M150.803 278.47L151.503 276.763L153.02 275.666" stroke="#6F3FF5" stroke-miterlimit="10"/>
<path fill-rule="evenodd" clip-rule="evenodd" d="M151.736 275.179L154.42 276.032L157.805 271.522L155.704 270.303L153.603 272.985" fill="white"/>
<path d="M151.736 275.179L154.42 276.032L157.805 271.522L155.704 270.303L153.603 272.985" stroke="#6F3FF5" stroke-miterlimit="10"/>
<path d="M172.861 365.377C176.713 370.253 184.649 378.541 195.036 382.686C195.036 382.686 195.853 388.658 188.501 393.656C188.501 393.656 174.145 388.536 161.424 373.544" stroke="#6F3FF5" stroke-miterlimit="10"/>
<path fill-rule="evenodd" clip-rule="evenodd" d="M185.933 392.68C185.933 392.68 191.651 388.658 192.002 381.223Z" fill="white"/>
<path d="M185.933 392.68C185.933 392.68 191.651 388.658 192.002 381.223" stroke="#6F3FF5" stroke-miterlimit="10"/>
<path d="M151.503 270.791L153.72 265.915" stroke="#6F3FF5" stroke-miterlimit="10"/>
<path d="M148.352 269.816L150.92 263.965" stroke="#6F3FF5" stroke-miterlimit="10"/>
<path d="M145.317 268.963L148.002 262.503" stroke="#6F3FF5" stroke-miterlimit="10"/>
<path d="M188.967 393.534C188.967 393.534 194.803 400.847 198.421 401.213C198.421 401.213 203.206 398.653 205.073 391.34L204.373 387.317" stroke="#6F3FF5" stroke-miterlimit="10"/>
<path fill-rule="evenodd" clip-rule="evenodd" d="M195.153 383.905L196.903 385.245L198.654 385.367" fill="white"/>
<path d="M195.153 383.905L196.903 385.245L198.654 385.367" stroke="#6F3FF5" stroke-miterlimit="10"/>
<path fill-rule="evenodd" clip-rule="evenodd" d="M197.837 386.342L199.705 384.27L204.84 386.22L203.673 388.414L200.522 387.317" fill="white"/>
<path d="M197.837 386.342L199.705 384.27L204.84 386.22L203.673 388.414L200.522 387.317" stroke="#6F3FF5" stroke-miterlimit="10"/>
<path d="M199.47 390.121L204.255 393.168" stroke="#6F3FF5" stroke-miterlimit="10"/>
<path d="M198.07 393.29L202.855 396.337" stroke="#6F3FF5" stroke-miterlimit="10"/>
<path d="M196.32 396.337L201.105 399.262" stroke="#6F3FF5" stroke-miterlimit="10"/>
<path d="M178.696 347.703C178.579 347.703 178.579 347.703 178.696 347.703C178.579 347.703 178.579 347.703 178.579 347.703C178.463 347.703 178.463 347.703 178.346 347.703C178.229 347.703 178.229 347.703 178.112 347.703C177.996 347.703 178.112 347.703 177.996 347.703C177.879 347.703 177.762 347.703 177.529 347.581C177.412 347.581 177.296 347.46 177.179 347.46C176.712 347.216 176.362 346.85 175.895 346.484C175.545 346.119 175.311 345.631 175.195 345.022C175.195 344.9 175.195 344.9 175.195 344.778C175.195 344.656 175.195 344.656 175.195 344.778V344.656C175.195 344.534 175.195 344.412 175.195 344.169C175.195 344.047 175.195 344.047 175.195 343.925C175.195 344.047 175.195 343.803 175.195 343.803C175.195 343.681 175.311 343.559 175.311 343.315C175.428 342.95 175.195 342.706 174.961 342.584C174.611 342.462 174.378 342.706 174.261 342.95C173.794 344.412 174.144 345.997 175.078 347.094C176.012 348.313 177.412 348.922 178.813 348.678C179.163 348.678 179.28 348.191 179.163 347.947C179.28 347.703 178.929 347.581 178.696 347.703Z" fill="#6F3FF5"/>
<path d="M268.885 155.57L271.351 138.135C271.47 137.138 272.134 136.361 272.889 136.013L288.214 129.798C289.833 129.146 291.43 130.577 291.232 132.458L288.809 149.778C288.689 150.776 288.025 151.553 287.27 151.901L271.946 158.116C270.218 158.724 268.579 157.407 268.885 155.57Z" fill="#02E2AC" stroke="#6F3FF5" stroke-miterlimit="10"/>
</svg>
