<svg width="949" height="802" viewBox="0 0 949 802" fill="none" xmlns="http://www.w3.org/2000/svg">
<path d="M337.072 288.924C382.68 311.214 435.786 347.125 486.627 391.744C594.383 486.315 652.051 585.068 615.67 612.26C579.29 639.453 462.374 584.985 354.618 490.414C246.862 395.843 189.194 297.09 225.574 269.898" stroke="#571AFF" stroke-width="3" stroke-miterlimit="10"/>
<path d="M731.688 614.138C734.509 634.633 730.057 650.432 717.41 659.884C666.651 697.824 504.247 622.016 354.604 490.683C204.96 359.35 124.673 222.165 175.432 184.225C226.191 146.285 388.595 222.093 538.239 353.426C582.044 391.871 619.827 430.662 650.202 467.455" stroke="#571AFF" stroke-width="3" stroke-miterlimit="10"/>
<path d="M438.821 191.568C489.863 225.385 542.916 265.752 594.556 311.073C790.403 482.956 895.295 662.287 828.944 711.881C762.593 761.475 550.132 662.286 354.444 490.543C158.757 318.801 53.8781 139.2 120.056 89.7352C145.176 70.9594 191.426 73.5432 249.505 93.266" stroke="#571AFF" stroke-width="3" stroke-miterlimit="10"/>
<path d="M318.027 144.675C316.401 143.812 319.893 137.304 325.757 130.063C331.621 122.823 337.711 117.751 339.337 118.614" stroke="#571AFF" stroke-miterlimit="10" stroke-linecap="round" stroke-linejoin="round"/>
<path d="M319.014 138.222C322.679 134.963 326.064 130.614 326.237 130.485C326.584 130.226 329.969 125.877 332.168 121.895L337.045 124.485C335.765 126.741 333.779 129.784 331.114 133.075C328.275 136.496 325.81 139.118 323.891 140.813L319.014 138.222Z" fill="#5BF1CD" stroke="#571AFF" stroke-miterlimit="10"/>
<path d="M424.613 169.27C427.224 173.857 427.31 181.119 427.026 184.176L419.192 186.774C416.619 187.232 410.404 188.207 406.13 188.439C400.789 188.729 385.104 185.929 381.386 185.088C378.411 184.415 366.935 179.904 361.568 177.732L349.357 170.225L335.807 160.791C330.416 156.158 319.366 146.507 318.294 144.966C317.222 143.425 318.15 141.063 318.748 140.074L318.975 137.628L331.831 121.807C332.605 121.649 334.327 121.098 335.021 120.156C335.716 119.215 338.444 118.725 339.722 118.598L350.121 121.075L368.542 127.116L383.188 132.927C388.014 135.476 398.525 141.117 401.967 143.294C405.41 145.472 413.643 153.844 417.329 157.758C418.669 159.684 422.001 164.684 424.613 169.27Z" fill="white"/>
<path d="M319.014 138.222C322.679 134.963 326.064 130.614 326.237 130.485C326.584 130.226 329.969 125.877 332.168 121.895L337.045 124.485C335.765 126.741 333.779 129.784 331.114 133.075C328.275 136.496 325.81 139.118 323.891 140.813L319.014 138.222Z" fill="#5BF1CD" stroke="#571AFF" stroke-miterlimit="10"/>
<path d="M318.012 144.945C330.123 156.418 344.379 168.366 359.501 176.289C398.672 197.154 427.336 184.304 427.336 184.304C427.336 184.304 430.484 157.788 391.313 136.923C376.364 128.871 357.31 122.847 339.509 118.485" stroke="#571AFF" stroke-miterlimit="10"/>
<path d="M386.55 185.951C401.154 180.751 413.056 166.139 413.191 153.308" stroke="#571AFF" stroke-miterlimit="10" stroke-linecap="round" stroke-linejoin="round"/>
<path d="M383.793 177.619C394.134 170.929 401.837 160.235 403.85 149.896" stroke="#571AFF" stroke-width="2" stroke-linecap="round" stroke-linejoin="round"/>
<path d="M364.418 178.07C381.395 172.136 395.255 155.022 395.337 139.891" stroke="#571AFF" stroke-miterlimit="10" stroke-linecap="round" stroke-linejoin="round"/>
<path d="M357.857 161.892C367.18 162.686 375.532 157.208 376.512 149.657C377.492 142.106 370.728 135.342 361.405 134.548C352.082 133.755 343.73 139.233 342.751 146.783C341.771 154.334 348.535 161.099 357.857 161.892Z" fill="#5BF1CD" stroke="#571AFF" stroke-miterlimit="10" stroke-linecap="round" stroke-linejoin="round"/>
<path d="M358.449 157.335C364.664 157.864 370.232 154.212 370.885 149.178C371.539 144.144 367.03 139.635 360.814 139.106C354.599 138.577 349.031 142.229 348.378 147.263C347.725 152.297 352.234 156.806 358.449 157.335Z" fill="#FFE48D" stroke="#571AFF" stroke-miterlimit="10" stroke-linecap="round" stroke-linejoin="round"/>
<path d="M339.337 118.614C340.962 119.478 337.47 125.985 331.606 133.226C325.742 140.467 319.652 145.539 318.026 144.675" stroke="#571AFF" stroke-miterlimit="10" stroke-linecap="round" stroke-linejoin="round"/>
<path d="M338.07 123.978L327.504 118.365" stroke="#571AFF" stroke-miterlimit="10" stroke-linecap="round" stroke-linejoin="round"/>
<path d="M334.351 128.316L323.945 122.843" stroke="#571AFF" stroke-miterlimit="10" stroke-linecap="round" stroke-linejoin="round"/>
<path d="M330.794 132.795L320.401 127.052" stroke="#571AFF" stroke-miterlimit="10" stroke-linecap="round" stroke-linejoin="round"/>
<path d="M327.409 137.143L316.843 131.53" stroke="#571AFF" stroke-miterlimit="10" stroke-linecap="round" stroke-linejoin="round"/>
<path d="M313.124 135.868L323.69 141.481" stroke="#571AFF" stroke-miterlimit="10" stroke-linecap="round" stroke-linejoin="round"/>
<path d="M320.577 110.033C324.495 105.026 324.775 99.3605 320.885 97.0722L312.598 92.6142C316.501 94.6327 316.381 100.439 312.289 105.575" fill="#5BF1CD"/>
<path d="M320.577 110.033C324.495 105.026 324.775 99.3605 320.885 97.0722L312.598 92.6142C316.501 94.6327 316.381 100.439 312.289 105.575" stroke="#571AFF" stroke-miterlimit="10" stroke-linecap="round" stroke-linejoin="round"/>
<path d="M301.039 133.989C297.121 138.997 290.498 141.349 286.594 139.33L278.307 134.872C282.211 136.891 288.66 134.668 292.752 129.531" fill="#5BF1CD"/>
<path d="M301.039 133.989C297.121 138.997 290.498 141.349 286.594 139.33L278.307 134.872C282.211 136.891 288.66 134.668 292.752 129.531" stroke="#571AFF" stroke-miterlimit="10" stroke-linecap="round" stroke-linejoin="round"/>
<path d="M326.267 113.056C330.185 108.048 330.466 102.383 326.575 100.094L320.886 97.072C324.79 99.0905 324.669 104.897 320.578 110.033" fill="#5BF1CD"/>
<path d="M326.267 113.056C330.185 108.048 330.466 102.383 326.575 100.094L320.886 97.072C324.79 99.0905 324.669 104.897 320.578 110.033" stroke="#571AFF" stroke-miterlimit="10" stroke-linecap="round" stroke-linejoin="round"/>
<path d="M306.729 137.012C302.81 142.019 296.188 144.371 292.284 142.352L286.595 139.33C290.498 141.348 296.948 139.126 301.039 133.989" fill="#5BF1CD"/>
<path d="M306.729 137.012C302.81 142.019 296.188 144.371 292.284 142.352L286.595 139.33C290.498 141.348 296.948 139.126 301.039 133.989" stroke="#571AFF" stroke-miterlimit="10" stroke-linecap="round" stroke-linejoin="round"/>
<path d="M279.668 124.242L311.685 141.362C313.31 142.225 319.401 137.153 325.265 129.913C331.128 122.672 334.621 116.164 332.995 115.301L300.818 98.0411" fill="white"/>
<path d="M279.668 124.242L311.685 141.362C313.31 142.225 319.401 137.153 325.265 129.913C331.128 122.672 334.621 116.164 332.995 115.301L300.818 98.0411" stroke="#571AFF" stroke-miterlimit="10" stroke-linecap="round" stroke-linejoin="round"/>
<path d="M279.668 124.242L311.685 141.362C313.31 142.225 319.401 137.153 325.265 129.913C331.128 122.672 334.621 116.164 332.995 115.301L300.818 98.0411" fill="white"/>
<path d="M279.668 124.242L311.685 141.362C313.31 142.225 319.401 137.153 325.265 129.913C331.128 122.672 334.621 116.164 332.995 115.301L300.818 98.0411" stroke="#571AFF" stroke-miterlimit="10" stroke-linecap="round" stroke-linejoin="round"/>
<path d="M300.313 101.44C301.748 99.0678 300.635 97.9751 299.899 97.7253L295.84 100.553L288.574 97.0361L287.479 100.659L284.175 103.533L277.664 100.062L276.568 103.685L273.265 106.558L279.078 109.372L276.472 112.903L273.924 115.823L281.19 119.34C280.687 119.309 279.623 119.859 279.396 122.305C279.169 124.751 280.736 124.232 281.548 123.666L284.795 121.404L288.967 117.353L294.064 111.514C295.549 109.145 298.879 103.813 300.313 101.44Z" fill="#F9F7F7"/>
<path d="M295.688 100.577C297.954 98.6236 300.006 97.6094 300.819 98.0412C302.444 98.9047 298.952 105.412 293.088 112.653C287.224 119.894 281.134 124.965 279.509 124.102C278.696 123.67 279.122 121.792 280.415 119.267" stroke="#571AFF" stroke-miterlimit="10" stroke-linecap="round" stroke-linejoin="round"/>
<path d="M306.348 100.923C307.973 101.787 304.481 108.294 298.617 115.535C292.753 122.776 286.663 127.848 285.038 126.984" stroke="#571AFF" stroke-miterlimit="10" stroke-linecap="round" stroke-linejoin="round"/>
<path d="M300.817 98.0411C302.443 98.9047 298.951 105.412 293.087 112.653C287.223 119.894 281.133 124.965 279.507 124.102" stroke="#571AFF" stroke-miterlimit="10" stroke-linecap="round" stroke-linejoin="round"/>
<path d="M290.435 115.674L272.715 106.316L290.435 115.674ZM277.699 99.9922L295.42 109.351L277.699 99.9922ZM283.229 102.874L295.42 109.351L283.229 102.874ZM288.373 96.6909L299.098 102.444L288.373 96.6909ZM273.1 115.381L284.319 121.286L273.1 115.381ZM278.084 109.058L288.81 114.811Z" fill="white"/>
<path d="M278.084 109.058L288.81 114.811M290.435 115.674L272.715 106.316L290.435 115.674ZM277.699 99.9922L295.42 109.351L277.699 99.9922ZM283.229 102.874L295.42 109.351L283.229 102.874ZM288.373 96.6909L299.098 102.444L288.373 96.6909ZM273.1 115.381L284.319 121.286L273.1 115.381Z" stroke="#571AFF" stroke-miterlimit="10" stroke-linecap="round" stroke-linejoin="round"/>
<path d="M427.03 183.753C427.084 182.674 427.138 178.217 425.26 172.346L424.394 169.615L423.754 172.432C422.487 177.796 417.876 183.321 412.386 186.385L409.468 188.047L412.826 187.616C420.381 186.645 425.138 184.908 426.497 184.412L427.004 184.293L427.03 183.753Z" fill="#FFE48D"/>
<path d="M283.229 102.874C282.576 102.583 283.163 100.845 284.589 98.9999C285.841 97.2841 287.734 96.1295 288.213 96.5505" fill="white"/>
<path d="M283.229 102.874C282.576 102.583 283.163 100.845 284.589 98.9999C285.841 97.2841 287.734 96.1295 288.213 96.5505" stroke="#571AFF" stroke-miterlimit="10" stroke-linecap="round" stroke-linejoin="round"/>
<path d="M273.1 115.381C272.447 115.09 273.034 113.353 274.46 111.507C275.713 109.791 277.605 108.637 278.084 109.058" fill="white"/>
<path d="M273.1 115.381C272.447 115.09 273.034 113.353 274.46 111.507C275.713 109.791 277.605 108.637 278.084 109.058" stroke="#571AFF" stroke-miterlimit="10" stroke-linecap="round" stroke-linejoin="round"/>
<path d="M272.555 106.176C271.902 105.884 272.489 104.147 273.915 102.301C275.341 100.456 277.06 99.4311 277.54 99.852" fill="white"/>
<path d="M272.555 106.176C271.902 105.884 272.489 104.147 273.915 102.301C275.341 100.456 277.06 99.4311 277.54 99.852" stroke="#571AFF" stroke-miterlimit="10" stroke-linecap="round" stroke-linejoin="round"/>
<path d="M277.484 111.065C277.337 110.655 277.031 110.104 276.378 109.813C275.725 109.521 275.232 109.37 274.566 109.349C274.406 109.208 274.246 109.068 274.086 108.928C273.434 108.636 272.767 108.614 272.261 108.733L272.101 108.593C271.288 108.161 270.276 108.398 269.743 109.057C269.21 109.715 269.503 110.535 270.315 110.967L270.475 111.107C270.622 111.517 270.928 112.068 271.581 112.359C271.741 112.5 272.074 112.51 272.234 112.651C272.38 113.061 272.86 113.482 273.34 113.903C273.992 114.194 274.485 114.345 275.325 114.237" fill="#FFE48D"/>
<path d="M277.484 111.065C277.337 110.655 277.031 110.104 276.378 109.813C275.725 109.521 275.232 109.37 274.566 109.349C274.406 109.208 274.246 109.068 274.086 108.928C273.434 108.636 272.767 108.614 272.261 108.733L272.101 108.593C271.288 108.161 270.276 108.398 269.743 109.057C269.21 109.715 269.503 110.535 270.315 110.967L270.475 111.107C270.622 111.517 270.928 112.068 271.581 112.359C271.741 112.5 272.074 112.51 272.234 112.651C272.38 113.061 272.86 113.482 273.34 113.903C273.992 114.194 274.485 114.345 275.325 114.237" stroke="#571AFF" stroke-miterlimit="10" stroke-linecap="round"/>
<path d="M287.613 98.5579C287.466 98.1478 287.16 97.5974 286.507 97.3059C285.854 97.0145 285.361 96.8633 284.695 96.8417C284.535 96.7014 284.375 96.561 284.215 96.4207C283.562 96.1293 282.896 96.1076 282.39 96.2263L282.23 96.086C281.417 95.6542 280.404 95.8915 279.871 96.5498C279.338 97.2081 279.631 98.0283 280.444 98.4601L280.604 98.6004C280.75 99.0105 281.057 99.5609 281.71 99.8524C281.87 99.9927 282.203 100.004 282.363 100.144C282.509 100.554 282.989 100.975 283.468 101.396C284.121 101.687 284.614 101.838 285.454 101.731" fill="#FFE48D"/>
<path d="M287.613 98.5579C287.466 98.1478 287.16 97.5974 286.507 97.3059C285.854 97.0145 285.361 96.8633 284.695 96.8417C284.535 96.7014 284.375 96.561 284.215 96.4207C283.562 96.1293 282.896 96.1076 282.39 96.2263L282.23 96.086C281.417 95.6542 280.404 95.8915 279.871 96.5498C279.338 97.2081 279.631 98.0283 280.444 98.4601L280.604 98.6004C280.75 99.0105 281.057 99.5609 281.71 99.8524C281.87 99.9927 282.203 100.004 282.363 100.144C282.509 100.554 282.989 100.975 283.468 101.396C284.121 101.687 284.614 101.838 285.454 101.731" stroke="#571AFF" stroke-miterlimit="10" stroke-linecap="round"/>
<path d="M277.459 101.471C277.326 100.791 276.686 100.229 275.874 99.7976C275.061 99.3659 274.235 99.2039 273.395 99.3117C273.076 99.0311 272.916 98.8908 272.596 98.6102C271.783 98.1784 270.957 98.0165 270.104 98.3941L269.944 98.2538C268.972 97.6817 267.626 97.9082 266.92 98.696C266.213 99.4837 266.493 100.574 267.466 101.146L267.626 101.286C267.759 101.966 268.225 102.657 269.038 103.089C269.357 103.369 269.691 103.38 270.024 103.391C270.33 103.941 270.796 104.632 271.609 105.064C272.422 105.496 273.248 105.657 274.087 105.55" fill="#FFE48D"/>
<path d="M277.459 101.471C277.326 100.791 276.686 100.229 275.874 99.7976C275.061 99.3659 274.235 99.2039 273.395 99.3117C273.076 99.0311 272.916 98.8908 272.596 98.6102C271.783 98.1784 270.957 98.0165 270.104 98.3941L269.944 98.2538C268.972 97.6817 267.626 97.9082 266.92 98.696C266.213 99.4837 266.493 100.574 267.466 101.146L267.626 101.286C267.759 101.966 268.225 102.657 269.038 103.089C269.357 103.369 269.691 103.38 270.024 103.391C270.33 103.941 270.796 104.632 271.609 105.064C272.422 105.496 273.248 105.657 274.087 105.55" stroke="#571AFF" stroke-miterlimit="10" stroke-linecap="round"/>
<path d="M277.7 99.9921C278.353 100.284 277.766 102.021 276.34 103.866C274.914 105.712 273.195 106.737 272.715 106.316" stroke="#571AFF" stroke-miterlimit="10" stroke-linecap="round" stroke-linejoin="round"/>
<path d="M278.085 109.057C278.737 109.349 278.151 111.086 276.725 112.932C275.299 114.777 273.58 115.802 273.1 115.381" stroke="#571AFF" stroke-miterlimit="10" stroke-linecap="round" stroke-linejoin="round"/>
<path d="M288.372 96.6911C289.025 96.9826 288.439 98.72 287.013 100.565C285.587 102.411 283.867 103.436 283.388 103.015" stroke="#571AFF" stroke-miterlimit="10" stroke-linecap="round" stroke-linejoin="round"/>
<path d="M318.012 144.945C330.123 156.418 344.379 168.366 359.501 176.289C398.672 197.154 427.336 184.304 427.336 184.304C427.336 184.304 430.484 157.788 391.313 136.923C376.364 128.871 357.31 122.847 339.509 118.485" stroke="#571AFF" stroke-miterlimit="10"/>
<path d="M408.974 187.896C417.463 184.929 424.22 176.501 424.247 169.206" stroke="#571AFF" stroke-miterlimit="10" stroke-linecap="round" stroke-linejoin="round"/>
<path d="M277.232 288.788L281.571 287.889L278.069 276.79L273.729 277.688L277.232 288.788Z" fill="white" stroke="#571AFF" stroke-miterlimit="10"/>
<path d="M281.153 294.065L279.529 289.154C278.895 287.154 280.353 284.937 283.045 284.487L289.109 283.172C291.579 282.659 294.315 283.84 294.871 286.02L296.495 290.931C297.129 292.932 295.671 295.148 292.978 295.598L286.915 296.913C284.523 297.246 281.786 296.066 281.153 294.065ZM290.94 308.979L297.004 307.664C299.474 307.151 301.154 304.997 300.52 302.997L298.897 298.086C298.263 296.085 295.604 294.725 293.134 295.238L287.071 296.553C284.601 297.066 282.921 299.22 283.555 301.22L285.178 306.131C285.734 308.311 288.393 309.672 290.94 308.979ZM271.873 299.93L277.937 298.615C280.407 298.102 282.087 295.949 281.453 293.948L279.83 289.037C279.196 287.037 276.537 285.676 274.067 286.189L268.004 287.504C265.534 288.017 263.854 290.171 264.487 292.171L266.111 297.082C266.667 299.263 269.181 300.38 271.873 299.93ZM275.821 312.176L281.884 310.861C284.354 310.348 286.034 308.194 285.401 306.194L283.777 301.283C283.143 299.283 280.485 297.922 278.015 298.435L271.951 299.75C269.481 300.263 267.801 302.417 268.435 304.417L270.058 309.328C270.614 311.509 273.128 312.626 275.821 312.176Z" fill="#FFE48D" stroke="#571AFF" stroke-miterlimit="10"/>
<path d="M285.833 264.439L286.942 267.954L296.534 265.968L295.425 262.453L285.833 264.439Z" fill="white" stroke="#571AFF" stroke-miterlimit="10"/>
<path d="M253.225 271.189L254.393 274.889L263.985 272.903L262.818 269.203L253.225 271.189Z" fill="white" stroke="#571AFF" stroke-miterlimit="10"/>
<path d="M268.688 261.195L273.028 260.297L269.525 249.198L265.186 250.096L268.688 261.195Z" fill="white" stroke="#571AFF" stroke-miterlimit="10"/>
<path d="M314.1 258.296L315.513 262.541L332.079 257.731L331.367 255.91L314.1 258.296Z" stroke="#571AFF" stroke-miterlimit="10"/>
<path d="M316.077 280.301C305.653 279.57 296.52 273.541 293.774 264.872C291.027 256.204 295.59 247.383 304.179 242.536L316.077 280.301Z" fill="#5BF1CD" stroke="#571AFF" stroke-miterlimit="10"/>
<path d="M302.399 242.031L314.864 281.373C315.286 282.706 317.133 283.635 318.78 283.293C320.426 282.95 321.572 281.455 321.15 280.121L308.685 240.779C308.262 239.446 306.416 238.518 304.769 238.86C302.9 239.139 301.976 240.698 302.399 242.031Z" fill="white" stroke="#571AFF" stroke-miterlimit="10"/>
<path d="M246.457 267.435L250.683 280.772C251.039 281.682 252.073 282.177 252.974 281.826L254.398 281.421C255.522 281.133 256.134 280.295 255.7 279.565L251.475 266.229C251.119 265.318 250.085 264.823 249.183 265.174L247.759 265.579C246.936 265.75 246.324 266.588 246.457 267.435Z" fill="white" stroke="#571AFF" stroke-miterlimit="10"/>
<path d="M241.706 270.336L244.731 280.095C245.087 281.005 246.121 281.501 247.022 281.149L248.446 280.744C249.57 280.456 250.182 279.618 249.748 278.888L246.724 269.129C246.368 268.219 245.334 267.723 244.432 268.075L243.008 268.48C242.185 268.651 241.573 269.489 241.706 270.336Z" fill="white" stroke="#571AFF" stroke-miterlimit="10"/>
<path d="M329.002 255.011C327.724 256.207 327.885 258.016 329.361 259.051C330.838 260.086 333.071 259.956 334.349 258.76C335.628 257.564 335.467 255.756 333.99 254.72C332.514 253.685 330.281 253.815 329.002 255.011Z" fill="white" stroke="#571AFF" stroke-miterlimit="10"/>
<path d="M256.815 267.743L259.706 276.654C260.617 279.745 264.533 281.665 268.427 280.746L285.115 277.387C288.932 276.648 291.302 273.477 290.167 270.323L287.276 261.411C286.365 258.321 282.449 256.401 278.555 257.32L261.867 260.679C258.051 261.417 255.903 264.652 256.815 267.743Z" fill="white" stroke="#571AFF" stroke-miterlimit="10"/>
<path d="M280.649 240.92L282.272 245.831C282.906 247.832 281.448 250.048 278.756 250.499L272.693 251.813C270.223 252.327 267.486 251.146 266.93 248.966L265.307 244.055C264.673 242.054 266.131 239.838 268.823 239.387L274.886 238.073C277.356 237.559 280.093 238.74 280.649 240.92ZM268.823 239.387L274.886 238.073C277.356 237.559 279.037 235.406 278.403 233.405L276.779 228.494C276.145 226.494 273.487 225.133 271.017 225.646L264.953 226.961C262.484 227.475 260.803 229.628 261.437 231.629L263.061 236.539C263.694 238.54 266.353 239.901 268.823 239.387ZM257.651 254.83L263.714 253.516C266.184 253.002 267.864 250.849 267.231 248.848L265.607 243.937C264.973 241.937 262.315 240.576 259.845 241.089L253.781 242.404C251.311 242.918 249.631 245.071 250.265 247.072L251.888 251.982C252.522 253.983 254.958 255.281 257.651 254.83ZM253.781 242.404L259.845 241.089C262.315 240.576 263.995 238.423 263.361 236.422L261.738 231.511C261.104 229.511 258.445 228.15 255.975 228.663L249.912 229.978C247.442 230.492 245.762 232.645 246.395 234.645L248.019 239.556C248.575 241.737 251.233 243.098 253.781 242.404Z" fill="#FFE48D" stroke="#571AFF" stroke-miterlimit="10"/>
<path d="M665.669 495.387C662.218 490.951 653.197 491.199 651.133 485.727C650.174 484.885 649.068 480.255 649.682 477.978C649.882 477.309 650.894 477.072 651.374 477.492C652 478.324 652.799 479.025 653.945 479.468C659.648 482.22 660.022 478.044 654.732 473.683C653.134 472.28 661.448 472.82 662.914 473.544C664.699 474.548 665.885 477.559 665.258 480.106C665.018 481.584 666.284 482.976 668.455 482.912C669.122 482.933 669.961 482.826 670.654 482.308C673.013 478.466 671.735 473.965 667.844 471.677C667.524 471.397 667.711 470.997 668.377 471.019C676.971 472.649 681.048 481.294 675.61 486.657C674.717 487.844 673.651 489.161 674.69 491.762" fill="#FFE48D"/>
<path d="M665.669 495.387C662.218 490.951 653.197 491.199 651.133 485.727C650.174 484.885 649.068 480.255 649.682 477.978C649.882 477.309 650.894 477.072 651.374 477.492C652 478.324 652.799 479.025 653.945 479.468C659.648 482.22 660.022 478.044 654.732 473.683C653.134 472.28 661.448 472.82 662.914 473.544C664.699 474.548 665.885 477.559 665.258 480.106C665.018 481.584 666.284 482.976 668.455 482.912C669.122 482.933 669.961 482.826 670.654 482.308C673.013 478.466 671.735 473.965 667.844 471.677C667.524 471.397 667.711 470.997 668.377 471.019C676.971 472.649 681.048 481.294 675.61 486.657C674.717 487.844 673.651 489.161 674.69 491.762" stroke="#571AFF" stroke-miterlimit="10" stroke-linecap="round" stroke-linejoin="round"/>
<path d="M665.555 503.682L682.372 497.66L678.75 491.024L661.932 497.046L665.555 503.682Z" fill="white" stroke="#571AFF" stroke-miterlimit="10"/>
<path d="M664.998 508.877L687.637 500.77L684.015 494.134L661.376 502.241L664.998 508.877Z" fill="white" stroke="#571AFF" stroke-miterlimit="10"/>
<path d="M662.042 507.97L688.88 498.303L724.98 564.332C727.431 568.736 729.029 573.517 730.121 578.417L732.609 605.656C732.728 606.606 731.196 607.231 730.57 606.4L707.361 586.595C703.551 582.688 700.42 578.532 697.969 574.129L662.042 507.97Z" fill="white" stroke="#571AFF" stroke-miterlimit="10"/>
<path d="M678.516 538.785L705.467 529.133L701.177 521.275L674.226 530.926L678.516 538.785Z" fill="#5BF1CD" stroke="#571AFF" stroke-miterlimit="10"/>
<path d="M648.797 512.674L662.043 507.97L691.242 561.75L648.797 512.674Z" stroke="#571AFF" stroke-miterlimit="10" stroke-linecap="round" stroke-linejoin="round"/>
<path d="M701.792 493.588L688.88 498.303L718.08 552.083L701.792 493.588Z" stroke="#571AFF" stroke-miterlimit="10" stroke-linecap="round" stroke-linejoin="round"/>
<path d="M716.134 579.082C719.554 578.426 721.67 575.647 720.86 572.877C720.049 570.106 716.619 568.393 713.198 569.049C709.778 569.706 707.662 572.484 708.472 575.254C709.283 578.025 712.713 579.739 716.134 579.082Z" fill="#FFE48D" stroke="#571AFF" stroke-miterlimit="10"/>
<path d="M592.651 472.218C548.468 524.682 460.037 538.289 395.092 502.411C330.148 466.533 313.516 394.884 357.699 342.42C401.882 289.956 490.313 276.35 555.257 312.228C620.201 348.106 636.834 419.754 592.651 472.218Z" fill="#58EAD3" stroke="#571AFF" stroke-width="2"/>
<path fill-rule="evenodd" clip-rule="evenodd" d="M528.104 437.786C531.84 440.227 535.037 442.329 537.007 443.648C537.688 444.105 538.235 444.677 538.61 445.325C538.985 445.974 539.178 446.681 539.175 447.396L539.114 469.433C538.938 470.281 538.396 471.051 537.586 471.607C536.775 472.162 535.748 472.467 534.686 472.467H476.463C432.847 472.467 396.501 443.564 396.845 408.24C397.069 385.508 411.996 365.615 434.304 354.485L434.304 332.913C434.304 332.082 434.515 331.26 434.923 330.498C435.331 329.736 435.929 329.05 436.678 328.482C437.427 327.914 438.312 327.477 439.278 327.198C440.244 326.919 441.271 326.803 442.294 326.858C446.276 327.067 449.287 329.889 449.287 333.12V348.685C455.336 346.952 461.626 345.828 468.015 345.339V332.913C468.015 332.082 468.226 331.26 468.634 330.498C469.043 329.736 469.64 329.05 470.389 328.482C471.138 327.914 472.023 327.477 472.989 327.198C473.956 326.919 474.982 326.803 476.006 326.858C479.988 327.067 482.998 329.889 482.998 333.12V345.334C501.958 346.785 518.962 353.685 531.583 364.081C533.947 366.027 536.155 368.094 538.194 370.268C539.759 371.937 539.407 373.225 537.253 374.388L528.53 380.124C535.472 388.614 539.177 398.572 539.182 408.758C539.208 419.124 535.341 429.247 528.104 437.786ZM516.585 430.286C521.687 423.869 524.403 416.396 524.403 408.758C524.403 400.947 521.481 393.531 516.66 387.397L498.488 398.53C500.579 401.613 501.692 405.069 501.726 408.587C501.76 412.105 500.714 415.575 498.683 418.684L499.268 419.063C501.82 420.714 509.006 425.363 516.585 430.286ZM524.198 460.332L524.278 451.424L487.322 427.712C483.659 429.215 479.61 429.997 475.503 429.994C461.023 429.994 449.283 420.487 449.283 408.758C449.283 397.029 461.023 387.521 475.503 387.521C479.547 387.518 483.535 388.275 487.156 389.733L517.739 370.248C506.369 361.684 492.256 357.183 475.503 357.183C466.46 357.177 457.52 358.738 449.283 361.761V381.454C449.283 382.285 449.072 383.106 448.664 383.869C448.256 384.631 447.659 385.317 446.91 385.885C446.161 386.452 445.276 386.889 444.31 387.168C443.344 387.448 442.317 387.564 441.294 387.508C437.312 387.299 434.301 384.478 434.301 381.246V369.45C420.632 378.858 411.921 392.85 411.827 408.499C411.654 437.005 441.092 460.332 476.29 460.332H524.198ZM484.847 413.815C486.082 412.318 486.741 410.558 486.741 408.758C486.741 406.344 485.557 404.029 483.45 402.322C481.342 400.615 478.484 399.656 475.503 399.656C473.281 399.656 471.108 400.19 469.26 401.19C467.412 402.19 465.971 403.612 465.121 405.275C464.27 406.938 464.048 408.768 464.481 410.534C464.915 412.299 465.985 413.921 467.557 415.194C469.128 416.467 471.131 417.334 473.311 417.685C475.491 418.036 477.75 417.856 479.804 417.167C481.857 416.478 483.613 415.312 484.847 413.815Z" fill="#571AFF"/>
</svg>
