<svg width="398" height="452" viewBox="0 0 398 452" fill="none" xmlns="http://www.w3.org/2000/svg">
<path d="M189.568 94.2861L179.416 294.429M318.103 199.768L193.428 350.32L318.103 199.768ZM245.185 203.741L184.563 352.923L245.185 203.741ZM123.799 132.643L164.547 321.142L123.799 132.643ZM77.9033 194.289L164.261 361.006L77.9033 194.289Z" stroke="#6F3FF5" stroke-width="1.81596" stroke-miterlimit="10"/>
<path d="M113.403 137.808C133.421 135.797 147.831 117.597 145.59 97.1571C143.348 76.7177 125.303 61.7789 105.286 63.7905C85.2677 65.802 70.8571 84.0022 73.0987 104.442C75.3402 124.881 93.3849 139.82 113.403 137.808Z" fill="#6731FD" stroke="#03EDB4" stroke-width="1.81596" stroke-miterlimit="10"/>
<path d="M106.115 139.577C126.132 137.565 140.543 119.365 138.301 98.9253C136.06 78.4858 118.015 63.5471 97.9974 65.5586C77.9796 67.5702 63.5691 85.7704 65.8106 106.21C68.0521 126.649 86.0968 141.588 106.115 139.577Z" fill="#6731FD" stroke="#03EDB4" stroke-width="1.81596" stroke-miterlimit="10"/>
<path d="M105.249 131.685C121.028 130.1 132.39 115.778 130.626 99.6971C128.863 83.616 114.642 71.8651 98.8629 73.4507C83.0842 75.0363 71.7226 89.3579 73.4861 105.439C75.2497 121.52 89.4705 133.271 105.249 131.685Z" fill="white" stroke="#6F3FF5" stroke-width="1.81596" stroke-miterlimit="10"/>
<path d="M363.396 117.284L353.816 112.598C334.8 104.191 309.778 117.284 298.054 141.954C286.33 166.624 292.192 193.361 311.351 201.768L321.789 207.281" fill="#03EDB4"/>
<path d="M363.396 117.284L353.816 112.598C334.8 104.191 309.778 117.284 298.054 141.954C286.33 166.624 292.192 193.361 311.351 201.768L321.789 207.281" stroke="#6F3FF5" stroke-width="1.81596" stroke-miterlimit="10" stroke-linecap="round"/>
<path d="M376.674 176.868C388.452 152.279 382.528 125.554 363.442 117.177C344.356 108.8 319.335 121.942 307.557 146.531C295.779 171.12 301.703 197.845 320.789 206.222C339.875 214.599 364.896 201.457 376.674 176.868Z" fill="#03EDB4" stroke="#6F3FF5" stroke-width="1.81596" stroke-miterlimit="10"/>
<path d="M369.398 173.675C378.676 154.306 373.982 133.243 358.914 126.629C343.846 120.015 324.11 130.356 314.832 149.725C305.554 169.094 310.248 190.157 325.316 196.771C340.384 203.384 360.12 193.044 369.398 173.675Z" fill="white" stroke="#6F3FF5" stroke-width="1.81596" stroke-miterlimit="10"/>
<path d="M33.9805 113.245L43.5601 108.622C62.5765 100.329 87.5981 113.245 99.3224 137.581C111.047 161.918 105.185 188.293 86.0253 196.587L75.5877 202.025" fill="#03EDB4"/>
<path d="M33.9805 113.245L43.5601 108.622C62.5765 100.329 87.5981 113.245 99.3224 137.581C111.047 161.918 105.185 188.293 86.0253 196.587L75.5877 202.025" stroke="#6F3FF5" stroke-width="1.81596" stroke-miterlimit="10" stroke-linecap="round"/>
<path d="M77.2114 202.124C96.2975 193.747 102.222 167.022 90.4434 142.433C78.6651 117.844 53.6445 104.701 34.5584 113.079C15.4723 121.456 9.5482 148.181 21.3265 172.77C33.1048 197.359 58.1253 210.501 77.2114 202.124Z" fill="#03EDB4" stroke="#6F3FF5" stroke-width="1.81596" stroke-miterlimit="10"/>
<path d="M72.6849 192.672C87.7528 186.058 92.4466 164.995 83.1688 145.626C73.8909 126.257 54.1547 115.917 39.0867 122.53C24.0187 129.144 19.3249 150.207 28.6028 169.576C37.8807 188.945 57.6169 199.286 72.6849 192.672Z" fill="white" stroke="#6F3FF5" stroke-width="1.81596" stroke-miterlimit="10"/>
<path d="M66.922 174.732V154.456C66.922 153.353 66.3245 152.25 65.4281 151.56L48.8452 138.319C47.0525 136.94 44.9609 137.767 44.9609 139.974V160.249C44.9609 161.353 45.5585 162.456 46.4549 163.146L63.0378 176.387C64.8305 177.766 66.922 176.939 66.922 174.732Z" fill="#03EDB4" stroke="#6F3FF5" stroke-width="1.81596" stroke-miterlimit="10"/>
<path d="M294.895 162.913C297.639 137.889 279.945 115.602 255.374 113.133C230.804 110.664 208.66 128.948 205.916 153.971C203.172 178.994 220.866 201.282 245.437 203.751C270.008 206.22 292.151 187.936 294.895 162.913Z" fill="#6731FD" stroke="#03EDB4" stroke-width="1.81596" stroke-miterlimit="10"/>
<path d="M303.818 165.102C306.562 140.078 288.868 117.791 264.297 115.322C239.726 112.853 217.583 131.137 214.839 156.16C212.095 181.184 229.789 203.471 254.36 205.94C278.931 208.409 301.074 190.125 303.818 165.102Z" fill="#6731FD" stroke="#03EDB4" stroke-width="1.81596" stroke-miterlimit="10"/>
<path d="M294.294 164.145C296.453 144.457 282.548 126.923 263.237 124.983C243.926 123.042 226.521 137.429 224.362 157.117C222.202 176.805 236.107 194.339 255.418 196.279C274.73 198.22 292.135 183.833 294.294 164.145Z" fill="white" stroke="#03EDB4" stroke-width="1.81596" stroke-miterlimit="10"/>
<path d="M251.565 177.546L246.992 158.255C246.706 157.161 247.135 156.066 247.849 155.382L262.714 142.385C264.286 141.017 266.716 141.838 267.287 143.89L271.861 163.044C272.147 164.138 271.718 165.233 271.003 165.917L256.139 178.914C254.424 180.283 251.994 179.599 251.565 177.546Z" fill="#6731FD" stroke="#03EDB4" stroke-width="1.81596" stroke-miterlimit="10"/>
<path d="M187.708 137.645C227.126 137.645 259.081 107.056 259.081 69.3223C259.081 31.5889 227.126 1 187.708 1C148.289 1 116.334 31.5889 116.334 69.3223C116.334 107.056 148.289 137.645 187.708 137.645Z" fill="#03EDB4" stroke="#6F3FF5" stroke-width="1.81596" stroke-miterlimit="10"/>
<path d="M188.394 123.192C219.853 123.192 245.356 99.0736 245.356 69.3224C245.356 39.5711 219.853 15.4529 188.394 15.4529C156.935 15.4529 131.433 39.5711 131.433 69.3224C131.433 99.0736 156.935 123.192 188.394 123.192Z" fill="white" stroke="#6F3FF5" stroke-width="1.81596" stroke-miterlimit="10"/>
<path d="M183.972 97.6105L167.755 72.2663C166.909 70.911 166.909 69.1491 167.755 67.7938L183.972 42.4497C185.664 39.7391 189.753 39.7391 191.446 42.4497L207.663 67.7938C208.509 69.1491 208.509 70.911 207.663 72.2663L191.446 97.6105C189.753 100.186 185.664 100.186 183.972 97.6105Z" fill="#03EDB4" stroke="#6F3FF5" stroke-width="1.81596" stroke-miterlimit="10"/>
<path d="M104.897 115.366L92.3299 107.231C91.6674 106.791 91.3035 106.009 91.4061 105.244L93.5046 90.8607C93.71 89.3305 95.5592 88.5428 96.8842 89.421L109.452 97.556C110.114 97.9951 110.478 98.7778 110.375 99.5429L108.277 113.926C108.044 115.396 106.194 116.184 104.897 115.366Z" fill="#6731FD" stroke="#6F3FF5" stroke-width="1.81596" stroke-miterlimit="10"/>
<path d="M83.0432 379.4L86.4747 377.429C87.161 378.962 88.9453 382.685 90.5924 385.312C92.2395 387.94 95.8539 391.663 97.4552 393.196L101.573 397.137L125.593 391.882L130.397 391.225C130.397 390.787 130.26 389.385 129.711 387.283C129.162 385.181 129.939 384.655 130.397 384.655C131.769 383.999 134.926 382.553 136.573 382.028C138.221 381.502 139.547 382.247 140.005 382.685L144.809 380.057V378.086C144.809 377.429 144.809 374.144 145.495 372.83C146.044 371.779 148.927 368.889 150.299 367.575L155.789 364.947L165.397 361.005L168.143 359.692C167.456 357.94 165.946 354.042 165.397 352.465C164.711 350.494 162.652 341.297 162.652 338.669C162.652 336.567 163.11 330.786 163.339 328.158L164.711 320.275L167.456 313.705L168.829 312.392L170.888 307.793L172.26 307.136L172.947 303.194L174.319 298.596L176.378 294.654H178.437H181.868L186.672 297.282L190.104 299.91L191.476 303.194L192.849 304.508L189.417 309.764L187.358 309.107L184.613 311.735L185.3 313.049L183.241 316.99L183.884 318.222C183.915 318.225 183.927 318.257 183.927 318.304L183.884 318.222C183.773 318.214 183.419 318.62 182.554 320.275C181.182 322.903 179.123 330.129 179.123 336.699C179.123 341.954 181.411 347.21 182.554 349.18L185.3 353.122L188.045 351.808L191.476 351.151L194.908 351.808L196.966 353.779L201.77 359.692L204.516 362.319L208.633 363.633L211.378 365.604L213.437 367.575L217.555 365.604C218.928 364.947 218.928 364.947 218.241 362.976C217.692 361.4 218.928 360.13 219.614 359.692C220.758 359.035 223.594 357.589 225.79 357.064C227.987 356.538 228.993 357.283 229.222 357.721L230.594 359.692C231.281 359.473 233.202 358.903 235.398 358.378C238.144 357.721 242.261 358.378 244.32 359.035C245.967 359.56 248.667 361.881 249.81 362.976C250.954 364.071 253.516 367.312 254.614 371.517C255.712 375.721 253.699 379.838 252.555 381.371L249.81 384.655L250.497 386.626L248.438 390.568C246.15 391.444 241.026 393.459 238.83 394.51C236.634 395.561 233.797 394.51 232.653 393.853L231.967 392.539L225.104 395.167L222.359 396.48V399.765C222.359 401.079 219.614 404.364 218.241 405.678C217.143 406.729 213.666 407.868 212.065 408.306L211.378 409.619L215.496 414.218L222.359 420.131L229.908 425.386C231.738 426.262 235.81 428.145 237.457 428.671C239.104 429.196 239.059 430.204 238.83 430.642L240.202 431.956L242.948 432.612L245.006 431.299L250.497 433.269C250.268 433.488 249.948 434.321 250.497 435.897C251.046 437.474 250.725 440.058 250.497 441.153L248.438 445.094C247.752 445.751 246.104 447.459 245.006 449.036C243.908 450.613 241.804 450.131 240.889 449.693L234.026 444.437L231.281 441.81H230.594C228.078 440.496 222.633 437.737 220.986 437.211C219.339 436.686 211.15 430.861 207.261 428.014L199.712 421.444L197.653 419.474C194.679 420.568 188.182 422.89 185.986 423.415C183.79 423.941 181.868 423.196 181.182 422.758L179.809 422.101L177.75 422.758L163.339 428.014C162.423 428.233 160.731 428.802 161.28 429.328C161.829 429.853 160.593 431.299 159.907 431.956C159.221 432.174 157.299 432.875 155.103 433.926C152.907 434.977 151.443 434.364 150.985 433.926L148.927 431.299L136.573 430.642L128.338 431.299H120.789C118.044 431.299 115.527 429.109 114.612 428.014L109.122 422.758C108.436 421.444 106.102 418.817 102.259 418.817C97.4552 418.817 92.6512 416.189 90.5924 414.218C88.9453 412.641 86.2459 407.43 85.1021 405.021L80.2981 393.196L78.2393 386.626L80.2981 382.685L83.0432 379.4Z" fill="white"/>
<path d="M80.2002 371.55L76.3412 369.498H76.1983C76.0554 369.498 68.1945 369.635 59.619 372.644C56.3317 373.739 54.4737 376.065 53.1874 378.254C52.1869 380.58 51.7581 382.769 51.6152 384.274C51.4723 385.505 52.3298 386.736 53.4732 387.284L58.1898 389.336" fill="white"/>
<path d="M80.2002 371.55L76.3412 369.498H76.1983C76.0554 369.498 68.1945 369.635 59.619 372.644C56.3317 373.739 54.4737 376.065 53.1874 378.254C52.1869 380.58 51.7581 382.769 51.6152 384.274C51.4723 385.505 52.3298 386.736 53.4732 387.284L58.1898 389.336" stroke="#6F3FF5" stroke-width="1.81596" stroke-miterlimit="10"/>
<path d="M80.2002 371.55L76.3412 369.498H76.1983C76.0554 369.498 68.1945 369.635 59.619 372.644C56.3317 373.739 54.4737 376.065 53.1874 378.254C52.1869 380.58 51.7581 382.769 51.6152 384.274C51.4723 385.505 52.3298 386.736 53.4732 387.284L58.1898 389.336" fill="white"/>
<path d="M80.2002 371.55L76.3412 369.498H76.1983C76.0554 369.498 68.1945 369.635 59.619 372.644C56.3317 373.739 54.4737 376.065 53.1874 378.254C52.1869 380.58 51.7581 382.769 51.6152 384.274C51.4723 385.505 52.3298 386.736 53.4732 387.284L58.1898 389.336" stroke="#6F3FF5" stroke-width="1.81596" stroke-miterlimit="10"/>
<path d="M78.2001 386.736L63.3359 389.883C61.7637 390.294 59.7628 389.746 58.0477 389.199C57.3331 388.925 56.6184 388.515 56.0467 388.105C54.9033 387.01 54.4746 385.505 54.9033 384.137C55.618 381.401 57.476 376.749 62.4784 375.381C69.3388 373.465 77.7714 371.96 79.2006 371.687L86.061 376.886" fill="white"/>
<path d="M78.2001 386.736L63.3359 389.883C61.7637 390.294 59.7628 389.746 58.0477 389.199C57.3331 388.925 56.6184 388.515 56.0467 388.105C54.9033 387.01 54.4746 385.505 54.9033 384.137C55.618 381.401 57.476 376.749 62.4784 375.381C69.3388 373.465 77.7714 371.96 79.2006 371.687L86.061 376.886" stroke="#6F3FF5" stroke-width="1.81596" stroke-miterlimit="10"/>
<path d="M222.411 396.45C223.412 402.197 215.837 410.953 206.833 407.396C199.972 404.523 195.113 394.945 193.112 389.61C186.68 374.697 198.972 352.67 213.407 367.172" stroke="#6F3FF5" stroke-width="1.81596" stroke-miterlimit="10"/>
<path d="M211.833 367.993C198.97 356.364 189.537 377.297 194.968 389.063C196.826 393.851 200.971 402.197 207.117 404.796C212.834 407.533 220.409 402.197 220.837 397.545" stroke="#6F3FF5" stroke-width="1.81596" stroke-miterlimit="10"/>
<path d="M218.41 365.257L205.833 370.866C209.12 376.476 202.402 381.948 202.259 381.811L201.974 381.948C212.264 404.386 210.263 401.923 231.702 392.483" stroke="#6F3FF5" stroke-width="1.81596" stroke-miterlimit="10"/>
<path d="M219.837 359.374C218.551 359.921 217.836 361.289 217.979 362.521L218.694 364.846C218.979 365.667 219.694 366.351 220.695 366.351C221.981 366.351 223.839 366.078 226.697 364.846C230.128 363.341 230.985 362.11 231.128 361.426C231.271 361.016 231.128 360.742 231.128 360.742L229.985 358.416C229.27 356.911 227.269 356.09 225.554 356.911L219.837 359.374Z" stroke="#6F3FF5" stroke-width="1.81596" stroke-miterlimit="10"/>
<path d="M249.852 387.01C249.852 387.01 267.431 381.537 258.999 363.751C251.281 347.47 233.129 355.953 229.699 357.732" stroke="#6F3FF5" stroke-width="1.81596" stroke-miterlimit="10"/>
<path d="M249.567 384.821C253.854 380.853 256.999 375.107 253.426 367.993C245.708 352.533 230.558 359.921 230.558 359.921" stroke="#6F3FF5" stroke-width="1.81596" stroke-miterlimit="10"/>
<path d="M250.566 363.752C250.566 363.752 247.565 364.846 249.566 369.361C250.995 372.645 251.71 373.192 254.854 373.055" stroke="#6F3FF5" stroke-width="1.81596" stroke-miterlimit="10"/>
<path d="M237.846 394.809L247.565 390.704C249.709 389.747 250.709 387.421 249.852 385.368L242.277 368.677C241.276 366.625 238.846 365.667 236.703 366.488L226.984 370.592C224.84 371.55 223.839 373.876 224.697 375.928L232.272 392.62C233.129 394.672 235.559 395.63 237.846 394.809Z" fill="#03EDB4" stroke="#6F3FF5" stroke-width="1.81596" stroke-miterlimit="10"/>
<path d="M239.847 372.782C238.561 370.045 236.417 370.729 236.417 370.729L224.84 375.518" stroke="#6F3FF5" stroke-width="1.81596" stroke-miterlimit="10"/>
<path d="M205.831 370.729L199.828 366.351" stroke="#6F3FF5" stroke-width="1.81596" stroke-miterlimit="10"/>
<path d="M193.684 382.085C203.403 380.033 201.973 367.993 201.973 367.993" stroke="#6F3FF5" stroke-width="1.81596" stroke-miterlimit="10"/>
<path d="M129.366 420.119L122.363 418.341C122.22 418.341 103.925 420.393 94.6353 417.109C85.7739 413.963 79.771 389.609 78.3418 387.694C78.4847 386.736 79.6281 380.716 86.2027 377.022C87.3461 379.485 92.0626 389.746 101.21 396.587L101.353 396.724L101.496 396.861L102.067 396.724L130.509 390.978" stroke="#6F3FF5" stroke-width="1.81596" stroke-miterlimit="10"/>
<path d="M148.946 431.201C148.661 431.064 136.655 430.38 129.509 431.338C124.935 431.885 120.361 431.475 116.074 429.833L105.068 418.888" stroke="#6F3FF5" stroke-width="1.81596" stroke-miterlimit="10"/>
<path d="M101.64 396.861L101.496 401.239Z" fill="white"/>
<path d="M101.64 396.861L101.496 401.239" stroke="#6F3FF5" stroke-width="1.81596" stroke-miterlimit="10"/>
<path d="M122.077 431.886C122.22 431.749 124.936 428.055 123.221 422.445Z" fill="white"/>
<path d="M122.077 431.886C122.22 431.749 124.936 428.055 123.221 422.445" stroke="#6F3FF5" stroke-width="1.81596" stroke-miterlimit="10"/>
<path d="M94.4932 414.51C94.6361 414.373 98.638 412.048 99.4955 406.301Z" fill="white"/>
<path d="M94.4932 414.51C94.6361 414.373 98.638 412.048 99.4955 406.301" stroke="#6F3FF5" stroke-width="1.81596" stroke-miterlimit="10"/>
<path d="M82.0581 380.443L75.1977 381.4C74.626 381.537 74.1972 381.811 73.9114 382.221C73.9114 382.358 73.7684 382.495 73.7684 382.632V382.769C73.6255 383.316 73.7684 383.726 74.1972 384.137C74.626 384.547 75.0548 384.684 75.6265 384.684L79.4854 384.274" fill="white"/>
<path d="M82.0581 380.443L75.1977 381.4C74.626 381.537 74.1972 381.811 73.9114 382.221C73.9114 382.358 73.7684 382.495 73.7684 382.632V382.769C73.6255 383.316 73.7684 383.726 74.1972 384.137C74.626 384.547 75.0548 384.684 75.6265 384.684L79.4854 384.274" stroke="#6F3FF5" stroke-width="1.81596" stroke-miterlimit="10" stroke-linecap="round"/>
<path d="M55.4746 386.052C64.6218 386.736 64.9077 383.453 65.0506 382.632C65.6223 379.622 58.9048 380.306 58.0473 378.254" fill="white"/>
<path d="M55.4736 386.737C57.7604 386.873 60.1902 387.01 62.334 386.326C63.4774 385.916 64.6208 385.368 65.1925 384.411C65.6213 383.863 65.7642 383.179 65.7642 382.495C65.9072 380.853 64.1921 380.033 62.7628 379.622C61.9053 379.349 61.0477 379.212 60.1901 378.938C59.7614 378.801 59.4755 378.664 59.1897 378.528C59.0467 378.391 59.0467 378.391 58.9038 378.254C58.9038 378.117 58.9038 378.391 58.9038 378.254C58.9038 378.117 58.7609 378.117 58.7609 377.98C58.618 377.707 58.0463 377.57 57.7604 377.707C57.3316 377.844 57.3316 378.254 57.4746 378.664C58.0463 379.896 59.9043 380.306 61.0477 380.58C61.7623 380.717 62.477 380.99 63.1916 381.264C63.4774 381.401 63.7633 381.538 64.0491 381.674C64.0491 381.674 64.1921 381.811 64.335 381.811C64.4779 381.948 64.335 381.811 64.335 381.811C64.335 381.811 64.4779 382.085 64.4779 381.948V382.085C64.4779 382.222 64.4779 382.085 64.4779 382.222C64.4779 382.358 64.4779 382.358 64.4779 382.495C64.4779 382.632 64.4779 382.495 64.4779 382.632C64.4779 382.769 64.4779 382.769 64.4779 382.906C64.4779 383.043 64.4779 383.179 64.335 383.316V383.453C64.335 383.59 64.335 383.316 64.335 383.59C64.1921 383.727 64.1921 383.863 64.0491 384C63.9062 384.137 64.0491 384 64.0491 384C64.0491 384 64.0491 384.137 63.9062 384.137C63.7633 384.274 63.7633 384.274 63.6204 384.411C63.4774 384.547 63.4774 384.547 63.3345 384.547C63.4774 384.411 63.1916 384.684 63.0487 384.684C62.9057 384.684 62.7628 384.821 62.7628 384.821C62.7628 384.821 62.6199 384.821 62.6199 384.958C62.4769 384.958 62.477 384.958 62.477 384.958C60.3331 385.779 57.7604 385.642 55.6165 385.505C54.4731 385.232 54.4731 386.6 55.4736 386.737Z" fill="#6F3FF5"/>
<path d="M129.511 387.147C133.513 404.522 140.087 419.025 150.664 433.801C151.378 434.759 152.665 435.032 153.665 434.622C155.952 433.664 157.524 432.98 159.668 432.159C161.097 431.612 161.669 429.833 160.811 428.602C150.807 414.373 144.375 400.418 140.373 383.59C140.087 382.085 138.372 381.401 136.943 381.948C134.799 382.769 133.084 383.453 130.94 384.411C129.94 384.821 129.225 385.916 129.511 387.147Z" fill="white" stroke="#6F3FF5" stroke-width="1.81596" stroke-miterlimit="10"/>
<path d="M143.659 426.413L144.088 427.234C144.516 428.054 145.66 428.328 146.517 427.918L158.38 421.898C159.238 421.487 159.524 420.393 159.095 419.572L158.666 418.751C158.237 417.93 157.094 417.657 156.236 418.067L144.374 424.087C143.516 424.497 143.23 425.455 143.659 426.413Z" fill="white" stroke="#6F3FF5" stroke-width="1.81596" stroke-miterlimit="10"/>
<path d="M129.509 396.861L131.51 402.06C132.082 403.428 133.654 404.249 135.226 403.702L146.374 399.871C147.803 399.324 148.661 397.819 148.089 396.314L146.088 391.115C145.517 389.747 143.944 388.926 142.372 389.473L131.224 393.304C129.652 393.851 128.937 395.493 129.509 396.861Z" fill="white" stroke="#6F3FF5" stroke-width="1.81596" stroke-miterlimit="10"/>
<path d="M159.38 426.824L149.09 431.749" stroke="#6F3FF5" stroke-width="1.81596" stroke-miterlimit="10"/>
<path d="M152.091 414.92L141.372 419.298" stroke="#6F3FF5" stroke-width="1.81596" stroke-miterlimit="10"/>
<path d="M149.518 409.174L138.799 413.552" stroke="#6F3FF5" stroke-width="1.81596" stroke-miterlimit="10"/>
<path d="M147.231 404.112L136.512 408.627" stroke="#6F3FF5" stroke-width="1.81596" stroke-miterlimit="10"/>
<path d="M140.657 385.368L129.938 388.925" stroke="#6F3FF5" stroke-width="1.81596" stroke-miterlimit="10"/>
<path fill-rule="evenodd" clip-rule="evenodd" d="M206.261 407.122C206.261 407.122 197.685 416.288 161.239 429.012Z" fill="white"/>
<path d="M206.261 407.122C206.261 407.122 197.685 416.288 161.239 429.012" stroke="#6F3FF5" stroke-width="1.81596" stroke-miterlimit="10"/>
<path fill-rule="evenodd" clip-rule="evenodd" d="M194.969 414.647C194.969 414.647 181.963 400.692 174.674 376.749Z" fill="white"/>
<path d="M194.969 414.647C194.969 414.647 181.963 400.692 174.674 376.749" stroke="#6F3FF5" stroke-width="1.81596" stroke-miterlimit="10"/>
<path fill-rule="evenodd" clip-rule="evenodd" d="M189.11 417.11C189.11 417.11 175.246 401.513 168.1 377.57Z" fill="white"/>
<path d="M189.11 417.11C189.11 417.11 175.246 401.513 168.1 377.57" stroke="#6F3FF5" stroke-width="1.81596" stroke-miterlimit="10"/>
<path d="M197.828 364.846L195.112 362.11" stroke="#6F3FF5" stroke-width="1.81596" stroke-miterlimit="10"/>
<path d="M195.113 360.468C195.398 361.015 195.255 361.562 195.113 361.973C194.255 363.615 191.682 367.445 187.395 370.866C179.534 377.159 166.956 382.085 156.809 371.276L162.097 369.087C162.097 369.087 169.815 375.928 180.534 368.95C187.966 364.025 189.681 360.605 189.967 358.826C190.11 358.005 190.968 357.321 191.968 357.595C192.969 357.732 194.112 358.553 195.113 360.468Z" fill="white" stroke="#6F3FF5" stroke-width="1.81596" stroke-miterlimit="10"/>
<path d="M173.387 366.488L164.24 370.182" stroke="#6F3FF5" stroke-width="1.81596" stroke-miterlimit="10"/>
<path d="M158.38 373.055L140.229 382.769" stroke="#6F3FF5" stroke-width="1.81596" stroke-miterlimit="10"/>
<path d="M171.387 366.761C171.387 366.761 158.953 346.923 163.669 325.717C163.669 325.717 164.956 317.919 167.957 312.583C167.957 312.583 174.961 311.625 183.965 318.055C183.965 318.055 177.104 328.18 179.391 340.493C181.678 352.806 190.254 358.005 190.254 358.005" fill="white"/>
<path d="M171.387 366.761C171.387 366.761 158.953 346.923 163.669 325.717C163.669 325.717 164.956 317.919 167.957 312.583C167.957 312.583 174.961 311.625 183.965 318.055C183.965 318.055 177.104 328.18 179.391 340.493C181.678 352.806 190.254 358.005 190.254 358.005" stroke="#6F3FF5" stroke-width="1.81596" stroke-miterlimit="10"/>
<path fill-rule="evenodd" clip-rule="evenodd" d="M184.965 353.08C184.965 353.08 190.539 350.754 191.968 350.891C194.112 351.165 196.113 352.396 197.399 354.038L203.974 362.384L184.965 353.08ZM167.814 360.058C167.814 360.058 164.526 361.426 153.378 366.078C142.23 370.729 144.946 380.306 144.946 380.306" fill="white"/>
<path d="M167.814 360.058C167.814 360.058 164.526 361.426 153.378 366.078C142.23 370.729 144.946 380.306 144.946 380.306M184.965 353.08C184.965 353.08 190.539 350.754 191.968 350.891C194.112 351.165 196.113 352.396 197.399 354.038L203.974 362.384L184.965 353.08Z" stroke="#6F3FF5" stroke-width="1.81596" stroke-miterlimit="10"/>
<path d="M212.12 408.49C212.12 408.49 207.26 416.425 190.109 422.171C181.105 425.592 180.533 421.761 180.533 421.761" fill="white"/>
<path d="M212.12 408.49C212.12 408.49 207.26 416.425 190.109 422.171C181.105 425.592 180.533 421.761 180.533 421.761" stroke="#6F3FF5" stroke-width="1.81596" stroke-miterlimit="10"/>
<path fill-rule="evenodd" clip-rule="evenodd" d="M170.1 390.841L170.386 391.662C170.672 392.62 171.672 393.03 172.673 392.757L180.819 390.157C181.82 389.884 182.249 388.926 181.963 387.968L181.677 387.147C181.391 386.19 180.391 385.779 179.39 386.053L171.243 388.652C170.243 389.063 169.671 390.02 170.1 390.841Z" fill="white" stroke="#6F3FF5" stroke-width="1.81596" stroke-miterlimit="10"/>
<path fill-rule="evenodd" clip-rule="evenodd" d="M167.527 385.232L167.813 385.916C168.099 386.6 168.813 387.01 169.528 386.737L178.389 383.864C179.104 383.59 179.533 382.906 179.247 382.222L178.961 381.538C178.675 380.854 177.961 380.443 177.246 380.717L168.385 383.59C167.67 383.864 167.241 384.548 167.527 385.232Z" fill="white" stroke="#6F3FF5" stroke-width="1.81596" stroke-miterlimit="10"/>
<path d="M182.106 409.174C186.447 409.174 189.967 405.805 189.967 401.649C189.967 397.493 186.447 394.124 182.106 394.124C177.765 394.124 174.245 397.493 174.245 401.649C174.245 405.805 177.765 409.174 182.106 409.174Z" fill="#03EDB4" stroke="#6F3FF5" stroke-width="1.81596" stroke-miterlimit="10"/>
<path d="M183.106 317.508L185.107 312.993C185.107 312.993 178.389 307.794 171.386 307.384L168.956 312.583" stroke="#6F3FF5" stroke-width="1.81596" stroke-miterlimit="10"/>
<path d="M172.244 307.247C172.244 307.247 173.673 296.986 177.104 294.387C177.104 294.387 183.678 293.839 190.253 299.722L191.968 303.964" stroke="#6F3FF5" stroke-width="1.81596" stroke-miterlimit="10"/>
<path fill-rule="evenodd" clip-rule="evenodd" d="M184.678 312.446L185.535 310.53L187.393 309.299" fill="white"/>
<path d="M184.678 312.446L185.535 310.53L187.393 309.299" stroke="#6F3FF5" stroke-width="1.81596" stroke-miterlimit="10"/>
<path fill-rule="evenodd" clip-rule="evenodd" d="M185.821 308.752L189.109 309.71L193.253 304.647L190.681 303.279L188.108 306.289" fill="white"/>
<path d="M185.821 308.752L189.109 309.71L193.253 304.647L190.681 303.279L188.108 306.289" stroke="#6F3FF5" stroke-width="1.81596" stroke-miterlimit="10"/>
<path d="M211.691 409.995C216.408 415.468 226.127 424.771 238.847 429.423C238.847 429.423 239.847 436.127 230.843 441.736C230.843 441.736 213.263 435.99 197.685 419.162" stroke="#6F3FF5" stroke-width="1.81596" stroke-miterlimit="10"/>
<path fill-rule="evenodd" clip-rule="evenodd" d="M227.699 440.641C227.699 440.641 234.703 436.127 235.131 427.781Z" fill="white"/>
<path d="M227.699 440.641C227.699 440.641 234.703 436.127 235.131 427.781" stroke="#6F3FF5" stroke-width="1.81596" stroke-miterlimit="10"/>
<path d="M185.536 303.826L188.252 298.354" stroke="#6F3FF5" stroke-width="1.81596" stroke-miterlimit="10"/>
<path d="M181.677 302.732L184.821 296.165" stroke="#6F3FF5" stroke-width="1.81596" stroke-miterlimit="10"/>
<path d="M177.96 301.774L181.247 294.523" stroke="#6F3FF5" stroke-width="1.81596" stroke-miterlimit="10"/>
<path d="M231.414 441.599C231.414 441.599 238.56 449.808 242.991 450.219C242.991 450.219 248.851 447.345 251.138 439.137L250.28 434.622" stroke="#6F3FF5" stroke-width="1.81596" stroke-miterlimit="10"/>
<path fill-rule="evenodd" clip-rule="evenodd" d="M238.989 430.791L241.133 432.296L243.277 432.433" fill="white"/>
<path d="M238.989 430.791L241.133 432.296L243.277 432.433" stroke="#6F3FF5" stroke-width="1.81596" stroke-miterlimit="10"/>
<path fill-rule="evenodd" clip-rule="evenodd" d="M242.277 433.527L244.564 431.201L250.853 433.39L249.424 435.853L245.565 434.622" fill="white"/>
<path d="M242.277 433.527L244.564 431.201L250.853 433.39L249.424 435.853L245.565 434.622" stroke="#6F3FF5" stroke-width="1.81596" stroke-miterlimit="10"/>
<path d="M244.278 437.769L250.138 441.189" stroke="#6F3FF5" stroke-width="1.81596" stroke-miterlimit="10"/>
<path d="M242.563 441.325L248.423 444.746" stroke="#6F3FF5" stroke-width="1.81596" stroke-miterlimit="10"/>
<path d="M240.42 444.746L246.28 448.029" stroke="#6F3FF5" stroke-width="1.81596" stroke-miterlimit="10"/>
<path d="M218.838 390.157C218.695 390.157 218.695 390.157 218.838 390.157C218.695 390.157 218.695 390.157 218.695 390.157C218.552 390.157 218.552 390.157 218.409 390.157C218.266 390.157 218.266 390.157 218.123 390.157C217.98 390.157 218.123 390.157 217.98 390.157C217.837 390.157 217.694 390.157 217.408 390.02C217.265 390.02 217.122 389.883 216.98 389.883C216.408 389.61 215.979 389.199 215.407 388.789C214.979 388.378 214.693 387.831 214.55 387.147C214.55 387.01 214.55 387.01 214.55 386.873C214.55 386.737 214.55 386.737 214.55 386.873V386.737C214.55 386.6 214.55 386.463 214.55 386.189C214.55 386.053 214.55 386.053 214.55 385.916C214.55 386.053 214.55 385.779 214.55 385.779C214.55 385.642 214.693 385.505 214.693 385.232C214.836 384.821 214.55 384.548 214.264 384.411C213.835 384.274 213.549 384.548 213.406 384.821C212.835 386.463 213.263 388.242 214.407 389.473C215.55 390.841 217.265 391.525 218.98 391.252C219.409 391.252 219.552 390.704 219.409 390.431C219.552 390.157 219.123 390.02 218.838 390.157Z" fill="#6F3FF5"/>
<path d="M329.282 174.497L332.301 154.928C332.447 153.808 333.261 152.936 334.185 152.545L352.952 145.569C354.934 144.837 356.89 146.443 356.648 148.555L353.681 167.996C353.534 169.116 352.721 169.988 351.796 170.378L333.03 177.355C330.914 178.037 328.907 176.559 329.282 174.497Z" fill="#03EDB4" stroke="#6F3FF5" stroke-width="1.81596" stroke-miterlimit="10"/>
</svg>
