<svg width="483" height="386" viewBox="0 0 483 386" fill="none" xmlns="http://www.w3.org/2000/svg">
<path d="M231.549 170.512C231.917 171.212 231.697 171.991 231.035 172.38C230.373 172.769 229.637 172.536 229.27 171.835C228.902 171.135 229.122 170.356 229.784 169.967C230.446 169.655 231.255 169.889 231.549 170.512Z" fill="white"/>
<path d="M231.631 169.501C231.999 170.202 231.779 170.981 231.117 171.37C230.455 171.759 229.719 171.525 229.352 170.825C228.984 170.124 229.205 169.346 229.866 168.956C230.528 168.645 231.337 168.879 231.631 169.501Z" fill="white"/>
<path d="M287.304 90.8768C286.936 90.2541 287.157 89.3978 287.819 89.0085C288.48 88.6193 289.216 88.8528 289.584 89.5534C289.951 90.2541 289.731 91.0325 289.069 91.4218C288.48 91.811 287.671 91.5775 287.304 90.8768Z" fill="white"/>
<path d="M328.857 97.8054C329.225 98.506 329.004 99.2845 328.342 99.6737C327.68 100.063 326.945 99.8294 326.577 99.1288C326.209 98.506 326.43 97.6497 327.092 97.2605C327.68 96.9491 328.489 97.1826 328.857 97.8054Z" fill="#F579A6"/>
<path d="M437.751 9.82594C438.118 10.5266 437.898 11.305 437.236 11.6943C436.574 12.0835 435.838 11.85 435.471 11.1493C435.103 10.4487 435.324 9.67025 435.986 9.28101C436.647 8.89178 437.383 9.12532 437.751 9.82594Z" fill="#33EDC0"/>
<path d="M366.071 214.031C366.439 214.653 366.218 215.51 365.556 215.899C364.894 216.288 364.159 216.055 363.791 215.354C363.423 214.653 363.644 213.875 364.306 213.486C364.968 213.096 365.777 213.33 366.071 214.031Z" fill="white"/>
<path d="M48.6041 209.833C48.9718 210.534 48.7512 211.312 48.0893 211.701C47.4274 212.09 46.692 211.857 46.3243 211.156C45.9565 210.456 46.1772 209.677 46.8391 209.288C47.5009 208.977 48.3099 209.21 48.6041 209.833Z" fill="white"/>
<path d="M122.253 95.9527C122.62 96.6533 122.4 97.4317 121.738 97.821C121.076 98.2102 120.34 97.9767 119.973 97.2761C119.605 96.6533 119.826 95.797 120.488 95.4077C121.076 95.0964 121.885 95.3299 122.253 95.9527Z" fill="#FFDB4C"/>
<path d="M150.05 47.6879C150.418 48.3885 150.197 49.167 149.536 49.5562C148.874 49.9455 148.138 49.7119 147.771 49.0113C147.403 48.3107 147.623 47.5322 148.285 47.143C148.947 46.7537 149.683 46.9873 150.05 47.6879Z" fill="#9760FF"/>
<path d="M55.9723 34.1308C56.34 34.7535 56.1194 35.6099 55.4575 35.9991C54.7956 36.3883 54.0601 36.1548 53.6924 35.4542C53.3247 34.7536 53.5453 33.9751 54.2072 33.5859C54.8691 33.1966 55.6781 33.4302 55.9723 34.1308Z" fill="#F579A6"/>
<path d="M402.162 256.099C402.529 256.8 402.309 257.578 401.647 257.967C400.985 258.356 400.25 258.123 399.882 257.422C399.514 256.722 399.735 255.943 400.397 255.554C401.059 255.243 401.868 255.476 402.162 256.099Z" fill="#FFDB4C"/>
<path d="M132.885 143.225C132.517 142.602 132.738 141.746 133.4 141.357C134.061 140.967 134.797 141.201 135.165 141.902C135.532 142.602 135.312 143.381 134.65 143.77C134.061 144.159 133.253 143.926 132.885 143.225Z" fill="white"/>
<path d="M80.5035 192.721C80.8712 193.422 80.6506 194.2 79.9887 194.589C79.3268 194.978 78.5914 194.745 78.2237 194.044C77.8559 193.422 78.0766 192.565 78.7385 192.176C79.3268 191.865 80.1358 192.098 80.5035 192.721Z" fill="#F579A6"/>
<path d="M87.0309 15.1104C87.3986 15.811 87.178 16.5895 86.5161 16.9787C85.8542 17.368 85.1187 17.1344 84.751 16.4338C84.3833 15.7332 84.6039 14.9547 85.2658 14.5655C85.9277 14.2541 86.7367 14.4876 87.0309 15.1104Z" fill="white"/>
<path d="M415.898 90.5759C416.266 91.2766 416.045 92.055 415.383 92.4443C414.721 92.8335 413.986 92.6 413.618 91.8993C413.251 91.1987 413.471 90.4203 414.133 90.031C414.795 89.6418 415.53 89.8753 415.898 90.5759Z" fill="#33EDC0"/>
<path d="M196.546 120.695C196.914 121.395 196.694 122.174 196.032 122.563C195.37 122.952 194.634 122.719 194.267 122.018C193.899 121.318 194.12 120.539 194.781 120.15C195.443 119.839 196.252 120.072 196.546 120.695Z" fill="#33EDC0"/>
<path d="M252.219 42.0693C251.851 41.4465 252.072 40.5902 252.734 40.201C253.396 39.8118 254.131 40.0453 254.499 40.7459C254.866 41.4465 254.646 42.225 253.984 42.6143C253.396 43.0035 252.587 42.7699 252.219 42.0693Z" fill="#9760FF"/>
<path d="M293.771 48.9982C294.139 49.6988 293.918 50.4773 293.256 50.8665C292.594 51.2557 291.859 51.0222 291.491 50.3216C291.123 49.6988 291.344 48.8425 292.006 48.4532C292.594 48.1419 293.403 48.3754 293.771 48.9982Z" fill="#33EDC0"/>
<path d="M321.569 0.73244C321.937 1.43307 321.716 2.21154 321.054 2.60078C320.392 2.99001 319.657 2.75647 319.289 2.05584C318.921 1.35522 319.142 0.576745 319.804 0.187508C320.466 -0.201728 321.201 0.0318143 321.569 0.73244Z" fill="#F579A6"/>
<path d="M330.984 165.224C331.352 165.847 331.131 166.703 330.469 167.092C329.807 167.482 329.072 167.248 328.704 166.548C328.336 165.847 328.557 165.068 329.219 164.679C329.881 164.29 330.69 164.524 330.984 165.224Z" fill="white"/>
<path d="M365.988 215.041C366.356 215.664 366.135 216.52 365.473 216.909C364.811 217.299 364.076 217.065 363.708 216.364C363.34 215.664 363.561 214.885 364.223 214.496C364.885 214.107 365.694 214.34 365.988 215.041Z" fill="white"/>
<path d="M57.5787 168.66C57.9464 169.36 57.7258 170.139 57.0639 170.528C56.402 170.917 55.6666 170.684 55.2989 169.983C54.9311 169.283 55.1518 168.504 55.8137 168.115C56.4756 167.803 57.2845 168.037 57.5787 168.66Z" fill="white"/>
<path d="M55.8912 35.1412C56.2589 35.7639 56.0383 36.6202 55.3764 37.0095C54.7145 37.3987 53.9791 37.1652 53.6114 36.4645C53.2436 35.7639 53.4643 34.9855 54.1262 34.5962C54.7881 34.207 55.597 34.4405 55.8912 35.1412Z" fill="white"/>
<path d="M402.08 257.109C402.447 257.81 402.227 258.588 401.565 258.978C400.903 259.367 400.168 259.133 399.8 258.433C399.432 257.732 399.653 256.954 400.315 256.564C400.977 256.253 401.786 256.487 402.08 257.109Z" fill="white"/>
<path d="M242.936 98.0428C242.568 97.4201 242.788 96.5637 243.45 96.1745C244.112 95.7853 244.848 96.0188 245.215 96.7194C245.583 97.4201 245.363 98.1985 244.701 98.5878C244.112 98.977 243.303 98.7435 242.936 98.0428Z" fill="white"/>
<path d="M77.9732 65.3472C78.341 66.0478 78.1203 66.8263 77.4584 67.2155C76.7966 67.6048 76.0611 67.3712 75.6934 66.6706C75.3257 66.0478 75.5463 65.1915 76.2082 64.8022C76.7966 64.4909 77.6055 64.7244 77.9732 65.3472Z" fill="white"/>
<path d="M388.017 139.852C388.385 140.553 388.164 141.331 387.502 141.72C386.84 142.11 386.105 141.876 385.737 141.175C385.37 140.553 385.59 139.696 386.252 139.307C386.84 138.996 387.649 139.229 388.017 139.852Z" fill="white"/>
<path d="M203.61 50.1914C203.978 50.892 203.757 51.6705 203.095 52.0597C202.433 52.449 201.698 52.2154 201.33 51.5148C200.962 50.8141 201.183 50.0357 201.845 49.6464C202.507 49.335 203.316 49.5686 203.61 50.1914Z" fill="white"/>
<path d="M233.796 6.79476C234.163 7.41753 233.943 8.27385 233.281 8.66308C232.619 9.05231 231.883 8.81877 231.516 8.11816C231.148 7.41754 231.369 6.63907 232.031 6.24984C232.692 5.86061 233.501 6.09414 233.796 6.79476Z" fill="white"/>
<path d="M472.571 134.481L469.172 138.881M466.73 139.156V130.355V139.156ZM466.73 153.594V144.794V153.594ZM464.605 142.044H457.809H464.605ZM475.757 142.044H468.96H475.757ZM464.287 138.881L460.888 134.481L464.287 138.881ZM472.571 149.606L469.172 145.206L472.571 149.606ZM464.287 145.206L460.888 149.606L464.287 145.206Z" stroke="#5F26FF" stroke-miterlimit="10"/>
<path d="M467.689 259.039L461.779 260.929M459.371 258.229L465.391 245.54L459.371 258.229ZM449.412 278.883L455.432 266.193L449.412 278.883ZM454.228 259.984L443.94 252.559L454.228 259.984ZM470.862 272.133L460.575 264.708L470.862 272.133ZM456.307 257.014L454.775 249.724L456.307 257.014ZM460.028 274.968L458.496 267.678L460.028 274.968ZM453.133 263.629L447.224 265.518L453.133 263.629Z" stroke="#5F26FF" stroke-miterlimit="10"/>
<path d="M458.217 267.768C460.696 267.768 462.704 265.054 462.704 261.706C462.704 258.358 460.696 255.644 458.217 255.644C455.739 255.644 453.73 258.358 453.73 261.706C453.73 265.054 455.739 267.768 458.217 267.768Z" fill="#FFE48D" stroke="#5F26FF" stroke-width="1.5" stroke-miterlimit="10"/>
<path d="M466.376 145.511C467.502 145.511 468.415 144.38 468.415 142.985C468.415 141.59 467.502 140.459 466.376 140.459C465.249 140.459 464.336 141.59 464.336 142.985C464.336 144.38 465.249 145.511 466.376 145.511Z" fill="#21FDC8" stroke="#5F26FF" stroke-width="1.5" stroke-miterlimit="10"/>
<path d="M205.537 163.825L202.581 165.805M200.938 164.673L202.909 156.61L200.938 164.673ZM197.763 177.829L199.734 169.766L197.763 177.829ZM198.42 166.371L192.178 163.825L198.42 166.371ZM208.494 170.614L202.252 168.068L208.494 170.614ZM199.186 164.39L197.653 160.571L199.186 164.39ZM203.019 173.868L201.486 170.049L203.019 173.868ZM198.201 168.634L195.244 170.614L198.201 168.634Z" stroke="#5F26FF" stroke-width="1.5" stroke-miterlimit="10"/>
<path d="M199.929 170.756C201.506 170.756 202.784 169.173 202.784 167.219C202.784 165.266 201.506 163.683 199.929 163.683C198.352 163.683 197.073 165.266 197.073 167.219C197.073 169.173 198.352 170.756 199.929 170.756Z" fill="#FFE48D" stroke="#5F26FF" stroke-width="1.5" stroke-miterlimit="10"/>
<path d="M98.096 173.802L96.4385 181.885M100.479 178.934L93.9521 176.881L100.479 178.934Z" stroke="#FFE48D" stroke-width="1.5" stroke-miterlimit="10"/>
<path d="M168.104 276.766L172.299 282.828M172.599 277.26L167.704 282.457L172.599 277.26Z" stroke="#FFE48D" stroke-width="1.5" stroke-miterlimit="10"/>
<path d="M356.132 152.584L360.327 158.646M360.727 153.079L355.832 158.275L360.727 153.079Z" stroke="#FFE48D" stroke-width="1.5" stroke-miterlimit="10"/>
<path d="M404.781 130.103L412.124 128.587M407.764 125.303L409.141 133.386L407.764 125.303Z" stroke="#FFE48D" stroke-width="1.5" stroke-miterlimit="10"/>
<path d="M155.44 221.29L159.636 227.353M160.036 221.785L155.141 226.982L160.036 221.785Z" stroke="#FFE48D" stroke-width="1.5" stroke-miterlimit="10"/>
<path d="M155.278 118.231L158.043 126.314M160.034 120.56L153.508 123.985L160.034 120.56Z" stroke="#FFE48D" stroke-width="1.5" stroke-miterlimit="10"/>
<path d="M391.57 294.953L394.988 298.994M395.318 295.28L391.239 298.666L395.318 295.28Z" stroke="#FFE48D" stroke-width="1.5" stroke-miterlimit="10"/>
<path d="M55.1446 288.986L60.0395 295.049M60.5057 289.481L54.7949 294.678L60.5057 289.481Z" stroke="#FFE48D" stroke-width="1.5" stroke-miterlimit="10"/>
<path d="M274.251 238.751L280.778 232.278M275.373 230.384L279.554 240.488L275.373 230.384Z" stroke="#FFE48D" stroke-width="1.5" stroke-miterlimit="10"/>
<path d="M246.225 167.74L248.319 158.646M243.248 161.964L251.406 164.299L243.248 161.964Z" stroke="#FFE48D" stroke-width="1.5" stroke-miterlimit="10"/>
<path d="M266.601 284.945L267.315 293.028M270.17 288.607L263.644 289.492L270.17 288.607Z" stroke="#FFE48D" stroke-width="1.5" stroke-miterlimit="10"/>
<path d="M223.424 208.155L222.181 216.238M226.117 213.031L219.591 211.491L226.117 213.031Z" stroke="#FFE48D" stroke-width="1.5" stroke-miterlimit="10"/>
<path d="M242.039 266.758C241.123 264.361 241.734 261.541 243.463 260.272C245.192 259.003 247.226 259.849 248.142 262.246" stroke="#5F26FF" stroke-width="1.5" stroke-miterlimit="10"/>
<path d="M412.124 184.47C412.987 183.684 414.234 183.684 414.905 184.694C415.577 185.704 415.577 187.162 414.714 187.947" stroke="#5F26FF" stroke-width="1.5" stroke-miterlimit="10"/>
<path d="M54.8035 119.241C54.7017 117.665 55.5158 116.352 56.6352 116.221C57.7546 116.09 58.7723 117.14 58.874 118.716" stroke="#5F26FF" stroke-width="1.5" stroke-miterlimit="10"/>
<path d="M313.417 273.831C313.317 271.818 314.112 269.987 315.303 269.804C316.494 269.621 317.388 271.086 317.487 273.282" stroke="#5F26FF" stroke-width="1.5" stroke-miterlimit="10"/>
<path d="M279.144 187.809C280.084 186.752 281.831 186.635 283.041 187.574C284.25 188.396 284.385 189.922 283.31 190.979" stroke="#5F26FF" stroke-width="1.5" stroke-miterlimit="10"/>
<path d="M312.593 134.756C312.711 133.324 313.896 132.152 315.318 132.412C316.74 132.673 317.688 133.845 317.451 135.407" stroke="#5F26FF" stroke-width="1.5" stroke-miterlimit="10"/>
<path d="M349.091 221.741C348.285 224.231 347.66 226.397 346.657 228.59C346.497 228.976 346.196 229.552 345.68 230.026C345.114 230.528 344.486 230.694 343.972 230.759C342.344 230.965 340.903 230.696 339.948 230.451C338.994 230.206 337.63 229.819 335.972 228.781C334.242 227.71 333.126 226.517 332.386 225.707C330.929 224.149 330.19 223.339 329.953 222.099C329.488 219.727 330.693 217.681 330.757 217.608C331.416 216.535 332.248 216.107 332.646 215.885L330.854 214.476C330.392 214.105 329.62 213.535 329.533 212.879C329.438 212.117 329.79 211.104 330.149 210.607L330.607 210.054C330.607 210.054 330.985 209.361 331.048 209.288C331.294 208.891 331.868 207.829 332.591 207.35C333.777 206.576 335.244 207.831 335.64 208.018C336 208.187 336.476 208.514 336.628 208.689C336.983 209.01 337.051 208.786 337.031 208.315C337.059 208.225 337.136 208.108 337.177 207.974C337.26 207.705 337.257 207.447 337.262 207.296C337.312 207.268 337.375 207.196 337.367 207.089C337.391 206.742 336.838 206.532 336.633 206.128C336.339 205.477 336.912 204.414 337.094 204.09C337.877 202.614 338.054 200.698 338.671 199.092C340.181 194.985 340.995 190.191 341.042 189.906C341.376 188.013 341.954 184.39 341.608 180.023C341.343 176.463 340.55 173.681 340.364 173.08C340.222 172.603 340.125 172.25 340.036 172.003C339.736 172.579 339.253 173.479 338.702 174.603C337.731 176.555 337.398 177.372 336.372 179.503C332.711 187.26 332.875 186.056 332.33 187.696C332.22 188.054 331.936 188.843 331.337 189.586C330.562 190.502 329.586 190.862 328.923 191.011C327.615 191.112 326.293 191.258 324.985 191.359C324.692 191.374 324.449 191.362 324.156 191.378C323.615 192.199 323.11 193.038 322.569 193.859C322.672 194.062 322.88 194.724 322.933 194.954C323.075 195.431 323.067 195.991 322.894 196.422L320.719 201.086C320.363 201.841 320.007 201.93 319.359 201.624L318.961 201.847L316.672 207.688C315.443 210.748 313.428 213.284 310.905 214.658L291.912 225.132C291.993 225.94 292.13 227.235 292.092 227.627L290.555 244.69C290.498 245.278 290.255 245.933 290.054 246.453L289.84 247.018L290.617 249.179L292.419 256.18C292.634 257.357 292.463 258.046 292.154 258.515L292.302 259.508C292.343 260.45 292.139 261.379 291.507 261.696C289.907 262.479 286.547 264.433 283.01 266.559C279.424 268.713 275.639 270.978 273.293 272.179C271.195 273.241 269.555 273.083 268.224 272.455C266.138 271.471 264.968 269.382 264.776 268.933C263.694 268.166 262.879 267.065 262.501 265.348C261.08 258.579 265.778 254.283 265.864 254.272L274.746 247.08C274.635 246.771 274.61 246.451 274.562 246.07L272.218 225.69C271.601 220.325 273.123 214.84 276.231 211.025L285.16 200.061L266.977 193.693C266.639 194.661 266.134 195.5 265.548 196.198L254.378 208.823C253.517 209.749 252.545 210.367 251.439 210.615C250.455 210.869 249.423 210.741 248.51 210.362C248.496 210.407 248.496 210.407 248.469 210.496L248.734 210.57L248.501 211.998C248.386 212.508 248.198 212.983 247.867 213.391L242.012 220.114C241.363 220.885 240.528 221.055 239.809 220.716C239.521 220.58 239.247 220.4 238.978 220.068L222.203 197.192C221.424 196.107 221.483 194.443 222.322 193.455C223.719 191.858 226.469 189.207 229.475 189.343C231.301 189.434 232.931 190.562 234.408 192.591C237.553 197.098 239.767 197.936 240.641 198.041C240.601 197.099 240.718 196.18 240.908 195.296L241.018 194.938C241.321 193.953 241.718 193.063 242.281 192.303L257.032 172.448C259.538 169.118 263.216 167.469 266.837 168.15L281.334 170.832C281.265 170.389 281.319 169.543 281.492 169.113L283.608 163.702C283.837 163.093 284.176 162.791 284.655 162.709C284.691 162.726 284.876 162.66 284.948 162.694L291.571 145.567C291.404 145.438 291.103 145.347 291 145.145C290.701 144.645 290.508 143.529 290.715 142.857C291.21 141.245 291.91 139.371 292.819 137.083C290.618 135.533 275.838 124.926 274.147 114.081L273.729 113.832C273.571 113.809 273.463 113.759 273.319 113.691C273.067 113.572 272.829 113.409 272.705 113.145C272.4 112.796 272.358 112.263 272.373 111.81L273.091 104.92C273.208 104.001 273.865 103.337 274.595 103.374L275.106 102.384C278.686 88.5906 290.838 78.531 291.001 78.4028L291.617 77.873L292.183 76.7041C293.868 74.1668 299.936 66.6208 306.426 63.3243L306.548 63.3304L306.656 63.3813C306.692 63.3983 314.72 65.286 317.659 74.6173L317.748 74.8642L317.572 75.0372C317.395 75.2102 313.066 80.4489 309.006 83.6097L314.768 82.6862L314.857 82.9331C314.951 83.0288 315.511 84.4208 315.215 90.0739L315.183 90.3147L315.02 90.443C314.771 90.582 309.069 94.6607 301.314 94.0293L300.831 94.2627C300.584 93.9927 291.426 102.081 291.36 107.791C291.29 109.091 292.091 110.237 293.06 111.104C298.324 115.687 301.579 118.093 302.532 118.747C302.959 118.026 303.531 117.373 304.003 116.775C305.214 115.245 306.611 113.648 308.425 113.375L308.411 113.42C309.042 111.769 310.431 110.733 310.495 110.66L310.517 110.722C313.057 104.332 315.09 100.934 322.978 91.8877C327.373 86.8342 334.128 84.6876 340.3 86.3156C346.508 87.9605 351.394 93.2369 354.102 101.177C359.704 117.659 347.773 131.821 345.111 134.719L345.305 134.759C345.263 134.893 347.521 139.341 347.843 139.902L349.17 142.015C349.492 142.577 349.609 143.401 349.403 144.073C349.362 144.207 349.307 144.386 349.229 144.503C353.53 152.221 355.509 159.049 355.517 159.155C357.347 166.067 358.488 172.807 358.882 179.298L359.039 179.321C359.454 179.312 359.778 179.464 360.083 179.813C360.387 180.162 360.493 180.621 360.535 181.154L360.413 188.119C360.345 189.01 359.782 189.77 359.011 189.867L358.853 189.844C357.844 206.797 351.741 216.069 351.713 216.159L351.622 216.321L351.428 216.281C351.271 216.258 351.027 216.246 350.87 216.223C350.49 217.325 350.159 218.4 349.779 219.502C349.43 220.773 349.237 221.399 349.091 221.741Z" fill="white"/>
<path d="M276.492 110.47L278.539 108.77L276.731 107.148L276.808 105.288C276.876 104.397 276.38 103.6 275.691 103.429C275.655 103.412 275.533 103.406 275.497 103.389L274.938 103.33L274.501 103.278C273.785 103.197 273.114 103.906 272.997 104.824L272.279 111.714C272.25 112.213 272.306 112.7 272.611 113.049C272.735 113.313 272.973 113.476 273.225 113.595C273.369 113.663 273.477 113.714 273.635 113.737L274.229 113.812L274.824 113.887C274.86 113.904 274.946 113.894 274.982 113.911C275.654 113.868 276.234 113.322 276.337 112.448L276.492 110.47Z" fill="#21FDC8"/>
<path d="M276.492 110.47L278.539 108.77L276.731 107.148L276.808 105.288C276.876 104.397 276.38 103.6 275.691 103.429C275.655 103.412 275.533 103.406 275.497 103.389L274.938 103.33L274.501 103.278C273.785 103.197 273.114 103.906 272.997 104.824L272.279 111.714C272.25 112.213 272.306 112.7 272.611 113.049C272.735 113.313 272.973 113.476 273.225 113.595C273.369 113.663 273.477 113.714 273.635 113.737L274.229 113.812L274.824 113.887C274.86 113.904 274.946 113.894 274.982 113.911C275.654 113.868 276.234 113.322 276.337 112.448L276.492 110.47Z" stroke="#6027FF" stroke-width="1.5" stroke-miterlimit="10"/>
<path d="M360.49 188.002L360.612 181.037C360.606 180.521 360.464 180.044 360.159 179.695C359.855 179.347 359.531 179.194 359.116 179.204L358.958 179.181L358.215 179.189L357.993 179.238C357.25 179.246 356.651 179.989 356.583 180.88L356.464 182.875L354.614 184.873L356.627 186.232L356.707 188.115C356.766 188.861 357.088 189.422 357.627 189.677C357.807 189.762 358.001 189.802 358.208 189.797L358.244 189.814L359.002 189.761L359.159 189.784C359.931 189.686 360.494 188.926 360.49 188.002Z" fill="#21FDC8"/>
<path d="M360.49 188.002L360.612 181.037C360.606 180.521 360.464 180.044 360.159 179.695C359.855 179.347 359.531 179.194 359.116 179.204L358.958 179.181L358.215 179.189L357.993 179.238C357.25 179.246 356.651 179.989 356.583 180.88L356.464 182.875L354.614 184.873L356.627 186.232L356.707 188.115C356.766 188.861 357.088 189.422 357.627 189.677C357.807 189.762 358.001 189.802 358.208 189.797L358.244 189.814L359.002 189.761L359.159 189.784C359.931 189.686 360.494 188.926 360.49 188.002Z" stroke="#6027FF" stroke-width="1.5" stroke-miterlimit="10"/>
<path d="M248.604 210.458L248.371 211.886C248.261 212.244 248.002 212.686 247.707 213.11L241.851 219.833C241.23 220.515 240.368 220.774 239.648 220.435C239.36 220.3 239.086 220.119 238.818 219.787L221.974 197.135C221.195 196.05 221.253 194.386 222.093 193.398C223.453 191.784 226.168 189.116 229.246 189.286C231.071 189.377 232.702 190.505 234.179 192.534C237.338 196.996 239.515 197.818 240.411 197.984" stroke="#6027FF" stroke-width="1.5" stroke-miterlimit="10"/>
<path d="M223.485 192.21L242.948 218.403" stroke="#6027FF" stroke-width="1.5" stroke-miterlimit="10"/>
<path d="M309.213 156.909C313.604 158.979 318.544 156.166 320.246 150.627C321.948 145.088 319.769 138.92 315.378 136.85C310.987 134.78 306.048 137.592 304.345 143.131C302.643 148.671 304.822 154.839 309.213 156.909Z" stroke="#6027FF" stroke-width="1.5" stroke-miterlimit="10"/>
<path d="M327.51 152.052C327.51 152.052 327.524 152.008 327.488 151.991C327.346 151.514 327.177 151.126 326.795 150.895L325.237 149.802C324.558 149.328 323.704 149.694 323.285 150.522L322.971 151.143L322.602 151.943L320.595 156.328L320.225 157.128L319.724 158.224C319.55 158.655 319.462 159.075 319.604 159.552C319.746 160.028 319.915 160.416 320.297 160.647L321.891 161.758C321.999 161.809 322.035 161.825 322.071 161.842C322.431 162.012 322.896 161.975 323.208 161.763C323.42 161.607 323.661 161.361 323.793 161.065L327.247 153.312C327.578 152.904 327.58 152.495 327.51 152.052Z" stroke="#6027FF" stroke-width="1.5" stroke-miterlimit="10"/>
<path d="M330.38 153.303C330.357 153.241 330.349 153.135 330.327 153.073C330.274 152.843 330.108 152.713 329.928 152.628L328.89 151.985C328.566 151.833 328.245 151.938 327.906 152.239C327.729 152.412 327.561 152.692 327.428 152.988L324.119 160.809C323.945 161.239 323.857 161.659 323.891 162.085C323.877 162.13 323.913 162.147 323.886 162.237C323.933 162.618 324.108 162.854 324.31 163.001L325.348 163.644C325.384 163.661 325.384 163.661 325.42 163.678C325.888 163.898 326.562 163.447 326.895 162.63L326.986 162.468L330.119 154.82C330.384 154.227 330.4 153.774 330.38 153.303Z" stroke="#6027FF" stroke-width="1.5" stroke-miterlimit="10"/>
<path d="M320.455 149.547C320.599 149.615 320.693 149.71 320.837 149.778C321.587 150.285 322.365 150.703 323.115 151.211" stroke="#6027FF" stroke-width="1.5" stroke-miterlimit="10"/>
<path d="M300.172 130.707C300.865 131.803 302.99 134.804 306.712 138.507" stroke="#6027FF" stroke-width="1.5" stroke-miterlimit="10"/>
<path d="M320.297 157.162C319.151 156.468 318.603 156.107 317.579 155.419" stroke="#6027FF" stroke-width="1.5" stroke-miterlimit="10"/>
<path d="M303.896 144.458C299.138 139.703 297.261 136.563 297.217 136.439" stroke="#6027FF" stroke-width="1.5" stroke-miterlimit="10"/>
<path d="M316.548 185.435L312.515 182.611C311.981 182.205 311.314 182.096 310.659 182.351C310.018 182.561 309.524 183.097 309.196 183.763L308.68 184.904L308.311 185.703L305.392 192.119L305.022 192.919L304.821 193.439C304.173 194.877 304.547 196.744 305.715 197.5L309.82 200.358C309.928 200.409 310.058 200.522 310.166 200.573C311.245 201.081 312.555 200.571 313.14 199.206L313.495 198.451L313.865 197.651L316.784 191.236L317.153 190.436L317.6 189.519C318.126 188.075 317.689 186.28 316.548 185.435Z" stroke="#6027FF" stroke-width="1.5" stroke-miterlimit="10"/>
<path d="M293.938 166.675L292.64 165.807C292.294 165.593 291.979 165.547 291.636 165.59C291.315 165.695 291.012 166.013 290.829 166.338L289.881 168.351L289.512 169.151L286.521 175.533L286.151 176.333L285.189 178.391C285.043 178.732 284.978 179.214 285.083 179.674C285.153 180.117 285.422 180.448 285.718 180.691L287.016 181.559C287.052 181.576 287.16 181.627 287.196 181.644C287.772 181.915 288.513 181.649 288.818 180.922L289.439 179.574L289.808 178.774L292.7 172.448L293.069 171.648L294.428 168.7C294.728 168.124 294.544 167.115 293.938 166.675Z" stroke="#6027FF" stroke-width="1.5" stroke-miterlimit="10"/>
<path d="M287.2 164.883L283.463 173.425" stroke="#6027FF" stroke-width="1.5" stroke-miterlimit="10"/>
<path d="M292.366 182.646L295.825 174.742" stroke="#6027FF" stroke-width="1.5" stroke-miterlimit="10"/>
<path d="M300.872 179.223L297.449 187.144" stroke="#6027FF" stroke-width="1.5" stroke-miterlimit="10"/>
<path d="M303.415 191.853L306.838 183.932" stroke="#6027FF" stroke-width="1.5" stroke-miterlimit="10"/>
<path d="M316.846 200.286L320.192 192.482" stroke="#6027FF" stroke-width="1.5" stroke-miterlimit="10"/>
<path d="M354.043 101.099C351.335 93.158 346.449 87.8816 340.241 86.2366C334.069 84.6087 327.314 86.7553 322.919 91.8088C315.045 100.81 312.999 104.254 310.458 110.643C310.403 110.822 310.348 111.001 310.257 111.163L310.244 111.208L310.23 111.253C310.23 111.253 310.216 111.297 310.197 111.493C310.183 111.538 310.178 111.69 310.195 111.903C310.086 114.67 310.483 127.314 323.82 134.576C324.634 135.01 325.425 135.383 326.216 135.757C338.448 141.523 343.642 136.282 344.517 135.31C344.567 135.283 344.594 135.193 344.608 135.148C344.622 135.103 344.785 134.975 345.102 134.612C347.75 131.76 359.681 117.597 354.043 101.099Z" stroke="#6027FF" stroke-width="1.5" stroke-miterlimit="10"/>
<path d="M347.809 139.476L345.332 134.669C345.318 134.714 345.013 137.851 342.464 139.981C339.186 142.742 333.876 142.597 326.602 139.731C325.832 139.42 325.149 139.098 324.465 138.776C313.493 133.603 309.86 124.919 308.705 119.299C308.638 119.114 308.629 119.008 308.563 118.822C308.287 117.308 308.185 116.03 308.118 115.178C308.106 114.814 308.131 114.466 308.227 114.153C308.287 113.823 308.384 113.509 308.48 113.196C309.111 111.545 310.5 110.509 310.564 110.436L310.586 110.498" stroke="#6027FF" stroke-width="1.5" stroke-miterlimit="10"/>
<path d="M308.626 119.417C307.906 120.154 304.211 123.999 300.245 130.741C300.112 131.038 299.972 131.228 299.803 131.507C299.075 132.804 298.369 134.163 297.649 135.567C297.517 135.863 297.349 136.143 297.217 136.439C296.009 138.895 294.863 141.686 293.819 144.68C293.535 145.469 292.933 145.954 292.225 145.979C292.104 145.973 292.032 145.939 291.924 145.888C291.816 145.837 291.78 145.82 291.672 145.77C291.528 145.702 291.384 145.634 291.254 145.521C291.124 145.409 290.936 145.217 290.847 144.97C290.561 144.426 290.502 143.68 290.695 143.053C291.226 141.458 291.931 139.433 292.854 137.1C292.923 136.876 293.055 136.579 293.151 136.266C295.289 130.917 298.33 124.508 301.915 119.277C302.019 119.07 302.224 118.808 302.414 118.59C302.914 117.903 303.413 117.215 303.885 116.618C305.083 115.132 306.494 113.49 308.307 113.218L308.294 113.262" stroke="#6027FF" stroke-width="1.5" stroke-miterlimit="10"/>
<path d="M274.839 103.386C278.455 89.6097 290.709 78.4185 290.786 78.3012L291.402 77.7713L291.334 78.6621L291.32 78.7068C291.307 78.7516 291.318 79.1159 291.324 79.6315C291.478 82.2155 292.551 89.8467 300.904 93.2208L302.186 93.8761L301.257 93.9508L300.673 94.2398C300.596 94.3572 291.44 102.036 291.41 107.763C291.426 109.052 291.889 110.091 292.858 110.958C298.122 115.541 301.378 117.947 302.33 118.601" stroke="#6027FF" stroke-width="1.5" stroke-miterlimit="10"/>
<path d="M292.89 137.116C292.854 137.099 293.006 137.274 292.89 137.116C290.689 135.566 275.749 124.679 274.057 113.834C274.035 113.772 274.062 113.682 274.004 113.604" stroke="#6027FF" stroke-width="1.5" stroke-miterlimit="10"/>
<path d="M291.401 77.7713C293.087 75.234 299.783 66.4466 306.296 63.2118L306.418 63.2179L306.526 63.2688C306.634 63.3196 314.626 65.1904 317.529 74.5047L317.618 74.7517L317.441 74.9247C317.237 75.1872 313.177 80.0908 309.252 83.2129C309.152 83.2685 309.219 83.4537 309.304 83.4428L314.638 82.5736L314.726 82.8206C314.793 83.0058 315.381 84.3083 315.085 89.9614L315.066 90.1574L314.903 90.2856C314.691 90.4417 308.953 94.5034 301.198 93.872C301.076 93.8659 301.04 93.849 300.932 93.7981" stroke="#6027FF" stroke-width="1.5" stroke-miterlimit="10"/>
<path d="M349.27 141.96L347.942 139.847C347.621 139.285 347.081 139.031 346.481 139.107C344.303 139.361 336.977 141.085 330.867 153.327C330.553 153.948 330.175 154.641 329.919 155.341C328.86 157.712 328.031 160.141 327.496 162.554C326.097 168.713 326.43 174.867 328.485 180.911C328.538 181.141 328.641 181.343 328.729 181.59C328.752 181.652 328.832 181.792 328.84 181.899C329.023 182.241 329.27 182.511 329.63 182.681C329.81 182.766 330.003 182.806 330.211 182.801C330.855 182.848 331.443 182.408 331.763 181.636L332.937 178.755C333.193 178.055 333.139 177.159 332.737 176.456C332.54 176.159 332.335 175.754 332.099 175.182C331.988 174.873 331.869 174.458 331.785 174.06C331.281 171.413 331.467 166.785 334.661 158.807C338.846 148.272 345.017 145.747 348.266 145.228C348.487 145.179 348.694 145.174 348.835 144.984C349.048 144.828 349.238 144.61 349.415 144.437C349.492 144.32 349.547 144.141 349.588 144.006C349.687 143.284 349.628 142.538 349.27 141.96Z" stroke="#6027FF" stroke-width="1.5" stroke-miterlimit="10"/>
<path d="M332.012 175.192L336.886 164.828" stroke="#6027FF" stroke-width="1.5" stroke-miterlimit="10"/>
<path d="M328.789 181.926L324.814 190.305L324.367 191.222L322.958 194.197L322.867 194.359" stroke="#6027FF" stroke-width="1.5" stroke-miterlimit="10"/>
<path d="M349.265 144.52C353.565 152.238 355.58 159.082 355.58 159.082C357.424 165.949 358.515 172.717 358.945 179.225C358.945 179.225 358.981 179.242 358.967 179.287" stroke="#6027FF" stroke-width="1.5" stroke-miterlimit="10"/>
<path d="M358.924 189.211C358.905 189.407 358.922 189.62 358.881 189.755C357.957 206.697 351.939 215.958 351.862 216.075L351.771 216.238L351.578 216.198C351.42 216.174 351.248 216.196 351.019 216.139C350.753 216.065 350.546 216.07 350.28 215.996C348.947 215.778 347.647 215.318 346.531 214.793C342.466 212.876 339.522 209.592 337.995 207.59C337.785 207.337 337.66 207.074 337.485 206.837C337.056 206.225 336.823 205.91 336.823 205.91L336.72 205.708L337.092 204.499C337.747 202.501 338.975 198.774 340.466 193.12C342.83 184.085 341.935 176.948 340.24 171.741C340.129 171.432 339.996 171.061 339.885 170.753C339.552 169.827 338.6 167.43 336.973 164.818C336.973 164.818 336.812 164.537 335.551 162.609" stroke="#6027FF" stroke-width="1.5" stroke-miterlimit="10"/>
<path d="M350.997 216.078C350.618 217.847 350.172 219.431 349.76 220.774C349.663 221.088 349.567 221.401 349.498 221.625C348.306 225.369 347.19 227.662 346.475 228.914C345.951 229.949 345.029 230.539 344.028 230.58C341.511 230.726 339.309 230.252 337.439 229.37C333.949 227.725 331.603 224.774 330.383 222.712C329.39 221.117 329.57 218.792 330.812 217.429C331.32 216.849 331.828 216.268 332.3 215.67C332.477 215.497 332.645 215.218 332.799 214.983C334.425 212.776 335.658 210.641 336.419 209.103C336.551 208.806 336.719 208.527 336.788 208.303C337.158 207.503 337.372 206.938 337.428 206.759" stroke="#6027FF" stroke-width="1.5" stroke-miterlimit="10"/>
<path d="M332.316 215.883L330.525 214.475C330.026 214.086 329.718 213.48 329.646 212.779C329.559 212.123 329.685 211.311 330.093 210.786L330.402 210.316L330.916 209.584L332.061 207.869C332.602 207.047 333.5 206.804 334.291 207.177L336.832 208.426L337.012 208.511" stroke="#6027FF" stroke-width="1.5" stroke-miterlimit="10"/>
<path d="M340.176 171.813L332.47 187.506C331.968 188.602 331.22 189.429 330.355 190.098C330.143 190.254 329.93 190.41 329.731 190.521C328.985 190.938 328.136 191.153 327.257 191.2L324.331 191.205" stroke="#6027FF" stroke-width="1.5" stroke-miterlimit="10"/>
<path d="M285.047 162.638L291.255 145.521L291.31 145.342" stroke="#6027FF" stroke-width="1.5" stroke-miterlimit="10"/>
<path d="M316.97 190.502C318.664 191.557 320.43 192.646 322.246 193.707C322.282 193.724 322.282 193.724 322.354 193.758C322.534 193.842 322.736 193.989 322.838 194.191C322.941 194.393 323.057 194.551 323.096 194.825C323.274 195.319 323.244 195.818 323.057 196.293L320.882 200.958C320.526 201.713 319.794 202.086 319.111 201.763L319.003 201.713C318.823 201.628 318.607 201.526 318.319 201.39C317.182 200.803 315.46 199.838 313.384 198.551" stroke="#6027FF" stroke-width="1.5" stroke-miterlimit="10"/>
<path d="M293.112 171.772C297.452 176.278 302.231 180.428 308.667 184.948" stroke="#6027FF" stroke-width="1.5" stroke-miterlimit="10"/>
<path d="M286.123 176.422C284.643 174.802 283.192 173.093 281.848 171.434C281.812 171.417 281.754 171.338 281.754 171.338C281.616 171.119 281.463 170.945 281.46 170.687C281.318 170.21 281.348 169.712 281.544 169.343L283.756 163.619C283.957 163.099 284.388 162.635 284.924 162.632C284.974 162.604 285.046 162.638 285.118 162.672C285.411 162.656 285.591 162.741 285.815 162.949C285.945 163.062 286.062 163.219 286.178 163.377C286.871 164.472 288.029 166.197 289.888 168.458" stroke="#6027FF" stroke-width="1.5" stroke-miterlimit="10"/>
<path d="M304.996 193.009C298.892 188.747 294.343 184.654 289.482 179.697" stroke="#6027FF" stroke-width="1.5" stroke-miterlimit="10"/>
<path d="M267.054 188.348L267.166 189.323C267.367 190.546 267.33 191.604 267.063 192.606C266.967 192.92 266.934 193.161 266.802 193.457C266.477 194.381 265.958 195.264 265.373 195.962L254.203 208.586C253.414 209.547 252.369 210.131 251.263 210.379C250.158 210.627 249.09 210.482 248.083 210.007C247.183 209.583 246.389 208.952 245.776 207.997L241.794 202.327C241.06 201.365 240.652 200.148 240.428 198.863C240.353 198.572 240.328 198.252 240.316 197.888C240.276 196.946 240.394 196.028 240.583 195.143L240.693 194.785C240.996 193.8 241.393 192.91 241.956 192.151L256.708 172.295C259.227 168.921 262.892 167.316 266.513 167.998L281.353 170.636" stroke="#6027FF" stroke-width="1.5" stroke-miterlimit="10"/>
<path d="M285.215 199.882L284.963 199.763L266.78 193.396L266.636 193.328" stroke="#6027FF" stroke-width="1.5" stroke-miterlimit="10"/>
<path d="M289.945 222.154C291.151 222.518 291.678 223.484 291.961 224.438C292.036 224.729 292.098 225.066 292.137 225.341C292.218 226.148 292.128 226.977 292.126 227.386L290.713 244.713C290.457 245.412 290.278 245.994 290.113 246.532L290.017 246.845L289.565 247.914L289.309 248.613C289.053 249.313 288.617 249.927 288.15 250.374C285.844 252.516 283.538 252.916 281.547 252.695C281.218 252.693 280.916 252.602 280.579 252.494C279.89 252.324 279.287 252.142 278.747 251.887C278.639 251.836 278.603 251.82 278.495 251.769C277.92 251.497 277.363 251.03 276.934 250.417C276.934 250.417 276.898 250.4 276.912 250.356L276.679 250.041L275.448 248.282C275.31 248.063 275.122 247.871 275.046 247.58C274.922 247.316 274.797 247.052 274.735 246.715C274.624 246.407 274.527 246.053 274.551 245.706L272.157 225.354C271.541 219.989 273.062 214.503 276.17 210.688L285.1 199.725L285.445 199.272L290.541 193.011" stroke="#6027FF" stroke-width="1.5" stroke-miterlimit="10"/>
<path d="M319.198 201.344L319.088 201.702L316.835 207.56C315.678 210.654 313.591 213.156 311.068 214.53L291.951 225.407" stroke="#6027FF" stroke-width="1.5" stroke-miterlimit="10"/>
<path d="M344.47 112.682L331.879 97.3653C330.252 95.4197 327.415 95.0046 324.629 98.3051L318.567 105.7C316.213 108.537 315.694 112.906 317.212 116.543C320.689 124.795 325.645 128.772 329.71 130.688C331.077 131.333 332.391 131.747 333.381 132.009C335.025 132.425 336.683 131.72 337.759 130.228L344.625 120.752C346.32 118.321 346.234 114.846 344.47 112.682Z" fill="#5522F5"/>
<path d="M344.47 112.682L331.879 97.3653C330.252 95.4197 327.415 95.0046 324.629 98.3051L318.567 105.7C316.213 108.537 315.694 112.906 317.212 116.543C320.689 124.795 325.645 128.772 329.71 130.688C331.077 131.333 332.391 131.747 333.381 132.009C335.025 132.425 336.683 131.72 337.759 130.228L344.625 120.752C346.32 118.321 346.234 114.846 344.47 112.682Z" stroke="#6027FF" stroke-width="1.5" stroke-miterlimit="10"/>
<path d="M347.495 112.213L332.447 93.6358C330.507 91.235 327.147 90.7786 323.834 94.8558L316.52 103.915C313.693 107.35 313.043 112.682 314.863 117.078C318.948 127.103 324.973 131.891 329.794 134.163C331.412 134.926 332.942 135.443 334.176 135.717C336.121 136.223 338.091 135.307 339.386 133.508L347.684 121.785C349.682 119.036 349.573 114.832 347.495 112.213Z" stroke="#6027FF" stroke-width="1.5" stroke-miterlimit="10"/>
<path d="M289.931 246.856L290.814 249.477L292.411 256.073C292.689 257.178 292.519 257.867 292.196 258.381C292.019 258.554 291.851 258.834 291.553 259.001C291.34 259.157 291.005 259.307 290.757 259.446L290.558 259.557L270.86 270.314C270.702 270.291 268.258 270.472 266.058 269.588C265.95 269.537 265.878 269.504 265.698 269.419C265.338 269.249 264.956 269.018 264.66 268.776C263.578 268.009 262.691 266.874 262.384 265.191C260.928 258.404 265.662 254.126 265.747 254.115L274.63 246.922L274.843 246.766" stroke="#6027FF" stroke-width="1.5" stroke-miterlimit="10"/>
<path d="M292.178 258.168L292.231 258.398L292.379 259.39C292.446 260.243 292.036 261.177 291.317 261.504C289.731 262.243 286.393 264.258 282.821 266.367C279.163 268.487 275.413 270.77 273.103 271.987C271.006 273.049 269.33 272.874 268.035 272.264C265.948 271.28 264.806 269.101 264.587 268.742C264.565 268.68 264.565 268.68 264.565 268.68" stroke="#6027FF" stroke-width="1.5" stroke-miterlimit="10"/>
<path d="M330.595 210.356C330.487 210.305 330.451 210.289 330.344 210.238C327.731 208.955 326.102 206.752 325.683 204.094C325.259 201.587 326.057 198.99 327.835 196.957C330.403 193.964 329.992 191.413 329.668 190.593" stroke="#6027FF" stroke-width="1.5" stroke-miterlimit="10"/>
<path d="M349.433 221.697C350.987 221.866 358.427 222.451 364.658 215.444C371.383 207.901 374.339 194.531 373.573 175.715C372.487 150.034 373.573 72.7481 457.728 108.112C466.154 111.652 474.248 113.324 482.001 113.438" stroke="#6027FF" stroke-width="1.5" stroke-miterlimit="10"/>
<path d="M269.467 254.074L269.218 254.213C269.069 254.297 266.042 256.509 265.526 259.393C265.367 260.446 265.551 261.455 266.114 262.438C266.516 263.14 267.073 263.608 267.612 263.862C270.238 265.1 273.677 261.954 273.867 261.736L274.157 261.462L269.467 254.074Z" stroke="#6027FF" stroke-width="1.5" stroke-miterlimit="10"/>
<path d="M281.096 252.687L276.486 256.563C275.862 256.986 275.226 257.045 274.651 256.774C274.363 256.638 274.044 256.334 273.812 256.02C273.404 255.469 273.282 254.796 273.344 254.056C273.407 253.317 273.707 252.741 274.188 252.25L276.529 250.124" stroke="#6027FF" stroke-width="1.5" stroke-miterlimit="10"/>
<path d="M239.757 197.83L238.309 198.121L234.95 198.998C234.522 199.052 234.157 199.034 233.761 198.848C233.473 198.712 233.127 198.498 232.93 198.2L230.991 195.799C230.373 194.995 230.167 193.924 230.398 192.905C230.499 192.44 231.038 190.285 231.176 189.837" stroke="#6027FF" stroke-width="1.5" stroke-miterlimit="10"/>
<path d="M279.832 221.95C279.094 221.807 278.424 221.44 277.746 220.967C277.139 220.527 276.561 219.998 276.064 219.2" stroke="#6027FF" stroke-width="1.5" stroke-miterlimit="10"/>
<path d="M261.565 178.737C261.141 177.973 260.88 177.081 260.762 176.257C260.587 175.354 260.533 174.457 260.65 173.538" stroke="#6027FF" stroke-width="1.5" stroke-miterlimit="10"/>
<path d="M285.684 193.131C285.298 191.975 285.232 190.714 285.139 189.543C285.06 188.326 285.103 187.116 285.316 185.884" stroke="#6027FF" stroke-width="1.5" stroke-miterlimit="10"/>
<path d="M314.538 147.219C314.525 147.931 314.319 148.602 313.946 149.144C313.61 149.703 313.121 150.088 312.565 150.288L312.785 151.314C313.49 151.031 314.142 150.518 314.606 149.814C315.083 149.065 315.386 148.08 315.395 147.111L314.881 147.176L314.538 147.219Z" fill="#26F2C1"/>
<path d="M312.983 152.279L312.24 148.801C312.511 148.724 312.737 148.523 312.941 148.26C313.11 147.981 313.242 147.684 313.266 147.337L314.746 147.214L316.324 147.036C316.41 147.025 316.487 146.908 316.493 146.756L316.453 146.482C316.321 145.035 315.747 143.688 314.877 142.765L315.277 142.134C315.291 142.089 315.341 142.061 315.355 142.016C315.368 141.972 315.382 141.927 315.36 141.865C315.374 141.82 315.351 141.759 315.329 141.697C315.307 141.635 315.271 141.618 315.249 141.556C315.213 141.539 315.177 141.523 315.141 141.506C315.105 141.489 315.069 141.472 315.019 141.499C314.969 141.527 314.934 141.51 314.92 141.555C314.87 141.583 314.856 141.628 314.842 141.672L314.442 142.304C314.204 142.141 313.966 141.977 313.679 141.841L314.17 141.048C314.183 141.003 314.233 140.975 314.247 140.93C314.261 140.886 314.274 140.841 314.252 140.779C314.266 140.734 314.244 140.673 314.221 140.611C314.199 140.549 314.163 140.532 314.141 140.47C314.105 140.453 314.069 140.436 314.033 140.419C313.997 140.403 313.961 140.386 313.911 140.413C313.862 140.441 313.826 140.424 313.812 140.469C313.762 140.497 313.749 140.542 313.735 140.586L313.089 141.615C312.077 141.291 311.012 141.405 310.053 141.978C309.108 142.506 308.319 143.467 307.853 144.58C307.374 145.738 307.254 147.066 307.441 148.333C307.664 149.617 308.222 150.752 309.011 151.534L311.639 154.105C311.733 154.201 311.833 154.146 311.896 154.073L312.942 152.413C312.978 152.43 313.005 152.34 312.983 152.279ZM309.56 150.819C308.937 150.166 308.469 149.279 308.235 148.297C308.051 147.288 308.124 146.246 308.449 145.322C308.774 144.399 309.351 143.594 310.088 143.071C310.812 142.592 311.661 142.377 312.485 142.509L311.699 143.727C311.685 143.772 311.635 143.8 311.621 143.845C311.608 143.89 311.594 143.934 311.616 143.996C311.602 144.041 311.624 144.103 311.647 144.164C311.669 144.226 311.705 144.243 311.727 144.305C311.763 144.322 311.799 144.339 311.835 144.356C311.871 144.373 311.907 144.389 311.957 144.362C312.006 144.334 312.042 144.351 312.056 144.306C312.106 144.278 312.12 144.233 312.133 144.189L313.088 142.691C313.497 142.833 313.902 143.126 314.242 143.491C314.879 144.099 315.348 144.986 315.546 145.951C315.568 146.013 315.504 146.085 315.455 146.113L313.082 146.328C313.016 146.142 312.863 145.968 312.747 145.811C312.595 145.636 312.415 145.552 312.221 145.512C312.027 145.472 311.834 145.432 311.649 145.498C311.463 145.564 311.278 145.631 311.115 145.759C310.952 145.887 310.812 146.077 310.743 146.301C310.638 146.508 310.569 146.732 310.572 146.99C310.54 147.231 310.592 147.461 310.645 147.691C310.698 147.921 310.801 148.123 310.953 148.297C311.105 148.471 311.272 148.601 311.451 148.686L312.137 152.085C312.123 152.129 312.159 152.146 312.109 152.174L311.723 152.761C311.709 152.806 311.623 152.817 311.587 152.8L309.56 150.819ZM312.332 147.563C312.255 147.68 312.191 147.753 312.056 147.792C311.956 147.847 311.835 147.841 311.727 147.79C311.619 147.739 311.511 147.689 311.466 147.565C311.422 147.442 311.364 147.363 311.333 147.195C311.325 147.088 311.33 146.937 311.371 146.803C311.413 146.668 311.476 146.596 311.575 146.54C311.675 146.484 311.774 146.429 311.882 146.48C312.004 146.486 312.112 146.537 312.17 146.615C312.3 146.728 312.331 146.896 312.362 147.064C312.464 147.267 312.409 147.446 312.332 147.563Z" fill="#0E0333"/>
<path d="M120.676 272.159C139.243 289.798 157.417 296.882 155.602 275.358C155.603 275.357 155.605 275.357 155.606 275.357L155.597 275.302L155.553 275.304C155.553 275.305 155.554 275.307 155.554 275.309C140.547 277.579 110.507 243.773 91.3576 205.035L120.676 272.159ZM120.676 272.159C97.075 249.612 76.6666 214.776 60.8484 182.292L120.676 272.159ZM208.404 321.035C207.134 316.51 206.792 315.523 205.664 312.266C205.246 311.059 204.721 309.542 204 307.418L203.96 307.436L204 307.418C199.212 293.387 193.279 278.878 184.756 263.247L184.756 263.247C179.641 253.952 173.237 243.532 167.019 235.189C163.91 231.018 160.846 227.365 158.012 224.632C155.178 221.9 152.57 220.082 150.372 219.59C150.354 219.586 150.336 219.597 150.328 219.617C150.32 219.638 150.323 219.663 150.337 219.681C165.366 239.652 177.69 264.369 184.715 285.795C188.369 297.155 190.617 307.829 190.882 316.47C191.117 324.587 189.907 330.718 187.506 335.018C185.106 339.317 181.512 341.792 176.969 342.589C168.133 344.141 155.707 339.346 141.515 329.291C152.731 336.147 163.115 340.297 170.898 339.7C174.937 339.391 178.278 337.804 180.67 334.65C183.061 331.497 184.5 326.783 184.743 320.233L184.743 320.232C184.913 312.422 183.695 302.618 180.263 291.781C177.993 284.518 174.699 276.771 170.148 268.661C170.135 268.638 170.111 268.629 170.092 268.64C170.072 268.651 170.063 268.678 170.07 268.704C172.828 279.406 173.346 287.751 172.045 293.669C170.745 299.582 167.628 303.074 163.104 304.074C158.575 305.075 152.633 303.58 145.686 299.503C138.74 295.426 130.794 288.769 122.261 279.454L122.26 279.454C98.5145 253.695 77.0739 217.542 61.5992 183.931C77.3059 215.953 97.4327 250.021 120.65 272.202L120.651 272.202C129.944 281.031 139.145 287.222 145.796 288.503C149.122 289.143 151.818 288.556 153.567 286.444C155.315 284.332 156.105 280.706 155.641 275.3C155.64 275.284 155.633 275.27 155.624 275.26C155.614 275.249 155.601 275.245 155.589 275.247C151.854 275.83 147.173 274.161 141.949 270.715C136.726 267.269 130.964 262.051 125.071 255.547C113.285 242.539 100.976 224.391 91.3947 205.008L91.3947 205.008C83.4624 189.022 78.3925 174.762 75.7133 162.765L75.7132 162.765C71.7926 145.28 73.0316 132.905 77.4544 126.118C74.6665 133.149 73.6407 143.584 76.9862 158.12C78.953 166.749 82.4245 176.781 87.8666 188.151C92.2535 197.307 98.537 208.555 105.067 217.799C108.332 222.421 111.66 226.544 114.843 229.653C118.026 232.763 121.07 234.864 123.766 235.436C123.784 235.44 123.801 235.429 123.809 235.409C123.818 235.39 123.815 235.365 123.803 235.347C112.25 218.411 104.414 200.748 100.846 186.549C99.1913 179.932 98.4897 174.155 98.743 169.571C98.9963 164.986 100.204 161.601 102.362 159.755C104.466 157.964 107.177 157.432 110.342 157.947C113.507 158.462 117.124 160.022 121.038 162.411C128.865 167.188 137.87 175.273 146.803 184.902L146.803 184.902C148.883 187.108 150.553 188.944 151.723 190.251C145.081 183.249 138.247 176.618 132.055 171.911C128.651 169.323 125.44 167.315 122.561 166.146C119.684 164.978 117.134 164.647 115.055 165.419C113.305 165.962 111.594 167.244 110.62 169.505C109.646 171.768 109.411 175.003 110.601 179.44C111.415 182.494 112.931 186.124 115.293 190.357C115.301 190.372 115.314 190.381 115.328 190.383C115.341 190.385 115.354 190.379 115.363 190.366C117.394 187.511 120.418 186.243 124.314 186.916C128.212 187.589 132.982 190.205 138.5 195.119L138.5 195.119C153.574 208.35 170.495 232.322 183.851 257.637C191.902 273.033 198.041 287.851 202.836 301.984C206.171 311.893 206.521 313.04 208.404 321.035Z" fill="#5932C4" stroke="black" stroke-width="0.1" stroke-miterlimit="10" stroke-linejoin="round"/>
<path d="M99.7095 201.919C98.4179 203.658 97.2623 205.146 96.2649 207.014C96.0989 207.342 95.8268 207.842 95.974 208.642C95.9051 209.407 96.0353 210.053 96.1955 210.623C96.6761 212.334 97.4609 213.657 97.9784 214.489C98.5269 215.339 99.3256 216.528 100.634 217.786C102.035 219.099 103.244 219.729 104.035 220.155C105.647 221.026 106.452 221.413 107.344 221.189C109.05 220.741 109.891 218.685 109.921 218.608C110.342 217.532 110.315 216.521 110.264 216.063L111.865 217.259C112.269 217.596 112.969 218.157 113.429 217.959C113.966 217.759 114.451 217.007 114.645 216.412L114.823 215.76C114.823 215.76 115.125 215.087 115.155 215.01C115.32 214.587 115.741 213.607 115.778 212.728C115.808 211.277 114.41 210.25 114.145 209.949C113.88 209.647 113.506 209.329 113.32 209.217C112.994 208.975 113.085 208.84 113.422 208.662C113.483 208.604 113.513 208.527 113.589 208.43C113.741 208.237 113.895 208.139 114.002 208.061C114.001 207.966 114.031 207.889 114.092 207.83C114.29 207.617 114.634 208.108 115.004 208.14C115.529 208.17 115.965 207.151 116.116 206.862C116.733 205.477 117.895 204.561 118.714 203.345C120.777 200.219 123.508 197.54 123.691 197.365C124.758 196.298 126.879 194.297 129.839 192.893C132.253 191.789 134.353 191.486 134.812 191.419L134.818 191.419C135.187 191.355 135.464 191.332 135.664 191.309C135.408 191.867 135.016 192.675 134.518 193.657C133.642 195.408 133.279 196.044 132.282 197.912C128.746 204.613 129.464 203.952 128.613 205.15C128.431 205.42 128.021 205.98 127.784 206.881C127.488 208.032 127.638 209.117 127.816 209.84C128.277 211.206 128.707 212.554 129.138 213.902L129.138 213.903C129.264 214.168 129.344 214.454 129.471 214.719L128.48 217.255C128.341 217.219 127.818 217.285 127.649 217.326C127.279 217.389 126.927 217.605 126.715 217.952L124.538 221.958C124.175 222.594 124.272 223.031 124.725 223.539L124.73 224.016L159.632 249.236C159.955 249.097 160.444 248.727 160.656 248.38L163.293 244.175C163.565 243.674 163.668 243.214 163.509 242.74C163.462 242.664 163.429 242.455 163.398 242.436L171.857 229.107C172.028 229.257 172.2 229.502 172.37 229.557C172.787 229.665 173.617 229.403 173.951 228.939C174.772 227.819 175.712 226.391 176.848 224.559C179.176 220.179 183.983 210.652 184.59 207.576C184.86 206.884 184.973 205.909 185.181 205.18C185.627 203.646 185.078 199.856 184.876 198.218C184.335 198.131 182.265 190.395 180.211 187.126C178.455 184.368 153.62 171.01 153.126 170.904L151.256 170.4C150.746 170.332 150.163 170.551 149.829 171.015C149.753 171.111 149.631 171.228 149.617 171.362C142.899 170.135 137.712 170.869 137.635 170.87C132.451 171.795 127.626 173.267 123.288 175.457L123.209 175.268C123.051 174.888 122.785 174.587 122.46 174.44C122.135 174.292 121.766 174.356 121.428 174.533L116.943 177.393C116.392 177.822 116.093 178.686 116.364 179.464L116.443 179.654C105.889 187.367 102.324 196.989 102.248 197.086L102.188 197.239L102.298 197.447C102.377 197.637 102.471 197.788 102.55 197.978C101.988 198.732 101.441 199.542 100.864 200.334C100.211 201.223 99.8916 201.648 99.7095 201.919Z" fill="white"/>
<path d="M183.755 238.086L185.898 201.085C185.637 197.796 184.87 196.52 183.419 195.264L168.336 235.29L167.569 242.988L172.056 253.116L189.864 257.66L190.896 256.757L193.808 240.156L192.977 239.605L183.755 238.086Z" fill="white"/>
<path d="M171.5 253.459L170.116 254.316C169.894 254.445 169.601 254.515 169.38 254.455C169.158 254.396 168.961 254.105 168.833 253.872L165.651 245.54C165.468 244.945 165.622 244.382 166.033 244.096L167.124 243.309C167.417 243.05 167.826 243.14 168.105 243.374C168.21 243.462 168.349 243.579 168.407 243.753L169.689 246.527L171.827 246.617L170.926 249.2L171.892 252.087C171.996 252.363 171.983 252.667 171.935 252.942C171.888 253.028 171.864 253.071 171.817 253.158C171.804 253.273 171.664 253.345 171.5 253.459Z" fill="#21FDC8"/>
<path d="M171.5 253.459L170.116 254.316C169.894 254.445 169.601 254.515 169.38 254.455C169.158 254.396 168.961 254.105 168.833 253.872L165.651 245.54C165.468 244.945 165.622 244.382 166.033 244.096L167.124 243.309C167.417 243.05 167.826 243.14 168.105 243.374C168.21 243.462 168.349 243.579 168.407 243.753L169.689 246.527L171.827 246.617L170.926 249.2L171.892 252.087C171.996 252.363 171.983 252.667 171.935 252.942C171.888 253.028 171.864 253.071 171.817 253.158C171.804 253.273 171.664 253.345 171.5 253.459Z" stroke="#6027FF" stroke-width="1.5" stroke-miterlimit="10" stroke-linejoin="round"/>
<path d="M167.545 243.095L168.399 234.595" stroke="#6027FF" stroke-width="1.5" stroke-miterlimit="10" stroke-linejoin="round"/>
<path d="M183.371 194.988C185.003 196.885 185.756 198.07 185.898 201.085L183.755 238.087" stroke="#6027FF" stroke-width="1.5" stroke-miterlimit="10" stroke-linejoin="round"/>
<path d="M181.268 237.517L183.147 237.893L183.964 238.074L192.895 239.693C193.362 239.769 193.757 240.163 193.906 240.728L193.917 240.801C193.998 241.12 194.031 241.525 193.924 241.814C193.888 241.973 193.794 242.146 193.723 242.275C192.238 244.623 189.911 249.539 191.084 255.496C191.129 255.786 191.127 256.162 191.079 256.437C190.961 256.653 190.843 256.869 190.749 257.042C190.725 257.085 190.619 257.186 190.596 257.229C190.302 257.487 189.963 257.644 189.613 257.54L171.757 253.172" stroke="#6027FF" stroke-width="1.5" stroke-miterlimit="10" stroke-linejoin="round"/>
<path d="M165.318 171.049L152.2 166.605C149.664 165.845 147.244 167.24 146.194 169.929L146.093 170.58C148.087 171.158 149.03 171.391 149.291 171.311C149.643 171.095 149.81 170.863 150.455 170.585C150.823 170.426 151.462 170.504 152.282 170.757C152.9 170.938 153.31 170.92 153.761 171.333C154.633 172.14 155.344 172.281 156.69 172.755C158.067 173.248 160.033 174.094 162.929 175.402C163.716 173.976 164.517 172.513 165.318 171.049Z" fill="#F579A6"/>
<path d="M135.479 191.294L128.007 206.115C128.007 206.115 126.717 207.949 129.239 214.627L133.015 207.407L133.483 206.502C132.913 206.493 132.74 205.913 132.578 205.247C132.369 204.411 132.453 203.847 132.468 203.808C132.527 203.559 134.269 203.291 135.847 202.388C136.828 201.837 136.376 200.27 136.731 200.341C136.974 199.917 137.2 199.436 137.442 199.012L141.401 191.617L135.479 191.294Z" fill="#F579A6"/>
<path d="M154.185 172.108L159.861 173.943" stroke="#6027FF" stroke-width="1.5" stroke-miterlimit="10" stroke-linejoin="round"/>
<path d="M117.034 177.354L121.52 174.494C121.857 174.316 122.226 174.253 122.551 174.4C122.877 174.548 123.142 174.849 123.3 175.228L123.379 175.418L123.664 176.157L123.728 176.385C124.014 177.125 123.777 178.026 123.226 178.455L121.972 179.316L121.399 181.959L119.718 180.479L118.477 181.11C117.97 181.328 117.476 181.222 117.102 180.808C116.976 180.638 116.882 180.487 116.772 180.279L116.741 180.26L116.471 179.482L116.392 179.292C116.169 178.59 116.437 177.707 117.034 177.354Z" fill="#21FDC8"/>
<path d="M117.034 177.354L121.52 174.494C121.857 174.316 122.226 174.253 122.551 174.4C122.877 174.548 123.142 174.849 123.3 175.228L123.379 175.418L123.664 176.157L123.728 176.385C124.014 177.125 123.777 178.026 123.226 178.455L121.972 179.316L121.399 181.959L119.718 180.479L118.477 181.11C117.97 181.328 117.476 181.222 117.102 180.808C116.976 180.638 116.882 180.487 116.772 180.279L116.741 180.26L116.471 179.482L116.392 179.292C116.169 178.59 116.437 177.707 117.034 177.354Z" stroke="#6027FF" stroke-width="1.5" stroke-miterlimit="10" stroke-linejoin="round"/>
<path d="M157.455 216.094C154.375 212.545 154.233 206.535 157.137 202.669C160.041 198.802 164.891 198.545 167.971 202.093C171.051 205.641 171.194 211.652 168.29 215.518C165.386 219.384 160.535 219.642 157.455 216.094Z" stroke="#6027FF" stroke-width="1.5" stroke-miterlimit="10" stroke-linejoin="round"/>
<path d="M153.315 196.004C153.315 196.004 153.33 195.965 153.392 196.003C153.761 195.939 154.086 195.991 154.366 196.254L155.688 197.378C156.232 197.846 156.336 198.856 156.019 199.568L155.732 200.107L155.354 200.781L153.297 204.48L152.919 205.154L152.405 206.079C152.193 206.426 151.949 206.659 151.611 206.741C151.241 206.804 150.917 206.752 150.637 206.489L149.284 205.347C149.237 205.272 149.175 205.234 149.159 205.177C148.893 204.876 148.765 204.42 148.776 204C148.804 203.732 148.862 203.388 148.998 203.137L152.629 196.683C152.748 196.28 153.008 196.104 153.315 196.004Z" stroke="#6027FF" stroke-width="1.5" stroke-miterlimit="10" stroke-linejoin="round"/>
<path d="M151.395 193.668C151.441 193.648 151.518 193.647 151.564 193.627C151.733 193.586 151.888 193.679 152.013 193.849L152.854 194.637C153.057 194.9 153.138 195.281 153.096 195.682C153.037 195.932 152.963 196.219 152.827 196.47L149.088 202.811C148.89 203.12 148.631 203.391 148.34 203.549C148.325 203.587 148.294 203.569 148.248 203.588C147.987 203.669 147.786 203.596 147.569 203.466L146.728 202.678C146.697 202.659 146.697 202.659 146.681 202.602C146.369 202.226 146.39 201.385 146.769 200.711L146.829 200.557L150.524 194.426C150.766 194.002 151.072 193.807 151.395 193.668Z" stroke="#6027FF" stroke-width="1.5" stroke-miterlimit="10" stroke-linejoin="round"/>
<path d="M157.742 202.021C157.633 201.908 157.54 201.852 157.43 201.739C156.808 201.177 156.231 200.595 155.609 200.032" stroke="#6027FF" stroke-width="1.5" stroke-miterlimit="10" stroke-linejoin="round"/>
<path d="M177.961 214.748C176.987 214.497 174.218 213.549 170.341 211.322" stroke="#6027FF" stroke-width="1.5" stroke-miterlimit="10" stroke-linejoin="round"/>
<path d="M152.873 205.174C153.761 206.038 154.212 206.45 155.068 207.2" stroke="#6027FF" stroke-width="1.5" stroke-miterlimit="10" stroke-linejoin="round"/>
<path d="M167.637 216.482C172.615 219.321 175.365 219.925 175.458 219.981" stroke="#6027FF" stroke-width="1.5" stroke-miterlimit="10" stroke-linejoin="round"/>
<path d="M136.107 219.975L139.529 222.878C140.026 223.27 140.326 223.876 140.411 224.639C140.526 225.324 140.395 226.051 140.047 226.649L139.518 227.612L139.139 228.286L136.145 233.699L135.767 234.374L135.525 234.798C134.86 236.011 133.492 236.377 132.527 235.515L129.058 232.536C128.98 232.442 128.856 232.368 128.778 232.274C128.013 231.389 127.828 229.903 128.479 228.823L128.842 228.187L129.22 227.513L132.215 222.1L132.593 221.426L133.016 220.636C133.774 219.478 135.112 219.189 136.107 219.975Z" stroke="#6027FF" stroke-width="1.5" stroke-miterlimit="10" stroke-linejoin="round"/>
<path d="M157.199 235.073L158.288 236.01C158.568 236.273 158.71 236.595 158.806 236.937C158.856 237.299 158.799 237.739 158.648 238.028L157.742 239.761L157.364 240.435L154.417 245.924L154.038 246.598L153.071 248.389C152.92 248.678 152.599 248.912 152.292 249.013C151.953 249.094 151.644 249.004 151.395 248.76L150.306 247.823C150.275 247.805 150.197 247.711 150.181 247.654C149.759 247.164 149.658 246.345 150.006 245.747L150.611 244.592L150.989 243.918L153.922 238.563L154.3 237.889L155.661 235.385C155.948 234.846 156.67 234.662 157.199 235.073Z" stroke="#6027FF" stroke-width="1.5" stroke-miterlimit="10" stroke-linejoin="round"/>
<path d="M161.057 241.081L157.001 248.134" stroke="#6027FF" stroke-width="1.5" stroke-miterlimit="10" stroke-linejoin="round"/>
<path d="M147.48 242.906L151.218 236.374" stroke="#6027FF" stroke-width="1.5" stroke-miterlimit="10" stroke-linejoin="round"/>
<path d="M146.327 233.113L142.59 239.645" stroke="#6027FF" stroke-width="1.5" stroke-miterlimit="10" stroke-linejoin="round"/>
<path d="M137.184 235.553L140.952 229.039" stroke="#6027FF" stroke-width="1.5" stroke-miterlimit="10" stroke-linejoin="round"/>
<path d="M126.395 225.535L130.104 219.175" stroke="#6027FF" stroke-width="1.5" stroke-miterlimit="10" stroke-linejoin="round"/>
<path d="M181.264 199.231C181.697 200.771 183.304 202.634 176.994 216.539C174.961 221.058 170.726 227.198 170.713 227.427C170.632 228.421 171.724 229.644 172.327 229.863C173.333 230.229 174.68 227.954 176.45 224.795C182.319 214.371 183.486 210.992 184.008 209.361C185.381 205.158 185.471 203.458 185.444 202.351C185.42 198.686 184.111 195.863 183.293 194.33" fill="#F579A6"/>
<path d="M181.264 199.231C181.697 200.771 183.304 202.634 176.994 216.539C174.961 221.058 170.726 227.198 170.713 227.427C170.632 228.421 171.724 229.644 172.327 229.863C173.333 230.229 174.68 227.954 176.45 224.795C182.319 214.371 183.486 210.992 184.008 209.361C185.381 205.158 185.471 203.458 185.444 202.351C185.42 198.686 184.111 195.863 183.293 194.33" stroke="#6027FF" stroke-width="1.5" stroke-miterlimit="10" stroke-linejoin="round"/>
<path d="M151.24 170.438L153.11 170.942C153.605 171.048 154.01 171.481 154.186 172.108C154.873 174.368 156.669 182.318 151.19 193.213C150.903 193.752 150.617 194.386 150.283 194.945C149.164 196.93 147.903 198.688 146.579 200.217C143.136 204.034 139.042 206.086 134.345 206.45C134.176 206.491 133.991 206.474 133.806 206.458C133.729 206.46 133.636 206.404 133.528 206.482C133.235 206.449 132.956 206.281 132.707 206.037C132.582 205.868 132.488 205.716 132.378 205.508C132.093 204.864 132.116 204.119 132.51 203.502L133.904 201.207C134.268 200.667 134.835 200.39 135.469 200.533C135.747 200.604 136.071 200.656 136.534 200.649C136.811 200.625 137.103 200.563 137.395 200.501C139.285 199.974 142.208 197.979 146.102 191.635C151.254 183.342 150.438 176.216 149.477 172.796C149.413 172.568 149.349 172.34 149.393 172.129C149.421 171.861 149.495 171.574 149.554 171.325C149.568 171.191 149.69 171.074 149.766 170.978C150.208 170.531 150.684 170.294 151.24 170.438Z" fill="#F579A6" stroke="#6027FF" stroke-width="1.5" stroke-miterlimit="10" stroke-linejoin="round"/>
<path d="M136.579 200.629L141.324 191.713" stroke="#6027FF" stroke-width="1.5" stroke-miterlimit="10" stroke-linejoin="round"/>
<path d="M133.528 206.483L129.691 213.761L129.268 214.551L127.908 217.15L127.848 217.304" stroke="#6027FF" stroke-width="1.5" stroke-miterlimit="10" stroke-linejoin="round"/>
<path d="M149.586 171.439C142.883 170.174 137.665 170.889 137.665 170.889C132.511 171.737 127.688 173.304 123.318 175.476C123.318 175.476 123.287 175.457 123.241 175.477" stroke="#6027FF" stroke-width="1.5" stroke-miterlimit="10" stroke-linejoin="round"/>
<path d="M116.503 179.692C105.902 187.233 102.29 196.875 102.276 197.009L102.216 197.163L102.326 197.371C102.405 197.561 102.469 197.693 102.579 197.901C102.72 198.128 102.83 198.336 102.956 198.602C103.617 199.851 104.414 200.945 105.241 201.867C108.097 205.142 111.366 206.768 113.255 207.52C113.487 207.612 113.734 207.665 113.935 207.738C114.508 207.939 114.817 208.029 114.817 208.029L114.987 208.083L115.625 207.233C116.658 205.765 118.572 203.119 121.63 199.404C126.5 193.502 131.504 191.568 135.508 191.217C135.785 191.193 136.047 191.208 136.324 191.184C137.064 191.153 138.975 191.16 141.309 191.752C141.309 191.752 141.556 191.805 143.318 192.292" stroke="#6027FF" stroke-width="1.5" stroke-miterlimit="10" stroke-linejoin="round"/>
<path d="M102.612 197.825C101.606 198.929 100.754 199.936 100.039 200.883C99.8722 201.115 99.7202 201.308 99.5831 201.463C97.6692 204.11 96.6118 206.131 96.0696 207.324C95.6324 208.247 95.5986 209.412 95.948 210.38C96.854 212.961 98.0312 214.946 99.3263 216.433C101.777 219.276 104.579 220.433 106.417 220.823C107.839 221.2 109.261 220.108 109.658 218.307C109.835 217.56 109.997 216.851 110.205 216.122C110.264 215.873 110.338 215.585 110.459 215.373C111.234 212.898 112.121 210.822 112.847 209.455C112.983 209.204 113.088 208.936 113.225 208.781C113.603 208.106 113.845 207.682 113.967 207.566" stroke="#6027FF" stroke-width="1.5" stroke-miterlimit="10" stroke-linejoin="round"/>
<path d="M110.173 216.294L111.805 217.508C112.24 217.864 112.795 217.912 113.256 217.713C113.716 217.515 114.189 217.087 114.337 216.512L114.532 216.013L114.801 215.226L115.46 213.44C115.791 212.594 115.579 211.567 115.018 210.946L113.177 208.895L113.052 208.726" stroke="#6027FF" stroke-width="1.5" stroke-miterlimit="10" stroke-linejoin="round"/>
<path d="M135.479 191.293L128.411 204.982C127.897 205.906 127.662 206.998 127.581 208.088C127.553 208.355 127.556 208.642 127.574 208.89C127.599 209.805 127.81 210.737 128.127 211.591L129.283 214.512" stroke="#6027FF" stroke-width="1.5" stroke-miterlimit="10" stroke-linejoin="round"/>
<path d="M163.334 242.304L171.936 229.393" stroke="#6027FF" stroke-width="1.5" stroke-miterlimit="10" stroke-linejoin="round"/>
<path d="M132.656 221.559C131.271 220.302 129.884 218.951 128.482 217.542C128.451 217.523 128.451 217.523 128.404 217.448C128.279 217.278 128.093 217.166 127.923 217.112C127.753 217.057 127.599 217.06 127.429 217.101C127.044 217.107 126.723 217.341 126.496 217.727L124.319 221.733C123.956 222.369 124.042 223.227 124.51 223.792L124.589 223.886C124.714 224.056 124.854 224.187 125.057 224.451C125.899 225.334 127.208 226.687 128.858 228.245" stroke="#6027FF" stroke-width="1.5" stroke-miterlimit="10" stroke-linejoin="round"/>
<path d="M154.209 237.929C149.573 235.389 145.008 232.276 139.503 227.651" stroke="#6027FF" stroke-width="1.5" stroke-miterlimit="10" stroke-linejoin="round"/>
<path d="M153.978 246.657C155.605 247.489 157.293 248.263 158.889 248.982C158.92 249 158.997 248.999 158.997 248.999C159.198 249.072 159.368 249.126 159.552 249.047C159.921 248.984 160.197 248.769 160.409 248.422L163.213 243.986C163.455 243.562 163.572 242.968 163.397 242.437C163.396 242.341 163.365 242.323 163.287 242.228C163.176 241.925 163.035 241.793 162.833 241.625C162.709 241.551 162.554 241.458 162.4 241.46C161.426 241.209 159.849 240.738 157.665 239.762" stroke="#6027FF" stroke-width="1.5" stroke-miterlimit="10" stroke-linejoin="round"/>
<path d="M135.783 234.431C140.963 238.813 145.402 241.757 150.55 244.651" stroke="#6027FF" stroke-width="1.5" stroke-miterlimit="10" stroke-linejoin="round"/>
<path d="M164.983 208.569C165.199 209.151 165.226 209.813 165.124 210.397C165.023 210.981 164.746 211.562 164.397 211.95L164.902 212.695C165.389 212.126 165.762 211.396 165.899 210.603C166.044 209.768 165.987 208.88 165.671 208.054L165.269 208.34L164.983 208.569Z" fill="#26F2C1"/>
<path d="M165.315 213.372L163.626 210.915C163.804 210.701 163.949 210.477 164.006 210.144C164.057 209.851 164.04 209.541 163.983 209.264L165.148 208.439L166.361 207.539C166.443 207.473 166.465 207.348 166.412 207.247L166.306 207.044C165.757 205.938 164.867 205.177 163.871 204.825L163.986 204.158C163.994 204.116 164.001 204.074 164.008 204.032C164.015 203.991 163.989 203.94 163.962 203.889C163.936 203.839 163.902 203.83 163.876 203.779C163.842 203.77 163.816 203.719 163.782 203.71C163.748 203.701 163.714 203.692 163.673 203.725C163.633 203.758 163.599 203.749 163.558 203.782C163.517 203.815 163.51 203.856 163.469 203.889C163.462 203.931 163.421 203.964 163.447 204.014L163.324 204.724C163.081 204.703 162.838 204.682 162.588 204.703L162.74 203.826C162.747 203.784 162.754 203.743 162.761 203.701C162.769 203.659 162.742 203.609 162.716 203.558C162.689 203.507 162.655 203.498 162.629 203.448C162.595 203.439 162.569 203.388 162.535 203.379C162.501 203.37 162.468 203.361 162.427 203.394C162.393 203.385 162.352 203.418 162.311 203.45C162.27 203.483 162.263 203.525 162.222 203.558C162.215 203.599 162.174 203.632 162.2 203.683L162.005 204.81C161.083 205.045 160.272 205.659 159.694 206.553C159.116 207.447 158.779 208.579 158.759 209.709C158.732 210.881 159.031 212.008 159.615 212.905C160.2 213.803 161.004 214.453 161.906 214.736L164.831 215.557C164.932 215.584 165.013 215.519 165.035 215.394L165.353 213.557C165.368 213.474 165.341 213.423 165.315 213.372ZM162.092 213.869C161.384 213.681 160.734 213.159 160.256 212.464C159.777 211.769 159.51 210.869 159.493 209.948C159.477 209.027 159.67 208.118 160.117 207.364C160.532 206.601 161.153 206.067 161.873 205.778L161.641 207.114C161.634 207.156 161.627 207.197 161.619 207.239C161.612 207.281 161.639 207.331 161.665 207.382C161.692 207.433 161.725 207.442 161.752 207.492C161.785 207.501 161.812 207.552 161.846 207.561C161.879 207.57 161.913 207.579 161.954 207.546C161.988 207.555 162.029 207.522 162.069 207.49C162.11 207.457 162.118 207.415 162.159 207.382C162.166 207.341 162.207 207.308 162.18 207.257L162.462 205.63C162.862 205.561 163.247 205.576 163.651 205.684C164.359 205.872 165.016 206.352 165.461 207.038C165.487 207.089 165.473 207.172 165.432 207.205L163.578 208.545C163.458 208.426 163.297 208.34 163.162 208.304C162.994 208.259 162.818 208.256 162.635 208.295C162.452 208.333 162.295 208.423 162.165 208.563C162.035 208.703 161.905 208.843 161.836 209.043C161.766 209.242 161.696 209.442 161.693 209.66C161.691 209.877 161.688 210.095 161.761 210.289C161.833 210.482 161.905 210.676 162.018 210.837C162.131 210.998 162.285 211.127 162.454 211.171C162.615 211.258 162.791 211.261 162.966 211.264L164.595 213.661C164.629 213.67 164.622 213.712 164.614 213.754L164.499 214.421C164.491 214.463 164.451 214.496 164.417 214.487L162.092 213.869ZM163.306 209.914C163.284 210.039 163.236 210.113 163.181 210.23C163.099 210.295 163.017 210.361 162.942 210.385C162.834 210.399 162.767 210.381 162.666 210.355C162.572 210.286 162.512 210.226 162.459 210.125C162.406 210.024 162.387 209.931 162.375 209.797C162.396 209.672 162.418 209.547 162.466 209.472C162.521 209.356 162.603 209.29 162.678 209.267C162.753 209.243 162.861 209.228 162.962 209.255C163.097 209.291 163.183 209.401 163.27 209.511C163.289 209.604 163.335 209.747 163.306 209.914Z" fill="#0E0333"/>
<path d="M192.479 168.257L192.883 167.124L193.498 162.609L193.136 159.026L191.894 155.343L189.804 153.048C180.158 143.146 172.763 156.495 172.763 156.495L170.684 155.25L168.919 155.947L166.121 160.956L165.827 163.767L167.507 166.622L162.869 175.46L159.863 173.944L158.61 176.465C158.61 176.465 156.219 186.412 164.656 194.215C173.125 202.037 178.381 199.164 178.381 199.164L180.849 196.47L181.826 192.694L181.204 190.757L192.479 168.257Z" fill="white"/>
<path d="M182.418 188.828C182.418 188.828 183.967 192.41 182.987 195.901C182.943 196.111 182.837 196.285 182.793 196.496C182.554 197.206 182.207 197.899 181.737 198.613C181.584 198.806 181.432 198.999 181.25 199.27C181.038 199.617 180.764 199.927 180.444 200.256C179.59 201.168 178.595 201.757 177.503 202.003C177.303 202.026 177.088 202.087 176.888 202.109C173.132 202.609 168.725 199.78 166.036 197.743C164.591 196.64 163.672 195.758 163.61 195.721C158.206 190.445 155.839 183.86 156.686 176.592C156.697 176.172 156.8 175.712 156.904 175.347C156.963 175.098 157.068 174.829 157.112 174.619C157.516 173.486 158.124 172.617 158.857 172.013C159.01 171.915 159.117 171.837 159.239 171.72C159.499 171.544 159.699 171.427 159.944 171.289C161.83 170.38 163.944 170.651 165.041 170.881C165.18 170.917 165.166 171.051 165.106 171.205L164.29 172.707C164.182 172.69 161.909 172.039 160.122 173.577C159.191 174.394 158.617 175.568 158.435 177.212C157.772 183.026 159.401 188.364 163.271 192.768C163.801 193.37 164.347 193.934 164.953 194.439C165.326 194.757 165.918 195.301 166.742 195.937C169.927 198.367 175.931 202.01 179.512 198.134C182.331 195.129 181.868 192.101 181.547 190.961C181.436 190.657 181.494 190.313 181.645 190.024L182.418 188.828Z" fill="white" stroke="#6027FF" stroke-width="1.5" stroke-miterlimit="10" stroke-linejoin="round"/>
<path d="M167.719 166.18L167.734 166.141L162.346 176.9L162.767 177.294C166.807 180.378 165.067 186.305 165.022 186.42L164.902 186.728L174.397 193.979C178.328 196.951 180.638 192.408 180.653 192.369L186.613 180.341" stroke="#6027FF" stroke-width="1.5" stroke-miterlimit="10" stroke-linejoin="round"/>
<path d="M159.862 173.944L163.207 175.378" stroke="#6027FF" stroke-width="1.5" stroke-miterlimit="10" stroke-linejoin="round"/>
<path d="M182.607 157.556L193.112 165.555C193.205 165.611 193.236 165.629 193.283 165.705C193.454 165.855 193.611 166.043 193.752 166.27L193.783 166.288L194.173 166.759C194.298 166.929 194.423 167.099 194.486 167.231C194.628 167.458 194.723 167.705 194.834 168.008C195.263 169.261 195.217 170.751 194.598 171.945L191.082 178.989C190.132 180.932 188.134 181.538 186.521 180.571C186.428 180.516 186.381 180.44 186.288 180.384L175.643 172.254C175.052 171.806 174.614 171.164 174.282 170.348L174.075 169.798C173.599 168.47 173.691 166.96 174.295 165.805L177.797 158.895C178.825 156.95 180.945 156.323 182.607 157.556Z" fill="#21FDC8"/>
<path d="M182.607 157.556L193.112 165.555C193.205 165.611 193.236 165.629 193.283 165.705C193.454 165.855 193.611 166.043 193.752 166.27L193.783 166.288L194.173 166.759C194.298 166.929 194.423 167.099 194.486 167.231C194.628 167.458 194.723 167.705 194.834 168.008C195.263 169.261 195.217 170.751 194.598 171.945L191.082 178.989C190.132 180.932 188.134 181.538 186.521 180.571C186.428 180.516 186.381 180.44 186.288 180.384L175.643 172.254C175.052 171.806 174.614 171.164 174.282 170.348L174.075 169.798C173.599 168.47 173.691 166.96 174.295 165.805L177.797 158.895C178.825 156.95 180.945 156.323 182.607 157.556Z" stroke="#6027FF" stroke-width="1.5" stroke-miterlimit="10" stroke-linejoin="round"/>
<path d="M181.415 161.298C181.12 161.074 180.796 161.022 180.442 161.142C179.521 161.444 178.798 163.002 178.783 163.04L174.814 171.046" stroke="#6027FF" stroke-width="1.5" stroke-miterlimit="10" stroke-linejoin="round"/>
<path d="M171.257 155.451C171.427 155.505 171.644 155.636 171.83 155.747C171.861 155.766 171.861 155.766 171.923 155.803L173.368 156.905C173.461 156.961 173.757 157.185 173.902 157.794C174.145 158.935 173.731 160.584 172.66 162.739C170.381 167.301 168.548 167.388 168.471 167.389L168.362 167.372L168.05 166.995L167.583 166.526L166.304 165.096C165.567 163.943 165.443 162.399 166.062 161.205L168.22 156.856C168.792 155.587 170.096 154.993 171.257 155.451Z" fill="#21FDC8"/>
<path d="M171.257 155.451C171.427 155.505 171.644 155.636 171.83 155.747C171.861 155.766 171.861 155.766 171.923 155.803L173.368 156.905C173.461 156.961 173.757 157.185 173.902 157.794C174.145 158.935 173.731 160.584 172.66 162.739C170.381 167.301 168.548 167.388 168.471 167.389L168.362 167.372L168.05 166.995L167.583 166.526L166.304 165.096C165.567 163.943 165.443 162.399 166.062 161.205L168.22 156.856C168.792 155.587 170.096 154.993 171.257 155.451Z" stroke="#6027FF" stroke-width="1.5" stroke-miterlimit="10" stroke-linejoin="round"/>
<path d="M193.613 166.233C193.658 166.118 195.921 157.185 188.4 151.448C180.724 145.617 174.826 151.899 172.517 156.537" stroke="#6027FF" stroke-width="1.5" stroke-miterlimit="10" stroke-linejoin="round"/>
<path d="M194.775 168.162L194.79 168.124C195.183 167.411 198.113 161.77 197.061 155.64C196.422 152.081 194.602 149.095 191.541 146.739C181.392 138.907 175.799 146.271 171.257 155.451L171.212 155.566" stroke="#6027FF" stroke-width="1.5" stroke-miterlimit="10" stroke-linejoin="round"/>
<path d="M184.726 149.485L185.222 152.626C185.34 153.598 185.811 154.449 186.48 154.992L188.578 156.58C189.587 157.327 190.85 157.23 191.781 156.318L192.208 155.91" stroke="#6027FF" stroke-width="1.5" stroke-miterlimit="10" stroke-linejoin="round"/>
<path d="M179.565 180.055C180.482 180.746 180.486 182.598 179.687 184.253C178.842 185.927 177.478 186.675 176.623 186.021C175.706 185.33 175.64 183.441 176.47 181.805C177.285 180.111 178.649 179.364 179.565 180.055Z" stroke="#6027FF" stroke-width="1.5" stroke-miterlimit="10" stroke-linejoin="round"/>
<path d="M162.286 191.562C162.435 191.082 164.85 177.642 160.25 174.128" stroke="#6027FF" stroke-width="1.5" stroke-miterlimit="10" stroke-linejoin="round"/>
<path d="M165.335 171.01L152.62 166.808C149.929 165.955 147.385 167.275 146.334 169.965L145.974 170.887" stroke="#6027FF" stroke-width="1.5" stroke-miterlimit="10" stroke-linejoin="round"/>
<path d="M203.237 237.691C203.817 237.588 203.895 237.892 204.426 238.227C204.489 238.408 204.887 238.64 205.006 238.798C205.149 238.985 205.391 238.962 205.597 238.917C206.729 238.723 208.572 238.212 209.689 238.024C210.451 237.904 209.997 237.761 210.756 237.868C210.901 237.885 211.601 238.26 211.711 238.384C211.863 238.548 212.324 239.442 212.345 239.697C212.488 242.136 212.186 243.976 212.334 246.432C212.393 247.366 212.434 248.288 212.381 249.211C212.29 250.524 211.976 251.814 211.979 253.128C211.977 254.48 212.301 255.889 211.815 257.118C211.555 257.786 211.059 258.324 210.482 258.557C209.934 258.778 209.337 258.756 208.764 258.706C207.673 258.639 206.582 258.572 205.486 258.488C204.871 258.455 204.237 258.41 203.67 258.15C202.895 257.806 202.232 257.116 201.412 257.015C200.992 256.959 200.679 256.02 200.263 256.094C199.094 256.322 197.616 257.109 196.462 256.804C196.16 256.72 196.006 256.868 195.733 256.659C195.307 256.342 195.084 255.907 194.961 255.618C193.623 252.778 193.221 250.068 193.221 250.068C192.837 247.481 192.95 245.427 193.061 244.312C193.248 242.302 193.34 241.289 193.942 240.445C194.498 239.658 194.421 239.67 197.739 238.914C199.413 238.539 201.54 237.981 203.237 237.691Z" fill="white"/>
<path d="M201.644 256.483L195.621 256.849" stroke="#8C65F7" stroke-width="1.5" stroke-miterlimit="10" stroke-linejoin="round"/>
<path d="M199.553 244.505L199.973 246.635C200.103 247.307 200.454 247.872 200.959 248.193C201.152 248.333 201.345 248.418 201.563 248.475C201.91 248.552 202.278 248.531 202.638 248.421L204.949 247.616C205.521 247.422 205.996 246.977 206.283 246.353C206.571 245.73 206.651 245.028 206.479 244.373L205.215 239.45C204.901 238.254 203.869 237.529 202.798 237.78L193.877 239.858L194.023 240.886" stroke="#8C65F7" stroke-width="1.5" stroke-miterlimit="10" stroke-linejoin="round"/>
<path d="M201.768 249.177L201.255 256.062C201.178 257.307 201.867 258.387 202.918 258.651C202.968 258.667 203.019 258.683 203.066 258.682L209.473 259.067C210.095 259.179 210.723 258.962 211.217 258.473C211.711 257.984 212.01 257.284 212.034 256.549L212.428 240.344C212.445 239.577 212.195 238.863 211.693 238.377C211.206 237.885 210.549 237.698 209.904 237.849L205.103 238.996" stroke="#8C65F7" stroke-width="1.5" stroke-miterlimit="10" stroke-linejoin="round"/>
<path d="M189.768 258.839C188.484 252.257 188.41 244.55 189.13 240.265C189.252 239.537 189.737 239.034 190.315 238.948L190.568 238.91C192.07 238.687 194.706 242.591 194.713 244.534C194.729 248.595 195.241 253.707 195.738 257.486C195.88 258.567 195.317 259.577 194.475 259.723L191.423 260.252C190.676 260.382 189.953 259.784 189.768 258.839Z" fill="white" stroke="#8C65F7" stroke-width="1.5" stroke-linecap="round" stroke-linejoin="round"/>
<path d="M205.679 247.87C205.868 247.758 206.312 247.434 206.609 246.788C207.038 245.873 206.842 245.01 206.805 244.808L206.405 242.362L220.387 236.722L218.19 258.743L196.904 267.33L199.101 245.308L199.58 245.115C199.79 245.972 199.735 246.425 199.945 247.282C199.986 247.501 200.324 248.219 200.976 248.676C201.108 248.822 201.426 248.807 201.889 248.91C202.417 249.023 202.843 248.869 203.008 248.785C203.912 248.492 204.794 248.173 205.679 247.87Z" fill="white"/>
<path d="M206.101 242.374L220.361 236.621L218.165 258.642L196.879 267.229L199.076 245.208L199.569 245.009" stroke="#07E6B1" stroke-width="1.5" stroke-miterlimit="10" stroke-linejoin="round"/>
<path d="M216.972 259.142L219.169 237.121L220.365 236.638L218.169 258.66L216.972 259.142Z" fill="white" stroke="#07E6B1" stroke-width="1.5" stroke-miterlimit="10" stroke-linejoin="round"/>
<path d="M205.97 259.994L207.666 244.242L213.959 241.703L212.263 257.456L205.97 259.994Z" fill="white" stroke="#07E6B1" stroke-width="1.5" stroke-miterlimit="10" stroke-linejoin="round"/>
<path d="M197.549 268.063L196.882 267.246L218.168 258.659L220.365 236.638L221.045 237.45L218.835 259.477L197.549 268.063Z" fill="white" stroke="#07E6B1" stroke-width="1.5" stroke-miterlimit="10" stroke-linejoin="round"/>
<path d="M203.551 262.472L204.422 253.736L204.857 249.367" stroke="#07E6B1" stroke-width="1.5" stroke-miterlimit="10" stroke-linejoin="round"/>
<path d="M202.137 263.55L203.015 254.811" stroke="#07E6B1" stroke-width="1.5" stroke-miterlimit="10" stroke-linejoin="round"/>
<path d="M218.835 259.477L218.168 258.659" stroke="#07E6B1" stroke-width="1.5" stroke-miterlimit="10" stroke-linejoin="round"/>
<path d="M167.042 262.836C163.879 267.509 150.692 260.268 137.588 246.664C124.484 233.06 116.425 218.243 119.588 213.57C122.751 208.897 130.146 230.48 139.968 234.41C166.481 245.019 170.204 258.163 167.042 262.836Z" fill="#5932C4"/>
<path d="M127.273 226.551C129.985 232.652 133.287 235.037 137.165 239.359" stroke="#DFF0EC" stroke-width="1.5" stroke-linecap="round"/>
<path d="M156.2 247.094C157.438 248.301 159.141 248.844 160.586 249.583C163.239 250.939 164.584 254.963 165.193 258.169" stroke="#DFF0EC" stroke-width="1.5" stroke-linecap="round"/>
<path d="M143.909 252.229C145.785 254.211 147.704 256.314 150.154 257.056" stroke="#DFF0EC" stroke-width="1.5" stroke-linecap="round"/>
</svg>
