<svg width="236" height="283" viewBox="0 0 236 283" fill="none" xmlns="http://www.w3.org/2000/svg">
<path d="M226.312 100.925C212.422 69.5959 214.802 53.6959 219.232 45.8919C224.042 37.4249 232.282 36.3229 232.362 36.3069L232.232 35.1089C231.862 35.1579 223.312 36.259 218.192 45.261C211.512 56.983 213.872 75.8779 225.192 101.426C235.192 123.996 236.932 142 230.352 154.937C224.532 166.351 213.742 170.124 210.912 170.933C210.912 168.974 210.852 166.821 210.672 164.425C210.942 164.36 211.232 164.279 211.512 164.198L211.822 164.101L211.912 163.809C211.962 163.647 216.902 148.606 210.412 126.927L210.652 126.814C211.782 126.295 212.332 124.984 211.912 123.818L208.742 115.108C208.512 114.492 208.062 114.007 207.462 113.748C206.882 113.472 206.202 113.472 205.602 113.715L205.342 113.829C201.632 105.992 196.662 98.2209 190.582 90.7569C190.512 90.6759 184.172 83.358 173.852 76.282C173.922 76.072 173.952 75.861 173.952 75.651C173.972 74.647 173.462 73.7399 172.612 73.2059L169.502 71.3439C168.692 70.8579 167.722 70.81 166.872 71.215C165.392 71.94 162.402 73.7019 159.242 77.1819C159.192 77.1389 159.132 77.102 159.082 77.062C159.872 76.361 160.562 75.6139 161.142 74.8089C164.172 70.5989 163.102 66.5999 163.072 66.4379L162.682 66.552C165.452 61.371 177.162 36.8419 160.632 19.6149C152.692 11.3249 142.572 7.63395 132.182 9.21995C121.882 10.775 112.402 17.4609 108.012 26.2529C100.112 42.0709 98.5224 47.5279 97.7124 56.9339L97.6324 56.8699C97.5424 56.9989 95.9224 59.0549 95.7424 61.5319L95.7124 61.4679C93.0424 62.8439 91.6124 65.694 90.4924 68.252C90.0224 69.336 89.5724 70.4369 89.1724 71.5869C87.4224 71.3279 81.2224 70.2919 70.8624 67.6689C68.8994 67.1829 67.6524 66.1469 67.0534 64.5439C64.4144 57.4199 75.2124 41.9089 75.3124 41.7639L75.4524 41.5529C87.7924 37.7969 94.6424 29.4099 94.9324 29.0379L95.1424 28.7949L95.0424 28.4869C92.8224 21.3309 91.2524 19.9549 91.0824 19.8089L90.7724 19.5659L82.3024 24.0989C87.1124 17.8169 91.2924 8.81495 91.4624 8.41095L91.6424 8.03795L91.3724 7.74695C82.3824 -2.11305 69.0934 0.233949 68.9474 0.266949L68.7864 0.298947L68.6564 0.428952C60.2054 8.28095 54.4264 24.2129 53.0334 28.3089L52.6934 27.1759L51.9814 28.2439C51.8354 28.4709 38.2044 49.519 39.1914 68.754L38.5284 68.9639C37.3464 69.3359 36.6504 70.567 36.9254 71.765L39.0624 80.799C39.2084 81.447 39.5964 81.9809 40.1634 82.3049C40.5354 82.5319 40.9564 82.6449 41.3614 82.6449C41.5874 82.6449 41.7984 82.6129 42.0254 82.5479L42.9474 82.289C50.7344 94.772 79.1024 99.597 83.1624 100.212C82.8424 103.596 82.6724 106.559 82.6324 108.874C82.6124 109.797 83.0524 110.671 83.7924 111.19C84.0524 111.384 84.3424 111.529 84.6524 111.594L83.1824 136.479C83.0624 136.496 82.9524 136.544 82.8524 136.593C82.1224 136.965 81.6224 137.678 81.5624 138.503L80.8124 146.874C80.7624 147.522 80.9724 148.137 81.3824 148.623L57.1784 154.014C51.2364 155.325 46.3314 159.486 44.0644 165.137L30.6434 198.474C30.1254 199.753 29.8994 201.113 29.9474 202.505L29.9644 202.991C30.0284 204.254 30.3204 205.468 30.8224 206.585C29.3814 206.925 25.5924 207.168 18.5994 203.477C15.3774 201.777 12.2854 201.388 9.41939 202.327C4.66039 203.898 1.69741 208.787 0.35341 211.572C-0.48859 213.321 0.224377 215.442 1.95638 216.3L38.7714 234.579C39.2724 234.822 39.8074 234.952 40.3254 234.952C41.6364 234.952 42.8834 234.223 43.4984 232.976L49.3584 221.189C49.6824 220.526 49.7954 219.781 49.6824 219.052L49.3584 217.109L48.9354 217.178C48.9304 217.114 48.9364 217.05 48.9304 216.987C50.5504 216.923 52.1584 216.474 53.5844 215.604C55.1384 214.664 56.4014 213.304 57.2104 211.685L68.4944 189.439C69.1264 188.193 69.4654 186.865 69.5324 185.521L100.642 182.785L92.0524 201.712C89.0724 208.269 89.3624 215.944 92.8624 222.242L106.122 246.188C106.342 246.593 106.602 246.965 106.912 247.305L96.6024 261.504C96.5524 261.585 91.2424 269.6 96.7124 277.242C98.0724 279.152 99.9624 280.043 101.992 280.367C102.522 280.771 105.312 282.747 108.952 282.747C111.282 282.747 113.952 281.953 116.662 279.427C119.682 276.578 124.432 271.591 129.022 266.782C133.512 262.087 137.752 257.651 139.842 255.773C140.752 254.947 141.002 253.587 140.442 252.421L139.712 251.288C140.022 250.478 139.872 249.572 138.982 248.228L133.362 241.007L130.742 238.319L130.772 237.914C130.852 237.121 130.792 236.328 130.582 235.551L124.512 213.126C124.352 212.576 124.092 211.556 123.552 210.568L147.982 185.78C151.192 182.542 153.182 178.235 153.572 173.702L154.302 165.105H154.442C155.612 165.105 156.612 164.263 156.792 163.113L157.912 156.005C158.002 155.358 157.842 154.694 157.422 154.192C157.232 153.933 156.982 153.723 156.712 153.577L157.502 149.027L162.052 147.311C163.362 146.825 164.542 146.048 165.512 145.077C166.342 146.016 168.192 148.898 165.662 154.127C163.932 157.705 163.962 161.397 165.762 164.279C167.672 167.323 171.252 169.039 175.882 169.136L175.602 169.929C175.282 170.82 175.372 171.808 175.842 172.633C176.312 173.459 177.122 174.026 178.062 174.22L181.462 174.884C181.022 175.888 180.542 176.908 179.992 177.928C178.732 180.324 179.522 183.303 181.832 184.728C184.762 186.557 189.722 188.856 195.932 188.856C199.222 188.856 202.852 188.225 206.702 186.525C208.192 185.877 209.312 184.566 209.682 183.012C210.152 181.069 210.802 177.523 210.892 172.196C213.322 171.549 225.142 167.809 231.422 155.504C238.192 142.227 236.472 123.867 226.312 100.925ZM184.622 163.704C184.592 163.706 184.572 163.722 184.552 163.722C184.162 163.722 183.912 163.517 183.762 163.23C183.532 163.323 183.302 163.415 183.032 163.482C181.442 163.882 179.992 163.491 178.762 164.84C178.002 165.67 177.882 166.811 176.942 167.588C174.692 169.442 172.412 168.445 170.402 166.837C170.402 166.836 170.402 166.837 170.392 166.836C170.322 166.809 170.272 166.776 170.202 166.748C170.202 166.75 170.202 166.752 170.202 166.754C170.182 166.744 170.162 166.732 170.142 166.722C168.402 165.99 167.302 165.008 166.632 163.863C166.372 163.877 166.122 163.773 165.972 163.465C164.492 160.485 164.672 156.658 166.622 153.921C166.692 153.814 166.782 153.735 166.882 153.678C166.952 153.38 167.032 153.083 167.112 152.787C167.372 151.749 167.632 150.767 167.612 149.682C167.572 148.044 166.562 147.277 166.172 145.837C165.992 145.155 165.902 144.663 165.932 144.169C165.842 144.012 165.812 143.824 165.872 143.601C168.642 134.26 171.142 124.855 171.812 115.097C171.862 114.377 172.642 114.058 173.192 114.525C173.482 114.774 173.522 115.058 173.542 115.429C173.542 115.476 173.522 115.508 173.512 115.55C173.522 115.559 173.532 115.562 173.542 115.572C173.592 115.654 173.642 115.742 173.692 115.825C173.862 115.872 174.032 115.964 174.142 116.171C177.932 122.961 182.282 128.572 183.372 136.481C183.972 140.794 184.162 145.146 184.362 149.491C184.452 151.53 184.372 153.529 184.382 155.564C184.382 157.416 185.332 159.149 185.352 160.891C185.352 161.026 185.302 161.119 185.292 161.241C185.402 161.36 185.482 161.501 185.502 161.686C185.552 162.032 185.532 162.336 185.472 162.636C185.662 163.193 185.282 163.906 184.622 163.704Z" fill="#E2E0E7"/>
<path d="M107.922 53.3969L109.772 58.2539L112.512 60.6299L117.693 64.3249L125.872 67.9679L136.852 70.0269L144.502 68.9189L147.412 67.1759L148.522 65.6979L155.382 47.3249L154.372 43.4709L152.582 40.8839L123.073 28.1599L119.802 28.6879L117.162 29.6909L114.892 32.5419L107.502 48.6979L107.922 53.3969Z" fill="#5A27FB"/>
<path d="M138.742 250.629C138.722 250.598 138.732 250.565 138.712 250.534C137.092 247.469 135.042 244.161 132.692 241.581C132.322 240.99 131.682 240.566 130.772 240.566C128.382 240.566 127.842 243.407 129.122 244.724C124.592 248.319 118.682 251.855 112.902 250.264C112.462 250.144 112.072 250.158 111.712 250.225C111.362 249.868 110.982 249.542 110.562 249.296C110.072 249.007 109.562 248.974 109.092 249.089C108.472 248.774 107.662 248.779 107.092 249.111C106.422 249.499 106.102 250.221 106.132 250.944C103.392 253.811 100.832 257.144 99.092 260.598C96.612 261.197 95.072 264.693 94.852 267.005C94.772 267.941 94.9621 269.031 95.6621 269.714C95.5321 270.377 95.422 271.013 95.332 271.587C94.852 274.475 96.652 277.522 99.352 277.92C99.532 278.035 99.7021 278.153 99.9121 278.245C100.432 278.483 101.012 278.634 101.612 278.707C102.452 279.394 103.402 280.051 104.492 280.669C109.932 283.741 114.012 280.647 117.962 276.732C123.002 271.727 127.622 266.23 132.532 261.07C135.612 259.637 137.732 257.038 139.602 254.039C140.392 252.768 139.782 251.367 138.742 250.629Z" fill="#C4C1CF"/>
<path d="M48.6764 218.594C48.6354 217.762 48.2034 216.998 47.3044 216.72C46.8724 216.473 46.3874 216.34 45.9074 216.364C43.3264 215.717 41.2134 214.414 39.0954 212.687C37.1564 211.106 35.1034 208.705 32.5654 208.267C32.1894 207.659 31.5324 207.255 30.5874 207.347C27.9694 207.602 25.9734 207.548 23.5524 206.384C21.7834 205.532 20.0284 204.127 17.9874 204.312C17.9274 204.318 17.8704 204.334 17.8114 204.346C15.7264 203.084 12.6334 202.647 10.8084 202.944C7.0034 203.562 1.69536 208.208 1.08336 212.108C0.987359 212.719 1.06939 213.272 1.32439 213.725C1.30939 214.174 1.4644 214.634 1.9124 215.032C6.0224 218.682 11.3114 220.537 16.3344 222.625C17.1574 222.968 17.9794 223.317 18.8024 223.671C21.1994 225.088 23.9494 226.125 26.3054 227.198C29.8644 228.817 33.6574 231.67 37.4804 232.399C37.9844 233.637 39.2404 234.516 40.7724 234.055C41.0054 233.985 41.2394 233.915 41.4724 233.844C42.2964 233.596 42.8504 232.967 43.1414 232.236C46.1114 228.984 47.8544 223.619 48.6684 219.59C48.7384 219.242 48.7354 218.908 48.6764 218.594Z" fill="#C4C1CF"/>
<path d="M45.1002 76.719L47.4311 73.384L43.8052 72.413L43.0281 70.016C42.6551 68.883 41.5222 68.219 40.3892 68.397C40.2762 68.413 40.1621 68.446 40.0491 68.478L39.1912 68.753L38.5272 68.964C37.3452 69.336 36.6491 70.567 36.9241 71.765L39.0611 80.799C39.2071 81.447 39.5962 81.981 40.1622 82.305C40.5352 82.532 40.9562 82.645 41.3602 82.645C41.5872 82.645 41.7972 82.613 42.0242 82.548L42.9471 82.289L43.8701 82.03C43.9671 81.997 44.0641 81.965 44.1451 81.933C45.1651 81.496 45.7641 80.427 45.5701 79.31L45.1002 76.719ZM44.3711 79.536C44.4851 80.119 44.1291 80.686 43.5461 80.848L41.6841 81.382C41.3771 81.463 41.0531 81.431 40.7781 81.253C40.5021 81.091 40.3082 80.832 40.2432 80.524L38.1061 71.49C37.9771 70.907 38.3171 70.292 38.9001 70.114L40.4211 69.644C40.5351 69.595 40.6482 69.579 40.7612 69.579C41.2472 69.579 41.7171 69.903 41.8621 70.389L42.8661 73.416L45.4401 74.113L43.8212 76.444L44.3711 79.536Z" fill="#24048F"/>
<path d="M211.912 123.818L208.742 115.108C208.512 114.492 208.062 114.007 207.462 113.747C206.882 113.472 206.202 113.472 205.602 113.715L205.342 113.828L204.212 114.298L203.823 114.46C202.693 114.929 202.102 116.176 202.462 117.342L203.222 119.868L201.292 123.462L205.022 123.996L206.073 126.295C206.473 127.153 207.332 127.672 208.242 127.672C208.562 127.672 208.892 127.607 209.212 127.461L209.292 127.429L210.412 126.927L210.652 126.813C211.782 126.295 212.332 124.984 211.912 123.818ZM210.162 125.696L208.712 126.36C208.122 126.619 207.442 126.36 207.172 125.777L205.842 122.895L203.193 122.507L204.532 119.997L203.612 116.986C203.452 116.419 203.722 115.804 204.292 115.577L206.073 114.848C206.363 114.719 206.682 114.719 206.982 114.848C207.272 114.978 207.492 115.221 207.612 115.528L210.782 124.239C210.992 124.806 210.712 125.453 210.162 125.696Z" fill="#24048F"/>
<path d="M49.3584 221.189L43.4984 232.976C42.8834 234.223 41.6364 234.951 40.3254 234.951C39.8074 234.951 39.2724 234.822 38.7704 234.579L1.95638 216.299C0.224377 215.441 -0.48859 213.32 0.35341 211.572C1.69741 208.787 4.66039 203.897 9.41939 202.327C12.2854 201.388 15.3774 201.776 18.5994 203.476C25.5924 207.168 29.3814 206.925 30.8214 206.585C31.2754 206.472 31.4854 206.358 31.5024 206.358L32.1174 207.395C32.0844 207.411 31.8584 207.556 31.4044 207.686C30.7414 207.88 29.6074 208.075 27.9244 207.913C27.3734 207.864 26.7584 207.783 26.0784 207.637C24.0064 207.216 21.3514 206.31 18.0324 204.561C16.6404 203.833 15.2804 203.363 13.9684 203.169C13.5484 203.104 13.1434 203.072 12.7384 203.055C11.7344 203.023 10.7474 203.169 9.79244 203.493C6.63544 204.529 4.30342 207.249 2.79842 209.645C2.57142 210.001 2.36143 210.357 2.18343 210.697C1.89143 211.199 1.64842 211.669 1.45442 212.09C0.887423 213.256 1.35743 214.648 2.49043 215.215L39.3054 233.494C40.4544 234.061 41.8464 233.591 42.4134 232.442L43.1094 231.033L43.6604 229.948L48.2744 220.655C48.4844 220.218 48.5654 219.732 48.4844 219.246L48.1604 217.303L49.3584 217.109L49.6824 219.052C49.7954 219.78 49.6824 220.525 49.3584 221.189Z" fill="#24048F"/>
<path d="M43.9181 230.078L43.3671 231.162L43.1081 231.033L2.18109 210.697L1.95508 210.584L2.48907 209.499L2.79706 209.645L43.6591 229.948L43.9181 230.078Z" fill="#24048F"/>
<path d="M132.312 99.5799C132.052 97.0219 131.112 94.5769 129.542 92.4889C127.212 89.3799 123.812 87.3719 119.962 86.8379C113.972 86.0119 108.272 88.9589 105.292 93.8809C105.082 94.2209 104.872 94.5769 104.712 94.9499C104.012 96.2929 103.542 97.7669 103.302 99.3369C103.202 100.034 103.142 100.697 103.142 101.377C103.142 101.814 103.142 102.252 103.192 102.673C103.402 105.393 104.352 107.983 106.022 110.201C108.332 113.31 111.732 115.301 115.602 115.836C116.272 115.933 116.952 115.981 117.592 115.981C121.192 115.981 124.572 114.654 127.212 112.403C128.472 111.335 129.562 110.039 130.422 108.566C130.632 108.194 130.842 107.805 131.012 107.4C131.612 106.137 132.032 104.777 132.252 103.353C132.372 102.495 132.422 101.653 132.392 100.811C132.392 100.39 132.372 99.9849 132.312 99.5799ZM131.052 103.158C130.842 104.616 130.382 105.992 129.722 107.255V107.271C127.182 112.306 121.632 115.447 115.762 114.638C112.242 114.152 109.112 112.322 106.992 109.473C104.852 106.607 103.962 103.077 104.502 99.5149C104.722 98.0099 105.192 96.6009 105.862 95.3219C105.922 95.1759 105.992 95.0469 106.072 94.9169C108.452 90.6749 112.982 87.9069 117.952 87.9069C118.552 87.9069 119.162 87.9549 119.802 88.0359C123.332 88.5219 126.432 90.3679 128.572 93.2009C130.712 96.0669 131.582 99.5959 131.052 103.158Z" fill="#24048F"/>
<path d="M144.292 98.4789C144.272 98.4469 144.262 98.3979 144.232 98.3659C143.822 97.8319 143.222 97.4919 142.542 97.4109L139.472 97.0059C138.122 96.8439 136.892 97.7509 136.682 99.0299L136.522 100.001L136.342 101.199L135.292 107.838L135.092 109.02L134.842 110.639C134.742 111.254 134.882 111.885 135.262 112.387C135.662 112.938 136.242 113.278 136.922 113.375L140.102 113.844C140.232 113.861 140.362 113.877 140.492 113.877C141.212 113.877 141.882 113.569 142.352 113.051C142.642 112.711 142.872 112.29 142.932 111.804L144.682 100.131C144.782 99.5639 144.632 98.9809 144.292 98.4789ZM140.282 112.646L137.092 112.177C136.752 112.128 136.442 111.95 136.242 111.675C136.072 111.432 135.992 111.124 136.032 110.833L137.882 99.2239C137.982 98.6409 138.532 98.2039 139.142 98.2039C139.212 98.2039 139.262 98.2039 139.322 98.2199L142.402 98.6089C142.752 98.6569 143.062 98.8359 143.252 99.1109C143.452 99.3539 143.532 99.6609 143.482 99.9529L141.732 111.626C141.642 112.29 140.972 112.743 140.282 112.646Z" fill="#24048F"/>
<path d="M149.782 98.3819C149.702 98.2849 149.602 98.1879 149.502 98.1069C149.212 97.8799 148.862 97.7349 148.482 97.7189L146.072 97.5729C145.392 97.5399 144.732 97.8969 144.292 98.4789C144.012 98.8199 143.822 99.2569 143.742 99.7419L141.992 111.335C141.912 111.95 142.022 112.565 142.352 113.051C142.382 113.116 142.412 113.181 142.462 113.229C142.782 113.634 143.242 113.877 143.742 113.925L146.222 114.12C146.272 114.136 146.312 114.136 146.362 114.136C147.432 114.136 148.422 113.181 148.602 111.934L148.652 111.643L150.252 100.277C150.362 99.5799 150.182 98.8839 149.782 98.3819ZM147.382 111.756C147.302 112.42 146.772 112.938 146.312 112.922L143.842 112.711C143.662 112.695 143.532 112.614 143.402 112.468C143.222 112.242 143.142 111.885 143.212 111.513L144.952 99.9199C145.032 99.2729 145.572 98.7549 146.012 98.7869L148.402 98.9329C148.582 98.9329 148.732 99.0139 148.842 99.1589C149.022 99.3859 149.102 99.7419 149.052 100.115L147.382 111.756Z" fill="#24048F"/>
<path d="M137.042 100.05L136.942 101.248C136.752 101.232 136.542 101.216 136.342 101.2C135.002 101.086 133.672 100.957 132.392 100.811C132.082 100.779 131.782 100.746 131.472 100.714L131.612 99.5C131.842 99.532 132.082 99.548 132.312 99.581C133.672 99.743 135.082 99.872 136.522 100.002C136.682 100.018 136.862 100.034 137.042 100.05Z" fill="#24048F"/>
<path d="M106.292 94.2048L106.072 94.9169L105.942 95.3539C105.902 95.3379 105.892 95.3379 105.862 95.3219C105.472 95.2089 105.082 95.0788 104.712 94.9498C97.4723 92.5698 92.9523 90.2538 91.1123 89.2178C90.5223 88.8938 90.2023 88.6839 90.1523 88.6509L90.8023 87.6309C90.8023 87.6309 91.0123 87.7769 91.4323 88.0039C93.0323 88.9269 97.7024 91.3878 105.292 93.8808C105.612 93.9938 105.952 94.0918 106.292 94.2048Z" fill="#24048F"/>
<path d="M135.752 109.091C133.672 108.92 131.602 108.709 129.582 108.463L129.732 107.258C131.732 107.501 133.792 107.711 135.852 107.882L135.752 109.091Z" fill="#24048F"/>
<path d="M103.602 102.824C94.0121 99.6609 89.1722 96.6239 88.9722 96.4959L89.6221 95.4709C89.6721 95.5019 94.5521 98.5599 103.982 101.671L103.602 102.824Z" fill="#24048F"/>
<path d="M142.672 146.437L135.032 145.287C133.962 145.125 132.912 145.4 132.032 146.032C131.182 146.679 130.612 147.602 130.462 148.671L130.212 150.403L130.032 151.618L128.552 161.332L128.382 162.546L128.262 163.307C127.942 165.493 129.442 167.549 131.632 167.873L139.292 169.023C139.482 169.055 139.692 169.071 139.892 169.071C141.832 169.071 143.552 167.63 143.852 165.639L144.032 164.473L144.212 163.275L145.672 153.609L145.842 152.411L146.062 151.002C146.382 148.817 144.862 146.76 142.672 146.437ZM144.842 150.824L142.662 165.461C142.432 166.999 141.002 168.051 139.472 167.825L131.822 166.675C130.292 166.448 129.232 165.007 129.462 163.485L131.662 148.849C131.782 148.104 132.162 147.457 132.762 147.003C133.362 146.566 134.112 146.388 134.852 146.501L142.492 147.635C144.022 147.878 145.082 149.302 144.842 150.824Z" fill="#24048F"/>
<path d="M98.7721 136.35L96.352 135.961C95.772 135.864 95.192 136.01 94.722 136.35C94.252 136.706 93.942 137.208 93.842 137.791L93.362 140.818L93.1621 142.065L91.632 151.812L91.432 153.042L90.932 156.232C90.852 156.799 90.9821 157.381 91.3221 157.851C91.6821 158.337 92.1821 158.644 92.7621 158.725L95.1721 159.114C95.3021 159.13 95.4121 159.146 95.5321 159.146C96.5821 159.146 97.5221 158.369 97.6821 157.284L97.992 155.309L98.1821 154.095L99.702 144.526L99.9021 143.295L100.602 138.843C100.772 137.661 99.9621 136.528 98.7721 136.35ZM96.482 157.106C96.402 157.641 95.902 157.997 95.372 157.916L92.9521 157.527C92.6921 157.495 92.472 157.349 92.312 157.139C92.162 156.928 92.102 156.669 92.132 156.41L95.0421 137.969C95.0921 137.71 95.2221 137.483 95.4321 137.337C95.6121 137.208 95.802 137.143 96.002 137.143C96.062 137.143 96.1121 137.159 96.1621 137.159L98.592 137.548C99.112 137.629 99.4821 138.131 99.4021 138.665L96.482 157.106Z" fill="#24048F"/>
<path d="M87.4524 138.594L85.9224 150.426L87.1224 150.582L88.6624 138.75L87.4524 138.594Z" fill="#24048F"/>
<path d="M104.292 145.065L102.822 156.374L104.022 156.531L105.492 145.222L104.292 145.065Z" fill="#24048F"/>
<path d="M115.482 147.94L114.022 159.197L115.222 159.353L116.692 148.096L115.482 147.94Z" fill="#24048F"/>
<path d="M125.742 150.018L124.322 160.96L125.532 161.117L126.952 150.175L125.742 150.018Z" fill="#24048F"/>
<path d="M150.422 153.467L148.992 164.462L150.192 164.618L151.622 153.623L150.422 153.467Z" fill="#24048F"/>
<path d="M160.632 19.6139C152.692 11.3249 142.572 7.63291 132.182 9.21991C121.882 10.7739 112.402 17.4609 108.012 26.2529C100.112 42.0709 98.5223 47.5269 97.7123 56.9339C97.6823 57.1769 97.6623 57.4199 97.6523 57.6789V57.7759L97.6624 57.8569C97.6624 57.8569 97.7023 57.9699 97.7523 58.1649C97.7823 58.2779 97.8324 58.4559 97.9124 58.6829C99.0924 62.1639 105.662 77.6419 129.742 78.9209C131.232 79.0019 132.632 79.0339 133.982 79.0339C155.702 79.0339 161.222 69.4659 162.022 67.7819C162.082 67.6519 162.112 67.5709 162.132 67.5389C162.152 67.5069 162.342 67.1669 162.682 66.5509C165.452 61.3699 177.152 36.8409 160.632 19.6139ZM161.052 67.0049C161.002 67.1339 155.912 79.0989 129.802 77.7069C105.052 76.3949 99.4824 59.7349 98.9124 57.8249L98.8823 57.6629C99.6423 48.0449 101.102 42.7829 109.092 26.7869C113.322 18.3519 122.452 11.9239 132.362 10.4179C142.362 8.89591 152.092 12.4739 159.752 20.4559C177.582 39.0589 161.262 66.6319 161.052 67.0049Z" fill="#24048F"/>
<path d="M161.142 74.8089C157.342 80.1029 149.032 83.1469 136.452 83.8269C135.162 83.9079 133.902 83.9399 132.672 83.9399C113.242 83.9399 103.492 75.2459 99.0121 68.9959C99.0121 68.9799 99.0121 68.9799 99.0121 68.9799C98.8621 68.7859 98.732 68.6069 98.602 68.4289C97.422 66.6969 96.6421 65.1909 96.1721 64.1549C95.9821 63.7179 95.8521 63.2649 95.8021 62.8109C95.7121 62.3739 95.712 61.9529 95.742 61.5319C95.922 59.0549 97.5321 56.9989 97.6321 56.8689L97.712 56.9339L98.5721 57.6299C98.5721 57.6459 98.2521 58.0509 97.9121 58.6829C97.2421 59.8649 96.4721 61.8399 97.2821 63.6529C99.4621 68.4939 108.712 84.1509 136.392 82.6129C151.542 81.7869 157.662 77.5449 160.142 74.1289C161.972 71.6029 162.132 69.1259 162.022 67.7819C161.982 67.1499 161.892 66.7779 161.892 66.7619L162.682 66.5509L163.072 66.4379C163.102 66.5999 164.172 70.5989 161.142 74.8089Z" fill="#24048F"/>
<path d="M99.142 68.7529C99.142 68.7699 99.092 68.8339 99.012 68.9799C99.012 68.9799 99.012 68.9799 99.012 68.9959C98.232 70.3399 94.352 77.3339 91.432 88.0039C91.322 88.4089 91.222 88.8139 91.112 89.2189C90.592 91.2099 90.122 93.3149 89.722 95.5329C89.642 95.9539 89.552 96.3749 89.492 96.8119C88.832 100.601 88.362 104.697 88.192 109.02C88.152 110.169 87.432 111.157 86.362 111.546C86.202 111.61 86.032 111.643 85.862 111.675C85.722 111.691 85.562 111.707 85.412 111.707C85.152 111.707 84.892 111.675 84.652 111.594C84.342 111.529 84.052 111.384 83.792 111.189C83.052 110.671 82.612 109.797 82.632 108.874C82.672 106.559 82.842 103.596 83.162 100.212C83.192 99.8229 83.242 99.4189 83.272 99.0139C84.082 91.1289 85.732 81.3169 88.742 72.7519C88.872 72.3639 89.022 71.9749 89.172 71.5869C89.572 70.4369 90.022 69.3359 90.492 68.2519C91.612 65.6929 93.032 62.8439 95.712 61.4679L95.742 61.5319L96.272 62.5359C96.112 62.6169 95.952 62.7139 95.802 62.8109C93.762 64.1069 92.582 66.5349 91.612 68.7369C85.832 81.9489 84.002 100.196 83.842 108.906C83.822 109.425 84.072 109.91 84.492 110.202C84.922 110.509 85.462 110.59 85.962 110.396C86.562 110.186 86.952 109.619 86.982 108.971C87.872 85.0739 98.012 68.2999 98.122 68.1219L98.602 68.4299L99.142 68.7529Z" fill="#24048F"/>
<path d="M89.6723 71.6509L89.5123 72.8659C89.4923 72.8659 89.2523 72.8329 88.7423 72.7519C86.7023 72.4289 80.5523 71.3759 70.5523 68.8499C68.2193 68.2509 66.6484 66.9399 65.9204 64.9649C63.4434 58.2619 71.2424 45.6979 73.6624 42.0549H73.2523C59.2333 42.0549 53.8593 33.1499 52.3693 29.9119C49.7463 34.2509 39.6774 51.9799 40.3894 68.3969C40.4054 68.7049 40.4214 69.0119 40.4384 69.3199L39.2233 69.4009C39.2073 69.1899 39.1914 68.9799 39.1914 68.7529C38.2034 49.5189 51.8353 28.4709 51.9813 28.2439L52.6934 27.1759L53.0333 28.3089L53.0653 28.4059C53.0983 28.4869 53.2274 28.9079 53.5194 29.5229C54.9434 32.7129 60.2214 41.5199 74.7924 40.8079L76.0223 40.7429L75.4523 41.5529L75.3123 41.7629C75.2123 41.9089 64.4144 57.4199 67.0534 64.5439C67.6524 66.1469 68.8983 67.1829 70.8623 67.6689C81.2223 70.2909 87.4223 71.3279 89.1723 71.5869C89.4923 71.6349 89.6523 71.6509 89.6723 71.6509Z" fill="#24048F"/>
<path d="M83.7722 99.0949L83.6022 100.293C83.5322 100.277 83.3922 100.261 83.1622 100.212C79.1022 99.5969 50.7341 94.7719 42.9471 82.2889C42.8981 82.2079 42.8342 82.1109 42.7852 82.0299L43.8212 81.4149C43.9182 81.5929 44.0321 81.7539 44.1451 81.9329C51.7861 93.5409 79.2422 98.3659 83.2722 99.0139C83.5822 99.0619 83.7622 99.0949 83.7722 99.0949Z" fill="#24048F"/>
<path d="M95.1425 28.7949L94.9325 29.0379C94.6425 29.4099 87.7925 37.7969 75.4525 41.5529C75.3225 41.6019 75.1824 41.6499 75.0524 41.6829L74.7925 40.8079L74.7125 40.5169C85.7725 37.2629 92.5325 29.9439 93.7825 28.5199C92.2425 23.6459 91.0624 21.703 90.5724 21.056L81.0425 26.1399C80.7025 26.3339 80.2825 26.2529 80.0425 25.9449C79.8125 25.6539 79.8124 25.2329 80.0724 24.9409C84.7524 19.5009 89.2625 10.224 90.2025 8.26495C82.2025 -0.17005 70.8625 1.20594 69.3525 1.43194C60.1245 10.1589 53.9234 29.4419 53.8594 29.6369L53.5195 29.5229L52.7095 29.2639C52.7425 29.1669 52.8394 28.8429 53.0334 28.3089C54.4254 24.2129 60.2054 8.28095 68.6564 0.428952L68.7855 0.298947L68.9474 0.266949C69.0934 0.233949 82.3824 -2.11305 91.3724 7.74695L91.6425 8.03795L91.4625 8.41095C91.2925 8.81495 87.1124 17.8169 82.3024 24.0989L90.7725 19.5659L91.0825 19.8089C91.2525 19.9549 92.8225 21.3309 95.0425 28.4869L95.1425 28.7949Z" fill="#24048F"/>
<path d="M172.612 73.206L169.502 71.344C168.692 70.858 167.722 70.81 166.872 71.214C163.642 72.801 153.162 79.245 149.502 98.107C149.292 99.111 149.112 100.131 148.972 101.2C148.452 104.826 148.342 108.324 148.652 111.643C149.412 120.11 152.842 127.542 158.912 133.889C159.122 134.132 159.352 134.358 159.572 134.585C159.692 134.698 159.822 134.795 159.952 134.892C160.412 135.216 160.952 135.378 161.502 135.378C161.812 135.378 162.132 135.33 162.442 135.216C163.462 134.844 164.152 133.953 164.272 132.869L164.672 128.627C164.772 127.542 164.222 126.489 163.262 125.939C162.842 125.696 162.292 125.324 161.732 124.725C161.402 124.385 161.052 123.964 160.712 123.462C158.702 120.515 156.792 114.606 157.922 102.851C159.412 87.243 167.682 80.589 172.492 78.014C172.802 77.836 173.062 77.626 173.292 77.367C173.562 77.059 173.752 76.687 173.852 76.282C173.922 76.072 173.952 75.861 173.952 75.651C173.972 74.647 173.462 73.74 172.612 73.206ZM171.912 76.93C166.912 79.633 158.262 86.563 156.712 102.738C155.062 119.997 159.732 125.356 162.672 127.008C163.222 127.315 163.522 127.898 163.462 128.513L163.052 132.755C162.992 133.484 162.472 133.921 162.022 134.083C161.452 134.277 160.852 134.148 160.432 133.727C151.772 125.065 148.322 114.168 150.172 101.362C153.152 80.718 164.122 73.902 167.412 72.299C167.622 72.202 167.852 72.153 168.062 72.153C168.352 72.153 168.622 72.234 168.872 72.38L171.972 74.258C172.462 74.55 172.732 75.052 172.732 75.618C172.722 76.185 172.412 76.671 171.912 76.93Z" fill="#24048F"/>
<path d="M163.492 107.409L160.502 124.676L161.693 124.883L164.682 107.616L163.492 107.409Z" fill="#24048F"/>
<path d="M160.092 134.067L159.952 134.892L157.742 147.634L157.502 149.027L156.712 153.577L156.662 153.868L155.462 153.657L155.532 153.269L158.912 133.889V133.856L160.092 134.067Z" fill="#24048F"/>
<path d="M205.412 113.958L204.302 114.476C204.272 114.411 204.262 114.362 204.212 114.298C200.532 106.575 195.642 98.9 189.642 91.533C189.592 91.469 183.392 84.329 173.292 77.367C173.112 77.237 172.932 77.124 172.752 76.994L173.432 75.99C173.582 76.087 173.712 76.185 173.852 76.282C184.162 83.357 190.512 90.675 190.582 90.756C196.662 98.22 201.632 105.992 205.342 113.828C205.362 113.877 205.392 113.909 205.412 113.958Z" fill="#24048F"/>
<path d="M211.912 163.809L211.822 164.1L211.512 164.198C211.232 164.279 210.942 164.359 210.672 164.424C210.262 164.538 209.872 164.619 209.472 164.7C207.272 165.185 205.112 165.38 203.042 165.38C195.872 165.38 189.722 163 186.402 161.413C185.962 161.202 185.572 161.008 185.232 160.83C184.312 160.344 183.792 160.02 183.782 160.004L183.492 159.826L183.522 158.094C183.602 155.228 183.732 149.869 183.322 142.016C182.712 129.436 177.882 121.033 172.832 115.625C172.492 115.253 172.142 114.897 171.802 114.557C169.162 111.934 166.522 110.104 164.462 108.906C164.062 108.679 163.692 108.469 163.352 108.275C161.602 107.352 160.462 106.947 160.422 106.931L160.802 105.781C160.872 105.798 162.362 106.332 164.592 107.595C164.622 107.611 164.662 107.627 164.692 107.643C171.152 111.319 183.492 121.049 184.552 141.952C184.942 149.853 184.812 155.244 184.732 158.126L184.722 159.146C186.672 160.296 198.312 166.642 210.852 163.113C211.492 160.927 215.092 146.971 209.292 127.428C209.212 127.137 209.112 126.862 209.032 126.57L210.202 126.214C210.282 126.457 210.342 126.7 210.412 126.926C216.902 148.606 211.962 163.647 211.912 163.809Z" fill="#24048F"/>
<path d="M210.912 170.933C210.912 171.37 210.912 171.791 210.892 172.196C210.802 177.523 210.152 181.068 209.682 183.011C209.312 184.566 208.192 185.877 206.702 186.525C202.852 188.225 199.222 188.856 195.932 188.856C189.722 188.856 184.762 186.557 181.832 184.728C179.522 183.303 178.722 180.324 179.992 177.927C180.542 176.907 181.022 175.887 181.462 174.884C181.622 174.495 181.782 174.107 181.932 173.718C183.422 170.059 184.262 166.659 184.712 164.279C184.802 163.825 184.882 163.421 184.932 163.064C185.142 161.818 185.222 161.024 185.232 160.83C185.232 160.814 185.232 160.798 185.232 160.798L186.452 160.879C186.452 160.927 186.432 161.105 186.402 161.413C186.172 163.437 185.122 170.885 181.062 178.494C180.082 180.324 180.702 182.607 182.462 183.691C186.752 186.347 195.532 190.103 206.212 185.408C207.362 184.906 208.212 183.902 208.502 182.72C209.162 180.048 210.132 174.22 209.472 164.7C209.452 164.424 209.422 164.133 209.402 163.842L210.622 163.744L210.672 164.424C210.842 166.821 210.912 168.974 210.912 170.933Z" fill="#24048F"/>
<path d="M185.382 163.081L185.352 164.295L184.722 164.279L180.392 164.182C179.552 164.133 178.712 164.716 178.402 165.558L176.732 170.318C176.542 170.885 176.602 171.516 176.902 172.034C177.192 172.552 177.712 172.909 178.292 173.022L181.932 173.718L182.242 173.783L182.002 174.981L181.462 174.884L178.062 174.22C177.122 174.026 176.312 173.459 175.842 172.633C175.372 171.808 175.282 170.82 175.602 169.929L175.882 169.136L176.302 167.938L177.272 165.153C177.742 163.809 179.052 162.935 180.422 162.967L184.932 163.065L185.382 163.081Z" fill="#24048F"/>
<path d="M173.062 114.379L172.832 115.626L168.402 139.685C168.092 141.353 167.382 142.875 166.342 144.17C166.082 144.477 165.812 144.785 165.512 145.077C164.542 146.048 163.362 146.825 162.052 147.311L157.502 149.027L157.472 149.043L157.032 147.91L157.742 147.635L161.612 146.178C164.512 145.077 166.652 142.502 167.202 139.458L171.802 114.557L171.862 114.168L173.062 114.379Z" fill="#24048F"/>
<path d="M85.8823 111.367L85.8623 111.675L84.4124 136.398L84.3423 137.434L83.1323 137.354L83.1823 136.479L84.6523 111.594L84.6723 111.303L85.8823 111.367Z" fill="#24048F"/>
<path d="M157.912 156.005L156.792 163.113C156.612 164.262 155.612 165.104 154.442 165.104H154.302C153.962 165.088 153.552 165.088 153.082 165.072C151.072 164.991 147.952 164.829 144.032 164.473C143.822 164.457 143.612 164.441 143.382 164.424L143.502 163.21C143.742 163.226 143.982 163.259 144.212 163.275C146.022 163.42 147.672 163.55 149.102 163.631C149.522 163.663 149.922 163.696 150.312 163.712C152.112 163.809 153.502 163.858 154.412 163.89C154.992 163.922 155.512 163.485 155.592 162.919L156.712 155.811C156.762 155.503 156.682 155.196 156.482 154.937C156.272 154.678 155.962 154.516 155.622 154.499C154.262 154.402 152.902 154.289 151.562 154.159C151.152 154.127 150.752 154.095 150.332 154.062C148.762 153.917 147.202 153.771 145.672 153.609C145.422 153.593 145.202 153.56 144.952 153.544L145.082 152.33C145.342 152.362 145.592 152.379 145.842 152.411C149.002 152.735 152.262 153.026 155.532 153.269C155.592 153.269 155.662 153.285 155.722 153.285C156.062 153.318 156.402 153.415 156.712 153.577C156.982 153.722 157.232 153.933 157.422 154.192C157.842 154.694 158.002 155.358 157.912 156.005Z" fill="#24048F"/>
<path d="M130.792 151.731C118.512 149.852 107.782 147.329 98.8823 144.233L99.2823 143.087C108.112 146.158 118.772 148.663 130.972 150.531L130.792 151.731Z" fill="#24048F"/>
<path d="M94.2024 141.175L93.7324 142.292C93.5424 142.211 93.3425 142.13 93.1625 142.065C91.3725 141.304 89.8325 140.592 88.5225 139.928C88.1025 139.734 87.7125 139.523 87.3525 139.329C86.1925 138.714 85.2624 138.179 84.5524 137.742C84.2024 137.516 83.7725 137.499 83.4025 137.677C83.0325 137.856 82.8025 138.196 82.7725 138.617L82.0325 146.971C81.9825 147.473 82.2525 147.926 82.7125 148.137C83.7925 148.622 84.8925 149.108 86.0225 149.578C86.4025 149.74 86.8024 149.901 87.1924 150.063C88.6524 150.663 90.1224 151.245 91.6324 151.812C91.8724 151.909 92.1324 151.99 92.3724 152.087L91.9525 153.237C91.7725 153.172 91.6124 153.107 91.4324 153.043C88.3424 151.877 85.3025 150.63 82.4125 149.335C82.3525 149.302 82.2725 149.27 82.2025 149.238C81.8825 149.092 81.5924 148.881 81.3824 148.622C80.9724 148.137 80.7624 147.521 80.8124 146.874L81.5624 138.503C81.6224 137.677 82.1225 136.965 82.8525 136.593C82.9525 136.544 83.0624 136.496 83.1824 136.479C83.5824 136.334 84.0025 136.301 84.4125 136.398C84.6825 136.447 84.9625 136.544 85.2025 136.706C86.7525 137.677 89.3924 139.151 93.3624 140.818C93.6324 140.932 93.9124 141.061 94.2024 141.175Z" fill="#24048F"/>
<path d="M129.282 162.686C117.862 160.911 107.022 158.333 97.062 155.024L97.4519 153.872C107.342 157.159 118.112 159.721 129.472 161.485L129.282 162.686Z" fill="#24048F"/>
<path d="M69.5122 184.306C69.5422 184.711 69.5622 185.116 69.5322 185.521C69.4652 186.865 69.1252 188.192 68.4942 189.439L57.2102 211.685C56.4002 213.304 55.1382 214.664 53.5842 215.603C52.0462 216.542 50.2972 217.012 48.5492 217.012C46.9782 217.012 45.4082 216.639 43.9832 215.878L35.1282 211.183C33.5742 210.357 32.3112 209.143 31.4042 207.686C31.1782 207.33 30.9832 206.973 30.8212 206.585C30.3192 205.468 30.0282 204.253 29.9632 202.99L29.9472 202.505C29.8992 201.112 30.1252 199.752 30.6432 198.473L44.0642 165.136C46.3312 159.486 51.2362 155.325 57.1782 154.013L81.3822 148.622L82.2022 148.444L82.4122 149.334L82.4822 149.626L57.4372 155.195C51.8842 156.426 47.3022 160.312 45.1812 165.59L31.7772 198.927C31.3232 200.044 31.1132 201.226 31.1612 202.44L31.1782 202.942C31.3072 205.953 33.0392 208.706 35.6942 210.114L44.5502 214.81C47.1892 216.218 50.4102 216.121 52.9522 214.567C54.3122 213.741 55.4132 212.559 56.1252 211.151L67.4092 188.888C68.6882 186.363 68.6402 183.367 67.2472 180.89L66.6162 179.741L67.6682 179.158L68.3162 180.291C69.0122 181.554 69.4172 182.914 69.5122 184.306Z" fill="#24048F"/>
<path d="M101.082 182.752L100.642 182.784L69.5321 185.521L69.2541 185.553L69.1411 184.339L69.5121 184.306L100.972 181.538L101.022 181.991L101.082 182.752Z" fill="#24048F"/>
<path d="M130.772 237.914L130.742 238.319L130.582 239.889L130.462 240.974C130.372 242.01 130.032 243.014 129.482 243.888C126.952 247.871 123.552 249.717 120.362 250.591C119.812 250.753 119.282 250.867 118.742 250.964C117.632 251.174 116.572 251.288 115.622 251.352C115.472 251.368 115.332 251.368 115.172 251.368C114.132 251.368 113.082 251.109 112.142 250.624C112.112 250.608 112.062 250.591 112.022 250.575L111.492 250.284L108.752 248.794C108.412 248.616 108.092 248.406 107.802 248.147C107.482 247.904 107.172 247.612 106.912 247.305C106.602 246.965 106.342 246.592 106.122 246.187L92.8623 222.241C89.3623 215.943 89.0723 208.269 92.0523 201.711L100.642 182.784L101.022 181.991L105.892 171.257L106.992 171.759L93.1523 202.213C90.3323 208.414 90.6123 215.684 93.9123 221.642L107.182 245.588C107.672 246.495 108.412 247.24 109.322 247.726L112.612 249.507C113.512 249.992 114.532 250.219 115.542 250.138C119.372 249.879 124.902 248.859 128.442 243.241C128.892 242.528 129.172 241.703 129.272 240.844L129.562 237.801C129.622 237.153 129.572 236.489 129.402 235.858L123.342 213.45C122.452 210.147 121.072 208.787 118.872 209.062L118.712 207.848C120.702 207.605 122.012 208.431 122.892 209.515C123.152 209.855 123.372 210.212 123.552 210.568C124.092 211.555 124.342 212.575 124.512 213.126L130.582 235.55C130.792 236.327 130.852 237.121 130.772 237.914Z" fill="#24048F"/>
<path d="M154.342 164.586L154.302 165.104L153.572 173.701C153.182 178.235 151.192 182.542 147.982 185.78L123.552 210.568L122.692 209.726L122.892 209.515L147.122 184.938C150.132 181.878 151.982 177.862 152.352 173.588L153.082 165.072L153.132 164.473L154.342 164.586Z" fill="#24048F"/>
<path d="M151.282 39.6419L124.522 27.9849C121.092 26.4959 116.442 27.5969 113.792 33.3929L107.952 46.0699C105.692 50.9919 106.932 56.7239 111.012 60.3499C120.252 68.5919 129.912 70.5669 137.042 70.5669C139.482 70.5669 141.642 70.3239 143.372 70.0319C146.052 69.5949 148.322 67.7499 149.292 65.2239L155.382 49.4049C156.852 45.5679 155.062 41.2779 151.282 39.6419ZM154.252 48.9679L148.162 64.7869C147.352 66.9079 145.422 68.4619 143.162 68.8339C136.632 69.9349 123.862 70.1779 111.802 59.4439C108.122 56.1729 107.022 51.0079 109.062 46.5879L114.892 33.8949C116.462 30.4779 118.952 28.5679 121.612 28.5679C122.422 28.5679 123.232 28.7459 124.042 29.1019L150.802 40.7599C153.972 42.1359 155.482 45.7459 154.252 48.9679Z" fill="#24048F"/>
<path d="M155.772 37.2949L123.632 23.0139C119.572 21.2169 114.072 22.5449 110.892 29.5719L103.902 45.0979C101.212 51.0569 102.672 58.0019 107.522 62.4059C118.602 72.4769 130.172 74.8729 138.722 74.8729C141.652 74.8729 144.212 74.5979 146.282 74.2419C149.472 73.6909 152.162 71.4729 153.312 68.4289L160.612 49.0489C162.362 44.4349 160.222 39.2699 155.772 37.2949ZM159.482 48.6279L152.172 68.0079C151.172 70.6309 148.842 72.5739 146.072 73.0439C138.202 74.3869 122.842 74.6789 108.332 61.5159C103.872 57.4679 102.542 51.0729 105.002 45.5999L111.992 30.0729C113.902 25.8309 116.932 23.4679 120.182 23.4679C121.162 23.4679 122.142 23.6779 123.132 24.1309L155.282 38.3959C159.142 40.1119 160.982 44.6129 159.482 48.6279Z" fill="#24048F"/>
<path d="M139.712 251.288C139.562 251.676 139.322 252.032 138.982 252.405C138.692 252.745 138.322 253.085 137.912 253.473L137.652 253.7L112.322 278.585C112.062 278.715 108.422 280.35 104.502 280.496C104.302 280.512 104.112 280.512 103.912 280.512C103.272 280.512 102.622 280.463 101.992 280.366C99.9621 280.042 98.0721 279.152 96.7121 277.241C91.2421 269.599 96.5521 261.585 96.6021 261.504L106.912 247.305L107.182 246.932L108.172 247.645L107.802 248.147L97.6021 262.2C97.4121 262.492 92.732 269.599 97.702 276.545C101.442 281.775 110.682 277.97 111.722 277.517L137.072 252.583C138.802 250.948 139.132 250.656 137.992 248.924L132.462 241.8L130.582 239.889L129.662 238.95L130.532 238.108L130.742 238.319L133.362 241.007L138.982 248.228C139.872 249.571 140.022 250.478 139.712 251.288Z" fill="#24048F"/>
<path d="M139.842 255.772C137.752 257.65 133.512 262.087 129.022 266.782C124.432 271.591 119.682 276.577 116.662 279.427C113.952 281.953 111.282 282.746 108.952 282.746C105.312 282.746 102.522 280.771 101.992 280.366C101.922 280.301 101.892 280.269 101.892 280.269L102.672 279.346C102.752 279.411 103.412 279.961 104.502 280.496C106.892 281.678 111.302 282.795 115.812 278.536C118.822 275.719 123.572 270.749 128.152 265.94C132.652 261.229 136.912 256.776 139.032 254.866C139.552 254.396 139.682 253.635 139.372 253.004L138.982 252.405L138.532 251.676L139.552 251.028L139.712 251.287L140.442 252.421C141.002 253.586 140.742 254.947 139.842 255.772Z" fill="#24048F"/>
<path d="M176.332 167.938V169.152C176.172 169.152 176.022 169.152 175.882 169.136C171.252 169.039 167.672 167.322 165.762 164.278C163.962 161.396 163.932 157.705 165.662 154.127C168.192 148.897 166.342 146.015 165.512 145.076C165.342 144.85 165.192 144.736 165.192 144.736L165.942 143.781C165.972 143.813 166.132 143.927 166.342 144.17C167.362 145.254 169.662 148.622 166.752 154.661C165.212 157.851 165.222 161.121 166.792 163.631C168.532 166.399 171.912 167.938 176.302 167.938C176.312 167.938 176.312 167.938 176.332 167.938Z" fill="#24048F"/>
<path d="M231.422 155.503C225.142 167.808 213.322 171.548 210.892 172.196C210.622 172.277 210.472 172.309 210.462 172.309L210.212 171.111C210.232 171.111 210.472 171.063 210.912 170.933C213.742 170.124 224.522 166.351 230.352 154.937C236.932 142 235.193 123.996 225.193 101.426C213.873 75.8769 211.513 56.983 218.193 45.261C223.313 36.259 231.862 35.1579 232.232 35.1089L232.362 36.3069C232.282 36.3229 224.042 37.424 219.232 45.892C214.792 53.696 212.413 69.5949 226.312 100.924C236.472 123.867 238.192 142.227 231.422 155.503Z" fill="#24048F"/>
<path d="M102.472 259.286L102.152 259.675C101.992 259.869 98.3121 264.386 98.9321 268.207C99.1521 269.616 99.9521 270.765 101.262 271.591C102.252 272.206 103.232 272.465 104.192 272.465C108.792 272.465 112.672 266.475 112.872 266.167L113.212 265.649L102.472 259.286ZM101.912 270.555C100.892 269.923 100.302 269.081 100.132 268.013C99.6921 265.325 101.922 262.006 102.762 260.857L111.492 266.038C110.232 267.77 105.922 273.081 101.912 270.555Z" fill="#24048F"/>
<path d="M111.813 259.555C111.243 259.555 110.672 259.413 110.142 259.117C109.312 258.654 108.732 257.892 108.502 256.971C108.262 256.05 108.422 255.102 108.932 254.302L111.522 250.236L112.552 250.889L109.952 254.956C109.622 255.471 109.522 256.081 109.672 256.674C109.822 257.268 110.202 257.759 110.732 258.058C111.672 258.584 112.852 258.358 113.522 257.511L119.563 249.947L120.512 250.704L114.472 258.268C113.802 259.107 112.813 259.555 111.813 259.555Z" fill="#24048F"/>
<path d="M28.1012 207.816L27.9232 207.913L22.9052 211.021C22.3062 211.361 21.6422 211.523 20.9782 211.523C20.4282 211.523 19.8772 211.41 19.3752 211.183L15.2962 209.338C14.0172 208.755 13.1422 207.524 13.0292 206.116C12.9812 205.468 12.8022 203.671 12.7382 203.056C12.7382 202.958 12.7212 202.894 12.7212 202.861L13.9192 202.635C13.9192 202.683 13.9362 202.797 13.9682 203.169C14.0172 203.622 14.0812 204.448 14.2272 206.018C14.3242 206.974 14.9232 207.832 15.7972 208.22L19.8772 210.066C20.6382 210.422 21.5452 210.39 22.2892 209.969L26.0782 207.638L27.4702 206.779L28.1012 207.816Z" fill="#24048F"/>
<path d="M96.2222 212.138C97.4722 211.864 98.6722 211.952 99.8522 212.128C101.022 212.341 102.182 212.646 103.272 213.315C102.022 213.593 100.822 213.505 99.6522 213.325C98.4722 213.11 97.3222 212.806 96.2222 212.138Z" fill="#24048F"/>
<path d="M50.5044 164.305C51.5634 165.031 52.3164 165.962 52.9954 166.942C53.6434 167.943 54.2144 168.995 54.4764 170.253C53.4154 169.528 52.6624 168.598 51.9864 167.616C51.3404 166.614 50.7694 165.562 50.5044 164.305Z" fill="#24048F"/>
<path d="M94.6221 165.271C95.7221 166.537 96.4821 167.956 97.1621 169.411C97.8121 170.882 98.3821 172.391 98.6121 174.054C97.5121 172.789 96.7421 171.37 96.0621 169.914C95.4121 168.442 94.8521 166.933 94.6221 165.271Z" fill="#24048F"/>
<path fill-rule="evenodd" clip-rule="evenodd" d="M120.072 95.3519L120.652 93.6559C120.752 93.3869 120.602 93.0939 120.332 93.0019C120.062 92.9099 119.772 93.0539 119.682 93.3229L119.092 95.0559C119.342 95.1129 119.602 95.1839 119.852 95.2709C119.932 95.2959 120.002 95.3249 120.072 95.3519Z" fill="#15003E"/>
<path fill-rule="evenodd" clip-rule="evenodd" d="M121.082 100.114L121.132 100.217C121.632 101.197 121.712 102.309 121.352 103.349C121.012 104.345 120.302 105.157 119.372 105.635L119.312 105.661L119.532 106.074L120.102 106.966C121.372 106.306 122.322 105.198 122.792 103.842C123.272 102.42 123.172 100.901 122.502 99.559L121.852 99.8549L121.082 100.114Z" fill="#0FCE7C"/>
<path fill-rule="evenodd" clip-rule="evenodd" d="M120.002 107.016L120.062 106.989C120.072 106.982 120.082 106.974 120.102 106.966L119.522 106.074L120.002 107.016Z" fill="#0FCE7C"/>
<path fill-rule="evenodd" clip-rule="evenodd" d="M119.782 109.635L115.442 108.15C112.082 106.997 110.282 103.319 111.432 99.9509C112.582 96.5839 116.262 94.7819 119.632 95.9359C121.032 96.4139 122.192 97.3349 122.972 98.5629L119.062 100.294C118.842 100.102 118.582 99.9489 118.292 99.8489C117.082 99.4349 115.762 100.082 115.342 101.292C114.932 102.501 115.582 103.822 116.782 104.236C117.002 104.31 117.222 104.35 117.442 104.359L120.192 108.427L119.782 109.635ZM117.242 102.907C116.762 102.744 116.512 102.224 116.672 101.747C116.832 101.27 117.362 101.015 117.832 101.178C118.312 101.342 118.562 101.862 118.402 102.339C118.242 102.816 117.722 103.07 117.242 102.907ZM119.732 102.794C119.882 102.363 119.892 101.919 119.792 101.506L122.132 100.474L122.142 100.495L124.912 99.2349L124.592 98.5849C123.672 96.6999 122.072 95.2869 120.082 94.6059C115.982 93.2019 111.502 95.3949 110.102 99.4959C108.712 103.556 110.852 107.985 114.872 109.435V109.438L120.652 111.419L121.752 108.219L118.852 103.948C119.252 103.677 119.562 103.281 119.732 102.794Z" fill="#15003E"/>
<path fill-rule="evenodd" clip-rule="evenodd" d="M115.922 98.37C115.652 98.277 115.512 97.984 115.602 97.715L117.372 92.532C117.462 92.263 117.762 92.12 118.032 92.212C118.302 92.304 118.442 92.597 118.352 92.866L116.572 98.049C116.482 98.318 116.192 98.462 115.922 98.37Z" fill="#15003E"/>
</svg>
