<svg width="650" height="485" viewBox="0 0 552 386" fill="none" xmlns="http://www.w3.org/2000/svg">
<path d="M264.698 170.512C265.118 171.212 264.866 171.991 264.109 172.38C263.353 172.769 262.512 172.536 262.092 171.835C261.671 171.135 261.924 170.356 262.68 169.967C263.437 169.655 264.362 169.889 264.698 170.512Z" fill="white"/>
<path d="M264.791 169.501C265.211 170.202 264.959 170.981 264.202 171.37C263.446 171.759 262.605 171.525 262.184 170.825C261.764 170.124 262.016 169.346 262.773 168.956C263.53 168.645 264.454 168.879 264.791 169.501Z" fill="white"/>
<path d="M328.432 90.8768C328.012 90.2541 328.264 89.3978 329.021 89.0085C329.778 88.6193 330.618 88.8528 331.039 89.5534C331.459 90.2541 331.207 91.0325 330.45 91.4218C329.778 91.811 328.853 91.5775 328.432 90.8768Z" fill="white"/>
<path d="M375.934 97.8054C376.355 98.506 376.102 99.2845 375.346 99.6737C374.589 100.063 373.748 99.8294 373.328 99.1288C372.908 98.506 373.16 97.6497 373.916 97.2605C374.589 96.9491 375.514 97.1826 375.934 97.8054Z" fill="#F579A6"/>
<path d="M500.417 9.82594C500.837 10.5266 500.585 11.305 499.828 11.6943C499.072 12.0835 498.231 11.85 497.81 11.1493C497.39 10.4487 497.642 9.67025 498.399 9.28101C499.156 8.89178 499.996 9.12532 500.417 9.82594Z" fill="#33EDC0"/>
<path d="M418.475 214.031C418.896 214.653 418.643 215.51 417.887 215.899C417.13 216.288 416.289 216.055 415.869 215.354C415.449 214.653 415.701 213.875 416.458 213.486C417.214 213.096 418.139 213.33 418.475 214.031Z" fill="white"/>
<path d="M55.5621 209.833C55.9825 210.534 55.7303 211.312 54.9737 211.701C54.217 212.09 53.3763 211.857 52.9559 211.156C52.5356 210.456 52.7878 209.677 53.5444 209.288C54.3011 208.977 55.2259 209.21 55.5621 209.833Z" fill="white"/>
<path d="M139.754 95.9527C140.174 96.6533 139.922 97.4317 139.165 97.821C138.408 98.2102 137.568 97.9767 137.147 97.2761C136.727 96.6533 136.979 95.797 137.736 95.4077C138.408 95.0964 139.333 95.3299 139.754 95.9527Z" fill="#FFDB4C"/>
<path d="M171.532 47.6879C171.952 48.3885 171.7 49.167 170.943 49.5562C170.187 49.9455 169.346 49.7119 168.926 49.0113C168.505 48.3107 168.758 47.5322 169.514 47.143C170.271 46.7537 171.112 46.9873 171.532 47.6879Z" fill="#9760FF"/>
<path d="M63.985 34.1308C64.4054 34.7535 64.1531 35.6099 63.3965 35.9991C62.6399 36.3883 61.7991 36.1548 61.3788 35.4542C60.9584 34.7536 61.2106 33.9751 61.9673 33.5859C62.7239 33.1966 63.6487 33.4302 63.985 34.1308Z" fill="#F579A6"/>
<path d="M459.733 256.099C460.153 256.8 459.901 257.578 459.145 257.967C458.388 258.356 457.547 258.123 457.127 257.422C456.706 256.722 456.959 255.943 457.715 255.554C458.472 255.243 459.397 255.476 459.733 256.099Z" fill="#FFDB4C"/>
<path d="M151.908 143.225C151.488 142.602 151.74 141.746 152.497 141.357C153.253 140.967 154.094 141.201 154.514 141.902C154.935 142.602 154.682 143.381 153.926 143.77C153.253 144.159 152.328 143.926 151.908 143.225Z" fill="white"/>
<path d="M92.0289 192.721C92.4493 193.422 92.1971 194.2 91.4404 194.589C90.6838 194.978 89.8431 194.745 89.4227 194.044C89.0024 193.422 89.2546 192.565 90.0112 192.176C90.6838 191.865 91.6086 192.098 92.0289 192.721Z" fill="#F579A6"/>
<path d="M99.4899 15.1104C99.9102 15.811 99.658 16.5895 98.9014 16.9787C98.1447 17.368 97.304 17.1344 96.8837 16.4338C96.4633 15.7332 96.7155 14.9547 97.4722 14.5655C98.2288 14.2541 99.1536 14.4876 99.4899 15.1104Z" fill="white"/>
<path d="M475.436 90.5759C475.857 91.2766 475.604 92.055 474.848 92.4443C474.091 92.8335 473.25 92.6 472.83 91.8993C472.41 91.1987 472.662 90.4203 473.418 90.031C474.175 89.6418 475.016 89.8753 475.436 90.5759Z" fill="#33EDC0"/>
<path d="M224.683 120.695C225.104 121.395 224.851 122.174 224.095 122.563C223.338 122.952 222.497 122.719 222.077 122.018C221.657 121.318 221.909 120.539 222.666 120.15C223.422 119.839 224.347 120.072 224.683 120.695Z" fill="#33EDC0"/>
<path d="M288.325 42.0693C287.905 41.4465 288.157 40.5902 288.914 40.201C289.67 39.8118 290.511 40.0453 290.931 40.7459C291.352 41.4465 291.099 42.225 290.343 42.6143C289.67 43.0035 288.745 42.7699 288.325 42.0693Z" fill="#9760FF"/>
<path d="M335.826 48.9982C336.246 49.6988 335.994 50.4773 335.237 50.8665C334.481 51.2557 333.64 51.0222 333.22 50.3216C332.799 49.6988 333.051 48.8425 333.808 48.4532C334.481 48.1419 335.405 48.3754 335.826 48.9982Z" fill="#33EDC0"/>
<path d="M367.603 0.73244C368.024 1.43307 367.771 2.21154 367.015 2.60078C366.258 2.99001 365.417 2.75647 364.997 2.05584C364.577 1.35522 364.829 0.576745 365.585 0.187508C366.342 -0.201728 367.183 0.0318143 367.603 0.73244Z" fill="#F579A6"/>
<path d="M378.366 165.224C378.786 165.847 378.534 166.703 377.777 167.092C377.021 167.482 376.18 167.248 375.76 166.548C375.339 165.847 375.592 165.068 376.348 164.679C377.105 164.29 378.03 164.524 378.366 165.224Z" fill="white"/>
<path d="M418.381 215.041C418.802 215.664 418.55 216.52 417.793 216.909C417.036 217.299 416.196 217.065 415.775 216.364C415.355 215.664 415.607 214.885 416.364 214.496C417.12 214.107 418.045 214.34 418.381 215.041Z" fill="white"/>
<path d="M65.8229 168.66C66.2432 169.36 65.991 170.139 65.2344 170.528C64.4777 170.917 63.637 170.684 63.2167 169.983C62.7963 169.283 63.0485 168.504 63.8052 168.115C64.5618 167.803 65.4866 168.037 65.8229 168.66Z" fill="white"/>
<path d="M63.8932 35.1412C64.3136 35.7639 64.0613 36.6202 63.3047 37.0095C62.5481 37.3987 61.7073 37.1652 61.287 36.4645C60.8666 35.7639 61.1188 34.9855 61.8755 34.5962C62.6321 34.207 63.5569 34.4405 63.8932 35.1412Z" fill="white"/>
<path d="M459.64 257.109C460.061 257.81 459.808 258.588 459.052 258.978C458.295 259.367 457.454 259.133 457.034 258.433C456.614 257.732 456.866 256.954 457.623 256.564C458.379 256.253 459.304 256.487 459.64 257.109Z" fill="white"/>
<path d="M277.714 98.0428C277.293 97.4201 277.546 96.5637 278.302 96.1745C279.059 95.7853 279.9 96.0188 280.32 96.7194C280.74 97.4201 280.488 98.1985 279.731 98.5878C279.059 98.977 278.134 98.7435 277.714 98.0428Z" fill="white"/>
<path d="M89.1364 65.3472C89.5567 66.0478 89.3045 66.8263 88.5479 67.2155C87.7912 67.6048 86.9505 67.3712 86.5301 66.6706C86.1098 66.0478 86.362 65.1915 87.1187 64.8022C87.7912 64.4909 88.716 64.7244 89.1364 65.3472Z" fill="white"/>
<path d="M443.564 139.852C443.984 140.553 443.732 141.331 442.976 141.72C442.219 142.11 441.378 141.876 440.958 141.175C440.537 140.553 440.79 139.696 441.546 139.307C442.219 138.996 443.144 139.229 443.564 139.852Z" fill="white"/>
<path d="M232.757 50.1914C233.178 50.892 232.926 51.6705 232.169 52.0597C231.412 52.449 230.572 52.2154 230.151 51.5148C229.731 50.8141 229.983 50.0357 230.74 49.6464C231.496 49.335 232.421 49.5686 232.757 50.1914Z" fill="white"/>
<path d="M267.264 6.79476C267.685 7.41753 267.432 8.27385 266.676 8.66308C265.919 9.05231 265.078 8.81877 264.658 8.11816C264.238 7.41754 264.49 6.63907 265.247 6.24984C266.003 5.86061 266.928 6.09414 267.264 6.79476Z" fill="white"/>
<path d="M540.223 134.481L536.338 138.881M533.546 139.156V130.355V139.156ZM533.546 153.594V144.794V153.594ZM531.118 142.044H523.348H531.118ZM543.865 142.044H536.095H543.865ZM530.753 138.881L526.868 134.481L530.753 138.881ZM540.223 149.606L536.338 145.206L540.223 149.606ZM530.753 145.206L526.868 149.606L530.753 145.206Z" stroke="#5F26FF" stroke-width="1.72918" stroke-miterlimit="10"/>
<path d="M534.642 259.039L527.886 260.929M525.134 258.229L532.015 245.54L525.134 258.229ZM513.749 278.883L520.63 266.193L513.749 278.883ZM519.254 259.984L507.494 252.559L519.254 259.984ZM538.27 272.133L526.51 264.708L538.27 272.133ZM521.631 257.014L519.88 249.724L521.631 257.014ZM525.885 274.968L524.133 267.678L525.885 274.968ZM518.003 263.629L511.247 265.518L518.003 263.629Z" stroke="#5F26FF" stroke-width="1.72918" stroke-miterlimit="10"/>
<path d="M523.814 267.768C526.647 267.768 528.943 265.054 528.943 261.706C528.943 258.358 526.647 255.644 523.814 255.644C520.981 255.644 518.685 258.358 518.685 261.706C518.685 265.054 520.981 267.768 523.814 267.768Z" fill="#FFE48D" stroke="#5F26FF" stroke-width="1.72918" stroke-miterlimit="10"/>
<path d="M533.139 145.511C534.427 145.511 535.471 144.38 535.471 142.985C535.471 141.59 534.427 140.459 533.139 140.459C531.851 140.459 530.808 141.59 530.808 142.985C530.808 144.38 531.851 145.511 533.139 145.511Z" fill="#21FDC8" stroke="#5F26FF" stroke-width="1.72918" stroke-miterlimit="10"/>
<path d="M234.962 163.825L231.582 165.805M229.704 164.673L231.957 156.61L229.704 164.673ZM226.074 177.829L228.327 169.766L226.074 177.829ZM226.825 166.371L219.689 163.825L226.825 166.371ZM238.342 170.614L231.206 168.068L238.342 170.614ZM227.701 164.39L225.949 160.571L227.701 164.39ZM232.082 173.868L230.33 170.049L232.082 173.868ZM226.574 168.634L223.195 170.614L226.574 168.634Z" stroke="#5F26FF" stroke-width="1.72918" stroke-miterlimit="10"/>
<path d="M228.55 170.756C230.353 170.756 231.814 169.173 231.814 167.219C231.814 165.266 230.353 163.683 228.55 163.683C226.748 163.683 225.286 165.266 225.286 167.219C225.286 169.173 226.748 170.756 228.55 170.756Z" fill="#FFE48D" stroke="#5F26FF" stroke-width="1.72918" stroke-miterlimit="10"/>
<path d="M112.14 173.802L110.246 181.885M114.864 178.934L107.403 176.881L114.864 178.934Z" stroke="#FFE48D" stroke-width="1.72918" stroke-miterlimit="10"/>
<path d="M192.169 276.766L196.965 282.828M197.308 277.26L191.712 282.457L197.308 277.26Z" stroke="#FFE48D" stroke-width="1.72918" stroke-miterlimit="10"/>
<path d="M407.114 152.584L411.91 158.646M412.367 153.079L406.771 158.275L412.367 153.079Z" stroke="#FFE48D" stroke-width="1.72918" stroke-miterlimit="10"/>
<path d="M462.729 130.103L471.122 128.587M466.138 125.303L467.712 133.386L466.138 125.303Z" stroke="#FFE48D" stroke-width="1.72918" stroke-miterlimit="10"/>
<path d="M177.693 221.29L182.489 227.353M182.946 221.785L177.351 226.982L182.946 221.785Z" stroke="#FFE48D" stroke-width="1.72918" stroke-miterlimit="10"/>
<path d="M177.508 118.231L180.669 126.314M182.945 120.56L175.484 123.985L182.945 120.56Z" stroke="#FFE48D" stroke-width="1.72918" stroke-miterlimit="10"/>
<path d="M447.626 294.953L451.533 298.994M451.911 295.28L447.248 298.666L451.911 295.28Z" stroke="#FFE48D" stroke-width="1.72918" stroke-miterlimit="10"/>
<path d="M63.0393 288.986L68.635 295.049M69.1679 289.481L62.6396 294.678L69.1679 289.481Z" stroke="#FFE48D" stroke-width="1.72918" stroke-miterlimit="10"/>
<path d="M313.511 238.751L320.972 232.278M314.793 230.384L319.573 240.488L314.793 230.384Z" stroke="#FFE48D" stroke-width="1.72918" stroke-miterlimit="10"/>
<path d="M281.473 167.74L283.868 158.646M278.07 161.964L287.396 164.299L278.07 161.964Z" stroke="#FFE48D" stroke-width="1.72918" stroke-miterlimit="10"/>
<path d="M304.767 284.945L305.583 293.028M308.848 288.607L301.387 289.492L308.848 288.607Z" stroke="#FFE48D" stroke-width="1.72918" stroke-miterlimit="10"/>
<path d="M255.408 208.155L253.987 216.238M258.487 213.031L251.026 211.491L258.487 213.031Z" stroke="#FFE48D" stroke-width="1.72918" stroke-miterlimit="10"/>
<path d="M276.689 266.758C275.643 264.361 276.341 261.541 278.317 260.272C280.294 259.003 282.619 259.849 283.666 262.246" stroke="#5F26FF" stroke-width="1.72918" stroke-miterlimit="10"/>
<path d="M471.122 184.47C472.109 183.684 473.534 183.684 474.302 184.694C475.069 185.704 475.069 187.162 474.082 187.947" stroke="#5F26FF" stroke-width="1.72918" stroke-miterlimit="10"/>
<path d="M62.6495 119.241C62.5331 117.665 63.4638 116.352 64.7434 116.221C66.0231 116.09 67.1864 117.14 67.3027 118.716" stroke="#5F26FF" stroke-width="1.72918" stroke-miterlimit="10"/>
<path d="M358.284 273.831C358.17 271.818 359.078 269.987 360.44 269.804C361.802 269.621 362.824 271.086 362.937 273.282" stroke="#5F26FF" stroke-width="1.72918" stroke-miterlimit="10"/>
<path d="M319.105 187.809C320.181 186.752 322.178 186.635 323.561 187.574C324.943 188.396 325.097 189.922 323.868 190.979" stroke="#5F26FF" stroke-width="1.72918" stroke-miterlimit="10"/>
<path d="M357.343 134.756C357.478 133.324 358.833 132.152 360.459 132.412C362.084 132.673 363.168 133.845 362.897 135.407" stroke="#5F26FF" stroke-width="1.72918" stroke-miterlimit="10"/>
<path d="M399.065 221.741C398.143 224.231 397.429 226.397 396.282 228.59C396.099 228.976 395.756 229.552 395.165 230.026C394.518 230.528 393.801 230.694 393.213 230.759C391.351 230.965 389.704 230.696 388.613 230.451C387.522 230.206 385.963 229.819 384.067 228.781C382.09 227.71 380.814 226.517 379.969 225.707C378.303 224.149 377.458 223.339 377.187 222.099C376.655 219.727 378.033 217.681 378.106 217.608C378.859 216.535 379.81 216.107 380.265 215.885L378.217 214.476C377.689 214.105 376.806 213.535 376.707 212.879C376.598 212.117 377.001 211.104 377.411 210.607L377.935 210.054C377.935 210.054 378.367 209.361 378.439 209.288C378.72 208.891 379.376 207.829 380.203 207.35C381.558 206.576 383.236 207.831 383.688 208.018C384.099 208.187 384.643 208.514 384.818 208.689C385.223 209.01 385.301 208.786 385.279 208.315C385.31 208.225 385.398 208.108 385.445 207.974C385.54 207.705 385.536 207.447 385.542 207.296C385.599 207.268 385.672 207.196 385.662 207.089C385.69 206.742 385.057 206.532 384.823 206.128C384.487 205.477 385.142 204.414 385.35 204.09C386.246 202.614 386.448 200.698 387.153 199.092C388.879 194.985 389.81 190.191 389.863 189.906C390.245 188.013 390.906 184.39 390.51 180.023C390.207 176.463 389.301 173.681 389.089 173.08C388.927 172.603 388.815 172.25 388.714 172.003C388.37 172.579 387.818 173.479 387.188 174.603C386.079 176.555 385.697 177.372 384.525 179.503C380.34 187.26 380.528 186.056 379.905 187.696C379.779 188.054 379.454 188.843 378.77 189.586C377.883 190.502 376.768 190.862 376.009 191.011C374.514 191.112 373.003 191.258 371.508 191.359C371.173 191.374 370.895 191.362 370.56 191.378C369.942 192.199 369.365 193.038 368.746 193.859C368.864 194.062 369.102 194.724 369.162 194.954C369.324 195.431 369.316 195.991 369.117 196.422L366.631 201.086C366.224 201.841 365.817 201.93 365.077 201.624L364.622 201.847L362.005 207.688C360.6 210.748 358.296 213.284 355.413 214.658L333.7 225.132C333.793 225.94 333.95 227.235 333.906 227.627L332.149 244.69C332.084 245.278 331.807 245.933 331.577 246.453L331.331 247.018L332.22 249.179L334.28 256.18C334.526 257.357 334.331 258.046 333.977 258.515L334.147 259.508C334.192 260.45 333.96 261.379 333.237 261.696C331.408 262.479 327.567 264.433 323.524 266.559C319.425 268.713 315.097 270.978 312.416 272.179C310.018 273.241 308.143 273.083 306.622 272.455C304.236 271.472 302.899 269.382 302.68 268.933C301.443 268.166 300.511 267.065 300.078 265.348C298.455 258.579 303.825 254.283 303.923 254.272L314.077 247.08C313.95 246.771 313.921 246.451 313.867 246.07L311.187 225.69C310.482 220.325 312.221 214.84 315.774 211.025L325.982 200.061L305.196 193.693C304.809 194.662 304.232 195.5 303.563 196.198L290.794 208.823C289.809 209.749 288.697 210.367 287.433 210.615C286.308 210.869 285.129 210.741 284.085 210.362C284.069 210.407 284.069 210.407 284.038 210.496L284.341 210.57L284.075 211.998C283.943 212.508 283.729 212.983 283.35 213.391L276.657 220.114C275.915 220.885 274.961 221.055 274.138 220.716C273.809 220.58 273.496 220.4 273.189 220.068L254.012 197.192C253.122 196.107 253.189 194.443 254.148 193.455C255.745 191.858 258.889 189.207 262.326 189.343C264.412 189.434 266.276 190.562 267.964 192.591C271.56 197.098 274.09 197.936 275.09 198.041C275.044 197.099 275.178 196.18 275.395 195.296L275.521 194.938C275.867 193.953 276.32 193.063 276.964 192.303L293.827 172.448C296.692 169.118 300.897 167.469 305.036 168.15L321.608 170.832C321.529 170.389 321.591 169.543 321.789 169.113L324.208 163.702C324.469 163.093 324.857 162.791 325.404 162.709C325.445 162.726 325.657 162.66 325.739 162.694L333.31 145.567C333.12 145.438 332.775 145.347 332.658 145.145C332.316 144.645 332.096 143.529 332.332 142.857C332.898 141.245 333.698 139.371 334.737 137.083C332.221 135.533 315.326 124.926 313.392 114.081L312.914 113.833C312.734 113.809 312.61 113.759 312.446 113.691C312.158 113.572 311.886 113.409 311.743 113.145C311.395 112.796 311.347 112.263 311.365 111.81L312.185 104.92C312.319 104.001 313.07 103.337 313.905 103.374L314.488 102.384C318.581 88.5906 332.473 78.531 332.659 78.4028L333.363 77.873L334.01 76.7041C335.937 74.1668 342.872 66.6208 350.293 63.3243L350.432 63.3304L350.555 63.3813C350.596 63.3983 359.773 65.286 363.133 74.6173L363.235 74.8642L363.033 75.0372C362.831 75.2102 357.883 80.4489 353.241 83.6097L359.828 82.6862L359.929 82.9331C360.037 83.0288 360.678 84.4208 360.34 90.0739L360.302 90.3147L360.116 90.443C359.832 90.582 353.314 94.6607 344.449 94.0294L343.896 94.2627C343.614 93.9927 333.145 102.081 333.069 107.791C332.989 109.091 333.905 110.237 335.013 111.104C341.03 115.687 344.751 118.093 345.84 118.747C346.329 118.026 346.982 117.373 347.522 116.775C348.907 115.245 350.504 113.648 352.577 113.375L352.561 113.42C353.282 111.769 354.871 110.733 354.943 110.66L354.969 110.722C357.873 104.332 360.197 100.934 369.213 91.8877C374.237 86.8342 381.96 84.6876 389.015 86.3156C396.112 87.9605 401.697 93.2369 404.793 101.177C411.196 117.659 397.558 131.821 394.515 134.719L394.736 134.759C394.689 134.893 397.27 139.341 397.638 139.902L399.155 142.015C399.523 142.577 399.657 143.401 399.421 144.073C399.374 144.207 399.311 144.386 399.223 144.503C404.139 152.221 406.401 159.049 406.411 159.155C408.502 166.067 409.807 172.807 410.257 179.298L410.437 179.321C410.911 179.312 411.282 179.464 411.63 179.813C411.978 180.162 412.099 180.621 412.147 181.154L412.007 188.119C411.93 189.01 411.286 189.77 410.404 189.867L410.224 189.844C409.07 206.797 402.093 216.069 402.062 216.159L401.958 216.321L401.737 216.281C401.556 216.258 401.278 216.246 401.098 216.223C400.664 217.325 400.286 218.4 399.852 219.502C399.452 220.773 399.232 221.399 399.065 221.741Z" fill="white"/>
<path d="M316.072 110.47L318.412 108.769L316.345 107.148L316.433 105.288C316.511 104.397 315.943 103.599 315.156 103.429C315.115 103.412 314.976 103.406 314.935 103.389L314.296 103.33L313.796 103.278C312.978 103.197 312.211 103.906 312.076 104.824L311.256 111.714C311.222 112.213 311.286 112.7 311.635 113.049C311.777 113.313 312.05 113.476 312.338 113.595C312.502 113.663 312.625 113.714 312.806 113.737L313.485 113.812L314.165 113.887C314.206 113.904 314.304 113.894 314.345 113.91C315.114 113.868 315.776 113.322 315.895 112.448L316.072 110.47Z" fill="#21FDC8"/>
<path d="M316.072 110.47L318.412 108.769L316.345 107.148L316.433 105.288C316.511 104.397 315.943 103.599 315.156 103.429C315.115 103.412 314.976 103.406 314.935 103.389L314.296 103.33L313.796 103.278C312.978 103.197 312.211 103.906 312.076 104.824L311.256 111.714C311.222 112.213 311.286 112.7 311.635 113.049C311.777 113.313 312.05 113.476 312.338 113.595C312.502 113.663 312.625 113.714 312.806 113.737L313.485 113.812L314.165 113.887C314.206 113.904 314.304 113.894 314.345 113.91C315.114 113.868 315.776 113.322 315.895 112.448L316.072 110.47Z" stroke="#6027FF" stroke-width="2.37364" stroke-miterlimit="10"/>
<path d="M412.096 188.002L412.236 181.037C412.228 180.521 412.066 180.044 411.718 179.695C411.37 179.347 411 179.194 410.526 179.204L410.345 179.181L409.495 179.189L409.242 179.238C408.392 179.246 407.707 179.989 407.63 180.88L407.494 182.874L405.379 184.873L407.68 186.232L407.771 188.115C407.839 188.861 408.207 189.422 408.823 189.677C409.029 189.762 409.25 189.802 409.488 189.797L409.529 189.814L410.395 189.761L410.575 189.784C411.457 189.686 412.1 188.926 412.096 188.002Z" fill="#21FDC8"/>
<path d="M412.096 188.002L412.236 181.037C412.228 180.521 412.066 180.044 411.718 179.695C411.37 179.347 411 179.194 410.526 179.204L410.345 179.181L409.495 179.189L409.242 179.238C408.392 179.246 407.707 179.989 407.63 180.88L407.494 182.874L405.379 184.873L407.68 186.232L407.771 188.115C407.839 188.861 408.207 189.422 408.823 189.677C409.029 189.762 409.25 189.802 409.488 189.797L409.529 189.814L410.395 189.761L410.575 189.784C411.457 189.686 412.1 188.926 412.096 188.002Z" stroke="#6027FF" stroke-width="2.37364" stroke-miterlimit="10"/>
<path d="M284.193 210.458L283.927 211.886C283.801 212.244 283.504 212.686 283.167 213.11L276.473 219.833C275.763 220.515 274.777 220.774 273.955 220.435C273.626 220.3 273.312 220.119 273.005 219.787L253.75 197.135C252.86 196.05 252.927 194.386 253.886 193.398C255.442 191.784 258.545 189.116 262.063 189.286C264.15 189.377 266.014 190.505 267.702 192.534C271.314 196.996 273.803 197.818 274.827 197.984" stroke="#6027FF" stroke-width="2.37364" stroke-miterlimit="10"/>
<path d="M255.479 192.21L277.727 218.403" stroke="#6027FF" stroke-width="2.37364" stroke-miterlimit="10"/>
<path d="M353.478 156.909C358.497 158.979 364.144 156.166 366.09 150.627C368.036 145.088 365.544 138.92 360.525 136.85C355.506 134.78 349.859 137.592 347.913 143.131C345.967 148.67 348.458 154.839 353.478 156.909Z" stroke="#6027FF" stroke-width="2.33093" stroke-miterlimit="10"/>
<path d="M374.394 152.052C374.394 152.052 374.409 152.008 374.368 151.991C374.206 151.514 374.013 151.126 373.576 150.895L371.795 149.801C371.019 149.328 370.043 149.694 369.564 150.522L369.205 151.143L368.782 151.943L366.488 156.328L366.066 157.128L365.493 158.224C365.294 158.655 365.194 159.075 365.356 159.552C365.518 160.028 365.711 160.416 366.148 160.647L367.971 161.758C368.094 161.808 368.135 161.825 368.176 161.842C368.587 162.012 369.118 161.975 369.475 161.763C369.719 161.607 369.993 161.361 370.144 161.065L374.092 153.312C374.471 152.904 374.473 152.495 374.394 152.052Z" stroke="#6027FF" stroke-width="2.31139" stroke-miterlimit="10"/>
<path d="M377.674 153.303C377.649 153.241 377.639 153.134 377.614 153.073C377.553 152.843 377.364 152.713 377.158 152.628L375.971 151.985C375.601 151.833 375.235 151.938 374.846 152.239C374.644 152.412 374.452 152.692 374.301 152.988L370.517 160.809C370.319 161.239 370.219 161.659 370.257 162.085C370.241 162.13 370.283 162.147 370.251 162.237C370.305 162.618 370.505 162.854 370.736 163.001L371.923 163.644C371.964 163.661 371.964 163.661 372.005 163.678C372.539 163.898 373.31 163.447 373.691 162.63L373.795 162.468L377.377 154.82C377.679 154.227 377.697 153.774 377.674 153.303Z" stroke="#6027FF" stroke-width="2.10095" stroke-miterlimit="10"/>
<path d="M366.329 149.547C366.494 149.615 366.601 149.71 366.766 149.778C367.623 150.285 368.512 150.703 369.37 151.211" stroke="#6027FF" stroke-width="2.37364" stroke-miterlimit="10"/>
<path d="M343.143 130.707C343.935 131.803 346.364 134.804 350.619 138.507" stroke="#6027FF" stroke-width="2.37364" stroke-miterlimit="10"/>
<path d="M366.148 157.162C364.838 156.468 364.212 156.107 363.041 155.419" stroke="#6027FF" stroke-width="2.37364" stroke-miterlimit="10"/>
<path d="M347.4 144.458C341.961 139.703 339.815 136.563 339.765 136.439" stroke="#6027FF" stroke-width="2.37364" stroke-miterlimit="10"/>
<path d="M361.864 185.435L357.253 182.611C356.642 182.205 355.88 182.096 355.131 182.351C354.398 182.561 353.833 183.097 353.458 183.763L352.869 184.904L352.447 185.703L349.11 192.119L348.688 192.919L348.458 193.439C347.717 194.877 348.144 196.744 349.479 197.5L354.172 200.358C354.296 200.409 354.444 200.522 354.568 200.572C355.801 201.081 357.299 200.571 357.967 199.206L358.373 198.451L358.796 197.651L362.133 191.236L362.555 190.436L363.065 189.518C363.667 188.075 363.167 186.28 361.864 185.435Z" stroke="#6027FF" stroke-width="2.37364" stroke-miterlimit="10"/>
<path d="M336.016 166.675L334.532 165.807C334.137 165.593 333.776 165.547 333.384 165.59C333.018 165.695 332.671 166.013 332.462 166.338L331.378 168.351L330.956 169.151L327.537 175.533L327.115 176.333L326.015 178.391C325.848 178.732 325.773 179.214 325.894 179.674C325.974 180.117 326.281 180.448 326.619 180.691L328.103 181.559C328.145 181.576 328.268 181.627 328.309 181.644C328.967 181.915 329.814 181.649 330.164 180.922L330.873 179.574L331.295 178.774L334.6 172.448L335.022 171.648L336.576 168.7C336.92 168.124 336.709 167.115 336.016 166.675Z" stroke="#6027FF" stroke-width="2.37364" stroke-miterlimit="10"/>
<path d="M328.313 164.883L324.04 173.425" stroke="#6027FF" stroke-width="2.37364" stroke-miterlimit="10"/>
<path d="M334.22 182.646L338.174 174.742" stroke="#6027FF" stroke-width="2.37364" stroke-miterlimit="10"/>
<path d="M343.943 179.223L340.03 187.144" stroke="#6027FF" stroke-width="2.37364" stroke-miterlimit="10"/>
<path d="M346.849 191.853L350.762 183.932" stroke="#6027FF" stroke-width="2.37364" stroke-miterlimit="10"/>
<path d="M362.203 200.286L366.028 192.482" stroke="#6027FF" stroke-width="2.37364" stroke-miterlimit="10"/>
<path d="M404.725 101.099C401.63 93.158 396.045 87.8815 388.948 86.2366C381.893 84.6086 374.17 86.7553 369.146 91.8088C360.145 100.81 357.806 104.254 354.902 110.643C354.839 110.822 354.776 111.001 354.672 111.163L354.656 111.208L354.64 111.253C354.64 111.253 354.625 111.297 354.603 111.493C354.587 111.538 354.581 111.69 354.6 111.903C354.475 114.67 354.93 127.314 370.176 134.575C371.106 135.01 372.011 135.383 372.916 135.757C386.898 141.523 392.835 136.282 393.836 135.31C393.893 135.282 393.924 135.193 393.94 135.148C393.956 135.103 394.142 134.975 394.505 134.612C397.532 131.759 411.171 117.597 404.725 101.099Z" stroke="#6027FF" stroke-width="2.37364" stroke-miterlimit="10"/>
<path d="M397.599 139.476L394.768 134.669C394.752 134.714 394.403 137.851 391.489 139.981C387.741 142.742 381.671 142.597 373.356 139.731C372.476 139.42 371.695 139.098 370.914 138.776C358.371 133.603 354.218 124.919 352.897 119.299C352.82 119.114 352.811 119.008 352.735 118.822C352.419 117.308 352.303 116.03 352.226 115.178C352.213 114.814 352.24 114.466 352.351 114.153C352.42 113.823 352.53 113.509 352.64 113.196C353.361 111.545 354.949 110.509 355.022 110.436L355.047 110.498" stroke="#6027FF" stroke-width="2.37364" stroke-miterlimit="10"/>
<path d="M352.808 119.417C351.984 120.153 347.761 123.999 343.226 130.741C343.075 131.038 342.914 131.228 342.722 131.507C341.889 132.804 341.082 134.163 340.26 135.567C340.108 135.863 339.916 136.143 339.765 136.439C338.384 138.894 337.074 141.686 335.881 144.68C335.557 145.469 334.868 145.954 334.059 145.979C333.92 145.973 333.838 145.939 333.714 145.888C333.591 145.837 333.55 145.82 333.426 145.769C333.262 145.702 333.097 145.634 332.949 145.521C332.8 145.409 332.585 145.217 332.483 144.97C332.156 144.426 332.089 143.68 332.309 143.053C332.916 141.458 333.722 139.433 334.777 137.1C334.856 136.876 335.007 136.579 335.117 136.266C337.562 130.917 341.038 124.508 345.135 119.277C345.255 119.07 345.488 118.808 345.706 118.59C346.277 117.903 346.848 117.215 347.388 116.618C348.757 115.132 350.37 113.49 352.443 113.218L352.427 113.262" stroke="#6027FF" stroke-width="2.37364" stroke-miterlimit="10"/>
<path d="M314.183 103.386C318.317 89.6097 332.324 78.4185 332.412 78.3011L333.116 77.7713L333.039 78.662L333.023 78.7068C333.007 78.7516 333.021 79.1159 333.028 79.6315C333.203 82.2155 334.43 89.8467 343.979 93.2208L345.444 93.8761L344.382 93.9508L343.715 94.2398C343.627 94.3571 333.16 102.036 333.126 107.763C333.144 109.052 333.673 110.091 334.781 110.958C340.799 115.541 344.52 117.947 345.609 118.601" stroke="#6027FF" stroke-width="2.37364" stroke-miterlimit="10"/>
<path d="M334.818 137.116C334.777 137.099 334.951 137.274 334.818 137.116C332.302 135.566 315.223 124.679 313.289 113.834C313.264 113.772 313.295 113.682 313.229 113.604" stroke="#6027FF" stroke-width="2.37364" stroke-miterlimit="10"/>
<path d="M333.116 77.7712C335.044 75.234 342.698 66.4465 350.143 63.2118L350.283 63.2179L350.406 63.2687C350.529 63.3196 359.665 65.1904 362.984 74.5047L363.086 74.7516L362.884 74.9246C362.65 75.1872 358.009 80.0907 353.522 83.2128C353.408 83.2685 353.484 83.4537 353.582 83.4428L359.679 82.5736L359.78 82.8206C359.856 83.0058 360.529 84.3083 360.191 89.9613L360.169 90.1574L359.982 90.2856C359.739 90.4417 353.18 94.5034 344.315 93.872C344.176 93.8659 344.135 93.8489 344.012 93.7981" stroke="#6027FF" stroke-width="2.37364" stroke-miterlimit="10"/>
<path d="M399.269 141.96L397.751 139.847C397.384 139.285 396.767 139.031 396.081 139.107C393.59 139.361 385.216 141.085 378.231 153.327C377.872 153.948 377.44 154.641 377.147 155.341C375.937 157.712 374.99 160.141 374.378 162.554C372.779 168.713 373.159 174.867 375.509 180.911C375.569 181.141 375.686 181.343 375.788 181.59C375.813 181.652 375.905 181.792 375.915 181.899C376.124 182.241 376.406 182.511 376.817 182.681C377.023 182.766 377.244 182.806 377.481 182.801C378.218 182.848 378.891 182.408 379.256 181.636L380.598 178.755C380.891 178.055 380.829 177.159 380.369 176.456C380.145 176.159 379.91 175.754 379.64 175.182C379.513 174.873 379.377 174.458 379.281 174.06C378.704 171.413 378.918 166.785 382.568 158.807C387.353 148.272 394.407 145.747 398.121 145.228C398.374 145.179 398.611 145.174 398.772 144.984C399.015 144.828 399.233 144.61 399.435 144.437C399.523 144.32 399.586 144.141 399.633 144.006C399.746 143.284 399.678 142.538 399.269 141.96Z" stroke="#6027FF" stroke-width="2.37364" stroke-miterlimit="10"/>
<path d="M379.54 175.192L385.112 164.828" stroke="#6027FF" stroke-width="2.37364" stroke-miterlimit="10"/>
<path d="M375.857 181.926L371.313 190.305L370.802 191.222L369.192 194.197L369.088 194.359" stroke="#6027FF" stroke-width="2.37364" stroke-miterlimit="10"/>
<path d="M399.264 144.52C404.18 152.237 406.483 159.082 406.483 159.082C408.591 165.949 409.838 172.717 410.329 179.225C410.329 179.225 410.371 179.242 410.355 179.287" stroke="#6027FF" stroke-width="2.37364" stroke-miterlimit="10"/>
<path d="M410.305 189.211C410.283 189.407 410.303 189.62 410.255 189.755C409.2 206.697 402.321 215.958 402.232 216.075L402.128 216.238L401.907 216.198C401.727 216.174 401.531 216.196 401.268 216.139C400.965 216.065 400.728 216.07 400.424 215.996C398.9 215.778 397.413 215.318 396.139 214.793C391.491 212.876 388.126 209.592 386.38 207.59C386.14 207.337 385.997 207.073 385.797 206.837C385.306 206.225 385.04 205.91 385.04 205.91L384.923 205.708L385.348 204.499C386.097 202.501 387.5 198.774 389.204 193.12C391.908 184.085 390.884 176.948 388.947 171.741C388.82 171.432 388.668 171.061 388.541 170.753C388.16 169.827 387.071 167.43 385.211 164.818C385.211 164.818 385.028 164.537 383.586 162.609" stroke="#6027FF" stroke-width="2.37364" stroke-miterlimit="10"/>
<path d="M401.243 216.077C400.81 217.847 400.3 219.431 399.828 220.774C399.718 221.087 399.608 221.401 399.529 221.625C398.167 225.369 396.89 227.662 396.074 228.914C395.475 229.949 394.42 230.539 393.276 230.58C390.399 230.726 387.882 230.252 385.744 229.37C381.755 227.725 379.072 224.774 377.678 222.712C376.543 221.117 376.748 218.792 378.168 217.429C378.749 216.849 379.33 216.268 379.869 215.67C380.071 215.497 380.264 215.218 380.44 214.983C382.298 212.776 383.708 210.641 384.578 209.103C384.729 208.806 384.921 208.527 385 208.303C385.422 207.503 385.668 206.938 385.731 206.759" stroke="#6027FF" stroke-width="2.37364" stroke-miterlimit="10"/>
<path d="M379.888 215.883L377.84 214.475C377.271 214.086 376.919 213.48 376.835 212.779C376.736 212.123 376.88 211.311 377.347 210.786L377.701 210.316L378.287 209.584L379.596 207.869C380.215 207.047 381.242 206.804 382.146 207.177L385.05 208.426L385.256 208.511" stroke="#6027FF" stroke-width="2.37364" stroke-miterlimit="10"/>
<path d="M388.874 171.813L380.065 187.506C379.491 188.602 378.636 189.429 377.647 190.098C377.404 190.254 377.161 190.41 376.934 190.521C376.081 190.938 375.111 191.153 374.106 191.2L370.761 191.205" stroke="#6027FF" stroke-width="2.37364" stroke-miterlimit="10"/>
<path d="M325.852 162.638L332.948 145.521L333.011 145.342" stroke="#6027FF" stroke-width="2.37364" stroke-miterlimit="10"/>
<path d="M362.346 190.502C364.282 191.557 366.301 192.646 368.376 193.707C368.418 193.724 368.418 193.724 368.5 193.758C368.705 193.842 368.936 193.989 369.054 194.191C369.171 194.393 369.304 194.551 369.349 194.825C369.552 195.319 369.518 195.818 369.304 196.293L366.817 200.958C366.411 201.713 365.574 202.086 364.792 201.763L364.669 201.713C364.463 201.628 364.217 201.526 363.888 201.39C362.588 200.803 360.62 199.838 358.247 198.551" stroke="#6027FF" stroke-width="2.37364" stroke-miterlimit="10"/>
<path d="M335.072 171.772C340.033 176.278 345.497 180.428 352.854 184.948" stroke="#6027FF" stroke-width="2.37364" stroke-miterlimit="10"/>
<path d="M327.082 176.422C325.391 174.802 323.732 173.093 322.196 171.434C322.155 171.417 322.089 171.338 322.089 171.338C321.93 171.119 321.756 170.945 321.752 170.687C321.59 170.21 321.624 169.712 321.848 169.343L324.377 163.619C324.607 163.099 325.099 162.635 325.712 162.632C325.769 162.604 325.852 162.638 325.934 162.672C326.269 162.656 326.474 162.741 326.731 162.949C326.88 163.062 327.013 163.219 327.146 163.377C327.938 164.472 329.262 166.197 331.387 168.458" stroke="#6027FF" stroke-width="2.37364" stroke-miterlimit="10"/>
<path d="M348.658 193.009C341.68 188.747 336.479 184.654 330.923 179.697" stroke="#6027FF" stroke-width="2.37364" stroke-miterlimit="10"/>
<path d="M305.284 188.347L305.413 189.323C305.642 190.545 305.6 191.604 305.295 192.606C305.185 192.92 305.147 193.161 304.996 193.457C304.624 194.38 304.032 195.264 303.363 195.962L290.594 208.586C289.691 209.547 288.497 210.131 287.233 210.379C285.969 210.626 284.749 210.482 283.597 210.007C282.569 209.583 281.661 208.952 280.96 207.997L276.408 202.327C275.569 201.365 275.102 200.148 274.847 198.863C274.761 198.572 274.732 198.252 274.719 197.888C274.673 196.946 274.807 196.028 275.024 195.143L275.15 194.785C275.496 193.8 275.95 192.91 276.593 192.151L293.457 172.295C296.337 168.92 300.526 167.316 304.665 167.998L321.63 170.636" stroke="#6027FF" stroke-width="2.37364" stroke-miterlimit="10"/>
<path d="M326.045 199.882L325.757 199.763L304.97 193.396L304.806 193.328" stroke="#6027FF" stroke-width="2.37364" stroke-miterlimit="10"/>
<path d="M331.451 222.154C332.83 222.518 333.432 223.484 333.756 224.438C333.842 224.729 333.912 225.066 333.957 225.341C334.05 226.148 333.947 226.977 333.944 227.386L332.33 244.713C332.037 245.412 331.832 245.994 331.644 246.532L331.534 246.845L331.017 247.914L330.724 248.613C330.431 249.313 329.933 249.927 329.399 250.374C326.763 252.516 324.127 252.916 321.851 252.695C321.475 252.693 321.13 252.602 320.744 252.494C319.957 252.324 319.267 252.142 318.651 251.887C318.527 251.836 318.486 251.82 318.363 251.769C317.705 251.497 317.068 251.03 316.577 250.417C316.577 250.417 316.536 250.4 316.552 250.356L316.286 250.041L314.879 248.282C314.721 248.063 314.506 247.871 314.42 247.58C314.277 247.316 314.134 247.052 314.064 246.715C313.937 246.407 313.826 246.053 313.854 245.706L311.117 225.354C310.412 219.989 312.151 214.503 315.704 210.688L325.913 199.725L326.307 199.272L332.132 193.011" stroke="#6027FF" stroke-width="2.37364" stroke-miterlimit="10"/>
<path d="M364.892 201.344L364.766 201.702L362.19 207.56C360.868 210.654 358.482 213.156 355.598 214.53L333.744 225.407" stroke="#6027FF" stroke-width="2.37364" stroke-miterlimit="10"/>
<path d="M393.782 112.682L379.388 97.3653C377.529 95.4197 374.285 95.0046 371.101 98.3051L364.171 105.7C361.48 108.537 360.886 112.906 362.622 116.543C366.597 124.795 372.262 128.772 376.909 130.688C378.472 131.333 379.974 131.747 381.106 132.009C382.985 132.425 384.88 131.72 386.11 130.228L393.96 120.752C395.897 118.321 395.799 114.846 393.782 112.682Z" fill="#5522F5"/>
<path d="M393.782 112.682L379.388 97.3653C377.529 95.4197 374.285 95.0046 371.101 98.3051L364.171 105.7C361.48 108.537 360.886 112.906 362.622 116.543C366.597 124.795 372.262 128.772 376.909 130.688C378.472 131.333 379.974 131.747 381.106 132.009C382.985 132.425 384.88 131.72 386.11 130.228L393.96 120.752C395.897 118.321 395.799 114.846 393.782 112.682Z" stroke="#6027FF" stroke-width="2.37364" stroke-miterlimit="10"/>
<path d="M397.242 112.213L380.038 93.6358C377.822 91.235 373.98 90.7785 370.193 94.8558L361.831 103.915C358.6 107.35 357.857 112.682 359.938 117.078C364.608 127.103 371.495 131.891 377.006 134.163C378.856 134.926 380.605 135.443 382.016 135.717C384.239 136.223 386.491 135.307 387.971 133.508L397.457 121.785C399.741 119.036 399.617 114.832 397.242 112.213Z" stroke="#6027FF" stroke-width="2.37364" stroke-miterlimit="10"/>
<path d="M331.436 246.856L332.445 249.477L334.271 256.073C334.589 257.178 334.394 257.867 334.025 258.381C333.823 258.554 333.631 258.834 333.289 259.001C333.046 259.157 332.664 259.307 332.38 259.446L332.152 259.557L309.634 270.314C309.454 270.291 306.66 270.472 304.145 269.588C304.022 269.537 303.939 269.504 303.734 269.419C303.323 269.249 302.886 269.018 302.547 268.776C301.31 268.009 300.296 266.874 299.946 265.191C298.281 258.404 303.692 254.126 303.79 254.115L313.945 246.922L314.188 246.766" stroke="#6027FF" stroke-width="2.37364" stroke-miterlimit="10"/>
<path d="M334.004 258.168L334.064 258.398L334.234 259.39C334.311 260.243 333.841 261.177 333.02 261.504C331.207 262.243 327.391 264.258 323.307 266.367C319.126 268.487 314.84 270.77 312.199 271.987C309.801 273.049 307.885 272.874 306.405 272.264C304.02 271.28 302.714 269.101 302.463 268.742C302.438 268.68 302.438 268.68 302.438 268.68" stroke="#6027FF" stroke-width="2.37364" stroke-miterlimit="10"/>
<path d="M377.922 210.356C377.798 210.305 377.757 210.289 377.634 210.238C374.648 208.955 372.785 206.751 372.306 204.094C371.822 201.587 372.734 198.99 374.766 196.957C377.701 193.964 377.232 191.413 376.861 190.593" stroke="#6027FF" stroke-width="2.37364" stroke-miterlimit="10"/>
<path d="M399.455 221.697C401.232 221.866 409.737 222.451 416.86 215.444C424.548 207.901 427.927 194.531 427.051 175.716C425.81 150.034 427.051 72.7481 523.253 108.112C532.885 111.652 542.138 113.324 551.001 113.438" stroke="#6027FF" stroke-width="2.37364" stroke-miterlimit="10"/>
<path d="M308.042 254.074L307.757 254.213C307.587 254.297 304.126 256.509 303.537 259.393C303.355 260.446 303.565 261.455 304.209 262.438C304.668 263.14 305.304 263.608 305.921 263.862C308.923 265.1 312.854 261.954 313.072 261.736L313.403 261.462L308.042 254.074Z" stroke="#6027FF" stroke-width="2.37364" stroke-miterlimit="10"/>
<path d="M321.335 252.687L316.066 256.563C315.352 256.986 314.625 257.045 313.967 256.774C313.638 256.638 313.274 256.334 313.008 256.02C312.542 255.469 312.402 254.796 312.473 254.056C312.545 253.317 312.889 252.741 313.438 252.25L316.115 250.124" stroke="#6027FF" stroke-width="2.37364" stroke-miterlimit="10"/>
<path d="M274.08 197.83L272.424 198.121L268.584 198.998C268.094 199.052 267.677 199.034 267.225 198.848C266.896 198.712 266.5 198.498 266.275 198.2L264.058 195.799C263.352 194.995 263.116 193.924 263.38 192.905C263.496 192.44 264.112 190.285 264.27 189.837" stroke="#6027FF" stroke-width="2.37364" stroke-miterlimit="10"/>
<path d="M319.891 221.95C319.047 221.807 318.281 221.44 317.506 220.967C316.813 220.527 316.151 219.998 315.584 219.2" stroke="#6027FF" stroke-width="2.37364" stroke-miterlimit="10"/>
<path d="M299.009 178.737C298.524 177.973 298.225 177.081 298.091 176.257C297.89 175.354 297.829 174.457 297.963 173.538" stroke="#6027FF" stroke-width="2.37364" stroke-miterlimit="10"/>
<path d="M326.58 193.131C326.139 191.975 326.064 190.714 325.958 189.542C325.867 188.326 325.916 187.116 326.16 185.884" stroke="#6027FF" stroke-width="2.37364" stroke-miterlimit="10"/>
<path d="M359.566 147.219C359.552 147.931 359.316 148.602 358.89 149.144C358.505 149.703 357.946 150.088 357.311 150.288L357.562 151.314C358.368 151.031 359.113 150.518 359.643 149.814C360.189 149.065 360.535 148.08 360.546 147.111L359.958 147.176L359.566 147.219Z" fill="#26F2C1"/>
<path d="M357.788 152.279L356.938 148.801C357.248 148.724 357.507 148.523 357.74 148.26C357.933 147.981 358.084 147.684 358.112 147.337L359.803 147.214L361.608 147.036C361.706 147.025 361.794 146.908 361.8 146.756L361.755 146.482C361.604 145.035 360.948 143.688 359.953 142.765L360.411 142.134C360.426 142.089 360.483 142.061 360.499 142.016C360.515 141.972 360.53 141.927 360.505 141.865C360.521 141.82 360.495 141.759 360.47 141.697C360.445 141.635 360.403 141.618 360.378 141.556C360.337 141.539 360.296 141.523 360.255 141.506C360.214 141.489 360.172 141.472 360.116 141.499C360.059 141.527 360.018 141.51 360.002 141.555C359.945 141.583 359.929 141.628 359.914 141.672L359.456 142.304C359.184 142.141 358.912 141.977 358.583 141.841L359.144 141.048C359.16 141.003 359.217 140.975 359.233 140.93C359.248 140.886 359.264 140.841 359.239 140.779C359.254 140.734 359.229 140.673 359.204 140.611C359.178 140.549 359.137 140.532 359.112 140.47C359.071 140.453 359.03 140.436 358.988 140.419C358.947 140.403 358.906 140.386 358.849 140.413C358.792 140.441 358.751 140.424 358.736 140.469C358.679 140.497 358.663 140.542 358.647 140.586L357.909 141.615C356.752 141.291 355.535 141.405 354.439 141.978C353.359 142.506 352.456 143.467 351.924 144.58C351.376 145.738 351.239 147.066 351.453 148.333C351.708 149.617 352.345 150.752 353.247 151.534L356.252 154.105C356.359 154.201 356.473 154.146 356.546 154.073L357.741 152.413C357.782 152.43 357.814 152.34 357.788 152.279ZM353.875 150.819C353.163 150.166 352.627 149.279 352.36 148.297C352.15 147.288 352.233 146.246 352.605 145.322C352.976 144.399 353.635 143.594 354.479 143.071C355.306 142.592 356.276 142.377 357.218 142.509L356.32 143.727C356.304 143.772 356.247 143.8 356.231 143.845C356.216 143.89 356.2 143.934 356.225 143.996C356.209 144.041 356.235 144.103 356.26 144.164C356.286 144.226 356.327 144.243 356.352 144.305C356.393 144.322 356.434 144.339 356.476 144.356C356.517 144.373 356.558 144.389 356.615 144.362C356.671 144.334 356.713 144.351 356.728 144.306C356.785 144.278 356.801 144.233 356.817 144.189L357.908 142.691C358.376 142.833 358.838 143.126 359.228 143.491C359.956 144.099 360.491 144.986 360.717 145.951C360.743 146.013 360.67 146.085 360.613 146.113L357.901 146.328C357.825 146.142 357.651 145.968 357.518 145.811C357.344 145.636 357.138 145.552 356.917 145.512C356.696 145.472 356.474 145.432 356.262 145.498C356.051 145.564 355.839 145.631 355.653 145.759C355.467 145.887 355.306 146.077 355.227 146.301C355.107 146.508 355.029 146.732 355.032 146.99C354.995 147.231 355.055 147.461 355.116 147.691C355.176 147.921 355.293 148.123 355.467 148.297C355.642 148.471 355.831 148.601 356.037 148.686L356.82 152.085C356.805 152.129 356.846 152.146 356.789 152.174L356.347 152.761C356.332 152.806 356.234 152.817 356.193 152.8L353.875 150.819ZM357.044 147.563C356.955 147.68 356.883 147.753 356.728 147.792C356.614 147.847 356.475 147.841 356.352 147.79C356.228 147.739 356.105 147.689 356.054 147.565C356.003 147.442 355.937 147.363 355.902 147.195C355.892 147.088 355.898 146.937 355.945 146.803C355.993 146.668 356.065 146.596 356.179 146.54C356.293 146.484 356.406 146.429 356.53 146.48C356.669 146.486 356.792 146.537 356.859 146.615C357.007 146.728 357.043 146.896 357.078 147.064C357.195 147.267 357.132 147.446 357.044 147.563Z" fill="#0E0333"/>
<path d="M231.918 301.966C226.436 287.83 219.416 273.008 210.212 257.608C194.94 232.29 175.593 208.311 158.353 195.074C145.73 185.24 136.506 184.588 131.838 190.328C129.14 186.098 127.41 182.473 126.481 179.426C123.768 170.572 127.559 166.553 131.541 165.473C140.995 162.399 159.095 176.866 175.672 192.395C175.672 192.395 172.757 189.414 167.849 184.861C147.422 165.599 126.656 152.508 116.985 159.708C112.018 163.424 111.449 173.321 115.233 186.562C119.315 200.77 128.277 218.44 141.488 235.381C129.212 233.103 110.514 206.432 100.487 188.125C94.2682 176.758 90.3019 166.731 88.055 158.108C84.1515 143.272 85.4594 132.717 88.7944 125.699C83.4871 132.419 81.934 144.952 86.5028 162.777C89.5673 174.78 95.3654 189.045 104.435 205.035C126.347 243.81 160.733 277.644 177.871 275.302C179.987 296.894 159.194 289.813 137.95 272.159C110.541 249.252 86.8975 213.661 68.6969 180.738C86.5 215.247 111.711 252.906 139.731 279.495C178.761 316.766 207.079 311.515 194.464 268.691C199.665 276.797 203.427 284.54 206.021 291.798C209.942 302.628 211.332 312.424 211.138 320.227C210.029 346.392 187.09 343.099 160.348 328.46C193.968 349.771 219.331 348.97 218.258 316.472C217.954 307.822 215.383 297.14 211.203 285.777C203.171 264.345 189.078 239.621 171.893 219.645C181.89 221.604 199.47 244.691 211.163 263.276C220.904 278.903 227.685 293.409 233.157 307.436C236.507 316.075 236.171 314.683 238.845 323.102C236.175 313.153 236.039 312.676 231.918 301.966Z" fill="#5932C4"/>
<path d="M113.984 201.919C112.507 203.658 111.186 205.146 110.046 207.014C109.856 207.342 109.545 207.842 109.713 208.642C109.635 209.407 109.783 210.053 109.967 210.624C110.516 212.334 111.413 213.657 112.005 214.489C112.632 215.339 113.545 216.528 115.04 217.786C116.642 219.099 118.024 219.729 118.928 220.155C120.771 221.026 121.692 221.413 122.711 221.189C124.661 220.741 125.623 218.685 125.657 218.608C126.138 217.532 126.108 216.521 126.049 216.063L127.879 217.259C128.341 217.596 129.141 218.157 129.667 217.959C130.281 217.759 130.836 217.007 131.058 216.412L131.261 215.76C131.261 215.76 131.605 215.087 131.64 215.01C131.828 214.587 132.31 213.607 132.352 212.728C132.387 211.277 130.789 210.25 130.486 209.949C130.182 209.647 129.756 209.329 129.543 209.217C129.17 208.975 129.274 208.84 129.659 208.662C129.729 208.604 129.764 208.527 129.85 208.43C130.024 208.237 130.199 208.139 130.322 208.061C130.321 207.966 130.355 207.889 130.425 207.83C130.651 207.617 131.045 208.108 131.468 208.14C132.067 208.17 132.566 207.151 132.739 206.862C133.444 205.477 134.772 204.561 135.709 203.345C138.067 200.219 141.188 197.54 141.398 197.365C142.618 196.298 145.043 194.297 148.427 192.893C151.185 191.789 153.587 191.486 154.111 191.419L154.118 191.419C154.54 191.355 154.856 191.332 155.085 191.309C154.793 191.867 154.344 192.675 153.775 193.657C152.774 195.408 152.359 196.044 151.219 197.912C147.177 204.613 147.997 203.952 147.025 205.15C146.817 205.42 146.348 205.98 146.077 206.881C145.739 208.032 145.911 209.117 146.113 209.84C146.641 211.206 147.133 212.554 147.625 213.903L147.625 213.903C147.769 214.168 147.861 214.454 148.005 214.719L146.873 217.255C146.714 217.219 146.116 217.285 145.922 217.326C145.5 217.389 145.098 217.605 144.855 217.952L142.367 221.958C141.952 222.594 142.063 223.031 142.58 223.539L142.586 224.016L182.485 249.236C182.853 249.097 183.412 248.727 183.655 248.38L186.67 244.175C186.981 243.674 187.098 243.214 186.916 242.74C186.863 242.664 186.825 242.455 186.789 242.436L196.459 229.107C196.655 229.257 196.851 229.502 197.046 229.557C197.523 229.665 198.471 229.403 198.853 228.939C199.791 227.819 200.866 226.391 202.165 224.559C204.826 220.179 210.321 210.652 211.015 207.576C211.324 206.884 211.453 205.909 211.691 205.18C212.201 203.646 211.573 199.856 211.342 198.218C210.724 198.131 208.357 190.395 206.009 187.126C204.002 184.368 175.612 171.01 175.047 170.904L172.909 170.4C172.327 170.332 171.66 170.551 171.278 171.015C171.191 171.111 171.051 171.228 171.035 171.362C163.356 170.135 157.427 170.869 157.338 170.87C151.412 171.795 145.897 173.267 140.937 175.457L140.847 175.268C140.666 174.888 140.363 174.587 139.991 174.44C139.619 174.292 139.197 174.356 138.812 174.533L133.684 177.393C133.055 177.822 132.713 178.686 133.022 179.464L133.112 179.654C121.048 187.367 116.972 196.989 116.885 197.086L116.816 197.239L116.942 197.448C117.033 197.637 117.14 197.788 117.231 197.978C116.588 198.732 115.963 199.542 115.304 200.334C114.557 201.223 114.192 201.648 113.984 201.919Z" fill="white"/>
<path d="M210.061 238.086L212.511 201.085C212.212 197.796 211.335 196.52 209.677 195.264L192.435 235.29L191.558 242.988L196.688 253.116L217.045 257.66L218.225 256.757L221.553 240.156L220.603 239.605L210.061 238.086Z" fill="white"/>
<path d="M196.051 253.459L194.47 254.316C194.215 254.445 193.881 254.515 193.627 254.455C193.374 254.396 193.149 254.105 193.003 253.872L189.366 245.54C189.155 244.945 189.332 244.382 189.802 244.096L191.049 243.309C191.384 243.05 191.851 243.14 192.17 243.374C192.29 243.462 192.45 243.579 192.515 243.753L193.982 246.527L196.426 246.617L195.395 249.2L196.5 252.087C196.619 252.363 196.603 252.667 196.548 252.942C196.494 253.028 196.468 253.071 196.414 253.158C196.4 253.273 196.239 253.345 196.051 253.459Z" fill="#21FDC8"/>
<path d="M196.051 253.459L194.47 254.316C194.215 254.445 193.881 254.515 193.627 254.455C193.374 254.396 193.149 254.105 193.003 253.872L189.366 245.54C189.155 244.945 189.332 244.382 189.802 244.096L191.049 243.309C191.384 243.05 191.851 243.14 192.17 243.374C192.29 243.462 192.45 243.579 192.515 243.753L193.982 246.527L196.426 246.617L195.395 249.2L196.5 252.087C196.619 252.363 196.603 252.667 196.548 252.942C196.494 253.028 196.468 253.071 196.414 253.158C196.4 253.273 196.239 253.345 196.051 253.459Z" stroke="#6027FF" stroke-width="1.72918" stroke-miterlimit="10" stroke-linejoin="round"/>
<path d="M191.531 243.095L192.508 234.595" stroke="#6027FF" stroke-width="1.72918" stroke-miterlimit="10" stroke-linejoin="round"/>
<path d="M209.622 194.988C211.488 196.885 212.348 198.07 212.511 201.085L210.061 238.087" stroke="#6027FF" stroke-width="1.72918" stroke-miterlimit="10" stroke-linejoin="round"/>
<path d="M207.219 237.517L209.367 237.893L210.301 238.074L220.51 239.693C221.044 239.769 221.496 240.163 221.666 240.728L221.679 240.801C221.77 241.12 221.808 241.525 221.686 241.814C221.645 241.973 221.537 242.146 221.456 242.275C219.759 244.623 217.099 249.539 218.439 255.496C218.491 255.786 218.489 256.162 218.434 256.437C218.299 256.653 218.164 256.869 218.056 257.042C218.029 257.085 217.909 257.186 217.882 257.229C217.546 257.487 217.158 257.644 216.758 257.54L196.346 253.172" stroke="#6027FF" stroke-width="1.72918" stroke-miterlimit="10" stroke-linejoin="round"/>
<path d="M188.985 171.049L173.989 166.605C171.091 165.845 168.324 167.24 167.123 169.929L167.008 170.58C169.288 171.158 170.365 171.391 170.664 171.311C171.066 171.095 171.257 170.863 171.994 170.585C172.415 170.426 173.146 170.504 174.083 170.757C174.79 170.938 175.258 170.92 175.774 171.333C176.77 172.14 177.583 172.281 179.121 172.755C180.695 173.248 182.944 174.094 186.254 175.402C187.153 173.976 188.069 172.513 188.985 171.049Z" fill="#F579A6"/>
<path d="M154.874 191.294L146.332 206.115C146.332 206.115 144.857 207.949 147.74 214.627L152.057 207.407L152.592 206.502C151.94 206.493 151.742 205.913 151.558 205.247C151.318 204.411 151.414 203.847 151.431 203.808C151.499 203.559 153.491 203.291 155.295 202.388C156.415 201.837 155.899 200.27 156.305 200.341C156.582 199.917 156.84 199.436 157.117 199.012L161.644 191.617L154.874 191.294Z" fill="#F579A6"/>
<path d="M176.258 172.108L182.747 173.943" stroke="#6027FF" stroke-width="1.72918" stroke-miterlimit="10" stroke-linejoin="round"/>
<path d="M133.789 177.354L138.917 174.494C139.302 174.316 139.724 174.253 140.096 174.4C140.468 174.548 140.771 174.849 140.952 175.228L141.042 175.418L141.368 176.157L141.442 176.385C141.768 177.125 141.497 178.026 140.868 178.455L139.433 179.316L138.778 181.959L136.857 180.479L135.438 181.11C134.859 181.328 134.294 181.222 133.866 180.808C133.723 180.638 133.615 180.487 133.49 180.279L133.454 180.26L133.145 179.482L133.055 179.292C132.799 178.59 133.106 177.707 133.789 177.354Z" fill="#21FDC8"/>
<path d="M133.789 177.354L138.917 174.494C139.302 174.316 139.724 174.253 140.096 174.4C140.468 174.548 140.771 174.849 140.952 175.228L141.042 175.418L141.368 176.157L141.442 176.385C141.768 177.125 141.497 178.026 140.868 178.455L139.433 179.316L138.778 181.959L136.857 180.479L135.438 181.11C134.859 181.328 134.294 181.222 133.866 180.808C133.723 180.638 133.615 180.487 133.49 180.279L133.454 180.26L133.145 179.482L133.055 179.292C132.799 178.59 133.106 177.707 133.789 177.354Z" stroke="#6027FF" stroke-width="1.72918" stroke-miterlimit="10" stroke-linejoin="round"/>
<path d="M179.995 216.094C176.475 212.545 176.312 206.535 179.631 202.669C182.951 198.802 188.496 198.545 192.017 202.093C195.537 205.641 195.701 211.652 192.381 215.518C189.061 219.384 183.516 219.642 179.995 216.094Z" stroke="#6027FF" stroke-width="1.72918" stroke-miterlimit="10" stroke-linejoin="round"/>
<path d="M175.263 196.004C175.263 196.004 175.281 195.965 175.351 196.003C175.774 195.939 176.144 195.991 176.465 196.254L177.976 197.378C178.598 197.846 178.716 198.856 178.355 199.568L178.027 200.107L177.595 200.781L175.243 204.48L174.811 205.154L174.223 206.079C173.981 206.426 173.702 206.659 173.315 206.741C172.893 206.804 172.522 206.752 172.202 206.489L170.655 205.347C170.601 205.272 170.53 205.234 170.512 205.177C170.209 204.876 170.062 204.42 170.075 204C170.107 203.732 170.173 203.388 170.329 203.137L174.479 196.683C174.615 196.28 174.912 196.104 175.263 196.004Z" stroke="#6027FF" stroke-width="1.72918" stroke-miterlimit="10" stroke-linejoin="round"/>
<path d="M173.069 193.668C173.121 193.648 173.209 193.647 173.262 193.627C173.455 193.586 173.633 193.679 173.776 193.849L174.737 194.637C174.969 194.9 175.062 195.281 175.014 195.682C174.946 195.932 174.862 196.219 174.706 196.47L170.431 202.811C170.206 203.12 169.91 203.391 169.577 203.549C169.56 203.587 169.524 203.569 169.472 203.588C169.173 203.669 168.943 203.596 168.695 203.466L167.734 202.678C167.698 202.659 167.698 202.659 167.68 202.602C167.323 202.226 167.348 201.385 167.78 200.711L167.849 200.557L172.074 194.426C172.35 194.002 172.7 193.807 173.069 193.668Z" stroke="#6027FF" stroke-width="1.72918" stroke-miterlimit="10" stroke-linejoin="round"/>
<path d="M180.324 202.021C180.199 201.908 180.093 201.852 179.968 201.739C179.256 201.177 178.597 200.595 177.886 200.032" stroke="#6027FF" stroke-width="1.72918" stroke-miterlimit="10" stroke-linejoin="round"/>
<path d="M203.438 214.748C202.324 214.497 199.159 213.549 194.727 211.322" stroke="#6027FF" stroke-width="1.72918" stroke-miterlimit="10" stroke-linejoin="round"/>
<path d="M174.759 205.174C175.774 206.038 176.29 206.45 177.268 207.2" stroke="#6027FF" stroke-width="1.72918" stroke-miterlimit="10" stroke-linejoin="round"/>
<path d="M191.635 216.482C197.326 219.321 200.47 219.925 200.576 219.981" stroke="#6027FF" stroke-width="1.72918" stroke-miterlimit="10" stroke-linejoin="round"/>
<path d="M155.592 219.975L159.504 222.878C160.073 223.27 160.415 223.876 160.512 224.639C160.644 225.324 160.494 226.051 160.096 226.649L159.491 227.612L159.059 228.286L155.636 233.699L155.204 234.374L154.927 234.798C154.166 236.011 152.603 236.377 151.5 235.515L147.534 232.536C147.445 232.442 147.303 232.368 147.214 232.274C146.34 231.389 146.128 229.903 146.872 228.823L147.287 228.187L147.72 227.513L151.143 222.1L151.575 221.426L152.059 220.636C152.926 219.478 154.455 219.189 155.592 219.975Z" stroke="#6027FF" stroke-width="1.72918" stroke-miterlimit="10" stroke-linejoin="round"/>
<path d="M179.703 235.073L180.948 236.01C181.268 236.273 181.431 236.595 181.541 236.937C181.598 237.299 181.533 237.739 181.36 238.028L180.324 239.761L179.892 240.435L176.523 245.924L176.09 246.598L174.984 248.389C174.812 248.678 174.445 248.912 174.093 249.013C173.707 249.094 173.353 249.004 173.068 248.76L171.824 247.823C171.788 247.805 171.699 247.711 171.68 247.654C171.199 247.164 171.083 246.345 171.481 245.747L172.172 244.592L172.604 243.918L175.957 238.563L176.389 237.889L177.945 235.385C178.273 234.846 179.099 234.662 179.703 235.073Z" stroke="#6027FF" stroke-width="1.72918" stroke-miterlimit="10" stroke-linejoin="round"/>
<path d="M184.112 241.081L179.476 248.134" stroke="#6027FF" stroke-width="1.72918" stroke-miterlimit="10" stroke-linejoin="round"/>
<path d="M168.593 242.906L172.865 236.374" stroke="#6027FF" stroke-width="1.72918" stroke-miterlimit="10" stroke-linejoin="round"/>
<path d="M167.275 233.113L163.003 239.645" stroke="#6027FF" stroke-width="1.72918" stroke-miterlimit="10" stroke-linejoin="round"/>
<path d="M156.822 235.553L161.13 229.039" stroke="#6027FF" stroke-width="1.72918" stroke-miterlimit="10" stroke-linejoin="round"/>
<path d="M144.489 225.535L148.729 219.175" stroke="#6027FF" stroke-width="1.72918" stroke-miterlimit="10" stroke-linejoin="round"/>
<path d="M207.213 199.231C207.708 200.771 209.545 202.634 202.332 216.539C200.008 221.058 195.167 227.198 195.152 227.427C195.059 228.421 196.307 229.644 196.997 229.863C198.147 230.229 199.687 227.954 201.71 224.795C208.42 214.371 209.753 210.992 210.35 209.361C211.92 205.158 212.022 203.458 211.991 202.351C211.964 198.686 210.467 195.863 209.532 194.33" fill="#F579A6"/>
<path d="M207.213 199.231C207.708 200.771 209.545 202.634 202.332 216.539C200.008 221.058 195.167 227.198 195.152 227.427C195.059 228.421 196.307 229.644 196.997 229.863C198.147 230.229 199.687 227.954 201.71 224.795C208.42 214.371 209.753 210.992 210.35 209.361C211.92 205.158 212.022 203.458 211.991 202.351C211.964 198.686 210.467 195.863 209.532 194.33" stroke="#6027FF" stroke-width="1.72918" stroke-miterlimit="10" stroke-linejoin="round"/>
<path d="M172.892 170.438L175.03 170.942C175.595 171.048 176.058 171.481 176.26 172.108C177.045 174.368 179.098 182.318 172.834 193.213C172.506 193.752 172.179 194.386 171.798 194.945C170.518 196.93 169.077 198.688 167.563 200.217C163.627 204.034 158.948 206.086 153.578 206.45C153.385 206.491 153.173 206.474 152.962 206.458C152.874 206.46 152.767 206.404 152.645 206.482C152.31 206.449 151.99 206.281 151.705 206.037C151.562 205.868 151.455 205.716 151.329 205.508C151.004 204.864 151.03 204.119 151.481 203.502L153.074 201.207C153.49 200.667 154.139 200.39 154.863 200.533C155.181 200.604 155.552 200.656 156.08 200.649C156.397 200.625 156.731 200.563 157.065 200.501C159.226 199.974 162.567 197.979 167.018 191.635C172.908 183.342 171.975 176.216 170.877 172.796C170.803 172.568 170.73 172.34 170.78 172.129C170.812 171.861 170.897 171.574 170.964 171.325C170.98 171.191 171.12 171.074 171.207 170.978C171.712 170.531 172.256 170.294 172.892 170.438Z" fill="#F579A6" stroke="#6027FF" stroke-width="1.72918" stroke-miterlimit="10" stroke-linejoin="round"/>
<path d="M156.132 200.629L161.556 191.713" stroke="#6027FF" stroke-width="1.72918" stroke-miterlimit="10" stroke-linejoin="round"/>
<path d="M152.644 206.483L148.257 213.761L147.773 214.551L146.219 217.15L146.15 217.304" stroke="#6027FF" stroke-width="1.72918" stroke-miterlimit="10" stroke-linejoin="round"/>
<path d="M171 171.439C163.338 170.174 157.373 170.889 157.373 170.889C151.481 171.737 145.967 173.304 140.972 175.476C140.972 175.476 140.936 175.457 140.884 175.477" stroke="#6027FF" stroke-width="1.72918" stroke-miterlimit="10" stroke-linejoin="round"/>
<path d="M133.182 179.692C121.064 187.233 116.935 196.875 116.919 197.009L116.85 197.163L116.976 197.371C117.066 197.561 117.138 197.693 117.264 197.901C117.426 198.128 117.551 198.336 117.696 198.602C118.451 199.851 119.363 200.945 120.308 201.867C123.572 205.142 127.31 206.768 129.469 207.52C129.734 207.612 130.017 207.665 130.246 207.738C130.901 207.939 131.254 208.029 131.254 208.029L131.449 208.083L132.179 207.233C133.359 205.765 135.547 203.119 139.043 199.404C144.61 193.502 150.33 191.568 154.907 191.217C155.224 191.193 155.524 191.208 155.841 191.184C156.686 191.153 158.871 191.16 161.539 191.752C161.539 191.752 161.821 191.805 163.836 192.292" stroke="#6027FF" stroke-width="1.72918" stroke-miterlimit="10" stroke-linejoin="round"/>
<path d="M117.3 197.825C116.151 198.929 115.176 199.936 114.36 200.883C114.169 201.115 113.995 201.308 113.838 201.463C111.65 204.11 110.441 206.131 109.822 207.324C109.322 208.247 109.283 209.412 109.683 210.38C110.718 212.961 112.064 214.947 113.545 216.433C116.345 219.276 119.549 220.433 121.65 220.823C123.276 221.2 124.901 220.108 125.355 218.307C125.557 217.56 125.743 216.851 125.98 216.122C126.048 215.873 126.133 215.585 126.271 215.373C127.157 212.898 128.171 210.822 129 209.455C129.156 209.204 129.276 208.936 129.433 208.781C129.865 208.106 130.142 207.682 130.281 207.566" stroke="#6027FF" stroke-width="1.72918" stroke-miterlimit="10" stroke-linejoin="round"/>
<path d="M125.945 216.294L127.81 217.508C128.308 217.864 128.943 217.912 129.469 217.713C129.995 217.515 130.536 217.087 130.705 216.512L130.928 216.013L131.236 215.226L131.99 213.44C132.367 212.594 132.125 211.567 131.483 210.946L129.379 208.895L129.236 208.726" stroke="#6027FF" stroke-width="1.72918" stroke-miterlimit="10" stroke-linejoin="round"/>
<path d="M154.874 191.293L146.795 204.982C146.207 205.906 145.938 206.998 145.846 208.088C145.814 208.355 145.817 208.642 145.838 208.89C145.867 209.805 146.107 210.737 146.47 211.591L147.792 214.512" stroke="#6027FF" stroke-width="1.72918" stroke-miterlimit="10" stroke-linejoin="round"/>
<path d="M186.716 242.304L196.55 229.393" stroke="#6027FF" stroke-width="1.72918" stroke-miterlimit="10" stroke-linejoin="round"/>
<path d="M151.647 221.559C150.063 220.302 148.479 218.951 146.876 217.542C146.84 217.523 146.84 217.523 146.786 217.448C146.643 217.278 146.431 217.166 146.236 217.112C146.042 217.057 145.866 217.06 145.672 217.101C145.232 217.107 144.865 217.341 144.605 217.727L142.116 221.733C141.701 222.369 141.8 223.227 142.335 223.792L142.425 223.886C142.568 224.056 142.728 224.187 142.96 224.451C143.922 225.334 145.419 226.687 147.306 228.245" stroke="#6027FF" stroke-width="1.72918" stroke-miterlimit="10" stroke-linejoin="round"/>
<path d="M176.285 237.929C170.985 235.389 165.767 232.276 159.473 227.651" stroke="#6027FF" stroke-width="1.72918" stroke-miterlimit="10" stroke-linejoin="round"/>
<path d="M176.021 246.657C177.882 247.489 179.812 248.263 181.635 248.982C181.671 249 181.759 248.999 181.759 248.999C181.989 249.072 182.183 249.126 182.394 249.047C182.816 248.984 183.13 248.769 183.373 248.422L186.579 243.986C186.855 243.562 186.989 242.968 186.789 242.437C186.788 242.341 186.752 242.323 186.663 242.228C186.536 241.925 186.376 241.793 186.145 241.625C186.003 241.551 185.825 241.458 185.649 241.46C184.536 241.209 182.733 240.738 180.237 239.762" stroke="#6027FF" stroke-width="1.72918" stroke-miterlimit="10" stroke-linejoin="round"/>
<path d="M155.222 234.431C161.143 238.813 166.218 241.757 172.103 244.651" stroke="#6027FF" stroke-width="1.72918" stroke-miterlimit="10" stroke-linejoin="round"/>
<path d="M188.602 208.569C188.85 209.151 188.88 209.813 188.764 210.397C188.648 210.981 188.332 211.562 187.932 211.95L188.51 212.695C189.066 212.126 189.493 211.396 189.65 210.603C189.815 209.768 189.749 208.88 189.389 208.054L188.93 208.34L188.602 208.569Z" fill="#26F2C1"/>
<path d="M188.981 213.372L187.05 210.915C187.254 210.701 187.419 210.477 187.485 210.144C187.543 209.851 187.524 209.541 187.458 209.264L188.79 208.439L190.177 207.539C190.271 207.473 190.296 207.348 190.235 207.247L190.114 207.044C189.487 205.938 188.469 205.177 187.33 204.825L187.462 204.158C187.471 204.116 187.479 204.074 187.487 204.032C187.495 203.991 187.465 203.94 187.435 203.889C187.405 203.839 187.366 203.83 187.336 203.779C187.297 203.77 187.267 203.719 187.229 203.71C187.19 203.701 187.152 203.692 187.105 203.725C187.058 203.758 187.02 203.749 186.973 203.782C186.926 203.815 186.918 203.856 186.871 203.889C186.863 203.931 186.816 203.964 186.846 204.014L186.706 204.724C186.428 204.703 186.15 204.682 185.864 204.703L186.037 203.826C186.045 203.784 186.054 203.743 186.062 203.701C186.07 203.659 186.04 203.609 186.01 203.558C185.98 203.507 185.941 203.498 185.911 203.448C185.872 203.439 185.842 203.388 185.803 203.379C185.765 203.37 185.726 203.361 185.68 203.394C185.641 203.385 185.594 203.418 185.548 203.45C185.501 203.483 185.492 203.525 185.446 203.558C185.437 203.599 185.391 203.632 185.421 203.683L185.198 204.81C184.144 205.045 183.216 205.659 182.556 206.553C181.895 207.447 181.509 208.579 181.487 209.709C181.456 210.881 181.797 212.008 182.466 212.905C183.134 213.803 184.053 214.453 185.085 214.736L188.427 215.557C188.543 215.584 188.637 215.519 188.661 215.394L189.025 213.557C189.042 213.474 189.011 213.423 188.981 213.372ZM185.297 213.869C184.488 213.681 183.745 213.159 183.198 212.464C182.65 211.769 182.345 210.869 182.326 209.948C182.307 209.027 182.528 208.118 183.04 207.364C183.513 206.601 184.223 206.067 185.046 205.778L184.781 207.114C184.773 207.156 184.765 207.197 184.757 207.239C184.748 207.281 184.779 207.331 184.809 207.382C184.839 207.433 184.878 207.442 184.908 207.492C184.946 207.501 184.977 207.552 185.015 207.561C185.054 207.57 185.092 207.579 185.139 207.546C185.178 207.555 185.224 207.522 185.271 207.49C185.318 207.457 185.326 207.415 185.373 207.382C185.381 207.341 185.428 207.308 185.398 207.257L185.72 205.63C186.177 205.561 186.617 205.576 187.079 205.684C187.888 205.872 188.639 206.352 189.148 207.038C189.178 207.089 189.162 207.172 189.115 207.205L186.996 208.545C186.859 208.426 186.674 208.34 186.52 208.304C186.328 208.259 186.127 208.256 185.918 208.295C185.708 208.333 185.53 208.423 185.381 208.563C185.232 208.703 185.084 208.843 185.004 209.043C184.924 209.242 184.844 209.442 184.841 209.66C184.838 209.877 184.836 210.095 184.918 210.289C185.001 210.482 185.083 210.676 185.212 210.837C185.342 210.998 185.518 211.127 185.71 211.171C185.895 211.258 186.095 211.261 186.296 211.264L188.158 213.661C188.197 213.67 188.189 213.712 188.18 213.754L188.048 214.421C188.04 214.463 187.993 214.496 187.955 214.487L185.297 213.869ZM186.685 209.914C186.66 210.039 186.605 210.113 186.542 210.23C186.448 210.295 186.354 210.361 186.269 210.385C186.145 210.399 186.068 210.381 185.953 210.355C185.845 210.286 185.777 210.226 185.716 210.125C185.656 210.024 185.634 209.931 185.62 209.797C185.645 209.672 185.67 209.547 185.725 209.472C185.788 209.356 185.881 209.29 185.967 209.267C186.052 209.243 186.176 209.228 186.291 209.255C186.446 209.291 186.545 209.401 186.644 209.511C186.666 209.604 186.718 209.747 186.685 209.914Z" fill="#0E0333"/>
<path d="M220.033 168.257L220.495 167.124L221.198 162.609L220.784 159.026L219.365 155.343L216.976 153.048C205.949 143.146 197.495 156.495 197.495 156.495L195.119 155.25L193.101 155.947L189.902 160.956L189.567 163.767L191.487 166.622L186.185 175.46L182.748 173.944L181.317 176.465C181.317 176.465 178.583 186.412 188.228 194.215C197.909 202.037 203.917 199.164 203.917 199.164L206.739 196.47L207.856 192.694L207.145 190.757L220.033 168.257Z" fill="white"/>
<path d="M208.532 188.828C208.532 188.828 210.303 192.41 209.182 195.901C209.132 196.111 209.011 196.285 208.96 196.496C208.687 197.206 208.29 197.899 207.753 198.613C207.579 198.806 207.405 198.999 207.197 199.27C206.954 199.617 206.641 199.927 206.275 200.256C205.299 201.168 204.161 201.757 202.913 202.003C202.684 202.026 202.438 202.087 202.21 202.109C197.917 202.609 192.878 199.78 189.805 197.743C188.153 196.64 187.103 195.758 187.032 195.721C180.853 190.445 178.148 183.86 179.116 176.592C179.129 176.172 179.247 175.712 179.366 175.347C179.433 175.098 179.553 174.829 179.603 174.619C180.065 173.486 180.76 172.617 181.598 172.013C181.773 171.915 181.895 171.837 182.035 171.72C182.332 171.544 182.56 171.427 182.84 171.289C184.996 170.38 187.414 170.651 188.667 170.881C188.826 170.917 188.81 171.051 188.742 171.205L187.809 172.707C187.685 172.69 185.087 172.039 183.044 173.577C181.979 174.394 181.324 175.568 181.115 177.212C180.358 183.026 182.22 188.364 186.643 192.768C187.25 193.37 187.873 193.934 188.567 194.439C188.993 194.757 189.67 195.301 190.611 195.937C194.253 198.367 201.116 202.01 205.21 198.134C208.433 195.129 207.902 192.101 207.536 190.961C207.409 190.657 207.475 190.313 207.648 190.024L208.532 188.828Z" fill="white" stroke="#6027FF" stroke-width="1.72918" stroke-miterlimit="10" stroke-linejoin="round"/>
<path d="M191.728 166.18L191.746 166.141L185.586 176.9L186.067 177.294C190.686 180.378 188.696 186.305 188.645 186.42L188.507 186.728L199.362 193.979C203.856 196.951 206.496 192.408 206.513 192.369L213.327 180.341" stroke="#6027FF" stroke-width="1.72918" stroke-miterlimit="10" stroke-linejoin="round"/>
<path d="M182.748 173.944L186.571 175.378" stroke="#6027FF" stroke-width="1.72918" stroke-miterlimit="10" stroke-linejoin="round"/>
<path d="M208.749 157.556L220.757 165.555C220.864 165.611 220.899 165.629 220.953 165.705C221.149 165.855 221.327 166.043 221.489 166.27L221.524 166.288L221.97 166.759C222.113 166.929 222.256 167.099 222.328 167.231C222.49 167.458 222.599 167.705 222.726 168.008C223.217 169.261 223.164 170.751 222.456 171.945L218.437 178.989C217.35 180.932 215.067 181.538 213.223 180.571C213.116 180.516 213.063 180.44 212.956 180.384L200.787 172.254C200.112 171.806 199.611 171.164 199.231 170.348L198.996 169.798C198.451 168.47 198.556 166.96 199.247 165.805L203.25 158.895C204.425 156.95 206.849 156.323 208.749 157.556Z" fill="#21FDC8"/>
<path d="M208.749 157.556L220.757 165.555C220.864 165.611 220.899 165.629 220.953 165.705C221.149 165.855 221.327 166.043 221.489 166.27L221.524 166.288L221.97 166.759C222.113 166.929 222.256 167.099 222.328 167.231C222.49 167.458 222.599 167.705 222.726 168.008C223.217 169.261 223.164 170.751 222.456 171.945L218.437 178.989C217.35 180.932 215.067 181.538 213.223 180.571C213.116 180.516 213.063 180.44 212.956 180.384L200.787 172.254C200.112 171.806 199.611 171.164 199.231 170.348L198.996 169.798C198.451 168.47 198.556 166.96 199.247 165.805L203.25 158.895C204.425 156.95 206.849 156.323 208.749 157.556Z" stroke="#6027FF" stroke-width="1.72918" stroke-miterlimit="10" stroke-linejoin="round"/>
<path d="M207.386 161.298C207.049 161.074 206.678 161.022 206.274 161.142C205.221 161.444 204.394 163.002 204.377 163.04L199.84 171.046" stroke="#6027FF" stroke-width="1.72918" stroke-miterlimit="10" stroke-linejoin="round"/>
<path d="M195.773 155.451C195.967 155.505 196.216 155.636 196.428 155.747C196.464 155.766 196.464 155.766 196.535 155.803L198.187 156.905C198.293 156.961 198.631 157.185 198.797 157.794C199.075 158.935 198.602 160.584 197.377 162.739C194.772 167.301 192.676 167.388 192.588 167.389L192.465 167.372L192.108 166.995L191.573 166.526L190.111 165.096C189.269 163.943 189.127 162.399 189.835 161.205L192.301 156.856C192.955 155.587 194.446 154.993 195.773 155.451Z" fill="#21FDC8"/>
<path d="M195.773 155.451C195.967 155.505 196.216 155.636 196.428 155.747C196.464 155.766 196.464 155.766 196.535 155.803L198.187 156.905C198.293 156.961 198.631 157.185 198.797 157.794C199.075 158.935 198.602 160.584 197.377 162.739C194.772 167.301 192.676 167.388 192.588 167.389L192.465 167.372L192.108 166.995L191.573 166.526L190.111 165.096C189.269 163.943 189.127 162.399 189.835 161.205L192.301 156.856C192.955 155.587 194.446 154.993 195.773 155.451Z" stroke="#6027FF" stroke-width="1.72918" stroke-miterlimit="10" stroke-linejoin="round"/>
<path d="M221.33 166.233C221.382 166.118 223.969 157.185 215.371 151.448C206.596 145.617 199.853 151.899 197.214 156.537" stroke="#6027FF" stroke-width="1.72918" stroke-miterlimit="10" stroke-linejoin="round"/>
<path d="M222.658 168.162L222.675 168.124C223.124 167.411 226.474 161.77 225.272 155.64C224.541 152.081 222.461 149.095 218.961 146.739C207.36 138.907 200.965 146.271 195.774 155.451L195.722 155.566" stroke="#6027FF" stroke-width="1.72918" stroke-miterlimit="10" stroke-linejoin="round"/>
<path d="M211.171 149.485L211.738 152.626C211.873 153.598 212.412 154.449 213.176 154.992L215.574 156.58C216.729 157.327 218.172 157.23 219.236 156.318L219.724 155.91" stroke="#6027FF" stroke-width="1.72918" stroke-miterlimit="10" stroke-linejoin="round"/>
<path d="M205.27 180.055C206.318 180.746 206.323 182.598 205.41 184.253C204.443 185.927 202.884 186.675 201.907 186.021C200.859 185.33 200.783 183.441 201.732 181.805C202.663 180.111 204.222 179.364 205.27 180.055Z" stroke="#6027FF" stroke-width="1.72918" stroke-miterlimit="10" stroke-linejoin="round"/>
<path d="M185.518 191.562C185.688 191.082 188.449 177.642 183.191 174.128" stroke="#6027FF" stroke-width="1.72918" stroke-miterlimit="10" stroke-linejoin="round"/>
<path d="M189.003 171.01L174.468 166.808C171.392 165.955 168.483 167.275 167.282 169.965L166.871 170.887" stroke="#6027FF" stroke-width="1.72918" stroke-miterlimit="10" stroke-linejoin="round"/>
<path d="M232.335 237.691C232.998 237.588 233.087 237.892 233.694 238.227C233.766 238.408 234.221 238.64 234.358 238.798C234.521 238.985 234.798 238.962 235.033 238.917C236.327 238.723 238.434 238.212 239.711 238.024C240.582 237.904 240.063 237.761 240.931 237.868C241.096 237.885 241.896 238.26 242.023 238.384C242.197 238.548 242.724 239.442 242.747 239.696C242.911 242.136 242.566 243.976 242.735 246.432C242.802 247.365 242.848 248.288 242.788 249.211C242.685 250.524 242.326 251.814 242.329 253.127C242.327 254.48 242.697 255.889 242.142 257.118C241.845 257.786 241.277 258.324 240.618 258.557C239.991 258.778 239.309 258.756 238.653 258.706C237.406 258.639 236.159 258.572 234.906 258.488C234.203 258.455 233.478 258.41 232.831 258.15C231.945 257.806 231.186 257.116 230.249 257.015C229.769 256.959 229.411 256.02 228.936 256.094C227.599 256.322 225.909 257.109 224.591 256.804C224.245 256.72 224.069 256.868 223.757 256.659C223.27 256.342 223.015 255.907 222.875 255.618C221.345 252.778 220.886 250.068 220.886 250.068C220.446 247.481 220.576 245.427 220.703 244.312C220.917 242.302 221.021 241.289 221.71 240.445C222.345 239.658 222.258 239.67 226.05 238.914C227.964 238.539 230.395 237.981 232.335 237.691Z" fill="white"/>
<path d="M230.515 256.483L223.629 256.849" stroke="#8C65F7" stroke-width="1.72918" stroke-miterlimit="10" stroke-linejoin="round"/>
<path d="M228.124 244.505L228.605 246.635C228.753 247.307 229.155 247.872 229.732 248.193C229.952 248.333 230.173 248.418 230.422 248.475C230.819 248.552 231.239 248.531 231.652 248.421L234.293 247.616C234.947 247.422 235.489 246.977 235.818 246.353C236.147 245.73 236.239 245.028 236.042 244.373L234.597 239.45C234.238 238.254 233.059 237.529 231.835 237.78L221.636 239.858L221.803 240.886" stroke="#8C65F7" stroke-width="1.72918" stroke-miterlimit="10" stroke-linejoin="round"/>
<path d="M230.655 249.177L230.069 256.062C229.98 257.307 230.768 258.387 231.968 258.651C232.027 258.667 232.085 258.683 232.138 258.682L239.463 259.067C240.173 259.179 240.891 258.962 241.456 258.473C242.021 257.984 242.362 257.284 242.391 256.549L242.841 240.344C242.86 239.577 242.574 238.863 242 238.377C241.443 237.885 240.692 237.698 239.955 237.849L234.467 238.996" stroke="#8C65F7" stroke-width="1.72918" stroke-miterlimit="10" stroke-linejoin="round"/>
<path d="M216.964 258.959C215.464 252.324 215.378 244.514 216.217 240.213C216.352 239.52 216.892 239.036 217.534 238.952L218.258 238.858C219.887 238.645 222.608 242.164 222.591 243.966C222.552 248.152 223.179 253.638 223.779 257.605C223.933 258.618 223.307 259.573 222.382 259.713L218.755 260.263C217.942 260.387 217.162 259.835 216.964 258.959Z" fill="white" stroke="#8C65F7" stroke-width="1.72918" stroke-linecap="round" stroke-linejoin="round"/>
<path d="M235.124 247.87C235.339 247.758 235.847 247.434 236.187 246.789C236.677 245.873 236.453 245.01 236.41 244.808L235.953 242.362L251.937 236.722L249.425 258.743L225.093 267.33L227.604 245.308L228.151 245.115C228.391 245.972 228.328 246.425 228.568 247.282C228.616 247.501 229.002 248.219 229.747 248.676C229.897 248.822 230.261 248.807 230.791 248.91C231.394 249.023 231.882 248.869 232.07 248.785C233.104 248.492 234.111 248.173 235.124 247.87Z" fill="white"/>
<path d="M235.605 242.374L251.906 236.621L249.395 258.643L225.062 267.229L227.573 245.208L228.138 245.009" stroke="#07E6B1" stroke-width="1.72918" stroke-miterlimit="10" stroke-linejoin="round"/>
<path d="M248.032 259.142L250.543 237.121L251.911 236.638L249.4 258.66L248.032 259.142Z" fill="white" stroke="#07E6B1" stroke-width="1.72918" stroke-miterlimit="10" stroke-linejoin="round"/>
<path d="M235.454 259.994L237.393 244.242L244.587 241.703L242.648 257.456L235.454 259.994Z" fill="white" stroke="#07E6B1" stroke-width="1.72918" stroke-miterlimit="10" stroke-linejoin="round"/>
<path d="M225.829 268.063L225.067 267.246L249.4 258.659L251.911 236.638L252.689 237.45L250.162 259.477L225.829 268.063Z" fill="white" stroke="#07E6B1" stroke-width="1.72918" stroke-miterlimit="10" stroke-linejoin="round"/>
<path d="M232.691 262.472L233.687 253.736L234.185 249.367" stroke="#07E6B1" stroke-width="1.72918" stroke-miterlimit="10" stroke-linejoin="round"/>
<path d="M231.074 263.551L232.078 254.811" stroke="#07E6B1" stroke-width="1.72918" stroke-miterlimit="10" stroke-linejoin="round"/>
<path d="M250.163 259.477L249.4 258.659" stroke="#07E6B1" stroke-width="1.72918" stroke-miterlimit="10" stroke-linejoin="round"/>
<path d="M190.954 262.836C187.339 267.509 172.264 260.268 157.284 246.664C142.304 233.06 133.092 218.243 136.707 213.57C140.323 208.897 148.777 230.48 160.005 234.41C190.314 245.019 194.57 258.163 190.954 262.836Z" fill="#5932C4"/>
<path d="M145.493 226.551C148.593 232.652 152.368 235.037 156.801 239.359" stroke="#DFF0EC" stroke-width="1.72918" stroke-linecap="round"/>
<path d="M178.561 247.094C179.975 248.301 181.923 248.844 183.574 249.583C186.608 250.939 188.144 254.963 188.841 258.169" stroke="#DFF0EC" stroke-width="1.72918" stroke-linecap="round"/>
<path d="M164.511 252.229C166.655 254.211 168.849 256.314 171.65 257.056" stroke="#DFF0EC" stroke-width="1.72918" stroke-linecap="round"/>
</svg>
