<svg width="200" height="325" viewBox="0 0 200 325" fill="none" xmlns="http://www.w3.org/2000/svg">
<path d="M42.0755 83.3425C45.209 81.2386 46.6935 80.2738 50.1025 81.615C54.4488 83.3251 59.6116 85.4066 64.5038 85.7893C64.6085 85.717 64.7231 85.6572 64.8465 85.6235C65.1369 85.0601 65.8811 84.7411 66.4071 85.3531C66.7324 85.7307 71.7081 83.7826 72.3999 83.5295C75.334 82.4564 77.6635 80.6091 80.3371 79.0611C80.8594 78.7582 81.383 78.9901 81.717 79.4226C83.6614 81.9404 87.2636 77.2774 88.9949 76.7763C89.3564 76.6716 89.7203 76.6567 90.083 76.6841C86.7276 73.952 80.8644 71.2833 80.6102 66.7551C80.3073 61.358 85.2045 58.6807 88.0862 55.0374C90.695 51.7406 92.268 51.6272 95.8004 54.469C97.67 55.9735 98.7793 58.1659 100.594 59.6617C101.899 60.7373 105.124 62.2131 106.778 61.3493C109.108 60.1341 108.089 57.5863 107.643 55.8064C107.469 55.1122 107.964 54.6048 108.616 54.5288C112.316 54.1 113.142 52.8137 116.003 50.8668C116.01 50.8618 116.016 50.8619 116.022 50.8581L118.581 48.2718L118.54 47.929C118.54 47.6872 116.502 23.4503 86.234 2.54273L82.3602 0L72.4722 6.67963L72.2092 8.73749C71.6844 7.97093 70.9179 7.42625 69.9906 7.24427C68.9411 7.0224 67.8517 7.28541 67.0041 7.97095L54.0487 18.6865C53.2012 19.3932 52.7375 20.4627 52.7574 21.5321L52.9793 28.2728H53.1612L42.2039 38.4437C37.1795 43.731 34.4349 50.6325 34.4349 57.9178C34.4349 61.4502 35.0806 64.8406 36.2908 67.9679L26.383 75.4153C20.4911 70.6925 14.2353 69.4611 10.2803 72.2668C10.0186 72.4488 9.77677 72.6507 9.55491 72.8726L9.43277 72.9735L3.41998 77.958C0.756359 79.875 -0.414048 83.4473 0.130642 88.0478C0.635446 92.5076 2.69332 97.4123 5.88169 101.892C9.09 106.372 13.086 109.904 17.122 111.821C19.2608 112.829 21.2988 113.354 23.1148 113.354C24.8698 113.354 26.464 112.87 27.7765 111.922L35.0407 105.948L35.0195 105.928C35.7661 105.325 36.3432 104.527 36.838 103.654C36.5937 103.495 36.408 103.242 36.3943 102.869C36.2759 99.7493 36.3881 96.4625 35.7611 93.4112C35.3934 91.6238 34.9683 90.8411 35.5591 89.1547C36.5924 86.2119 39.6637 84.9604 42.0755 83.3425Z" fill="#FECB2B"/>
<path d="M194.857 307.775C192.86 305.636 190.357 304.163 187.351 303.396V201.039C187.915 200.878 188.501 200.697 189.066 200.515L189.59 200.354L189.45 184.048L189.349 184.068C189.308 183.886 189.187 183.704 189.046 183.563C188.359 182.878 186.846 182.755 186.039 182.735V122.537H184.782C184.78 122.527 184.78 122.515 184.78 122.505C184.883 122.507 184.989 122.517 185.091 122.517H186.402L186.624 122.275C186.725 122.154 197.017 110.833 191.244 96.0799L191.165 95.8979L171.773 80.3188C172.579 79.1285 176.171 73.881 179.823 66.7975L182.972 68.3319C183.598 68.6348 184.243 68.7756 184.909 68.7756C185.414 68.7756 185.938 68.6946 186.422 68.4926C187.673 67.9891 188.662 66.9396 189.187 65.5261L192.395 57.0704C193.206 54.9315 192.827 52.3801 191.526 50.5541C189.483 49.3675 187.462 47.7433 187.013 45.7441C186.491 43.4145 187.742 40.4031 187.83 38.0561C187.96 34.6234 187.619 31.1546 186.235 27.9912C183.214 21.0822 176.023 16.5851 168.866 15.3573C160.713 13.9601 154.555 17.1896 147.784 21.1421C147.566 21.4437 147.206 21.6531 146.747 21.5758C144.715 21.2318 143.135 19.8208 141.595 18.4784C138.879 17.318 135.691 18.1743 133.957 20.6248L128.145 28.9185C126.39 31.4413 126.672 34.8515 128.852 37.0116L132.504 40.6848C132.1 41.5324 131.878 42.0571 131.818 42.178L120.336 65.1834L119.529 64.4169L119.267 64.4567L119.388 64.4169L115.647 54.0341C115.504 54.2273 115.364 54.4204 115.223 54.6099C115.039 54.2921 114.793 53.9992 114.462 53.7524C113.414 52.9684 111.62 52.8275 110.64 53.8695C109.383 53.9493 108.28 54.6673 107.879 55.9972C107.454 57.4107 108.009 58.611 108.985 59.3476C108.989 59.5221 108.991 59.6979 108.994 59.8736C108.612 60.1977 108.285 60.6152 108.084 61.1861C107.474 62.9099 103.493 61.5538 101.05 60.4632C99.4686 59.1744 97.943 57.8183 96.5382 56.335C94.7895 54.489 93.0993 52.3527 90.2587 52.6954C88.6969 52.8849 87.3894 53.8658 87.276 55.5099C86.7063 56.0571 86.1642 56.6728 85.6619 57.3346C83.5018 60.1777 78.7691 64.989 80.3047 68.9975C81.8029 72.9088 88.9998 75.6584 92.2929 77.7598C92.9186 78.1599 93.5343 78.2883 94.0989 78.2273C96.876 79.4488 99.8251 80.33 102.56 81.6001C105.024 82.7443 106.604 85.1499 109.135 86.1758C109.677 86.3951 110.159 87.0732 109.738 87.6578C107.507 90.7539 105.69 93.5097 104.014 96.9623C102.386 100.315 100.44 103.232 98.4016 106.339C96.5407 109.177 95.5872 112.429 93.6378 115.199C91.4777 118.269 87.3981 121.441 86.6291 125.182C86.4745 125.933 85.4487 126.144 84.9426 125.627C80.9428 121.539 77.1076 117.194 73.4119 112.827C71.7642 110.878 68.344 107.54 68.0872 104.856C67.9925 103.86 68.7827 103.148 68.8363 102.334C68.9622 100.39 67.469 98.7199 66.3945 97.2628C64.5212 94.7213 64.0014 93.0062 63.9304 90.8674C64.9798 89.1809 64.1647 86.2069 61.4949 85.9975C57.0426 85.6473 53.8617 83.9085 49.8245 82.3243C46.4192 80.9882 43.9663 82.9812 41.0945 84.786C37.3403 87.1442 35.2126 91.0954 37.6419 94.4172C37.8887 97.2042 38.3062 100.058 38.4122 102.869C38.4221 103.136 38.3312 103.333 38.2028 103.49C39.7895 105.33 41.2515 106.779 42.5865 107.785L42.1639 107.866L46.7234 115.433L47.2082 115.373C47.369 115.352 48.2777 115.231 49.7098 114.928C51.8487 120.075 61.6967 142.132 76.6489 152.243C76.427 152.706 76.3461 153.251 76.4071 153.797L76.629 155.774C76.811 157.267 78.0823 158.378 79.5755 158.378H79.7164L91.2583 157.873C92.086 157.833 92.8326 157.469 93.3573 156.865C93.902 156.239 94.1438 155.471 94.084 154.645L93.882 152.263C93.8621 152.122 93.8409 152.001 93.801 151.859L100.944 146.128V185.621C100.582 185.561 100.218 185.5 99.855 185.44L98.9675 185.278V201.524L99.572 201.665C99.6331 201.665 100.38 201.827 101.731 202.089L101.489 202.109L110.771 299.077C108.351 299.46 103.386 300.268 97.2511 301.176C92.7715 301.842 89.3413 303.779 87.0616 306.887C82.9247 312.577 84.135 320.166 84.1761 320.488L84.277 321.114H134.441V302.347L132.545 299.723L135.209 262.147L141.221 233.47L145.176 233.046C152.502 245.154 164.952 270.098 169.129 305.111C168.1 305.656 167.212 306.322 166.424 307.088C163.277 310.197 161.925 315.06 161.925 323.354V324.101H199.942L199.982 323.395C200.003 323.011 200.467 313.809 194.857 307.775Z" fill="#E2E0E7"/>
<path d="M178.691 42.8025C178.755 42.1294 178.534 41.4102 177.885 40.7683C172.414 35.3601 164.789 30.2945 157.427 27.8765C149.896 25.4011 146.354 29.5978 143.74 36.609C143.341 37.6797 143.803 38.4425 144.538 38.8401C144.467 40.797 146.701 42.3376 148.598 43.5441C155.009 47.6224 161.665 52.0585 168.722 54.9465C175.896 57.8818 181.087 48.8938 178.691 42.8025Z" fill="#20E18F"/>
<path d="M191.054 53.3049C191.38 52.6032 191.429 51.7967 190.99 51.0875C190.562 50.397 190.032 49.9147 189.418 49.3986C189.375 49.3625 189.329 49.3563 189.285 49.3239C189.113 48.9275 188.894 48.5373 188.675 48.1235C187.718 46.3125 184.545 47.5676 185.304 49.5457C185.467 49.9695 185.61 50.4095 185.792 50.8196C185.093 52.2841 184.393 53.7449 183.65 55.1908C182.797 56.8498 182.321 58.8528 181.288 60.3722C181.01 60.7811 180.88 61.1874 180.849 61.58C179.204 61.848 178.269 64.4356 179.677 65.5399C181.28 66.7963 183.3 68.57 185.466 68.1375C187.788 67.6738 189.105 65.242 189.924 63.2552C190.389 62.1284 190.498 61.0141 190.826 59.8537C191.143 58.7269 191.679 57.7672 191.83 56.5918C192 55.2818 191.563 54.2971 191.054 53.3049Z" fill="#20E18F"/>
<path d="M141.047 19.6675C140.927 19.5778 140.841 19.4744 140.773 19.3647C138.183 19.3323 135.946 20.1761 133.776 22.5405C131.024 25.5407 127.686 29.0532 127.852 33.4094C127.994 37.1064 131.904 40.701 135.214 37.5239C136.829 35.9721 137.915 33.4431 139.071 31.5386C140.468 29.2352 142.156 27.0065 143.116 24.4825C143.284 24.5187 143.451 24.5511 143.613 24.5747C145.265 24.8128 146.411 23.5926 146.577 22.33C144.679 21.5472 142.713 20.9015 141.047 19.6675Z" fill="#20E18F"/>
<path d="M145.941 109.316C145.585 109.316 145.276 109.387 145.005 109.505C144.8 109.318 144.602 109.098 144.432 108.734C144.127 108.077 144.21 107.182 144.184 106.485C144.064 103.297 140.124 104.708 140.245 106.637C140.182 106.598 140.128 106.565 140.108 106.551C139.623 106.207 139.197 105.785 138.695 105.463C137.719 104.839 136.533 104.557 135.382 104.588C133.775 104.632 132.621 106.107 132.878 107.591C132.641 108.108 132.605 108.701 132.95 109.211C132.979 109.253 133.007 109.296 133.036 109.339C133.103 109.438 133.188 109.489 133.262 109.569C133.254 109.575 133.247 109.581 133.239 109.586C133.334 109.683 133.439 109.754 133.535 109.847C133.563 109.869 133.588 109.902 133.618 109.921C135.364 111.574 137.41 112.57 139.46 113.835C141.246 114.936 143.558 116.622 145.798 115.937C147.162 115.519 148.084 114.193 147.768 112.853C148.574 111.511 147.989 109.316 145.941 109.316Z" fill="#20E18F"/>
<path d="M134.835 132.977C134.62 132.521 134.271 132.109 133.763 131.811C132.571 131.115 131.194 131.503 130.356 132.392C129.327 132.855 128.512 133.874 128.596 135.041L128.611 135.239C128.756 137.217 130.304 138.355 131.942 138.24C133.004 138.344 134.106 138.101 134.81 137.223C135.869 135.905 135.937 134.102 134.835 132.977Z" fill="#20E18F"/>
<path d="M93.5553 153.458C93.5279 153.269 93.4294 153.102 93.3571 152.927C93.3247 151.779 92.6342 150.684 91.5523 150.249C90.6636 149.891 89.7749 150.002 89.0145 150.416C88.8039 150.428 88.5995 150.468 88.395 150.533C87.9837 150.335 87.5251 150.232 87.0789 150.26C86.9492 149.767 86.6488 149.322 86.0966 149.047C86.0592 149.028 86.0206 149.01 85.9832 148.991C85.0895 148.543 83.9516 148.585 83.2261 149.346C82.8385 149.753 82.5941 150.179 82.4757 150.666C82.1093 150.711 81.7603 150.821 81.4561 151.021C81.415 150.994 81.3863 150.952 81.3427 150.927C80.0876 150.211 78.5146 150.64 77.6882 151.782C76.8107 152.997 77.0189 154.747 78.0397 155.829C78.0485 155.839 78.0609 155.844 78.0708 155.854C78.6093 156.867 79.7635 157.357 80.8354 156.827C80.8392 156.826 80.8417 156.825 80.8454 156.825C81.1421 156.973 81.4636 157.089 81.8388 157.126C82.1105 157.154 82.3773 157.135 82.6353 157.086C82.9282 157.172 83.2498 157.225 83.6112 157.224C84.2918 157.222 84.9 156.978 85.4098 156.589C85.8112 156.757 86.2487 156.835 86.69 156.827C87.1299 157.288 87.7245 157.61 88.3265 157.681C89.1791 157.783 89.8858 157.494 90.4355 156.988C90.7957 157.018 91.1746 157.004 91.5734 156.948C93.1801 156.723 93.8021 154.8 93.5553 153.458Z" fill="#20E18F"/>
<path d="M158.798 69.116C158.756 69.0374 158.714 68.9589 158.673 68.8804C158.359 68.2921 157.722 68.039 157.101 68.0739C152.155 65.4028 147.211 62.7318 142.265 60.0607C140.223 58.9576 138.43 61.9066 140.207 63.1431C138.929 67.1429 142.412 72.7306 145.578 74.6875C150.129 77.5007 155.917 76.0324 158.452 71.4007C158.471 71.3857 158.49 71.3708 158.508 71.3546C159.153 70.8273 159.156 69.789 158.798 69.116Z" fill="#C4C1CF"/>
<path d="M87.6246 320.491L134.277 320.425L134.54 302.921L132.961 300.552L111.51 299.697L94.0075 303.579L88.3487 309.106L86.5713 318.649L87.6246 320.491Z" fill="#C4C1CF"/>
<path d="M163.231 323.32L198.5 323.19L197.974 316.082L192.578 306.672L183.497 303.381L173.429 304.434L165.336 309.106L162.639 317.726L163.231 323.32Z" fill="#C4C1CF"/>
<path d="M147.537 109.379L144.773 107.603L143.885 103.567L143.683 102.659L143.481 102.779C143.422 102.821 143.4 102.841 143.4 102.841L139.728 105.141L136.883 103.829C135.41 103.143 133.655 103.789 132.948 105.242L132.666 105.827L132.1 107.039C132.06 107.118 132.04 107.179 132.02 107.26C131.496 108.613 132.06 110.166 133.332 110.893L143.38 116.604C143.824 116.845 144.329 116.988 144.834 116.988C145.116 116.988 145.398 116.946 145.701 116.867C146.266 116.685 146.771 116.362 147.133 115.918C147.276 115.736 147.377 115.554 147.477 115.372L147.88 114.566L148.567 113.233C149.272 111.861 148.829 110.207 147.537 109.379ZM145.258 115.413C144.874 115.514 144.47 115.473 144.127 115.272L134.058 109.581C133.413 109.197 133.15 108.37 133.473 107.684L134.32 105.888C134.562 105.383 135.087 105.06 135.631 105.06C135.833 105.06 136.055 105.1 136.237 105.201L139.849 106.857L142.675 105.08L143.422 108.552L146.71 110.651C147.355 111.074 147.578 111.881 147.234 112.548L146.125 114.687C145.943 115.029 145.64 115.292 145.258 115.413Z" fill="#24048F"/>
<path d="M93.8823 152.262C93.8624 152.121 93.8424 152 93.8013 151.859C93.7003 151.334 93.4585 150.869 93.0958 150.507C92.5711 149.921 91.8033 149.558 90.9557 149.558L87.6676 149.518L85.1449 146.954L84.1153 145.905L83.5307 147.136L82.0974 150.103L78.97 150.507C78.4652 150.566 78.0016 150.748 77.6177 151.051C77.1939 151.334 76.8511 151.758 76.6492 152.242C76.4273 152.707 76.3463 153.251 76.4074 153.796L76.6292 155.774C76.8112 157.267 78.0826 158.377 79.5758 158.377H79.7166L91.2586 157.873C92.0862 157.832 92.8329 157.469 93.3576 156.863C93.9023 156.238 94.1441 155.471 94.0843 154.644L93.8823 152.262ZM92.227 155.854C91.9653 156.157 91.6026 156.339 91.1988 156.359L79.6356 156.863C78.889 156.925 78.2234 156.339 78.1424 155.592L77.9006 153.614C77.8196 152.827 78.3643 152.121 79.152 152.02L83.107 151.495L84.5391 148.489L87.022 151.031L90.9358 151.071C91.6824 151.071 92.3081 151.637 92.3691 152.384L92.5711 154.784C92.6109 155.188 92.49 155.572 92.227 155.854Z" fill="#24048F"/>
<path d="M194.857 307.775C192.86 305.636 190.357 304.163 187.351 303.396C186.866 303.254 186.362 303.153 185.838 303.073C184.748 302.871 183.578 302.77 182.366 302.749C177.382 302.67 173.528 303.214 170.582 304.405H170.561C170.058 304.626 169.573 304.848 169.129 305.111C168.1 305.656 167.212 306.322 166.426 307.088C163.277 310.197 161.925 315.06 161.925 323.354V324.101H199.942L199.983 323.394C200.003 323.011 200.467 313.809 194.857 307.775ZM163.439 322.587C163.459 321.498 163.479 320.488 163.539 319.54C163.58 319.015 163.62 318.51 163.681 318.027C164.165 313.345 165.376 310.276 167.495 308.179C168.484 307.189 169.735 306.403 171.228 305.797C171.672 305.615 172.155 305.454 172.66 305.313C175.203 304.545 178.391 304.203 182.326 304.264C184.122 304.284 185.796 304.506 187.311 304.929C187.814 305.07 188.299 305.252 188.763 305.434C190.7 306.181 192.355 307.311 193.727 308.804C196.29 311.549 197.48 315.12 198.025 318.027C198.126 318.552 198.207 319.056 198.267 319.54C198.429 320.852 198.469 321.922 198.469 322.587H163.439Z" fill="#24048F"/>
<path d="M198.484 318.024H163.296V319.537H198.484V318.024Z" fill="#24048F"/>
<path d="M184.387 310.653H175.075C173.708 310.653 172.488 309.706 172.036 308.295L170.867 304.649L172.307 304.188L173.477 307.833C173.728 308.616 174.37 309.14 175.075 309.14H184.387C185.018 309.14 185.595 308.73 185.894 308.07L187.578 304.353L188.958 304.975L187.273 308.695C186.726 309.903 185.62 310.653 184.387 310.653Z" fill="#24048F"/>
<path d="M134.441 302.345V321.114H84.2759L84.1749 320.488C84.135 320.166 82.9247 312.577 87.0616 306.886C89.3413 303.779 92.7715 301.841 97.2512 301.175C103.386 300.268 108.349 299.46 110.771 299.076C111.498 298.955 112.003 298.854 112.245 298.834C112.365 298.794 112.427 298.794 112.427 298.794L112.466 298.975L112.688 300.288C112.688 300.288 112.326 300.347 111.659 300.468C109.52 300.812 104.214 301.68 97.4731 302.688C95.92 302.911 94.5278 303.314 93.2764 303.859C93.0545 303.94 92.8526 304.041 92.6506 304.142C90.8745 305.009 89.4224 306.221 88.2919 307.774C86.5967 310.094 85.8913 312.839 85.6283 315.16C85.5884 315.544 85.5472 315.928 85.5272 316.271C85.4462 317.723 85.5273 318.914 85.5883 319.6H132.928V302.83L131.939 301.458L131.294 300.569L132.524 299.682L132.544 299.722L134.441 302.345Z" fill="#24048F"/>
<path d="M146.408 232.924L145.178 233.045L141.221 233.469L135.209 262.147L132.545 299.723L132.424 301.478L131.939 301.458L116.059 300.671L115.655 300.65L111.66 300.47L110.893 300.428L110.832 299.763L110.772 299.077L101.49 202.109L101.732 202.089L102.983 201.968L103.023 202.311L108.693 261.682L108.834 263.195L112.244 298.834L112.266 298.976H112.468L131.012 299.884L133.715 261.945L139.971 232.077L144.289 231.633L145.984 231.451L146.246 231.431L146.307 232.017L146.408 232.924Z" fill="#24048F"/>
<path d="M170.763 305.918L169.25 306.1C169.209 305.777 169.169 305.434 169.129 305.111C164.951 270.098 152.502 245.154 145.176 233.045C144.874 232.562 144.591 232.077 144.289 231.633C141.524 227.193 139.667 224.832 139.607 224.751L140.798 223.803C140.858 223.904 142.937 226.508 145.983 231.451C146.084 231.633 146.185 231.815 146.306 232.017C153.672 244.125 166.284 269.189 170.561 304.405H170.581C170.642 304.909 170.702 305.413 170.763 305.918Z" fill="#24048F"/>
<path d="M187.35 200.596H185.836V303.84H187.35V200.596Z" fill="#24048F"/>
<path d="M189.45 184.048L189.349 184.068L188.481 184.33C188.461 184.33 188.26 184.391 187.917 184.492C187.513 184.593 186.867 184.773 186.04 184.975C185.596 185.076 185.091 185.197 184.526 185.319C174.175 187.619 144.109 192.665 102.459 185.884C101.954 185.803 101.449 185.702 100.946 185.621C100.582 185.561 100.219 185.5 99.8553 185.44L98.9678 185.278V201.524L99.5736 201.665C99.6334 201.665 100.38 201.827 101.732 202.089C102.116 202.15 102.54 202.23 103.024 202.311C106.838 202.998 113.577 204.067 122.012 204.915C122.517 204.974 123.001 205.016 123.526 205.075C130.347 205.721 138.195 206.206 146.449 206.206C149.86 206.206 153.33 206.125 156.821 205.944C157.326 205.903 157.829 205.883 158.334 205.843C167.616 205.277 177.04 203.966 185.838 201.483C186.343 201.342 186.847 201.201 187.351 201.039C187.917 200.879 188.501 200.697 189.067 200.515L189.592 200.354L189.45 184.048ZM100.481 200.293V187.074C148.749 195.247 181.964 187.599 187.957 186.045L188.058 199.243C153.169 210.202 106.313 201.463 100.481 200.293Z" fill="#24048F"/>
<path d="M186.039 122.537H184.525V185.318H186.039V122.537Z" fill="#24048F"/>
<path d="M110.872 87.7039C110.872 87.7039 110.872 87.7039 110.852 87.7239C110.61 87.846 108.733 88.9553 106.796 93.9598C106.776 94.0208 106.735 94.1019 106.715 94.1829C104.596 99.7719 102.457 110.065 102.457 128.852V186.649H100.944V128.852C100.944 115.008 102.095 105.645 103.588 99.3082C104.133 97.0272 104.719 95.1301 105.303 93.5771C106.675 90.0248 108.048 88.1888 109.016 87.2403C109.278 86.9773 109.521 86.7966 109.702 86.6545C110.045 86.4127 110.268 86.3117 110.327 86.2917L110.409 86.4937L110.59 87.0184L110.63 87.0994L110.872 87.7039Z" fill="#24048F"/>
<path d="M189.428 184.49H187.915C187.793 184.411 186.906 184.31 186.038 184.249C185.917 184.249 185.816 184.229 185.695 184.229V182.716C185.776 182.716 185.897 182.716 186.038 182.735C186.845 182.755 188.359 182.876 189.044 183.563C189.187 183.704 189.307 183.886 189.347 184.067C189.408 184.209 189.428 184.35 189.428 184.49Z" fill="#24048F"/>
<path d="M86.1048 128.032L85.4305 127.469C85.1314 127.218 77.9856 121.161 67.2588 105.199L68.514 104.355C77.2739 117.388 83.7341 123.84 85.7446 125.715L105.537 93.1956L106.829 93.9834L86.1048 128.032Z" fill="#24048F"/>
<path d="M78.3043 151.516L77.4766 152.788C77.1937 152.606 76.932 152.424 76.649 152.243C61.6968 142.132 51.8488 120.075 49.71 114.928C49.4681 114.364 49.3273 114 49.2861 113.879L50.6996 113.314C50.7196 113.354 50.8803 113.778 51.2032 114.545C53.4841 119.913 63.311 141.466 77.6175 151.051C77.8394 151.213 78.0812 151.374 78.3043 151.516Z" fill="#24048F"/>
<path d="M102.054 145.24L100.944 146.128L93.8009 151.859L93.3572 152.223L92.4087 151.052L93.0942 150.507L100.944 144.191L101.105 144.07L102.054 145.24Z" fill="#24048F"/>
<path d="M109.721 84.6102L108.695 85.722L132.778 107.966L133.805 106.854L109.721 84.6102Z" fill="#24048F"/>
<path d="M186.624 122.275L186.402 122.517H185.09C177.039 122.517 168.241 121.083 161.097 119.53C160.572 119.408 160.069 119.308 159.584 119.186C153.429 117.814 148.708 116.402 147.133 115.917C146.791 115.796 146.589 115.736 146.569 115.736L147.033 114.303C147.054 114.303 147.355 114.404 147.88 114.566C151.957 115.796 169.936 121.002 185.09 121.002H185.715C187.088 119.368 194.716 109.439 189.913 96.8264L189.852 96.7654L186.139 93.7989L178.895 87.9868L177.483 86.8376L170.36 81.1252C162.046 83.527 159.322 89.7031 158.756 91.3172C158.677 91.5391 158.636 91.66 158.636 91.6999L157.162 91.2774C157.162 91.2562 157.183 91.2163 157.203 91.1552C157.546 90.0857 160.311 82.2757 170.339 79.5721L170.44 79.5522L170.702 79.4712L171.772 80.3188L191.164 95.8978L191.245 96.0798C197.016 110.831 186.725 122.153 186.624 122.275Z" fill="#24048F"/>
<path d="M187.573 46.6975C187.452 47.2622 187.31 47.8081 187.169 48.3727C185.595 54.3868 183.073 60.3397 180.511 65.445C180.288 65.91 180.046 66.3537 179.824 66.7974C176.172 73.8809 172.58 79.1284 171.773 80.3187C171.692 80.4197 171.631 80.5007 171.611 80.5406L170.381 79.6532C170.381 79.6532 170.401 79.612 170.441 79.5522C171.732 77.715 191.104 49.4023 186.563 30.8766C185.212 25.3873 181.842 21.2504 176.576 18.5457C169.876 15.1354 163.317 14.5696 157.022 16.8705C141.949 22.3598 133.292 42.6217 133.191 42.8224L121.487 66.2927L121.245 66.7775L119.873 66.1119L120.337 65.1833L131.819 42.1767C131.879 42.0558 132.1 41.5311 132.504 40.6835C132.706 40.2797 132.928 39.7961 133.211 39.2514C135.229 35.2753 139.446 28.031 145.64 22.3398C146.024 21.9559 146.428 21.6131 146.832 21.2703C149.676 18.8286 152.906 16.7495 156.497 15.4383C163.196 12.9965 170.179 13.5811 177.261 17.2132C182.951 20.0999 186.563 24.5796 188.017 30.5126C189.248 35.4971 188.864 41.1073 187.573 46.6975Z" fill="#24048F"/>
<path d="M189.705 96.9711C184.587 93.3528 171.569 94.1405 171.437 94.1467L154.002 92.2534L122.879 72.1809L123.699 70.9083L154.67 90.8836L171.468 92.6398C171.897 92.5999 185.028 91.8072 190.58 95.7372L189.705 96.9711Z" fill="#24048F"/>
<path d="M121.487 66.2928L120.337 65.1834L119.529 64.4156L119.267 64.4567L119.166 64.4767C118.723 64.5378 118.299 64.6176 117.895 64.7185C106.857 67.1005 103.104 76.8874 102.135 80.1979C101.933 80.8834 101.852 81.2873 101.852 81.3072L101.812 81.5491L101.772 81.7709L109.017 87.2402L109.944 87.947L110.207 87.1193L110.267 86.8974C110.267 86.8775 110.308 86.7354 110.409 86.4936C110.469 86.2718 110.59 85.9489 110.752 85.565C112.003 82.3966 115.736 74.5466 122.899 72.2058C123.545 71.964 124.211 71.802 124.917 71.701C125.018 71.6811 125.139 71.6611 125.24 71.6411L126.773 71.4193L121.487 66.2928ZM109.298 85.0814C109.239 85.2023 109.197 85.3232 109.158 85.4442L109.037 85.3631L103.446 81.1465C104.032 78.8044 107.381 68.049 119.024 66.031L123.565 70.4097C114.909 72.4887 110.631 81.5702 109.298 85.0814Z" fill="#24048F"/>
<path d="M186.765 265.7L174.005 264.208L173.818 263.866C173.716 263.679 163.545 244.743 156.759 205.593L158.251 205.332C164.498 241.378 173.584 260.091 174.968 262.797L186.94 264.198L186.765 265.7Z" fill="#24048F"/>
<path d="M108.171 263.207L108.14 261.693L113.917 261.573C115.071 257.888 122.006 234.503 122.006 204.539H123.521C123.521 237.319 115.273 262.31 115.189 262.558L115.02 263.063L108.171 263.207Z" fill="#24048F"/>
<path d="M64.541 93.0724L63.9564 93.981C63.9365 94.001 63.7146 94.3437 63.2908 94.9096C61.3526 97.4922 55.098 104.758 44.6854 107.32C44.2217 107.461 43.7368 107.562 43.232 107.663L42.5863 107.784L42.1626 107.865L46.7233 115.433L47.2081 115.372C47.3689 115.352 48.2776 115.231 49.7097 114.929C50.1535 114.828 50.6583 114.707 51.2029 114.545C55.4209 113.435 62.1603 110.913 67.4477 105.463C67.7905 105.12 68.1133 104.778 68.4161 104.415C69.1416 103.607 69.8084 102.74 70.4541 101.811L70.7569 101.367L64.541 93.0724ZM47.5098 113.798L44.5645 108.914C56.0254 106.291 62.6439 98.3597 64.622 95.6762L68.8998 101.407C62.0992 110.933 50.0525 113.374 47.5098 113.798Z" fill="#24048F"/>
<path d="M45.0084 107.522L44.3228 108.874C43.7782 108.592 43.1923 108.229 42.5866 107.784C41.0335 106.613 39.3184 104.878 37.4214 102.578C37.1584 102.255 36.8767 101.912 36.5938 101.548L37.7841 100.621C37.8452 100.68 37.8851 100.762 37.9462 100.823C40.5088 104.051 42.8496 106.291 44.6856 107.32C44.8065 107.421 44.9074 107.461 45.0084 107.522Z" fill="#24048F"/>
<path d="M63.9694 85.6385L62.46 85.752L63.1505 94.9319L64.6599 94.8185L63.9694 85.6385Z" fill="#24048F"/>
<path d="M37.946 100.821C37.8251 101.447 37.6431 102.033 37.4212 102.577C36.8765 103.93 36.0689 105.08 35.0194 105.928C34.8985 106.049 34.7376 106.17 34.5955 106.271C33.4052 107.118 32.013 107.623 30.4587 107.744C30.1969 107.764 29.914 107.784 29.6323 107.784C27.795 107.784 25.7983 107.3 23.6993 106.352C19.5624 104.494 15.5264 101.003 12.3181 96.5235C9.1098 92.0438 7.11177 87.0793 6.68799 82.5785C6.48607 80.4196 6.64812 78.4814 7.15293 76.8274C7.6166 75.2731 8.38317 73.9818 9.43266 72.9722L9.55355 72.8712C9.77541 72.6494 10.0185 72.4475 10.2802 72.2667C14.2351 69.461 20.491 70.6925 26.3829 75.414C26.5848 75.576 26.7668 75.7368 26.9687 75.8988L26.0002 77.0493C25.7173 76.8074 25.4144 76.5644 25.1327 76.3625C19.8852 72.2667 14.477 71.1362 11.1677 73.497C10.9458 73.659 10.724 73.8397 10.522 74.0217L10.4622 74.0828C8.64615 75.8378 7.83844 78.7643 8.18121 82.4176C8.58505 86.6754 10.5021 91.357 13.5496 95.6348C16.5959 99.9138 20.4299 103.223 24.325 104.979C28.078 106.674 31.4072 106.694 33.728 105.039C37.1582 102.597 37.744 96.8065 35.3023 90.2478C35.2612 90.1667 35.2412 90.0658 35.2013 89.9848L36.11 89.642L36.6135 89.4401C38.2489 93.658 38.6727 97.654 37.946 100.821Z" fill="#24048F"/>
<path d="M35.0407 105.948L27.7765 111.921C26.464 112.869 24.8698 113.354 23.1148 113.354C21.2988 113.354 19.2608 112.83 17.122 111.82C13.086 109.903 9.09 106.372 5.88169 101.892C2.69332 97.4112 0.635446 92.5078 0.130642 88.048C-0.414048 83.4462 0.756359 79.8752 3.41998 77.9569L9.43276 72.9724L9.5549 72.8715L10.5234 74.022L10.4623 74.083L7.15303 76.8276L4.34856 79.1684C2.10873 80.7626 1.16019 83.85 1.62386 87.886C2.10872 92.084 4.06564 96.7456 7.1331 101.003C10.1794 105.282 13.9535 108.632 17.7676 110.449C21.4396 112.204 24.6679 112.305 26.8479 110.731L30.46 107.744L34.0722 104.778L35.0195 105.928L35.0407 105.948Z" fill="#24048F"/>
<path d="M47.4902 80.9033L46.9056 81.3483L36.1103 89.642L35.3026 90.2478L27.8365 95.9788C27.2918 96.4226 26.5851 96.6245 25.8185 96.6245C25.0719 96.6245 24.2442 96.4426 23.3767 96.0387C21.7227 95.2921 20.0675 93.9197 18.6952 92.1847C15.6888 88.3706 14.982 84.0717 17.1221 82.3977L25.133 76.3626L26.3831 75.4153L36.291 67.9679L36.5129 67.7859L37.4215 68.9974L36.8768 69.4012L18.0495 83.5881C16.8193 84.5566 17.263 87.9469 19.8656 91.2362C21.117 92.8104 22.5703 94.0207 24.0025 94.6664C25.2339 95.2323 26.3034 95.2722 26.9079 94.7886L45.6143 80.4197L46.5628 79.693L47.4902 80.9033Z" fill="#24048F"/>
<path d="M118.54 47.929C118.54 47.6872 116.502 23.4503 86.2342 2.54273L82.359 0L72.4723 6.67963L72.2093 8.73749L71.9277 10.8365L71.7046 11.0384L54.4515 27.0625L53.1602 28.2728L42.204 38.4437C37.1784 43.731 34.4351 50.6325 34.4351 57.9178C34.4351 61.4502 35.0807 64.8406 36.291 67.9679C36.473 68.4527 36.6749 68.9363 36.8768 69.4012C38.8337 73.7799 41.8401 77.5542 45.6143 80.4197C46.0381 80.7425 46.4606 81.0653 46.9056 81.3483C51.3653 84.3746 56.7324 86.1508 62.5034 86.1919H62.6854C63.1291 86.1919 63.5728 86.1707 64.0165 86.1507C69.7077 85.808 76.2054 83.3862 80.9468 79.774L80.806 79.5721C80.7649 79.5322 80.7051 79.4711 80.6851 79.4312L80.0395 78.6235C80.0183 78.6036 80.0182 78.6036 80.0182 78.5837C75.1559 82.2769 68.3554 84.6775 62.6854 84.6775C47.9339 84.6775 35.9482 72.6706 35.9482 57.9178C35.9482 51.0363 38.5507 44.4988 43.2523 39.5343L71.5027 13.2994C71.7856 17.2942 73.7836 27.6072 85.7493 40.9864C92.51 48.5547 98.16 52.2478 102.458 54.0228C102.862 54.1648 103.224 54.3057 103.588 54.4478L103.689 54.4877C104.678 54.8106 105.585 55.0524 106.413 55.2144C107.078 55.3353 107.704 55.4163 108.269 55.4562C109.036 55.4961 109.682 55.4761 110.207 55.4163H110.227C111.175 55.3154 111.74 55.1333 111.821 55.0934L114.908 51.9849L118.58 48.2718L118.54 47.929ZM114.342 50.4517L113.455 51.3592L111.155 53.7212C110.932 53.781 110.449 53.8819 109.702 53.9019C109.318 53.943 108.854 53.943 108.31 53.8819C104.436 53.5791 96.9684 51.2582 86.8798 39.978C75.7604 27.5661 73.5206 17.7791 73.0769 13.702L73.8846 7.54716L82.359 1.81605L85.3866 3.79414C113.092 22.9256 116.643 44.7805 117.006 47.7071L114.342 50.4517Z" fill="#24048F"/>
<path d="M101.731 23.4093C93.639 13.1574 83.6901 4.13694 80.3608 6.78062C77.0516 9.40436 83.5093 21.1495 91.6211 31.4013C98.7444 40.4417 107.32 48.4937 111.518 48.4937C112.102 48.4937 112.587 48.3528 112.97 48.03C116.3 45.4062 109.843 33.6611 101.731 23.4093ZM112.041 46.8396C110.427 48.111 102.315 42.5208 92.8114 30.4728C83.2875 18.4248 79.6952 9.24232 81.3094 7.95102C81.4502 7.83011 81.6721 7.79023 81.9151 7.79023C84.4367 7.79023 91.904 13.4204 100.541 24.3378C110.065 36.3858 113.657 45.5683 112.041 46.8396Z" fill="#24048F"/>
<path d="M119.388 64.417L119.267 64.4569L117.976 64.9205L117.895 64.7186L113.779 53.3374L112.023 55.4564L110.227 55.4152H110.207L108.229 55.3754C108.25 55.3953 108.25 55.4364 108.27 55.4564C108.573 56.0821 108.896 56.8686 109.098 57.6763C109.177 57.9991 109.238 58.3219 109.278 58.6248C109.359 59.4524 109.278 60.2588 108.854 60.8846C108.189 61.934 106.858 62.318 104.92 62.055C101.408 61.5913 96.0212 56.5059 93.9633 54.124C93.2965 53.3375 92.3081 52.9136 91.2785 52.9735C90.2091 53.0146 89.2207 53.5394 88.595 54.4069L81.1289 64.7597C80.0594 66.233 80.3225 68.251 81.7147 69.4414C89.0387 75.7383 100.925 79.7941 102.135 80.198C102.196 80.2179 102.236 80.2379 102.236 80.2379L101.812 81.5504L101.772 81.6713C101.429 81.5703 96.0412 79.7942 90.1293 76.7267C89.6644 76.4849 89.2008 76.2418 88.7159 75.9801C86.6381 74.8296 84.5192 73.5383 82.6021 72.085C82.1983 71.7821 81.7945 71.4793 81.4119 71.1365C81.1701 70.9757 80.9469 70.7937 80.725 70.5918C78.7283 68.8767 78.3643 65.9899 79.8986 63.871L87.3647 53.5182C88.2721 52.288 89.6644 51.5214 91.2187 51.4603C92.7319 51.3793 94.1241 52.005 95.1125 53.1355C95.8392 53.9631 96.9087 55.0725 98.1401 56.203C98.5228 56.5258 98.9267 56.8686 99.3305 57.2114C101.348 58.8866 103.548 60.3598 105.121 60.5618C105.323 60.5817 105.545 60.6016 105.767 60.6016C106.514 60.6627 107.281 60.5617 107.583 60.0569C107.785 59.7341 107.826 59.2704 107.745 58.7457C107.745 58.7257 107.765 58.7058 107.745 58.6847C107.725 58.5039 107.684 58.3219 107.644 58.14C107.644 58.12 107.644 58.12 107.644 58.12C107.442 57.3734 107.119 56.5657 106.797 55.9001C106.676 55.6583 106.535 55.4153 106.413 55.2146C106.373 55.1336 106.333 55.0525 106.292 54.9915L105.565 53.821L108.31 53.8821L109.702 53.9021L111.316 53.9432L113.455 51.3594L114.304 50.3298L114.344 50.4507L114.908 51.9851L119.388 64.417Z" fill="#24048F"/>
<path d="M160.877 68.5737C159.403 67.766 157.95 66.9596 156.477 66.1519C151.452 63.4072 146.267 60.5617 141.364 57.5354L140.717 57.1315L140.314 57.7771C139.103 59.6941 138.457 61.914 138.457 64.175C138.457 70.7936 143.845 76.1819 150.464 76.1819C155.025 76.1819 159.12 73.6592 161.178 69.5621L161.522 68.9165L160.877 68.5737ZM150.464 74.6688C144.673 74.6688 139.97 69.966 139.97 64.175C139.97 62.4388 140.394 60.7437 141.222 59.2305C145.964 62.1359 150.928 64.8407 155.751 67.4844C157.001 68.1699 158.233 68.8367 159.484 69.5223C157.587 72.7107 154.197 74.6688 150.464 74.6688Z" fill="#24048F"/>
<path d="M179.199 41.1074C175.284 36.9904 166.99 29.6053 155.508 26.134C153.027 25.3874 150.323 26.336 148.809 28.4948L144.37 34.8117C143.301 36.3249 142.978 38.222 143.481 39.9981C144.006 41.7743 145.278 43.2064 146.993 43.9331C152.401 46.1929 160.251 50.068 166.929 55.6383C168.02 56.5457 169.351 57.0306 170.743 57.0306C171.006 57.0306 171.268 57.0306 171.531 56.9907C173.205 56.7676 174.739 55.8602 175.728 54.4879L179.764 48.8776C181.459 46.4957 181.237 43.2263 179.199 41.1074ZM178.532 47.989L174.496 53.6203C173.75 54.6486 172.601 55.3354 171.349 55.4962C170.078 55.6582 168.867 55.2943 167.899 54.4879C161.079 48.7767 153.088 44.8417 147.578 42.5408C146.287 41.9961 145.339 40.9055 144.935 39.5743C144.552 38.2419 144.794 36.8297 145.6 35.6792L150.04 29.3623C151.191 27.7482 153.209 27.0215 155.085 27.5874C166.224 30.9565 174.296 38.1621 178.109 42.1569C179.623 43.7511 179.804 46.2141 178.532 47.989Z" fill="#24048F"/>
<path d="M147.174 21.4525L146.447 22.7836L145.641 22.34L141.443 20.039C139.284 18.8687 136.601 19.4944 135.188 21.5123L129.396 29.7861C128.045 31.7044 128.267 34.287 129.921 35.9422L133.21 39.2515L133.917 39.9582L132.848 41.0277L132.504 40.6837L128.852 37.0117C126.673 34.8516 126.39 31.4413 128.146 28.9186L133.957 20.6248C135.813 18.0011 139.345 17.1735 142.17 18.7278L142.231 18.7677L143.603 19.4943L146.831 21.2705L147.174 21.4525Z" fill="#24048F"/>
<path d="M192.397 57.0703L189.188 65.5261C188.663 66.9396 187.674 67.9891 186.424 68.4926C185.939 68.6946 185.414 68.7756 184.909 68.7756C184.244 68.7756 183.598 68.6348 182.972 68.3319L179.825 66.7975L178.815 66.3139L179.481 64.9615L180.511 65.4464L183.638 66.9595C184.384 67.3223 185.152 67.3634 185.878 67.0804C186.725 66.7576 187.392 66.011 187.775 64.9815L190.983 56.5456C191.73 54.5888 191.165 52.1058 189.712 50.7347L187.17 48.3728L186.141 47.4243L187.17 46.3149L187.573 46.6976L190.015 48.9586L190.741 49.6242C190.882 49.765 191.024 49.8872 191.145 50.048C192.759 51.884 193.284 54.7296 192.397 57.0703Z" fill="#24048F"/>
<path d="M191.144 50.0479C190.983 50.3708 190.902 50.5315 190.882 50.5527L189.569 49.8061C189.631 49.7051 189.791 49.4222 190.013 48.9573C192.274 44.4378 201.315 23.4092 182.043 11.0185C162.59 -1.49321 146.367 16.1849 143.602 19.4942C143.341 19.817 143.198 19.999 143.179 20.019L141.968 19.0903C141.988 19.0704 142.069 18.9694 142.23 18.7675C144.531 15.983 161.864 -3.75422 182.85 9.74711C203.594 23.0665 193.001 46.3548 191.144 50.0479Z" fill="#24048F"/>
<path d="M119.374 133.371H101.706V134.885H119.374V133.371Z" fill="#24048F"/>
<path d="M186.039 141.769H184.525C184.525 141.143 184.243 140.577 183.677 140.013C178.128 134.624 150.907 134.907 146.085 135.008H145.358L145.318 133.494C145.419 133.494 145.681 133.494 146.085 133.474C148.062 133.434 153.409 133.373 159.584 133.636C159.847 133.656 160.109 133.656 160.372 133.676C169.755 134.141 180.732 135.412 184.525 138.781C184.586 138.822 184.667 138.882 184.727 138.943C185.594 139.771 186.039 140.719 186.039 141.769Z" fill="#24048F"/>
<path d="M106.427 62.0137L105.474 60.8396L107.437 59.2467C107.678 59.0522 107.793 58.7618 107.756 58.4552C107.716 58.1461 107.53 57.8931 107.247 57.7634L102.414 55.566C102.129 55.4363 101.795 55.4675 101.54 55.647L98.3938 57.8818L97.5176 56.6479L100.664 54.413C101.36 53.9207 102.268 53.836 103.042 54.1887L107.874 56.3862C108.634 56.7339 109.151 57.4356 109.255 58.2633C109.361 59.0896 109.038 59.8973 108.39 60.4221L106.427 62.0137Z" fill="#24048F"/>
<path d="M83.1156 80.4084C83.0172 80.4084 82.92 80.4047 82.8227 80.3972C81.782 80.32 80.9319 79.8513 80.295 79C77.756 75.6147 80.3399 71.9676 82.0612 70.5143L83.0396 71.6685C82.8813 71.8031 79.1894 75.0052 81.5052 78.0938C81.8729 78.5837 82.3416 78.8442 82.9349 78.8878C85.0913 79.101 88.3918 76.3438 89.4637 75.2856L90.5257 76.3613C90.3549 76.5321 86.3875 80.4072 83.1156 80.4084Z" fill="#24048F"/>
<path d="M132.444 124.715C127.016 124.715 122.596 129.135 122.596 134.563C122.596 139.973 127.016 144.392 132.444 144.392C137.851 144.392 142.271 139.973 142.271 134.563C142.271 129.135 137.851 124.715 132.444 124.715ZM132.444 142.878C127.842 142.878 124.109 139.145 124.109 134.563C124.109 129.963 127.842 126.23 132.444 126.23C137.024 126.23 140.758 129.963 140.758 134.563C140.758 139.145 137.024 142.878 132.444 142.878Z" fill="#24048F"/>
<path d="M119.834 131.593H118.321V136.331H119.834V131.593Z" fill="#24048F"/>
<path d="M146.09 131.593H144.575V136.331H146.09V131.593Z" fill="#24048F"/>
<path d="M132.242 130.347C129.719 130.347 127.662 132.405 127.662 134.907C127.662 137.43 129.719 139.488 132.242 139.488C134.765 139.488 136.803 137.43 136.803 134.907C136.803 132.405 134.765 130.347 132.242 130.347ZM132.242 137.975C130.547 137.975 129.175 136.603 129.175 134.907C129.175 133.232 130.547 131.86 132.242 131.86C133.917 131.86 135.29 133.232 135.29 134.907C135.29 136.603 133.917 137.975 132.242 137.975Z" fill="#24048F"/>
<path d="M132.995 315.16H85.521V316.674H132.995V315.16Z" fill="#24048F"/>
<path d="M73.2998 10.8565L71.9475 11.5433L71.7056 11.0385L71.08 9.80698C70.7971 9.24235 70.2922 8.85846 69.6877 8.71761C69.082 8.59671 68.4562 8.75749 67.9726 9.14139L55.0172 19.857C54.5324 20.2608 54.2507 20.8665 54.2706 21.4922L54.4526 27.0613L54.4924 28.2118L53.1613 28.2728H52.9793L52.7575 21.5322C52.7375 20.4627 53.2012 19.3933 54.0488 18.6865L67.0041 7.971C67.8517 7.28546 68.9411 7.02246 69.9906 7.24432C70.9179 7.4263 71.6844 7.97099 72.2092 8.73754C72.2902 8.85845 72.3712 8.97937 72.4323 9.12146L73.2998 10.8565Z" fill="#24048F"/>
<path d="M98.8977 309.333C97.0492 309.333 95.2842 308.533 94.064 307.111L92.0049 304.714L93.1516 303.728L95.2119 306.125C96.2702 307.359 97.8644 307.979 99.4797 307.786L110.698 306.447C112.534 306.227 114.065 305.011 114.696 303.273L115.687 300.542L117.111 301.058L116.118 303.789C115.292 306.067 113.284 307.661 110.877 307.949L99.6592 309.288C99.4037 309.319 99.1495 309.333 98.8977 309.333Z" fill="#24048F"/>
<path d="M161.098 118.661H159.585V133.676H161.098V118.661Z" fill="#24048F"/>
<path d="M168.439 93.4686L167.368 92.3967C167.632 92.1324 173.891 85.9265 179.098 86.9236L178.817 88.4106C174.407 87.5904 168.497 93.41 168.439 93.4686Z" fill="#24048F"/>
<path d="M111.676 133.864H110.163V115.857C110.163 107.465 112.054 99.0165 115.63 91.4258L117 92.0714C113.516 99.4627 111.676 107.687 111.676 115.857V133.864Z" fill="#24048F"/>
<path d="M144.235 104.093L143.401 102.831C143.457 102.793 149.114 98.9954 153.763 91.2289L155.062 92.0054C150.224 100.087 144.477 103.934 144.235 104.093Z" fill="#24048F"/>
<path d="M84.9172 147.83L83.4551 147.437C86.8603 134.778 85.1951 127.132 85.1765 127.056L86.6522 126.717C86.727 127.041 88.4309 134.768 84.9172 147.83Z" fill="#24048F"/>
</svg>
