<svg width="847" height="757" viewBox="0 0 847 757" fill="none" xmlns="http://www.w3.org/2000/svg">
<path d="M300.843 272.705C341.549 293.744 388.947 327.638 434.323 369.753C530.498 459.015 581.967 552.224 549.497 577.89C517.027 603.556 412.677 552.146 316.503 462.884C220.328 373.622 168.859 280.413 201.329 254.747" stroke="#571AFF" stroke-width="3" stroke-miterlimit="10"/>
<path d="M653.045 579.663C655.563 599.007 651.589 613.919 640.302 622.841C594.998 658.651 450.05 587.098 316.49 463.138C182.931 339.178 111.272 209.693 156.576 173.883C201.88 138.073 346.828 209.626 480.388 333.586C519.485 369.873 553.207 406.486 580.318 441.214" stroke="#571AFF" stroke-width="3" stroke-miterlimit="10"/>
<path d="M391.656 180.814C437.212 212.732 484.563 250.834 530.652 293.611C705.45 455.845 799.068 625.109 739.848 671.919C680.628 718.729 491.003 625.108 316.348 463.006C141.693 300.904 48.0873 131.385 107.152 84.6977C129.572 66.976 170.851 69.4148 222.688 88.0304" stroke="#571AFF" stroke-width="3" stroke-miterlimit="10"/>
<path d="M283.845 136.554C282.394 135.738 285.511 129.596 290.744 122.762C295.978 115.928 301.414 111.141 302.864 111.956" stroke="#571AFF" stroke-miterlimit="10" stroke-linecap="round" stroke-linejoin="round"/>
<path d="M284.726 130.463C287.997 127.387 291.018 123.282 291.173 123.16C291.482 122.915 294.503 118.811 296.466 115.052L300.819 117.497C299.677 119.626 297.904 122.498 295.525 125.605C292.992 128.834 290.791 131.309 289.078 132.908L284.726 130.463Z" fill="#5BF1CD" stroke="#571AFF" stroke-miterlimit="10"/>
<path d="M378.975 159.768C381.305 164.097 381.382 170.951 381.128 173.837L374.137 176.289C371.84 176.722 366.293 177.642 362.479 177.861C357.711 178.134 343.712 175.492 340.394 174.698C337.739 174.063 327.496 169.805 322.706 167.755L311.808 160.669L299.714 151.765C294.902 147.392 285.04 138.283 284.083 136.828C283.126 135.374 283.954 133.144 284.488 132.211L284.691 129.902L296.166 114.969C296.856 114.82 298.393 114.3 299.013 113.411C299.633 112.523 302.068 112.06 303.208 111.94L312.49 114.279L328.931 119.98L342.003 125.465C346.309 127.871 355.691 133.195 358.763 135.25C361.836 137.305 369.184 145.208 372.474 148.902C373.669 150.72 376.644 155.439 378.975 159.768Z" fill="white"/>
<path d="M284.726 130.463C287.997 127.387 291.018 123.282 291.173 123.16C291.482 122.915 294.503 118.811 296.466 115.052L300.819 117.497C299.677 119.626 297.904 122.498 295.525 125.605C292.992 128.834 290.791 131.309 289.078 132.908L284.726 130.463Z" fill="#5BF1CD" stroke="#571AFF" stroke-miterlimit="10"/>
<path d="M283.832 136.808C294.641 147.637 307.364 158.915 320.861 166.393C355.822 186.087 381.405 173.957 381.405 173.957C381.405 173.957 384.215 148.93 349.254 129.236C335.912 121.636 318.906 115.95 303.018 111.834" stroke="#571AFF" stroke-miterlimit="10"/>
<path d="M345.003 175.512C358.038 170.604 368.66 156.813 368.78 144.701" stroke="#571AFF" stroke-miterlimit="10" stroke-linecap="round" stroke-linejoin="round"/>
<path d="M342.542 167.648C351.771 161.333 358.647 151.239 360.444 141.481" stroke="#571AFF" stroke-width="2" stroke-linecap="round" stroke-linejoin="round"/>
<path d="M325.25 168.074C340.402 162.473 352.772 146.319 352.846 132.038" stroke="#571AFF" stroke-miterlimit="10" stroke-linecap="round" stroke-linejoin="round"/>
<path d="M319.394 152.804C327.715 153.553 335.17 148.382 336.044 141.255C336.918 134.128 330.882 127.744 322.561 126.995C314.24 126.246 306.786 131.416 305.911 138.543C305.037 145.67 311.074 152.055 319.394 152.804Z" fill="#5BF1CD" stroke="#571AFF" stroke-miterlimit="10" stroke-linecap="round" stroke-linejoin="round"/>
<path d="M319.922 148.503C325.47 149.002 330.439 145.555 331.022 140.804C331.605 136.053 327.581 131.796 322.033 131.297C316.486 130.798 311.517 134.245 310.934 138.996C310.351 143.747 314.375 148.004 319.922 148.503Z" fill="#FFE48D" stroke="#571AFF" stroke-miterlimit="10" stroke-linecap="round" stroke-linejoin="round"/>
<path d="M302.864 111.956C304.315 112.771 301.198 118.913 295.965 125.747C290.731 132.581 285.295 137.368 283.845 136.553" stroke="#571AFF" stroke-miterlimit="10" stroke-linecap="round" stroke-linejoin="round"/>
<path d="M301.734 117.018L292.304 111.72" stroke="#571AFF" stroke-miterlimit="10" stroke-linecap="round" stroke-linejoin="round"/>
<path d="M298.415 121.113L289.127 115.947" stroke="#571AFF" stroke-miterlimit="10" stroke-linecap="round" stroke-linejoin="round"/>
<path d="M295.24 125.34L285.964 119.92" stroke="#571AFF" stroke-miterlimit="10" stroke-linecap="round" stroke-linejoin="round"/>
<path d="M292.218 129.445L282.788 124.147" stroke="#571AFF" stroke-miterlimit="10" stroke-linecap="round" stroke-linejoin="round"/>
<path d="M279.469 128.241L288.899 133.539" stroke="#571AFF" stroke-miterlimit="10" stroke-linecap="round" stroke-linejoin="round"/>
<path d="M286.12 103.857C289.618 99.1305 289.868 93.7827 286.396 91.6229L278.999 87.4152C282.483 89.3204 282.376 94.8006 278.724 99.6488" fill="#5BF1CD"/>
<path d="M286.12 103.857C289.618 99.1305 289.868 93.7827 286.396 91.6229L278.999 87.4152C282.483 89.3204 282.376 94.8006 278.724 99.6488" stroke="#571AFF" stroke-miterlimit="10" stroke-linecap="round" stroke-linejoin="round"/>
<path d="M268.683 126.468C265.186 131.194 259.275 133.414 255.791 131.508L248.394 127.301C251.879 129.206 257.635 127.108 261.287 122.26" fill="#5BF1CD"/>
<path d="M268.683 126.468C265.186 131.194 259.275 133.414 255.791 131.508L248.394 127.301C251.879 129.206 257.635 127.108 261.287 122.26" stroke="#571AFF" stroke-miterlimit="10" stroke-linecap="round" stroke-linejoin="round"/>
<path d="M291.199 106.709C294.696 101.983 294.947 96.635 291.474 94.4752L286.397 91.6225C289.881 93.5277 289.773 99.0079 286.121 103.856" fill="#5BF1CD"/>
<path d="M291.199 106.709C294.696 101.983 294.947 96.635 291.474 94.4752L286.397 91.6225C289.881 93.5277 289.773 99.0079 286.121 103.856" stroke="#571AFF" stroke-miterlimit="10" stroke-linecap="round" stroke-linejoin="round"/>
<path d="M273.761 129.32C270.264 134.046 264.353 136.266 260.869 134.361L255.791 131.508C259.275 133.414 265.032 131.316 268.683 126.467" fill="#5BF1CD"/>
<path d="M273.761 129.32C270.264 134.046 264.353 136.266 260.869 134.361L255.791 131.508C259.275 133.414 265.032 131.316 268.683 126.467" stroke="#571AFF" stroke-miterlimit="10" stroke-linecap="round" stroke-linejoin="round"/>
<path d="M249.609 117.268L278.185 133.426C279.635 134.241 285.071 129.454 290.305 122.62C295.538 115.785 298.655 109.643 297.204 108.828L268.486 92.5375" fill="white"/>
<path d="M249.609 117.268L278.185 133.426C279.635 134.241 285.071 129.454 290.305 122.62C295.538 115.785 298.655 109.643 297.204 108.828L268.486 92.5375" stroke="#571AFF" stroke-miterlimit="10" stroke-linecap="round" stroke-linejoin="round"/>
<path d="M249.609 117.268L278.185 133.426C279.635 134.241 285.071 129.454 290.305 122.62C295.538 115.785 298.655 109.643 297.204 108.828L268.486 92.5375" fill="white"/>
<path d="M249.609 117.268L278.185 133.426C279.635 134.241 285.071 129.454 290.305 122.62C295.538 115.785 298.655 109.643 297.204 108.828L268.486 92.5375" stroke="#571AFF" stroke-miterlimit="10" stroke-linecap="round" stroke-linejoin="round"/>
<path d="M268.035 95.7456C269.316 93.5063 268.322 92.475 267.665 92.2392L264.043 94.9082L257.558 91.5886L256.58 95.0082L253.631 97.7206L247.82 94.4444L246.842 97.864L243.894 100.576L249.082 103.232L246.757 106.565L244.482 109.321L250.967 112.64C250.518 112.611 249.569 113.131 249.366 115.439C249.164 117.748 250.562 117.257 251.286 116.724L254.184 114.588L257.908 110.765L262.458 105.254C263.783 103.017 266.755 97.9848 268.035 95.7456Z" fill="#F9F7F7"/>
<path d="M263.907 94.931C265.929 93.0875 267.761 92.1302 268.486 92.5377C269.937 93.3528 266.82 99.4948 261.587 106.329C256.353 113.164 250.917 117.951 249.467 117.136C248.741 116.728 249.122 114.956 250.276 112.572" stroke="#571AFF" stroke-miterlimit="10" stroke-linecap="round" stroke-linejoin="round"/>
<path d="M273.421 95.2576C274.872 96.0726 271.755 102.215 266.521 109.049C261.288 115.883 255.852 120.67 254.401 119.855" stroke="#571AFF" stroke-miterlimit="10" stroke-linecap="round" stroke-linejoin="round"/>
<path d="M268.485 92.5374C269.936 93.3524 266.819 99.4944 261.586 106.329C256.352 113.163 250.916 117.95 249.465 117.135" stroke="#571AFF" stroke-miterlimit="10" stroke-linecap="round" stroke-linejoin="round"/>
<path d="M259.219 109.181L243.403 100.348L259.219 109.181ZM247.852 94.3792L263.668 103.212L247.852 94.3792ZM252.787 97.0995L263.668 103.212L252.787 97.0995ZM257.378 91.2632L266.951 96.6935L257.378 91.2632ZM243.747 108.904L253.76 114.477L243.747 108.904ZM248.196 102.936L257.768 108.366Z" fill="white"/>
<path d="M248.196 102.936L257.768 108.366M259.219 109.181L243.403 100.348L259.219 109.181ZM247.852 94.3792L263.668 103.212L247.852 94.3792ZM252.787 97.0995L263.668 103.212L252.787 97.0995ZM257.378 91.2632L266.951 96.6935L257.378 91.2632ZM243.747 108.904L253.76 114.477L243.747 108.904Z" stroke="#571AFF" stroke-miterlimit="10" stroke-linecap="round" stroke-linejoin="round"/>
<path d="M381.132 173.438C381.18 172.42 381.228 168.213 379.552 162.671L378.78 160.094L378.208 162.753C377.078 167.815 372.962 173.03 368.062 175.922L365.457 177.491L368.454 177.084C375.198 176.168 379.443 174.528 380.657 174.06L381.109 173.948L381.132 173.438Z" fill="#FFE48D"/>
<path d="M252.787 97.0993C252.204 96.8242 252.728 95.1843 254.001 93.4426C255.119 91.8231 256.808 90.7333 257.236 91.1306" fill="white"/>
<path d="M252.787 97.0993C252.204 96.8242 252.728 95.1843 254.001 93.4426C255.119 91.8231 256.808 90.7333 257.236 91.1306" stroke="#571AFF" stroke-miterlimit="10" stroke-linecap="round" stroke-linejoin="round"/>
<path d="M243.747 108.904C243.164 108.629 243.688 106.989 244.96 105.248C246.079 103.628 247.767 102.538 248.196 102.936" fill="white"/>
<path d="M243.747 108.904C243.164 108.629 243.688 106.989 244.96 105.248C246.079 103.628 247.767 102.538 248.196 102.936" stroke="#571AFF" stroke-miterlimit="10" stroke-linecap="round" stroke-linejoin="round"/>
<path d="M243.261 100.215C242.678 99.9402 243.202 98.3003 244.474 96.5585C245.747 94.8168 247.281 93.8493 247.709 94.2466" fill="white"/>
<path d="M243.261 100.215C242.678 99.9402 243.202 98.3003 244.474 96.5585C245.747 94.8168 247.281 93.8493 247.709 94.2466" stroke="#571AFF" stroke-miterlimit="10" stroke-linecap="round" stroke-linejoin="round"/>
<path d="M247.66 104.83C247.529 104.443 247.255 103.923 246.673 103.648C246.09 103.373 245.65 103.231 245.055 103.21C244.913 103.078 244.77 102.945 244.627 102.813C244.045 102.538 243.45 102.517 242.998 102.629L242.855 102.497C242.13 102.089 241.226 102.313 240.75 102.935C240.274 103.556 240.536 104.33 241.261 104.738L241.404 104.87C241.535 105.257 241.808 105.777 242.391 106.052C242.534 106.184 242.831 106.195 242.974 106.327C243.104 106.714 243.533 107.111 243.961 107.509C244.543 107.784 244.983 107.926 245.733 107.825" fill="#FFE48D"/>
<path d="M247.66 104.83C247.529 104.443 247.255 103.923 246.673 103.648C246.09 103.373 245.65 103.231 245.055 103.21C244.913 103.078 244.77 102.945 244.627 102.813C244.045 102.538 243.45 102.517 242.998 102.629L242.855 102.497C242.13 102.089 241.226 102.313 240.75 102.935C240.274 103.556 240.536 104.33 241.261 104.738L241.404 104.87C241.535 105.257 241.808 105.777 242.391 106.052C242.534 106.184 242.831 106.195 242.974 106.327C243.104 106.714 243.533 107.111 243.961 107.509C244.543 107.784 244.983 107.926 245.733 107.825" stroke="#571AFF" stroke-miterlimit="10" stroke-linecap="round"/>
<path d="M256.7 93.0254C256.569 92.6383 256.296 92.1188 255.713 91.8437C255.13 91.5686 254.69 91.4259 254.096 91.4055C253.953 91.2731 253.81 91.1406 253.667 91.0082C253.085 90.7331 252.49 90.7127 252.038 90.8247L251.896 90.6922C251.17 90.2847 250.266 90.5087 249.79 91.13C249.315 91.7513 249.576 92.5255 250.302 92.933L250.444 93.0655C250.575 93.4526 250.849 93.9721 251.431 94.2472C251.574 94.3796 251.871 94.3898 252.014 94.5223C252.145 94.9094 252.573 95.3067 253.001 95.704C253.584 95.9791 254.024 96.1217 254.773 96.0199" fill="#FFE48D"/>
<path d="M256.7 93.0254C256.569 92.6383 256.296 92.1188 255.713 91.8437C255.13 91.5686 254.69 91.4259 254.096 91.4055C253.953 91.2731 253.81 91.1406 253.667 91.0082C253.085 90.7331 252.49 90.7127 252.038 90.8247L251.896 90.6922C251.17 90.2847 250.266 90.5087 249.79 91.13C249.315 91.7513 249.576 92.5255 250.302 92.933L250.444 93.0655C250.575 93.4526 250.849 93.9721 251.431 94.2472C251.574 94.3796 251.871 94.3898 252.014 94.5223C252.145 94.9094 252.573 95.3067 253.001 95.704C253.584 95.9791 254.024 96.1217 254.773 96.0199" stroke="#571AFF" stroke-miterlimit="10" stroke-linecap="round"/>
<path d="M247.637 95.7744C247.519 95.1327 246.948 94.603 246.222 94.1954C245.497 93.7879 244.76 93.635 244.01 93.7368C243.725 93.4719 243.582 93.3395 243.297 93.0746C242.572 92.6671 241.834 92.5142 241.073 92.8707L240.93 92.7383C240.062 92.1983 238.861 92.4121 238.231 93.1556C237.6 93.8991 237.85 94.928 238.718 95.4679L238.861 95.6004C238.98 96.2421 239.396 96.8941 240.121 97.3016C240.406 97.5665 240.704 97.5767 241.001 97.5869C241.275 98.1064 241.691 98.7584 242.416 99.1659C243.141 99.5735 243.879 99.7263 244.628 99.6245" fill="#FFE48D"/>
<path d="M247.637 95.7744C247.519 95.1327 246.948 94.603 246.222 94.1954C245.497 93.7879 244.76 93.635 244.01 93.7368C243.725 93.4719 243.582 93.3395 243.297 93.0746C242.572 92.6671 241.834 92.5142 241.073 92.8707L240.93 92.7383C240.062 92.1983 238.861 92.4121 238.231 93.1556C237.6 93.8991 237.85 94.928 238.718 95.4679L238.861 95.6004C238.98 96.2421 239.396 96.8941 240.121 97.3016C240.406 97.5665 240.704 97.5767 241.001 97.5869C241.275 98.1064 241.691 98.7584 242.416 99.1659C243.141 99.5735 243.879 99.7263 244.628 99.6245" stroke="#571AFF" stroke-miterlimit="10" stroke-linecap="round"/>
<path d="M247.852 94.379C248.435 94.6541 247.912 96.294 246.639 98.0357C245.366 99.7774 243.832 100.745 243.404 100.348" stroke="#571AFF" stroke-miterlimit="10" stroke-linecap="round" stroke-linejoin="round"/>
<path d="M248.196 102.935C248.778 103.21 248.255 104.85 246.982 106.592C245.709 108.334 244.175 109.301 243.747 108.904" stroke="#571AFF" stroke-miterlimit="10" stroke-linecap="round" stroke-linejoin="round"/>
<path d="M257.378 91.2632C257.96 91.5383 257.437 93.1783 256.164 94.92C254.891 96.6617 253.357 97.6292 252.929 97.2319" stroke="#571AFF" stroke-miterlimit="10" stroke-linecap="round" stroke-linejoin="round"/>
<path d="M283.832 136.808C294.641 147.637 307.364 158.915 320.861 166.393C355.822 186.087 381.405 173.957 381.405 173.957C381.405 173.957 384.215 148.93 349.254 129.236C335.912 121.636 318.906 115.95 303.018 111.834" stroke="#571AFF" stroke-miterlimit="10"/>
<path d="M365.017 177.348C372.593 174.548 378.624 166.593 378.649 159.707" stroke="#571AFF" stroke-miterlimit="10" stroke-linecap="round" stroke-linejoin="round"/>
<path d="M247.434 272.576L251.308 271.728L248.182 261.252L244.308 262.1L247.434 272.576Z" fill="white" stroke="#571AFF" stroke-miterlimit="10"/>
<path d="M250.934 277.558L249.485 272.922C248.919 271.034 250.22 268.942 252.623 268.517L258.035 267.276C260.239 266.792 262.682 267.906 263.178 269.964L264.627 274.599C265.193 276.488 263.892 278.58 261.489 279.005L256.077 280.246C253.942 280.56 251.5 279.446 250.934 277.558ZM259.67 291.634L265.081 290.393C267.286 289.908 268.785 287.876 268.22 285.988L266.771 281.352C266.205 279.464 263.832 278.18 261.628 278.664L256.216 279.905C254.012 280.39 252.512 282.423 253.078 284.311L254.527 288.946C255.023 291.004 257.396 292.289 259.67 291.634ZM242.652 283.093L248.064 281.852C250.268 281.368 251.768 279.335 251.202 277.447L249.753 272.812C249.187 270.924 246.814 269.639 244.61 270.124L239.198 271.365C236.994 271.849 235.494 273.882 236.06 275.77L237.509 280.405C238.005 282.463 240.249 283.518 242.652 283.093ZM246.175 294.652L251.587 293.411C253.791 292.926 255.291 290.894 254.725 289.005L253.276 284.37C252.711 282.482 250.338 281.198 248.133 281.682L242.721 282.923C240.517 283.408 239.017 285.44 239.583 287.328L241.032 291.964C241.528 294.022 243.772 295.077 246.175 294.652Z" fill="#FFE48D" stroke="#571AFF" stroke-miterlimit="10"/>
<path d="M255.111 249.594L256.101 252.912L264.663 251.038L263.673 247.72L255.111 249.594Z" fill="white" stroke="#571AFF" stroke-miterlimit="10"/>
<path d="M226.008 255.965L227.05 259.458L235.612 257.583L234.57 254.091L226.008 255.965Z" fill="white" stroke="#571AFF" stroke-miterlimit="10"/>
<path d="M239.809 246.533L243.682 245.685L240.556 235.209L236.683 236.057L239.809 246.533Z" fill="white" stroke="#571AFF" stroke-miterlimit="10"/>
<path d="M280.34 243.796L281.601 247.802L296.386 243.262L295.751 241.544L280.34 243.796Z" stroke="#571AFF" stroke-miterlimit="10"/>
<path d="M282.105 264.565C272.801 263.876 264.65 258.185 262.198 250.003C259.747 241.821 263.819 233.495 271.486 228.921L282.105 264.565Z" fill="#5BF1CD" stroke="#571AFF" stroke-miterlimit="10"/>
<path d="M269.897 228.445L281.022 265.578C281.399 266.836 283.047 267.713 284.517 267.39C285.986 267.067 287.009 265.655 286.632 264.396L275.507 227.263C275.13 226.004 273.482 225.128 272.012 225.451C270.344 225.715 269.52 227.186 269.897 228.445Z" fill="white" stroke="#571AFF" stroke-miterlimit="10"/>
<path d="M219.968 252.422L223.739 265.01C224.057 265.869 224.98 266.337 225.784 266.005L227.055 265.623C228.058 265.351 228.604 264.56 228.217 263.871L224.446 251.283C224.128 250.424 223.205 249.956 222.401 250.288L221.13 250.671C220.395 250.832 219.849 251.623 219.968 252.422Z" fill="white" stroke="#571AFF" stroke-miterlimit="10"/>
<path d="M215.727 255.16L218.427 264.371C218.744 265.23 219.668 265.698 220.472 265.367L221.743 264.984C222.746 264.712 223.292 263.921 222.905 263.232L220.206 254.021C219.888 253.162 218.965 252.694 218.16 253.026L216.889 253.408C216.155 253.57 215.608 254.361 215.727 255.16Z" fill="white" stroke="#571AFF" stroke-miterlimit="10"/>
<path d="M293.641 240.696C292.5 241.825 292.643 243.532 293.961 244.509C295.279 245.486 297.272 245.363 298.413 244.234C299.554 243.106 299.41 241.399 298.093 240.421C296.775 239.444 294.782 239.567 293.641 240.696Z" fill="white" stroke="#571AFF" stroke-miterlimit="10"/>
<path d="M229.212 252.712L231.792 261.124C232.606 264.041 236.101 265.853 239.576 264.986L254.471 261.815C257.877 261.118 259.992 258.125 258.98 255.148L256.4 246.736C255.586 243.819 252.091 242.007 248.615 242.874L233.721 246.045C230.315 246.742 228.398 249.795 229.212 252.712Z" fill="white" stroke="#571AFF" stroke-miterlimit="10"/>
<path d="M250.484 227.396L251.933 232.031C252.499 233.919 251.198 236.011 248.795 236.436L243.383 237.677C241.179 238.162 238.736 237.047 238.24 234.989L236.791 230.354C236.225 228.466 237.527 226.374 239.93 225.949L245.341 224.708C247.546 224.223 249.988 225.338 250.484 227.396ZM239.93 225.949L245.341 224.708C247.546 224.223 249.045 222.191 248.48 220.303L247.031 215.667C246.465 213.779 244.092 212.495 241.888 212.979L236.476 214.22C234.271 214.705 232.772 216.737 233.338 218.625L234.787 223.261C235.352 225.149 237.725 226.433 239.93 225.949ZM229.958 240.525L235.37 239.284C237.574 238.799 239.074 236.767 238.508 234.879L237.059 230.243C236.494 228.355 234.121 227.071 231.916 227.555L226.505 228.796C224.3 229.281 222.8 231.313 223.366 233.202L224.815 237.837C225.381 239.725 227.555 240.95 229.958 240.525ZM226.505 228.796L231.916 227.555C234.121 227.071 235.62 225.038 235.055 223.15L233.606 218.515C233.04 216.627 230.667 215.342 228.463 215.827L223.051 217.068C220.846 217.552 219.347 219.585 219.913 221.473L221.361 226.108C221.858 228.167 224.231 229.451 226.505 228.796Z" fill="#FFE48D" stroke="#571AFF" stroke-miterlimit="10"/>
<path d="M594.122 467.578C591.042 463.391 582.991 463.624 581.148 458.46C580.292 457.665 579.305 453.295 579.853 451.146C580.031 450.514 580.935 450.29 581.363 450.688C581.922 451.472 582.635 452.134 583.658 452.552C588.748 455.15 589.081 451.208 584.361 447.092C582.934 445.768 590.355 446.278 591.663 446.961C593.256 447.908 594.314 450.75 593.755 453.154C593.541 454.55 594.67 455.864 596.609 455.803C597.203 455.823 597.953 455.721 598.571 455.233C600.677 451.606 599.535 447.359 596.063 445.199C595.778 444.934 595.944 444.557 596.539 444.578C604.209 446.116 607.847 454.276 602.995 459.338C602.198 460.458 601.246 461.701 602.173 464.156" fill="#FFE48D"/>
<path d="M594.122 467.578C591.042 463.391 582.991 463.624 581.148 458.46C580.292 457.665 579.305 453.295 579.853 451.146C580.031 450.514 580.935 450.29 581.363 450.688C581.922 451.472 582.635 452.134 583.658 452.552C588.748 455.15 589.081 451.208 584.361 447.092C582.934 445.768 590.355 446.278 591.663 446.961C593.256 447.908 594.314 450.75 593.755 453.154C593.541 454.55 594.67 455.864 596.609 455.803C597.203 455.823 597.953 455.721 598.571 455.233C600.677 451.606 599.535 447.359 596.063 445.199C595.778 444.934 595.944 444.557 596.539 444.578C604.209 446.116 607.847 454.276 602.995 459.338C602.198 460.458 601.246 461.701 602.173 464.156" stroke="#571AFF" stroke-miterlimit="10" stroke-linecap="round" stroke-linejoin="round"/>
<path d="M594.02 475.407L609.03 469.723L605.797 463.46L590.787 469.144L594.02 475.407Z" fill="white" stroke="#571AFF" stroke-miterlimit="10"/>
<path d="M593.523 480.311L613.729 472.658L610.496 466.395L590.29 474.047L593.523 480.311Z" fill="white" stroke="#571AFF" stroke-miterlimit="10"/>
<path d="M590.885 479.454L614.838 470.33L647.058 532.653C649.245 536.809 650.672 541.322 651.646 545.946L653.867 571.657C653.974 572.553 652.606 573.144 652.047 572.359L631.333 553.665C627.932 549.978 625.138 546.056 622.95 541.899L590.885 479.454Z" fill="white" stroke="#571AFF" stroke-miterlimit="10"/>
<path d="M605.588 508.539L629.642 499.429L625.813 492.012L601.759 501.122L605.588 508.539Z" fill="#5BF1CD" stroke="#571AFF" stroke-miterlimit="10"/>
<path d="M579.063 483.895L590.885 479.455L616.946 530.215L579.063 483.895Z" stroke="#571AFF" stroke-miterlimit="10" stroke-linecap="round" stroke-linejoin="round"/>
<path d="M626.362 465.88L614.838 470.33L640.899 521.091L626.362 465.88Z" stroke="#571AFF" stroke-miterlimit="10" stroke-linecap="round" stroke-linejoin="round"/>
<path d="M639.162 546.574C642.215 545.955 644.104 543.333 643.38 540.718C642.657 538.103 639.596 536.485 636.542 537.105C633.489 537.724 631.601 540.346 632.324 542.961C633.048 545.576 636.109 547.194 639.162 546.574Z" fill="#FFE48D" stroke="#571AFF" stroke-miterlimit="10"/>
<path d="M528.87 445.662C489.454 495.157 410.583 507.978 352.675 474.147C294.768 440.316 279.919 372.741 319.335 323.246C358.75 273.751 437.621 260.929 495.529 294.761C553.437 328.592 568.285 396.166 528.87 445.662Z" fill="#58EAD3" stroke="#571AFF" stroke-width="2"/>
<path fill-rule="evenodd" clip-rule="evenodd" d="M471.343 413.211C474.677 415.515 477.53 417.498 479.289 418.744C479.896 419.174 480.385 419.715 480.719 420.327C481.054 420.938 481.226 421.606 481.223 422.281L481.169 443.081C481.012 443.881 480.529 444.608 479.805 445.133C479.082 445.657 478.165 445.945 477.217 445.945L425.252 445.945C386.324 445.945 353.884 418.664 354.191 385.323C354.391 363.867 367.714 345.091 387.625 334.586V314.225C387.625 313.441 387.813 312.665 388.177 311.945C388.541 311.226 389.074 310.578 389.743 310.042C390.411 309.507 391.201 309.094 392.063 308.831C392.926 308.567 393.842 308.458 394.756 308.51C398.309 308.707 400.997 311.37 400.997 314.42V329.111C406.396 327.475 412.01 326.415 417.712 325.953V314.225C417.712 313.441 417.9 312.665 418.265 311.945C418.629 311.226 419.162 310.578 419.831 310.042C420.499 309.507 421.289 309.094 422.152 308.831C423.014 308.567 423.93 308.458 424.844 308.51C428.398 308.707 431.085 311.37 431.085 314.42V325.948C448.006 327.318 463.183 333.831 474.448 343.644C476.558 345.48 478.529 347.431 480.348 349.483C481.745 351.058 481.43 352.274 479.508 353.371L471.722 358.785C477.919 366.799 481.226 376.198 481.23 385.812C481.253 395.596 477.802 405.151 471.343 413.211ZM461.062 406.131C465.615 400.075 468.039 393.021 468.039 385.812C468.039 378.439 465.432 371.44 461.128 365.65L444.909 376.158C446.776 379.068 447.769 382.33 447.8 385.651C447.83 388.971 446.897 392.246 445.084 395.181L445.606 395.538C447.883 397.096 454.297 401.485 461.062 406.131ZM467.857 434.491L467.927 426.083L434.944 403.702C431.674 405.121 428.06 405.859 424.395 405.856C411.471 405.856 400.993 396.883 400.993 385.812C400.993 374.741 411.471 365.768 424.395 365.768C428.004 365.764 431.564 366.479 434.795 367.855L462.092 349.464C451.944 341.38 439.347 337.132 424.395 337.132C416.324 337.127 408.345 338.6 400.993 341.453V360.041C400.993 360.825 400.805 361.6 400.441 362.32C400.076 363.039 399.544 363.687 398.875 364.223C398.207 364.758 397.417 365.171 396.554 365.434C395.692 365.698 394.776 365.807 393.863 365.755C390.309 365.558 387.622 362.895 387.622 359.844V348.711C375.421 357.591 367.647 370.797 367.563 385.567C367.409 412.474 393.682 434.491 425.098 434.491H467.857ZM432.735 390.585C433.837 389.172 434.426 387.511 434.426 385.812C434.426 383.533 433.369 381.348 431.488 379.737C429.607 378.126 427.056 377.221 424.395 377.221C422.412 377.221 420.472 377.725 418.823 378.669C417.174 379.613 415.888 380.955 415.129 382.524C414.37 384.094 414.171 385.822 414.558 387.488C414.945 389.155 415.9 390.685 417.303 391.887C418.706 393.088 420.493 393.906 422.439 394.238C424.384 394.569 426.401 394.399 428.234 393.749C430.067 393.099 431.633 391.998 432.735 390.585Z" fill="#571AFF"/>
</svg>
