<svg width="523" height="585" viewBox="0 0 523 585" fill="none" xmlns="http://www.w3.org/2000/svg">
<g filter="url(#filter0_d_1803_56625)">
<path d="M494.266 263.283L498.484 258.692L494.266 263.283ZM502.9 258.362L502.946 272.095L502.9 258.362ZM502.926 236.027L502.973 249.761L502.926 236.027ZM506.61 254.288L518.413 255.263L506.61 254.288ZM487.434 252.721L499.236 253.696L487.434 252.721ZM507.342 259.458L511.605 264.736L507.342 259.458ZM494.241 243.247L498.504 248.526L494.241 243.247ZM507.363 249.292L511.581 244.701L507.363 249.292Z" stroke="#4E12F5" stroke-width="1.5" stroke-miterlimit="10"/>
<path d="M504.65 257.882C505.07 257.658 505.442 257.335 505.744 256.932C506.045 256.53 506.271 256.055 506.407 255.536C506.543 255.017 506.588 254.464 506.538 253.909C506.488 253.353 506.345 252.807 506.117 252.301C505.888 251.794 505.58 251.339 505.208 250.96C504.836 250.581 504.409 250.286 503.952 250.093C503.494 249.899 503.015 249.811 502.541 249.833C502.068 249.855 501.61 249.987 501.195 250.221C500.366 250.688 499.753 251.533 499.49 252.571C499.227 253.61 499.335 254.759 499.79 255.769C500.245 256.778 501.011 257.566 501.921 257.962C502.831 258.358 503.812 258.329 504.65 257.882V257.882Z" fill="#20F7D5" stroke="#4E12F5" stroke-width="1.5" stroke-miterlimit="10"/>
<path d="M356.199 452.547L360.417 447.956L356.199 452.547ZM364.833 447.626L364.879 461.359L364.833 447.626ZM364.859 425.291L364.906 439.025L364.859 425.291ZM368.543 443.552L380.346 444.527L368.543 443.552ZM349.367 441.985L361.17 442.96L349.367 441.985ZM369.275 448.722L373.538 454L369.275 448.722ZM356.174 432.511L360.437 437.79L356.174 432.511ZM369.296 438.555L373.514 433.965L369.296 438.555Z" stroke="#4E12F5" stroke-width="1.5" stroke-miterlimit="10"/>
<path d="M366.583 447.146C367.003 446.921 367.375 446.599 367.677 446.196C367.978 445.794 368.204 445.319 368.34 444.8C368.476 444.281 368.521 443.728 368.471 443.173C368.421 442.617 368.278 442.071 368.05 441.564C367.822 441.058 367.513 440.603 367.141 440.224C366.769 439.845 366.342 439.55 365.885 439.357C365.427 439.163 364.948 439.075 364.474 439.097C364.001 439.119 363.544 439.251 363.128 439.485C362.299 439.952 361.686 440.797 361.423 441.835C361.16 442.874 361.268 444.023 361.723 445.032C362.178 446.042 362.944 446.83 363.854 447.226C364.764 447.621 365.745 447.593 366.583 447.146V447.146Z" fill="#20F7D5" stroke="#4E12F5" stroke-width="1.5" stroke-miterlimit="10"/>
<path d="M205.12 451.856L209.338 447.266L205.12 451.856ZM213.754 446.935L213.801 460.669L213.754 446.935ZM213.781 424.6L213.828 438.334L213.781 424.6ZM217.465 442.861L229.268 443.836L217.465 442.861ZM198.288 441.294L210.091 442.269L198.288 441.294ZM218.197 448.031L222.46 453.31L218.197 448.031ZM205.096 431.821L209.359 437.099L205.096 431.821ZM218.218 437.865L222.436 433.274L218.218 437.865Z" stroke="#4E12F5" stroke-width="1.5" stroke-miterlimit="10"/>
<path d="M215.504 446.455C215.925 446.231 216.296 445.908 216.598 445.505C216.9 445.103 217.125 444.628 217.261 444.109C217.398 443.59 217.442 443.037 217.393 442.482C217.343 441.926 217.2 441.38 216.971 440.874C216.743 440.368 216.434 439.912 216.062 439.533C215.691 439.154 215.264 438.859 214.806 438.666C214.348 438.473 213.869 438.384 213.396 438.406C212.923 438.429 212.465 438.56 212.049 438.795C211.22 439.261 210.607 440.106 210.344 441.145C210.081 442.183 210.189 443.332 210.645 444.342C211.1 445.351 211.866 446.139 212.776 446.535C213.686 446.931 214.666 446.902 215.504 446.455V446.455Z" fill="#20F7D5" stroke="#4E12F5" stroke-width="1.5" stroke-miterlimit="10"/>
<path d="M108.256 567.211L112.474 562.62L108.256 567.211ZM116.89 562.289L116.937 576.023L116.89 562.289ZM116.917 539.955L116.964 553.688L116.917 539.955ZM120.601 558.215L132.404 559.19L120.601 558.215ZM101.424 556.649L113.227 557.623L101.424 556.649ZM121.333 563.386L125.596 568.664L121.333 563.386ZM108.232 547.175L112.495 552.453L108.232 547.175ZM121.354 553.219L125.572 548.628L121.354 553.219Z" stroke="#4E12F5" stroke-width="1.5" stroke-miterlimit="10"/>
<path d="M118.641 561.809C119.061 561.585 119.433 561.262 119.734 560.86C120.036 560.457 120.261 559.983 120.398 559.464C120.534 558.945 120.579 558.391 120.529 557.836C120.479 557.281 120.336 556.734 120.108 556.228C119.879 555.722 119.57 555.266 119.199 554.887C118.827 554.508 118.4 554.214 117.942 554.02C117.485 553.827 117.005 553.739 116.532 553.761C116.059 553.783 115.601 553.915 115.185 554.149C114.356 554.616 113.744 555.46 113.481 556.499C113.218 557.538 113.325 558.687 113.781 559.696C114.236 560.705 115.002 561.494 115.912 561.889C116.822 562.285 117.803 562.256 118.641 561.809V561.809Z" fill="#20F7D5" stroke="#4E12F5" stroke-width="1.5" stroke-miterlimit="10"/>
<path d="M11.3927 487.084L15.6109 482.493L11.3927 487.084ZM20.0268 482.163L20.0735 495.897L20.0268 482.163ZM20.0535 459.828L20.1002 473.562L20.0535 459.828ZM23.7372 478.089L35.5401 479.064L23.7372 478.089ZM4.5608 476.522L16.3637 477.497L4.5608 476.522ZM24.4696 483.259L28.7323 488.538L24.4696 483.259ZM11.3686 467.049L15.6313 472.327L11.3686 467.049ZM24.49 473.093L28.7082 468.502L24.49 473.093Z" stroke="#4E12F5" stroke-width="1.5" stroke-miterlimit="10"/>
<path d="M21.777 481.683C22.1972 481.459 22.5689 481.136 22.8705 480.733C23.172 480.331 23.3975 479.856 23.5338 479.337C23.6702 478.818 23.7148 478.265 23.665 477.71C23.6152 477.154 23.4721 476.608 23.2437 476.102C23.0154 475.596 22.7065 475.14 22.3348 474.761C21.9632 474.382 21.5362 474.087 21.0785 473.894C20.6208 473.701 20.1415 473.612 19.6683 473.634C19.1951 473.656 18.7374 473.788 18.3217 474.022C17.4926 474.489 16.8799 475.334 16.6169 476.373C16.3539 477.411 16.4617 478.56 16.917 479.57C17.3723 480.579 18.1382 481.367 19.0483 481.763C19.9583 482.159 20.9389 482.13 21.777 481.683V481.683Z" fill="#20F7D5" stroke="#4E12F5" stroke-width="1.5" stroke-miterlimit="10"/>
<path d="M142.954 248.087L147.172 243.496L142.954 248.087ZM151.588 243.165L151.635 256.899L151.588 243.165ZM151.615 220.831L151.661 234.564L151.615 220.831ZM155.298 239.092L167.101 240.066L155.298 239.092ZM136.122 237.525L147.925 238.5L136.122 237.525ZM156.031 244.262L160.293 249.54L156.031 244.262ZM142.93 228.051L147.192 233.329L142.93 228.051ZM156.051 234.095L160.269 229.504L156.051 234.095Z" stroke="#4E12F5" stroke-width="1.5" stroke-miterlimit="10"/>
<path d="M153.338 242.685C153.758 242.461 154.13 242.139 154.431 241.736C154.733 241.333 154.958 240.859 155.095 240.34C155.231 239.821 155.276 239.268 155.226 238.712C155.176 238.157 155.033 237.61 154.805 237.104C154.576 236.598 154.267 236.142 153.896 235.763C153.524 235.384 153.097 235.09 152.64 234.896C152.182 234.703 151.703 234.615 151.229 234.637C150.756 234.659 150.298 234.791 149.883 235.025C149.054 235.492 148.441 236.336 148.178 237.375C147.915 238.414 148.023 239.563 148.478 240.572C148.933 241.582 149.699 242.37 150.609 242.765C151.519 243.161 152.5 243.132 153.338 242.685V242.685Z" fill="#20F7D5" stroke="#4E12F5" stroke-width="1.5" stroke-miterlimit="10"/>
<path d="M145.845 86.4526L150.063 81.8619L145.845 86.4526ZM154.479 81.5314L154.526 95.265L154.479 81.5314ZM154.506 59.1967L154.553 72.9302L154.506 59.1967ZM158.19 77.4574L169.993 78.4322L158.19 77.4574ZM139.013 75.8908L150.816 76.8655L139.013 75.8908ZM158.922 82.6277L163.185 87.906L158.922 82.6277ZM145.821 66.417L150.084 71.6953L145.821 66.417ZM158.943 72.4611L163.161 67.8703L158.943 72.4611Z" stroke="#4E12F5" stroke-width="1.5" stroke-miterlimit="10"/>
<path d="M156.23 81.0513C156.65 80.8271 157.022 80.5044 157.323 80.1018C157.625 79.6992 157.85 79.2247 157.986 78.7058C158.123 78.1868 158.167 77.6336 158.118 77.0782C158.068 76.5229 157.925 75.9763 157.696 75.4701C157.468 74.964 157.159 74.5082 156.787 74.1293C156.416 73.7503 155.989 73.4556 155.531 73.2623C155.073 73.069 154.594 72.9808 154.121 73.0029C153.648 73.0249 153.19 73.1568 152.774 73.3909C151.945 73.8577 151.333 74.7023 151.07 75.741C150.806 76.7798 150.914 77.9287 151.37 78.9381C151.825 79.9474 152.591 80.7356 153.501 81.1314C154.411 81.5271 155.392 81.4983 156.23 81.0513V81.0513Z" fill="#20F7D5" stroke="#4E12F5" stroke-width="1.5" stroke-miterlimit="10"/>
<path d="M224.638 64.3488L228.856 59.7581L224.638 64.3488ZM233.272 59.4276L233.318 73.1611L233.272 59.4276ZM233.298 37.0929L233.345 50.8264L233.298 37.0929ZM236.982 55.3536L248.785 56.3284L236.982 55.3536ZM217.806 53.787L229.609 54.7617L217.806 53.787ZM237.714 60.5238L241.977 65.8022L237.714 60.5238ZM224.613 44.3132L228.876 49.5915L224.613 44.3132ZM237.735 50.3572L241.953 45.7665L237.735 50.3572Z" stroke="#4E12F5" stroke-width="1.5" stroke-miterlimit="10"/>
<path d="M235.022 58.9475C235.442 58.7233 235.814 58.4006 236.116 57.998C236.417 57.5954 236.643 57.1209 236.779 56.602C236.915 56.083 236.96 55.5298 236.91 54.9744C236.86 54.4191 236.717 53.8725 236.489 53.3663C236.261 52.8601 235.952 52.4044 235.58 52.0254C235.208 51.6465 234.781 51.3518 234.324 51.1585C233.866 50.9651 233.387 50.877 232.913 50.899C232.44 50.9211 231.983 51.053 231.567 51.2871C230.738 51.7539 230.125 52.5985 229.862 53.6372C229.599 54.6759 229.707 55.8249 230.162 56.8342C230.617 57.8436 231.383 58.6318 232.293 59.0275C233.203 59.4232 234.184 59.3945 235.022 58.9475V58.9475Z" fill="#20F7D5" stroke="#4E12F5" stroke-width="1.5" stroke-miterlimit="10"/>
<path d="M253.478 26.3884L257.85 25.2774L253.478 26.3884ZM260.582 26.7449L254.949 34.8351L260.582 26.7449ZM269.802 13.6266L264.17 21.7168L269.802 13.6266ZM264.442 25.7466L270.978 30.7612L264.442 25.7466ZM253.815 17.6091L260.351 22.6238L253.815 17.6091ZM262.741 29.0612L263.071 33.768L262.741 29.0612ZM261.721 14.6024L262.052 19.3091L261.721 14.6024ZM266.943 23.093L271.315 21.9819L266.943 23.093Z" stroke="#4E12F5" stroke-width="1.5" stroke-miterlimit="10"/>
<path d="M261.808 27.1214C262.148 27.1478 262.499 27.098 262.842 26.9748C263.186 26.8517 263.514 26.6576 263.808 26.4039C264.102 26.1501 264.356 25.8418 264.556 25.4966C264.755 25.1514 264.896 24.7762 264.971 24.3928C265.045 24.0093 265.051 23.6252 264.989 23.2626C264.927 22.9 264.797 22.5661 264.608 22.2802C264.419 21.9943 264.173 21.7621 263.886 21.597C263.599 21.4319 263.275 21.3372 262.934 21.3183C262.255 21.2807 261.546 21.5466 260.964 22.0582C260.381 22.5698 259.971 23.2857 259.823 24.0503C259.674 24.815 259.8 25.5665 260.171 26.1416C260.543 26.7167 261.132 27.0688 261.808 27.1214V27.1214Z" fill="#20F7D5" stroke="#4E12F5" stroke-width="1.5" stroke-miterlimit="10"/>
<path d="M308.808 148.859L313.18 147.748L308.808 148.859ZM315.912 149.215L310.279 157.305L315.912 149.215ZM325.132 136.097L319.5 144.187L325.132 136.097ZM319.772 148.217L326.308 153.232L319.772 148.217ZM309.145 140.079L315.681 145.094L309.145 140.079ZM318.071 151.531L318.402 156.238L318.071 151.531ZM317.052 137.073L317.382 141.779L317.052 137.073ZM322.273 145.563L326.645 144.452L322.273 145.563Z" stroke="#4E12F5" stroke-width="1.5" stroke-miterlimit="10"/>
<path d="M317.138 149.592C317.478 149.618 317.829 149.568 318.172 149.445C318.516 149.322 318.844 149.128 319.138 148.874C319.432 148.62 319.686 148.312 319.886 147.967C320.085 147.622 320.226 147.246 320.301 146.863C320.375 146.48 320.381 146.095 320.319 145.733C320.257 145.37 320.127 145.036 319.938 144.75C319.749 144.465 319.503 144.232 319.216 144.067C318.929 143.902 318.605 143.807 318.264 143.789C317.585 143.751 316.877 144.017 316.294 144.528C315.711 145.04 315.301 145.756 315.153 146.521C315.004 147.285 315.13 148.037 315.501 148.612C315.873 149.187 316.462 149.539 317.138 149.592V149.592Z" fill="#20F7D5" stroke="#4E12F5" stroke-width="1.5" stroke-miterlimit="10"/>
<path d="M480.85 162.674L485.221 161.563L480.85 162.674ZM487.953 163.03L482.321 171.12L487.953 163.03ZM497.174 149.912L491.541 158.002L497.174 149.912ZM491.813 162.032L498.349 167.046L491.813 162.032ZM481.187 153.894L487.723 158.909L481.187 153.894ZM490.113 165.346L490.443 170.053L490.113 165.346ZM489.093 150.888L489.423 155.594L489.093 150.888ZM494.315 159.378L498.686 158.267L494.315 159.378Z" stroke="#4E12F5" stroke-width="1.5" stroke-miterlimit="10"/>
<path d="M489.18 163.407C489.519 163.433 489.871 163.383 490.214 163.26C490.557 163.137 490.885 162.943 491.179 162.689C491.473 162.435 491.728 162.127 491.927 161.782C492.127 161.437 492.268 161.061 492.342 160.678C492.417 160.294 492.423 159.91 492.361 159.548C492.298 159.185 492.169 158.851 491.979 158.565C491.79 158.279 491.545 158.047 491.257 157.882C490.97 157.717 490.647 157.622 490.306 157.603C489.626 157.566 488.918 157.832 488.335 158.343C487.753 158.855 487.343 159.571 487.194 160.335C487.046 161.1 487.171 161.852 487.543 162.427C487.915 163.002 488.503 163.354 489.18 163.407V163.407Z" fill="#20F7D5" stroke="#4E12F5" stroke-width="1.5" stroke-miterlimit="10"/>
<path d="M375.312 39.0304L379.683 37.9194L375.312 39.0304ZM382.415 39.3869L376.783 47.4771L382.415 39.3869ZM391.636 26.2686L386.003 34.3588L391.636 26.2686ZM386.275 38.3886L392.811 43.4033L386.275 38.3886ZM375.649 30.2511L382.185 35.2658L375.649 30.2511ZM384.575 41.7032L384.905 46.41L384.575 41.7032ZM383.555 27.2444L383.885 31.9512L383.555 27.2444ZM388.777 35.735L393.148 34.624L388.777 35.735Z" stroke="#4E12F5" stroke-width="1.5" stroke-miterlimit="10"/>
<path d="M383.642 39.7633C383.981 39.7897 384.333 39.7399 384.676 39.6167C385.019 39.4936 385.347 39.2995 385.641 39.0458C385.935 38.792 386.19 38.4837 386.389 38.1385C386.589 37.7933 386.73 37.4181 386.804 37.0347C386.879 36.6512 386.885 36.2671 386.823 35.9045C386.761 35.5419 386.631 35.208 386.442 34.9221C386.252 34.6362 386.007 34.404 385.72 34.2389C385.432 34.0738 385.109 33.9791 384.768 33.9602C384.088 33.9226 383.38 34.1885 382.798 34.7001C382.215 35.2117 381.805 35.9276 381.656 36.6922C381.508 37.4569 381.633 38.2084 382.005 38.7835C382.377 39.3586 382.965 39.7107 383.642 39.7633V39.7633Z" fill="#20F7D5" stroke="#4E12F5" stroke-width="1.5" stroke-miterlimit="10"/>
<path d="M421.575 310.493L425.947 309.382L421.575 310.493ZM428.679 310.849L423.046 318.939L428.679 310.849ZM437.899 297.731L432.267 305.821L437.899 297.731ZM432.539 309.851L439.074 314.866L432.539 309.851ZM421.912 301.714L428.448 306.728L421.912 301.714ZM430.838 313.166L431.168 317.872L430.838 313.166ZM429.818 298.707L430.149 303.414L429.818 298.707ZM435.04 307.197L439.412 306.086L435.04 307.197Z" stroke="#4E12F5" stroke-width="1.5" stroke-miterlimit="10"/>
<path d="M429.905 311.226C430.245 311.252 430.596 311.202 430.939 311.079C431.282 310.956 431.611 310.762 431.905 310.508C432.199 310.255 432.453 309.946 432.652 309.601C432.852 309.256 432.993 308.881 433.068 308.497C433.142 308.114 433.148 307.73 433.086 307.367C433.024 307.004 432.894 306.67 432.705 306.385C432.515 306.099 432.27 305.866 431.983 305.701C431.696 305.536 431.372 305.442 431.031 305.423C430.352 305.385 429.643 305.651 429.061 306.163C428.478 306.674 428.068 307.39 427.919 308.155C427.771 308.919 427.896 309.671 428.268 310.246C428.64 310.821 429.228 311.173 429.905 311.226V311.226Z" fill="#20F7D5" stroke="#4E12F5" stroke-width="1.5" stroke-miterlimit="10"/>
<path d="M89.7805 174.416L94.1519 173.305L89.7805 174.416ZM96.8838 174.773L91.2512 182.863L96.8838 174.773ZM106.104 161.654L100.472 169.745L106.104 161.654ZM100.744 173.774L107.28 178.789L100.744 173.774ZM90.1176 165.637L96.6536 170.652L90.1176 165.637ZM99.0435 177.089L99.3737 181.796L99.0435 177.089ZM98.0237 162.63L98.354 167.337L98.0237 162.63ZM103.246 171.121L107.617 170.01L103.246 171.121Z" stroke="#4E12F5" stroke-width="1.5" stroke-miterlimit="10"/>
<path d="M98.1106 175.149C98.45 175.176 98.8014 175.126 99.1446 175.003C99.4878 174.879 99.8159 174.685 100.11 174.432C100.404 174.178 100.658 173.87 100.858 173.524C101.057 173.179 101.199 172.804 101.273 172.421C101.347 172.037 101.354 171.653 101.291 171.29C101.229 170.928 101.099 170.594 100.91 170.308C100.721 170.022 100.475 169.79 100.188 169.625C99.9009 169.46 99.5775 169.365 99.2366 169.346C98.5569 169.308 97.8487 169.574 97.266 170.086C96.6833 170.598 96.2732 171.313 96.1248 172.078C95.9764 172.843 96.1018 173.594 96.4736 174.169C96.8455 174.744 97.4337 175.097 98.1106 175.149V175.149Z" fill="#20F7D5" stroke="#4E12F5" stroke-width="1.5" stroke-miterlimit="10"/>
<path d="M198.933 148.859L203.304 147.748L198.933 148.859ZM206.036 149.215L200.404 157.305L206.036 149.215ZM215.257 136.097L209.624 144.187L215.257 136.097ZM209.896 148.217L216.432 153.232L209.896 148.217ZM199.27 140.079L205.806 145.094L199.27 140.079ZM208.196 151.531L208.526 156.238L208.196 151.531ZM207.176 137.073L207.507 141.779L207.176 137.073ZM212.398 145.563L216.77 144.452L212.398 145.563Z" stroke="#4E12F5" stroke-width="1.5" stroke-miterlimit="10"/>
<path d="M207.263 149.592C207.603 149.618 207.954 149.568 208.297 149.445C208.64 149.322 208.968 149.128 209.263 148.874C209.557 148.62 209.811 148.312 210.01 147.967C210.21 147.622 210.351 147.246 210.426 146.863C210.5 146.48 210.506 146.095 210.444 145.733C210.382 145.37 210.252 145.036 210.063 144.75C209.873 144.465 209.628 144.232 209.341 144.067C209.054 143.902 208.73 143.807 208.389 143.789C207.71 143.751 207.001 144.017 206.419 144.528C205.836 145.04 205.426 145.756 205.277 146.521C205.129 147.285 205.254 148.037 205.626 148.612C205.998 149.187 206.586 149.539 207.263 149.592V149.592Z" fill="#20F7D5" stroke="#4E12F5" stroke-width="1.5" stroke-miterlimit="10"/>
<path d="M113.635 309.802L118.006 308.691L113.635 309.802ZM120.738 310.159L115.106 318.249L120.738 310.159ZM129.959 297.04L124.326 305.13L129.959 297.04ZM124.598 309.16L131.134 314.175L124.598 309.16ZM113.972 301.023L120.508 306.037L113.972 301.023ZM122.898 312.475L123.228 317.182L122.898 312.475ZM121.878 298.016L122.208 302.723L121.878 298.016ZM127.1 306.507L131.471 305.396L127.1 306.507Z" stroke="#4E12F5" stroke-width="1.5" stroke-miterlimit="10"/>
<path d="M121.965 310.535C122.304 310.561 122.656 310.512 122.999 310.388C123.342 310.265 123.67 310.071 123.964 309.817C124.258 309.564 124.513 309.255 124.712 308.91C124.912 308.565 125.053 308.19 125.127 307.806C125.202 307.423 125.208 307.039 125.146 306.676C125.084 306.314 124.954 305.98 124.765 305.694C124.575 305.408 124.33 305.176 124.043 305.011C123.755 304.846 123.432 304.751 123.091 304.732C122.411 304.694 121.703 304.96 121.121 305.472C120.538 305.983 120.128 306.699 119.979 307.464C119.831 308.229 119.956 308.98 120.328 309.555C120.7 310.13 121.288 310.482 121.965 310.535V310.535Z" fill="#20F7D5" stroke="#4E12F5" stroke-width="1.5" stroke-miterlimit="10"/>
<path d="M19.1841 331.108L23.5555 329.997L19.1841 331.108ZM26.2874 331.465L20.6547 339.555L26.2874 331.465ZM35.508 318.346L29.8754 326.436L35.508 318.346ZM30.1474 330.466L36.6834 335.481L30.1474 330.466ZM19.5212 322.329L26.0572 327.343L19.5212 322.329ZM28.447 333.781L28.7773 338.488L28.447 333.781ZM27.4273 319.322L27.7575 324.029L27.4273 319.322ZM32.6491 327.813L37.0205 326.702L32.6491 327.813Z" stroke="#4E12F5" stroke-width="1.5" stroke-miterlimit="10"/>
<path d="M27.5141 331.841C27.8535 331.867 28.205 331.818 28.5482 331.694C28.8914 331.571 29.2194 331.377 29.5135 331.124C29.8076 330.87 30.0617 330.561 30.2614 330.216C30.461 329.871 30.6021 329.496 30.6765 329.112C30.7509 328.729 30.7571 328.345 30.6949 327.982C30.6326 327.62 30.503 327.286 30.3137 327C30.1243 326.714 29.879 326.482 29.5917 326.317C29.3045 326.152 28.9811 326.057 28.6402 326.038C27.9605 326 27.2523 326.266 26.6696 326.778C26.0869 327.289 25.6768 328.005 25.5284 328.77C25.38 329.535 25.5054 330.286 25.8772 330.861C26.249 331.436 26.8373 331.788 27.5141 331.841V331.841Z" fill="#20F7D5" stroke="#4E12F5" stroke-width="1.5" stroke-miterlimit="10"/>
<path d="M243.751 405.815L248.122 404.704L243.751 405.815ZM250.854 406.172L245.221 414.262L250.854 406.172ZM260.075 393.054L254.442 401.144L260.075 393.054ZM254.714 405.174L261.25 410.188L254.714 405.174ZM244.088 397.036L250.624 402.051L244.088 397.036ZM253.014 408.488L253.344 413.195L253.014 408.488ZM251.994 394.029L252.324 398.736L251.994 394.029ZM257.216 402.52L261.587 401.409L257.216 402.52Z" stroke="#4E12F5" stroke-width="1.5" stroke-miterlimit="10"/>
<path d="M252.081 406.548C252.42 406.575 252.771 406.525 253.115 406.402C253.458 406.279 253.786 406.085 254.08 405.831C254.374 405.577 254.628 405.269 254.828 404.924C255.027 404.578 255.168 404.203 255.243 403.82C255.317 403.436 255.324 403.052 255.261 402.69C255.199 402.327 255.069 401.993 254.88 401.707C254.691 401.421 254.445 401.189 254.158 401.024C253.871 400.859 253.547 400.764 253.207 400.745C252.527 400.708 251.819 400.974 251.236 401.485C250.653 401.997 250.243 402.713 250.095 403.477C249.946 404.242 250.072 404.994 250.444 405.569C250.815 406.144 251.404 406.496 252.081 406.548V406.548Z" fill="#20F7D5" stroke="#4E12F5" stroke-width="1.5" stroke-miterlimit="10"/>
<path d="M63.0347 450.714L67.4061 449.603L63.0347 450.714ZM70.138 451.07L64.5053 459.161L70.138 451.07ZM79.3586 437.952L73.726 446.042L79.3586 437.952ZM73.998 450.072L80.534 455.087L73.998 450.072ZM63.3718 441.935L69.9078 446.949L63.3718 441.935ZM72.2976 453.387L72.6279 458.093L72.2976 453.387ZM71.2779 438.928L71.6081 443.635L71.2779 438.928ZM76.4997 447.418L80.8711 446.307L76.4997 447.418Z" stroke="#4E12F5" stroke-width="1.5" stroke-miterlimit="10"/>
<path d="M71.3645 451.447C71.7039 451.473 72.0554 451.423 72.3985 451.3C72.7417 451.177 73.0698 450.983 73.3638 450.729C73.6579 450.476 73.9121 450.167 74.1117 449.822C74.3113 449.477 74.4524 449.102 74.5268 448.718C74.6012 448.335 74.6075 447.951 74.5452 447.588C74.4829 447.225 74.3534 446.892 74.164 446.606C73.9747 446.32 73.7293 446.088 73.4421 445.922C73.1548 445.757 72.8314 445.663 72.4905 445.644C71.8108 445.606 71.1026 445.872 70.5199 446.384C69.9372 446.895 69.5271 447.611 69.3787 448.376C69.2303 449.14 69.3557 449.892 69.7276 450.467C70.0994 451.042 70.6877 451.394 71.3645 451.447V451.447Z" fill="#20F7D5" stroke="#4E12F5" stroke-width="1.5" stroke-miterlimit="10"/>
<path d="M323.989 544.655L328.36 543.544L323.989 544.655ZM331.092 545.012L325.459 553.102L331.092 545.012ZM340.312 531.893L334.68 539.983L340.312 531.893ZM334.952 544.013L341.488 549.028L334.952 544.013ZM324.326 535.876L330.862 540.89L324.326 535.876ZM333.251 547.328L333.582 552.035L333.251 547.328ZM332.232 532.869L332.562 537.576L332.232 532.869ZM337.454 541.36L341.825 540.249L337.454 541.36Z" stroke="#4E12F5" stroke-width="1.5" stroke-miterlimit="10"/>
<path d="M332.318 545.388C332.658 545.414 333.009 545.365 333.352 545.241C333.696 545.118 334.024 544.924 334.318 544.671C334.612 544.417 334.866 544.108 335.066 543.763C335.265 543.418 335.406 543.043 335.481 542.659C335.555 542.276 335.561 541.892 335.499 541.529C335.437 541.167 335.307 540.833 335.118 540.547C334.929 540.261 334.683 540.029 334.396 539.864C334.109 539.699 333.785 539.604 333.444 539.585C332.765 539.547 332.056 539.813 331.474 540.325C330.891 540.836 330.481 541.552 330.333 542.317C330.184 543.082 330.31 543.833 330.681 544.408C331.053 544.983 331.642 545.335 332.318 545.388V545.388Z" fill="#20F7D5" stroke="#4E12F5" stroke-width="1.5" stroke-miterlimit="10"/>
<path d="M408.245 228.055L412.463 223.464L408.245 228.055ZM416.879 223.134L416.926 236.867L416.879 223.134ZM416.906 200.799L416.953 214.533L416.906 200.799ZM420.59 219.06L432.392 220.035L420.59 219.06ZM401.413 217.493L413.216 218.468L401.413 217.493ZM421.322 224.23L425.585 229.508L421.322 224.23ZM408.221 208.019L412.484 213.298L408.221 208.019ZM421.342 214.064L425.56 209.473L421.342 214.064Z" stroke="#4E12F5" stroke-width="1.5" stroke-miterlimit="10"/>
<path d="M418.629 222.654C419.05 222.43 419.421 222.107 419.723 221.704C420.025 221.302 420.25 220.827 420.386 220.308C420.523 219.789 420.567 219.236 420.518 218.681C420.468 218.125 420.325 217.579 420.096 217.073C419.868 216.566 419.559 216.111 419.187 215.732C418.816 215.353 418.389 215.058 417.931 214.865C417.473 214.671 416.994 214.583 416.521 214.605C416.048 214.627 415.59 214.759 415.174 214.993C414.345 215.46 413.732 216.305 413.469 217.344C413.206 218.382 413.314 219.531 413.77 220.541C414.225 221.55 414.991 222.338 415.901 222.734C416.811 223.13 417.791 223.101 418.629 222.654V222.654Z" fill="#20F7D5" stroke="#4E12F5" stroke-width="1.5" stroke-miterlimit="10"/>
<path d="M142.883 286.429C143.469 286.415 146.898 286.66 148.539 286.785L149.804 287.246C150.31 287.431 150.659 288.129 150.771 288.454L151.006 289.68L151.195 293.738L150.67 298.676L149.892 301.527L150.741 302.122L150.966 307.904L151.915 308.25L152.168 310.337L152.094 316.865L150.674 324.041C150.482 324.825 150.06 326.666 149.915 327.753C149.77 328.84 148.541 332.096 147.944 333.588L145.938 337.7L141.59 344.947L137.623 350.337L142.32 354.902C144.669 357.185 149.56 361.991 150.333 362.957C151.107 363.924 153.101 366.912 154.001 368.286L154.452 369.876L155.003 371.217C155.648 372.022 157.15 373.824 158.002 374.592C158.855 375.359 158.183 376.557 157.74 377.06L156.61 378.073L149.101 384.165L150.817 386.217L151.251 386.945C151.284 386.862 151.517 386.643 152.182 386.43C152.847 386.217 154.001 386.714 154.495 386.99C155.81 388.23 158.656 390.903 159.508 391.67C160.361 392.437 160.387 393.701 160.294 394.236L157.655 398.117L165.714 403.34L174.405 408.792L181.397 413.055C182.33 413.624 183.261 413.831 183.611 413.864L186.62 412.682L191.49 410.471L196.243 407.647L200.364 404.592L204.683 401.039L205.813 400.027L206.933 403.57L208.856 410.542L208.991 412.016L208.91 413.126L206.867 415.515L200.74 422.682L197.568 426.084L193.881 429.867L190.691 432.407L188.215 434.068C188.077 434.112 187.594 434.354 186.769 434.965C185.945 435.576 183.589 436.273 182.514 436.546L180.002 436.484L174.228 435.516L170.967 434.61L166.928 436.555L163.404 438.118L159.364 440.063L156.256 441.493L154.476 441.413L149.968 440.906L146.074 439.77L143.011 438.366L137.202 435.675L129.612 432.905L124.137 431.191L121.146 433.233C121.041 433.195 120.727 433.194 120.315 433.5C119.903 433.805 118.457 433.011 117.785 432.576L113.304 428.375L112.437 426.919C112.264 426.628 112.486 425.892 112.618 425.56L112.917 424.814L108.869 421.342L98.7423 412.23L97.4595 410.906L96.4294 411.67C95.9143 412.052 94.9656 411.706 93.6013 411.492C92.5099 411.322 90.1833 409.77 89.1564 409.015L84.0432 404.583L81.6944 402.301L80.7637 402.816L78.0709 404.112C77.5167 404.29 76.3053 404.722 75.8932 405.027C75.4812 405.333 68.3844 407.795 64.8875 408.988L55.6259 411.306L48.7409 412.212L40.9072 412.771L40.3742 412.292L39.8591 412.674C38.2025 413.494 34.6399 415.214 33.6423 415.533C32.3954 415.933 29.1696 416.75 27.2902 416.919C25.4109 417.088 25.3929 416.226 24.9594 415.498C24.5258 414.77 22.7557 410.134 22.6383 409.521C22.5444 409.031 22.371 405.054 22.2961 403.127L23.9228 400.871L25.0345 398.997L24.8992 397.523L32.1184 397.594L32.5699 399.183L34.7834 399.992L37.2773 399.192L37.675 398.198L38.1901 397.816C40.1749 397.685 44.6035 397.365 46.4395 397.123C48.7345 396.821 59.3425 393.855 60.1738 393.588C60.8388 393.375 67.776 390.285 71.1615 388.766L72.5079 388.118L72.2732 386.892C72.2009 386.771 71.9932 386.505 71.7402 386.412C71.424 386.297 69.8251 384.858 68.7591 383.899L68.759 383.899C67.693 382.94 66.1576 379.53 65.8234 378.553C65.5561 377.771 65.7186 375.19 65.8332 373.997L66.4119 371.643L58.932 364.068C58.5223 364.488 57.5168 365.432 56.7722 365.844C56.0276 366.256 54.4321 365.654 53.7274 365.302L50.3126 362.061C48.3583 360.302 44.2997 356.616 43.6998 355.942C43.1 355.267 43.125 353.452 43.2125 352.629L43.5108 351.883C43.4054 351.844 43.0446 351.599 42.4448 350.924C41.695 350.08 39.1115 346.572 38.5606 345.231C38.0097 343.89 37.7391 340.941 37.5044 339.716C37.2697 338.49 38.4449 334.645 38.6438 334.147C38.8427 333.65 41.066 329.902 42.3944 328.392C43.7229 326.883 48.3586 323.446 49.8044 322.549C51.2502 321.652 56.3553 320.666 59.0839 321.092C61.8125 321.519 66.6731 323.863 67.8385 324.574C68.7709 325.142 72.202 328.162 73.801 329.6L75.3687 331.011C75.3628 330.952 75.6099 330.828 76.6468 330.639C77.8973 330.412 79.2097 331.48 79.7095 332.042C80.7755 333.002 83.1641 335.185 84.1903 336.243C85.2165 337.302 84.9428 338.893 84.6777 339.556L82.6353 341.945L86.4836 345.915C86.6553 345.787 87.0818 345.506 87.4143 345.4C87.83 345.266 91.4714 344.316 92.3027 344.05C92.9677 343.837 95.4409 344.056 96.5944 344.192L97.9587 344.405L106.317 338.908L112.2 335.071C112.82 334.727 114.457 333.957 116.04 333.623C117.623 333.289 119.784 334.23 120.666 334.742L124.614 338.463L126.457 336.572C127.072 335.941 131.121 329.44 132.233 327.566C133.344 325.692 134.647 317.904 134.828 316.545C134.972 315.458 134.702 310.515 134.549 308.179L135.38 307.913L135.273 302.744L136.104 302.477L135.951 300.142L134.867 298.321L132.771 298.126L130.965 291.767L132.528 291.483L135.085 288.712L136.215 287.699L137.878 287.166C138.709 286.9 142.151 286.447 142.883 286.429Z" fill="white"/>
<path d="M158.117 376.413C160.161 377.275 161.84 379.05 163.061 380.775C164.346 382.639 165.341 384.63 166.522 386.456C169.706 391.338 174.314 395.345 179.715 397.666C177.637 397.488 175.413 397.374 173.352 396.854C171.291 396.334 169.247 395.471 167.655 394.076C170.005 398.654 177.976 404.703 182.672 406.998C182.573 407.543 170.865 408.151 159.356 399.299C155.507 396.383 153.413 388.179 148.804 384.172" fill="#FFCF33"/>
<path d="M158.742 376.641C160.786 377.503 162.464 379.279 163.686 381.003C164.971 382.867 165.966 384.858 167.147 386.684C170.33 391.566 174.938 395.573 180.34 397.894C178.261 397.716 176.038 397.602 173.977 397.082C171.916 396.562 169.872 395.699 168.28 394.304C170.63 398.882 178.601 404.931 183.297 407.226C183.239 407.67 174.548 406.706 164.393 402.533" stroke="#4E12F5" stroke-width="1.5" stroke-miterlimit="10"/>
<path d="M213.501 397.1L217.96 396.403L218.064 396.441C218.168 396.479 225.84 399.396 232.792 405.306C235.473 407.563 236.456 410.479 236.71 413.129C236.82 415.843 236.281 418.087 235.777 419.646C235.394 420.902 234.178 421.852 232.725 421.903L227.369 422.156" fill="white"/>
<path d="M213.501 397.1L217.96 396.403L218.064 396.441C218.168 396.479 225.84 399.396 232.792 405.306C235.473 407.563 236.456 410.479 236.71 413.129C236.82 415.843 236.281 418.087 235.777 419.646C235.394 420.902 234.178 421.852 232.725 421.903L227.369 422.156" stroke="#4E12F5" stroke-width="1.5" stroke-miterlimit="10"/>
<path d="M209.352 412.556L222.476 420.951C223.836 422.029 225.956 422.105 227.762 422.067C228.573 422.131 229.36 421.953 230.084 421.636C231.532 421.003 232.557 419.633 232.812 418.099C233.242 415.234 233.231 409.883 228.965 406.814C223.025 402.553 215.609 398.102 214.376 397.303L205.782 399.977" fill="white"/>
<path d="M66.7245 371.407C63.5559 376.643 67.4036 387.928 77.473 387.536C85.2784 387.131 93.5951 379.474 97.5395 374.986C109.633 362.663 106.391 336.72 86.7479 345.822M209.351 412.556L222.476 420.951C223.836 422.029 225.955 422.105 227.762 422.067C228.573 422.131 229.36 421.953 230.084 421.636C231.532 421.003 232.557 419.633 232.812 418.099C233.241 415.234 233.231 409.883 228.964 406.814C223.025 402.553 215.608 398.102 214.375 397.303L205.782 399.977L209.351 412.556Z" stroke="#4E12F5" stroke-width="1.5" stroke-miterlimit="10"/>
<path d="M88.0912 347.242C105.035 340.41 105.909 364.209 96.075 373.87C92.4377 377.889 85.1924 384.659 78.2787 384.924C71.6603 385.646 66.4742 377.708 67.8824 372.992" stroke="#4E12F5" stroke-width="1.5" stroke-miterlimit="10"/>
<path d="M44.0894 352.449C44.0894 352.449 29.2112 340.972 44.3565 326.392C58.1233 313.169 72.41 327.917 74.9512 330.821M82.8285 342.184L92.7274 352.075C87.4108 356.41 91.6589 364.006 91.8674 364.082L92.0989 364.399C73.3975 382.795 76.3509 381.083 59.3028 364.281L82.8285 342.184ZM83.8495 336.046C84.8568 337.111 85.0996 338.595 84.5087 339.774L82.9505 341.878C82.4177 342.614 81.3406 342.918 80.5069 342.613C79.2563 342.157 77.5021 341.168 75.2792 338.961C72.6163 336.362 72.3098 334.739 72.2 334.117C72.1538 333.635 72.3796 333.369 72.4839 333.407L74.4183 331.556C75.7561 330.301 77.9159 330.276 79.1953 331.557L83.8495 336.046V336.046Z" stroke="#4E12F5" stroke-width="1.5" stroke-miterlimit="10"/>
<path d="M45.1491 350.396C42.5623 344.918 41.8343 338.375 48.1125 332.531C61.5954 320.017 73.3696 332.686 73.3696 332.686" stroke="#4E12F5" stroke-width="1.5" stroke-miterlimit="10"/>
<path d="M52.4445 329.463C52.4445 329.463 54.957 331.542 51.2966 335.32C48.5398 338.033 47.7117 338.312 44.8342 337.145" stroke="#4E12F5" stroke-width="1.5" stroke-miterlimit="10"/>
<path d="M53.3912 365.028L44.0422 356.151C42.7628 354.87 42.7228 352.88 43.9565 351.587L59.2408 336.36C60.5787 335.105 62.6343 335.042 63.9541 336.221L73.3032 345.098C74.5825 346.379 74.6226 348.369 73.3889 349.663L58.1045 364.889C56.8303 366.283 54.6705 366.309 53.3912 365.028Z" fill="#20F7D5" stroke="#4E12F5" stroke-width="1.5" stroke-miterlimit="10"/>
<path d="M147.103 427.256L154.566 428.005C154.775 428.081 171.472 436.502 181.732 436.528C191.495 436.606 206.902 414.799 208.883 413.429C209.184 412.377 210.35 406.177 205.493 400.103C203.518 402.055 194.813 410.385 183.382 413.883C183.238 413.946 183.238 413.946 183.133 413.908L182.884 413.934L182.404 413.642L163.536 401.988M59.3381 342.091C61.6838 339.809 63.4842 341.28 63.4842 341.28L72.7696 350.017L59.3381 342.091ZM92.7683 351.973L100.412 349.882L92.7683 351.973ZM100.083 367.43C91.6193 362.015 97.5745 350.706 97.5745 350.706L100.083 367.43ZM163.536 401.989L157.434 398.133L163.536 401.989Z" stroke="#4E12F5" stroke-width="1.5" stroke-miterlimit="10"/>
<path d="M123.9 431.222C124.253 431.235 136.105 434.748 142.618 438.172C146.752 440.379 151.436 441.508 156.108 441.471L171.037 434.6" stroke="#4E12F5" stroke-width="1.5" stroke-miterlimit="10"/>
<path d="M182.907 414.176L181.308 418.474L182.907 414.176Z" fill="white"/>
<path d="M182.907 414.176L181.308 418.474" stroke="#4E12F5" stroke-width="1.5" stroke-miterlimit="10"/>
<path d="M149.461 441.369C149.438 441.128 148.252 436.627 152.046 431.619L149.461 441.369Z" fill="white"/>
<path d="M149.461 441.369C149.438 441.128 148.252 436.627 152.046 431.619" stroke="#4E12F5" stroke-width="1.5" stroke-miterlimit="10"/>
<path d="M182.85 434.032C182.682 433.854 179.759 430.114 181.301 424.167L182.85 434.032Z" fill="white"/>
<path d="M182.85 434.032C182.682 433.854 179.759 430.114 181.301 424.167" stroke="#4E12F5" stroke-width="1.5" stroke-miterlimit="10"/>
<path d="M208.282 405.075L214.546 408.524C215.027 408.816 215.322 409.272 215.368 409.754C215.432 409.894 215.351 410.097 215.31 410.198L215.27 410.299C215.171 410.845 214.864 411.314 214.326 411.466C213.851 411.757 213.289 411.669 212.768 411.478L209.179 409.703" fill="white"/>
<path d="M208.282 405.075L214.546 408.524C215.027 408.816 215.322 409.272 215.368 409.754C215.432 409.894 215.351 410.097 215.31 410.198L215.27 410.299C215.171 410.845 214.864 411.314 214.326 411.466C213.851 411.757 213.289 411.669 212.768 411.478L209.179 409.703" stroke="#4E12F5" stroke-width="1.5" stroke-miterlimit="10" stroke-linecap="round"/>
<path d="M231.729 419.912C222.587 417.388 223.676 414.066 223.792 413.179C224.448 410.047 230.666 413.014 232.31 411.29" fill="white"/>
<path d="M231.932 419.405C229.766 418.847 227.578 418.048 225.841 416.716C225.401 416.323 224.961 415.93 224.666 415.473C224.434 415.156 224.348 414.776 224.261 414.396C224.301 414.294 224.197 414.256 224.238 414.155L224.174 414.015C224.215 413.914 224.151 413.774 224.232 413.572C224.209 413.331 224.331 413.026 224.412 412.823C224.962 411.746 226.896 411.987 227.915 412.126C228.83 412.228 229.641 412.292 230.492 412.254C231.198 412.279 231.986 412.102 232.542 411.607C233.098 411.113 232.362 410.263 231.806 410.758C231.395 411.189 230.793 411.201 230.191 411.214C229.34 411.252 228.57 411.087 227.655 410.985C226.283 410.833 224.308 410.693 223.428 411.999C223.039 412.671 222.923 413.559 222.993 414.281C223.045 415.347 223.739 416.298 224.515 417.046C226.338 418.758 228.984 419.607 231.358 420.242C232.192 420.546 232.598 419.532 231.932 419.405V419.405Z" fill="#4E12F5"/>
<path d="M159.936 394.862C149.267 410.495 137.231 422.374 121.363 433.087C120.373 433.771 119.001 433.619 118.121 432.833C116.297 431.121 115.018 429.84 113.258 428.268C112.147 427.164 112.275 425.351 113.595 424.439C128.739 414.043 140.404 402.493 150.789 387.571C151.67 386.265 153.558 386.024 154.669 387.127C156.325 388.662 157.708 389.981 159.532 391.693C160.371 392.58 160.591 393.823 159.936 394.862V394.862Z" fill="white" stroke="#4E12F5" stroke-width="1.5" stroke-miterlimit="10"/>
<path d="M132.279 427.888L130.571 429.473C130.159 429.904 129.349 429.841 128.909 429.448L118.524 418.682C118.084 418.288 118.159 417.502 118.571 417.071L120.279 415.487C120.69 415.056 121.501 415.119 121.941 415.512L132.326 426.278C132.829 426.811 132.795 427.495 132.279 427.888Z" fill="white" stroke="#4E12F5" stroke-width="1.5" stroke-miterlimit="10"/>
<path d="M156.639 404.004L151.832 409.456C151.009 410.318 149.62 410.508 148.636 409.684L138.314 401.149C137.434 400.363 137.255 399.019 138.118 398.055L142.925 392.604C143.747 391.742 145.137 391.552 146.121 392.376L156.443 400.91C157.323 401.697 157.398 403.003 156.639 404.004Z" fill="#20F7D5" stroke="#4E12F5" stroke-width="1.5" stroke-miterlimit="10"/>
<path d="M149.851 389.321L158.789 396.536M115.599 423.31L123.552 431.794L115.599 423.31ZM127.245 414.195L135.819 422.324L127.245 414.195ZM132.018 409.427L140.591 417.556L132.018 409.427ZM136.153 405.359L144.726 413.487L136.153 405.359Z" stroke="#4E12F5" stroke-width="1.5" stroke-miterlimit="10"/>
<path fill-rule="evenodd" clip-rule="evenodd" d="M78.179 387.563C78.179 387.563 82.8429 399.495 112.871 424.755L78.179 387.563Z" fill="white"/>
<path d="M78.179 387.563C78.179 387.563 82.8429 399.495 112.871 424.755" stroke="#4E12F5" stroke-width="1.5" stroke-miterlimit="10"/>
<path fill-rule="evenodd" clip-rule="evenodd" d="M86.0969 398.823C86.0969 398.823 104.078 389.696 120.429 368.815L86.0969 398.823Z" fill="white"/>
<path d="M86.0969 398.823C86.0969 398.823 104.078 389.696 120.429 368.815" stroke="#4E12F5" stroke-width="1.5" stroke-miterlimit="10"/>
<path fill-rule="evenodd" clip-rule="evenodd" d="M90.7522 403.311C90.7522 403.311 110.216 392.865 126.567 371.984L90.7522 403.311Z" fill="white"/>
<path d="M102.751 349.109L106.556 347.359M90.752 403.311C90.752 403.311 110.216 392.865 126.567 371.984L90.752 403.311Z" stroke="#4E12F5" stroke-width="1.5" stroke-miterlimit="10"/>
<path d="M107.205 345.735C106.794 346.166 106.591 346.674 106.742 347.193C107.071 349.057 107.927 353.787 110.757 358.656C115.827 367.482 126.074 376.802 140.088 369.83L135.729 365.797C135.729 365.797 125.612 369.892 117.989 359.088C112.809 351.733 112.52 347.676 112.856 345.939C112.972 345.051 112.382 344.138 111.467 344.037C110.344 343.859 108.809 344.113 107.205 345.735V345.735Z" fill="white" stroke="#4E12F5" stroke-width="1.5" stroke-miterlimit="10"/>
<path d="M125.8 359.267L133.157 366.254L125.8 359.267ZM137.626 370.908L151.322 386.835L137.626 370.908ZM138.454 351.217C138.454 351.217 137.446 350.152 146.315 358.737C159.919 371.608 153.305 375.006 153.305 375.006L146.303 381.167L138.454 351.217ZM97.5354 344.531L112.355 334.947C114.255 333.78 116.617 333.248 118.887 333.844C120.427 334.174 124.809 338.448 124.809 338.448L97.5354 344.531Z" stroke="#4E12F5" stroke-width="1.5" stroke-miterlimit="10"/>
<path d="M72.0647 386.725C72.0647 386.725 73.6315 396.248 87.971 407.876C95.2825 414.382 97.2636 410.92 97.2636 410.92" fill="white"/>
<path d="M72.0647 386.725C72.0647 386.725 73.6315 396.248 87.971 407.876C95.2825 414.382 97.2636 410.92 97.2636 410.92" stroke="#4E12F5" stroke-width="1.5" stroke-miterlimit="10"/>
<path fill-rule="evenodd" clip-rule="evenodd" d="M119.806 383.814L118.265 385.576C117.854 386.007 117.107 386.083 116.667 385.69L108.777 379.438C108.337 379.045 108.267 378.323 108.679 377.892L110.219 376.129C110.631 375.698 111.377 375.622 111.817 376.015L119.708 382.267C120.148 382.66 120.217 383.383 119.806 383.814ZM124.353 379.312L123.183 380.745C122.917 381.113 122.314 381.125 121.938 380.872L113.712 374.265C113.335 374.011 113.33 373.428 113.596 373.06L114.766 371.628C115.033 371.26 115.635 371.247 116.011 371.501L124.237 378.108C124.614 378.361 124.619 378.945 124.353 379.312Z" fill="white" stroke="#4E12F5" stroke-width="1.5" stroke-miterlimit="10"/>
<path d="M100.649 397.975C102.639 398.701 104.855 398.629 106.81 397.773C108.765 396.917 110.298 395.347 111.073 393.41C111.847 391.473 111.799 389.327 110.939 387.444C110.08 385.56 108.479 384.094 106.488 383.367C104.498 382.641 102.282 382.714 100.327 383.57C98.372 384.426 96.8387 385.995 96.0643 387.932C95.2899 389.869 95.3379 392.015 96.1977 393.899C97.0574 395.782 98.6585 397.248 100.649 397.975V397.975Z" fill="#20F7D5" stroke="#4E12F5" stroke-width="1.5" stroke-miterlimit="10"/>
<path d="M150.001 301.73C150.001 301.73 152.557 291.155 150.34 287.44C150.34 287.44 144.29 284.65 135.661 288.009L132.331 291.559M135.5 307.828L135.304 302.642C135.304 302.642 143.938 299.866 150.625 301.959L150.89 307.868L135.5 307.828Z" stroke="#4E12F5" stroke-width="1.5" stroke-miterlimit="10"/>
<path fill-rule="evenodd" clip-rule="evenodd" d="M135.987 302.427L135.924 300.195L134.639 298.331" fill="white"/>
<path d="M135.987 302.427L135.924 300.195L134.639 298.331" stroke="#4E12F5" stroke-width="1.5" stroke-miterlimit="10"/>
<path fill-rule="evenodd" clip-rule="evenodd" d="M136.301 298.356L132.769 298.229L130.796 291.813L133.865 291.306L135.19 295.161" fill="white"/>
<path d="M71.769 388.361C65.1382 392.1 52.045 397.665 37.9862 397.879C37.9862 397.879 34.3078 404.092 40.8718 412.765C40.8718 412.765 59.9853 413.351 81.7074 402.335M136.301 298.356L132.769 298.229L130.796 291.813L133.865 291.306L135.19 295.161L136.301 298.356Z" stroke="#4E12F5" stroke-width="1.5" stroke-miterlimit="10"/>
<path fill-rule="evenodd" clip-rule="evenodd" d="M44.4449 412.79C44.4449 412.79 39.4149 405.955 42.2832 397.587L44.4449 412.79Z" fill="white"/>
<path d="M40.432 412.372C40.432 412.372 30.3497 417.874 25.9783 416.859C25.9783 416.859 21.4863 411.964 22.3976 403.114L25.0158 398.955M44.4449 412.79C44.4449 412.79 39.4149 405.955 42.2832 397.587L44.4449 412.79ZM138.561 293.602L138.064 287.376L138.561 293.602ZM142.614 293.918L142.147 286.425L142.614 293.918ZM146.522 294.3L146.379 285.995L146.522 294.3Z" stroke="#4E12F5" stroke-width="1.5" stroke-miterlimit="10"/>
<path fill-rule="evenodd" clip-rule="evenodd" d="M37.3146 399.26L34.7667 399.957L32.5376 399.26" fill="white"/>
<path d="M37.3146 399.26L34.7667 399.957L32.5376 399.26" stroke="#4E12F5" stroke-width="1.5" stroke-miterlimit="10"/>
<path fill-rule="evenodd" clip-rule="evenodd" d="M33.1331 400.757L31.918 397.523L24.877 397.51L25.3626 400.477L29.4969 400.592" fill="white"/>
<path d="M30.4208 412.319L23.5995 413.548M33.1331 400.757L31.918 397.523L24.877 397.51L25.3626 400.477L29.4969 400.592L33.1331 400.757ZM29.4902 404.193L22.5647 405.384L29.4902 404.193ZM29.7787 408.25L22.8127 409.543L29.7787 408.25Z" stroke="#4E12F5" stroke-width="1.5" stroke-miterlimit="10"/>
<path d="M72.0233 367.414C73.6096 368.226 75.4162 368.188 76.9856 367.25C78.5145 366.413 79.6845 364.981 79.6675 363.231C79.685 362.889 79.5171 362.711 79.1639 362.698C78.9149 362.724 78.5848 362.952 78.6079 363.193C78.5494 365.729 75.1847 367.871 72.701 366.616C72.3883 366.501 72.1394 366.527 71.954 366.692C71.7282 366.958 71.7107 367.3 72.0233 367.414Z" fill="#4E12F5"/>
<path d="M127.555 360.255C127.555 360.255 147.326 345.156 151.015 322.79C151.015 322.79 152.806 314.726 151.997 308.387C151.997 308.387 145.692 305.038 134.423 308.131C134.423 308.131 137.014 320.468 129.999 331.74C122.985 343.011 112.724 345.076 112.724 345.076" fill="white"/>
<path d="M127.555 360.255C127.555 360.255 147.326 345.156 151.015 322.79C151.015 322.79 152.806 314.726 151.997 308.387C151.997 308.387 145.692 305.038 134.423 308.131C134.423 308.131 137.014 320.468 129.999 331.74C122.985 343.011 112.724 345.076 112.724 345.076" stroke="#4E12F5" stroke-width="1.5" stroke-miterlimit="10"/>
<path d="M154.951 371.188L158.123 374.904C158.691 375.576 158.575 376.463 157.874 377.021L149.077 384.387" stroke="#4E12F5" stroke-width="1.5" stroke-miterlimit="10" stroke-linecap="round" stroke-linejoin="round"/>
<path d="M441.701 47.8867L449 47.3478L460.469 46.5394H466.03L467.42 46.2699L469.158 46.5394L472.981 47.3478C474.487 47.7969 477.708 48.8029 478.542 49.234C479.376 49.6652 482.829 51.5694 484.451 52.4676L488.274 55.1622C488.969 55.8808 490.498 57.4257 491.054 57.8569C491.749 58.3958 493.487 62.1683 493.835 62.9767C494.182 63.7851 494.877 67.2882 495.225 68.6355C495.503 69.7134 495.573 73.2164 495.573 74.8332L495.225 79.4141L493.835 85.8812L491.749 92.8873L488.969 99.085L486.536 102.858L471.591 124.684L461.859 137.619L452.823 147.05L435.793 164.834L424.671 175.883L417.025 182.619L405.903 178.308L402.08 176.691L401.384 177.499L395.128 182.08L385.397 188.278L370.452 196.631L366.281 198.787C366.397 200.045 366.768 203.045 367.324 204.985C368.019 207.41 369.757 210.105 370.452 211.452C371.147 212.799 371.147 214.955 371.147 216.841C371.147 218.727 369.409 220.883 368.019 222.231C366.907 223.308 365.702 222.859 365.238 222.5L363.501 220.883L354.464 211.452L346.818 202.56L345.08 200.673L352.726 194.206L360.373 188.008L364.196 184.775L374.97 175.883L381.226 171.032L384.354 168.068C380.299 166.092 371.773 161.924 370.104 161.062C368.019 159.984 368.019 160.254 366.281 160.793C364.891 161.224 362.458 162.589 361.415 163.218C359.909 164.116 356.758 166.128 356.202 166.99C355.507 168.068 352.726 170.224 350.641 171.571C348.973 172.649 346.47 172.2 345.428 171.841L341.952 170.224L339.172 168.876L344.733 160.793L350.641 152.709L356.55 145.433L357.592 144.625L360.373 144.894L387.83 150.553L394.781 151.9L398.604 143.277L402.08 136.541L406.598 128.187L413.549 117.139L417.372 110.672L419.11 107.169L407.988 101.78V96.6598L408.683 88.8454C409.031 86.9591 409.726 83.0249 409.726 82.3782C409.726 81.7315 411.348 76.0009 412.159 73.2164L414.939 66.2103L415.634 65.1324V60.5515C415.634 60.2821 415.773 59.5276 416.329 58.6653C416.885 57.803 419.805 57.4078 421.195 57.318C421.427 57.1383 421.96 56.6174 422.238 55.9706C422.585 55.1622 427.104 52.1981 429.189 50.8508C430.857 49.7729 433.823 48.9645 435.098 48.6951L441.701 47.8867Z" fill="white"/>
<path d="M486.256 140.042C486.485 138.504 486.714 137.075 486.943 135.646C487.057 134.327 487.172 132.898 487.401 131.579C487.057 134.437 486.599 137.295 486.256 140.042Z" fill="#E9E1FF"/>
<path d="M435.168 48.8154C432.534 51.893 429.441 56.6193 426.005 69.5891M409.052 116.191C406.876 107.068 404.7 61.894 431.045 50.0234C432.19 49.4738 433.45 49.1441 434.825 48.9242L438.719 48.2648C447.425 47.3855 463.919 45.8467 468.386 46.5062C473.083 47.1657 477.664 48.5945 481.673 50.6829C484.079 52.0018 485.797 54.4199 486.141 57.0579C486.942 63.9824 486.599 71.0169 485.339 77.8315C484.079 84.9759 481.903 92.0103 478.924 98.6051C475.946 105.2 472.281 111.465 467.814 117.18C466.783 118.609 465.637 119.928 464.492 121.247C464.148 121.687 463.69 122.127 463.232 122.566C463.117 122.676 463.117 122.786 463.003 122.896L409.052 116.191Z" stroke="#4E12F5" stroke-width="1.5" stroke-miterlimit="10"/>
<path d="M476.405 48.4844C492.671 55.1891 493.702 61.4542 495.191 68.4886C496.909 76.7321 493.702 89.4821 488.891 99.4842L476.405 48.4844ZM431.389 127.513C427.037 133.449 412.375 151.584 408.022 157.52L431.389 127.513Z" stroke="#4E12F5" stroke-width="1.5" stroke-miterlimit="10"/>
<path d="M478.81 119.379C478.511 119.692 478.194 120.023 477.862 120.373C465.244 133.641 429.794 172.408 417.071 182.689C399.431 176.424 385.228 167.96 368.275 160.266C368.275 160.266 360.371 162.245 354.988 168.18C347.886 175.984 343.304 170.378 339.639 169.06M417.071 182.47C418.789 179.502 418.102 174.996 416.613 171.808" stroke="#4E12F5" stroke-width="1.5" stroke-miterlimit="10"/>
<path d="M414.665 115.642C411.916 119.27 409.511 123.226 407.334 126.963C403.325 134.218 397.598 144.33 394.735 152.024M347.886 156.42C351.551 151.364 355.56 146.308 357.508 144.55C357.508 144.55 359.455 144.66 359.34 144.879C355.102 151.694 343.304 170.379 339.181 168.95C338.951 169.06 343.19 162.795 347.886 156.42ZM363.808 146.417C359.569 153.232 351.895 163.564 351.895 163.564C351.895 163.564 346.053 172.576 342.846 170.598L363.808 146.417ZM345.137 200.604C346.282 199.615 348.115 199.285 348.917 200.275C351.895 203.682 358.08 210.057 360.715 213.244C363.349 216.432 365.64 219.509 366.557 221.598C367.129 222.807 367.015 223.686 365.411 222.477C364.495 221.818 363.464 220.828 362.433 219.839C355.904 213.574 349.948 206.1 345.137 200.604ZM370.108 218.851C369.077 216.763 366.786 213.355 364.151 210.058C361.517 206.871 354.186 198.957 351.208 195.549L370.108 218.851ZM418.903 108.278C431.274 103.002 450.632 103.332 462.087 110.476C463.461 111.246 464.721 112.235 465.638 113.444C466.554 114.763 466.898 115.533 467.585 117.401L418.903 108.278Z" stroke="#4E12F5" stroke-width="1.5" stroke-miterlimit="10"/>
<path d="M401.607 177.193C392.558 185.327 366.213 198.846 366.213 198.846C366.213 198.846 366.213 204.891 369.879 210.717C373.544 216.542 368.848 221.598 368.848 221.598L367.13 223.027M458.307 118.94L463.118 111.356M452.694 115.093L457.047 108.279M445.936 113.224L450.747 105.64M439.063 111.795L443.302 105.2M431.733 111.356L436.2 104.871M424.058 112.345L429.556 105.421M357.622 190.714L366.213 198.847M368.275 160.376L372.628 149.055M410.313 155.101C397.255 152.463 384.197 150.264 371.024 148.396L359.684 144.769L410.313 155.101ZM384.311 168.071C375.949 176.205 365.984 184.668 356.477 191.593L345.137 200.606L384.311 168.071Z" stroke="#4E12F5" stroke-width="1.5" stroke-miterlimit="10"/>
<path d="M458.88 96.7372H444.447C439.522 96.7372 437.918 92.2308 438.491 87.0649L441.011 71.5671C441.355 67.7201 444.791 64.7524 448.686 64.7524L459.911 64.5326C463.806 64.4227 467.356 67.3904 467.815 71.2373L466.784 86.845C467.471 92.2308 463.92 96.7372 458.88 96.7372Z" fill="#20F7D5" stroke="#4E12F5" stroke-width="1.5" stroke-miterlimit="10"/>
<path d="M458.88 92.8907H444.447C439.522 92.8907 437.918 88.3842 438.491 83.2183L441.011 67.7205C441.355 63.8735 444.791 60.9059 448.686 60.9059L459.911 60.6861C463.806 60.5761 467.356 63.5438 467.815 67.3908L466.784 82.9985C467.471 88.2743 463.92 92.8907 458.88 92.8907Z" fill="#20F7D5" stroke="#4E12F5" stroke-width="1.5" stroke-miterlimit="10"/>
<path d="M453.267 86.7358C454.239 86.7358 455.171 86.3652 455.858 85.7056C456.546 85.046 456.932 84.1514 456.932 83.2186C456.932 82.2857 456.546 81.3911 455.858 80.7315C455.171 80.0719 454.239 79.7013 453.267 79.7013C452.294 79.7013 451.362 80.0719 450.675 80.7315C449.987 81.3911 449.601 82.2857 449.601 83.2186C449.601 84.1514 449.987 85.046 450.675 85.7056C451.362 86.3652 452.294 86.7358 453.267 86.7358V86.7358Z" fill="white" stroke="#4E12F5" stroke-width="1.5" stroke-miterlimit="10"/>
<path d="M462.659 123.117C461.514 124.986 457.39 128.833 454.527 131.47C452.809 133.009 452.923 135.537 454.641 137.076C456.016 138.285 457.734 139.604 458.765 140.373C459.452 140.923 460.483 140.813 460.941 140.154C462.087 138.945 463.69 136.856 464.148 135.647C463.805 137.076 465.408 140.154 465.408 140.154L467.928 139.824C467.928 139.494 468.272 136.417 468.616 135.317C468.959 134.218 471.136 127.953 471.136 127.404" fill="white"/>
<path d="M462.201 123.007L471.136 128.723M462.659 123.117C461.514 124.985 457.39 128.832 454.527 131.47C452.809 133.009 452.923 135.537 454.641 137.076C456.016 138.285 457.734 139.604 458.765 140.373C459.452 140.923 460.483 140.813 460.941 140.154C462.087 138.944 463.69 136.856 464.148 135.647C463.805 137.076 465.408 140.154 465.408 140.154L467.928 139.824C467.928 139.494 468.272 136.416 468.616 135.317C468.959 134.218 471.136 127.953 471.136 127.404L462.659 123.117Z" stroke="#4E12F5" stroke-width="1.5" stroke-miterlimit="10"/>
<path d="M472.395 38.8133L467.126 46.5073L460.482 46.6172L448.455 47.4965C448.455 47.4965 449.944 43.6495 441.697 39.3629C433.45 35.0763 432.19 24.5246 432.19 24.5246C430.128 13.7531 437.459 3.31133 448.799 1.33289C460.139 -0.645547 470.906 6.38891 472.968 17.2703" fill="white"/>
<path d="M472.395 38.8133L467.126 46.5073L460.482 46.6172L448.455 47.4965C448.455 47.4965 449.944 43.6495 441.697 39.3629C433.45 35.0763 432.19 24.5246 432.19 24.5246C430.128 13.7531 437.459 3.31133 448.799 1.33289C460.139 -0.645547 470.906 6.38891 472.968 17.2703" stroke="#4E12F5" stroke-width="1.5" stroke-miterlimit="10"/>
<path d="M443.165 27.8889C444.86 27.6822 445.937 25.2697 445.57 22.4998C445.206 19.7289 443.536 17.6505 441.841 17.856C440.146 18.0626 439.069 20.4753 439.435 23.2451C439.8 26.016 441.47 28.0944 443.165 27.8889Z" fill="#20F7D5" stroke="#4E12F5" stroke-width="1.5" stroke-miterlimit="10"/>
<path d="M414.665 115.752L421.767 102.342" stroke="#4E12F5" stroke-width="1.5" stroke-miterlimit="10"/>
<path d="M482.705 75.0848L424.287 74.5352C422.111 74.5352 420.278 72.8865 420.278 70.908C420.278 68.9296 422.111 67.3908 424.401 67.3908L482.819 67.9404C484.995 67.9404 486.828 69.5891 486.828 71.5675C486.828 73.546 484.995 75.0848 482.705 75.0848V75.0848Z" fill="white" stroke="#4E12F5" stroke-width="1.5" stroke-miterlimit="10"/>
<path d="M476.634 87.174L477.092 75.743C477.092 74.8637 478.924 74.3141 481.101 74.3141C483.277 74.3141 484.995 75.0835 484.995 75.8529L484.537 87.2839C484.537 88.1632 482.704 88.7128 480.528 88.7128C478.352 88.7128 476.634 88.0533 476.634 87.174V87.174Z" fill="white" stroke="#4E12F5" stroke-width="1.5" stroke-miterlimit="10"/>
<path d="M474.228 80.3595L474.916 61.4544C474.916 60.0255 477.894 59.0363 481.445 59.0363C484.995 59.1462 487.974 60.2454 487.859 61.6742L487.057 80.4694C487.057 81.8983 484.079 82.8875 480.528 82.8875C477.092 82.8875 474.228 81.6785 474.228 80.3595Z" fill="white" stroke="#4E12F5" stroke-width="1.5" stroke-miterlimit="10"/>
<path d="M487.745 61.8939C487.745 62.7732 484.881 63.3227 481.33 63.2128C477.779 63.1029 474.916 62.3335 474.916 61.4542" stroke="#4E12F5" stroke-width="1.5" stroke-miterlimit="10"/>
<path d="M417.987 84.866L418.445 74.4242C418.445 73.6548 420.049 73.1052 421.996 73.1052C423.943 73.1052 425.547 73.7647 425.547 74.5341L425.089 84.9759C425.089 85.7453 423.485 86.2948 421.538 86.2948C419.476 86.2948 417.987 85.6354 417.987 84.866Z" fill="white" stroke="#4E12F5" stroke-width="1.5" stroke-miterlimit="10"/>
<path d="M415.124 78.4912L415.811 59.6961C415.811 58.2672 418.675 57.278 422.226 57.278C425.776 57.3879 428.64 58.487 428.64 59.9159L427.953 78.7111C427.953 80.1399 425.089 81.1292 421.538 81.1292C417.987 81.0192 415.124 79.9201 415.124 78.4912Z" fill="white" stroke="#4E12F5" stroke-width="1.5" stroke-miterlimit="10"/>
<path d="M428.639 85.965C428.754 91.7904 428.868 97.6158 428.983 103.331C428.983 105.09 429.098 106.958 429.785 108.607C430.472 110.366 431.847 111.795 432.877 113.443C435.168 117.4 434.71 122.236 434.137 126.743C433.679 130.37 433.45 134.217 434.481 137.514C434.825 138.394 433.679 139.163 432.877 138.613C430.358 136.855 428.639 133.997 427.608 131.139C426.348 127.842 425.89 124.325 424.859 120.917C424.63 120.258 423.714 120.038 423.256 120.588C421.079 123.336 420.85 127.292 421.538 130.7C422.11 133.667 423.141 136.635 423.599 139.713C423.828 140.922 422.339 141.581 421.308 140.922C413.749 135.976 415.123 126.523 415.352 124.325C415.696 121.577 417.529 119.159 419.018 116.851C421.881 112.344 416.039 105.969 414.207 108.717C412.374 111.465 411.687 114.652 409.625 117.29C408.136 119.049 406.876 121.247 406.532 123.445C406.418 123.775 405.96 123.885 405.845 123.445C405.043 119.928 404.585 116.411 404.7 112.784C404.929 108.277 406.303 103.771 409.396 100.364C411.458 98.0554 414.321 96.1869 415.238 93.2193C416.154 90.1417 414.665 86.6244 414.894 83.5469C415.009 82.7775 416.039 82.3378 416.612 82.8874C417.987 84.0965 419.705 84.8658 421.538 84.9758C423.141 85.0857 424.859 84.7559 426.234 83.8766C427.15 83.3271 428.41 83.7667 428.525 84.8658L428.639 85.965V85.965Z" fill="#FFCF33" stroke="#4E12F5" stroke-width="1.5" stroke-miterlimit="10"/>
<path d="M428.64 60.0251C428.64 60.9044 425.777 61.454 422.226 61.3441C418.675 61.2342 415.811 60.4648 415.926 59.5854" stroke="#4E12F5" stroke-width="1.5" stroke-miterlimit="10"/>
<path d="M487.859 97.8359C486.943 96.8467 486.141 95.6376 485.797 94.3187C485.11 91.4609 486.599 88.4933 486.484 85.6355C486.484 84.8661 485.568 84.5364 484.995 84.976C483.735 85.9653 482.132 86.6247 480.528 86.7347C479.039 86.7347 477.55 86.4049 476.404 85.6355C475.603 85.086 474.457 85.5256 474.343 86.4049L474.114 87.2842C473.77 92.4501 473.426 97.6161 473.197 102.782C473.083 104.321 472.968 105.969 472.281 107.508C471.594 109.047 470.334 110.256 469.417 111.685C467.241 115.202 467.47 119.489 467.814 123.556C468.043 126.743 468.157 130.26 467.126 133.228C466.783 133.997 467.814 134.767 468.501 134.217C470.792 132.678 472.395 130.26 473.541 127.732C474.686 124.765 479.726 124.545 479.039 127.622C478.466 130.26 477.435 132.898 476.863 135.536C476.634 136.635 478.008 137.405 478.924 136.745C482.017 134.217 484.079 130.37 485.797 126.633C486.599 124.875 487.515 123.006 487.286 121.138C487.057 118.719 485.224 116.741 484.079 114.653C481.674 110.476 483.163 106.739 484.652 109.157C486.255 111.575 488.432 113.663 490.264 115.972C491.524 117.62 492.555 119.599 492.899 121.577C492.899 121.907 493.472 121.907 493.472 121.577C494.273 118.5 494.846 115.312 494.846 112.125C494.846 108.058 493.701 103.991 491.066 100.804C489.806 99.9242 488.775 98.935 487.859 97.8359V97.8359Z" fill="#FFCF33" stroke="#4E12F5" stroke-width="1.5" stroke-miterlimit="10"/>
<path d="M442.5 22.8758C441.469 31.0094 460.254 33.3176 455.787 51.8929C453.152 62.9942 440.782 87.8346 449.029 87.9445C452.694 88.0544 453.267 85.8561 453.152 83.2182" stroke="#4E12F5" stroke-width="1.5" stroke-miterlimit="10"/>
<path d="M472.396 38.8133C479.497 28.1517 476.634 13.4233 465.981 5.83929L457.619 22.8759L458.421 25.4039L472.396 38.8133V38.8133Z" fill="#20F7D5" stroke="#4E12F5" stroke-width="1.5" stroke-miterlimit="10"/>
<path d="M457.963 26.3918C458.844 26.3918 459.689 26.056 460.312 25.4582C460.934 24.8605 461.284 24.0497 461.284 23.2043C461.284 22.359 460.934 21.5482 460.312 20.9504C459.689 20.3527 458.844 20.0168 457.963 20.0168C457.082 20.0168 456.237 20.3527 455.614 20.9504C454.991 21.5482 454.641 22.359 454.641 23.2043C454.641 24.0497 454.991 24.8605 455.614 25.4582C456.237 26.056 457.082 26.3918 457.963 26.3918V26.3918Z" fill="white" stroke="#4E12F5" stroke-width="1.5" stroke-miterlimit="10"/>
<path d="M303.534 248.789L310.498 252.703L311.317 253.486L298.618 273.059L284.69 291.457L279.774 296.546L275.023 294.589L268.713 293.023C268.167 292.893 266.091 292.553 262.159 292.24C257.243 291.849 255.604 293.806 254.375 294.589C253.392 295.215 250.142 299.286 248.64 301.243C247.002 303.853 243.151 310.012 240.857 313.77C238.563 317.528 234.166 327.079 232.254 331.385L221.193 358.395L214.639 376.011L205.627 399.106L195.795 422.594L190.469 437.077L185.963 452.735C185.417 455.215 184.079 461.347 183.096 466.045C182.112 470.742 182.14 475.57 182.276 477.397C182.413 478.441 182.85 481.39 183.505 484.834C184.161 488.279 188.421 491.228 190.469 492.272L197.433 495.404C200.164 496.186 206.774 497.987 211.362 498.927C215.95 499.866 221.193 496.186 223.242 494.229L226.519 490.315L233.483 480.137L240.857 467.219L248.231 450.778L257.653 428.074L265.846 408.11L272.4 392.06L278.955 374.836L283.051 362.31L285.919 352.132L296.57 345.478L306.811 337.257L317.462 326.296L335.077 304.375L343.27 292.24C343.68 292.632 344.663 293.884 345.319 295.763C345.974 297.642 346.684 304.636 346.957 307.898C346.957 312.726 347.367 319.25 346.957 325.514C346.574 331.374 342.451 351.349 341.222 356.047C340.239 359.805 335.896 375.097 333.848 382.274L314.594 432.38L299.028 471.525C293.293 484.834 283.461 504.329 281.822 507.147C277.953 513.802 268.713 526.328 258.472 534.157C248.509 541.773 233.893 548.25 219.964 550.598C206.036 552.947 183.088 546.5 172.854 541.986C162.203 537.289 143.359 522.805 137.624 513.41C131.889 504.016 130.66 500.884 129.021 489.14C127.382 477.397 130.25 452.344 132.299 442.949C133.937 435.433 141.174 414.765 144.588 405.37L167.529 347.826C172.172 336.213 181.703 312.361 182.686 309.855C183.915 306.724 193.745 287.937 195.385 284.803L195.385 284.803C197.024 281.671 203.578 271.885 206.446 268.362C209.313 264.838 217.507 256.618 222.013 252.703C226.519 248.789 237.989 243.7 243.724 242.134C249.46 240.568 263.388 240.177 265.846 240.177C268.304 240.177 280.593 241.743 287.148 243.7C292.391 245.266 300.257 247.745 303.534 248.789Z" fill="#20F7D5" stroke="#4E12F5" stroke-width="3"/>
<path d="M242.905 242.526C248.149 240.647 256.56 240.438 260.111 240.568L279.774 205.338C287.148 191.898 302.223 164.47 303.534 162.278C305.173 159.538 315.004 144.271 317.053 141.14C319.101 138.008 326.065 129.396 329.752 125.482C333.439 121.567 338.764 118.827 343.68 116.087C347.613 113.895 353.512 114.13 355.97 114.521C357.745 114.912 361.459 115.774 362.114 116.087C362.934 116.478 368.669 118.827 371.537 121.567C374.404 124.307 374.814 129.396 375.223 132.528C375.633 135.659 373.175 143.88 372.356 145.837C371.537 147.794 359.657 173.63 358.837 175.196C358.018 176.762 340.403 206.121 338.355 210.035C336.306 213.95 313.366 250.355 309.679 255.835C305.992 261.315 290.425 283.237 287.148 287.934C283.871 292.632 273.22 303.201 266.665 308.681C261.422 313.065 255.741 312.335 253.556 311.421L244.544 307.507C242.359 311.421 237.58 320.112 235.941 323.556C234.302 327.001 227.885 342.737 224.88 350.175C225.017 350.175 225.782 350.488 227.748 351.741C230.206 353.307 240.857 356.438 249.869 358.004C258.882 359.57 265.846 358.396 274.039 356.438C282.232 354.481 295.341 346.652 299.028 343.912C302.715 341.172 315.414 328.254 319.92 323.948C324.426 319.642 342.861 293.415 348.596 284.411C354.331 275.408 373.994 245.266 379.73 235.088C385.465 224.91 397.754 202.989 398.574 201.423C399.393 199.858 407.176 183.417 407.586 182.242C407.996 181.068 415.37 161.495 415.779 159.929C416.189 158.364 419.466 144.663 419.876 142.314C420.285 139.965 421.105 129.396 421.105 125.873C421.105 122.35 419.876 114.912 418.647 109.432C417.664 105.048 414.414 98.9934 412.912 96.5142C411.819 94.9484 409.143 91.2688 407.176 89.0766C404.719 86.3365 398.983 82.4219 393.658 78.8989C388.332 75.3758 380.959 73.4185 376.452 72.2442C371.946 71.0698 360.066 70.6784 357.199 70.6784C354.331 70.6784 343.68 71.8528 336.716 73.81C329.932 75.7168 317.053 81.6391 311.317 86.3365L311.007 86.5903C306.064 90.638 294.383 100.202 287.967 107.866C269.356 130.097 252.675 154.426 238.399 179.111L224.88 204.163L208.085 235.48C204.807 242.656 197.925 257.949 196.614 261.707C195.303 265.465 191.698 280.236 190.06 287.151L189.24 296.938L192.108 291.457C194.566 286.76 201.53 275.016 204.398 271.102C207.265 267.187 216.278 257.401 222.013 252.704C227.748 248.006 236.351 244.874 242.905 242.526Z" fill="#20F7D5" stroke="#4E12F5" stroke-width="3"/>
<path d="M216.926 346.63C231.44 314.561 245.047 271.226 276.796 289.427" stroke="#4E12F5" stroke-width="3" stroke-linecap="round" stroke-linejoin="round"/>
<path d="M157.056 523.439C157.056 523.439 198.784 555.507 237.79 536.439C276.797 517.372 295.079 457.785 295.079 457.785" stroke="#4E12F5" stroke-width="3" stroke-linecap="round" stroke-linejoin="round"/>
<path d="M377.487 79.6826C377.487 79.6826 411.958 90.9498 411.958 127.352C411.958 165.526 375.11 226.157 375.11 226.157" stroke="#4E12F5" stroke-width="3" stroke-linecap="round" stroke-linejoin="round"/>
<path d="M329.629 303.811L331.339 302.243C331.85 303.431 333.055 306.193 333.796 307.731C334.722 309.654 336.017 310.507 337.321 311.089C338.364 311.555 340.401 311.368 341.289 311.216L344.974 309.981L352.031 306.959L356.405 304.935C356.739 304.855 357.346 304.532 357.104 303.875C356.802 303.054 356.896 300.352 357.274 299.011C357.652 297.671 358.71 295.811 359.059 295.281C359.339 294.857 360.763 293.893 361.44 293.463L362.451 292.955L359.682 286.915L359.087 285.003C359.311 284.92 359.824 284.756 360.089 284.764C360.419 284.775 363.726 284.88 365.039 285.192C366.353 285.505 368.951 286.94 369.593 287.502C370.107 287.951 371.288 289.539 371.814 290.277L372.4 292.46L372.683 293.822C373.568 293.76 375.471 293.64 376 293.657C376.661 293.678 377.001 293.418 377.011 293.148C377.018 292.932 377.7 292.358 378.04 292.099C378.377 291.929 379.382 291.6 380.705 291.643C382.027 291.685 382.994 292.437 383.312 292.808L383.284 293.618C384.056 293.643 385.862 293.755 386.912 294.004C387.963 294.254 390.821 295.842 392.118 296.605L395.331 299.412L397.561 301.918L403.211 310.754L407.823 320.91L412.274 335.659L417.027 351.229L419.116 357.788L416.763 358.795C417.274 359.983 418.355 362.524 418.597 363.181C418.899 364.003 419.485 366.185 419.759 367.817C420.033 369.449 419.041 369.417 417.69 370.186C416.609 370.8 413.454 371.403 412.012 371.628L416.396 378.801L436.747 374.309L439.421 373.583C442.901 371.891 449.995 368.456 450.531 368.256C451.068 368.057 451.838 368.749 452.156 369.12L459.46 378.009C460.935 380.039 464.134 384.487 465.139 386.034C466.145 387.581 465.722 388.307 465.385 388.477C465.152 388.83 464.412 389.798 463.316 390.845C462.22 391.892 459.779 391.003 458.696 390.428C457.509 389.668 454.618 387.755 452.555 386.174C450.491 384.594 447.758 384.489 446.649 384.634L444.977 385.121L434.263 388.567L431.249 389.553L443.995 394.287L450.203 396.649C450.637 396.843 451.835 397.296 453.151 397.554C454.466 397.813 454.788 398.058 454.785 398.148L455.324 401.681L455.22 404.654C454.849 405.814 453.958 408.563 453.369 410.275C452.779 411.988 451.763 412.027 451.328 411.833L448.352 411.738L431.506 410.661C430.186 410.528 426.098 410.056 420.301 409.222C414.503 408.388 410.685 406.481 409.501 405.631L406.27 403.364L403.69 401.389L391.739 402.36L387.752 402.774L381.903 399.613L378.69 396.805L375.497 393.457L370.064 387.874L363.317 381.979C362.032 380.856 362.042 380.585 359.359 381.582C357.212 382.379 356.077 380.756 355.778 379.845L354.247 376.279L353.018 373.535L353.406 371.925L354.114 370.595L345.477 352.466C345.383 352.012 344.992 351.206 344.183 351.613C343.374 352.02 342.095 351.366 341.556 350.989L339.959 349.315L337.455 345.177L333.761 337.215L331.36 330.105L330.538 325.21L330.368 320.606L330.755 318.995L330.131 317.893L325.728 311.261L327.853 307.271L329.629 303.811Z" fill="white"/>
<path d="M351.442 266.906L342.429 269.053L340.153 286.834L346.871 284.073L353.928 281.051C354.936 280.633 357.087 279.691 357.632 279.276L360.012 277.458C360.557 277.043 360.516 275.671 360.428 275.037L359.511 272.844C359.209 272.022 358.357 269.885 357.366 267.906C356.376 265.927 354.119 266.089 353.115 266.418L351.442 266.906Z" fill="white"/>
<path d="M322.792 321.038C323.427 321.61 324.061 322.181 324.801 322.867C325.755 323.67 326.705 324.582 327.764 325.499C326.074 323.9 324.377 322.522 322.792 321.038V321.038Z" fill="#E9E1FF"/>
<path d="M322.792 321.039C323.216 321.383 311.014 311.505 296.753 301.231L322.792 321.039Z" fill="#E9E1FF"/>
<path d="M332.479 281.073L334.989 281.043L339.431 281.957L342.086 284.027L352.702 279.952" fill="#E9E1FF"/>
<path d="M414.683 320.324C416.671 319.615 419.788 327.217 420.529 330.993C421.259 335.098 423.964 345.115 425.321 350.013C425.512 350.791 426.606 350.716 426.741 349.948C427.763 345.677 429.457 337.787 429.44 335.138C429.07 323.872 419.002 318.476 415.557 307.774C414.871 305.545 414.076 303.313 413.281 301.081C413.086 300.413 412.331 300.168 411.778 300.371C411.113 300.681 410.331 301.207 409.448 301.51C408.012 302.016 406.587 302.192 406.26 302.181C404.948 302.25 405.21 304.134 405.288 305.019C405.347 306.455 405.515 307.895 405.796 309.228C406.136 311.997 405.518 314.074 406.185 316.854C406.851 319.633 411.344 331.583 412.676 334.053C412.661 334.493 413.025 320.933 414.683 320.324V320.324Z" fill="#FFCF33" stroke="#4E12F5" stroke-width="1.5" stroke-miterlimit="10"/>
<path d="M401.883 296.304L397.998 285.698C397.601 284.582 398.188 283.387 399.184 282.978L404.932 280.844C406.037 280.438 407.217 281.027 407.618 282.033L411.608 292.752C412.302 294.76 411.349 297.047 409.361 297.756L407.15 298.568C404.94 299.381 402.686 298.316 401.883 296.304V296.304Z" fill="white" stroke="#4E12F5" stroke-width="1.5" stroke-miterlimit="10"/>
<path d="M325.634 311.529L303.187 320.082C301.751 320.588 300.139 319.875 299.535 318.421C299.04 316.971 299.752 315.338 301.192 314.722L329.499 303.928" fill="white"/>
<path d="M325.634 311.529L303.187 320.082C301.751 320.588 300.139 319.875 299.535 318.421C299.04 316.971 299.752 315.338 301.192 314.722L329.499 303.928" stroke="#4E12F5" stroke-width="1.5" stroke-miterlimit="10"/>
<path d="M370.52 288.354L392.523 280.007C393.959 279.501 395.571 280.215 396.174 281.668C396.669 283.118 395.958 284.751 394.518 285.367L372.737 293.61" fill="white"/>
<path d="M370.52 288.354L392.523 280.007C393.959 279.501 395.571 280.215 396.174 281.668C396.669 283.118 395.958 284.751 394.518 285.367L372.737 293.61" stroke="#4E12F5" stroke-width="1.5" stroke-miterlimit="10"/>
<path d="M462.943 397.445L467.272 398.466L467.377 398.579C467.482 398.693 473.397 404.288 477.584 412.476C479.22 415.618 479.109 418.814 478.362 421.438C477.398 424.056 476.126 426.111 475.099 427.403C474.189 428.477 472.757 428.873 471.461 428.501L466.501 426.798" fill="white"/>
<path d="M462.943 397.445L467.272 398.466L467.377 398.579C467.482 398.693 473.397 404.288 477.584 412.476C479.22 415.618 479.109 418.814 478.362 421.438C477.398 424.056 476.126 426.111 475.099 427.403C474.189 428.477 472.757 428.873 471.461 428.501L466.501 426.798" stroke="#4E12F5" stroke-width="1.5" stroke-miterlimit="10"/>
<path d="M453.421 410.822L462.355 423.685C463.177 425.146 465.111 425.98 466.828 426.807C467.58 427.162 468.339 427.296 469.105 427.21C470.744 427.152 472.086 426.202 472.899 424.793C474.299 422.19 476.333 417.069 473.548 412.456C469.731 406.156 464.52 399.149 463.582 397.905L454.653 397.4" fill="white"/>
<path d="M453.421 410.822L462.355 423.685C463.177 425.146 465.111 425.98 466.828 426.807C467.58 427.162 468.339 427.296 469.105 427.21C470.744 427.152 472.086 426.202 472.899 424.793C474.299 422.19 476.333 417.069 473.548 412.456C469.731 406.156 464.52 399.149 463.582 397.905L454.653 397.4" stroke="#4E12F5" stroke-width="1.5" stroke-miterlimit="10"/>
<path d="M455.107 403.153L459.604 408.703C459.916 409.154 460.115 409.712 459.878 410.256C459.874 410.367 459.757 410.584 459.644 410.69L459.531 410.797C459.298 411.231 458.742 411.544 458.193 411.637C457.644 411.73 457.107 411.492 456.795 411.041L454.175 407.978" fill="white"/>
<path d="M455.107 403.153L459.604 408.703C459.916 409.154 460.115 409.712 459.878 410.256C459.874 410.367 459.757 410.584 459.644 410.69L459.531 410.797C459.298 411.231 458.742 411.544 458.193 411.637C457.644 411.73 457.107 411.492 456.795 411.041L454.175 407.978" stroke="#4E12F5" stroke-width="1.5" stroke-miterlimit="10" stroke-linecap="round"/>
<path d="M471.219 426.065C463.782 420.311 465.953 417.511 466.42 416.644C468.154 413.83 472.773 419.053 474.882 418.017" fill="white"/>
<path d="M471.452 425.63C469.751 424.362 468.061 422.763 466.927 420.851C466.62 420.29 466.417 419.842 466.331 419.177C466.23 418.954 466.234 418.843 466.241 418.623L466.257 418.182L466.261 418.072C466.264 417.962 466.381 417.745 466.385 417.634C466.385 417.634 466.502 417.417 466.389 417.524C466.385 417.634 466.393 417.414 466.502 417.417C466.618 417.201 466.735 416.984 466.961 416.77C467.758 415.802 469.576 416.853 470.433 417.322C471.717 418.025 473.532 419.186 475.08 418.574C475.746 418.264 475.232 417.365 474.57 417.564C474.126 417.771 473.371 417.526 472.943 417.292L470.689 416.227C469.401 415.634 467.575 414.804 466.337 415.867C464.875 417.145 464.907 419.353 465.721 421.034C466.843 423.276 468.852 425.106 470.872 426.604C471.402 427.063 471.982 426.088 471.452 425.63Z" fill="#4E12F5"/>
<path d="M431.359 389.596C431.359 389.596 444.828 385.06 446.256 384.774C453.082 383.006 457.002 392.62 463.166 391.051L465.893 387.938" stroke="#4E12F5" stroke-width="1.5" stroke-miterlimit="10"/>
<path d="M416.245 378.744L439 373.842L450.212 368.351" fill="white"/>
<path d="M416.245 378.744L439 373.842L450.212 368.351" stroke="#4E12F5" stroke-width="1.5" stroke-miterlimit="10"/>
<path d="M328.011 309.067C328.011 309.067 318.088 315.15 328.748 341.088C330.053 344.33 331.911 347.368 333.999 350.083L354.456 376.664L362.468 372.175" fill="white"/>
<path d="M328.011 309.067C328.011 309.067 318.088 315.15 328.748 341.088C330.053 344.33 331.911 347.368 333.999 350.083L354.456 376.664L362.468 372.175" stroke="#4E12F5" stroke-width="1.5" stroke-miterlimit="10"/>
<path d="M331.417 302.114C326.588 306.042 325.944 318.269 335.317 321.657C342.538 324.204 353.057 319.795 358.392 316.986C373.927 309.536 380.626 283.269 359.184 284.903" stroke="#4E12F5" stroke-width="1.5" stroke-miterlimit="10"/>
<path d="M359.886 286.691C377.903 286.272 369.887 309.629 357.47 315.301C352.691 317.797 343.499 321.697 337.033 319.395C330.766 317.65 328.808 308.099 331.893 304.115" stroke="#4E12F5" stroke-width="1.5" stroke-miterlimit="10"/>
<path d="M356.96 279.868L362.391 293.061C355.877 295.281 356.982 304.253 357.2 304.26L357.297 304.595C333.353 315.417 336.646 314.86 327.287 292.274" fill="white"/>
<path d="M317.616 275.524C317.616 275.524 308.264 259.006 327.542 250.573C344.937 242.962 352.663 262.296 353.949 266.089M356.96 279.868L362.391 293.061C355.877 295.281 356.982 304.253 357.2 304.26L357.297 304.594C333.353 315.417 336.646 314.86 327.287 292.273L356.96 279.868ZM360.099 274.34C360.706 275.683 360.326 277.216 359.31 278.176L357.081 279.54C356.298 280.066 355.212 279.921 354.578 279.349C353.628 278.436 352.374 276.852 351.166 273.945C349.654 270.366 349.926 268.83 350.167 268.175C350.4 267.741 350.626 267.528 350.626 267.528L353.171 266.505C354.833 265.786 356.877 266.624 357.582 268.301L360.099 274.34V274.34Z" stroke="#4E12F5" stroke-width="1.5" stroke-miterlimit="10"/>
<path d="M319.418 273.926C319.088 267.737 320.848 261.062 328.709 257.782C345.649 250.709 351.837 267.236 351.837 267.236" fill="white"/>
<path d="M319.418 273.926C319.088 267.737 320.848 261.062 328.709 257.782C345.649 250.709 351.837 267.236 351.837 267.236" stroke="#4E12F5" stroke-width="1.5" stroke-miterlimit="10"/>
<path d="M333.772 256.51C333.772 256.51 335.306 259.428 330.536 261.703C327.096 263.359 326.224 263.331 323.903 261.05" stroke="#4E12F5" stroke-width="1.5" stroke-miterlimit="10"/>
<path d="M321.546 291.096L316.185 279.009C315.48 277.332 316.203 275.369 317.865 274.649L337.598 265.679C339.26 264.959 341.198 265.683 341.904 267.36L347.264 279.448C347.97 281.125 347.246 283.088 345.585 283.808L325.851 292.778C324.299 293.501 322.36 292.777 321.546 291.096Z" fill="#20F7D5" stroke="#4E12F5" stroke-width="1.5" stroke-miterlimit="10"/>
<path d="M384.585 385.568L391.226 389.09C391.331 389.203 403.598 403.497 412.956 407.326C421.882 411.031 450.21 412.154 452.631 411.569C453.211 410.594 456.676 405.078 454.431 397.503C451.882 398.636 433.145 388.439 421.285 387.51C421.176 387.506 412.435 372.222 412.435 372.222M335.444 271.127C338.437 269.788 339.457 271.806 339.457 271.806L344.717 283.67L335.444 271.127ZM362.5 293.063L370.223 293.751L362.5 293.063ZM363.414 310.636C357.596 302.286 367.28 293.657 367.28 293.657L363.414 310.636Z" stroke="#4E12F5" stroke-width="1.5" stroke-miterlimit="10"/>
<path d="M361.836 380.872C362.159 380.993 371.706 388.8 376.418 394.467C379.456 398.095 383.287 400.865 387.588 402.657L403.776 401.518" stroke="#4E12F5" stroke-width="1.5" stroke-miterlimit="10"/>
<path d="M381.57 400.038C381.578 399.817 382.292 394.985 387.537 391.621L381.57 400.038Z" fill="white"/>
<path d="M381.57 400.038C381.578 399.817 382.292 394.985 387.537 391.621" stroke="#4E12F5" stroke-width="1.5" stroke-miterlimit="10"/>
<path d="M413.52 406.792C413.419 406.568 412.164 401.894 415.618 396.708L413.52 406.792Z" fill="white"/>
<path d="M413.52 406.792C413.419 406.568 412.164 401.894 415.618 396.708" stroke="#4E12F5" stroke-width="1.5" stroke-miterlimit="10"/>
<path d="M408.312 359.071C392.759 370.161 377.349 377.173 358.863 381.659C357.653 381.952 356.473 381.363 355.967 380.243C354.954 378.004 354.144 376.213 353.236 374.087C352.632 372.634 353.456 370.895 354.997 370.502C372.717 366.102 387.683 359.296 402.781 348.744C404.123 347.793 405.851 348.29 406.564 349.747C407.472 351.872 408.282 353.663 409.295 355.902C409.584 357.015 409.211 358.327 408.312 359.071V359.071Z" fill="white" stroke="#4E12F5" stroke-width="1.5" stroke-miterlimit="10"/>
<path d="M374.003 379.273L371.792 380.086C371.24 380.289 370.597 379.937 370.399 379.379L365.337 364.984C365.138 364.426 365.488 363.775 366.041 363.572L368.251 362.76C368.804 362.557 369.446 362.909 369.645 363.467L374.707 377.861C374.796 378.416 374.555 379.07 374.003 379.273Z" fill="#20F7D5" stroke="#4E12F5" stroke-width="1.5" stroke-miterlimit="10"/>
<path d="M393.2 354.397L398.058 365.254M359.948 369.336L364.144 380.394L359.948 369.336ZM377.188 363.044L382.042 374.011L377.188 363.044ZM385.507 359.117L390.366 369.975L385.507 359.117Z" stroke="#4E12F5" stroke-width="1.5" stroke-miterlimit="10"/>
<path fill-rule="evenodd" clip-rule="evenodd" d="M335.964 321.899C335.964 321.899 335.83 335.135 354.122 370.584L335.964 321.899Z" fill="white"/>
<path d="M335.964 321.899C335.964 321.899 335.83 335.135 354.122 370.584" stroke="#4E12F5" stroke-width="1.5" stroke-miterlimit="10"/>
<path fill-rule="evenodd" clip-rule="evenodd" d="M339.083 335.68C339.083 335.68 358.905 333.553 381.657 319.382L339.083 335.68Z" fill="white"/>
<path d="M339.083 335.68C339.083 335.68 358.905 333.553 381.657 319.382" stroke="#4E12F5" stroke-width="1.5" stroke-miterlimit="10"/>
<path fill-rule="evenodd" clip-rule="evenodd" d="M341.709 341.722C341.709 341.722 363.411 338.883 386.054 324.708L341.709 341.722Z" fill="white"/>
<path d="M330.615 318.859C330.615 318.859 328.529 328.613 337.445 345.117C341.823 354.083 344.862 351.422 344.862 351.422M341.709 341.722C341.709 341.722 363.411 338.883 386.054 324.708L341.709 341.722ZM372.725 293.942L376.882 293.633L372.725 293.942ZM396.638 327.804L403.345 348.21L396.638 327.804Z" stroke="#4E12F5" stroke-width="1.5" stroke-miterlimit="10"/>
<path fill-rule="evenodd" clip-rule="evenodd" d="M379.024 332.319L377.359 333.148C376.915 333.355 376.374 333.227 376.171 332.779L371.271 323.134C371.068 322.686 371.196 322.139 371.64 321.932L373.306 321.103C373.749 320.896 374.29 321.024 374.493 321.471L379.393 331.117C379.596 331.564 379.468 332.112 379.024 332.319Z" fill="#20F7D5" stroke="#4E12F5" stroke-width="1.5" stroke-miterlimit="10"/>
<path d="M362.836 340.668C363.68 340.037 364.392 339.244 364.933 338.335C365.475 337.426 365.833 336.419 365.989 335.371C366.145 334.323 366.095 333.255 365.841 332.228C365.588 331.201 365.137 330.236 364.513 329.387C363.89 328.538 363.106 327.823 362.207 327.282C361.309 326.741 360.313 326.385 359.276 326.235C358.24 326.085 357.184 326.143 356.168 326.406C355.152 326.669 354.197 327.132 353.358 327.769C351.669 329.049 350.548 330.952 350.241 333.061C349.934 335.17 350.466 337.313 351.721 339.02C352.975 340.727 354.849 341.859 356.933 342.168C359.016 342.477 361.139 341.938 362.836 340.668V340.668Z" fill="#20F7D5" stroke="#4E12F5" stroke-width="1.5" stroke-miterlimit="10"/>
<path d="M338.765 301.023L341.3 303.421L344.626 301.872L345.287 298.583" stroke="#4E12F5" stroke-width="1.5" stroke-miterlimit="10"/>
<path d="M383.312 293.838C383.312 293.838 395.878 290.156 407.989 321.436L419.046 357.869L405.25 362.395L399.851 342.031L396.529 327.802L391.486 322.234" fill="white"/>
<path d="M383.312 293.838C383.312 293.838 395.878 290.156 407.989 321.436L419.046 357.869L405.25 362.395L399.851 342.031L396.529 327.802L391.486 322.234" stroke="#4E12F5" stroke-width="1.5" stroke-miterlimit="10"/>
<path d="M378.022 292.234C377.469 292.437 377.127 292.867 376.995 293.525C376.603 295.389 375.667 300.324 376.451 305.976C377.834 316.392 383.829 329.051 399.156 327.553L396.729 322.07C396.729 322.07 385.92 322.277 382.999 309.054C380.913 300.05 382.145 296.007 383.18 294.495C383.647 293.627 383.463 292.628 382.607 292.159C381.533 291.684 380.123 291.418 378.022 292.234Z" fill="white" stroke="#4E12F5" stroke-width="1.5" stroke-miterlimit="10"/>
<path fill-rule="evenodd" clip-rule="evenodd" d="M416.832 358.791C416.832 358.791 420.618 365.973 419.748 369.035C419.748 369.035 416.149 372.12 409.847 371.367L406.966 369.51" fill="white"/>
<path d="M416.832 358.791C416.832 358.791 420.618 365.973 419.748 369.035C419.748 369.035 416.149 372.12 409.847 371.367L406.966 369.51" stroke="#4E12F5" stroke-width="1.5" stroke-miterlimit="10"/>
<path fill-rule="evenodd" clip-rule="evenodd" d="M408.167 366.348L407.954 369.321L405.872 369.585L406.045 364.626L408.365 363.817L407.566 361.695" fill="white"/>
<path d="M438.662 374.161C439.286 378.153 441.565 381.646 443.847 385.029M408.167 366.348L407.954 369.321L405.872 369.585L406.045 364.626L408.365 363.817L407.566 361.695L408.167 366.348ZM410.783 366.433L411.485 371.31L410.783 366.433ZM413.733 366.305L414.436 371.182L413.733 366.305ZM416.59 365.734L417.401 370.615L416.59 365.734Z" stroke="#4E12F5" stroke-width="1.5" stroke-miterlimit="10"/>
<path d="M465.818 387.801C466.245 387.463 463.164 382.766 458.938 377.309C454.712 371.854 450.939 367.707 450.511 368.046C450.085 368.385 453.165 373.083 457.391 378.538C461.618 383.993 465.39 388.14 465.818 387.801Z" fill="white" stroke="#4E12F5" stroke-width="1.5" stroke-miterlimit="10"/>
<path d="M463.84 390.521C462.322 390.252 459.062 386.727 454.681 380.961C450.191 375.19 447.095 370.126 447.764 369.706" fill="white"/>
<path d="M463.84 390.521C462.322 390.252 459.062 386.727 454.681 380.961C450.191 375.19 447.095 370.126 447.764 369.706" stroke="#4E12F5" stroke-width="1.5" stroke-miterlimit="10"/>
<path fill-rule="evenodd" clip-rule="evenodd" d="M404.158 356.18C404.158 356.18 412.814 355.132 417.101 351.075L404.158 356.18Z" fill="white"/>
<path d="M404.158 356.18C404.158 356.18 412.814 355.132 417.101 351.075" stroke="#4E12F5" stroke-width="1.5" stroke-miterlimit="10"/>
<path d="M398.975 285.84L392.009 288.487C390.682 288.996 389.288 288.29 388.786 287.06L387.188 282.816C386.689 281.476 387.393 280.064 388.611 279.552L395.577 276.905C396.904 276.395 398.298 277.102 398.801 278.331L400.398 282.575C400.897 283.915 400.302 285.331 398.975 285.84Z" fill="white" stroke="#4E12F5" stroke-width="1.5" stroke-miterlimit="10"/>
<path d="M397.443 289.102L394.259 280.284C393.764 278.834 394.472 277.312 395.912 276.696L403.539 273.849C404.975 273.343 406.478 274.053 407.082 275.507L410.371 284.439C411.368 287.118 409.957 290.053 407.412 291.075L404.427 292.194C401.446 293.202 398.44 291.782 397.443 289.102V289.102ZM312.871 330.211L308.877 319.601C308.48 318.485 307.296 318.006 306.191 318.412L300.548 320.66C299.443 321.066 298.965 322.265 299.362 323.381L303.353 334.1C304.155 336.112 306.304 337.063 308.293 336.354L310.507 335.432C312.612 334.506 313.674 332.222 312.871 330.211Z" fill="white" stroke="#4E12F5" stroke-width="1.5" stroke-miterlimit="10"/>
<path d="M308.305 320.356L315.275 317.599C316.602 317.09 317.197 315.675 316.698 314.335L315.1 310.091C314.601 308.751 313.204 308.155 311.877 308.664L304.907 311.421C303.58 311.931 302.985 313.346 303.484 314.686L305.081 318.93C305.58 320.27 306.978 320.866 308.305 320.356Z" fill="white" stroke="#4E12F5" stroke-width="1.5" stroke-miterlimit="10"/>
<path d="M311.529 321.782L308.232 313.071C307.737 311.621 306.126 310.907 304.686 311.524L297.164 314.484C295.728 314.99 295.016 316.622 295.62 318.076L298.912 326.897C299.91 329.577 302.919 330.887 305.464 329.864L308.449 328.746C311.22 327.51 312.635 324.466 311.529 321.782V321.782Z" fill="white" stroke="#4E12F5" stroke-width="1.5" stroke-miterlimit="10"/>
<path d="M316.762 337.507C318.792 341.874 320.818 346.353 322.957 350.724C323.564 352.067 324.281 353.414 325.333 354.551C326.493 355.691 327.89 356.288 329.167 357.211C332.142 359.513 333.428 363.305 334.609 366.984C335.49 369.881 336.585 372.895 338.47 375.161C338.995 375.73 338.416 376.704 337.661 376.46C335.278 375.942 333.044 374.326 331.252 372.504C329.255 370.344 327.705 367.867 325.82 365.6C325.399 365.146 324.629 365.342 324.5 365.889C323.856 368.738 325.06 371.755 326.61 374.232C328.062 376.375 329.741 378.304 331.084 380.443C331.599 381.342 330.797 382.42 329.824 382.168C326.371 381.065 323.412 378.323 320.667 375.698C319.401 374.444 318.031 373.076 317.544 371.405C316.858 369.177 317.701 366.886 318 364.579C318.59 360.184 316.07 357.345 315.651 359.98C315.232 362.615 314.053 365.115 313.412 367.853C312.911 369.713 312.729 371.804 313.212 373.584C313.31 373.918 312.866 374.125 312.769 373.791C311.001 371.307 309.451 368.83 308.348 366.037C306.941 362.571 306.535 358.586 307.534 354.977C308.272 352.573 309.668 350.08 309.426 347.645C309.082 344.986 306.758 342.815 305.974 340.252C305.78 339.584 306.348 338.94 306.994 339.181C308.395 339.667 309.921 339.716 311.248 339.207C312.462 338.804 313.583 337.957 314.275 336.876C314.738 336.118 315.828 336.153 316.241 336.828L316.762 337.507V337.507Z" fill="#FFCF33" stroke="#4E12F5" stroke-width="1.5" stroke-miterlimit="10"/>
</g>
<defs>
<filter id="filter0_d_1803_56625" x="0.509521" y="0.250366" width="521.955" height="583.781" filterUnits="userSpaceOnUse" color-interpolation-filters="sRGB">
<feFlood flood-opacity="0" result="BackgroundImageFix"/>
<feColorMatrix in="SourceAlpha" type="matrix" values="0 0 0 0 0 0 0 0 0 0 0 0 0 0 0 0 0 0 127 0" result="hardAlpha"/>
<feOffset dy="4"/>
<feGaussianBlur stdDeviation="2"/>
<feComposite in2="hardAlpha" operator="out"/>
<feColorMatrix type="matrix" values="0 0 0 0 0 0 0 0 0 0 0 0 0 0 0 0 0 0 0.25 0"/>
<feBlend mode="normal" in2="BackgroundImageFix" result="effect1_dropShadow_1803_56625"/>
<feBlend mode="normal" in="SourceGraphic" in2="effect1_dropShadow_1803_56625" result="shape"/>
</filter>
</defs>
</svg>
