<svg width="615" height="547" viewBox="0 0 615 547" fill="none" xmlns="http://www.w3.org/2000/svg">
<path d="M204.212 165.21C201.615 164.639 198.859 164.656 196.928 166.43C195.318 167.908 194.605 170.042 193.24 171.739C191.073 174.469 187.994 174.634 184.509 174.582C180.134 174.609 175.841 174.856 171.47 175.617" stroke="#6F3FF5" stroke-width="1.71644"/>
<path d="M327.587 480.301C347.801 492.851 413.755 521.006 435.391 508.255C447.322 501.251 455.488 489.68 458.81 477.227C460.803 469.755 466.487 435.629 515.089 440.347" stroke="#6F3FF5" stroke-width="1.71644" stroke-miterlimit="10"/>
<path d="M592.801 169.954C606.783 175.578 612.938 193.183 605.009 204.999C598.723 214.466 585.91 219.372 579.482 228.803C573.575 237.536 574.303 248.508 574.521 258.659C574.829 270.492 574.452 282.566 570.396 293.705C566.339 304.845 558.303 315.527 546.419 320.392C534.716 325.165 520.699 324.095 508.942 319.174C497.185 314.252 487.671 306.028 479.685 296.809C468.876 284.384 460.62 270.118 450.212 257.38" stroke="#6F3FF5" stroke-width="1.71644" stroke-miterlimit="10"/>
<path d="M354.042 52.148L344.862 53.453L506.726 167.589L498.185 87.0437L433.157 41.2103L412.633 44.0401L388.308 47.4137L378.25 48.7218L354.042 52.148Z" fill="#8C65F7" stroke="#6F3FF5" stroke-width="1.71644" stroke-miterlimit="10"/>
<path d="M578.767 190.198C578.767 190.198 578.897 190.136 578.965 190.254C579.164 190.31 579.424 190.186 579.554 190.124C579.944 189.938 580.068 189.578 580 189.46L580.899 185.572L581.029 185.51L581.184 180.623L581.376 180.382C581.568 180.14 583.233 178.144 585.008 175.193L585.33 174.889L586.296 173.978C586.426 173.916 586.487 173.737 586.419 173.619L586.413 173.321L587.125 172.831L587.72 172.999C588.384 173.285 589.637 173.441 590.993 172.344L593.699 169.853L593.93 171.397C594.25 173.952 592.585 175.948 592.523 176.128L592.927 176.538L592.611 177.139C592.228 177.623 591.59 178.528 590.953 179.433C592.164 180.662 593.546 180.755 593.676 180.694C594.197 180.446 594.636 179.485 594.938 178.288L595.055 177.631L595.91 177.675C596.548 176.77 596.98 175.511 597.103 175.151C597.961 172.336 597.443 169.725 596.746 167.951L596.671 167.535L596.993 167.231C597.315 166.928 597.377 166.748 597.507 166.686C597.63 166.326 597.556 165.911 597.282 165.439C597.282 165.439 596.23 162.48 595.957 162.009L595.813 161.475L598.718 159.04C598.718 159.04 599.944 158.005 599.979 156.634C599.959 155.741 599.679 154.972 598.872 154.153C597.662 152.924 596.155 153.19 595.176 153.505L594.786 153.691L594.519 153.517C594.252 153.343 593.924 153.349 593.725 153.294C593.267 153.361 592.808 153.429 592.486 153.733L591.972 154.278C591.52 154.644 591.273 155.363 591.615 155.953L591.888 156.424L590.532 157.521L589.875 157.533C589.478 157.421 589.019 157.489 588.43 157.619L587.041 157.227C582.005 155.413 577.685 156.266 577.554 156.328L577.431 156.688L576.904 156.638C576.445 156.706 575.001 156.792 574.295 157.579L574.233 157.759C574.233 157.759 573.794 158.72 574.211 159.725C574.211 159.725 575.252 159.229 576.039 159.155L576.41 158.076L577.422 159.249C580.174 158.842 582.618 159.333 584.205 159.781L585.663 160.29L584.368 161.207C582.752 162.428 580.752 164.132 578.628 166.196L578.306 166.5L577.978 166.506C577.848 166.568 577.649 166.512 577.587 166.692L576.621 167.603C576.621 167.603 576.491 167.665 576.56 167.782L576.183 168.564L575.984 168.508L575.038 170.312L573.942 171.285C573.161 171.656 570.299 173.019 569.148 174.47C568.189 175.678 569.179 178.817 569.609 180.418L569.882 180.889L569.163 181.081C568.314 181.335 566.945 181.836 566.815 181.898C566.356 181.966 566.102 182.387 565.911 182.629C565.78 182.691 565.719 182.871 565.657 183.051C565.664 183.348 565.67 183.646 565.937 183.82C566.539 184.286 567.339 184.807 568.449 184.429C569.886 184.046 571.516 183.42 571.906 183.235L572.462 181.616C572.381 180.903 572.074 178.943 572.685 176.847L572.809 176.488L579.005 174.29L577.031 177.185C576.456 177.91 576.277 178.747 576.099 179.584L577.717 184.38L575.633 188.23C575.633 188.23 575.633 188.23 575.702 188.347C575.708 188.645 575.852 189.179 576.385 189.526C576.385 189.526 576.454 189.644 576.584 189.582C576.85 189.756 577.247 189.868 577.644 189.98C578.11 190.21 578.438 190.204 578.767 190.198Z" fill="white"/>
<path d="M594.831 152.915C596.071 152.476 597.447 152.272 598.657 153.501C601.346 156.132 598.503 158.388 598.503 158.388L596.373 160.154L594.181 162.1C593.237 161.045 591.546 161.85 591.614 161.968L591.484 162.03C587.592 158.468 587.933 159.057 591.674 155.773" stroke="#6F3FF5" stroke-width="1.71644" stroke-miterlimit="10"/>
<path d="M591.56 153.571L592.396 152.722C592.91 152.176 593.896 152.158 594.566 152.742L596.714 154.728C597.316 155.193 597.336 156.086 596.692 156.694L595.856 157.543C595.342 158.088 594.356 158.106 593.686 157.523L591.538 155.537C591.066 155.009 590.916 154.178 591.56 153.571Z" fill="#5BF1CD" stroke="#6F3FF5" stroke-width="1.71644" stroke-miterlimit="10"/>
<path d="M579.008 174.29L573.071 176.364L572.941 176.426C572.2 178.584 572.513 180.841 572.656 181.375C571.014 181.405 570.008 180.53 569.94 180.412C569.995 179.934 567.979 175.027 569.13 173.577C570.412 172.064 573.925 170.392 574.055 170.33L575.082 169.239L576.344 166.834" stroke="#6F3FF5" stroke-width="1.71644" stroke-miterlimit="10"/>
<path d="M578.72 173.223C578.72 173.223 579.254 173.571 579.069 174.11C579.069 174.11 579.007 174.29 578.945 174.47C578.691 174.891 578.054 175.796 577.293 177.061C576.718 177.786 576.409 178.685 576.429 179.578L578.109 184.194C578.246 184.43 579.518 185.478 581.285 185.089L581.439 180.202C581.439 180.202 581.569 180.14 581.501 180.022C582.015 179.477 583.611 177.363 585.517 174.35" stroke="#6F3FF5" stroke-width="1.71644" stroke-miterlimit="10"/>
<path d="M569.948 180.709L566.881 181.718C566.621 181.842 566.299 182.146 565.977 182.449C565.847 182.511 565.785 182.691 565.723 182.871C565.73 183.169 565.736 183.466 566.003 183.64C566.407 184.05 567.406 184.627 568.515 184.25C569.953 183.866 571.712 183.179 571.973 183.055L572.528 181.437" stroke="#6F3FF5" stroke-width="1.71644" stroke-miterlimit="10"/>
<path d="M578.047 184.374L576.155 187.982L576.093 188.162C576.093 188.162 576.161 188.28 576.031 188.342C576.038 188.64 576.113 189.055 576.715 189.521C576.715 189.521 576.783 189.639 576.913 189.577C577.18 189.75 577.577 189.862 577.974 189.974C578.371 190.086 578.7 190.08 579.028 190.074C579.028 190.074 579.158 190.012 579.227 190.13C579.555 190.124 579.685 190.062 579.946 189.938C580.466 189.691 580.521 189.213 580.521 189.213L581.359 185.505L581.489 185.443" stroke="#6F3FF5" stroke-width="1.71644" stroke-miterlimit="10"/>
<path d="M585.39 174.71C585.712 174.406 586.034 174.102 586.356 173.799C586.548 173.557 586.542 173.259 586.275 173.086C583.141 171.117 580.658 168.84 578.36 166.023C578.224 165.787 577.697 165.737 577.505 165.979C577.183 166.282 576.861 166.586 576.539 166.89L576.217 167.193" stroke="#6F3FF5" stroke-width="1.71644" stroke-miterlimit="10"/>
<path d="M596.589 166.822C596.589 166.822 597.233 166.214 597.295 166.035C597.418 165.675 597.275 165.141 597.07 164.788L595.846 162.964L595.546 161.301" stroke="#6F3FF5" stroke-width="1.71644" stroke-miterlimit="10"/>
<path d="M586.622 159.082C586.622 159.082 584.013 160.023 578.355 165.725" stroke="#6F3FF5" stroke-width="1.71644" stroke-miterlimit="10"/>
<path d="M596.242 165.935C596.242 165.935 598.573 170.24 597.221 174.494C597.221 174.494 596.796 176.05 596.096 177.135C596.096 177.135 594.522 177.283 592.778 175.707C592.778 175.707 594.443 173.711 594.123 171.155C593.803 168.6 592.332 167.495 592.332 167.495" stroke="#6F3FF5" stroke-width="1.71644" stroke-miterlimit="10"/>
<path d="M587.377 172.41C587.377 172.41 589.115 173.688 591.047 171.866C592.917 170.224 593.883 169.313 593.883 169.313" stroke="#6F3FF5" stroke-width="1.71644" stroke-miterlimit="10"/>
<path d="M586.247 167.195C587.375 167.611 588.661 167.12 589.121 166.098C589.58 165.077 589.038 163.911 587.91 163.495C586.782 163.079 585.496 163.57 585.037 164.592C584.578 165.614 585.12 166.779 586.247 167.195Z" fill="#5BF1CD" stroke="#6F3FF5" stroke-width="1.71644" stroke-miterlimit="10"/>
<path d="M595.054 177.631C595.054 177.631 594.573 179.665 593.731 180.216C593.731 180.216 592.218 180.184 591.007 178.955C591.007 178.955 592.926 176.538 592.919 176.24" stroke="#6F3FF5" stroke-width="1.71644" stroke-miterlimit="10"/>
<path d="M585.58 159.577C585.58 159.577 581.728 157.801 577.34 158.536C577.34 158.536 576.396 157.481 577.342 155.677C577.342 155.677 582.12 154.756 587.622 156.8L589.08 157.31" stroke="#6F3FF5" stroke-width="1.71644" stroke-miterlimit="10"/>
<path d="M576.888 156.043C576.888 156.043 575.047 156.017 574.081 156.928C574.081 156.928 573.512 157.951 574.128 159.011C574.128 159.011 575.949 158.144 576.941 158.424" stroke="#6F3FF5" stroke-width="1.71644" stroke-miterlimit="10"/>
<path d="M182.717 149.84L182.886 149.7C184.399 148.738 188.191 149.126 189.324 149.177L189.648 149.191L189.741 148.975L193.41 148.622L193.588 148.336L193.75 148.343C196.78 147.816 200.573 148.204 200.573 148.204C207.279 148.722 212.794 151.759 216.229 154.263L216.383 154.417L216.553 154.278C217.317 153.65 217.988 153.238 218.397 153.183C219.461 153.01 220.586 153.206 221.61 153.766L225.77 156.376L225.932 156.383C227.242 156.147 228.776 156.289 230.44 157.024L230.679 157.108L232.292 155.783L231.607 154.944C231.315 154.343 231.44 153.54 232.034 153.052L234.164 151.161C234.673 150.743 235.329 150.625 235.968 150.8L236.13 150.807L236.3 150.668C237.871 151.619 238.638 149.448 242.531 149.473C244.72 149.497 245.914 149.917 247.608 151.609C249.686 153.686 250.199 156.208 250.004 158.331C249.777 161.04 250.949 160.357 250.355 160.846L250.27 160.915L250.262 161.062C250.3 161.872 250.013 162.668 249.334 163.226L246.363 165.667C245.429 166.435 244.126 166.524 243.017 166.034L242.778 165.95L242.608 166.089C241.759 166.787 241.157 167.422 240.478 167.98L239.459 168.817L239.528 169.04C240.028 170.312 239.686 172.134 238.721 173.488C238.636 173.558 238.551 173.628 238.551 173.628L238.373 173.914L238.527 174.068C246.648 182.954 247.283 192.244 247.344 192.614L247.336 192.761L247.251 192.831C247.166 192.9 247.166 192.9 247.082 192.97L246.827 193.179L246.896 193.403C247.164 194.444 247.67 197.113 246.349 199.039C246.349 199.039 244.149 200.706 241.328 200.36L241.005 200.346L241.013 200.199L238.648 198.918L239.035 197.76L240.666 194.597L240.427 194.513L240.435 194.367C239.604 187.2 235.017 181.998 233.631 180.614L233.4 180.383L233.145 180.592C232.026 181.792 230.583 182.978 229.062 184.087C227.373 185.335 226.046 185.865 225.159 185.752C224.998 185.745 224.759 185.661 224.682 185.584L224.443 185.5L224.273 185.639C222.321 187.243 220.036 188.98 217.667 190.786L217.498 190.926L217.567 191.149C217.559 191.296 217.636 191.373 217.628 191.52C217.689 191.89 217.503 192.323 217.164 192.602L214.872 194.485C214.532 194.764 214.039 194.889 213.638 194.798L213.476 194.791L211.723 197.212C211.328 198.518 209.507 205.2 206.751 208.165C204.427 210.635 196.649 210.438 192.518 210.329C191.222 210.271 190.575 210.243 190.328 210.305L190.081 210.368L189.989 210.584C189.74 212.19 189.195 216.283 189.187 216.429C189.139 217.309 188.537 217.944 188.02 218.509L187.85 218.649L186.399 219.981C185.805 220.47 185.064 220.657 184.348 220.405C183.631 220.153 182.684 219.67 181.675 218.817L181.598 218.74C180.52 217.663 180.013 216.538 180.084 215.218C180.112 211.691 181.172 208.577 181.366 207.997L181.451 207.928L182.886 206.889L183.04 207.042L186.465 205.209L186.473 205.063L186.797 205.077C188.262 204.995 193.558 204.568 197.994 202.044L198.079 201.974L199.853 190.145L199.174 190.703C198.155 191.54 196.789 192.803 194.828 194.553C193.292 195.956 191.449 197.05 189.389 197.621L177.75 196.811L177.665 196.881L170.056 202.572L167.812 203.575C167.565 203.638 165.846 203.929 163.998 202.083C163.613 201.699 163.313 201.244 162.936 200.713C160.528 197.225 162.711 195.852 162.873 195.859L164.64 194.688C164.98 194.409 165.311 194.276 165.311 194.276L173.611 190.821L173.627 190.528L185.047 187.872L185.302 187.663C185.734 187.168 189.787 182.716 196.239 177.415L196.324 177.346L196.332 177.199C196.356 176.759 196.456 176.396 196.796 176.117L199.088 174.234C199.428 173.955 199.921 173.829 200.322 173.921C200.484 173.928 200.484 173.928 200.561 174.005L200.8 174.089L202.174 172.679L202.105 172.456C201.436 171.324 200.384 168.263 203.949 165.334L210.146 160.242L209.915 160.011C208.837 158.935 207.343 158.06 205.841 157.332C200.61 155.042 195.104 156.342 194.857 156.405L194.61 156.467L194.464 156.167L191.142 156.093L187.122 158.415L184.465 156.533L184.38 156.603L184.311 156.379C181.51 152.653 182.709 149.986 182.717 149.84Z" fill="white"/>
<path d="M230.502 157.394C221.72 153.257 219.747 164.269 224.974 169.646C226.652 171.631 230.363 175.03 233.839 175.257C238.449 175.535 240.405 170.843 239.152 168.509" stroke="#6F3FF5" stroke-width="1.71644" stroke-miterlimit="10"/>
<path d="M242.641 165.503C234.475 172.492 235.816 173.213 227.732 165.137L227.817 165.067C227.894 165.144 230.019 161.857 227.685 159.989L232.447 155.937" stroke="#6F3FF5" stroke-width="1.71644" stroke-miterlimit="10"/>
<path d="M234.233 151.385C234.827 150.897 235.883 150.87 236.422 151.408L237.269 152.255C237.269 152.255 237.346 152.331 237.415 152.555C237.399 152.848 237.206 153.428 235.924 154.621C234.821 155.528 233.988 155.932 233.494 156.057C233.001 156.182 232.6 156.091 232.377 155.713L231.692 154.874C231.477 154.35 231.593 153.694 232.103 153.276L234.233 151.385Z" stroke="#6F3FF5" stroke-width="1.71644" stroke-miterlimit="10"/>
<path d="M236.192 151.178C237.474 149.985 244.212 143.888 250.224 149.741C256.776 156.132 249.87 160.824 249.87 160.824" stroke="#6F3FF5" stroke-width="1.71644" stroke-miterlimit="10"/>
<path d="M236.962 151.947C236.962 151.947 242.596 146.756 248.471 152.162C251.173 154.707 250.776 157.556 249.439 159.776" stroke="#6F3FF5" stroke-width="1.71644" stroke-miterlimit="10"/>
<path d="M234.662 164.488C235.58 164.014 237.082 164.742 237.605 165.574C237.905 166.028 238.035 166.622 237.611 166.971C237.356 167.18 236.94 167.382 236.539 167.291C236.138 167.2 235.822 167.039 235.591 166.808C235.122 166.493 234.899 166.116 234.598 165.662C234.445 165.508 234.375 165.284 234.383 165.138C234.391 164.991 234.492 164.628 234.662 164.488Z" stroke="#6F3FF5" stroke-width="1.71644" stroke-miterlimit="10"/>
<path d="M237.188 156.808L240.498 154.088C241.432 153.321 242.889 153.385 243.736 154.231L249.356 159.846C250.203 160.692 250.131 162.012 249.198 162.779L245.887 165.499C244.953 166.267 243.496 166.202 242.649 165.356L237.029 159.741C236.183 158.895 236.254 157.575 237.188 156.808Z" fill="#5BF1CD" stroke="#6F3FF5" stroke-width="1.71644" stroke-miterlimit="10"/>
<path d="M237.806 160.364L241.117 157.644C241.117 157.644 241.958 157.093 242.959 158.093" stroke="#6F3FF5" stroke-width="1.71644" stroke-miterlimit="10"/>
<path d="M223.138 158.539L227.685 159.99" stroke="#6F3FF5" stroke-width="1.71644" stroke-miterlimit="10"/>
<path d="M225.527 159.379C225.527 159.379 227.27 164.675 223.335 166.927" stroke="#6F3FF5" stroke-width="1.71644" stroke-miterlimit="10"/>
<path d="M213.022 194.183L211.099 196.744C211.014 196.814 209.061 204.446 206.128 207.697C203.202 210.802 190.939 209.524 189.952 209.774C189.559 209.537 186.955 208.172 186.235 204.979C187.538 204.89 193.073 204.547 197.679 201.884L197.764 201.814L197.849 201.744L197.864 201.451L199.662 189.181" stroke="#6F3FF5" stroke-width="1.71644" stroke-miterlimit="10"/>
<path d="M202.252 189.296C202.175 189.219 201.073 188.582 200.001 188.902C199.916 188.972 199.585 189.104 199.16 189.453C199.16 189.453 199.16 189.453 199.075 189.523C198.141 190.29 196.436 191.832 193.966 194.001C192.43 195.403 190.586 196.498 188.527 197.068L176.973 196.189C176.418 195.944 173.344 194.265 173.226 190.437L184.562 187.852C184.562 187.852 184.816 187.642 184.824 187.496C185.859 186.365 189.989 181.991 196.016 177.038" stroke="#6F3FF5" stroke-width="1.71644" stroke-miterlimit="10"/>
<path d="M189.552 209.683L188.633 216.185C188.594 216.918 187.992 217.553 187.474 218.118C187.297 218.404 186.965 218.537 186.548 218.739C185.885 219.003 185.076 218.968 184.529 218.576C183.35 217.862 181.479 216.456 181.682 214.187C181.926 211.184 182.532 207.462 182.64 206.952L186.151 205.049" stroke="#6F3FF5" stroke-width="1.71644" stroke-miterlimit="10"/>
<path d="M182.817 206.665L181.212 207.844C181.212 207.844 179.982 211.097 180.015 214.995C180.021 216.392 180.767 217.601 181.614 218.447C182.546 219.223 183.493 219.706 184.21 219.958C184.764 220.203 185.42 220.085 185.929 219.667L187.635 218.125" stroke="#6F3FF5" stroke-width="1.71644" stroke-miterlimit="10"/>
<path d="M169.44 201.957L168.191 202.563L167.273 203.037C167.273 203.037 164.89 203.593 162.636 200.259C160.459 197.002 162.387 195.838 162.472 195.768L163.313 195.217L164.324 194.527" stroke="#6F3FF5" stroke-width="1.71644" stroke-miterlimit="10"/>
<path d="M197.927 201.821L199.915 202.571" stroke="#6F3FF5" stroke-width="1.71644" stroke-miterlimit="10"/>
<path d="M184.809 187.789L186.735 188.168" stroke="#6F3FF5" stroke-width="1.71644" stroke-miterlimit="10"/>
<path d="M191.284 194.103C191.292 193.956 191.156 191.965 188.884 190.468" stroke="#6F3FF5" stroke-width="1.71644" stroke-miterlimit="10"/>
<path d="M205.011 207.354C204.934 207.277 204.551 205.349 202.025 204.061" stroke="#6F3FF5" stroke-width="1.71644" stroke-miterlimit="10"/>
<path d="M163.442 197.355L166.071 196.736C166.65 196.541 167.205 196.786 167.505 197.241L167.728 197.618C168.028 198.072 167.911 198.729 167.564 199.154L165.603 200.905" stroke="#6F3FF5" stroke-width="1.71644" stroke-miterlimit="10"/>
<path d="M185.014 218.597C185.285 218.095 185.555 217.592 185.664 217.082C185.672 216.936 185.757 216.866 185.765 216.719L185.772 216.573L185.78 216.426C185.78 216.426 185.865 216.356 185.788 216.279C185.788 216.279 185.873 216.209 185.796 216.133C185.804 215.986 185.804 215.986 185.812 215.839C185.82 215.693 185.82 215.693 185.743 215.616C185.743 215.616 185.743 215.616 185.751 215.469C185.674 215.392 185.743 215.616 185.751 215.469C185.759 215.322 185.682 215.245 185.69 215.099C185.69 215.099 185.613 215.022 185.69 215.099C185.767 215.176 185.69 215.099 185.69 215.099L185.613 215.022L185.536 214.945C185.459 214.868 185.613 215.022 185.613 215.022C185.613 215.022 185.613 215.022 185.536 214.945C185.459 214.868 185.459 214.868 185.382 214.791C185.305 214.714 185.536 214.945 185.382 214.791L185.305 214.714L185.228 214.637C185.228 214.637 185.228 214.637 185.151 214.56C185.074 214.483 185.228 214.637 185.151 214.56L184.989 214.553C184.989 214.553 185.151 214.56 184.989 214.553C184.989 214.553 185.151 214.56 184.989 214.553L184.904 214.623C184.819 214.693 184.989 214.553 184.904 214.623L184.819 214.693C184.734 214.762 184.819 214.693 184.819 214.693L184.734 214.762C184.649 214.832 184.649 214.832 184.564 214.902L184.48 214.972C184.395 215.041 184.564 214.902 184.48 214.972C184.31 215.111 184.302 215.258 184.132 215.397C183.692 216.039 183.082 216.821 182.187 216.855C181.864 216.841 181.633 216.61 181.649 216.316C181.664 216.023 181.919 215.814 182.243 215.828C182.158 215.898 182.081 215.821 182.243 215.828C182.328 215.758 182.158 215.898 182.243 215.828L182.328 215.758C182.413 215.689 182.243 215.828 182.328 215.758C182.413 215.689 182.413 215.689 182.497 215.619L182.582 215.549C182.667 215.479 182.497 215.619 182.582 215.549C182.76 215.263 183.1 214.984 183.277 214.698C183.795 214.133 184.405 213.351 185.283 213.611C185.684 213.702 186.077 213.94 186.308 214.17C186.693 214.555 186.908 215.079 186.876 215.666C186.898 216.769 186.434 217.851 185.978 218.787C185.885 219.003 185.63 219.212 185.229 219.121C185.068 219.114 184.837 218.883 185.014 218.597Z" fill="#6F3FF5"/>
<path d="M173.211 190.731L173.042 190.87L164.904 194.332C164.904 194.332 163.909 194.729 163.445 195.811C163.26 196.244 163.236 196.684 163.297 197.054C163.289 197.201 163.366 197.278 163.358 197.425C163.488 198.019 163.781 198.619 164.227 199.374C164.673 200.129 165.127 200.737 165.673 201.129C165.75 201.206 165.904 201.36 165.981 201.437C167.229 202.374 168.362 202.424 168.941 202.229C169.187 202.167 169.434 202.104 169.434 202.104L169.689 201.895L177.043 196.413" stroke="#6F3FF5" stroke-width="1.71644" stroke-miterlimit="10"/>
<path d="M196.163 177.339C200.748 184.084 205.983 189.314 212.946 194.106C213.416 194.421 213.986 194.373 214.411 194.024C215.26 193.326 215.939 192.768 216.703 192.141C217.212 191.722 217.175 190.912 216.628 190.52C209.981 185.889 204.9 180.813 200.384 174.291C200.007 173.76 199.121 173.647 198.611 174.066C197.847 174.693 197.168 175.251 196.319 175.949C195.972 176.375 195.863 176.884 196.163 177.339Z" stroke="#6F3FF5" stroke-width="1.71644" stroke-miterlimit="10"/>
<path d="M214.841 189.044L211.005 192.476" stroke="#6F3FF5" stroke-width="1.71644" stroke-miterlimit="10"/>
<path d="M210.706 185.995L206.631 189.342" stroke="#6F3FF5" stroke-width="1.71644" stroke-miterlimit="10"/>
<path d="M206.778 182.072L202.703 185.42" stroke="#6F3FF5" stroke-width="1.71644" stroke-miterlimit="10"/>
<path d="M202.832 177.046L198.611 180.093" stroke="#6F3FF5" stroke-width="1.71644" stroke-miterlimit="10"/>
<path d="M225.593 156.662L221.272 154.046C220.409 153.493 219.369 153.226 218.382 153.477C217.726 153.595 216.283 154.78 216.283 154.78" stroke="#6F3FF5" stroke-width="1.71644" stroke-miterlimit="10"/>
<path d="M233.591 175.32C233.591 175.32 231.21 180.36 217.02 190.758" stroke="#6F3FF5" stroke-width="1.71644" stroke-miterlimit="10"/>
<path d="M229.769 180.002C229.769 180.002 221.795 175.9 214.662 166.764" stroke="#6F3FF5" stroke-width="1.71644" stroke-miterlimit="10"/>
<path d="M227.562 181.816C227.562 181.816 218.972 177.099 211.916 168.039" stroke="#6F3FF5" stroke-width="1.71644" stroke-miterlimit="10"/>
<path d="M223.138 158.539L221.474 157.803" stroke="#6F3FF5" stroke-width="1.71644" stroke-miterlimit="10"/>
<path d="M221.19 157.056C221.344 157.21 221.413 157.433 221.397 157.727C221.273 158.53 220.762 160.492 219.356 162.488C216.884 166.201 212.053 170.03 205.813 166.887L207.85 165.213C207.85 165.213 212.373 167.104 216.025 162.561C218.543 159.511 218.799 157.759 218.677 157.018C218.616 156.648 218.879 156.292 219.287 156.237C219.773 156.258 220.497 156.364 221.19 157.056Z" stroke="#6F3FF5" stroke-width="1.71644" stroke-miterlimit="10"/>
<path d="M212.457 162.55L208.976 165.41" stroke="#6F3FF5" stroke-width="1.71644" stroke-miterlimit="10"/>
<path d="M206.836 167.447L200.236 173.991" stroke="#6F3FF5" stroke-width="1.71644" stroke-miterlimit="10"/>
<path d="M218.685 156.871C218.685 156.871 210.902 149.25 200.396 148.491C200.396 148.491 196.526 148.025 193.658 148.56C193.658 148.56 192.213 151.289 194.08 155.782C194.08 155.782 199.84 154.273 205.303 156.794C210.85 159.244 211.947 162.968 211.947 162.968" stroke="#6F3FF5" stroke-width="1.71644" stroke-miterlimit="10"/>
<path d="M202.028 172.38C202.028 172.38 199.304 168.731 203.549 165.243C207.794 161.756 209.916 160.012 209.916 160.012" stroke="#6F3FF5" stroke-width="1.71644" stroke-miterlimit="10"/>
<path d="M236.368 175.002C236.368 175.002 235.422 179.003 228.67 183.849C225.198 186.562 224.39 184.983 224.39 184.983" stroke="#6F3FF5" stroke-width="1.71644" stroke-miterlimit="10"/>
<path d="M218.454 179.207C216.668 177.423 216.817 174.665 218.786 173.048C220.755 171.43 223.799 171.564 225.585 173.348C227.371 175.133 227.222 177.89 225.253 179.508C223.284 181.126 220.24 180.992 218.454 179.207Z" fill="#5BF1CD" stroke="#6F3FF5" stroke-width="1.71644" stroke-miterlimit="10"/>
<path d="M193.771 155.475L190.611 155.409C190.611 155.409 189.012 151.957 189.818 149.052L193.241 148.763" stroke="#6F3FF5" stroke-width="1.71644" stroke-miterlimit="10"/>
<path d="M189.718 149.415C189.718 149.415 184.724 148.753 182.965 149.777C182.965 149.777 181.851 152.374 183.697 155.764C183.697 155.764 189.781 154.269 190.174 154.507" stroke="#6F3FF5" stroke-width="1.71644" stroke-miterlimit="10"/>
<path d="M183.687 155.911L186.267 157.716L190.286 155.394" stroke="#6F3FF5" stroke-width="1.71644" stroke-miterlimit="10"/>
<path d="M233.424 179.943C233.424 179.943 239.607 185.657 240.682 194.304C240.682 194.304 243.54 195.46 247.106 192.531C247.106 192.531 246.41 182.87 238.05 173.9" stroke="#6F3FF5" stroke-width="1.71644" stroke-miterlimit="10"/>
<path d="M246.786 189.429C246.786 189.429 243.908 191.654 240.216 190.902" stroke="#6F3FF5" stroke-width="1.71644" stroke-miterlimit="10"/>
<path d="M246.511 193.019C246.511 193.019 247.701 196.526 246.118 198.809C246.118 198.809 244.004 200.406 241.344 200.067C241.344 200.067 242.205 196.136 241.074 194.542" stroke="#6F3FF5" stroke-width="1.71644" stroke-miterlimit="10"/>
<path d="M241.268 199.99L238.98 198.787L239.266 197.991L240.82 194.752" stroke="#6F3FF5" stroke-width="1.71644" stroke-miterlimit="10"/>
<path d="M218.804 393.402C216.832 392.044 219.776 385.349 225.55 378.384C231.201 371.374 237.446 366.906 239.467 368.152L339.83 435.534L319.216 460.672L218.804 393.402Z" fill="#8C65F7" stroke="#6F3FF5" stroke-width="1.71644" stroke-miterlimit="10"/>
<path d="M333.177 450.598C338.884 443.616 341.889 436.867 339.889 435.525C337.888 434.183 331.64 438.756 325.933 445.739C320.226 452.721 317.221 459.47 319.222 460.812C321.222 462.154 327.47 457.581 333.177 450.598Z" fill="#8C65F7" stroke="#6F3FF5" stroke-width="1.71644" stroke-miterlimit="10"/>
<path d="M177.349 439.976C175.377 438.618 178.321 431.924 184.095 424.958C189.746 417.948 195.991 413.48 198.012 414.726L298.374 482.108L277.761 507.246L177.349 439.976Z" fill="#8C65F7" stroke="#6F3FF5" stroke-width="1.71644" stroke-miterlimit="10"/>
<path d="M291.586 497.079C297.293 490.096 300.298 483.348 298.298 482.005C296.298 480.663 290.049 485.236 284.342 492.219C278.635 499.202 275.63 505.951 277.631 507.293C279.631 508.635 285.879 504.062 291.586 497.079Z" fill="#8C65F7" stroke="#6F3FF5" stroke-width="1.71644" stroke-miterlimit="10"/>
<path d="M237.117 440.994L226.201 433.692C221.766 430.799 220.945 425.202 224.139 421.183L230.969 412.789C234.163 408.771 240.341 408.027 244.776 410.921L255.692 418.222C260.127 421.116 260.948 426.713 257.754 430.731L250.924 439.125C247.656 442.988 241.429 443.843 237.117 440.994Z" fill="#5BF1CD" stroke="#6F3FF5" stroke-width="1.71644" stroke-miterlimit="10"/>
<path d="M229.626 435.963L218.71 428.662C214.275 425.768 213.454 420.171 216.648 416.153L223.478 407.759C226.672 403.74 232.849 402.996 237.285 405.89L248.2 413.191C252.636 416.085 253.457 421.682 250.263 425.7L243.433 434.095C240.165 437.957 233.938 438.812 229.626 435.963Z" fill="#5BF1CD" stroke="#6F3FF5" stroke-width="1.71644" stroke-miterlimit="10"/>
<path d="M251.883 422.665L259.374 427.696" stroke="#6F3FF5" stroke-width="1.71644" stroke-miterlimit="10"/>
<path d="M242.032 435.657L249.08 440.399" stroke="#6F3FF5" stroke-width="1.71644" stroke-miterlimit="10"/>
<path d="M273.929 465.658L263.013 458.357C258.578 455.463 257.757 449.866 260.951 445.848L267.781 437.454C270.975 433.435 277.152 432.691 281.587 435.585L292.503 442.886C296.938 445.78 297.759 451.377 294.566 455.395L287.735 463.79C284.541 467.808 278.364 468.552 273.929 465.658Z" fill="#FFE88F" stroke="#6F3FF5" stroke-width="1.71644" stroke-miterlimit="10"/>
<path d="M266.438 460.627L255.522 453.326C251.086 450.432 250.266 444.835 253.459 440.817L260.29 432.423C263.483 428.404 269.661 427.661 274.096 430.554L285.012 437.856C289.447 440.749 290.268 446.346 287.074 450.364L280.244 458.759C277.05 462.777 270.873 463.521 266.438 460.627Z" fill="#FFE88F" stroke="#6F3FF5" stroke-width="1.71644" stroke-miterlimit="10"/>
<path d="M288.645 447.441L296.135 452.472" stroke="#6F3FF5" stroke-width="1.71644" stroke-miterlimit="10"/>
<path d="M278.967 460.366L285.891 465.063" stroke="#6F3FF5" stroke-width="1.71644" stroke-miterlimit="10"/>
<path d="M303.828 525.189L295.696 519.668C285.224 512.656 283.012 499.188 290.752 489.7L324.338 448.689C332.078 439.201 346.942 437.197 357.415 444.209L365.546 449.73C376.019 456.741 378.23 470.209 370.491 479.697L336.904 520.709C329.165 530.197 314.3 532.201 303.828 525.189Z" fill="#FFE88F" stroke="#6F3FF5" stroke-width="1.71644" stroke-miterlimit="10"/>
<path d="M290.942 516.53L282.811 511.009C272.338 503.997 270.127 490.529 277.866 481.041L311.452 440.03C319.192 430.542 334.056 428.538 344.529 435.55L352.661 441.071C363.133 448.083 365.344 461.55 357.605 471.039L324.019 512.05C316.279 521.538 301.415 523.542 290.942 516.53Z" fill="#C9B8FF" stroke="#6F3FF5" stroke-width="1.71644" stroke-miterlimit="10"/>
<path d="M358.191 468.406L371.079 477.065" stroke="#6F3FF5" stroke-width="1.71644" stroke-miterlimit="10"/>
<path d="M324.977 510.844L336.977 518.925" stroke="#6F3FF5" stroke-width="1.71644" stroke-miterlimit="10"/>
<path d="M297.349 302.089C295.377 300.731 298.321 294.036 304.095 287.071C309.746 280.061 315.991 275.592 318.012 276.839L418.374 344.221L397.761 369.359L297.349 302.089Z" fill="#8C65F7" stroke="#6F3FF5" stroke-width="1.71644" stroke-miterlimit="10"/>
<path d="M411.616 359.192C417.323 352.209 420.328 345.46 418.327 344.118C416.327 342.776 410.079 347.349 404.372 354.332C398.665 361.315 395.66 368.064 397.66 369.406C399.66 370.748 405.908 366.175 411.616 359.192Z" fill="#8C65F7" stroke="#6F3FF5" stroke-width="1.71644" stroke-miterlimit="10"/>
<path d="M255.82 348.508C253.849 347.15 256.793 340.456 262.567 333.49C268.341 326.525 274.463 322.012 276.483 323.258L376.846 390.64L356.183 415.89L255.82 348.508Z" fill="#8C65F7" stroke="#6F3FF5" stroke-width="1.71644" stroke-miterlimit="10"/>
<path d="M370.026 405.674C375.733 398.691 378.738 391.942 376.737 390.6C374.737 389.258 368.489 393.831 362.782 400.814C357.075 407.797 354.07 414.545 356.07 415.887C358.071 417.229 364.319 412.657 370.026 405.674Z" fill="#8C65F7" stroke="#6F3FF5" stroke-width="1.71644" stroke-miterlimit="10"/>
<path d="M315.586 349.525L304.67 342.224C300.235 339.33 299.414 333.733 302.608 329.715L309.438 321.321C312.632 317.302 318.809 316.559 323.245 319.452L334.16 326.754C338.596 329.647 339.417 335.244 336.223 339.263L329.393 347.657C326.199 351.675 320.021 352.419 315.586 349.525Z" fill="#5BF1CD" stroke="#6F3FF5" stroke-width="1.71644" stroke-miterlimit="10"/>
<path d="M308.097 344.495L297.181 337.193C292.746 334.3 291.925 328.703 295.119 324.684L301.949 316.29C305.143 312.272 311.32 311.528 315.755 314.422L326.671 321.723C331.106 324.617 331.927 330.213 328.734 334.232L321.903 342.626C318.709 346.645 312.532 347.388 308.097 344.495Z" fill="#5BF1CD" stroke="#6F3FF5" stroke-width="1.71644" stroke-miterlimit="10"/>
<path d="M330.303 331.308L337.794 336.339" stroke="#6F3FF5" stroke-width="1.71644" stroke-miterlimit="10"/>
<path d="M320.626 344.233L327.55 348.93" stroke="#6F3FF5" stroke-width="1.71644" stroke-miterlimit="10"/>
<path d="M352.525 374.234L341.609 366.933C337.173 364.039 336.352 358.442 339.546 354.424L346.377 346.03C349.57 342.011 355.748 341.267 360.183 344.161L371.099 351.462C375.534 354.356 376.355 359.953 373.161 363.971L366.331 372.366C363.014 376.339 356.788 377.195 352.525 374.234Z" fill="#FFE88F" stroke="#6F3FF5" stroke-width="1.71644" stroke-miterlimit="10"/>
<path d="M345.033 369.203L334.117 361.902C329.682 359.008 328.861 353.411 332.055 349.393L338.885 340.999C342.079 336.98 348.257 336.236 352.692 339.13L363.608 346.431C368.043 349.325 368.864 354.922 365.67 358.94L358.84 367.335C355.523 371.309 349.296 372.164 345.033 369.203Z" fill="#FFE88F" stroke="#6F3FF5" stroke-width="1.71644" stroke-miterlimit="10"/>
<path d="M367.24 356.017L374.731 361.048" stroke="#6F3FF5" stroke-width="1.71644" stroke-miterlimit="10"/>
<path d="M357.391 369.009L364.487 373.639" stroke="#6F3FF5" stroke-width="1.71644" stroke-miterlimit="10"/>
<path d="M382.379 433.876L374.247 428.356C363.775 421.344 361.563 407.876 369.303 398.388L402.889 357.376C410.628 347.888 425.493 345.885 435.965 352.896L444.097 358.417C454.569 365.429 456.781 378.897 449.042 388.385L415.455 429.396C407.593 438.84 392.728 440.844 382.379 433.876Z" fill="#FFE88F" stroke="#6F3FF5" stroke-width="1.71644" stroke-miterlimit="10"/>
<path d="M369.491 425.217L361.359 419.696C350.887 412.684 348.675 399.217 356.415 389.729L390.001 348.717C397.741 339.229 412.605 337.225 423.078 344.237L431.209 349.758C441.682 356.77 443.893 370.238 436.154 379.726L402.567 420.737C394.705 430.181 379.84 432.185 369.491 425.217Z" fill="#C9B8FF" stroke="#6F3FF5" stroke-width="1.71644" stroke-miterlimit="10"/>
<path d="M436.74 377.093L449.628 385.752" stroke="#6F3FF5" stroke-width="1.71644" stroke-miterlimit="10"/>
<path d="M403.575 419.419L415.575 427.5" stroke="#6F3FF5" stroke-width="1.71644" stroke-miterlimit="10"/>
<path d="M108.741 482.085C110.835 483.676 113.338 484.78 115.718 485.562C125.419 488.637 136.592 485.949 143.139 478.151L351.983 232.92L313.242 205.689L104.398 450.92C96.0945 460.616 98.039 474.563 108.741 482.085Z" stroke="#6F3FF5" stroke-width="1.71644" stroke-miterlimit="10"/>
<path d="M198.931 398.968L167.905 377.41" stroke="#6F3FF5" stroke-width="1.71644" stroke-miterlimit="10"/>
<path d="M236.417 355.524L222.667 345.989L235.137 297.794" stroke="#6F3FF5" stroke-width="1.71644" stroke-miterlimit="10"/>
<path d="M183.45 388.269L139.865 442.248L106.269 448.806" stroke="#6F3FF5" stroke-width="1.71644" stroke-miterlimit="10"/>
<path d="M139.407 480.443C136.703 478.064 136.399 474.149 138.693 471.449L138.693 471.448L345.106 227.829L351.965 232.63L139.407 480.443Z" fill="#6F3FF5" stroke="#6F3FF5" stroke-width="1.71644"/>
<path d="M181.697 365.893C183.682 367.234 189.957 362.869 195.859 356.054C201.761 349.239 204.883 342.607 202.946 341.154L104.544 271.425L83.1713 296.121L181.697 365.893Z" fill="#8C65F7" stroke="#6F3FF5" stroke-width="1.71644" stroke-miterlimit="10"/>
<path d="M97.4911 286.362C103.396 279.515 106.592 272.838 104.631 271.45C102.669 270.061 96.2924 274.486 90.3877 281.334C84.483 288.181 81.2864 294.858 83.248 296.246C85.2095 297.635 91.5863 293.209 97.4911 286.362Z" fill="#8C65F7" stroke="#6F3FF5" stroke-width="1.71644" stroke-miterlimit="10"/>
<path d="M143.227 414.596C145.213 415.937 151.488 411.572 157.389 404.757C163.291 397.942 166.413 391.31 164.476 389.857L66.0739 320.128L44.7016 344.824L143.227 414.596Z" fill="#8C65F7" stroke="#6F3FF5" stroke-width="1.71644" stroke-miterlimit="10"/>
<path d="M59.0467 335.044C64.9514 328.197 68.148 321.52 66.1865 320.132C64.225 318.743 57.8481 323.169 51.9434 330.016C46.0387 336.864 42.8421 343.54 44.8036 344.929C46.7652 346.317 53.142 341.892 59.0467 335.044Z" fill="#8C65F7" stroke="#6F3FF5" stroke-width="1.71644" stroke-miterlimit="10"/>
<path d="M126.217 362.637L136.891 370.251C141.137 373.288 147.43 372.536 150.782 368.69L157.849 360.481C161.2 356.634 160.37 350.933 156.125 347.896L145.45 340.282C141.205 337.245 134.912 337.997 131.56 341.844L124.493 350.053C121.265 353.942 121.971 359.6 126.217 362.637Z" fill="#5BF1CD" stroke="#6F3FF5" stroke-width="1.71644" stroke-miterlimit="10"/>
<path d="M133.538 367.786L144.213 375.399C148.458 378.436 154.751 377.684 158.103 373.838L165.17 365.629C168.522 361.783 167.692 356.081 163.446 353.044L152.771 345.43C148.526 342.393 142.233 343.146 138.881 346.992L131.814 355.201C128.538 359.202 129.293 364.749 133.538 367.786Z" fill="#5BF1CD" stroke="#6F3FF5" stroke-width="1.71644" stroke-miterlimit="10"/>
<path d="M141.764 344.912L134.317 339.721" stroke="#6F3FF5" stroke-width="1.71644" stroke-miterlimit="10"/>
<path d="M130.555 356.819L123.631 352.068" stroke="#6F3FF5" stroke-width="1.71644" stroke-miterlimit="10"/>
<path d="M90.0989 337.07L100.774 344.684C105.019 347.72 111.312 346.968 114.664 343.122L121.731 334.913C125.083 331.067 124.253 325.365 120.007 322.328L109.332 314.714C105.087 311.677 98.7941 312.43 95.4422 316.276L88.3753 324.485C85.0234 328.331 85.8537 334.033 90.0989 337.07Z" fill="#FFE48D" stroke="#6F3FF5" stroke-width="1.71644" stroke-miterlimit="10"/>
<path d="M97.4221 342.217L108.097 349.831C112.342 352.868 118.635 352.116 121.987 348.27L129.054 340.061C132.406 336.214 131.576 330.513 127.331 327.476L116.656 319.862C112.41 316.825 106.117 317.577 102.765 321.424L95.6986 329.633C92.3467 333.479 93.1769 339.181 97.4221 342.217Z" fill="#FFE48D" stroke="#6F3FF5" stroke-width="1.71644" stroke-miterlimit="10"/>
<path d="M105.521 319.3L98.1982 314.152" stroke="#6F3FF5" stroke-width="1.71644" stroke-miterlimit="10"/>
<path d="M94.3131 331.207L87.5605 326.388" stroke="#6F3FF5" stroke-width="1.71644" stroke-miterlimit="10"/>
<path d="M18.7119 326.808L26.8038 332.484C37.0802 339.7 51.9793 338.107 59.9441 328.796L94.6482 288.56C102.613 279.25 100.854 265.751 90.5777 258.535L82.4858 252.858C72.2095 245.642 57.3104 247.236 49.3456 256.546L14.6414 296.782C6.67661 306.093 8.55916 319.635 18.7119 326.808Z" fill="#5BF1CD" stroke="#6F3FF5" stroke-width="1.71644" stroke-miterlimit="10"/>
<path d="M31.3721 335.763L39.4641 341.439C49.7404 348.655 64.6395 347.062 72.6043 337.751L107.308 297.515C115.273 288.205 113.514 274.706 103.238 267.489L95.1461 261.813C84.8697 254.597 69.9706 256.191 62.0058 265.501L27.3016 305.737C19.3369 315.048 21.0958 328.547 31.3721 335.763Z" fill="#C9B8FF" stroke="#6F3FF5" stroke-width="1.71644" stroke-miterlimit="10"/>
<path d="M64.6737 264.249L52.0137 255.293" stroke="#6F3FF5" stroke-width="1.71644" stroke-miterlimit="10"/>
<path d="M28.3706 304.567L16.6035 296.183" stroke="#6F3FF5" stroke-width="1.71644" stroke-miterlimit="10"/>
<path d="M257.284 274.967C259.27 276.309 265.545 271.944 271.447 265.129C277.348 258.314 280.47 251.682 278.533 250.228L180.255 180.543L158.882 205.238L257.284 274.967Z" fill="#8C65F7" stroke="#6F3FF5" stroke-width="1.71644" stroke-miterlimit="10"/>
<path d="M173.083 195.385C178.988 188.537 182.184 181.861 180.223 180.472C178.261 179.084 171.884 183.509 165.98 190.356C160.075 197.204 156.878 203.88 158.84 205.269C160.801 206.657 167.178 202.232 173.083 195.385Z" fill="#8C65F7" stroke="#6F3FF5" stroke-width="1.71644" stroke-miterlimit="10"/>
<path d="M218.985 323.603C220.97 324.944 227.246 320.579 233.147 313.764C239.049 306.949 242.171 300.317 240.234 298.864L141.784 229.247L120.412 253.942L218.985 323.603Z" fill="#8C65F7" stroke="#6F3FF5" stroke-width="1.71644" stroke-miterlimit="10"/>
<path d="M134.742 244.142C140.647 237.295 143.843 230.618 141.882 229.23C139.92 227.841 133.543 232.267 127.639 239.114C121.734 245.961 118.537 252.638 120.499 254.026C122.46 255.415 128.837 250.99 134.742 244.142Z" fill="#8C65F7" stroke="#6F3FF5" stroke-width="1.71644" stroke-miterlimit="10"/>
<path d="M201.976 271.644L212.651 279.257C216.896 282.294 223.189 281.542 226.541 277.696L233.608 269.487C236.96 265.641 236.13 259.939 231.885 256.902L221.21 249.288C216.964 246.251 210.671 247.004 207.32 250.85L200.253 259.059C196.853 263.017 197.607 268.563 201.976 271.644Z" fill="#5BF1CD" stroke="#6F3FF5" stroke-width="1.71644" stroke-miterlimit="10"/>
<path d="M209.251 276.904L219.926 284.518C224.171 287.554 230.464 286.802 233.816 282.956L240.883 274.747C244.235 270.901 243.405 265.199 239.16 262.162L228.485 254.548C224.24 251.512 217.946 252.264 214.595 256.11L207.528 264.319C204.176 268.165 205.006 273.867 209.251 276.904Z" fill="#5BF1CD" stroke="#6F3FF5" stroke-width="1.71644" stroke-miterlimit="10"/>
<path d="M217.4 253.875L210.077 248.727" stroke="#6F3FF5" stroke-width="1.71644" stroke-miterlimit="10"/>
<path d="M206.144 265.893L199.392 261.074" stroke="#6F3FF5" stroke-width="1.71644" stroke-miterlimit="10"/>
<path d="M165.734 246.032L176.409 253.646C180.654 256.683 186.947 255.931 190.299 252.085L197.366 243.876C200.718 240.029 199.888 234.328 195.643 231.291L184.968 223.677C180.722 220.64 174.429 221.392 171.077 225.239L164.011 233.448C160.782 237.337 161.489 242.995 165.734 246.032Z" fill="#FFE88F" stroke="#6F3FF5" stroke-width="1.71644" stroke-miterlimit="10"/>
<path d="M173.057 251.18L183.732 258.794C187.977 261.831 194.271 261.079 197.622 257.233L204.689 249.024C208.041 245.177 207.211 239.476 202.966 236.439L192.291 228.825C188.046 225.788 181.753 226.54 178.401 230.386L171.334 238.595C168.058 242.597 168.764 248.255 173.057 251.18Z" fill="#FFE88F" stroke="#6F3FF5" stroke-width="1.71644" stroke-miterlimit="10"/>
<path d="M181.279 228.307L173.833 223.115" stroke="#6F3FF5" stroke-width="1.71644" stroke-miterlimit="10"/>
<path d="M170.025 240.325L163.148 235.463" stroke="#6F3FF5" stroke-width="1.71644" stroke-miterlimit="10"/>
<path d="M94.471 235.814L102.563 241.49C112.839 248.706 127.738 247.113 135.703 237.802L170.407 197.566C178.372 188.256 176.613 174.757 166.337 167.54L158.245 161.864C147.969 154.648 133.021 156.354 125.105 165.552L90.4005 205.788C82.3121 215.055 84.1946 228.598 94.471 235.814Z" fill="#5BF1CD" stroke="#6F3FF5" stroke-width="1.71644" stroke-miterlimit="10"/>
<path d="M107.082 244.881L115.174 250.557C125.451 257.774 140.35 256.18 148.315 246.869L183.019 206.633C190.983 197.323 189.225 183.824 178.948 176.608L170.856 170.932C160.58 163.715 145.681 165.309 137.716 174.62L103.012 214.856C94.9714 224.011 96.8539 237.553 107.082 244.881Z" fill="#C9B8FF" stroke="#6F3FF5" stroke-width="1.71644" stroke-miterlimit="10"/>
<path d="M140.308 173.212L127.648 164.256" stroke="#6F3FF5" stroke-width="1.71644" stroke-miterlimit="10"/>
<path d="M104.006 213.531L92.2393 205.147" stroke="#6F3FF5" stroke-width="1.71644" stroke-miterlimit="10"/>
<path d="M503.749 138.788L502.846 129.548L489.549 119.705L448.402 125.399L456.332 131.416L488.018 128.076L503.749 138.788Z" fill="#FFE88F"/>
<path d="M295.673 192.356L370.033 244.888C372.028 246.313 374.955 246.567 377.232 245.605L396.737 236.894L297.728 166.957L293.189 186.216C292.673 188.497 293.561 190.879 295.673 192.356Z" fill="#8C65F7" stroke="#6F3FF5" stroke-width="1.71644" stroke-miterlimit="10"/>
<path d="M237.216 123.281L218.024 69.4379L525.673 286.528L463.287 282.882L237.216 123.281Z" fill="#C9B8FF"/>
<path d="M216.73 67.7988L236.691 123.706L463.114 283.465L527.783 287.21" stroke="#6F3FF5" stroke-width="1.71644"/>
<path d="M532.245 281.781L221.356 62.3763L216.774 67.7067L527.663 287.111L532.245 281.781Z" fill="#8C65F7" stroke="#6F3FF5" stroke-width="1.71644" stroke-miterlimit="10"/>
<path d="M225.95 49.0543C219.585 51.8866 218.683 59.6823 224.259 63.6382L530.323 279.621C535.898 283.577 543.961 280.845 545.396 274.478L559.751 211.875C560.497 208.639 559.079 205.357 556.261 203.3L299.379 22.0749L299.144 21.9697C296.269 20.0186 292.465 19.7671 289.37 21.1565L246.098 40.2357L225.95 49.0543Z" fill="#F0EBFF" stroke="#6F3FF5" stroke-width="1.71644" stroke-miterlimit="10"/>
<path d="M236.517 44.405L547.864 264.08L550.046 254.742L246.095 40.236L236.517 44.405Z" fill="#5BF1CD" stroke="#6F3FF5" stroke-width="1.71644" stroke-miterlimit="10"/>
<path d="M500.754 195.29L337.774 80.2701L329.091 90.3698L492.071 205.39L500.754 195.29Z" fill="#FFE48D" stroke="#6F3FF5" stroke-width="1.71644" stroke-miterlimit="10"/>
<path d="M304.971 70.6128C301.711 74.4412 295.512 75.0995 291.287 72.146L246.096 40.2363L246.154 40.1301L289.368 21.1571C292.463 19.7678 296.267 20.0193 299.142 21.9704L306.752 63.079C307.05 64.4032 307.173 65.781 306.769 67.0547C306.541 68.2748 305.844 69.5495 304.971 70.6128Z" fill="#E6FFF9" stroke="#6F3FF5" stroke-width="1.71644" stroke-miterlimit="10"/>
<path d="M439.741 102.361C438.227 104.062 436.008 105.183 433.845 105.403C431.505 105.677 429.163 105.155 427.284 103.783L354.041 52.1481L378.248 48.722L438.17 91.075C441.985 93.7119 442.651 98.9045 439.741 102.361Z" fill="#C9B8FF" stroke="#6F3FF5" stroke-width="1.71644" stroke-miterlimit="10"/>
<path d="M502.643 129.913L489.379 120.524L447.098 125.234" stroke="#6F3FF5" stroke-width="1.71644" stroke-miterlimit="10"/>
<path d="M503.556 138.656L488.18 127.791L454.612 131.516" stroke="#6F3FF5" stroke-width="1.71644" stroke-miterlimit="10"/>
</svg>
