<svg width="545" height="328" viewBox="0 0 545 328" fill="none" xmlns="http://www.w3.org/2000/svg">
<path d="M232.543 127.664C228.609 118.872 222.538 114.015 220.984 112.866L221.081 112.704L216.37 105.612L215.836 106.26C215.836 106.276 215.561 106.616 215.043 107.183L213.958 106.001C214.654 104.932 214.978 104.252 215.027 104.155L215.172 103.831L214.962 103.54C210.785 97.646 205.912 92.417 200.424 88.013C201.104 87.009 200.91 85.649 199.971 84.872L192.847 78.93C192.345 78.509 191.698 78.331 191.05 78.396C190.403 78.477 189.836 78.8 189.431 79.319L188.719 80.258C177.192 74.057 165.73 71.693 157.7 70.834V69.993C157.7 65.313 154.365 61.185 149.784 60.197L134.307 56.846L134.274 56.975C131.635 53.51 127.297 51.568 125.386 50.855V42.4851L128.818 41.902C131.052 41.157 132.542 39.084 132.542 36.737V28.447C132.542 26.055 130.994 24.0421 128.851 23.3111C126.953 23.5831 125.274 23.322 124.633 21.036C122.88 14.791 122.144 8.01505 116.313 4.16605C110.392 0.257049 104.752 -0.621956 97.853 0.382044C90.726 1.41804 83.891 6.64505 81.948 13.694C82.17 14.113 82.001 14.75 81.447 14.906C81.292 15.015 81.104 15.052 80.912 15.025C79.845 15.217 78.932 15.834 77.895 16.153C77.474 16.283 77.042 16.351 76.607 16.403C75.263 17.687 74.438 19.484 74.438 21.437V34.907C74.438 38.583 77.288 41.5941 80.882 41.8691V57.59C80.04 58.044 75.264 60.829 73.969 66.722L73.953 66.544C58.233 67.613 48.552 70.77 45.961 71.693C45.492 70.656 44.31 70.09 43.193 70.397L34.24 72.81C33.609 72.972 33.091 73.393 32.767 73.959C32.459 74.542 32.395 75.19 32.589 75.821L32.88 76.76C24.041 79.432 12.967 87.948 12.482 88.321L12.271 88.482L12.255 88.774C12.223 89.422 12.223 90.053 12.255 90.684C11.834 90.927 1.86199 96.4 0.0159912 103.961L0 104.074L0.0159912 104.204C0.0649912 104.527 1.263 112.396 6.767 117.14L7.31699 117.61L7.38199 117.48H7.39798L15.007 119.31L17.241 115.942L18.796 116.881L24.446 109.789L22.373 105.855C26.307 102.763 43.258 90.652 67.267 90.781C67.007 93.55 66.846 96.707 66.846 100.302C66.846 111.198 68.384 117.512 71.427 119.034C71.945 119.293 72.431 119.374 72.884 119.374C73.289 119.374 73.661 119.293 73.969 119.196V141.588C73.969 143.369 74.471 144.438 75.054 145.085C74.552 145.199 74.066 145.458 73.677 145.83C73.014 146.429 72.641 147.287 72.641 148.194V158.281C72.641 159.592 73.418 160.726 74.568 161.211L72.674 170.343C71.54 172.075 59.156 191.196 57.682 204.165C56.177 217.506 73.953 249.208 74.697 250.552L74.811 250.73L75.005 250.811C75.07 250.843 75.475 250.989 76.122 251.167L68.076 262.517C67.185 263.1 61.341 267.115 60.548 272.49C60.24 274.595 60.758 276.619 62.07 278.546L61.73 278.481L61.39 280.197L62.393 284.568L62.669 284.698C62.733 284.73 66.91 286.576 71.978 286.576C75.572 286.576 79.603 285.637 82.954 282.464C91.745 274.158 98.156 263.067 98.221 262.954L98.318 262.792L98.01 258.016L97.087 257.757L94.853 247.475L94.772 247.492L94.756 247.346C94.74 247.119 92.684 225.116 89.43 208.909L111.706 181.369C111.787 184.526 111.722 190.015 111.366 199.616C111.14 205.801 112.435 212.018 115.138 217.604L129.822 247.88L130.065 247.961C130.065 247.961 130.178 248.01 130.356 248.058L130.194 248.075L131.911 274.384C131.927 274.417 132.089 274.967 132.542 275.728L134.161 281.233C134.274 281.476 136.573 285.993 144.344 285.993C145.914 285.993 147.695 285.799 149.719 285.362C161.731 282.788 160.436 275.437 160.436 275.388L159.578 269.9L159.513 269.916C159.578 268.102 159.06 266.791 159.028 266.742L151.224 243.622C151.532 243.379 151.823 243.136 152.131 242.861L152.374 242.634L147.015 208.877C146.999 208.796 146.756 207.517 145.752 205.817L145.914 205.833C145.947 205.639 148.845 186.501 148.051 159.689C148.407 159.544 148.764 159.398 149.104 159.252C150.059 158.831 150.674 157.892 150.674 156.824V146.445C150.674 145.603 150.302 144.842 149.638 144.324C149.152 143.968 148.602 143.79 148.019 143.806C148.181 143.32 148.229 142.835 148.229 142.479C148.229 142.139 148.197 141.912 148.197 141.912V137.168L148.246 137.233L152.811 134.059C156.454 131.501 158.639 127.308 158.639 122.855V95.623C168.774 95.784 185.384 99.395 197.056 118.775L197.866 118.306L197.963 118.549C198.724 118.225 199.452 117.901 200.149 117.561L200.974 118.435C200.699 118.613 200.391 118.759 200.1 118.921L199.404 119.277L204.73 125.397L205.151 125.187C205.151 125.187 205.167 125.171 205.184 125.171C206.171 126.369 207.499 128.425 206.9 129.299L205.604 130.335C205.038 130.805 204.844 131.582 205.151 132.246L208.13 138.949C208.324 139.402 208.713 139.726 209.198 139.856C209.328 139.888 209.457 139.904 209.587 139.904C209.943 139.904 210.283 139.791 210.558 139.58L211.918 138.544L211.805 138.9L216.516 140.325L216.532 140.277L216.548 140.325L217.083 140.131C229.225 135.662 232.43 128.457 232.56 128.166L232.657 127.907L232.543 127.664Z" fill="#E2E0E7"/>
<path d="M453.552 178.761C453.091 179.186 452.152 179.007 452.184 178.208C452.258 176.4 451.261 174.854 450.605 173.231C450.087 171.949 449.592 170.655 449.091 169.364C448.724 169.323 448.383 169.076 448.383 168.599V89.2256H440.458V170.261C439.795 170.018 439.034 170.018 438.337 170.325L427.442 175.004C427.41 174.972 427.377 174.956 427.345 174.923C426.762 174.519 426.017 174.47 425.37 174.778L412.92 180.752L390.061 141.263L386.305 138.51C386.434 138.17 386.483 137.798 386.451 137.426C386.386 136.438 385.835 135.58 384.896 135.062L381.076 133.653C380.299 133.216 379.408 133.167 378.631 133.491L372.722 131.905V127.323C373.143 126.74 373.532 126.141 373.904 125.509C374.082 125.266 378.405 119.179 371.556 102.162C370.747 100.155 368.772 98.7946 366.586 98.7456C366.797 98.1146 366.991 97.1266 366.619 96.2526C366.295 95.4746 365.631 94.9246 364.66 94.6336H364.644C363.527 92.9816 350.931 75.5116 325.643 81.0976C301.019 86.5376 306.33 125.93 307.317 132.115L305.666 132.439L305.52 132.633C305.488 132.682 304.403 134.285 303.092 137.345L303.059 137.28C302.897 137.361 285.866 145.715 275.036 161.372H274.987L273.659 161.323C272.575 161.258 271.652 162.068 271.555 163.137L271.004 170.52C270.972 171.054 271.15 171.572 271.506 171.993C271.879 172.43 272.429 172.705 272.996 172.738L274.388 172.835C275.845 175.636 281.786 186.127 293.297 195.308L293.605 195.55L293.54 195.631L301.651 201.897L301.521 207.208C300.777 207.03 299.967 207.175 299.336 207.629C298.591 208.147 298.154 209.005 298.17 209.912L298.251 216.129C298.267 217.829 299.077 219.367 300.372 220.338L302.881 259.39C302.881 259.763 302.8 267.729 306.864 274.205L306.378 274.27L310.652 306.505L311.478 307.72C309.697 308.027 305.504 308.707 300.226 309.485C296.632 310.019 293.88 311.557 292.051 314.067C288.732 318.632 289.703 324.72 289.752 324.979L289.833 325.481H330.063V310.424L328.768 308.626L329.739 307.169L331.002 280.196L332.394 279.24L332.362 278.884C332.346 278.674 330.565 258.775 336.717 247.879C340.78 254.258 346.495 264.458 349.863 275.711L349.96 276.035L350.365 276.132L350.186 276.196C350.235 276.358 355.14 292.339 356.517 313.549C356.241 313.759 355.982 313.986 355.739 314.229C353.198 316.722 352.129 320.624 352.129 327.278V327.877H382.614L382.646 327.311C382.662 327.003 383.035 319.62 378.534 314.779C378.032 314.245 377.482 313.759 376.899 313.338L378.923 310.764V310.569C378.939 310.44 379.619 297.05 377.255 272.003L378.55 270.789L378.534 270.514C377.304 248.996 374.81 232.595 374.211 228.822C374.891 228.774 375.507 228.499 375.992 228.013C376.543 227.479 376.85 226.766 376.85 226.005V219.577C376.85 218.817 376.543 218.104 376.008 217.57C375.62 217.181 375.15 216.922 374.632 216.809L374.827 214.51L380.59 212.567C383.132 211.709 384.929 209.539 385.285 206.884L388.118 186.241L395.84 199.809C395.646 199.987 395.484 200.213 395.355 200.456L394.642 201.897C394.092 202.998 394.497 204.358 395.565 204.99L403.547 209.717C403.919 209.944 404.34 210.041 404.761 210.041C404.971 210.041 405.182 210.025 405.408 209.96C406.04 209.782 406.558 209.361 406.865 208.794L407.772 207.094C407.869 206.9 407.95 206.706 407.982 206.511L433.481 195.712C433.999 195.502 434.387 195.081 434.549 194.563L434.565 194.628L440.976 192.895V325.271H449.8V192.555L453.07 192.021C453.912 191.972 454.689 191.551 455.191 190.887C455.709 190.224 455.903 189.366 455.725 188.524L453.552 178.761ZM299.579 170.831C299.676 171.52 298.801 172.329 298.226 171.619C297.884 171.197 297.581 170.748 297.255 170.315C296.863 170.069 296.504 169.79 296.195 169.432C295.957 169.156 295.935 168.864 296.026 168.619C296.007 168.572 295.982 168.526 295.969 168.48C295.21 168.66 294.76 167.656 295.258 167.115C295.361 167.004 295.468 166.893 295.579 166.783C295.667 166.663 295.771 166.559 295.903 166.481C296.671 165.796 297.595 165.253 298.642 165.316C299.448 165.365 299.621 166.346 299.174 166.754C299.19 166.781 299.211 166.792 299.227 166.821C299.901 168.024 299.397 169.542 299.579 170.831Z" fill="#E2E0E7"/>
<path d="M544.023 142.124L544.006 141.946L543.893 141.817C543.488 141.347 533.678 130.305 492.524 131.26C454.457 132.147 449.453 94.546 449 90V165.533C449.165 165.62 449.31 165.755 449.393 165.966C450.135 167.867 450.854 169.783 451.685 171.645C452.265 172.945 452.789 174.24 452.788 175.673C457.587 180.383 469.681 188.955 492.799 186.957C515.189 185.046 525.194 199.342 529.177 208.053C529.663 209.122 530.666 209.769 531.832 209.769H531.961C533.159 209.721 534.163 208.992 534.584 207.843C538.923 195.894 547.309 162.735 544.023 142.124Z" fill="#20E18F"/>
</svg>
