<svg width="1433" height="452" viewBox="0 0 1433 452" fill="none" xmlns="http://www.w3.org/2000/svg">
<path d="M84.8069 127.111C83.1319 124.654 84.1369 121.275 87.1521 119.74C90.1676 118.204 93.5178 119.125 95.193 121.89C96.8682 124.654 95.863 127.725 92.8478 129.26C90.1676 130.796 86.4821 129.875 84.8069 127.111Z" fill="#5932C4"/>
<path d="M1188.81 127.111C1187.13 124.654 1188.14 121.275 1191.15 119.74C1194.17 118.204 1197.52 119.125 1199.19 121.89C1200.87 124.654 1199.86 127.725 1196.85 129.26C1194.17 130.796 1190.48 129.875 1188.81 127.111Z" fill="#5932C4"/>
<path d="M264.194 153.741C265.868 156.556 264.862 159.683 261.847 161.247C258.834 162.81 255.481 161.872 253.808 159.057C252.131 156.556 253.137 153.115 256.152 151.552C258.834 150.301 262.518 151.239 264.194 153.741Z" fill="#5932C4"/>
<path d="M1368.19 153.741C1369.87 156.556 1368.86 159.683 1365.85 161.247C1362.83 162.81 1359.48 161.872 1357.81 159.057C1356.13 156.556 1357.14 153.115 1360.15 151.552C1362.83 150.301 1366.52 151.239 1368.19 153.741Z" fill="#5932C4"/>
<path d="M137.27 278.429C139.713 276.689 143.346 277.319 145.208 279.942C147.07 282.565 146.378 285.704 143.612 287.469C140.846 289.235 137.536 288.579 135.675 285.956C133.84 283.639 134.504 280.195 137.27 278.429Z" fill="#5932C4"/>
<path d="M1241.27 278.429C1243.71 276.689 1247.35 277.319 1249.21 279.942C1251.07 282.565 1250.38 285.704 1247.61 287.469C1244.85 289.235 1241.54 288.579 1239.67 285.956C1237.84 283.639 1238.5 280.195 1241.27 278.429Z" fill="#5932C4"/>
<path d="M124.54 449.604C121.72 451.373 118.352 450.721 116.46 448.1C114.569 445.482 115.278 442.34 118.097 440.572C120.588 438.827 124.285 439.452 126.177 442.073C127.712 444.415 127.03 447.86 124.54 449.604Z" fill="#5932C4"/>
<path d="M1228.54 449.604C1225.72 451.373 1222.35 450.721 1220.46 448.1C1218.57 445.482 1219.28 442.34 1222.1 440.572C1224.59 438.827 1228.28 439.452 1230.18 442.073C1231.71 444.415 1231.03 447.86 1228.54 449.604Z" fill="#5932C4"/>
<path d="M91.5079 219.83C90.5236 229.38 85.6022 237.999 77.7282 244.056C69.854 250.111 59.7652 252.906 49.9227 251.74C40.326 250.811 31.7137 246.617 25.5621 239.862C25.07 239.396 24.8238 238.931 24.3317 238.699C24.0857 238.233 23.5936 237.767 23.3476 237.301C17.6879 230.08 15.2273 221.227 16.2117 212.145C17.1958 202.594 22.1172 193.976 29.9914 187.919C36.8813 182.796 45.2474 180 53.8597 180C55.3361 180 56.5665 180 58.043 180.234C68.1315 181.166 77.2359 185.823 83.6337 193.51C87.8167 198.401 90.5236 203.992 91.5079 209.815C91.754 210.979 92 211.911 92 213.077C92 214.006 92 214.938 92 215.87C91.754 217.036 91.754 218.434 91.5079 219.83Z" fill="#F3587D"/>
<path d="M1195.51 219.83C1194.52 229.38 1189.6 237.999 1181.73 244.056C1173.85 250.111 1163.77 252.906 1153.92 251.74C1144.33 250.811 1135.71 246.617 1129.56 239.862C1129.07 239.396 1128.82 238.931 1128.33 238.699C1128.09 238.233 1127.59 237.767 1127.35 237.301C1121.69 230.08 1119.23 221.227 1120.21 212.145C1121.2 202.594 1126.12 193.976 1133.99 187.919C1140.88 182.796 1149.25 180 1157.86 180C1159.34 180 1160.57 180 1162.04 180.234C1172.13 181.166 1181.24 185.823 1187.63 193.51C1191.82 198.401 1194.52 203.992 1195.51 209.815C1195.75 210.979 1196 211.911 1196 213.077C1196 214.006 1196 214.938 1196 215.87C1195.75 217.036 1195.75 218.434 1195.51 219.83Z" fill="#F3587D"/>
<path d="M16 217C16 224.378 18.6962 231.526 23.3531 237.519C23.5982 237.981 24.0883 238.442 24.3334 238.903C24.5784 239.364 25.0688 239.826 25.5589 240.057C31.6862 246.744 40.2649 250.893 49.8236 251.815C59.8726 252.738 69.6764 250.202 77.5196 244.206C84.6274 238.903 89.2843 231.526 91 222.994C88.5489 226.913 85.1175 230.603 81.196 233.6C72.3725 240.287 61.5883 243.284 50.5588 242.132C40.0196 240.98 30.706 236.367 23.8432 228.99C23.3531 228.529 22.863 228.067 22.6177 227.606C22.1275 227.145 21.8825 226.684 21.3924 226.222C19.1863 223.226 17.2256 220.226 16 217Z" fill="#C64268"/>
<path d="M1120 217C1120 224.378 1122.7 231.526 1127.35 237.519C1127.6 237.981 1128.09 238.442 1128.33 238.903C1128.58 239.364 1129.07 239.826 1129.56 240.057C1135.69 246.744 1144.26 250.893 1153.82 251.815C1163.87 252.738 1173.68 250.202 1181.52 244.206C1188.63 238.903 1193.28 231.526 1195 222.994C1192.55 226.913 1189.12 230.603 1185.2 233.6C1176.37 240.287 1165.59 243.284 1154.56 242.132C1144.02 240.98 1134.71 236.367 1127.84 228.99C1127.35 228.529 1126.86 228.067 1126.62 227.606C1126.13 227.145 1125.88 226.684 1125.39 226.222C1123.19 223.226 1121.23 220.226 1120 217Z" fill="#C64268"/>
<path d="M90.5227 212C90.5227 212.235 90.5227 212.235 90.7689 212.472C91.0151 213.413 91.5074 213.884 92 214.593C72.5493 229.446 47.4355 237.935 29.2158 241C28.7235 240.057 27.9847 239.113 27 238.405C44.9734 235.812 70.5794 227.088 90.5227 212Z" fill="#C64268"/>
<path d="M1194.52 212C1194.52 212.235 1194.52 212.235 1194.77 212.472C1195.02 213.413 1195.51 213.884 1196 214.593C1176.55 229.446 1151.44 237.935 1133.22 241C1132.72 240.057 1131.98 239.113 1131 238.405C1148.97 235.812 1174.58 227.088 1194.52 212Z" fill="#C64268"/>
<path d="M93.715 210.737C93.4681 209.564 93.4681 208.394 93.2213 207.457C91.9868 202.773 90.0119 198.323 87.2962 194.342C86.8025 193.405 86.062 192.702 85.3212 192C78.6558 184.038 68.7808 178.416 57.4247 177.246C46.5621 176.074 35.6997 179.12 27.306 185.677C18.6654 192.233 13.481 201.603 12.2468 211.907C12 213.545 12 215.186 12 216.592C12 217.529 12 218.463 12 219.4C12.4937 225.959 14.9623 232.047 18.6654 237.669C19.4062 238.606 20.1467 239.542 20.8874 240.479C27.7999 248.677 37.6747 253.595 48.5373 254.765C50.0184 254.765 51.4996 255 52.9809 255C62.362 255 71.2494 251.954 78.6556 246.334C82.8526 243.055 86.3088 239.074 89.0243 234.625C91.4932 230.175 93.2213 225.255 93.715 220.104C94.2087 216.825 93.9618 213.781 93.715 210.737ZM90.7526 219.869C89.765 229.471 84.8275 238.137 76.9277 244.225C69.0276 250.315 58.9058 253.126 49.031 251.954C39.4028 251.017 30.7622 246.803 24.5905 240.011C24.0966 239.542 23.8497 239.074 23.3561 238.839C23.1092 238.37 22.6155 237.902 22.3687 237.433C16.6904 230.175 14.2218 221.274 15.2094 212.14C16.1968 202.54 21.1343 193.874 29.0341 187.784C35.9466 182.633 44.3403 179.822 52.9809 179.822C54.4622 179.822 55.6966 179.822 57.1777 180.055C67.2995 180.992 76.4338 185.677 82.8526 193.405C87.0493 198.323 89.765 203.945 90.7526 209.8C90.9995 210.97 91.2463 211.907 91.2463 213.077C91.2463 214.014 91.2463 214.951 91.2463 215.888C90.9995 217.06 90.9995 218.463 90.7526 219.869Z" fill="#5932C4"/>
<path d="M1197.71 210.737C1197.47 209.564 1197.47 208.394 1197.22 207.457C1195.99 202.773 1194.01 198.323 1191.3 194.342C1190.8 193.405 1190.06 192.702 1189.32 192C1182.66 184.038 1172.78 178.416 1161.42 177.246C1150.56 176.074 1139.7 179.12 1131.31 185.677C1122.67 192.233 1117.48 201.603 1116.25 211.907C1116 213.545 1116 215.186 1116 216.592C1116 217.529 1116 218.463 1116 219.4C1116.49 225.959 1118.96 232.047 1122.67 237.669C1123.41 238.606 1124.15 239.542 1124.89 240.479C1131.8 248.677 1141.67 253.595 1152.54 254.765C1154.02 254.765 1155.5 255 1156.98 255C1166.36 255 1175.25 251.954 1182.66 246.334C1186.85 243.055 1190.31 239.074 1193.02 234.625C1195.49 230.175 1197.22 225.255 1197.71 220.104C1198.21 216.825 1197.96 213.781 1197.71 210.737ZM1194.75 219.869C1193.77 229.471 1188.83 238.137 1180.93 244.225C1173.03 250.315 1162.91 253.126 1153.03 251.954C1143.4 251.017 1134.76 246.803 1128.59 240.011C1128.1 239.542 1127.85 239.074 1127.36 238.839C1127.11 238.37 1126.62 237.902 1126.37 237.433C1120.69 230.175 1118.22 221.274 1119.21 212.14C1120.2 202.54 1125.13 193.874 1133.03 187.784C1139.95 182.633 1148.34 179.822 1156.98 179.822C1158.46 179.822 1159.7 179.822 1161.18 180.055C1171.3 180.992 1180.43 185.677 1186.85 193.405C1191.05 198.323 1193.77 203.945 1194.75 209.8C1195 210.97 1195.25 211.907 1195.25 213.077C1195.25 214.014 1195.25 214.951 1195.25 215.888C1195 217.06 1195 218.463 1194.75 219.869Z" fill="#5932C4"/>
<path d="M101.42 204.977C99.1906 207.109 96.9617 209.006 94.7328 210.902C93.742 211.612 92.9991 212.322 92.0084 213.034C71.2045 228.912 43.9616 237.917 25.3867 240.288C24.1485 240.526 22.9101 240.526 21.6717 240.762C19.6904 241 17.7091 241 15.9755 241H15.4802C9.28851 241 5.07831 240.052 2.84916 237.917C0.620247 235.785 -0.370277 233.415 0.124986 230.809C1.11575 223.226 12.5082 216.115 13.0035 215.879L12.5082 216.589L13.9942 218.721C13.7466 218.959 13.2511 219.195 12.7558 219.433C9.53614 221.803 3.59229 226.542 3.09703 231.047C2.84916 232.941 3.59229 234.363 5.07831 235.785C6.56433 237.207 10.5269 238.156 15.7279 237.917C16.9663 237.917 18.2044 237.917 19.4428 237.682C20.6812 237.682 21.6717 237.446 22.9101 237.446C41.4848 235.311 70.214 226.306 91.2655 209.48C92.256 208.768 92.9991 208.058 93.9897 207.345C95.7233 205.923 97.4572 204.265 99.1909 202.607C108.107 193.838 106.868 191.705 106.868 191.467C105.63 189.571 96.4664 191.231 88.0458 194.074C87.3029 194.312 86.5598 194.548 85.8169 194.786L84.8261 192.18C85.0738 192.18 85.5693 191.941 86.0645 191.705C92.0084 189.571 106.125 185.543 109.345 190.045C111.326 192.89 108.85 197.63 101.42 204.977Z" fill="#5932C4"/>
<path d="M1205.42 204.977C1203.19 207.109 1200.96 209.006 1198.73 210.902C1197.74 211.612 1197 212.322 1196.01 213.034C1175.2 228.912 1147.96 237.917 1129.39 240.288C1128.15 240.526 1126.91 240.526 1125.67 240.762C1123.69 241 1121.71 241 1119.98 241H1119.48C1113.29 241 1109.08 240.052 1106.85 237.917C1104.62 235.785 1103.63 233.415 1104.12 230.809C1105.12 223.226 1116.51 216.115 1117 215.879L1116.51 216.589L1117.99 218.721C1117.75 218.959 1117.25 219.195 1116.76 219.433C1113.54 221.803 1107.59 226.542 1107.1 231.047C1106.85 232.941 1107.59 234.363 1109.08 235.785C1110.56 237.207 1114.53 238.156 1119.73 237.917C1120.97 237.917 1122.2 237.917 1123.44 237.682C1124.68 237.682 1125.67 237.446 1126.91 237.446C1145.48 235.311 1174.21 226.306 1195.27 209.48C1196.26 208.768 1197 208.058 1197.99 207.345C1199.72 205.923 1201.46 204.265 1203.19 202.607C1212.11 193.838 1210.87 191.705 1210.87 191.467C1209.63 189.571 1200.47 191.231 1192.05 194.074C1191.3 194.312 1190.56 194.548 1189.82 194.786L1188.83 192.18C1189.07 192.18 1189.57 191.941 1190.06 191.705C1196.01 189.571 1210.13 185.543 1213.34 190.045C1215.33 192.89 1212.85 197.63 1205.42 204.977Z" fill="#5932C4"/>
<path d="M232 329.502C232 342.61 220.745 353 207.133 353C193.258 353 182 342.364 182 329.502C182 316.392 193.258 306.004 207.133 306.004C221.006 305.758 232 316.392 232 329.502Z" fill="#02E2AC"/>
<path d="M1336 329.502C1336 342.61 1324.74 353 1311.13 353C1297.26 353 1286 342.364 1286 329.502C1286 316.392 1297.26 306.004 1311.13 306.004C1325.01 305.758 1336 316.392 1336 329.502Z" fill="#02E2AC"/>
<path d="M182 330.186C182 343.198 193.512 354 207.379 354C215.227 354 222.292 350.562 227 345.16C225.43 345.407 223.862 345.407 222.292 345.407C204.5 345.407 189.85 331.659 189.85 314.964C189.85 314.229 189.85 313.738 189.85 313C184.879 317.42 182 323.557 182 330.186Z" fill="#02C995"/>
<path d="M1286 330.186C1286 343.198 1297.51 354 1311.38 354C1319.23 354 1326.29 350.562 1331 345.16C1329.43 345.407 1327.86 345.407 1326.29 345.407C1308.5 345.407 1293.85 331.659 1293.85 314.964C1293.85 314.229 1293.85 313.738 1293.85 313C1288.88 317.42 1286 323.557 1286 330.186Z" fill="#02C995"/>
<path d="M207.001 305C192.7 305 181 316.025 181 329.501C181 342.975 192.7 354 207.001 354C221.3 354 233 342.975 233 329.501C233 316.025 221.3 305 207.001 305ZM207.001 351.303C194.26 351.303 184.121 341.751 184.121 329.745C184.121 317.74 194.522 308.187 207.001 308.187C219.74 308.187 229.879 317.74 229.879 329.745C229.879 341.504 219.74 351.303 207.001 351.303Z" fill="#5932C4"/>
<path d="M1311 305C1296.7 305 1285 316.025 1285 329.501C1285 342.975 1296.7 354 1311 354C1325.3 354 1337 342.975 1337 329.501C1337 316.025 1325.3 305 1311 305ZM1311 351.303C1298.26 351.303 1288.12 341.751 1288.12 329.745C1288.12 317.74 1298.52 308.187 1311 308.187C1323.74 308.187 1333.88 317.74 1333.88 329.745C1333.88 341.504 1323.74 351.303 1311 351.303Z" fill="#5932C4"/>
<path d="M265.918 23.6579C272.43 32.3271 276 42.7696 276 54C276 83.1598 250.585 107 219.5 107C208.997 107 198.916 104.242 190.515 99.316C174.131 90.0558 163 73.1114 163 54C163 24.8401 188.415 1 219.5 1C238.403 1 254.997 9.66914 265.288 23.0669H265.499C265.709 22.8699 265.709 23.264 265.918 23.6579Z" fill="#FFCC00"/>
<path d="M1369.92 23.6579C1376.43 32.3271 1380 42.7696 1380 54C1380 83.1598 1354.59 107 1323.5 107C1313 107 1302.92 104.242 1294.52 99.316C1278.13 90.0558 1267 73.1114 1267 54C1267 24.8401 1292.41 1 1323.5 1C1342.4 1 1359 9.66914 1369.29 23.0669H1369.5C1369.71 22.8699 1369.71 23.264 1369.92 23.6579Z" fill="#FFCC00"/>
<path d="M207.459 93.8362C208.292 93.6399 208.917 93.2469 209.752 92.8539C212.25 92.6575 214.543 92.2645 216.834 91.6752C216.208 91.6752 215.583 91.4787 215.376 91.2822C224.125 86.7632 235.793 78.7079 245.585 67.1158C262.877 46.879 265.375 34.6978 265.167 29C266 29.1965 266.835 29.1965 267.668 29C267.668 29.393 267.668 29.7858 267.668 30.1789C267.46 36.859 263.917 49.2368 247.668 68.4912C239.126 78.7079 230.167 85.5844 222.25 90.2998C248.501 83.2267 268.501 62.204 272.876 36.466C274.959 41.9673 276 47.8614 276 53.9522C276 83.2267 250.792 107 219.751 107C209.334 107 199.542 104.249 191 99.534C196.626 97.7658 202.042 95.2116 207.459 93.8362Z" fill="#F4B400"/>
<path d="M1311.46 93.8362C1312.29 93.6399 1312.92 93.2469 1313.75 92.8539C1316.25 92.6575 1318.54 92.2645 1320.83 91.6752C1320.21 91.6752 1319.58 91.4787 1319.38 91.2822C1328.13 86.7632 1339.79 78.7079 1349.58 67.1158C1366.88 46.879 1369.38 34.6978 1369.17 29C1370 29.1965 1370.83 29.1965 1371.67 29C1371.67 29.393 1371.67 29.7858 1371.67 30.1789C1371.46 36.859 1367.92 49.2368 1351.67 68.4912C1343.13 78.7079 1334.17 85.5844 1326.25 90.2998C1352.5 83.2267 1372.5 62.204 1376.88 36.466C1378.96 41.9673 1380 47.8614 1380 53.9522C1380 83.2267 1354.79 107 1323.75 107C1313.33 107 1303.54 104.249 1295 99.534C1300.63 97.7658 1306.04 95.2116 1311.46 93.8362Z" fill="#F4B400"/>
<path d="M267.623 23.228C267.412 23.0295 267.199 22.8309 266.988 22.4338C256.611 8.73529 239.666 0 220.394 0C188.626 0 163 24.2207 163 54C163 73.6545 174.223 90.7279 190.955 100.257C199.639 105.221 209.593 108 220.394 108C252.162 108 278 83.7795 278 54C278 42.4854 274.189 31.9632 267.623 23.228ZM220.394 105.419C211.287 105.419 202.816 103.434 195.192 99.6618C193.921 99.0663 192.65 98.2721 191.379 97.6766C184.813 93.9044 179.307 88.7427 174.859 82.7869C174.223 81.9926 173.801 81.1986 173.166 80.4045C168.295 72.6618 165.329 63.5294 165.329 53.8014C165.329 25.4119 189.897 2.38235 220.183 2.38235C228.443 2.38235 236.277 4.16913 243.479 7.14706C244.539 7.54411 245.385 7.94119 246.443 8.53677C253.856 12.3088 260.422 17.6691 265.292 24.2207C266.352 25.6102 267.412 27.1986 268.259 28.7867C272.705 36.1324 275.247 44.8678 275.247 54C275.46 82.3898 250.891 105.419 220.394 105.419Z" fill="#5932C4"/>
<path d="M1371.62 23.228C1371.41 23.0295 1371.2 22.8309 1370.99 22.4338C1360.61 8.73529 1343.67 0 1324.39 0C1292.63 0 1267 24.2207 1267 54C1267 73.6545 1278.22 90.7279 1294.96 100.257C1303.64 105.221 1313.59 108 1324.39 108C1356.16 108 1382 83.7795 1382 54C1382 42.4854 1378.19 31.9632 1371.62 23.228ZM1324.39 105.419C1315.29 105.419 1306.82 103.434 1299.19 99.6618C1297.92 99.0663 1296.65 98.2721 1295.38 97.6766C1288.81 93.9044 1283.31 88.7427 1278.86 82.7869C1278.22 81.9926 1277.8 81.1986 1277.17 80.4045C1272.3 72.6618 1269.33 63.5294 1269.33 53.8014C1269.33 25.4119 1293.9 2.38235 1324.18 2.38235C1332.44 2.38235 1340.28 4.16913 1347.48 7.14706C1348.54 7.54411 1349.39 7.94119 1350.44 8.53677C1357.86 12.3088 1364.42 17.6691 1369.29 24.2207C1370.35 25.6102 1371.41 27.1986 1372.26 28.7867C1376.71 36.1324 1379.25 44.8678 1379.25 54C1379.46 82.3898 1354.89 105.419 1324.39 105.419Z" fill="#5932C4"/>
<path d="M174 83V80.6124C174.209 80.6124 201.203 79.6175 225.688 49.3747C249.964 19.5298 243.476 7.39276 243.476 7.1938L245.777 6C246.197 6.59689 253.312 19.5298 227.78 50.7675C202.459 82.0052 175.256 83 174 83Z" fill="#5932C4"/>
<path d="M1278 83V80.6124C1278.21 80.6124 1305.2 79.6175 1329.69 49.3747C1353.96 19.5298 1347.48 7.39276 1347.48 7.1938L1349.78 6C1350.2 6.59689 1357.31 19.5298 1331.78 50.7675C1306.46 82.0052 1279.26 83 1278 83Z" fill="#5932C4"/>
<path d="M267 28.3836C266.793 35.1663 263.262 47.9335 246.859 67.4834C226.302 92.0204 204.498 98.0051 195.361 99.6009C192.869 100 191.207 100 191 100V97.6061C191 97.6061 191.207 97.6061 191.623 97.6061C195.985 97.2072 221.524 94.0154 244.781 66.0869C266.377 39.9539 264.924 27.1867 263.885 23.7953C263.678 23.197 263.471 22.9974 263.471 22.9974L265.547 22H265.754C265.754 22 265.961 22.3989 266.17 22.7979C266.584 23.5958 267 25.5907 267 28.3836Z" fill="#5932C4"/>
<path d="M1371 28.3836C1370.79 35.1663 1367.26 47.9335 1350.86 67.4834C1330.3 92.0204 1308.5 98.0051 1299.36 99.6009C1296.87 100 1295.21 100 1295 100V97.6061C1295 97.6061 1295.21 97.6061 1295.62 97.6061C1299.98 97.2072 1325.52 94.0154 1348.78 66.0869C1370.38 39.9539 1368.92 27.1867 1367.88 23.7953C1367.68 23.197 1367.47 22.9974 1367.47 22.9974L1369.55 22H1369.75C1369.75 22 1369.96 22.3989 1370.17 22.7979C1370.58 23.5958 1371 25.5907 1371 28.3836Z" fill="#5932C4"/>
<path d="M318.74 350.111C317.204 347.654 318.125 344.275 320.889 342.74C323.654 341.204 326.725 342.125 328.26 344.89C329.796 347.654 328.874 350.725 326.11 352.26C323.654 353.796 320.275 352.875 318.74 350.111Z" fill="#5932C4"/>
<path d="M1422.74 350.111C1421.2 347.654 1422.13 344.275 1424.89 342.74C1427.65 341.204 1430.72 342.125 1432.26 344.89C1433.8 347.654 1432.87 350.725 1430.11 352.26C1427.65 353.796 1424.28 352.875 1422.74 350.111Z" fill="#5932C4"/>
<path d="M306.807 254.111C305.132 251.654 306.137 248.275 309.152 246.74C312.168 245.204 315.518 246.125 317.193 248.89C318.868 251.654 317.863 254.725 314.848 256.26C312.168 257.796 308.482 256.875 306.807 254.111Z" fill="#5932C4"/>
<path d="M1410.81 254.111C1409.13 251.654 1410.14 248.275 1413.15 246.74C1416.17 245.204 1419.52 246.125 1421.19 248.89C1422.87 251.654 1421.86 254.725 1418.85 256.26C1416.17 257.796 1412.48 256.875 1410.81 254.111Z" fill="#5932C4"/>
</svg>
