<svg width="910" height="608" viewBox="0 0 910 608" fill="none" xmlns="http://www.w3.org/2000/svg">
<path d="M427.581 388.13V376.797V367.849L482.15 351.743L483.911 362.48L487.431 375.007L490.952 394.095L489.778 406.025L482.15 417.359L469.828 424.517V429.885L476.283 435.254L469.828 440.026L456.332 443.008L440.49 440.026L436.382 435.254L440.49 428.096L442.837 417.359L438.143 410.201L434.622 400.657L432.275 394.692L427.581 388.13Z" fill="white"/>
<path d="M470.295 431.845C469.49 428.776 469.892 426.321 469.691 424.071Z" fill="white"/>
<path d="M470.295 431.845C469.49 428.776 469.892 426.321 469.691 424.071" stroke="#5113FF" stroke-width="3"/>
<path d="M443.127 417.115L440.108 431.435Z" fill="white"/>
<path d="M443.127 417.115L440.108 431.435" stroke="#5113FF" stroke-width="3"/>
<path d="M433.266 395.224L435.077 402.998C438.901 418.342 453.994 427.752 469.087 424.07C484.18 420.388 493.437 404.839 490.217 389.496L490.016 388.678L484.18 363.31" fill="white"/>
<path d="M433.266 395.224L435.077 402.998C438.901 418.342 453.994 427.752 469.087 424.07C484.18 420.388 493.437 404.839 490.217 389.496L490.016 388.678L484.18 363.31" stroke="#5113FF" stroke-width="3"/>
<path d="M480.155 363.106C477.338 361.265 474.118 359.628 470.898 358.605C470.697 358.605 470.697 358.605 470.495 358.605C470.294 358.605 470.294 358.81 470.294 358.81C467.276 366.788 444.133 376.404 442.724 374.358C440.309 370.88 432.662 371.494 431.656 376.404C431.656 376.404 428.839 387.655 441.114 397.066L441.316 397.271V397.475V397.68V397.884C441.316 397.884 441.316 398.089 441.114 398.089C440.913 398.089 440.913 398.089 440.913 398.294H440.712C439.706 398.294 437.291 397.884 433.668 395.839C429.04 393.179 427.027 386.837 427.43 374.972C427.832 363.924 428.235 360.651 431.455 355.127C434.071 350.627 438.901 342.443 460.031 342.034C482.57 341.625 483.777 360.242 483.979 362.901C483.979 363.106 483.979 363.106 483.979 363.106L483.777 363.31C483.174 363.515 482.57 363.72 481.966 363.72C481.362 363.515 480.759 363.311 480.155 363.106Z" fill="white" stroke="#5113FF" stroke-width="3"/>
<path d="M428.034 352.671C417.972 352.671 431.858 367.196 414.551 377.425C420.79 366.378 416.966 365.559 411.935 356.762C408.514 349.193 416.161 338.146 423.205 337.736C431.657 337.327 435.078 344.488 435.078 344.488" fill="white"/>
<path d="M428.034 352.671C417.972 352.671 431.858 367.196 414.551 377.425C420.79 366.378 416.966 365.559 411.935 356.762C408.514 349.193 416.161 338.146 423.205 337.736C431.657 337.327 435.078 344.488 435.078 344.488" stroke="#5113FF" stroke-width="3"/>
<path d="M438.901 345.922L436.486 343.876C432.864 346.535 429.845 350.013 427.833 353.9L429.845 355.332" fill="white"/>
<path d="M438.901 345.922L436.486 343.876C432.864 346.535 429.845 350.013 427.833 353.9L429.845 355.332" stroke="#5113FF" stroke-width="3"/>
<path d="M506.518 461.508V450.256C506.116 447.187 504.707 441.255 497.06 439.209C493.639 438.391 479.753 436.345 473.112 433.071L470.295 431.639C470.295 434.913 463.654 437.163 455.202 437.163C446.749 437.163 439.907 434.503 439.907 431.23L437.895 433.071C430.449 439.413 414.752 441.05 411.532 442.278C406.099 444.323 405.294 449.642 405.093 452.507V463.963" fill="white"/>
<path d="M506.518 461.508V450.256C506.116 447.187 504.707 441.255 497.06 439.209C493.639 438.391 479.753 436.345 473.112 433.071L470.295 431.639C470.295 434.913 463.654 437.163 455.202 437.163C446.749 437.163 439.907 434.503 439.907 431.23L437.895 433.071C430.449 439.413 414.752 441.05 411.532 442.278C406.099 444.323 405.294 449.642 405.093 452.507V463.963" stroke="#5113FF" stroke-width="3"/>
<path d="M470.294 431.845L475.728 434.504C475.728 438.391 465.263 442.483 455.403 442.483C445.542 442.483 436.285 438.596 436.285 434.709L439.907 431.64" fill="white"/>
<path d="M470.294 431.845L475.728 434.504C475.728 438.391 465.263 442.483 455.403 442.483C445.542 442.483 436.285 438.596 436.285 434.709L439.907 431.64" stroke="#5113FF" stroke-width="3"/>
<path d="M581.178 348.376C577.959 347.149 572.525 345.307 570.513 344.489C559.042 318.098 579.367 304.801 580.373 274.932C578.361 246.7 627.866 221.946 638.935 253.247C655.638 253.86 669.322 264.908 662.077 284.547C654.43 314.211 674.957 301.118 663.889 333.033C663.285 338.966 668.115 340.193 668.92 344.694L657.851 350.422" fill="white"/>
<path d="M581.178 348.376C577.959 347.149 572.525 345.307 570.513 344.489C559.042 318.098 579.367 304.801 580.373 274.932C578.361 246.7 627.866 221.946 638.935 253.247C655.638 253.86 669.322 264.908 662.077 284.547C654.43 314.211 674.957 301.118 663.889 333.033C663.285 338.966 668.115 340.193 668.92 344.694L657.851 350.422" stroke="#5113FF" stroke-width="3"/>
<path d="M633.501 337.534C632.092 332.419 630.08 328.532 629.677 324.85C654.028 317.076 650.808 285.161 640.142 266.954C626.86 258.975 615.389 259.998 600.296 270.841C598.887 271.863 598.686 274.114 599.894 275.341C605.327 281.07 605.528 289.457 603.516 296.208C603.717 290.48 598.686 282.911 593.051 287.616C586.209 293.14 596.875 306.437 596.875 306.437C601.504 317.894 612.169 326.486 605.528 339.784" fill="white"/>
<path d="M633.501 337.534C632.092 332.419 630.08 328.532 629.677 324.85C654.028 317.076 650.808 285.161 640.142 266.954C626.86 258.975 615.389 259.998 600.296 270.841C598.887 271.863 598.686 274.114 599.894 275.341C605.327 281.07 605.528 289.457 603.516 296.208C603.717 290.48 598.686 282.911 593.051 287.616C586.209 293.14 596.875 306.437 596.875 306.437C601.504 317.894 612.169 326.486 605.528 339.784" stroke="#5113FF" stroke-width="3"/>
<path d="M571.921 369.038C573.531 364.537 576.55 356.559 580.373 349.398C582.587 345.307 585.002 341.42 587.819 338.76C590.436 336.101 593.052 334.873 595.467 335.078C598.284 335.487 600.9 336.714 603.717 338.556C605.931 339.988 608.145 341.829 610.358 343.466C610.761 343.875 611.365 344.284 611.767 344.693C614.383 346.739 617.201 348.989 619.817 350.217C622.634 351.649 625.653 352.262 628.873 351.24C631.086 350.626 632.495 349.194 633.3 347.353C634.105 345.716 634.105 343.67 634.105 342.033C634.105 340.397 633.702 338.76 633.3 337.533C633.099 336.919 633.099 336.51 632.897 336.305C634.105 334.669 635.514 333.85 636.721 333.441C638.13 333.032 639.74 333.032 641.35 333.85C644.771 335.282 648.594 338.76 652.418 343.261C659.26 351.444 665.499 362.696 669.121 369.243" fill="white"/>
<path d="M571.921 369.038C573.531 364.537 576.55 356.559 580.373 349.398C582.587 345.307 585.002 341.42 587.819 338.76C590.436 336.101 593.052 334.873 595.467 335.078C598.284 335.487 600.9 336.714 603.717 338.556C605.931 339.988 608.145 341.829 610.358 343.466C610.761 343.875 611.365 344.284 611.767 344.693C614.383 346.739 617.201 348.989 619.817 350.217C622.634 351.649 625.653 352.262 628.873 351.24C631.086 350.626 632.495 349.194 633.3 347.353C634.105 345.716 634.105 343.67 634.105 342.033C634.105 340.397 633.702 338.76 633.3 337.533C633.099 336.919 633.099 336.51 632.897 336.305C634.105 334.669 635.514 333.85 636.721 333.441C638.13 333.032 639.74 333.032 641.35 333.85C644.771 335.282 648.594 338.76 652.418 343.261C659.26 351.444 665.499 362.696 669.121 369.243" stroke="#5113FF" stroke-width="3"/>
<path d="M428.167 218.127V181.74L459.266 174.582V207.986L428.167 218.127Z" fill="white" stroke="black"/>
<path d="M429.04 222.354C401.269 234.424 429.241 264.702 452.183 264.702C461.239 265.316 477.942 264.702 486.193 256.724C494.645 249.563 491.022 233.606 483.778 229.515" fill="white"/>
<path d="M429.04 222.354C401.269 234.424 429.241 264.702 452.183 264.702C461.239 265.316 477.942 264.702 486.193 256.724C494.645 249.563 491.022 233.606 483.778 229.515" stroke="#5113FF" stroke-width="3" stroke-miterlimit="10"/>
<path d="M428.839 209.67L429.442 233.811C440.913 232.583 445.34 247.313 444.938 247.518L445.139 248.131C489.211 247.927 483.777 249.563 482.771 208.034" fill="white"/>
<path d="M428.839 209.67L429.442 233.811C440.913 232.583 445.34 247.313 444.938 247.518L445.139 248.131C489.211 247.927 483.777 249.563 482.771 208.034" stroke="#5113FF" stroke-width="3" stroke-miterlimit="10"/>
<path d="M420.185 203.534C420.185 205.989 421.795 208.24 424.009 208.853L428.235 209.467C429.845 209.672 431.254 208.853 432.059 207.421C432.863 205.376 433.668 202.102 433.668 196.579C433.467 190.032 432.059 187.782 431.254 186.963C430.65 186.35 430.046 186.35 430.046 186.35L425.418 186.554C422.399 186.554 419.783 189.214 419.984 192.487L420.185 203.534Z" fill="white" stroke="#5113FF" stroke-width="3" stroke-miterlimit="10"/>
<path d="M486.192 175.302C486.192 175.302 489.412 143.183 453.994 143.797C421.996 144.206 423.405 179.598 424.009 186.349" fill="white"/>
<path d="M486.192 175.302C486.192 175.302 489.412 143.183 453.994 143.797C421.996 144.206 423.405 179.598 424.009 186.349" stroke="#5113FF" stroke-width="3" stroke-miterlimit="10"/>
<path d="M482.369 174.074C478.746 164.254 471.502 155.252 457.213 155.662C426.423 156.685 428.235 186.553 428.235 186.553" fill="white"/>
<path d="M482.369 174.074C478.746 164.254 471.502 155.252 457.213 155.662C426.423 156.685 428.235 186.553 428.235 186.553" stroke="#5113FF" stroke-width="3" stroke-miterlimit="10"/>
<path d="M448.56 157.299C448.56 157.299 448.157 163.027 457.012 163.027C463.452 163.027 464.659 162.413 466.672 157.299" fill="white"/>
<path d="M448.56 157.299C448.56 157.299 448.157 163.027 457.012 163.027C463.452 163.027 464.659 162.413 466.672 157.299" stroke="#5113FF" stroke-width="3" stroke-miterlimit="10"/>
<path d="M490.62 203.534V178.166C490.62 175.915 488.809 174.074 486.595 174.074H447.353C445.139 174.074 443.328 175.915 443.328 178.166V203.534C443.328 205.784 445.139 207.625 447.353 207.625H486.595C488.809 207.625 490.62 205.989 490.62 203.534Z" fill="white" stroke="#5113FF" stroke-width="3" stroke-miterlimit="10"/>
<path d="M455.805 181.03C450.372 181.03 450.17 184.917 450.17 184.917V207.012" fill="white"/>
<path d="M455.805 181.03C450.372 181.03 450.17 184.917 450.17 184.917V207.012" stroke="#5113FF" stroke-width="3" stroke-miterlimit="10"/>
<path d="M429.442 234.016L417.971 240.562" stroke="#5113FF" stroke-width="3" stroke-miterlimit="10"/>
<path d="M439.706 261.635C442.926 244.654 422.198 238.108 422.198 238.108Z" fill="white"/>
<path d="M439.706 261.635C442.926 244.654 422.198 238.108 422.198 238.108" stroke="#5113FF" stroke-width="3" stroke-miterlimit="10"/>
<path d="M784.336 472.834C775.886 472.356 758.909 467.465 751.477 465.079L762.039 461.5L769.08 459.71V455.535L773.187 451.956H777.295L778.468 446.587L780.228 438.236L773.187 434.061L766.733 426.306L763.799 419.148L762.625 412.587L763.799 398.271L766.146 380.376L768.493 371.428L755.584 367.849L750.303 362.481L745.609 352.34V342.2L762.039 343.393H764.972V339.217L766.146 337.427L773.774 342.796L780.228 343.393L790.79 341.007H800.179L808.98 343.989L814.261 348.165L819.542 356.516L821.889 366.06L827.757 371.428L830.691 377.393V383.358L827.757 395.288L821.302 407.815L820.129 414.973L816.021 426.306L808.98 434.657L813.087 450.763L817.782 451.359L821.2 457.73C821.234 457.48 822.329 457.541 826.583 459.114C831.747 461.023 838.123 465.874 840.666 468.062C834.407 469.652 821.068 472.834 817.782 472.834C813.674 472.834 794.898 473.43 784.336 472.834Z" fill="white"/>
<path d="M780.206 438.391C779.401 443.096 778.395 447.597 777.188 452.302" stroke="#5113FF" stroke-width="3"/>
<path d="M780.206 438.391C779.401 443.096 778.395 447.597 777.188 452.302" stroke="#5113FF" stroke-width="3"/>
<path d="M813.008 451.075L809.185 434.504" stroke="#5113FF" stroke-width="3"/>
<path d="M751.63 465.599C756.862 462.735 762.698 460.894 769.943 459.871" stroke="#5113FF" stroke-width="3"/>
<path d="M820.454 457.622C828.504 459.463 835.95 463.554 842.188 468.669" stroke="#5113FF" stroke-width="3"/>
<path d="M818.241 460.281C805.361 464.577 785.237 465.395 771.553 461.713C768.937 461.099 767.931 457.826 769.54 455.576L770.949 453.53C771.955 452.098 773.767 451.484 775.578 451.893C787.451 454.757 800.33 455.166 814.216 450.87C816.228 450.256 818.643 451.075 819.448 453.121L820.253 454.757C821.461 457.008 820.455 459.667 818.241 460.281Z" stroke="#5113FF" stroke-width="3"/>
<path d="M768.534 371.697C767.528 373.948 766.723 376.403 766.32 378.858L762.899 406.68C760.283 422.228 770.547 437.163 785.841 440.027L786.847 440.231C802.141 442.891 816.832 432.457 819.649 416.909L820.656 408.317" stroke="#5113FF" stroke-width="3"/>
<path d="M745.593 341.829C750.422 344.079 758.673 342.238 763.302 343.875C766.924 344.079 763.906 339.17 766.119 337.124C776.382 350.217 786.445 338.556 800.934 341.42C814.417 343.67 820.454 354.922 821.461 364.947C821.461 365.56 821.863 366.174 822.467 366.379C835.346 374.562 833.334 387.86 820.253 410.363C823.875 402.589 824.479 391.133 816.832 386.018C809.587 381.722 803.55 387.655 802.544 395.224C793.488 393.383 792.079 378.04 800.531 372.925C800.733 371.902 799.928 370.879 798.921 370.879C786.042 372.721 768.735 373.13 755.252 367.811C748.812 363.719 744.385 353.695 745.593 341.829Z" stroke="#5113FF" stroke-width="3"/>
<path d="M577.154 11.2292L515.775 119.452H392.817L331.438 11.2292" stroke="#5113FF" stroke-miterlimit="10" stroke-linecap="round" stroke-linejoin="round"/>
<path fill-rule="evenodd" clip-rule="evenodd" d="M515.775 97.9707H392.817L331.438 205.989L392.817 314.211H515.775L577.154 205.989L515.775 97.9707Z" stroke="#5113FF" stroke-miterlimit="10" stroke-linecap="round" stroke-linejoin="round"/>
<path fill-rule="evenodd" clip-rule="evenodd" d="M515.775 292.731H392.817L331.438 400.749L392.817 508.972H515.775L577.154 400.749L515.775 292.731Z" stroke="#5113FF" stroke-miterlimit="10" stroke-linecap="round" stroke-linejoin="round"/>
<path d="M1 205.989L62.5798 314.211H185.337L246.716 205.989L185.337 97.9707" stroke="#5113FF" stroke-miterlimit="10" stroke-linecap="round" stroke-linejoin="round"/>
<path d="M185.337 508.972L246.716 400.749L185.337 292.731H62.5798L1 400.749" stroke="#5113FF" stroke-miterlimit="10" stroke-linecap="round" stroke-linejoin="round"/>
<path d="M577.154 595.508L515.775 487.49H392.817L331.438 595.508" stroke="#5113FF" stroke-miterlimit="10" stroke-linecap="round" stroke-linejoin="round"/>
<path d="M166.219 109.223L227.598 217.241H350.355L411.935 109.223L350.355 1" stroke="#5113FF" stroke-miterlimit="10" stroke-linecap="round" stroke-linejoin="round"/>
<path fill-rule="evenodd" clip-rule="evenodd" d="M350.355 195.76H227.598L166.219 303.982L227.598 412H350.355L411.935 303.982L350.355 195.76Z" stroke="#5113FF" stroke-miterlimit="10" stroke-linecap="round" stroke-linejoin="round"/>
<path d="M20.9231 412L82.5029 303.982L20.9231 195.76" stroke="#5113FF" stroke-miterlimit="10" stroke-linecap="round" stroke-linejoin="round"/>
<path d="M350.355 606.76L411.935 498.742L350.355 390.519H227.598L166.219 498.742" stroke="#5113FF" stroke-miterlimit="10" stroke-linecap="round" stroke-linejoin="round"/>
<path d="M724.663 97.9707L663.284 205.989L724.663 314.211H847.42L909 205.989" stroke="#5D5FEF" stroke-miterlimit="10" stroke-linecap="round" stroke-linejoin="round"/>
<path d="M909 400.749L847.42 292.731H724.663L663.284 400.749L724.663 508.972" stroke="#5D5FEF" stroke-miterlimit="10" stroke-linecap="round" stroke-linejoin="round"/>
<path d="M559.645 1L498.065 109.223L559.645 217.241H682.402L743.781 109.223" stroke="#5D5FEF" stroke-miterlimit="10" stroke-linecap="round" stroke-linejoin="round"/>
<path fill-rule="evenodd" clip-rule="evenodd" d="M498.065 303.982L559.645 412H682.402L743.781 303.982L682.402 195.76H559.645L498.065 303.982Z" stroke="#5D5FEF" stroke-miterlimit="10" stroke-linecap="round" stroke-linejoin="round"/>
<path d="M889.078 195.76L827.498 303.982L889.078 412" stroke="#5D5FEF" stroke-miterlimit="10" stroke-linecap="round" stroke-linejoin="round"/>
<path d="M743.781 498.742L682.402 390.519H559.645L498.065 498.742L559.645 606.76" stroke="#5D5FEF" stroke-miterlimit="10" stroke-linecap="round" stroke-linejoin="round"/>
<path d="M822.869 303.982L826.894 296.822H744.385L748.41 303.982L744.989 310.324H826.491L822.869 303.982Z" fill="#00FFC2"/>
<path d="M251.344 206.193L247.319 213.353H330.834L326.81 206.193L330.231 199.851H247.923L251.344 206.193Z" fill="#00FFD7"/>
<path d="M521.812 295.39L563.872 221.537H557.231L553.407 214.786L511.549 288.639H517.989L521.812 295.39Z" fill="#5113FF"/>
<path d="M247.319 408.113H330.834L326.81 400.953L330.231 394.611H247.923L251.344 400.953L247.319 408.113Z" fill="#00FFC2"/>
<path d="M684.817 221.537H676.566L718.425 295.39L722.248 288.639H730.499L688.641 214.786L684.817 221.537Z" fill="#00FFD7"/>
<path d="M352.769 221.537H344.72L386.779 295.39L390.603 288.639H398.451L356.593 214.786L352.769 221.537Z" fill="#5113FF"/>
<path d="M356.593 393.179L399.055 318.507H390.603L386.779 311.756L344.317 386.427H352.77L356.593 393.179Z" fill="#5113FF"/>
<path d="M493.437 303.982L497.462 296.822H412.538L416.563 303.982L412.941 310.324H497.059L493.437 303.982Z" fill="#5113FF"/>
<path d="M403.684 310.324L407.105 303.982L403.08 296.822H395.232L391.408 303.573L395.232 310.324H403.684Z" fill="#5113FF"/>
<path d="M506.317 310.324H513.36L517.184 303.573L513.36 296.822H506.921L502.896 303.982L506.317 310.324Z" fill="#5113FF"/>
<path d="M680.189 394.611H671.334L667.913 400.953L671.938 408.113H680.189L684.012 401.362L680.189 394.611Z" fill="#5113FF"/>
<path d="M403.08 491.582H395.232L391.408 498.333L395.232 505.084H403.684L407.105 498.742L403.08 491.582Z" fill="#5113FF"/>
<path d="M513.36 491.582H506.921L502.896 498.742L506.317 505.084H513.36L517.184 498.333L513.36 491.582Z" fill="#5113FF"/>
<path d="M671.938 213.353H680.189L684.012 206.602L680.189 199.851H671.334L667.913 206.193L671.938 213.353Z" fill="#5113FF"/>
<path d="M845.207 296.822H836.352L832.327 303.982L835.748 310.324H845.207L849.03 303.573L845.207 296.822Z" fill="#5113FF"/>
<path d="M238.666 394.611H229.811L225.988 401.362L229.811 408.113H238.062L242.087 400.953L238.666 394.611Z" fill="#5113FF"/>
<path d="M506.317 115.564H513.36L517.184 108.813L513.36 102.062H506.921L502.896 109.222L506.317 115.564Z" fill="#5113FF"/>
<path d="M395.232 115.564H403.684L407.105 109.222L403.08 102.062H395.232L391.408 108.813L395.232 115.564Z" fill="#5113FF"/>
<path d="M229.811 213.353H238.062L242.087 206.193L238.666 199.851H229.811L226.189 206.602L229.811 213.353Z" fill="#5113FF"/>
<path d="M735.128 296.822H726.877L723.254 303.573L726.877 310.324H735.731L739.152 303.982L735.128 296.822Z" fill="#5113FF"/>
<path d="M390.603 483.398H398.451L356.593 409.545L352.769 416.296H344.72L386.779 490.15L390.603 483.398Z" fill="#00FFC2"/>
<path d="M179.501 288.639H187.752L191.575 295.39L233.434 221.537H225.183L221.359 214.786L179.501 288.639Z" fill="#00FFD7"/>
<path d="M165.615 296.822H83.1062L87.131 303.982L83.5087 310.324H165.011L161.59 303.982L165.615 296.822Z" fill="#00FFC2"/>
<path d="M174.872 296.822L170.847 303.982L174.269 310.324H183.123L186.745 303.573L183.123 296.822H174.872Z" fill="#5113FF"/>
<path d="M412.941 505.084H497.059L493.437 498.742L497.462 491.582H412.538L416.563 498.742L412.941 505.084Z" fill="#00FFC2"/>
<path d="M521.812 490.15L563.872 416.296H557.231L553.407 409.545L511.549 483.398H517.989L521.812 490.15Z" fill="#00FFC2"/>
<path d="M577.757 408.113H662.681L658.656 400.953L662.077 394.611H578.159L581.782 400.953L577.757 408.113Z" fill="#00FFC2"/>
<path d="M73.6479 296.822H64.7933L60.9697 303.573L64.7933 310.324H74.2517L77.6728 303.982L73.6479 296.822Z" fill="#5113FF"/>
<path d="M568.902 394.611H561.859L558.035 401.362L561.859 408.113H568.5L572.525 400.953L568.902 394.611Z" fill="#5D5FEF"/>
<path d="M497.462 102.062H412.538L416.563 109.222L412.941 115.564H497.059L493.437 109.222L497.462 102.062Z" fill="#00FFD7"/>
<path d="M339.689 199.851L336.067 206.193L340.092 213.353H348.141L351.965 206.602L348.141 199.851H339.689Z" fill="#5113FF"/>
<path d="M225.183 386.427H233.836L191.576 311.756L187.752 318.507H178.897L221.359 393.179L225.183 386.427Z" fill="#00FFD7"/>
<path d="M386.779 116.995L344.317 191.667H352.77L356.593 198.418L399.055 123.746H390.603L386.779 116.995Z" fill="#00FFD7"/>
<path d="M348.141 408.113L351.965 401.362L348.141 394.611H339.689L336.067 400.953L340.092 408.113H348.141Z" fill="#5113FF"/>
<path d="M561.859 199.851L558.035 206.602L561.859 213.353H568.5L572.525 206.193L568.902 199.851H561.859Z" fill="#5113FF"/>
<path d="M517.989 123.746H510.945L553.407 198.418L557.231 191.667H564.274L521.812 116.995L517.989 123.746Z" fill="#00FFD7"/>
<path d="M564.274 386.427L521.812 311.756L517.989 318.507H510.945L553.407 393.179L557.231 386.427H564.274Z" fill="#5113FF"/>
<path d="M688.641 393.179L731.103 318.507H722.249L718.425 311.756L676.164 386.427H684.818L688.641 393.179Z" fill="#00FFD7"/>
<path d="M662.077 199.851H578.159L581.782 206.193L577.757 213.353H662.681L658.656 206.193L662.077 199.851Z" fill="#00FFD7"/>
<path d="M262.112 249.741L267.98 250.338L272.087 244.373H279.128L284.409 246.759L286.756 244.373L291.45 243.18L296.731 244.373L299.665 249.145L307.293 247.952L310.814 250.934L311.987 255.706L316.681 260.479L318.442 266.444L316.681 273.005L311.987 275.988L316.095 308.795L315.508 316.55L309.64 329.673L297.905 338.62L301.425 345.778L309.64 357.112L331.937 367.849C331.937 368.843 331.351 371.07 329.003 372.024C326.07 373.217 306.12 376.2 288.516 376.796C274.434 377.274 255.657 371.826 248.029 369.042L271.5 357.112L276.781 348.164L278.541 340.41L271.5 337.427L261.525 330.269L255.657 318.339V307.602L256.244 300.444L249.79 292.093V285.532L247.443 282.549L245.682 275.988L249.79 270.619V262.268L256.244 260.479L257.418 253.32L262.112 249.741Z" fill="white"/>
<path d="M253.155 295.389C254.161 297.435 255.369 299.481 256.576 301.117C255.167 305.618 254.966 310.732 255.771 315.642C258.79 332.418 274.688 343.67 291.19 340.601C307.49 337.532 318.558 321.78 315.741 305.004L311.917 276.772" stroke="#5113FF" stroke-width="3" stroke-miterlimit="10"/>
<path d="M260.601 284.752C258.186 285.161 256.375 286.184 255.167 288.639C254.161 290.684 253.96 293.344 254.362 297.026C253.155 296.004 251.746 294.367 250.74 292.73C249.331 290.275 248.728 287.82 249.734 285.979L250.136 285.365L249.532 284.956C247.118 282.91 245.91 280.455 245.91 278C245.91 275.546 247.118 272.886 249.935 270.226L250.337 269.817L250.136 269.204C249.532 266.135 249.532 264.294 250.136 263.066C250.74 261.839 252.35 261.02 255.368 260.816H256.375L256.173 259.793C255.771 256.929 257.18 253.86 259.595 251.814C262.009 249.769 265.028 248.95 267.242 250.178L268.248 250.791L268.449 249.564C268.852 246.495 271.87 244.654 275.493 244.245C277.304 244.04 279.115 244.04 280.725 244.449C282.335 244.859 283.542 245.472 284.347 246.495L285.353 247.723L285.957 246.291C286.36 245.268 287.165 244.449 288.573 243.836C289.781 243.222 291.391 243.222 293.001 243.427C296.22 243.836 298.837 245.677 299.038 248.95L299.239 250.791L300.648 249.564C302.66 247.723 305.679 247.723 308.295 249.155C310.911 250.587 312.32 253.042 311.716 255.701L311.515 256.315L312.119 256.724C317.552 259.793 318.961 264.498 318.357 268.59C317.753 272.477 315.137 275.75 312.119 276.978C311.917 276.364 311.917 275.75 311.716 275.136V274.932C311.515 273.909 311.314 272.886 310.71 271.659L310.307 271.045L309.704 271.249C305.679 272.477 300.044 272.272 296.019 270.431L295.013 270.022L294.812 271.045C294.812 271.045 294.812 271.249 294.611 271.454C294.409 271.659 294.007 271.863 293.604 272.068C292.799 272.477 291.592 272.886 290.384 273.295C287.768 273.909 284.951 273.909 283.341 273.295L282.335 272.886L282.134 273.909C282.134 273.909 282.134 273.909 282.134 274.113C282.134 274.318 282.134 274.523 281.932 274.727C281.731 275.136 281.329 275.955 280.725 276.568C279.517 278.001 277.304 279.637 273.078 280.251L272.072 280.455L272.474 281.478C273.078 283.32 274.084 286.184 274.486 288.843C274.688 290.071 274.688 291.298 274.486 292.321C274.285 293.344 273.883 293.958 273.078 294.367C272.072 294.981 271.468 294.981 271.267 294.981C271.065 294.981 270.864 294.776 270.663 294.367C270.462 293.958 270.26 293.139 270.26 292.321C270.26 292.321 270.26 292.321 270.26 292.116C270.059 291.298 270.059 290.48 269.657 289.866C268.449 286.593 265.229 284.342 260.601 284.752Z" stroke="#5113FF" stroke-width="3" stroke-miterlimit="10"/>
<path d="M279.115 340.396C277.505 346.533 274.688 352.262 270.865 357.172C270.865 357.172 287.769 372.311 309.704 356.558C309.704 356.558 298.837 345.511 298.032 337.941" stroke="#5113FF" stroke-width="3" stroke-miterlimit="10"/>
<path d="M270.864 357.172L247.118 369.037" stroke="#5113FF" stroke-width="3" stroke-miterlimit="10"/>
<path d="M333.45 369.037L309.704 357.172" stroke="#5113FF" stroke-width="3" stroke-miterlimit="10"/>
<path d="M90.189 149.529C94.8831 141.416 107.01 139.786 112.486 139.985C116.594 139.834 125.395 141.774 129.502 144.16C133.61 146.546 138.304 153.108 140.064 156.09C141.473 158.476 143.389 164.64 144.172 167.424L145.345 178.161C145.15 178.758 145.228 180.07 147.106 180.547C148.983 181.024 149.844 183.927 150.039 185.319C150.235 188.302 150.626 195.221 150.626 199.039C150.626 202.856 147.497 204.606 145.932 205.004H142.411L142.998 228.864C143.585 228.864 145.58 228.983 148.866 229.46C152.973 230.057 159.428 232.443 162.361 234.829C164.709 236.738 169.989 241.589 172.337 243.776L178.791 252.724C177.226 253.519 172.923 255.468 168.229 256.899C162.361 258.689 147.692 261.671 136.544 263.461C125.395 265.25 109.552 265.25 105.445 265.25C102.159 265.25 84.1257 264.057 75.5198 263.461C76.1065 260.28 77.5148 252.962 78.4536 249.145C79.3924 245.327 83.9301 239.998 86.0816 237.811L89.6022 236.618L87.8419 205.6H84.3213C80.566 205.6 79.236 202.816 79.0404 201.425C78.6492 198.641 77.8668 192.119 77.8668 188.302C77.8668 184.484 79.8227 181.939 80.8007 181.144C80.8007 180.149 80.918 176.729 81.3875 171.003C81.9742 163.845 84.3213 159.669 90.189 149.529Z" fill="white"/>
<path d="M128.184 247.109H97.9983C97.9983 247.109 94.3759 247.109 91.961 244.859C90.5523 243.427 89.9486 241.586 89.9486 239.335C89.9486 230.538 85.5213 180.621 85.3201 178.575C85.3201 178.371 85.7226 151.366 111.481 148.707C112.488 148.707 113.494 148.502 114.5 148.502C137.442 148.502 141.064 175.916 141.265 176.939L142.875 229.311C131.203 233.402 128.587 244.041 128.184 247.109Z" stroke="#5113FF" stroke-width="3" stroke-miterlimit="10"/>
<path d="M128.184 247.11H97.9983C97.9983 247.11 94.3759 247.11 91.961 244.859C90.5523 243.427 89.9486 241.586 89.9486 239.336C89.9486 230.539 85.5213 180.621 85.3201 178.575C85.3201 178.371 85.7226 151.366 111.481 148.707C112.488 148.707 113.494 148.502 114.5 148.502C137.442 148.502 141.064 175.916 141.265 176.939L142.875 229.311C131.203 233.403 128.587 244.041 128.184 247.11Z" stroke="#5113FF" stroke-width="3" stroke-miterlimit="10"/>
<path d="M128.788 219.49C129.191 221.536 128.989 223.173 128.184 224.4C126.977 226.037 125.166 226.242 124.965 226.242H110.274C105.645 226.242 103.633 223.378 103.23 221.741" stroke="#5113FF" stroke-width="3" stroke-miterlimit="10"/>
<path d="M129.794 201.692L100.011 202.715C99.2056 202.715 98.6018 202.51 97.9981 201.897C97.3944 201.283 97.1931 200.669 96.9919 199.851L96.3882 185.735C96.3882 185.121 96.5894 184.303 96.9919 183.894C96.9919 183.894 96.9919 183.689 97.1931 183.689C97.1931 183.689 97.1931 183.689 97.3944 183.689C97.9981 183.075 98.6018 182.871 99.2055 182.871L128.989 182.052C130.599 182.052 131.807 183.28 132.008 184.917L132.612 198.828C132.612 200.26 131.404 201.692 129.794 201.692Z" stroke="#5113FF" stroke-width="3" stroke-miterlimit="10"/>
<path d="M141.668 180.007H144.485C145.894 180.007 147.302 180.416 148.309 181.439C149.315 182.462 149.919 183.69 150.12 185.326L150.522 199.238C150.724 202.306 148.309 204.761 145.29 204.966H142.473" stroke="#5113FF" stroke-width="3" stroke-miterlimit="10"/>
<path d="M86.9301 205.58L84.7164 205.785C81.6978 205.989 79.0817 203.739 78.8804 200.67L77.8742 186.963C77.673 185.531 78.2767 184.099 79.0817 182.872C80.0879 181.644 81.2953 181.031 82.704 181.031L84.9176 180.826" stroke="#5113FF" stroke-width="3" stroke-miterlimit="10"/>
<path d="M81.0939 181.849C80.8927 176.12 80.8927 142.365 109.469 140.114C119.33 139.296 127.379 141.751 133.417 147.275C145.29 157.913 145.491 176.734 145.491 179.803" stroke="#5113FF" stroke-width="3" stroke-miterlimit="10"/>
<path d="M131.606 183.28L129.392 179.598C128.184 177.757 126.373 176.734 124.763 176.938L104.035 177.961C102.426 177.961 100.816 178.984 99.8094 180.621L97.3945 184.303" stroke="#5113FF" stroke-width="3" stroke-miterlimit="10"/>
<path d="M90.3511 236.676C90.3511 236.676 78.8803 235.244 75.4592 264.09" stroke="#5113FF" stroke-width="3" stroke-miterlimit="10"/>
<path d="M143.076 229.311C143.076 229.311 162.194 225.015 179.099 253.451" stroke="#5113FF" stroke-width="3" stroke-miterlimit="10"/>
<path d="M160.181 233.403C160.181 233.403 142.875 232.38 137.441 258.975" stroke="#5113FF" stroke-width="3" stroke-miterlimit="10"/>
<path d="M89.7471 240.971C89.7471 240.971 85.1185 249.768 83.3074 264.293" stroke="#5113FF" stroke-width="3" stroke-miterlimit="10"/>
</svg>
