<svg width="601" height="152" viewBox="0 0 601 152" fill="none" xmlns="http://www.w3.org/2000/svg">
<path d="M19 100.198L24.2345 98.1256C34.6255 94.4075 48.2978 100.198 54.7042 111.109C61.1106 122.019 57.9074 133.844 47.4384 137.562L41.7351 140" fill="#02E2AC"/>
<path d="M19 100.198L24.2345 98.1256C34.6255 94.4075 48.2978 100.198 54.7042 111.109C61.1106 122.019 57.9074 133.844 47.4384 137.562L41.7351 140" stroke="#6F3FF5" stroke-width="1.81596" stroke-miterlimit="10" stroke-linecap="round"/>
<path d="M42.8956 140.58C53.4991 136.859 56.7903 124.988 50.2468 114.066C43.7032 103.144 29.8028 97.3063 19.1993 101.027C8.59582 104.749 5.3046 116.619 11.8482 127.542C18.3917 138.464 32.2921 144.302 42.8956 140.58Z" fill="#02E2AC" stroke="#6F3FF5" stroke-width="1.81596" stroke-miterlimit="10"/>
<path d="M40.3798 136.382C48.751 133.444 51.3587 124.088 46.2042 115.485C41.0498 106.881 30.0852 102.288 21.714 105.226C13.3428 108.163 10.7351 117.519 15.8895 126.123C21.044 134.727 32.0086 139.32 40.3798 136.382Z" fill="white" stroke="#6F3FF5" stroke-width="1.81596" stroke-miterlimit="10"/>
<path d="M37 128.936V119.677C37 119.173 36.6735 118.67 36.1837 118.355L27.1224 112.308C26.1429 111.678 25 112.056 25 113.064V122.323C25 122.827 25.3265 123.33 25.8163 123.645L34.8776 129.692C35.8571 130.322 37 129.944 37 128.936Z" fill="#02E2AC" stroke="#6F3FF5" stroke-width="1.81596" stroke-miterlimit="10"/>
<path d="M85.3212 28.9846L90.4877 29.7352C100.468 31.4996 106.173 41.2302 103.146 51.4751C100.119 61.7199 89.617 68.5823 79.5806 66.7852L73.8261 66.0924" fill="#02E2AC"/>
<path d="M85.3212 28.9846L90.4877 29.7352C100.468 31.4996 106.173 41.2302 103.146 51.4751C100.119 61.7199 89.617 68.5823 79.5806 66.7852L73.8261 66.0924" stroke="#6F3FF5" stroke-width="1.60229" stroke-miterlimit="10" stroke-linecap="round"/>
<path d="M74.4251 66.4943C84.4592 68.2485 95.0941 61.2918 98.1788 50.9561C101.264 40.6204 95.63 30.8196 85.596 29.0654C75.5619 27.3112 64.9271 34.2679 61.8423 44.6036C58.7576 54.9393 64.3911 64.7401 74.4251 66.4943Z" fill="#02E2AC" stroke="#6F3FF5" stroke-width="1.60229" stroke-miterlimit="10"/>
<path d="M75.6123 62.5214C83.5339 63.9063 91.9255 58.429 94.3554 50.2875C96.7853 42.1459 92.3333 34.4232 84.4117 33.0383C76.4901 31.6534 68.0985 37.1308 65.6687 45.2723C63.2388 53.4138 67.6907 61.1365 75.6123 62.5214Z" fill="white" stroke="#6F3FF5" stroke-width="1.60229" stroke-miterlimit="10"/>
<path d="M78.9636 55.6275L85.2841 49.3232C85.6281 48.9801 85.7397 48.5005 85.6061 48.0813L83.2848 40.1769C83.0175 39.3386 81.9462 39.1182 81.2582 39.8044L74.9377 46.1088C74.5937 46.4519 74.4821 46.9314 74.6157 47.3506L76.9371 55.2551C77.2043 56.0934 78.2757 56.3137 78.9636 55.6275Z" fill="#02E2AC" stroke="#6F3FF5" stroke-width="1.60229" stroke-miterlimit="10"/>
<path d="M24.4055 26.3437C32.8984 25.6613 39.0123 19.4875 38.0613 12.5542C37.1103 5.62077 29.4545 0.553316 20.9617 1.23567C12.4688 1.91803 6.35492 8.09181 7.30591 15.0252C8.25691 21.9586 15.9127 27.026 24.4055 26.3437Z" fill="#6F3FF5" stroke="#02E2AC" stroke-width="1.3868" stroke-miterlimit="10"/>
<path d="M21.3137 26.9438C29.8066 26.2614 35.9205 20.0876 34.9695 13.1543C34.0185 6.22087 26.3627 1.15341 17.8699 1.83577C9.37701 2.51813 3.26312 8.69191 4.21412 15.6253C5.16511 22.5587 12.8209 27.6261 21.3137 26.9438Z" fill="#6F3FF5" stroke="#02E2AC" stroke-width="1.3868" stroke-miterlimit="10"/>
<path d="M20.946 24.2665C27.6403 23.7287 32.4607 18.8705 31.7125 13.4156C30.9642 7.96067 24.9308 3.97459 18.2365 4.51245C11.5421 5.05031 6.72178 9.90843 7.46999 15.3634C8.2182 20.8183 14.2516 24.8044 20.946 24.2665Z" fill="white" stroke="#6F3FF5" stroke-width="1.3868" stroke-miterlimit="10"/>
<path d="M20.7992 18.7315L15.4673 15.972C15.1862 15.823 15.0318 15.5575 15.0754 15.298L15.9657 10.4191C16.0528 9.90002 16.8374 9.6328 17.3995 9.93069L22.7314 12.6902C23.0125 12.8392 23.1669 13.1047 23.1233 13.3642L22.233 18.2431C22.134 18.7417 21.3495 19.009 20.7992 18.7315Z" fill="#6F3FF5" stroke="#6F3FF5" stroke-width="1.3868" stroke-miterlimit="10"/>
<path d="M520.936 104.65L526.836 104.005C538.385 103.095 549.165 111.929 550.828 123.765C552.492 135.601 544.518 145.908 532.894 146.798L526.391 147.67" fill="#02E2AC"/>
<path d="M520.936 104.65L526.836 104.005C538.385 103.095 549.165 111.929 550.828 123.765C552.492 135.601 544.518 145.908 532.894 146.798L526.391 147.67" stroke="#6F3FF5" stroke-width="1.81596" stroke-miterlimit="10" stroke-linecap="round"/>
<path d="M520.936 104.65L526.836 104.005C538.385 103.095 549.165 111.929 550.828 123.765C552.492 135.601 544.518 145.908 532.894 146.798L526.391 147.67" fill="#02E2AC"/>
<path d="M520.936 104.65L526.836 104.005C538.385 103.095 549.165 111.929 550.828 123.765C552.492 135.601 544.518 145.908 532.894 146.798L526.391 147.67" stroke="#6F3FF5" stroke-width="1.81596" stroke-miterlimit="10" stroke-linecap="round"/>
<path d="M527.227 147.933C538.828 146.997 546.899 136.552 545.254 124.602C543.609 112.653 532.872 103.724 521.271 104.659C509.67 105.595 501.599 116.04 503.244 127.99C504.889 139.939 515.627 148.868 527.227 147.933Z" fill="#02E2AC" stroke="#6F3FF5" stroke-width="1.81596" stroke-miterlimit="10"/>
<path d="M527.227 147.933C538.828 146.997 546.899 136.552 545.254 124.602C543.609 112.653 532.872 103.724 521.271 104.659C509.67 105.595 501.599 116.04 503.244 127.99C504.889 139.939 515.627 148.868 527.227 147.933Z" fill="#02E2AC" stroke="#6F3FF5" stroke-width="1.81596" stroke-miterlimit="10"/>
<path d="M526.593 143.339C535.752 142.6 542.126 134.371 540.83 124.958C539.535 115.546 531.06 108.514 521.901 109.252C512.743 109.991 506.369 118.22 507.664 127.633C508.96 137.046 517.435 144.077 526.593 143.339Z" fill="white" stroke="#6F3FF5" stroke-width="1.81596" stroke-miterlimit="10"/>
<path d="M526.593 143.339C535.752 142.6 542.126 134.371 540.83 124.958C539.535 115.546 531.06 108.514 521.901 109.252C512.743 109.991 506.369 118.22 507.664 127.633C508.96 137.046 517.435 144.077 526.593 143.339Z" fill="white" stroke="#6F3FF5" stroke-width="1.81596" stroke-miterlimit="10"/>
<path d="M526.884 135.005L530.64 126.47C530.845 126.005 530.735 125.46 530.391 125.048L524.113 117.223C523.425 116.399 522.171 116.463 521.762 117.392L518.005 125.927C517.8 126.391 517.911 126.937 518.255 127.349L524.532 135.174C525.22 135.998 526.475 135.933 526.884 135.005Z" fill="#02E2AC" stroke="#6F3FF5" stroke-width="1.81596" stroke-miterlimit="10"/>
<path d="M526.884 135.005L530.64 126.47C530.845 126.005 530.735 125.46 530.391 125.048L524.113 117.223C523.425 116.399 522.171 116.463 521.762 117.392L518.005 125.927C517.8 126.391 517.911 126.937 518.255 127.349L524.532 135.174C525.22 135.998 526.475 135.933 526.884 135.005Z" fill="#02E2AC" stroke="#6F3FF5" stroke-width="1.81596" stroke-miterlimit="10"/>
<path d="M519.825 15.0483L524.689 13.5174C534.309 10.8234 546.031 16.5902 550.806 26.4374C555.581 36.2846 551.681 46.423 541.991 49.1128L536.676 50.9378" fill="#02E2AC"/>
<path d="M519.825 15.0483L524.689 13.5174C534.309 10.8234 546.031 16.5902 550.806 26.4374C555.581 36.2846 551.681 46.423 541.991 49.1128L536.676 50.9378" stroke="#6F3FF5" stroke-width="1.60229" stroke-miterlimit="10" stroke-linecap="round"/>
<path d="M519.825 15.0483L524.689 13.5174C534.309 10.8234 546.031 16.5902 550.806 26.4374C555.581 36.2846 551.681 46.423 541.991 49.1128L536.676 50.9378" fill="#02E2AC"/>
<path d="M519.825 15.0483L524.689 13.5174C534.309 10.8234 546.031 16.5902 550.806 26.4374C555.581 36.2846 551.681 46.423 541.991 49.1128L536.676 50.9378" stroke="#6F3FF5" stroke-width="1.60229" stroke-miterlimit="10" stroke-linecap="round"/>
<path d="M537.466 51.023C547.123 48.2982 551.068 38.0253 546.276 28.0778C541.485 18.1303 529.772 12.2752 520.115 15C510.458 17.7247 506.513 27.9976 511.305 37.9451C516.096 47.8926 527.809 53.7478 537.466 51.023Z" fill="#02E2AC" stroke="#6F3FF5" stroke-width="1.60229" stroke-miterlimit="10"/>
<path d="M537.466 51.023C547.123 48.2982 551.068 38.0253 546.276 28.0778C541.485 18.1303 529.772 12.2752 520.115 15C510.458 17.7247 506.513 27.9976 511.305 37.9451C516.096 47.8926 527.809 53.7478 537.466 51.023Z" fill="#02E2AC" stroke="#6F3FF5" stroke-width="1.60229" stroke-miterlimit="10"/>
<path d="M535.625 47.199C543.249 45.0478 546.37 36.9519 542.596 29.1161C538.821 21.2804 529.581 16.6721 521.957 18.8233C514.333 20.9744 511.212 29.0704 514.986 36.9061C518.761 44.7418 528.001 49.3501 535.625 47.199Z" fill="white" stroke="#6F3FF5" stroke-width="1.60229" stroke-miterlimit="10"/>
<path d="M535.625 47.199C543.249 45.0478 546.37 36.9519 542.596 29.1161C538.821 21.2804 529.581 16.6721 521.957 18.8233C514.333 20.9744 511.212 29.0704 514.986 36.9061C518.761 44.7418 528.001 49.3501 535.625 47.199Z" fill="white" stroke="#6F3FF5" stroke-width="1.60229" stroke-miterlimit="10"/>
<path d="M533.512 40.0232L534.308 32.1001C534.351 31.6689 534.103 31.2205 533.691 30.9253L526.106 25.2741C525.284 24.6836 524.23 24.9468 524.143 25.8092L523.347 33.7323C523.304 34.1635 523.553 34.6118 523.964 34.9071L531.549 40.5582C532.371 41.1488 533.426 40.8855 533.512 40.0232Z" fill="#02E2AC" stroke="#6F3FF5" stroke-width="1.60229" stroke-miterlimit="10"/>
<path d="M533.512 40.0232L534.308 32.1001C534.351 31.6689 534.103 31.2205 533.691 30.9253L526.106 25.2741C525.284 24.6836 524.23 24.9468 524.143 25.8092L523.347 33.7323C523.304 34.1635 523.553 34.6118 523.964 34.9071L531.549 40.5582C532.371 41.1488 533.426 40.8855 533.512 40.0232Z" fill="#02E2AC" stroke="#6F3FF5" stroke-width="1.60229" stroke-miterlimit="10"/>
<path d="M571.08 88.3663C578.468 91.6441 588.16 89.4119 592.729 83.3806C597.297 77.3492 595.011 69.8027 587.623 66.5249C580.235 63.247 570.543 65.4792 565.975 71.5106C561.406 77.5419 563.692 85.0885 571.08 88.3663Z" fill="#6F3FF5" stroke="#02E2AC" stroke-width="1.3868" stroke-miterlimit="10"/>
<path d="M571.08 88.3663C578.468 91.6441 588.16 89.4119 592.729 83.3806C597.297 77.3492 595.011 69.8027 587.623 66.5249C580.235 63.247 570.543 65.4792 565.975 71.5106C561.406 77.5419 563.692 85.0885 571.08 88.3663Z" fill="#6F3FF5" stroke="#02E2AC" stroke-width="1.3868" stroke-miterlimit="10"/>
<path d="M568.119 87.4571C575.507 90.7349 585.199 88.5027 589.768 82.4714C594.336 76.44 592.05 68.8935 584.662 65.6157C577.274 62.3379 567.582 64.57 563.014 70.6014C558.445 76.6327 560.731 84.1793 568.119 87.4571Z" fill="#6F3FF5" stroke="#02E2AC" stroke-width="1.3868" stroke-miterlimit="10"/>
<path d="M568.119 87.4571C575.507 90.7349 585.199 88.5027 589.768 82.4714C594.336 76.44 592.05 68.8935 584.662 65.6157C577.274 62.3379 567.582 64.57 563.014 70.6014C558.445 76.6327 560.731 84.1793 568.119 87.4571Z" fill="#6F3FF5" stroke="#02E2AC" stroke-width="1.3868" stroke-miterlimit="10"/>
<path d="M569.884 85.1284C575.708 87.7121 583.342 85.9598 586.936 81.2145C590.53 76.4693 588.723 70.528 582.9 67.9443C577.076 65.3606 569.442 67.1129 565.848 71.8582C562.254 76.6034 564.061 82.5447 569.884 85.1284Z" fill="white" stroke="#6F3FF5" stroke-width="1.3868" stroke-miterlimit="10"/>
<path d="M569.884 85.1284C575.708 87.7121 583.342 85.9598 586.936 81.2145C590.53 76.4693 588.723 70.528 582.9 67.9443C577.076 65.3606 569.442 67.1129 565.848 71.8582C562.254 76.6034 564.061 82.5447 569.884 85.1284Z" fill="white" stroke="#6F3FF5" stroke-width="1.3868" stroke-miterlimit="10"/>
<path d="M574.022 80.5878L571.838 75.9539C571.725 75.7068 571.805 75.4227 572.04 75.2326L576.515 71.6916C576.984 71.3114 577.824 71.4492 578.049 71.9434L580.234 76.5773C580.346 76.8244 580.266 77.1085 580.031 77.2986L575.557 80.8396C575.093 81.1979 574.253 81.0601 574.022 80.5878Z" fill="#6F3FF5" stroke="#6F3FF5" stroke-width="1.3868" stroke-miterlimit="10"/>
<path d="M574.022 80.5878L571.838 75.9539C571.725 75.7068 571.805 75.4227 572.04 75.2326L576.515 71.6916C576.984 71.3114 577.824 71.4492 578.049 71.9434L580.234 76.5773C580.346 76.8244 580.266 77.1085 580.031 77.2986L575.557 80.8396C575.093 81.1979 574.253 81.0601 574.022 80.5878Z" fill="#6F3FF5" stroke="#6F3FF5" stroke-width="1.3868" stroke-miterlimit="10"/>
</svg>
