<svg width="294" height="386" viewBox="0 0 294 386" fill="none" xmlns="http://www.w3.org/2000/svg">
<path d="M282.56 137.69C265.218 94.9486 268.19 73.2565 273.721 62.6096C279.726 51.0582 290.014 49.5548 290.114 49.533L289.952 47.8985C289.49 47.9654 278.815 49.4675 272.422 61.7488C264.082 77.7409 267.028 103.519 281.162 138.374C293.647 169.166 295.82 193.728 287.604 211.378C280.338 226.95 266.866 232.097 263.333 233.201C263.333 230.528 263.258 227.591 263.033 224.322C263.37 224.234 263.732 224.123 264.082 224.013L264.469 223.88L264.581 223.482C264.644 223.261 270.812 202.741 262.708 173.164L263.008 173.01C264.419 172.302 265.106 170.514 264.581 168.923L260.623 157.04C260.336 156.199 259.774 155.538 259.025 155.184C258.301 154.808 257.452 154.808 256.703 155.139L256.378 155.295C251.746 144.603 245.541 134.001 237.95 123.818C237.862 123.708 229.947 113.724 217.062 104.07C217.149 103.784 217.187 103.496 217.187 103.209C217.212 101.84 216.575 100.602 215.514 99.8737L211.631 97.3334C210.619 96.6703 209.408 96.6048 208.347 97.1574C206.499 98.1465 202.766 100.55 198.821 105.298C198.758 105.239 198.683 105.189 198.621 105.134C199.607 104.178 200.469 103.159 201.193 102.061C204.976 96.317 203.64 90.8612 203.603 90.6402L203.116 90.7957C206.574 83.7274 221.194 50.2628 200.556 26.7603C190.643 15.4504 178.008 10.4149 165.035 12.5786C152.175 14.7001 140.339 23.8217 134.858 35.8164C124.994 57.3967 123.009 64.8416 121.998 77.674L121.898 77.5867C121.786 77.7627 119.763 80.5677 119.538 83.947L119.501 83.8597C116.167 85.7369 114.382 89.6252 112.983 93.115C112.397 94.5939 111.835 96.0959 111.335 97.6649C109.15 97.3115 101.409 95.8981 88.4746 92.3196C86.0237 91.6566 84.4668 90.2432 83.7189 88.0562C80.424 78.3371 93.9057 57.1757 94.0306 56.9779L94.2054 56.69C109.612 51.5657 118.165 40.1235 118.527 39.616L118.789 39.2845L118.664 38.8643C115.893 29.1015 113.932 27.2242 113.72 27.025L113.333 26.6935L102.758 32.8778C108.763 24.3074 113.982 12.0261 114.195 11.4749L114.419 10.966L114.082 10.569C102.858 -2.8828 86.2659 0.319173 86.0836 0.364195L85.8826 0.407849L85.7203 0.585212C75.1689 11.2976 67.9536 33.0333 66.2144 38.6214L65.7899 37.0757L64.9009 38.5327C64.7186 38.8424 47.6998 67.5579 48.9321 93.7999L48.1043 94.0864C46.6285 94.5939 45.7596 96.2733 46.1029 97.9077L48.771 110.233C48.9533 111.117 49.4377 111.845 50.1456 112.287C50.6101 112.597 51.1357 112.751 51.6414 112.751C51.9236 112.751 52.187 112.707 52.4704 112.619L53.6216 112.265C63.344 129.296 98.7626 135.878 103.832 136.718C103.432 141.334 103.22 145.377 103.17 148.535C103.145 149.794 103.694 150.987 104.618 151.695C104.943 151.959 105.305 152.157 105.692 152.246L103.857 186.196C103.707 186.219 103.569 186.285 103.445 186.351C102.533 186.859 101.909 187.832 101.834 188.957L100.898 200.378C100.835 201.262 101.097 202.101 101.609 202.764L71.3896 210.119C63.9708 211.907 57.8467 217.584 55.0162 225.294L38.2595 270.775C37.6128 272.52 37.3306 274.375 37.3906 276.274L37.4118 276.937C37.4917 278.66 37.8563 280.316 38.483 281.84C36.6839 282.304 31.9531 282.636 23.2221 277.6C19.1993 275.281 15.3388 274.75 11.7605 276.031C5.81869 278.175 2.11929 284.845 0.441247 288.644C-0.610024 291.03 0.280143 293.924 2.44262 295.094L48.4076 320.032C49.0332 320.364 49.7012 320.541 50.3479 320.541C51.9847 320.541 53.5417 319.546 54.3096 317.845L61.626 301.764C62.0305 300.86 62.1716 299.843 62.0305 298.849L61.626 296.198L61.0978 296.292C61.0916 296.205 61.0991 296.118 61.0916 296.032C63.1143 295.944 65.1219 295.332 66.9023 294.145C68.8426 292.862 70.4195 291.007 71.4295 288.798L85.5181 258.448C86.3071 256.749 86.7304 254.937 86.8141 253.103L125.656 249.37L114.931 275.192C111.211 284.138 111.573 294.609 115.942 303.201L132.498 335.87C132.773 336.423 133.097 336.93 133.485 337.394L120.612 356.765C120.55 356.876 113.92 367.811 120.749 378.237C122.447 380.842 124.807 382.058 127.342 382.5C128.003 383.051 131.487 385.747 136.031 385.747C138.941 385.747 142.274 384.664 145.658 381.218C149.428 377.331 155.359 370.527 161.09 363.966C166.696 357.561 171.989 351.509 174.599 348.947C175.735 347.82 176.047 345.964 175.348 344.374L174.437 342.828C174.824 341.723 174.636 340.487 173.525 338.653L166.508 328.802L163.237 325.135L163.275 324.582C163.375 323.5 163.3 322.418 163.037 321.358L155.459 290.764C155.259 290.014 154.934 288.622 154.26 287.274L184.762 253.456C188.77 249.039 191.255 243.163 191.741 236.979L192.653 225.25H192.828C194.288 225.25 195.537 224.101 195.762 222.532L197.16 212.835C197.272 211.952 197.073 211.046 196.548 210.361C196.311 210.008 195.999 209.722 195.662 209.522L196.648 203.315L202.329 200.974C203.965 200.311 205.438 199.251 206.649 197.926C207.685 199.207 209.995 203.139 206.836 210.273C204.676 215.154 204.714 220.191 206.961 224.123C209.346 228.276 213.816 230.617 219.596 230.749L219.247 231.831C218.847 233.047 218.96 234.395 219.546 235.52C220.133 236.647 221.145 237.421 222.318 237.685L226.563 238.591C226.014 239.961 225.415 241.353 224.728 242.744C223.155 246.013 224.141 250.077 227.025 252.021C230.683 254.517 236.876 257.653 244.63 257.653C248.737 257.653 253.269 256.792 258.076 254.473C259.937 253.589 261.335 251.8 261.797 249.68C262.384 247.029 263.195 242.192 263.308 234.924C266.342 234.041 281.1 228.939 288.94 212.151C297.393 194.038 295.245 168.99 282.56 137.69ZM230.509 223.339C230.471 223.341 230.446 223.363 230.421 223.363C229.934 223.363 229.622 223.083 229.435 222.692C229.148 222.819 228.861 222.944 228.523 223.036C226.538 223.581 224.728 223.048 223.192 224.888C222.243 226.021 222.094 227.577 220.92 228.637C218.111 231.167 215.264 229.807 212.754 227.613C212.754 227.612 212.754 227.613 212.742 227.612C212.654 227.575 212.592 227.53 212.505 227.491C212.505 227.494 212.505 227.497 212.505 227.5C212.48 227.486 212.455 227.47 212.43 227.456C210.257 226.457 208.884 225.118 208.047 223.556C207.723 223.575 207.411 223.433 207.223 223.013C205.375 218.947 205.6 213.726 208.035 209.992C208.122 209.846 208.235 209.738 208.359 209.66C208.447 209.254 208.547 208.849 208.647 208.445C208.971 207.029 209.296 205.689 209.271 204.209C209.221 201.974 207.96 200.928 207.473 198.963C207.248 198.032 207.136 197.361 207.173 196.687C207.061 196.473 207.024 196.217 207.098 195.912C210.557 183.169 213.678 170.338 214.515 157.025C214.577 156.043 215.551 155.607 216.238 156.244C216.6 156.584 216.65 156.972 216.675 157.478C216.675 157.542 216.65 157.586 216.637 157.643C216.65 157.655 216.662 157.659 216.675 157.673C216.737 157.785 216.8 157.905 216.862 158.018C217.074 158.082 217.287 158.208 217.424 158.49C222.156 167.754 227.587 175.409 228.948 186.199C229.697 192.083 229.934 198.02 230.184 203.948C230.296 206.73 230.196 209.457 230.209 212.233C230.209 214.76 231.395 217.124 231.42 219.501C231.42 219.685 231.358 219.812 231.345 219.978C231.482 220.141 231.582 220.333 231.607 220.585C231.67 221.057 231.645 221.472 231.57 221.882C231.807 222.641 231.333 223.614 230.509 223.339Z" fill="white"/>
<path d="M134.746 72.8484L137.056 79.4748L140.477 82.7163L146.944 87.7573L157.157 92.7274L170.866 95.5365L180.418 94.0249L184.051 91.6469L185.437 89.6305L194.002 64.5645L192.741 59.3066L190.506 55.7772L153.662 38.418L149.579 39.1384L146.283 40.5068L143.448 44.3963L134.222 66.4377L134.746 72.8484Z" fill="#5A27FB"/>
<path d="M173.225 341.929C173.2 341.886 173.212 341.841 173.187 341.799C171.164 337.617 168.605 333.104 165.671 329.585C165.209 328.778 164.41 328.2 163.274 328.2C160.29 328.2 159.615 332.076 161.214 333.873C155.558 338.777 148.179 343.601 140.962 341.431C140.413 341.267 139.926 341.286 139.476 341.377C139.039 340.89 138.565 340.446 138.041 340.11C137.429 339.716 136.792 339.671 136.205 339.828C135.431 339.398 134.42 339.405 133.708 339.858C132.872 340.387 132.472 341.372 132.51 342.358C129.089 346.27 125.892 350.817 123.72 355.529C120.624 356.346 118.701 361.116 118.426 364.27C118.326 365.547 118.564 367.034 119.437 367.966C119.275 368.87 119.138 369.738 119.025 370.521C118.426 374.461 120.673 378.618 124.045 379.161C124.269 379.318 124.482 379.479 124.744 379.605C125.393 379.929 126.117 380.135 126.866 380.235C127.915 381.172 129.101 382.069 130.462 382.912C137.254 387.103 142.348 382.882 147.28 377.54C153.572 370.712 159.341 363.213 165.471 356.173C169.317 354.218 171.964 350.672 174.298 346.581C175.285 344.847 174.523 342.935 173.225 341.929Z" fill="#C4C1CF"/>
<path d="M60.7741 298.224C60.7229 297.089 60.1836 296.047 59.0611 295.667C58.5217 295.33 57.9162 295.149 57.3169 295.182C54.0945 294.299 51.4563 292.521 48.8119 290.165C46.3909 288.008 43.8277 284.733 40.6589 284.135C40.1894 283.306 39.3692 282.754 38.1893 282.88C34.9206 283.228 32.4285 283.154 29.4058 281.566C27.1971 280.404 25.0059 278.487 22.4576 278.739C22.3827 278.748 22.3116 278.769 22.2379 278.786C19.6347 277.064 15.773 276.468 13.4944 276.873C8.74372 277.716 2.11642 284.055 1.35231 289.375C1.23245 290.209 1.33487 290.963 1.65324 291.581C1.63452 292.194 1.82806 292.822 2.3874 293.364C7.5189 298.344 14.1224 300.875 20.3939 303.724C21.4214 304.191 22.4476 304.668 23.4752 305.151C26.4679 307.084 29.9015 308.499 32.8431 309.962C37.2866 312.171 42.0223 316.063 46.7955 317.058C47.4248 318.747 48.9929 319.946 50.9057 319.317C51.1966 319.222 51.4888 319.126 51.7797 319.029C52.8085 318.691 53.5002 317.833 53.8635 316.836C57.5717 312.399 59.7478 305.08 60.7641 299.583C60.8515 299.108 60.8478 298.652 60.7741 298.224Z" fill="#C4C1CF"/>
<path d="M56.3097 104.666L59.22 100.117L54.6929 98.7918L53.7227 95.5216C53.257 93.9759 51.8424 93.07 50.4278 93.3129C50.2867 93.3347 50.1444 93.3797 50.0033 93.4234L48.9321 93.7986L48.103 94.0864C46.6273 94.5939 45.7583 96.2734 46.1016 97.9078L48.7698 110.233C48.952 111.117 49.4377 111.845 50.1444 112.287C50.6101 112.597 51.1358 112.751 51.6402 112.751C51.9236 112.751 52.1858 112.708 52.4692 112.619L53.6216 112.266L54.7739 111.912C54.8951 111.867 55.0162 111.823 55.1173 111.78C56.3908 111.184 57.1387 109.725 56.8965 108.201L56.3097 104.666ZM55.3995 108.51C55.5418 109.305 55.0973 110.079 54.3694 110.3L52.0447 111.028C51.6614 111.139 51.2568 111.095 50.9135 110.852C50.5689 110.631 50.3267 110.278 50.2455 109.858L47.5774 97.5326C47.4163 96.7372 47.8408 95.8982 48.5687 95.6554L50.4678 95.0141C50.6101 94.9473 50.7512 94.9255 50.8923 94.9255C51.4991 94.9255 52.0858 95.3675 52.2669 96.0305L53.5205 100.16L56.7342 101.111L54.7128 104.291L55.3995 108.51Z" fill="#24048F"/>
<path d="M264.581 168.923L260.623 157.04C260.336 156.199 259.774 155.538 259.025 155.183C258.301 154.808 257.452 154.808 256.703 155.139L256.378 155.293L254.967 155.935L254.481 156.156C253.07 156.796 252.333 158.497 252.782 160.088L253.731 163.534L251.322 168.437L255.979 169.166L257.29 172.302C257.789 173.473 258.863 174.181 259.999 174.181C260.399 174.181 260.811 174.092 261.21 173.893L261.31 173.849L262.708 173.164L263.008 173.009C264.419 172.302 265.106 170.513 264.581 168.923ZM262.396 171.485L260.586 172.391C259.849 172.744 259 172.391 258.663 171.595L257.003 167.663L253.694 167.134L255.367 163.71L254.218 159.602C254.019 158.828 254.356 157.989 255.067 157.68L257.29 156.685C257.652 156.509 258.051 156.509 258.426 156.685C258.788 156.862 259.063 157.194 259.212 157.613L263.17 169.497C263.433 170.271 263.083 171.153 262.396 171.485Z" fill="#24048F"/>
<path d="M61.626 301.764L54.3096 317.845C53.5417 319.546 51.9847 320.54 50.3479 320.54C49.7012 320.54 49.0332 320.364 48.4064 320.032L2.44262 295.093C0.280143 293.922 -0.610024 291.029 0.441247 288.644C2.11929 284.845 5.81869 278.173 11.7605 276.031C15.3388 274.75 19.1993 275.28 23.2221 277.599C31.9531 282.636 36.6839 282.304 38.4818 281.84C39.0486 281.686 39.3108 281.531 39.332 281.531L40.0999 282.945C40.0587 282.967 39.7766 283.165 39.2097 283.342C38.3819 283.607 36.966 283.873 34.8647 283.652C34.1768 283.585 33.4089 283.475 32.5599 283.276C29.973 282.701 26.6581 281.465 22.5142 279.079C20.7763 278.086 19.0782 277.445 17.4401 277.18C16.9157 277.091 16.4101 277.048 15.9044 277.024C14.6509 276.981 13.4186 277.18 12.2263 277.622C8.28461 279.035 5.37299 282.746 3.49394 286.015C3.21052 286.501 2.94834 286.986 2.7261 287.45C2.36152 288.135 2.05812 288.776 1.81591 289.351C1.10798 290.942 1.69481 292.841 3.10941 293.614L49.0744 318.552C50.509 319.325 52.2469 318.684 52.9549 317.117L53.8238 315.194L54.5118 313.714L60.2726 301.036C60.5348 300.44 60.6359 299.777 60.5347 299.114L60.1302 296.463L61.626 296.198L62.0305 298.849C62.1716 299.842 62.0305 300.858 61.626 301.764Z" fill="#24048F"/>
<path d="M54.8334 313.891L54.1455 315.37L53.8221 315.194L2.7231 287.45L2.44092 287.296L3.10763 285.816L3.49216 286.015L54.51 313.714L54.8334 313.891Z" fill="#24048F"/>
<path d="M165.198 135.855C164.873 132.365 163.7 129.03 161.739 126.181C158.83 121.939 154.585 119.2 149.778 118.471C142.299 117.345 135.183 121.365 131.462 128.08C131.2 128.544 130.938 129.03 130.738 129.538C129.864 131.371 129.277 133.382 128.978 135.524C128.853 136.474 128.778 137.379 128.778 138.307C128.778 138.903 128.778 139.5 128.84 140.075C129.103 143.786 130.289 147.319 132.374 150.345C135.258 154.587 139.503 157.303 144.335 158.033C145.171 158.165 146.02 158.231 146.819 158.231C151.314 158.231 155.534 156.42 158.83 153.349C160.403 151.892 161.764 150.124 162.838 148.115C163.1 147.607 163.362 147.076 163.575 146.524C164.324 144.801 164.848 142.945 165.123 141.003C165.273 139.832 165.335 138.683 165.298 137.535C165.298 136.96 165.273 136.408 165.198 135.855ZM163.625 140.736C163.362 142.726 162.788 144.603 161.964 146.326V146.348C158.793 153.217 151.863 157.502 144.534 156.398C140.14 155.735 136.232 153.239 133.585 149.352C130.913 145.442 129.802 140.626 130.476 135.766C130.751 133.713 131.337 131.791 132.174 130.046C132.249 129.847 132.336 129.671 132.436 129.493C135.408 123.706 141.063 119.93 147.269 119.93C148.018 119.93 148.779 119.995 149.579 120.106C153.986 120.769 157.856 123.287 160.528 127.152C163.2 131.062 164.286 135.877 163.625 140.736Z" fill="#24048F"/>
<path d="M180.155 134.353C180.13 134.31 180.118 134.243 180.08 134.199C179.568 133.47 178.819 133.007 177.97 132.896L174.137 132.344C172.452 132.123 170.916 133.36 170.654 135.105L170.454 136.43L170.229 138.064L168.918 147.121L168.669 148.734L168.356 150.943C168.232 151.782 168.406 152.643 168.881 153.328C169.38 154.079 170.104 154.543 170.953 154.676L174.924 155.315C175.086 155.339 175.248 155.36 175.411 155.36C176.31 155.36 177.146 154.94 177.733 154.233C178.095 153.77 178.382 153.195 178.457 152.532L180.642 136.607C180.767 135.833 180.58 135.038 180.155 134.353ZM175.149 153.681L171.166 153.041C170.741 152.974 170.354 152.731 170.104 152.356C169.892 152.025 169.792 151.605 169.842 151.208L172.152 135.37C172.277 134.574 172.964 133.978 173.725 133.978C173.813 133.978 173.875 133.978 173.95 134L177.795 134.531C178.232 134.596 178.619 134.84 178.857 135.215C179.106 135.547 179.206 135.966 179.144 136.364L176.959 152.289C176.846 153.195 176.01 153.813 175.149 153.681Z" fill="#24048F"/>
<path d="M187.009 134.221C186.909 134.088 186.785 133.956 186.66 133.845C186.298 133.536 185.861 133.338 185.386 133.316L182.377 133.117C181.528 133.072 180.704 133.559 180.155 134.353C179.805 134.818 179.568 135.414 179.468 136.076L177.283 151.892C177.183 152.731 177.321 153.57 177.733 154.233C177.77 154.322 177.808 154.411 177.87 154.476C178.269 155.029 178.844 155.36 179.468 155.426L182.564 155.692C182.627 155.714 182.677 155.714 182.739 155.714C184.075 155.714 185.311 154.411 185.536 152.709L185.598 152.312L187.596 136.806C187.733 135.855 187.509 134.906 187.009 134.221ZM184.013 152.467C183.913 153.372 183.251 154.079 182.677 154.057L179.593 153.769C179.368 153.748 179.206 153.637 179.044 153.438C178.819 153.13 178.719 152.643 178.806 152.135L180.979 136.319C181.079 135.436 181.753 134.73 182.302 134.773L185.286 134.972C185.511 134.972 185.698 135.083 185.836 135.281C186.06 135.59 186.16 136.076 186.098 136.585L184.013 152.467Z" fill="#24048F"/>
<path d="M171.102 136.496L170.978 138.131C170.74 138.109 170.478 138.087 170.228 138.065C168.555 137.91 166.895 137.734 165.297 137.535C164.91 137.491 164.535 137.446 164.148 137.402L164.323 135.746C164.61 135.79 164.91 135.812 165.197 135.857C166.895 136.078 168.655 136.254 170.453 136.431C170.653 136.453 170.878 136.475 171.102 136.496Z" fill="#24048F"/>
<path d="M132.711 128.522L132.436 129.494L132.274 130.09C132.224 130.068 132.211 130.068 132.174 130.046C131.687 129.892 131.2 129.715 130.738 129.539C121.698 126.292 116.055 123.132 113.758 121.719C113.021 121.276 112.622 120.99 112.559 120.945L113.371 119.553C113.371 119.553 113.633 119.753 114.157 120.062C116.155 121.322 121.986 124.679 131.462 128.08C131.862 128.234 132.286 128.368 132.711 128.522Z" fill="#24048F"/>
<path d="M169.492 148.831C166.895 148.598 164.311 148.31 161.789 147.974L161.976 146.33C164.473 146.662 167.045 146.948 169.617 147.181L169.492 148.831Z" fill="#24048F"/>
<path d="M129.351 140.281C117.378 135.966 111.335 131.822 111.085 131.648L111.896 130.249C111.959 130.292 118.052 134.464 129.825 138.708L129.351 140.281Z" fill="#24048F"/>
<path d="M178.133 199.781L168.594 198.213C167.258 197.992 165.947 198.367 164.848 199.229C163.787 200.112 163.075 201.371 162.888 202.829L162.576 205.192L162.351 206.85L160.503 220.102L160.291 221.759L160.141 222.797C159.742 225.779 161.614 228.584 164.349 229.026L173.913 230.595C174.15 230.639 174.412 230.661 174.662 230.661C177.084 230.661 179.231 228.695 179.606 225.978L179.831 224.388L180.055 222.753L181.878 209.566L182.09 207.932L182.365 206.009C182.765 203.028 180.867 200.222 178.133 199.781ZM180.842 205.767L178.12 225.736C177.833 227.834 176.047 229.269 174.137 228.961L164.586 227.392C162.676 227.082 161.352 225.116 161.639 223.04L164.386 203.072C164.536 202.056 165.01 201.173 165.76 200.554C166.509 199.957 167.445 199.715 168.369 199.869L177.908 201.416C179.818 201.747 181.141 203.69 180.842 205.767Z" fill="#24048F"/>
<path d="M123.322 186.02L120.3 185.489C119.576 185.357 118.852 185.556 118.265 186.02C117.678 186.506 117.291 187.191 117.166 187.986L116.567 192.116L116.317 193.817L114.407 207.114L114.157 208.793L113.533 213.145C113.433 213.918 113.595 214.712 114.02 215.353C114.469 216.016 115.094 216.435 115.818 216.546L118.827 217.076C118.989 217.098 119.126 217.12 119.276 217.12C120.587 217.12 121.761 216.06 121.961 214.58L122.348 211.885L122.585 210.229L124.483 197.174L124.732 195.495L125.606 189.421C125.819 187.809 124.807 186.263 123.322 186.02ZM120.462 214.337C120.362 215.067 119.738 215.553 119.076 215.442L116.055 214.911C115.73 214.868 115.456 214.669 115.256 214.382C115.069 214.094 114.994 213.741 115.031 213.388L118.664 188.229C118.727 187.875 118.889 187.566 119.151 187.367C119.376 187.191 119.613 187.102 119.863 187.102C119.938 187.102 120 187.124 120.063 187.124L123.097 187.654C123.746 187.765 124.208 188.45 124.108 189.178L120.462 214.337Z" fill="#24048F"/>
<path d="M109.188 189.081L107.278 205.224L108.776 205.436L110.699 189.294L109.188 189.081Z" fill="#24048F"/>
<path d="M130.213 197.91L128.378 213.338L129.876 213.552L131.711 198.124L130.213 197.91Z" fill="#24048F"/>
<path d="M144.183 201.832L142.36 217.19L143.859 217.402L145.694 202.045L144.183 201.832Z" fill="#24048F"/>
<path d="M156.994 204.667L155.221 219.595L156.732 219.809L158.505 204.881L156.994 204.667Z" fill="#24048F"/>
<path d="M187.808 209.372L186.022 224.373L187.521 224.586L189.306 209.585L187.808 209.372Z" fill="#24048F"/>
<path d="M200.556 26.7589C190.643 15.4504 178.007 10.4135 165.035 12.5786C152.175 14.6987 140.339 23.8216 134.858 35.8164C124.994 57.3967 123.009 64.8402 121.998 77.674C121.96 78.0055 121.935 78.337 121.923 78.6904V78.8227L121.935 78.9332C121.935 78.9332 121.985 79.0874 122.048 79.3534C122.085 79.5076 122.148 79.7504 122.247 80.0601C123.721 84.8092 131.924 105.926 161.988 107.67C163.849 107.781 165.597 107.825 167.282 107.825C194.401 107.825 201.293 94.7712 202.291 92.4737C202.366 92.2964 202.404 92.1859 202.429 92.1422C202.454 92.0986 202.691 91.6347 203.115 90.7943C206.574 83.726 221.182 50.2615 200.556 26.7589ZM201.08 91.4137C201.018 91.5897 194.663 107.913 162.063 106.014C131.162 104.224 124.208 81.4954 123.496 78.8896L123.459 78.6686C124.407 65.5469 126.23 58.368 136.206 36.5449C141.487 25.0372 152.887 16.2676 165.26 14.213C177.745 12.1366 189.893 17.018 199.457 27.9077C221.719 53.2874 201.343 90.9048 201.08 91.4137Z" fill="#24048F"/>
<path d="M201.193 102.061C196.448 109.283 186.073 113.436 170.366 114.364C168.755 114.474 167.182 114.518 165.647 114.518C141.388 114.518 129.214 102.657 123.621 94.1299C123.621 94.1081 123.621 94.1081 123.621 94.1081C123.433 93.8434 123.271 93.5992 123.109 93.3564C121.636 90.9935 120.662 88.9388 120.075 87.5254C119.838 86.9293 119.675 86.3112 119.613 85.6918C119.501 85.0956 119.501 84.5213 119.538 83.9469C119.763 80.5676 121.773 77.7626 121.898 77.5853L121.998 77.6739L123.071 78.6235C123.071 78.6453 122.672 79.1979 122.247 80.0601C121.411 81.6727 120.449 84.3671 121.461 86.8406C124.183 93.4451 135.732 114.806 170.291 112.707C189.207 111.58 196.848 105.793 199.944 101.133C202.229 97.6866 202.429 94.3073 202.291 92.4737C202.241 91.6115 202.129 91.104 202.129 91.0821L203.115 90.7943L203.602 90.6401C203.64 90.8611 204.976 96.3169 201.193 102.061Z" fill="#24048F"/>
<path d="M123.783 93.7984C123.783 93.8216 123.721 93.9089 123.621 94.1081C123.621 94.1081 123.621 94.1081 123.621 94.13C122.647 95.9636 117.803 105.505 114.157 120.062C114.02 120.615 113.895 121.167 113.757 121.72C113.108 124.436 112.521 127.308 112.022 130.334C111.922 130.908 111.81 131.483 111.735 132.079C110.911 137.248 110.324 142.836 110.112 148.734C110.062 150.302 109.163 151.65 107.827 152.18C107.627 152.268 107.415 152.313 107.203 152.356C107.028 152.378 106.828 152.4 106.641 152.4C106.316 152.4 105.991 152.356 105.692 152.246C105.305 152.157 104.943 151.959 104.618 151.693C103.694 150.986 103.145 149.794 103.17 148.535C103.22 145.377 103.432 141.334 103.832 136.717C103.869 136.187 103.931 135.636 103.969 135.083C104.98 124.326 107.04 110.939 110.798 99.2542C110.961 98.7249 111.148 98.1941 111.335 97.6648C111.835 96.0959 112.396 94.5938 112.983 93.1149C114.382 89.6237 116.155 85.7369 119.501 83.8596L119.538 83.9469L120.2 85.3167C120 85.4272 119.8 85.5595 119.613 85.6919C117.066 87.46 115.593 90.7725 114.382 93.7766C107.165 111.802 104.88 136.696 104.681 148.579C104.656 149.287 104.968 149.948 105.492 150.347C106.029 150.765 106.703 150.876 107.327 150.611C108.077 150.325 108.563 149.551 108.601 148.667C109.712 116.065 122.372 93.1804 122.51 92.9376L123.109 93.3578L123.783 93.7984Z" fill="#24048F"/>
<path d="M111.96 97.7521L111.76 99.4097C111.735 99.4097 111.435 99.3647 110.799 99.2542C108.251 98.8135 100.573 97.3769 88.0875 93.9308C85.1747 93.1136 83.2133 91.325 82.3044 88.6305C79.2117 79.4857 88.9491 62.3449 91.9706 57.3748H91.4586C73.9553 57.3748 67.2457 45.2258 65.3854 40.8083C62.1104 46.7279 49.5389 70.9153 50.4279 93.3127C50.4478 93.7329 50.4678 94.1518 50.4891 94.572L48.972 94.6825C48.9521 94.3946 48.9321 94.1081 48.9321 93.7984C47.6986 67.5578 64.7186 38.8424 64.9009 38.5327L65.7899 37.0756L66.2144 38.6213L66.2543 38.7537C66.2955 38.8642 66.4566 39.4386 66.8212 40.2776C68.5991 44.6297 75.1889 56.6449 93.3814 55.6735L94.9171 55.5849L94.2054 56.6899L94.0306 56.9764C93.9058 57.1756 80.4241 78.337 83.719 88.0562C84.4668 90.2431 86.0225 91.6565 88.4746 92.3195C101.409 95.8967 109.15 97.3115 111.335 97.6648C111.735 97.7303 111.935 97.7521 111.96 97.7521Z" fill="#24048F"/>
<path d="M104.593 135.194L104.381 136.828C104.294 136.806 104.119 136.784 103.832 136.718C98.7627 135.878 63.3441 129.296 53.6217 112.265C53.5605 112.155 53.4806 112.023 53.4194 111.912L54.7129 111.073C54.834 111.316 54.9763 111.536 55.1174 111.78C64.6575 127.616 98.9375 134.199 103.969 135.083C104.356 135.149 104.581 135.194 104.593 135.194Z" fill="#24048F"/>
<path d="M118.789 39.2845L118.527 39.616C118.165 40.1235 109.613 51.5657 94.2056 56.69C94.0433 56.7568 93.8685 56.8223 93.7062 56.8674L93.3816 55.6736L93.2817 55.2766C107.091 50.8372 115.531 40.852 117.091 38.9093C115.169 32.2598 113.695 29.609 113.084 28.7263L101.185 35.6623C100.76 35.927 100.236 35.8165 99.9364 35.3963C99.6493 34.9992 99.6492 34.4249 99.9739 34.0265C105.817 26.6048 111.448 13.9484 112.622 11.2757C102.633 -0.231996 88.4748 1.64525 86.5895 1.95358C75.068 13.8597 67.3257 40.1672 67.2458 40.4332L66.8214 40.2777L65.8101 39.9243C65.8513 39.792 65.9723 39.3499 66.2146 38.6214C67.9525 33.0333 75.1691 11.2976 85.7205 0.585212L85.8816 0.407849L86.0838 0.364195C86.2661 0.319173 102.858 -2.8828 114.082 10.569L114.419 10.966L114.195 11.4749C113.982 12.0261 108.764 24.3074 102.758 32.8778L113.333 26.6935L113.72 27.025C113.933 27.2242 115.893 29.1015 118.665 38.8643L118.789 39.2845Z" fill="#24048F"/>
<path d="M215.513 99.8736L211.63 97.3334C210.619 96.6703 209.408 96.6048 208.347 97.156C204.314 99.3211 191.229 108.113 186.659 133.846C186.397 135.215 186.172 136.607 185.998 138.065C185.348 143.012 185.211 147.785 185.598 152.313C186.547 163.864 190.83 174.003 198.408 182.662C198.67 182.994 198.958 183.302 199.232 183.612C199.382 183.766 199.544 183.898 199.707 184.031C200.281 184.473 200.955 184.694 201.642 184.694C202.029 184.694 202.429 184.628 202.816 184.473C204.089 183.965 204.951 182.75 205.1 181.271L205.6 175.484C205.725 174.003 205.038 172.567 203.839 171.816C203.315 171.485 202.628 170.977 201.929 170.16C201.517 169.696 201.08 169.122 200.656 168.437C198.146 164.417 195.761 156.355 197.172 140.318C199.033 119.024 209.358 109.946 215.363 106.433C215.75 106.19 216.075 105.904 216.362 105.55C216.699 105.13 216.937 104.623 217.061 104.07C217.149 103.784 217.186 103.496 217.186 103.209C217.211 101.84 216.574 100.602 215.513 99.8736ZM214.639 104.954C208.397 108.642 197.597 118.096 195.661 140.164C193.601 163.71 199.432 171.021 203.103 173.275C203.789 173.694 204.164 174.489 204.089 175.328L203.577 181.115C203.502 182.11 202.853 182.706 202.291 182.927C201.58 183.192 200.83 183.016 200.306 182.441C189.494 170.624 185.186 155.757 187.496 138.286C191.217 110.122 204.913 100.823 209.021 98.6362C209.283 98.5039 209.57 98.4371 209.832 98.4371C210.195 98.4371 210.532 98.5476 210.844 98.7467L214.714 101.309C215.326 101.707 215.663 102.392 215.663 103.164C215.651 103.938 215.264 104.601 214.639 104.954Z" fill="#24048F"/>
<path d="M204.127 146.536L200.394 170.093L201.88 170.376L205.613 146.818L204.127 146.536Z" fill="#24048F"/>
<path d="M199.882 182.905L199.707 184.031L196.948 201.415L196.648 203.315L195.662 209.522L195.599 209.919L194.101 209.632L194.189 209.102L198.409 182.662V182.617L199.882 182.905Z" fill="#24048F"/>
<path d="M256.466 155.471L255.08 156.178C255.043 156.089 255.03 156.022 254.968 155.935C250.373 145.398 244.268 134.928 236.777 124.877C236.714 124.79 228.973 115.049 216.363 105.55C216.138 105.373 215.914 105.219 215.689 105.042L216.538 103.672C216.725 103.804 216.888 103.938 217.062 104.07C229.935 113.722 237.863 123.706 237.95 123.817C245.542 134 251.747 144.603 256.379 155.294C256.404 155.36 256.441 155.404 256.466 155.471Z" fill="#24048F"/>
<path d="M264.581 223.482L264.469 223.879L264.082 224.013C263.732 224.123 263.37 224.232 263.033 224.321C262.521 224.476 262.034 224.587 261.535 224.697C258.788 225.359 256.091 225.625 253.507 225.625C244.555 225.625 236.876 222.378 232.731 220.213C232.182 219.925 231.695 219.661 231.27 219.418C230.122 218.755 229.472 218.313 229.46 218.291L229.098 218.048L229.135 215.685C229.235 211.775 229.397 204.464 228.886 193.75C228.124 176.587 222.093 165.123 215.788 157.745C215.364 157.238 214.927 156.752 214.502 156.288C211.206 152.71 207.91 150.213 205.338 148.579C204.839 148.269 204.377 147.982 203.952 147.718C201.767 146.459 200.344 145.906 200.294 145.884L200.768 144.315C200.856 144.339 202.716 145.067 205.5 146.79C205.538 146.812 205.588 146.834 205.625 146.856C213.691 151.871 229.098 165.145 230.421 193.663C230.908 204.442 230.746 211.797 230.646 215.729L230.633 217.12C233.068 218.689 247.601 227.347 263.258 222.532C264.057 219.55 268.552 200.51 261.31 173.848C261.21 173.451 261.085 173.076 260.985 172.677L262.446 172.192C262.546 172.523 262.621 172.855 262.708 173.163C270.812 202.741 264.644 223.261 264.581 223.482Z" fill="#24048F"/>
<path d="M263.333 233.201C263.333 233.797 263.333 234.372 263.308 234.924C263.195 242.192 262.384 247.028 261.797 249.679C261.335 251.8 259.937 253.589 258.076 254.473C253.269 256.792 248.737 257.653 244.63 257.653C236.876 257.653 230.683 254.517 227.025 252.021C224.141 250.077 223.142 246.013 224.728 242.743C225.414 241.351 226.014 239.96 226.563 238.591C226.763 238.061 226.963 237.531 227.15 237.001C229.01 232.009 230.059 227.37 230.621 224.123C230.733 223.504 230.833 222.953 230.896 222.465C231.158 220.766 231.258 219.682 231.27 219.418C231.27 219.396 231.27 219.374 231.27 219.374L232.793 219.485C232.793 219.55 232.768 219.793 232.731 220.213C232.444 222.974 231.133 233.136 226.064 243.516C224.84 246.013 225.614 249.128 227.812 250.607C233.168 254.23 244.13 259.354 257.464 252.949C258.9 252.264 259.962 250.894 260.324 249.282C261.148 245.636 262.359 237.685 261.535 224.697C261.51 224.321 261.472 223.924 261.447 223.527L262.971 223.393L263.033 224.321C263.245 227.591 263.333 230.528 263.333 233.201Z" fill="#24048F"/>
<path d="M231.457 222.488L231.42 224.145L230.633 224.123L225.227 223.99C224.178 223.924 223.129 224.719 222.742 225.868L220.657 232.362C220.42 233.135 220.495 233.996 220.87 234.703C221.232 235.41 221.881 235.897 222.605 236.051L227.15 237L227.537 237.089L227.237 238.723L226.563 238.591L222.318 237.685C221.144 237.42 220.133 236.647 219.546 235.52C218.959 234.394 218.847 233.047 219.246 231.831L219.596 230.749L220.12 229.115L221.332 225.315C221.918 223.482 223.554 222.289 225.264 222.333L230.895 222.467L231.457 222.488Z" fill="#24048F"/>
<path d="M216.075 156.045L215.788 157.746L210.257 190.57C209.87 192.845 208.983 194.922 207.685 196.689C207.36 197.107 207.023 197.528 206.649 197.926C205.438 199.251 203.964 200.311 202.329 200.974L196.648 203.315L196.61 203.337L196.061 201.791L196.947 201.416L201.779 199.428C205.4 197.926 208.072 194.413 208.759 190.26L214.502 156.288L214.577 155.757L216.075 156.045Z" fill="#24048F"/>
<path d="M107.227 151.936L107.202 152.356L105.392 186.085L105.305 187.499L103.794 187.39L103.856 186.196L105.692 152.246L105.717 151.849L107.227 151.936Z" fill="#24048F"/>
<path d="M197.16 212.835L195.762 222.532C195.537 224.1 194.289 225.249 192.828 225.249H192.653C192.229 225.227 191.717 225.227 191.13 225.205C188.62 225.094 184.725 224.873 179.831 224.388C179.568 224.366 179.306 224.344 179.019 224.321L179.169 222.665C179.469 222.686 179.768 222.731 180.055 222.753C182.315 222.951 184.375 223.128 186.161 223.239C186.685 223.283 187.185 223.328 187.671 223.349C189.919 223.482 191.654 223.549 192.79 223.592C193.515 223.636 194.164 223.04 194.264 222.268L195.662 212.57C195.724 212.15 195.625 211.731 195.375 211.378C195.113 211.024 194.726 210.803 194.301 210.78C192.603 210.648 190.905 210.494 189.232 210.316C188.72 210.273 188.221 210.229 187.696 210.184C185.736 209.986 183.789 209.787 181.878 209.566C181.566 209.544 181.291 209.499 180.979 209.477L181.142 207.821C181.466 207.865 181.778 207.888 182.09 207.932C186.036 208.374 190.106 208.771 194.189 209.102C194.264 209.102 194.351 209.124 194.426 209.124C194.85 209.169 195.275 209.301 195.662 209.522C195.999 209.72 196.311 210.008 196.549 210.361C197.073 211.046 197.273 211.952 197.16 212.835Z" fill="#24048F"/>
<path d="M163.299 207.004C147.967 204.441 134.571 200.998 123.458 196.775L123.958 195.211C134.983 199.401 148.292 202.818 163.524 205.367L163.299 207.004Z" fill="#24048F"/>
<path d="M117.616 192.602L117.029 194.126C116.792 194.016 116.542 193.905 116.318 193.817C114.083 192.778 112.16 191.807 110.525 190.901C110 190.637 109.513 190.349 109.064 190.084C107.615 189.245 106.454 188.515 105.568 187.919C105.131 187.611 104.594 187.587 104.132 187.83C103.67 188.074 103.383 188.538 103.345 189.113L102.421 200.51C102.359 201.195 102.696 201.813 103.27 202.101C104.619 202.762 105.992 203.425 107.403 204.067C107.878 204.288 108.377 204.507 108.864 204.728C110.687 205.547 112.522 206.341 114.407 207.114C114.707 207.247 115.032 207.357 115.331 207.49L114.807 209.058C114.582 208.97 114.382 208.881 114.158 208.794C110.3 207.203 106.504 205.502 102.896 203.735C102.821 203.69 102.721 203.646 102.634 203.603C102.234 203.404 101.872 203.116 101.61 202.762C101.098 202.101 100.836 201.26 100.898 200.378L101.835 188.957C101.91 187.83 102.534 186.859 103.445 186.351C103.57 186.284 103.707 186.219 103.857 186.196C104.357 185.998 104.881 185.953 105.393 186.085C105.73 186.152 106.08 186.284 106.379 186.505C108.315 187.83 111.611 189.841 116.567 192.115C116.905 192.271 117.254 192.447 117.616 192.602Z" fill="#24048F"/>
<path d="M161.414 221.95C147.156 219.528 133.621 216.011 121.186 211.497L121.673 209.925C134.021 214.409 147.468 217.905 161.651 220.311L161.414 221.95Z" fill="#24048F"/>
<path d="M86.7887 251.446C86.8262 251.998 86.8512 252.551 86.8137 253.103C86.73 254.937 86.3055 256.747 85.5177 258.449L71.4292 288.798C70.4178 291.007 68.8422 292.863 66.902 294.144C64.9817 295.425 62.798 296.066 60.6155 296.066C58.6541 296.066 56.6939 295.557 54.9147 294.519L43.8589 288.114C41.9187 286.987 40.3418 285.33 39.2093 283.343C38.9272 282.857 38.6837 282.37 38.4814 281.841C37.8547 280.317 37.4913 278.659 37.4101 276.936L37.3902 276.274C37.3303 274.374 37.6124 272.518 38.2591 270.773L55.0158 225.292C57.8463 217.584 63.9704 211.907 71.3892 210.117L101.609 202.763L102.633 202.52L102.895 203.734L102.982 204.132L71.7126 211.73C64.7794 213.409 59.0586 218.711 56.4105 225.912L39.675 271.393C39.1082 272.917 38.846 274.529 38.9059 276.186L38.9272 276.87C39.0882 280.978 41.2507 284.734 44.5656 286.655L55.6227 293.062C58.9176 294.983 62.9391 294.85 66.1129 292.73C67.8109 291.603 69.1855 289.991 70.0745 288.07L84.163 257.697C85.7599 254.252 85.7 250.165 83.9607 246.785L83.1729 245.218L84.4864 244.422L85.2955 245.968C86.1645 247.691 86.6701 249.547 86.7887 251.446Z" fill="#24048F"/>
<path d="M126.204 249.325L125.655 249.369L86.8129 253.103L86.4658 253.147L86.3247 251.491L86.7879 251.446L126.067 247.669L126.129 248.287L126.204 249.325Z" fill="#24048F"/>
<path d="M163.275 324.582L163.237 325.135L163.037 327.277L162.887 328.757C162.775 330.17 162.351 331.54 161.664 332.732C158.505 338.166 154.26 340.685 150.277 341.877C149.59 342.098 148.929 342.254 148.255 342.386C146.869 342.673 145.545 342.828 144.359 342.915C144.172 342.937 143.997 342.937 143.797 342.937C142.499 342.937 141.188 342.584 140.014 341.922C139.977 341.9 139.914 341.877 139.864 341.855L139.203 341.458L135.782 339.426C135.357 339.183 134.958 338.896 134.596 338.543C134.196 338.211 133.809 337.813 133.484 337.394C133.097 336.93 132.773 336.421 132.498 335.869L115.942 303.2C111.572 294.607 111.21 284.138 114.931 275.191L125.656 249.369L126.13 248.287L132.211 233.643L133.584 234.328L116.304 275.876C112.784 284.336 113.133 294.254 117.253 302.383L133.822 335.052C134.433 336.289 135.357 337.305 136.493 337.968L140.601 340.398C141.725 341.06 142.998 341.37 144.259 341.259C149.041 340.906 155.946 339.514 160.366 331.85C160.927 330.877 161.277 329.751 161.402 328.579L161.764 324.428C161.839 323.544 161.776 322.638 161.564 321.777L153.998 291.206C152.887 286.7 151.164 284.845 148.417 285.22L148.217 283.564C150.702 283.232 152.337 284.359 153.436 285.838C153.761 286.302 154.035 286.789 154.26 287.274C154.934 288.621 155.246 290.013 155.459 290.764L163.037 321.357C163.299 322.417 163.374 323.5 163.275 324.582Z" fill="#24048F"/>
<path d="M192.702 224.542L192.652 225.249L191.741 236.977C191.254 243.163 188.769 249.039 184.762 253.456L154.26 287.274L153.186 286.126L153.436 285.838L183.688 252.308C187.446 248.133 189.756 242.654 190.218 236.823L191.129 225.205L191.192 224.388L192.702 224.542Z" fill="#24048F"/>
<path d="M188.882 54.0827L155.471 38.1793C151.189 36.1478 145.383 37.6499 142.074 45.5573L134.783 62.8523C131.961 69.5673 133.509 77.3874 138.603 82.3343C150.14 93.5787 162.201 96.2732 171.103 96.2732C174.149 96.2732 176.846 95.9416 179.006 95.5433C182.352 94.9471 185.186 92.43 186.398 88.9838L194.001 67.4022C195.836 62.1674 193.602 56.3147 188.882 54.0827ZM192.59 66.806L184.987 88.3876C183.975 91.2812 181.566 93.4013 178.744 93.9089C170.591 95.4109 154.647 95.7425 139.59 81.0982C134.995 76.6357 133.622 69.5891 136.169 63.559L143.448 46.2422C145.408 41.5804 148.517 38.9746 151.838 38.9746C152.849 38.9746 153.861 39.2175 154.872 39.7031L188.283 55.608C192.241 57.4852 194.126 62.4103 192.59 66.806Z" fill="#24048F"/>
<path d="M194.488 50.8808L154.36 31.3975C149.291 28.9459 142.424 30.7576 138.454 40.3445L129.727 61.5263C126.368 69.6561 128.191 79.131 134.246 85.1393C148.08 98.879 162.526 102.148 173.201 102.148C176.859 102.148 180.055 101.773 182.64 101.287C186.623 100.535 189.981 97.5093 191.417 93.3564L200.531 66.9166C202.716 60.6218 200.044 53.5753 194.488 50.8808ZM199.12 66.3422L189.994 92.7821C188.745 96.3606 185.836 99.0114 182.378 99.6526C172.552 101.485 153.374 101.883 135.258 83.9251C129.689 78.4025 128.029 69.6779 131.1 62.2112L139.827 41.028C142.212 35.2407 145.995 32.0169 150.053 32.0169C151.276 32.0169 152.5 32.3034 153.736 32.9214L193.877 52.3829C198.696 54.724 200.993 60.8646 199.12 66.3422Z" fill="#24048F"/>
<path d="M174.435 342.828C174.248 343.357 173.949 343.843 173.524 344.352C173.162 344.816 172.7 345.279 172.188 345.809L171.863 346.118L140.238 380.069C139.913 380.246 135.369 382.477 130.474 382.676C130.225 382.698 129.987 382.698 129.738 382.698C128.939 382.698 128.127 382.631 127.34 382.498C124.806 382.056 122.446 380.842 120.748 378.235C113.919 367.809 120.548 356.876 120.611 356.765L133.483 337.394L133.82 336.885L135.057 337.858L134.595 338.543L121.859 357.715C121.622 358.113 115.779 367.809 121.984 377.285C126.654 384.421 138.19 379.23 139.489 378.612L171.139 344.595C173.299 342.364 173.711 341.966 172.288 339.603L165.383 329.883L163.036 327.276L161.888 325.995L162.974 324.847L163.236 325.134L166.507 328.802L173.524 338.653C174.635 340.485 174.822 341.723 174.435 342.828Z" fill="#24048F"/>
<path d="M174.598 348.945C171.988 351.507 166.695 357.561 161.089 363.966C155.358 370.527 149.427 377.329 145.657 381.217C142.273 384.664 138.94 385.746 136.03 385.746C131.486 385.746 128.002 383.051 127.341 382.499C127.253 382.41 127.216 382.366 127.216 382.366L128.19 381.107C128.29 381.196 129.114 381.946 130.474 382.676C133.459 384.288 138.965 385.812 144.596 380.002C148.354 376.159 154.284 369.378 160.003 362.817C165.621 356.39 170.94 350.315 173.587 347.709C174.236 347.068 174.398 346.03 174.011 345.169L173.524 344.352L172.962 343.357L174.236 342.473L174.436 342.826L175.347 344.374C176.046 345.963 175.722 347.82 174.598 348.945Z" fill="#24048F"/>
<path d="M220.158 229.115V230.771C219.959 230.771 219.771 230.771 219.597 230.75C213.816 230.617 209.346 228.275 206.961 224.122C204.714 220.19 204.677 215.154 206.837 210.273C209.995 203.138 207.685 199.206 206.649 197.925C206.437 197.617 206.25 197.461 206.25 197.461L207.186 196.158C207.224 196.202 207.423 196.357 207.685 196.689C208.959 198.168 211.831 202.763 208.197 211.002C206.275 215.354 206.287 219.815 208.247 223.239C210.42 227.016 214.64 229.115 220.121 229.115C220.133 229.115 220.133 229.115 220.158 229.115Z" fill="#24048F"/>
<path d="M288.941 212.15C281.1 228.938 266.343 234.04 263.309 234.924C262.971 235.035 262.784 235.078 262.772 235.078L262.459 233.444C262.484 233.444 262.784 233.378 263.334 233.201C266.867 232.097 280.326 226.95 287.605 211.378C295.82 193.728 293.648 169.166 281.163 138.374C267.029 103.518 264.083 77.7408 272.423 61.7487C278.815 49.4674 289.49 47.9653 289.952 47.8985L290.115 49.5329C290.015 49.5547 279.727 51.0568 273.721 62.6096C268.178 73.2564 265.206 94.9472 282.561 137.689C295.246 168.99 297.394 194.038 288.941 212.15Z" fill="#24048F"/>
<path d="M127.94 353.739L127.541 354.27C127.341 354.535 122.746 360.697 123.52 365.91C123.795 367.832 124.794 369.4 126.429 370.527C127.666 371.366 128.889 371.719 130.088 371.719C135.831 371.719 140.675 363.547 140.925 363.127L141.349 362.42L127.94 353.739ZM127.241 369.114C125.968 368.251 125.231 367.103 125.019 365.646C124.469 361.978 127.253 357.45 128.302 355.883L139.202 362.951C137.629 365.314 132.248 372.56 127.241 369.114Z" fill="#24048F"/>
<path d="M139.603 354.106C138.891 354.106 138.179 353.913 137.518 353.509C136.481 352.877 135.757 351.838 135.47 350.581C135.17 349.325 135.37 348.031 136.007 346.94L139.241 341.393L140.527 342.283L137.28 347.832C136.868 348.535 136.744 349.367 136.931 350.176C137.118 350.986 137.593 351.656 138.254 352.064C139.428 352.782 140.901 352.473 141.738 351.318L149.279 340.998L150.465 342.031L142.924 352.351C142.087 353.495 140.851 354.106 139.603 354.106Z" fill="#24048F"/>
<path d="M35.0854 283.52L34.8632 283.652L28.598 287.893C27.8501 288.356 27.0211 288.577 26.192 288.577C25.5053 288.577 24.8174 288.423 24.1906 288.114L19.0978 285.596C17.5009 284.801 16.4085 283.122 16.2674 281.201C16.2075 280.317 15.984 277.865 15.9041 277.026C15.9041 276.892 15.8828 276.805 15.8828 276.76L17.3786 276.452C17.3786 276.517 17.3998 276.673 17.4398 277.18C17.5009 277.798 17.5809 278.925 17.7632 281.067C17.8843 282.371 18.6321 283.542 19.7233 284.071L24.8174 286.59C25.7675 287.075 26.8999 287.032 27.8288 286.457L32.5596 283.277L34.2976 282.105L35.0854 283.52Z" fill="#24048F"/>
<path d="M120.138 289.416C121.698 289.042 123.197 289.162 124.67 289.403C126.131 289.693 127.579 290.109 128.94 291.022C127.379 291.401 125.881 291.281 124.42 291.036C122.947 290.742 121.511 290.328 120.138 289.416Z" fill="#24048F"/>
<path d="M63.0562 224.159C64.3784 225.149 65.3185 226.419 66.1662 227.756C66.9753 229.122 67.6882 230.557 68.0153 232.273C66.6906 231.284 65.7505 230.015 64.9065 228.676C64.0999 227.309 63.387 225.873 63.0562 224.159Z" fill="#24048F"/>
<path d="M118.14 225.476C119.513 227.204 120.462 229.14 121.311 231.125C122.123 233.131 122.834 235.19 123.121 237.459C121.748 235.733 120.787 233.797 119.938 231.811C119.126 229.803 118.427 227.744 118.14 225.476Z" fill="#24048F"/>
<path fill-rule="evenodd" clip-rule="evenodd" d="M149.915 130.087L150.639 127.773C150.764 127.406 150.577 127.006 150.24 126.881C149.902 126.755 149.541 126.952 149.428 127.319L148.691 129.683C149.004 129.761 149.328 129.858 149.64 129.977C149.74 130.011 149.828 130.05 149.915 130.087Z" fill="#15003E"/>
<path fill-rule="evenodd" clip-rule="evenodd" d="M151.176 136.584L151.239 136.724C151.863 138.061 151.963 139.578 151.513 140.997C151.089 142.356 150.202 143.464 149.041 144.116L148.966 144.151L149.241 144.715L149.953 145.932C151.538 145.031 152.724 143.52 153.311 141.67C153.911 139.73 153.786 137.657 152.949 135.827L152.137 136.23L151.176 136.584Z" fill="#0FCE7C"/>
<path fill-rule="evenodd" clip-rule="evenodd" d="M149.827 146L149.902 145.963C149.915 145.954 149.927 145.943 149.952 145.932L149.228 144.715L149.827 146Z" fill="#0FCE7C"/>
<path fill-rule="evenodd" clip-rule="evenodd" d="M149.552 149.573L144.133 147.547C139.938 145.974 137.691 140.956 139.127 136.361C140.562 131.768 145.157 129.309 149.365 130.884C151.113 131.536 152.561 132.792 153.535 134.468L148.653 136.829C148.378 136.567 148.054 136.359 147.692 136.222C146.181 135.657 144.533 136.54 144.008 138.191C143.496 139.84 144.308 141.643 145.806 142.207C146.081 142.308 146.356 142.363 146.63 142.375L150.064 147.925L149.552 149.573ZM146.381 140.394C145.781 140.172 145.469 139.462 145.669 138.812C145.869 138.161 146.53 137.813 147.117 138.035C147.716 138.259 148.029 138.969 147.829 139.619C147.629 140.27 146.98 140.617 146.381 140.394ZM149.489 140.24C149.677 139.652 149.689 139.046 149.564 138.483L152.486 137.075L152.498 137.104L155.957 135.385L155.557 134.498C154.409 131.926 152.411 129.998 149.926 129.069C144.807 127.154 139.214 130.146 137.466 135.741C135.73 141.28 138.402 147.322 143.422 149.3V149.304L150.638 152.007L152.011 147.641L148.391 141.814C148.89 141.445 149.277 140.904 149.489 140.24Z" fill="#15003E"/>
<path fill-rule="evenodd" clip-rule="evenodd" d="M144.733 134.205C144.396 134.078 144.221 133.678 144.334 133.311L146.544 126.24C146.656 125.873 147.031 125.678 147.368 125.803C147.705 125.929 147.88 126.329 147.767 126.696L145.545 133.767C145.433 134.134 145.07 134.33 144.733 134.205Z" fill="#15003E"/>
</svg>
