<svg width="615" height="615" viewBox="0 0 515 514" fill="none" xmlns="http://www.w3.org/2000/svg">
<path d="M38.3931 297.911C38.3931 297.911 37.6863 299.049 36.2725 302.39V302.319C36.0605 302.39 17.3286 311.632 5.45324 328.977L4.60499 329.049H3.04992C1.91894 328.977 1.63617 329.759 1.56548 330.897L1 339.001C1 339.57 1.07067 340.281 1.4241 340.778C1.77753 341.276 2.27234 341.489 2.83783 341.631L4.74637 341.773C6.37216 344.901 12.0978 356.489 24.7506 366.655L35.7777 374.901L35.6363 380.517C34.7881 380.304 33.4451 380.091 32.7382 380.588C31.89 381.157 30.8297 381.797 30.9711 382.792L31.0417 389.688C31.0417 391.536 31.89 393.242 33.3744 394.308L36.1312 437.602C36.1312 437.957 36.0605 446.772 40.5844 453.952L40.0189 454.023L44.7549 489.781L45.6031 491.132C43.6946 491.487 39.0293 492.198 33.1623 493.051C29.2039 493.62 26.1644 495.397 24.1851 498.099C20.5094 503.146 21.5697 509.899 21.7111 510.184L21.7818 510.752H66.1022V494.118L64.6885 492.056L65.7487 490.421L67.0918 460.635L68.6469 459.568V459.213C68.6469 458.999 66.597 436.962 73.4536 424.806C77.9068 431.843 84.2686 443.218 87.8736 455.587L87.9443 455.943L88.4391 456.014L88.2271 456.085C88.2978 456.298 93.7406 473.999 95.1543 497.459C94.8716 497.672 94.5888 497.956 94.3061 498.241C91.5493 501.013 90.3477 505.279 90.3477 512.672V513.383H123.924V512.814C123.924 512.459 123.994 504.923 119.046 499.591C118.481 499.023 117.986 498.241 117.279 497.814L119.753 494.615V494.402C119.753 494.331 120.531 479.402 117.915 451.677L119.046 450.824V450.113C117.703 426.298 114.805 407.815 114.24 403.621C115.017 403.55 115.229 403.408 115.653 402.91C116.219 402.341 116.926 401.631 116.926 400.777L117.562 393.597C117.562 392.744 117.208 391.962 116.572 391.394C116.219 391.038 115.583 390.683 115.017 390.541L115.229 388.053L121.238 385.635C123.994 384.64 126.044 382.436 126.398 379.522L129.508 355.494L138.344 371.773C138.132 371.986 137.99 372.271 137.778 372.484L137.001 374.048C136.435 375.328 137.071 376.038 138.273 376.749L147.038 382.01C147.392 382.294 147.886 382.365 148.381 382.365C148.593 382.365 148.947 382.65 149.088 382.579C149.795 382.365 150.007 382.294 150.431 381.726L151.421 379.877C151.491 379.664 151.633 379.166 151.633 378.882L179.625 367.01C180.19 366.797 180.756 366.655 180.897 366.015V366.086L188.672 363.385L190.934 364.309L201.184 363.1C202.174 363.029 203.022 362.603 203.517 361.821C204.082 361.039 204.294 360.186 204.082 359.19L201.891 348.314C201.749 348.456 201.043 338.717 197.932 336.371C196.66 335.375 189.026 339.428 189.026 339.428C188.248 339.143 185.986 338.219 185.209 338.574L173.051 344.119L172.98 344.048C172.273 343.551 171.566 343.551 170.789 343.835L156.864 351.086L131.77 307.295L127.599 304.31C127.67 303.954 127.811 303.527 127.811 303.172C127.741 302.106 127.67 300.755 126.61 300.115L122.298 298.338C121.45 297.84 119.965 297.556 119.117 297.983L112.685 296.916C112.331 297.485 116.29 291.442 114.169 286.964C111.907 282.059 103.566 278.575 103.213 279.215L48.4306 283.338C36.4846 290.163 38.3931 297.911 38.3931 297.911ZM25.0334 335.304L31.0417 332.532L31.4658 342.413L25.0334 335.304Z" fill="white"/>
<path d="M67.022 355.138C75.5325 355.138 82.4316 348.199 82.4316 339.64C82.4316 331.081 75.5325 324.143 67.022 324.143C58.5115 324.143 51.6123 331.081 51.6123 339.64C51.6123 348.199 58.5115 355.138 67.022 355.138Z" stroke="#8C65F7" stroke-width="1.31194" stroke-miterlimit="10"/>
<path d="M101.515 385.137C100.667 384.284 99.6068 383.787 98.4051 383.787L89.9228 383.574C88.7918 383.574 87.5901 383.929 86.7419 384.853C85.8936 385.635 85.3989 386.773 85.3989 387.981V389.261V390.611L85.1161 401.275V402.625V404.474C85.0454 406.891 87.0246 408.952 89.4279 409.023L97.9103 409.237H97.981C99.112 409.237 100.172 408.739 101.091 407.957C101.939 407.104 102.434 406.038 102.434 404.829V403.479V402.128L102.646 391.607V390.256V388.479C102.646 387.199 102.293 386.062 101.515 385.137Z" stroke="#8C65F7" stroke-width="1.31194" stroke-miterlimit="10"/>
<path d="M50.9748 378.383C50.48 377.886 49.9145 377.601 49.2076 377.601L46.5216 377.53C45.1785 377.53 44.1182 378.597 44.0475 379.876L43.9768 382.791L43.9062 384.142L43.6234 396.084V397.435L43.5527 400.563C43.5527 401.914 44.613 402.98 45.8854 403.051L48.5715 403.122H48.6422C49.9852 403.122 51.0455 402.056 51.0455 400.776L51.1162 398.928V397.577L51.3989 385.99V384.639L51.4696 380.16C51.611 379.45 51.3282 378.881 50.9748 378.383Z" stroke="#8C65F7" stroke-width="1.31194" stroke-miterlimit="10"/>
<path d="M151.563 379.449L150.291 381.724C150.079 382.08 149.725 382.435 149.372 382.577C149.018 382.719 148.524 382.577 148.17 382.435L137.426 376.037C136.719 375.539 136.507 374.757 136.86 374.047L137.779 372.127C137.991 371.558 138.627 371.274 139.193 371.274C139.405 371.274 139.688 371.274 139.9 371.416L143.788 373.336L146.827 371.416L147.534 375.184L151.068 377.53C151.422 377.743 151.634 378.099 151.775 378.454C151.775 378.596 151.775 378.667 151.775 378.81C151.846 378.952 151.704 379.165 151.563 379.449Z" stroke="#8C65F7" stroke-width="1.31194" stroke-miterlimit="10"/>
<path d="M7.57383 333.384V331.251C7.57383 330.54 7.22039 329.9 6.72558 329.474C6.37215 329.189 5.94806 328.976 5.38257 328.976H5.31185L3.89813 328.905C2.76714 328.834 1.70686 329.758 1.56548 330.967L1 339.071C1 339.639 1.21205 340.208 1.56548 340.706C1.91891 341.203 2.62577 341.488 3.19126 341.559L4.74637 341.63H4.95842H5.17052C5.52395 341.63 5.87735 341.559 6.1601 341.417C6.86696 341.132 7.22042 340.564 7.29111 339.782L7.57383 337.578L10.684 335.445L7.57383 333.384Z" stroke="#8C65F7" stroke-width="1.31194" stroke-miterlimit="10"/>
<path d="M94.1665 332.531C94.1665 332.389 94.1665 332.389 94.1665 332.531C93.601 331.962 93.0355 331.678 92.2579 331.678H89.0064C87.5927 331.678 86.391 332.816 86.391 334.308V335.375V336.725L86.3203 344.19V345.541V347.389C86.3203 348.811 87.4513 350.09 88.9357 350.09H92.3287C93.0355 350.09 93.6717 349.806 94.1665 349.308C94.2372 349.237 94.3786 349.024 94.4493 348.953C94.732 348.597 94.9441 347.958 94.9441 347.531V334.451C94.9441 333.598 94.6613 332.958 94.1665 332.531Z" stroke="#8C65F7" stroke-width="1.31194" stroke-miterlimit="10"/>
<path d="M100.81 342.342L100.739 334.806V333.526C100.739 332.744 100.527 331.962 100.032 331.465L99.9615 331.394C99.6081 331.109 99.2547 330.896 98.8305 331.038L96.7099 331.252C96.0738 331.323 95.5789 331.82 95.2255 332.531C95.0134 332.887 94.8721 333.526 94.8721 334.095V347.104C94.8721 347.815 95.0841 348.455 95.4376 348.953C95.4376 349.024 95.5083 349.024 95.5083 349.166C95.8617 349.522 96.2151 349.735 96.6392 349.735H96.7099L98.9012 349.664C99.4667 349.664 99.9615 349.166 100.315 348.597C100.527 348.1 100.739 347.531 100.739 346.962L100.81 342.342Z" stroke="#8C65F7" stroke-width="1.31194" stroke-miterlimit="10"/>
<path d="M41.6448 455.87C41.5741 455.799 41.4328 455.586 41.2914 455.373C40.938 454.875 40.5845 454.378 40.3018 453.951C35.8485 446.771 35.8485 437.956 35.8485 437.601L33.0918 394.307V394.094" stroke="#8C65F7" stroke-width="1.31194" stroke-miterlimit="10"/>
<path d="M66.953 460.491L65.61 490.349L64.5497 491.984L64.0549 492.695H63.348L50.9072 492.339H49.4934L46.7367 492.268H46.3833L45.6057 491.131L44.7575 489.78L40.0215 454.022L40.587 453.951" stroke="#8C65F7" stroke-width="1.31194" stroke-miterlimit="10"/>
<path d="M91.4784 456.937L89.4285 456.368L88.1562 456.012L87.6613 455.941L87.5907 455.586C83.915 443.074 77.5532 431.842 73.1706 424.804C72.8879 424.307 72.6052 423.951 72.3224 423.525C69.8484 419.544 68.0105 417.198 67.8691 417.127" stroke="#8C65F7" stroke-width="1.31194" stroke-miterlimit="10"/>
<path d="M94.9429 497.386C93.3878 473.856 88.0156 456.226 88.0156 456.012L88.2277 455.941" stroke="#8C65F7" stroke-width="1.31194" stroke-miterlimit="10"/>
<path d="M117.915 451.179V451.25C120.389 479.117 119.752 493.974 119.752 494.046V494.259L117.561 497.031L117.278 497.387" stroke="#8C65F7" stroke-width="1.31194" stroke-miterlimit="10"/>
<path d="M114.454 403.691C115.161 407.885 117.847 426.084 119.19 449.899L119.261 450.183L117.847 451.534L116.575 452.671L116.009 453.169" stroke="#8C65F7" stroke-width="1.31194" stroke-miterlimit="10"/>
<path d="M43.6235 397.435C40.372 396.724 37.4738 396.014 35.0705 395.232C34.9998 395.232 34.7878 395.161 34.7171 395.161C34.2223 394.947 33.7274 394.663 33.374 394.378C31.9603 393.312 31.0414 391.606 31.0414 389.758L30.9707 382.862C30.9707 381.867 31.4655 380.943 32.2431 380.374C32.9499 379.876 33.7981 379.663 34.6464 379.876C34.717 379.876 34.9291 379.947 34.9998 379.947C35.2825 380.018 35.7067 380.161 35.9894 380.303C38.4634 381.298 41.2909 382.151 44.189 382.933" stroke="#8C65F7" stroke-width="1.31194" stroke-miterlimit="10"/>
<path d="M51.3301 384.568C61.5089 386.772 71.8291 388.265 85.4009 389.189" stroke="#8C65F7" stroke-width="1.31194" stroke-miterlimit="10"/>
<path d="M102.577 389.9C107.171 389.971 111.059 390.113 113.533 389.971H114.099C114.311 389.971 114.593 389.971 114.805 390.042C115.371 390.113 115.866 390.398 116.361 390.895C117.067 391.677 117.421 392.459 117.421 393.312V400.35C117.421 401.203 117.067 401.985 116.431 402.554C115.866 403.122 115.159 403.407 114.523 403.407C114.452 403.407 114.311 403.407 114.24 403.407H114.169C113.816 403.407 113.462 403.407 113.109 403.407C109.433 403.336 105.899 403.336 102.294 403.122" stroke="#8C65F7" stroke-width="1.31194" stroke-miterlimit="10"/>
<path d="M85.1177 402.625C71.4753 401.772 60.943 400.705 51.0469 398.928" stroke="#8C65F7" stroke-width="1.31194" stroke-miterlimit="10"/>
<path d="M36.4158 350.801L35.709 380.232V380.801" stroke="#8C65F7" stroke-width="1.31194" stroke-miterlimit="10"/>
<path d="M116.714 369.213L115.3 386.345L115.23 387.767L115.018 390.255" stroke="#8C65F7" stroke-width="1.31194" stroke-miterlimit="10"/>
<path d="M116.36 360.612L119.046 340.493C119.117 339.782 119.612 339.356 120.319 339.143C121.026 339.072 121.662 339.356 121.945 339.925L138.202 371.488" stroke="#8C65F7" stroke-width="1.31194" stroke-miterlimit="10"/>
<path d="M126.257 299.901L122.015 298.337C121.167 297.84 120.178 297.769 119.329 298.124C118.976 298.337 118.552 298.48 118.198 298.906C118.198 298.906 118.057 299.048 117.916 299.191C103.849 314.688 101.516 328.479 101.516 328.479C100.81 332.958 100.81 337.365 100.81 340.564C100.81 344.759 100.88 346.82 101.304 349.379C101.304 349.379 103.425 362.176 113.392 369C113.887 369.356 114.452 369.498 114.452 369.498C114.664 369.569 114.947 369.569 115.23 369.569H115.3C115.795 369.569 116.149 369.498 116.573 369.213C116.573 369.213 116.643 369.213 116.643 369.142C117.633 368.645 118.198 367.578 118.269 366.512L118.34 363.739C118.34 362.886 118.057 362.176 117.492 361.536C117.209 361.251 116.785 360.967 116.361 360.683C116.361 360.683 116.29 360.683 116.29 360.612C114.099 357.27 110.423 350.872 109.575 342.057C109.363 339.711 108.373 327.2 116.502 315.399C119.966 310.352 123.995 307.152 126.681 305.304C126.751 305.304 126.822 305.233 126.893 305.162C127.458 304.664 127.67 304.025 127.741 303.74C127.812 303.527 127.953 303.1 127.953 302.603C127.882 301.323 127.317 300.47 126.257 299.901Z" stroke="#8C65F7" stroke-width="1.31194" stroke-miterlimit="10"/>
<path d="M127.6 303.669L127.67 303.74L131.841 306.726L156.934 350.517" stroke="#8C65F7" stroke-width="1.31194" stroke-miterlimit="10"/>
<path d="M153.047 352.223L155.945 350.872L157.218 350.303L170.86 343.692C171.567 343.336 172.415 343.408 173.051 343.905L173.122 343.976C173.476 344.261 173.829 344.687 173.9 345.114C173.97 345.327 173.97 345.611 173.97 345.825C173.688 349.877 174.182 357.625 180.332 363.241C180.615 363.526 180.898 363.952 181.039 364.308C181.039 364.663 181.039 365.019 181.039 365.303C181.039 365.374 180.968 365.587 180.968 365.658C180.756 366.227 180.403 366.725 179.837 366.938L151.704 378.881" stroke="#8C65F7" stroke-width="1.31194" stroke-miterlimit="10"/>
<path d="M129.72 355.208L126.61 379.308C126.257 382.222 124.207 384.639 121.379 385.635L115.018 387.767" stroke="#8C65F7" stroke-width="1.31194" stroke-miterlimit="10"/>
<path d="M44.8959 305.446C39.8064 311.133 38.2514 320.019 37.4031 328.976C37.3324 329.474 37.3325 329.972 37.3325 330.327C37.1204 332.815 36.979 335.232 36.979 337.507C36.979 338.005 36.979 338.502 36.979 338.929C36.9083 345.256 37.2617 349.805 37.2617 349.948L37.3325 350.943L36.5549 350.73L35.7066 350.516L35.2119 350.445L33.586 350.09L33.0913 350.019L33.0206 349.663C32.5257 347.175 32.1723 344.616 31.8896 342.27C31.8189 341.701 31.8189 340.99 31.6775 340.422C31.3948 338.218 31.3241 335.943 31.1827 333.953C31.1827 333.455 31.1827 332.957 31.112 332.531C30.8293 319.735 33.3033 310.28 35.5653 304.379C35.7773 303.669 36.0601 303.1 36.2722 302.531C37.6859 299.119 38.8875 297.413 38.9582 297.271L39.1703 297.057L41.9271 296.489" stroke="#8C65F7" stroke-width="1.31194" stroke-miterlimit="10"/>
<path d="M5.31152 328.834C17.2575 311.488 35.9895 302.175 36.1308 302.175V302.247" stroke="#8C65F7" stroke-width="1.31194" stroke-miterlimit="10"/>
<path d="M35.6364 350.587C35.4244 350.658 35.283 350.658 35.1416 350.801C24.0438 355.066 26.3765 365.445 26.4472 365.872L26.942 367.791L25.811 366.938L25.4576 366.654C12.734 356.346 6.1602 344.687 4.67578 341.63" stroke="#8C65F7" stroke-width="1.31194" stroke-miterlimit="10"/>
<path d="M22.7695 332.602L31.6053 342.271" stroke="#8C65F7" stroke-width="1.31194" stroke-miterlimit="10"/>
<path d="M31.0426 332.318L25.3877 335.303" stroke="#8C65F7" stroke-width="1.31194" stroke-miterlimit="10"/>
<path d="M35.8472 374.829L25.5977 366.867" stroke="#8C65F7" stroke-width="1.31194" stroke-miterlimit="10"/>
<path d="M119.259 498.808C118.694 498.24 118.128 497.671 117.421 497.245C117.068 496.96 116.644 496.676 116.29 496.463C114.099 495.112 111.272 494.401 108.232 494.33C102.931 494.259 99.1135 494.899 96.286 496.534C95.7912 496.818 95.4378 497.102 95.0137 497.387C94.731 497.6 94.4482 497.884 94.1655 498.169C91.4087 500.941 90.207 505.207 90.207 512.6V513.311H123.783V512.742C123.783 512.315 124.207 504.14 119.259 498.808Z" stroke="#8C65F7" stroke-width="1.31194" stroke-miterlimit="10"/>
<path d="M90.3477 509.33H123.5" stroke="#8C65F7" stroke-width="1.31194" stroke-miterlimit="10"/>
<path d="M114.029 495.823L112.615 499.662C112.12 500.728 111.06 501.439 110 501.439H101.8C100.528 501.439 99.4674 500.586 99.114 499.306L98.0537 496.107" stroke="#8C65F7" stroke-width="1.31194" stroke-miterlimit="10"/>
<path d="M73.5962 424.094C73.5256 424.165 73.3135 424.449 73.2428 424.805C66.5276 436.89 68.4361 458.856 68.4361 459.212V459.567L66.881 460.634L65.538 461.629L64.2656 462.482" stroke="#8C65F7" stroke-width="1.31194" stroke-miterlimit="10"/>
<path d="M64.4761 491.984L65.8899 494.045V510.68H21.5695L21.4988 510.111C21.4281 509.827 20.3678 503.074 23.9728 498.026C26.0227 495.254 28.9916 493.548 32.95 492.979C38.7463 492.126 43.3409 491.344 45.3908 491.059" stroke="#8C65F7" stroke-width="1.31194" stroke-miterlimit="10"/>
<path d="M21.3564 505.918H65.8889" stroke="#8C65F7" stroke-width="1.31194" stroke-miterlimit="10"/>
<path d="M173.05 344.048L185.066 338.787C185.844 338.432 186.692 338.432 187.399 338.716C187.753 338.787 188.177 339.072 188.53 339.427C188.601 339.498 188.601 339.498 188.742 339.64C188.813 339.711 189.025 339.925 189.096 340.138L189.449 340.849L192.418 345.754C192.771 346.607 192.913 347.531 192.701 348.384C192.489 349.237 191.923 349.948 191.146 350.304L188.177 351.939H188.106C187.753 352.152 187.328 352.294 186.834 352.294C186.763 352.294 186.622 352.294 186.551 352.294C186.268 352.294 185.844 352.223 185.561 352.223C184.713 351.939 184.006 351.37 183.653 350.588L182.38 348.1" stroke="#8C65F7" stroke-width="1.31194" stroke-miterlimit="10"/>
<path d="M189.448 363.384L180.966 365.801" stroke="#8C65F7" stroke-width="1.31194" stroke-miterlimit="10"/>
<path d="M188.743 339.57L189.238 339.499L195.882 336.584C195.953 336.584 196.236 336.513 196.519 336.513C197.013 336.442 197.367 336.442 197.862 336.584C198.074 336.655 198.215 336.655 198.427 336.797C199.275 337.295 199.841 338.077 200.053 339.001L201.184 344.048L201.749 346.75L204.436 358.977C204.365 360.043 204.082 360.896 203.587 361.678C203.022 362.46 202.174 362.816 201.255 362.958L197.72 363.527L196.377 363.74L191.924 364.451C191.853 364.451 191.712 364.451 191.641 364.451C190.793 364.451 189.874 364.095 189.309 363.456C189.309 363.456 189.238 363.456 189.238 363.384C188.955 363.1 188.672 362.674 188.531 362.318C188.46 362.105 188.46 361.963 188.46 361.749L188.248 360.399L186.905 352.366V352.081" stroke="#8C65F7" stroke-width="1.31194" stroke-miterlimit="10"/>
<path d="M102.789 290.943L112.968 296.488L119.33 298.266" stroke="#8C65F7" stroke-width="1.31194" stroke-miterlimit="10"/>
<path d="M81.9355 335.445C83.7734 335.445 84.4096 335.374 86.3888 335.303" stroke="#8C65F7" stroke-width="1.31194" stroke-miterlimit="10"/>
<path d="M37.2617 328.835C37.8272 329.119 42.2098 331.323 53.2369 333.385" stroke="#8C65F7" stroke-width="1.31194" stroke-miterlimit="10"/>
<path d="M81.5137 344.261C83.6343 344.261 84.1997 344.332 86.3203 344.119" stroke="#8C65F7" stroke-width="1.31194" stroke-miterlimit="10"/>
<path d="M36.8398 337.437C36.9105 337.437 41.5052 339.783 51.8254 341.844" stroke="#8C65F7" stroke-width="1.31194" stroke-miterlimit="10"/>
<path d="M37.1221 380.801V395.872" stroke="#8C65F7" stroke-width="1.31194" stroke-miterlimit="10"/>
<path d="M56.5605 385.564V399.711" stroke="#8C65F7" stroke-width="1.31194" stroke-miterlimit="10"/>
<path d="M69 387.554V400.847" stroke="#8C65F7" stroke-width="1.31194" stroke-miterlimit="10"/>
<path d="M80.4521 388.691V402.269" stroke="#8C65F7" stroke-width="1.31194" stroke-miterlimit="10"/>
<path d="M107.95 389.9V402.98" stroke="#8C65F7" stroke-width="1.31194" stroke-miterlimit="10"/>
<path d="M50.9741 492.268L50.2672 494.116C49.4897 496.178 47.7932 497.6 45.6726 497.813L35.7765 498.95C35.4938 498.95 35.211 498.95 34.9989 498.95C33.3731 498.95 31.818 498.24 30.7578 497.031L28.9199 494.898" stroke="#8C65F7" stroke-width="1.31194" stroke-miterlimit="10"/>
<path d="M110.282 452.459C108.373 453.312 106.465 453.738 104.485 454.094C102.435 454.378 100.527 454.592 98.4062 454.378" stroke="#8C65F7" stroke-width="1.31194" stroke-miterlimit="10"/>
<path d="M50.7644 454.591C49.4214 454.875 48.0783 454.804 46.8059 454.591C45.4629 454.306 44.1906 454.022 43.0596 453.24" stroke="#8C65F7" stroke-width="1.31194" stroke-miterlimit="10"/>
<path d="M71.1572 337.228C71.7227 338.081 72.0761 339.076 72.0761 340.071C72.0761 341.066 71.7227 342.062 71.1572 342.915L72.3589 343.839C73.1365 342.773 73.5606 341.422 73.5606 340.071C73.5606 338.649 73.1364 337.299 72.2882 336.161L71.5813 336.801L71.1572 337.228Z" fill="#15EBB7"/>
<path d="M73.4884 344.692L69.3179 341.493C69.6007 341.067 69.8127 340.64 69.8127 340.142C69.8127 339.645 69.6713 339.147 69.4593 338.721L71.4385 336.943L73.4884 335.024C73.6298 334.882 73.6298 334.669 73.4884 334.526L73.2057 334.242C71.7213 332.749 69.742 331.896 67.6214 331.825V330.688C67.6214 330.616 67.6214 330.545 67.6214 330.474C67.6214 330.403 67.5507 330.332 67.48 330.261C67.4094 330.19 67.3387 330.19 67.268 330.119C67.1973 330.119 67.1266 330.048 67.0559 330.048C66.9853 330.048 66.9146 330.048 66.8439 330.119C66.7732 330.119 66.7025 330.19 66.6318 330.261C66.5611 330.332 66.5611 330.403 66.4905 330.474C66.4905 330.545 66.4905 330.616 66.4905 330.688V331.896C65.9957 331.967 65.5008 332.038 65.006 332.18V330.688C65.006 330.616 65.006 330.545 65.006 330.474C65.006 330.403 64.9353 330.332 64.8646 330.261C64.7939 330.19 64.7233 330.19 64.6526 330.119C64.5819 330.119 64.5112 330.048 64.4405 330.048C64.3698 330.048 64.2992 330.048 64.2285 330.119C64.1578 330.119 64.0871 330.19 64.0164 330.261C63.9457 330.332 63.9457 330.403 63.8751 330.474C63.8751 330.545 63.8751 330.616 63.8751 330.688V332.536C62.1786 333.318 60.7648 334.669 59.9166 336.304C59.0683 337.939 58.7856 339.929 59.1391 341.706C59.4925 343.555 60.4821 345.19 61.8958 346.398C63.3096 347.607 65.1474 348.318 66.9852 348.318H72.9936C73.2056 348.318 73.347 348.176 73.347 347.962V344.905C73.6298 344.905 73.5591 344.763 73.4884 344.692ZM67.3387 346.896C65.8542 346.896 64.4405 346.398 63.2389 345.474C62.0372 344.55 61.2597 343.27 60.8355 341.849C60.4821 340.427 60.5528 338.863 61.1183 337.512C61.6838 336.161 62.6734 334.953 64.0164 334.242V336.446C64.0164 336.517 64.0164 336.588 64.0164 336.659C64.0164 336.73 64.0871 336.801 64.1578 336.872C64.2285 336.943 64.2992 336.943 64.3699 337.015C64.4406 337.015 64.5112 337.086 64.5819 337.086C64.6526 337.086 64.7233 337.086 64.794 337.015C64.8647 337.015 64.9353 336.943 65.006 336.872C65.0767 336.801 65.0767 336.73 65.1474 336.659C65.1474 336.588 65.1474 336.517 65.1474 336.446V333.673C65.8543 333.389 66.7025 333.247 67.48 333.247C68.9645 333.247 70.3782 333.744 71.5092 334.597C71.5799 334.669 71.5799 334.811 71.5092 334.882L68.3283 337.796C68.0455 337.654 67.6921 337.583 67.4094 337.583C67.0559 337.583 66.7025 337.654 66.4197 337.796C66.0663 337.939 65.7836 338.152 65.5715 338.436C65.3594 338.721 65.1474 339.005 65.0767 339.36C65.006 339.716 64.9353 340.071 65.006 340.427C65.0767 340.782 65.1474 341.138 65.3594 341.422C65.5715 341.706 65.7836 341.991 66.0663 342.133C66.3491 342.346 66.7025 342.417 67.0559 342.488C67.4094 342.559 67.7628 342.488 68.1162 342.417L72.1454 345.474C72.2161 345.474 72.216 345.545 72.216 345.616V346.683C72.216 346.754 72.1453 346.825 72.0747 346.825L67.3387 346.896ZM68.3283 340.142C68.3283 340.356 68.2576 340.498 68.1869 340.711C68.0455 340.853 67.9042 340.996 67.7628 341.067C67.5507 341.138 67.4094 341.138 67.1973 341.138C66.9853 341.067 66.8439 340.996 66.7025 340.853C66.5611 340.711 66.4904 340.569 66.4197 340.356C66.4197 340.142 66.4198 340 66.4905 339.787C66.5611 339.574 66.7025 339.432 66.8439 339.36C66.9853 339.289 67.1973 339.218 67.4094 339.218C67.6921 339.218 67.9042 339.289 68.1162 339.503C68.2576 339.645 68.3283 339.858 68.3283 340.142Z" fill="#0E0333"/>
<path d="M50.4072 303.313C49.2055 301.323 49.5589 298.906 49.9123 297.342C49.7003 291.868 48.7813 280.351 47.8624 269.332L45.247 269.546H44.6815C41.5713 269.546 38.7439 267.129 38.6025 264.001L37.6836 252.484C37.6836 250.778 38.037 249.356 39.168 248.006C40.0869 246.939 41.1472 246.371 41.7834 246.157C42.2782 246.086 42.8437 246.086 43.3385 246.015C44.1867 245.944 44.8936 245.802 45.6004 245.66C45.6004 245.66 44.5402 230.233 55.5673 220.139C56.4862 219.286 68.4322 210.471 82.216 215.091C93.7379 219.001 100.807 232.722 101.513 244.096C102.503 244.025 103.493 244.451 104.482 244.38C105.613 244.593 106.674 244.522 107.592 245.304C108.723 246.442 109.43 247.935 109.43 249.57L110.491 261.086C110.491 264.427 107.805 267.769 104.482 267.982H101.867L102.574 291.015C101.019 291.797 99.5342 292.579 97.9791 293.432C96.424 294.356 93.2431 296.489 90.9811 300.541C89.1433 303.811 88.7192 306.796 88.5778 308.503C80.0248 308.858 73.0268 308.645 67.9374 308.36C55.7793 307.578 54.3656 309.711 50.4072 303.313Z" fill="white"/>
<path d="M61.2944 241.608C61.2944 241.608 82.359 239.547 86.9536 240.613C91.4775 241.608 93.7395 247.864 93.7395 247.864C93.7395 247.864 95.0825 249.641 95.0119 266.916C95.0119 267.343 94.305 268.836 91.1948 269.902C88.0846 271.039 57.9721 271.039 57.9721 271.039C57.9721 271.039 53.9431 269.973 53.9431 264.997C53.9431 259.949 53.4482 250.068 53.4482 250.068L56.1343 246.371L58.467 243.243L61.2944 241.608Z" fill="#5BF1CD"/>
<path d="M102.786 290.945L102.079 267.912L101.372 244.168V241.538C101.372 241.182 97.3431 211.112 71.6132 213.671C45.9541 216.088 45.6006 242.818 45.6006 243.173C45.6006 243.173 45.6006 244.097 45.8127 245.803C46.1661 250.282 47.085 259.523 47.8626 269.405C48.7815 280.566 49.7004 292.224 49.9125 297.627V299.689C49.9125 300.826 50.1245 301.893 50.2659 302.675C50.478 303.243 50.6193 303.812 50.9728 304.381C51.3262 304.949 51.6796 305.518 52.1037 305.874C54.8605 308.504 58.7483 308.504 58.9603 308.504H88.8607V307.793C88.8607 307.58 89.9917 295.921 101.796 291.798L102.786 290.945Z" stroke="#8C65F7" stroke-width="1.31194" stroke-miterlimit="10"/>
<path d="M87.8711 285.755C88.2245 287.603 88.0831 289.096 87.1642 290.233C86.0332 291.726 84.1954 291.939 84.1954 291.939H70.3408C65.8875 291.939 64.0497 289.167 63.6963 287.887" stroke="#8C65F7" stroke-width="1.31194" stroke-miterlimit="10"/>
<path d="M94.6561 250.494C94.6561 249.57 94.3027 248.646 93.7372 247.864C93.0303 246.94 92.0407 246.371 90.9804 246.016C90.627 246.016 90.4149 246.016 90.0615 246.016H89.8494L58.1112 246.94C57.8992 246.94 57.8992 246.94 57.7578 246.94C56.6268 246.94 55.7079 247.508 55.001 248.219C55.001 248.219 55.001 248.219 54.7889 248.433C53.87 249.357 53.5166 250.494 53.5166 251.774L54.0821 266.631C54.0821 267.911 54.6476 269.048 55.5665 269.759C56.4854 270.47 57.6164 271.039 58.6767 271.039H58.8888L90.627 269.902C93.2424 269.902 95.2216 267.698 95.0802 265.067L94.6561 250.494Z" stroke="#8C65F7" stroke-width="1.31194" stroke-miterlimit="10"/>
<path d="M109.925 250.139C109.925 248.433 109.289 247.011 108.37 245.874C107.593 245.163 106.674 244.594 105.755 244.381C105.472 244.381 105.119 244.168 104.694 244.381H104.412H102.857H101.726L102.503 267.982H103.422H105.26C108.017 267.769 110.208 264.997 110.208 261.655L109.925 250.139Z" stroke="#8C65F7" stroke-width="1.31194" stroke-miterlimit="10"/>
<path d="M45.8832 245.66H45.035L43.0557 245.874H42.9144C42.4196 245.874 42.0662 246.087 41.5713 246.229C40.5817 246.585 39.7335 247.153 39.0266 248.077C38.037 249.357 37.6836 250.85 37.6836 252.556L38.5318 264.072C38.6732 267.2 41.2179 269.617 44.0454 269.617C44.1867 269.617 44.3988 269.617 44.5401 269.617L46.8728 269.404H47.721L45.8832 245.66Z" stroke="#8C65F7" stroke-width="1.31194" stroke-miterlimit="10"/>
<path d="M41.8539 246.371C41.6419 240.613 41.6419 205.708 69.563 203.505C79.1764 202.794 87.0933 205.211 93.0309 210.898C104.482 221.703 104.836 241.182 104.694 244.168V244.523" stroke="#8C65F7" stroke-width="1.31194" stroke-miterlimit="10"/>
<path d="M54.6475 248.788L57.2628 244.878C58.7472 242.674 60.7972 241.323 62.9885 241.323L85.1133 240.399C87.5166 240.186 89.92 241.537 91.4044 243.954L93.8077 247.65" stroke="#8C65F7" stroke-width="1.31194" stroke-miterlimit="10"/>
<path d="M48.6427 282.983C48.6427 282.983 40.7258 286.821 38.9586 294.072C38.8173 294.499 38.8173 294.925 38.7466 295.352C38.5345 296.845 38.4638 298.48 38.6759 300.328C38.7466 300.897 38.888 301.395 38.9586 302.105C39.0293 302.959 39.2414 303.883 39.5948 304.807C40.443 307.508 41.9275 309.854 43.9067 311.703C44.3308 312.058 44.6843 312.342 45.1084 312.698C52.5304 318.598 64.9006 319.807 72.7467 319.878C76.9879 319.949 79.9568 319.665 80.0274 319.665C97.1336 318.029 109.362 309.925 115.441 296.418C115.865 295.636 116.148 294.783 116.36 294.072C116.502 293.504 116.572 293.006 116.714 292.58C117.067 290.091 116.784 287.817 115.865 285.826C115.653 285.471 115.583 285.186 115.371 284.831C115.088 284.191 114.734 283.765 114.31 283.196C111.271 279.144 105.687 276.727 103.071 275.66C102.788 275.518 102.576 275.803 102.576 276.158L102.788 279.997C103.001 280.139 109.292 281.845 111.342 286.892C112.402 289.523 112.331 292.366 110.988 295.352C105.969 306.442 96.2853 313.409 82.8549 315.541C81.3705 315.755 79.9567 315.897 78.4723 315.968C77.3413 316.039 75.5035 316.11 73.1708 316.039C63.8402 315.897 47.2289 313.977 43.836 302.603C40.443 291.442 48.9254 286.821 48.9961 286.821L48.6427 282.983Z" fill="white" stroke="#8C65F7" stroke-width="1.31194" stroke-miterlimit="10"/>
<path d="M91.1963 313.479C91.4083 311.133 92.2566 304.806 97.134 299.119C100.315 295.494 103.849 293.574 105.97 292.65" stroke="#8C65F7" stroke-width="1.31194" stroke-miterlimit="10"/>
<path d="M330.296 260.096C330.637 261.191 331.038 262.555 331.341 264.215C331.488 265.226 331.766 267.038 331.703 269.366C331.66 270.606 331.517 272.142 331.19 273.855C329.631 278.747 328.059 282.753 326.8 285.771C324.796 290.538 322.896 294.335 321.22 297.701C320.075 300.01 319.045 301.921 318.364 303.266C317.966 313.49 317.575 323.664 317.177 333.888C317.019 334.226 316.861 334.564 316.696 334.953C316.361 335.107 315.96 335.353 315.845 335.75C315.755 336.308 316.387 336.878 316.615 337.07C317.955 338.379 317.744 341.307 317.478 344.901C317.361 346.597 317.046 348.884 316.364 351.528C311.902 354.546 307.8 355.959 305.045 356.708C301.327 357.664 295.994 359.346 290.365 357.394C284.736 355.442 279.87 351.951 279.87 351.951C279.853 350.441 280.1 347.935 281.503 345.305C281.944 344.493 284.559 339.46 289.25 338.558C291.487 338.141 292.866 338.885 294.957 337.768C296.211 337.036 296.994 336.02 297.484 335.216L296.045 332.593L294.712 319.957L292.469 298.808C293.575 292.232 294.681 285.656 295.786 279.08C294.795 278.816 293.855 278.559 292.872 278.244L272.777 293.693L268.244 326.163L267.592 340.867C267.592 340.867 255.331 343.868 250.493 344.071C245.655 344.274 232.156 344.684 227.977 337.875C227.941 337.453 227.323 330.026 232.612 326.363C234.467 325.104 236.394 324.689 237.693 324.64C238.757 324.449 240.384 324.297 242.289 324.658C244.589 325.135 244.921 325.968 246.783 325.958C246.783 325.958 247.554 325.979 251.589 324.658L250.262 322.625C250.262 322.625 248.801 314.333 248.615 312.588C248.43 310.844 246.967 286.443 247.885 283.942C248.794 281.491 248.353 281.991 250.091 279.207C251.829 276.423 259.424 266.43 260.999 264.659C262.575 262.888 269.277 255.245 269.277 255.245L269.837 251.75L271.428 245.045L273.071 244.791C273.071 244.791 273.134 237.631 272.865 236.08C272.865 236.08 269.953 242 264.157 246.568C258.362 251.137 248.457 257.482 248.457 257.482L248.844 259.259L242.074 263.462L241.383 261.323C241.383 261.323 240.763 262.937 237.267 264.761C233.771 266.585 232.17 268.196 229.78 268.276C227.382 268.407 225.689 268.652 224.755 266.422C223.821 264.192 220.638 255.362 220.638 255.362C220.638 255.362 220.247 252.96 222.322 251.946C224.396 250.931 225.693 250.258 225.693 250.258C225.693 250.258 225.02 248.33 226.92 247.755C228.821 247.179 230.99 246.544 230.99 246.544L233.482 246.792L232.637 245.615L238.847 241.686L239.97 243.063C239.97 243.063 255.049 232.153 257.298 227.789C259.407 223.662 260.797 218.535 263.333 208.19C264.548 203.19 265.431 198.968 266.003 196.047C266.817 194.516 268.306 192.315 270.752 190.27C272.481 188.835 274.178 187.915 275.509 187.351C275.509 187.351 277.631 182.811 281.962 181.902C282.081 182.129 282.175 182.508 282.152 182.972C282.04 183.993 281.113 184.622 280.929 184.801C280.103 185.446 279.117 187.728 278.611 195.077C279.137 196.306 279.865 197.567 280.962 198.784C282.978 201.033 286.697 203.299 295.038 204.444C305.996 203.778 312.995 200.08 316.764 197.521C322.146 193.924 327.834 188.091 326.869 186.376C326.632 185.922 326.104 185.992 324.13 185.412C322.064 184.766 320.475 184.04 319.381 183.447C319.407 180.386 319.483 177.332 319.509 174.271C319.509 174.271 325.339 176.255 328.321 178.609L329.817 180.878C329.817 180.878 337.246 185.46 342.058 189.93C346.921 194.407 347.893 198.982 347.893 198.982L346.396 209.288C346.396 209.288 350.308 214.858 352.447 221.181C354.593 227.453 356.488 233.684 356.372 236.99C356.263 240.247 358.111 253.537 358.094 256.548C358.127 259.567 357.256 275.639 357.102 276.601L358.619 276.483L357.309 285.624L356.245 285.815C356.245 285.815 357.353 287.606 357.08 291.563C356.808 295.52 355.042 302.665 355.042 302.665C355.042 302.665 347.781 306.06 337.239 299.623L338.42 294.514L334.347 293.49C334.347 293.49 334.062 288.819 337.134 287.706C340.206 286.593 340.206 286.593 340.206 286.593L340.812 283.781L338.601 282.747L339.326 274.031L341.033 274.983C341.033 274.983 340.922 252.465 336.207 242.555C336.277 243.086 336.451 245.869 334.599 247.751C334.099 248.293 333.431 248.913 332.476 249.069C331.898 249.132 331.554 249.024 329.456 248.892C328.844 248.844 328.433 248.83 328.292 249.067C328.084 249.397 328.649 250.06 328.784 250.186C329.151 251.44 329.442 252.527 329.665 253.394C330.88 258.06 330.458 257.472 330.729 258.036C330.805 258.204 331.043 258.658 330.919 259.106C330.838 259.612 330.529 259.926 330.296 260.096Z" fill="white"/>
<path d="M319.365 183.548L326.852 186.477C326.82 186.679 326.763 187.034 326.706 187.388C326.125 190.048 324.213 191.661 322.017 193.435C318.627 196.212 316.915 197.545 315.185 198.667C312.777 200.148 310.078 201.841 306.067 203.009C302.977 203.911 300.303 204.153 298.442 204.163C293.664 204.636 289.986 203.728 287.877 203.022C284.886 202.018 281.888 201.064 279.935 198.097C279.605 197.576 277.913 194.912 278.205 191.478C278.405 189.587 279.16 188.099 279.849 186.704C279.849 186.704 280.223 185.985 282.384 182.49L281.001 173.068C281.001 173.068 277.145 144.902 282.561 138.194C287.976 131.485 293.837 128.122 306.716 130.937C319.344 133.712 319.682 151.59 319.682 151.59L319.365 183.548Z" fill="white"/>
<path d="M287.664 181.474C288.766 182.016 290.554 182.462 292.744 182.661C294.43 182.778 295.821 182.484 296.909 182.141" stroke="#8C65F7" stroke-width="1.31194" stroke-miterlimit="10"/>
<path d="M286.766 182.888C286.847 182.381 286.928 181.875 287.185 181.241C287.466 180.455 287.9 180.006 288.132 179.524" stroke="#8C65F7" stroke-width="1.31194" stroke-miterlimit="10"/>
<path d="M297.2 180.318C297.294 180.697 297.541 181.413 297.587 182.096C297.633 182.779 297.527 183.437 297.446 183.943" stroke="#8C65F7" stroke-width="1.31194" stroke-miterlimit="10"/>
<path d="M296.249 279.102L295.745 279.02L292.446 278.33L272.727 293.684L268.557 324.861L268.533 325.013C268.533 325.013 268.3 325.495 267.54 326.048C267.365 326.175 267.131 326.345 266.955 326.473C265.435 327.577 262.522 328.664 257.795 327.534C255.2 326.957 253.469 326.157 252.239 325.126C251.911 324.917 251.514 324.489 251.337 324.304C249.735 322.694 249.626 321.117 249.651 320.965C246.631 304.99 247.842 283.57 247.875 283.367L247.899 283.216L247.923 283.064C253.546 271.192 269.463 255.377 269.639 255.25" stroke="#8C65F7" stroke-width="1.31194" stroke-miterlimit="10"/>
<path d="M330.12 259.911C330.12 259.911 330.095 260.063 330.246 260.087C332.354 266.924 331.467 270.522 331.443 270.674C330.091 281.367 319.387 301.404 318.265 303.249L317.077 333.871C317.053 334.023 316.739 335.011 315.696 336.037C315.521 336.165 315.112 336.462 314.912 336.741C313.416 337.694 310.888 338.635 306.653 338.624C305.319 338.564 303.977 338.554 302.852 338.164C300.711 337.661 299.18 336.893 298.152 335.895C297.824 335.686 297.554 335.434 297.452 335.106C296.329 333.729 295.988 332.634 296.012 332.482L292.436 298.698L295.729 279.122L295.891 278.109L296.841 272.183" stroke="#8C65F7" stroke-width="1.31194" stroke-miterlimit="10"/>
<path d="M273.082 246.04C273.187 245.382 273.642 242.545 272.811 236.123C272.741 235.592 272.621 235.053 272.543 234.573C272.275 233.022 272.039 231.269 271.878 229.372C271.808 228.841 271.688 228.302 271.737 227.998C271.691 227.316 271.595 226.624 271.55 225.942C270.681 212.342 276.223 200.977 277.369 198.981" stroke="#8C65F7" stroke-width="1.31194" stroke-miterlimit="10"/>
<path d="M319.423 176.75C325.305 179.054 326.992 182.394 327.122 184.805C327.358 186.558 326.688 188.476 325.488 189.84C321.77 194.018 308.624 207.372 291.255 203.881C290.902 203.824 290.751 203.799 290.449 203.75C284.211 202.375 280.18 199.799 278.961 196.12C276.74 189.992 282.071 183.166 282.271 182.886" stroke="#8C65F7" stroke-width="1.31194" stroke-miterlimit="10"/>
<path d="M319.666 168.788L319.443 174.364L319.432 175.402L319.372 176.743L319.337 177.932L319.266 183.533L319.23 184.722L318.726 184.641C313.08 184.089 309.802 193.898 309.802 193.898L309.745 194.253L309.369 194.348C301.568 195.629 295.973 195.398 292.069 194.609C289.122 193.976 287.264 192.999 285.858 192.095C284.326 191.016 283.556 189.696 282.957 188.923C282.661 188.511 282.559 188.183 282.616 187.828C282.64 187.676 282.64 187.676 282.64 187.676L282.337 184.406L282.147 183.336L282.053 182.957L281.863 181.886L281.173 173.616L281.198 173.464" stroke="#8C65F7" stroke-width="1.31194" stroke-miterlimit="10"/>
<path d="M319.645 174.395C319.997 174.452 326.336 175.844 329.202 180.206C329.329 180.382 329.474 180.769 329.752 180.97C330.023 181.534 330.244 182.089 330.322 182.57C330.766 183.993 330.649 185.688 330.381 187.36C330.324 187.714 330.1 188.146 330.043 188.5C329.986 188.855 329.787 189.134 329.528 189.456C325.145 197.787 307.144 209.834 291.841 206.99C291.338 206.908 290.834 206.827 290.381 206.753C282.555 204.965 279.454 202.072 278.133 199.675C277.837 199.264 277.759 198.783 277.665 198.404C277.197 197.133 277.359 196.12 277.359 196.12L278.508 191.214" stroke="#8C65F7" stroke-width="1.31194" stroke-miterlimit="10"/>
<path d="M326.854 186.476L319.813 183.984" stroke="#8C65F7" stroke-width="1.31194" stroke-miterlimit="10"/>
<path d="M271.769 228.108C271.322 227.672 265.37 221.614 269.95 201.416C271.155 196.155 272.602 192.284 274.08 189.51C274.337 188.876 274.771 188.427 275.003 187.945C278.045 182.826 281.002 182.11 282.217 181.943" stroke="#8C65F7" stroke-width="1.31194" stroke-miterlimit="10"/>
<path d="M279.48 197.4C279.597 195.704 280.334 189.173 282.768 187.852" stroke="#8C65F7" stroke-width="1.31194" stroke-miterlimit="10"/>
<path d="M313.229 199.597C315.966 188.972 322.852 185.984 322.925 185.528" stroke="#8C65F7" stroke-width="1.31194" stroke-miterlimit="10"/>
<path d="M338.493 196.055L329.977 188.906" stroke="#8C65F7" stroke-width="1.31194" stroke-miterlimit="10"/>
<path d="M240.071 243.077C242.586 241.25 252.376 234.004 257.017 228.261C260.35 224.228 262.301 214.308 263.703 206.532C264.625 201.745 265.291 197.592 266.294 195.521C268.583 190.591 273.393 188.305 274.681 187.683C274.856 187.555 275.568 187.307 275.568 187.307" stroke="#8C65F7" stroke-width="1.31194" stroke-miterlimit="10"/>
<path d="M272.808 236.121C268.107 246.427 249.863 256.772 248.4 257.522" stroke="#8C65F7" stroke-width="1.31194" stroke-miterlimit="10"/>
<path d="M248.786 259.302C248.716 258.771 248.445 258.207 248.367 257.727C248.273 257.348 248.12 257.011 248.026 256.632C246.235 251.042 242.771 246.219 240.771 243.868C240.475 243.456 240.349 243.28 240.071 243.079C239.649 242.491 239.194 242.106 239.194 242.106L238.898 241.694L232.688 245.624L232.983 246.035C233.11 246.212 233.406 246.623 233.533 246.8C233.804 247.363 234.209 247.741 234.504 248.153C238.366 253.715 240.225 257.914 241.161 260.456C241.255 260.835 241.432 261.019 241.384 261.323C241.757 262.215 241.827 262.746 241.827 262.746L242.074 263.462L248.786 259.302Z" stroke="#8C65F7" stroke-width="1.31194" stroke-miterlimit="10"/>
<path d="M233.58 247.482L233.031 246.717L232.024 246.554C231.671 246.497 231.369 246.448 230.992 246.543L226.923 247.754C226.395 247.824 226.012 248.281 225.729 248.755C225.446 249.229 225.391 249.896 225.645 250.248L225.739 250.627L226.08 251.722L227.755 256.099C228.002 256.814 228.6 257.275 229.053 257.348C229.406 257.406 229.708 257.455 230.085 257.36L233.324 256.17C233.885 255.897 234.235 255.642 234.518 255.168C234.648 254.358 234.729 253.852 234.458 253.288L232.315 247.64L233.58 247.482Z" stroke="#8C65F7" stroke-width="1.31194" stroke-miterlimit="10"/>
<path d="M241.686 261.372C239.218 264.194 233.923 266.609 229.73 268.268C229.019 268.516 228.164 268.689 227.332 268.398C226.98 268.341 226.829 268.317 226.551 268.116C225.601 267.598 224.749 266.785 224.4 265.741L220.947 256.659C220.606 255.564 220.641 254.375 221.098 253.462C221.613 252.506 222.422 251.65 223.46 251.298L225.844 250.282L226.02 250.154" stroke="#8C65F7" stroke-width="1.31194" stroke-miterlimit="10"/>
<path d="M342.941 204.414C342.965 204.262 343.994 202.038 343.184 199.672C342.614 198.073 341.266 196.815 339.383 195.99L339.232 195.966L339.056 196.093C339.056 196.093 338.881 196.221 338.345 196.342C338.169 196.469 337.784 196.615 337.609 196.742C333.458 198.459 321.632 204.545 317.925 217.038C317.15 219.615 316.946 222.18 317.084 224.541C317.027 224.895 317.13 225.224 317.274 225.611C317.531 228.199 318.316 230.716 319.333 232.752C319.427 233.131 319.731 233.492 319.826 233.871C320.913 236.437 323.103 239.858 326.94 242.351C327.538 242.812 328.017 243.045 328.648 243.303C329.196 240.846 329.947 238.422 330.496 235.964C329.82 235.023 328.975 233.847 328.299 232.906C327.655 231.763 327.131 230.846 326.437 229.694C325.374 226.976 324.424 223.236 325.216 219.26C326.268 213.662 330.477 208.681 337.718 204.762C338.454 204.362 339.694 204.043 341.229 204.136C341.783 204.226 342.438 204.332 342.941 204.414Z" stroke="#8C65F7" stroke-width="1.31194" stroke-miterlimit="10"/>
<path d="M342.943 204.415C343.644 205.204 344.464 206.532 345.562 208.061C345.858 208.473 346.112 208.825 346.383 209.389C350.164 215.458 355.324 225.492 356.367 237.041L356.342 237.193" stroke="#8C65F7" stroke-width="1.31194" stroke-miterlimit="10"/>
<path d="M357.443 249.01C357.419 249.162 357.538 249.389 357.513 249.541C358.801 258.272 357.364 273.68 357.004 276.895C356.947 277.25 356.923 277.402 356.923 277.402L356.866 277.756L356.489 277.851C355.961 277.922 355.274 278.018 354.746 278.088C353.38 278.231 352.046 278.17 350.662 278.102C349.177 278.017 347.818 277.796 346.533 277.432C343.586 276.799 341.35 275.917 341.199 275.892L340.72 275.659L340.952 275.177C340.952 275.177 340.952 275.177 340.977 275.025C341.033 274.67 341.012 273.835 340.801 271.93C340.568 269.191 340.157 264.343 339.228 255.307C338.666 250.435 337.462 246.343 336.128 243.061C336.033 242.682 335.881 242.345 335.603 242.144C332.703 236.062 328.826 232.523 327.024 231.192" stroke="#8C65F7" stroke-width="1.31194" stroke-miterlimit="10"/>
<path d="M328.606 241.946L328.035 249.7" stroke="#8C65F7" stroke-width="1.31194" stroke-miterlimit="10"/>
<path d="M336.293 242.673L335.582 246.143C335.082 248.296 333.009 249.623 330.843 249.272L328.249 248.696" stroke="#8C65F7" stroke-width="1.31194" stroke-miterlimit="10"/>
<path d="M329.752 180.97C332.385 182.592 348.635 193.073 347.875 200.069C347.294 205.951 346.671 208.552 346.381 209.388C346.357 209.54 346.325 209.743 346.325 209.743" stroke="#8C65F7" stroke-width="1.31194" stroke-miterlimit="10"/>
<path d="M358.605 276.584L357.926 276.629C357.573 276.572 357.398 276.7 357.096 276.651C356.417 276.697 355.729 276.793 355.05 276.839L354.899 276.814C353.533 276.957 352.199 276.896 350.815 276.828C345.95 276.559 342.581 275.337 340.975 274.713C340.345 274.455 339.993 274.398 339.993 274.398L339.362 274.14L338.637 282.856L338.965 283.065C339.595 283.323 340.218 283.632 340.848 283.89C341.2 283.947 341.478 284.148 341.831 284.205C343.116 284.569 344.393 284.984 345.728 285.357C349.984 286.202 353.389 286.235 355.275 286.073C355.803 286.003 356.106 286.052 356.339 285.882C356.716 285.787 356.867 285.811 357.018 285.836L357.395 285.741L358.605 276.584Z" fill="white" stroke="#8C65F7" stroke-width="1.31194" stroke-miterlimit="10"/>
<path d="M356.514 285.441C356.514 285.441 356.49 285.593 356.609 285.82C356.901 287.219 358.034 293.69 355.288 302.442L355.263 302.594L355.088 302.722C354.913 302.849 352.247 304.651 346.361 303.333C343.918 302.781 341.028 301.793 337.613 299.889L337.285 299.68L338.465 294.571L338.628 293.558L340.065 287.815L340.403 286.675L341.033 283.711L341.089 283.356" stroke="#8C65F7" stroke-width="1.31194" stroke-miterlimit="10"/>
<path d="M338.808 294.68L338.455 294.623L334.383 293.599L334.464 293.092C335.341 287.622 338.674 286.811 340.242 286.702C340.619 286.607 340.921 286.656 340.921 286.656" stroke="#8C65F7" stroke-width="1.31194" stroke-miterlimit="10"/>
<path d="M311.048 170.976C311.154 170.317 313.503 154.693 309.011 148.873C308.039 147.52 306.66 146.777 305.116 146.734C297.406 146.16 285.254 145.905 281.546 145.823C281.043 145.742 280.716 145.845 280.515 145.812L280.364 145.787L277.882 147.412L276.21 148.492L276.186 148.644C276.08 149.302 272.597 164.586 278.459 172.5L278.586 172.676L278.737 172.701C278.888 172.725 280.046 172.913 281.708 173.182C282.061 173.239 282.363 173.288 282.866 173.37C288.003 174.203 296.998 175.141 303.113 173.742C303.264 173.767 307.429 173.247 310.973 171.119L311.048 170.976Z" fill="#5BF1CD"/>
<path d="M311.048 170.976C311.154 170.317 313.503 154.693 309.011 148.873C308.039 147.52 306.66 146.777 305.116 146.734C297.406 146.16 285.254 145.905 281.546 145.823C281.043 145.742 280.716 145.845 280.515 145.812L280.364 145.787L277.882 147.412L276.21 148.492L276.186 148.644C276.08 149.302 272.597 164.586 278.459 172.5L278.586 172.676L278.737 172.701C278.888 172.725 280.046 172.913 281.708 173.182C282.061 173.239 282.363 173.288 282.866 173.37C288.003 174.203 296.998 175.141 303.113 173.742C303.264 173.767 307.429 173.247 310.973 171.119L311.048 170.976Z" stroke="#8C65F7" stroke-width="1.31194" stroke-miterlimit="10"/>
<path d="M281.389 150.994C285.145 150.771 303.684 150.191 304.831 154.638C306.214 160.838 305.84 172.521 305.759 173.028" stroke="#8C65F7" stroke-width="1.31194" stroke-miterlimit="10"/>
<path d="M280.315 146.09C280.372 145.736 280.347 139.444 285.329 134.796C288.941 131.276 294.274 129.595 300.826 129.981C320.185 130.729 319.758 151.445 319.734 151.597" stroke="#8C65F7" stroke-width="1.31194" stroke-miterlimit="10"/>
<path d="M277.831 147.715C277.563 146.165 276.966 136.351 283.07 129.858C287.165 125.585 293.059 123.63 300.944 124.077C308.477 124.467 314.361 127.084 318.152 131.803C324.491 139.638 323.492 150.389 323.256 151.857" stroke="#8C65F7" stroke-width="1.31194" stroke-miterlimit="10"/>
<path d="M325.853 152.433L325.759 152.054L325.406 151.997C325.406 151.997 324.752 151.891 323.217 151.798C322.864 151.741 322.227 151.845 321.875 151.788C321.22 151.682 320.523 151.517 319.685 151.589C319.332 151.532 318.99 151.736 318.688 151.687C317.857 151.709 317.009 151.519 316.105 151.684L315.728 151.779L315.671 152.134C315.439 152.616 311.299 162.649 316.438 168.626L316.564 168.803L316.715 168.827C316.866 168.852 317.521 168.958 318.402 168.945C318.754 169.002 319.081 168.899 319.433 168.956C320.799 168.814 322.534 168.627 324.383 167.732L324.558 167.605L324.583 167.453C325.051 167.113 327.951 160.62 325.853 152.433Z" fill="#5BF1CD"/>
<path d="M325.853 152.433L325.758 152.054L325.406 151.997C325.406 151.997 317.017 151.469 316.154 151.693L315.777 151.787L315.721 152.142C315.488 152.624 311.348 162.657 316.487 168.635L316.614 168.811L316.765 168.836C316.916 168.86 317.571 168.966 318.451 168.953C318.804 169.01 319.13 168.907 319.483 168.964C320.849 168.822 322.584 168.636 324.433 167.74L324.608 167.613L324.8 167.384C324.808 167.333 324.858 167.342 324.866 167.291C325.441 166.605 327.891 160.35 325.853 152.433Z" stroke="#8C65F7" stroke-width="1.31194" stroke-miterlimit="10"/>
<path d="M319.621 161.66C317.794 157.259 320.786 152.132 320.835 151.828" stroke="#8C65F7" stroke-width="1.31194" stroke-miterlimit="10"/>
<path d="M314.834 336.261L315.619 335.557C315.619 335.557 315.619 335.557 315.746 335.734C316.446 336.523 318.808 340.803 316.322 351.156L316.265 351.511L307.716 355.529C304.244 357.201 300.383 358.082 296.676 358C294.806 358.061 292.616 357.862 290.324 357.334C286.722 356.595 283.108 354.969 280.006 352.076L279.88 351.9L279.904 351.748C279.961 351.393 280.243 344.476 284.885 340.656C287.198 338.796 290.205 338.089 293.704 338.5C294.208 338.582 294.712 338.663 295.366 338.77C295.517 338.794 295.719 338.827 296.021 338.876C296.374 338.933 303.903 340.309 305.769 345.756" stroke="#8C65F7" stroke-width="1.31194" stroke-miterlimit="10"/>
<path d="M267.74 326.081L268.244 326.163L267.592 340.867L267.215 340.962C267.215 340.962 260.9 342.328 253.401 343.659C249.413 344.363 242.756 344.635 237.164 343.417C233.059 342.596 229.468 340.818 228.053 338.043L227.926 337.866C227.951 337.714 227.343 332.16 230.5 328.255C232.359 326.01 234.919 324.866 238.372 324.594C241.977 324.347 244.572 324.924 246.456 326.061C246.935 326.294 247.205 326.546 247.684 326.779C250.867 329.166 251.113 332.791 251.113 332.791" stroke="#8C65F7" stroke-width="1.31194" stroke-miterlimit="10"/>
<path d="M245.887 326.072L246.415 326.001L251.549 324.599" stroke="#8C65F7" stroke-width="1.31194" stroke-miterlimit="10"/>
<path d="M293.111 338.663C293.111 338.663 293.286 338.535 293.487 338.568C294.625 337.921 296.881 336.416 297.604 335.13C297.604 335.13 297.628 334.978 297.66 334.776" stroke="#8C65F7" stroke-width="1.31194" stroke-miterlimit="10"/>
<path d="M287.994 235.517C281.957 234.175 278.2 227.954 279.584 221.579C280.967 215.204 286.984 211.191 292.87 212.509C298.907 213.851 302.663 220.072 301.304 226.295C300.122 232.703 294.03 236.86 287.994 235.517Z" stroke="#8C65F7" stroke-width="1.31194" stroke-miterlimit="10"/>
<path d="M316.019 224.42C316.698 224.374 317.051 224.431 317.738 224.335" stroke="#8C65F7" stroke-width="1.31194" stroke-miterlimit="10"/>
<path d="M301.813 223.106C302.821 223.269 305.288 223.669 306.296 223.833" stroke="#8C65F7" stroke-width="1.31194" stroke-miterlimit="10"/>
<path d="M272.617 214.11C272.617 214.11 276.008 216.167 280.805 217.828" stroke="#8C65F7" stroke-width="1.31194" stroke-miterlimit="10"/>
<path d="M315.353 232.781C317.071 232.696 318.052 232.699 319.612 232.641" stroke="#8C65F7" stroke-width="1.31194" stroke-miterlimit="10"/>
<path d="M299.35 231.384C301.012 231.653 302.976 231.971 304.789 232.265" stroke="#8C65F7" stroke-width="1.31194" stroke-miterlimit="10"/>
<path d="M271.555 222.98C271.555 222.98 275.145 224.757 279.314 226.472" stroke="#8C65F7" stroke-width="1.31194" stroke-miterlimit="10"/>
<path d="M261.005 293.967C258.734 294.274 256.594 294.083 254.957 293.662C253.168 293.216 251.915 292.649 251.714 292.616" stroke="#8C65F7" stroke-width="1.31194" stroke-miterlimit="10"/>
<path d="M306.136 306.064C303.865 306.371 301.726 306.18 300.088 305.759C298.3 305.313 297.047 304.746 296.846 304.714" stroke="#8C65F7" stroke-width="1.31194" stroke-miterlimit="10"/>
<path d="M291.873 271.586L292.822 278.235" stroke="#8C65F7" stroke-width="1.31194" stroke-miterlimit="10"/>
<path d="M359.98 247.033L359.065 238.882C358.995 238.351 358.724 237.787 358.269 237.402C357.822 236.966 357.318 236.884 356.631 236.981L356.254 237.075L355.19 237.267L354.814 237.361C353.75 237.553 352.941 238.409 353.131 239.479L353.285 241.738L350.993 244.433L354.01 245.597L354.499 247.703C354.722 248.571 355.296 249.183 356.101 249.314C356.252 249.338 356.454 249.371 356.454 249.371C356.605 249.395 356.806 249.428 356.982 249.301L357.51 249.23L358.221 248.982C359.287 249.103 360.128 248.044 359.98 247.033Z" fill="#5BF1CD"/>
<path d="M359.98 247.033L359.065 238.882C358.995 238.351 358.724 237.787 358.269 237.402C357.822 236.966 357.318 236.884 356.631 236.981L356.254 237.075L355.19 237.267L354.814 237.361C353.75 237.553 352.941 238.409 353.131 239.479L353.285 241.738L350.993 244.433L354.01 245.597L354.499 247.703C354.722 248.571 355.296 249.183 356.101 249.314C356.252 249.338 356.454 249.371 356.454 249.371C356.605 249.395 356.806 249.428 356.982 249.301L357.51 249.23L358.221 248.982C359.287 249.103 360.128 248.044 359.98 247.033Z" stroke="#8C65F7" stroke-width="1.31194" stroke-miterlimit="10"/>
<path d="M267.17 337.057C266.995 337.184 260.541 339.412 247.881 340.062C244.125 340.284 240.769 339.948 238.032 339.296C231.642 337.897 227.878 334.948 227.759 334.721" stroke="#8C65F7" stroke-width="1.31194" stroke-miterlimit="10"/>
<path d="M316.929 347.67C316.754 347.797 313.687 349.846 302.156 353.121C298.413 354.229 294.89 353.97 291.792 353.312C285.251 351.888 280.594 348.067 280.443 348.042" stroke="#8C65F7" stroke-width="1.31194" stroke-miterlimit="10"/>
<path d="M305.714 266.502C305.563 266.478 305.362 266.445 305.21 266.421C304.556 266.315 304.028 266.385 303.373 266.279C299.338 265.988 295.561 265.376 291.816 264.561C288.366 263.846 284.47 263.007 281.149 261.481" stroke="#8C65F7" stroke-width="1.31194" stroke-miterlimit="10"/>
<path d="M277.302 260.025C277.151 260 276.974 259.816 276.823 259.791C272.123 257.522 269.698 255.57 269.546 255.546L269.218 255.337L271.159 246.454C271.24 245.947 271.641 245.7 272 245.395C272.176 245.267 272.528 245.325 272.83 245.374C272.981 245.398 273.183 245.431 273.31 245.607C273.461 245.632 273.638 245.816 273.789 245.841C275.321 246.921 277.179 247.897 279.382 248.982C279.533 249.006 279.862 249.216 280.013 249.24" stroke="#8C65F7" stroke-width="1.31194" stroke-miterlimit="10"/>
<path d="M283.884 250.544C289.489 252.647 294.728 253.808 294.879 253.833C298.8 254.832 302.61 255.242 305.958 255.629" stroke="#8C65F7" stroke-width="1.31194" stroke-miterlimit="10"/>
<path d="M315.561 255.679C315.712 255.704 315.938 255.584 316.089 255.609C322.733 254.452 325.704 251.711 326.929 250.195L327.104 250.068C327.312 249.738 327.689 249.643 328.168 249.876C328.672 249.958 328.917 250.362 329.07 250.698L330.942 259.004L330.918 259.156C330.918 259.156 330.71 259.486 330.252 260.087C330.044 260.417 329.794 260.689 329.435 260.994C327.456 262.7 323.671 265.36 316.229 266.336C316.078 266.312 316.078 266.312 315.853 266.431" stroke="#8C65F7" stroke-width="1.31194" stroke-miterlimit="10"/>
<path d="M314.325 267.897L307.189 267.936C306.685 267.854 306.408 267.653 306.287 267.114L306.366 255.019C306.447 254.513 306.647 254.233 307.183 254.112L314.319 254.074L314.47 254.099C314.621 254.123 314.823 254.156 314.95 254.332C315.076 254.509 315.245 254.744 315.221 254.896L315.143 266.991C315.061 267.497 314.628 267.946 314.325 267.897Z" stroke="#8C65F7" stroke-width="1.31194" stroke-miterlimit="10"/>
<path d="M280.564 261.906C280.483 262.413 279.78 262.61 279.276 262.529L277.639 262.107C277.488 262.083 277.008 261.849 277.041 261.647C276.914 261.47 276.947 261.268 276.995 260.964L280.28 247.882C280.362 247.375 281.065 247.178 281.417 247.235L283.055 247.656C283.206 247.681 283.685 247.914 283.653 248.117C283.78 248.293 283.747 248.496 283.698 248.8L280.564 261.906Z" stroke="#8C65F7" stroke-width="1.31194" stroke-miterlimit="10"/>
<path d="M275.295 247.073L272.912 257.755" stroke="#8C65F7" stroke-width="1.31194" stroke-miterlimit="10"/>
<path d="M288.459 252.638L286.483 262.71" stroke="#8C65F7" stroke-width="1.31194" stroke-miterlimit="10"/>
<path d="M295.126 254.549L293.559 264.324" stroke="#8C65F7" stroke-width="1.31194" stroke-miterlimit="10"/>
<path d="M301.97 256.022L300.403 265.797" stroke="#8C65F7" stroke-width="1.31194" stroke-miterlimit="10"/>
<path d="M318.645 255.451L319.594 265.322" stroke="#8C65F7" stroke-width="1.31194" stroke-miterlimit="10"/>
<path d="M323.933 253.088L325.561 262.913" stroke="#8C65F7" stroke-width="1.31194" stroke-miterlimit="10"/>
<path d="M309.813 132.27L303.683 138.604C302.69 139.638 301.201 140.228 299.891 140.015L293.364 139.477C293.012 139.42 292.86 139.395 292.709 139.371C290.77 138.9 289.294 137.466 288.964 135.334L288.412 132.335" stroke="#8C65F7" stroke-width="1.31194" stroke-miterlimit="10"/>
<path d="M309.457 234.737C309.282 234.864 308.897 235.01 308.746 234.985L306.103 234.713C305.75 234.655 305.599 234.631 305.505 234.252C305.378 234.075 305.234 233.688 305.258 233.536L306.378 223.325C306.459 222.819 306.893 222.369 307.572 222.324L310.064 222.572L310.215 222.596C310.366 222.621 310.694 222.83 310.813 223.057C310.939 223.233 311.084 223.62 311.06 223.772L310.091 234.008C309.841 234.279 309.657 234.457 309.457 234.737Z" stroke="#8C65F7" stroke-width="1.31194" stroke-miterlimit="10"/>
<path d="M313.818 234.924L311.797 234.96C311.646 234.935 311.646 234.935 311.469 234.751C311.343 234.574 311.198 234.187 311.247 233.883L312.215 223.648C312.321 222.989 312.755 222.54 313.057 222.589L315.078 222.553L315.229 222.577C315.38 222.602 315.38 222.602 315.557 222.786C315.684 222.963 315.828 223.35 315.78 223.654L314.811 233.889C314.554 234.523 314.171 234.981 313.818 234.924Z" stroke="#8C65F7" stroke-width="1.31194" stroke-miterlimit="10"/>
<path d="M302.611 341.918C301.862 341.433 300.037 342.176 299.326 342.425C298.238 342.768 297.372 343.979 297.058 344.967C296.438 346.581 294.64 347.485 293.01 347.013L288.754 346.167C287.747 346.004 286.871 345.342 286.371 344.274C285.846 343.357 285.881 342.168 286.195 341.18C287.247 338.804 289.551 338.294 290.733 338.33" stroke="#8C65F7" stroke-width="1.31194" stroke-miterlimit="10"/>
<path d="M250.042 329.811C247.631 329.057 243.315 329.552 241.466 330.448C239.819 331.376 237.875 331.58 235.911 331.262C235.407 331.18 234.928 330.946 234.626 330.897L229.877 328.933" stroke="#8C65F7" stroke-width="1.31194" stroke-miterlimit="10"/>
<path d="M292.8 223.565C293.08 224.078 293.133 224.711 293.044 225.268C292.955 225.825 292.656 226.4 292.281 226.807L292.897 227.478C293.447 226.944 293.821 226.225 293.943 225.465C294.072 224.655 293.951 223.804 293.544 223.114L293.085 223.404L292.8 223.565Z" fill="#15EBB7"/>
<path d="M293.428 228.032L291.353 225.825C291.537 225.647 291.686 225.36 291.777 225.115C291.826 224.811 291.816 224.549 291.706 224.272L292.976 223.438L294.313 222.512C294.422 222.478 294.446 222.326 294.354 222.259L294.227 222.082C293.509 221.082 292.482 220.396 291.281 220.15L291.387 219.491C291.395 219.441 291.403 219.39 291.411 219.339C291.419 219.289 291.377 219.23 291.377 219.23C291.377 219.23 291.335 219.171 291.293 219.112C291.242 219.104 291.2 219.045 291.2 219.045C291.2 219.045 291.099 219.029 291.091 219.08C291.041 219.071 290.982 219.114 290.974 219.165C290.966 219.215 290.916 219.207 290.908 219.258C290.9 219.308 290.891 219.359 290.883 219.41L290.778 220.068C290.468 220.07 290.208 220.08 289.897 220.081L290.027 219.271C290.035 219.22 290.043 219.17 290.052 219.119C290.06 219.068 290.017 219.009 290.017 219.009C289.975 218.951 289.975 218.951 289.933 218.892C289.883 218.884 289.84 218.825 289.84 218.825C289.84 218.825 289.74 218.809 289.731 218.859C289.681 218.851 289.623 218.894 289.615 218.944C289.606 218.995 289.556 218.987 289.548 219.037C289.54 219.088 289.532 219.139 289.524 219.189L289.353 220.253C288.323 220.554 287.396 221.183 286.746 222.013C286.088 222.893 285.767 223.932 285.848 225.037C285.879 226.133 286.287 227.135 287.029 227.982C287.721 228.822 288.722 229.348 289.771 229.57L293.196 230.125C293.297 230.142 293.414 230.057 293.43 229.955L293.706 228.233C293.462 228.142 293.47 228.091 293.428 228.032ZM289.758 228.685C288.902 228.546 288.145 228.111 287.572 227.499C286.998 226.886 286.616 226.045 286.545 225.202C286.473 224.359 286.662 223.506 287.094 222.745C287.568 222.042 288.227 221.473 289.006 221.132L288.803 222.398C288.794 222.449 288.786 222.499 288.778 222.55C288.77 222.601 288.812 222.659 288.812 222.659C288.812 222.659 288.855 222.718 288.897 222.777C288.947 222.785 288.989 222.844 288.989 222.844C288.989 222.844 289.09 222.86 289.098 222.81C289.149 222.818 289.207 222.775 289.215 222.725C289.274 222.682 289.274 222.682 289.282 222.632C289.29 222.581 289.298 222.53 289.306 222.48L289.558 220.91C289.985 220.823 290.455 220.795 290.908 220.869C291.714 220.999 292.479 221.383 293.103 222.004C293.145 222.063 293.137 222.113 293.078 222.156L290.997 223.533C290.854 223.458 290.661 223.375 290.51 223.35C290.309 223.318 290.099 223.336 289.94 223.362C289.781 223.388 289.555 223.507 289.43 223.643C289.254 223.77 289.121 223.957 289.046 224.1C288.964 224.295 288.931 224.497 288.899 224.7C288.917 224.911 288.934 225.121 289.011 225.29C289.087 225.458 289.214 225.634 289.349 225.76C289.484 225.886 289.669 226.02 289.87 226.053C290.064 226.136 290.273 226.118 290.483 226.1L292.515 228.248C292.515 228.248 292.557 228.307 292.549 228.358L292.452 228.965C292.444 229.016 292.385 229.059 292.335 229.05L289.758 228.685ZM290.929 224.925C290.913 225.027 290.846 225.12 290.78 225.213C290.713 225.306 290.604 225.34 290.496 225.375C290.387 225.409 290.286 225.393 290.185 225.376C290.085 225.36 289.992 225.293 289.908 225.175C289.823 225.058 289.781 224.999 289.805 224.847C289.83 224.695 289.838 224.644 289.904 224.551C289.971 224.458 290.037 224.365 290.146 224.331C290.255 224.296 290.364 224.262 290.465 224.278C290.616 224.303 290.759 224.378 290.843 224.496C290.928 224.613 290.954 224.773 290.929 224.925Z" fill="#0E0333"/>
<path d="M188.783 258.075C187.04 255.696 187.544 252.345 189.91 250.592L209.799 235.85C212.165 234.096 215.496 234.604 217.24 236.983L242.104 270.911C243.847 273.29 243.343 276.641 240.977 278.395L221.088 293.136C218.722 294.89 215.391 294.383 213.647 292.003L188.783 258.075Z" fill="white"/>
<path fill-rule="evenodd" clip-rule="evenodd" d="M210.272 236.496L190.383 251.238C188.372 252.729 187.944 255.576 189.426 257.599L214.289 291.527C215.772 293.55 218.603 293.981 220.614 292.49L240.503 277.748C242.514 276.258 242.943 273.41 241.461 271.387L216.597 237.459C215.115 235.437 212.283 235.006 210.272 236.496ZM189.91 250.592C187.544 252.345 187.04 255.696 188.783 258.075L213.647 292.003C215.391 294.383 218.722 294.89 221.088 293.136L240.977 278.395C243.343 276.641 243.847 273.29 242.104 270.911L217.24 236.983C215.496 234.604 212.165 234.096 209.799 235.85L189.91 250.592Z" fill="#8C65F7"/>
<path d="M191.536 257.115C190.664 255.925 190.916 254.25 192.099 253.373L211.634 238.894C212.817 238.017 214.482 238.271 215.354 239.46L239.113 271.881C239.985 273.071 239.733 274.746 238.55 275.623L219.015 290.102C217.832 290.979 216.167 290.725 215.295 289.536L191.536 257.115Z" fill="#FCFAFF"/>
<path fill-rule="evenodd" clip-rule="evenodd" d="M212.107 239.54L192.573 254.019C191.745 254.633 191.568 255.806 192.178 256.639L215.937 289.059C216.548 289.892 217.714 290.07 218.542 289.456L238.076 274.977C238.904 274.363 239.081 273.19 238.471 272.357L214.712 239.937C214.101 239.104 212.935 238.926 212.107 239.54ZM192.099 253.373C190.916 254.25 190.664 255.925 191.536 257.115L215.295 289.536C216.167 290.725 217.832 290.979 219.015 290.102L238.55 275.623C239.733 274.746 239.985 273.071 239.113 271.881L215.354 239.46C214.482 238.271 212.817 238.017 211.634 238.894L192.099 253.373Z" fill="#8C65F7"/>
<path d="M502.059 222.566L507.263 218.594V207.141V195.623L502.191 191.651L502.059 222.566Z" fill="#8C65F7" stroke="#8C65F7" stroke-width="1.31194" stroke-miterlimit="10" stroke-linejoin="round"/>
<path d="M502.064 330.262C502.062 330.807 502.686 331.117 503.118 330.787L507.005 327.82C507.167 327.696 507.263 327.503 507.263 327.299V316.171V304.972C507.263 304.77 507.17 304.58 507.011 304.456L503.245 301.507C502.816 301.17 502.187 301.475 502.185 302.02L502.064 330.262Z" fill="#8C65F7" stroke="#8C65F7" stroke-width="1.31194" stroke-miterlimit="10" stroke-linejoin="round"/>
<path d="M457.335 354.7H492.775C498.242 354.7 502.722 350.198 502.722 344.704V289.229C502.722 283.735 498.242 279.233 492.775 279.233H457.269V354.7H457.335Z" fill="white" stroke="#8C65F7" stroke-width="1.31194" stroke-miterlimit="10" stroke-linejoin="round"/>
<path d="M457.202 239.581H492.707C498.175 239.581 502.654 235.08 502.654 229.585V186.027C502.654 180.532 498.175 176.031 492.707 176.031H457.202V239.581Z" fill="white" stroke="#8C65F7" stroke-width="1.31194" stroke-miterlimit="10" stroke-linejoin="round"/>
<path d="M139.631 416.448L219.461 444.596L407.924 214.424L327.691 187.68L139.631 416.448Z" fill="white" stroke="#8C65F7" stroke-width="1.31194" stroke-miterlimit="10" stroke-linejoin="round"/>
<path d="M192.734 377.401L240.969 394.524L353.165 256.228L304.687 239.959L192.734 377.401Z" fill="#F0EBFF" stroke="#8C65F7" stroke-width="1.31194" stroke-miterlimit="10" stroke-linejoin="round"/>
<path d="M252.213 335.158L261.38 338.194L253.666 348.2L244.163 344.94L252.213 335.158Z" fill="#02E2AC"/>
<path d="M269.987 328.636L279.266 331.785L271.329 341.566L261.714 338.306L269.987 328.636Z" fill="#02E2AC"/>
<path d="M288.77 300.977L284.522 299.516L280.944 303.901L285.193 305.362L288.77 300.977Z" fill="#8C65F7"/>
<path d="M271.218 307.611L266.858 306.149L263.28 310.534L267.64 311.996L271.218 307.611Z" fill="#8C65F7"/>
<path d="M249.305 350.112L245.057 348.65L241.367 353.035L245.727 354.497L249.305 350.112Z" fill="#8C65F7"/>
<path d="M264.398 330.098L260.15 328.636L256.572 333.021L260.821 334.483L264.398 330.098Z" fill="#8C65F7"/>
<path d="M301.516 254.766L297.267 253.305L293.578 257.69L297.938 259.151L301.516 254.766Z" fill="#5BF1CD"/>
<path d="M306.882 308.061L302.633 306.487L299.056 310.984L303.304 312.333L306.882 308.061Z" fill="#8C65F7"/>
<path d="M254.112 314.47L249.864 312.895L246.286 317.393L250.534 318.855L254.112 314.47Z" fill="#8C65F7"/>
<path d="M286.98 322.115L278.036 318.967L270.657 328.187L279.489 331.11L286.98 322.115Z" fill="#5BF1CD"/>
<path d="M330.023 264.886L325.775 263.312L322.197 267.809L326.446 269.271L330.023 264.886Z" fill="#8C65F7"/>
<path d="M343.104 253.305L230.747 391.263" stroke="#8C65F7" stroke-width="1.31194" stroke-miterlimit="10" stroke-linejoin="round"/>
<path d="M333.601 250.044L221.244 388.115" stroke="#8C65F7" stroke-width="1.31194" stroke-miterlimit="10" stroke-linejoin="round"/>
<path d="M324.098 246.896L212.3 384.404" stroke="#8C65F7" stroke-width="1.31194" stroke-miterlimit="10" stroke-linejoin="round"/>
<path d="M314.484 243.635L203.356 380.469" stroke="#8C65F7" stroke-width="1.31194" stroke-miterlimit="10" stroke-linejoin="round"/>
<path d="M200.673 367.876L249.194 383.842" stroke="#8C65F7" stroke-width="1.31194" stroke-miterlimit="10" stroke-linejoin="round"/>
<path d="M208.723 357.982L257.02 374.285" stroke="#8C65F7" stroke-width="1.31194" stroke-miterlimit="10" stroke-linejoin="round"/>
<path d="M216.772 348.2L264.846 364.728" stroke="#8C65F7" stroke-width="1.31194" stroke-miterlimit="10" stroke-linejoin="round"/>
<path d="M224.711 338.418L273.232 354.609" stroke="#8C65F7" stroke-width="1.31194" stroke-miterlimit="10" stroke-linejoin="round"/>
<path d="M232.759 328.637L281.056 345.052" stroke="#8C65F7" stroke-width="1.31194" stroke-miterlimit="10" stroke-linejoin="round"/>
<path d="M240.696 318.855L288.882 334.933" stroke="#8C65F7" stroke-width="1.31194" stroke-miterlimit="10" stroke-linejoin="round"/>
<path d="M248.746 309.073L297.267 325.376" stroke="#8C65F7" stroke-width="1.31194" stroke-miterlimit="10" stroke-linejoin="round"/>
<path d="M256.796 299.291L276.137 305.7L285.64 308.96L305.093 315.257" stroke="#8C65F7" stroke-width="1.31194" stroke-miterlimit="10" stroke-linejoin="round"/>
<path d="M264.733 289.397L312.919 305.7" stroke="#8C65F7" stroke-width="1.31194" stroke-miterlimit="10" stroke-linejoin="round"/>
<path d="M272.782 279.615L320.744 295.581" stroke="#8C65F7" stroke-width="1.31194" stroke-miterlimit="10" stroke-linejoin="round"/>
<path d="M280.72 269.833L328.569 285.911" stroke="#8C65F7" stroke-width="1.31194" stroke-miterlimit="10" stroke-linejoin="round"/>
<path d="M288.77 260.051L336.619 276.129" stroke="#8C65F7" stroke-width="1.31194" stroke-miterlimit="10" stroke-linejoin="round"/>
<path d="M296.819 250.269L344.557 266.235" stroke="#8C65F7" stroke-width="1.31194" stroke-miterlimit="10" stroke-linejoin="round"/>
<path d="M407.923 214.292L407.199 214.888C412.93 214.954 418.792 215.02 424.721 215.02C447.184 215.02 468.263 214.292 486.773 213.034V183.245C468.263 181.987 447.184 181.259 424.721 181.259C386.449 181.259 351.997 183.377 327.888 186.687L407.923 214.292Z" fill="white" stroke="#8C65F7" stroke-width="1.31194" stroke-miterlimit="10" stroke-linejoin="round"/>
<path d="M424.721 1.52893V443.603H486.773V63.888C486.773 29.4647 458.975 1.52893 424.721 1.52893Z" fill="white" stroke="#8C65F7" stroke-width="1.31194" stroke-miterlimit="10" stroke-linejoin="round"/>
<path d="M219.567 444.557L425.039 443.604V214.226H407.927L219.567 444.557Z" fill="white" stroke="#8C65F7" stroke-width="1.31194" stroke-miterlimit="10" stroke-linejoin="round"/>
<path d="M325.913 55.6808L327.889 186.688L424.723 181.259V65.0809L325.913 55.6808Z" fill="white" stroke="#8C65F7" stroke-width="1.31194" stroke-miterlimit="10" stroke-linejoin="round"/>
<path d="M386.187 38.2029L424.723 65.0795V1.52893L386.187 28.3393V38.2029Z" fill="white" stroke="#8C65F7" stroke-width="1.31194" stroke-miterlimit="10" stroke-linejoin="round"/>
<ellipse rx="25.7" ry="4.92313" transform="matrix(-1 0 0 1 394.444 192.738)" fill="#E7E1FE"/>
<path d="M372.062 160.427L369.205 129.615C369.177 129.3 368.889 121.976 382.429 118.393C395.081 115.051 397.029 118.235 397.286 118.875L413.126 145.761C413.126 145.761 417.12 153.122 408.91 161.304C408.91 161.304 403.9 166.965 389.133 168.902C389.133 168.902 380.368 169.623 376.321 168.15C372.275 166.677 372.062 160.427 372.062 160.427Z" fill="white"/>
<path d="M411.558 142.753C410.964 143.522 404.128 154.952 394.126 155.528C392.59 155.531 391.164 154.724 390.434 153.464L388.509 150.198C387.97 149.375 386.3 148.198 383.735 149.312C380.288 150.84 371.716 154.071 371.626 154.101L372.302 162.671C372.302 162.671 373.523 167.775 378.26 168.547C382.989 169.297 393.769 170.282 405.659 163.742C419.935 155.922 411.558 142.753 411.558 142.753Z" fill="white"/>
<path d="M417.018 154.029C417.257 154.076 417.51 154.093 417.771 154.058C418.487 153.973 419.146 153.558 419.56 152.923L421.6 149.957C422.022 149.344 422.153 148.602 421.949 147.97C421.773 147.427 421.366 147.011 420.815 146.842L415.533 145.074C414.588 144.759 413.445 145.208 412.82 146.112L412.112 147.143C411.473 148.077 411.54 149.204 412.229 149.877L416.186 153.603C416.431 153.822 416.698 153.959 417.018 154.029Z" fill="white" stroke="#8C65F7" stroke-width="1.31194" stroke-miterlimit="10"/>
<path d="M369.154 169.898C369.37 169.952 369.601 169.976 369.825 169.978L373.553 169.931C374.343 169.923 375.076 169.583 375.527 169.061C375.925 168.606 376.092 168.051 375.984 167.487L374.946 162.057C374.758 161.094 373.793 160.411 372.63 160.417L371.318 160.422C370.155 160.428 369.144 161.134 368.891 162.116L367.507 167.564C367.369 168.134 367.499 168.691 367.869 169.144C368.21 169.507 368.648 169.789 369.154 169.898Z" fill="white" stroke="#8C65F7" stroke-width="1.31194" stroke-miterlimit="10"/>
<path d="M394.307 175.003C394.82 175.134 395.387 175.124 395.925 174.948L400.698 173.535C401.558 173.279 402.262 172.698 402.625 171.905C402.995 171.135 403.009 170.256 402.611 169.487L398.753 161.933C398.135 160.711 396.685 160.137 395.28 160.547L393.629 161.037C392.225 161.447 391.3 162.724 391.425 164.107L392.16 172.583C392.229 173.41 392.694 174.157 393.415 174.62C393.697 174.803 393.979 174.91 394.307 175.003Z" fill="white" stroke="#8C65F7" stroke-width="1.31194" stroke-miterlimit="10"/>
<path d="M375.949 167.997C376.685 168.281 376.812 168.289 377.809 168.537C381.033 169.305 385.705 169.649 392.155 168.437" stroke="#8C65F7" stroke-width="1.31194" stroke-miterlimit="10"/>
<path d="M400.849 166.042C412.299 161.744 413.532 154.372 413.89 150.958" stroke="#8C65F7" stroke-width="1.31194" stroke-miterlimit="10"/>
<path d="M413.129 145.761L397.288 118.874C397.031 118.234 395.091 115.073 382.432 118.392C368.861 121.96 369.179 129.299 369.207 129.615L372.064 160.427" stroke="#8C65F7" stroke-width="1.31194" stroke-miterlimit="10"/>
<path d="M393.962 135.024C394.51 134.42 395.473 134.33 396.163 134.703C396.862 135.099 397.289 135.884 397.351 136.688C397.413 137.492 397.08 138.3 396.591 138.935C396.38 139.203 396.14 139.457 395.834 139.582C395.25 139.848 394.581 139.618 393.971 139.418C393.8 139.349 393.636 139.302 393.495 139.174C393.362 139.067 393.258 138.901 393.155 138.735C392.47 137.461 393.777 134.835 393.962 135.024Z" fill="white"/>
<path d="M399.837 130.355C400.382 130.277 400.941 130.243 401.447 130.428C401.871 130.588 402.212 130.876 402.538 131.194C404.041 132.775 404.698 134.958 405.55 136.978C405.741 137.415 405.932 137.852 405.988 138.333C406.024 138.596 405.992 138.881 405.931 139.151C405.839 139.556 405.695 139.952 405.417 140.243C404.914 140.833 404.033 141.021 403.273 140.82C402.514 140.619 401.876 140.103 401.381 139.491C400.885 138.879 400.509 138.178 400.141 137.499C399.618 136.571 399.079 135.674 398.795 134.643C398.642 134.168 398.563 133.695 398.476 133.198C398.359 132.837 398.34 132.394 398.268 132.018C398.225 131.732 398.064 131.31 398.073 131.032C398.159 130.455 399.389 130.427 399.837 130.355Z" fill="white"/>
<path d="M402.081 127.103L409.156 139.467C409.156 139.467 399.173 150.902 395.525 146.676C391.899 142.443 390.409 137.685 390.409 137.685C390.409 137.685 388.983 134.812 402.081 127.103ZM399.928 133.395L403.284 138.941C403.705 139.627 404.531 139.882 405.137 139.533C405.407 139.37 405.58 139.139 405.663 138.861C405.77 138.502 405.728 138.066 405.5 137.666L402.143 132.121C401.723 131.434 400.897 131.18 400.291 131.528C400.021 131.691 399.848 131.923 399.764 132.2C399.635 132.567 399.677 133.003 399.928 133.395ZM393.516 137.942C393.975 138.516 394.982 138.486 395.783 137.899C396.555 137.297 396.829 136.383 396.371 135.809C395.912 135.234 394.906 135.264 394.104 135.851C393.325 136.431 393.058 137.368 393.516 137.942Z" fill="#6F3FF5"/>
<path d="M372.017 129.27C372.083 129.323 372.959 130.036 374.835 130.471C376.852 130.96 380.057 131.134 384.717 129.909C393.418 127.61 395.392 122.218 395.468 121.994" stroke="#8C65F7" stroke-width="1.31194" stroke-miterlimit="10"/>
<path d="M411.41 142.827C410.816 143.596 403.98 155.025 393.978 155.602C392.442 155.605 391.016 154.798 390.286 153.538L388.361 150.272C387.822 149.449 386.152 148.272 383.588 149.386C380.141 150.914 371.568 154.145 371.478 154.174" stroke="#8C65F7" stroke-width="1.31194" stroke-miterlimit="10"/>
<path d="M377.671 107.512C376.394 107.93 375.026 107.228 374.61 105.941C374.193 104.654 374.888 103.277 376.166 102.859C377.443 102.441 378.81 103.142 379.227 104.43C379.666 105.71 378.949 107.093 377.671 107.512Z" fill="#6F3FF5"/>
<path d="M384.223 123.777L377.701 107.378" stroke="#8C65F7" stroke-width="1.31194" stroke-miterlimit="10"/>
<path d="M382.327 124.122C382.811 124.238 383.491 124.116 384.216 123.753C385.368 123.176 385.963 122.332 385.624 121.669C385.293 121.028 384.234 120.975 383.082 121.552C382.633 121.774 382.236 122.078 381.966 122.392C381.605 122.809 381.483 123.274 381.674 123.636C381.807 123.892 382.03 124.044 382.327 124.122Z" stroke="#8C65F7" stroke-width="1.31194" stroke-miterlimit="10"/>
<path d="M374.595 113.79C379.321 115.065 384.215 112.264 385.506 107.521C386.797 102.777 383.995 97.8742 379.269 96.5987C374.543 95.3232 369.649 98.1242 368.358 102.868C367.067 107.612 369.868 112.514 374.595 113.79Z" stroke="#8C65F7" stroke-width="1.31194" stroke-miterlimit="10"/>
<path d="M379.239 147.213C378.634 147.411 377.995 147.121 377.805 146.534C377.622 145.969 377.962 145.333 378.567 145.135C379.172 144.937 379.834 145.22 380.024 145.807C380.214 146.394 379.844 147.015 379.239 147.213Z" fill="#6F3FF5"/>
<path d="M378.284 141.43C377.679 141.628 377.04 141.338 376.85 140.75C376.659 140.163 377.006 139.55 377.612 139.352C378.217 139.154 378.863 139.467 379.046 140.031C379.229 140.596 378.889 141.232 378.284 141.43Z" fill="#6F3FF5"/>
<path d="M376.601 136.611C375.995 136.809 375.349 136.497 375.166 135.932C374.983 135.367 375.323 134.732 375.928 134.534C376.533 134.335 377.195 134.618 377.385 135.206C377.545 135.778 377.206 136.413 376.601 136.611Z" fill="#6F3FF5"/>
<path d="M399.066 175.843L398.37 173.923" stroke="#8C65F7" stroke-width="1.31194" stroke-miterlimit="10"/>
<path d="M396.019 177.313L402.108 175.295" stroke="#8C65F7" stroke-width="1.31194" stroke-miterlimit="10"/>
<path d="M371.677 171.719L371.563 169.683" stroke="#8C65F7" stroke-width="1.31194" stroke-miterlimit="10"/>
<path d="M375.261 171.919L368.876 172.335" stroke="#8C65F7" stroke-width="1.31194" stroke-miterlimit="10"/>
<path d="M422.533 152.299L420.743 151.211" stroke="#8C65F7" stroke-width="1.31194" stroke-miterlimit="10"/>
<path d="M424.599 149.725L420.912 154.803" stroke="#8C65F7" stroke-width="1.31194" stroke-miterlimit="10"/>
<path d="M468.596 93.083C466.559 93.083 464.907 90.6823 464.907 87.7209C464.907 84.7595 466.559 82.3589 468.596 82.3589C470.634 82.3589 472.285 84.7595 472.285 87.7209C472.285 90.6823 470.634 93.083 468.596 93.083Z" fill="#8C65F7" stroke="#8C65F7" stroke-width="1.31194" stroke-miterlimit="10" stroke-linejoin="round"/>
<path d="M325.913 1L424.723 1.52959L386.187 28.34L294.492 21.9187L325.913 1Z" fill="white" stroke="#8C65F7" stroke-width="1.31194" stroke-miterlimit="10" stroke-linejoin="round"/>
<path d="M386.192 38.2034V28.3398L294.497 21.9186V28.8032L386.192 38.2034Z" fill="white" stroke="#8C65F7" stroke-width="1.31194" stroke-miterlimit="10"/>
<path d="M424.723 65.0798L325.913 55.6796L294.492 28.803L386.187 38.2032L424.723 65.0798Z" fill="white" stroke="#8C65F7" stroke-width="1.31194" stroke-miterlimit="10" stroke-linejoin="round"/>
<path d="M407.201 214.887L220.188 443.603" stroke="#8C65F7" stroke-width="1.31194" stroke-miterlimit="10"/>
<path d="M505.554 209.856C509.573 209.856 512.866 206.546 512.866 202.508V95.0676C512.866 91.0295 509.573 87.7195 505.554 87.7195H467.743" stroke="#8C65F7" stroke-width="1.31194" stroke-miterlimit="10"/>
<path d="M506.688 317.649C510.706 317.649 514 314.339 514 310.301V208.483C514 204.445 510.706 201.135 506.688 201.135" stroke="#8C65F7" stroke-width="1.31194" stroke-miterlimit="10"/>
</svg>
