<svg width="515" height="445" viewBox="0 0 515 445" fill="none" xmlns="http://www.w3.org/2000/svg">
<path d="M171.007 134.4C168.832 133.935 166.525 133.949 164.908 135.392C163.56 136.595 162.962 138.331 161.819 139.711C160.004 141.932 157.427 142.067 154.508 142.025C150.844 142.047 147.249 142.248 143.589 142.867" stroke="#5012FF" stroke-width="1.71644"/>
<path d="M274.322 390.731C291.249 400.94 346.479 423.844 364.596 413.472C374.587 407.773 381.426 398.361 384.208 388.23C385.876 382.151 390.636 354.389 431.336 358.227" stroke="#5012FF" stroke-width="1.71644" stroke-miterlimit="10"/>
<path d="M496.412 138.259C508.12 142.835 513.274 157.157 506.634 166.769C501.37 174.47 490.641 178.461 485.258 186.134C480.312 193.239 480.921 202.164 481.103 210.422C481.361 220.048 481.046 229.87 477.649 238.932C474.252 247.995 467.523 256.685 457.571 260.643C447.771 264.525 436.033 263.655 426.188 259.651C416.343 255.648 408.375 248.957 401.688 241.458C392.636 231.35 385.723 219.744 377.007 209.382" stroke="#5012FF" stroke-width="1.71644" stroke-miterlimit="10"/>
<path d="M296.475 42.4228L288.787 43.4845L424.333 136.335L417.18 70.8109L362.726 33.5249L345.539 35.827L325.169 38.5714L316.747 39.6357L296.475 42.4228Z" fill="#8C65F7" stroke="#5012FF" stroke-width="1.71644" stroke-miterlimit="10"/>
<path d="M484.661 154.728C484.661 154.728 484.77 154.678 484.827 154.774C484.993 154.819 485.211 154.718 485.32 154.668C485.647 154.517 485.751 154.224 485.693 154.128L486.447 150.965L486.556 150.915L486.685 146.939L486.846 146.743C487.006 146.546 488.401 144.922 489.887 142.522L490.157 142.275L490.966 141.534C491.075 141.483 491.126 141.337 491.069 141.241L491.064 140.999L491.66 140.601L492.159 140.737C492.714 140.97 493.763 141.096 494.899 140.204L497.165 138.177L497.359 139.434C497.626 141.512 496.232 143.136 496.181 143.282L496.518 143.616L496.254 144.105C495.933 144.498 495.399 145.235 494.866 145.971C495.879 146.97 497.037 147.047 497.146 146.996C497.582 146.795 497.95 146.013 498.203 145.04L498.3 144.505L499.017 144.541C499.551 143.804 499.913 142.78 500.016 142.488C500.734 140.198 500.3 138.073 499.717 136.63L499.654 136.292L499.924 136.045C500.193 135.798 500.245 135.651 500.354 135.601C500.457 135.308 500.395 134.97 500.166 134.587C500.166 134.587 499.285 132.18 499.056 131.796L498.936 131.362L501.368 129.381C501.368 129.381 502.395 128.539 502.424 127.424C502.408 126.697 502.173 126.072 501.497 125.405C500.483 124.406 499.222 124.622 498.402 124.879L498.075 125.03L497.852 124.888C497.629 124.747 497.353 124.752 497.187 124.706C496.803 124.761 496.419 124.817 496.149 125.064L495.719 125.507C495.341 125.805 495.134 126.39 495.42 126.87L495.649 127.253L494.513 128.145L493.963 128.155C493.631 128.064 493.246 128.119 492.753 128.225L491.59 127.907C487.372 126.431 483.755 127.125 483.646 127.175L483.542 127.468L483.101 127.427C482.717 127.482 481.507 127.552 480.916 128.192L480.865 128.339C480.865 128.339 480.497 129.12 480.846 129.938C480.846 129.938 481.718 129.535 482.377 129.475L482.687 128.597L483.535 129.551C485.84 129.22 487.886 129.62 489.215 129.984L490.436 130.398L489.352 131.144C487.998 132.137 486.323 133.524 484.545 135.203L484.275 135.45L484 135.455C483.891 135.505 483.725 135.459 483.673 135.606L482.864 136.347C482.864 136.347 482.756 136.397 482.813 136.493L482.497 137.129L482.331 137.083L481.539 138.551L480.621 139.342C479.967 139.645 477.57 140.753 476.606 141.933C475.803 142.917 476.632 145.47 476.992 146.772L477.221 147.155L476.619 147.312C475.908 147.518 474.761 147.926 474.652 147.976C474.268 148.032 474.056 148.374 473.895 148.571C473.786 148.622 473.734 148.768 473.683 148.914C473.688 149.156 473.694 149.398 473.917 149.54C474.421 149.919 475.092 150.343 476.021 150.036C477.225 149.724 478.589 149.215 478.916 149.064L479.382 147.747C479.313 147.167 479.057 145.572 479.568 143.867L479.672 143.575L484.861 141.787L483.208 144.142C482.726 144.732 482.576 145.413 482.427 146.094L483.782 149.995L482.037 153.127C482.037 153.127 482.037 153.127 482.094 153.223C482.1 153.465 482.22 153.899 482.667 154.182C482.667 154.182 482.724 154.278 482.833 154.227C483.056 154.369 483.389 154.46 483.721 154.551C484.111 154.738 484.386 154.733 484.661 154.728Z" fill="white"/>
<path d="M498.114 124.399C499.152 124.041 500.304 123.875 501.318 124.875C503.569 127.015 501.189 128.851 501.189 128.851L499.405 130.287L497.57 131.87C496.779 131.012 495.363 131.667 495.42 131.763L495.311 131.813C492.052 128.915 492.338 129.395 495.47 126.723" stroke="#5012FF" stroke-width="1.71644" stroke-miterlimit="10"/>
<path d="M495.375 124.932L496.075 124.241C496.505 123.797 497.33 123.783 497.892 124.257L499.69 125.873C500.195 126.252 500.211 126.978 499.672 127.472L498.972 128.163C498.542 128.607 497.716 128.621 497.155 128.147L495.356 126.531C494.961 126.102 494.836 125.426 495.375 124.932Z" fill="#4CFFD4" stroke="#5012FF" stroke-width="1.71644" stroke-miterlimit="10"/>
<path d="M484.86 141.787L479.888 143.474L479.779 143.525C479.159 145.28 479.421 147.117 479.541 147.551C478.165 147.575 477.323 146.863 477.266 146.767C477.312 146.379 475.624 142.387 476.588 141.207C477.661 139.977 480.603 138.616 480.712 138.566L481.573 137.678L482.629 135.722" stroke="#5012FF" stroke-width="1.71644" stroke-miterlimit="10"/>
<path d="M484.62 140.919C484.62 140.919 485.067 141.202 484.912 141.641C484.912 141.641 484.86 141.787 484.808 141.934C484.596 142.276 484.062 143.013 483.425 144.042C482.943 144.632 482.685 145.363 482.701 146.09L484.108 149.844C484.223 150.036 485.288 150.889 486.768 150.572L486.897 146.597C486.897 146.597 487.006 146.546 486.949 146.45C487.379 146.007 488.716 144.287 490.311 141.836" stroke="#5012FF" stroke-width="1.71644" stroke-miterlimit="10"/>
<path d="M477.273 147.01L474.704 147.83C474.486 147.931 474.217 148.178 473.947 148.425C473.838 148.476 473.786 148.622 473.735 148.768C473.74 149.01 473.746 149.253 473.969 149.394C474.307 149.727 475.144 150.197 476.073 149.89C477.277 149.578 478.75 149.019 478.968 148.918L479.433 147.601" stroke="#5012FF" stroke-width="1.71644" stroke-miterlimit="10"/>
<path d="M484.056 149.991L482.472 152.926L482.42 153.072C482.42 153.072 482.477 153.168 482.368 153.219C482.374 153.461 482.436 153.799 482.941 154.178C482.941 154.178 482.998 154.274 483.107 154.223C483.33 154.365 483.663 154.456 483.995 154.547C484.327 154.638 484.603 154.633 484.878 154.628C484.878 154.628 484.987 154.577 485.044 154.673C485.319 154.669 485.428 154.618 485.646 154.517C486.082 154.316 486.128 153.927 486.128 153.927L486.83 150.911L486.939 150.86" stroke="#5012FF" stroke-width="1.71644" stroke-miterlimit="10"/>
<path d="M490.209 142.129C490.478 141.882 490.748 141.635 491.018 141.388C491.178 141.191 491.173 140.949 490.949 140.807C488.325 139.206 486.246 137.353 484.322 135.062C484.207 134.87 483.766 134.829 483.605 135.026C483.336 135.273 483.066 135.52 482.797 135.767L482.527 136.014" stroke="#5012FF" stroke-width="1.71644" stroke-miterlimit="10"/>
<path d="M499.585 135.712C499.585 135.712 500.125 135.218 500.176 135.071C500.28 134.779 500.16 134.345 499.988 134.057L498.963 132.573L498.712 131.221" stroke="#5012FF" stroke-width="1.71644" stroke-miterlimit="10"/>
<path d="M491.24 129.415C491.24 129.415 489.055 130.181 484.316 134.819" stroke="#5012FF" stroke-width="1.71644" stroke-miterlimit="10"/>
<path d="M499.296 134.99C499.296 134.99 501.248 138.493 500.116 141.953C500.116 141.953 499.759 143.219 499.174 144.102C499.174 144.102 497.856 144.222 496.395 142.94C496.395 142.94 497.789 141.316 497.521 139.237C497.254 137.158 496.022 136.259 496.022 136.259" stroke="#5012FF" stroke-width="1.71644" stroke-miterlimit="10"/>
<path d="M491.872 140.257C491.872 140.257 493.327 141.298 494.945 139.815C496.511 138.479 497.319 137.738 497.319 137.738" stroke="#5012FF" stroke-width="1.71644" stroke-miterlimit="10"/>
<path d="M490.926 136.015C491.87 136.354 492.947 135.954 493.332 135.123C493.716 134.292 493.263 133.344 492.318 133.006C491.374 132.667 490.297 133.067 489.912 133.898C489.528 134.729 489.982 135.677 490.926 136.015Z" fill="#4CFFD4" stroke="#5012FF" stroke-width="1.71644" stroke-miterlimit="10"/>
<path d="M498.301 144.505C498.301 144.505 497.898 146.159 497.193 146.608C497.193 146.608 495.926 146.582 494.912 145.582C494.912 145.582 496.519 143.616 496.513 143.374" stroke="#5012FF" stroke-width="1.71644" stroke-miterlimit="10"/>
<path d="M490.367 129.818C490.367 129.818 487.141 128.373 483.466 128.971C483.466 128.971 482.676 128.113 483.468 126.645C483.468 126.645 487.47 125.896 492.077 127.559L493.298 127.973" stroke="#5012FF" stroke-width="1.71644" stroke-miterlimit="10"/>
<path d="M483.089 126.943C483.089 126.943 481.547 126.921 480.738 127.663C480.738 127.663 480.262 128.495 480.777 129.358C480.777 129.358 482.302 128.652 483.133 128.88" stroke="#5012FF" stroke-width="1.71644" stroke-miterlimit="10"/>
<path d="M153.009 121.897L153.151 121.783C154.417 121 157.593 121.316 158.542 121.357L158.813 121.369L158.891 121.193L161.964 120.906L162.113 120.673L162.248 120.679C164.786 120.25 167.962 120.566 167.962 120.566C173.577 120.987 178.196 123.458 181.072 125.495L181.201 125.62L181.343 125.507C181.983 124.996 182.545 124.661 182.887 124.616C183.778 124.475 184.721 124.635 185.579 125.091L189.062 127.214L189.197 127.22C190.295 127.028 191.579 127.143 192.973 127.741L193.173 127.809L194.524 126.731L193.95 126.049C193.705 125.56 193.81 124.907 194.307 124.509L196.091 122.972C196.518 122.631 197.066 122.535 197.602 122.678L197.738 122.683L197.88 122.57C199.196 123.344 199.837 121.578 203.097 121.598C204.93 121.617 205.931 121.959 207.349 123.336C209.089 125.025 209.519 127.077 209.355 128.804C209.165 131.008 210.147 130.453 209.649 130.85L209.578 130.907L209.572 131.026C209.603 131.685 209.363 132.333 208.795 132.786L206.307 134.772C205.525 135.397 204.433 135.469 203.504 135.071L203.304 135.002L203.162 135.116C202.451 135.683 201.947 136.2 201.378 136.654L200.525 137.334L200.583 137.516C201.001 138.551 200.715 140.034 199.907 141.135C199.836 141.192 199.765 141.248 199.765 141.248L199.616 141.481L199.745 141.606C206.545 148.835 207.077 156.393 207.128 156.694L207.121 156.813L207.05 156.87C206.979 156.927 206.979 156.927 206.908 156.984L206.695 157.154L206.753 157.336C206.978 158.183 207.401 160.354 206.294 161.921C206.294 161.921 204.453 163.277 202.091 162.996L201.819 162.984L201.826 162.865L199.846 161.823L200.17 160.88L201.535 158.307L201.335 158.239L201.342 158.12C200.647 152.289 196.805 148.058 195.645 146.932L195.451 146.744L195.238 146.914C194.3 147.89 193.092 148.855 191.819 149.757C190.404 150.773 189.293 151.203 188.551 151.111C188.415 151.106 188.215 151.037 188.151 150.975L187.951 150.906L187.808 151.02C186.173 152.325 184.261 153.738 182.277 155.207L182.135 155.321L182.192 155.502C182.186 155.622 182.25 155.684 182.244 155.804C182.295 156.105 182.139 156.457 181.855 156.684L179.936 158.216C179.651 158.443 179.238 158.545 178.902 158.47L178.767 158.465L177.299 160.435C176.968 161.497 175.443 166.933 173.135 169.345C171.19 171.354 164.676 171.194 161.216 171.105C160.132 171.058 159.59 171.035 159.383 171.086L159.176 171.137L159.099 171.313C158.89 172.62 158.434 175.949 158.427 176.068C158.387 176.784 157.883 177.3 157.45 177.76L157.308 177.874L156.093 178.958C155.595 179.355 154.975 179.507 154.375 179.302C153.775 179.097 152.981 178.704 152.137 178.01L152.072 177.947C151.17 177.071 150.745 176.156 150.805 175.082C150.828 172.213 151.716 169.68 151.878 169.208L151.949 169.152L153.151 168.306L153.28 168.432L156.148 166.94L156.155 166.821L156.426 166.833C157.652 166.766 162.088 166.418 165.803 164.366L165.874 164.309L167.359 154.685L166.79 155.139C165.937 155.82 164.793 156.847 163.151 158.272C161.865 159.412 160.321 160.303 158.597 160.767L148.85 160.109L148.779 160.165L142.407 164.795L140.528 165.611C140.321 165.662 138.881 165.899 137.334 164.397C137.012 164.084 136.76 163.715 136.445 163.283C134.428 160.445 136.257 159.328 136.392 159.334L137.872 158.381C138.156 158.154 138.434 158.046 138.434 158.046L145.384 155.235L145.397 154.997L154.961 152.837L155.174 152.666C155.536 152.263 158.93 148.642 164.333 144.33L164.404 144.273L164.411 144.154C164.43 143.796 164.515 143.5 164.799 143.273L166.718 141.741C167.003 141.514 167.416 141.412 167.752 141.487C167.887 141.492 167.887 141.492 167.952 141.555L168.152 141.623L169.302 140.477L169.245 140.295C168.684 139.374 167.803 136.884 170.789 134.501L175.979 130.359L175.785 130.171C174.883 129.295 173.631 128.584 172.373 127.991C167.993 126.129 163.382 127.186 163.175 127.237L162.969 127.288L162.846 127.044L160.064 126.984L156.698 128.872L154.473 127.341L154.402 127.398L154.344 127.216C151.999 124.185 153.002 122.016 153.009 121.897Z" fill="white"/>
<path d="M193.024 128.042C185.67 124.676 184.017 133.635 188.395 138.009C189.8 139.624 192.907 142.389 195.818 142.574C199.678 142.799 201.317 138.983 200.267 137.084" stroke="#5012FF" stroke-width="1.71644" stroke-miterlimit="10"/>
<path d="M203.189 134.638C196.351 140.324 197.473 140.911 190.704 134.341L190.775 134.284C190.84 134.347 192.619 131.672 190.665 130.153L194.652 126.856" stroke="#5012FF" stroke-width="1.71644" stroke-miterlimit="10"/>
<path d="M196.149 123.153C196.646 122.756 197.531 122.734 197.982 123.172L198.691 123.861C198.691 123.861 198.756 123.923 198.814 124.105C198.8 124.344 198.638 124.815 197.565 125.786C196.641 126.523 195.944 126.852 195.53 126.954C195.117 127.056 194.781 126.982 194.595 126.674L194.021 125.992C193.841 125.566 193.938 125.032 194.365 124.691L196.149 123.153Z" stroke="#5012FF" stroke-width="1.71644" stroke-miterlimit="10"/>
<path d="M197.789 122.985C198.862 122.014 204.505 117.054 209.54 121.816C215.026 127.015 209.243 130.833 209.243 130.833" stroke="#5012FF" stroke-width="1.71644" stroke-miterlimit="10"/>
<path d="M198.433 123.61C198.433 123.61 203.152 119.388 208.071 123.785C210.334 125.856 210.001 128.174 208.882 129.98" stroke="#5012FF" stroke-width="1.71644" stroke-miterlimit="10"/>
<path d="M196.507 133.813C197.276 133.428 198.534 134.02 198.972 134.696C199.223 135.066 199.332 135.549 198.977 135.833C198.763 136.003 198.414 136.168 198.079 136.093C197.743 136.019 197.479 135.888 197.285 135.7C196.892 135.444 196.705 135.137 196.454 134.768C196.325 134.642 196.267 134.461 196.274 134.341C196.28 134.222 196.365 133.927 196.507 133.813Z" stroke="#5012FF" stroke-width="1.71644" stroke-miterlimit="10"/>
<path d="M198.622 127.565L201.394 125.352C202.176 124.728 203.396 124.781 204.105 125.469L208.811 130.037C209.52 130.725 209.461 131.799 208.679 132.423L205.906 134.636C205.124 135.26 203.904 135.207 203.195 134.519L198.489 129.952C197.78 129.263 197.84 128.189 198.622 127.565Z" fill="#4CFFD4" stroke="#5012FF" stroke-width="1.71644" stroke-miterlimit="10"/>
<path d="M199.14 130.458L201.913 128.245C201.913 128.245 202.617 127.797 203.455 128.61" stroke="#5012FF" stroke-width="1.71644" stroke-miterlimit="10"/>
<path d="M186.857 128.973L190.664 130.153" stroke="#5012FF" stroke-width="1.71644" stroke-miterlimit="10"/>
<path d="M188.859 129.657C188.859 129.657 190.318 133.965 187.023 135.797" stroke="#5012FF" stroke-width="1.71644" stroke-miterlimit="10"/>
<path d="M178.386 157.97L176.776 160.054C176.705 160.11 175.069 166.319 172.613 168.964C170.163 171.49 159.893 170.45 159.067 170.654C158.738 170.46 156.557 169.35 155.954 166.753C157.045 166.68 161.681 166.401 165.538 164.235L165.609 164.178L165.68 164.121L165.693 163.883L167.198 153.901" stroke="#5012FF" stroke-width="1.71644" stroke-miterlimit="10"/>
<path d="M169.367 153.995C169.303 153.932 168.38 153.414 167.483 153.674C167.412 153.731 167.134 153.839 166.778 154.123C166.778 154.123 166.778 154.123 166.707 154.179C165.925 154.803 164.497 156.058 162.429 157.822C161.142 158.963 159.598 159.854 157.874 160.318L148.198 159.603C147.734 159.403 145.16 158.037 145.061 154.923L154.554 152.82C154.554 152.82 154.767 152.649 154.773 152.53C155.64 151.611 159.098 148.052 164.146 144.023" stroke="#5012FF" stroke-width="1.71644" stroke-miterlimit="10"/>
<path d="M158.732 170.58L157.963 175.869C157.93 176.465 157.426 176.982 156.992 177.442C156.844 177.675 156.566 177.782 156.217 177.947C155.662 178.162 154.984 178.133 154.526 177.814C153.539 177.234 151.972 176.09 152.142 174.243C152.346 171.8 152.854 168.772 152.945 168.358L155.884 166.81" stroke="#5012FF" stroke-width="1.71644" stroke-miterlimit="10"/>
<path d="M153.093 168.125L151.749 169.084C151.749 169.084 150.719 171.73 150.747 174.901C150.752 176.037 151.377 177.021 152.086 177.709C152.866 178.341 153.659 178.733 154.259 178.939C154.724 179.138 155.273 179.042 155.699 178.702L157.128 177.447" stroke="#5012FF" stroke-width="1.71644" stroke-miterlimit="10"/>
<path d="M141.892 164.294L140.845 164.788L140.076 165.173C140.076 165.173 138.081 165.625 136.193 162.913C134.37 160.263 135.985 159.316 136.057 159.26L136.761 158.811L137.607 158.25" stroke="#5012FF" stroke-width="1.71644" stroke-miterlimit="10"/>
<path d="M165.746 164.184L167.411 164.794" stroke="#5012FF" stroke-width="1.71644" stroke-miterlimit="10"/>
<path d="M154.761 152.769L156.374 153.077" stroke="#5012FF" stroke-width="1.71644" stroke-miterlimit="10"/>
<path d="M160.183 157.905C160.19 157.786 160.076 156.166 158.173 154.948" stroke="#5012FF" stroke-width="1.71644" stroke-miterlimit="10"/>
<path d="M171.678 168.685C171.614 168.622 171.293 167.053 169.177 166.006" stroke="#5012FF" stroke-width="1.71644" stroke-miterlimit="10"/>
<path d="M136.868 160.55L139.07 160.047C139.554 159.888 140.019 160.088 140.27 160.457L140.457 160.764C140.708 161.134 140.611 161.668 140.32 162.014L138.678 163.439" stroke="#5012FF" stroke-width="1.71644" stroke-miterlimit="10"/>
<path d="M154.934 177.831C155.16 177.422 155.387 177.014 155.478 176.599C155.484 176.48 155.555 176.423 155.562 176.304L155.569 176.184L155.575 176.065C155.575 176.065 155.646 176.008 155.582 175.946C155.582 175.946 155.653 175.889 155.588 175.826C155.595 175.707 155.595 175.707 155.602 175.588C155.608 175.468 155.608 175.468 155.544 175.406C155.544 175.406 155.544 175.406 155.55 175.286C155.486 175.224 155.544 175.406 155.55 175.286C155.557 175.167 155.493 175.105 155.499 174.985C155.499 174.985 155.435 174.923 155.499 174.985C155.564 175.048 155.499 174.985 155.499 174.985L155.435 174.923L155.37 174.86C155.306 174.798 155.435 174.923 155.435 174.923C155.435 174.923 155.435 174.923 155.37 174.86C155.306 174.798 155.306 174.798 155.241 174.735C155.177 174.672 155.37 174.86 155.241 174.735L155.177 174.672L155.112 174.61C155.112 174.61 155.112 174.61 155.048 174.547C154.983 174.485 155.112 174.61 155.048 174.547L154.912 174.541C154.912 174.541 155.048 174.547 154.912 174.541C154.912 174.541 155.048 174.547 154.912 174.541L154.841 174.598C154.77 174.655 154.912 174.541 154.841 174.598L154.77 174.655C154.699 174.712 154.77 174.655 154.77 174.655L154.699 174.712C154.628 174.768 154.628 174.768 154.557 174.825L154.486 174.882C154.415 174.939 154.557 174.825 154.486 174.882C154.344 174.995 154.337 175.115 154.195 175.228C153.826 175.751 153.315 176.386 152.566 176.414C152.295 176.402 152.102 176.215 152.115 175.976C152.128 175.737 152.342 175.567 152.613 175.579C152.542 175.636 152.477 175.573 152.613 175.579C152.684 175.522 152.542 175.636 152.613 175.579L152.684 175.522C152.755 175.465 152.613 175.579 152.684 175.522C152.755 175.465 152.755 175.465 152.826 175.409L152.897 175.352C152.968 175.295 152.826 175.409 152.897 175.352C153.046 175.119 153.33 174.892 153.479 174.659C153.912 174.199 154.423 173.564 155.159 173.775C155.494 173.849 155.823 174.042 156.017 174.23C156.339 174.543 156.519 174.969 156.493 175.447C156.511 176.344 156.122 177.225 155.74 177.986C155.663 178.162 155.449 178.332 155.114 178.258C154.978 178.252 154.785 178.064 154.934 177.831Z" fill="#5E26FB"/>
<path d="M145.05 155.161L144.908 155.275L138.093 158.091C138.093 158.091 137.26 158.414 136.872 159.295C136.716 159.647 136.696 160.005 136.747 160.306C136.741 160.425 136.805 160.488 136.799 160.607C136.908 161.09 137.152 161.579 137.526 162.193C137.9 162.807 138.28 163.302 138.738 163.621C138.802 163.683 138.931 163.808 138.995 163.871C140.04 164.633 140.989 164.674 141.473 164.516C141.68 164.465 141.887 164.414 141.887 164.414L142.1 164.244L148.258 159.784" stroke="#5012FF" stroke-width="1.71644" stroke-miterlimit="10"/>
<path d="M164.268 144.267C168.107 149.754 172.491 154.009 178.321 157.907C178.715 158.164 179.193 158.124 179.548 157.841C180.259 157.273 180.828 156.819 181.468 156.309C181.894 155.968 181.863 155.309 181.405 154.99C175.839 151.223 171.584 147.093 167.802 141.788C167.486 141.356 166.744 141.264 166.318 141.605C165.678 142.115 165.109 142.569 164.398 143.137C164.107 143.483 164.016 143.898 164.268 144.267Z" stroke="#5012FF" stroke-width="1.71644" stroke-miterlimit="10"/>
<path d="M179.909 153.79L176.697 156.582" stroke="#5012FF" stroke-width="1.71644" stroke-miterlimit="10"/>
<path d="M176.446 151.309L173.034 154.032" stroke="#5012FF" stroke-width="1.71644" stroke-miterlimit="10"/>
<path d="M173.158 148.118L169.746 150.841" stroke="#5012FF" stroke-width="1.71644" stroke-miterlimit="10"/>
<path d="M169.853 144.029L166.318 146.508" stroke="#5012FF" stroke-width="1.71644" stroke-miterlimit="10"/>
<path d="M188.912 127.447L185.294 125.318C184.571 124.868 183.7 124.651 182.873 124.855C182.325 124.951 181.116 125.916 181.116 125.916" stroke="#5012FF" stroke-width="1.71644" stroke-miterlimit="10"/>
<path d="M195.611 142.625C195.611 142.625 193.617 146.725 181.734 155.184" stroke="#5012FF" stroke-width="1.71644" stroke-miterlimit="10"/>
<path d="M192.41 146.434C192.41 146.434 185.733 143.097 179.76 135.664" stroke="#5012FF" stroke-width="1.71644" stroke-miterlimit="10"/>
<path d="M190.562 147.909C190.562 147.909 183.369 144.072 177.46 136.702" stroke="#5012FF" stroke-width="1.71644" stroke-miterlimit="10"/>
<path d="M186.856 128.973L185.463 128.375" stroke="#5012FF" stroke-width="1.71644" stroke-miterlimit="10"/>
<path d="M185.226 127.767C185.355 127.892 185.413 128.074 185.4 128.312C185.295 128.966 184.867 130.562 183.69 132.185C181.62 135.206 177.575 138.321 172.349 135.764L174.055 134.402C174.055 134.402 177.843 135.941 180.901 132.245C183.009 129.764 183.224 128.338 183.122 127.736C183.07 127.435 183.29 127.145 183.633 127.1C184.039 127.118 184.646 127.203 185.226 127.767Z" stroke="#5012FF" stroke-width="1.71644" stroke-miterlimit="10"/>
<path d="M177.912 132.236L174.997 134.563" stroke="#5012FF" stroke-width="1.71644" stroke-miterlimit="10"/>
<path d="M173.207 136.22L167.68 141.544" stroke="#5012FF" stroke-width="1.71644" stroke-miterlimit="10"/>
<path d="M183.128 127.617C183.128 127.617 176.61 121.416 167.812 120.799C167.812 120.799 164.572 120.421 162.17 120.855C162.17 120.855 160.96 123.076 162.523 126.731C162.523 126.731 167.347 125.503 171.921 127.554C176.566 129.547 177.485 132.577 177.485 132.577" stroke="#5012FF" stroke-width="1.71644" stroke-miterlimit="10"/>
<path d="M169.18 140.233C169.18 140.233 166.898 137.264 170.453 134.427C174.007 131.59 175.785 130.171 175.785 130.171" stroke="#5012FF" stroke-width="1.71644" stroke-miterlimit="10"/>
<path d="M197.936 142.366C197.936 142.366 197.144 145.621 191.49 149.564C188.582 151.771 187.906 150.486 187.906 150.486" stroke="#5012FF" stroke-width="1.71644" stroke-miterlimit="10"/>
<path d="M182.934 145.787C181.439 144.336 181.563 142.092 183.212 140.776C184.861 139.46 187.41 139.57 188.906 141.021C190.401 142.472 190.277 144.716 188.628 146.032C186.979 147.348 184.43 147.239 182.934 145.787Z" fill="#4CFFD4" stroke="#5012FF" stroke-width="1.71644" stroke-miterlimit="10"/>
<path d="M162.265 126.481L159.618 126.427C159.618 126.427 158.279 123.619 158.954 121.256L161.821 121.02" stroke="#5012FF" stroke-width="1.71644" stroke-miterlimit="10"/>
<path d="M158.872 121.55C158.872 121.55 154.689 121.012 153.216 121.846C153.216 121.846 152.284 123.958 153.829 126.716C153.829 126.716 158.924 125.499 159.253 125.693" stroke="#5012FF" stroke-width="1.71644" stroke-miterlimit="10"/>
<path d="M153.821 126.835L155.982 128.303L159.348 126.415" stroke="#5012FF" stroke-width="1.71644" stroke-miterlimit="10"/>
<path d="M195.471 146.386C195.471 146.386 200.649 151.034 201.549 158.069C201.549 158.069 203.943 159.009 206.928 156.626C206.928 156.626 206.345 148.767 199.345 141.47" stroke="#5012FF" stroke-width="1.71644" stroke-miterlimit="10"/>
<path d="M206.66 154.103C206.66 154.103 204.25 155.913 201.158 155.301" stroke="#5012FF" stroke-width="1.71644" stroke-miterlimit="10"/>
<path d="M206.43 157.023C206.43 157.023 207.427 159.876 206.101 161.733C206.101 161.733 204.33 163.032 202.103 162.757C202.103 162.757 202.824 159.559 201.877 158.262" stroke="#5012FF" stroke-width="1.71644" stroke-miterlimit="10"/>
<path d="M202.038 162.694L200.123 161.715L200.362 161.068L201.663 158.433" stroke="#5012FF" stroke-width="1.71644" stroke-miterlimit="10"/>
<path d="M183.225 320.037C181.574 318.932 184.039 313.486 188.874 307.82C193.606 302.117 198.836 298.482 200.528 299.496L284.572 354.312L267.31 374.762L183.225 320.037Z" fill="#5D25F6" stroke="#5012FF" stroke-width="1.71644" stroke-miterlimit="10"/>
<path d="M279.001 366.567C283.78 360.886 286.296 355.396 284.621 354.305C282.946 353.213 277.714 356.933 272.935 362.614C268.155 368.294 265.639 373.784 267.314 374.876C268.989 375.968 274.222 372.248 279.001 366.567Z" fill="#5D25F6" stroke="#5012FF" stroke-width="1.71644" stroke-miterlimit="10"/>
<path d="M148.512 357.926C146.861 356.821 149.326 351.375 154.161 345.709C158.893 340.006 164.123 336.371 165.815 337.385L249.859 392.201L232.597 412.651L148.512 357.926Z" fill="#5D25F6" stroke="#5012FF" stroke-width="1.71644" stroke-miterlimit="10"/>
<path d="M244.174 404.38C248.954 398.699 251.47 393.209 249.795 392.117C248.12 391.025 242.888 394.745 238.108 400.426C233.329 406.107 230.813 411.597 232.488 412.689C234.163 413.78 239.395 410.06 244.174 404.38Z" fill="#5D25F6" stroke="#5012FF" stroke-width="1.71644" stroke-miterlimit="10"/>
<path d="M198.562 358.753L189.421 352.814C185.707 350.46 185.02 345.907 187.694 342.638L193.414 335.809C196.088 332.54 201.261 331.935 204.975 334.289L214.116 340.228C217.83 342.582 218.518 347.136 215.843 350.405L210.124 357.233C207.387 360.375 202.173 361.071 198.562 358.753Z" fill="#5BF1CD" stroke="#5012FF" stroke-width="1.71644" stroke-miterlimit="10"/>
<path d="M192.289 354.661L183.148 348.721C179.434 346.367 178.746 341.814 181.421 338.545L187.14 331.716C189.815 328.447 194.988 327.842 198.702 330.196L207.843 336.136C211.557 338.49 212.244 343.043 209.57 346.312L203.85 353.141C201.114 356.283 195.9 356.979 192.289 354.661Z" fill="#5BF1CD" stroke="#5012FF" stroke-width="1.71644" stroke-miterlimit="10"/>
<path d="M210.927 343.843L217.2 347.936" stroke="#5012FF" stroke-width="1.71644" stroke-miterlimit="10"/>
<path d="M202.677 354.412L208.578 358.27" stroke="#5012FF" stroke-width="1.71644" stroke-miterlimit="10"/>
<path d="M229.39 378.818L220.249 372.879C216.535 370.524 215.848 365.971 218.522 362.702L224.242 355.874C226.916 352.605 232.089 352 235.803 354.354L244.944 360.293C248.658 362.647 249.346 367.2 246.671 370.469L240.952 377.298C238.277 380.567 233.104 381.172 229.39 378.818Z" fill="#FFE375" stroke="#5012FF" stroke-width="1.71644" stroke-miterlimit="10"/>
<path d="M223.117 374.726L213.976 368.786C210.262 366.432 209.574 361.879 212.249 358.61L217.968 351.781C220.643 348.512 225.816 347.907 229.53 350.261L238.671 356.201C242.385 358.555 243.072 363.108 240.398 366.377L234.678 373.206C232.004 376.475 226.831 377.08 223.117 374.726Z" fill="#FFE375" stroke="#5012FF" stroke-width="1.71644" stroke-miterlimit="10"/>
<path d="M241.713 363.998L247.986 368.091" stroke="#5012FF" stroke-width="1.71644" stroke-miterlimit="10"/>
<path d="M233.608 374.513L239.407 378.334" stroke="#5012FF" stroke-width="1.71644" stroke-miterlimit="10"/>
<path d="M254.427 427.247L247.618 422.756C238.848 417.052 236.997 406.095 243.477 398.377L271.603 365.013C278.084 357.295 290.531 355.665 299.301 361.369L306.11 365.86C314.88 371.564 316.732 382.521 310.251 390.239L282.126 423.603C275.645 431.321 263.197 432.951 254.427 427.247Z" fill="#FFE375" stroke="#5012FF" stroke-width="1.71644" stroke-miterlimit="10"/>
<path d="M243.635 420.203L236.826 415.712C228.056 410.007 226.205 399.051 232.685 391.332L260.811 357.969C267.292 350.25 279.739 348.62 288.509 354.325L295.318 358.816C304.088 364.52 305.94 375.476 299.459 383.195L271.334 416.558C264.853 424.277 252.405 425.907 243.635 420.203Z" fill="#C9B8FF" stroke="#5012FF" stroke-width="1.71644" stroke-miterlimit="10"/>
<path d="M299.95 381.054L310.742 388.098" stroke="#5012FF" stroke-width="1.71644" stroke-miterlimit="10"/>
<path d="M272.136 415.578L282.185 422.151" stroke="#5012FF" stroke-width="1.71644" stroke-miterlimit="10"/>
<path d="M249 245.753C247.349 244.648 249.814 239.202 254.649 233.535C259.381 227.833 264.611 224.198 266.303 225.212L350.347 280.028L333.085 300.478L249 245.753Z" fill="#5D25F6" stroke="#5012FF" stroke-width="1.71644" stroke-miterlimit="10"/>
<path d="M344.687 292.207C349.466 286.526 351.983 281.036 350.307 279.944C348.632 278.853 343.4 282.573 338.621 288.253C333.842 293.934 331.326 299.424 333.001 300.516C334.676 301.608 339.908 297.888 344.687 292.207Z" fill="#5D25F6" stroke="#5012FF" stroke-width="1.71644" stroke-miterlimit="10"/>
<path d="M214.223 283.515C212.572 282.411 215.037 276.965 219.872 271.298C224.707 265.632 229.834 261.96 231.526 262.974L315.57 317.79L298.267 338.331L214.223 283.515Z" fill="#5D25F6" stroke="#5012FF" stroke-width="1.71644" stroke-miterlimit="10"/>
<path d="M309.858 330.02C314.637 324.339 317.153 318.849 315.478 317.757C313.803 316.666 308.571 320.386 303.792 326.066C299.013 331.747 296.497 337.237 298.172 338.329C299.847 339.421 305.079 335.701 309.858 330.02Z" fill="#5D25F6" stroke="#5012FF" stroke-width="1.71644" stroke-miterlimit="10"/>
<path d="M264.271 284.343L255.13 278.403C251.416 276.049 250.729 271.496 253.403 268.227L259.123 261.398C261.797 258.129 266.97 257.524 270.684 259.878L279.825 265.818C283.539 268.172 284.227 272.725 281.552 275.994L275.833 282.823C273.158 286.092 267.985 286.697 264.271 284.343Z" fill="#5BF1CD" stroke="#5012FF" stroke-width="1.71644" stroke-miterlimit="10"/>
<path d="M258 280.25L248.859 274.311C245.144 271.957 244.457 267.404 247.132 264.135L252.851 257.306C255.526 254.037 260.699 253.432 264.413 255.786L273.554 261.725C277.268 264.079 277.955 268.632 275.281 271.902L269.561 278.73C266.887 281.999 261.714 282.604 258 280.25Z" fill="#5BF1CD" stroke="#5012FF" stroke-width="1.71644" stroke-miterlimit="10"/>
<path d="M276.596 269.523L282.869 273.616" stroke="#5012FF" stroke-width="1.71644" stroke-miterlimit="10"/>
<path d="M268.491 280.038L274.29 283.859" stroke="#5012FF" stroke-width="1.71644" stroke-miterlimit="10"/>
<path d="M295.206 304.444L286.065 298.504C282.351 296.15 281.663 291.597 284.338 288.328L290.057 281.499C292.732 278.23 297.905 277.625 301.619 279.979L310.76 285.919C314.474 288.273 315.161 292.826 312.487 296.095L306.767 302.924C303.99 306.156 298.776 306.852 295.206 304.444Z" fill="#FFE375" stroke="#5012FF" stroke-width="1.71644" stroke-miterlimit="10"/>
<path d="M288.932 300.351L279.791 294.411C276.077 292.057 275.39 287.504 278.064 284.235L283.784 277.406C286.458 274.137 291.631 273.532 295.345 275.886L304.486 281.826C308.2 284.18 308.888 288.733 306.213 292.002L300.494 298.831C297.716 302.064 292.502 302.76 288.932 300.351Z" fill="#FFE375" stroke="#5012FF" stroke-width="1.71644" stroke-miterlimit="10"/>
<path d="M307.528 289.624L313.801 293.716" stroke="#5012FF" stroke-width="1.71644" stroke-miterlimit="10"/>
<path d="M299.279 300.193L305.222 303.96" stroke="#5012FF" stroke-width="1.71644" stroke-miterlimit="10"/>
<path d="M320.204 352.963L313.394 348.472C304.625 342.768 302.773 331.812 309.254 324.093L337.379 290.73C343.86 283.011 356.308 281.381 365.077 287.085L371.887 291.576C380.656 297.281 382.508 308.237 376.027 315.956L347.902 349.319C341.318 357.001 328.87 358.631 320.204 352.963Z" fill="#FFE375" stroke="#5012FF" stroke-width="1.71644" stroke-miterlimit="10"/>
<path d="M309.411 345.919L302.601 341.428C293.832 335.723 291.98 324.767 298.461 317.049L326.586 283.685C333.067 275.967 345.515 274.337 354.284 280.041L361.094 284.532C369.863 290.236 371.715 301.192 365.234 308.911L337.109 342.274C330.525 349.957 318.077 351.587 309.411 345.919Z" fill="#C9B8FF" stroke="#5012FF" stroke-width="1.71644" stroke-miterlimit="10"/>
<path d="M365.726 306.77L376.517 313.814" stroke="#5012FF" stroke-width="1.71644" stroke-miterlimit="10"/>
<path d="M337.953 341.202L348.002 347.776" stroke="#5012FF" stroke-width="1.71644" stroke-miterlimit="10"/>
<path d="M91.0591 392.182C92.8126 393.476 94.9087 394.374 96.9023 395.01C105.025 397.511 114.381 395.325 119.864 388.981L294.75 189.483L262.309 167.33L87.4223 366.829C80.4692 374.716 82.0976 386.062 91.0591 392.182Z" stroke="#5012FF" stroke-width="1.71644" stroke-miterlimit="10"/>
<path d="M166.584 324.565L140.604 307.027" stroke="#5012FF" stroke-width="1.71644" stroke-miterlimit="10"/>
<path d="M197.975 289.222L186.462 281.466L196.903 242.259" stroke="#5012FF" stroke-width="1.71644" stroke-miterlimit="10"/>
<path d="M153.62 315.861L117.122 359.773L88.9887 365.109" stroke="#5012FF" stroke-width="1.71644" stroke-miterlimit="10"/>
<path d="M116.252 383.615L116.253 383.615L289.004 185.54L294.515 189.287L116.739 390.635C114.62 388.732 114.43 385.699 116.252 383.615Z" fill="#6F3FF5" stroke="#5012FF" stroke-width="1.71644"/>
<path d="M152.151 297.658C153.813 298.75 159.068 295.198 164.01 289.654C168.952 284.11 171.567 278.715 169.945 277.533L87.5427 220.808L69.6455 240.898L152.151 297.658Z" fill="#5D25F6" stroke="#5012FF" stroke-width="1.71644" stroke-miterlimit="10"/>
<path d="M81.6377 232.959C86.5823 227.388 89.2591 221.957 87.6165 220.827C85.9739 219.698 80.6339 223.298 75.6893 228.868C70.7447 234.439 68.0679 239.87 69.7105 241C71.3531 242.129 76.6931 238.529 81.6377 232.959Z" fill="#5D25F6" stroke="#5012FF" stroke-width="1.71644" stroke-miterlimit="10"/>
<path d="M119.938 337.279C121.6 338.37 126.855 334.819 131.797 329.275C136.739 323.731 139.354 318.336 137.732 317.153L55.3298 260.428L37.4326 280.518L119.938 337.279Z" fill="#5D25F6" stroke="#5012FF" stroke-width="1.71644" stroke-miterlimit="10"/>
<path d="M49.4453 272.563C54.3899 266.992 57.0667 261.561 55.4241 260.431C53.7815 259.302 48.4416 262.902 43.4969 268.472C38.5523 274.043 35.8755 279.474 37.5181 280.604C39.1607 281.733 44.5007 278.133 49.4453 272.563Z" fill="#5D25F6" stroke="#5012FF" stroke-width="1.71644" stroke-miterlimit="10"/>
<path d="M105.693 295.01L114.633 301.204C118.188 303.674 123.457 303.062 126.264 299.933L132.182 293.255C134.989 290.126 134.294 285.488 130.739 283.017L121.8 276.823C118.245 274.353 112.975 274.965 110.168 278.094L104.25 284.772C101.547 287.936 102.138 292.539 105.693 295.01Z" fill="#5BF1CD" stroke="#5012FF" stroke-width="1.71644" stroke-miterlimit="10"/>
<path d="M111.824 299.198L120.763 305.392C124.318 307.862 129.588 307.25 132.395 304.121L138.313 297.443C141.12 294.314 140.425 289.676 136.87 287.205L127.93 281.012C124.375 278.541 119.106 279.153 116.299 282.282L110.381 288.96C107.637 292.215 108.269 296.727 111.824 299.198Z" fill="#5BF1CD" stroke="#5012FF" stroke-width="1.71644" stroke-miterlimit="10"/>
<path d="M118.713 280.59L112.478 276.367" stroke="#5012FF" stroke-width="1.71644" stroke-miterlimit="10"/>
<path d="M109.326 290.276L103.527 286.411" stroke="#5012FF" stroke-width="1.71644" stroke-miterlimit="10"/>
<path d="M75.4494 274.21L84.3886 280.404C87.9435 282.874 93.2134 282.262 96.0202 279.133L101.938 272.455C104.745 269.326 104.05 264.688 100.495 262.217L91.5556 256.024C88.0006 253.553 82.7308 254.165 79.9239 257.294L74.0061 263.972C71.1992 267.101 71.8945 271.739 75.4494 274.21Z" fill="#FFE07C" stroke="#5012FF" stroke-width="1.71644" stroke-miterlimit="10"/>
<path d="M81.5813 278.398L90.5204 284.592C94.0754 287.062 99.3452 286.45 102.152 283.321L108.07 276.643C110.877 273.514 110.182 268.876 106.627 266.405L97.6874 260.211C94.1325 257.741 88.8626 258.353 86.0558 261.482L80.1379 268.16C77.3311 271.289 78.0263 275.927 81.5813 278.398Z" fill="#FFE07C" stroke="#5012FF" stroke-width="1.71644" stroke-miterlimit="10"/>
<path d="M88.3634 259.755L82.2314 255.566" stroke="#5012FF" stroke-width="1.71644" stroke-miterlimit="10"/>
<path d="M78.9778 269.441L73.3232 265.52" stroke="#5012FF" stroke-width="1.71644" stroke-miterlimit="10"/>
<path d="M15.6691 265.862L22.4453 270.48C31.0507 276.35 43.5272 275.054 50.1969 267.479L79.2581 234.747C85.9279 227.173 84.4549 216.191 75.8495 210.321L69.0733 205.703C60.4679 199.833 47.9914 201.129 41.3217 208.703L12.2605 241.436C5.59074 249.01 7.16718 260.027 15.6691 265.862Z" fill="#5BF1CD" stroke="#5012FF" stroke-width="1.71644" stroke-miterlimit="10"/>
<path d="M26.2721 273.147L33.0482 277.764C41.6536 283.635 54.1302 282.339 60.7999 274.764L89.8611 242.032C96.5308 234.458 95.0579 223.476 86.4525 217.606L79.6763 212.988C71.0709 207.118 58.5944 208.414 51.9247 215.988L22.8634 248.721C16.1937 256.295 17.6667 267.276 26.2721 273.147Z" fill="#C9B8FF" stroke="#5012FF" stroke-width="1.71644" stroke-miterlimit="10"/>
<path d="M54.1581 214.969L43.5566 207.684" stroke="#5012FF" stroke-width="1.71644" stroke-miterlimit="10"/>
<path d="M23.7571 247.769L13.9033 240.949" stroke="#5012FF" stroke-width="1.71644" stroke-miterlimit="10"/>
<path d="M215.448 223.689C217.11 224.78 222.365 221.229 227.307 215.685C232.249 210.141 234.864 204.746 233.242 203.564L150.943 146.874L133.046 166.964L215.448 223.689Z" fill="#5D25F6" stroke="#5012FF" stroke-width="1.71644" stroke-miterlimit="10"/>
<path d="M144.938 158.948C149.883 153.377 152.56 147.946 150.917 146.816C149.275 145.687 143.935 149.287 138.99 154.857C134.046 160.428 131.369 165.859 133.011 166.989C134.654 168.118 139.994 164.518 144.938 158.948Z" fill="#5D25F6" stroke="#5012FF" stroke-width="1.71644" stroke-miterlimit="10"/>
<path d="M183.377 263.255C185.039 264.346 190.294 260.795 195.236 255.251C200.178 249.707 202.792 244.311 201.17 243.129L118.728 186.495L100.831 206.585L183.377 263.255Z" fill="#5D25F6" stroke="#5012FF" stroke-width="1.71644" stroke-miterlimit="10"/>
<path d="M112.831 198.613C117.776 193.042 120.452 187.611 118.81 186.481C117.167 185.352 111.827 188.952 106.883 194.522C101.938 200.093 99.2613 205.524 100.904 206.654C102.546 207.783 107.886 204.183 112.831 198.613Z" fill="#5D25F6" stroke="#5012FF" stroke-width="1.71644" stroke-miterlimit="10"/>
<path d="M169.137 220.985L178.076 227.179C181.631 229.65 186.9 229.038 189.707 225.909L195.625 219.231C198.432 216.102 197.737 211.463 194.182 208.993L185.243 202.799C181.688 200.328 176.418 200.94 173.611 204.069L167.693 210.747C164.846 213.967 165.478 218.479 169.137 220.985Z" fill="#5BF1CD" stroke="#5012FF" stroke-width="1.71644" stroke-miterlimit="10"/>
<path d="M175.229 225.264L184.168 231.458C187.723 233.929 192.993 233.317 195.8 230.188L201.717 223.51C204.524 220.381 203.829 215.742 200.274 213.272L191.335 207.078C187.78 204.607 182.51 205.219 179.703 208.348L173.785 215.026C170.979 218.155 171.674 222.794 175.229 225.264Z" fill="#5BF1CD" stroke="#5012FF" stroke-width="1.71644" stroke-miterlimit="10"/>
<path d="M182.053 206.53L175.921 202.342" stroke="#5012FF" stroke-width="1.71644" stroke-miterlimit="10"/>
<path d="M172.627 216.307L166.973 212.387" stroke="#5012FF" stroke-width="1.71644" stroke-miterlimit="10"/>
<path d="M138.785 200.15L147.724 206.344C151.279 208.815 156.549 208.203 159.356 205.074L165.274 198.396C168.081 195.267 167.385 190.628 163.831 188.158L154.891 181.964C151.336 179.493 146.067 180.105 143.26 183.234L137.342 189.912C134.639 193.077 135.23 197.68 138.785 200.15Z" fill="#FFE375" stroke="#5012FF" stroke-width="1.71644" stroke-miterlimit="10"/>
<path d="M144.917 204.338L153.856 210.532C157.411 213.002 162.681 212.391 165.488 209.262L171.406 202.583C174.213 199.454 173.517 194.816 169.962 192.346L161.023 186.152C157.468 183.681 152.198 184.293 149.392 187.422L143.474 194.1C140.73 197.356 141.322 201.959 144.917 204.338Z" fill="#FFE375" stroke="#5012FF" stroke-width="1.71644" stroke-miterlimit="10"/>
<path d="M151.802 185.73L145.566 181.507" stroke="#5012FF" stroke-width="1.71644" stroke-miterlimit="10"/>
<path d="M142.377 195.507L136.619 191.552" stroke="#5012FF" stroke-width="1.71644" stroke-miterlimit="10"/>
<path d="M79.109 191.837L85.8852 196.455C94.4906 202.325 106.967 201.029 113.637 193.455L142.698 160.722C149.368 153.148 147.895 142.167 139.289 136.296L132.513 131.679C123.908 125.808 111.391 127.196 104.762 134.679L75.7004 167.411C68.9271 174.95 70.5036 185.967 79.109 191.837Z" fill="#5BF1CD" stroke="#5012FF" stroke-width="1.71644" stroke-miterlimit="10"/>
<path d="M89.6693 199.214L96.4454 203.831C105.051 209.702 117.527 208.405 124.197 200.831L153.258 168.099C159.928 160.525 158.455 149.543 149.85 143.673L143.074 139.055C134.468 133.184 121.992 134.481 115.322 142.055L86.2606 174.788C79.5275 182.235 81.104 193.252 89.6693 199.214Z" fill="#C9B8FF" stroke="#5012FF" stroke-width="1.71644" stroke-miterlimit="10"/>
<path d="M117.493 140.91L106.892 133.625" stroke="#5012FF" stroke-width="1.71644" stroke-miterlimit="10"/>
<path d="M87.094 173.71L77.2402 166.889" stroke="#5012FF" stroke-width="1.71644" stroke-miterlimit="10"/>
<path d="M421.838 112.906L421.082 105.389L409.947 97.3811L375.491 102.014L382.131 106.908L408.665 104.191L421.838 112.906Z" fill="#FFE375"/>
<path d="M247.596 156.484L309.865 199.219C311.536 200.378 313.986 200.585 315.894 199.802L332.227 192.716L249.316 135.821L245.516 151.488C245.083 153.344 245.827 155.282 247.596 156.484Z" fill="#5D25F6" stroke="#5012FF" stroke-width="1.71644" stroke-miterlimit="10"/>
<path d="M198.644 100.29L182.573 56.4884L440.198 233.094L387.956 230.127L198.644 100.29Z" fill="#C9B8FF"/>
<path d="M181.489 55.155L198.204 100.636L387.811 230.602L441.964 233.648" stroke="#5012FF" stroke-width="1.71644"/>
<path d="M445.702 229.232L185.364 50.7437L181.527 55.08L441.865 233.568L445.702 229.232Z" fill="#5D25F6" stroke="#5012FF" stroke-width="1.71644" stroke-miterlimit="10"/>
<path d="M189.212 39.9063C183.881 42.2104 183.126 48.5523 187.795 51.7704L444.093 227.475C448.762 230.693 455.513 228.47 456.715 223.291L468.736 172.363C469.361 169.73 468.173 167.06 465.814 165.387L250.7 17.9582L250.504 17.8726C248.096 16.2854 244.911 16.0808 242.319 17.211L206.083 32.7322L189.212 39.9063Z" fill="#F0EBFF" stroke="#5012FF" stroke-width="1.71644" stroke-miterlimit="10"/>
<path d="M198.06 36.124L458.781 214.832L460.609 207.236L206.08 32.7324L198.06 36.124Z" fill="#4CFFD4" stroke="#5012FF" stroke-width="1.71644" stroke-miterlimit="10"/>
<path d="M419.331 158.871L282.853 65.3007L275.581 73.5169L412.06 167.087L419.331 158.871Z" fill="#FFE07C" stroke="#5012FF" stroke-width="1.71644" stroke-miterlimit="10"/>
<path d="M255.383 57.4444C252.653 60.5588 247.462 61.0943 243.924 58.6916L206.081 32.7328L206.13 32.6463L242.317 17.2116C244.909 16.0814 248.094 16.2859 250.502 17.8732L256.875 51.3156C257.124 52.3928 257.227 53.5137 256.889 54.5498C256.698 55.5424 256.114 56.5794 255.383 57.4444Z" fill="#E6FFF9" stroke="#5012FF" stroke-width="1.71644" stroke-miterlimit="10"/>
<path d="M368.239 83.2716C366.972 84.656 365.114 85.568 363.302 85.7468C361.343 85.9692 359.381 85.5448 357.808 84.429L296.474 42.4232L316.746 39.636L366.924 74.0907C370.119 76.2358 370.676 80.46 368.239 83.2716Z" fill="#C9B8FF" stroke="#5012FF" stroke-width="1.71644" stroke-miterlimit="10"/>
<path d="M420.913 105.685L409.806 98.0478L374.4 101.879" stroke="#5012FF" stroke-width="1.71644" stroke-miterlimit="10"/>
<path d="M421.679 112.798L408.802 103.959L380.692 106.989" stroke="#5012FF" stroke-width="1.71644" stroke-miterlimit="10"/>
</svg>
