<svg width="250" height="246" viewBox="0 0 250 246" fill="none" xmlns="http://www.w3.org/2000/svg">
<path d="M192.591 169.604L192.361 168.629C192.291 168.404 192.291 168.254 192.291 168.104C191.841 165.554 191.911 163.154 192.511 160.829C192.961 159.104 193.561 157.454 194.091 156.179C194.161 155.954 194.311 155.654 194.391 155.429L194.461 155.279C194.541 155.129 194.541 154.979 194.611 154.904C196.411 152.054 199.041 149.579 202.411 147.554L203.311 147.029L192.591 169.604ZM201.811 148.604C198.961 150.404 196.711 152.579 195.141 155.129C195.141 155.204 195.061 155.279 195.061 155.354C195.061 155.429 195.061 155.429 194.991 155.504C194.841 155.804 194.761 156.104 194.691 156.329C194.161 157.604 193.561 159.254 193.111 160.904C192.591 163.004 192.511 165.104 192.811 167.354L201.811 148.604Z" fill="#02E2AC"/>
<path d="M201.261 122.081L209.096 121.886C224.325 120.901 235.594 103.447 234.145 82.87C232.696 62.293 219.235 46.445 203.915 47.4798L195.23 47.4194" stroke="#6F3FF5" stroke-miterlimit="10" stroke-linecap="round"/>
<path d="M171.127 86.8373C172.512 107.379 186.008 123.197 201.271 122.168C216.533 121.139 227.784 103.652 226.399 83.1104C225.013 62.5687 211.518 46.7507 196.255 47.7798C180.992 48.8089 169.742 66.2956 171.127 86.8373Z" stroke="#6F3FF5" stroke-miterlimit="10"/>
<path d="M176.946 86.4447C178.037 102.626 188.689 115.084 200.739 114.272C212.788 113.459 221.672 99.6833 220.581 83.5024C219.49 67.3215 208.837 54.863 196.788 55.6755C184.738 56.4879 175.854 70.2638 176.946 86.4447Z" stroke="#6F3FF5" stroke-miterlimit="10"/>
<path d="M202.335 71.9532L207.507 86.0928C207.819 86.8927 207.615 87.7586 207.165 88.3412L197.681 99.5299C196.677 100.708 194.842 100.314 194.23 98.8173L189.072 84.781C188.759 83.9812 188.963 83.1152 189.413 82.5326L198.898 71.3439C200.005 70.1522 201.827 70.4436 202.335 71.9532Z" stroke="#6F3FF5" stroke-miterlimit="10"/>
<path d="M72.5479 225.79L78.2705 220.435C88.9896 209.572 85.7996 189.043 71.0345 174.638C56.2693 160.233 35.6776 157.348 24.9231 168.308L18.3965 174.038" stroke="#6F3FF5" stroke-miterlimit="10" stroke-linecap="round"/>
<path d="M26.6059 219.506C41.2999 233.927 61.898 236.767 72.6131 225.849C83.3281 214.931 80.1026 194.39 65.4086 179.969C50.7146 165.548 30.1165 162.708 19.4014 173.626C8.68633 184.544 11.9119 205.085 26.6059 219.506Z" stroke="#6F3FF5" stroke-miterlimit="10"/>
<path d="M30.6902 215.344C42.2648 226.703 58.5054 228.925 66.9647 220.305C75.424 211.686 72.8985 195.49 61.3239 184.13C49.7493 172.771 33.5086 170.549 25.0494 179.169C16.5901 187.788 19.1156 203.984 30.6902 215.344Z" stroke="#6F3FF5" stroke-miterlimit="10"/>
<path d="M40.0168 187.637L53.2816 194.759C54.0468 195.149 54.4703 195.931 54.5214 196.666L54.878 211.329C54.9119 212.876 53.2788 213.802 51.8269 213.091L38.6407 206.038C37.8755 205.648 37.452 204.866 37.4008 204.131L37.0443 189.468C37.0787 187.842 38.6333 186.848 40.0168 187.637Z" stroke="#6F3FF5" stroke-miterlimit="10"/>
<path d="M59.7859 48.032L63.6301 44.6226C70.8403 37.6925 68.9678 24.1978 59.3739 14.5166C49.7799 4.83535 36.2021 2.59717 28.9674 9.59078L24.5874 13.2317" stroke="#6F3FF5" stroke-miterlimit="10" stroke-linecap="round"/>
<path d="M29.2553 43.4464C38.7904 53.2179 52.4059 55.396 59.6663 48.3112C66.9267 41.2265 65.0827 27.5618 55.5476 17.7902C46.0125 8.01869 32.397 5.84061 25.1366 12.9254C17.8762 20.0101 19.7202 33.6748 29.2553 43.4464Z" stroke="#6F3FF5" stroke-miterlimit="10"/>
<path d="M32.0233 40.7455C39.5342 48.4426 50.2696 50.1481 56.0015 44.5549C61.7334 38.9617 60.2912 28.1877 52.7803 20.4906C45.2694 12.7935 34.534 11.0879 28.8021 16.6811C23.0702 22.2744 24.5124 33.0483 32.0233 40.7455Z" stroke="#6F3FF5" stroke-miterlimit="10"/>
<path d="M38.6032 22.5101L47.2954 27.4218C47.7971 27.691 48.0667 28.2158 48.0901 28.7035L48.1163 38.4301C48.1166 39.4566 47.0205 40.0469 46.0682 39.5548L37.4271 34.6895C36.9253 34.4202 36.6558 33.8954 36.6324 33.4077L36.6062 23.6812C36.6524 22.6035 37.6973 21.9669 38.6032 22.5101Z" stroke="#6F3FF5" stroke-miterlimit="10"/>
</svg>
