<svg width="702" height="615" viewBox="0 0 702 615" fill="none" xmlns="http://www.w3.org/2000/svg">
<ellipse cx="212.503" cy="602.705" rx="212.503" ry="12.2954" fill="#5BF1CD"/>
<path d="M118.853 350.562C118.853 350.562 117.988 351.901 116.258 355.834V355.751C115.998 355.834 93.0702 366.715 78.5348 387.136L77.4965 387.22H75.5931C74.2088 387.136 73.8627 388.057 73.7761 389.396L73.084 398.937C73.084 399.607 73.1705 400.444 73.6031 401.03C74.0357 401.616 74.6413 401.867 75.3335 402.034L77.6696 402.202C79.6595 405.884 86.6677 419.526 102.155 431.495L115.652 441.203L115.479 447.815C114.441 447.564 112.797 447.313 111.932 447.899C110.894 448.569 109.596 449.322 109.769 450.494L109.855 458.612C109.855 460.788 110.894 462.797 112.71 464.052L116.085 515.023C116.085 515.441 115.998 525.819 121.536 534.272L120.843 534.356L126.64 576.455L127.679 578.045C125.342 578.463 119.632 579.3 112.451 580.305C107.606 580.974 103.885 583.067 101.463 586.247C96.9637 592.189 98.2615 600.141 98.4345 600.475L98.5211 601.145H152.769V581.56L151.039 579.133L152.337 577.208L153.981 542.14L155.884 540.884V540.466C155.884 540.215 153.375 514.269 161.768 499.957C167.218 508.243 175.005 521.634 179.418 536.197L179.504 536.616L180.11 536.7L179.851 536.783C179.937 537.034 186.599 557.874 188.33 585.494C187.983 585.745 187.637 586.08 187.291 586.415C183.917 589.679 182.446 594.7 182.446 603.405V604.242H223.543V603.572C223.543 603.154 223.63 594.282 217.573 588.005C216.881 587.335 216.276 586.415 215.41 585.912L218.439 582.146V581.895C218.439 581.811 219.39 564.235 216.189 531.594L217.573 530.59V529.753C215.93 501.715 212.382 479.954 211.69 475.016C212.642 474.933 212.901 474.765 213.421 474.179C214.113 473.51 214.978 472.673 214.978 471.668L215.757 463.215C215.757 462.211 215.324 461.29 214.545 460.621C214.113 460.202 213.334 459.784 212.642 459.616L212.901 456.687L220.256 453.841C223.63 452.67 226.139 450.075 226.572 446.644L230.379 418.355L241.194 437.521C240.934 437.772 240.761 438.107 240.501 438.358L239.55 440.199C238.858 441.706 239.636 442.543 241.107 443.38L251.836 449.573C252.268 449.908 252.874 449.991 253.48 449.991C253.739 449.991 254.172 450.326 254.345 450.243C255.21 449.991 255.47 449.908 255.989 449.238L257.2 447.062C257.287 446.811 257.46 446.225 257.46 445.89L291.722 431.913C292.414 431.662 293.106 431.495 293.279 430.742V430.825L302.796 427.645L305.565 428.733L318.11 427.31C319.322 427.226 320.36 426.724 320.966 425.804C321.658 424.883 321.917 423.879 321.658 422.707L318.976 409.901C318.803 410.069 317.937 398.603 314.131 395.841C312.573 394.669 303.229 399.44 303.229 399.44C302.277 399.105 299.509 398.017 298.557 398.435L283.675 404.964L283.589 404.88C282.724 404.294 281.858 404.294 280.907 404.629L263.862 413.166L233.147 361.609L228.042 358.094C228.129 357.676 228.302 357.174 228.302 356.755C228.216 355.5 228.129 353.909 226.831 353.156L221.553 351.064C220.515 350.478 218.698 350.143 217.66 350.645L209.787 349.39C209.354 350.059 214.199 342.945 211.604 337.673C208.835 331.898 198.625 327.797 198.193 328.55L131.139 333.404C116.517 341.439 118.853 350.562 118.853 350.562ZM102.501 394.585L109.855 391.321L110.374 402.955L102.501 394.585Z" fill="white"/>
<path d="M153.897 417.935C164.314 417.935 172.758 409.767 172.758 399.69C172.758 389.613 164.314 381.444 153.897 381.444C143.48 381.444 135.035 389.613 135.035 399.69C135.035 409.767 143.48 417.935 153.897 417.935Z" stroke="#8C65F7" stroke-width="2" stroke-miterlimit="10"/>
<path d="M196.116 453.255C195.078 452.251 193.78 451.665 192.309 451.665L181.927 451.414C180.542 451.414 179.071 451.832 178.033 452.92C176.995 453.841 176.389 455.18 176.389 456.603V458.109V459.7L176.043 472.254V473.844V476.02C175.957 478.866 178.379 481.293 181.321 481.377L191.703 481.628H191.79C193.174 481.628 194.472 481.042 195.597 480.121C196.635 479.117 197.241 477.862 197.241 476.439V474.849V473.258L197.5 460.871V459.281V457.189C197.5 455.682 197.068 454.343 196.116 453.255Z" stroke="#8C65F7" stroke-width="2" stroke-miterlimit="10"/>
<path d="M134.257 445.303C133.651 444.717 132.959 444.383 132.094 444.383L128.806 444.299C127.162 444.299 125.864 445.554 125.778 447.061L125.691 450.492L125.604 452.083L125.258 466.143V467.734L125.172 471.416C125.172 473.006 126.47 474.262 128.027 474.345L131.315 474.429H131.401C133.045 474.429 134.343 473.174 134.343 471.667L134.43 469.491V467.901L134.776 454.259V452.668L134.862 447.396C135.035 446.559 134.689 445.889 134.257 445.303Z" stroke="#8C65F7" stroke-width="2" stroke-miterlimit="10"/>
<path d="M257.374 446.558L255.816 449.237C255.557 449.655 255.124 450.074 254.692 450.241C254.259 450.408 253.653 450.241 253.221 450.074L240.07 442.541C239.204 441.955 238.945 441.034 239.377 440.198L240.502 437.938C240.762 437.268 241.54 436.933 242.233 436.933C242.492 436.933 242.838 436.933 243.098 437.101L247.856 439.361L251.577 437.101L252.442 441.537L256.768 444.299C257.201 444.55 257.46 444.968 257.633 445.387C257.633 445.554 257.633 445.638 257.633 445.805C257.72 445.972 257.547 446.224 257.374 446.558Z" stroke="#8C65F7" stroke-width="2" stroke-miterlimit="10"/>
<path d="M81.1304 392.324V389.813C81.1304 388.976 80.6978 388.223 80.0921 387.721C79.6595 387.386 79.1404 387.135 78.4483 387.135H78.3617L76.6313 387.051C75.247 386.967 73.9492 388.055 73.7761 389.478L73.084 399.02C73.084 399.689 73.3435 400.359 73.7761 400.944C74.2087 401.53 75.0739 401.865 75.7661 401.949L77.6696 402.033H77.9291H78.1887C78.6213 402.033 79.0539 401.949 79.4 401.781C80.2652 401.447 80.6978 400.777 80.7843 399.856L81.1304 397.262L84.9373 394.751L81.1304 392.324Z" stroke="#8C65F7" stroke-width="2" stroke-miterlimit="10"/>
<path d="M187.121 391.32C187.121 391.153 187.121 391.153 187.121 391.32C186.429 390.651 185.737 390.316 184.785 390.316H180.805C179.075 390.316 177.604 391.655 177.604 393.413V394.668V396.258L177.518 405.046V406.637V408.813C177.518 410.487 178.902 411.993 180.719 411.993H184.872C185.737 411.993 186.516 411.658 187.121 411.072C187.208 410.989 187.381 410.738 187.467 410.654C187.814 410.235 188.073 409.482 188.073 408.98V393.58C188.073 392.576 187.727 391.823 187.121 391.32Z" stroke="#8C65F7" stroke-width="2" stroke-miterlimit="10"/>
<path d="M195.252 402.87L195.166 393.999V392.492C195.166 391.571 194.906 390.651 194.3 390.065L194.214 389.981C193.781 389.646 193.349 389.395 192.83 389.563L190.234 389.814C189.455 389.898 188.85 390.483 188.417 391.32C188.157 391.739 187.984 392.492 187.984 393.162V408.478C187.984 409.315 188.244 410.068 188.677 410.654C188.677 410.738 188.763 410.738 188.763 410.905C189.196 411.324 189.628 411.575 190.147 411.575H190.234L192.916 411.491C193.608 411.491 194.214 410.905 194.646 410.235C194.906 409.65 195.166 408.98 195.166 408.31L195.252 402.87Z" stroke="#8C65F7" stroke-width="2" stroke-miterlimit="10"/>
<path d="M122.836 536.531C122.75 536.447 122.577 536.196 122.404 535.945C121.971 535.359 121.538 534.773 121.192 534.271C115.741 525.818 115.741 515.44 115.741 515.021L112.367 464.051V463.8" stroke="#8C65F7" stroke-width="2" stroke-miterlimit="10"/>
<path d="M153.812 541.971L152.168 577.123L150.87 579.048L150.265 579.885H149.399L134.172 579.466H132.441L129.067 579.383H128.635L127.683 578.044L126.645 576.453L120.848 534.355L121.54 534.271" stroke="#8C65F7" stroke-width="2" stroke-miterlimit="10"/>
<path d="M183.832 537.786L181.322 537.117L179.765 536.698L179.159 536.614L179.073 536.196C174.574 521.466 166.787 508.242 161.423 499.956C161.077 499.37 160.731 498.952 160.384 498.449C157.356 493.763 155.107 491.001 154.934 490.917" stroke="#8C65F7" stroke-width="2" stroke-miterlimit="10"/>
<path d="M188.073 585.409C186.169 557.706 179.594 536.949 179.594 536.698L179.853 536.614" stroke="#8C65F7" stroke-width="2" stroke-miterlimit="10"/>
<path d="M216.189 531.007V531.091C219.217 563.899 218.438 581.392 218.438 581.475V581.726L215.756 584.991L215.41 585.409" stroke="#8C65F7" stroke-width="2" stroke-miterlimit="10"/>
<path d="M211.955 475.099C212.82 480.037 216.108 501.462 217.752 529.5L217.838 529.835L216.108 531.425L214.551 532.764L213.859 533.35" stroke="#8C65F7" stroke-width="2" stroke-miterlimit="10"/>
<path d="M125.259 467.734C121.279 466.897 117.731 466.06 114.79 465.139C114.703 465.139 114.444 465.056 114.357 465.056C113.751 464.804 113.146 464.47 112.713 464.135C110.983 462.879 109.858 460.871 109.858 458.695L109.771 450.576C109.771 449.405 110.377 448.316 111.329 447.647C112.194 447.061 113.232 446.81 114.271 447.061C114.357 447.061 114.617 447.145 114.703 447.145C115.049 447.228 115.568 447.396 115.914 447.563C118.943 448.735 122.403 449.739 125.951 450.66" stroke="#8C65F7" stroke-width="2" stroke-miterlimit="10"/>
<path d="M134.689 452.585C147.148 455.179 159.78 456.937 176.392 458.025" stroke="#8C65F7" stroke-width="2" stroke-miterlimit="10"/>
<path d="M197.418 458.862C203.042 458.946 207.801 459.113 210.829 458.946H211.521C211.781 458.946 212.127 458.946 212.386 459.029C213.079 459.113 213.684 459.448 214.29 460.034C215.155 460.954 215.588 461.875 215.588 462.879V471.165C215.588 472.17 215.155 473.09 214.376 473.76C213.684 474.429 212.819 474.764 212.04 474.764C211.954 474.764 211.781 474.764 211.694 474.764H211.608C211.175 474.764 210.743 474.764 210.31 474.764C205.811 474.68 201.485 474.68 197.072 474.429" stroke="#8C65F7" stroke-width="2" stroke-miterlimit="10"/>
<path d="M176.045 473.843C159.346 472.839 146.455 471.584 134.342 469.491" stroke="#8C65F7" stroke-width="2" stroke-miterlimit="10"/>
<path d="M116.434 412.83L115.568 447.48V448.149" stroke="#8C65F7" stroke-width="2" stroke-miterlimit="10"/>
<path d="M214.719 434.507L212.989 454.677L212.902 456.351L212.643 459.28" stroke="#8C65F7" stroke-width="2" stroke-miterlimit="10"/>
<path d="M214.287 424.38L217.575 400.694C217.661 399.857 218.267 399.355 219.132 399.104C219.997 399.021 220.776 399.355 221.122 400.025L241.022 437.186" stroke="#8C65F7" stroke-width="2" stroke-miterlimit="10"/>
<path d="M226.401 352.904L221.21 351.063C220.172 350.477 218.961 350.394 217.922 350.812C217.49 351.063 216.971 351.231 216.538 351.733C216.538 351.733 216.365 351.9 216.192 352.068C198.974 370.313 196.119 386.55 196.119 386.55C195.254 391.823 195.254 397.012 195.254 400.778C195.254 405.716 195.34 408.143 195.86 411.156C195.86 411.156 198.455 426.221 210.655 434.256C211.26 434.675 211.952 434.842 211.952 434.842C212.212 434.926 212.558 434.926 212.904 434.926H212.991C213.596 434.926 214.029 434.842 214.548 434.507C214.548 434.507 214.635 434.507 214.635 434.423C215.846 433.838 216.538 432.582 216.625 431.327L216.711 428.063C216.711 427.058 216.365 426.221 215.673 425.468C215.327 425.133 214.808 424.799 214.288 424.464C214.288 424.464 214.202 424.464 214.202 424.38C211.52 420.446 207.021 412.914 205.982 402.536C205.723 399.774 204.512 385.043 214.462 371.15C218.701 365.208 223.633 361.441 226.92 359.265C227.007 359.265 227.093 359.182 227.18 359.098C227.872 358.512 228.132 357.759 228.218 357.424C228.305 357.173 228.478 356.671 228.478 356.085C228.391 354.578 227.699 353.574 226.401 352.904Z" stroke="#8C65F7" stroke-width="2" stroke-miterlimit="10"/>
<path d="M228.043 357.34L228.13 357.424L233.234 360.939L263.949 412.495" stroke="#8C65F7" stroke-width="2" stroke-miterlimit="10"/>
<path d="M259.191 414.504L262.738 412.913L264.296 412.244L280.994 404.46C281.859 404.042 282.897 404.125 283.676 404.711L283.763 404.795C284.195 405.13 284.628 405.632 284.714 406.134C284.801 406.385 284.801 406.72 284.801 406.971C284.455 411.742 285.06 420.864 292.588 427.476C292.934 427.811 293.28 428.313 293.453 428.732C293.453 429.15 293.453 429.569 293.453 429.903C293.453 429.987 293.366 430.238 293.366 430.322C293.107 430.991 292.674 431.577 291.982 431.828L257.547 445.889" stroke="#8C65F7" stroke-width="2" stroke-miterlimit="10"/>
<path d="M230.639 418.019L226.832 446.392C226.399 449.823 223.89 452.669 220.429 453.84L212.643 456.351" stroke="#8C65F7" stroke-width="2" stroke-miterlimit="10"/>
<path d="M126.815 359.432C120.585 366.128 118.682 376.589 117.644 387.135C117.557 387.721 117.557 388.307 117.557 388.725C117.297 391.655 117.124 394.5 117.124 397.178C117.124 397.764 117.124 398.35 117.124 398.852C117.038 406.301 117.47 411.658 117.47 411.825L117.557 412.997L116.605 412.746L115.567 412.495L114.961 412.411L112.971 411.992L112.366 411.909L112.279 411.49C111.674 408.561 111.241 405.548 110.895 402.786C110.808 402.116 110.808 401.28 110.635 400.61C110.289 398.015 110.203 395.337 110.03 392.994C110.03 392.408 110.03 391.822 109.943 391.32C109.597 376.255 112.625 365.123 115.394 358.177C115.654 357.34 116 356.67 116.259 356C117.99 351.983 119.46 349.974 119.547 349.807L119.807 349.556L123.181 348.886" stroke="#8C65F7" stroke-width="2" stroke-miterlimit="10"/>
<path d="M78.3633 386.967C92.9853 366.546 115.913 355.582 116.086 355.582V355.665" stroke="#8C65F7" stroke-width="2" stroke-miterlimit="10"/>
<path d="M115.48 412.578C115.22 412.662 115.047 412.662 114.874 412.829C101.291 417.851 104.146 430.071 104.232 430.573L104.838 432.833L103.454 431.828L103.021 431.493C87.4473 419.358 79.4009 405.632 77.584 402.033" stroke="#8C65F7" stroke-width="2" stroke-miterlimit="10"/>
<path d="M99.7324 391.404L110.548 402.787" stroke="#8C65F7" stroke-width="2" stroke-miterlimit="10"/>
<path d="M109.857 391.069L102.936 394.584" stroke="#8C65F7" stroke-width="2" stroke-miterlimit="10"/>
<path d="M115.737 441.119L103.191 431.745" stroke="#8C65F7" stroke-width="2" stroke-miterlimit="10"/>
<path d="M217.833 587.083C217.141 586.413 216.449 585.744 215.584 585.242C215.151 584.907 214.632 584.572 214.2 584.321C211.517 582.731 208.057 581.894 204.336 581.81C197.847 581.726 193.175 582.48 189.714 584.405C189.109 584.739 188.676 585.074 188.157 585.409C187.811 585.66 187.465 585.995 187.119 586.33C183.744 589.594 182.273 594.616 182.273 603.32V604.157H223.371V603.487C223.371 602.985 223.89 593.36 217.833 587.083Z" stroke="#8C65F7" stroke-width="2" stroke-miterlimit="10"/>
<path d="M182.449 599.47H223.027" stroke="#8C65F7" stroke-width="2" stroke-miterlimit="10"/>
<path d="M211.435 583.568L209.704 588.087C209.099 589.343 207.801 590.18 206.503 590.18H196.466C194.909 590.18 193.611 589.175 193.179 587.669L191.881 583.903" stroke="#8C65F7" stroke-width="2" stroke-miterlimit="10"/>
<path d="M161.944 499.119C161.858 499.203 161.598 499.538 161.512 499.956C153.292 514.184 155.628 540.046 155.628 540.465V540.883L153.725 542.139L152.081 543.31L150.523 544.315" stroke="#8C65F7" stroke-width="2" stroke-miterlimit="10"/>
<path d="M150.782 579.048L152.512 581.475V601.06H98.2637L98.1772 600.39C98.0907 600.055 96.7929 592.104 101.205 586.162C103.715 582.898 107.348 580.889 112.194 580.22C119.288 579.215 124.912 578.295 127.421 577.96" stroke="#8C65F7" stroke-width="2" stroke-miterlimit="10"/>
<path d="M98.002 595.453H152.51" stroke="#8C65F7" stroke-width="2" stroke-miterlimit="10"/>
<path d="M283.674 404.879L298.382 398.686C299.334 398.267 300.372 398.267 301.237 398.602C301.67 398.686 302.189 399.021 302.622 399.439C302.708 399.523 302.708 399.523 302.881 399.69C302.968 399.774 303.227 400.025 303.314 400.276L303.747 401.113L307.381 406.888C307.813 407.892 307.986 408.98 307.727 409.985C307.467 410.989 306.775 411.826 305.823 412.244L302.189 414.17H302.103C301.67 414.421 301.151 414.588 300.545 414.588C300.459 414.588 300.286 414.588 300.199 414.588C299.853 414.588 299.334 414.504 298.988 414.504C297.95 414.169 297.085 413.5 296.652 412.579L295.095 409.65" stroke="#8C65F7" stroke-width="2" stroke-miterlimit="10"/>
<path d="M303.75 427.644L293.367 430.49" stroke="#8C65F7" stroke-width="2" stroke-miterlimit="10"/>
<path d="M302.886 399.607L303.492 399.523L311.625 396.092C311.711 396.092 312.057 396.008 312.404 396.008C313.009 395.924 313.442 395.924 314.047 396.092C314.307 396.175 314.48 396.175 314.74 396.343C315.778 396.929 316.47 397.849 316.73 398.937L318.114 404.88L318.806 408.06L322.094 422.456C322.007 423.711 321.661 424.715 321.056 425.636C320.363 426.557 319.325 426.975 318.2 427.143L313.874 427.812L312.231 428.063L306.78 428.9C306.693 428.9 306.52 428.9 306.434 428.9C305.395 428.9 304.271 428.482 303.578 427.728C303.578 427.728 303.492 427.728 303.492 427.645C303.146 427.31 302.8 426.808 302.627 426.389C302.54 426.138 302.54 425.971 302.54 425.72L302.281 424.129L300.637 414.672V414.337" stroke="#8C65F7" stroke-width="2" stroke-miterlimit="10"/>
<path d="M197.676 342.358L210.135 348.886L217.922 350.979" stroke="#8C65F7" stroke-width="2" stroke-miterlimit="10"/>
<path d="M172.152 394.751C174.402 394.751 175.181 394.668 177.603 394.584" stroke="#8C65F7" stroke-width="2" stroke-miterlimit="10"/>
<path d="M117.471 386.969C118.163 387.303 123.527 389.898 137.024 392.325" stroke="#8C65F7" stroke-width="2" stroke-miterlimit="10"/>
<path d="M171.633 405.13C174.228 405.13 174.921 405.214 177.516 404.963" stroke="#8C65F7" stroke-width="2" stroke-miterlimit="10"/>
<path d="M116.953 397.096C117.04 397.096 122.663 399.858 135.296 402.285" stroke="#8C65F7" stroke-width="2" stroke-miterlimit="10"/>
<path d="M117.299 448.149V465.893" stroke="#8C65F7" stroke-width="2" stroke-miterlimit="10"/>
<path d="M141.094 453.757V470.413" stroke="#8C65F7" stroke-width="2" stroke-miterlimit="10"/>
<path d="M156.318 456.1V471.751" stroke="#8C65F7" stroke-width="2" stroke-miterlimit="10"/>
<path d="M170.334 457.439V473.425" stroke="#8C65F7" stroke-width="2" stroke-miterlimit="10"/>
<path d="M203.992 458.862V474.262" stroke="#8C65F7" stroke-width="2" stroke-miterlimit="10"/>
<path d="M134.254 579.383L133.389 581.559C132.437 583.986 130.361 585.66 127.765 585.911L115.652 587.25C115.306 587.25 114.96 587.25 114.701 587.25C112.711 587.25 110.807 586.413 109.509 584.99L107.26 582.479" stroke="#8C65F7" stroke-width="2" stroke-miterlimit="10"/>
<path d="M206.846 532.514C204.51 533.519 202.174 534.021 199.751 534.439C197.242 534.774 194.906 535.025 192.311 534.774" stroke="#8C65F7" stroke-width="2" stroke-miterlimit="10"/>
<path d="M133.997 535.024C132.353 535.359 130.709 535.275 129.152 535.024C127.508 534.689 125.951 534.355 124.566 533.434" stroke="#8C65F7" stroke-width="2" stroke-miterlimit="10"/>
<path d="M158.957 396.85C159.649 397.854 160.082 399.026 160.082 400.197C160.082 401.369 159.649 402.541 158.957 403.545L160.428 404.633C161.38 403.378 161.899 401.788 161.899 400.197C161.899 398.524 161.38 396.933 160.341 395.594L159.476 396.347L158.957 396.85Z" fill="#15EBB7"/>
<path d="M161.81 405.638L156.706 401.871C157.052 401.369 157.311 400.867 157.311 400.281C157.311 399.695 157.138 399.11 156.879 398.607L159.301 396.515L161.81 394.255C161.983 394.088 161.983 393.837 161.81 393.669L161.464 393.335C159.647 391.577 157.225 390.573 154.629 390.489V389.15C154.629 389.066 154.629 388.982 154.629 388.899C154.629 388.815 154.543 388.731 154.456 388.648C154.37 388.564 154.283 388.564 154.196 388.48C154.11 388.48 154.023 388.397 153.937 388.397C153.85 388.397 153.764 388.397 153.677 388.48C153.591 388.48 153.504 388.564 153.418 388.648C153.331 388.731 153.331 388.815 153.245 388.899C153.245 388.982 153.245 389.066 153.245 389.15V390.573C152.639 390.656 152.033 390.74 151.428 390.907V389.15C151.428 389.066 151.428 388.982 151.428 388.899C151.428 388.815 151.341 388.731 151.255 388.648C151.168 388.564 151.082 388.564 150.995 388.48C150.909 388.48 150.822 388.397 150.736 388.397C150.649 388.397 150.563 388.397 150.476 388.48C150.39 388.48 150.303 388.564 150.217 388.648C150.13 388.731 150.13 388.815 150.044 388.899C150.044 388.982 150.044 389.066 150.044 389.15V391.326C147.967 392.247 146.237 393.837 145.198 395.762C144.16 397.687 143.814 400.03 144.247 402.123C144.679 404.299 145.891 406.224 147.621 407.646C149.351 409.069 151.601 409.906 153.85 409.906H161.205C161.464 409.906 161.637 409.739 161.637 409.488V405.889C161.983 405.889 161.897 405.721 161.81 405.638ZM154.283 408.232C152.466 408.232 150.736 407.646 149.265 406.558C147.794 405.47 146.842 403.964 146.323 402.29C145.891 400.616 145.977 398.775 146.669 397.185C147.361 395.594 148.573 394.172 150.217 393.335V395.929C150.217 396.013 150.217 396.097 150.217 396.18C150.217 396.264 150.303 396.348 150.39 396.431C150.476 396.515 150.563 396.515 150.649 396.599C150.736 396.599 150.822 396.682 150.909 396.682C150.995 396.682 151.082 396.682 151.168 396.599C151.255 396.599 151.341 396.515 151.428 396.431C151.514 396.348 151.514 396.264 151.601 396.18C151.601 396.097 151.601 396.013 151.601 395.929V392.665C152.466 392.33 153.504 392.163 154.456 392.163C156.273 392.163 158.003 392.749 159.388 393.753C159.474 393.837 159.474 394.004 159.388 394.088L155.494 397.519C155.148 397.352 154.716 397.268 154.37 397.268C153.937 397.268 153.504 397.352 153.158 397.519C152.726 397.687 152.38 397.938 152.12 398.273C151.86 398.607 151.601 398.942 151.514 399.361C151.428 399.779 151.341 400.198 151.428 400.616C151.514 401.035 151.601 401.453 151.86 401.788C152.12 402.123 152.38 402.457 152.726 402.625C153.072 402.876 153.504 402.96 153.937 403.043C154.37 403.127 154.802 403.043 155.235 402.959L160.166 406.558C160.253 406.558 160.253 406.642 160.253 406.726V407.981C160.253 408.065 160.166 408.149 160.08 408.149L154.283 408.232ZM155.494 400.281C155.494 400.532 155.408 400.7 155.321 400.951C155.148 401.118 154.975 401.286 154.802 401.369C154.543 401.453 154.37 401.453 154.11 401.453C153.85 401.369 153.677 401.286 153.504 401.118C153.331 400.951 153.245 400.783 153.158 400.532C153.158 400.281 153.158 400.114 153.245 399.863C153.331 399.612 153.504 399.444 153.677 399.361C153.85 399.277 154.11 399.193 154.37 399.193C154.716 399.193 154.975 399.277 155.235 399.528C155.408 399.695 155.494 399.947 155.494 400.281Z" fill="#0E0333"/>
<path d="M133.56 356.921C132.089 354.578 132.522 351.732 132.954 349.891C132.695 343.446 131.57 329.888 130.445 316.915L127.244 317.166H126.552C122.745 317.166 119.284 314.32 119.111 310.638L117.986 297.079C117.986 295.07 118.419 293.397 119.803 291.806C120.928 290.551 122.226 289.881 123.005 289.63C123.61 289.547 124.302 289.547 124.908 289.463C125.946 289.379 126.811 289.212 127.677 289.044C127.677 289.044 126.379 270.883 139.876 258.998C141.001 257.994 155.623 247.615 172.494 253.056C186.597 257.659 195.249 273.812 196.114 287.203C197.326 287.119 198.537 287.622 199.748 287.538C201.133 287.789 202.43 287.705 203.555 288.626C204.94 289.965 205.805 291.723 205.805 293.648L207.103 307.206C207.103 311.14 203.815 315.074 199.748 315.325H196.547L197.412 342.442C195.509 343.363 193.692 344.283 191.788 345.288C189.885 346.376 185.992 348.886 183.223 353.657C180.973 357.507 180.454 361.022 180.281 363.031C169.812 363.449 161.247 363.198 155.017 362.863C140.136 361.943 138.405 364.454 133.56 356.921Z" fill="white"/>
<path d="M146.885 284.275C146.885 284.275 172.668 281.847 178.292 283.103C183.829 284.275 186.598 291.64 186.598 291.64C186.598 291.64 188.242 293.732 188.155 314.07C188.155 314.572 187.29 316.33 183.483 317.585C179.676 318.924 142.819 318.924 142.819 318.924C142.819 318.924 137.887 317.669 137.887 311.81C137.887 305.868 137.281 294.234 137.281 294.234L140.569 289.882L143.424 286.2L146.885 284.275Z" fill="#5BF1CD"/>
<path d="M197.671 342.36L196.806 315.242L195.941 287.288V284.192C195.941 283.773 191.009 248.37 159.515 251.383C128.108 254.229 127.676 285.698 127.676 286.117C127.676 286.117 127.676 287.205 127.935 289.213C128.368 294.486 129.493 305.366 130.444 317C131.569 330.14 132.694 343.866 132.954 350.227V352.654C132.954 353.993 133.213 355.249 133.386 356.169C133.646 356.839 133.819 357.509 134.251 358.178C134.684 358.848 135.117 359.517 135.636 359.936C139.01 363.032 143.769 363.032 144.028 363.032H180.626V362.195C180.626 361.944 182.011 348.218 196.46 343.364L197.671 342.36Z" stroke="#8C65F7" stroke-width="2" stroke-miterlimit="10"/>
<path d="M179.416 336.249C179.849 338.425 179.676 340.183 178.551 341.522C177.167 343.279 174.917 343.53 174.917 343.53H157.959C152.508 343.53 150.259 340.266 149.826 338.76" stroke="#8C65F7" stroke-width="2" stroke-miterlimit="10"/>
<path d="M187.72 294.736C187.72 293.648 187.288 292.56 186.596 291.639C185.73 290.551 184.519 289.882 183.221 289.463C182.789 289.463 182.529 289.463 182.096 289.463H181.837L142.989 290.551C142.73 290.551 142.73 290.551 142.556 290.551C141.172 290.551 140.047 291.221 139.182 292.058C139.182 292.058 139.182 292.058 138.923 292.309C137.798 293.397 137.365 294.736 137.365 296.243L138.057 313.735C138.057 315.241 138.75 316.58 139.874 317.417C140.999 318.254 142.383 318.924 143.681 318.924H143.941L182.789 317.585C185.99 317.585 188.412 314.99 188.239 311.894L187.72 294.736Z" stroke="#8C65F7" stroke-width="2" stroke-miterlimit="10"/>
<path d="M206.409 294.318C206.409 292.309 205.631 290.635 204.506 289.296C203.554 288.459 202.43 287.79 201.305 287.539C200.959 287.539 200.526 287.287 200.007 287.539H199.661H197.757H196.373L197.325 315.325H198.45H200.699C204.073 315.074 206.756 311.81 206.756 307.877L206.409 294.318Z" stroke="#8C65F7" stroke-width="2" stroke-miterlimit="10"/>
<path d="M128.023 289.045H126.984L124.562 289.296H124.389C123.783 289.296 123.351 289.547 122.745 289.715C121.534 290.133 120.495 290.803 119.63 291.891C118.419 293.397 117.986 295.155 117.986 297.163L119.025 310.722C119.198 314.405 122.312 317.25 125.773 317.25C125.946 317.25 126.206 317.25 126.379 317.25L129.234 316.999H130.272L128.023 289.045Z" stroke="#8C65F7" stroke-width="2" stroke-miterlimit="10"/>
<path d="M123.091 289.882C122.831 283.103 122.831 242.008 157.007 239.414C168.774 238.577 178.464 241.423 185.732 248.118C199.748 260.84 200.181 283.772 200.008 287.288V287.706" stroke="#8C65F7" stroke-width="2" stroke-miterlimit="10"/>
<path d="M138.752 292.727L141.953 288.124C143.77 285.529 146.279 283.939 148.961 283.939L176.042 282.851C178.984 282.6 181.926 284.19 183.743 287.036L186.684 291.388" stroke="#8C65F7" stroke-width="2" stroke-miterlimit="10"/>
<path d="M131.401 332.985C131.401 332.985 121.711 337.505 119.548 346.042C119.375 346.544 119.375 347.046 119.288 347.548C119.029 349.306 118.942 351.231 119.202 353.407C119.288 354.077 119.461 354.662 119.548 355.499C119.634 356.504 119.894 357.592 120.326 358.68C121.365 361.86 123.182 364.622 125.604 366.798C126.123 367.217 126.556 367.551 127.075 367.97C136.16 374.917 151.301 376.339 160.905 376.423C166.096 376.507 169.73 376.172 169.816 376.172C190.754 374.247 205.722 364.706 213.163 348.804C213.682 347.883 214.028 346.879 214.288 346.042C214.461 345.372 214.547 344.786 214.72 344.284C215.153 341.355 214.807 338.677 213.682 336.333C213.423 335.915 213.336 335.58 213.077 335.161C212.73 334.408 212.298 333.906 211.779 333.236C208.058 328.466 201.223 325.62 198.022 324.365C197.676 324.197 197.416 324.532 197.416 324.951L197.676 329.47C197.935 329.638 205.636 331.646 208.145 337.589C209.443 340.685 209.356 344.033 207.712 347.548C201.569 360.605 189.716 368.807 173.277 371.318C171.46 371.569 169.73 371.736 167.913 371.82C166.528 371.904 164.279 371.987 161.424 371.904C150.003 371.736 129.671 369.476 125.518 356.085C121.365 342.945 131.747 337.505 131.834 337.505L131.401 332.985Z" fill="white" stroke="#8C65F7" stroke-width="2" stroke-miterlimit="10"/>
<path d="M183.486 368.89C183.746 366.128 184.784 358.679 190.754 351.984C194.648 347.715 198.974 345.455 201.569 344.367" stroke="#8C65F7" stroke-width="2" stroke-miterlimit="10"/>
<path d="M476.145 306.041C476.563 307.329 477.054 308.935 477.424 310.889C477.605 312.08 477.946 314.213 477.868 316.954C477.815 318.414 477.64 320.222 477.241 322.24C475.332 327.999 473.408 332.716 471.867 336.268C469.414 341.881 467.088 346.352 465.037 350.314C463.635 353.032 462.375 355.283 461.542 356.866C461.054 368.903 460.576 380.88 460.088 392.918C459.895 393.316 459.702 393.714 459.499 394.172C459.09 394.353 458.598 394.643 458.457 395.111C458.348 395.766 459.122 396.438 459.4 396.665C461.041 398.205 460.782 401.652 460.457 405.884C460.314 407.88 459.928 410.573 459.093 413.685C453.632 417.239 448.611 418.903 445.239 419.784C440.687 420.91 434.16 422.89 427.27 420.592C420.38 418.294 414.424 414.184 414.424 414.184C414.404 412.407 414.706 409.456 416.423 406.359C416.962 405.403 420.163 399.478 425.905 398.416C428.643 397.925 430.332 398.8 432.891 397.486C434.426 396.625 435.384 395.428 435.984 394.482L434.222 391.393L432.59 376.517L429.846 351.618C431.199 343.876 432.552 336.133 433.906 328.391C432.693 328.08 431.542 327.778 430.339 327.407L405.742 345.596L400.194 383.823L399.396 401.134C399.396 401.134 384.388 404.667 378.467 404.906C372.545 405.145 356.021 405.628 350.907 397.611C350.863 397.115 350.106 388.371 356.58 384.058C358.851 382.577 361.209 382.088 362.8 382.03C364.102 381.805 366.092 381.626 368.425 382.051C371.24 382.612 371.646 383.593 373.925 383.581C373.925 383.581 374.869 383.606 379.808 382.052L378.184 379.657C378.184 379.657 376.395 369.896 376.168 367.841C375.941 365.787 374.151 337.06 375.274 334.115C376.387 331.23 375.847 331.819 377.974 328.541C380.101 325.263 389.398 313.498 391.326 311.413C393.255 309.328 401.458 300.329 401.458 300.329L402.144 296.215L404.092 288.32L406.102 288.022C406.102 288.022 406.179 279.592 405.85 277.766C405.85 277.766 402.286 284.735 395.192 290.114C388.098 295.493 375.975 302.963 375.975 302.963L376.448 305.055L368.161 310.003L367.316 307.485C367.316 307.485 366.557 309.386 362.278 311.533C357.999 313.68 356.038 315.577 353.114 315.671C350.179 315.825 348.107 316.114 346.963 313.489C345.82 310.863 341.923 300.467 341.923 300.467C341.923 300.467 341.446 297.64 343.985 296.445C346.524 295.25 348.111 294.458 348.111 294.458C348.111 294.458 347.287 292.188 349.614 291.511C351.94 290.833 354.594 290.085 354.594 290.085L357.645 290.377L356.611 288.992L364.212 284.366L365.586 285.987C365.586 285.987 384.043 273.142 386.796 268.004C389.377 263.145 391.078 257.109 394.183 244.93C395.67 239.044 396.751 234.073 397.451 230.634C398.447 228.832 400.27 226.241 403.264 223.832C405.38 222.143 407.457 221.06 409.086 220.396C409.086 220.396 411.684 215.051 416.985 213.981C417.13 214.248 417.246 214.694 417.218 215.241C417.081 216.443 415.946 217.184 415.721 217.393C414.709 218.153 413.502 220.84 412.883 229.492C413.527 230.939 414.418 232.423 415.76 233.856C418.228 236.505 422.78 239.172 432.99 240.519C446.402 239.735 454.97 235.382 459.583 232.369C466.17 228.135 473.133 221.268 471.951 219.248C471.661 218.713 471.015 218.796 468.599 218.114C466.069 217.352 464.125 216.498 462.786 215.8C462.818 212.196 462.911 208.601 462.942 204.996C462.942 204.996 470.079 207.332 473.728 210.104L475.56 212.775C475.56 212.775 484.653 218.17 490.543 223.432C496.495 228.704 497.685 234.089 497.685 234.089L495.853 246.223C495.853 246.223 500.641 252.781 503.259 260.225C505.886 267.609 508.205 274.945 508.063 278.838C507.93 282.671 510.192 298.319 510.171 301.863C510.211 305.418 509.145 324.339 508.956 325.472L510.813 325.334L509.21 336.096L507.907 336.321C507.907 336.321 509.264 338.429 508.93 343.087C508.596 347.746 506.436 356.158 506.436 356.158C506.436 356.158 497.548 360.155 484.644 352.576L486.089 346.561L481.104 345.356C481.104 345.356 480.756 339.857 484.516 338.546C488.276 337.236 488.276 337.236 488.276 337.236L489.017 333.926L486.311 332.709L487.199 322.447L489.289 323.568C489.289 323.568 489.153 297.057 483.381 285.389C483.467 286.015 483.68 289.29 481.413 291.506C480.801 292.145 479.984 292.874 478.815 293.059C478.107 293.132 477.685 293.005 475.118 292.849C474.368 292.794 473.865 292.776 473.692 293.055C473.438 293.444 474.13 294.225 474.295 294.373C474.745 295.85 475.101 297.129 475.373 298.151C476.861 303.644 476.344 302.951 476.676 303.615C476.77 303.813 477.06 304.348 476.909 304.875C476.809 305.471 476.432 305.84 476.145 306.041Z" fill="white"/>
<path d="M462.765 215.919L471.93 219.367C471.891 219.605 471.821 220.023 471.752 220.44C471.04 223.572 468.7 225.47 466.012 227.559C461.862 230.828 459.767 232.397 457.649 233.719C454.702 235.462 451.398 237.455 446.489 238.831C442.707 239.893 439.434 240.178 437.155 240.19C431.307 240.746 426.805 239.677 424.224 238.846C420.564 237.664 416.893 236.541 414.502 233.048C414.099 232.434 412.029 229.297 412.386 225.254C412.63 223.029 413.555 221.276 414.398 219.634C414.398 219.634 414.855 218.787 417.501 214.673L415.808 203.58C415.808 203.58 411.088 170.42 417.717 162.522C424.345 154.623 431.519 150.664 447.284 153.979C462.74 157.245 463.153 178.294 463.153 178.294L462.765 215.919Z" fill="white"/>
<path d="M423.962 213.477C425.31 214.115 427.5 214.64 430.18 214.874C432.244 215.013 433.946 214.666 435.278 214.262" stroke="#8C65F7" stroke-width="2" stroke-miterlimit="10"/>
<path d="M422.863 215.141C422.963 214.545 423.062 213.949 423.376 213.202C423.72 212.277 424.251 211.748 424.535 211.181" stroke="#8C65F7" stroke-width="2" stroke-miterlimit="10"/>
<path d="M435.637 212.116C435.752 212.562 436.054 213.405 436.11 214.209C436.166 215.013 436.037 215.788 435.937 216.384" stroke="#8C65F7" stroke-width="2" stroke-miterlimit="10"/>
<path d="M434.472 328.417L433.855 328.321L429.817 327.508L405.681 345.585L400.577 382.291L400.547 382.47C400.547 382.47 400.263 383.037 399.332 383.687C399.117 383.837 398.831 384.037 398.616 384.187C396.755 385.488 393.19 386.767 387.404 385.437C384.228 384.758 382.108 383.816 380.603 382.602C380.201 382.356 379.716 381.852 379.499 381.635C377.539 379.738 377.405 377.882 377.435 377.703C373.739 358.896 375.222 333.677 375.261 333.439L375.291 333.26L375.321 333.081C382.203 319.104 401.686 300.485 401.901 300.335" stroke="#8C65F7" stroke-width="2" stroke-miterlimit="10"/>
<path d="M475.93 305.822C475.93 305.822 475.901 306.001 476.085 306.03C478.665 314.08 477.58 318.315 477.55 318.494C475.895 331.083 462.794 354.674 461.42 356.846L459.966 392.898C459.936 393.076 459.553 394.24 458.276 395.448C458.061 395.598 457.56 395.948 457.316 396.277C455.485 397.399 452.391 398.507 447.207 398.494C445.574 398.423 443.932 398.412 442.554 397.952C439.933 397.36 438.06 396.456 436.801 395.281C436.4 395.035 436.07 394.739 435.944 394.352C434.57 392.731 434.152 391.442 434.182 391.263L429.806 351.488L433.836 328.441L434.035 327.248L435.197 320.271" stroke="#8C65F7" stroke-width="2" stroke-miterlimit="10"/>
<path d="M406.113 289.492C406.242 288.717 406.798 285.378 405.781 277.817C405.696 277.192 405.549 276.557 405.453 275.991C405.125 274.166 404.836 272.102 404.639 269.869C404.554 269.244 404.406 268.609 404.466 268.251C404.41 267.447 404.293 266.634 404.237 265.83C403.174 249.819 409.957 236.439 411.36 234.088" stroke="#8C65F7" stroke-width="2" stroke-miterlimit="10"/>
<path d="M462.836 207.915C470.036 210.628 472.1 214.56 472.26 217.399C472.548 219.463 471.729 221.721 470.26 223.327C465.709 228.246 449.618 243.968 428.358 239.857C427.926 239.79 427.741 239.761 427.372 239.704C419.736 238.085 414.802 235.052 413.311 230.72C410.592 223.506 417.117 215.469 417.362 215.14" stroke="#8C65F7" stroke-width="2" stroke-miterlimit="10"/>
<path d="M463.135 198.542L462.863 205.106L462.85 206.328L462.776 207.907L462.733 209.307L462.646 215.901L462.602 217.301L461.986 217.205C455.074 216.556 451.062 228.105 451.062 228.105L450.993 228.522L450.532 228.634C440.983 230.142 434.135 229.87 429.357 228.941C425.75 228.195 423.475 227.045 421.755 225.982C419.88 224.711 418.937 223.156 418.203 222.247C417.841 221.762 417.716 221.375 417.786 220.958C417.815 220.779 417.815 220.779 417.815 220.779L417.445 216.928L417.212 215.669L417.097 215.222L416.864 213.962L416.02 204.226L416.05 204.047" stroke="#8C65F7" stroke-width="2" stroke-miterlimit="10"/>
<path d="M463.107 205.143C463.539 205.21 471.298 206.848 474.806 211.984C474.961 212.191 475.138 212.647 475.478 212.884C475.81 213.547 476.081 214.201 476.176 214.767C476.719 216.442 476.576 218.439 476.248 220.406C476.179 220.824 475.904 221.332 475.835 221.749C475.765 222.166 475.521 222.495 475.205 222.874C469.839 232.683 447.807 246.866 429.075 243.517C428.459 243.421 427.843 243.325 427.288 243.239C417.71 241.133 413.913 237.727 412.296 234.906C411.935 234.421 411.839 233.856 411.724 233.409C411.151 231.913 411.35 230.72 411.35 230.72L412.755 224.944" stroke="#8C65F7" stroke-width="2" stroke-miterlimit="10"/>
<path d="M471.934 219.366L463.316 216.432" stroke="#8C65F7" stroke-width="2" stroke-miterlimit="10"/>
<path d="M404.506 268.38C403.959 267.867 396.673 260.735 402.28 236.955C403.755 230.761 405.526 226.204 407.335 222.938C407.649 222.191 408.18 221.662 408.464 221.095C412.188 215.068 415.807 214.226 417.294 214.029" stroke="#8C65F7" stroke-width="2" stroke-miterlimit="10"/>
<path d="M413.944 232.227C414.087 230.231 414.989 222.541 417.968 220.986" stroke="#8C65F7" stroke-width="2" stroke-miterlimit="10"/>
<path d="M455.255 234.814C458.605 222.305 467.033 218.786 467.122 218.25" stroke="#8C65F7" stroke-width="2" stroke-miterlimit="10"/>
<path d="M486.18 230.643L475.756 222.227" stroke="#8C65F7" stroke-width="2" stroke-miterlimit="10"/>
<path d="M365.708 286.004C368.786 283.853 380.769 275.321 386.45 268.56C390.529 263.812 392.918 252.133 394.633 242.979C395.762 237.343 396.577 232.453 397.806 230.014C400.607 224.211 406.494 221.52 408.071 220.787C408.286 220.636 409.156 220.344 409.156 220.344" stroke="#8C65F7" stroke-width="2" stroke-miterlimit="10"/>
<path d="M405.78 277.814C400.027 289.947 377.697 302.127 375.905 303.01" stroke="#8C65F7" stroke-width="2" stroke-miterlimit="10"/>
<path d="M376.378 305.105C376.292 304.48 375.96 303.817 375.865 303.251C375.749 302.805 375.562 302.409 375.447 301.962C373.255 295.381 369.015 289.703 366.567 286.935C366.205 286.451 366.05 286.243 365.71 286.006C365.193 285.314 364.636 284.86 364.636 284.86L364.274 284.375L356.673 289.002L357.035 289.487C357.19 289.694 357.552 290.179 357.707 290.387C358.039 291.05 358.535 291.495 358.897 291.979C363.624 298.528 365.899 303.471 367.045 306.464C367.16 306.91 367.377 307.128 367.317 307.485C367.774 308.536 367.86 309.161 367.86 309.161L368.162 310.003L376.378 305.105Z" stroke="#8C65F7" stroke-width="2" stroke-miterlimit="10"/>
<path d="M357.767 291.189L357.095 290.289L355.862 290.097C355.43 290.03 355.06 289.972 354.599 290.084L349.618 291.509C348.972 291.592 348.503 292.131 348.157 292.689C347.811 293.247 347.743 294.031 348.054 294.447L348.169 294.893L348.587 296.182L350.637 301.334C350.94 302.177 351.671 302.719 352.226 302.806C352.658 302.873 353.028 302.931 353.489 302.819L357.454 301.418C358.14 301.097 358.569 300.797 358.915 300.239C359.074 299.285 359.173 298.689 358.841 298.025L356.218 291.376L357.767 291.189Z" stroke="#8C65F7" stroke-width="2" stroke-miterlimit="10"/>
<path d="M367.685 307.543C364.665 310.865 358.183 313.708 353.051 315.661C352.18 315.954 351.134 316.158 350.116 315.815C349.685 315.748 349.5 315.719 349.16 315.483C347.996 314.873 346.954 313.915 346.527 312.686L342.3 301.994C341.883 300.705 341.926 299.305 342.485 298.23C343.115 297.104 344.105 296.096 345.376 295.683L348.295 294.486L348.509 294.336" stroke="#8C65F7" stroke-width="2" stroke-miterlimit="10"/>
<path d="M491.624 240.484C491.654 240.305 492.912 237.687 491.922 234.902C491.223 233.019 489.573 231.538 487.268 230.567L487.083 230.538L486.869 230.688C486.869 230.688 486.654 230.839 485.998 230.981C485.783 231.131 485.312 231.302 485.097 231.452C480.017 233.474 465.542 240.639 461.004 255.348C460.056 258.381 459.805 261.401 459.975 264.181C459.905 264.598 460.03 264.985 460.207 265.44C460.522 268.487 461.483 271.451 462.728 273.848C462.843 274.294 463.215 274.719 463.33 275.165C464.661 278.187 467.342 282.214 472.038 285.149C472.77 285.691 473.357 285.966 474.128 286.27C474.8 283.377 475.719 280.523 476.39 277.63C475.563 276.522 474.529 275.137 473.702 274.029C472.914 272.683 472.272 271.604 471.423 270.248C470.122 267.047 468.958 262.645 469.928 257.963C471.216 251.373 476.367 245.508 485.231 240.895C486.132 240.423 487.649 240.048 489.528 240.157C490.206 240.263 491.007 240.388 491.624 240.484Z" stroke="#8C65F7" stroke-width="2" stroke-miterlimit="10"/>
<path d="M491.625 240.485C492.482 241.414 493.486 242.978 494.831 244.778C495.193 245.263 495.503 245.678 495.835 246.342C500.463 253.487 506.779 265.301 508.055 278.898L508.025 279.076" stroke="#8C65F7" stroke-width="2" stroke-miterlimit="10"/>
<path d="M509.374 292.989C509.344 293.168 509.489 293.435 509.459 293.614C511.035 303.893 509.277 322.034 508.836 325.819C508.766 326.236 508.737 326.415 508.737 326.415L508.667 326.833L508.206 326.944C507.56 327.027 506.719 327.141 506.072 327.223C504.4 327.391 502.768 327.32 501.073 327.239C499.256 327.139 497.592 326.88 496.019 326.451C492.412 325.705 489.676 324.667 489.491 324.638L488.904 324.363L489.188 323.795C489.188 323.795 489.188 323.795 489.218 323.617C489.288 323.199 489.262 322.216 489.003 319.973C488.718 316.748 488.215 311.041 487.078 300.402C486.39 294.667 484.916 289.848 483.283 285.984C483.168 285.538 482.981 285.142 482.641 284.905C479.091 277.745 474.346 273.579 472.141 272.011" stroke="#8C65F7" stroke-width="2" stroke-miterlimit="10"/>
<path d="M474.078 284.672L473.379 293.801" stroke="#8C65F7" stroke-width="2" stroke-miterlimit="10"/>
<path d="M483.484 285.528L482.613 289.613C482.001 292.149 479.464 293.711 476.814 293.297L473.638 292.619" stroke="#8C65F7" stroke-width="2" stroke-miterlimit="10"/>
<path d="M475.48 212.884C478.704 214.794 498.593 227.133 497.663 235.369C496.952 242.294 496.189 245.356 495.835 246.341C495.805 246.52 495.766 246.758 495.766 246.758" stroke="#8C65F7" stroke-width="2" stroke-miterlimit="10"/>
<path d="M510.795 325.452L509.964 325.506C509.532 325.439 509.318 325.589 508.948 325.531C508.117 325.585 507.275 325.698 506.444 325.752L506.259 325.724C504.587 325.891 502.955 325.82 501.261 325.739C495.305 325.423 491.181 323.984 489.216 323.25C488.445 322.946 488.013 322.878 488.013 322.878L487.242 322.575L486.354 332.836L486.756 333.083C487.527 333.386 488.289 333.75 489.06 334.054C489.492 334.121 489.832 334.358 490.263 334.425C491.836 334.854 493.399 335.342 495.034 335.781C500.244 336.776 504.411 336.814 506.72 336.624C507.366 336.541 507.736 336.599 508.022 336.399C508.483 336.287 508.668 336.316 508.853 336.345L509.315 336.233L510.795 325.452Z" fill="white" stroke="#8C65F7" stroke-width="2" stroke-miterlimit="10"/>
<path d="M508.236 335.88C508.236 335.88 508.206 336.059 508.351 336.326C508.709 337.973 510.096 345.592 506.735 355.896L506.705 356.075L506.49 356.225C506.275 356.375 503.013 358.497 495.809 356.945C492.818 356.295 489.28 355.132 485.101 352.89L484.699 352.643L486.144 346.629L486.343 345.436L488.102 338.675L488.515 337.332L489.286 333.843L489.356 333.426" stroke="#8C65F7" stroke-width="2" stroke-miterlimit="10"/>
<path d="M486.564 346.757L486.133 346.69L481.148 345.484L481.247 344.888C482.32 338.448 486.4 337.493 488.319 337.364C488.78 337.253 489.15 337.31 489.15 337.31" stroke="#8C65F7" stroke-width="2" stroke-miterlimit="10"/>
<path d="M452.587 201.117C452.716 200.342 455.591 181.947 450.093 175.094C448.903 173.502 447.215 172.627 445.326 172.577C435.889 171.901 421.014 171.6 416.476 171.504C415.86 171.408 415.46 171.529 415.214 171.491L415.029 171.462L411.991 173.374L409.945 174.646L409.915 174.825C409.786 175.6 405.522 193.595 412.697 202.911L412.853 203.119L413.037 203.148C413.222 203.177 414.64 203.398 416.674 203.715C417.106 203.782 417.476 203.84 418.092 203.936C424.38 204.916 435.389 206.021 442.874 204.374C443.059 204.403 448.157 203.791 452.495 201.286L452.587 201.117Z" fill="#5BF1CD"/>
<path d="M452.587 201.117C452.716 200.342 455.591 181.947 450.093 175.094C448.903 173.502 447.215 172.627 445.326 172.577C435.889 171.901 421.014 171.6 416.476 171.504C415.86 171.408 415.46 171.529 415.214 171.491L415.029 171.462L411.991 173.374L409.945 174.646L409.915 174.825C409.786 175.6 405.522 193.595 412.697 202.911L412.853 203.119L413.037 203.148C413.222 203.177 414.64 203.398 416.674 203.715C417.106 203.782 417.476 203.84 418.092 203.936C424.38 204.916 435.389 206.021 442.874 204.374C443.059 204.403 448.157 203.791 452.495 201.286L452.587 201.117Z" stroke="#8C65F7" stroke-width="2" stroke-miterlimit="10"/>
<path d="M416.284 177.592C420.881 177.33 443.573 176.647 444.977 181.882C446.67 189.182 446.212 202.937 446.113 203.533" stroke="#8C65F7" stroke-width="2" stroke-miterlimit="10"/>
<path d="M414.97 171.819C415.039 171.402 415.009 163.994 421.107 158.521C425.528 154.378 432.056 152.398 440.075 152.853C463.771 153.734 463.249 178.123 463.219 178.302" stroke="#8C65F7" stroke-width="2" stroke-miterlimit="10"/>
<path d="M411.93 173.732C411.602 171.906 410.871 160.352 418.343 152.708C423.355 147.677 430.569 145.376 440.221 145.902C449.441 146.361 456.643 149.442 461.283 154.998C469.043 164.223 467.819 176.879 467.531 178.608" stroke="#8C65F7" stroke-width="2" stroke-miterlimit="10"/>
<path d="M470.71 179.286L470.594 178.84L470.163 178.773C470.163 178.773 469.361 178.648 467.482 178.539C467.051 178.471 466.271 178.594 465.84 178.527C465.039 178.402 464.186 178.208 463.16 178.293C462.728 178.225 462.309 178.466 461.939 178.408C460.923 178.433 459.885 178.21 458.777 178.405L458.316 178.516L458.246 178.934C457.962 179.501 452.895 191.314 459.185 198.351L459.34 198.559L459.525 198.588C459.71 198.616 460.511 198.741 461.589 198.726C462.02 198.793 462.42 198.672 462.851 198.739C464.524 198.572 466.647 198.352 468.91 197.298L469.125 197.148L469.154 196.969C469.727 196.569 473.278 188.925 470.71 179.286Z" fill="#5BF1CD"/>
<path d="M470.707 179.287L470.591 178.84L470.16 178.773C470.16 178.773 459.891 178.151 458.836 178.414L458.374 178.526L458.305 178.943C458.021 179.511 452.953 191.323 459.243 198.361L459.398 198.569L459.583 198.597C459.768 198.626 460.57 198.751 461.647 198.736C462.079 198.803 462.478 198.682 462.91 198.749C464.582 198.582 466.706 198.362 468.968 197.308L469.183 197.158L469.418 196.888C469.428 196.829 469.489 196.838 469.499 196.779C470.203 195.971 473.201 188.608 470.707 179.287Z" stroke="#8C65F7" stroke-width="2" stroke-miterlimit="10"/>
<path d="M463.08 190.149C460.844 184.968 464.506 178.932 464.566 178.574" stroke="#8C65F7" stroke-width="2" stroke-miterlimit="10"/>
<path d="M457.219 395.712L458.18 394.883C458.18 394.883 458.18 394.883 458.335 395.091C459.192 396.02 462.084 401.059 459.041 413.248L458.971 413.666L448.506 418.396C444.257 420.365 439.531 421.402 434.993 421.306C432.705 421.377 430.024 421.143 427.219 420.522C422.81 419.651 418.386 417.738 414.59 414.331L414.435 414.124L414.464 413.945C414.534 413.527 414.879 405.383 420.562 400.886C423.393 398.697 427.073 397.863 431.356 398.348C431.973 398.444 432.589 398.54 433.391 398.665C433.576 398.694 433.822 398.732 434.192 398.79C434.623 398.857 443.84 400.478 446.123 406.89" stroke="#8C65F7" stroke-width="2" stroke-miterlimit="10"/>
<path d="M399.579 383.727L400.195 383.823L399.398 401.134L398.936 401.246C398.936 401.246 391.205 402.855 382.027 404.421C377.146 405.251 368.997 405.571 362.153 404.137C357.128 403.169 352.734 401.077 351.001 397.809L350.846 397.602C350.876 397.423 350.132 390.883 353.997 386.286C356.271 383.642 359.405 382.296 363.632 381.976C368.044 381.685 371.22 382.364 373.527 383.702C374.113 383.977 374.443 384.274 375.03 384.549C378.926 387.358 379.226 391.627 379.226 391.627" stroke="#8C65F7" stroke-width="2" stroke-miterlimit="10"/>
<path d="M372.828 383.715L373.474 383.632L379.758 381.982" stroke="#8C65F7" stroke-width="2" stroke-miterlimit="10"/>
<path d="M430.631 398.539C430.631 398.539 430.846 398.389 431.093 398.428C432.484 397.666 435.246 395.894 436.131 394.38C436.131 394.38 436.161 394.201 436.2 393.963" stroke="#8C65F7" stroke-width="2" stroke-miterlimit="10"/>
<path d="M424.366 277.104C416.977 275.523 412.379 268.199 414.073 260.693C415.766 253.188 423.13 248.463 430.335 250.015C437.724 251.595 442.322 258.919 440.658 266.246C439.211 273.79 431.755 278.684 424.366 277.104Z" stroke="#8C65F7" stroke-width="2" stroke-miterlimit="10"/>
<path d="M458.671 264.038C459.502 263.984 459.933 264.051 460.774 263.938" stroke="#8C65F7" stroke-width="2" stroke-miterlimit="10"/>
<path d="M441.283 262.491C442.516 262.684 445.536 263.155 446.769 263.347" stroke="#8C65F7" stroke-width="2" stroke-miterlimit="10"/>
<path d="M405.547 251.9C405.547 251.9 409.697 254.321 415.569 256.277" stroke="#8C65F7" stroke-width="2" stroke-miterlimit="10"/>
<path d="M457.855 273.882C459.958 273.782 461.159 273.786 463.068 273.717" stroke="#8C65F7" stroke-width="2" stroke-miterlimit="10"/>
<path d="M438.268 272.237C440.302 272.554 442.706 272.929 444.925 273.275" stroke="#8C65F7" stroke-width="2" stroke-miterlimit="10"/>
<path d="M404.244 262.343C404.244 262.343 408.639 264.435 413.741 266.455" stroke="#8C65F7" stroke-width="2" stroke-miterlimit="10"/>
<path d="M391.332 345.917C388.553 346.279 385.934 346.054 383.929 345.558C381.74 345.033 380.207 344.366 379.96 344.328" stroke="#8C65F7" stroke-width="2" stroke-miterlimit="10"/>
<path d="M446.574 360.16C443.795 360.522 441.176 360.297 439.172 359.801C436.982 359.276 435.449 358.609 435.203 358.57" stroke="#8C65F7" stroke-width="2" stroke-miterlimit="10"/>
<path d="M429.115 319.568L430.277 327.396" stroke="#8C65F7" stroke-width="2" stroke-miterlimit="10"/>
<path d="M512.479 290.661L511.359 281.065C511.273 280.44 510.941 279.776 510.384 279.322C509.837 278.809 509.221 278.713 508.38 278.826L507.918 278.938L506.616 279.163L506.155 279.275C504.852 279.5 503.862 280.508 504.095 281.768L504.284 284.428L501.479 287.6L505.172 288.971L505.77 291.45C506.043 292.471 506.745 293.193 507.731 293.347C507.916 293.375 508.163 293.414 508.163 293.414C508.347 293.443 508.594 293.481 508.809 293.331L509.455 293.248L510.326 292.956C511.63 293.098 512.66 291.852 512.479 290.661Z" fill="#5BF1CD"/>
<path d="M512.479 290.661L511.359 281.065C511.273 280.44 510.941 279.776 510.384 279.322C509.837 278.809 509.221 278.713 508.38 278.826L507.918 278.938L506.616 279.163L506.155 279.275C504.852 279.5 503.862 280.508 504.095 281.768L504.284 284.428L501.479 287.6L505.172 288.971L505.77 291.45C506.043 292.471 506.745 293.193 507.731 293.347C507.916 293.375 508.163 293.414 508.163 293.414C508.347 293.443 508.594 293.481 508.809 293.331L509.455 293.248L510.326 292.956C511.63 293.098 512.66 291.852 512.479 290.661Z" stroke="#8C65F7" stroke-width="2" stroke-miterlimit="10"/>
<path d="M398.878 396.649C398.663 396.799 390.764 399.421 375.268 400.186C370.671 400.448 366.563 400.052 363.212 399.285C355.392 397.638 350.784 394.166 350.639 393.899" stroke="#8C65F7" stroke-width="2" stroke-miterlimit="10"/>
<path d="M459.785 409.143C459.571 409.293 455.817 411.706 441.704 415.562C437.122 416.866 432.809 416.561 429.017 415.786C421.012 414.109 415.311 409.611 415.126 409.582" stroke="#8C65F7" stroke-width="2" stroke-miterlimit="10"/>
<path d="M446.058 313.583C445.873 313.554 445.626 313.516 445.441 313.487C444.64 313.362 443.994 313.445 443.192 313.32C438.253 312.978 433.63 312.257 429.046 311.298C424.823 310.455 420.055 309.467 415.99 307.671" stroke="#8C65F7" stroke-width="2" stroke-miterlimit="10"/>
<path d="M411.28 305.957C411.095 305.928 410.878 305.711 410.694 305.682C404.941 303.011 401.972 300.712 401.787 300.683L401.385 300.437L403.76 289.979C403.86 289.383 404.351 289.092 404.79 288.733C405.005 288.583 405.437 288.65 405.806 288.707C405.991 288.736 406.238 288.775 406.393 288.983C406.578 289.011 406.795 289.229 406.98 289.258C408.855 290.529 411.13 291.679 413.826 292.956C414.011 292.985 414.413 293.231 414.598 293.26" stroke="#8C65F7" stroke-width="2" stroke-miterlimit="10"/>
<path d="M419.336 294.794C426.196 297.271 432.609 298.638 432.794 298.667C437.594 299.844 442.257 300.326 446.355 300.781" stroke="#8C65F7" stroke-width="2" stroke-miterlimit="10"/>
<path d="M458.109 300.84C458.294 300.869 458.571 300.729 458.755 300.758C466.888 299.395 470.524 296.169 472.023 294.384L472.238 294.234C472.493 293.845 472.954 293.734 473.541 294.009C474.157 294.105 474.457 294.58 474.644 294.976L476.936 304.755L476.906 304.934C476.906 304.934 476.652 305.322 476.091 306.03C475.836 306.419 475.53 306.738 475.091 307.098C472.669 309.106 468.036 312.238 458.928 313.387C458.743 313.358 458.743 313.358 458.466 313.499" stroke="#8C65F7" stroke-width="2" stroke-miterlimit="10"/>
<path d="M456.597 315.225L447.862 315.27C447.245 315.174 446.905 314.938 446.758 314.303L446.854 300.064C446.953 299.467 447.198 299.138 447.854 298.996L456.589 298.951L456.774 298.98C456.959 299.009 457.206 299.047 457.361 299.255C457.516 299.462 457.723 299.739 457.693 299.918L457.597 314.158C457.497 314.754 456.967 315.283 456.597 315.225Z" stroke="#8C65F7" stroke-width="2" stroke-miterlimit="10"/>
<path d="M415.274 308.172C415.175 308.768 414.314 309.001 413.698 308.905L411.693 308.409C411.508 308.38 410.922 308.105 410.961 307.866C410.806 307.658 410.846 307.42 410.906 307.062L414.927 291.661C415.026 291.064 415.887 290.831 416.319 290.899L418.323 291.395C418.508 291.424 419.094 291.699 419.055 291.937C419.21 292.145 419.17 292.383 419.11 292.741L415.274 308.172Z" stroke="#8C65F7" stroke-width="2" stroke-miterlimit="10"/>
<path d="M408.825 290.708L405.907 303.284" stroke="#8C65F7" stroke-width="2" stroke-miterlimit="10"/>
<path d="M424.935 297.26L422.517 309.118" stroke="#8C65F7" stroke-width="2" stroke-miterlimit="10"/>
<path d="M433.098 299.51L431.18 311.019" stroke="#8C65F7" stroke-width="2" stroke-miterlimit="10"/>
<path d="M441.475 301.245L439.557 312.753" stroke="#8C65F7" stroke-width="2" stroke-miterlimit="10"/>
<path d="M461.885 300.572L463.047 312.194" stroke="#8C65F7" stroke-width="2" stroke-miterlimit="10"/>
<path d="M468.357 297.789L470.351 309.357" stroke="#8C65F7" stroke-width="2" stroke-miterlimit="10"/>
<path d="M451.074 155.548L443.571 163.004C442.356 164.222 440.533 164.916 438.93 164.667L430.941 164.033C430.509 163.965 430.324 163.936 430.139 163.908C427.765 163.354 425.959 161.665 425.555 159.155L424.879 155.624" stroke="#8C65F7" stroke-width="2" stroke-miterlimit="10"/>
<path d="M450.636 276.184C450.421 276.335 449.95 276.506 449.765 276.477L446.53 276.156C446.098 276.089 445.914 276.06 445.798 275.614C445.643 275.406 445.466 274.95 445.496 274.771L446.867 262.749C446.966 262.153 447.497 261.624 448.328 261.57L451.378 261.862L451.563 261.891C451.748 261.92 452.15 262.166 452.295 262.433C452.45 262.641 452.627 263.097 452.597 263.276L451.411 275.327C451.105 275.646 450.881 275.856 450.636 276.184Z" stroke="#8C65F7" stroke-width="2" stroke-miterlimit="10"/>
<path d="M455.976 276.405L453.503 276.447C453.318 276.418 453.318 276.418 453.101 276.201C452.946 275.993 452.769 275.537 452.829 275.18L454.014 263.129C454.144 262.354 454.674 261.825 455.044 261.882L457.518 261.84L457.703 261.869C457.888 261.898 457.888 261.898 458.104 262.115C458.26 262.323 458.437 262.778 458.377 263.136L457.191 275.187C456.877 275.933 456.408 276.472 455.976 276.405Z" stroke="#8C65F7" stroke-width="2" stroke-miterlimit="10"/>
<path d="M442.256 402.372C441.34 401.801 439.107 402.676 438.236 402.969C436.904 403.373 435.844 404.798 435.46 405.962C434.701 407.862 432.5 408.926 430.506 408.37L425.296 407.374C424.063 407.182 422.991 406.403 422.379 405.145C421.736 404.066 421.78 402.666 422.164 401.502C423.452 398.706 426.271 398.105 427.719 398.147" stroke="#8C65F7" stroke-width="2" stroke-miterlimit="10"/>
<path d="M377.914 388.118C374.963 387.23 369.68 387.813 367.417 388.867C365.401 389.96 363.021 390.201 360.617 389.826C360 389.73 359.414 389.455 359.044 389.397L353.231 387.084" stroke="#8C65F7" stroke-width="2" stroke-miterlimit="10"/>
<path d="M430.25 263.032C430.592 263.636 430.658 264.381 430.549 265.036C430.439 265.692 430.073 266.369 429.614 266.848L430.368 267.639C431.042 267.01 431.499 266.163 431.648 265.269C431.807 264.315 431.658 263.313 431.161 262.501L430.598 262.842L430.25 263.032Z" fill="#15EBB7"/>
<path d="M431.019 268.291L428.48 265.693C428.705 265.483 428.887 265.145 428.999 264.856C429.058 264.498 429.046 264.191 428.911 263.864L430.466 262.883L432.102 261.792C432.236 261.751 432.265 261.572 432.152 261.494L431.997 261.286C431.118 260.109 429.861 259.301 428.392 259.011L428.521 258.236C428.531 258.176 428.541 258.116 428.551 258.057C428.561 257.997 428.509 257.928 428.509 257.928C428.509 257.928 428.457 257.859 428.406 257.789C428.344 257.78 428.292 257.71 428.292 257.71C428.292 257.71 428.169 257.691 428.159 257.751C428.097 257.741 428.026 257.791 428.016 257.851C428.006 257.911 427.944 257.901 427.934 257.961C427.924 258.02 427.914 258.08 427.905 258.139L427.775 258.915C427.396 258.917 427.077 258.928 426.698 258.93L426.857 257.976C426.867 257.916 426.876 257.857 426.886 257.797C426.896 257.738 426.845 257.668 426.845 257.668C426.793 257.599 426.793 257.599 426.741 257.53C426.68 257.52 426.628 257.451 426.628 257.451C426.628 257.451 426.505 257.432 426.495 257.491C426.433 257.482 426.361 257.532 426.351 257.591C426.342 257.651 426.28 257.641 426.27 257.701C426.26 257.761 426.25 257.82 426.24 257.88L426.032 259.132C424.771 259.486 423.636 260.227 422.84 261.204C422.035 262.241 421.642 263.464 421.741 264.764C421.779 266.055 422.278 267.234 423.187 268.232C424.034 269.221 425.259 269.84 426.544 270.102L430.735 270.755C430.859 270.774 431.002 270.674 431.022 270.555L431.359 268.528C431.061 268.42 431.071 268.361 431.019 268.291ZM426.528 269.059C425.48 268.896 424.553 268.384 423.851 267.663C423.149 266.942 422.682 265.951 422.594 264.959C422.507 263.966 422.737 262.962 423.266 262.066C423.846 261.239 424.654 260.569 425.606 260.167L425.358 261.658C425.348 261.717 425.338 261.777 425.328 261.837C425.318 261.896 425.37 261.965 425.37 261.965C425.37 261.965 425.421 262.035 425.473 262.104C425.535 262.114 425.586 262.183 425.586 262.183C425.586 262.183 425.71 262.202 425.72 262.142C425.781 262.152 425.853 262.102 425.863 262.042C425.934 261.992 425.934 261.992 425.944 261.933C425.954 261.873 425.964 261.813 425.974 261.754L426.282 259.905C426.805 259.803 427.38 259.771 427.934 259.857C428.921 260.011 429.857 260.463 430.621 261.194C430.673 261.263 430.663 261.323 430.591 261.373L428.044 262.994C427.869 262.906 427.633 262.808 427.448 262.779C427.201 262.74 426.945 262.762 426.75 262.792C426.555 262.823 426.278 262.964 426.125 263.123C425.911 263.273 425.748 263.493 425.656 263.662C425.555 263.891 425.515 264.129 425.475 264.368C425.497 264.616 425.519 264.864 425.613 265.062C425.706 265.26 425.861 265.468 426.026 265.616C426.191 265.764 426.418 265.922 426.665 265.96C426.901 266.058 427.158 266.037 427.414 266.016L429.902 268.545C429.902 268.545 429.954 268.615 429.944 268.674L429.824 269.39C429.814 269.449 429.743 269.499 429.681 269.49L426.528 269.059ZM427.961 264.633C427.941 264.752 427.859 264.862 427.778 264.972C427.696 265.081 427.563 265.122 427.43 265.162C427.297 265.203 427.173 265.183 427.05 265.164C426.927 265.145 426.814 265.066 426.71 264.928C426.607 264.789 426.555 264.72 426.585 264.541C426.615 264.362 426.625 264.302 426.706 264.193C426.788 264.083 426.869 263.973 427.002 263.933C427.136 263.893 427.269 263.852 427.392 263.871C427.577 263.9 427.752 263.989 427.855 264.127C427.959 264.266 427.991 264.454 427.961 264.633Z" fill="#0E0333"/>
<path d="M304.913 295.642L329.257 278.286C331.7 276.544 335.142 277.048 336.944 279.413L367.377 319.357C369.179 321.722 368.657 325.051 366.213 326.793L341.869 344.149C339.426 345.891 335.984 345.387 334.183 343.022L303.749 303.078C301.948 300.713 302.469 297.384 304.913 295.642Z" fill="white" stroke="#EE82EE" stroke-width="2"/>
<mask id="path-144-inside-1_3155_59548" fill="white">
<path fill-rule="evenodd" clip-rule="evenodd" d="M329.234 278.256L304.89 295.612C302.428 297.367 301.903 300.72 303.717 303.101L334.151 343.045C335.965 345.426 339.431 345.934 341.893 344.179L366.237 326.823C368.698 325.068 369.223 321.715 367.409 319.334L336.976 279.39C335.161 277.009 331.695 276.501 329.234 278.256ZM304.31 294.851C301.414 296.916 300.797 300.86 302.931 303.662L333.364 343.606C335.498 346.407 339.576 347.005 342.472 344.94L366.816 327.584C369.712 325.519 370.33 321.575 368.195 318.773L337.762 278.829C335.628 276.028 331.55 275.43 328.654 277.495L304.31 294.851Z"/>
</mask>
<path fill-rule="evenodd" clip-rule="evenodd" d="M329.234 278.256L304.89 295.612C302.428 297.367 301.903 300.72 303.717 303.101L334.151 343.045C335.965 345.426 339.431 345.934 341.893 344.179L366.237 326.823C368.698 325.068 369.223 321.715 367.409 319.334L336.976 279.39C335.161 277.009 331.695 276.501 329.234 278.256ZM304.31 294.851C301.414 296.916 300.797 300.86 302.931 303.662L333.364 343.606C335.498 346.407 339.576 347.005 342.472 344.94L366.816 327.584C369.712 325.519 370.33 321.575 368.195 318.773L337.762 278.829C335.628 276.028 331.55 275.43 328.654 277.495L304.31 294.851Z" fill="#8C65F7"/>
<path d="M306.095 297.194L330.44 279.838L328.028 276.673L303.684 294.029L306.095 297.194ZM305.354 301.934C304.206 300.426 304.539 298.304 306.095 297.194L303.684 294.029C300.317 296.429 299.601 301.014 302.08 304.268L305.354 301.934ZM335.788 341.878L305.354 301.934L302.08 304.268L332.514 344.212L335.788 341.878ZM340.687 342.597C339.13 343.706 336.937 343.386 335.788 341.878L332.514 344.212C334.993 347.467 339.732 348.162 343.098 345.762L340.687 342.597ZM365.031 325.241L340.687 342.597L343.098 345.762L367.442 328.406L365.031 325.241ZM365.772 320.501C366.921 322.009 366.587 324.131 365.031 325.241L367.442 328.406C370.809 326.006 371.525 321.421 369.046 318.167L365.772 320.501ZM335.339 280.557L365.772 320.501L369.046 318.167L338.613 278.223L335.339 280.557ZM330.44 279.838C331.996 278.729 334.19 279.049 335.339 280.557L338.613 278.223C336.133 274.968 331.395 274.273 328.028 276.673L330.44 279.838ZM304.568 302.495C303.099 300.566 303.525 297.853 305.516 296.434L303.104 293.268C299.303 295.978 298.494 301.154 301.294 304.829L304.568 302.495ZM335.001 342.439L304.568 302.495L301.294 304.829L331.727 344.773L335.001 342.439ZM341.266 343.357C339.276 344.777 336.47 344.367 335.001 342.439L331.727 344.773C334.527 348.448 339.877 349.232 343.678 346.523L341.266 343.357ZM365.611 326.001L341.266 343.357L343.678 346.523L368.022 329.167L365.611 326.001ZM366.558 319.94C368.027 321.869 367.602 324.582 365.611 326.001L368.022 329.167C371.823 326.457 372.632 321.281 369.832 317.606L366.558 319.94ZM336.125 279.996L366.558 319.94L369.832 317.606L339.399 277.662L336.125 279.996ZM329.86 279.078C331.851 277.658 334.656 278.068 336.125 279.996L339.399 277.662C336.6 273.987 331.249 273.203 327.448 275.912L329.86 279.078ZM305.516 296.434L329.86 279.078L327.448 275.912L303.104 293.268L305.516 296.434Z" fill="#EE82EE" mask="url(#path-144-inside-1_3155_59548)"/>
<path d="M307.592 298.917L331.502 281.87C332.498 281.16 333.901 281.365 334.635 282.329L363.716 320.499C364.451 321.463 364.238 322.82 363.242 323.53L339.332 340.576C338.336 341.286 336.934 341.081 336.199 340.117L307.118 301.947C306.383 300.983 306.596 299.627 307.592 298.917Z" fill="#FCFAFF" stroke="#EE82EE" stroke-width="2"/>
<mask id="path-147-inside-2_3155_59548" fill="white">
<path fill-rule="evenodd" clip-rule="evenodd" d="M331.479 281.84L307.569 298.886C306.555 299.609 306.339 300.99 307.086 301.97L336.167 340.14C336.914 341.12 338.341 341.329 339.355 340.607L363.266 323.56C364.279 322.837 364.495 321.457 363.748 320.476L334.667 282.306C333.92 281.326 332.493 281.117 331.479 281.84ZM306.989 298.126C305.541 299.158 305.232 301.13 306.299 302.531L335.381 340.701C336.448 342.101 338.487 342.4 339.935 341.368L363.845 324.321C365.293 323.289 365.602 321.316 364.535 319.916L335.454 281.746C334.386 280.345 332.348 280.046 330.9 281.079L306.989 298.126Z"/>
</mask>
<path fill-rule="evenodd" clip-rule="evenodd" d="M331.479 281.84L307.569 298.886C306.555 299.609 306.339 300.99 307.086 301.97L336.167 340.14C336.914 341.12 338.341 341.329 339.355 340.607L363.266 323.56C364.279 322.837 364.495 321.457 363.748 320.476L334.667 282.306C333.92 281.326 332.493 281.117 331.479 281.84ZM306.989 298.126C305.541 299.158 305.232 301.13 306.299 302.531L335.381 340.701C336.448 342.101 338.487 342.4 339.935 341.368L363.845 324.321C365.293 323.289 365.602 321.316 364.535 319.916L335.454 281.746C334.386 280.345 332.348 280.046 330.9 281.079L306.989 298.126Z" fill="#8C65F7"/>
<path d="M308.774 300.469L332.685 283.422L330.274 280.257L306.363 297.304L308.774 300.469ZM308.723 300.803C308.641 300.696 308.666 300.546 308.774 300.469L306.363 297.304C304.444 298.672 304.037 301.284 305.449 303.137L308.723 300.803ZM337.804 338.973L308.723 300.803L305.449 303.137L334.53 341.307L337.804 338.973ZM338.149 339.024C338.041 339.102 337.886 339.08 337.804 338.973L334.53 341.307C335.942 343.161 338.642 343.557 340.561 342.189L338.149 339.024ZM362.06 321.977L338.149 339.024L340.561 342.189L364.471 325.143L362.06 321.977ZM362.111 321.643C362.193 321.751 362.168 321.9 362.06 321.977L364.471 325.143C366.39 323.775 366.797 321.163 365.385 319.309L362.111 321.643ZM333.03 283.474L362.111 321.643L365.385 319.309L336.304 281.139L333.03 283.474ZM332.685 283.422C332.794 283.345 332.948 283.366 333.03 283.474L336.304 281.139C334.892 279.286 332.192 278.889 330.274 280.257L332.685 283.422ZM307.936 301.364C307.534 300.836 307.652 300.095 308.195 299.708L305.783 296.543C303.43 298.221 302.93 301.424 304.662 303.698L307.936 301.364ZM337.018 339.534L307.936 301.364L304.662 303.698L333.744 341.868L337.018 339.534ZM338.729 339.785C338.186 340.172 337.42 340.061 337.018 339.534L333.744 341.868C335.476 344.142 338.787 344.628 341.14 342.95L338.729 339.785ZM362.64 322.738L338.729 339.785L341.14 342.95L365.051 325.903L362.64 322.738ZM362.898 321.083C363.3 321.61 363.183 322.351 362.64 322.738L365.051 325.903C367.404 324.226 367.904 321.022 366.172 318.748L362.898 321.083ZM333.817 282.913L362.898 321.083L366.172 318.748L337.091 280.579L333.817 282.913ZM332.105 282.661C332.648 282.274 333.415 282.385 333.817 282.913L337.091 280.579C335.358 278.305 332.047 277.819 329.694 279.496L332.105 282.661ZM308.195 299.708L332.105 282.661L329.694 279.496L305.783 296.543L308.195 299.708Z" fill="#EE82EE" mask="url(#path-147-inside-2_3155_59548)"/>
<path d="M686.382 261.855L692.752 257.179V243.696V230.134L686.544 225.458L686.382 261.855Z" fill="#8C65F7" stroke="#8C65F7" stroke-width="2" stroke-miterlimit="10" stroke-linejoin="round"/>
<path d="M686.388 388.916C686.386 389.455 686.998 389.767 687.432 389.448L692.484 385.739C692.653 385.615 692.752 385.419 692.752 385.21V372.059V358.825C692.752 358.619 692.655 358.425 692.491 358.301L687.588 354.609C687.157 354.284 686.54 354.59 686.538 355.13L686.388 388.916Z" fill="#8C65F7" stroke="#8C65F7" stroke-width="2" stroke-miterlimit="10" stroke-linejoin="round"/>
<path d="M631.642 417.42H675.02C681.713 417.42 687.195 412.12 687.195 405.651V340.34C687.195 333.871 681.713 328.572 675.02 328.572H631.561V417.42H631.642Z" fill="white" stroke="#8C65F7" stroke-width="2" stroke-miterlimit="10" stroke-linejoin="round"/>
<path d="M631.477 281.888H674.936C681.629 281.888 687.111 276.588 687.111 270.119V218.837C687.111 212.368 681.629 207.068 674.936 207.068H631.477V281.888Z" fill="white" stroke="#8C65F7" stroke-width="2" stroke-miterlimit="10" stroke-linejoin="round"/>
<path d="M242.77 490.118L340.483 523.257L571.162 252.269L472.956 220.783L242.77 490.118Z" fill="white" stroke="#8C65F7" stroke-width="2" stroke-miterlimit="10" stroke-linejoin="round"/>
<path d="M307.766 444.147L366.807 464.306L504.135 301.487L444.797 282.333L307.766 444.147Z" fill="#F0EBFF" stroke="#8C65F7" stroke-width="2" stroke-miterlimit="10" stroke-linejoin="round"/>
<path d="M380.569 394.413L391.79 397.987L382.348 409.768L370.717 405.929L380.569 394.413Z" fill="#02E2AC"/>
<path d="M402.327 386.735L413.685 390.441L403.97 401.958L392.201 398.119L402.327 386.735Z" fill="#02E2AC"/>
<path d="M425.317 354.171L420.117 352.45L415.738 357.613L420.938 359.334L425.317 354.171Z" fill="#8C65F7"/>
<path d="M403.833 361.981L398.496 360.26L394.117 365.423L399.454 367.144L403.833 361.981Z" fill="#8C65F7"/>
<path d="M377.011 412.018L371.811 410.297L367.295 415.46L372.632 417.181L377.011 412.018Z" fill="#8C65F7"/>
<path d="M395.485 388.456L390.285 386.735L385.906 391.897L391.106 393.618L395.485 388.456Z" fill="#8C65F7"/>
<path d="M440.917 299.766L435.717 298.045L431.201 303.208L436.538 304.928L440.917 299.766Z" fill="#5BF1CD"/>
<path d="M447.483 362.511L442.283 360.658L437.904 365.952L443.104 367.541L447.483 362.511Z" fill="#8C65F7"/>
<path d="M382.897 370.056L377.697 368.203L373.318 373.498L378.518 375.218L382.897 370.056Z" fill="#8C65F7"/>
<path d="M423.127 379.058L412.18 375.351L403.148 386.206L413.959 389.647L423.127 379.058Z" fill="#5BF1CD"/>
<path d="M475.813 311.68L470.613 309.826L466.234 315.121L471.434 316.842L475.813 311.68Z" fill="#8C65F7"/>
<path d="M491.823 298.045L354.297 460.467" stroke="#8C65F7" stroke-width="2" stroke-miterlimit="10" stroke-linejoin="round"/>
<path d="M480.192 294.206L342.666 456.76" stroke="#8C65F7" stroke-width="2" stroke-miterlimit="10" stroke-linejoin="round"/>
<path d="M468.561 290.5L331.719 452.392" stroke="#8C65F7" stroke-width="2" stroke-miterlimit="10" stroke-linejoin="round"/>
<path d="M456.792 286.661L320.771 447.759" stroke="#8C65F7" stroke-width="2" stroke-miterlimit="10" stroke-linejoin="round"/>
<path d="M317.486 432.933L376.876 451.73" stroke="#8C65F7" stroke-width="2" stroke-miterlimit="10" stroke-linejoin="round"/>
<path d="M327.34 421.284L386.456 440.479" stroke="#8C65F7" stroke-width="2" stroke-miterlimit="10" stroke-linejoin="round"/>
<path d="M337.193 409.768L396.035 429.227" stroke="#8C65F7" stroke-width="2" stroke-miterlimit="10" stroke-linejoin="round"/>
<path d="M346.908 398.252L406.298 417.314" stroke="#8C65F7" stroke-width="2" stroke-miterlimit="10" stroke-linejoin="round"/>
<path d="M356.76 386.735L415.876 406.062" stroke="#8C65F7" stroke-width="2" stroke-miterlimit="10" stroke-linejoin="round"/>
<path d="M366.475 375.219L425.454 394.148" stroke="#8C65F7" stroke-width="2" stroke-miterlimit="10" stroke-linejoin="round"/>
<path d="M376.328 363.702L435.718 382.896" stroke="#8C65F7" stroke-width="2" stroke-miterlimit="10" stroke-linejoin="round"/>
<path d="M386.182 352.186L409.855 359.731L421.487 363.57L445.298 370.983" stroke="#8C65F7" stroke-width="2" stroke-miterlimit="10" stroke-linejoin="round"/>
<path d="M395.896 340.537L454.876 359.731" stroke="#8C65F7" stroke-width="2" stroke-miterlimit="10" stroke-linejoin="round"/>
<path d="M405.748 329.02L464.454 347.817" stroke="#8C65F7" stroke-width="2" stroke-miterlimit="10" stroke-linejoin="round"/>
<path d="M415.465 317.504L474.033 336.433" stroke="#8C65F7" stroke-width="2" stroke-miterlimit="10" stroke-linejoin="round"/>
<path d="M425.318 305.988L483.887 324.917" stroke="#8C65F7" stroke-width="2" stroke-miterlimit="10" stroke-linejoin="round"/>
<path d="M435.17 294.471L493.601 313.268" stroke="#8C65F7" stroke-width="2" stroke-miterlimit="10" stroke-linejoin="round"/>
<path d="M571.161 252.114L570.274 252.816C577.289 252.894 584.465 252.972 591.721 252.972C619.216 252.972 645.017 252.114 667.674 250.634V215.562C645.017 214.081 619.216 213.224 591.721 213.224C544.876 213.224 502.707 215.718 473.197 219.615L571.161 252.114Z" fill="white" stroke="#8C65F7" stroke-width="2" stroke-miterlimit="10" stroke-linejoin="round"/>
<path d="M591.721 1.62274V522.088H667.674V75.0396C667.674 34.5123 633.648 1.62274 591.721 1.62274Z" fill="white" stroke="#8C65F7" stroke-width="2" stroke-miterlimit="10" stroke-linejoin="round"/>
<path d="M340.61 523.212L592.109 522.089V252.036H571.164L340.61 523.212Z" fill="white" stroke="#8C65F7" stroke-width="2" stroke-miterlimit="10" stroke-linejoin="round"/>
<path d="M470.779 65.3771L473.198 219.615L591.723 213.224V76.4442L470.779 65.3771Z" fill="white" stroke="#8C65F7" stroke-width="2" stroke-miterlimit="10" stroke-linejoin="round"/>
<path d="M544.555 44.8L591.723 76.4425V1.62274L544.555 33.1873V44.8Z" fill="white" stroke="#8C65F7" stroke-width="2" stroke-miterlimit="10" stroke-linejoin="round"/>
<ellipse rx="31.457" ry="5.79612" transform="matrix(-1 0 0 1 554.66 226.738)" fill="#E7E1FE"/>
<path d="M527.265 188.698L523.768 152.422C523.734 152.051 523.381 143.428 539.955 139.209C555.441 135.275 557.825 139.023 558.139 139.777L577.528 171.431C577.528 171.431 582.416 180.097 572.368 189.73C572.368 189.73 566.236 196.395 548.16 198.675C548.16 198.675 537.431 199.524 532.479 197.79C527.526 196.056 527.265 188.698 527.265 188.698Z" fill="white"/>
<path d="M575.607 167.889C574.88 168.795 566.512 182.251 554.269 182.93C552.389 182.933 550.644 181.983 549.75 180.5L547.394 176.654C546.735 175.686 544.691 174.3 541.551 175.612C537.332 177.411 526.839 181.215 526.73 181.249L527.557 191.34C527.557 191.34 529.051 197.348 534.849 198.258C540.638 199.141 553.833 200.3 568.386 192.601C585.86 183.393 575.607 167.889 575.607 167.889Z" fill="white"/>
<path d="M582.294 181.166C582.585 181.221 582.895 181.241 583.215 181.199C584.092 181.099 584.898 180.61 585.405 179.862L587.902 176.371C588.418 175.65 588.579 174.776 588.328 174.031C588.114 173.393 587.615 172.903 586.941 172.703L580.476 170.622C579.319 170.251 577.919 170.78 577.155 171.844L576.289 173.058C575.506 174.157 575.588 175.484 576.431 176.277L581.275 180.663C581.574 180.922 581.902 181.083 582.294 181.166Z" fill="white" stroke="#8C65F7" stroke-width="2" stroke-miterlimit="10"/>
<path d="M523.709 199.848C523.973 199.911 524.256 199.94 524.529 199.942L529.093 199.887C530.06 199.877 530.957 199.477 531.509 198.862C531.996 198.326 532.201 197.674 532.069 197.01L530.798 190.617C530.568 189.483 529.387 188.679 527.963 188.686L526.357 188.692C524.934 188.699 523.696 189.53 523.387 190.686L521.692 197.101C521.523 197.771 521.683 198.427 522.136 198.961C522.553 199.388 523.089 199.719 523.709 199.848Z" fill="white" stroke="#8C65F7" stroke-width="2" stroke-miterlimit="10"/>
<path d="M554.493 205.858C555.122 206.013 555.816 206 556.474 205.793L562.317 204.13C563.368 203.828 564.231 203.145 564.675 202.211C565.128 201.304 565.144 200.27 564.658 199.364L559.936 190.47C559.179 189.032 557.404 188.356 555.685 188.838L553.664 189.416C551.945 189.898 550.813 191.402 550.966 193.03L551.866 203.009C551.951 203.982 552.52 204.862 553.401 205.408C553.747 205.623 554.093 205.749 554.493 205.858Z" fill="white" stroke="#8C65F7" stroke-width="2" stroke-miterlimit="10"/>
<path d="M532.022 197.61C532.923 197.944 533.079 197.954 534.299 198.246C538.245 199.15 543.964 199.555 551.859 198.128" stroke="#8C65F7" stroke-width="2" stroke-miterlimit="10"/>
<path d="M562.501 195.308C576.516 190.248 578.025 181.569 578.463 177.549" stroke="#8C65F7" stroke-width="2" stroke-miterlimit="10"/>
<path d="M577.533 171.431L558.144 139.777C557.83 139.023 555.455 135.301 539.96 139.209C523.35 143.409 523.739 152.05 523.773 152.422L527.27 188.697" stroke="#8C65F7" stroke-width="2" stroke-miterlimit="10"/>
<path d="M554.07 158.79C554.741 158.079 555.919 157.973 556.765 158.412C557.62 158.878 558.143 159.802 558.219 160.748C558.294 161.695 557.886 162.647 557.288 163.394C557.031 163.71 556.737 164.009 556.361 164.156C555.647 164.469 554.828 164.198 554.081 163.963C553.872 163.881 553.671 163.827 553.499 163.675C553.336 163.55 553.209 163.355 553.083 163.159C552.244 161.659 553.844 158.568 554.07 158.79Z" fill="white"/>
<path d="M561.262 153.293C561.929 153.201 562.614 153.162 563.233 153.378C563.752 153.568 564.17 153.907 564.569 154.281C566.409 156.143 567.213 158.713 568.255 161.09C568.489 161.604 568.723 162.119 568.792 162.685C568.836 162.995 568.797 163.331 568.722 163.648C568.609 164.125 568.432 164.592 568.092 164.935C567.476 165.629 566.398 165.85 565.469 165.614C564.539 165.377 563.759 164.77 563.152 164.049C562.546 163.329 562.086 162.503 561.635 161.704C560.994 160.612 560.335 159.555 559.987 158.341C559.799 157.782 559.703 157.225 559.597 156.64C559.454 156.215 559.43 155.693 559.342 155.25C559.289 154.914 559.092 154.418 559.103 154.09C559.208 153.41 560.714 153.377 561.262 153.293Z" fill="white"/>
<path d="M564.008 149.464L572.668 164.02C572.668 164.02 560.449 177.484 555.984 172.508C551.546 167.524 549.722 161.923 549.722 161.923C549.722 161.923 547.977 158.54 564.008 149.464ZM561.373 156.873L565.481 163.401C565.996 164.21 567.007 164.509 567.749 164.099C568.079 163.907 568.29 163.634 568.393 163.308C568.524 162.885 568.472 162.371 568.193 161.901L564.084 155.372C563.57 154.564 562.559 154.264 561.817 154.674C561.487 154.866 561.275 155.139 561.173 155.465C561.014 155.897 561.066 156.41 561.373 156.873ZM553.525 162.225C554.086 162.901 555.319 162.866 556.3 162.175C557.244 161.466 557.58 160.39 557.019 159.714C556.458 159.038 555.225 159.073 554.244 159.764C553.291 160.446 552.964 161.549 553.525 162.225Z" fill="#6F3FF5"/>
<path d="M527.211 152.016C527.292 152.078 528.364 152.917 530.66 153.429C533.129 154.005 537.052 154.211 542.756 152.768C553.406 150.061 555.822 143.713 555.915 143.449" stroke="#8C65F7" stroke-width="2" stroke-miterlimit="10"/>
<path d="M575.431 167.976C574.704 168.882 566.336 182.338 554.094 183.017C552.214 183.02 550.468 182.07 549.574 180.587L547.218 176.741C546.559 175.773 544.515 174.387 541.376 175.699C537.156 177.498 526.663 181.302 526.554 181.336" stroke="#8C65F7" stroke-width="2" stroke-miterlimit="10"/>
<path d="M534.13 126.399C532.566 126.891 530.893 126.066 530.383 124.55C529.873 123.034 530.723 121.414 532.287 120.921C533.851 120.429 535.524 121.255 536.034 122.77C536.572 124.277 535.694 125.907 534.13 126.399Z" fill="#6F3FF5"/>
<path d="M542.152 145.548L534.169 126.242" stroke="#8C65F7" stroke-width="2" stroke-miterlimit="10"/>
<path d="M539.83 145.954C540.422 146.091 541.254 145.947 542.142 145.521C543.552 144.841 544.279 143.848 543.865 143.067C543.459 142.312 542.164 142.249 540.754 142.929C540.205 143.19 539.718 143.549 539.387 143.918C538.946 144.409 538.796 144.957 539.031 145.383C539.193 145.684 539.466 145.863 539.83 145.954Z" stroke="#8C65F7" stroke-width="2" stroke-miterlimit="10"/>
<path d="M530.364 133.791C536.149 135.292 542.139 131.995 543.719 126.41C545.299 120.825 541.87 115.053 536.085 113.551C530.3 112.049 524.31 115.347 522.73 120.932C521.15 126.517 524.579 132.289 530.364 133.791Z" stroke="#8C65F7" stroke-width="2" stroke-miterlimit="10"/>
<path d="M536.051 173.14C535.31 173.374 534.528 173.032 534.295 172.341C534.071 171.676 534.487 170.927 535.228 170.694C535.969 170.461 536.779 170.794 537.011 171.485C537.244 172.177 536.792 172.907 536.051 173.14Z" fill="#6F3FF5"/>
<path d="M534.883 166.332C534.142 166.565 533.36 166.223 533.127 165.532C532.895 164.84 533.319 164.119 534.06 163.885C534.801 163.652 535.592 164.02 535.816 164.685C536.04 165.35 535.624 166.098 534.883 166.332Z" fill="#6F3FF5"/>
<path d="M532.82 160.659C532.08 160.892 531.288 160.524 531.065 159.859C530.841 159.194 531.257 158.446 531.997 158.212C532.738 157.979 533.548 158.312 533.781 159.004C533.977 159.677 533.561 160.426 532.82 160.659Z" fill="#6F3FF5"/>
<path d="M560.318 206.847L559.467 204.586" stroke="#8C65F7" stroke-width="2" stroke-miterlimit="10"/>
<path d="M556.589 208.578L564.043 206.202" stroke="#8C65F7" stroke-width="2" stroke-miterlimit="10"/>
<path d="M526.795 201.991L526.656 199.594" stroke="#8C65F7" stroke-width="2" stroke-miterlimit="10"/>
<path d="M531.183 202.227L523.368 202.717" stroke="#8C65F7" stroke-width="2" stroke-miterlimit="10"/>
<path d="M589.043 179.128L586.852 177.848" stroke="#8C65F7" stroke-width="2" stroke-miterlimit="10"/>
<path d="M591.568 176.098L587.056 182.077" stroke="#8C65F7" stroke-width="2" stroke-miterlimit="10"/>
<path d="M645.422 109.412C642.929 109.412 640.907 106.585 640.907 103.099C640.907 99.6123 642.929 96.7859 645.422 96.7859C647.916 96.7859 649.938 99.6123 649.938 103.099C649.938 106.585 647.916 109.412 645.422 109.412Z" fill="#8C65F7" stroke="#8C65F7" stroke-width="2" stroke-miterlimit="10" stroke-linejoin="round"/>
<path d="M470.779 1L591.723 1.6235L544.555 33.1881L432.319 25.6282L470.779 1Z" fill="white" stroke="#8C65F7" stroke-width="2" stroke-miterlimit="10" stroke-linejoin="round"/>
<path d="M544.561 44.8006V33.1879L432.325 25.628V33.7335L544.561 44.8006Z" fill="white" stroke="#8C65F7" stroke-width="2" stroke-miterlimit="10"/>
<path d="M591.723 76.4429L470.779 65.3758L432.319 33.7333L544.555 44.8004L591.723 76.4429Z" fill="white" stroke="#8C65F7" stroke-width="2" stroke-miterlimit="10" stroke-linejoin="round"/>
<path d="M570.277 252.814L341.372 522.088" stroke="#8C65F7" stroke-width="2" stroke-miterlimit="10"/>
<path d="M690.663 246.891C695.582 246.891 699.613 242.995 699.613 238.24V111.748C699.613 106.994 695.582 103.097 690.663 103.097H644.382" stroke="#8C65F7" stroke-width="2" stroke-miterlimit="10"/>
<path d="M692.05 373.8C696.969 373.8 701 369.903 701 365.149V245.275C701 240.521 696.969 236.624 692.05 236.624" stroke="#8C65F7" stroke-width="2" stroke-miterlimit="10"/>
</svg>
