<svg width="601" height="402" viewBox="0 0 601 402" fill="none" xmlns="http://www.w3.org/2000/svg">
<path d="M321.494 349.805H228.234C225.684 349.805 223.256 348.367 222.163 346.089L212.813 327.032C210.627 322.597 213.905 317.443 218.884 317.443H330.844C335.823 317.443 339.101 322.597 336.916 327.032L327.565 346.089C326.473 348.367 324.165 349.805 321.494 349.805Z" fill="white" stroke="#5BF1CD" stroke-width="2.68529" stroke-miterlimit="10" stroke-linejoin="round"/>
<path d="M136.433 326.193L85.3105 291.793H470.978L419.855 326.193H136.433Z" fill="white" stroke="#5BF1CD" stroke-width="2.68529" stroke-miterlimit="10" stroke-linejoin="round"/>
<path d="M469.034 292.393L419.611 325.474H136.554L87.2524 292.393H469.034ZM472.919 291.194H83.2451L136.189 326.672H419.975L472.919 291.194Z" fill="white" stroke="#5BF1CD" stroke-width="2.68529" stroke-miterlimit="10" stroke-linejoin="round"/>
<path d="M472.919 283.883H83.2451V291.194H472.919V283.883Z" fill="white" stroke="#5BF1CD" stroke-width="2.68529" stroke-miterlimit="10" stroke-linejoin="round"/>
<path d="M469.885 283.284H86.4036C79.482 283.284 74.8676 276.092 77.9034 269.859L87.618 250.202L108.626 208.012C110.204 204.896 113.24 202.978 116.762 202.858C116.883 202.858 117.004 202.858 117.126 202.858H439.041C442.684 202.858 445.963 204.896 447.541 208.012L478.264 269.739C481.421 275.972 476.807 283.284 469.885 283.284Z" fill="#E0FFF2" stroke="#5BF1CD" stroke-width="2.68529" stroke-miterlimit="10" stroke-linejoin="round"/>
<path d="M83.0029 259.551H473.163L468.549 250.322H87.6173L83.0029 259.551Z" fill="#5BF1CD"/>
<path d="M285.31 369.333C372.36 369.333 442.928 367.133 442.928 364.419C442.928 361.705 372.36 359.505 285.31 359.505C198.26 359.505 127.691 361.705 127.691 364.419C127.691 367.133 198.26 369.333 285.31 369.333Z" fill="#E6FFF9"/>
<path d="M237.254 30.4206L245.092 40.6216L243.657 41.6577L235.819 31.4567L237.254 30.4206ZM252.93 50.8228L260.768 61.0238L259.333 62.0599L251.495 51.8589L252.93 50.8228Z" fill="#02E2AC"/>
<path d="M215.737 67.4289L226.506 74.6948L225.485 76.1189L214.716 68.853L215.737 67.4289Z" fill="#02E2AC"/>
<path d="M316.823 28.1272L318.265 29.1543L310.497 39.4052L309.055 38.3781L316.823 28.1272ZM301.286 48.6291L302.728 49.6561L294.96 59.9071L293.518 58.88L301.286 48.6291Z" fill="#02E2AC"/>
<path d="M334.554 70.5658L335.608 71.9667L325.01 79.4655L323.956 78.0646L334.554 70.5658Z" fill="#02E2AC"/>
<path d="M279.815 37.5167L280.037 50.2355L278.248 50.2648L278.026 37.5461L279.815 37.5167Z" fill="#02E2AC"/>
<path d="M300.786 161.334C300.511 160.215 300.178 159.303 299.898 158.571C300.054 158.446 300.256 158.22 300.292 157.872C300.36 157.563 300.177 157.263 300.118 157.151C299.907 156.778 300.223 157.162 299.196 154.034C299.007 153.452 298.762 152.724 298.458 151.884C298.359 151.804 297.941 151.374 298.072 151.141C298.161 150.975 298.447 150.969 298.873 150.977C300.333 150.984 300.576 151.044 300.975 150.979C301.631 150.835 302.07 150.387 302.395 149.998C303.605 148.644 303.374 146.757 303.305 146.398C306.967 152.959 307.935 168.284 307.935 168.284L306.713 167.702L306.555 173.664L308.129 174.281L319.644 174.888L320.191 168.614L319.144 168.754C319.213 168.093 319.181 157.118 319.039 155.064C318.932 153.014 317.124 144.039 317.071 141.818C317.021 139.563 315.46 135.395 313.723 131.21C311.99 126.99 309.056 123.352 309.056 123.352L309.687 116.277C309.687 116.277 308.832 113.201 305.282 110.344C301.767 107.491 296.433 104.663 296.433 104.663L295.306 103.177C293.145 101.692 289.022 100.57 289.022 100.57C289.126 102.655 289.194 104.737 289.297 106.822C290.079 107.183 291.209 107.614 292.668 107.973C294.06 108.29 294.424 108.222 294.606 108.521C295.343 109.651 291.629 113.845 288.038 116.505C285.525 118.395 280.817 121.187 273.243 122.07C267.412 121.619 264.743 120.223 263.256 118.77C262.447 117.985 261.892 117.155 261.478 116.339C261.539 111.317 262.132 109.725 262.68 109.253C262.8 109.124 263.419 108.66 263.456 107.96C263.454 107.643 263.373 107.389 263.282 107.239C260.314 108.028 259.021 111.202 259.021 111.202C258.121 111.638 256.98 112.331 255.838 113.375C254.222 114.864 253.276 116.421 252.772 117.495C252.491 119.506 252.045 122.414 251.401 125.865C250.051 133.007 249.289 136.552 247.99 139.444C246.603 142.503 236.575 150.522 236.575 150.522L235.742 149.629L231.59 152.548L232.223 153.315L230.484 153.244C230.484 153.244 229.005 153.762 227.71 154.228C226.414 154.695 226.957 155.981 226.957 155.981C226.957 155.981 226.085 156.49 224.686 157.262C223.287 158.034 223.653 159.654 223.653 159.654C223.653 159.654 226.21 165.54 226.946 167.021C227.682 168.502 228.847 168.269 230.505 168.086C232.159 167.937 233.206 166.778 235.559 165.399C237.911 164.02 238.278 162.897 238.278 162.897L238.841 164.326L243.371 161.199L243.032 160.004C243.032 160.004 249.651 155.296 253.49 151.959C257.329 148.621 259.115 144.477 259.115 144.477C259.363 145.522 259.602 150.399 259.602 150.399L258.473 150.636L257.635 155.263L257.384 157.664C257.384 157.664 255.378 158.639 252.015 164.398C248.652 170.157 284.602 167.075 300.786 161.334Z" fill="white"/>
<path d="M289.291 106.891L294.6 108.591C294.586 108.73 294.56 108.974 294.535 109.217C294.237 111.051 292.974 112.224 291.521 113.518C289.28 115.541 288.145 116.516 286.99 117.348C285.378 118.45 283.573 119.708 280.837 120.661C278.73 121.397 276.885 121.666 275.594 121.746C272.299 122.256 269.712 121.782 268.221 121.384C266.107 120.818 263.989 120.286 262.518 118.344C262.268 118.002 260.99 116.254 261.056 113.905C261.12 112.61 261.585 111.568 262.008 110.591C262.008 110.591 262.238 110.087 263.599 107.623L262.267 101.263C262.267 101.263 258.479 82.2412 261.97 77.4617C265.46 72.6822 269.393 70.1629 278.437 71.5737C287.305 72.9667 288.247 85.1238 288.247 85.1238L289.291 106.891Z" fill="white"/>
<path d="M267.219 106.725C268.005 107.051 269.263 107.284 270.79 107.333C271.964 107.347 272.917 107.092 273.658 106.816" stroke="#7443FA" stroke-width="1.43216" stroke-miterlimit="10"/>
<path d="M266.651 107.722C266.687 107.374 266.724 107.026 266.877 106.584C267.04 106.038 267.323 105.715 267.465 105.378" stroke="#7443FA" stroke-width="1.43216" stroke-miterlimit="10"/>
<path d="M273.788 105.563C273.868 105.818 274.068 106.295 274.127 106.758C274.185 107.221 274.138 107.674 274.102 108.022" stroke="#7443FA" stroke-width="1.43216" stroke-miterlimit="10"/>
<path d="M259.656 151.249C259.703 150.796 259.906 148.848 259.076 144.508C259.007 144.15 258.902 143.787 258.829 143.464C258.581 142.419 258.349 141.235 258.162 139.95C258.092 139.591 257.988 139.229 258.009 139.02C257.951 138.557 257.857 138.09 257.798 137.627C256.658 128.404 260.052 120.449 260.768 119.045" stroke="#7443FA" stroke-width="1.43216" stroke-miterlimit="10"/>
<path d="M289.06 102.262C293.231 103.6 294.533 105.807 294.718 107.443C294.951 108.627 294.563 109.959 293.784 110.935C291.371 113.925 282.781 123.532 270.595 121.837C270.349 121.812 270.243 121.801 270.031 121.78C265.65 121.089 262.753 119.493 261.762 117.037C259.979 112.952 263.406 108.096 263.534 107.898" stroke="#7443FA" stroke-width="1.43216" stroke-miterlimit="10"/>
<path d="M288.914 96.8309L288.981 100.635L289.014 101.342L289.025 102.258L289.048 103.069L289.22 106.884L289.242 107.695L288.89 107.659C284.951 107.505 283.066 114.312 283.066 114.312L283.041 114.555L282.783 114.635C277.423 115.813 273.534 115.875 270.795 115.492C268.726 115.176 267.398 114.584 266.388 114.024C265.282 113.349 264.696 112.481 264.25 111.979C264.028 111.71 263.944 111.49 263.97 111.247C263.98 111.142 263.98 111.142 263.98 111.142L263.641 108.928L263.467 108.207L263.387 107.953L263.212 107.232L262.407 101.629L262.418 101.525" stroke="#7443FA" stroke-width="1.43216" stroke-miterlimit="10"/>
<path d="M289.121 100.65C289.368 100.675 293.82 101.373 295.98 104.23C296.075 104.345 296.191 104.603 296.391 104.729C296.602 105.102 296.777 105.471 296.85 105.795C297.214 106.746 297.2 107.905 297.081 109.054C297.055 109.297 296.917 109.6 296.891 109.843C296.866 110.087 296.738 110.285 296.572 110.514C293.861 116.357 281.853 125.265 271.126 123.93C270.773 123.894 270.421 123.858 270.104 123.826C264.605 122.916 262.34 121.068 261.329 119.489C261.107 119.22 261.034 118.896 260.954 118.642C260.579 117.795 260.652 117.099 260.652 117.099L261.254 113.714" stroke="#7443FA" stroke-width="1.43216" stroke-miterlimit="10"/>
<path d="M294.6 108.591L289.618 107.171" stroke="#7443FA" stroke-width="1.43216" stroke-miterlimit="10"/>
<path d="M258.037 139.093C257.71 138.814 253.342 134.924 255.72 120.994C256.348 117.366 257.199 114.674 258.114 112.727C258.267 112.286 258.55 111.963 258.692 111.626C260.6 108.022 262.622 107.418 263.458 107.257" stroke="#7443FA" stroke-width="1.43216" stroke-miterlimit="10"/>
<path d="M262.171 117.887C262.185 116.728 262.438 112.253 264.074 111.258" stroke="#7443FA" stroke-width="1.43216" stroke-miterlimit="10"/>
<path d="M285.668 118.057C287.146 110.717 291.804 108.412 291.836 108.099" stroke="#7443FA" stroke-width="1.43216" stroke-miterlimit="10"/>
<path d="M303.051 114.654L296.861 110.122" stroke="#7443FA" stroke-width="1.43216" stroke-miterlimit="10"/>
<path d="M236.645 150.529C238.317 149.187 244.82 143.87 247.812 139.778C249.964 136.902 250.926 130.072 251.59 124.724C252.04 121.429 252.338 118.576 252.952 117.126C254.344 113.681 257.59 111.936 258.459 111.462C258.576 111.368 259.059 111.171 259.059 111.171" stroke="#7443FA" stroke-width="1.43216" stroke-miterlimit="10"/>
<path d="M259.075 144.509C256.223 151.709 243.978 159.467 242.993 160.036" stroke="#7443FA" stroke-width="1.43216" stroke-miterlimit="10"/>
<path d="M243.333 161.231C243.264 160.872 243.053 160.499 242.98 160.175C242.9 159.921 242.78 159.698 242.7 159.443C241.237 155.708 238.643 152.561 237.163 151.039C236.942 150.771 236.847 150.656 236.646 150.53C236.33 150.146 235.999 149.901 235.999 149.901L235.778 149.633L231.626 152.552L231.847 152.82C231.942 152.936 232.164 153.204 232.259 153.319C232.469 153.692 232.765 153.933 232.986 154.202C235.885 157.837 237.34 160.622 238.09 162.316C238.17 162.57 238.3 162.689 238.278 162.898C238.573 163.49 238.642 163.849 238.642 163.849L238.842 164.326L243.333 161.231Z" stroke="#7443FA" stroke-width="1.43216" stroke-miterlimit="10"/>
<path d="M232.315 153.781L231.904 153.282L231.199 153.211C230.952 153.186 230.741 153.164 230.483 153.244L227.709 154.228C227.345 154.296 227.098 154.623 226.92 154.956C226.743 155.29 226.731 155.746 226.921 155.976L227.001 156.231L227.281 156.962L228.616 159.876C228.816 160.353 229.249 160.644 229.566 160.676C229.813 160.701 230.024 160.722 230.282 160.643L232.482 159.706C232.86 159.498 233.093 159.311 233.27 158.977C233.328 158.42 233.364 158.072 233.154 157.699L231.444 153.939L232.315 153.781Z" stroke="#7443FA" stroke-width="1.43216" stroke-miterlimit="10"/>
<path d="M238.489 162.919C236.889 164.937 233.312 166.789 230.469 168.082C229.986 168.28 229.4 168.431 228.811 168.266C228.565 168.241 228.459 168.23 228.258 168.104C227.578 167.789 226.956 167.269 226.672 166.572L223.918 160.525C223.638 159.793 223.616 158.982 223.896 158.342C224.216 157.672 224.743 157.057 225.449 156.777L227.063 155.992L227.179 155.898" stroke="#7443FA" stroke-width="1.43216" stroke-miterlimit="10"/>
<path d="M306.467 120.17C306.478 120.065 307.103 118.511 306.448 116.933C305.989 115.866 305.004 115.063 303.666 114.575L303.56 114.565L303.443 114.658C303.443 114.658 303.327 114.752 302.96 114.855C302.843 114.949 302.582 115.063 302.465 115.157C299.654 116.489 291.693 121.096 289.615 129.746C289.18 131.53 289.14 133.285 289.329 134.886C289.303 135.13 289.387 135.349 289.503 135.607C289.784 137.359 290.428 139.042 291.214 140.387C291.294 140.642 291.519 140.876 291.599 141.13C292.455 142.834 294.109 145.077 296.869 146.623C297.302 146.913 297.644 147.054 298.091 147.205C298.375 145.51 298.799 143.83 299.083 142.136C298.577 141.522 297.944 140.755 297.438 140.14C296.947 139.387 296.546 138.784 296.02 138.027C295.175 136.218 294.368 133.71 294.76 130.972C295.268 127.12 297.991 123.564 302.858 120.612C303.353 120.311 304.2 120.045 305.268 120.048C305.656 120.087 306.115 120.134 306.467 120.17Z" stroke="#7443FA" stroke-width="1.43216" stroke-miterlimit="10"/>
<path d="M306.467 120.17C306.984 120.68 307.605 121.551 308.428 122.549C308.649 122.818 308.839 123.048 309.049 123.421C311.912 127.404 315.888 134.032 317.067 141.853L317.057 141.957" stroke="#7443FA" stroke-width="1.43216" stroke-miterlimit="10"/>
<path d="M318.289 149.959C318.278 150.063 318.369 150.213 318.358 150.318C319.596 156.211 319.21 166.756 319.087 168.959C319.061 169.202 319.051 169.307 319.051 169.307L319.025 169.55L318.768 169.63C318.404 169.698 317.931 169.791 317.568 169.859C316.626 170.01 315.699 170.021 314.736 170.029C313.703 170.03 312.751 169.933 311.845 169.735C309.776 169.42 308.191 168.907 308.085 168.896L307.743 168.756L307.885 168.419C307.885 168.419 307.885 168.419 307.896 168.315C307.922 168.071 307.874 167.503 307.652 166.215C307.382 164.359 306.905 161.075 305.904 154.961C305.321 151.666 304.324 148.928 303.269 146.746C303.188 146.491 303.069 146.268 302.868 146.143C300.616 142.116 297.788 139.859 296.485 139.024" stroke="#7443FA" stroke-width="1.43216" stroke-miterlimit="10"/>
<path d="M297.831 146.892L297.921 151.583" stroke="#7443FA" stroke-width="1.43216" stroke-miterlimit="10"/>
<path d="M303.378 146.891L303.013 148.865C302.751 150.35 301.366 151.335 299.85 151.181L298.028 150.89" stroke="#7443FA" stroke-width="1.43216" stroke-miterlimit="10"/>
<path d="M296.392 104.729C298.282 105.73 309.967 112.226 309.717 117.019C309.547 121.045 309.217 122.84 309.05 123.421C309.039 123.525 309.024 123.665 309.024 123.665" stroke="#7443FA" stroke-width="1.43216" stroke-miterlimit="10"/>
<path d="M320.184 168.683L319.715 168.741C319.468 168.716 319.352 168.81 319.14 168.788C318.671 168.846 318.198 168.939 317.729 168.997L317.623 168.986C316.681 169.136 315.754 169.148 314.791 169.155C311.406 169.163 309.02 168.464 307.883 168.102C307.435 167.951 307.188 167.926 307.188 167.926L306.741 167.775L306.583 173.737L306.818 173.866C307.266 174.017 307.71 174.203 308.157 174.354C308.404 174.379 308.604 174.505 308.851 174.53C309.757 174.728 310.659 174.96 311.6 175.161C314.586 175.57 316.948 175.458 318.25 175.274C318.614 175.205 318.825 175.227 318.981 175.102C319.238 175.022 319.344 175.033 319.45 175.044L319.707 174.964L320.184 168.683Z" fill="white" stroke="#7443FA" stroke-width="1.43216" stroke-miterlimit="10"/>
<path d="M283.022 98.6591C283.069 98.2067 284.081 87.4787 280.735 83.6927C280.007 82.8101 279.021 82.3583 277.949 82.3901C272.579 82.3018 264.14 82.6051 261.565 82.6953C261.213 82.6595 260.99 82.7424 260.849 82.7281L260.743 82.7174L259.086 83.9205L257.969 84.7213L257.959 84.8257C257.911 85.2781 256.1 95.8193 260.479 100.976L260.574 101.091L260.679 101.102C260.785 101.113 261.596 101.195 262.759 101.313C263.006 101.338 263.218 101.36 263.57 101.396C267.166 101.761 273.442 102.047 277.628 100.854C277.733 100.865 280.602 100.347 282.976 98.7599L283.022 98.6591Z" fill="#59FDD5"/>
<path d="M283.022 98.6591C283.069 98.2067 284.081 87.4787 280.735 83.6927C280.007 82.8101 279.021 82.3583 277.949 82.3901C272.579 82.3018 264.14 82.6051 261.565 82.6953C261.213 82.6595 260.99 82.7424 260.849 82.7281L260.743 82.7174L259.086 83.9205L257.969 84.7213L257.959 84.8257C257.911 85.2781 256.1 95.8193 260.479 100.976L260.574 101.091L260.679 101.102C260.785 101.113 261.596 101.195 262.759 101.313C263.006 101.338 263.218 101.36 263.57 101.396C267.166 101.761 273.442 102.047 277.628 100.854C277.733 100.865 280.602 100.347 282.976 98.7599L283.022 98.6591Z" stroke="#7443FA" stroke-width="1.43216" stroke-miterlimit="10"/>
<path d="M261.661 86.2219C264.257 85.9229 277.093 84.8001 278.064 87.7823C279.269 91.9486 279.471 99.9164 279.435 100.264" stroke="#7443FA" stroke-width="1.43216" stroke-miterlimit="10"/>
<path d="M260.722 82.9268C260.748 82.6832 260.482 78.4012 263.753 75.0412C266.12 72.5035 269.752 71.1494 274.312 71.1553C287.769 70.9044 288.292 85.0235 288.281 85.1278" stroke="#7443FA" stroke-width="1.43216" stroke-miterlimit="10"/>
<path d="M259.063 84.1293C258.816 83.0844 258.014 76.4271 261.991 71.7673C264.662 68.698 268.673 67.1361 274.159 67.1307C279.4 67.1002 283.584 68.6505 286.4 71.7145C291.107 76.7991 290.839 84.1564 290.734 85.1655" stroke="#7443FA" stroke-width="1.43216" stroke-miterlimit="10"/>
<path d="M292.557 85.4554L292.477 85.2011L292.23 85.176C292.23 85.176 291.772 85.1295 290.703 85.1264C290.457 85.1014 290.019 85.1976 289.772 85.1725C289.314 85.126 288.824 85.0411 288.246 85.123C287.999 85.0979 287.769 85.2504 287.558 85.2289C286.983 85.276 286.387 85.1804 285.766 85.3283L285.508 85.4076L285.483 85.6512C285.341 85.9884 282.866 92.981 286.667 96.8483L286.762 96.9634L286.868 96.9742C286.974 96.9849 287.432 97.0315 288.042 96.9879C288.289 97.013 288.511 96.9301 288.758 96.9552C289.7 96.8047 290.896 96.6097 292.143 95.9275L292.259 95.8338L292.27 95.7295C292.581 95.4797 294.336 90.9459 292.557 85.4554Z" fill="#59FDD5"/>
<path d="M292.557 85.4564L292.477 85.2021L292.23 85.1771C292.23 85.1771 286.391 85.1466 285.801 85.3329L285.544 85.4123L285.518 85.6558C285.376 85.993 282.902 92.9857 286.702 96.853L286.797 96.9681L286.903 96.9788C287.009 96.9896 287.467 97.0361 288.077 96.9926C288.324 97.0176 288.546 96.9347 288.793 96.9598C289.735 96.8093 290.931 96.6143 292.178 95.9321L292.294 95.8385L292.418 95.6752C292.422 95.6404 292.457 95.644 292.461 95.6092C292.833 95.1195 294.284 90.7658 292.557 85.4564Z" stroke="#7443FA" stroke-width="1.43216" stroke-miterlimit="10"/>
<path d="M288.598 91.9816C287.157 89.0573 289.03 85.4497 289.052 85.2409" stroke="#7443FA" stroke-width="1.43216" stroke-miterlimit="10"/>
<path d="M269.583 143.5C265.343 142.823 262.492 138.736 263.199 134.342C263.907 129.948 267.921 126.979 272.055 127.646C276.296 128.322 279.147 132.41 278.451 136.699C277.884 141.108 273.824 144.177 269.583 143.5Z" stroke="#7443FA" stroke-width="1.43216" stroke-miterlimit="10"/>
<path d="M288.584 134.847C289.053 134.789 289.3 134.814 289.773 134.721" stroke="#7443FA" stroke-width="1.43216" stroke-miterlimit="10"/>
<path d="M278.679 134.508C279.384 134.579 281.112 134.755 281.817 134.827" stroke="#7443FA" stroke-width="1.43216" stroke-miterlimit="10"/>
<path d="M258.072 129.532C258.072 129.532 260.505 130.799 263.898 131.741" stroke="#7443FA" stroke-width="1.43216" stroke-miterlimit="10"/>
<path d="M288.451 140.564C289.639 140.439 290.32 140.403 291.4 140.301" stroke="#7443FA" stroke-width="1.43216" stroke-miterlimit="10"/>
<path d="M277.298 140.24C278.461 140.358 279.837 140.498 281.106 140.627" stroke="#7443FA" stroke-width="1.43216" stroke-miterlimit="10"/>
<path d="M257.688 135.612C257.688 135.612 260.248 136.68 263.207 137.684" stroke="#7443FA" stroke-width="1.43216" stroke-miterlimit="10"/>
<path d="M319.971 148.513L319.014 143C318.944 142.641 318.734 142.268 318.403 142.024C318.076 141.744 317.723 141.708 317.25 141.801L316.993 141.88L316.262 142.052L316.005 142.132C315.274 142.304 314.747 142.918 314.921 143.639L315.118 145.171L313.635 147.095L315.773 147.77L316.196 149.184C316.385 149.766 316.807 150.16 317.371 150.218C317.476 150.228 317.617 150.243 317.617 150.243C317.723 150.253 317.864 150.268 317.981 150.174L318.344 150.106L318.828 149.909C319.572 149.949 320.114 149.195 319.971 148.513Z" fill="#59FDD5"/>
<path d="M319.971 148.513L319.014 143C318.944 142.641 318.734 142.268 318.403 142.024C318.076 141.744 317.723 141.708 317.25 141.801L316.993 141.88L316.262 142.052L316.005 142.132C315.274 142.304 314.747 142.918 314.921 143.639L315.118 145.171L313.635 147.095L315.773 147.77L316.196 149.184C316.385 149.766 316.807 150.16 317.371 150.218C317.476 150.228 317.617 150.243 317.617 150.243C317.723 150.253 317.864 150.268 317.981 150.174L318.344 150.106L318.828 149.909C319.572 149.949 320.114 149.195 319.971 148.513Z" stroke="#7443FA" stroke-width="1.43216" stroke-miterlimit="10"/>
<path d="M283.339 163.922C283.231 163.911 283.088 163.897 282.981 163.886C282.516 163.839 282.148 163.907 281.684 163.859C278.835 163.816 276.154 163.544 273.488 163.133C271.033 162.778 268.26 162.355 265.862 161.444" stroke="#7443FA" stroke-width="1.43216" stroke-miterlimit="10"/>
<path d="M263.134 160.604C263.028 160.593 262.898 160.474 262.793 160.463C259.443 159.103 257.683 157.87 257.578 157.859L257.342 157.73L258.336 151.607C258.373 151.259 258.641 151.075 258.878 150.853C258.995 150.759 259.241 150.784 259.453 150.806C259.559 150.816 259.7 150.831 259.795 150.946C259.9 150.957 260.031 151.075 260.136 151.086C261.242 151.761 262.569 152.353 264.14 153.005C264.246 153.015 264.482 153.145 264.588 153.156" stroke="#7443FA" stroke-width="1.43216" stroke-miterlimit="10"/>
<path d="M267.059 154.387C271.122 155.243 274.862 155.739 274.969 155.75C277.778 156.17 280.466 156.366 282.83 156.548" stroke="#7443FA" stroke-width="1.43216" stroke-miterlimit="10"/>
<path d="M289.499 156.143C289.605 156.154 289.757 156.064 289.862 156.075C294.425 155.026 296.377 153.044 297.167 151.964L297.283 151.87C297.414 151.637 297.672 151.558 298.014 151.698C298.366 151.734 298.552 151.999 298.672 152.222L300.299 157.803L300.288 157.907C300.288 157.907 300.157 158.14 299.863 158.567C299.732 158.8 299.569 158.995 299.332 159.217C298.027 160.456 295.507 162.415 290.384 163.372C290.278 163.361 289.651 163.282 289.499 163.372" stroke="#7443FA" stroke-width="1.43216" stroke-miterlimit="10"/>
<path d="M289.126 164.51L284.178 164.816C283.825 164.78 283.625 164.655 283.52 164.292L283.096 156.056C283.132 155.708 283.26 155.51 283.627 155.406L288.575 155.1L288.681 155.111C288.787 155.122 288.928 155.136 289.023 155.251C289.117 155.366 289.244 155.52 289.233 155.624L289.657 163.861C289.621 164.209 289.338 164.531 289.126 164.51Z" stroke="#7443FA" stroke-width="1.43216" stroke-miterlimit="10"/>
<path d="M265.472 161.756C265.436 162.104 264.956 162.266 264.603 162.23L263.451 162.008C263.345 161.997 263.003 161.857 263.018 161.718C262.923 161.602 262.938 161.463 262.959 161.254L264.721 152.22C264.757 151.872 265.237 151.71 265.484 151.735L266.636 151.958C266.742 151.968 267.084 152.108 267.069 152.248C267.164 152.363 267.149 152.502 267.128 152.711L265.472 161.756Z" stroke="#7443FA" stroke-width="1.43216" stroke-miterlimit="10"/>
<path d="M261.232 151.866L260.001 159.231" stroke="#7443FA" stroke-width="1.43216" stroke-miterlimit="10"/>
<path d="M270.456 154.671L269.395 162.46" stroke="#7443FA" stroke-width="1.43216" stroke-miterlimit="10"/>
<path d="M275.629 155.925L274.581 162.892" stroke="#7443FA" stroke-width="1.43216" stroke-miterlimit="10"/>
<path d="M280.085 156.91L279.385 163.626" stroke="#7443FA" stroke-width="1.43216" stroke-miterlimit="10"/>
<path d="M291.63 155.868L292.679 162.55" stroke="#7443FA" stroke-width="1.43216" stroke-miterlimit="10"/>
<path d="M295.202 154.05L296.72 160.675" stroke="#7443FA" stroke-width="1.43216" stroke-miterlimit="10"/>
<path d="M280.633 72.3604L276.631 76.9122C275.984 77.6553 274.974 78.1153 274.057 78.0223L269.509 77.9119C269.262 77.8869 269.156 77.8761 269.05 77.8654C267.686 77.6214 266.607 76.7029 266.293 75.2645L265.791 73.2443" stroke="#7443FA" stroke-width="1.43216" stroke-miterlimit="10"/>
<path d="M284.44 142.127C284.324 142.22 284.062 142.334 283.957 142.324L282.113 142.242C281.866 142.217 281.76 142.206 281.68 141.952C281.585 141.837 281.469 141.579 281.48 141.474L281.853 134.479C281.889 134.131 282.172 133.808 282.641 133.75L284.38 133.822L284.485 133.832C284.591 133.843 284.827 133.972 284.918 134.122C285.013 134.237 285.129 134.495 285.118 134.6L284.851 141.606C284.688 141.8 284.568 141.928 284.44 142.127Z" stroke="#7443FA" stroke-width="1.43216" stroke-miterlimit="10"/>
<path d="M287.474 142.083L286.074 142.187C285.968 142.176 285.968 142.176 285.838 142.057C285.743 141.942 285.628 141.684 285.649 141.475L285.917 134.47C285.964 134.017 286.247 133.694 286.458 133.716L287.859 133.612L287.964 133.623C288.07 133.633 288.07 133.633 288.2 133.752C288.295 133.867 288.411 134.125 288.389 134.334L288.122 141.34C287.969 141.781 287.721 142.108 287.474 142.083Z" stroke="#7443FA" stroke-width="1.43216" stroke-miterlimit="10"/>
<path d="M272.446 135.177C272.661 135.515 272.723 135.943 272.683 136.326C272.643 136.709 272.458 137.112 272.214 137.404L272.668 137.837C273.029 137.451 273.259 136.947 273.314 136.425C273.372 135.869 273.254 135.294 272.945 134.841L272.637 135.056L272.446 135.177Z" fill="#24FBC7"/>
<path d="M273.058 138.192L271.532 136.771C271.652 136.643 271.744 136.441 271.798 136.271C271.82 136.062 271.802 135.884 271.715 135.7L272.563 135.082L273.454 134.399C273.528 134.372 273.539 134.267 273.472 134.225L273.377 134.11C272.839 133.458 272.1 133.031 271.257 132.91L271.305 132.458C271.308 132.423 271.312 132.388 271.315 132.354C271.319 132.319 271.287 132.28 271.287 132.28C271.287 132.28 271.256 132.242 271.224 132.204C271.189 132.2 271.157 132.162 271.157 132.162C271.157 132.162 271.087 132.155 271.083 132.189C271.048 132.186 271.009 132.217 271.005 132.252C271.002 132.287 270.967 132.283 270.963 132.318C270.959 132.353 270.956 132.387 270.952 132.422L270.905 132.875C270.69 132.888 270.51 132.905 270.295 132.918L270.353 132.361C270.356 132.327 270.36 132.292 270.364 132.257C270.367 132.222 270.336 132.184 270.336 132.184C270.304 132.145 270.304 132.145 270.272 132.107C270.237 132.103 270.206 132.065 270.206 132.065C270.206 132.065 270.135 132.058 270.131 132.093C270.096 132.089 270.057 132.12 270.054 132.155C270.05 132.19 270.015 132.186 270.011 132.221C270.008 132.256 270.004 132.291 270 132.326L269.924 133.056C269.222 133.301 268.603 133.766 268.185 134.357C267.764 134.982 267.582 135.702 267.682 136.45C267.747 137.196 268.069 137.861 268.618 138.409C269.131 138.954 269.846 139.272 270.583 139.382L272.98 139.626C273.05 139.633 273.128 139.571 273.135 139.501L273.259 138.318C273.086 138.265 273.09 138.23 273.058 138.192ZM270.539 138.78C269.939 138.719 269.397 138.453 268.975 138.059C268.553 137.664 268.255 137.106 268.172 136.535C268.089 135.964 268.186 135.376 268.455 134.841C268.757 134.344 269.192 133.931 269.718 133.668L269.627 134.538C269.623 134.573 269.62 134.608 269.616 134.643C269.613 134.677 269.644 134.716 269.644 134.716C269.644 134.716 269.676 134.754 269.707 134.792C269.743 134.796 269.774 134.834 269.774 134.834C269.774 134.834 269.845 134.842 269.848 134.807C269.884 134.81 269.923 134.779 269.926 134.744C269.965 134.713 269.965 134.713 269.969 134.678C269.972 134.644 269.976 134.609 269.98 134.574L270.092 133.495C270.385 133.42 270.71 133.382 271.027 133.414C271.591 133.472 272.137 133.703 272.594 134.101C272.626 134.139 272.622 134.174 272.583 134.205L271.194 135.225C271.092 135.179 270.955 135.13 270.849 135.119C270.708 135.105 270.563 135.126 270.454 135.15C270.345 135.174 270.193 135.264 270.111 135.361C269.995 135.455 269.91 135.587 269.864 135.687C269.814 135.823 269.799 135.962 269.785 136.101C269.806 136.244 269.826 136.387 269.886 136.498C269.946 136.61 270.04 136.725 270.139 136.805C270.237 136.886 270.371 136.97 270.512 136.984C270.65 137.033 270.794 137.013 270.939 136.992L272.434 138.375C272.434 138.375 272.465 138.413 272.462 138.448L272.418 138.866C272.414 138.9 272.375 138.932 272.34 138.928L270.539 138.78ZM271.202 136.175C271.195 136.245 271.152 136.311 271.11 136.377C271.067 136.443 270.993 136.47 270.919 136.498C270.845 136.526 270.774 136.518 270.704 136.511C270.633 136.504 270.567 136.462 270.503 136.385C270.44 136.309 270.408 136.27 270.419 136.166C270.43 136.061 270.434 136.027 270.476 135.961C270.519 135.895 270.561 135.829 270.635 135.801C270.71 135.773 270.784 135.746 270.854 135.753C270.96 135.764 271.062 135.809 271.125 135.886C271.189 135.963 271.213 136.071 271.202 136.175Z" fill="#0E0333"/>
<path d="M233.392 161.829H322.978C323.937 161.829 324.715 162.607 324.715 163.566C324.715 164.526 323.937 165.303 322.978 165.303H233.392C232.432 165.303 231.655 164.526 231.655 163.566C231.655 162.607 232.432 161.829 233.392 161.829Z" fill="white" stroke="#7443FA" stroke-width="1.43216"/>
<path d="M274.98 127.112L287.308 165.304H231.809L218.861 125.293C218.636 124.599 219.154 123.888 219.883 123.888H270.551C272.571 123.888 274.36 125.19 274.98 127.112Z" fill="white" stroke="#7443FA" stroke-width="1.43216"/>
<rect x="206.282" y="165.492" width="139.167" height="37.4631" fill="white"/>
<path d="M345.449 141.211L366.031 105.11L366.031 89.5278" stroke="#02E2AC" stroke-width="1.7902"/>
<path d="M206.958 142.865L185.707 105.11L185.707 89.5278" stroke="#02E2AC" stroke-width="1.7902"/>
<path d="M345.449 114.154L345.449 166.88" stroke="#02E2AC" stroke-width="1.7902"/>
<path d="M206.728 113.46L206.728 166.238" stroke="#02E2AC" stroke-width="1.7902"/>
<path d="M365.539 89.7557C368.285 89.7557 370.512 87.5582 370.512 84.8474C370.512 82.1367 368.285 79.9392 365.539 79.9392C362.793 79.9392 360.566 82.1367 360.566 84.8474C360.566 87.5582 362.793 89.7557 365.539 89.7557Z" fill="#E0FFF2" stroke="#02E2AC" stroke-width="1.7902" stroke-miterlimit="10"/>
<path d="M186.199 89.7557C183.453 89.7557 181.227 87.5582 181.227 84.8474C181.227 82.1367 183.453 79.9392 186.199 79.9392C188.946 79.9392 191.172 82.1367 191.172 84.8474C191.172 87.5582 188.946 89.7557 186.199 89.7557Z" fill="#E0FFF2" stroke="#02E2AC" stroke-width="1.7902" stroke-miterlimit="10"/>
<path d="M345.259 166.238H310.398V202.497H345.259V166.238Z" stroke="#02E2AC" stroke-width="1.7902" stroke-miterlimit="10"/>
<path d="M310.969 202.397L345.211 166.238" stroke="#02E2AC" stroke-width="1.7902" stroke-miterlimit="10"/>
<path d="M310.398 166.238L345.211 202.497" stroke="#02E2AC" stroke-width="1.7902" stroke-miterlimit="10"/>
<path d="M276.143 166.238H241.283V202.497H276.143V166.238Z" stroke="#02E2AC" stroke-width="1.7902" stroke-miterlimit="10"/>
<path d="M241.854 202.397L276.095 166.238" stroke="#02E2AC" stroke-width="1.7902" stroke-miterlimit="10"/>
<path d="M241.283 166.238L276.096 202.497" stroke="#02E2AC" stroke-width="1.7902" stroke-miterlimit="10"/>
<path d="M310.703 166.238H275.843V202.497H310.703V166.238Z" stroke="#02E2AC" stroke-width="1.7902" stroke-miterlimit="10"/>
<path d="M276.413 202.397L310.655 166.238" stroke="#02E2AC" stroke-width="1.7902" stroke-miterlimit="10"/>
<path d="M275.843 166.238L310.655 202.497" stroke="#02E2AC" stroke-width="1.7902" stroke-miterlimit="10"/>
<path d="M241.587 166.238H206.727V202.497H241.587V166.238Z" stroke="#02E2AC" stroke-width="1.7902" stroke-miterlimit="10"/>
<path d="M207.297 202.397L241.539 166.238" stroke="#02E2AC" stroke-width="1.7902" stroke-miterlimit="10"/>
<path d="M206.727 166.238L241.539 202.497" stroke="#02E2AC" stroke-width="1.7902" stroke-miterlimit="10"/>
<path d="M351.012 213.864L353.189 220.588C353.544 221.684 354.562 222.428 355.714 222.428H362.76C363.592 222.428 363.952 223.505 363.268 224.004L357.567 228.16C356.637 228.838 356.249 230.038 356.604 231.133L358.781 237.857C359.044 238.669 358.121 239.32 357.452 238.832L351.751 234.676C350.82 233.998 349.559 233.998 348.628 234.676L342.927 238.832C342.258 239.32 341.335 238.669 341.598 237.857L343.776 231.133C344.13 230.038 343.742 228.838 342.812 228.16L337.112 224.004C336.427 223.505 336.787 222.428 337.619 222.428H344.665C345.817 222.428 346.835 221.684 347.19 220.588L349.367 213.864C349.627 213.063 350.752 213.063 351.012 213.864Z" fill="#59FDD5" stroke="#5BF1CD" stroke-width="1.7902"/>
<path d="M312.809 213.864L314.986 220.588C315.341 221.684 316.359 222.428 317.511 222.428H324.557C325.389 222.428 325.749 223.505 325.064 224.004L319.364 228.16C318.434 228.838 318.046 230.038 318.4 231.133L320.578 237.857C320.841 238.669 319.918 239.32 319.249 238.832L313.548 234.676C312.617 233.998 311.356 233.998 310.425 234.676L304.724 238.832C304.055 239.32 303.132 238.669 303.395 237.857L305.572 231.133C305.927 230.038 305.539 228.838 304.609 228.16L298.908 224.004C298.224 223.505 298.584 222.428 299.416 222.428H306.462C307.614 222.428 308.632 221.684 308.987 220.588L311.164 213.864C311.424 213.063 312.549 213.063 312.809 213.864Z" fill="#59FDD5" stroke="#5BF1CD" stroke-width="1.7902"/>
<path d="M273.45 213.864L275.628 220.588C275.982 221.684 277.001 222.428 278.153 222.428H285.199C286.03 222.428 286.391 223.505 285.706 224.004L280.006 228.16C279.075 228.838 278.688 230.038 279.042 231.133L281.219 237.857C281.483 238.669 280.559 239.32 279.89 238.832L274.19 234.676C273.259 233.998 271.997 233.998 271.066 234.676L265.366 238.832C264.697 239.32 263.774 238.669 264.037 237.857L266.214 231.133C266.569 230.038 266.181 228.838 265.25 228.16L259.55 224.004C258.865 223.505 259.226 222.428 260.057 222.428H267.103C268.255 222.428 269.274 221.684 269.629 220.588L271.806 213.864C272.065 213.063 273.191 213.063 273.45 213.864Z" fill="#59FDD5" stroke="#5BF1CD" stroke-width="1.7902"/>
<path d="M389.945 213.865L392.123 220.589C392.477 221.684 393.496 222.428 394.648 222.428H401.694C402.526 222.428 402.886 223.505 402.201 224.004L396.501 228.16C395.571 228.838 395.183 230.039 395.537 231.133L397.715 237.857C397.978 238.67 397.054 239.32 396.385 238.833L390.685 234.677C389.754 233.998 388.492 233.998 387.561 234.677L381.861 238.833C381.192 239.32 380.269 238.67 380.532 237.857L382.709 231.133C383.064 230.039 382.676 228.838 381.746 228.16L376.045 224.004C375.36 223.505 375.721 222.428 376.552 222.428H383.598C384.751 222.428 385.769 221.684 386.124 220.589L388.301 213.865C388.56 213.064 389.686 213.064 389.945 213.865Z" fill="#59FDD5" stroke="#5BF1CD" stroke-width="1.7902"/>
<path d="M429.306 213.865L431.483 220.589C431.838 221.684 432.856 222.428 434.008 222.428H441.054C441.886 222.428 442.246 223.505 441.562 224.004L435.861 228.16C434.931 228.838 434.543 230.039 434.898 231.133L437.075 237.857C437.338 238.67 436.415 239.32 435.746 238.833L430.045 234.677C429.114 233.998 427.853 233.998 426.922 234.677L421.221 238.833C420.552 239.32 419.629 238.67 419.892 237.857L422.069 231.133C422.424 230.039 422.036 228.838 421.106 228.16L415.406 224.004C414.721 223.505 415.081 222.428 415.913 222.428H422.959C424.111 222.428 425.129 221.684 425.484 220.589L427.661 213.865C427.921 213.064 429.046 213.064 429.306 213.865Z" fill="#E0FFF2" stroke="#5BF1CD" stroke-width="1.7902"/>
<path d="M573.071 248.408C573.071 248.408 573.58 249.212 574.598 251.574V251.523C574.751 251.574 588.241 258.106 596.794 270.366L597.405 270.417H598.525C599.339 270.366 599.543 270.919 599.594 271.723L600.001 277.451C600.001 277.853 599.95 278.356 599.696 278.708C599.441 279.059 599.085 279.21 598.677 279.311L597.303 279.411C596.132 281.622 592.009 289.812 582.896 296.998L574.955 302.827L575.056 306.796C575.667 306.646 576.635 306.495 577.144 306.847C577.754 307.249 578.518 307.701 578.416 308.404L578.365 313.278C578.365 314.585 577.754 315.791 576.685 316.544L574.7 347.146C574.7 347.397 574.751 353.628 571.493 358.703L571.9 358.753L568.489 384.028L567.878 384.982C569.253 385.234 572.613 385.736 576.838 386.339C579.689 386.741 581.878 387.997 583.303 389.907C585.951 393.474 585.187 398.248 585.085 398.449L585.034 398.851H553.115V387.093L554.133 385.636L553.37 384.48L552.403 363.426L551.283 362.672V362.421C551.283 362.27 552.759 346.693 547.821 338.101C544.614 343.076 540.032 351.115 537.436 359.858L537.385 360.11L537.029 360.16L537.181 360.21C537.13 360.361 533.211 372.873 532.192 389.455C532.396 389.605 532.6 389.806 532.803 390.007C534.789 391.967 535.654 394.982 535.654 400.208V400.71H511.473V400.308C511.473 400.057 511.422 394.731 514.986 390.962C515.393 390.56 515.749 390.007 516.258 389.706L514.477 387.445V387.294C514.477 387.244 513.917 376.692 515.8 357.095L514.986 356.492V355.989C515.953 339.156 518.04 326.092 518.447 323.127C517.887 323.077 517.735 322.976 517.429 322.625C517.022 322.223 516.513 321.72 516.513 321.117L516.055 316.042C516.055 315.439 516.309 314.886 516.768 314.484C517.022 314.233 517.48 313.982 517.887 313.881L517.735 312.123L513.408 310.414C511.422 309.711 509.946 308.153 509.691 306.093L507.451 289.109L501.088 300.616C501.241 300.767 501.343 300.968 501.495 301.118L502.055 302.224C502.463 303.128 502.004 303.631 501.139 304.133L494.826 307.852C494.572 308.053 494.216 308.103 493.859 308.103C493.707 308.103 493.452 308.304 493.35 308.254C492.841 308.103 492.688 308.053 492.383 307.651L491.67 306.344C491.619 306.193 491.518 305.842 491.518 305.641L471.358 297.249C470.951 297.098 470.544 296.998 470.442 296.546V296.596L464.842 294.687L463.213 295.34L455.831 294.486C455.119 294.435 454.508 294.134 454.152 293.581C453.744 293.028 453.592 292.425 453.744 291.722L455.322 284.034C455.424 284.134 455.933 277.25 458.173 275.592C459.09 274.889 464.588 277.753 464.588 277.753C465.148 277.552 466.777 276.899 467.337 277.15L476.093 281.069L476.143 281.019C476.653 280.667 477.162 280.667 477.722 280.868L487.75 285.994L505.822 255.041L508.826 252.93C508.775 252.679 508.673 252.378 508.673 252.126C508.724 251.373 508.775 250.418 509.539 249.966L512.644 248.709C513.255 248.358 514.324 248.157 514.935 248.458L519.567 247.705C519.822 248.107 516.971 243.835 518.498 240.67C520.127 237.203 526.134 234.74 526.389 235.193L565.842 238.107C574.446 242.931 573.071 248.408 573.071 248.408ZM582.692 274.839L578.365 272.879L578.06 279.863L582.692 274.839Z" fill="white"/>
<path d="M552.457 288.855C546.328 288.855 541.359 283.951 541.359 277.901C541.359 271.852 546.328 266.947 552.457 266.947C558.586 266.947 563.555 271.852 563.555 277.901C563.555 283.951 558.586 288.855 552.457 288.855Z" stroke="#3D00E7" stroke-width="0.895098" stroke-miterlimit="10"/>
<path d="M527.614 310.059C528.225 309.456 528.988 309.104 529.854 309.104L535.963 308.953C536.777 308.953 537.643 309.205 538.254 309.858C538.864 310.411 539.221 311.215 539.221 312.069V312.973V313.928L539.424 321.465V322.42V323.726C539.475 325.435 538.05 326.892 536.319 326.942L530.21 327.093H530.159C529.345 327.093 528.581 326.741 527.919 326.188C527.309 325.585 526.952 324.832 526.952 323.978V323.023V322.068L526.799 314.631V313.677V312.42C526.799 311.516 527.054 310.712 527.614 310.059Z" stroke="#3D00E7" stroke-width="0.895098" stroke-miterlimit="10"/>
<path d="M564.013 305.286C564.369 304.934 564.777 304.733 565.286 304.733L567.22 304.683C568.188 304.683 568.951 305.437 569.002 306.341L569.053 308.401L569.104 309.356L569.308 317.798V318.753L569.358 320.963C569.358 321.918 568.595 322.672 567.678 322.722L565.744 322.772H565.693C564.726 322.772 563.962 322.019 563.962 321.114L563.911 319.808V318.853L563.708 310.663V309.708L563.657 306.542C563.555 306.04 563.759 305.638 564.013 305.286Z" stroke="#3D00E7" stroke-width="0.895098" stroke-miterlimit="10"/>
<path d="M491.573 306.038L492.489 307.646C492.642 307.897 492.896 308.148 493.151 308.249C493.405 308.349 493.762 308.248 494.016 308.148L501.754 303.626C502.263 303.274 502.416 302.721 502.161 302.219L501.499 300.862C501.347 300.46 500.889 300.259 500.481 300.259C500.329 300.259 500.125 300.259 499.972 300.36L497.172 301.716L494.983 300.36L494.474 303.023L491.929 304.681C491.674 304.832 491.522 305.083 491.42 305.334C491.42 305.435 491.42 305.485 491.42 305.585C491.369 305.686 491.471 305.837 491.573 306.038Z" fill="#41FFD1" stroke="#3D00E7" stroke-width="0.895098" stroke-miterlimit="10"/>
<path d="M595.267 273.477V271.969C595.267 271.467 595.521 271.015 595.877 270.713C596.132 270.512 596.437 270.362 596.845 270.362H596.896L597.914 270.311C598.728 270.261 599.492 270.914 599.594 271.769L600.001 277.497C600.001 277.899 599.848 278.301 599.594 278.652C599.339 279.004 598.83 279.205 598.423 279.255L597.303 279.306H597.15H596.997C596.743 279.306 596.488 279.255 596.285 279.155C595.776 278.954 595.521 278.552 595.47 277.999L595.267 276.442L593.027 274.934L595.267 273.477Z" fill="#41FFD1" stroke="#3D00E7" stroke-width="0.895098" stroke-miterlimit="10"/>
<path d="M532.906 272.875C532.906 272.774 532.906 272.774 532.906 272.875C533.313 272.473 533.72 272.272 534.28 272.272H536.622C537.64 272.272 538.506 273.076 538.506 274.131V274.885V275.84L538.557 281.116V282.07V283.377C538.557 284.382 537.742 285.286 536.673 285.286H534.23C533.72 285.286 533.262 285.085 532.906 284.734C532.855 284.683 532.753 284.533 532.702 284.482C532.499 284.231 532.346 283.779 532.346 283.477V274.232C532.346 273.629 532.55 273.176 532.906 272.875Z" stroke="#3D00E7" stroke-width="0.895098" stroke-miterlimit="10"/>
<path d="M528.121 279.812L528.172 274.486V273.582C528.172 273.029 528.325 272.476 528.681 272.124L528.732 272.074C528.987 271.873 529.241 271.723 529.547 271.823L531.074 271.974C531.532 272.024 531.888 272.376 532.143 272.878C532.296 273.129 532.397 273.582 532.397 273.984V283.179C532.397 283.682 532.245 284.134 531.99 284.486C531.99 284.536 531.939 284.536 531.939 284.636C531.685 284.888 531.43 285.038 531.125 285.038H531.074L529.496 284.988C529.088 284.988 528.732 284.636 528.478 284.234C528.325 283.883 528.172 283.481 528.172 283.079L528.121 279.812Z" stroke="#3D00E7" stroke-width="0.895098" stroke-miterlimit="10"/>
<path d="M570.732 360.057C570.783 360.006 570.885 359.856 570.986 359.705C571.241 359.353 571.495 359.002 571.699 358.7C574.906 353.625 574.906 347.394 574.906 347.143L576.892 316.542V316.391" stroke="#3D00E7" stroke-width="0.895098" stroke-miterlimit="10"/>
<path d="M552.506 363.322L553.473 384.426L554.237 385.582L554.593 386.084H555.102L564.062 385.833H565.08L567.065 385.783H567.32L567.88 384.979L568.491 384.024L571.901 358.749L571.494 358.699" stroke="#3D00E7" stroke-width="0.895098" stroke-miterlimit="10"/>
<path d="M534.845 360.813L536.321 360.411L537.237 360.159L537.594 360.109L537.645 359.858C540.292 351.014 544.873 343.075 548.03 338.1C548.233 337.749 548.437 337.497 548.64 337.196C550.422 334.382 551.746 332.724 551.848 332.674" stroke="#3D00E7" stroke-width="0.895098" stroke-miterlimit="10"/>
<path d="M532.346 389.404C533.466 372.771 537.335 360.31 537.335 360.159L537.182 360.109" stroke="#3D00E7" stroke-width="0.895098" stroke-miterlimit="10"/>
<path d="M515.805 356.741V356.791C514.024 376.488 514.482 386.99 514.482 387.04V387.191L516.06 389.151L516.264 389.402" stroke="#3D00E7" stroke-width="0.895098" stroke-miterlimit="10"/>
<path d="M518.3 323.176C517.791 326.141 515.856 339.004 514.889 355.838L514.838 356.039L515.856 356.993L516.773 357.797L517.18 358.149" stroke="#3D00E7" stroke-width="0.895098" stroke-miterlimit="10"/>
<path d="M569.306 318.751C571.647 318.248 573.735 317.746 575.465 317.193C575.516 317.193 575.669 317.143 575.72 317.143C576.076 316.992 576.433 316.791 576.687 316.59C577.705 315.836 578.367 314.63 578.367 313.324L578.418 308.45C578.418 307.746 578.062 307.093 577.502 306.691C576.993 306.339 576.382 306.189 575.771 306.339C575.72 306.339 575.567 306.39 575.516 306.39C575.313 306.44 575.007 306.54 574.804 306.641C573.022 307.344 570.986 307.947 568.898 308.5" stroke="#3D00E7" stroke-width="0.895098" stroke-miterlimit="10"/>
<path d="M563.757 309.657C556.426 311.215 548.994 312.27 539.22 312.924" stroke="#3D00E7" stroke-width="0.895098" stroke-miterlimit="10"/>
<path d="M526.849 313.427C523.54 313.478 520.74 313.578 518.958 313.478H518.551C518.398 313.478 518.195 313.478 518.042 313.528C517.635 313.578 517.279 313.779 516.922 314.131C516.413 314.684 516.159 315.236 516.159 315.839V320.814C516.159 321.417 516.413 321.97 516.871 322.372C517.279 322.774 517.788 322.975 518.246 322.975C518.297 322.975 518.398 322.975 518.449 322.975H518.5C518.755 322.975 519.009 322.975 519.264 322.975C521.911 322.924 524.456 322.924 527.053 322.774" stroke="#3D00E7" stroke-width="0.895098" stroke-miterlimit="10"/>
<path d="M539.427 322.421C549.252 321.818 556.837 321.064 563.964 319.808" stroke="#3D00E7" stroke-width="0.895098" stroke-miterlimit="10"/>
<path d="M574.5 285.792L575.009 306.594V306.996" stroke="#3D00E7" stroke-width="0.895098" stroke-miterlimit="10"/>
<path d="M516.67 298.805L517.688 310.914L517.739 311.919L517.892 313.678" stroke="#3D00E7" stroke-width="0.895098" stroke-miterlimit="10"/>
<path d="M516.924 292.724L514.989 278.503C514.938 278.001 514.582 277.699 514.073 277.549C513.564 277.498 513.106 277.699 512.902 278.101L501.193 300.412" stroke="#3D00E7" stroke-width="0.895098" stroke-miterlimit="10"/>
<path d="M509.796 249.812L512.851 248.707C513.462 248.355 514.174 248.305 514.785 248.556C515.04 248.707 515.345 248.807 515.6 249.109C515.6 249.109 515.702 249.209 515.803 249.31C525.934 260.264 527.614 270.012 527.614 270.012C528.123 273.178 528.123 276.293 528.123 278.554C528.123 281.519 528.072 282.976 527.767 284.785C527.767 284.785 526.239 293.83 519.062 298.653C518.705 298.905 518.298 299.005 518.298 299.005C518.145 299.055 517.942 299.055 517.738 299.055H517.687C517.331 299.055 517.076 299.005 516.771 298.804C516.771 298.804 516.72 298.804 516.72 298.754C516.007 298.402 515.6 297.648 515.549 296.895L515.498 294.935C515.498 294.332 515.702 293.83 516.109 293.377C516.313 293.176 516.618 292.975 516.923 292.774C516.923 292.774 516.974 292.774 516.974 292.724C518.552 290.362 521.2 285.84 521.811 279.609C521.963 277.951 522.676 269.107 516.822 260.766C514.327 257.199 511.425 254.937 509.491 253.631C509.44 253.631 509.389 253.581 509.338 253.531C508.931 253.179 508.778 252.727 508.727 252.526C508.676 252.375 508.575 252.073 508.575 251.722C508.626 250.817 509.033 250.214 509.796 249.812Z" stroke="#3D00E7" stroke-width="0.895098" stroke-miterlimit="10"/>
<path d="M508.83 252.477L508.779 252.528L505.776 254.638L487.704 285.591" stroke="#3D00E7" stroke-width="0.895098" stroke-miterlimit="10"/>
<path d="M490.502 286.796L488.415 285.841L487.499 285.439L477.674 280.766C477.165 280.515 476.554 280.565 476.096 280.917L476.045 280.967C475.79 281.168 475.536 281.469 475.485 281.771C475.434 281.922 475.434 282.123 475.434 282.273C475.638 285.138 475.281 290.615 470.852 294.584C470.649 294.785 470.445 295.087 470.343 295.338C470.343 295.589 470.343 295.84 470.343 296.041C470.343 296.092 470.394 296.242 470.394 296.293C470.547 296.695 470.801 297.046 471.209 297.197L491.47 305.639" stroke="#3D00E7" stroke-width="0.895098" stroke-miterlimit="10"/>
<path d="M507.303 288.908L509.543 305.943C509.797 308.003 511.274 309.711 513.31 310.415L517.892 311.922" stroke="#3D00E7" stroke-width="0.895098" stroke-miterlimit="10"/>
<path d="M568.391 253.732C572.056 257.751 573.176 264.033 573.787 270.364C573.838 270.716 573.838 271.067 573.838 271.318C573.991 273.077 574.093 274.786 574.093 276.394C574.093 276.745 574.093 277.097 574.093 277.399C574.144 281.871 573.889 285.086 573.889 285.187L573.838 285.89L574.398 285.74L575.009 285.589L575.365 285.539L576.536 285.287L576.893 285.237L576.944 284.986C577.3 283.227 577.554 281.418 577.758 279.76C577.809 279.358 577.809 278.856 577.911 278.454C578.114 276.896 578.165 275.288 578.267 273.881C578.267 273.529 578.267 273.178 578.318 272.876C578.522 263.832 576.74 257.149 575.111 252.978C574.958 252.475 574.754 252.073 574.602 251.671C573.584 249.26 572.718 248.054 572.667 247.953L572.515 247.802L570.529 247.4" stroke="#3D00E7" stroke-width="0.895098" stroke-miterlimit="10"/>
<path d="M596.899 270.262C588.296 258.001 574.806 251.418 574.704 251.418V251.469" stroke="#3D00E7" stroke-width="0.895098" stroke-miterlimit="10"/>
<path d="M575.059 285.641C575.212 285.691 575.314 285.691 575.415 285.792C583.408 288.807 581.728 296.143 581.677 296.444L581.321 297.801L582.135 297.198L582.39 296.997C591.553 289.711 596.287 281.47 597.356 279.31" stroke="#3D00E7" stroke-width="0.895098" stroke-miterlimit="10"/>
<path d="M584.325 272.928L577.962 279.762" stroke="#3D00E7" stroke-width="0.895098" stroke-miterlimit="10"/>
<path d="M578.366 272.725L582.438 274.836" stroke="#3D00E7" stroke-width="0.895098" stroke-miterlimit="10"/>
<path d="M574.907 302.775L582.288 297.147" stroke="#3D00E7" stroke-width="0.895098" stroke-miterlimit="10"/>
<path d="M514.836 390.404C515.243 390.002 515.65 389.6 516.159 389.299C516.414 389.098 516.719 388.897 516.974 388.746C518.552 387.791 520.588 387.289 522.777 387.238C526.595 387.188 529.344 387.64 531.381 388.796C531.737 388.997 531.992 389.198 532.297 389.399C532.501 389.55 532.704 389.751 532.908 389.952C534.893 391.911 535.759 394.926 535.759 400.152V400.655H511.578V400.253C511.578 399.951 511.272 394.173 514.836 390.404Z" stroke="#3D00E7" stroke-width="0.895098" stroke-miterlimit="10"/>
<path d="M535.655 397.846H511.78" stroke="#3D00E7" stroke-width="0.895098" stroke-miterlimit="10"/>
<path d="M518.604 388.298L519.622 391.011C519.979 391.765 520.742 392.267 521.506 392.267H527.411C528.328 392.267 529.091 391.664 529.346 390.76L530.109 388.499" stroke="#3D00E7" stroke-width="0.895098" stroke-miterlimit="10"/>
<path d="M547.722 337.596C547.773 337.647 547.925 337.848 547.976 338.099C552.812 346.641 551.438 362.168 551.438 362.419V362.67L552.558 363.424L553.525 364.127L554.441 364.73" stroke="#3D00E7" stroke-width="0.895098" stroke-miterlimit="10"/>
<path d="M554.292 385.583L553.274 387.04V398.798H585.192L585.243 398.396C585.294 398.195 586.058 393.421 583.462 389.854C581.985 387.894 579.847 386.688 576.996 386.286C572.822 385.683 569.513 385.13 568.037 384.929" stroke="#3D00E7" stroke-width="0.895098" stroke-miterlimit="10"/>
<path d="M585.342 395.431H553.27" stroke="#3D00E7" stroke-width="0.895098" stroke-miterlimit="10"/>
<path d="M464.284 294.686L470.393 296.394" stroke="#3D00E7" stroke-width="0.895098" stroke-miterlimit="10"/>
<path d="M464.795 277.852L464.438 277.802L459.653 275.742C459.602 275.742 459.398 275.691 459.195 275.691C458.838 275.641 458.584 275.641 458.228 275.742C458.075 275.792 457.973 275.792 457.82 275.892C457.209 276.244 456.802 276.797 456.649 277.45L455.835 281.018L455.428 282.927L453.493 291.57C453.544 292.324 453.748 292.927 454.104 293.479C454.511 294.032 455.122 294.283 455.784 294.384L458.329 294.786L459.297 294.936L462.504 295.439C462.555 295.439 462.656 295.439 462.707 295.439C463.318 295.439 463.98 295.188 464.387 294.735C464.387 294.735 464.438 294.735 464.438 294.685C464.642 294.484 464.845 294.183 464.947 293.932C464.998 293.781 464.998 293.68 464.998 293.53L465.151 292.575L466.118 286.897V286.696" stroke="#3D00E7" stroke-width="0.895098" stroke-miterlimit="10"/>
<path d="M440.18 318.511C441.076 321.253 444.055 322.76 446.834 321.875L470.19 314.44C472.968 313.555 474.494 310.615 473.598 307.873L460.821 268.768C459.925 266.026 456.946 264.519 454.167 265.404L430.811 272.839C428.033 273.724 426.507 276.664 427.403 279.406L440.18 318.511Z" fill="white"/>
<path fill-rule="evenodd" clip-rule="evenodd" d="M469.947 313.695L446.59 321.13C444.228 321.882 441.697 320.602 440.935 318.271L428.157 279.166C427.396 276.835 428.693 274.336 431.054 273.584L454.411 266.149C456.772 265.397 459.304 266.677 460.066 269.008L472.844 308.113C473.605 310.444 472.308 312.943 469.947 313.695ZM446.834 321.875C444.055 322.76 441.076 321.253 440.18 318.511L427.403 279.406C426.507 276.664 428.033 273.724 430.811 272.839L454.167 265.404C456.946 264.519 459.925 266.026 460.821 268.768L473.598 307.873C474.494 310.615 472.968 313.555 470.19 314.44L446.834 321.875Z" fill="#3D00E7"/>
<path d="M442.548 316.867C442.996 318.239 444.486 318.992 445.875 318.549L468.815 311.246C470.204 310.804 470.967 309.334 470.519 307.963L458.31 270.596C457.862 269.224 456.372 268.471 454.983 268.914L432.042 276.216C430.653 276.659 429.89 278.129 430.338 279.5L442.548 316.867Z" fill="#FCFAFF"/>
<path fill-rule="evenodd" clip-rule="evenodd" d="M444.322 293.254C444.322 292.905 444.351 292.556 444.409 292.211L446.495 291.477L445.544 289.501C445.959 288.934 446.464 288.436 447.038 288.027L449.04 288.965L449.784 286.906C450.483 286.792 451.197 286.792 451.897 286.906L452.641 288.965L454.643 288.027C455.217 288.436 455.721 288.934 456.136 289.501L455.186 291.477L457.271 292.211C457.387 292.902 457.387 293.606 457.271 294.297L455.186 295.031L456.136 297.007C455.721 297.574 455.217 298.072 454.643 298.481L452.641 297.543L451.897 299.602C451.197 299.716 450.483 299.716 449.784 299.602L449.04 297.543L447.038 298.481C446.464 298.072 445.959 297.574 445.544 297.007L446.495 295.031L444.409 294.297C444.351 293.952 444.322 293.603 444.322 293.254Z" stroke="#3D00E7" stroke-width="0.895098"/>
<ellipse rx="1.08186" ry="1.0768" transform="matrix(-1.00414 0 0 0.995799 450.839 293.253)" stroke="#3D00E7" stroke-width="0.895098"/>
<path fill-rule="evenodd" clip-rule="evenodd" d="M468.572 310.502L445.631 317.804C444.659 318.114 443.616 317.587 443.303 316.627L431.093 279.26C430.779 278.3 431.313 277.271 432.286 276.961L455.226 269.658C456.199 269.349 457.241 269.876 457.555 270.836L469.765 308.203C470.078 309.163 469.544 310.192 468.572 310.502ZM445.875 318.549C444.486 318.992 442.996 318.239 442.548 316.867L430.338 279.5C429.89 278.129 430.653 276.659 432.042 276.216L454.983 268.914C456.372 268.471 457.862 269.224 458.31 270.596L470.519 307.963C470.967 309.334 470.204 310.804 468.815 311.246L445.875 318.549Z" fill="#3D00E7"/>
<path d="M476.097 281.017L467.442 277.299C466.882 277.047 466.272 277.047 465.763 277.248C465.508 277.298 465.203 277.499 464.948 277.751C464.897 277.801 464.897 277.801 464.795 277.901C464.744 277.952 464.592 278.102 464.541 278.253L464.286 278.756L462.148 282.223C461.894 282.826 461.792 283.479 461.944 284.082C462.097 284.685 462.504 285.187 463.064 285.439L465.203 286.594H465.253C465.508 286.745 465.813 286.846 466.17 286.846C466.221 286.846 466.322 286.846 466.373 286.846C466.577 286.846 466.882 286.795 467.086 286.795C467.697 286.594 468.206 286.192 468.461 285.64L469.377 283.881" fill="white"/>
<path d="M476.097 281.017L467.442 277.299C466.882 277.047 466.272 277.047 465.763 277.248C465.508 277.298 465.203 277.499 464.948 277.751C464.897 277.801 464.897 277.801 464.795 277.901C464.744 277.952 464.592 278.102 464.541 278.253L464.286 278.756L462.148 282.223C461.894 282.826 461.792 283.479 461.944 284.082C462.097 284.685 462.504 285.187 463.064 285.439L465.203 286.594H465.253C465.508 286.745 465.813 286.846 466.17 286.846C466.221 286.846 466.322 286.846 466.373 286.846C466.577 286.846 466.882 286.795 467.086 286.795C467.697 286.594 468.206 286.192 468.461 285.64L469.377 283.881" stroke="#3D00E7" stroke-width="0.895098" stroke-miterlimit="10"/>
<path d="M526.697 243.482L519.367 247.401L514.785 248.657" stroke="#3D00E7" stroke-width="0.895098" stroke-miterlimit="10"/>
<path d="M541.714 274.939C540.39 274.939 539.932 274.889 538.507 274.838" stroke="#3D00E7" stroke-width="0.895098" stroke-miterlimit="10"/>
<path d="M573.888 270.264C573.48 270.465 570.324 272.023 562.383 273.48" stroke="#3D00E7" stroke-width="0.895098" stroke-miterlimit="10"/>
<path d="M542.02 281.168C540.492 281.168 540.085 281.219 538.558 281.067" stroke="#3D00E7" stroke-width="0.895098" stroke-miterlimit="10"/>
<path d="M574.194 276.344C574.143 276.344 570.834 278.003 563.402 279.46" stroke="#3D00E7" stroke-width="0.895098" stroke-miterlimit="10"/>
<path d="M573.988 306.995V317.648" stroke="#3D00E7" stroke-width="0.895098" stroke-miterlimit="10"/>
<path d="M559.99 310.361V320.36" stroke="#3D00E7" stroke-width="0.895098" stroke-miterlimit="10"/>
<path d="M551.032 311.767V321.163" stroke="#3D00E7" stroke-width="0.895098" stroke-miterlimit="10"/>
<path d="M542.782 312.574V322.172" stroke="#3D00E7" stroke-width="0.895098" stroke-miterlimit="10"/>
<path d="M522.982 313.427V322.673" stroke="#3D00E7" stroke-width="0.895098" stroke-miterlimit="10"/>
<path d="M564.015 385.785L564.524 387.092C565.084 388.549 566.306 389.554 567.833 389.705L574.96 390.509C575.164 390.509 575.368 390.509 575.52 390.509C576.691 390.509 577.811 390.006 578.575 389.152L579.898 387.645" stroke="#3D00E7" stroke-width="0.895098" stroke-miterlimit="10"/>
<path d="M521.3 357.647C522.675 358.25 524.049 358.551 525.474 358.803C526.951 359.004 528.325 359.154 529.853 359.004" stroke="#3D00E7" stroke-width="0.895098" stroke-miterlimit="10"/>
<path d="M564.165 359.153C565.132 359.354 566.099 359.304 567.016 359.153C567.983 358.952 568.899 358.751 569.714 358.198" stroke="#3D00E7" stroke-width="0.895098" stroke-miterlimit="10"/>
<path d="M556.594 275.578C557.079 276.297 557.383 277.136 557.383 277.975C557.383 278.814 557.079 279.653 556.594 280.373L557.626 281.152C558.294 280.253 558.658 279.114 558.658 277.975C558.658 276.777 558.294 275.638 557.565 274.679L556.958 275.219L556.594 275.578Z" fill="#1AFFC7"/>
<path d="M558.596 281.87L555.014 279.173C555.257 278.814 555.439 278.454 555.439 278.035C555.439 277.615 555.318 277.196 555.136 276.836L556.836 275.338L558.596 273.72C558.718 273.6 558.718 273.42 558.596 273.3L558.353 273.061C557.078 271.802 555.378 271.083 553.557 271.023V270.064C553.557 270.004 553.557 269.944 553.557 269.884C553.557 269.825 553.496 269.765 553.436 269.705C553.375 269.645 553.314 269.645 553.253 269.585C553.193 269.585 553.132 269.525 553.071 269.525C553.011 269.525 552.95 269.525 552.889 269.585C552.828 269.585 552.768 269.645 552.707 269.705C552.646 269.765 552.646 269.825 552.586 269.884C552.586 269.944 552.586 270.004 552.586 270.064V271.083C552.161 271.143 551.736 271.203 551.311 271.323V270.064C551.311 270.004 551.311 269.944 551.311 269.884C551.311 269.825 551.25 269.765 551.189 269.705C551.128 269.645 551.068 269.645 551.007 269.585C550.946 269.585 550.886 269.525 550.825 269.525C550.764 269.525 550.703 269.525 550.643 269.585C550.582 269.585 550.521 269.645 550.461 269.705C550.4 269.765 550.4 269.825 550.339 269.884C550.339 269.944 550.339 270.004 550.339 270.064V271.622C548.882 272.282 547.668 273.42 546.939 274.798C546.211 276.177 545.968 277.855 546.271 279.353C546.575 280.911 547.425 282.289 548.639 283.308C549.853 284.327 551.432 284.926 553.011 284.926H558.171C558.353 284.926 558.475 284.806 558.475 284.627V282.05C558.718 282.05 558.657 281.93 558.596 281.87ZM553.314 283.728C552.039 283.728 550.825 283.308 549.793 282.529C548.761 281.75 548.093 280.671 547.729 279.473C547.425 278.274 547.486 276.956 547.971 275.817C548.457 274.679 549.307 273.66 550.461 273.061V274.918C550.461 274.978 550.461 275.038 550.461 275.098C550.461 275.158 550.521 275.218 550.582 275.278C550.643 275.338 550.703 275.338 550.764 275.398C550.825 275.398 550.886 275.458 550.946 275.458C551.007 275.458 551.068 275.458 551.128 275.398C551.189 275.398 551.25 275.338 551.311 275.278C551.371 275.218 551.371 275.158 551.432 275.098C551.432 275.038 551.432 274.978 551.432 274.918V272.581C552.039 272.341 552.768 272.222 553.436 272.222C554.711 272.222 555.925 272.641 556.896 273.36C556.957 273.42 556.957 273.54 556.896 273.6L554.164 276.057C553.921 275.937 553.618 275.877 553.375 275.877C553.071 275.877 552.768 275.937 552.525 276.057C552.221 276.177 551.978 276.357 551.796 276.596C551.614 276.836 551.432 277.076 551.371 277.375C551.311 277.675 551.25 277.975 551.311 278.274C551.371 278.574 551.432 278.874 551.614 279.113C551.796 279.353 551.978 279.593 552.221 279.713C552.464 279.892 552.768 279.952 553.071 280.012C553.375 280.072 553.678 280.012 553.982 279.952L557.443 282.529C557.503 282.529 557.503 282.589 557.503 282.649V283.548C557.503 283.608 557.443 283.668 557.382 283.668L553.314 283.728ZM554.164 278.035C554.164 278.214 554.103 278.334 554.043 278.514C553.921 278.634 553.8 278.754 553.678 278.814C553.496 278.874 553.375 278.874 553.193 278.874C553.011 278.814 552.889 278.754 552.768 278.634C552.646 278.514 552.586 278.394 552.525 278.214C552.525 278.035 552.525 277.915 552.586 277.735C552.646 277.555 552.768 277.435 552.889 277.375C553.011 277.315 553.193 277.255 553.375 277.255C553.618 277.255 553.8 277.315 553.982 277.495C554.103 277.615 554.164 277.795 554.164 278.035Z" fill="#0E0333"/>
<path d="M564.422 252.225C565.287 250.818 565.033 249.11 564.778 248.005C564.931 244.135 565.593 235.995 566.254 228.207L568.138 228.358H568.545C570.785 228.358 572.821 226.649 572.923 224.438L573.585 216.298C573.585 215.092 573.33 214.087 572.516 213.132C571.854 212.379 571.091 211.977 570.632 211.826C570.276 211.776 569.869 211.776 569.512 211.725C568.901 211.675 568.392 211.575 567.883 211.474C567.883 211.474 568.647 200.57 560.705 193.435C560.044 192.832 551.44 186.601 541.513 189.867C533.215 192.631 528.125 202.329 527.616 210.369C526.903 210.318 526.19 210.62 525.478 210.57C524.663 210.72 523.899 210.67 523.238 211.223C522.423 212.027 521.914 213.082 521.914 214.238L521.15 222.378C521.15 224.74 523.085 227.101 525.478 227.252H527.361L526.852 243.532C527.972 244.085 529.041 244.638 530.161 245.241C531.281 245.894 533.572 247.402 535.201 250.266C536.524 252.577 536.83 254.688 536.932 255.893C543.091 256.145 548.131 255.994 551.797 255.793C560.553 255.24 561.571 256.748 564.422 252.225Z" fill="white"/>
<path d="M556.584 208.611C556.584 208.611 541.413 207.154 538.104 207.908C534.846 208.611 533.217 213.033 533.217 213.033C533.217 213.033 532.25 214.289 532.301 226.499C532.301 226.801 532.81 227.856 535.05 228.61C537.29 229.414 558.976 229.414 558.976 229.414C558.976 229.414 561.878 228.66 561.878 225.143C561.878 221.575 562.234 214.591 562.234 214.591L560.3 211.978L558.62 209.767L556.584 208.611Z" fill="#C9B8FF"/>
<path d="M526.701 243.484L527.21 227.204L527.719 210.421V208.562C527.719 208.31 530.621 187.055 549.151 188.864C567.63 190.573 567.885 209.466 567.885 209.717C567.885 209.717 567.885 210.371 567.732 211.576C567.477 214.742 566.816 221.274 566.256 228.259C565.594 236.148 564.932 244.389 564.779 248.207V249.665C564.779 250.469 564.627 251.222 564.525 251.775C564.372 252.177 564.27 252.579 564.016 252.981C563.761 253.383 563.507 253.785 563.201 254.036C561.216 255.895 558.416 255.895 558.263 255.895H536.729V255.393C536.729 255.242 535.915 247.001 527.413 244.087L526.701 243.484Z" stroke="#3D00E7" stroke-width="0.895098" stroke-miterlimit="10"/>
<path d="M537.438 239.814C537.184 241.12 537.286 242.175 537.947 242.979C538.762 244.035 540.086 244.185 540.086 244.185H550.063C553.271 244.185 554.594 242.226 554.849 241.321" stroke="#3D00E7" stroke-width="0.895098" stroke-miterlimit="10"/>
<path d="M532.555 214.89C532.555 214.237 532.809 213.584 533.216 213.031C533.725 212.378 534.438 211.976 535.202 211.725C535.456 211.725 535.609 211.725 535.864 211.725H536.016L558.874 212.378C559.026 212.378 559.026 212.378 559.128 212.378C559.943 212.378 560.604 212.78 561.114 213.283C561.114 213.283 561.114 213.283 561.266 213.433C561.928 214.086 562.183 214.89 562.183 215.795L561.775 226.297C561.775 227.201 561.368 228.005 560.706 228.508C560.044 229.01 559.23 229.412 558.466 229.412H558.314L535.456 228.608C533.573 228.608 532.147 227.051 532.249 225.191L532.555 214.89Z" stroke="#3D00E7" stroke-width="0.895098" stroke-miterlimit="10"/>
<path d="M521.556 214.641C521.556 213.435 522.014 212.43 522.676 211.626C523.236 211.123 523.897 210.721 524.559 210.57C524.763 210.57 525.017 210.42 525.323 210.57H525.526H526.646H527.461L526.901 227.253H526.239H524.916C522.93 227.102 521.352 225.142 521.352 222.781L521.556 214.641Z" fill="#C9B8FF" stroke="#3D00E7" stroke-width="0.895098" stroke-miterlimit="10"/>
<path d="M567.68 211.472H568.291L569.716 211.623H569.818C570.174 211.623 570.429 211.773 570.785 211.874C571.498 212.125 572.109 212.527 572.618 213.18C573.33 214.085 573.585 215.14 573.585 216.346L572.974 224.486C572.872 226.697 571.04 228.406 569.003 228.406C568.901 228.406 568.749 228.406 568.647 228.406L566.967 228.255H566.356L567.68 211.472Z" fill="#C9B8FF" stroke="#3D00E7" stroke-width="0.895098" stroke-miterlimit="10"/>
<path d="M570.583 211.976C570.736 207.906 570.736 183.234 550.627 181.676C543.704 181.174 538.002 182.882 533.726 186.902C525.479 194.54 525.225 208.308 525.326 210.418V210.67" stroke="#3D00E7" stroke-width="0.895098" stroke-miterlimit="10"/>
<path d="M561.368 213.686L559.485 210.922C558.416 209.364 556.939 208.41 555.361 208.41L539.427 207.756C537.696 207.606 535.965 208.56 534.896 210.269L533.166 212.882" stroke="#3D00E7" stroke-width="0.895098" stroke-miterlimit="10"/>
<path d="M565.693 237.851C565.693 237.851 571.394 240.565 572.667 245.69C572.769 245.991 572.769 246.293 572.82 246.594C572.972 247.65 573.023 248.805 572.871 250.112C572.82 250.514 572.718 250.865 572.667 251.368C572.616 251.971 572.463 252.624 572.209 253.277C571.598 255.187 570.529 256.845 569.104 258.151C568.798 258.403 568.544 258.604 568.238 258.855C562.893 263.025 553.984 263.88 548.333 263.93C545.279 263.98 543.141 263.779 543.09 263.779C530.77 262.624 521.963 256.895 517.585 247.348C517.28 246.795 517.076 246.192 516.924 245.69C516.822 245.288 516.771 244.936 516.669 244.635C516.414 242.876 516.618 241.268 517.28 239.861C517.433 239.61 517.484 239.409 517.636 239.158C517.84 238.705 518.094 238.404 518.4 238.002C520.589 235.138 524.611 233.429 526.494 232.676C526.698 232.575 526.85 232.776 526.85 233.027L526.698 235.741C526.545 235.841 522.014 237.047 520.538 240.615C519.774 242.474 519.825 244.484 520.793 246.594C524.407 254.433 531.381 259.357 541.054 260.865C542.123 261.016 543.141 261.116 544.21 261.166C545.024 261.217 546.348 261.267 548.028 261.217C554.748 261.116 566.711 259.759 569.154 251.72C571.598 243.831 565.489 240.565 565.438 240.565L565.693 237.851Z" fill="white" stroke="#3D00E7" stroke-width="0.895098" stroke-miterlimit="10"/>
<path d="M535.045 259.408C534.892 257.749 534.281 253.277 530.769 249.257C528.478 246.695 525.932 245.338 524.405 244.685" stroke="#3D00E7" stroke-width="0.895098" stroke-miterlimit="10"/>
<path d="M92.8977 122.194C126.803 122.194 154.289 95.0636 154.289 61.5969C154.289 28.1301 126.803 1 92.8977 1C58.9919 1 31.5059 28.1301 31.5059 61.5969C31.5059 95.0636 58.9919 122.194 92.8977 122.194Z" stroke="#4C0BFF" stroke-width="0.895098" stroke-miterlimit="10"/>
<path fill-rule="evenodd" clip-rule="evenodd" d="M28.6007 122.944L19.748 106.925L28.6007 90.9051H46.3059L55.1585 106.925L46.3059 122.944H28.6007ZM37.4541 106.924L46.3067 90.9041ZM37.4541 106.925H55.1593ZM37.4541 106.925L46.3067 122.945ZM37.4542 106.925L28.6016 122.945ZM37.4533 106.925H19.748ZM37.4542 106.924L28.6016 90.9041Z" fill="#5BF1CD"/>
<path d="M28.6007 122.944L28.209 123.161L28.3367 123.392H28.6007V122.944ZM19.748 106.925L19.3563 106.708L19.2367 106.925L19.3563 107.141L19.748 106.925ZM28.6007 90.9051V90.4575H28.3367L28.209 90.6886L28.6007 90.9051ZM46.3059 90.9051L46.6976 90.6886L46.5699 90.4575H46.3059V90.9051ZM55.1585 106.925L55.5503 107.141L55.6699 106.925L55.5503 106.708L55.1585 106.925ZM46.3059 122.944V123.392H46.5699L46.6976 123.161L46.3059 122.944ZM28.9924 122.728L20.1398 106.708L19.3563 107.141L28.209 123.161L28.9924 122.728ZM20.1398 107.141L28.9924 91.1215L28.209 90.6886L19.3563 106.708L20.1398 107.141ZM28.6007 91.3526H46.3059V90.4575H28.6007V91.3526ZM45.9142 91.1215L54.7668 107.141L55.5503 106.708L46.6976 90.6886L45.9142 91.1215ZM54.7668 106.708L45.9142 122.728L46.6976 123.161L55.5503 107.141L54.7668 106.708ZM46.3059 122.497H28.6007V123.392H46.3059V122.497ZM37.8458 107.14L46.6984 91.1205L45.915 90.6876L37.0624 106.707L37.8458 107.14ZM37.4541 107.373H55.1593V106.478H37.4541V107.373ZM37.0624 107.142L45.915 123.161L46.6984 122.728L37.8458 106.709L37.0624 107.142ZM37.0625 106.709L28.2098 122.728L28.9933 123.161L37.8459 107.142L37.0625 106.709ZM37.4533 106.478H19.748V107.373H37.4533V106.478ZM37.8459 106.707L28.9933 90.6876L28.2098 91.1205L37.0625 107.14L37.8459 106.707Z" fill="#4C0BFF"/>
<path d="M65.1748 96.4335V81.3197C53.5533 82.2498 47.507 87.1327 45.9365 89.4579L51.8258 70.4687L65.1748 66.981V64.2682L67.5305 61.1679L78.1312 58.0677L81.2721 54.5799L84.8057 53.0297L85.1983 52.2547C84.8057 48.7668 86.1406 45.5116 85.1983 37.1408C84.256 28.7701 91.611 25.1273 95.4063 24.3523C104.201 23.4222 108.494 28.8735 109.541 31.7154V46.4417L110.718 56.13C116.372 58.3002 117 64.2682 116.608 66.981C122.89 70.7013 131.789 85.0659 135.453 91.7831L137.416 98.3712V102.634C134.275 106.664 128.517 110.514 126.03 111.935V110.385L127.601 102.634L119.749 89.4579L115.43 94.4959V110.385L117.393 111.935V116.973C99.1755 125.034 79.4399 121.107 71.8493 118.135L72.6345 111.935L73.8124 110.385L72.6345 106.897C66.9808 104.727 65.3057 99.0171 65.1748 96.4335Z" fill="white"/>
<path d="M85.0022 52.8823C69.3338 58.5285 82.2664 74.7304 95.6964 74.9759C100.422 75.2214 109.127 74.9759 113.603 70.8027C119.323 65.402 114.847 57.0555 110.121 55.8281" stroke="#6F3FF5" stroke-width="0.895098" stroke-miterlimit="10"/>
<path d="M110.125 47.7268C110.623 66.3836 113.11 65.6472 92.7159 65.8926V65.6471C92.7159 65.6471 90.7263 59.0191 85.5035 59.51L85.2548 48.7088" stroke="#6F3FF5" stroke-width="0.895098" stroke-miterlimit="10"/>
<path d="M80.771 40.6076C80.771 39.1347 82.0145 37.9072 83.258 37.9072H85.4964C85.4964 37.9072 85.7451 37.9072 85.9938 38.1527C86.4912 38.3982 86.9886 39.6256 87.2373 42.5714C87.2373 45.0263 86.9886 46.4992 86.4912 47.4811C86.2425 48.2176 85.4964 48.463 84.7503 48.463L82.7607 48.2175C81.7658 47.9721 81.0197 46.9901 81.0197 45.7627L80.771 40.6076Z" fill="#FAADBF" stroke="#6F3FF5" stroke-width="0.895098" stroke-miterlimit="10"/>
<path d="M82.7556 37.9067C82.5069 34.9609 81.7608 19.0044 96.683 18.7589C113.098 18.5135 111.605 32.997 111.605 32.997" stroke="#6F3FF5" stroke-width="0.895098" stroke-miterlimit="10"/>
<path d="M84.7558 38.154C84.7558 38.154 84.0097 24.6524 98.1859 24.1614C104.901 23.916 108.134 28.0892 109.875 32.5079" stroke="#6F3FF5" stroke-width="0.895098" stroke-miterlimit="10"/>
<path d="M99.4278 56.5643C99.6765 54.8459 102.412 53.8639 104.402 54.3549C105.397 54.6004 106.392 55.0914 106.392 56.0733C106.392 56.8098 106.143 57.3007 105.645 57.7917C105.148 58.2827 104.402 58.2827 103.905 58.5282C102.91 58.5282 102.164 58.5281 101.169 58.2827C100.92 58.2827 100.423 58.0372 100.174 57.7917C99.6766 57.3007 99.4278 56.8098 99.4278 56.5643Z" stroke="#6F3FF5" stroke-width="0.895098" stroke-miterlimit="10"/>
<path d="M91.7176 42.8157V37.4151C91.7176 34.7147 93.9559 32.5054 96.6917 32.5054H108.629C111.365 32.5054 113.604 34.7147 113.604 37.4151V42.8157C113.604 45.516 111.365 47.7254 108.629 47.7254H96.6917C93.9559 47.7254 91.7176 45.516 91.7176 42.8157Z" fill="#5BF1CD" stroke="#6F3FF5" stroke-width="0.895098" stroke-miterlimit="10"/>
<path d="M97.4342 47.4805V39.8705C97.4342 39.8705 97.4342 38.1521 100.17 38.1521" stroke="#6F3FF5" stroke-width="0.895098" stroke-miterlimit="10"/>
<path d="M78.2813 63.438L85.2451 59.5103" stroke="#6F3FF5" stroke-width="0.895098" stroke-miterlimit="10"/>
<path d="M82.0125 61.4734C82.0125 61.4734 91.4633 65.8921 89.9711 73.5021" stroke="#6F3FF5" stroke-width="0.895098" stroke-miterlimit="10"/>
<path d="M117.333 117.388C117.333 115.424 117.333 114.497 117.333 112.779C117.333 111.552 116.09 110.57 115.095 110.815C101.167 113.516 88.2346 113.516 74.3072 110.815C73.0637 110.57 72.0688 111.552 72.0688 112.779C72.0688 114.497 71.9352 117.041 71.9352 119.004" stroke="#6F3FF5" stroke-width="0.895098" stroke-miterlimit="10"/>
<path d="M110.87 111.306L111.251 119.813" stroke="#6F3FF5" stroke-width="0.895098" stroke-miterlimit="10"/>
<path d="M101.907 112.781V122.109" stroke="#6F3FF5" stroke-width="0.895098" stroke-miterlimit="10"/>
<path d="M92.2119 112.781V122.109" stroke="#6F3FF5" stroke-width="0.895098" stroke-miterlimit="10"/>
<path d="M80.7705 111.306L80.0244 120.389" stroke="#6F3FF5" stroke-width="0.895098" stroke-miterlimit="10"/>
<path d="M78.2861 58.0376L69.8302 60.0015C68.0893 60.4924 66.5971 61.4744 65.6023 62.9473C65.1049 63.9292 65.1048 67.1205 65.1048 67.1205" stroke="#6F3FF5" stroke-width="0.895098" stroke-miterlimit="10"/>
<path d="M113.101 71.0483C113.101 71.0483 117.329 80.1312 115.588 110.817" stroke="#6F3FF5" stroke-width="0.895098" stroke-miterlimit="10"/>
<path d="M115.343 81.8484C115.343 81.8484 100.42 86.7581 80.0267 84.0577" stroke="#6F3FF5" stroke-width="0.895098" stroke-miterlimit="10"/>
<path d="M115.343 86.759C115.343 86.759 98.9282 91.6687 78.2858 88.9684" stroke="#6F3FF5" stroke-width="0.895098" stroke-miterlimit="10"/>
<path d="M78.2861 63.4373L75.053 64.4192" stroke="#6F3FF5" stroke-width="0.895098" stroke-miterlimit="10"/>
<path d="M73.806 63.929C74.3035 63.929 74.5522 64.1744 75.0496 64.4199C76.0444 65.6473 78.034 68.8386 79.2776 73.0119C81.5159 80.6219 81.2672 91.4232 69.8268 95.3509V90.6867C69.8268 90.6867 77.5366 87.2499 75.547 77.1851C74.0548 70.3115 72.0651 67.8567 70.8216 67.1203C70.3242 66.6293 70.0755 65.8928 70.5729 65.4018C71.0703 64.6654 72.0651 63.929 73.806 63.929Z" stroke="#6F3FF5" stroke-width="0.895098" stroke-miterlimit="10"/>
<path d="M71.5752 81.6035V89.459" stroke="#6F3FF5" stroke-width="0.895098" stroke-miterlimit="10"/>
<path d="M71.8167 94.6145L73.5576 110.816" stroke="#6F3FF5" stroke-width="0.895098" stroke-miterlimit="10"/>
<path d="M73.3115 106.643C73.3115 106.643 65.1043 105.661 65.1043 95.842C65.1043 86.2681 65.1043 81.3584 65.1043 81.3584" stroke="#6F3FF5" stroke-width="0.895098" stroke-miterlimit="10"/>
<path d="M116.091 67.365C116.091 67.365 120.567 73.5021 119.573 87.7402C119.324 95.3502 116.339 94.6137 116.339 94.6137" stroke="#6F3FF5" stroke-width="0.895098" stroke-miterlimit="10"/>
<path d="M101.412 94.8582C96.8792 94.8582 93.2046 91.2313 93.2046 86.7572C93.2046 82.2832 96.8792 78.6562 101.412 78.6562C105.945 78.6562 109.619 82.2832 109.619 86.7572C109.619 91.2313 105.945 94.8582 101.412 94.8582Z" fill="#5BF1CD" stroke="#6F3FF5" stroke-width="0.895098" stroke-miterlimit="10"/>
<path d="M103.874 86.2491C104.148 86.6547 104.319 87.1279 104.319 87.601C104.319 88.0742 104.148 88.5474 103.874 88.9529L104.456 89.3923C104.833 88.8853 105.038 88.2432 105.038 87.601C105.038 86.9251 104.833 86.2829 104.422 85.7422L104.079 86.0464L103.874 86.2491Z" fill="#0D032E"/>
<path d="M105.004 89.797L102.984 88.2761C103.121 88.0733 103.224 87.8705 103.224 87.6339C103.224 87.3974 103.155 87.1608 103.053 86.958L104.011 86.1131L105.004 85.2005C105.073 85.1329 105.073 85.0315 105.004 84.9639L104.867 84.8287C104.148 84.119 103.19 83.7134 102.162 83.6797V83.1389C102.162 83.1051 102.162 83.0713 102.162 83.0375C102.162 83.0037 102.128 82.9699 102.094 82.9361C102.06 82.9023 102.025 82.9023 101.991 82.8685C101.957 82.8685 101.923 82.8347 101.888 82.8347C101.854 82.8347 101.82 82.8347 101.786 82.8685C101.752 82.8685 101.717 82.9023 101.683 82.9361C101.649 82.9699 101.649 83.0037 101.615 83.0375C101.615 83.0713 101.615 83.1051 101.615 83.1389V83.7134C101.375 83.7472 101.135 83.781 100.896 83.8486V83.1389C100.896 83.1051 100.896 83.0713 100.896 83.0375C100.896 83.0037 100.861 82.9699 100.827 82.9361C100.793 82.9023 100.759 82.9023 100.724 82.8685C100.69 82.8685 100.656 82.8347 100.622 82.8347C100.587 82.8347 100.553 82.8347 100.519 82.8685C100.485 82.8685 100.45 82.9023 100.416 82.9361C100.382 82.9699 100.382 83.0037 100.348 83.0375C100.348 83.0713 100.348 83.1051 100.348 83.1389V84.0176C99.5259 84.3894 98.8411 85.0315 98.4302 85.8089C98.0193 86.5862 97.8823 87.5325 98.0535 88.3775C98.2247 89.2562 98.7041 90.0336 99.3889 90.6081C100.074 91.1827 100.964 91.5206 101.854 91.5206H104.765C104.867 91.5206 104.936 91.4531 104.936 91.3517V89.8984C105.073 89.8984 105.039 89.8308 105.004 89.797ZM102.025 90.8447C101.306 90.8447 100.622 90.6081 100.039 90.1688C99.4574 89.7294 99.0808 89.121 98.8753 88.4451C98.7041 87.7691 98.7383 87.0256 99.0123 86.3834C99.2862 85.7413 99.7656 85.1667 100.416 84.8287V85.8765C100.416 85.9103 100.416 85.9441 100.416 85.9779C100.416 86.0117 100.45 86.0455 100.485 86.0793C100.519 86.1131 100.553 86.1131 100.587 86.1469C100.622 86.1469 100.656 86.1806 100.69 86.1806C100.724 86.1806 100.759 86.1807 100.793 86.1469C100.827 86.1469 100.861 86.1131 100.896 86.0793C100.93 86.0455 100.93 86.0117 100.964 85.9779C100.964 85.9441 100.964 85.9103 100.964 85.8765V84.5584C101.306 84.4232 101.717 84.3556 102.094 84.3556C102.813 84.3556 103.498 84.5922 104.046 84.9977C104.08 85.0315 104.08 85.0991 104.046 85.1329L102.505 86.5186C102.368 86.451 102.197 86.4172 102.06 86.4172C101.888 86.4172 101.717 86.451 101.58 86.5186C101.409 86.5862 101.272 86.6876 101.169 86.8228C101.067 86.958 100.964 87.0932 100.93 87.2622C100.896 87.4312 100.861 87.6001 100.896 87.7691C100.93 87.9381 100.964 88.1071 101.067 88.2423C101.169 88.3775 101.272 88.5127 101.409 88.5803C101.546 88.6817 101.717 88.7155 101.888 88.7493C102.06 88.7831 102.231 88.7492 102.402 88.7154L104.354 90.1688C104.388 90.1688 104.388 90.2025 104.388 90.2363V90.7433C104.388 90.7771 104.354 90.8109 104.32 90.8109L102.025 90.8447ZM102.505 87.6339C102.505 87.7353 102.471 87.8029 102.436 87.9043C102.368 87.9719 102.299 88.0395 102.231 88.0733C102.128 88.1071 102.06 88.1071 101.957 88.1071C101.854 88.0733 101.786 88.0395 101.717 87.9719C101.649 87.9043 101.615 87.8367 101.58 87.7353C101.58 87.6339 101.58 87.5664 101.615 87.465C101.649 87.3636 101.717 87.296 101.786 87.2622C101.854 87.2284 101.957 87.1946 102.06 87.1946C102.197 87.1946 102.299 87.2284 102.402 87.3298C102.471 87.3974 102.505 87.4988 102.505 87.6339Z" fill="#0D032E"/>
<path d="M119.82 89.2777C119.82 89.2777 122.533 89.2777 127.69 102.972C127.69 102.972 133.02 104.115 137.753 97.8C137.753 97.8 133.013 80.5975 116.009 66.9607" stroke="#6F3FF5" stroke-width="0.895098" stroke-miterlimit="10"/>
<path d="M135.974 91.918C135.974 91.918 132.128 97.0492 125.511 96.7976" stroke="#6F3FF5" stroke-width="0.895098" stroke-miterlimit="10"/>
<path d="M136.962 98.4392C136.962 98.4392 138.281 100.41 137.463 102.836M128.586 103.011C129.779 104.346 130.38 106.893 130.683 109.083" stroke="#6F3FF5" stroke-width="0.895098" stroke-miterlimit="10"/>
<path d="M126.595 112L126.594 109.803L127.997 103.804" stroke="#6F3FF5" stroke-width="0.895098" stroke-miterlimit="10"/>
<path d="M20.3337 102.224C20.8311 98.7872 27.5461 93.3865 27.5461 93.3865C28.6912 90.338 31.8006 83.109 35.0769 81.8155C38.3531 76.6413 47.9089 72.3835 52.2772 70.4971C52.8232 74.8088 53.2601 83.9175 50.6391 85.8578C48.0181 87.7981 42.4484 93.1339 39.9912 95.5593L36.715 99.6015L35.0769 107.686C34.082 107.932 29.5358 108.852 29.5358 108.852C22.572 106.888 20.3337 102.224 20.3337 102.224Z" fill="white"/>
<path d="M40.4873 95.8415L36.7567 99.7692C36.7567 99.7692 30.2904 97.5599 27.0573 92.8957L30.5391 88.2314" stroke="#6F3FF5" stroke-width="0.895098" stroke-miterlimit="10"/>
<path d="M70.5733 66.8733C70.5733 66.8733 51.1743 66.8733 37.993 79.1475C37.993 79.1475 33.0189 83.3207 30.5318 87.7394C30.5318 87.7394 32.7701 92.8946 40.9774 96.0859C40.9774 96.0859 45.4541 87.2485 55.1536 83.3207C64.853 79.6385 71.3193 82.8298 71.3193 82.8298" stroke="#6F3FF5" stroke-width="0.895098" stroke-miterlimit="10"/>
<path d="M27.547 93.3865C27.547 93.3865 20.832 98.7871 20.3346 102.224C20.3346 102.224 22.5729 106.888 29.5367 108.852C29.5367 108.852 34.262 99.5236 35.2568 99.2781" stroke="#6F3FF5" stroke-width="0.895098" stroke-miterlimit="10"/>
<path d="M29.5402 108.851L35.0117 107.869L36.5039 100.014" stroke="#6F3FF5" stroke-width="0.895098" stroke-miterlimit="10"/>
</svg>
