<svg width="110" height="294" viewBox="0 0 110 294" fill="none" xmlns="http://www.w3.org/2000/svg">
<path d="M39.3597 290.365C39.3597 291.612 38.3397 292.632 37.0897 292.632C35.8397 292.632 34.8198 291.612 34.8198 290.365C34.8198 289.103 35.8397 288.099 37.0897 288.099C38.3397 288.099 39.3597 289.103 39.3597 290.365Z" fill="#E2E0E7"/>
<path d="M39.3597 290.365C39.3597 291.612 38.3397 292.632 37.0897 292.632C35.8397 292.632 34.8198 291.612 34.8198 290.365C34.8198 289.103 35.8397 288.099 37.0897 288.099C38.3397 288.099 39.3597 289.103 39.3597 290.365Z" fill="#E2E0E7"/>
<path d="M49.8103 275.469C49.8103 276.716 48.7903 277.736 47.5503 277.736C46.2803 277.736 45.2603 276.716 45.2603 275.469C45.2603 274.223 46.2803 273.203 47.5503 273.203C48.7903 273.203 49.8103 274.223 49.8103 275.469Z" fill="#E2E0E7"/>
<path d="M49.8103 275.469C49.8103 276.716 48.7903 277.736 47.5503 277.736C46.2803 277.736 45.2603 276.716 45.2603 275.469C45.2603 274.223 46.2803 273.203 47.5503 273.203C48.7903 273.203 49.8103 274.223 49.8103 275.469Z" fill="#E2E0E7"/>
<path d="M55.7198 282.464C55.7198 283.727 54.6998 284.73 53.4598 284.73C52.1898 284.73 51.1899 283.727 51.1899 282.464C51.1899 281.217 52.1898 280.197 53.4598 280.197C54.6998 280.197 55.7198 281.217 55.7198 282.464Z" fill="#E2E0E7"/>
<path d="M55.7198 282.464C55.7198 283.727 54.6998 284.73 53.4598 284.73C52.1898 284.73 51.1899 283.727 51.1899 282.464C51.1899 281.217 52.1898 280.197 53.4598 280.197C54.6998 280.197 55.7198 281.217 55.7198 282.464Z" fill="#E2E0E7"/>
<path d="M66.1002 279.372C66.1002 280.635 65.0803 281.655 63.8303 281.655C62.5703 281.655 61.5503 280.635 61.5503 279.372C61.5503 278.125 62.5703 277.105 63.8303 277.105C65.0803 277.105 66.1002 278.125 66.1002 279.372Z" fill="#E2E0E7"/>
<path d="M66.1002 279.372C66.1002 280.635 65.0803 281.655 63.8303 281.655C62.5703 281.655 61.5503 280.635 61.5503 279.372C61.5503 278.125 62.5703 277.105 63.8303 277.105C65.0803 277.105 66.1002 278.125 66.1002 279.372Z" fill="#E2E0E7"/>
<path d="M81.6902 290.948C81.6902 292.195 80.6902 293.215 79.4202 293.215C78.1802 293.215 77.1602 292.195 77.1602 290.948C77.1602 289.685 78.1802 288.665 79.4202 288.665C80.6902 288.665 81.6902 289.685 81.6902 290.948Z" fill="#E2E0E7"/>
<path d="M81.6902 290.948C81.6902 292.195 80.6902 293.215 79.4202 293.215C78.1802 293.215 77.1602 292.195 77.1602 290.948C77.1602 289.685 78.1802 288.665 79.4202 288.665C80.6902 288.665 81.6902 289.685 81.6902 290.948Z" fill="#E2E0E7"/>
<path d="M109.52 228.192V231.285L108.35 228.419C108.21 228.079 104.87 220.307 91.89 220.145V245.516L90.77 243.849C90.76 243.833 90.2501 243.12 88.8301 242.165V263.035L87.62 263.1C87.6 262.905 87.32 260.768 85.67 258.615C85.24 259.586 84.62 260.46 83.84 261.189C85.3 263.002 86.11 265.237 86.11 267.536C86.11 270.612 84.75 273.462 82.35 275.404C82.86 276.408 83.12 277.477 83.12 278.545C83.12 282.447 79.9601 285.605 76.0601 285.605C72.1701 285.605 69.01 282.447 69.01 278.545C69.01 277.542 69.2401 276.554 69.6801 275.615C67.2001 273.688 65.73 270.742 65.71 267.601C64.89 266.775 64.27 265.787 63.88 264.735C63.48 266.062 62.62 267.244 61.41 268.151C61.73 268.766 61.91 269.43 61.91 270.094C61.91 272.717 59.46 274.838 56.47 274.838C53.46 274.838 51.01 272.717 51.01 270.094C51.01 269.479 51.1601 268.88 51.4501 268.297C49.6501 267.05 48.6 265.188 48.54 263.197C47.98 262.695 47.55 262.112 47.26 261.497C47.26 262.015 47.22 262.339 47.21 262.387L46.5 262.339C46.43 264.379 45.6 266.273 44.15 267.746C44.13 270.904 42.6601 273.85 40.1801 275.777C40.6201 276.716 40.85 277.704 40.85 278.707C40.85 282.609 37.69 285.767 33.8 285.767C29.9 285.767 26.74 282.609 26.74 278.707C26.74 277.639 27 276.554 27.51 275.566C25.11 273.624 23.75 270.774 23.75 267.698C23.75 265.399 24.56 263.164 26.02 261.335C25.14 260.525 24.46 259.505 24.02 258.388C22.21 260.622 21.94 262.905 21.9 263.1L20.6901 263.035V242.165C19.2601 243.12 18.76 243.833 18.75 243.849L17.63 245.452V220.145C4.65001 220.307 1.31004 228.079 1.17004 228.419L0 231.285V228.192C0 191.763 15.22 184.51 17.65 183.587V170.488C17.76 170.068 18.62 167.914 24.91 166.02V151.351C22.28 151.141 20.8501 150.574 20.4501 149.586C20.3701 149.392 20.3301 149.181 20.3301 149.003L19.85 149.02C19.6 143.822 14.2801 21.275 54.0701 0.324005L54.7001 0L55.4 0.291016C61.21 3.35202 66.05 8.56504 70.1 15.268C70.12 15.284 70.12 15.284 70.13 15.284V15.3C93.8 54.547 89.88 144.583 89.67 149.02L89.1901 149.003C89.1901 149.198 89.1501 149.392 89.0701 149.586C88.6701 150.574 87.24 151.141 84.6 151.351V166.02C90.9 167.898 91.76 170.068 91.87 170.488L91.89 170.65V183.587C94.38 184.542 109.52 191.86 109.52 228.192Z" fill="#E2E0E7"/>
<path d="M109.52 228.192V231.285L108.35 228.419C108.21 228.079 104.87 220.307 91.89 220.145V245.516L90.77 243.849C90.76 243.833 90.2501 243.12 88.8301 242.165V263.035L87.62 263.1C87.6 262.905 87.32 260.768 85.67 258.615C85.24 259.586 84.62 260.46 83.84 261.189C85.3 263.002 86.11 265.237 86.11 267.536C86.11 270.612 84.75 273.462 82.35 275.404C82.86 276.408 83.12 277.477 83.12 278.545C83.12 282.447 79.9601 285.605 76.0601 285.605C72.1701 285.605 69.01 282.447 69.01 278.545C69.01 277.542 69.2401 276.554 69.6801 275.615C67.2001 273.688 65.73 270.742 65.71 267.601C64.89 266.775 64.27 265.787 63.88 264.735C63.48 266.062 62.62 267.244 61.41 268.151C61.73 268.766 61.91 269.43 61.91 270.094C61.91 272.717 59.46 274.838 56.47 274.838C53.46 274.838 51.01 272.717 51.01 270.094C51.01 269.479 51.1601 268.88 51.4501 268.297C49.6501 267.05 48.6 265.188 48.54 263.197C47.98 262.695 47.55 262.112 47.26 261.497C47.26 262.015 47.22 262.339 47.21 262.387L46.5 262.339C46.43 264.379 45.6 266.273 44.15 267.746C44.13 270.904 42.6601 273.85 40.1801 275.777C40.6201 276.716 40.85 277.704 40.85 278.707C40.85 282.609 37.69 285.767 33.8 285.767C29.9 285.767 26.74 282.609 26.74 278.707C26.74 277.639 27 276.554 27.51 275.566C25.11 273.624 23.75 270.774 23.75 267.698C23.75 265.399 24.56 263.164 26.02 261.335C25.14 260.525 24.46 259.505 24.02 258.388C22.21 260.622 21.94 262.905 21.9 263.1L20.6901 263.035V242.165C19.2601 243.12 18.76 243.833 18.75 243.849L17.63 245.452V220.145C4.65001 220.307 1.31004 228.079 1.17004 228.419L0 231.285V228.192C0 191.763 15.22 184.51 17.65 183.587V170.488C17.76 170.068 18.62 167.914 24.91 166.02V151.351C22.28 151.141 20.8501 150.574 20.4501 149.586C20.3701 149.392 20.3301 149.181 20.3301 149.003L19.85 149.02C19.6 143.822 14.2801 21.275 54.0701 0.324005L54.7001 0L55.4 0.291016C61.21 3.35202 66.05 8.56504 70.1 15.268C70.12 15.284 70.12 15.284 70.13 15.284V15.3C93.8 54.547 89.88 144.583 89.67 149.02L89.1901 149.003C89.1901 149.198 89.1501 149.392 89.0701 149.586C88.6701 150.574 87.24 151.141 84.6 151.351V166.02C90.9 167.898 91.76 170.068 91.87 170.488L91.89 170.65V183.587C94.38 184.542 109.52 191.86 109.52 228.192Z" fill="#E2E0E7"/>
<path d="M54.8799 115.976C64.9799 115.976 73.1699 107.786 73.1699 97.6821C73.1699 87.5791 64.9799 79.389 54.8799 79.389C44.7799 79.389 36.5898 87.5791 36.5898 97.6821C36.5898 107.786 44.7799 115.976 54.8799 115.976Z" fill="#5A27FB"/>
<path d="M54.8799 115.976C64.9799 115.976 73.1699 107.786 73.1699 97.6821C73.1699 87.5791 64.9799 79.389 54.8799 79.389C44.7799 79.389 36.5898 87.5791 36.5898 97.6821C36.5898 107.786 44.7799 115.976 54.8799 115.976Z" fill="#5A27FB"/>
<path d="M91.04 219.509L91.46 184.347L97.64 187.99L104.56 199.077L108.41 215.232L109.04 227.798L103.76 222.571L96.64 219.878L91.25 219.614" fill="#67F3B9"/>
<path d="M91.04 219.509L91.46 184.347L97.64 187.99L104.56 199.077L108.41 215.232L109.04 227.798L103.76 222.571L96.64 219.878L91.25 219.614" fill="#67F3B9"/>
<path d="M18.4502 219.509L18.0302 184.347L11.8501 187.99L4.94019 199.077L1.0802 215.232L0.450195 227.798L5.7301 222.571L12.8601 219.878L18.2401 219.614" fill="#67F3B9"/>
<path d="M18.4502 219.509L18.0302 184.347L11.8501 187.99L4.94019 199.077L1.0802 215.232L0.450195 227.798L5.7301 222.571L12.8601 219.878L18.2401 219.614" fill="#67F3B9"/>
<path d="M55.0398 178.645L50.3397 184.294L49.4897 188.359L55.4597 214.229L61.1598 192.372L61.7397 187.409L60.5298 183.66L56.0897 177.272" fill="#67F3B9"/>
<path d="M55.0398 178.645L50.3397 184.294L49.4897 188.359L55.4597 214.229L61.1598 192.372L61.7397 187.409L60.5298 183.66L56.0897 177.272" fill="#67F3B9"/>
<path d="M84.4899 166.924C84.4899 166.924 65.07 159.744 25.68 166.607C-13.7 173.471 25.68 166.607 25.68 166.607L25.7899 145.911C25.7899 145.911 50.7099 135.669 84.2799 145.806" fill="#67F3B9"/>
<path d="M84.4899 166.924C84.4899 166.924 65.07 159.744 25.68 166.607C-13.7 173.471 25.68 166.607 25.68 166.607L25.7899 145.911C25.7899 145.911 50.7099 135.669 84.2799 145.806" fill="#67F3B9"/>
<path d="M55.8199 222.736V223.951C51.7199 223.951 48.9998 224.177 47.2198 224.452C46.7498 224.533 46.3499 224.598 46.0099 224.679C44.2799 225.068 43.8599 225.489 43.7599 225.634V236.466L43.1899 236.514C41.6999 236.612 40.3099 236.725 38.9999 236.871C34.8399 237.308 31.4899 237.972 28.7999 238.717C25.6899 239.558 23.4899 240.53 21.9399 241.388C21.9199 241.404 21.9199 241.404 21.8999 241.42C21.4299 241.663 21.0299 241.922 20.6899 242.165C19.2599 243.12 18.7599 243.833 18.7499 243.849L17.6299 245.452V218.948L17.6499 201.154V170.489C17.7599 170.068 18.6199 167.914 24.9099 166.02C25.2999 165.907 25.7099 165.793 26.1299 165.68C27.5199 165.308 29.1399 164.968 31.0199 164.644C31.4099 164.579 31.8099 164.514 32.2299 164.45C34.0599 164.174 36.1298 163.915 38.4698 163.705C38.8698 163.672 39.2699 163.64 39.6799 163.608C41.6499 163.446 43.7899 163.316 46.1399 163.235C46.5299 163.219 46.9299 163.203 47.3499 163.187C49.6399 163.122 52.0999 163.073 54.7499 163.073H54.7699V164.288H54.7499C23.0999 164.288 19.1798 170.132 18.8398 170.764V242.019C21.1098 240.093 27.3799 236.336 42.5399 235.333V225.845C42.4999 225.602 42.5299 225.294 42.7399 224.97C43.7099 223.481 48.1099 222.736 55.8199 222.736Z" fill="#24048F"/>
<path d="M55.8199 222.736V223.951C51.7199 223.951 48.9998 224.177 47.2198 224.452C46.7498 224.533 46.3499 224.598 46.0099 224.679C44.2799 225.068 43.8599 225.489 43.7599 225.634V236.466L43.1899 236.514C41.6999 236.612 40.3099 236.725 38.9999 236.871C34.8399 237.308 31.4899 237.972 28.7999 238.717C25.6899 239.558 23.4899 240.53 21.9399 241.388C21.9199 241.404 21.9199 241.404 21.8999 241.42C21.4299 241.663 21.0299 241.922 20.6899 242.165C19.2599 243.12 18.7599 243.833 18.7499 243.849L17.6299 245.452V218.948L17.6499 201.154V170.489C17.7599 170.068 18.6199 167.914 24.9099 166.02C25.2999 165.907 25.7099 165.793 26.1299 165.68C27.5199 165.308 29.1399 164.968 31.0199 164.644C31.4099 164.579 31.8099 164.514 32.2299 164.45C34.0599 164.174 36.1298 163.915 38.4698 163.705C38.8698 163.672 39.2699 163.64 39.6799 163.608C41.6499 163.446 43.7899 163.316 46.1399 163.235C46.5299 163.219 46.9299 163.203 47.3499 163.187C49.6399 163.122 52.0999 163.073 54.7499 163.073H54.7699V164.288H54.7499C23.0999 164.288 19.1798 170.132 18.8398 170.764V242.019C21.1098 240.093 27.3799 236.336 42.5399 235.333V225.845C42.4999 225.602 42.5299 225.294 42.7399 224.97C43.7099 223.481 48.1099 222.736 55.8199 222.736Z" fill="#24048F"/>
<path d="M89.1901 149.004C89.1901 149.198 89.1501 149.392 89.0701 149.587C88.6701 150.574 87.24 151.141 84.61 151.351C84.36 151.368 84.0901 151.384 83.8101 151.4L83.75 150.186C84.05 150.17 84.35 150.153 84.61 150.121C87.47 149.894 87.89 149.263 87.96 149.133C88.02 148.971 87.86 148.761 87.86 148.761C86.97 147.984 85.87 147.288 84.61 146.689C84.22 146.494 83.81 146.316 83.39 146.138C82.34 145.701 81.22 145.329 80.04 144.972C79.64 144.859 79.2301 144.746 78.8301 144.648C76.8201 144.114 74.7 143.693 72.59 143.353C72.19 143.305 71.78 143.24 71.38 143.175C69.13 142.868 66.91 142.641 64.9 142.479C64.48 142.447 64.0801 142.414 63.6901 142.382C59.2901 142.09 56.11 142.107 56.01 142.107H53.51C53.42 142.123 50.95 142.107 47.35 142.317C46.96 142.333 46.56 142.349 46.14 142.382C44.18 142.511 41.9801 142.706 39.6801 142.997C39.2801 143.046 38.87 143.094 38.47 143.159C36.39 143.434 34.27 143.807 32.23 144.276L31.02 144.568C29.29 145.021 27.62 145.555 26.13 146.17C25.71 146.348 25.3 146.527 24.91 146.721C23.64 147.32 22.52 148.016 21.61 148.81C21.61 148.81 21.55 148.923 21.55 149.036C21.55 149.069 21.5501 149.101 21.5601 149.133C21.6301 149.263 22.05 149.894 24.91 150.121C25.17 150.153 25.47 150.17 25.77 150.186L25.71 151.4C25.43 151.384 25.17 151.368 24.91 151.351C22.28 151.141 20.8501 150.574 20.4501 149.587C20.3701 149.392 20.3301 149.182 20.3301 149.004C20.3501 148.55 20.56 148.162 20.75 147.968C20.84 147.887 20.93 147.822 21.01 147.757C29.5 140.763 52.53 140.892 53.51 140.892H56.01C57 140.908 80.12 140.763 88.51 147.725C88.59 147.789 88.65 147.838 88.72 147.903C88.94 148.146 89.1701 148.55 89.1901 149.004Z" fill="#24048F"/>
<path d="M89.1901 149.004C89.1901 149.198 89.1501 149.392 89.0701 149.587C88.6701 150.574 87.24 151.141 84.61 151.351C84.36 151.368 84.0901 151.384 83.8101 151.4L83.75 150.186C84.05 150.17 84.35 150.153 84.61 150.121C87.47 149.894 87.89 149.263 87.96 149.133C88.02 148.971 87.86 148.761 87.86 148.761C86.97 147.984 85.87 147.288 84.61 146.689C84.22 146.494 83.81 146.316 83.39 146.138C82.34 145.701 81.22 145.329 80.04 144.972C79.64 144.859 79.2301 144.746 78.8301 144.648C76.8201 144.114 74.7 143.693 72.59 143.353C72.19 143.305 71.78 143.24 71.38 143.175C69.13 142.868 66.91 142.641 64.9 142.479C64.48 142.447 64.0801 142.414 63.6901 142.382C59.2901 142.09 56.11 142.107 56.01 142.107H53.51C53.42 142.123 50.95 142.107 47.35 142.317C46.96 142.333 46.56 142.349 46.14 142.382C44.18 142.511 41.9801 142.706 39.6801 142.997C39.2801 143.046 38.87 143.094 38.47 143.159C36.39 143.434 34.27 143.807 32.23 144.276L31.02 144.568C29.29 145.021 27.62 145.555 26.13 146.17C25.71 146.348 25.3 146.527 24.91 146.721C23.64 147.32 22.52 148.016 21.61 148.81C21.61 148.81 21.55 148.923 21.55 149.036C21.55 149.069 21.5501 149.101 21.5601 149.133C21.6301 149.263 22.05 149.894 24.91 150.121C25.17 150.153 25.47 150.17 25.77 150.186L25.71 151.4C25.43 151.384 25.17 151.368 24.91 151.351C22.28 151.141 20.8501 150.574 20.4501 149.587C20.3701 149.392 20.3301 149.182 20.3301 149.004C20.3501 148.55 20.56 148.162 20.75 147.968C20.84 147.887 20.93 147.822 21.01 147.757C29.5 140.763 52.53 140.892 53.51 140.892H56.01C57 140.908 80.12 140.763 88.51 147.725C88.59 147.789 88.65 147.838 88.72 147.903C88.94 148.146 89.1701 148.55 89.1901 149.004Z" fill="#24048F"/>
<path d="M89.6702 149.02L89.1902 149.003L88.4601 148.971C88.4601 148.906 88.4701 148.485 88.5101 147.724C88.8001 139.532 90.0302 92.692 82.0802 53.656C82.0002 53.187 81.9002 52.717 81.8002 52.264C80.3102 45.172 78.5201 38.372 76.3501 32.122C76.1701 31.62 76.0102 31.135 75.8102 30.649C73.9002 25.355 71.7201 20.497 69.2101 16.239C68.8901 15.705 68.5601 15.171 68.2401 14.653C64.5001 8.72698 60.0801 4.129 54.8801 1.392L54.7501 1.328L54.6201 1.392C49.3801 4.161 44.9202 8.808 41.1702 14.814C40.8602 15.3 40.5501 15.818 40.2501 16.32C37.7401 20.595 35.5501 25.484 33.6401 30.795C33.4801 31.248 33.3201 31.701 33.1601 32.171C33.1401 32.171 33.1401 32.171 33.1401 32.171C30.9901 38.437 29.1902 45.253 27.7002 52.361C27.6002 52.798 27.5102 53.235 27.4202 53.688C19.4902 92.757 20.7401 139.645 21.0101 147.757C21.0501 148.485 21.0602 148.906 21.0602 148.971L20.3302 149.003L19.8501 149.02C19.6001 143.822 14.2802 21.275 54.0702 0.324005L54.7002 0L55.4001 0.291016C61.2101 3.35202 66.0501 8.56504 70.1001 15.268C70.1001 15.268 70.1201 15.284 70.1301 15.3C93.8001 54.547 89.8802 144.583 89.6702 149.02Z" fill="#24048F"/>
<path d="M89.6702 149.02L89.1902 149.003L88.4601 148.971C88.4601 148.906 88.4701 148.485 88.5101 147.724C88.8001 139.532 90.0302 92.692 82.0802 53.656C82.0002 53.187 81.9002 52.717 81.8002 52.264C80.3102 45.172 78.5201 38.372 76.3501 32.122C76.1701 31.62 76.0102 31.135 75.8102 30.649C73.9002 25.355 71.7201 20.497 69.2101 16.239C68.8901 15.705 68.5601 15.171 68.2401 14.653C64.5001 8.72698 60.0801 4.129 54.8801 1.392L54.7501 1.328L54.6201 1.392C49.3801 4.161 44.9202 8.808 41.1702 14.814C40.8602 15.3 40.5501 15.818 40.2501 16.32C37.7401 20.595 35.5501 25.484 33.6401 30.795C33.4801 31.248 33.3201 31.701 33.1601 32.171C33.1401 32.171 33.1401 32.171 33.1401 32.171C30.9901 38.437 29.1902 45.253 27.7002 52.361C27.6002 52.798 27.5102 53.235 27.4202 53.688C19.4902 92.757 20.7401 139.645 21.0101 147.757C21.0501 148.485 21.0602 148.906 21.0602 148.971L20.3302 149.003L19.8501 149.02C19.6001 143.822 14.2802 21.275 54.0702 0.324005L54.7002 0L55.4001 0.291016C61.2101 3.35202 66.0501 8.56504 70.1001 15.268C70.1001 15.268 70.1201 15.284 70.1301 15.3C93.8001 54.547 89.8802 144.583 89.6702 149.02Z" fill="#24048F"/>
<path d="M26.1301 145.944H24.9102V166.425H26.1301V145.944Z" fill="#24048F"/>
<path d="M26.1301 145.944H24.9102V166.425H26.1301V145.944Z" fill="#24048F"/>
<path d="M47.2599 261.497C47.2599 262.015 47.2198 262.339 47.2098 262.388L46.4999 262.339L46.0099 262.307V261.06C45.9099 260.024 45.5599 258.502 44.3699 257.142C42.5599 255.086 39.44 254.033 35.08 254.033C29.09 254.033 25.8099 256.187 24.0199 258.389C22.2099 260.623 21.9399 262.906 21.8999 263.1L20.6899 263.035V241.178H21.8999V259.473C23.4899 256.543 27.07 252.819 35.08 252.819C39.81 252.819 43.2599 254.017 45.2999 256.365C45.5699 256.672 45.7999 256.996 46.0099 257.304V223.886H47.2198V260.931C47.2398 261.141 47.2599 261.335 47.2599 261.497Z" fill="#24048F"/>
<path d="M47.2599 261.497C47.2599 262.015 47.2198 262.339 47.2098 262.388L46.4999 262.339L46.0099 262.307V261.06C45.9099 260.024 45.5599 258.502 44.3699 257.142C42.5599 255.086 39.44 254.033 35.08 254.033C29.09 254.033 25.8099 256.187 24.0199 258.389C22.2099 260.623 21.9399 262.906 21.8999 263.1L20.6899 263.035V241.178H21.8999V259.473C23.4899 256.543 27.07 252.819 35.08 252.819C39.81 252.819 43.2599 254.017 45.2999 256.365C45.5699 256.672 45.7999 256.996 46.0099 257.304V223.886H47.2198V260.931C47.2398 261.141 47.2599 261.335 47.2599 261.497Z" fill="#24048F"/>
<path d="M17.63 218.948C17.76 218.931 17.9 218.931 18.03 218.931V220.146H17.63C4.65001 220.308 1.31004 228.079 1.17004 228.419L0 231.285V228.193C0 191.763 15.22 184.51 17.65 183.587C17.81 183.522 17.9001 183.49 17.9501 183.474L18.3101 184.639C18.2901 184.639 18.05 184.737 17.65 184.931C15.2 186.08 6.64996 191.359 2.95996 209.298C2.71996 210.399 2.51008 211.548 2.33008 212.763C2.33008 212.795 2.31006 212.811 2.31006 212.811C1.72006 216.665 1.32998 221.02 1.22998 225.958C3.16998 223.319 7.84 219.045 17.63 218.948Z" fill="#24048F"/>
<path d="M17.63 218.948C17.76 218.931 17.9 218.931 18.03 218.931V220.146H17.63C4.65001 220.308 1.31004 228.079 1.17004 228.419L0 231.285V228.193C0 191.763 15.22 184.51 17.65 183.587C17.81 183.522 17.9001 183.49 17.9501 183.474L18.3101 184.639C18.2901 184.639 18.05 184.737 17.65 184.931C15.2 186.08 6.64996 191.359 2.95996 209.298C2.71996 210.399 2.51008 211.548 2.33008 212.763C2.33008 212.795 2.31006 212.811 2.31006 212.811C1.72006 216.665 1.32998 221.02 1.22998 225.958C3.16998 223.319 7.84 219.045 17.63 218.948Z" fill="#24048F"/>
<path d="M2.32031 212.818L1.22021 212.315C1.45021 211.809 7.00023 199.921 18.2402 199.921V201.135C7.77023 201.135 2.38031 212.701 2.32031 212.818Z" fill="#24048F"/>
<path d="M2.32031 212.818L1.22021 212.315C1.45021 211.809 7.00023 199.921 18.2402 199.921V201.135C7.77023 201.135 2.38031 212.701 2.32031 212.818Z" fill="#24048F"/>
<path d="M18.7999 234.489L18.1499 233.461C18.4699 233.264 26.0199 228.615 43.0299 228.615V229.829C26.4199 229.829 18.8799 234.442 18.7999 234.489Z" fill="#24048F"/>
<path d="M18.7999 234.489L18.1499 233.461C18.4699 233.264 26.0199 228.615 43.0299 228.615V229.829C26.4199 229.829 18.8799 234.442 18.7999 234.489Z" fill="#24048F"/>
<path d="M21.9398 255.695L20.7798 255.338C20.8498 255.076 22.8698 248.89 34.6498 248.89C46.5298 248.89 47.1698 254.355 47.1898 254.589L45.9897 254.699C45.9797 254.661 45.3198 250.104 34.6498 250.104C23.8398 250.104 22.0098 255.468 21.9398 255.695Z" fill="#24048F"/>
<path d="M21.9398 255.695L20.7798 255.338C20.8498 255.076 22.8698 248.89 34.6498 248.89C46.5298 248.89 47.1698 254.355 47.1898 254.589L45.9897 254.699C45.9797 254.661 45.3198 250.104 34.6498 250.104C23.8398 250.104 22.0098 255.468 21.9398 255.695Z" fill="#24048F"/>
<path d="M21.9398 251.63L20.7798 251.273C20.8498 251.01 22.8698 244.825 34.6498 244.825C46.5298 244.825 47.1698 250.289 47.1898 250.523L45.9897 250.634C45.9797 250.596 45.3198 246.039 34.6498 246.039C23.8398 246.039 22.0098 251.403 21.9398 251.63Z" fill="#24048F"/>
<path d="M21.9398 251.63L20.7798 251.273C20.8498 251.01 22.8698 244.825 34.6498 244.825C46.5298 244.825 47.1698 250.289 47.1898 250.523L45.9897 250.634C45.9797 250.596 45.3198 246.039 34.6498 246.039C23.8398 246.039 22.0098 251.403 21.9398 251.63Z" fill="#24048F"/>
<path d="M21.9398 247.565L20.7798 247.208C20.8498 246.945 22.8698 240.758 34.6498 240.758C46.5298 240.758 47.1698 246.224 47.1898 246.458L45.9897 246.569C45.9797 246.531 45.3198 241.973 34.6498 241.973C23.8398 241.973 22.0098 247.338 21.9398 247.565Z" fill="#24048F"/>
<path d="M21.9398 247.565L20.7798 247.208C20.8498 246.945 22.8698 240.758 34.6498 240.758C46.5298 240.758 47.1698 246.224 47.1898 246.458L45.9897 246.569C45.9797 246.531 45.3198 241.973 34.6498 241.973C23.8398 241.973 22.0098 247.338 21.9398 247.565Z" fill="#24048F"/>
<path d="M22.0702 243.499L20.9102 243.141C20.9802 242.893 22.9102 237.06 34.6902 236.693C46.5602 236.342 47.1702 242.15 47.1902 242.397L45.9801 242.501C45.9801 242.458 45.3301 237.561 34.7301 237.908C23.8101 238.248 22.0802 243.446 22.0702 243.499Z" fill="#24048F"/>
<path d="M22.0702 243.499L20.9102 243.141C20.9802 242.893 22.9102 237.06 34.6902 236.693C46.5602 236.342 47.1702 242.15 47.1902 242.397L45.9801 242.501C45.9801 242.458 45.3301 237.561 34.7301 237.908C23.8101 238.248 22.0802 243.446 22.0702 243.499Z" fill="#24048F"/>
<path d="M46.1198 236.361C44.9898 234.596 43.0498 233.923 43.0298 233.917L43.4198 232.766C43.5098 232.797 45.7698 233.57 47.1398 235.706L46.1198 236.361Z" fill="#24048F"/>
<path d="M46.1198 236.361C44.9898 234.596 43.0498 233.923 43.0298 233.917L43.4198 232.766C43.5098 232.797 45.7698 233.57 47.1398 235.706L46.1198 236.361Z" fill="#24048F"/>
<path d="M46.1198 230.541C44.9798 228.761 43.0498 228.103 43.0298 228.097L43.4198 226.945C43.5098 226.977 45.7698 227.749 47.1398 229.886L46.1198 230.541Z" fill="#24048F"/>
<path d="M46.1198 230.541C44.9798 228.761 43.0498 228.103 43.0298 228.097L43.4198 226.945C43.5098 226.977 45.7698 227.749 47.1398 229.886L46.1198 230.541Z" fill="#24048F"/>
<path d="M91.89 170.651V245.517L90.77 243.849C90.76 243.833 90.2501 243.12 88.8301 242.165C88.4901 241.922 88.09 241.679 87.62 241.42C87.6 241.404 87.6001 241.404 87.5801 241.404C84.7001 239.785 79.5 237.81 70.52 236.871C69.21 236.725 67.8201 236.612 66.3301 236.514L65.76 236.466V225.974C65.55 225.764 64.95 225.278 63.51 224.841C63.17 224.728 62.77 224.631 62.3 224.533C60.81 224.193 58.7201 223.951 55.8201 223.951V222.736C65.0501 222.736 66.73 225.181 66.89 225.456L66.97 225.602V235.333C82.14 236.336 88.4101 240.093 90.6801 242.019V170.764C90.3801 170.197 86.61 164.288 54.77 164.288H54.75V163.073H55.97C58.75 163.09 61.3201 163.154 63.6901 163.235C64.0901 163.268 64.5 163.284 64.9 163.3C67.27 163.413 69.42 163.559 71.38 163.737C71.8 163.77 72.2 163.818 72.59 163.85C74.94 164.093 77.0101 164.385 78.8301 164.692C79.2501 164.773 79.65 164.854 80.04 164.919C81.29 165.162 82.4 165.421 83.39 165.68C83.81 165.793 84.22 165.907 84.6 166.02C90.9 167.898 91.76 170.068 91.87 170.489L91.89 170.651Z" fill="#24048F"/>
<path d="M91.89 170.651V245.517L90.77 243.849C90.76 243.833 90.2501 243.12 88.8301 242.165C88.4901 241.922 88.09 241.679 87.62 241.42C87.6 241.404 87.6001 241.404 87.5801 241.404C84.7001 239.785 79.5 237.81 70.52 236.871C69.21 236.725 67.8201 236.612 66.3301 236.514L65.76 236.466V225.974C65.55 225.764 64.95 225.278 63.51 224.841C63.17 224.728 62.77 224.631 62.3 224.533C60.81 224.193 58.7201 223.951 55.8201 223.951V222.736C65.0501 222.736 66.73 225.181 66.89 225.456L66.97 225.602V235.333C82.14 236.336 88.4101 240.093 90.6801 242.019V170.764C90.3801 170.197 86.61 164.288 54.77 164.288H54.75V163.073H55.97C58.75 163.09 61.3201 163.154 63.6901 163.235C64.0901 163.268 64.5 163.284 64.9 163.3C67.27 163.413 69.42 163.559 71.38 163.737C71.8 163.77 72.2 163.818 72.59 163.85C74.94 164.093 77.0101 164.385 78.8301 164.692C79.2501 164.773 79.65 164.854 80.04 164.919C81.29 165.162 82.4 165.421 83.39 165.68C83.81 165.793 84.22 165.907 84.6 166.02C90.9 167.898 91.76 170.068 91.87 170.489L91.89 170.651Z" fill="#24048F"/>
<path d="M84.6001 145.944H83.3901V166.425H84.6001V145.944Z" fill="#24048F"/>
<path d="M84.6001 145.944H83.3901V166.425H84.6001V145.944Z" fill="#24048F"/>
<path d="M88.8298 241.178V263.035L87.6197 263.1C87.5997 262.906 87.3198 260.769 85.6698 258.615C83.9198 256.332 80.6398 254.033 74.4398 254.033C72.7098 254.033 71.1498 254.195 69.8198 254.535C69.5998 254.584 69.3898 254.649 69.1798 254.713C67.4598 255.231 66.1198 256.041 65.1498 257.158C64.1598 258.308 63.7398 259.554 63.5698 260.526C63.5398 260.704 63.5298 260.866 63.5098 261.012V262.307L63.3597 262.323L62.8597 262.355L62.3098 262.388C62.2998 262.323 62.2298 261.773 62.2998 260.931V223.886H63.5098V257.304C63.7198 256.996 63.9497 256.672 64.2197 256.365C65.3197 255.102 66.8297 254.163 68.7197 253.596C68.9497 253.515 69.1898 253.45 69.4398 253.386C69.6898 253.321 69.9697 253.256 70.2397 253.208C70.3697 253.175 70.4897 253.159 70.6197 253.143C71.7797 252.932 73.0498 252.819 74.4398 252.819C80.4098 252.819 83.9097 254.891 85.9597 257.158L86.0098 257.207C86.0598 257.255 86.0898 257.304 86.1398 257.352C86.7598 258.065 87.2397 258.793 87.6197 259.473V241.178H88.8298Z" fill="#24048F"/>
<path d="M88.8298 241.178V263.035L87.6197 263.1C87.5997 262.906 87.3198 260.769 85.6698 258.615C83.9198 256.332 80.6398 254.033 74.4398 254.033C72.7098 254.033 71.1498 254.195 69.8198 254.535C69.5998 254.584 69.3898 254.649 69.1798 254.713C67.4598 255.231 66.1198 256.041 65.1498 257.158C64.1598 258.308 63.7398 259.554 63.5698 260.526C63.5398 260.704 63.5298 260.866 63.5098 261.012V262.307L63.3597 262.323L62.8597 262.355L62.3098 262.388C62.2998 262.323 62.2298 261.773 62.2998 260.931V223.886H63.5098V257.304C63.7198 256.996 63.9497 256.672 64.2197 256.365C65.3197 255.102 66.8297 254.163 68.7197 253.596C68.9497 253.515 69.1898 253.45 69.4398 253.386C69.6898 253.321 69.9697 253.256 70.2397 253.208C70.3697 253.175 70.4897 253.159 70.6197 253.143C71.7797 252.932 73.0498 252.819 74.4398 252.819C80.4098 252.819 83.9097 254.891 85.9597 257.158L86.0098 257.207C86.0598 257.255 86.0898 257.304 86.1398 257.352C86.7598 258.065 87.2397 258.793 87.6197 259.473V241.178H88.8298Z" fill="#24048F"/>
<path d="M109.52 228.193V231.285L108.35 228.419C108.21 228.079 104.87 220.308 91.89 220.146H91.48V218.931C91.61 218.931 91.76 218.931 91.89 218.948C101.68 219.045 106.35 223.319 108.29 225.958C108.19 221.02 107.82 216.665 107.2 212.828C107.03 211.597 106.8 210.431 106.57 209.314C102.87 191.407 94.35 186.113 91.89 184.931C91.47 184.737 91.23 184.639 91.21 184.639L91.5701 183.474C91.6101 183.49 91.73 183.522 91.89 183.587C94.38 184.542 109.52 191.861 109.52 228.193Z" fill="#24048F"/>
<path d="M109.52 228.193V231.285L108.35 228.419C108.21 228.079 104.87 220.308 91.89 220.146H91.48V218.931C91.61 218.931 91.76 218.931 91.89 218.948C101.68 219.045 106.35 223.319 108.29 225.958C108.19 221.02 107.82 216.665 107.2 212.828C107.03 211.597 106.8 210.431 106.57 209.314C102.87 191.407 94.35 186.113 91.89 184.931C91.47 184.737 91.23 184.639 91.21 184.639L91.5701 183.474C91.6101 183.49 91.73 183.522 91.89 183.587C94.38 184.542 109.52 191.861 109.52 228.193Z" fill="#24048F"/>
<path d="M107.2 212.82C107.14 212.703 101.73 201.135 91.2798 201.135V199.921C102.52 199.921 108.07 211.809 108.3 212.315L107.2 212.82Z" fill="#24048F"/>
<path d="M107.2 212.82C107.14 212.703 101.73 201.135 91.2798 201.135V199.921C102.52 199.921 108.07 211.809 108.3 212.315L107.2 212.82Z" fill="#24048F"/>
<path d="M90.7197 234.489C90.6397 234.442 83.0997 229.829 66.4897 229.829V228.615C83.4997 228.615 91.0497 233.264 91.3597 233.461L90.7197 234.489Z" fill="#24048F"/>
<path d="M90.7197 234.489C90.6397 234.442 83.0997 229.829 66.4897 229.829V228.615C83.4997 228.615 91.0497 233.264 91.3597 233.461L90.7197 234.489Z" fill="#24048F"/>
<path d="M87.5801 255.695C87.5101 255.468 85.68 250.104 74.87 250.104C64.2 250.104 63.54 254.661 63.53 254.707L62.3301 254.589C62.3501 254.355 62.99 248.89 74.87 248.89C86.65 248.89 88.66 255.076 88.74 255.338L87.5801 255.692L88.16 255.515L87.5801 255.695Z" fill="#24048F"/>
<path d="M87.5801 255.695C87.5101 255.468 85.68 250.104 74.87 250.104C64.2 250.104 63.54 254.661 63.53 254.707L62.3301 254.589C62.3501 254.355 62.99 248.89 74.87 248.89C86.65 248.89 88.66 255.076 88.74 255.338L87.5801 255.692L88.16 255.515L87.5801 255.695Z" fill="#24048F"/>
<path d="M87.5801 251.63C87.5101 251.403 85.68 246.039 74.87 246.039C64.2 246.039 63.54 250.596 63.53 250.642L62.3301 250.523C62.3501 250.289 62.99 244.825 74.87 244.825C86.65 244.825 88.66 251.01 88.74 251.273L87.5801 251.627L88.16 251.45L87.5801 251.63Z" fill="#24048F"/>
<path d="M87.5801 251.63C87.5101 251.403 85.68 246.039 74.87 246.039C64.2 246.039 63.54 250.596 63.53 250.642L62.3301 250.523C62.3501 250.289 62.99 244.825 74.87 244.825C86.65 244.825 88.66 251.01 88.74 251.273L87.5801 251.627L88.16 251.45L87.5801 251.63Z" fill="#24048F"/>
<path d="M87.5801 247.565C87.5101 247.338 85.68 241.973 74.87 241.973C64.2 241.973 63.54 246.531 63.53 246.577L62.3301 246.458C62.3501 246.224 62.99 240.758 74.87 240.758C86.65 240.758 88.66 246.945 88.74 247.208L87.5801 247.562L88.16 247.385L87.5801 247.565Z" fill="#24048F"/>
<path d="M87.5801 247.565C87.5101 247.338 85.68 241.973 74.87 241.973C64.2 241.973 63.54 246.531 63.53 246.577L62.3301 246.458C62.3501 246.224 62.99 240.758 74.87 240.758C86.65 240.758 88.66 246.945 88.74 247.208L87.5801 247.562L88.16 247.385L87.5801 247.565Z" fill="#24048F"/>
<path d="M87.4498 243.503C87.4298 243.449 85.6198 238.244 74.7898 237.907C64.1798 237.577 63.5398 242.458 63.5298 242.507L62.3198 242.396C62.3498 242.148 63.0098 236.326 74.8298 236.693C86.6098 237.06 88.5297 242.893 88.6097 243.141L87.4498 243.503Z" fill="#24048F"/>
<path d="M87.4498 243.503C87.4298 243.449 85.6198 238.244 74.7898 237.907C64.1798 237.577 63.5398 242.458 63.5298 242.507L62.3198 242.396C62.3498 242.148 63.0098 236.326 74.8298 236.693C86.6098 237.06 88.5297 242.893 88.6097 243.141L87.4498 243.503Z" fill="#24048F"/>
<path d="M63.3999 236.361L62.3799 235.706C63.7499 233.57 66.0099 232.797 66.0999 232.766L66.4899 233.917C66.4699 233.923 64.5299 234.596 63.3999 236.361Z" fill="#24048F"/>
<path d="M63.3999 236.361L62.3799 235.706C63.7499 233.57 66.0099 232.797 66.0999 232.766L66.4899 233.917C66.4699 233.923 64.5299 234.596 63.3999 236.361Z" fill="#24048F"/>
<path d="M63.3999 230.541L62.3799 229.886C63.7399 227.749 66.0099 226.977 66.0999 226.945L66.4899 228.097C66.4699 228.103 64.5299 228.775 63.3999 230.541Z" fill="#24048F"/>
<path d="M63.3999 230.541L62.3799 229.886C63.7399 227.749 66.0099 226.977 66.0999 226.945L66.4899 228.097C66.4699 228.103 64.5299 228.775 63.3999 230.541Z" fill="#24048F"/>
<path d="M27.2 53.7569L26.8599 52.5929C27.1799 52.4999 58.4599 43.5079 82.7599 52.6059L82.33 53.7439C58.4 44.7819 27.51 53.6669 27.2 53.7569Z" fill="#24048F"/>
<path d="M27.2 53.7569L26.8599 52.5929C27.1799 52.4999 58.4599 43.5079 82.7599 52.6059L82.33 53.7439C58.4 44.7819 27.51 53.6669 27.2 53.7569Z" fill="#24048F"/>
<path d="M32.9801 32.217L32.6401 31.054C32.8801 30.981 57.7001 23.845 76.9801 31.066L76.5502 32.205C57.6602 25.124 33.2201 32.146 32.9801 32.217Z" fill="#24048F"/>
<path d="M32.9801 32.217L32.6401 31.054C32.8801 30.981 57.7001 23.845 76.9801 31.066L76.5502 32.205C57.6602 25.124 33.2201 32.146 32.9801 32.217Z" fill="#24048F"/>
<path d="M70.1302 15.285V15.301L69.7102 16.418C69.5502 16.353 69.3702 16.289 69.2102 16.24C57.4902 12.095 42.8802 15.625 40.2502 16.321C39.9902 16.386 39.8403 16.434 39.8203 16.434L39.4702 15.269C39.6002 15.236 40.2003 15.058 41.1703 14.815C45.5703 13.763 57.6202 11.431 68.2402 14.653C68.8702 14.831 69.4802 15.042 70.1002 15.269C70.1202 15.285 70.1202 15.285 70.1302 15.285Z" fill="#24048F"/>
<path d="M70.1302 15.285V15.301L69.7102 16.418C69.5502 16.353 69.3702 16.289 69.2102 16.24C57.4902 12.095 42.8802 15.625 40.2502 16.321C39.9902 16.386 39.8403 16.434 39.8203 16.434L39.4702 15.269C39.6002 15.236 40.2003 15.058 41.1703 14.815C45.5703 13.763 57.6202 11.431 68.2402 14.653C68.8702 14.831 69.4802 15.042 70.1002 15.269C70.1202 15.285 70.1202 15.285 70.1302 15.285Z" fill="#24048F"/>
<path d="M32.23 144.055H31.02V165.155H32.23V144.055Z" fill="#24048F"/>
<path d="M32.23 144.055H31.02V165.155H32.23V144.055Z" fill="#24048F"/>
<path d="M39.67 142.426H38.46V164.205H39.67V142.426Z" fill="#24048F"/>
<path d="M39.67 142.426H38.46V164.205H39.67V142.426Z" fill="#24048F"/>
<path d="M47.3601 141.952H46.1401V163.73H47.3601V141.952Z" fill="#24048F"/>
<path d="M47.3601 141.952H46.1401V163.73H47.3601V141.952Z" fill="#24048F"/>
<path d="M80.0298 144.055H78.8198V165.155H80.0298V144.055Z" fill="#24048F"/>
<path d="M80.0298 144.055H78.8198V165.155H80.0298V144.055Z" fill="#24048F"/>
<path d="M72.5898 142.426H71.3799V164.205H72.5898V142.426Z" fill="#24048F"/>
<path d="M72.5898 142.426H71.3799V164.205H72.5898V142.426Z" fill="#24048F"/>
<path d="M64.9099 141.952H63.6899V163.73H64.9099V141.952Z" fill="#24048F"/>
<path d="M64.9099 141.952H63.6899V163.73H64.9099V141.952Z" fill="#24048F"/>
<path d="M55.96 141.792H54.75V163.571H55.96V141.792Z" fill="#24048F"/>
<path d="M55.96 141.792H54.75V163.571H55.96V141.792Z" fill="#24048F"/>
<path d="M54.67 78.59C44.12 78.59 35.54 87.187 35.54 97.728C35.54 108.284 44.12 116.881 54.67 116.881C65.23 116.881 73.8101 108.284 73.8101 97.728C73.8101 87.187 65.23 78.59 54.67 78.59ZM54.67 115.667C44.78 115.667 36.75 107.62 36.75 97.728C36.75 95.704 37.09 93.745 37.72 91.931C37.85 91.526 38.01 91.122 38.17 90.733C38.87 89.066 39.83 87.527 40.98 86.184C41.23 85.876 41.49 85.585 41.78 85.293C45.04 81.909 49.6 79.804 54.67 79.804C64.55 79.804 72.59 87.851 72.59 97.728C72.59 107.62 64.55 115.667 54.67 115.667Z" fill="#24048F"/>
<path d="M54.67 78.59C44.12 78.59 35.54 87.187 35.54 97.728C35.54 108.284 44.12 116.881 54.67 116.881C65.23 116.881 73.8101 108.284 73.8101 97.728C73.8101 87.187 65.23 78.59 54.67 78.59ZM54.67 115.667C44.78 115.667 36.75 107.62 36.75 97.728C36.75 95.704 37.09 93.745 37.72 91.931C37.85 91.526 38.01 91.122 38.17 90.733C38.87 89.066 39.83 87.527 40.98 86.184C41.23 85.876 41.49 85.585 41.78 85.293C45.04 81.909 49.6 79.804 54.67 79.804C64.55 79.804 72.59 87.851 72.59 97.728C72.59 107.62 64.55 115.667 54.67 115.667Z" fill="#24048F"/>
<path d="M54.6699 71.256C40.0699 71.256 28.1899 83.14 28.1899 97.728C28.1899 112.332 40.0699 124.216 54.6699 124.216C69.2699 124.216 81.1399 112.332 81.1399 97.728C81.1399 83.14 69.2699 71.256 54.6699 71.256ZM54.6699 123.001C40.7299 123.001 29.3999 111.668 29.3999 97.728C29.3999 83.804 40.7299 72.47 54.6699 72.47C68.5899 72.47 79.9299 83.804 79.9299 97.728C79.9299 111.668 68.5899 123.001 54.6699 123.001Z" fill="#24048F"/>
<path d="M54.6699 71.256C40.0699 71.256 28.1899 83.14 28.1899 97.728C28.1899 112.332 40.0699 124.216 54.6699 124.216C69.2699 124.216 81.1399 112.332 81.1399 97.728C81.1399 83.14 69.2699 71.256 54.6699 71.256ZM54.6699 123.001C40.7299 123.001 29.3999 111.668 29.3999 97.728C29.3999 83.804 40.7299 72.47 54.6699 72.47C68.5899 72.47 79.9299 83.804 79.9299 97.728C79.9299 111.668 68.5899 123.001 54.6699 123.001Z" fill="#24048F"/>
<path d="M31.9402 62.1251C32.9002 62.1251 33.6802 61.345 33.6802 60.382C33.6802 59.42 32.9002 58.64 31.9402 58.64C30.9802 58.64 30.2002 59.42 30.2002 60.382C30.2002 61.345 30.9802 62.1251 31.9402 62.1251Z" fill="#24048F"/>
<path d="M31.9402 62.1251C32.9002 62.1251 33.6802 61.345 33.6802 60.382C33.6802 59.42 32.9002 58.64 31.9402 58.64C30.9802 58.64 30.2002 59.42 30.2002 60.382C30.2002 61.345 30.9802 62.1251 31.9402 62.1251Z" fill="#24048F"/>
<path d="M47.78 60.54C48.74 60.54 49.52 59.76 49.52 58.798C49.52 57.836 48.74 57.056 47.78 57.056C46.82 57.056 46.04 57.836 46.04 58.798C46.04 59.76 46.82 60.54 47.78 60.54Z" fill="#24048F"/>
<path d="M47.78 60.54C48.74 60.54 49.52 59.76 49.52 58.798C49.52 57.836 48.74 57.056 47.78 57.056C46.82 57.056 46.04 57.836 46.04 58.798C46.04 59.76 46.82 60.54 47.78 60.54Z" fill="#24048F"/>
<path d="M27.08 139.734C28.05 139.734 28.83 138.954 28.83 137.992C28.83 137.03 28.05 136.25 27.08 136.25C26.12 136.25 25.3398 137.03 25.3398 137.992C25.3398 138.954 26.12 139.734 27.08 139.734Z" fill="#24048F"/>
<path d="M27.08 139.734C28.05 139.734 28.83 138.954 28.83 137.992C28.83 137.03 28.05 136.25 27.08 136.25C26.12 136.25 25.3398 137.03 25.3398 137.992C25.3398 138.954 26.12 139.734 27.08 139.734Z" fill="#24048F"/>
<path d="M40.7001 137.042C41.6701 137.042 42.4501 136.262 42.4501 135.299C42.4501 134.337 41.6701 133.557 40.7001 133.557C39.7401 133.557 38.96 134.337 38.96 135.299C38.96 136.262 39.7401 137.042 40.7001 137.042Z" fill="#24048F"/>
<path d="M40.7001 137.042C41.6701 137.042 42.4501 136.262 42.4501 135.299C42.4501 134.337 41.6701 133.557 40.7001 133.557C39.7401 133.557 38.96 134.337 38.96 135.299C38.96 136.262 39.7401 137.042 40.7001 137.042Z" fill="#24048F"/>
<path d="M80.9299 139.734C81.8899 139.734 82.6699 138.954 82.6699 137.992C82.6699 137.03 81.8899 136.25 80.9299 136.25C79.9699 136.25 79.1899 137.03 79.1899 137.992C79.1899 138.954 79.9699 139.734 80.9299 139.734Z" fill="#24048F"/>
<path d="M80.9299 139.734C81.8899 139.734 82.6699 138.954 82.6699 137.992C82.6699 137.03 81.8899 136.25 80.9299 136.25C79.9699 136.25 79.1899 137.03 79.1899 137.992C79.1899 138.954 79.9699 139.734 80.9299 139.734Z" fill="#24048F"/>
<path d="M67.3098 137.042C68.2698 137.042 69.0498 136.262 69.0498 135.299C69.0498 134.337 68.2698 133.557 67.3098 133.557C66.3498 133.557 65.5698 134.337 65.5698 135.299C65.5698 136.262 66.3498 137.042 67.3098 137.042Z" fill="#24048F"/>
<path d="M67.3098 137.042C68.2698 137.042 69.0498 136.262 69.0498 135.299C69.0498 134.337 68.2698 133.557 67.3098 133.557C66.3498 133.557 65.5698 134.337 65.5698 135.299C65.5698 136.262 66.3498 137.042 67.3098 137.042Z" fill="#24048F"/>
<path d="M55.1201 136.804C56.0801 136.804 56.8601 136.024 56.8601 135.062C56.8601 134.1 56.0801 133.32 55.1201 133.32C54.1501 133.32 53.3701 134.1 53.3701 135.062C53.3701 136.024 54.1501 136.804 55.1201 136.804Z" fill="#24048F"/>
<path d="M55.1201 136.804C56.0801 136.804 56.8601 136.024 56.8601 135.062C56.8601 134.1 56.0801 133.32 55.1201 133.32C54.1501 133.32 53.3701 134.1 53.3701 135.062C53.3701 136.024 54.1501 136.804 55.1201 136.804Z" fill="#24048F"/>
<path d="M27.08 174.685C28.05 174.685 28.83 173.905 28.83 172.943C28.83 171.981 28.05 171.201 27.08 171.201C26.12 171.201 25.3398 171.981 25.3398 172.943C25.3398 173.905 26.12 174.685 27.08 174.685Z" fill="#24048F"/>
<path d="M27.08 174.685C28.05 174.685 28.83 173.905 28.83 172.943C28.83 171.981 28.05 171.201 27.08 171.201C26.12 171.201 25.3398 171.981 25.3398 172.943C25.3398 173.905 26.12 174.685 27.08 174.685Z" fill="#24048F"/>
<path d="M40.7001 171.992C41.6701 171.992 42.4501 171.212 42.4501 170.25C42.4501 169.288 41.6701 168.508 40.7001 168.508C39.7401 168.508 38.96 169.288 38.96 170.25C38.96 171.212 39.7401 171.992 40.7001 171.992Z" fill="#24048F"/>
<path d="M40.7001 171.992C41.6701 171.992 42.4501 171.212 42.4501 170.25C42.4501 169.288 41.6701 168.508 40.7001 168.508C39.7401 168.508 38.96 169.288 38.96 170.25C38.96 171.212 39.7401 171.992 40.7001 171.992Z" fill="#24048F"/>
<path d="M84.6299 174.685C85.5899 174.685 86.3699 173.905 86.3699 172.943C86.3699 171.981 85.5899 171.201 84.6299 171.201C83.6599 171.201 82.8799 171.981 82.8799 172.943C82.8799 173.905 83.6599 174.685 84.6299 174.685Z" fill="#24048F"/>
<path d="M84.6299 174.685C85.5899 174.685 86.3699 173.905 86.3699 172.943C86.3699 171.981 85.5899 171.201 84.6299 171.201C83.6599 171.201 82.8799 171.981 82.8799 172.943C82.8799 173.905 83.6599 174.685 84.6299 174.685Z" fill="#24048F"/>
<path d="M67.3098 171.992C68.2698 171.992 69.0498 171.212 69.0498 170.25C69.0498 169.288 68.2698 168.508 67.3098 168.508C66.3498 168.508 65.5698 169.288 65.5698 170.25C65.5698 171.212 66.3498 171.992 67.3098 171.992Z" fill="#24048F"/>
<path d="M67.3098 171.992C68.2698 171.992 69.0498 171.212 69.0498 170.25C69.0498 169.288 68.2698 168.508 67.3098 168.508C66.3498 168.508 65.5698 169.288 65.5698 170.25C65.5698 171.212 66.3498 171.992 67.3098 171.992Z" fill="#24048F"/>
<path d="M55.1201 171.755C56.0801 171.755 56.8601 170.975 56.8601 170.013C56.8601 169.05 56.0801 168.27 55.1201 168.27C54.1501 168.27 53.3701 169.05 53.3701 170.013C53.3701 170.975 54.1501 171.755 55.1201 171.755Z" fill="#24048F"/>
<path d="M55.1201 171.755C56.0801 171.755 56.8601 170.975 56.8601 170.013C56.8601 169.05 56.0801 168.27 55.1201 168.27C54.1501 168.27 53.3701 169.05 53.3701 170.013C53.3701 170.975 54.1501 171.755 55.1201 171.755Z" fill="#24048F"/>
<path d="M79.1401 62.1251C80.1001 62.1251 80.8801 61.345 80.8801 60.382C80.8801 59.42 80.1001 58.64 79.1401 58.64C78.1701 58.64 77.3901 59.42 77.3901 60.382C77.3901 61.345 78.1701 62.1251 79.1401 62.1251Z" fill="#24048F"/>
<path d="M79.1401 62.1251C80.1001 62.1251 80.8801 61.345 80.8801 60.382C80.8801 59.42 80.1001 58.64 79.1401 58.64C78.1701 58.64 77.3901 59.42 77.3901 60.382C77.3901 61.345 78.1701 62.1251 79.1401 62.1251Z" fill="#24048F"/>
<path d="M64.2502 60.54C65.2102 60.54 65.9902 59.76 65.9902 58.798C65.9902 57.836 65.2102 57.056 64.2502 57.056C63.2902 57.056 62.5103 57.836 62.5103 58.798C62.5103 59.76 63.2902 60.54 64.2502 60.54Z" fill="#24048F"/>
<path d="M64.2502 60.54C65.2102 60.54 65.9902 59.76 65.9902 58.798C65.9902 57.836 65.2102 57.056 64.2502 57.056C63.2902 57.056 62.5103 57.836 62.5103 58.798C62.5103 59.76 63.2902 60.54 64.2502 60.54Z" fill="#24048F"/>
<path d="M60.2602 182.179L55.8501 176.56L51.0402 182.049C49.0502 184.332 48.3402 187.441 49.1202 190.355L56.0502 218.721L62.0901 189.124C62.4601 186.68 61.7902 184.138 60.2602 182.179ZM60.8902 188.914L55.9302 213.168L50.3002 190.047C49.6202 187.522 50.2501 184.834 51.9701 182.859L55.8002 178.455L59.3002 182.923C60.6302 184.623 61.2102 186.825 60.8902 188.914Z" fill="#24048F"/>
<path d="M60.2602 182.179L55.8501 176.56L51.0402 182.049C49.0502 184.332 48.3402 187.441 49.1202 190.355L56.0502 218.721L62.0901 189.124C62.4601 186.68 61.7902 184.138 60.2602 182.179ZM60.8902 188.914L55.9302 213.168L50.3002 190.047C49.6202 187.522 50.2501 184.834 51.9701 182.859L55.8002 178.455L59.3002 182.923C60.6302 184.623 61.2102 186.825 60.8902 188.914Z" fill="#24048F"/>
<path d="M39.7101 253.402C39.5301 253.288 39.3502 253.288 39.1902 253.304L39.0001 253.272C33.6401 252.511 28.4802 253.871 24.0402 257.207L23.7002 257.466L23.8302 257.87C23.8802 258.048 23.9401 258.227 24.0201 258.388C24.4601 259.506 25.1401 260.526 26.0101 261.335C24.5601 263.165 23.7501 265.399 23.7501 267.698C23.7501 270.774 25.1101 273.624 27.5001 275.567C27.0001 276.554 26.7401 277.639 26.7401 278.708C26.7401 282.61 29.9002 285.767 33.8002 285.767C37.6902 285.767 40.8401 282.61 40.8401 278.708C40.8401 277.704 40.6202 276.716 40.1802 275.777C42.6602 273.851 44.1301 270.904 44.1501 267.747C45.6001 266.273 46.4301 264.379 46.4901 262.339C46.5101 262.242 46.5101 262.145 46.5101 262.048C46.5101 257.644 43.5501 253.904 39.7101 253.402ZM43.1101 267.083L42.9202 267.261V267.536C42.9202 267.585 42.9302 267.65 42.9302 267.698C42.9302 270.645 41.4902 273.397 39.0602 275.081L38.6101 275.405L38.8701 275.891C39.3901 276.797 39.6301 277.736 39.6301 278.708C39.6301 281.93 37.0202 284.553 33.8002 284.553C30.5802 284.553 27.9601 281.93 27.9601 278.708C27.9601 277.672 28.2502 276.668 28.8002 275.713L29.0901 275.243L28.6501 274.919C26.3101 273.203 24.9601 270.564 24.9601 267.698C24.9601 265.496 25.8002 263.359 27.3302 261.691L27.7501 261.206L27.2601 260.817C26.3101 260.04 25.5801 259.036 25.1201 257.919C29.1601 255.021 33.8001 253.823 38.6301 254.454L38.6401 254.47C38.7901 254.551 38.9302 254.567 39.0802 254.567L39.3501 254.584C43.0801 254.94 45.3002 258.648 45.3002 262.048C45.3002 263.958 44.5201 265.739 43.1101 267.083Z" fill="#24048F"/>
<path d="M39.7101 253.402C39.5301 253.288 39.3502 253.288 39.1902 253.304L39.0001 253.272C33.6401 252.511 28.4802 253.871 24.0402 257.207L23.7002 257.466L23.8302 257.87C23.8802 258.048 23.9401 258.227 24.0201 258.388C24.4601 259.506 25.1401 260.526 26.0101 261.335C24.5601 263.165 23.7501 265.399 23.7501 267.698C23.7501 270.774 25.1101 273.624 27.5001 275.567C27.0001 276.554 26.7401 277.639 26.7401 278.708C26.7401 282.61 29.9002 285.767 33.8002 285.767C37.6902 285.767 40.8401 282.61 40.8401 278.708C40.8401 277.704 40.6202 276.716 40.1802 275.777C42.6602 273.851 44.1301 270.904 44.1501 267.747C45.6001 266.273 46.4301 264.379 46.4901 262.339C46.5101 262.242 46.5101 262.145 46.5101 262.048C46.5101 257.644 43.5501 253.904 39.7101 253.402ZM43.1101 267.083L42.9202 267.261V267.536C42.9202 267.585 42.9302 267.65 42.9302 267.698C42.9302 270.645 41.4902 273.397 39.0602 275.081L38.6101 275.405L38.8701 275.891C39.3901 276.797 39.6301 277.736 39.6301 278.708C39.6301 281.93 37.0202 284.553 33.8002 284.553C30.5802 284.553 27.9601 281.93 27.9601 278.708C27.9601 277.672 28.2502 276.668 28.8002 275.713L29.0901 275.243L28.6501 274.919C26.3101 273.203 24.9601 270.564 24.9601 267.698C24.9601 265.496 25.8002 263.359 27.3302 261.691L27.7501 261.206L27.2601 260.817C26.3101 260.04 25.5801 259.036 25.1201 257.919C29.1601 255.021 33.8001 253.823 38.6301 254.454L38.6401 254.47C38.7901 254.551 38.9302 254.567 39.0802 254.567L39.3501 254.584C43.0801 254.94 45.3002 258.648 45.3002 262.048C45.3002 263.958 44.5201 265.739 43.1101 267.083Z" fill="#24048F"/>
<path d="M37.0897 288.099C35.8397 288.099 34.8198 289.103 34.8198 290.365C34.8198 291.612 35.8397 292.632 37.0897 292.632C38.3397 292.632 39.3597 291.612 39.3597 290.365C39.3597 289.103 38.3397 288.099 37.0897 288.099ZM37.0897 291.418C36.5097 291.418 36.0398 290.948 36.0398 290.365C36.0398 289.783 36.5097 289.313 37.0897 289.313C37.6697 289.313 38.1398 289.783 38.1398 290.365C38.1398 290.948 37.6697 291.418 37.0897 291.418Z" fill="#24048F"/>
<path d="M37.0897 288.099C35.8397 288.099 34.8198 289.103 34.8198 290.365C34.8198 291.612 35.8397 292.632 37.0897 292.632C38.3397 292.632 39.3597 291.612 39.3597 290.365C39.3597 289.103 38.3397 288.099 37.0897 288.099ZM37.0897 291.418C36.5097 291.418 36.0398 290.948 36.0398 290.365C36.0398 289.783 36.5097 289.313 37.0897 289.313C37.6697 289.313 38.1398 289.783 38.1398 290.365C38.1398 290.948 37.6697 291.418 37.0897 291.418Z" fill="#24048F"/>
<path d="M86.0302 257.708L86.1401 257.352L86.1602 257.303L86.0101 257.206L85.9601 257.158L85.8202 257.044C81.3802 253.725 76.2001 252.365 70.8601 253.126L70.6802 253.142H70.6201C70.4901 253.159 70.3701 253.175 70.2401 253.207C70.2101 253.207 70.1801 253.24 70.1501 253.256C69.9001 253.288 69.6802 253.337 69.4402 253.385C69.1902 253.45 68.9501 253.515 68.7201 253.596C66.0401 254.551 63.9801 257.174 63.4801 260.331C63.4001 260.833 63.3501 261.351 63.3501 261.885C63.3501 262.031 63.3501 262.177 63.3601 262.323C63.4101 263.165 63.5701 263.974 63.8801 264.735C64.2701 265.787 64.8901 266.775 65.7101 267.601C65.7301 270.742 67.2002 273.689 69.6802 275.615C69.2402 276.554 69.0101 277.542 69.0101 278.546C69.0101 282.448 72.1702 285.605 76.0602 285.605C79.9602 285.605 83.1201 282.448 83.1201 278.546C83.1201 277.477 82.8601 276.409 82.3501 275.405C84.7501 273.462 86.1101 270.612 86.1101 267.536C86.1101 265.237 85.3001 263.003 83.8401 261.189C84.6201 260.461 85.2402 259.586 85.6702 258.615C85.8202 258.324 85.9302 258.016 86.0302 257.708ZM82.6101 260.655L82.1101 261.06L82.5302 261.529C84.0502 263.197 84.9001 265.334 84.9001 267.536C84.9001 270.402 83.5501 273.041 81.2201 274.757L80.7701 275.081L81.0602 275.567C81.6302 276.506 81.9001 277.509 81.9001 278.546C81.9001 281.768 79.2802 284.391 76.0602 284.391C72.8502 284.391 70.2301 281.768 70.2301 278.546C70.2301 277.59 70.4901 276.635 70.9901 275.729L71.2501 275.243L70.8002 274.935C68.3702 273.251 66.9302 270.483 66.9302 267.536L66.9402 267.099L66.7501 266.921C65.3401 265.593 64.5602 263.796 64.5602 261.885C64.5602 258.906 66.2602 255.701 69.1802 254.713C69.3902 254.648 69.6002 254.583 69.8202 254.535C70.0502 254.503 70.2801 254.454 70.5001 254.438L70.7802 254.405C70.9102 254.405 71.0701 254.405 71.2201 254.308L71.2301 254.292C76.0401 253.661 80.6901 254.859 84.7301 257.757C84.2801 258.89 83.5501 259.878 82.6101 260.655Z" fill="#24048F"/>
<path d="M86.0302 257.708L86.1401 257.352L86.1602 257.303L86.0101 257.206L85.9601 257.158L85.8202 257.044C81.3802 253.725 76.2001 252.365 70.8601 253.126L70.6802 253.142H70.6201C70.4901 253.159 70.3701 253.175 70.2401 253.207C70.2101 253.207 70.1801 253.24 70.1501 253.256C69.9001 253.288 69.6802 253.337 69.4402 253.385C69.1902 253.45 68.9501 253.515 68.7201 253.596C66.0401 254.551 63.9801 257.174 63.4801 260.331C63.4001 260.833 63.3501 261.351 63.3501 261.885C63.3501 262.031 63.3501 262.177 63.3601 262.323C63.4101 263.165 63.5701 263.974 63.8801 264.735C64.2701 265.787 64.8901 266.775 65.7101 267.601C65.7301 270.742 67.2002 273.689 69.6802 275.615C69.2402 276.554 69.0101 277.542 69.0101 278.546C69.0101 282.448 72.1702 285.605 76.0602 285.605C79.9602 285.605 83.1201 282.448 83.1201 278.546C83.1201 277.477 82.8601 276.409 82.3501 275.405C84.7501 273.462 86.1101 270.612 86.1101 267.536C86.1101 265.237 85.3001 263.003 83.8401 261.189C84.6201 260.461 85.2402 259.586 85.6702 258.615C85.8202 258.324 85.9302 258.016 86.0302 257.708ZM82.6101 260.655L82.1101 261.06L82.5302 261.529C84.0502 263.197 84.9001 265.334 84.9001 267.536C84.9001 270.402 83.5501 273.041 81.2201 274.757L80.7701 275.081L81.0602 275.567C81.6302 276.506 81.9001 277.509 81.9001 278.546C81.9001 281.768 79.2802 284.391 76.0602 284.391C72.8502 284.391 70.2301 281.768 70.2301 278.546C70.2301 277.59 70.4901 276.635 70.9901 275.729L71.2501 275.243L70.8002 274.935C68.3702 273.251 66.9302 270.483 66.9302 267.536L66.9402 267.099L66.7501 266.921C65.3401 265.593 64.5602 263.796 64.5602 261.885C64.5602 258.906 66.2602 255.701 69.1802 254.713C69.3902 254.648 69.6002 254.583 69.8202 254.535C70.0502 254.503 70.2801 254.454 70.5001 254.438L70.7802 254.405C70.9102 254.405 71.0701 254.405 71.2201 254.308L71.2301 254.292C76.0401 253.661 80.6901 254.859 84.7301 257.757C84.2801 258.89 83.5501 259.878 82.6101 260.655Z" fill="#24048F"/>
<path d="M61.3101 258.421L60.6901 258.842L61.24 259.36C61.68 259.781 62.04 260.234 62.3 260.72V257.514C62.02 257.854 61.7001 258.162 61.3101 258.421ZM63.48 260.331C63.23 259.862 62.93 259.408 62.55 258.988C63.25 258.372 63.7701 257.644 64.0801 256.834L64.24 256.381L64.22 256.365L63.8301 256.106C63.7201 256.041 63.62 255.976 63.51 255.911C63.38 255.83 63.23 255.749 63.1 255.668C62.83 255.507 62.57 255.361 62.3 255.247C59.32 253.726 55.98 253.159 52.55 253.58L52.42 253.596C52.31 253.58 52.14 253.58 52 253.661C50.17 253.855 48.58 254.908 47.66 256.381C47.48 256.64 47.34 256.915 47.22 257.207C46.93 257.887 46.77 258.631 46.77 259.408C46.77 260.137 46.93 260.849 47.26 261.497C47.55 262.112 47.98 262.695 48.53 263.197C48.6 265.189 49.6501 267.051 51.4501 268.297C51.1601 268.88 51.01 269.479 51.01 270.094C51.01 272.717 53.46 274.838 56.47 274.838C59.46 274.838 61.91 272.717 61.91 270.094C61.91 269.431 61.73 268.767 61.41 268.152C62.62 267.245 63.48 266.063 63.88 264.735C64.06 264.185 64.14 263.618 64.14 263.035C64.14 262.177 63.9501 261.319 63.5701 260.526C63.5401 260.461 63.51 260.396 63.48 260.331ZM60.27 267.471L59.72 267.811L60.09 268.33C60.48 268.896 60.6901 269.479 60.6901 270.094C60.6901 272.037 58.8 273.624 56.47 273.624C54.12 273.624 52.23 272.037 52.23 270.094C52.23 269.528 52.4 268.961 52.76 268.427L53.12 267.892L52.5701 267.569C50.8001 266.532 49.75 264.832 49.77 262.938L49.78 262.63L49.54 262.452C48.53 261.643 47.98 260.558 47.98 259.408C47.98 257.66 49.13 255.766 51.12 255.086C51.4 254.988 51.71 254.924 52.03 254.875C52.11 254.859 52.19 254.843 52.29 254.843L52.52 254.826C52.58 254.843 52.6501 254.826 52.7001 254.81H52.79V254.794C52.81 254.778 52.84 254.778 52.86 254.762C56.19 254.389 59.43 255.037 62.3 256.608C62.44 256.688 62.59 256.769 62.73 256.85C62.6 257.077 62.46 257.304 62.3 257.514C62.02 257.854 61.7001 258.162 61.3101 258.421L60.6901 258.842L61.24 259.36C61.68 259.781 62.04 260.234 62.3 260.72C62.6 261.238 62.78 261.789 62.86 262.355C62.91 262.582 62.9301 262.809 62.9301 263.035C62.9301 264.784 61.96 266.403 60.27 267.471Z" fill="#24048F"/>
<path d="M61.3101 258.421L60.6901 258.842L61.24 259.36C61.68 259.781 62.04 260.234 62.3 260.72V257.514C62.02 257.854 61.7001 258.162 61.3101 258.421ZM63.48 260.331C63.23 259.862 62.93 259.408 62.55 258.988C63.25 258.372 63.7701 257.644 64.0801 256.834L64.24 256.381L64.22 256.365L63.8301 256.106C63.7201 256.041 63.62 255.976 63.51 255.911C63.38 255.83 63.23 255.749 63.1 255.668C62.83 255.507 62.57 255.361 62.3 255.247C59.32 253.726 55.98 253.159 52.55 253.58L52.42 253.596C52.31 253.58 52.14 253.58 52 253.661C50.17 253.855 48.58 254.908 47.66 256.381C47.48 256.64 47.34 256.915 47.22 257.207C46.93 257.887 46.77 258.631 46.77 259.408C46.77 260.137 46.93 260.849 47.26 261.497C47.55 262.112 47.98 262.695 48.53 263.197C48.6 265.189 49.6501 267.051 51.4501 268.297C51.1601 268.88 51.01 269.479 51.01 270.094C51.01 272.717 53.46 274.838 56.47 274.838C59.46 274.838 61.91 272.717 61.91 270.094C61.91 269.431 61.73 268.767 61.41 268.152C62.62 267.245 63.48 266.063 63.88 264.735C64.06 264.185 64.14 263.618 64.14 263.035C64.14 262.177 63.9501 261.319 63.5701 260.526C63.5401 260.461 63.51 260.396 63.48 260.331ZM60.27 267.471L59.72 267.811L60.09 268.33C60.48 268.896 60.6901 269.479 60.6901 270.094C60.6901 272.037 58.8 273.624 56.47 273.624C54.12 273.624 52.23 272.037 52.23 270.094C52.23 269.528 52.4 268.961 52.76 268.427L53.12 267.892L52.5701 267.569C50.8001 266.532 49.75 264.832 49.77 262.938L49.78 262.63L49.54 262.452C48.53 261.643 47.98 260.558 47.98 259.408C47.98 257.66 49.13 255.766 51.12 255.086C51.4 254.988 51.71 254.924 52.03 254.875C52.11 254.859 52.19 254.843 52.29 254.843L52.52 254.826C52.58 254.843 52.6501 254.826 52.7001 254.81H52.79V254.794C52.81 254.778 52.84 254.778 52.86 254.762C56.19 254.389 59.43 255.037 62.3 256.608C62.44 256.688 62.59 256.769 62.73 256.85C62.6 257.077 62.46 257.304 62.3 257.514C62.02 257.854 61.7001 258.162 61.3101 258.421L60.6901 258.842L61.24 259.36C61.68 259.781 62.04 260.234 62.3 260.72C62.6 261.238 62.78 261.789 62.86 262.355C62.91 262.582 62.9301 262.809 62.9301 263.035C62.9301 264.784 61.96 266.403 60.27 267.471Z" fill="#24048F"/>
<path d="M79.4202 288.665C78.1802 288.665 77.1602 289.685 77.1602 290.948C77.1602 292.195 78.1802 293.215 79.4202 293.215C80.6902 293.215 81.6902 292.195 81.6902 290.948C81.6902 289.685 80.6902 288.665 79.4202 288.665ZM79.4202 292C78.8402 292 78.3701 291.531 78.3701 290.948C78.3701 290.365 78.8402 289.879 79.4202 289.879C80.0102 289.879 80.4801 290.365 80.4801 290.948C80.4801 291.531 80.0102 292 79.4202 292Z" fill="#24048F"/>
<path d="M79.4202 288.665C78.1802 288.665 77.1602 289.685 77.1602 290.948C77.1602 292.195 78.1802 293.215 79.4202 293.215C80.6902 293.215 81.6902 292.195 81.6902 290.948C81.6902 289.685 80.6902 288.665 79.4202 288.665ZM79.4202 292C78.8402 292 78.3701 291.531 78.3701 290.948C78.3701 290.365 78.8402 289.879 79.4202 289.879C80.0102 289.879 80.4801 290.365 80.4801 290.948C80.4801 291.531 80.0102 292 79.4202 292Z" fill="#24048F"/>
<path d="M63.8303 277.105C62.5703 277.105 61.5503 278.125 61.5503 279.372C61.5503 280.635 62.5703 281.655 63.8303 281.655C65.0803 281.655 66.1002 280.635 66.1002 279.372C66.1002 278.125 65.0803 277.105 63.8303 277.105ZM63.8303 280.44C63.2503 280.44 62.7703 279.955 62.7703 279.372C62.7703 278.805 63.2503 278.319 63.8303 278.319C64.4203 278.319 64.8903 278.805 64.8903 279.372C64.8903 279.955 64.4203 280.44 63.8303 280.44Z" fill="#24048F"/>
<path d="M63.8303 277.105C62.5703 277.105 61.5503 278.125 61.5503 279.372C61.5503 280.635 62.5703 281.655 63.8303 281.655C65.0803 281.655 66.1002 280.635 66.1002 279.372C66.1002 278.125 65.0803 277.105 63.8303 277.105ZM63.8303 280.44C63.2503 280.44 62.7703 279.955 62.7703 279.372C62.7703 278.805 63.2503 278.319 63.8303 278.319C64.4203 278.319 64.8903 278.805 64.8903 279.372C64.8903 279.955 64.4203 280.44 63.8303 280.44Z" fill="#24048F"/>
<path d="M53.4598 280.197C52.1898 280.197 51.1899 281.217 51.1899 282.464C51.1899 283.727 52.1898 284.73 53.4598 284.73C54.6998 284.73 55.7198 283.727 55.7198 282.464C55.7198 281.217 54.6998 280.197 53.4598 280.197ZM53.4598 283.516C52.8698 283.516 52.3999 283.047 52.3999 282.464C52.3999 281.881 52.8698 281.411 53.4598 281.411C54.0398 281.411 54.5099 281.881 54.5099 282.464C54.5099 283.047 54.0398 283.516 53.4598 283.516Z" fill="#24048F"/>
<path d="M53.4598 280.197C52.1898 280.197 51.1899 281.217 51.1899 282.464C51.1899 283.727 52.1898 284.73 53.4598 284.73C54.6998 284.73 55.7198 283.727 55.7198 282.464C55.7198 281.217 54.6998 280.197 53.4598 280.197ZM53.4598 283.516C52.8698 283.516 52.3999 283.047 52.3999 282.464C52.3999 281.881 52.8698 281.411 53.4598 281.411C54.0398 281.411 54.5099 281.881 54.5099 282.464C54.5099 283.047 54.0398 283.516 53.4598 283.516Z" fill="#24048F"/>
<path d="M47.5503 273.203C46.2803 273.203 45.2603 274.223 45.2603 275.469C45.2603 276.716 46.2803 277.736 47.5503 277.736C48.7903 277.736 49.8103 276.716 49.8103 275.469C49.8103 274.223 48.7903 273.203 47.5503 273.203ZM47.5503 276.522C46.9603 276.522 46.4802 276.052 46.4802 275.469C46.4802 274.887 46.9603 274.417 47.5503 274.417C48.1103 274.417 48.6002 274.887 48.6002 275.469C48.6002 276.052 48.1103 276.522 47.5503 276.522Z" fill="#24048F"/>
<path d="M47.5503 273.203C46.2803 273.203 45.2603 274.223 45.2603 275.469C45.2603 276.716 46.2803 277.736 47.5503 277.736C48.7903 277.736 49.8103 276.716 49.8103 275.469C49.8103 274.223 48.7903 273.203 47.5503 273.203ZM47.5503 276.522C46.9603 276.522 46.4802 276.052 46.4802 275.469C46.4802 274.887 46.9603 274.417 47.5503 274.417C48.1103 274.417 48.6002 274.887 48.6002 275.469C48.6002 276.052 48.1103 276.522 47.5503 276.522Z" fill="#24048F"/>
<path d="M47.3702 256.519L46.7603 255.465C47.1203 255.262 55.4902 250.59 63.2302 255.477L62.5803 256.505C55.4603 252.007 47.4502 256.472 47.3702 256.519Z" fill="#24048F"/>
<path d="M47.3702 256.519L46.7603 255.465C47.1203 255.262 55.4902 250.59 63.2302 255.477L62.5803 256.505C55.4603 252.007 47.4502 256.472 47.3702 256.519Z" fill="#24048F"/>
<path d="M47.3702 252.084L46.7603 251.029C47.1203 250.827 55.4902 246.153 63.2302 251.042L62.5803 252.07C55.4603 247.571 47.4502 252.037 47.3702 252.084Z" fill="#24048F"/>
<path d="M47.3702 252.084L46.7603 251.029C47.1203 250.827 55.4902 246.153 63.2302 251.042L62.5803 252.07C55.4603 247.571 47.4502 252.037 47.3702 252.084Z" fill="#24048F"/>
<path d="M47.3702 247.649L46.7603 246.595C47.1203 246.392 55.4902 241.718 63.2302 246.607L62.5803 247.635C55.4603 243.138 47.4502 247.602 47.3702 247.649Z" fill="#24048F"/>
<path d="M47.3702 247.649L46.7603 246.595C47.1203 246.392 55.4902 241.718 63.2302 246.607L62.5803 247.635C55.4603 243.138 47.4502 247.602 47.3702 247.649Z" fill="#24048F"/>
<path d="M47.3702 243.214L46.7603 242.159C47.1203 241.957 55.4902 237.283 63.2302 242.172L62.5803 243.2C55.4603 238.701 47.4502 243.167 47.3702 243.214Z" fill="#24048F"/>
<path d="M47.3702 243.214L46.7603 242.159C47.1203 241.957 55.4902 237.283 63.2302 242.172L62.5803 243.2C55.4603 238.701 47.4502 243.167 47.3702 243.214Z" fill="#24048F"/>
<path d="M47.3702 238.779L46.7603 237.725C47.1203 237.522 55.4902 232.848 63.2302 237.737L62.5803 238.765C55.4603 234.267 47.4502 238.732 47.3702 238.779Z" fill="#24048F"/>
<path d="M47.3702 238.779L46.7603 237.725C47.1203 237.522 55.4902 232.848 63.2302 237.737L62.5803 238.765C55.4603 234.267 47.4502 238.732 47.3702 238.779Z" fill="#24048F"/>
<path d="M47.3702 234.344L46.7603 233.291C47.1203 233.089 55.4902 228.415 63.2302 233.304L62.5803 234.331C55.4503 229.822 47.4502 234.298 47.3702 234.344Z" fill="#24048F"/>
<path d="M47.3702 234.344L46.7603 233.291C47.1203 233.089 55.4902 228.415 63.2302 233.304L62.5803 234.331C55.4503 229.822 47.4502 234.298 47.3702 234.344Z" fill="#24048F"/>
<path d="M47.3702 229.909L46.7603 228.856C47.1203 228.654 55.4902 223.98 63.2302 228.869L62.5803 229.896C55.4503 225.388 47.4502 229.865 47.3702 229.909Z" fill="#24048F"/>
<path d="M47.3702 229.909L46.7603 228.856C47.1203 228.654 55.4902 223.98 63.2302 228.869L62.5803 229.896C55.4503 225.388 47.4502 229.865 47.3702 229.909Z" fill="#24048F"/>
<path d="M41.6301 85.1639L40.8901 86.1259L57.7802 99.1129L58.5201 98.1519L41.6301 85.1639Z" fill="#24048F"/>
<path d="M41.6301 85.1639L40.8901 86.1259L57.7802 99.1129L58.5201 98.1519L41.6301 85.1639Z" fill="#24048F"/>
<path d="M37.9399 90.5509L37.1899 91.5099L60.0999 109.354L60.8499 108.396L37.9399 90.5509Z" fill="#24048F"/>
<path d="M37.9399 90.5509L37.1899 91.5099L60.0999 109.354L60.8499 108.396L37.9399 90.5509Z" fill="#24048F"/>
</svg>
