<svg width="1198" height="1005" viewBox="0 0 1198 1005" fill="none" xmlns="http://www.w3.org/2000/svg">
<path d="M454.46 377.436C501.042 400.977 556.186 440.399 609.906 490.493C723.764 596.668 789.062 711.566 755.981 747.041C722.9 782.516 603.727 725.392 489.869 619.217C376.01 513.043 310.712 398.145 343.793 362.67" stroke="#6F3FF5" stroke-miterlimit="10"/>
<path d="M869.508 740.788C874.123 765.305 871.205 784.691 859.705 797.023C813.549 846.519 647.997 766.991 489.879 619.543C331.761 472.096 240.878 312.495 287.034 262.999C333.19 213.503 498.742 293.031 656.86 440.478C703.147 483.641 743.58 527.662 776.594 569.818" stroke="#6F3FF5" stroke-miterlimit="10"/>
<path d="M545.049 252.518C597.986 289.566 653.482 334.368 708.046 385.25C914.985 578.223 1033.73 786.86 973.395 851.56C913.061 916.26 696.48 812.202 489.711 619.386C282.941 426.57 164.186 217.607 224.362 153.076C247.204 128.581 292.627 128.302 351.163 147.831" stroke="#6F3FF5" stroke-miterlimit="10"/>
<path d="M422.773 204.818C421.107 203.896 423.929 195.789 429.002 186.624C434.075 177.458 439.566 170.893 441.232 171.815" stroke="#6F3FF5" stroke-miterlimit="10" stroke-linecap="round" stroke-linejoin="round"/>
<path d="M423.153 196.96C426.439 192.76 429.352 187.265 429.509 187.096C429.824 186.758 432.738 181.264 434.525 176.298L439.525 179.065C438.479 181.88 436.815 185.697 434.509 189.863C432.045 194.199 429.874 197.543 428.153 199.728L423.153 196.96Z" fill="#5BF1CD" stroke="#6F3FF5" stroke-miterlimit="10"/>
<path d="M422.785 205.145C435.657 218.096 450.669 231.463 466.163 239.911C506.328 262.205 533.169 244.598 533.169 244.598C533.169 244.598 533.842 212.379 493.677 190.085C478.341 181.469 459.178 175.601 441.39 171.646" stroke="#6F3FF5" stroke-miterlimit="10"/>
<path d="M493.467 249.58C507.266 242.235 517.569 223.734 516.538 208.245" stroke="#6F3FF5" stroke-miterlimit="10" stroke-linecap="round" stroke-linejoin="round"/>
<path d="M490.018 239.731C499.515 230.902 506.072 217.435 507.103 204.815" stroke="#6F3FF5" stroke-width="2" stroke-linecap="round" stroke-linejoin="round"/>
<path d="M471.128 241.698C487.178 233.293 499.169 211.629 497.877 193.37" stroke="#6F3FF5" stroke-miterlimit="10" stroke-linecap="round" stroke-linejoin="round"/>
<path d="M463.252 222.664C472.433 222.936 480.097 215.715 480.369 206.534C480.642 197.353 473.421 189.689 464.24 189.416C455.058 189.143 447.395 196.365 447.122 205.546C446.849 214.727 454.071 222.391 463.252 222.664Z" fill="#5BF1CD" stroke="#6F3FF5" stroke-miterlimit="10" stroke-linecap="round" stroke-linejoin="round"/>
<path d="M463.417 217.122C469.537 217.304 474.647 212.49 474.828 206.369C475.01 200.248 470.196 195.139 464.075 194.957C457.954 194.775 452.845 199.59 452.663 205.71C452.482 211.831 457.296 216.94 463.417 217.122Z" fill="#FFE48D" stroke="#6F3FF5" stroke-miterlimit="10" stroke-linecap="round" stroke-linejoin="round"/>
<path d="M441.233 171.815C442.899 172.737 440.077 180.844 435.004 190.01C429.931 199.175 424.44 205.741 422.774 204.818" stroke="#6F3FF5" stroke-miterlimit="10" stroke-linecap="round" stroke-linejoin="round"/>
<path d="M440.481 178.378L429.648 172.383" stroke="#6F3FF5" stroke-miterlimit="10" stroke-linecap="round" stroke-linejoin="round"/>
<path d="M437.241 183.884L426.577 178.046" stroke="#6F3FF5" stroke-miterlimit="10" stroke-linecap="round" stroke-linejoin="round"/>
<path d="M434.171 189.548L423.496 183.384" stroke="#6F3FF5" stroke-miterlimit="10" stroke-linecap="round" stroke-linejoin="round"/>
<path d="M431.257 195.043L420.425 189.048" stroke="#6F3FF5" stroke-miterlimit="10" stroke-linecap="round" stroke-linejoin="round"/>
<path d="M417.185 194.554L428.017 200.549" stroke="#6F3FF5" stroke-miterlimit="10" stroke-linecap="round" stroke-linejoin="round"/>
<path d="M422.125 162.84C425.499 156.512 425.26 149.656 421.251 147.181L412.75 142.412C416.747 144.56 417.156 151.574 413.624 158.071" fill="#5BF1CD"/>
<path d="M422.125 162.84C425.499 156.512 425.26 149.656 421.251 147.181L412.75 142.412C416.747 144.56 417.156 151.574 413.624 158.071" stroke="#6F3FF5" stroke-miterlimit="10" stroke-linecap="round" stroke-linejoin="round"/>
<path d="M405.207 193.175C401.833 199.503 395.575 202.826 391.578 200.678L383.076 195.908C387.074 198.057 393.174 194.902 396.706 188.405" fill="#5BF1CD"/>
<path d="M405.207 193.175C401.833 199.503 395.575 202.826 391.578 200.678L383.076 195.908C387.074 198.057 393.174 194.902 396.706 188.405" stroke="#6F3FF5" stroke-miterlimit="10" stroke-linecap="round" stroke-linejoin="round"/>
<path d="M427.958 166.068C431.332 159.74 431.093 152.885 427.084 150.41L421.251 147.182C425.249 149.33 425.657 156.343 422.125 162.84" fill="#5BF1CD"/>
<path d="M427.958 166.068C431.332 159.74 431.093 152.885 427.084 150.41L421.251 147.182C425.249 149.33 425.657 156.343 422.125 162.84" stroke="#6F3FF5" stroke-miterlimit="10" stroke-linecap="round" stroke-linejoin="round"/>
<path d="M411.04 196.403C407.665 202.731 401.408 206.055 397.41 203.906L391.578 200.678C395.575 202.826 401.675 199.672 405.207 193.175" fill="#5BF1CD"/>
<path d="M411.04 196.403C407.665 202.731 401.408 206.055 397.41 203.906L391.578 200.678C395.575 202.826 401.675 199.672 405.207 193.175" stroke="#6F3FF5" stroke-miterlimit="10" stroke-linecap="round" stroke-linejoin="round"/>
<path d="M383.442 182.985L416.277 201.286C417.943 202.209 423.434 195.643 428.507 186.478C433.58 177.312 436.402 169.205 434.736 168.283L401.732 149.824" fill="white"/>
<path d="M383.442 182.985L416.277 201.286C417.943 202.209 423.434 195.643 428.507 186.478C433.58 177.312 436.402 169.205 434.736 168.283L401.732 149.824" stroke="#6F3FF5" stroke-miterlimit="10" stroke-linecap="round" stroke-linejoin="round"/>
<path d="M396.95 153.26C398.986 150.737 400.899 149.363 401.733 149.824C403.399 150.747 400.577 158.853 395.504 168.019C390.431 177.185 384.94 183.75 383.274 182.828C382.44 182.367 382.687 180.07 383.721 176.929" stroke="#6F3FF5" stroke-miterlimit="10" stroke-linecap="round" stroke-linejoin="round"/>
<path d="M407.396 152.895C409.063 153.817 406.241 161.924 401.168 171.09C396.095 180.255 390.604 186.821 388.937 185.898" stroke="#6F3FF5" stroke-miterlimit="10" stroke-linecap="round" stroke-linejoin="round"/>
<path d="M401.732 149.824C403.398 150.746 400.576 158.853 395.503 168.018C390.43 177.184 384.939 183.75 383.273 182.827" stroke="#6F3FF5" stroke-miterlimit="10" stroke-linecap="round" stroke-linejoin="round"/>
<path d="M393.186 171.858L375.023 161.87L393.186 171.858ZM379.32 153.875L397.483 163.864L379.32 153.875ZM384.984 156.946L397.483 163.864L384.984 156.946ZM389.45 149.109L400.451 155.262L389.45 149.109ZM376.221 172.778L387.718 179.077L376.221 172.778ZM380.518 164.783L391.519 170.936Z" fill="white"/>
<path d="M380.518 164.783L391.519 170.936M393.186 171.858L375.023 161.87L393.186 171.858ZM379.32 153.875L397.483 163.864L379.32 153.875ZM384.984 156.946L397.483 163.864L384.984 156.946ZM389.45 149.109L400.451 155.262L389.45 149.109ZM376.221 172.778L387.718 179.077L376.221 172.778Z" stroke="#6F3FF5" stroke-miterlimit="10" stroke-linecap="round" stroke-linejoin="round"/>
<path d="M532.82 243.957C532.775 242.651 532.423 237.27 530.056 230.326L528.963 227.095L528.593 230.54C527.841 237.103 523.837 244.107 518.75 248.207L516.05 250.426L519.291 249.659C526.585 247.934 531.076 245.489 532.359 244.79L532.843 244.61L532.82 243.957Z" fill="#FFE48D"/>
<path d="M384.985 156.946C384.32 156.643 384.736 154.504 385.962 152.173C387.03 150.011 388.775 148.479 389.281 148.952" fill="white"/>
<path d="M384.985 156.946C384.32 156.643 384.736 154.504 385.962 152.173C387.03 150.011 388.775 148.479 389.281 148.952" stroke="#6F3FF5" stroke-miterlimit="10" stroke-linecap="round" stroke-linejoin="round"/>
<path d="M376.222 172.778C375.557 172.474 375.973 170.335 377.199 168.004C378.268 165.842 380.012 164.311 380.519 164.783" fill="white"/>
<path d="M376.222 172.778C375.557 172.474 375.973 170.335 377.199 168.004C378.268 165.842 380.012 164.311 380.519 164.783" stroke="#6F3FF5" stroke-miterlimit="10" stroke-linecap="round" stroke-linejoin="round"/>
<path d="M374.855 161.712C374.19 161.409 374.606 159.27 375.832 156.939C377.058 154.608 378.645 153.245 379.152 153.718" fill="white"/>
<path d="M374.855 161.712C374.19 161.409 374.606 159.27 375.832 156.939C377.058 154.608 378.645 153.245 379.152 153.718" stroke="#6F3FF5" stroke-miterlimit="10" stroke-linecap="round" stroke-linejoin="round"/>
<path d="M380.114 167.248C379.934 166.764 379.584 166.123 378.92 165.819C378.256 165.515 377.76 165.369 377.107 165.392C376.938 165.234 376.769 165.077 376.601 164.919C375.936 164.616 375.283 164.638 374.799 164.819L374.63 164.661C373.797 164.2 372.829 164.561 372.368 165.394C371.907 166.227 372.267 167.195 373.101 167.656L373.27 167.814C373.45 168.298 373.799 168.939 374.464 169.243C374.632 169.401 374.959 169.389 375.128 169.547C375.308 170.031 375.815 170.503 376.322 170.976C376.986 171.28 377.481 171.426 378.292 171.234" fill="#FFE48D"/>
<path d="M380.114 167.248C379.934 166.764 379.584 166.123 378.92 165.819C378.256 165.515 377.76 165.369 377.107 165.392C376.938 165.234 376.769 165.077 376.601 164.919C375.936 164.616 375.283 164.638 374.799 164.819L374.63 164.661C373.797 164.2 372.829 164.561 372.368 165.394C371.907 166.227 372.267 167.195 373.101 167.656L373.27 167.814C373.45 168.298 373.799 168.939 374.464 169.243C374.632 169.401 374.959 169.389 375.128 169.547C375.308 170.031 375.815 170.503 376.322 170.976C376.986 171.28 377.481 171.426 378.292 171.234" stroke="#6F3FF5" stroke-miterlimit="10" stroke-linecap="round"/>
<path d="M388.876 151.417C388.696 150.933 388.347 150.291 387.683 149.987C387.018 149.684 386.523 149.538 385.87 149.56C385.701 149.403 385.532 149.245 385.363 149.088C384.699 148.784 384.046 148.807 383.562 148.987L383.393 148.83C382.56 148.369 381.592 148.729 381.131 149.562C380.669 150.396 381.03 151.364 381.863 151.825L382.032 151.982C382.213 152.466 382.562 153.108 383.226 153.412C383.395 153.569 383.722 153.558 383.89 153.715C384.071 154.199 384.578 154.672 385.084 155.144C385.749 155.448 386.244 155.594 387.054 155.402" fill="#FFE48D"/>
<path d="M388.876 151.417C388.696 150.933 388.347 150.291 387.683 149.987C387.018 149.684 386.523 149.538 385.87 149.56C385.701 149.403 385.532 149.245 385.363 149.088C384.699 148.784 384.046 148.807 383.562 148.987L383.393 148.83C382.56 148.369 381.592 148.729 381.131 149.562C380.669 150.396 381.03 151.364 381.863 151.825L382.032 151.982C382.213 152.466 382.562 153.108 383.226 153.412C383.395 153.569 383.722 153.558 383.89 153.715C384.071 154.199 384.578 154.672 385.084 155.144C385.749 155.448 386.244 155.594 387.054 155.402" stroke="#6F3FF5" stroke-miterlimit="10" stroke-linecap="round"/>
<path d="M379.22 155.676C379.028 154.866 378.352 154.236 377.519 153.775C376.686 153.314 375.864 153.179 375.054 153.371C374.716 153.055 374.547 152.898 374.209 152.583C373.376 152.122 372.554 151.987 371.755 152.505L371.586 152.348C370.584 151.729 369.289 152.101 368.671 153.103C368.052 154.105 368.424 155.4 369.426 156.018L369.595 156.176C369.787 156.986 370.305 157.786 371.138 158.247C371.476 158.562 371.802 158.55 372.129 158.539C372.478 159.18 372.996 159.98 373.83 160.441C374.663 160.902 375.485 161.037 376.295 160.845" fill="#FFE48D"/>
<path d="M379.22 155.676C379.028 154.866 378.352 154.236 377.519 153.775C376.686 153.314 375.864 153.179 375.054 153.371C374.716 153.055 374.547 152.898 374.209 152.583C373.376 152.122 372.554 151.987 371.755 152.505L371.586 152.348C370.584 151.729 369.289 152.101 368.671 153.103C368.052 154.105 368.424 155.4 369.426 156.018L369.595 156.176C369.787 156.986 370.305 157.786 371.138 158.247C371.476 158.562 371.802 158.55 372.129 158.539C372.478 159.18 372.996 159.98 373.83 160.441C374.663 160.902 375.485 161.037 376.295 160.845" stroke="#6F3FF5" stroke-miterlimit="10" stroke-linecap="round"/>
<path d="M379.321 153.875C379.985 154.179 379.569 156.318 378.343 158.649C377.117 160.979 375.531 162.342 375.024 161.87" stroke="#6F3FF5" stroke-miterlimit="10" stroke-linecap="round" stroke-linejoin="round"/>
<path d="M380.519 164.783C381.183 165.086 380.767 167.226 379.541 169.556C378.315 171.887 376.729 173.25 376.222 172.777" stroke="#6F3FF5" stroke-miterlimit="10" stroke-linecap="round" stroke-linejoin="round"/>
<path d="M389.449 149.108C390.114 149.412 389.698 151.551 388.472 153.882C387.246 156.213 385.659 157.576 385.153 157.103" stroke="#6F3FF5" stroke-miterlimit="10" stroke-linecap="round" stroke-linejoin="round"/>
<path d="M422.785 205.145C435.657 218.096 450.669 231.463 466.163 239.911C506.328 262.205 533.169 244.598 533.169 244.598C533.169 244.598 533.842 212.379 493.677 190.085C478.341 181.469 459.178 175.601 441.39 171.646" stroke="#6F3FF5" stroke-miterlimit="10"/>
<path d="M515.554 250.28C523.579 246.078 529.417 235.414 528.782 226.611" stroke="#6F3FF5" stroke-miterlimit="10" stroke-linecap="round" stroke-linejoin="round"/>
<path d="M421.283 343.527L416.953 342.812L414.698 356.487L419.028 357.201L421.283 343.527Z" fill="white" stroke="#6F3FF5" stroke-miterlimit="10"/>
<path d="M420.332 336.136L419.4 342.216C418.996 344.681 416.61 346.562 413.976 346.001L407.897 345.069C405.431 344.665 403.55 342.279 404.112 339.644L405.043 333.565C405.448 331.1 407.833 329.219 410.468 329.78L416.547 330.712C418.855 331.285 420.736 333.671 420.332 336.136ZM418.803 315.761L412.724 314.829C410.258 314.425 407.704 316.149 407.3 318.614L406.368 324.694C405.964 327.159 407.687 329.714 410.153 330.118L416.232 331.05C418.698 331.454 421.252 329.73 421.657 327.265L422.588 321.186C423.15 318.551 421.426 315.996 418.803 315.761ZM431.509 333.295L425.43 332.363C422.964 331.959 420.41 333.682 420.006 336.148L419.074 342.227C418.67 344.693 420.393 347.247 422.859 347.652L428.938 348.583C431.404 348.987 433.958 347.264 434.362 344.798L435.294 338.719C435.856 336.085 434.144 333.856 431.509 333.295ZM433.923 318.175L427.844 317.243C425.378 316.839 422.823 318.562 422.419 321.028L421.488 327.107C421.083 329.573 422.807 332.128 425.272 332.532L431.352 333.464C433.817 333.868 436.372 332.144 436.776 329.679L437.708 323.599C438.27 320.965 436.558 318.737 433.923 318.175Z" fill="#FFE48D" stroke="#6F3FF5" stroke-miterlimit="10"/>
<path d="M401.726 367.11L402.44 362.78L392.868 361.202L392.154 365.532L401.726 367.11Z" fill="white" stroke="#6F3FF5" stroke-miterlimit="10"/>
<path d="M434.263 372.477L435.015 367.918L425.442 366.34L424.691 370.898L434.263 372.477Z" fill="white" stroke="#6F3FF5" stroke-miterlimit="10"/>
<path d="M415.53 377.456L411.199 376.742L408.944 390.417L413.274 391.131L415.53 377.456Z" fill="white" stroke="#6F3FF5" stroke-miterlimit="10"/>
<path d="M373.378 362.78L374.175 357.523L356.973 356.326L356.726 358.623L373.378 362.78Z" stroke="#6F3FF5" stroke-miterlimit="10"/>
<path d="M382.305 337.628C391.302 342.543 396.563 352.819 394.812 363.503C393.06 374.187 384.677 382.161 374.614 384.147L382.305 337.628Z" fill="#5BF1CD" stroke="#6F3FF5" stroke-miterlimit="10"/>
<path d="M375.965 385.407L383.914 336.918C384.184 335.274 382.979 333.518 381.335 333.249C379.691 332.979 377.936 334.185 377.666 335.828L369.717 384.317C369.448 385.961 370.653 387.717 372.297 387.986C374.109 388.413 375.696 387.05 375.965 385.407Z" fill="white" stroke="#6F3FF5" stroke-miterlimit="10"/>
<path d="M438.509 379.3L441.204 362.863C441.327 361.715 440.64 360.759 439.66 360.793L438.186 360.681C437.037 360.558 436.081 361.245 436.115 362.224L433.42 378.661C433.297 379.809 433.984 380.766 434.964 380.732L436.438 380.844C437.26 380.978 438.217 380.291 438.509 379.3Z" fill="white" stroke="#6F3FF5" stroke-miterlimit="10"/>
<path d="M444.182 377.958L446.215 365.957C446.338 364.809 445.651 363.852 444.671 363.887L443.197 363.775C442.048 363.651 441.092 364.338 441.126 365.318L439.094 377.319C438.97 378.467 439.657 379.424 440.637 379.39L442.112 379.502C442.933 379.636 443.89 378.949 444.182 377.958Z" fill="white" stroke="#6F3FF5" stroke-miterlimit="10"/>
<path d="M358.41 360.55C360.139 359.729 360.874 357.662 360.053 355.934C359.232 354.205 357.165 353.47 355.436 354.291C353.708 355.113 352.973 357.179 353.794 358.908C354.615 360.636 356.682 361.372 358.41 360.55Z" fill="white" stroke="#6F3FF5" stroke-miterlimit="10"/>
<path d="M429.366 374.88L431.106 363.87C431.791 360.087 429.212 356.418 425.272 355.902L408.666 353.05C404.883 352.365 401.214 354.945 400.698 358.885L398.958 369.895C398.273 373.678 400.852 377.347 404.793 377.863L421.399 380.715C425.181 381.4 428.681 378.663 429.366 374.88Z" fill="white" stroke="#6F3FF5" stroke-miterlimit="10"/>
<path d="M394.939 395.204L395.871 389.125C396.275 386.659 398.661 384.778 401.295 385.34L407.375 386.271C409.84 386.676 411.721 389.061 411.159 391.696L410.228 397.775C409.824 400.241 407.438 402.122 404.803 401.56L398.724 400.628C396.258 400.224 394.377 397.838 394.939 395.204ZM404.803 401.56L398.724 400.628C396.258 400.224 393.704 401.948 393.3 404.413L392.368 410.493C391.964 412.958 393.687 415.513 396.153 415.917L402.232 416.849C404.698 417.253 407.252 415.529 407.656 413.064L408.588 406.985C408.992 404.519 407.269 401.964 404.803 401.56ZM422.337 388.854L416.257 387.922C413.792 387.518 411.237 389.242 410.833 391.707L409.901 397.787C409.497 400.252 411.221 402.807 413.686 403.211L419.765 404.143C422.231 404.547 424.786 402.823 425.19 400.358L426.122 394.279C426.526 391.813 424.971 389.416 422.337 388.854ZM419.765 404.143L413.686 403.211C411.221 402.807 408.666 404.53 408.262 406.996L407.33 413.075C406.926 415.541 408.649 418.095 411.115 418.5L417.194 419.431C419.66 419.836 422.214 418.112 422.619 415.647L423.55 409.567C424.112 406.933 422.389 404.378 419.765 404.143Z" fill="#FFE48D" stroke="#6F3FF5" stroke-miterlimit="10"/>
<path d="M794.238 602.378C790.464 597.28 781.673 598.241 779.159 591.792C778.146 590.846 776.646 585.342 777.039 582.55C777.174 581.728 778.142 581.368 778.648 581.84C779.336 582.797 780.18 583.585 781.34 584.034C787.161 586.936 787.148 581.87 781.584 576.998C779.895 575.423 788.068 575.465 789.566 576.229C791.401 577.309 792.832 580.855 792.451 583.973C792.35 585.774 793.713 587.361 795.829 587.124C796.482 587.101 797.293 586.909 797.923 586.234C799.88 581.426 798.222 576.091 794.214 573.616C793.876 573.301 794.022 572.805 794.675 572.782C803.22 574.118 807.986 584.248 803.16 591.117C802.395 592.615 801.473 594.281 802.723 597.342" fill="#FFE48D"/>
<path d="M794.238 602.378C790.464 597.28 781.673 598.241 779.159 591.792C778.146 590.846 776.646 585.342 777.039 582.55C777.174 581.728 778.142 581.368 778.648 581.84C779.336 582.797 780.18 583.585 781.34 584.034C787.161 586.936 787.148 581.87 781.584 576.998C779.895 575.423 788.068 575.465 789.566 576.229C791.401 577.309 792.832 580.855 792.451 583.973C792.35 585.774 793.713 587.361 795.829 587.124C796.482 587.101 797.293 586.909 797.923 586.234C799.88 581.426 798.222 576.091 794.214 573.616C793.876 573.301 794.022 572.805 794.675 572.782C803.22 574.118 807.986 584.248 803.16 591.117C802.395 592.615 801.473 594.281 802.723 597.342" stroke="#6F3FF5" stroke-miterlimit="10" stroke-linecap="round" stroke-linejoin="round"/>
<path d="M794.878 612.394L810.764 603.894L806.623 596.154L790.737 604.654L794.878 612.394Z" fill="white" stroke="#6F3FF5" stroke-miterlimit="10"/>
<path d="M794.805 618.701L816.19 607.259L812.049 599.519L790.664 610.962L794.805 618.701Z" fill="white" stroke="#6F3FF5" stroke-miterlimit="10"/>
<path d="M791.835 617.824L817.181 604.192L858.439 681.197C861.233 686.329 863.228 691.979 864.739 697.81L869.639 730.488C869.842 731.625 868.401 732.492 867.714 731.536L843.242 709.347C839.165 704.913 835.73 700.13 832.936 694.998L791.835 617.824Z" fill="white" stroke="#6F3FF5" stroke-miterlimit="10"/>
<path d="M810.724 653.789L836.182 640.167L831.279 631.001L805.82 644.624L810.724 653.789Z" fill="#5BF1CD" stroke="#6F3FF5" stroke-miterlimit="10"/>
<path d="M779.32 624.472L791.835 617.824L825.241 680.558L779.32 624.472Z" stroke="#6F3FF5" stroke-miterlimit="10" stroke-linecap="round" stroke-linejoin="round"/>
<path d="M829.37 597.556L817.181 604.192L850.586 666.926L829.37 597.556Z" stroke="#6F3FF5" stroke-miterlimit="10" stroke-linecap="round" stroke-linejoin="round"/>
<path d="M851.132 699.639C854.415 698.596 856.231 695.089 855.188 691.807C854.144 688.524 850.638 686.708 847.355 687.751C844.072 688.795 842.257 692.301 843.3 695.584C844.343 698.867 847.85 700.682 851.132 699.639Z" fill="#FFE48D" stroke="#6F3FF5" stroke-miterlimit="10"/>
<circle cx="600.128" cy="510.123" r="139.371" transform="rotate(30 600.128 510.123)" fill="#FFE48D" stroke="#6F3FF5" stroke-width="2"/>
</svg>
