<svg width="548" height="503" viewBox="0 0 548 503" fill="none" xmlns="http://www.w3.org/2000/svg">
<path d="M181.964 151.92C179.649 151.394 177.194 151.41 175.473 153.041C174.039 154.4 173.403 156.362 172.187 157.923C170.256 160.433 167.513 160.586 164.407 160.538C160.508 160.563 156.683 160.79 152.789 161.49" stroke="#6F3FF5" stroke-width="1.71644"/>
<path d="M291.9 441.663C309.912 453.203 368.681 479.093 387.959 467.368C398.59 460.927 405.867 450.287 408.827 438.836C410.603 431.965 415.668 400.584 458.975 404.923" stroke="#6F3FF5" stroke-width="1.71644" stroke-miterlimit="10"/>
<path d="M528.219 156.282C540.678 161.454 546.162 177.642 539.097 188.507C533.495 197.213 522.079 201.724 516.351 210.396C511.088 218.428 511.736 228.516 511.93 237.85C512.205 248.732 511.869 259.834 508.255 270.078C504.64 280.321 497.48 290.144 486.89 294.618C476.462 299.007 463.972 298.023 453.496 293.497C443.02 288.972 434.542 281.409 427.427 272.932C417.795 261.506 410.438 248.388 401.164 236.675" stroke="#6F3FF5" stroke-width="1.71644" stroke-miterlimit="10"/>
<path d="M315.473 47.9529L307.293 49.1529L451.523 154.107L443.912 80.0414L385.969 37.8951L367.681 40.4973L346.006 43.5994L337.044 44.8024L315.473 47.9529Z" fill="#8C65F7" stroke="#6F3FF5" stroke-width="1.71644" stroke-miterlimit="10"/>
<path d="M515.714 174.897C515.714 174.897 515.83 174.84 515.891 174.949C516.068 175 516.3 174.886 516.416 174.829C516.764 174.658 516.874 174.328 516.813 174.219L517.614 170.644L517.73 170.587L517.868 166.093L518.039 165.871C518.21 165.649 519.693 163.813 521.275 161.1L521.562 160.82L522.423 159.983C522.539 159.926 522.594 159.76 522.533 159.652L522.527 159.378L523.162 158.928L523.692 159.082C524.284 159.345 525.4 159.488 526.608 158.48L529.019 156.189L529.226 157.609C529.511 159.959 528.027 161.794 527.972 161.96L528.332 162.336L528.051 162.889C527.709 163.334 527.141 164.166 526.573 164.998C527.652 166.128 528.884 166.215 529 166.158C529.463 165.93 529.854 165.046 530.124 163.946L530.228 163.341L530.99 163.382C531.558 162.549 531.943 161.392 532.053 161.061C532.818 158.473 532.356 156.071 531.735 154.44L531.668 154.058L531.955 153.778C532.242 153.499 532.297 153.334 532.413 153.277C532.523 152.946 532.456 152.564 532.212 152.13C532.212 152.13 531.275 149.409 531.032 148.976L530.904 148.485L533.492 146.246C533.492 146.246 534.584 145.294 534.616 144.034C534.598 143.213 534.349 142.505 533.629 141.752C532.551 140.622 531.209 140.866 530.336 141.157L529.988 141.327L529.751 141.168C529.513 141.008 529.22 141.013 529.043 140.962C528.634 141.024 528.226 141.087 527.939 141.366L527.481 141.868C527.078 142.204 526.858 142.865 527.163 143.407L527.406 143.841L526.198 144.849L525.612 144.86C525.259 144.757 524.85 144.82 524.325 144.939L523.087 144.579C518.599 142.911 514.75 143.695 514.634 143.752L514.524 144.083L514.054 144.037C513.646 144.1 512.359 144.179 511.73 144.902L511.675 145.068C511.675 145.068 511.284 145.952 511.655 146.876C511.655 146.876 512.583 146.42 513.284 146.352L513.614 145.36L514.516 146.438C516.968 146.064 519.146 146.516 520.56 146.927L521.859 147.396L520.706 148.239C519.265 149.362 517.483 150.929 515.591 152.827L515.304 153.106L515.011 153.111C514.895 153.168 514.718 153.117 514.663 153.282L513.803 154.12C513.803 154.12 513.687 154.177 513.748 154.285L513.412 155.004L513.235 154.952L512.392 156.611L511.415 157.506C510.72 157.848 508.169 159.101 507.143 160.434C506.289 161.546 507.171 164.432 507.554 165.904L507.798 166.337L507.157 166.514C506.4 166.747 505.18 167.208 505.064 167.265C504.656 167.328 504.43 167.715 504.259 167.938C504.143 167.995 504.088 168.16 504.033 168.325C504.039 168.599 504.044 168.873 504.282 169.033C504.819 169.461 505.532 169.94 506.52 169.593C507.801 169.24 509.254 168.665 509.601 168.494L510.097 167.006C510.024 166.35 509.751 164.548 510.295 162.621L510.405 162.29L515.927 160.269L514.168 162.931C513.655 163.598 513.496 164.368 513.337 165.138L514.779 169.547L512.922 173.087C512.922 173.087 512.922 173.087 512.983 173.196C512.989 173.47 513.117 173.96 513.592 174.28C513.592 174.28 513.653 174.388 513.769 174.331C514.007 174.491 514.36 174.594 514.714 174.697C515.129 174.908 515.422 174.903 515.714 174.897Z" fill="white"/>
<path d="M530.028 140.614C531.133 140.21 532.359 140.022 533.438 141.152C535.833 143.572 533.3 145.646 533.3 145.646L531.402 147.27L529.449 149.06C528.608 148.09 527.101 148.83 527.161 148.938L527.046 148.995C523.577 145.72 523.882 146.262 527.215 143.241" stroke="#6F3FF5" stroke-width="1.71644" stroke-miterlimit="10"/>
<path d="M527.114 141.217L527.859 140.436C528.317 139.935 529.195 139.918 529.793 140.454L531.706 142.281C532.243 142.709 532.26 143.53 531.687 144.089L530.942 144.869C530.484 145.371 529.606 145.387 529.008 144.851L527.095 143.025C526.674 142.54 526.541 141.775 527.114 141.217Z" fill="#5BF1CD" stroke="#6F3FF5" stroke-width="1.71644" stroke-miterlimit="10"/>
<path d="M515.928 160.269L510.639 162.176L510.523 162.233C509.862 164.218 510.141 166.294 510.269 166.784C508.805 166.812 507.909 166.007 507.848 165.899C507.897 165.459 506.101 160.947 507.127 159.613C508.269 158.223 511.399 156.685 511.515 156.628L512.431 155.625L513.555 153.413" stroke="#6F3FF5" stroke-width="1.71644" stroke-miterlimit="10"/>
<path d="M515.674 159.288C515.674 159.288 516.15 159.608 515.985 160.104C515.985 160.104 515.93 160.269 515.875 160.435C515.649 160.822 515.081 161.654 514.403 162.817C513.89 163.484 513.615 164.311 513.633 165.132L515.13 169.376C515.252 169.593 516.385 170.558 517.959 170.199L518.097 165.706C518.097 165.706 518.213 165.649 518.152 165.54C518.61 165.039 520.033 163.095 521.73 160.324" stroke="#6F3FF5" stroke-width="1.71644" stroke-miterlimit="10"/>
<path d="M507.858 166.172L505.125 167.1C504.893 167.214 504.606 167.493 504.319 167.772C504.203 167.829 504.148 167.995 504.093 168.16C504.099 168.434 504.105 168.707 504.343 168.867C504.702 169.244 505.593 169.775 506.581 169.428C507.862 169.075 509.43 168.443 509.662 168.329L510.157 166.841" stroke="#6F3FF5" stroke-width="1.71644" stroke-miterlimit="10"/>
<path d="M515.074 169.542L513.388 172.86L513.333 173.025C513.333 173.025 513.394 173.134 513.278 173.191C513.284 173.465 513.351 173.847 513.887 174.275C513.887 174.275 513.948 174.383 514.064 174.326C514.302 174.486 514.655 174.589 515.009 174.692C515.363 174.795 515.656 174.789 515.948 174.784C515.948 174.784 516.064 174.727 516.125 174.835C516.418 174.83 516.534 174.773 516.766 174.659C517.23 174.431 517.279 173.992 517.279 173.992L518.025 170.582L518.141 170.525" stroke="#6F3FF5" stroke-width="1.71644" stroke-miterlimit="10"/>
<path d="M521.614 160.655C521.901 160.376 522.188 160.097 522.475 159.818C522.646 159.595 522.64 159.322 522.402 159.162C519.61 157.352 517.398 155.258 515.35 152.667C515.228 152.45 514.759 152.404 514.588 152.627C514.301 152.906 514.014 153.185 513.727 153.464L513.44 153.744" stroke="#6F3FF5" stroke-width="1.71644" stroke-miterlimit="10"/>
<path d="M531.595 153.402C531.595 153.402 532.169 152.843 532.224 152.678C532.334 152.347 532.206 151.857 532.024 151.532L530.933 149.854L530.666 148.326" stroke="#6F3FF5" stroke-width="1.71644" stroke-miterlimit="10"/>
<path d="M522.713 146.284C522.713 146.284 520.389 147.15 515.347 152.393" stroke="#6F3FF5" stroke-width="1.71644" stroke-miterlimit="10"/>
<path d="M531.286 152.586C531.286 152.586 533.363 156.545 532.158 160.457C532.158 160.457 531.779 161.888 531.156 162.886C531.156 162.886 529.753 163.022 528.199 161.572C528.199 161.572 529.682 159.737 529.397 157.387C529.113 155.037 527.802 154.021 527.802 154.021" stroke="#6F3FF5" stroke-width="1.71644" stroke-miterlimit="10"/>
<path d="M523.386 158.54C523.386 158.54 524.934 159.716 526.656 158.04C528.322 156.53 529.183 155.693 529.183 155.693" stroke="#6F3FF5" stroke-width="1.71644" stroke-miterlimit="10"/>
<path d="M522.38 153.745C523.385 154.128 524.531 153.676 524.94 152.737C525.349 151.797 524.866 150.726 523.861 150.343C522.857 149.96 521.71 150.412 521.301 151.352C520.892 152.291 521.375 153.363 522.38 153.745Z" fill="#5BF1CD" stroke="#6F3FF5" stroke-width="1.71644" stroke-miterlimit="10"/>
<path d="M530.227 163.341C530.227 163.341 529.798 165.211 529.048 165.719C529.048 165.719 527.7 165.689 526.621 164.559C526.621 164.559 528.33 162.336 528.324 162.062" stroke="#6F3FF5" stroke-width="1.71644" stroke-miterlimit="10"/>
<path d="M521.786 146.74C521.786 146.74 518.353 145.107 514.443 145.783C514.443 145.783 513.602 144.813 514.445 143.154C514.445 143.154 518.703 142.307 523.605 144.186L524.904 144.655" stroke="#6F3FF5" stroke-width="1.71644" stroke-miterlimit="10"/>
<path d="M514.041 143.49C514.041 143.49 512.4 143.466 511.539 144.303C511.539 144.303 511.032 145.244 511.58 146.22C511.58 146.22 513.203 145.422 514.088 145.679" stroke="#6F3FF5" stroke-width="1.71644" stroke-miterlimit="10"/>
<path d="M162.813 137.786L162.964 137.657C164.312 136.773 167.691 137.13 168.701 137.176L168.989 137.189L169.072 136.99L172.342 136.666L172.5 136.403L172.645 136.41C175.345 135.925 178.724 136.282 178.724 136.282C184.699 136.758 189.614 139.551 192.675 141.853L192.812 141.995L192.963 141.867C193.644 141.289 194.242 140.911 194.606 140.86C195.554 140.701 196.557 140.882 197.47 141.396L201.176 143.796L201.32 143.803C202.488 143.586 203.855 143.716 205.338 144.392L205.551 144.469L206.988 143.251L206.378 142.479C206.117 141.927 206.228 141.188 206.758 140.739L208.656 139.001C209.11 138.616 209.694 138.507 210.264 138.669L210.408 138.675L210.559 138.547C211.959 139.422 212.642 137.425 216.111 137.449C218.062 137.47 219.126 137.857 220.635 139.413C222.487 141.322 222.944 143.641 222.77 145.594C222.567 148.085 223.612 147.457 223.083 147.906L223.007 147.97L223 148.105C223.034 148.85 222.778 149.582 222.173 150.095L219.526 152.34C218.694 153.046 217.533 153.128 216.544 152.677L216.331 152.6L216.18 152.728C215.424 153.369 214.887 153.953 214.282 154.466L213.374 155.236L213.436 155.442C213.881 156.611 213.576 158.287 212.716 159.532C212.64 159.596 212.565 159.66 212.565 159.66L212.406 159.923L212.544 160.065C219.78 168.236 220.345 176.779 220.4 177.119L220.393 177.254L220.317 177.318C220.242 177.382 220.242 177.382 220.166 177.446L219.939 177.639L220.001 177.844C220.24 178.802 220.69 181.256 219.513 183.027C219.513 183.027 217.553 184.56 215.04 184.242L214.751 184.229L214.758 184.094L212.651 182.916L212.996 181.851L214.449 178.943L214.236 178.865L214.243 178.731C213.503 172.14 209.415 167.357 208.181 166.084L207.975 165.872L207.748 166.064C206.75 167.168 205.464 168.258 204.11 169.278C202.604 170.426 201.422 170.913 200.632 170.809C200.488 170.802 200.275 170.725 200.206 170.654L199.994 170.577L199.842 170.705C198.103 172.18 196.067 173.777 193.956 175.438L193.805 175.567L193.866 175.772C193.859 175.907 193.928 175.978 193.921 176.113C193.975 176.453 193.81 176.851 193.508 177.108L191.465 178.839C191.163 179.096 190.723 179.211 190.366 179.127L190.221 179.121L188.659 181.347C188.307 182.548 186.685 188.692 184.229 191.419C182.159 193.69 175.228 193.509 171.546 193.409C170.392 193.356 169.815 193.33 169.596 193.387L169.376 193.445L169.293 193.644C169.071 195.121 168.585 198.884 168.578 199.018C168.536 199.828 168 200.411 167.539 200.931L167.387 201.059L166.094 202.285C165.565 202.734 164.905 202.906 164.267 202.674C163.628 202.442 162.784 201.998 161.885 201.214L161.816 201.143C160.856 200.153 160.404 199.118 160.467 197.904C160.492 194.661 161.437 191.798 161.61 191.265L161.685 191.201L162.964 190.245L163.101 190.387L166.153 188.701L166.16 188.566L166.449 188.579C167.754 188.504 172.474 188.111 176.426 185.791L176.502 185.726L178.083 174.848L177.477 175.362C176.57 176.131 175.352 177.292 173.605 178.902C172.237 180.192 170.594 181.198 168.759 181.723L158.388 180.979L158.312 181.043L151.532 186.276L149.532 187.198C149.312 187.256 147.78 187.524 146.134 185.826C145.791 185.473 145.523 185.055 145.188 184.567C143.042 181.359 144.987 180.096 145.132 180.103L146.706 179.026C147.009 178.769 147.304 178.647 147.304 178.647L154.699 175.47L154.713 175.201L164.89 172.759L165.117 172.566C165.502 172.111 169.114 168.017 174.863 163.143L174.938 163.079L174.945 162.944C174.966 162.539 175.056 162.205 175.359 161.949L177.401 160.217C177.704 159.961 178.143 159.845 178.501 159.929C178.645 159.936 178.645 159.936 178.713 160.007L178.926 160.084L180.151 158.788L180.089 158.582C179.493 157.541 178.555 154.727 181.732 152.033L187.254 147.351L187.049 147.139C186.088 146.149 184.757 145.345 183.418 144.675C178.757 142.57 173.851 143.765 173.631 143.822L173.411 143.88L173.281 143.604L170.32 143.536L166.739 145.671L164.371 143.94L164.296 144.004L164.234 143.799C161.738 140.373 162.806 137.921 162.813 137.786Z" fill="white"/>
<path d="M205.393 144.732C197.567 140.928 195.809 151.054 200.467 155.998C201.962 157.824 205.269 160.949 208.366 161.158C212.474 161.414 214.217 157.1 213.1 154.953" stroke="#6F3FF5" stroke-width="1.71644" stroke-miterlimit="10"/>
<path d="M216.21 152.188C208.934 158.616 210.128 159.278 202.925 151.852L203.001 151.788C203.069 151.859 204.962 148.836 202.883 147.119L207.126 143.392" stroke="#6F3FF5" stroke-width="1.71644" stroke-miterlimit="10"/>
<path d="M208.715 139.207C209.245 138.758 210.186 138.733 210.666 139.228L211.421 140.006C211.421 140.006 211.489 140.077 211.551 140.283C211.537 140.552 211.364 141.085 210.223 142.182C209.239 143.016 208.497 143.388 208.057 143.503C207.617 143.618 207.26 143.534 207.062 143.187L206.451 142.415C206.259 141.934 206.363 141.33 206.817 140.945L208.715 139.207Z" stroke="#6F3FF5" stroke-width="1.71644" stroke-miterlimit="10"/>
<path d="M210.463 139.016C211.604 137.919 217.609 132.313 222.966 137.694C228.804 143.571 222.651 147.887 222.651 147.887" stroke="#6F3FF5" stroke-width="1.71644" stroke-miterlimit="10"/>
<path d="M211.149 139.723C211.149 139.723 216.169 134.95 221.404 139.921C223.812 142.262 223.458 144.882 222.267 146.923" stroke="#6F3FF5" stroke-width="1.71644" stroke-miterlimit="10"/>
<path d="M209.099 151.256C209.917 150.82 211.255 151.489 211.721 152.254C211.989 152.672 212.105 153.218 211.727 153.539C211.5 153.731 211.128 153.917 210.771 153.833C210.414 153.749 210.133 153.601 209.927 153.389C209.508 153.099 209.31 152.752 209.042 152.335C208.905 152.193 208.844 151.988 208.851 151.853C208.858 151.718 208.947 151.384 209.099 151.256Z" stroke="#6F3FF5" stroke-width="1.71644" stroke-miterlimit="10"/>
<path d="M211.35 144.194L214.3 141.692C215.132 140.987 216.43 141.046 217.185 141.824L222.192 146.987C222.947 147.765 222.884 148.979 222.052 149.684L219.101 152.186C218.269 152.891 216.971 152.832 216.217 152.054L211.209 146.891C210.454 146.113 210.518 144.899 211.35 144.194Z" fill="#5BF1CD" stroke="#6F3FF5" stroke-width="1.71644" stroke-miterlimit="10"/>
<path d="M211.9 147.463L214.85 144.962C214.85 144.962 215.599 144.455 216.491 145.375" stroke="#6F3FF5" stroke-width="1.71644" stroke-miterlimit="10"/>
<path d="M198.83 145.785L202.881 147.119" stroke="#6F3FF5" stroke-width="1.71644" stroke-miterlimit="10"/>
<path d="M200.959 146.558C200.959 146.558 202.512 151.428 199.006 153.498" stroke="#6F3FF5" stroke-width="1.71644" stroke-miterlimit="10"/>
<path d="M189.818 178.562L188.105 180.917C188.029 180.981 186.289 187.999 183.675 190.989C181.067 193.844 170.14 192.669 169.261 192.899C168.911 192.68 166.591 191.425 165.949 188.489C167.11 188.407 172.042 188.092 176.146 185.643L176.222 185.579L176.297 185.515L176.312 185.245L177.913 173.962" stroke="#6F3FF5" stroke-width="1.71644" stroke-miterlimit="10"/>
<path d="M180.221 174.068C180.152 173.997 179.171 173.412 178.215 173.706C178.14 173.77 177.844 173.892 177.466 174.212C177.466 174.212 177.466 174.212 177.39 174.277C176.558 174.982 175.038 176.4 172.838 178.395C171.469 179.684 169.826 180.69 167.991 181.215L157.696 180.407C157.201 180.181 154.463 178.637 154.357 175.117L164.458 172.74C164.458 172.74 164.685 172.547 164.692 172.412C165.614 171.373 169.294 167.35 174.665 162.796" stroke="#6F3FF5" stroke-width="1.71644" stroke-miterlimit="10"/>
<path d="M168.905 192.815L168.086 198.794C168.051 199.468 167.515 200.052 167.054 200.572C166.895 200.835 166.6 200.956 166.229 201.142C165.638 201.386 164.916 201.353 164.429 200.992C163.379 200.336 161.712 199.043 161.893 196.956C162.109 194.195 162.65 190.772 162.747 190.303L165.874 188.554" stroke="#6F3FF5" stroke-width="1.71644" stroke-miterlimit="10"/>
<path d="M162.904 190.04L161.474 191.124C161.474 191.124 160.378 194.115 160.408 197.699C160.413 198.984 161.078 200.096 161.832 200.874C162.662 201.587 163.507 202.032 164.145 202.263C164.639 202.489 165.223 202.38 165.677 201.995L167.197 200.578" stroke="#6F3FF5" stroke-width="1.71644" stroke-miterlimit="10"/>
<path d="M150.984 185.71L149.871 186.268L149.053 186.704C149.053 186.704 146.93 187.215 144.921 184.149C142.981 181.154 144.7 180.084 144.775 180.019L145.525 179.513L146.426 178.878" stroke="#6F3FF5" stroke-width="1.71644" stroke-miterlimit="10"/>
<path d="M176.366 185.586L178.138 186.275" stroke="#6F3FF5" stroke-width="1.71644" stroke-miterlimit="10"/>
<path d="M164.677 172.682L166.394 173.031" stroke="#6F3FF5" stroke-width="1.71644" stroke-miterlimit="10"/>
<path d="M170.448 178.488C170.455 178.353 170.333 176.523 168.309 175.146" stroke="#6F3FF5" stroke-width="1.71644" stroke-miterlimit="10"/>
<path d="M182.679 190.673C182.611 190.602 182.27 188.829 180.018 187.645" stroke="#6F3FF5" stroke-width="1.71644" stroke-miterlimit="10"/>
<path d="M145.64 181.478L147.983 180.909C148.498 180.73 148.992 180.955 149.26 181.373L149.458 181.72C149.726 182.138 149.622 182.742 149.312 183.133L147.566 184.743" stroke="#6F3FF5" stroke-width="1.71644" stroke-miterlimit="10"/>
<path d="M164.86 201.012C165.101 200.55 165.342 200.088 165.438 199.619C165.446 199.484 165.521 199.42 165.528 199.285L165.535 199.15L165.542 199.015C165.542 199.015 165.618 198.951 165.549 198.88C165.549 198.88 165.625 198.816 165.556 198.746C165.563 198.611 165.563 198.611 165.57 198.476C165.578 198.341 165.578 198.341 165.509 198.27C165.509 198.27 165.509 198.27 165.516 198.135C165.447 198.065 165.509 198.27 165.516 198.135C165.523 198.001 165.454 197.93 165.461 197.795C165.461 197.795 165.393 197.724 165.461 197.795C165.53 197.866 165.461 197.795 165.461 197.795L165.393 197.724L165.324 197.654C165.256 197.583 165.393 197.724 165.393 197.724C165.393 197.724 165.393 197.724 165.324 197.654C165.256 197.583 165.256 197.583 165.187 197.512C165.118 197.441 165.324 197.654 165.187 197.512L165.118 197.441L165.05 197.371C165.05 197.371 165.05 197.371 164.981 197.3C164.913 197.229 165.05 197.371 164.981 197.3L164.837 197.293C164.837 197.293 164.981 197.3 164.837 197.293C164.837 197.293 164.981 197.3 164.837 197.293L164.761 197.357C164.686 197.422 164.837 197.293 164.761 197.357L164.686 197.422C164.61 197.486 164.686 197.422 164.686 197.422L164.61 197.486C164.534 197.55 164.534 197.55 164.459 197.614L164.383 197.678C164.308 197.742 164.459 197.614 164.383 197.678C164.232 197.806 164.225 197.941 164.074 198.07C163.681 198.66 163.138 199.379 162.341 199.41C162.052 199.397 161.847 199.185 161.861 198.915C161.875 198.645 162.102 198.453 162.39 198.466C162.314 198.53 162.246 198.459 162.39 198.466C162.466 198.402 162.314 198.53 162.39 198.466L162.466 198.402C162.541 198.338 162.39 198.466 162.466 198.402C162.541 198.338 162.541 198.338 162.617 198.273L162.693 198.209C162.768 198.145 162.617 198.273 162.693 198.209C162.851 197.946 163.154 197.69 163.312 197.426C163.773 196.907 164.316 196.188 165.099 196.427C165.456 196.51 165.806 196.729 166.012 196.941C166.355 197.295 166.547 197.777 166.519 198.316C166.538 199.331 166.124 200.326 165.718 201.186C165.635 201.385 165.408 201.578 165.051 201.494C164.907 201.487 164.701 201.275 164.86 201.012Z" fill="#6F3FF5"/>
<path d="M154.344 175.387L154.193 175.515L146.942 178.699C146.942 178.699 146.055 179.064 145.642 180.059C145.477 180.457 145.455 180.862 145.51 181.202C145.503 181.337 145.572 181.408 145.564 181.543C145.681 182.089 145.941 182.641 146.338 183.335C146.736 184.03 147.14 184.589 147.628 184.949C147.696 185.02 147.833 185.161 147.902 185.232C149.014 186.094 150.023 186.14 150.539 185.961C150.759 185.903 150.979 185.846 150.979 185.846L151.205 185.653L157.758 180.613" stroke="#6F3FF5" stroke-width="1.71644" stroke-miterlimit="10"/>
<path d="M174.793 163.073C178.879 169.275 183.544 174.084 189.748 178.491C190.166 178.78 190.675 178.736 191.053 178.415C191.809 177.774 192.414 177.261 193.095 176.684C193.549 176.299 193.516 175.554 193.028 175.194C187.106 170.935 182.579 166.267 178.554 160.27C178.218 159.782 177.429 159.678 176.975 160.063C176.294 160.64 175.689 161.153 174.932 161.795C174.623 162.186 174.526 162.655 174.793 163.073Z" stroke="#6F3FF5" stroke-width="1.71644" stroke-miterlimit="10"/>
<path d="M191.436 173.836L188.018 176.992" stroke="#6F3FF5" stroke-width="1.71644" stroke-miterlimit="10"/>
<path d="M187.753 171.032L184.122 174.111" stroke="#6F3FF5" stroke-width="1.71644" stroke-miterlimit="10"/>
<path d="M184.253 167.425L180.622 170.504" stroke="#6F3FF5" stroke-width="1.71644" stroke-miterlimit="10"/>
<path d="M180.736 162.803L176.975 165.606" stroke="#6F3FF5" stroke-width="1.71644" stroke-miterlimit="10"/>
<path d="M201.018 144.06L197.167 141.653C196.399 141.145 195.472 140.9 194.592 141.13C194.008 141.239 192.722 142.329 192.722 142.329" stroke="#6F3FF5" stroke-width="1.71644" stroke-miterlimit="10"/>
<path d="M208.145 161.216C208.145 161.216 206.024 165.851 193.379 175.412" stroke="#6F3FF5" stroke-width="1.71644" stroke-miterlimit="10"/>
<path d="M204.738 165.522C204.738 165.522 197.634 161.75 191.277 153.348" stroke="#6F3FF5" stroke-width="1.71644" stroke-miterlimit="10"/>
<path d="M202.771 167.189C202.771 167.189 195.118 162.852 188.83 154.521" stroke="#6F3FF5" stroke-width="1.71644" stroke-miterlimit="10"/>
<path d="M198.83 145.785L197.347 145.109" stroke="#6F3FF5" stroke-width="1.71644" stroke-miterlimit="10"/>
<path d="M197.095 144.421C197.232 144.563 197.294 144.768 197.28 145.038C197.169 145.777 196.713 147.581 195.461 149.416C193.258 152.83 188.953 156.352 183.393 153.461L185.209 151.922C185.209 151.922 189.238 153.661 192.493 149.483C194.736 146.679 194.965 145.068 194.856 144.387C194.801 144.046 195.035 143.719 195.399 143.668C195.832 143.688 196.478 143.785 197.095 144.421Z" stroke="#6F3FF5" stroke-width="1.71644" stroke-miterlimit="10"/>
<path d="M189.313 149.473L186.212 152.103" stroke="#6F3FF5" stroke-width="1.71644" stroke-miterlimit="10"/>
<path d="M184.305 153.976L178.424 159.994" stroke="#6F3FF5" stroke-width="1.71644" stroke-miterlimit="10"/>
<path d="M194.863 144.252C194.863 144.252 187.928 137.243 178.566 136.545C178.566 136.545 175.119 136.117 172.563 136.609C172.563 136.609 171.275 139.119 172.939 143.25C172.939 143.25 178.072 141.862 182.939 144.18C187.881 146.434 188.859 149.858 188.859 149.858" stroke="#6F3FF5" stroke-width="1.71644" stroke-miterlimit="10"/>
<path d="M180.021 158.512C180.021 158.512 177.594 155.157 181.376 151.95C185.158 148.743 187.05 147.14 187.05 147.14" stroke="#6F3FF5" stroke-width="1.71644" stroke-miterlimit="10"/>
<path d="M210.62 160.923C210.62 160.923 209.777 164.603 203.761 169.059C200.666 171.554 199.947 170.102 199.947 170.102" stroke="#6F3FF5" stroke-width="1.71644" stroke-miterlimit="10"/>
<path d="M194.657 164.791C193.066 163.15 193.199 160.614 194.953 159.127C196.708 157.639 199.42 157.763 201.011 159.403C202.603 161.044 202.47 163.58 200.716 165.068C198.961 166.555 196.249 166.431 194.657 164.791Z" fill="#5BF1CD" stroke="#6F3FF5" stroke-width="1.71644" stroke-miterlimit="10"/>
<path d="M172.663 142.968L169.846 142.907C169.846 142.907 168.422 139.733 169.14 137.062L172.19 136.795" stroke="#6F3FF5" stroke-width="1.71644" stroke-miterlimit="10"/>
<path d="M169.051 137.395C169.051 137.395 164.601 136.786 163.034 137.728C163.034 137.728 162.041 140.116 163.686 143.233C163.686 143.233 169.107 141.859 169.457 142.077" stroke="#6F3FF5" stroke-width="1.71644" stroke-miterlimit="10"/>
<path d="M163.677 143.368L165.976 145.028L169.558 142.893" stroke="#6F3FF5" stroke-width="1.71644" stroke-miterlimit="10"/>
<path d="M207.997 165.468C207.997 165.468 213.506 170.721 214.464 178.673C214.464 178.673 217.011 179.736 220.188 177.042C220.188 177.042 219.568 168.159 212.119 159.91" stroke="#6F3FF5" stroke-width="1.71644" stroke-miterlimit="10"/>
<path d="M219.902 174.19C219.902 174.19 217.338 176.236 214.048 175.545" stroke="#6F3FF5" stroke-width="1.71644" stroke-miterlimit="10"/>
<path d="M219.658 177.491C219.658 177.491 220.718 180.717 219.307 182.815C219.307 182.815 217.423 184.284 215.054 183.973C215.054 183.973 215.821 180.358 214.813 178.892" stroke="#6F3FF5" stroke-width="1.71644" stroke-miterlimit="10"/>
<path d="M214.984 183.902L212.945 182.795L213.201 182.063L214.585 179.085" stroke="#6F3FF5" stroke-width="1.71644" stroke-miterlimit="10"/>
<path d="M194.965 361.754C193.208 360.505 195.831 354.35 200.976 347.944C206.011 341.498 211.577 337.389 213.377 338.536L302.806 400.497L284.438 423.613L194.965 361.754Z" fill="#8C65F7" stroke="#6F3FF5" stroke-width="1.71644" stroke-miterlimit="10"/>
<path d="M296.878 414.35C301.964 407.928 304.641 401.723 302.859 400.489C301.076 399.255 295.509 403.459 290.424 409.881C285.338 416.302 282.661 422.507 284.443 423.742C286.226 424.976 291.793 420.771 296.878 414.35Z" fill="#8C65F7" stroke="#6F3FF5" stroke-width="1.71644" stroke-miterlimit="10"/>
<path d="M158.028 404.582C156.272 403.333 158.895 397.177 164.04 390.772C169.075 384.326 174.64 380.217 176.44 381.363L265.869 443.325L247.501 466.44L158.028 404.582Z" fill="#8C65F7" stroke="#6F3FF5" stroke-width="1.71644" stroke-miterlimit="10"/>
<path d="M259.821 457.091C264.906 450.67 267.584 444.464 265.801 443.23C264.019 441.996 258.451 446.201 253.366 452.622C248.281 459.043 245.603 465.249 247.386 466.483C249.168 467.717 254.735 463.512 259.821 457.091Z" fill="#8C65F7" stroke="#6F3FF5" stroke-width="1.71644" stroke-miterlimit="10"/>
<path d="M211.283 405.518L201.556 398.804C197.604 396.143 196.873 390.996 199.719 387.301L205.805 379.582C208.651 375.887 214.155 375.203 218.107 377.864L227.834 384.578C231.786 387.239 232.517 392.385 229.672 396.08L223.585 403.799C220.673 407.351 215.125 408.138 211.283 405.518Z" fill="#5BF1CD" stroke="#6F3FF5" stroke-width="1.71644" stroke-miterlimit="10"/>
<path d="M204.608 400.892L194.882 394.178C190.929 391.517 190.198 386.37 193.044 382.675L199.13 374.956C201.976 371.261 207.48 370.577 211.432 373.238L221.159 379.952C225.111 382.613 225.843 387.759 222.997 391.454L216.911 399.173C213.999 402.725 208.451 403.512 204.608 400.892Z" fill="#5BF1CD" stroke="#6F3FF5" stroke-width="1.71644" stroke-miterlimit="10"/>
<path d="M224.441 388.663L231.116 393.29" stroke="#6F3FF5" stroke-width="1.71644" stroke-miterlimit="10"/>
<path d="M215.663 400.61L221.943 404.97" stroke="#6F3FF5" stroke-width="1.71644" stroke-miterlimit="10"/>
<path d="M244.086 428.198L234.359 421.484C230.407 418.823 229.676 413.676 232.521 409.981L238.608 402.262C241.453 398.567 246.958 397.883 250.91 400.544L260.637 407.258C264.589 409.919 265.32 415.066 262.474 418.761L256.388 426.48C253.542 430.175 248.038 430.859 244.086 428.198Z" fill="#FFE88F" stroke="#6F3FF5" stroke-width="1.71644" stroke-miterlimit="10"/>
<path d="M237.411 423.572L227.684 416.858C223.732 414.197 223.001 409.05 225.847 405.355L231.933 397.636C234.779 393.941 240.283 393.257 244.235 395.918L253.962 402.632C257.914 405.293 258.645 410.439 255.799 414.134L249.713 421.853C246.867 425.548 241.363 426.232 237.411 423.572Z" fill="#FFE88F" stroke="#6F3FF5" stroke-width="1.71644" stroke-miterlimit="10"/>
<path d="M257.199 411.446L263.874 416.072" stroke="#6F3FF5" stroke-width="1.71644" stroke-miterlimit="10"/>
<path d="M248.575 423.331L254.745 427.651" stroke="#6F3FF5" stroke-width="1.71644" stroke-miterlimit="10"/>
<path d="M270.726 482.939L263.481 477.863C254.149 471.415 252.179 459.031 259.075 450.306L289.002 412.593C295.898 403.869 309.144 402.026 318.475 408.474L325.721 413.55C335.052 419.998 337.023 432.383 330.127 441.108L300.199 478.82C293.303 487.545 280.058 489.387 270.726 482.939Z" fill="#FFE88F" stroke="#6F3FF5" stroke-width="1.71644" stroke-miterlimit="10"/>
<path d="M259.245 474.977L251.999 469.9C242.668 463.453 240.697 451.068 247.593 442.343L277.521 404.631C284.417 395.906 297.662 394.064 306.994 400.512L314.24 405.588C323.571 412.036 325.542 424.42 318.645 433.145L288.718 470.858C281.822 479.582 268.577 481.425 259.245 474.977Z" fill="#C9B8FF" stroke="#6F3FF5" stroke-width="1.71644" stroke-miterlimit="10"/>
<path d="M319.169 430.725L330.652 438.687" stroke="#6F3FF5" stroke-width="1.71644" stroke-miterlimit="10"/>
<path d="M289.571 469.749L300.264 477.179" stroke="#6F3FF5" stroke-width="1.71644" stroke-miterlimit="10"/>
<path d="M264.954 277.787C263.198 276.538 265.821 270.382 270.966 263.977C276.001 257.531 281.566 253.422 283.366 254.568L372.795 316.529L354.427 339.645L264.954 277.787Z" fill="#8C65F7" stroke="#6F3FF5" stroke-width="1.71644" stroke-miterlimit="10"/>
<path d="M366.773 330.296C371.858 323.875 374.536 317.67 372.753 316.435C370.971 315.201 365.404 319.406 360.318 325.827C355.233 332.249 352.555 338.454 354.338 339.688C356.12 340.922 361.688 336.718 366.773 330.296Z" fill="#8C65F7" stroke="#6F3FF5" stroke-width="1.71644" stroke-miterlimit="10"/>
<path d="M227.949 320.472C226.193 319.223 228.816 313.068 233.961 306.662C239.106 300.257 244.561 296.108 246.361 297.254L335.79 359.215L317.378 382.433L227.949 320.472Z" fill="#8C65F7" stroke="#6F3FF5" stroke-width="1.71644" stroke-miterlimit="10"/>
<path d="M329.712 373.039C334.798 366.618 337.475 360.412 335.693 359.178C333.91 357.944 328.343 362.149 323.258 368.57C318.172 374.991 315.495 381.197 317.277 382.431C319.06 383.665 324.627 379.46 329.712 373.039Z" fill="#8C65F7" stroke="#6F3FF5" stroke-width="1.71644" stroke-miterlimit="10"/>
<path d="M281.205 321.407L271.478 314.693C267.526 312.032 266.795 306.886 269.641 303.191L275.727 295.472C278.573 291.777 284.077 291.093 288.029 293.753L297.756 300.467C301.708 303.128 302.439 308.275 299.593 311.97L293.507 319.689C290.661 323.384 285.157 324.068 281.205 321.407Z" fill="#5BF1CD" stroke="#6F3FF5" stroke-width="1.71644" stroke-miterlimit="10"/>
<path d="M274.532 316.781L264.805 310.067C260.853 307.407 260.122 302.26 262.968 298.565L269.054 290.846C271.9 287.151 277.404 286.467 281.356 289.128L291.083 295.842C295.035 298.503 295.766 303.649 292.921 307.344L286.834 315.063C283.989 318.758 278.484 319.442 274.532 316.781Z" fill="#5BF1CD" stroke="#6F3FF5" stroke-width="1.71644" stroke-miterlimit="10"/>
<path d="M294.319 304.656L300.994 309.282" stroke="#6F3FF5" stroke-width="1.71644" stroke-miterlimit="10"/>
<path d="M285.695 316.541L291.865 320.86" stroke="#6F3FF5" stroke-width="1.71644" stroke-miterlimit="10"/>
<path d="M314.119 344.128L304.392 337.414C300.44 334.754 299.709 329.607 302.555 325.912L308.641 318.193C311.487 314.498 316.991 313.814 320.943 316.475L330.67 323.189C334.622 325.85 335.353 330.996 332.507 334.691L326.421 342.41C323.466 346.064 317.918 346.851 314.119 344.128Z" fill="#FFE88F" stroke="#6F3FF5" stroke-width="1.71644" stroke-miterlimit="10"/>
<path d="M307.445 339.502L297.718 332.788C293.766 330.127 293.035 324.981 295.881 321.286L301.967 313.567C304.813 309.871 310.317 309.188 314.269 311.848L323.996 318.562C327.948 321.223 328.68 326.37 325.834 330.065L319.747 337.784C316.792 341.438 311.244 342.225 307.445 339.502Z" fill="#FFE88F" stroke="#6F3FF5" stroke-width="1.71644" stroke-miterlimit="10"/>
<path d="M327.233 327.377L333.908 332.003" stroke="#6F3FF5" stroke-width="1.71644" stroke-miterlimit="10"/>
<path d="M318.456 339.324L324.779 343.581" stroke="#6F3FF5" stroke-width="1.71644" stroke-miterlimit="10"/>
<path d="M340.72 398.973L333.474 393.896C324.142 387.448 322.172 375.064 329.068 366.339L358.995 328.627C365.892 319.902 379.137 318.059 388.468 324.507L395.714 329.584C405.046 336.032 407.016 348.416 400.12 357.141L370.193 394.853C363.187 403.537 349.941 405.38 340.72 398.973Z" fill="#FFE88F" stroke="#6F3FF5" stroke-width="1.71644" stroke-miterlimit="10"/>
<path d="M329.236 391.01L321.99 385.933C312.659 379.486 310.688 367.101 317.585 358.376L347.512 320.664C354.408 311.939 367.653 310.097 376.985 316.545L384.231 321.621C393.562 328.069 395.533 340.453 388.637 349.178L358.709 386.891C351.703 395.575 338.458 397.417 329.236 391.01Z" fill="#C9B8FF" stroke="#6F3FF5" stroke-width="1.71644" stroke-miterlimit="10"/>
<path d="M389.16 346.757L400.643 354.72" stroke="#6F3FF5" stroke-width="1.71644" stroke-miterlimit="10"/>
<path d="M359.607 385.679L370.3 393.109" stroke="#6F3FF5" stroke-width="1.71644" stroke-miterlimit="10"/>
<path d="M96.8939 443.304C98.7597 444.767 100.99 445.781 103.111 446.501C111.755 449.328 121.711 446.857 127.544 439.685L313.637 214.182L279.116 189.142L93.024 414.645C85.6254 423.561 87.3581 436.386 96.8939 443.304Z" stroke="#6F3FF5" stroke-width="1.71644" stroke-miterlimit="10"/>
<path d="M177.258 366.873L149.612 347.049" stroke="#6F3FF5" stroke-width="1.71644" stroke-miterlimit="10"/>
<path d="M210.661 326.923L198.41 318.156L209.521 273.837" stroke="#6F3FF5" stroke-width="1.71644" stroke-miterlimit="10"/>
<path d="M163.464 357.035L124.628 406.671L94.6916 412.702" stroke="#6F3FF5" stroke-width="1.71644" stroke-miterlimit="10"/>
<path d="M123.656 433.57L123.657 433.569L307.531 209.611L313.5 213.923L124.203 441.674C121.901 439.514 121.651 436.006 123.656 433.57Z" fill="#6F3FF5" stroke="#6F3FF5" stroke-width="1.71644"/>
<path d="M161.901 336.458C163.67 337.692 169.262 333.678 174.52 327.411C179.779 321.144 182.561 315.046 180.835 313.709L93.1531 249.59L74.1092 272.299L161.901 336.458Z" fill="#8C65F7" stroke="#6F3FF5" stroke-width="1.71644" stroke-miterlimit="10"/>
<path d="M86.8688 263.325C92.1303 257.029 94.9786 250.889 93.2308 249.613C91.4829 248.336 85.8008 252.405 80.5394 258.702C75.2779 264.998 72.4296 271.138 74.1774 272.414C75.9253 273.691 81.6074 269.622 86.8688 263.325Z" fill="#8C65F7" stroke="#6F3FF5" stroke-width="1.71644" stroke-miterlimit="10"/>
<path d="M127.623 381.243C129.392 382.477 134.983 378.463 140.242 372.196C145.501 365.929 148.283 359.831 146.557 358.495L58.8748 294.375L39.8309 317.084L127.623 381.243Z" fill="#8C65F7" stroke="#6F3FF5" stroke-width="1.71644" stroke-miterlimit="10"/>
<path d="M52.612 308.091C57.8734 301.795 60.7218 295.656 58.974 294.379C57.2261 293.102 51.544 297.171 46.2825 303.468C41.0211 309.764 38.1728 315.904 39.9206 317.18C41.6684 318.457 47.3506 314.388 52.612 308.091Z" fill="#8C65F7" stroke="#6F3FF5" stroke-width="1.71644" stroke-miterlimit="10"/>
<path d="M112.467 333.465L121.979 340.466C125.762 343.259 131.369 342.567 134.356 339.03L140.653 331.481C143.64 327.945 142.9 322.702 139.117 319.909L129.605 312.908C125.823 310.115 120.215 310.807 117.228 314.344L110.931 321.892C108.055 325.469 108.684 330.672 112.467 333.465Z" fill="#5BF1CD" stroke="#6F3FF5" stroke-width="1.71644" stroke-miterlimit="10"/>
<path d="M118.991 338.199L128.503 345.2C132.285 347.993 137.893 347.301 140.88 343.764L147.177 336.215C150.163 332.679 149.424 327.436 145.641 324.643L136.129 317.642C132.346 314.849 126.739 315.541 123.752 319.078L117.455 326.626C114.536 330.306 115.208 335.406 118.991 338.199Z" fill="#5BF1CD" stroke="#6F3FF5" stroke-width="1.71644" stroke-miterlimit="10"/>
<path d="M126.321 317.166L119.686 312.391" stroke="#6F3FF5" stroke-width="1.71644" stroke-miterlimit="10"/>
<path d="M116.333 328.114L110.163 323.745" stroke="#6F3FF5" stroke-width="1.71644" stroke-miterlimit="10"/>
<path d="M80.2842 309.954L89.7961 316.955C93.5789 319.748 99.1864 319.056 102.173 315.519L108.47 307.97C111.457 304.434 110.717 299.191 106.934 296.398L97.4224 289.397C93.6396 286.604 88.0321 287.296 85.0454 290.833L78.7484 298.381C75.7617 301.918 76.5015 307.161 80.2842 309.954Z" fill="#FFE48D" stroke="#6F3FF5" stroke-width="1.71644" stroke-miterlimit="10"/>
<path d="M86.8096 314.687L96.3215 321.689C100.104 324.481 105.712 323.79 108.698 320.253L114.996 312.704C117.982 309.167 117.242 303.924 113.46 301.132L103.948 294.13C100.165 291.338 94.5575 292.03 91.5708 295.566L85.2738 303.115C82.2871 306.652 83.0268 311.895 86.8096 314.687Z" fill="#FFE48D" stroke="#6F3FF5" stroke-width="1.71644" stroke-miterlimit="10"/>
<path d="M94.0268 293.614L87.502 288.88" stroke="#6F3FF5" stroke-width="1.71644" stroke-miterlimit="10"/>
<path d="M84.0393 304.563L78.0225 300.131" stroke="#6F3FF5" stroke-width="1.71644" stroke-miterlimit="10"/>
<path d="M16.6734 300.518L23.8838 305.737C33.0406 312.373 46.3165 310.907 53.4136 302.346L84.3369 265.347C91.434 256.785 89.8667 244.372 80.7099 237.736L73.4995 232.517C64.3427 225.881 51.0668 227.347 43.9697 235.908L13.0463 272.907C5.94925 281.469 7.62672 293.922 16.6734 300.518Z" fill="#5BF1CD" stroke="#6F3FF5" stroke-width="1.71644" stroke-miterlimit="10"/>
<path d="M27.9537 308.752L35.164 313.971C44.3208 320.607 57.5968 319.142 64.6938 310.58L95.6172 273.581C102.714 265.02 101.147 252.607 91.9902 245.971L84.7798 240.751C75.623 234.116 62.347 235.581 55.25 244.143L24.3266 281.142C17.2295 289.703 18.7969 302.116 27.9537 308.752Z" fill="#C9B8FF" stroke="#6F3FF5" stroke-width="1.71644" stroke-miterlimit="10"/>
<path d="M57.6275 242.991L46.3467 234.756" stroke="#6F3FF5" stroke-width="1.71644" stroke-miterlimit="10"/>
<path d="M25.2801 280.066L14.7949 272.357" stroke="#6F3FF5" stroke-width="1.71644" stroke-miterlimit="10"/>
<path d="M229.254 252.847C231.023 254.081 236.614 250.067 241.873 243.8C247.132 237.533 249.914 231.435 248.188 230.099L160.616 166.019L141.572 188.728L229.254 252.847Z" fill="#8C65F7" stroke="#6F3FF5" stroke-width="1.71644" stroke-miterlimit="10"/>
<path d="M154.225 179.667C159.487 173.37 162.335 167.231 160.587 165.954C158.839 164.677 153.157 168.747 147.896 175.043C142.634 181.34 139.786 187.479 141.534 188.756C143.282 190.033 148.964 185.963 154.225 179.667Z" fill="#8C65F7" stroke="#6F3FF5" stroke-width="1.71644" stroke-miterlimit="10"/>
<path d="M195.128 297.57C196.896 298.803 202.488 294.789 207.747 288.523C213.005 282.256 215.787 276.158 214.061 274.821L126.337 210.805L107.293 233.514L195.128 297.57Z" fill="#8C65F7" stroke="#6F3FF5" stroke-width="1.71644" stroke-miterlimit="10"/>
<path d="M120.062 224.502C125.324 218.206 128.172 212.066 126.424 210.789C124.676 209.513 118.994 213.582 113.733 219.878C108.471 226.175 105.623 232.314 107.371 233.591C109.119 234.868 114.801 230.799 120.062 224.502Z" fill="#8C65F7" stroke="#6F3FF5" stroke-width="1.71644" stroke-miterlimit="10"/>
<path d="M179.972 249.791L189.484 256.792C193.267 259.585 198.874 258.893 201.861 255.356L208.158 247.808C211.145 244.271 210.405 239.028 206.622 236.235L197.11 229.234C193.327 226.441 187.72 227.133 184.733 230.67L178.436 238.219C175.407 241.858 176.079 246.958 179.972 249.791Z" fill="#5BF1CD" stroke="#6F3FF5" stroke-width="1.71644" stroke-miterlimit="10"/>
<path d="M186.454 254.628L195.966 261.629C199.749 264.422 205.356 263.73 208.343 260.193L214.64 252.645C217.627 249.108 216.887 243.865 213.104 241.072L203.592 234.071C199.81 231.279 194.202 231.97 191.215 235.507L184.918 243.056C181.932 246.592 182.671 251.835 186.454 254.628Z" fill="#5BF1CD" stroke="#6F3FF5" stroke-width="1.71644" stroke-miterlimit="10"/>
<path d="M193.715 233.452L187.19 228.718" stroke="#6F3FF5" stroke-width="1.71644" stroke-miterlimit="10"/>
<path d="M183.686 244.503L177.669 240.072" stroke="#6F3FF5" stroke-width="1.71644" stroke-miterlimit="10"/>
<path d="M147.678 226.24L157.19 233.241C160.973 236.034 166.58 235.342 169.567 231.805L175.864 224.257C178.851 220.72 178.111 215.477 174.328 212.684L164.816 205.683C161.034 202.89 155.426 203.582 152.439 207.119L146.142 214.668C143.266 218.244 143.895 223.447 147.678 226.24Z" fill="#FFE88F" stroke="#6F3FF5" stroke-width="1.71644" stroke-miterlimit="10"/>
<path d="M154.204 230.974L163.715 237.975C167.498 240.768 173.106 240.076 176.092 236.539L182.389 228.991C185.376 225.454 184.636 220.211 180.854 217.418L171.342 210.417C167.559 207.624 161.951 208.316 158.965 211.853L152.668 219.402C149.748 223.081 150.378 228.284 154.204 230.974Z" fill="#FFE88F" stroke="#6F3FF5" stroke-width="1.71644" stroke-miterlimit="10"/>
<path d="M161.529 209.941L154.895 205.167" stroke="#6F3FF5" stroke-width="1.71644" stroke-miterlimit="10"/>
<path d="M151.502 220.992L145.375 216.521" stroke="#6F3FF5" stroke-width="1.71644" stroke-miterlimit="10"/>
<path d="M84.1789 216.844L91.3893 222.063C100.546 228.699 113.822 227.233 120.919 218.672L151.842 181.673C158.94 173.111 157.372 160.698 148.215 154.062L141.005 148.843C131.848 142.207 118.53 143.776 111.475 152.234L80.5519 189.233C73.3447 197.755 75.0221 210.208 84.1789 216.844Z" fill="#5BF1CD" stroke="#6F3FF5" stroke-width="1.71644" stroke-miterlimit="10"/>
<path d="M95.4168 225.181L102.627 230.401C111.784 237.037 125.06 235.571 132.157 227.01L163.08 190.011C170.177 181.449 168.61 169.036 159.453 162.4L152.243 157.181C143.086 150.545 129.81 152.011 122.713 160.572L91.7897 197.571C84.6252 205.99 86.3027 218.443 95.4168 225.181Z" fill="#C9B8FF" stroke="#6F3FF5" stroke-width="1.71644" stroke-miterlimit="10"/>
<path d="M125.022 159.277L113.741 151.043" stroke="#6F3FF5" stroke-width="1.71644" stroke-miterlimit="10"/>
<path d="M92.6756 196.353L82.1904 188.644" stroke="#6F3FF5" stroke-width="1.71644" stroke-miterlimit="10"/>
<path d="M448.867 127.623L448.063 119.126L436.215 110.075L399.551 115.311L406.617 120.844L434.85 117.773L448.867 127.623Z" fill="#FFE88F"/>
<path d="M263.463 176.882L329.722 225.188C331.5 226.498 334.108 226.732 336.137 225.847L353.517 217.837L265.294 153.526L261.25 171.235C260.79 173.333 261.581 175.524 263.463 176.882Z" fill="#8C65F7" stroke="#6F3FF5" stroke-width="1.71644" stroke-miterlimit="10"/>
<path d="M211.374 113.363L194.273 63.8519L468.406 263.478L412.816 260.125L211.374 113.363Z" fill="#C9B8FF"/>
<path d="M193.12 62.3446L210.906 113.754L412.662 260.661L470.285 264.105" stroke="#6F3FF5" stroke-width="1.71644"/>
<path d="M474.263 259.113L197.243 57.3582L193.16 62.2598L470.179 264.014L474.263 259.113Z" fill="#8C65F7" stroke="#6F3FF5" stroke-width="1.71644" stroke-miterlimit="10"/>
<path d="M201.333 45.1081C195.661 47.7125 194.857 54.8811 199.825 58.5187L472.546 257.127C477.514 260.764 484.698 258.252 485.977 252.398L498.768 194.831C499.433 191.855 498.169 188.837 495.658 186.945L266.762 20.299L266.553 20.2023C263.991 18.4082 260.601 18.177 257.843 19.4545L219.285 36.9989L201.333 45.1081Z" fill="#F0EBFF" stroke="#6F3FF5" stroke-width="1.71644" stroke-miterlimit="10"/>
<path d="M210.748 40.8328L488.175 242.836L490.12 234.249L219.282 36.9992L210.748 40.8328Z" fill="#5BF1CD" stroke="#6F3FF5" stroke-width="1.71644" stroke-miterlimit="10"/>
<path d="M446.197 179.58L300.974 73.8127L293.236 83.0999L438.46 188.867L446.197 179.58Z" fill="#FFE48D" stroke="#6F3FF5" stroke-width="1.71644" stroke-miterlimit="10"/>
<path d="M271.744 64.9323C268.84 68.4527 263.316 69.0581 259.551 66.3422L219.283 36.9995L219.335 36.9018L257.841 19.4552C260.599 18.1776 263.989 18.4088 266.551 20.203L273.331 58.0046C273.597 59.2223 273.707 60.4893 273.347 61.6605C273.143 62.7824 272.522 63.9546 271.744 64.9323Z" fill="#E6FFF9" stroke="#6F3FF5" stroke-width="1.71644" stroke-miterlimit="10"/>
<path d="M391.834 94.1261C390.485 95.6909 388.509 96.7219 386.58 96.924C384.496 97.1754 382.409 96.6956 380.735 95.4344L315.471 47.953L337.041 44.8025L390.435 83.7484C393.834 86.1732 394.428 90.9481 391.834 94.1261Z" fill="#C9B8FF" stroke="#6F3FF5" stroke-width="1.71644" stroke-miterlimit="10"/>
<path d="M447.884 119.462L436.065 110.828L398.39 115.159" stroke="#6F3FF5" stroke-width="1.71644" stroke-miterlimit="10"/>
<path d="M448.697 127.502L434.996 117.511L405.085 120.936" stroke="#6F3FF5" stroke-width="1.71644" stroke-miterlimit="10"/>
</svg>
