<svg width="418" height="330" viewBox="0 0 418 330" fill="none" xmlns="http://www.w3.org/2000/svg">
<path d="M164.199 37.3828C164.199 37.3828 169.548 57.1207 196.627 53.5633" stroke="#6F3FF5" stroke-miterlimit="10" stroke-linecap="round" stroke-linejoin="round"/>
<path d="M109.599 82.3957C111.387 76.8093 114.403 67.3125 116.414 61.5026C122.895 42.1738 129.487 23.0684 133.174 14.9123C138.537 3.62789 148.48 -1.06466 156.86 1.84025C165.463 4.74516 170.267 14.4654 166.58 27.9844C162.111 44.5201 146.804 85.3006 141.888 99.043" fill="white"/>
<path d="M109.599 82.3957C111.387 76.8093 114.403 67.3125 116.414 61.5026C122.895 42.1738 129.487 23.0684 133.174 14.9123C138.537 3.62789 148.48 -1.06466 156.86 1.84025C165.463 4.74516 170.267 14.4654 166.58 27.9844C162.111 44.5201 146.804 85.3006 141.888 99.043" stroke="#6F3FF5" stroke-miterlimit="10" stroke-linecap="round" stroke-linejoin="round"/>
<path d="M140.994 101.277C144.346 93.1214 147.363 84.0714 151.273 72.8987C152.279 69.9938 153.284 66.9772 154.29 64.0723C159.206 49.9946 164.234 36.4756 168.368 28.4312C174.177 17.1468 184.345 12.9011 192.724 16.1412C201.104 19.1579 205.573 29.2133 201.439 42.5089C196.411 58.9328 181.663 96.138 176.3 109.769" fill="white"/>
<path d="M140.994 101.277C144.346 93.1214 147.363 84.0714 151.273 72.8987C152.279 69.9938 153.284 66.9772 154.29 64.0723C159.206 49.9946 164.234 36.4756 168.368 28.4312C174.177 17.1468 184.345 12.9011 192.724 16.1412C201.104 19.1579 205.573 29.2133 201.439 42.5089C196.411 58.9328 181.663 96.138 176.3 109.769" stroke="#6F3FF5" stroke-miterlimit="10" stroke-linecap="round" stroke-linejoin="round"/>
<path d="M177.529 109.769C177.864 108.54 178.423 106.864 179.205 104.853C180.658 100.607 182.445 95.0209 184.792 88.7642C189.261 76.4742 194.847 61.9496 199.316 54.017C205.573 43.1794 215.963 39.4924 224.12 42.8443C232.276 46.4195 236.41 56.6984 231.605 69.6588C225.795 85.6358 211.83 118.484 205.796 131.891" stroke="#6F3FF5" stroke-miterlimit="10" stroke-linecap="round" stroke-linejoin="round"/>
<path d="M79.0975 233.116L52.8416 305.18C52.8416 305.18 78.2037 336.575 145.687 322.609L161.217 256.914" fill="white"/>
<path d="M79.0975 233.116L52.8416 305.18C52.8416 305.18 78.2037 336.575 145.687 322.609L161.217 256.914" stroke="#6F3FF5" stroke-miterlimit="10" stroke-linecap="round" stroke-linejoin="round"/>
<path d="M153.285 289.427C138.76 293.225 121.777 291.549 106.359 286.969C90.8289 282.388 76.5278 275.014 67.3662 266.858" stroke="#6F3FF5" stroke-miterlimit="10" stroke-linecap="round" stroke-linejoin="round"/>
<path d="M150.938 298.588C136.302 302.499 119.096 300.711 103.566 296.13C87.8122 291.438 73.5111 283.952 64.126 275.796" stroke="#6F3FF5" stroke-miterlimit="10" stroke-linecap="round" stroke-linejoin="round"/>
<path d="M195.629 150.437C197.64 146.974 201.662 141.164 204.456 136.025C210.154 125.746 216.522 113.791 219.427 106.864C222.444 99.6015 226.354 95.0207 230.823 92.6745C235.404 90.3282 239.985 90.6634 243.784 92.7862C251.381 97.1435 254.845 108.428 250.152 119.712C242.666 137.254 220.544 181.945 205.238 207.865C204.12 209.876 202.891 211.999 201.662 214.122C195.294 225.295 188.367 237.361 178.647 246.076C166.804 256.802 151.273 262.5 127.811 257.472C116.861 255.126 103.678 248.758 92.9517 242.836C68.9304 229.652 57.9811 200.827 67.3662 175.017C67.4779 174.794 67.4779 174.571 67.5896 174.347C75.0754 154.013 79.4327 139.376 81.5555 128.427C83.6784 117.478 83.4549 110.439 81.8907 105.523C79.0975 96.138 79.321 88.8757 81.8907 83.6245C84.4605 78.3734 89.3765 75.8036 94.8511 75.9154C105.353 76.0271 117.197 85.4122 120.772 101.054C122.336 107.646 121.107 114.014 119.766 119.936C119.543 120.941 119.319 122.059 118.984 123.064C117.867 127.98 116.638 132.449 116.526 137.142C116.526 139.712 117.308 142.617 118.537 146.415C119.208 148.203 119.878 150.214 120.66 152.337C120.66 152.56 120.884 152.784 120.884 152.895C121.666 154.795 122.336 156.806 123.006 158.817" fill="white"/>
<path d="M195.629 150.437C197.64 146.974 201.662 141.164 204.456 136.025C210.154 125.746 216.522 113.791 219.427 106.864C222.444 99.6015 226.354 95.0207 230.823 92.6745C235.404 90.3282 239.985 90.6634 243.784 92.7862C251.381 97.1435 254.845 108.428 250.152 119.712C242.666 137.254 220.544 181.945 205.238 207.865C204.12 209.876 202.891 211.999 201.662 214.122C195.294 225.295 188.367 237.361 178.647 246.076C166.804 256.802 151.273 262.5 127.811 257.472C116.861 255.126 103.678 248.758 92.9517 242.836C68.9304 229.652 57.9811 200.827 67.3662 175.017C67.4779 174.794 67.4779 174.571 67.5896 174.347C75.0754 154.013 79.4327 139.376 81.5555 128.427C83.6784 117.478 83.4549 110.439 81.8907 105.523C79.0975 96.138 79.321 88.8757 81.8907 83.6245C84.4605 78.3734 89.3765 75.8036 94.8511 75.9154C105.353 76.0271 117.197 85.4122 120.772 101.054C122.336 107.646 121.107 114.014 119.766 119.936C119.543 120.941 119.319 122.059 118.984 123.064C117.867 127.98 116.638 132.449 116.526 137.142C116.526 139.712 117.308 142.617 118.537 146.415C119.208 148.203 119.878 150.214 120.66 152.337C120.66 152.56 120.884 152.784 120.884 152.895C121.666 154.795 122.336 156.806 123.006 158.817" stroke="#6F3FF5" stroke-miterlimit="10" stroke-linecap="round" stroke-linejoin="round"/>
<path d="M166.468 254.567L166.692 279.93C151.05 284.063 126.135 282.276 109.599 277.36C92.84 272.444 71.947 262.165 62.115 253.45L76.7513 229.876" fill="white"/>
<path d="M166.468 254.567L166.692 279.93C151.05 284.063 126.135 282.276 109.599 277.36C92.84 272.444 71.947 262.165 62.115 253.45L76.7513 229.876" stroke="#6F3FF5" stroke-miterlimit="10" stroke-linecap="round" stroke-linejoin="round"/>
<path d="M351.133 102.849C342.869 97.8217 327.905 98.7154 316.291 110.333C311.49 115.025 309.256 120.945 307.246 126.754L305.683 131.446C304.231 135.579 302.891 139.489 300.769 143.063C299.541 145.074 297.642 147.085 294.069 149.989L293.399 150.548C292.17 151.553 290.719 152.67 289.044 153.899C288.932 154.011 288.932 154.011 288.82 154.122C288.82 154.122 288.709 154.234 288.597 154.346C286.699 155.798 285.023 157.027 283.683 158.144C283.46 158.256 283.237 158.256 283.125 158.032C283.013 157.921 283.013 157.809 283.013 157.697C283.013 157.585 283.125 157.474 283.125 157.474C284.577 156.357 286.14 155.016 288.15 153.676C288.262 153.564 288.262 153.564 288.485 153.452L288.709 153.229C290.272 152.112 291.724 150.995 292.952 149.878L293.622 149.319C297.084 146.526 298.982 144.516 300.211 142.617C302.109 139.489 303.338 136.026 304.454 132.786L304.566 132.563L304.454 132.339V132.228C302.556 124.408 297.419 101.061 294.627 87.4329C293.51 81.6241 292.17 75.3685 291.054 69.7831C287.704 53.4737 283.013 30.797 279.998 21.637C275.866 10.5779 267.044 4.09887 258.111 6.10961C248.73 8.00864 243.705 17.8389 245.603 30.4619C247.502 43.7551 254.202 72.4641 258.669 91.3427L258.892 92.2363C259.897 96.4812 260.791 100.279 261.349 103.072L261.461 103.407C261.572 103.742 261.684 104.189 261.796 104.524C261.907 104.748 261.796 104.971 261.572 105.083C261.461 105.083 261.349 105.083 261.237 105.083C261.126 105.083 261.126 104.971 261.014 104.859L260.902 104.636L260.791 104.301L260.679 104.189L260.456 103.295C258.669 97.2632 256.994 90.5607 255.207 83.5231V83.2997C254.649 80.8421 253.979 78.3846 253.309 75.7036L251.075 66.6553C247.725 53.362 243.817 38.6166 240.243 29.9034C235.776 18.956 226.508 13.1472 217.686 15.7165C208.529 18.0623 204.173 28.1161 206.854 40.739C207.97 46.101 210.092 54.3674 212.995 65.2031C215.117 71.347 217.462 79.0548 220.031 87.9914C221.594 93.3534 222.823 98.3803 223.939 102.29L224.498 104.412C225.056 106.423 225.503 108.211 225.726 109.328V109.439L225.838 109.886C225.949 110.11 225.726 110.333 225.614 110.445H225.503C225.391 110.445 225.168 110.333 225.168 110.11L223.604 104.636C220.701 94.5822 216.234 79.3899 212.437 65.5382C210.539 60.0645 208.864 55.7079 207.3 52.5801C202.275 42.1912 192.671 36.941 183.849 39.9571C174.916 43.0849 171.23 53.4737 174.804 65.6499C178.824 79.7251 187.646 105.53 193.23 121.169C190.773 115.248 182.509 91.231 180.387 84.5285C178.377 78.0494 172.57 74.3631 168.215 71.6821C167.657 71.347 167.21 71.0119 166.764 70.7884C162.855 68.3309 158.388 67.884 154.256 69.7831C145.993 73.5811 142.308 84.6402 145.658 95.4759C151.465 113.796 169.22 160.49 181.951 187.411C182.956 189.534 183.961 191.768 184.966 194.002L185.078 194.337C190.438 206.178 196.021 218.466 204.732 227.961C215.006 239.244 227.513 244.606 243.817 244.606C247.055 244.606 250.405 244.382 253.867 243.936C261.349 243.042 267.603 242.037 273.521 240.361C316.18 228.073 321.875 200.593 321.875 200.258C326.118 180.039 330.25 164.846 334.494 153.787C338.179 144.069 341.976 137.813 346.443 134.015C353.366 127.871 357.275 121.615 357.945 115.807C358.28 110.445 355.935 105.753 351.133 102.849ZM196.133 129.323L196.245 129.658C196.468 130.217 196.691 130.664 196.915 131.111C196.915 131.222 196.915 131.334 196.915 131.446C196.915 131.557 196.803 131.669 196.691 131.669C196.58 131.669 196.468 131.669 196.356 131.669C196.245 131.669 196.133 131.557 196.133 131.446C195.91 130.887 195.575 129.435 195.24 127.983C195.016 127.089 194.793 126.196 194.57 125.302C195.128 126.754 195.686 128.095 196.133 129.323Z" fill="white"/>
<path d="M172.899 159.976C172.899 159.976 214.268 89.7066 300.239 107.498" stroke="#6F3FF5" stroke-miterlimit="10" stroke-linecap="round" stroke-linejoin="round"/>
<path d="M153.508 119.266C150.044 109.993 147.251 101.948 145.575 96.5852C142 84.8539 146.469 74.0163 154.513 70.3293C158.535 68.5417 163.116 68.6534 167.474 71.4466C171.608 74.128 178.088 78.0385 180.322 85.6359C182.557 92.7865 195.294 128.763 196.97 132.338" stroke="#6F3FF5" stroke-miterlimit="10" stroke-linecap="round" stroke-linejoin="round"/>
<path d="M184.009 193.229C183.339 191.665 182.557 190.101 181.886 188.649C172.836 169.543 161.44 140.941 153.508 119.266" stroke="#6F3FF5" stroke-miterlimit="10" stroke-linecap="round" stroke-linejoin="round"/>
<path d="M283.781 158.817C285.346 157.476 287.133 156.136 288.697 155.018C288.809 154.907 289.033 154.795 289.144 154.571C291.044 153.231 292.608 151.89 294.06 150.773C297.189 148.315 299.423 146.192 300.764 143.957C303.222 139.935 304.563 135.466 306.239 130.662C306.574 129.656 306.909 128.651 307.244 127.533C309.255 121.724 311.602 115.69 316.406 110.998C327.69 99.6016 342.773 98.0374 351.712 103.4C356.404 106.193 359.197 110.886 358.639 116.808C358.08 122.506 354.281 128.874 347.019 135.354C343.109 138.818 339.198 144.628 335.176 155.018C331.154 165.409 327.02 180.157 322.663 201.385C322.663 201.385 317.523 229.317 273.949 241.83C267.693 243.618 261.101 244.512 254.285 245.406C230.488 248.199 215.404 241.048 204.679 229.205C195.852 219.485 190.154 206.86 184.791 195.128C184.456 194.458 184.232 193.899 183.897 193.229" stroke="#6F3FF5" stroke-miterlimit="10" stroke-linecap="round" stroke-linejoin="round"/>
<path d="M261.66 104.965C258.42 90.6635 248.141 48.3189 245.683 31.4481C243.672 17.7056 249.593 8.54396 258.531 6.6446C267.134 4.74524 276.519 10.6668 280.43 22.5099C283.223 31.0012 287.469 50.7769 291.491 70.7761C292.72 76.6976 293.949 82.7309 295.066 88.429C297.971 102.283 303.11 125.522 304.898 133.232" stroke="#6F3FF5" stroke-miterlimit="10" stroke-linecap="round" stroke-linejoin="round"/>
<path d="M226.912 114.35C222.89 100.272 210.377 58.4861 206.913 41.727C204.008 28.0963 209.371 18.4877 217.974 16.2532C226.465 13.7952 236.297 18.9346 241.102 30.666C244.453 39.0455 248.252 53.0114 251.939 67.4243C252.721 70.4409 253.503 73.4575 254.174 76.4742C257.079 87.9821 259.313 97.2555 261.883 105.635" stroke="#6F3FF5" stroke-miterlimit="10" stroke-linecap="round" stroke-linejoin="round"/>
<path d="M196.188 130.55C191.048 116.696 179.429 83.0664 174.736 66.6424C170.937 53.3469 175.63 43.4032 184.121 40.3865C192.501 37.5933 202.556 42.0624 208.031 53.2352C211.941 61.3913 216.522 76.251 220.097 88.8762C221.997 95.2446 223.449 101.054 224.566 105.3" stroke="#6F3FF5" stroke-miterlimit="10" stroke-linecap="round" stroke-linejoin="round"/>
<path d="M223.561 242.501L236.297 318.588C236.297 318.588 278.754 347.749 330.037 307.415L306.574 225.631" fill="white"/>
<path d="M223.561 242.501L236.297 318.588C236.297 318.588 278.754 347.749 330.037 307.415L306.574 225.631" stroke="#6F3FF5" stroke-miterlimit="10" stroke-linecap="round" stroke-linejoin="round"/>
<path d="M320.093 272.779C310.261 280.376 295.29 286.968 279.201 290.544C263.224 294.119 245.906 294.678 231.493 289.873" stroke="#6F3FF5" stroke-miterlimit="10" stroke-linecap="round" stroke-linejoin="round"/>
<path d="M309.256 222.948L321.657 249.204C311.267 257.249 291.603 265.517 274.732 269.315C257.973 273.114 234.957 274.12 219.762 268.98L219.874 240.825" fill="white"/>
<path d="M309.256 222.948L321.657 249.204C311.267 257.249 291.603 265.517 274.732 269.315C257.973 273.114 234.957 274.12 219.762 268.98L219.874 240.825" stroke="#6F3FF5" stroke-miterlimit="10" stroke-linecap="round" stroke-linejoin="round"/>
<path d="M317.076 262.724C307.468 270.209 292.72 276.578 276.966 280.153C261.324 283.728 244.342 284.175 230.264 279.483" stroke="#6F3FF5" stroke-miterlimit="10" stroke-linecap="round" stroke-linejoin="round"/>
<path d="M298.418 228.759C290.932 234.569 279.536 239.485 267.358 242.278C255.291 244.959 242.107 245.406 231.158 241.719" stroke="#6F3FF5" stroke-miterlimit="10" stroke-linecap="round" stroke-linejoin="round"/>
<path d="M37.5348 157.252C25.3566 155.688 13.1783 154.123 1 152.671" stroke="#6F3FF5" stroke-miterlimit="10" stroke-linecap="round" stroke-linejoin="round"/>
<path d="M356.069 71.5577C360.985 67.0886 365.901 62.6195 370.817 58.1504" stroke="#6F3FF5" stroke-miterlimit="10" stroke-linecap="round" stroke-linejoin="round"/>
<path d="M389.141 145.521C398.526 145.074 407.911 144.627 417.296 144.292" stroke="#6F3FF5" stroke-miterlimit="10" stroke-linecap="round" stroke-linejoin="round"/>
<path d="M361.879 201.831C366.907 203.619 371.823 205.518 376.851 207.306" stroke="#6F3FF5" stroke-miterlimit="10" stroke-linecap="round" stroke-linejoin="round"/>
<path d="M32.2837 236.69C29.6023 237.025 26.9208 237.472 24.3511 237.807" stroke="#6F3FF5" stroke-miterlimit="10" stroke-linecap="round" stroke-linejoin="round"/>
<path d="M98.3145 41.7267C93.8454 38.1514 89.3763 34.6879 84.9072 31.1126" stroke="#6F3FF5" stroke-miterlimit="10" stroke-linecap="round" stroke-linejoin="round"/>
<path d="M309.926 17.0347C313.613 12.4538 317.412 7.7613 321.099 3.18048" stroke="#6F3FF5" stroke-miterlimit="10" stroke-linecap="round" stroke-linejoin="round"/>
<path d="M249.258 48.3187C260.766 42.5089 271.715 37.146 285.123 40.6095" stroke="#6F3FF5" stroke-miterlimit="10" stroke-linecap="round" stroke-linejoin="round"/>
<path d="M254.844 76.8083C266.352 70.9984 277.302 65.6355 290.709 69.0991" stroke="#6F3FF5" stroke-miterlimit="10" stroke-linecap="round" stroke-linejoin="round"/>
<path d="M219.092 84.5181C230.599 78.7083 241.549 73.3454 254.956 76.8089Z" fill="white"/>
<path d="M219.092 84.5181C230.599 78.7083 241.549 73.3454 254.956 76.8089" stroke="#6F3FF5" stroke-miterlimit="10" stroke-linecap="round" stroke-linejoin="round"/>
<path d="M210.824 56.5864C222.332 50.7766 233.281 45.4137 246.688 48.8772Z" fill="white"/>
<path d="M210.824 56.5864C222.332 50.7766 233.281 45.4137 246.688 48.8772" stroke="#6F3FF5" stroke-miterlimit="10" stroke-linecap="round" stroke-linejoin="round"/>
<path d="M312.657 115.685C312.657 115.685 305.559 134.977 342.158 139.413" stroke="#6F3FF5" stroke-miterlimit="10" stroke-linecap="round" stroke-linejoin="round"/>
<path d="M301.302 143.367C301.302 143.367 296.348 167.574 328.712 175.795" stroke="#6F3FF5" stroke-miterlimit="10" stroke-linecap="round" stroke-linejoin="round"/>
<path d="M176.859 72.3401C188.367 66.5302 199.316 61.1673 212.723 64.6309Z" fill="white"/>
<path d="M176.859 72.3401C188.367 66.5302 199.316 61.1673 212.723 64.6309" stroke="#6F3FF5" stroke-miterlimit="10" stroke-linecap="round" stroke-linejoin="round"/>
<path d="M184.792 99.3775C196.299 93.5677 207.249 88.2047 220.656 91.6683Z" fill="white"/>
<path d="M184.792 99.3775C196.299 93.5677 207.249 88.2047 220.656 91.6683" stroke="#6F3FF5" stroke-miterlimit="10" stroke-linecap="round" stroke-linejoin="round"/>
<path d="M148.257 103.177C159.765 97.3667 170.714 92.0038 184.121 95.4674Z" fill="white"/>
<path d="M148.257 103.177C159.765 97.3667 170.714 92.0038 184.121 95.4674" stroke="#6F3FF5" stroke-miterlimit="10" stroke-linecap="round" stroke-linejoin="round"/>
<path d="M156.078 126.64C167.586 120.83 178.535 115.467 191.942 118.93Z" fill="white"/>
<path d="M156.078 126.64C167.586 120.83 178.535 115.467 191.942 118.93" stroke="#6F3FF5" stroke-miterlimit="10" stroke-linecap="round" stroke-linejoin="round"/>
<path d="M82.7334 108.566C82.7334 108.566 89.0608 131.037 120.698 114.127Z" fill="white"/>
<path d="M82.7334 108.566C82.7334 108.566 89.0608 131.037 120.698 114.127" stroke="#6F3FF5" stroke-miterlimit="10" stroke-linecap="round" stroke-linejoin="round"/>
<path d="M117.534 141.189C117.534 141.189 101.329 157.404 78.7788 140.203Z" fill="white"/>
<path d="M117.534 141.189C117.534 141.189 101.329 157.404 78.7788 140.203" stroke="#6F3FF5" stroke-miterlimit="10" stroke-linecap="round" stroke-linejoin="round"/>
<path d="M130.98 20.7733C130.98 20.7733 136.329 39.5713 163.408 36.1833" stroke="#6F3FF5" stroke-miterlimit="10" stroke-linecap="round" stroke-linejoin="round"/>
<path d="M120.698 50.8284C120.698 50.8284 124.094 70.2706 153.126 67.0852" stroke="#6F3FF5" stroke-miterlimit="10" stroke-linecap="round" stroke-linejoin="round"/>
<path d="M87.479 234.324C94.3009 240.909 105.149 247.154 117.003 251.242C128.746 255.216 141.831 257.033 153.126 254.535" stroke="#6F3FF5" stroke-miterlimit="10" stroke-linecap="round" stroke-linejoin="round"/>
<path opacity="0.3" d="M164.199 221.669C184.729 221.669 201.373 204.849 201.373 184.1C201.373 163.351 184.729 146.531 164.199 146.531C143.669 146.531 127.025 163.351 127.025 184.1C127.025 204.849 143.669 221.669 164.199 221.669Z" fill="#6F3FF5"/>
<path d="M165.945 217.979C183.51 216.277 196.331 200.26 194.581 182.204C192.831 164.148 177.173 150.89 159.608 152.593C142.044 154.295 129.223 170.312 130.973 188.368C132.723 206.424 148.381 219.682 165.945 217.979Z" fill="#5BF1CD" stroke="#6F3FF5" stroke-miterlimit="10"/>
<path d="M165.277 211.085C179.096 209.746 189.178 197.109 187.797 182.861C186.417 168.613 174.095 158.148 160.277 159.487C146.458 160.826 136.376 173.462 137.756 187.711C139.137 201.959 151.459 212.424 165.277 211.085Z" fill="white" stroke="#6F3FF5" stroke-miterlimit="10"/>
<path opacity="0.3" d="M194.65 201.105C217.583 201.105 236.174 182.691 236.174 159.977C236.174 137.262 217.583 118.848 194.65 118.848C171.717 118.848 153.126 137.262 153.126 159.977C153.126 182.691 171.717 201.105 194.65 201.105Z" fill="#6F3FF5"/>
<path d="M194.623 198.815C215.418 198.815 232.275 181.958 232.275 161.163C232.275 140.368 215.418 123.511 194.623 123.511C173.829 123.511 156.971 140.368 156.971 161.163C156.971 181.958 173.829 198.815 194.623 198.815Z" fill="#FFE48D" stroke="#6F3FF5" stroke-miterlimit="10"/>
<path d="M194.623 190.771C210.975 190.771 224.231 177.515 224.231 161.163C224.231 144.811 210.975 131.555 194.623 131.555C178.271 131.555 165.015 144.811 165.015 161.163C165.015 177.515 178.271 190.771 194.623 190.771Z" fill="white" stroke="#6F3FF5" stroke-miterlimit="10"/>
<path d="M192.612 176.358L184.009 162.392C183.562 161.61 183.562 160.716 184.009 159.934L192.612 145.968C193.506 144.516 195.741 144.516 196.634 145.968L205.237 159.934C205.684 160.716 205.684 161.61 205.237 162.392L196.634 176.358C195.741 177.922 193.506 177.922 192.612 176.358Z" fill="#FFE48D" stroke="#6F3FF5" stroke-miterlimit="10"/>
</svg>
