<svg width="95" height="80" viewBox="0 0 95 80" fill="none" xmlns="http://www.w3.org/2000/svg">
<ellipse cx="43.8889" cy="42.3188" rx="36.1111" ry="37.6812" fill="#581FF7"/>
<path d="M0 28.8397C0 25.7925 2.29182 23.2169 3.43772 22.3099C-0.982207 15.7802 2.45552 7.61803 3.43772 5.44145C4.53586 3.00796 8.7426 -1.3743e-05 13.7509 0C18.6619 1.34762e-05 22.5908 2.17658 25.5374 5.44145C28.484 8.70632 27.9929 16.3244 27.9929 22.3099C27.9929 28.2955 31.9917 33.7939 36.1111 39.4203C40.014 44.7509 34.8066 49.9262 33.3333 51.0145C31.86 52.1028 28.9751 54.4145 28.9751 55.5028V70.7389C28.9751 74.5479 27.0107 77.2686 24.5552 78.3569C22.0996 79.4452 15.7153 78.3569 11.2954 78.3569C6.87545 78.3569 4.41993 75.092 3.43772 74.0037C2.45552 72.9154 2.45552 67.474 2.45552 63.665C2.45552 60.6178 1.47331 50.0613 0.982207 45.164C0.654804 40.9923 0 31.8869 0 28.8397Z" fill="#00E2AC"/>
<path d="M3.88889 32.4638C3.88889 28.7536 5.37037 27.4396 6.11111 27.2464L9.44444 21.4493C8.51852 20.6763 6 18.7826 5.55555 17.3913C5 15.6522 4.44444 13.3333 5 11.0145C5.42609 9.23602 6.66666 6.95652 8.33333 5.7971C10 4.63768 12.7778 4.05797 14.4444 4.05797C16.1111 4.05797 17.7384 4.63768 19.147 5.7971C20.5556 6.95652 22.2222 8.11594 22.7778 10.4348C23.3333 12.7536 23.3333 13.913 22.7778 16.2319C22.2222 18.5507 19.4444 21.4493 18.8889 21.4493C19.8148 21.6425 21.8889 22.2609 22.7778 23.1884C23.8889 24.3478 25 24.9275 25.5556 27.2464C26.1111 29.5652 26.1111 32.4638 28.3333 35.3623C30.1111 37.6812 32.4074 40.5797 33.3333 41.7391C34.2593 42.5121 35.5555 44.5217 33.3333 46.3768C30.5555 48.6956 31.1111 49.8551 28.3333 48.1159C27.3257 47.4851 26.0987 46.4728 24.8911 45.2174C24.9274 51.401 25.1742 65.3938 25 71.8841C24.8911 75.942 17.2222 76.5217 17.2222 71.8841V55.6522H12.7778V71.8841C12.7778 76.5217 6.11111 74.7826 6.66666 71.8841V55.6522L5.53992 52.7536V45.9764C4.25693 45.2615 3.88889 43.76 3.88889 42.8985V32.4638Z" fill="white"/>
<path d="M6.11111 27.2464C5.37037 27.4396 3.88889 28.7536 3.88889 32.4638C3.88889 36.1739 3.88889 40.9662 3.88889 42.8985C3.88889 43.76 4.25693 45.2615 5.53992 45.9764M6.11111 27.2464C7.59259 27.2464 11.1111 27.2464 13.3333 27.2464C15.5556 27.2464 15.7407 29.9517 15.5556 31.3043C15.5556 33.8164 15.5556 39.6522 15.5556 42.8985C15.5556 46.1449 13.3333 46.57 12.2222 46.3768C11.6667 46.3768 9.88889 46.3768 7.22222 46.3768C6.5369 46.3768 5.98368 46.2237 5.53992 45.9764M6.11111 27.2464L9.44444 21.4493M9.44444 21.4493H18.8889M9.44444 21.4493C8.51851 20.6763 6 18.7826 5.55555 17.3913C5 15.6522 4.44444 13.3333 5 11.0145C5.42609 9.23602 6.66666 6.95652 8.33333 5.7971C10 4.63768 12.7778 4.05797 14.4444 4.05797C16.1111 4.05797 17.7384 4.63768 19.147 5.7971C20.5556 6.95652 22.2222 8.11594 22.7778 10.4348C23.3333 12.7536 23.3333 13.913 22.7778 16.2319C22.2222 18.5507 19.4444 21.4493 18.8889 21.4493M18.8889 21.4493C19.8148 21.6425 21.8889 22.2609 22.7778 23.1884C23.8889 24.3478 25 24.9275 25.5556 27.2464C26.1111 29.5652 26.1111 32.4638 28.3333 35.3623C30.1111 37.6812 32.4074 40.5797 33.3333 41.7391C34.2593 42.5121 35.5556 44.5217 33.3333 46.3768C30.5556 48.6956 31.1111 49.8551 28.3333 48.1159C27.3257 47.4851 26.0987 46.4728 24.8911 45.2174M20 37.1014C20.708 40.0568 22.7697 43.0121 24.8911 45.2174M5.53992 45.9764V52.7536L6.66666 55.6522V71.8841C6.11111 74.7826 12.7778 76.5217 12.7778 71.8841C12.7778 65.3913 12.7778 58.3575 12.7778 55.6522H17.2222V71.8841C17.2222 76.5217 24.8911 75.942 25 71.8841C25.1742 65.3938 24.9274 51.401 24.8911 45.2174" stroke="black" stroke-width="1.5"/>
<path d="M19.4444 12.7536C19 10.8986 19.6296 8.11595 20 6.95653L20.5555 6.37682L22.2222 8.11595L22.7778 11.0145L23.3333 13.913L22.2222 18.5507L21.1111 17.3913C20.7407 16.6184 19.8889 14.6087 19.4444 12.7536Z" fill="black"/>
<path d="M68.8889 4.05798C71.6667 1.73913 74.0741 0.966186 76.6667 0.579712C79.2593 0.193255 85.5556 2.31884 87.2222 4.05797C88.8889 5.7971 90.5556 9.85508 90.5556 15.6522C90.5556 21.4493 92.7778 22.6087 93.3334 23.7681C93.7778 24.6957 94.6296 30.3382 95 33.0435V45.2174C95 48.1159 94.4445 51.0145 92.2222 52.7536C90.4445 54.1449 89.6296 56.0386 89.4445 56.8116V63.1884C89.6296 64.5411 89.6667 67.8261 88.3334 70.1449C87 72.4638 84.0741 72.657 82.7778 72.4638C79.2593 72.657 71.5556 72.9275 68.8889 72.4638C66.2222 72 65.1852 68.7923 65 67.2464V57.971V46.3768C63.8889 46.9565 61.3334 48.2319 60 48.6957C58.3333 49.2754 56.1111 48.1159 55.5556 48.1159C55 48.1159 53.8889 46.3768 52.7778 43.4783C51.8889 41.1594 53.5185 38.2609 54.4445 37.1015C55.5556 35.7488 58.1111 32.6957 59.4445 31.3044C61.1111 29.5652 61.1111 27.2464 61.6667 26.087C62.2222 24.9275 63.8889 22.6087 65 19.7101C66.1111 16.8116 65 14.4927 65.5556 11.0145C66.1111 7.53623 66.3594 6.16961 68.8889 4.05798Z" fill="#00E2AC"/>
<path d="M62.7778 34.2029C65.5556 31.3043 65 28.9855 66.1111 25.5072C67 22.7246 70.9259 21.256 72.7778 20.8695L71.1111 19.1304C69.4444 16.2319 69.4444 15.6522 69.4444 13.913C69.4444 12.1739 70 9.27535 71.1111 8.11593C72.2222 6.95651 73.3333 5.21738 76.1111 4.63767C78.8889 4.05796 80.6509 4.39753 82.2222 5.21737C84.4444 6.3768 85.5556 7.53622 86.1111 8.69564C86.8968 10.3353 87.2222 12.7536 87.2222 15.0725C87.2222 17.3913 86.3023 19.1304 85.5556 19.7101L86.1111 20.2898C87.2222 21.4493 88.8889 22.6087 90 24.3478C90.8889 25.7391 91.4815 29.9517 91.6667 31.884V45.7971C91.6667 48.5797 89.8148 49.2753 88.8889 49.2753H86.1111V66.6666C86.1111 68.4058 86.1111 69.5652 82.2222 69.5652C79.1111 69.5652 78.7037 67.6328 78.8889 66.6666V52.1739H75V66.6666C75.1852 67.6328 74.7778 69.5652 71.6667 69.5652C68.5556 69.5652 68.1481 67.6328 68.3333 66.6666V45.7971V39.4203C66.2963 40.9662 61.8889 44.2898 60.5556 45.2174C58.8889 46.3768 57.7778 46.3768 56.1111 44.058C54.7778 42.2029 56.2963 40.1932 57.2222 39.4203C58.1482 38.6473 60.5556 36.5217 62.7778 34.2029Z" fill="white"/>
<path d="M68.3333 39.4203C66.2963 40.9662 61.8889 44.2898 60.5556 45.2174C58.8889 46.3768 57.7778 46.3768 56.1111 44.058C54.7778 42.2029 56.2963 40.1932 57.2222 39.4203C58.1482 38.6473 60.5556 36.5217 62.7778 34.2029C65.5556 31.3043 65 28.9855 66.1111 25.5072C67 22.7246 70.9259 21.256 72.7778 20.8695L71.1111 19.1304C69.4444 16.2319 69.4444 15.6522 69.4444 13.913C69.4444 12.1739 70 9.27535 71.1111 8.11593C72.2222 6.95651 73.3333 5.21738 76.1111 4.63767C78.8889 4.05796 80.6509 4.39753 82.2222 5.21737C84.4444 6.3768 85.5556 7.53622 86.1111 8.69564C86.8968 10.3353 87.2222 12.7536 87.2222 15.0725C87.2222 17.3913 86.3023 19.1304 85.5556 19.7101M68.3333 39.4203V45.7971V66.6667C68.1481 67.6328 68.5556 69.5652 71.6667 69.5652C74.7778 69.5652 75.1852 67.6328 75 66.6667V52.1739H78.8889V66.6667C78.7037 67.6328 79.1111 69.5652 82.2222 69.5652C86.1111 69.5652 86.1111 68.4058 86.1111 66.6667C86.1111 65.2753 86.1111 54.4927 86.1111 49.2753M68.3333 39.4203V34.2029M86.1111 49.2753H88.8889C89.8148 49.2753 91.6667 48.5797 91.6667 45.7971C91.6667 43.0145 91.6667 35.3623 91.6667 31.884C91.4815 29.9517 90.8889 25.7391 90 24.3478C88.8889 22.6087 87.2222 21.4493 86.1111 20.2898C85.2222 19.3623 85.3704 19.5169 85.5556 19.7101M86.1111 49.2753V34.2029M85.5556 19.7101C84.6296 20.4831 82.4444 22.029 81.1111 22.029" stroke="black" stroke-width="1.5"/>
<path d="M70.1141 17.3025C70.1141 17.3025 85.0648 19.2027 81.7398 5.42142L76.8137 4.63768L71.6667 7.53623C71.6667 7.53623 70.1636 11.4956 70.0405 11.8875C69.9174 12.2794 70.1141 17.3025 70.1141 17.3025Z" fill="#101010"/>
<path d="M76.5547 38.2394C78.2243 38.2394 79.5778 36.8089 79.5778 35.0441C79.5778 33.2794 78.2243 31.8489 76.5547 31.8489C74.8852 31.8489 73.5317 33.2794 73.5317 35.0441C73.5317 36.8089 74.8852 38.2394 76.5547 38.2394Z" fill="#101010"/>
</svg>
