<svg width="268" height="228" viewBox="0 0 268 228" fill="none" xmlns="http://www.w3.org/2000/svg">
<path d="M56.2202 37.956L49.2408 34.3896C35.3862 27.991 17.1565 37.956 8.61461 56.7322C0.0726892 75.5084 4.34365 95.858 18.3024 102.257L25.9068 106.452" stroke="#6F3FF5" stroke-miterlimit="10" stroke-linecap="round"/>
<path d="M65.8935 83.3054C74.4747 64.5907 70.1586 44.2506 56.2532 37.8746C42.3478 31.4986 24.1189 41.5012 15.5376 60.216C6.95644 78.9307 11.2725 99.2708 25.1779 105.647C39.0833 112.023 57.3123 102.02 65.8935 83.3054Z" stroke="#6F3FF5" stroke-miterlimit="10"/>
<path d="M60.5924 80.8751C67.3519 66.1333 63.9322 50.1021 52.9542 45.0685C41.9763 40.0348 27.5973 47.9048 20.8378 62.6466C14.0783 77.3884 17.498 93.4196 28.4759 98.4533C39.4539 103.487 53.8329 95.6169 60.5924 80.8751Z" stroke="#6F3FF5" stroke-miterlimit="10"/>
<path d="M31.3649 81.5006L33.5645 66.6065C33.6714 65.7545 34.2637 65.0907 34.9374 64.7934L48.6101 59.4837C50.0544 58.9268 51.4792 60.1491 51.303 61.756L49.1411 76.5531C49.0342 77.4051 48.4418 78.0689 47.7682 78.3662L34.0955 83.6758C32.554 84.1951 31.0917 83.0699 31.3649 81.5006Z" stroke="#6F3FF5" stroke-miterlimit="10"/>
<path d="M218.816 8.20282L211.232 10.1802C196.63 14.6141 189.641 34.1788 195.747 53.8824C201.852 73.5859 218.574 85.9445 233.254 81.4413L241.724 79.5184" stroke="#6F3FF5" stroke-miterlimit="10" stroke-linecap="round"/>
<path d="M256.197 35.6406C250.161 15.9568 233.412 3.63542 218.787 8.11996C204.161 12.6045 197.198 32.1968 203.234 51.8806C209.269 71.5644 226.018 83.8858 240.644 79.4012C255.269 74.9167 262.232 55.3244 256.197 35.6406Z" stroke="#6F3FF5" stroke-miterlimit="10"/>
<path d="M250.622 37.3506C245.867 21.8455 232.653 12.1462 221.107 15.6866C209.56 19.2271 204.054 34.6665 208.809 50.1716C213.563 65.6767 226.777 75.376 238.324 71.8356C249.87 68.2951 255.376 52.8557 250.622 37.3506Z" stroke="#6F3FF5" stroke-miterlimit="10"/>
<path d="M229.209 57.2531L220.947 44.6664C220.461 43.959 220.462 43.0693 220.767 42.3994L227.448 29.3418C228.157 27.9654 230.033 27.931 230.97 29.2483L239.195 41.7374C239.682 42.4448 239.681 43.3345 239.376 44.0044L232.694 57.062C231.889 58.4748 230.048 58.6068 229.209 57.2531Z" stroke="#6F3FF5" stroke-miterlimit="10"/>
<path d="M145.24 170.522L140.235 171.685C130.593 174.336 125.801 187.09 129.615 200.175C133.43 213.26 144.295 221.704 153.99 219.008L159.576 217.898" stroke="#6F3FF5" stroke-miterlimit="10" stroke-linecap="round"/>
<path d="M169.886 189.116C166.167 175.979 155.24 167.57 145.479 170.334C135.718 173.097 130.821 185.987 134.54 199.123C138.259 212.26 149.187 220.669 158.948 217.905C168.708 215.142 173.606 202.252 169.886 189.116Z" stroke="#6F3FF5" stroke-miterlimit="10"/>
<path d="M166.166 190.169C163.236 179.821 154.614 173.202 146.908 175.383C139.203 177.565 135.331 187.722 138.261 198.07C141.19 208.418 149.812 215.038 157.518 212.856C165.224 210.674 169.096 200.517 166.166 190.169Z" stroke="#6F3FF5" stroke-miterlimit="10"/>
<path d="M151.684 203.057L146.387 194.594C146.075 194.118 146.088 193.528 146.3 193.089L150.917 184.528C151.406 183.625 152.651 183.629 153.253 184.516L158.527 192.914C158.84 193.39 158.826 193.98 158.614 194.42L153.998 202.981C153.443 203.906 152.221 203.967 151.684 203.057Z" stroke="#6F3FF5" stroke-miterlimit="10"/>
</svg>
