<svg width="401" height="351" viewBox="0 0 401 351" fill="none" xmlns="http://www.w3.org/2000/svg">
<g clip-path="url(#clip0_1803_56735)">
<path d="M317.534 223.324C312.969 220.066 303.255 221.117 298.01 227.107C295.776 229.629 294.319 233.307 291.405 240.559C291.114 241.189 290.336 243.396 288.879 246.128C288.005 247.81 288.685 245.813 288.102 246.759C289.365 242.135 289.656 238.877 291.405 230.89C292.085 227.633 292.571 225.321 293.445 220.592C298.204 195.79 299.759 186.542 296.359 182.234C293.93 179.186 291.016 178.451 291.016 178.451C291.016 178.451 289.268 177.61 287.422 178.03C280.817 179.291 278 187.909 272.949 218.805C272.269 222.904 271.589 227.948 271.201 229.839C270.812 227.738 272.172 222.588 272.075 218.49C272.075 217.019 272.269 215.757 272.366 214.496C272.464 212.079 272.852 207.771 272.852 207.245C273.629 185.386 273.435 180.973 270.327 177.295C269.355 176.139 267.607 174.877 264.401 174.352C263.236 174.352 261.681 174.457 259.933 175.508C254.882 178.451 254.008 186.332 253.231 196.841C252.648 205.248 251.968 215.968 251.774 228.473C251.677 228.473 251.677 228.473 251.579 228.473C251.482 228.473 251.482 228.473 251.385 228.473C251.482 228.053 251.579 227.527 251.385 227.317C250.997 226.897 250.802 220.802 250.997 215.863C251.094 212.5 251.094 209.242 250.122 203.147C249.054 196.001 248.374 190.956 246.625 188.014C246.043 186.963 242.934 182.759 236.912 183.39C231.569 184.02 230.112 190.956 229.821 192.322C229.238 197.262 230.501 209.662 231.084 218.385C231.667 228.683 232.832 234.779 232.638 234.779C232.541 234.779 231.764 229.734 231.181 224.585C229.53 208.716 229.627 200.204 226.324 197.262C225.061 196.106 223.896 195.475 223.022 195.055C223.022 195.055 221.662 194.529 219.719 194.845C215.056 195.685 210.977 201.045 211.268 208.296C211.657 219.436 214.376 248.545 217.096 265.885C217.291 267.251 217.485 268.618 217.679 270.089C218.748 277.55 220.01 285.537 223.216 292.368C225.45 296.992 228.558 300.985 233.124 304.033H232.541C234.095 321.478 233.998 329.675 233.609 333.878C233.221 337.451 234.095 341.024 234.192 344.598C234.192 345.859 234.289 348.066 235.746 349.852C236.621 350.798 237.495 351.323 238.175 351.533C253.716 351.323 269.258 351.113 284.8 350.903C285.285 349.852 285.674 349.537 286.16 348.486L279.749 306.24C280.04 306.135 280.332 306.03 280.623 305.819C290.045 301.301 296.845 292.998 299.759 280.072C302.478 267.777 305.004 259.16 307.335 253.169C311.026 243.711 314.135 241.925 314.135 241.925C315.592 240.138 318.311 236.88 319.963 232.046C320.351 230.785 320.837 229.104 320.351 227.317C320.06 225.11 318.214 223.849 317.534 223.324Z" fill="white"/>
<path d="M235.261 305.714C238.272 306.555 241.477 307.291 244.683 308.026C246.82 308.447 248.957 308.972 251.094 309.392C251.094 309.392 259.545 309.813 279.652 305.819C282.468 320.217 283.537 334.194 286.354 348.591C280.72 348.906 274.503 350.062 268.772 350.272C250.025 344.177 245.946 340.184 246.14 337.451C246.528 331.777 266.538 329.57 266.247 325.156C266.15 323.685 263.818 323.58 257.31 319.796C253.231 317.484 252.842 316.749 246.723 312.755C244.197 311.074 240.215 308.657 235.261 305.714Z" fill="#78FFD9"/>
<path d="M320.546 232.887C319.963 235.725 318.506 237.511 317.243 238.982C315.98 240.454 314.815 241.294 313.94 241.925C313.94 241.925 310.929 243.816 307.335 253.169C305.004 259.265 302.575 267.777 299.856 280.178C297.039 292.998 290.336 301.406 281.109 305.925C280.817 306.03 280.526 306.135 280.234 306.345C271.589 309.393 264.207 310.338 259.059 310.549C254.105 310.759 248.665 310.654 241.769 308.447C238.563 307.291 235.941 306.03 234.095 304.979C233.026 304.348 231.375 303.087 229.627 301.511C224.381 296.466 222.342 290.266 221.37 287.113C220.787 285.432 220.205 283.015 219.816 279.967C221.856 281.859 246.334 303.402 270.618 295.626C278.389 293.209 285.577 278.496 305.392 246.654C308.112 242.135 313.358 233.518 310.735 226.477C309.958 224.585 308.792 223.114 307.918 222.378C307.918 222.273 307.529 222.063 307.335 221.958C308.015 221.748 312.969 220.066 317.049 223.219C317.631 223.639 319.186 224.9 320.157 227.422C321.128 229.84 320.643 232.152 320.546 232.887Z" fill="#78FFD9"/>
<path d="M290.822 187.909C291.405 188.959 292.765 191.692 292.571 197.892C291.988 213.866 281.497 249.176 284.314 250.752C284.314 250.752 286.84 249.176 287.52 247.915C288.685 245.918 288.394 245.498 288.588 244.657C289.074 242.24 288.879 241.399 291.891 228.053C292.765 224.27 294.805 214.706 295.873 207.665C295.873 207.665 296.747 202.831 297.427 198.838C298.787 191.797 298.787 188.119 297.524 184.756C297.33 184.125 295.387 178.976 291.405 178.556C289.171 178.345 286.548 179.501 286.16 181.288C285.868 183.285 288.782 184.336 290.822 187.909Z" fill="#78FFD9"/>
<path d="M269.452 191.377C270.229 203.567 269.841 215.862 268.287 227.948C268.19 228.578 268.189 229.314 268.481 229.734C269.064 230.47 270.326 232.572 270.909 231.836C271.492 231.101 271.395 227.843 271.492 226.792C272.463 212.289 274.018 198.418 273.435 183.81C273.338 182.129 271.881 179.712 271.298 178.135C270.132 175.193 262.167 171.725 263.624 176.454C264.207 178.556 266.83 180.237 267.801 182.339C269.064 185.281 269.258 188.434 269.452 191.377Z" fill="#78FFD9"/>
<path d="M244.197 195.055C247.694 204.092 248.665 214.076 247.305 223.744C247.208 224.9 246.917 226.056 247.208 227.212C247.5 228.368 248.374 228.683 249.442 228.683C252.842 228.683 251.676 226.371 251.482 224.375C250.122 211.869 251.288 196.316 246.82 188.014C246.237 186.963 243.517 184.23 241.283 183.495C239.049 182.759 236.523 183.495 236.329 184.441C236.232 185.071 236.912 185.492 239.826 188.224C241.769 190.01 243.129 192.322 244.197 195.055Z" fill="#78FFD9"/>
<path d="M230.889 238.877C231.764 238.877 233.124 236.67 233.318 235.409C233.415 234.463 231.181 226.266 231.472 224.48C231.764 222.588 231.084 219.33 229.724 208.401C229.141 204.092 228.753 202.096 228.753 201.36C228.753 199.048 226.227 197.577 225.547 196.421C224.187 194.319 221.079 194.529 220.593 194.529C219.039 194.634 216.611 195.37 216.513 196.631C216.416 197.892 218.65 198.733 220.302 200.099C225.256 204.303 222.827 212.289 226.227 227.738C227.101 231.416 228.947 238.877 230.889 238.877Z" fill="#78FFD9"/>
<path d="M233.415 236.46C233.027 234.148 232.055 230.155 231.667 226.687C230.792 219.856 229.821 211.869 229.627 207.455C229.53 202.831 228.364 199.469 226.616 197.262C224.77 195.055 222.342 194.319 220.01 194.634C215.348 195.475 211.365 200.94 211.56 208.191C211.948 219.436 214.571 248.651 217.388 266.095C217.582 267.462 217.776 268.828 217.97 270.299C219.039 277.76 220.205 285.852 223.507 292.683C227.49 301.09 234.289 307.501 247.208 309.603C259.739 311.599 271.492 310.864 280.72 306.345C290.142 301.826 296.942 293.419 299.759 280.493C302.478 268.092 305.004 259.475 307.335 253.485C309.666 247.389 311.901 244.027 314.135 242.135C318.214 238.457 320.351 234.779 320.74 231.416C321.128 227.948 319.671 225.11 317.243 223.324C312.483 219.961 304.227 220.592 297.913 227.107C295.193 229.839 293.833 233.307 292.668 236.67C292.473 237.301 292.279 237.826 292.085 238.457C291.114 241.189 290.336 243.816 288.879 246.128C288.102 247.389 286.84 248.545 285.188 250.017C284.314 250.647 283.44 251.488 282.468 252.224C282.371 252.329 282.274 252.329 282.177 252.434C281.303 253.064 280.332 253.905 279.457 254.641C275.378 257.898 271.006 261.997 268.772 268.197" stroke="#5216FB" stroke-width="2" stroke-miterlimit="10"/>
<path d="M283.148 242.765C269.938 223.219 241.186 223.219 227.684 242.765" stroke="#5216FB" stroke-width="2" stroke-miterlimit="10"/>
<path d="M288.102 247.389C288.879 242.871 289.657 239.192 291.308 230.995C291.988 227.633 292.668 224.165 293.348 220.592C295.582 208.822 297.816 197.157 298.302 191.902C298.884 184.546 295.582 179.186 290.822 178.135C286.063 176.979 281.011 180.552 278.972 188.434C276.446 198.102 272.366 223.429 270.812 231.836" stroke="#5216FB" stroke-width="2" stroke-miterlimit="10"/>
<path d="M271.395 232.151C271.492 227.002 271.978 221.432 272.463 214.391C272.561 212.605 272.755 210.713 272.852 208.927C273.435 200.204 273.921 191.692 273.726 186.332C273.338 178.976 269.258 174.247 264.401 173.932C259.544 173.616 255.076 177.925 254.202 186.122C253.134 196.106 252.259 219.751 251.968 228.368" stroke="#5216FB" stroke-width="2" stroke-miterlimit="10"/>
<path d="M251.482 228.789C251.482 228.053 251.482 227.002 251.385 225.741C251.288 223.114 251.288 219.646 250.997 215.757C250.608 208.086 250.025 198.943 248.957 193.689C247.403 186.542 242.643 182.654 237.883 183.18C233.026 183.81 229.335 188.854 229.724 197.051C230.21 207.035 232.249 227.948 233.318 236.46" stroke="#5216FB" stroke-width="2" stroke-miterlimit="10"/>
<path d="M286.451 348.486L279.846 306.765" stroke="#5216FB" stroke-width="2" stroke-miterlimit="10"/>
<path d="M232.832 304.033L235.066 348.801" stroke="#5216FB" stroke-width="2" stroke-miterlimit="10"/>
<path d="M234.095 331.672C241.672 335.455 250.997 336.296 259.836 335.245C268.772 334.194 277.223 331.356 283.051 327.573" stroke="#5216FB" stroke-width="2" stroke-miterlimit="10"/>
<path d="M84.409 222.265C88.9744 219.007 98.688 220.058 103.933 226.048C106.167 228.57 107.624 232.248 110.539 239.5C110.83 240.13 111.607 242.337 113.064 245.069C113.938 246.751 113.258 244.754 113.841 245.7C112.578 241.076 112.287 237.818 110.539 229.831C109.859 226.574 109.373 224.262 108.499 219.533C103.836 194.836 102.282 185.483 105.682 181.175C108.11 178.127 111.024 177.392 111.024 177.392C111.024 177.392 112.773 176.551 114.618 176.971C121.223 178.232 124.04 186.85 129.091 217.746C129.771 221.845 130.451 226.889 130.84 228.78C131.228 226.679 129.868 221.529 129.966 217.431C129.966 215.96 129.771 214.698 129.674 213.437C129.577 211.02 129.189 206.712 129.189 206.186C128.314 184.328 128.606 179.809 131.714 176.131C132.685 174.975 134.434 173.713 137.639 173.188C138.805 173.188 140.359 173.293 142.01 174.344C147.061 177.286 147.936 185.168 148.713 195.677C149.296 204.084 149.976 214.804 150.17 227.309C150.267 227.309 150.267 227.309 150.364 227.309C150.461 227.309 150.461 227.309 150.558 227.309C150.461 226.889 150.364 226.363 150.558 226.153C150.947 225.733 151.141 219.638 150.947 214.698C150.85 211.336 150.85 208.078 151.821 201.983C152.89 194.836 153.57 189.792 155.318 186.85C155.901 185.799 159.009 181.595 165.032 182.226C170.374 182.856 171.831 189.792 172.122 191.158C172.705 196.098 171.442 208.498 170.86 217.221C170.277 227.519 169.111 233.615 169.305 233.615C169.403 233.615 170.18 228.57 170.763 223.421C172.414 207.552 172.317 199.04 175.619 196.098C176.882 194.942 178.048 194.311 178.922 193.891C178.922 193.891 180.282 193.365 182.225 193.681C186.887 194.521 190.967 199.881 190.675 207.132C190.287 218.272 187.567 247.381 184.847 264.721C184.653 266.087 184.459 267.454 184.264 268.925C183.196 276.386 181.933 284.373 178.728 291.204C176.494 295.828 173.385 299.821 168.82 302.869H169.403C167.848 320.314 167.946 328.511 168.334 332.714C168.723 336.287 167.848 339.86 167.751 343.433C167.751 344.695 167.654 346.901 166.197 348.688C165.323 349.634 164.449 350.159 163.769 350.369C148.227 350.159 132.685 349.949 117.144 349.739C116.658 348.688 116.27 348.373 115.784 347.322L122.195 305.076C121.903 304.971 121.612 304.866 121.321 304.655C111.898 300.136 105.099 291.834 102.185 278.908C99.4651 266.613 96.9395 257.995 94.6083 252.005C90.82 242.863 87.8088 240.971 87.8088 240.971C86.3518 239.184 83.632 235.927 81.9807 231.092C81.5921 229.831 81.1064 228.15 81.5921 226.363C81.8835 224.051 83.7291 222.79 84.409 222.265Z" fill="white"/>
<path d="M166.683 304.76C163.672 305.601 160.466 306.337 157.261 307.072C155.124 307.493 152.987 308.018 150.85 308.439C150.85 308.439 142.399 308.859 122.292 304.866C119.475 319.263 118.407 333.24 115.59 347.637C121.223 347.952 127.44 349.108 133.171 349.319C151.918 343.223 155.998 339.23 155.804 336.498C155.415 330.823 135.405 328.616 135.697 324.202C135.794 322.731 138.125 322.626 144.633 318.843C148.713 316.531 149.101 315.795 155.221 311.802C157.746 310.12 161.729 307.598 166.683 304.76Z" fill="#78FFD9"/>
<path d="M81.3979 231.828C81.9807 234.665 83.4377 236.452 84.7005 237.923C85.9633 239.395 87.1289 240.235 88.0031 240.866C88.0031 240.866 91.0143 242.757 94.6083 252.11C96.9396 258.206 99.368 266.718 102.088 279.118C104.905 291.939 111.607 300.347 120.835 304.866C121.126 304.971 121.418 305.076 121.709 305.286C130.354 308.333 137.736 309.279 142.885 309.489C147.839 309.7 153.278 309.595 160.175 307.388C163.38 306.232 166.003 304.971 167.848 303.92C168.917 303.289 170.568 302.028 172.317 300.452C177.562 295.407 179.602 289.207 180.573 286.054C181.156 284.373 181.739 281.956 182.127 278.908C180.088 280.8 155.609 302.343 131.326 294.567C123.555 292.15 116.367 277.437 96.551 245.595C93.8312 241.076 88.5859 232.459 91.2086 225.418C91.9857 223.526 93.1513 222.055 94.0255 221.319C94.0255 221.214 94.414 221.004 94.6083 220.899C93.9284 220.689 88.9745 219.007 84.8948 222.16C84.312 222.58 82.7578 223.841 81.7864 226.363C80.9122 228.886 81.3008 231.092 81.3979 231.828Z" fill="#78FFD9"/>
<path d="M111.121 186.85C110.539 187.901 109.179 190.633 109.373 196.833C109.956 212.807 120.446 248.117 117.629 249.693C117.629 249.693 115.104 248.117 114.424 246.856C113.258 244.859 113.55 244.439 113.355 243.598C112.87 241.181 113.064 240.34 110.053 226.994C109.179 223.211 107.139 213.648 106.07 206.607C106.07 206.607 105.196 201.772 104.516 197.779C103.156 190.738 103.156 187.06 104.419 183.697C104.613 183.066 106.556 177.917 110.539 177.497C112.773 177.286 115.395 178.442 115.784 180.229C116.075 182.226 113.161 183.277 111.121 186.85Z" fill="#78FFD9"/>
<path d="M132.491 190.318C131.714 202.508 132.103 214.804 133.657 226.889C133.754 227.519 133.754 228.255 133.463 228.675C132.88 229.411 131.617 231.513 131.034 230.777C130.451 230.042 130.549 226.784 130.451 225.733C129.48 211.23 127.926 197.359 128.509 182.751C128.606 181.07 130.063 178.653 130.646 177.076C131.811 174.134 139.776 170.666 138.319 175.395C137.737 177.497 135.114 179.178 134.143 181.28C132.88 184.222 132.685 187.375 132.491 190.318Z" fill="#78FFD9"/>
<path d="M157.746 193.996C154.25 203.033 153.278 213.017 154.638 222.685C154.735 223.841 155.027 224.997 154.735 226.153C154.444 227.309 153.57 227.625 152.501 227.625C149.101 227.625 150.267 225.313 150.461 223.316C151.821 210.81 150.656 195.257 155.124 186.955C155.707 185.904 158.426 183.172 160.661 182.436C162.895 181.7 165.42 182.436 165.614 183.382C165.712 184.012 165.032 184.433 162.118 187.165C160.272 189.057 158.815 191.263 157.746 193.996Z" fill="#78FFD9"/>
<path d="M171.151 237.818C170.277 237.818 168.917 235.611 168.723 234.35C168.626 233.404 170.86 225.207 170.568 223.421C170.277 221.529 170.957 218.272 172.317 207.342C172.9 203.033 173.288 201.037 173.288 200.301C173.288 197.989 175.814 196.518 176.494 195.362C177.853 193.26 180.962 193.47 181.447 193.47C183.002 193.575 185.43 194.311 185.527 195.572C185.624 196.833 183.39 197.674 181.739 199.04C176.785 203.244 179.213 211.23 175.814 226.679C174.939 230.357 172.997 237.818 171.151 237.818Z" fill="#78FFD9"/>
<path d="M168.626 235.401C169.014 233.089 169.986 229.096 170.374 225.628C171.248 218.797 172.22 210.81 172.414 206.396C172.511 201.772 173.677 198.41 175.425 196.203C177.271 193.996 179.699 193.26 182.03 193.575C186.693 194.416 190.675 199.881 190.481 207.132C190.093 218.377 187.47 247.592 184.653 265.037C184.459 266.403 184.264 267.769 184.07 269.24C183.002 276.702 181.836 284.793 178.533 291.624C174.551 300.031 167.751 306.442 154.832 308.544C142.302 310.54 130.549 309.805 121.321 305.286C111.898 300.767 105.099 292.36 102.282 279.434C99.5623 267.033 97.0368 258.416 94.7055 252.426C92.3743 246.331 90.1401 242.968 87.906 241.076C83.8263 237.398 81.6894 233.72 81.3008 230.357C80.9123 226.889 82.3693 224.052 84.7977 222.37C89.5573 219.007 97.8139 219.638 104.128 226.153C106.847 228.886 108.207 232.354 109.373 235.716C109.567 236.347 109.762 236.872 109.956 237.503C110.927 240.235 111.704 242.863 113.161 245.175C113.938 246.436 115.201 247.592 116.852 249.063C117.727 249.693 118.601 250.534 119.572 251.27C119.669 251.375 119.766 251.375 119.864 251.48C120.738 252.11 121.709 252.951 122.583 253.687C126.663 256.945 131.034 261.043 133.171 267.243" stroke="#5216FB" stroke-width="2" stroke-miterlimit="10"/>
<path d="M118.892 241.812C132.103 222.265 160.855 222.265 174.357 241.812" stroke="#5216FB" stroke-width="2" stroke-miterlimit="10"/>
<path d="M113.841 246.225C113.064 241.707 112.287 238.028 110.636 229.831C109.956 226.469 109.276 223.001 108.596 219.428C106.265 207.657 104.03 195.993 103.545 190.843C102.962 183.487 106.265 178.127 111.024 177.076C115.881 175.92 120.835 179.493 122.875 187.375C125.4 197.043 129.48 222.37 131.034 230.777" stroke="#5216FB" stroke-width="2" stroke-miterlimit="10"/>
<path d="M130.548 231.092C130.451 225.943 129.966 220.373 129.48 213.332C129.383 211.546 129.189 209.654 129.091 207.868C128.509 199.145 128.023 190.633 128.217 185.273C128.606 177.812 132.783 173.083 137.639 172.873C142.496 172.452 146.867 176.866 147.839 184.958C148.907 194.942 149.781 218.587 150.073 227.204" stroke="#5216FB" stroke-width="2" stroke-miterlimit="10"/>
<path d="M150.461 227.835C150.461 227.099 150.461 226.048 150.558 224.787C150.655 222.16 150.655 218.692 150.947 214.804C151.335 207.132 151.918 197.989 152.987 192.735C154.541 185.589 159.301 181.7 164.06 182.226C168.917 182.856 172.608 187.901 172.22 196.098C171.734 206.081 169.694 226.994 168.626 235.506" stroke="#5216FB" stroke-width="2" stroke-miterlimit="10"/>
<path d="M115.492 347.427L122.098 305.706" stroke="#5216FB" stroke-width="2" stroke-miterlimit="10"/>
<path d="M169.111 302.974L166.877 347.742" stroke="#5216FB" stroke-width="2" stroke-miterlimit="10"/>
<path d="M167.849 330.613C160.272 334.396 150.947 335.236 142.108 334.186C133.171 333.135 124.72 330.297 118.892 326.514" stroke="#5216FB" stroke-width="2" stroke-miterlimit="10"/>
<path d="M113.86 120.953C127.265 120.953 138.144 109.183 138.144 94.6808C138.144 80.1784 127.265 68.4083 113.86 68.4083C100.456 68.4083 89.5764 80.1784 89.5764 94.6808C89.5764 109.183 100.456 120.953 113.86 120.953Z" fill="#2FEDCF" stroke="#5216FB" stroke-width="2"/>
<path d="M113.487 112.723L102.316 94.1216L113.487 75.5208L124.657 94.1216L113.487 112.723Z" fill="#2FEDCF" stroke="#5216FB" stroke-width="2"/>
<path d="M102.413 94.1216L113.584 100.637L124.755 94.1216" fill="#2FEDCF"/>
<path d="M102.413 94.1216L113.584 100.637L124.755 94.1216" stroke="#5216FB" stroke-width="2"/>
<path d="M113.487 75.5208V112.723Z" fill="#5216FB"/>
<path d="M113.487 75.5208V112.723" stroke="#5216FB" stroke-width="2"/>
<path d="M225.266 76.9764C238.671 76.9764 249.55 65.2064 249.55 50.704C249.55 36.2016 238.671 24.4315 225.266 24.4315C211.862 24.4315 200.983 36.2016 200.983 50.704C200.983 65.2064 211.862 76.9764 225.266 76.9764Z" fill="#2FEDCF" stroke="#5216FB" stroke-width="2"/>
<path d="M224.959 68.8508L213.788 50.2499L224.959 31.649L236.129 50.2499L224.959 68.8508Z" fill="#2FEDCF" stroke="#5216FB" stroke-width="2"/>
<path d="M213.885 50.2499L225.056 56.7655L236.227 50.2499" fill="#2FEDCF"/>
<path d="M213.885 50.2499L225.056 56.7655L236.227 50.2499" stroke="#5216FB" stroke-width="2"/>
<path d="M224.959 31.649V68.8508Z" fill="#5216FB"/>
<path d="M224.959 31.649V68.8508" stroke="#5216FB" stroke-width="2"/>
<path d="M180.855 160.044C194.259 160.044 205.138 148.274 205.138 133.771C205.138 119.269 194.259 107.499 180.855 107.499C167.45 107.499 156.571 119.269 156.571 133.771C156.571 148.274 167.45 160.044 180.855 160.044Z" fill="#2FEDCF" stroke="#5216FB" stroke-width="2"/>
<path d="M180.855 152.372L169.684 133.771L180.855 115.17L192.025 133.771L180.855 152.372Z" fill="#2FEDCF" stroke="#5216FB" stroke-width="2"/>
<path d="M169.781 133.771L180.952 140.287L192.122 133.771" fill="#2FEDCF"/>
<path d="M169.781 133.771L180.952 140.287L192.122 133.771" stroke="#5216FB" stroke-width="2"/>
<path d="M180.854 115.17V152.372Z" fill="#2FEDCF"/>
<path d="M180.854 115.17V152.372" stroke="#5216FB" stroke-width="2"/>
<path d="M290.755 129.097C304.16 129.097 315.039 117.327 315.039 102.825C315.039 88.3223 304.16 76.5522 290.755 76.5522C277.35 76.5522 266.471 88.3223 266.471 102.825C266.471 117.327 277.35 129.097 290.755 129.097Z" fill="#2FEDCF" stroke="#5216FB" stroke-width="2"/>
<path d="M290.755 121.426L279.585 102.825L290.755 84.2238L301.926 102.825L290.755 121.426Z" fill="#2FEDCF" stroke="#5216FB" stroke-width="2"/>
<path d="M279.682 102.825L290.852 109.34L302.023 102.825" fill="#2FEDCF"/>
<path d="M279.682 102.825L290.852 109.34L302.023 102.825" stroke="#5216FB" stroke-width="2"/>
<path d="M290.755 84.2238V121.426Z" fill="#2FEDCF"/>
<path d="M290.755 84.2238V121.426" stroke="#5216FB" stroke-width="2"/>
<path d="M78.6781 35.8356C81.1065 35.8356 83.0492 33.6288 83.0492 31.1066C83.0492 28.4794 81.0094 26.3776 78.6781 26.3776C76.2497 26.3776 74.307 28.5844 74.307 31.1066C74.4041 33.6288 76.2497 35.8356 78.6781 35.8356Z" fill="#5216FB"/>
<path d="M160.855 9.35298C163.283 9.35298 165.226 7.1461 165.226 4.62394C165.226 1.99669 163.186 -0.105103 160.855 -0.105103C158.426 -0.105103 156.484 2.10178 156.484 4.62394C156.484 7.1461 158.426 9.35298 160.855 9.35298Z" fill="#2FEDCF"/>
<path d="M44.2665 110.442C46.6949 110.442 48.6376 108.235 48.6376 105.713C48.6376 103.086 46.5977 100.984 44.2665 100.984C41.8381 100.984 39.8954 103.191 39.8954 105.713C39.8954 108.235 41.8381 110.442 44.2665 110.442Z" fill="#2FEDCF"/>
<path d="M341.915 73.0374C344.344 73.0374 346.286 70.8305 346.286 68.3084C346.286 65.6811 344.247 63.5793 341.915 63.5793C339.487 63.5793 337.544 65.7862 337.544 68.3084C337.641 70.9356 339.487 73.0374 341.915 73.0374Z" fill="#2FEDCF"/>
<path d="M319.771 152.79C322.199 152.79 324.142 150.583 324.142 148.061C324.142 145.434 322.102 143.332 319.771 143.332C317.342 143.332 315.4 145.539 315.4 148.061C315.497 150.688 317.342 152.79 319.771 152.79Z" fill="#2FEDCF"/>
<path d="M23.6023 213.437C25.0593 213.437 26.1278 212.281 26.1278 210.705C26.1278 209.129 25.0593 207.973 23.6023 207.973C22.1453 207.973 21.0768 209.024 21.0768 210.6C21.0768 212.176 22.1453 213.437 23.6023 213.437Z" fill="#2FEDCF"/>
<path d="M130.492 36.4113C131.949 36.4113 133.017 35.2553 133.017 33.679C133.017 32.1027 131.949 30.9467 130.492 30.9467C129.035 30.9467 127.966 32.1027 127.966 33.679C127.966 35.2553 129.132 36.4113 130.492 36.4113Z" fill="#2FEDCF"/>
<path d="M349.006 160.577C350.463 160.577 351.532 159.421 351.532 157.845C351.532 156.269 350.463 155.113 349.006 155.113C347.549 155.113 346.481 156.269 346.481 157.845C346.481 159.316 347.549 160.577 349.006 160.577Z" fill="#0008FF"/>
<path d="M270.229 21.123C271.686 21.123 272.755 19.967 272.755 18.3907C272.755 16.8143 271.686 15.6583 270.229 15.6583C268.772 15.6583 267.704 16.8143 267.704 18.3907C267.607 19.967 268.772 21.123 270.229 21.123Z" fill="#0008FF"/>
<path d="M37.1574 63.286C38.6144 63.286 39.6829 62.13 39.6829 60.5536C39.6829 58.9773 38.6144 57.8213 37.1574 57.8213C35.7004 57.8213 34.6319 58.9773 34.6319 60.5536C34.5347 62.13 35.7004 63.286 37.1574 63.286Z" fill="#0008FF"/>
<path d="M59.7397 154.497C61.1967 154.497 62.2652 153.341 62.2652 151.765C62.2652 150.188 61.1967 149.032 59.7397 149.032C58.2827 149.032 57.2142 150.188 57.2142 151.765C57.117 153.341 58.2827 154.497 59.7397 154.497Z" fill="#0008FF"/>
<path d="M81.398 144.919C82.855 144.919 83.9235 143.763 83.9235 142.187C83.9235 140.61 82.855 139.454 81.398 139.454C79.9409 139.454 78.8724 140.61 78.8724 142.187C78.8724 143.658 79.9409 144.919 81.398 144.919Z" fill="#2FEDCF"/>
<path opacity="0.714286" d="M327.054 15.4482L320.934 8.82756L322.488 7.14612L328.608 13.7668L327.054 15.4482Z" fill="#5216FB"/>
<path opacity="0.714286" d="M322.488 15.4482L328.608 8.82757L327.054 7.25122L320.934 13.8719L322.488 15.4482Z" fill="#5216FB"/>
<g opacity="0.888889">
<path opacity="0.888889" d="M360.371 216.17L354.252 209.549L355.806 207.868L361.925 214.488L360.371 216.17Z" fill="#5216FB"/>
<path opacity="0.888889" d="M355.806 216.17L361.925 209.549L360.371 207.868L354.252 214.488L355.806 216.17Z" fill="#5216FB"/>
</g>
<path opacity="0.777778" d="M73.1137 80.7823L66.9941 74.1617L68.5483 72.4802L74.6678 79.1009L73.1137 80.7823Z" fill="#5216FB"/>
<path opacity="0.777778" d="M68.5483 80.7823L74.6678 74.1617L73.1137 72.4802L66.9941 79.1009L68.5483 80.7823Z" fill="#5216FB"/>
<path opacity="0.666667" d="M64.9821 192.104L58.8625 185.484L60.4167 183.802L66.5363 190.423L64.9821 192.104Z" fill="#5216FB"/>
<path opacity="0.666667" d="M60.4167 192.104L66.5363 185.484L64.9821 183.802L58.8625 190.423L60.4167 192.104Z" fill="#5216FB"/>
</g>
<path d="M398.474 199.288C399.931 199.288 401 198.132 401 196.556C401 194.98 399.931 193.824 398.474 193.824C397.017 193.824 395.949 194.98 395.949 196.556C395.852 198.132 397.017 199.288 398.474 199.288Z" fill="#0008FF"/>
<path d="M393.2 125.179C394.657 125.179 395.725 124.023 395.725 122.447C395.725 120.871 394.657 119.715 393.2 119.715C391.743 119.715 390.674 120.871 390.674 122.447C390.674 124.023 391.84 125.179 393.2 125.179Z" fill="#2FEDCF"/>
<path opacity="0.714286" d="M368.189 100.328L362.07 93.7071L363.624 92.0256L369.744 98.6463L368.189 100.328Z" fill="#5216FB"/>
<path opacity="0.714286" d="M363.624 100.328L369.744 93.707L368.189 92.1306L362.07 98.7513L363.624 100.328Z" fill="#5216FB"/>
<path opacity="0.777778" d="M6.11954 133.717L0 127.097L1.55417 125.415L7.67371 132.036L6.11954 133.717Z" fill="#5216FB"/>
<path opacity="0.777778" d="M1.55417 133.717L7.67371 127.097L6.11954 125.415L0 132.036L1.55417 133.717Z" fill="#5216FB"/>
<defs>
<clipPath id="clip0_1803_56735">
<rect width="340.946" height="351" fill="white" transform="translate(21.0768)"/>
</clipPath>
</defs>
</svg>
