<svg width="155" height="257" viewBox="0 0 155 257" fill="none" xmlns="http://www.w3.org/2000/svg">
<path d="M150.525 156.223C150.654 156.174 150.8 156.11 150.93 156.045L151.286 155.883V148.322H148.825C148.873 144.404 148.825 134.268 147.206 127.08L147.287 127.063C148.469 126.723 149.213 125.525 148.971 124.311L147.157 115.277C147.044 114.645 146.656 114.095 146.105 113.755C145.571 113.398 144.907 113.301 144.276 113.447L143.855 113.544C141.086 96.1546 128.588 79.5757 126.678 77.1147L126.969 76.9366L106.749 68.5176L106.166 50.5457L107.931 50.4807C110.57 50.3837 112.626 48.1657 112.528 45.5267L112.205 36.5566C112.156 35.2776 111.622 34.0957 110.683 33.2377C109.998 32.6007 109.155 32.1857 108.249 32.0337C107.361 32.1187 106.429 32.4786 105.539 32.2986C105.196 32.2286 104.943 31.8526 104.945 31.5176C104.948 30.9656 104.965 30.4127 104.942 29.8607C104.935 29.7027 104.94 29.2067 104.876 28.8497C104.665 28.7687 104.486 28.6097 104.42 28.3427C104.394 28.2377 104.373 28.1357 104.348 28.0297C104.341 28.0047 104.334 27.9807 104.331 27.9537C104.057 26.8017 103.825 25.6687 103.539 24.5607C103 23.2487 102.294 21.9887 101.666 20.7187C101.54 20.4647 101.56 20.2227 101.654 20.0187C100.417 18.0037 99.0589 16.0117 97.4029 14.3237C95.3419 12.2217 92.8489 10.4657 90.0849 9.41669C87.2239 8.32969 84.6139 8.78769 81.7409 8.65369C81.6589 8.68969 81.574 8.72369 81.474 8.73669C80.278 8.88269 79.0939 9.06164 77.9439 9.31964C76.6659 9.69764 75.371 10.1977 74.157 10.6517C73.273 11.1127 72.4339 11.6757 71.6679 12.4067C69.9349 14.0607 68.3079 16.0156 66.8659 17.9266C63.6369 22.2086 62.367 26.8407 62.238 32.1107C62.479 32.5127 62.4079 33.1706 61.8349 33.4056C61.4579 33.5596 61.018 33.4887 60.626 33.4427C60.37 33.4127 60.111 33.3697 59.852 33.3647C59.813 33.3637 59.637 33.3817 59.573 33.3697C59.362 33.6997 59.023 33.7546 58.724 33.6526C57.935 33.9196 57.22 34.3967 56.659 35.0507C55.833 36.0227 55.429 37.2697 55.542 38.5317L56.2699 47.4857C56.4649 49.9787 58.5689 51.8737 61.0299 51.8737C61.1599 51.8737 61.289 51.8737 61.419 51.8567L63.378 51.6957C64.09 60.3897 64.786 69.4887 64.964 73.7957L64.9159 73.6656C64.5589 73.8116 58.116 76.6616 55.234 90.4886L55.105 90.4557C53.308 99.7327 44.2089 111.439 42.2829 113.819C40.5019 112.508 33.881 107.262 30.286 99.3447L30.0279 99.4576C30.4479 98.9076 30.869 98.3247 31.274 97.7097L31.485 97.3857L27.227 90.6667L26.725 91.4756C26.725 91.4756 26.693 91.5247 26.644 91.5897C26.498 89.4517 26.466 87.5737 26.45 86.0197C26.401 83.7047 26.385 82.0367 26.029 80.9197C25.624 79.5917 24.426 78.6847 23.034 78.6367L21.8999 78.6047C20.9939 78.6207 20.184 78.9117 19.553 79.5267C18.922 80.1587 18.582 80.9846 18.582 81.8586C18.598 83.3476 18.5649 84.7727 18.5169 85.8087C17.3189 83.8987 16.169 80.8057 15.198 76.8397C14.955 75.8037 14.2099 74.9617 13.2229 74.5887C12.2349 74.2167 11.118 74.3456 10.276 74.9286L1.40495 80.4496C0.206949 81.2756 -0.295009 82.7977 0.173992 84.1577C2.73199 91.6217 8.52798 99.2957 10.276 101.514L9.87199 101.547L12.98 106.566L14.308 108.363H14.631C14.729 108.363 15.376 108.331 16.396 108.136C17.465 111.731 22.386 125.655 35.37 133.88L35.386 133.847L35.402 134.641C35.419 135.742 36.309 136.665 37.41 136.729L45.391 137.199H45.521C46.055 137.199 46.573 137.005 46.962 136.632C47.399 136.227 47.6419 135.677 47.6419 135.094L47.6579 134.592C47.8519 134.463 51.608 132.05 53.842 129.783V144.938C53.453 144.873 53.0649 144.792 52.6759 144.728L51.964 144.582V157.632L52.4339 157.729C52.4819 157.745 53.178 157.907 54.409 158.15L59.411 235.995C57.97 236.238 53.6319 236.982 48.0299 237.824C44.5489 238.359 41.894 239.864 40.113 242.309C36.778 246.875 37.734 253.044 37.782 253.303L37.863 253.821H77.1549V238.763L75.9889 237.096L78.045 206.333L82.61 183.197L85.3789 182.905C91.0939 192.523 101.002 212.632 104.288 240.981C103.527 241.402 102.847 241.904 102.248 242.487C99.723 244.981 98.654 248.899 98.654 255.602V256.217H128.426L128.459 255.634C128.475 255.327 128.847 247.846 124.347 243.005C122.792 241.338 120.866 240.188 118.567 239.589V157.502C119.02 157.356 119.457 157.211 119.911 157.065L120.332 156.919L120.218 143.837L120.137 143.853C120.105 143.708 120.024 143.578 119.895 143.448C119.344 142.914 118.179 142.833 117.547 142.785V108.379C120.316 111.601 129.56 123.987 131.599 147.723H129.398V155.883L129.754 156.045C129.786 156.061 129.867 156.093 130.013 156.158L127.714 168.334C127.504 169.499 127.924 170.714 128.815 171.491C129.543 172.122 130.515 172.397 131.454 172.284C132.409 172.155 133.267 171.62 133.801 170.827L136.359 167.022C136.958 168.787 138.108 172.317 138.804 175.328C139.128 176.704 140.261 177.708 141.685 177.886C142.301 177.967 143.029 178.016 143.839 178.016C146.17 178.016 149.246 177.579 152.775 175.992C154.086 175.409 154.896 174.065 154.766 172.657C154.507 169.645 153.617 163.509 150.525 156.223Z" fill="#E2E0E7"/>
<path d="M99.3579 44.2147C99.8609 39.3747 99.7879 32.9307 95.4979 31.0287C92.7799 29.8247 89.079 30.3697 86.213 30.4117C82.1 30.4707 77.6909 30.3707 73.6909 31.3757C73.1729 31.5057 72.8289 31.7717 72.5889 32.0887C69.7619 33.3727 68.8579 36.2757 68.4669 39.3007C68.0829 42.2637 67.337 47.7007 69.695 50.0797C69.512 51.0977 70.13 52.1887 71.526 52.3037C72.841 52.4127 74.1429 52.3227 75.4389 52.1417C79.3479 53.1697 83.991 52.5537 87.919 51.4107C87.968 51.4327 88.0079 51.4647 88.0609 51.4827C89.7819 52.0707 91.6269 51.8697 93.3949 51.5897C94.7219 51.3797 96.2239 51.1387 97.4909 50.6757C100.13 49.7107 100.907 46.4567 99.3579 44.2147Z" fill="#20E18F"/>
<path d="M105.976 36.6377C106.003 36.6527 106.026 36.6677 106.062 36.6797C106.06 36.6727 106.06 36.6647 106.058 36.6577C106.03 36.6517 106.003 36.6447 105.976 36.6377Z" fill="#20E18F"/>
<path d="M111.208 44.9916C112.035 39.6936 113.024 30.3186 105.817 32.4186C103.527 33.0866 103.917 36.1166 105.975 36.6376C105.642 36.4636 105.936 36.1956 106.057 36.6576C106.174 36.6836 106.275 36.7336 106.403 36.7416C106.256 36.7326 106.148 36.7087 106.061 36.6797C106.075 36.7357 106.09 36.7866 106.097 36.8656C106.132 37.2796 106.184 37.6486 106.175 38.0736C106.146 39.4256 105.927 40.8046 105.801 42.1496C105.641 43.8516 105.114 45.8756 105.763 47.4586C105.084 48.6726 105.766 50.4796 107.366 50.4066C108.282 50.3646 109.07 50.2666 109.847 49.7176C110.765 49.0696 111.415 48.3386 111.766 47.2556C112.054 46.3706 111.765 45.5606 111.208 44.9916Z" fill="#20E18F"/>
<path d="M63.2891 43.3237C62.8171 41.5797 62.8701 38.7387 61.9731 36.8237C61.9921 36.8027 62.0081 36.7857 62.0271 36.7627C63.0041 35.6007 62.3811 33.8067 60.7791 33.7507C59.6901 33.7127 58.9051 34.1797 58.3221 34.8977C57.3171 35.1067 56.3951 35.7407 55.9481 36.7177C55.3881 37.9417 55.7211 39.3187 56.5981 40.0857C56.0351 43.6737 56.5161 47.2317 58.2601 50.4317C59.0331 51.8487 61.3661 52.2867 62.4661 50.9737C64.4291 48.6317 64.0481 46.1197 63.2891 43.3237Z" fill="#20E18F"/>
<path d="M75.912 101.774C74.179 101.299 72.336 103.001 72.849 104.881C72.731 106.12 73.585 107.325 74.95 107.495C76.247 107.657 77.438 106.692 77.676 105.486C77.694 105.458 77.721 105.44 77.738 105.41C78.651 103.864 77.549 101.98 75.912 101.774Z" fill="#20E18F"/>
<path d="M148.06 121.076C147.492 118.805 147.207 114.418 144.059 114.362C141.011 114.308 140.921 117.868 141.594 120.118C141.123 120.142 140.684 120.311 140.343 120.73C140.107 121.02 140.025 121.378 140.216 121.719C140.784 122.734 142.069 122.733 142.802 123.61C143.691 124.673 143.319 126.071 144.782 126.658C145.99 127.143 147.357 126.652 148.088 125.589C149.038 124.21 148.426 122.538 148.06 121.076Z" fill="#20E18F"/>
<path d="M46.6539 132.651C46.1769 131.944 45.4249 131.547 44.6099 131.361C44.1839 131.264 43.6639 131.2 43.2279 131.174C43.2199 131.173 43.1989 131.17 43.1889 131.169C43.1289 130.254 42.5269 129.381 41.3439 129.381C40.1889 129.381 39.5919 130.218 39.5089 131.111C38.8239 131.135 38.1729 131.453 37.9349 132.153C36.9249 131.812 35.5839 132.418 35.5639 133.737C35.5319 135.873 37.4129 136.237 39.1489 136.304C39.7489 136.328 40.3449 136.284 40.9429 136.292C41.7269 136.303 42.1179 136.522 42.8509 136.691C43.7459 136.897 44.5389 136.802 45.3859 136.462C46.9749 135.825 47.6729 134.16 46.6539 132.651Z" fill="#20E18F"/>
<path d="M38.8099 253.313L76.2388 253.26L76.4499 239.216L75.1829 237.316L57.9728 236.629L43.9299 239.744L39.3898 244.179L37.9648 251.834L38.8099 253.313Z" fill="#C4C1CF"/>
<path d="M99.4658 255.583L127.762 255.477L127.34 249.775L123.011 242.225L115.726 239.586L107.649 240.43L101.156 244.179L98.9907 251.095L99.4658 255.583Z" fill="#C4C1CF"/>
<path d="M47.6577 133.135C47.5277 132.18 46.7667 131.403 45.7797 131.29L43.5618 131.031L42.2338 129.363L41.3438 128.246L41.3278 128.23L39.5947 131.047L37.4578 131.095C36.5678 131.128 35.8067 131.694 35.5157 132.504C35.4347 132.731 35.3857 132.99 35.3857 133.265V133.848L35.4027 134.641C35.4187 135.742 36.3087 136.665 37.4097 136.73L45.3907 137.199H45.5208C46.0548 137.199 46.5727 137.005 46.9617 136.633C47.3987 136.228 47.6417 135.677 47.6417 135.095L47.6577 134.593V134.576L47.6738 133.443C47.6738 133.346 47.6737 133.233 47.6577 133.135ZM46.4268 135.078C46.4268 135.337 46.3297 135.564 46.1357 135.742C45.9577 135.904 45.6987 135.985 45.4557 135.985L37.4907 135.515C37.0047 135.483 36.6328 135.095 36.6168 134.609L36.6008 133.249C36.6008 132.747 36.9887 132.326 37.4907 132.31L40.2758 132.245L41.4567 130.334L42.9138 132.18L45.6337 132.488C46.1197 132.553 46.4597 132.941 46.4597 133.427L46.4268 135.078Z" fill="#24048F"/>
<path d="M148.97 124.311L147.157 115.277C147.044 114.645 146.655 114.095 146.105 113.755C145.57 113.399 144.907 113.301 144.275 113.447L143.854 113.544L142.673 113.836L142.414 113.9C141.232 114.208 140.471 115.341 140.649 116.54L141.021 119.13L138.593 122.368L139.742 122.724H139.758L142.155 123.453L142.867 125.865C143.158 126.902 144.113 127.565 145.133 127.565C145.344 127.565 145.554 127.549 145.765 127.485L146.04 127.404L147.206 127.08L147.287 127.064C148.468 126.724 149.213 125.525 148.97 124.311ZM146.963 125.898L145.441 126.319C144.826 126.481 144.194 126.124 144.032 125.525L143.142 122.482L140.6 121.704L142.284 119.454L141.847 116.378C141.766 115.779 142.138 115.228 142.705 115.082L144.567 114.629C144.874 114.548 145.198 114.613 145.457 114.775C145.732 114.953 145.91 115.212 145.975 115.52L147.788 124.554C147.902 125.137 147.546 125.736 146.963 125.898Z" fill="#24048F"/>
<path d="M124.347 243.006C122.793 241.338 120.867 240.188 118.568 239.589C118.179 239.476 117.774 239.395 117.354 239.33C116.495 239.168 115.589 239.087 114.65 239.071C110.748 239.023 107.737 239.46 105.438 240.431C105.033 240.593 104.645 240.771 104.289 240.982C103.528 241.403 102.848 241.905 102.249 242.488C99.7228 244.981 98.6548 248.899 98.6548 255.602V256.217H128.427L128.459 255.634C128.476 255.327 128.848 247.847 124.347 243.006ZM99.8688 255.003C99.8848 254.129 99.9008 253.303 99.9498 252.542C99.9818 252.121 100.015 251.716 100.063 251.328C100.436 247.523 101.407 245.029 103.107 243.362C103.868 242.601 104.807 242.002 105.94 241.532C106.296 241.386 106.669 241.257 107.073 241.127C109.065 240.512 111.558 240.253 114.634 240.286C116.042 240.318 117.337 240.496 118.519 240.836C118.908 240.949 119.296 241.079 119.669 241.241C121.126 241.824 122.388 242.682 123.457 243.815C125.529 246.049 126.484 248.964 126.905 251.328C126.986 251.749 127.035 252.17 127.083 252.542C127.213 253.594 127.245 254.469 127.261 255.003H99.8688Z" fill="#24048F"/>
<path d="M127.277 251.333H99.7319V252.547H127.277V251.333Z" fill="#24048F"/>
<path d="M116.242 245.42H108.952C107.875 245.42 106.914 244.659 106.558 243.526L105.643 240.597L106.803 240.237L107.717 243.164C107.911 243.787 108.409 244.206 108.952 244.206H116.242C116.727 244.206 117.173 243.878 117.407 243.352L118.725 240.37L119.835 240.86L118.517 243.843C118.085 244.816 117.214 245.42 116.242 245.42Z" fill="#24048F"/>
<path d="M77.154 238.763V253.821H37.863L37.782 253.303C37.733 253.044 36.778 246.875 40.113 242.309C41.894 239.864 44.549 238.359 48.03 237.824C53.631 236.982 57.97 236.238 59.411 235.995C59.735 235.93 59.913 235.898 59.913 235.898L60.123 237.096C60.107 237.096 59.896 237.144 59.492 237.209C57.938 237.484 53.68 238.197 48.208 239.022C47.042 239.201 45.99 239.492 45.035 239.913C44.954 239.945 44.873 239.978 44.792 240.026C43.286 240.706 42.056 241.71 41.101 243.005C39.66 244.981 39.126 247.312 38.931 249.255C38.899 249.676 38.867 250.081 38.867 250.469C38.834 251.392 38.883 252.137 38.915 252.607H75.94V239.136L75.147 238.019L74.661 237.322L75.665 236.626L75.989 237.096L77.154 238.763Z" fill="#24048F"/>
<path d="M86.5117 182.776L85.3777 182.905L82.6097 183.197L78.0447 206.334L75.9887 237.096L75.9238 238.051L75.1467 238.019L63.3447 237.404L63.0367 237.387L59.4918 237.209L59.4587 236.659L59.4108 235.995L54.4077 158.15V158.101L55.6218 158.037L55.6387 158.393L58.7147 206.123L58.7957 207.337L60.6407 236.043L74.7907 236.788L76.8467 206.172L81.5897 182.096L84.6818 181.756L86.0098 181.61L86.3817 181.562L86.4628 182.371L86.5117 182.776Z" fill="#24048F"/>
<path d="M105.583 241.629L104.385 241.759C104.352 241.499 104.32 241.24 104.287 240.981C101.001 212.631 91.0929 192.522 85.3779 182.905C85.1349 182.5 84.9089 182.112 84.6819 181.756C82.6099 178.356 81.2179 176.558 81.1689 176.494L82.1239 175.749C82.1729 175.83 83.7269 177.821 86.0099 181.61C86.1549 181.853 86.317 182.112 86.463 182.371C92.243 192.085 102.102 212.21 105.437 240.431C105.485 240.836 105.534 241.224 105.583 241.629Z" fill="#24048F"/>
<path d="M118.567 157.114H117.353V239.962H118.567V157.114Z" fill="#24048F"/>
<path d="M120.218 143.837L120.137 143.853L119.441 144.08C119.425 144.08 119.279 144.129 119.02 144.193H118.988C118.68 144.29 118.195 144.42 117.547 144.582C117.191 144.663 116.786 144.76 116.333 144.857C108.416 146.654 85.9128 150.459 55.0558 145.149C54.6678 145.084 54.2629 145.019 53.8419 144.938C53.4529 144.873 53.0648 144.792 52.6758 144.728L51.9639 144.582V157.632L52.4329 157.729C52.4819 157.745 53.1779 157.907 54.4089 158.15C54.7649 158.214 55.1859 158.296 55.6389 158.393C58.3749 158.911 62.7138 159.655 68.0558 160.287C68.2338 160.303 68.4279 160.335 68.6069 160.352C74.3379 161.016 81.1688 161.55 88.3738 161.55C90.4458 161.55 92.5508 161.501 94.6548 161.404C95.0758 161.388 95.4809 161.372 95.8859 161.339C103.122 160.951 110.505 159.915 117.353 157.875C117.757 157.761 118.162 157.632 118.567 157.502C119.02 157.356 119.457 157.211 119.911 157.065L120.331 156.919L120.218 143.837ZM53.1779 156.66V146.055C89.2159 152.564 114.358 146.703 119.02 145.456L119.101 156.045C92.9879 164.804 57.6459 157.632 53.1779 156.66Z" fill="#24048F"/>
<path d="M65.3848 74.7837C65.3688 74.7837 65.2388 74.8477 64.9958 74.9937C63.1828 76.0947 55.6228 81.9716 55.0878 103.182C55.0718 103.571 55.0718 103.992 55.0718 104.396C55.0558 104.785 55.0558 105.174 55.0558 105.578V145.926H53.8418V105.578C53.8418 102.437 53.9878 99.5877 54.2468 97.0297C54.4728 94.6167 54.8128 92.4306 55.2338 90.4886C58.1158 76.6616 64.5588 73.8116 64.9148 73.6656L64.9638 73.7957L65.1578 74.2327L65.3848 74.7837Z" fill="#24048F"/>
<path d="M120.202 144.193H118.988C118.891 144.145 118.227 144.015 117.547 143.999C117.466 143.983 117.369 143.983 117.288 143.983C117.272 143.983 117.272 143.983 117.272 143.983V142.769C117.337 142.769 117.434 142.785 117.547 142.785C118.179 142.833 119.344 142.914 119.895 143.449C120.024 143.578 120.105 143.708 120.137 143.853C120.186 143.967 120.202 144.08 120.202 144.193Z" fill="#24048F"/>
<path d="M118.1 209.356L108.101 208.156L107.953 207.877C107.874 207.727 99.9131 192.539 94.6001 161.127L95.7981 160.924C100.687 189.829 107.793 204.842 108.882 207.027L118.245 208.151L118.1 209.356Z" fill="#24048F"/>
<path d="M58.3561 207.354L58.3281 206.14L62.3001 206.045C63.0551 202.973 67.3951 184.25 67.3951 160.285H68.6091C68.6091 186.564 63.4161 206.597 63.3641 206.796L63.2481 207.237L58.3561 207.354Z" fill="#24048F"/>
<path d="M65.3487 103.188H54.8047V104.402H65.3487V103.188Z" fill="#24048F"/>
<path d="M117.543 109.919H116.329C116.329 109.41 116.101 108.942 115.633 108.489C110.802 103.8 85.9408 104.505 85.6888 104.508L85.6509 103.294C86.7009 103.267 111.282 102.574 116.479 107.617C117.186 108.301 117.543 109.076 117.543 109.919Z" fill="#24048F"/>
<path d="M75.5678 96.2527C71.3258 96.2527 67.8618 99.7817 67.8618 104.137C67.8618 108.493 71.3258 112.039 75.5678 112.039C79.8258 112.039 83.2898 108.493 83.2898 104.137C83.2898 99.7817 79.8258 96.2527 75.5678 96.2527ZM75.5678 110.824C71.9898 110.824 69.0758 107.813 69.0758 104.137C69.0758 100.462 71.9898 97.4667 75.5678 97.4667C79.1618 97.4667 82.0758 100.462 82.0758 104.137C82.0758 107.813 79.1618 110.824 75.5678 110.824Z" fill="#24048F"/>
<path d="M65.7247 101.762H64.5098V105.563H65.7247V101.762Z" fill="#24048F"/>
<path d="M86.277 101.762H85.063V105.563H86.277V101.762Z" fill="#24048F"/>
<path d="M75.4231 100.754C73.4321 100.754 71.8291 102.405 71.8291 104.429C71.8291 106.453 73.4321 108.104 75.4231 108.104C77.3981 108.104 79.0171 106.453 79.0171 104.429C79.0171 102.405 77.3981 100.754 75.4231 100.754ZM75.4231 106.89C74.1121 106.89 73.0431 105.789 73.0431 104.429C73.0431 103.069 74.1121 101.968 75.4231 101.968C76.7351 101.968 77.8031 103.069 77.8031 104.429C77.8031 105.789 76.7351 106.89 75.4231 106.89Z" fill="#24048F"/>
<path d="M148.826 148.322C148.826 148.84 148.809 149.261 148.793 149.536V150.346L148.437 150.492C145.345 151.852 142.674 152.337 140.44 152.337C134.919 152.337 132.021 149.374 131.859 149.196L131.713 149.034V148.937L131.697 148.824C131.665 148.452 131.632 148.095 131.6 147.723C129.56 123.987 120.316 111.601 117.548 108.38C117.062 107.813 116.771 107.521 116.754 107.505L117.289 106.955L117.596 106.631C117.677 106.712 123.554 112.508 128.071 125.121C128.217 125.525 128.346 125.93 128.492 126.335C130.515 132.277 132.199 139.628 132.895 148.5C133.802 149.342 138.707 153.276 147.595 149.536C147.66 147.27 147.838 135.467 146.041 127.404C146.009 127.29 145.992 127.177 145.96 127.064L147.142 126.788C147.158 126.885 147.19 126.983 147.207 127.08C148.826 134.268 148.874 144.404 148.826 148.322Z" fill="#24048F"/>
<path d="M143.985 114.354L142.787 114.516C142.755 114.289 142.722 114.062 142.674 113.836C139.938 96.4467 127.229 79.7697 125.659 77.7787C125.561 77.6487 125.497 77.5837 125.497 77.5677L126.436 76.8066C126.452 76.8236 126.533 76.9207 126.679 77.1147C128.589 79.5757 141.087 96.1546 143.855 113.544C143.904 113.819 143.953 114.078 143.985 114.354Z" fill="#24048F"/>
<path d="M106.749 68.5176L106.166 50.5457L105.567 32.0237L105.503 30.0157C105.47 29.7727 102.281 6.26467 82.1248 8.19067C62.0178 10.1177 61.6128 30.9066 61.6128 31.1816C61.6128 31.2306 61.6778 31.9747 61.7908 33.2377C62.0988 36.6867 62.7468 44.0377 63.3778 51.6957C64.0898 60.3897 64.7858 69.4887 64.9648 73.7957C64.9808 74.2487 64.9968 74.6537 64.9968 74.9937C65.0128 75.1717 65.0128 75.3177 65.0128 75.4637C65.0128 76.3377 65.1258 77.1307 65.3528 77.8437C65.4988 78.2967 65.6768 78.7337 65.9198 79.1227C66.1788 79.5757 66.4858 79.9807 66.8588 80.3527C68.9628 82.4257 72.0878 82.4257 72.2008 82.4097H95.6428L95.6918 81.8586C95.6918 81.7616 96.5658 72.5487 105.843 69.4567L112.448 72.2087L114.213 72.9377L124.396 77.1797C121.627 79.1877 113.824 85.7127 113.015 95.7017C112.545 101.547 113.371 104.639 114.342 106.259C114.536 106.582 114.731 106.841 114.925 107.052C115.443 107.619 115.945 107.894 116.333 108.023V144.873H117.548V106.955H117.289L116.949 106.939C116.949 106.939 116.414 106.89 115.815 106.226C114.99 105.303 113.662 102.713 114.213 95.7986C115.038 85.6316 123.845 79.0257 125.658 77.7787C125.853 77.6487 125.966 77.5687 125.982 77.5687L126.678 77.1147L126.97 76.9366L106.749 68.5176ZM94.5588 81.1946H72.2008C72.1528 81.1786 69.4488 81.2106 67.7008 79.4786C66.7288 78.5076 66.2268 77.1637 66.2268 75.4637C66.2268 69.1007 62.9728 32.6227 62.8278 31.1327C62.8278 30.9227 63.1998 11.2187 82.2388 9.38867C82.9988 9.32467 83.7438 9.29169 84.4558 9.29169C101.439 9.29169 104.191 29.2717 104.305 30.1127L105.535 68.2906C96.8088 71.1406 94.9148 79.0256 94.5588 81.1946Z" fill="#24048F"/>
<path d="M81.168 69.2397C77.69 69.2397 76.212 67.1126 75.915 65.9886L77.0881 65.6736C77.1151 65.7706 77.788 68.0247 81.168 68.0247H92.0211C92.0061 68.0237 92.919 67.9207 93.454 67.1967C93.882 66.6147 93.982 65.7627 93.749 64.6647L94.938 64.4156C95.247 65.8746 95.071 67.0586 94.418 67.9316C93.541 69.1076 92.131 69.2327 92.072 69.2377L81.168 69.2397Z" fill="#24048F"/>
<path d="M100.305 36.9296C100.273 36.1846 100.03 35.4886 99.5928 34.9216C99.0748 34.2096 98.2968 33.6916 97.3908 33.4966C97.1638 33.4646 96.9208 33.4326 96.6788 33.4326H96.5808L71.5848 34.1766C71.4878 34.1766 71.3908 34.1766 71.2938 34.2096C70.4678 34.2746 69.7228 34.6466 69.1398 35.2136C69.1078 35.2456 69.0758 35.2776 69.0428 35.3106C68.3798 36.0226 68.0228 36.9616 68.0558 37.9336L68.4928 49.5256C68.5248 50.4816 68.9298 51.3876 69.6418 52.0356C70.3218 52.6666 71.1968 53.0066 72.1188 53.0066H72.2488L97.2288 52.0836C99.2358 52.0196 100.791 50.3356 100.726 48.3276L100.305 36.9296ZM97.1798 50.8696L72.1999 51.7926C71.5529 51.8416 70.9538 51.5986 70.4678 51.1446C69.9988 50.7076 69.7228 50.1246 69.7068 49.4776L69.2698 37.8846C69.2538 37.3016 69.4318 36.7516 69.8038 36.2976C69.8528 36.2496 69.8848 36.2006 69.9338 36.1526C69.9658 36.1196 69.9988 36.0876 70.0308 36.0716C70.4518 35.6506 71.0178 35.4076 71.6168 35.3916L96.6138 34.6466C97.9088 34.5816 99.0418 35.6506 99.0908 36.9776L99.5118 48.3766C99.5598 49.7036 98.5238 50.8216 97.1798 50.8696Z" fill="#24048F"/>
<path d="M112.205 36.5566C112.156 35.2776 111.622 34.0956 110.683 33.2376C109.987 32.5906 109.129 32.1696 108.206 32.0236C107.898 31.9586 107.575 31.9426 107.251 31.9586L106.992 31.9746L105.567 32.0236L104.596 32.0556L105.276 50.5786L106.166 50.5456L107.931 50.4806C110.57 50.3836 112.626 48.1656 112.529 45.5266L112.205 36.5566ZM107.898 49.2666L106.441 49.3156L105.858 33.2216L107.299 33.1726C108.255 33.1406 109.161 33.4646 109.857 34.1286C110.553 34.7756 110.958 35.6506 110.991 36.6056L111.314 45.5756C111.395 47.5346 109.857 49.1856 107.898 49.2666Z" fill="#24048F"/>
<path d="M62.5681 33.1726L61.791 33.2376L60.011 33.3676L59.913 33.3836C59.541 33.4156 59.1691 33.4966 58.8121 33.6106C57.9871 33.8696 57.2421 34.3716 56.6591 35.0516C55.8341 36.0226 55.4291 37.2696 55.5421 38.5326L56.2711 47.4856C56.4651 49.9786 58.57 51.8736 61.03 51.8736C61.16 51.8736 61.2891 51.8736 61.4191 51.8576L63.3781 51.6956L64.074 51.6466L62.5681 33.1726ZM61.322 50.6426C59.363 50.8206 57.6311 49.3476 57.4691 47.3886L56.7401 38.4346C56.6761 37.4956 56.967 36.5726 57.582 35.8446C58.197 35.1156 59.055 34.6786 60.011 34.5976L61.4511 34.4846L62.7631 50.5296L61.322 50.6426Z" fill="#24048F"/>
<path d="M108.205 32.0237V32.3317L106.991 32.2827V31.9747C107.007 29.6757 106.716 14.8777 98.1521 6.71771C93.7651 2.54071 87.8721 0.726749 80.6351 1.30975C60.0581 3.00975 59.8641 28.5107 60.0101 33.3677C60.0421 33.8527 60.0581 34.1287 60.0581 34.1607L58.8441 34.2577C58.8441 34.2257 58.8281 33.9987 58.8121 33.6107C58.6501 29.0447 58.6011 1.89272 80.5381 0.111721C88.1471 -0.503279 94.3471 1.42271 98.9941 5.84271C108.06 14.4567 108.238 29.5947 108.205 32.0237Z" fill="#24048F"/>
<path d="M151.286 148.322V155.883L150.93 156.045C150.8 156.11 150.655 156.174 150.525 156.223C150.153 156.401 149.78 156.563 149.408 156.709C146.397 157.874 143.418 158.295 140.731 158.295C136.521 158.295 133.008 157.275 131.163 156.611C130.645 156.433 130.256 156.272 130.013 156.158C129.867 156.093 129.787 156.061 129.754 156.045L129.398 155.883V147.723H132.345V148.937H130.612V155.09C132.458 155.851 141.346 159.089 150.072 155.106V149.536H148.615V148.322H151.286Z" fill="#24048F"/>
<path d="M154.767 172.657C154.896 174.065 154.087 175.409 152.775 175.992C149.246 177.579 146.17 178.016 143.839 178.016C143.029 178.016 142.301 177.967 141.686 177.886C140.261 177.708 139.128 176.705 138.804 175.328C138.108 172.317 136.958 168.787 136.359 167.022L133.801 170.827C133.267 171.621 132.409 172.155 131.454 172.284C130.515 172.398 129.543 172.123 128.815 171.491C127.925 170.714 127.504 169.5 127.714 168.334L130.013 156.159V156.11L131.211 156.337L131.162 156.612L128.912 168.561C128.766 169.305 129.042 170.083 129.608 170.568C130.078 170.973 130.693 171.151 131.292 171.07C131.907 170.989 132.441 170.649 132.781 170.147L136.699 164.335L137.104 165.468C137.12 165.517 138.998 170.795 139.986 175.053C140.196 175.927 140.908 176.575 141.831 176.688C144.114 176.964 147.789 176.899 152.29 174.891C153.131 174.519 153.633 173.661 153.569 172.77C153.31 169.824 152.435 163.833 149.408 156.709C149.392 156.644 149.359 156.579 149.327 156.515L150.444 156.029C150.476 156.094 150.493 156.159 150.525 156.223C153.617 163.509 154.508 169.645 154.767 172.657Z" fill="#24048F"/>
<path d="M76.317 249.248H38.229V250.462H76.317V249.248Z" fill="#24048F"/>
<path d="M56.3029 90.6827C55.8979 92.7387 55.1699 94.8927 54.2469 97.0297C50.9599 104.672 45.2459 112.087 43.4319 114.354C43.1089 114.743 42.9139 114.969 42.8659 115.034L42.5099 115.455L42.3309 115.342C42.3309 115.342 42.3309 115.342 42.3309 115.325L42.0559 115.147C41.7159 114.921 33.7189 109.481 29.3799 100.268C29.2989 100.138 29.2339 99.9927 29.1699 99.8467L30.0279 99.4576L30.2869 99.3447C33.8809 107.262 40.5019 112.508 42.2829 113.82C44.2089 111.44 53.3079 99.7337 55.1049 90.4557L55.2339 90.4886L56.3029 90.6827Z" fill="#24048F"/>
<path d="M36.0179 132.844L35.3859 133.847L35.3699 133.88C22.3859 125.655 17.4649 111.731 16.3959 108.137C16.2339 107.602 16.1528 107.295 16.1528 107.262L17.3348 106.971C17.3348 107.003 17.4159 107.311 17.5779 107.878C18.6629 111.423 23.3579 124.538 35.5159 132.504C35.6779 132.633 35.8399 132.73 36.0179 132.844Z" fill="#24048F"/>
<path d="M55.0557 128.343C54.7647 128.796 54.3437 129.282 53.8417 129.784C51.6077 132.05 47.8517 134.463 47.6577 134.592V134.576L47.0098 133.556C47.0268 133.556 47.2687 133.394 47.6577 133.135C49.0827 132.164 52.4987 129.767 53.8417 127.954C53.9227 127.857 53.9877 127.76 54.0367 127.679L55.0557 128.343Z" fill="#24048F"/>
<path d="M27.2271 90.6667L26.725 91.4767C26.725 91.4767 26.692 91.5247 26.644 91.5897V91.6057C26.482 91.8487 26.11 92.3668 25.559 93.0468C23.455 95.6538 18.5821 100.624 11.6691 101.418C11.4101 101.434 11.1511 101.466 10.8751 101.482L10.2761 101.515L9.87207 101.547L12.98 106.566L14.308 108.364H14.631C14.728 108.364 15.3761 108.331 16.3961 108.137C16.7361 108.072 17.1411 107.991 17.5781 107.878C20.5571 107.117 25.2681 105.19 29.3801 100.268C29.6061 100.009 29.817 99.7337 30.027 99.4587C30.448 98.9077 30.869 98.3247 31.274 97.7097L31.4841 97.3857L27.2271 90.6667ZM14.89 107.117L14.0001 105.903L11.96 102.6C20.217 101.596 25.559 95.1677 27.21 92.9007L30.027 97.3698C24.394 105.741 16.542 106.955 14.89 107.117Z" fill="#24048F"/>
<path d="M26.7409 92.9497L25.5589 93.0468H25.527C25.3 90.3108 25.252 87.9307 25.235 86.0357C25.203 83.9147 25.1709 82.2307 24.8789 81.2757C24.6199 80.4507 23.876 79.8837 23.001 79.8507L21.868 79.8188C21.301 79.8188 20.7829 80.0128 20.3949 80.4018C20.0059 80.7898 19.7959 81.2917 19.7959 81.8427C19.8279 84.8217 19.6499 87.4927 19.6499 87.5257L19.553 88.8858L18.5979 87.8977C16.4609 85.6957 14.923 80.8228 14.032 77.1148C13.871 76.4678 13.417 75.9657 12.786 75.7227C12.171 75.4797 11.491 75.5608 10.94 75.9488L2.06797 81.4707C1.33997 81.9717 1.03195 82.9107 1.32395 83.7697C4.22195 92.2207 11.653 101.288 11.717 101.369L11.669 101.417L10.7779 102.146C10.7299 102.097 10.552 101.871 10.276 101.515C8.52798 99.2967 2.73199 91.6217 0.173992 84.1577C-0.295009 82.7977 0.206949 81.2758 1.40495 80.4508L10.276 74.9287C11.118 74.3467 12.2349 74.2168 13.2229 74.5888C14.2099 74.9618 14.955 75.8037 15.198 76.8397C16.169 80.8067 17.3189 83.8988 18.5169 85.8098C18.5649 84.7728 18.598 83.3487 18.582 81.8587C18.582 80.9847 18.922 80.1587 19.553 79.5277C20.184 78.9117 20.9939 78.6208 21.8999 78.6048L23.034 78.6367C24.426 78.6857 25.624 79.5918 26.029 80.9198C26.385 82.0368 26.401 83.7047 26.45 86.0197C26.466 87.5737 26.498 89.4527 26.644 91.5897V91.6057C26.676 92.0427 26.7089 92.4957 26.7409 92.9497Z" fill="#24048F"/>
<path d="M49.599 244.362C48.115 244.362 46.697 243.72 45.716 242.578L44.064 240.654L44.985 239.864L46.637 241.788C47.486 242.776 48.77 243.265 50.063 243.121L59.062 242.046C60.534 241.869 61.764 240.893 62.269 239.498L63.064 237.307L64.205 237.721L63.411 239.913C62.748 241.74 61.137 243.02 59.205 243.25L50.206 244.326C50.003 244.351 49.8 244.362 49.599 244.362Z" fill="#24048F"/>
<path d="M99.7047 103.69C99.7007 102.479 99.7617 73.9987 114.051 71.8317L114.235 73.0337C100.968 75.0437 100.918 103.401 100.919 103.687L99.7047 103.69Z" fill="#24048F"/>
<path d="M59.1608 104.037C59.1228 103.315 58.3228 86.2506 65.5308 77.6396L66.4618 78.4207C59.5578 86.6667 60.3648 103.802 60.3728 103.974L59.1608 104.037Z" fill="#24048F"/>
<path d="M69.8517 36.3317L68.8467 35.6517L70.8927 32.6317C72.0327 30.9457 73.6847 29.9367 75.4257 29.8597L92.7997 29.0927C94.7047 29.0137 96.5367 30.0287 97.7887 31.8947L99.7457 34.8167L98.7377 35.4937L96.7797 32.5717C95.7717 31.0647 94.3247 30.2167 92.8527 30.3067L75.4797 31.0737C74.1257 31.1327 72.8207 31.9487 71.8977 33.3117L69.8517 36.3317Z" fill="#24048F"/>
<path d="M42.1709 129.52L41.0439 129.071C43.5359 122.813 42.2359 114.534 42.2229 114.45L43.4209 114.256C43.4779 114.608 44.7899 122.946 42.1709 129.52Z" fill="#24048F"/>
<path d="M128.247 126.554L127.383 125.7C127.553 125.528 131.616 121.509 139.743 121.509C139.799 121.509 139.854 121.509 139.909 121.509L139.9 122.723C139.849 122.723 139.797 122.723 139.747 122.723C132.117 122.723 128.285 126.514 128.247 126.554Z" fill="#24048F"/>
</svg>
