<svg width="300" height="353" viewBox="0 0 300 353" fill="none" xmlns="http://www.w3.org/2000/svg">
<path d="M149.454 73.6954L141.884 231.889M245.308 157.069L152.333 276.066L245.308 157.069ZM190.931 160.209L145.722 278.124L190.931 160.209ZM100.408 104.013L130.795 253.003L100.408 104.013ZM66.1816 152.738L130.582 284.512L66.1816 152.738Z" stroke="#6F3FF5" stroke-miterlimit="10"/>
<path d="M101.312 110.154C116.24 108.564 126.987 94.1789 125.315 78.0234C123.644 61.8679 110.187 50.0602 95.2588 51.6502C80.3306 53.2401 69.5841 67.6257 71.2557 83.7811C72.9273 99.9366 86.384 111.744 101.312 110.154Z" fill="#5BF1CD" stroke="#6F3FF5" stroke-miterlimit="10"/>
<path d="M94.1471 110.154C109.075 108.564 119.822 94.1789 118.15 78.0234C116.479 61.8679 103.022 50.0602 88.0937 51.6502C73.1656 53.2401 62.4191 67.6257 64.0906 83.7812C65.7622 99.9366 79.219 111.744 94.1471 110.154Z" fill="#5BF1CD" stroke="#6F3FF5" stroke-miterlimit="10"/>
<path d="M93.2739 104.339C105.041 103.086 113.514 91.7658 112.198 79.0553C110.883 66.3447 100.278 57.0567 88.5114 58.31C76.7445 59.5633 68.2717 70.8832 69.5869 83.5937C70.902 96.3043 81.5071 105.592 93.2739 104.339Z" fill="white" stroke="#6F3FF5" stroke-miterlimit="10"/>
<path d="M274.992 90.8345L267.848 87.1307C253.667 80.4857 235.007 90.8345 226.264 110.334C217.521 129.833 221.892 150.966 236.18 157.611L243.964 161.968" fill="#5BF1CD"/>
<path d="M274.992 90.8345L267.848 87.1307C253.667 80.4857 235.007 90.8345 226.264 110.334C217.521 129.833 221.892 150.966 236.18 157.611L243.964 161.968" stroke="#6F3FF5" stroke-miterlimit="10" stroke-linecap="round"/>
<path d="M284.096 137.019C292.879 117.583 288.462 96.4602 274.228 89.8387C259.995 83.2172 241.336 93.6049 232.552 113.04C223.769 132.476 228.187 153.599 242.42 160.22C256.653 166.842 275.312 156.454 284.096 137.019Z" fill="#5BF1CD" stroke="#6F3FF5" stroke-miterlimit="10"/>
<path d="M279.08 134.885C285.999 119.576 282.499 102.927 271.262 97.6996C260.025 92.4721 245.307 100.645 238.388 115.955C231.469 131.264 234.97 147.913 246.206 153.14C257.443 158.368 272.161 150.194 279.08 134.885Z" fill="white" stroke="#6F3FF5" stroke-miterlimit="10"/>
<path d="M227.342 125.922C229.388 106.143 216.193 88.5272 197.869 86.5756C179.546 84.624 163.033 99.0757 160.986 118.854C158.94 138.633 172.135 156.249 190.458 158.2C208.782 160.152 225.295 145.7 227.342 125.922Z" fill="#FFE48D" stroke="#6F3FF5" stroke-miterlimit="10"/>
<path d="M233.995 127.652C236.042 107.873 222.847 90.2576 204.523 88.306C186.2 86.3544 169.686 100.806 167.64 120.585C165.594 140.363 178.789 157.979 197.112 159.931C215.436 161.882 231.949 147.431 233.995 127.652Z" fill="#FFE48D" stroke="#6F3FF5" stroke-miterlimit="10"/>
<path d="M226.893 126.896C228.503 111.334 218.134 97.4756 203.733 95.9418C189.331 94.408 176.352 105.78 174.742 121.341C173.131 136.903 183.501 150.761 197.902 152.295C212.303 153.829 225.283 142.457 226.893 126.896Z" fill="white" stroke="#6F3FF5" stroke-miterlimit="10"/>
<path d="M195.028 137.488L191.617 122.241C191.404 121.375 191.724 120.51 192.257 119.97L203.341 109.696C204.514 108.615 206.326 109.264 206.752 110.886L210.163 126.025C210.376 126.891 210.056 127.756 209.523 128.296L198.439 138.57C197.159 139.651 195.348 139.11 195.028 137.488Z" fill="#FFE48D" stroke="#6F3FF5" stroke-miterlimit="10"/>
<g filter="url(#filter0_d_1652_43863)">
<path d="M29.5189 136.483C39.0618 153.849 59.5863 160.773 75.3618 151.948C91.1373 143.124 96.1899 121.892 86.647 104.526C77.1042 87.1603 56.5796 80.2363 40.8041 89.061C25.0286 97.8857 19.9761 119.117 29.5189 136.483Z" fill="#FFE48D" stroke="#6F3FF5" stroke-miterlimit="10"/>
<path d="M23.2133 138.851C32.7561 156.217 53.2807 163.14 69.0562 154.316C84.8316 145.491 89.8842 124.259 80.3413 106.894C70.7985 89.5278 50.2739 82.6039 34.4985 91.4286C18.723 100.253 13.6704 121.485 23.2133 138.851Z" fill="#FFE48D" stroke="#6F3FF5" stroke-miterlimit="10"/>
<path d="M29.3277 135.43C36.8359 149.094 52.9735 154.547 65.3722 147.612C77.7708 140.676 81.7353 123.977 74.2271 110.314C66.7189 96.6507 50.5813 91.197 38.1826 98.1327C25.784 105.068 21.8195 121.767 29.3277 135.43Z" fill="white" stroke="#6F3FF5" stroke-miterlimit="10"/>
<path d="M48.8545 108.627L60.2056 119.177C60.8653 119.764 61.0984 120.655 60.9773 121.401L57.9092 136.122C57.5817 137.674 55.764 138.174 54.5056 137.087L43.2157 126.626C42.5559 126.039 42.3229 125.148 42.4439 124.402L45.5121 109.681C45.9249 108.068 47.6814 107.48 48.8545 108.627Z" fill="#FFE48D" stroke="#6F3FF5" stroke-miterlimit="10"/>
</g>
<path d="M148.069 109.005C177.465 109.005 201.295 84.8269 201.295 55.0023C201.295 25.1776 177.465 1 148.069 1C118.672 1 94.8423 25.1776 94.8423 55.0023C94.8423 84.8269 118.672 109.005 148.069 109.005Z" fill="#FFE48D" stroke="#6F3FF5" stroke-miterlimit="10"/>
<path d="M147.557 97.581C171.017 97.581 190.035 78.5179 190.035 55.0023C190.035 31.4867 171.017 12.4236 147.557 12.4236C124.096 12.4236 105.078 31.4867 105.078 55.0023C105.078 78.5179 124.096 97.581 147.557 97.581Z" fill="white" stroke="#6F3FF5" stroke-miterlimit="10"/>
<path d="M145.282 76.3229L133.188 56.2907C132.557 55.2195 132.557 53.8269 133.188 52.7556L145.282 32.7235C146.544 30.581 149.593 30.581 150.855 32.7235L162.949 52.7556C163.58 53.8269 163.58 55.2195 162.949 56.2907L150.855 76.3229C149.593 78.3582 146.544 78.3582 145.282 76.3229Z" fill="#FFE48D" stroke="#6F3FF5" stroke-miterlimit="10"/>
<path d="M92.9564 91.2508L83.5844 84.8208C83.0903 84.4737 82.8189 83.8551 82.8955 83.2503L84.4604 71.882C84.6136 70.6726 85.9926 70.0499 86.9807 70.744L96.3528 77.174C96.8468 77.5211 97.1182 78.1398 97.0416 78.7445L95.4767 90.1128C95.3027 91.2747 93.9237 91.8973 92.9564 91.2508Z" fill="#5BF1CD" stroke="#6F3FF5" stroke-miterlimit="10"/>
<path d="M68.0626 289.434L65.1848 287.812H65.0782C64.9716 287.812 59.1094 287.92 52.7143 290.299C50.2628 291.164 48.8772 293.002 47.9179 294.732C47.1718 296.571 46.8521 298.301 46.7455 299.491C46.6389 300.464 47.2784 301.437 48.1311 301.87L51.6484 303.492" fill="white"/>
<path d="M68.0626 289.434L65.1848 287.812H65.0782C64.9716 287.812 59.1094 287.92 52.7143 290.299C50.2628 291.164 48.8772 293.002 47.9179 294.732C47.1718 296.571 46.8521 298.301 46.7455 299.491C46.6389 300.464 47.2784 301.437 48.1311 301.87L51.6484 303.492" stroke="#6F3FF5" stroke-miterlimit="10"/>
<path d="M66.5707 301.437L55.4858 303.924C54.3134 304.249 52.8212 303.816 51.5422 303.384C51.0093 303.167 50.4763 302.843 50.05 302.519C49.1973 301.654 48.8776 300.464 49.1973 299.383C49.7302 297.22 51.1158 293.543 54.8463 292.462C59.9624 290.948 66.2509 289.758 67.3168 289.542L72.4329 293.651" fill="white"/>
<path d="M66.5707 301.437L55.4858 303.924C54.3134 304.249 52.8212 303.816 51.5422 303.384C51.0093 303.167 50.4763 302.843 50.05 302.519C49.1973 301.654 48.8776 300.464 49.1973 299.383C49.7302 297.22 51.1158 293.543 54.8463 292.462C59.9624 290.948 66.2509 289.758 67.3168 289.542L72.4329 293.651" stroke="#6F3FF5" stroke-miterlimit="10"/>
<path d="M174.115 309.115C174.861 313.657 169.212 320.578 162.497 317.766C157.381 315.496 153.758 307.926 152.265 303.708C147.469 291.921 156.635 274.511 167.4 285.974" stroke="#6F3FF5" stroke-miterlimit="10"/>
<path d="M166.227 286.622C156.635 277.431 149.6 293.976 153.65 303.276C155.036 307.061 158.127 313.657 162.71 315.712C166.973 317.875 172.622 313.657 172.942 309.981" stroke="#6F3FF5" stroke-miterlimit="10"/>
<path d="M171.13 284.46L161.751 288.893C164.202 293.327 159.193 297.653 159.086 297.545L158.873 297.653C166.547 315.388 165.055 313.441 181.043 305.979" stroke="#6F3FF5" stroke-miterlimit="10"/>
<path d="M172.196 279.81C171.237 280.242 170.704 281.324 170.811 282.297L171.344 284.135C171.557 284.784 172.09 285.325 172.836 285.325C173.795 285.325 175.181 285.108 177.313 284.135C179.871 282.946 180.51 281.972 180.617 281.432C180.723 281.107 180.617 280.891 180.617 280.891L179.764 279.053C179.231 277.863 177.739 277.214 176.46 277.863L172.196 279.81Z" stroke="#6F3FF5" stroke-miterlimit="10"/>
<path d="M194.579 301.654C194.579 301.654 207.689 297.328 201.401 283.27C195.645 270.401 182.109 277.106 179.551 278.512" stroke="#6F3FF5" stroke-miterlimit="10"/>
<path d="M194.366 299.923C197.564 296.787 199.909 292.245 197.244 286.622C191.488 274.402 180.19 280.242 180.19 280.242" stroke="#6F3FF5" stroke-miterlimit="10"/>
<path d="M195.112 283.27C195.112 283.27 192.874 284.135 194.366 287.704C195.432 290.299 195.965 290.732 198.31 290.624" stroke="#6F3FF5" stroke-miterlimit="10"/>
<path d="M185.626 307.818L192.874 304.573C194.473 303.816 195.219 301.978 194.579 300.356L188.93 287.163C188.184 285.541 186.372 284.784 184.773 285.433L177.526 288.677C175.927 289.434 175.181 291.272 175.82 292.894L181.469 306.087C182.109 307.709 183.921 308.466 185.626 307.818Z" fill="#5BF1CD" stroke="#6F3FF5" stroke-miterlimit="10"/>
<path d="M187.118 290.407C186.159 288.244 184.56 288.785 184.56 288.785L175.927 292.57" stroke="#6F3FF5" stroke-miterlimit="10"/>
<path d="M161.751 288.785L157.274 285.325" stroke="#6F3FF5" stroke-miterlimit="10"/>
<path d="M152.691 297.761C159.939 296.139 158.873 286.622 158.873 286.622" stroke="#6F3FF5" stroke-miterlimit="10"/>
<path d="M104.728 327.823L99.505 326.417C99.3984 326.417 85.7555 328.039 78.8275 325.444C72.2192 322.957 67.7426 303.708 66.6768 302.194C66.7833 301.437 67.636 296.679 72.5389 293.759C73.3916 295.706 76.9089 303.816 83.7304 309.223L83.837 309.331L83.9436 309.439L84.3699 309.331L105.58 304.789" stroke="#6F3FF5" stroke-miterlimit="10"/>
<path d="M119.33 336.583C119.116 336.474 110.163 335.934 104.834 336.691C101.423 337.123 98.0125 336.799 94.815 335.501L86.6079 326.85" stroke="#6F3FF5" stroke-miterlimit="10"/>
<path d="M84.0504 309.439L83.9438 312.9Z" fill="white"/>
<path d="M84.0504 309.439L83.9438 312.9" stroke="#6F3FF5" stroke-miterlimit="10"/>
<path d="M99.292 337.123C99.3986 337.015 101.424 334.095 100.145 329.662Z" fill="white"/>
<path d="M99.292 337.123C99.3986 337.015 101.424 334.095 100.145 329.662" stroke="#6F3FF5" stroke-miterlimit="10"/>
<path d="M78.7212 323.39C78.8278 323.282 81.8122 321.443 82.4517 316.901Z" fill="white"/>
<path d="M78.7212 323.39C78.8278 323.282 81.8122 321.443 82.4517 316.901" stroke="#6F3FF5" stroke-miterlimit="10"/>
<path d="M69.448 296.463L64.3319 297.22C63.9056 297.328 63.5858 297.544 63.3726 297.869C63.3726 297.977 63.266 298.085 63.266 298.193V298.301C63.1595 298.734 63.266 299.058 63.5858 299.383C63.9056 299.707 64.2253 299.815 64.6517 299.815L67.5295 299.491" fill="white"/>
<path d="M69.448 296.463L64.3319 297.22C63.9056 297.328 63.5858 297.544 63.3726 297.869C63.3726 297.977 63.266 298.085 63.266 298.193V298.301C63.1595 298.734 63.266 299.058 63.5858 299.383C63.9056 299.707 64.2253 299.815 64.6517 299.815L67.5295 299.491" stroke="#6F3FF5" stroke-miterlimit="10" stroke-linecap="round"/>
<path d="M49.623 300.896C56.4445 301.437 56.6577 298.842 56.7643 298.193C57.1906 295.814 52.1811 296.355 51.5416 294.732" fill="white"/>
<path d="M49.6231 301.437C51.3285 301.545 53.1404 301.654 54.7392 301.113C55.5919 300.788 56.4445 300.356 56.8709 299.599C57.1906 299.166 57.2972 298.626 57.2972 298.085C57.4038 296.787 56.1248 296.138 55.0589 295.814C54.4194 295.598 53.7799 295.49 53.1404 295.273C52.8206 295.165 52.6075 295.057 52.3943 294.949C52.2877 294.841 52.2877 294.841 52.1811 294.733C52.1811 294.625 52.1811 294.841 52.1811 294.733C52.1811 294.625 52.0745 294.625 52.0745 294.516C51.968 294.3 51.5416 294.192 51.3285 294.3C51.0087 294.408 51.0087 294.733 51.1153 295.057C51.5416 296.03 52.9272 296.355 53.7799 296.571C54.3128 296.679 54.8458 296.895 55.3787 297.112C55.5919 297.22 55.805 297.328 56.0182 297.436C56.0182 297.436 56.1248 297.544 56.2314 297.544C56.338 297.652 56.2314 297.544 56.2314 297.544C56.2314 297.544 56.338 297.761 56.338 297.652V297.761C56.338 297.869 56.338 297.761 56.338 297.869C56.338 297.977 56.338 297.977 56.338 298.085C56.338 298.193 56.338 298.085 56.338 298.193C56.338 298.301 56.338 298.301 56.338 298.409C56.338 298.518 56.338 298.626 56.2314 298.734V298.842C56.2314 298.95 56.2314 298.734 56.2314 298.95C56.1248 299.058 56.1248 299.166 56.0182 299.275C55.9116 299.383 56.0182 299.275 56.0182 299.275C56.0182 299.275 56.0182 299.383 55.9116 299.383C55.805 299.491 55.805 299.491 55.6984 299.599C55.5919 299.707 55.5919 299.707 55.4853 299.707C55.5919 299.599 55.3787 299.815 55.2721 299.815C55.1655 299.815 55.0589 299.923 55.0589 299.923C55.0589 299.923 54.9523 299.923 54.9523 300.032C54.8458 300.032 54.8458 300.032 54.8458 300.032C53.247 300.68 51.3285 300.572 49.7297 300.464C48.877 300.248 48.877 301.329 49.6231 301.437Z" fill="#6F3FF5"/>
<path d="M104.834 301.762C107.819 315.495 112.722 326.958 120.609 338.637C121.142 339.394 122.101 339.611 122.847 339.286C124.553 338.529 125.725 337.988 127.324 337.34C128.39 336.907 128.816 335.501 128.177 334.528C120.716 323.281 115.919 312.251 112.935 298.95C112.722 297.761 111.443 297.22 110.377 297.652C108.778 298.301 107.499 298.842 105.9 299.599C105.154 299.923 104.621 300.788 104.834 301.762Z" fill="white" stroke="#6F3FF5" stroke-miterlimit="10"/>
<path d="M115.386 332.798L115.706 333.447C116.026 334.095 116.878 334.312 117.518 333.987L126.364 329.229C127.004 328.905 127.217 328.04 126.897 327.391L126.578 326.742C126.258 326.093 125.405 325.877 124.766 326.201L115.919 330.959C115.28 331.284 115.066 332.041 115.386 332.798Z" fill="white" stroke="#6F3FF5" stroke-miterlimit="10"/>
<path d="M104.834 309.44L106.327 313.549C106.753 314.631 107.925 315.279 109.098 314.847L117.411 311.819C118.477 311.386 119.117 310.197 118.69 309.007L117.198 304.898C116.772 303.817 115.599 303.168 114.427 303.6L106.113 306.628C104.941 307.061 104.408 308.358 104.834 309.44Z" fill="white" stroke="#6F3FF5" stroke-miterlimit="10"/>
<path d="M127.111 333.122L119.437 337.015" stroke="#6F3FF5" stroke-miterlimit="10"/>
<path d="M121.675 323.714L113.681 327.174" stroke="#6F3FF5" stroke-miterlimit="10"/>
<path d="M119.756 319.172L111.762 322.632" stroke="#6F3FF5" stroke-miterlimit="10"/>
<path d="M118.051 315.171L110.057 318.74" stroke="#6F3FF5" stroke-miterlimit="10"/>
<path d="M113.148 300.356L105.154 303.168" stroke="#6F3FF5" stroke-miterlimit="10"/>
<path fill-rule="evenodd" clip-rule="evenodd" d="M162.071 317.55C162.071 317.55 155.676 324.795 128.497 334.852Z" fill="white"/>
<path d="M162.071 317.55C162.071 317.55 155.676 324.795 128.497 334.852" stroke="#6F3FF5" stroke-miterlimit="10"/>
<path fill-rule="evenodd" clip-rule="evenodd" d="M153.651 323.498C153.651 323.498 143.951 312.468 138.516 293.543Z" fill="white"/>
<path d="M153.651 323.498C153.651 323.498 143.951 312.468 138.516 293.543" stroke="#6F3FF5" stroke-miterlimit="10"/>
<path fill-rule="evenodd" clip-rule="evenodd" d="M149.28 325.445C149.28 325.445 138.942 313.117 133.612 294.192Z" fill="white"/>
<path d="M149.28 325.445C149.28 325.445 138.942 313.117 133.612 294.192" stroke="#6F3FF5" stroke-miterlimit="10"/>
<path d="M155.782 284.135L153.757 281.972" stroke="#6F3FF5" stroke-miterlimit="10"/>
<path d="M153.757 280.675C153.97 281.107 153.864 281.54 153.757 281.864C153.118 283.162 151.199 286.19 148.002 288.893C142.139 293.868 132.76 297.761 125.192 289.218L129.136 287.487C129.136 287.487 134.892 292.894 142.886 287.379C148.428 283.486 149.707 280.783 149.92 279.377C150.027 278.728 150.666 278.187 151.412 278.404C152.158 278.512 153.011 279.161 153.757 280.675Z" fill="white" stroke="#6F3FF5" stroke-miterlimit="10"/>
<path d="M137.556 285.433L130.734 288.353" stroke="#6F3FF5" stroke-miterlimit="10"/>
<path d="M126.365 290.623L112.829 298.301" stroke="#6F3FF5" stroke-miterlimit="10"/>
<path d="M136.547 285.835C136.547 285.835 127.274 270.155 130.791 253.393C130.791 253.393 131.75 247.229 133.989 243.012C133.989 243.012 139.211 242.255 145.926 247.337C145.926 247.337 140.81 255.34 142.515 265.072C144.221 274.805 150.616 278.914 150.616 278.914" fill="#E5E5E5"/>
<path d="M136.547 285.835C136.547 285.835 127.274 270.155 130.791 253.393C130.791 253.393 131.75 247.229 133.989 243.012C133.989 243.012 139.211 242.255 145.926 247.337C145.926 247.337 140.81 255.34 142.515 265.072C144.221 274.805 150.616 278.914 150.616 278.914" stroke="#6F3FF5" stroke-miterlimit="10"/>
<path fill-rule="evenodd" clip-rule="evenodd" d="M146.19 274.835C146.19 274.835 150.346 272.997 151.412 273.105C153.011 273.321 154.503 274.294 155.463 275.592L160.365 282.189L146.19 274.835ZM133.399 280.35C133.399 280.35 130.948 281.432 122.634 285.108C114.321 288.785 116.346 296.355 116.346 296.355" fill="#E5E5E5"/>
<path d="M133.399 280.35C133.399 280.35 130.948 281.432 122.634 285.108C114.321 288.785 116.346 296.355 116.346 296.355M146.19 274.835C146.19 274.835 150.346 272.997 151.412 273.105C153.011 273.321 154.503 274.294 155.463 275.592L160.365 282.189L146.19 274.835Z" stroke="#6F3FF5" stroke-miterlimit="10"/>
<path d="M166.441 318.631C166.441 318.631 162.817 324.903 150.027 329.445C143.312 332.149 142.886 329.121 142.886 329.121" fill="white"/>
<path d="M166.441 318.631C166.441 318.631 162.817 324.903 150.027 329.445C143.312 332.149 142.886 329.121 142.886 329.121" stroke="#6F3FF5" stroke-miterlimit="10"/>
<path fill-rule="evenodd" clip-rule="evenodd" d="M135.105 304.682L135.318 305.331C135.531 306.088 136.277 306.412 137.024 306.196L143.099 304.141C143.845 303.925 144.165 303.168 143.952 302.411L143.738 301.762C143.525 301.005 142.779 300.681 142.033 300.897L135.958 302.951C135.212 303.276 134.785 304.033 135.105 304.682Z" fill="white" stroke="#6F3FF5" stroke-miterlimit="10"/>
<path fill-rule="evenodd" clip-rule="evenodd" d="M133.186 300.248L133.399 300.789C133.612 301.329 134.145 301.654 134.678 301.437L141.286 299.167C141.819 298.95 142.139 298.41 141.926 297.869L141.713 297.328C141.5 296.788 140.967 296.463 140.434 296.679L133.825 298.95C133.292 299.167 132.973 299.707 133.186 300.248Z" fill="white" stroke="#6F3FF5" stroke-miterlimit="10"/>
<path d="M144.057 319.172C147.295 319.172 149.92 316.509 149.92 313.224C149.92 309.94 147.295 307.277 144.057 307.277C140.82 307.277 138.195 309.94 138.195 313.224C138.195 316.509 140.82 319.172 144.057 319.172Z" fill="#5BF1CD" stroke="#6F3FF5" stroke-miterlimit="10"/>
<path d="M144.804 246.719L146.296 243.15C146.296 243.15 141.287 239.041 136.064 238.716L134.252 242.826" stroke="#6F3FF5" stroke-miterlimit="10"/>
<path d="M136.704 238.608C136.704 238.608 137.769 230.498 140.328 228.443C140.328 228.443 145.23 228.011 150.133 232.661L151.412 236.013" stroke="#6F3FF5" stroke-miterlimit="10"/>
<path fill-rule="evenodd" clip-rule="evenodd" d="M145.977 242.718L146.616 241.204L148.002 240.23" fill="white"/>
<path d="M145.977 242.718L146.616 241.204L148.002 240.23" stroke="#6F3FF5" stroke-miterlimit="10"/>
<path fill-rule="evenodd" clip-rule="evenodd" d="M146.829 239.798L149.281 240.555L152.372 236.554L150.453 235.472L148.534 237.851" fill="white"/>
<path d="M146.829 239.798L149.281 240.555L152.372 236.554L150.453 235.472L148.534 237.851" stroke="#6F3FF5" stroke-miterlimit="10"/>
<path d="M166.121 319.821C169.638 324.146 176.886 331.5 186.372 335.177C186.372 335.177 187.118 340.476 180.403 344.909C180.403 344.909 167.293 340.367 155.675 327.066" stroke="#6F3FF5" stroke-miterlimit="10"/>
<path fill-rule="evenodd" clip-rule="evenodd" d="M178.059 344.044C178.059 344.044 183.281 340.476 183.601 333.879Z" fill="white"/>
<path d="M178.059 344.044C178.059 344.044 183.281 340.476 183.601 333.879" stroke="#6F3FF5" stroke-miterlimit="10"/>
<path d="M146.616 235.905L148.641 231.579" stroke="#6F3FF5" stroke-miterlimit="10"/>
<path d="M143.738 235.04L146.083 229.849" stroke="#6F3FF5" stroke-miterlimit="10"/>
<path d="M140.967 234.283L143.418 228.552" stroke="#6F3FF5" stroke-miterlimit="10"/>
<path d="M180.83 344.801C180.83 344.801 186.159 351.289 189.463 351.614C189.463 351.614 193.833 349.343 195.538 342.855L194.899 339.286" stroke="#6F3FF5" stroke-miterlimit="10"/>
<path fill-rule="evenodd" clip-rule="evenodd" d="M186.479 336.258L188.078 337.448L189.677 337.556" fill="white"/>
<path d="M186.479 336.258L188.078 337.448L189.677 337.556" stroke="#6F3FF5" stroke-miterlimit="10"/>
<path fill-rule="evenodd" clip-rule="evenodd" d="M188.93 338.421L190.636 336.583L195.325 338.313L194.259 340.259L191.382 339.286" fill="white"/>
<path d="M188.93 338.421L190.636 336.583L195.325 338.313L194.259 340.259L191.382 339.286" stroke="#6F3FF5" stroke-miterlimit="10"/>
<path d="M190.422 341.773L194.792 344.477" stroke="#6F3FF5" stroke-miterlimit="10"/>
<path d="M189.143 344.585L193.513 347.288" stroke="#6F3FF5" stroke-miterlimit="10"/>
<path d="M187.545 347.288L191.915 349.884" stroke="#6F3FF5" stroke-miterlimit="10"/>
<path d="M171.45 304.141C171.344 304.141 171.344 304.141 171.45 304.141C171.344 304.141 171.344 304.141 171.344 304.141C171.237 304.141 171.237 304.141 171.13 304.141C171.024 304.141 171.024 304.141 170.917 304.141C170.811 304.141 170.917 304.141 170.811 304.141C170.704 304.141 170.597 304.141 170.384 304.033C170.278 304.033 170.171 303.924 170.065 303.924C169.638 303.708 169.318 303.384 168.892 303.059C168.572 302.735 168.359 302.302 168.253 301.762C168.253 301.654 168.253 301.654 168.253 301.545C168.253 301.437 168.253 301.437 168.253 301.545V301.437C168.253 301.329 168.253 301.221 168.253 301.005C168.253 300.897 168.253 300.897 168.253 300.788C168.253 300.897 168.253 300.68 168.253 300.68C168.253 300.572 168.359 300.464 168.359 300.248C168.466 299.923 168.253 299.707 168.039 299.599C167.72 299.491 167.507 299.707 167.4 299.923C166.974 301.221 167.293 302.627 168.146 303.6C168.999 304.681 170.278 305.222 171.557 305.006C171.877 305.006 171.983 304.573 171.877 304.357C171.983 304.141 171.663 304.033 171.45 304.141Z" fill="#6F3FF5"/>
<path d="M251.772 137.168L254.838 120.966C254.996 120.041 255.579 119.282 256.208 118.913L268.93 112.187C270.274 111.481 271.47 112.692 271.195 114.436L268.169 130.53C268.011 131.456 267.428 132.214 266.799 132.584L254.077 139.31C252.649 139.983 251.411 138.878 251.772 137.168Z" fill="#5BF1CD" stroke="#6F3FF5" stroke-miterlimit="10"/>
<defs>
<filter id="filter0_d_1652_43863" x="13.8921" y="84.723" width="82.0762" height="81.9309" filterUnits="userSpaceOnUse" color-interpolation-filters="sRGB">
<feFlood flood-opacity="0" result="BackgroundImageFix"/>
<feColorMatrix in="SourceAlpha" type="matrix" values="0 0 0 0 0 0 0 0 0 0 0 0 0 0 0 0 0 0 127 0" result="hardAlpha"/>
<feOffset dy="4"/>
<feGaussianBlur stdDeviation="2"/>
<feComposite in2="hardAlpha" operator="out"/>
<feColorMatrix type="matrix" values="0 0 0 0 0 0 0 0 0 0 0 0 0 0 0 0 0 0 0.25 0"/>
<feBlend mode="normal" in2="BackgroundImageFix" result="effect1_dropShadow_1652_43863"/>
<feBlend mode="normal" in="SourceGraphic" in2="effect1_dropShadow_1652_43863" result="shape"/>
</filter>
</defs>
</svg>
