<svg width="601" height="152" viewBox="0 0 601 152" fill="none" xmlns="http://www.w3.org/2000/svg">
<path d="M511.455 24.1393L508.52 21.9282C502.694 17.9614 495.027 24.1393 491.435 35.7796C487.843 47.4199 489.639 60.0357 495.509 64.0026L498.707 66.6038" stroke="#6F3FF5" stroke-miterlimit="10" stroke-linecap="round"/>
<path d="M515.598 52.1723C519.239 40.5907 517.408 28.0032 511.506 24.0575C505.605 20.1117 497.869 26.3018 494.227 37.8834C490.585 49.465 492.417 62.0524 498.318 65.9982C504.219 69.944 511.956 63.7539 515.598 52.1723Z" stroke="#6F3FF5" stroke-miterlimit="10"/>
<path d="M513.348 50.6684C516.217 41.5455 514.765 31.6246 510.106 28.5095C505.447 25.3944 499.345 30.2647 496.476 39.3877C493.608 48.5106 495.059 58.4315 499.718 61.5466C504.377 64.6617 510.479 59.7913 513.348 50.6684Z" stroke="#6F3FF5" stroke-miterlimit="10"/>
<path d="M500.944 51.0555L501.877 41.8383C501.922 41.311 502.174 40.9002 502.46 40.7162L508.262 37.4304C508.875 37.0857 509.48 37.8422 509.405 38.8366L508.488 47.9937C508.442 48.521 508.191 48.9318 507.905 49.1157L502.102 52.4016C501.448 52.723 500.828 52.0266 500.944 51.0555Z" stroke="#6F3FF5" stroke-miterlimit="10"/>
<path d="M580.498 5.69513L577.279 6.91883C571.082 9.66273 568.116 21.7704 570.707 33.9639C573.299 46.1574 580.395 53.8055 586.625 51.0187L590.22 49.8287" stroke="#6F3FF5" stroke-miterlimit="10" stroke-linecap="round"/>
<path d="M596.362 22.675C593.8 10.4937 586.692 2.86858 580.485 5.64384C574.278 8.4191 571.323 20.5438 573.884 32.7251C576.446 44.9064 583.554 52.5315 589.761 49.7562C595.968 46.9809 598.923 34.8563 596.362 22.675Z" stroke="#6F3FF5" stroke-miterlimit="10"/>
<path d="M593.996 23.7334C591.978 14.138 586.37 8.13566 581.47 10.3267C576.57 12.5176 574.233 22.0723 576.251 31.6677C578.268 41.263 583.876 47.2654 588.777 45.0744C593.677 42.8834 596.014 33.3287 593.996 23.7334Z" stroke="#6F3FF5" stroke-miterlimit="10"/>
<path d="M584.908 36.0499L581.402 28.2607C581.196 27.8229 581.196 27.2723 581.326 26.8577L584.161 18.7771C584.462 17.9253 585.258 17.9039 585.656 18.7191L589.147 26.448C589.353 26.8858 589.353 27.4364 589.223 27.851L586.388 35.9316C586.046 36.806 585.264 36.8877 584.908 36.0499Z" stroke="#6F3FF5" stroke-miterlimit="10"/>
<path d="M549.272 106.146L547.148 106.866C543.056 108.507 541.022 116.399 542.641 124.497C544.26 132.595 548.871 137.82 552.985 136.152L555.356 135.465" stroke="#6F3FF5" stroke-miterlimit="10" stroke-linecap="round"/>
<path d="M559.732 117.653C558.153 109.523 553.516 104.319 549.373 106.03C545.231 107.74 543.152 115.716 544.731 123.846C546.309 131.975 550.947 137.179 555.089 135.469C559.232 133.759 561.31 125.782 559.732 117.653Z" stroke="#6F3FF5" stroke-miterlimit="10"/>
<path d="M558.153 118.305C556.91 111.901 553.251 107.805 549.98 109.155C546.71 110.505 545.067 116.791 546.31 123.194C547.554 129.598 551.213 133.695 554.483 132.345C557.753 130.994 559.396 124.709 558.153 118.305Z" stroke="#6F3FF5" stroke-miterlimit="10"/>
<path d="M552.007 126.281L549.759 121.043C549.626 120.749 549.632 120.384 549.722 120.112L551.681 114.813C551.889 114.255 552.417 114.258 552.673 114.806L554.911 120.003C555.044 120.298 555.038 120.663 554.948 120.935L552.989 126.233C552.753 126.806 552.235 126.844 552.007 126.281Z" stroke="#6F3FF5" stroke-miterlimit="10"/>
<path d="M85.4145 75.5496L88.7398 75.4291C95.203 74.8196 99.9854 64.0182 99.3705 51.2842C98.7555 38.5501 93.0429 28.7426 86.5409 29.383L82.855 29.3456" stroke="#6F3FF5" stroke-miterlimit="10" stroke-linecap="round"/>
<path d="M72.6258 53.7394C73.2136 66.4516 78.9412 76.2406 85.4187 75.6037C91.8962 74.9668 96.6707 64.1452 96.0829 51.433C95.4951 38.7208 89.7675 28.9318 83.29 29.5687C76.8125 30.2056 72.038 41.0272 72.6258 53.7394Z" stroke="#6F3FF5" stroke-miterlimit="10"/>
<path d="M75.0951 53.4961C75.5582 63.5096 80.0791 71.2196 85.1929 70.7168C90.3067 70.214 94.077 61.6888 93.6139 51.6753C93.1509 41.6618 88.6299 33.9518 83.5161 34.4546C78.4023 34.9574 74.6321 43.4826 75.0951 53.4961Z" stroke="#6F3FF5" stroke-miterlimit="10"/>
<path d="M85.8705 44.5282L88.0652 53.2785C88.1978 53.7734 88.1113 54.3093 87.9202 54.6699L83.8951 61.5939C83.4691 62.3232 82.6902 62.079 82.4306 61.153L80.2415 52.4666C80.1089 51.9716 80.1955 51.4357 80.3866 51.0752L84.4116 44.1511C84.8815 43.4136 85.6547 43.594 85.8705 44.5282Z" stroke="#6F3FF5" stroke-miterlimit="10"/>
<path d="M30.7889 139.731L33.2176 136.416C37.7667 129.694 36.4129 116.99 30.1466 108.075C23.8803 99.1606 15.1412 97.3749 10.5771 104.158L7.80718 107.704" stroke="#6F3FF5" stroke-miterlimit="10" stroke-linecap="round"/>
<path d="M11.2915 135.841C17.5276 144.766 26.2694 146.523 30.8168 139.767C35.3642 133.01 33.9953 120.298 27.7592 111.374C21.5231 102.449 12.7813 100.692 8.2339 107.448C3.68645 114.205 5.05537 126.917 11.2915 135.841Z" stroke="#6F3FF5" stroke-miterlimit="10"/>
<path d="M13.025 133.266C17.9372 140.295 24.8297 141.67 28.4198 136.336C32.0099 131.002 30.9381 120.979 26.0258 113.949C21.1136 106.919 14.2211 105.545 10.631 110.879C7.04095 116.213 8.11276 126.236 13.025 133.266Z" stroke="#6F3FF5" stroke-miterlimit="10"/>
<path d="M16.983 116.119L22.6126 120.527C22.9373 120.768 23.1171 121.252 23.1388 121.706L23.2901 130.781C23.3045 131.739 22.6114 132.311 21.9952 131.871L16.399 127.506C16.0743 127.265 15.8945 126.781 15.8728 126.327L15.7215 117.252C15.7361 116.246 16.3959 115.631 16.983 116.119Z" stroke="#6F3FF5" stroke-miterlimit="10"/>
<path d="M25.3729 29.7244L27.0044 27.6145C30.0644 23.3258 29.2697 14.9747 25.1981 8.98343C21.1264 2.99221 15.364 1.60712 12.2937 5.9351L10.4348 8.1883" stroke="#6F3FF5" stroke-miterlimit="10" stroke-linecap="round"/>
<path d="M12.4159 26.8866C16.4625 32.9337 22.2409 34.2816 25.3222 29.8972C28.4035 25.5128 27.6209 17.0564 23.5742 11.0093C19.5276 4.96221 13.7492 3.61431 10.6679 7.9987C7.58658 12.3831 8.36918 20.8395 12.4159 26.8866Z" stroke="#6F3FF5" stroke-miterlimit="10"/>
<path d="M13.5905 25.2154C16.7781 29.9788 21.3342 31.0343 23.7668 27.5729C26.1994 24.1116 25.5873 17.4441 22.3997 12.6807C19.2121 7.91737 14.656 6.8619 12.2234 10.3233C9.79082 13.7846 10.4029 20.4521 13.5905 25.2154Z" stroke="#6F3FF5" stroke-miterlimit="10"/>
<path d="M16.3832 13.9303L20.0721 16.97C20.285 17.1366 20.3995 17.4614 20.4094 17.7632L20.4205 23.7824C20.4206 24.4177 19.9555 24.783 19.5513 24.4784L15.884 21.4676C15.6711 21.3009 15.5567 20.9762 15.5468 20.6743L15.5357 14.6551C15.5552 13.9882 15.9987 13.5942 16.3832 13.9303Z" stroke="#6F3FF5" stroke-miterlimit="10"/>
</svg>
