<svg width="1034" height="706" viewBox="0 0 1034 706" fill="none" xmlns="http://www.w3.org/2000/svg">
<path d="M534.383 501.718C533.468 498.152 533.926 495.299 533.697 492.684" stroke="#6F3FF5"/>
<path d="M503.505 484.599L500.074 501.242" stroke="#6F3FF5"/>
<path d="M492.298 459.159L494.356 468.193C498.702 486.025 515.856 496.962 533.01 492.682C550.165 488.403 560.686 470.333 557.026 452.501L556.798 451.55L550.165 422.068" stroke="#6F3FF5"/>
<path d="M545.591 421.831C542.388 419.691 538.729 417.789 535.069 416.601C534.841 416.601 534.841 416.601 534.612 416.601C534.383 416.601 534.383 416.838 534.383 416.838C530.952 426.111 504.649 437.286 503.048 434.908C500.303 430.866 491.612 431.579 490.468 437.286C490.468 437.286 487.266 450.362 501.218 461.299L501.447 461.537V461.775V462.012V462.25C501.447 462.25 501.447 462.488 501.218 462.488C500.989 462.488 500.989 462.488 500.989 462.726H500.761C499.617 462.726 496.872 462.25 492.755 459.872C487.495 456.782 485.208 449.411 485.665 435.621C486.122 422.782 486.58 418.978 490.239 412.559C493.213 407.328 498.702 397.818 522.718 397.342C548.335 396.867 549.708 418.503 549.936 421.593C549.936 421.831 549.936 421.831 549.936 421.831L549.708 422.069C549.021 422.307 548.335 422.544 547.649 422.544C546.963 422.307 546.277 422.069 545.591 421.831Z" stroke="#6F3FF5"/>
<path d="M486.352 409.704C474.915 409.704 490.697 426.585 471.027 438.473C478.118 425.634 473.772 424.683 468.054 414.459C464.165 405.662 472.857 392.823 480.862 392.348C490.469 391.872 494.357 400.194 494.357 400.194" stroke="#6F3FF5"/>
<path d="M498.703 401.86L495.958 399.482C491.841 402.573 488.41 406.615 486.123 411.133L488.41 412.797" stroke="#6F3FF5"/>
<path d="M575.554 536.192V523.115C575.096 519.549 573.495 512.654 564.803 510.276C560.915 509.325 545.133 506.948 537.585 503.144L534.383 501.479C534.383 505.284 526.835 507.899 517.229 507.899C507.623 507.899 499.846 504.808 499.846 501.004L497.559 503.144C489.096 510.514 471.256 512.416 467.596 513.843C461.42 516.22 460.506 522.402 460.277 525.731V539.045" stroke="#6F3FF5"/>
<path d="M534.383 501.718L540.558 504.809C540.558 509.326 528.665 514.082 517.457 514.082C506.25 514.082 495.729 509.564 495.729 505.047L499.846 501.48" stroke="#6F3FF5"/>
<path d="M660.41 404.713C656.75 403.286 650.575 401.146 648.288 400.195C635.25 369.525 658.351 354.07 659.495 319.358C657.208 286.547 713.474 257.779 726.054 294.155C745.038 294.869 760.591 307.708 752.357 330.532C743.665 365.007 766.995 349.791 754.415 386.881C753.729 393.776 759.218 395.203 760.133 400.433L747.553 407.09" stroke="#5D5FEF"/>
<path d="M719.878 392.112C718.277 386.168 715.99 381.651 715.532 377.371C743.208 368.336 739.548 331.246 727.426 310.086C712.33 300.813 699.293 302.002 682.139 314.603C680.538 315.792 680.309 318.407 681.681 319.834C687.857 326.491 688.085 336.239 685.798 344.085C686.027 337.428 680.309 328.631 673.905 334.099C666.128 340.519 678.25 355.973 678.25 355.973C683.511 369.287 695.633 379.273 688.085 394.727" stroke="#5D5FEF"/>
<path d="M649.888 428.726C651.718 423.495 655.149 414.222 659.495 405.901C662.011 401.146 664.755 396.628 667.958 393.537C670.931 390.447 673.904 389.02 676.649 389.258C679.851 389.733 682.825 391.16 686.027 393.3C688.543 394.964 691.059 397.104 693.575 399.006C694.032 399.481 694.718 399.957 695.176 400.432C698.149 402.81 701.351 405.425 704.325 406.852C707.527 408.516 710.958 409.23 714.617 408.041C717.133 407.327 718.734 405.663 719.649 403.523C720.564 401.621 720.564 399.244 720.564 397.342C720.564 395.44 720.107 393.538 719.649 392.111C719.42 391.398 719.42 390.922 719.192 390.684C720.564 388.782 722.165 387.831 723.537 387.356C725.138 386.88 726.968 386.88 728.798 387.831C732.686 389.496 737.032 393.537 741.378 398.768C749.154 408.278 756.245 421.355 760.362 428.963" stroke="#5D5FEF"/>
<path d="M487.495 258.253C455.931 272.281 487.724 307.469 513.798 307.469C524.091 308.182 543.075 307.469 552.453 298.196C562.059 289.875 557.942 271.33 549.708 266.574" stroke="#6F3FF5" stroke-miterlimit="10"/>
<path d="M487.266 243.512L487.952 271.568C500.989 270.141 506.021 287.26 505.564 287.498L505.793 288.211C555.883 287.973 549.708 289.875 548.564 241.61" stroke="#6F3FF5" stroke-miterlimit="10"/>
<path d="M477.431 236.381C477.431 239.234 479.261 241.849 481.777 242.563L486.58 243.276C488.41 243.514 490.011 242.563 490.926 240.898C491.841 238.521 492.755 234.717 492.755 228.297C492.527 220.689 490.926 218.073 490.011 217.122C489.325 216.409 488.638 216.409 488.638 216.409L483.378 216.647C479.947 216.647 476.974 219.738 477.202 223.542L477.431 236.381Z" stroke="#6F3FF5" stroke-miterlimit="10"/>
<path d="M552.453 203.57C552.453 203.57 556.112 166.242 515.857 166.955C479.49 167.43 481.091 208.563 481.777 216.409" stroke="#6F3FF5" stroke-miterlimit="10"/>
<path d="M548.107 202.142C543.99 190.729 535.755 180.268 519.516 180.744C484.521 181.932 486.58 216.645 486.58 216.645" stroke="#6F3FF5" stroke-miterlimit="10"/>
<path d="M509.681 182.647C509.681 182.647 509.223 189.304 519.287 189.304C526.606 189.304 527.979 188.591 530.266 182.647" stroke="#6F3FF5" stroke-miterlimit="10"/>
<path d="M557.484 236.38V206.898C557.484 204.283 555.425 202.143 552.909 202.143H508.308C505.792 202.143 503.734 204.283 503.734 206.898V236.38C503.734 238.996 505.792 241.135 508.308 241.135H552.909C555.425 241.135 557.484 239.233 557.484 236.38Z" stroke="#6F3FF5" stroke-miterlimit="10"/>
<path d="M517.915 210.227C511.74 210.227 511.511 214.744 511.511 214.744V240.422" stroke="#6F3FF5" stroke-miterlimit="10"/>
<path d="M487.952 271.806L474.915 279.414" stroke="#6F3FF5" stroke-miterlimit="10"/>
<path d="M499.617 303.904C503.277 284.17 479.718 276.562 479.718 276.562" stroke="#6F3FF5" stroke-miterlimit="10"/>
<path d="M886.617 509.326C885.702 514.794 884.559 520.025 883.187 525.493" stroke="#5D5FEF"/>
<path d="M923.899 524.067L919.554 504.809" stroke="#5D5FEF"/>
<path d="M854.139 540.947C860.085 537.619 866.718 535.479 874.953 534.29" stroke="#5D5FEF"/>
<path d="M932.362 531.675C941.511 533.815 949.974 538.57 957.064 544.514" stroke="#5D5FEF"/>
<path d="M929.847 534.766C915.208 539.759 892.336 540.71 876.783 536.43C873.809 535.717 872.666 531.913 874.495 529.297L876.097 526.92C877.24 525.255 879.299 524.542 881.357 525.018C894.852 528.346 909.49 528.822 925.272 523.829C927.559 523.116 930.304 524.067 931.219 526.444L932.134 528.346C933.506 530.962 932.363 534.052 929.847 534.766Z" stroke="#5D5FEF"/>
<path d="M873.351 431.816C872.208 434.431 871.293 437.284 870.835 440.137L866.947 472.472C863.974 490.542 875.639 507.898 893.022 511.227L894.165 511.465C911.548 514.556 928.245 502.43 931.447 484.36L932.591 474.375" stroke="#5D5FEF"/>
<path d="M847.277 397.104C852.767 399.72 862.144 397.58 867.405 399.482C871.522 399.72 868.091 394.013 870.607 391.636C882.272 406.852 893.708 393.3 910.176 396.629C925.501 399.244 932.362 412.321 933.506 423.971C933.506 424.684 933.963 425.397 934.65 425.635C949.288 435.145 947.001 450.6 932.134 476.753C936.251 467.718 936.937 454.404 928.245 448.46C920.011 443.467 913.15 450.362 912.006 459.159C901.713 457.019 900.112 439.187 909.719 433.243C909.947 432.055 909.033 430.866 907.889 430.866C893.251 433.006 873.58 433.481 858.256 427.299C850.937 422.544 845.905 410.894 847.277 397.104Z" stroke="#5D5FEF"/>
<path d="M655.835 12.8882L586.075 138.662H446.325L376.564 12.8882" stroke="#6F3FF5" stroke-miterlimit="10" stroke-linecap="round" stroke-linejoin="round"/>
<path fill-rule="evenodd" clip-rule="evenodd" d="M586.075 113.697H446.325L376.564 239.233L446.325 365.007H586.075L655.835 239.233L586.075 113.697Z" stroke="#6F3FF5" stroke-miterlimit="10" stroke-linecap="round" stroke-linejoin="round"/>
<path fill-rule="evenodd" clip-rule="evenodd" d="M586.075 340.043H446.325L376.564 465.579L446.325 591.353H586.075L655.835 465.579L586.075 340.043Z" stroke="#6F3FF5" stroke-miterlimit="10" stroke-linecap="round" stroke-linejoin="round"/>
<path d="M1 239.233L70.9894 365.007H210.511L280.271 239.233L210.511 113.697" stroke="#6F3FF5" stroke-miterlimit="10" stroke-linecap="round" stroke-linejoin="round"/>
<path d="M210.511 591.353L280.271 465.579L210.511 340.043H70.9894L1 465.579" stroke="#6F3FF5" stroke-miterlimit="10" stroke-linecap="round" stroke-linejoin="round"/>
<path d="M655.835 691.923L586.075 566.387H446.325L376.564 691.923" stroke="#6F3FF5" stroke-miterlimit="10" stroke-linecap="round" stroke-linejoin="round"/>
<path d="M188.782 126.774L258.543 252.31H398.064L468.054 126.774L398.064 1" stroke="#6F3FF5" stroke-miterlimit="10" stroke-linecap="round" stroke-linejoin="round"/>
<path fill-rule="evenodd" clip-rule="evenodd" d="M398.064 227.345H258.543L188.782 353.119L258.543 478.655H398.064L468.054 353.119L398.064 227.345Z" stroke="#6F3FF5" stroke-miterlimit="10" stroke-linecap="round" stroke-linejoin="round"/>
<path d="M23.6438 478.655L93.6332 353.119L23.6438 227.345" stroke="#6F3FF5" stroke-miterlimit="10" stroke-linecap="round" stroke-linejoin="round"/>
<path d="M398.064 705L468.054 579.464L398.064 453.69H258.543L188.782 579.464" stroke="#6F3FF5" stroke-miterlimit="10" stroke-linecap="round" stroke-linejoin="round"/>
<path d="M823.489 113.697L753.729 239.233L823.489 365.007H963.011L1033 239.233" stroke="#5D5FEF" stroke-miterlimit="10" stroke-linecap="round" stroke-linejoin="round"/>
<path d="M1033 465.579L963.011 340.043H823.489L753.729 465.579L823.489 591.353" stroke="#5D5FEF" stroke-miterlimit="10" stroke-linecap="round" stroke-linejoin="round"/>
<path d="M635.936 1L565.947 126.774L635.936 252.31H775.458L845.218 126.774" stroke="#5D5FEF" stroke-miterlimit="10" stroke-linecap="round" stroke-linejoin="round"/>
<path fill-rule="evenodd" clip-rule="evenodd" d="M565.947 353.119L635.936 478.655H775.458L845.218 353.119L775.458 227.345H635.936L565.947 353.119Z" stroke="#5D5FEF" stroke-miterlimit="10" stroke-linecap="round" stroke-linejoin="round"/>
<path d="M1010.36 227.345L940.367 353.119L1010.36 478.655" stroke="#5D5FEF" stroke-miterlimit="10" stroke-linecap="round" stroke-linejoin="round"/>
<path d="M845.218 579.464L775.458 453.69H635.936L565.947 579.464L635.936 705" stroke="#5D5FEF" stroke-miterlimit="10" stroke-linecap="round" stroke-linejoin="round"/>
<path d="M935.107 353.119L939.681 344.798H845.905L850.479 353.119L846.591 360.49H939.224L935.107 353.119Z" fill="#5BF1CD"/>
<path d="M285.532 239.471L280.958 247.792H375.878L371.303 239.471L375.192 232.1H281.644L285.532 239.471Z" fill="#FFE48D"/>
<path d="M592.936 343.133L640.74 257.303H633.192L628.846 249.457L581.271 335.287H588.591L592.936 343.133Z" fill="#5BF1CD"/>
<path d="M280.958 474.138H375.878L371.303 465.816L375.192 458.446H281.644L285.532 465.816L280.958 474.138Z" fill="#FFE48D"/>
<path d="M778.202 257.303H768.824L816.399 343.133L820.745 335.287H830.122L782.548 249.457L778.202 257.303Z" fill="#FFE48D"/>
<path d="M400.809 257.303H391.66L439.463 343.133L443.809 335.287H452.729L405.154 249.457L400.809 257.303Z" fill="#5BF1CD"/>
<path d="M405.154 456.78L453.415 369.999H443.809L439.463 362.153L391.202 448.934H400.809L405.154 456.78Z" fill="#5BF1CD"/>
<path d="M560.686 353.119L565.261 344.798H468.739L473.314 353.119L469.197 360.49H564.803L560.686 353.119Z" fill="#5BF1CD"/>
<path d="M458.676 360.49L462.564 353.119L457.989 344.798H449.069L444.723 352.644L449.069 360.49H458.676Z" fill="#6F3FF5"/>
<path d="M575.325 360.49H583.33L587.676 352.644L583.33 344.798H576.011L571.436 353.119L575.325 360.49Z" fill="#6F3FF5"/>
<path d="M772.942 458.446H762.878L758.99 465.816L763.564 474.138H772.942L777.287 466.292L772.942 458.446Z" fill="#5D5FEF"/>
<path d="M457.989 571.143H449.069L444.723 578.989L449.069 586.835H458.676L462.564 579.465L457.989 571.143Z" fill="#6F3FF5"/>
<path d="M583.33 571.143H576.011L571.436 579.465L575.325 586.835H583.33L587.676 578.989L583.33 571.143Z" fill="#6F3FF5"/>
<path d="M763.564 247.792H772.942L777.287 239.946L772.942 232.1H762.878L758.99 239.471L763.564 247.792Z" fill="#5D5FEF"/>
<path d="M960.495 344.798H950.431L945.857 353.119L949.745 360.49H960.495L964.841 352.644L960.495 344.798Z" fill="#5D5FEF"/>
<path d="M271.122 458.446H261.059L256.713 466.292L261.059 474.138H270.436L275.011 465.816L271.122 458.446Z" fill="#6F3FF5"/>
<path d="M575.325 134.144H583.33L587.676 126.298L583.33 118.452H576.011L571.436 126.773L575.325 134.144Z" fill="#6F3FF5"/>
<path d="M449.069 134.144H458.676L462.564 126.773L457.989 118.452H449.069L444.723 126.298L449.069 134.144Z" fill="#6F3FF5"/>
<path d="M261.059 247.792H270.436L275.011 239.471L271.123 232.1H261.059L256.942 239.946L261.059 247.792Z" fill="#6F3FF5"/>
<path d="M835.383 344.798H826.005L821.888 352.644L826.005 360.49H836.069L839.958 353.119L835.383 344.798Z" fill="#5D5FEF"/>
<path d="M443.809 561.632H452.729L405.154 475.802L400.809 483.648H391.66L439.463 569.478L443.809 561.632Z" fill="#FFE48D"/>
<path d="M203.878 335.287H213.255L217.601 343.133L265.176 257.303H255.798L251.452 249.457L203.878 335.287Z" fill="#FFE48D"/>
<path d="M188.096 344.798H94.3191L98.8936 353.119L94.7765 360.49H187.41L183.521 353.119L188.096 344.798Z" fill="#5BF1CD"/>
<path d="M198.617 344.798L194.043 353.119L197.931 360.49H207.995L212.112 352.644L207.995 344.798H198.617Z" fill="#6F3FF5"/>
<path d="M469.197 586.835H564.803L560.686 579.465L565.261 571.143H468.739L473.314 579.465L469.197 586.835Z" fill="#FFE48D"/>
<path d="M592.936 569.478L640.74 483.648H633.192L628.846 475.802L581.271 561.632H588.591L592.936 569.478Z" fill="#FFE48D"/>
<path d="M656.521 474.138H753.043L748.468 465.816L752.357 458.446H656.979L661.096 465.816L656.521 474.138Z" fill="#FFE48D"/>
<path d="M83.569 344.798H73.5052L69.1594 352.644L73.5052 360.49H84.2552L88.1435 353.119L83.569 344.798Z" fill="#6F3FF5"/>
<path d="M646.458 458.446H638.452L634.106 466.292L638.452 474.138H646L650.574 465.816L646.458 458.446Z" fill="#5D5FEF"/>
<path d="M565.261 118.452H468.739L473.314 126.773L469.197 134.144H564.803L560.686 126.773L565.261 118.452Z" fill="#FFE48D"/>
<path d="M385.942 232.1L381.825 239.471L386.399 247.792H395.548L399.894 239.946L395.548 232.1H385.942Z" fill="#6F3FF5"/>
<path d="M255.798 448.934H265.633L217.601 362.153L213.255 369.999H203.192L251.452 456.78L255.798 448.934Z" fill="#FFE48D"/>
<path d="M439.463 135.808L391.202 222.589H400.809L405.154 230.435L453.415 143.654H443.809L439.463 135.808Z" fill="#FFE48D"/>
<path d="M395.548 474.138L399.894 466.292L395.548 458.446H385.942L381.825 465.816L386.399 474.138H395.548Z" fill="#6F3FF5"/>
<path d="M638.452 232.1L634.106 239.946L638.452 247.792H646L650.574 239.471L646.458 232.1H638.452Z" fill="#6F3FF5"/>
<path d="M588.591 143.654H580.585L628.846 230.435L633.192 222.589H641.197L592.937 135.808L588.591 143.654Z" fill="#FFE48D"/>
<path d="M641.197 448.934L592.937 362.153L588.591 369.999H580.585L628.846 456.78L633.192 448.934H641.197Z" fill="#5BF1CD"/>
<path d="M782.549 456.78L830.809 369.999H820.745L816.4 362.153L768.368 448.934H778.203L782.549 456.78Z" fill="#FFE48D"/>
<path d="M752.357 232.1H656.979L661.096 239.471L656.521 247.792H753.043L748.468 239.471L752.357 232.1Z" fill="#FFE48D"/>
<path d="M287.59 343.132C288.734 345.51 290.106 347.887 291.479 349.789C289.878 355.02 289.649 360.964 290.564 366.67C293.995 386.166 312.064 399.243 330.819 395.677C349.346 392.11 361.925 373.803 358.723 354.307L354.378 321.496" stroke="#6F3FF5" stroke-miterlimit="10"/>
<path d="M296.053 330.769C293.309 331.245 291.25 332.434 289.878 335.287C288.734 337.664 288.505 340.755 288.963 345.035C287.59 343.846 285.989 341.944 284.846 340.042C283.245 337.189 282.559 334.336 283.702 332.196L284.16 331.483L283.473 331.007C280.729 328.63 279.356 325.776 279.356 322.923C279.356 320.07 280.729 316.979 283.931 313.889L284.388 313.413L284.16 312.7C283.473 309.133 283.473 306.994 284.16 305.567C284.846 304.14 286.676 303.189 290.106 302.952H291.25L291.021 301.763C290.564 298.434 292.165 294.868 294.91 292.49C297.654 290.113 301.085 289.162 303.601 290.588L304.745 291.302L304.973 289.875C305.431 286.309 308.862 284.169 312.979 283.693C315.037 283.456 317.096 283.456 318.926 283.931C320.755 284.407 322.128 285.12 323.043 286.309L324.186 287.735L324.872 286.071C325.33 284.882 326.245 283.931 327.846 283.218C329.218 282.505 331.048 282.505 332.878 282.742C336.537 283.218 339.511 285.358 339.739 289.162L339.968 291.302L341.569 289.875C343.856 287.735 347.287 287.735 350.261 289.399C353.234 291.064 354.835 293.917 354.149 297.008L353.92 297.721L354.606 298.197C360.782 301.763 362.383 307.231 361.697 311.986C361.011 316.504 358.037 320.308 354.606 321.735C354.378 321.021 354.378 320.308 354.149 319.595V319.357C353.92 318.168 353.692 316.979 353.005 315.553L352.548 314.84L351.862 315.077C347.287 316.504 340.883 316.266 336.309 314.126L335.165 313.651L334.936 314.84C334.936 314.84 334.936 315.077 334.708 315.315C334.479 315.553 334.021 315.791 333.564 316.028C332.649 316.504 331.277 316.979 329.904 317.455C326.931 318.168 323.729 318.168 321.899 317.455L320.755 316.979L320.527 318.168C320.527 318.168 320.527 318.168 320.527 318.406C320.527 318.644 320.527 318.881 320.298 319.119C320.069 319.595 319.612 320.546 318.926 321.259C317.553 322.923 315.037 324.825 310.234 325.539L309.09 325.776L309.548 326.965C310.234 329.105 311.378 332.434 311.835 335.525C312.064 336.951 312.064 338.378 311.835 339.566C311.606 340.755 311.149 341.468 310.234 341.944C309.09 342.657 308.404 342.657 308.176 342.657C307.947 342.657 307.718 342.419 307.489 341.944C307.261 341.468 307.032 340.517 307.032 339.566C307.032 339.566 307.032 339.566 307.032 339.329C306.803 338.378 306.803 337.427 306.346 336.713C304.973 332.909 301.314 330.294 296.053 330.769Z" stroke="#6F3FF5" stroke-miterlimit="10"/>
<path d="M317.096 395.438C315.266 402.571 312.064 409.228 307.718 414.934C307.718 414.934 326.931 432.528 351.862 414.221C351.862 414.221 339.511 401.382 338.596 392.585" stroke="#6F3FF5" stroke-miterlimit="10"/>
<path d="M307.718 414.935L280.729 428.725" stroke="#6F3FF5" stroke-miterlimit="10"/>
<path d="M378.851 428.725L351.862 414.935" stroke="#6F3FF5" stroke-miterlimit="10"/>
<path d="M145.553 287.023H111.245C111.245 287.023 107.128 287.023 104.383 284.408C102.782 282.743 102.096 280.604 102.096 277.988C102.096 267.765 97.0637 209.752 96.835 207.374C96.835 207.136 97.2924 175.752 126.569 172.662C127.713 172.662 128.856 172.424 130 172.424C156.074 172.424 160.191 204.283 160.42 205.472L162.25 266.338C148.984 271.093 146.011 283.457 145.553 287.023Z" stroke="#6F3FF5" stroke-miterlimit="10"/>
<path d="M146.239 254.925C146.697 257.302 146.468 259.204 145.553 260.631C144.181 262.533 142.122 262.771 141.894 262.771H125.197C119.936 262.771 117.649 259.442 117.191 257.54" stroke="#6F3FF5" stroke-miterlimit="10"/>
<path d="M147.383 234.241L113.532 235.43C112.617 235.43 111.931 235.192 111.245 234.479C110.558 233.765 110.33 233.052 110.101 232.101L109.415 215.696C109.415 214.982 109.644 214.031 110.101 213.556C110.101 213.556 110.101 213.318 110.33 213.318C110.33 213.318 110.33 213.318 110.558 213.318C111.245 212.605 111.931 212.367 112.617 212.367L146.468 211.416C148.298 211.416 149.67 212.843 149.899 214.745L150.585 230.912C150.585 232.576 149.213 234.241 147.383 234.241Z" stroke="#6F3FF5" stroke-miterlimit="10"/>
<path d="M160.877 209.039H164.08C165.681 209.039 167.282 209.514 168.425 210.703C169.569 211.892 170.255 213.318 170.484 215.22L170.941 231.388C171.17 234.954 168.425 237.807 164.994 238.045H161.792" stroke="#6F3FF5" stroke-miterlimit="10"/>
<path d="M98.6648 238.758L96.1488 238.996C92.718 239.234 89.7446 236.619 89.5158 233.052L88.3722 217.122C88.1435 215.458 88.8297 213.794 89.7445 212.367C90.8882 210.941 92.2605 210.228 93.8616 210.228L96.3775 209.99" stroke="#6F3FF5" stroke-miterlimit="10"/>
<path d="M92.0316 211.178C91.8029 204.521 91.8029 165.291 124.282 162.676C135.489 161.725 144.638 164.578 151.5 170.997C164.994 183.361 165.223 205.234 165.223 208.801" stroke="#6F3FF5" stroke-miterlimit="10"/>
<path d="M149.442 212.843L146.926 208.563C145.553 206.423 143.495 205.235 141.665 205.472L118.106 206.661C116.277 206.661 114.447 207.85 113.303 209.752L110.559 214.032" stroke="#6F3FF5" stroke-miterlimit="10"/>
<path d="M102.553 274.898C102.553 274.898 89.5157 273.234 85.6274 306.757" stroke="#6F3FF5" stroke-miterlimit="10"/>
<path d="M162.479 266.339C162.479 266.339 184.207 261.346 203.42 294.394" stroke="#6F3FF5" stroke-miterlimit="10"/>
<path d="M181.92 271.093C181.92 271.093 162.25 269.904 156.074 300.813" stroke="#6F3FF5" stroke-miterlimit="10"/>
<path d="M101.867 279.889C101.867 279.889 96.6061 290.113 94.5476 306.994" stroke="#6F3FF5" stroke-miterlimit="10"/>
</svg>
