<svg width="254" height="378" viewBox="0 0 254 378" fill="none" xmlns="http://www.w3.org/2000/svg">
<path d="M247.017 230.477C247.229 230.405 247.468 230.311 247.682 230.215L248.266 229.976V218.821H244.227C244.306 213.041 244.227 198.087 241.571 187.482L241.703 187.457C243.643 186.956 244.864 185.188 244.467 183.397L241.49 170.069C241.305 169.137 240.668 168.325 239.764 167.824C238.887 167.297 237.798 167.154 236.762 167.369L236.071 167.512C231.527 141.858 211.018 117.399 207.883 113.768L208.361 113.506L175.179 101.085L174.222 74.5706L177.119 74.4747C181.449 74.3316 184.823 71.0594 184.663 67.1661L184.132 53.9325C184.052 52.0455 183.176 50.3018 181.635 49.0359C180.511 48.0962 179.127 47.4839 177.641 47.2597C176.183 47.3851 174.654 47.9161 173.193 47.6506C172.631 47.5473 172.215 46.9926 172.219 46.4983C172.224 45.684 172.251 44.8682 172.214 44.0538C172.202 43.8207 172.21 43.0889 172.105 42.5623C171.759 42.4428 171.465 42.2082 171.357 41.8142C171.314 41.6593 171.28 41.5089 171.239 41.3525C171.227 41.3156 171.216 41.2802 171.211 41.2404C170.761 39.5408 170.381 37.8693 169.911 36.2346C169.027 34.299 167.868 32.4402 166.838 30.5665C166.631 30.1918 166.664 29.8347 166.818 29.5338C164.788 26.561 162.559 23.6222 159.842 21.1318C156.46 18.0307 152.369 15.4401 147.833 13.8925C143.138 12.2888 138.855 12.9645 134.14 12.7668C134.005 12.82 133.866 12.8701 133.702 12.8893C131.739 13.1047 129.796 13.3687 127.909 13.7493C125.812 14.307 123.687 15.0447 121.694 15.7145C120.244 16.3946 118.867 17.2252 117.61 18.3037C114.766 20.7439 112.096 23.628 109.73 26.4474C104.431 32.7646 102.347 39.5983 102.135 47.3732C102.53 47.9663 102.414 48.937 101.473 49.2837C100.855 49.5109 100.133 49.4063 99.4895 49.3384C99.0694 49.2941 98.6443 49.2307 98.2193 49.2233C98.1553 49.2218 97.8665 49.2484 97.7615 49.2307C97.4152 49.7176 96.8589 49.7986 96.3682 49.6482C95.0735 50.0421 93.9001 50.7458 92.9795 51.7107C91.624 53.1447 90.961 54.9844 91.1465 56.8463L92.3411 70.0562C92.6611 73.7341 96.1138 76.5299 100.152 76.5299C100.366 76.5299 100.578 76.5299 100.791 76.5048L104.006 76.2673C105.174 89.0937 106.316 102.518 106.608 108.872L106.529 108.68C105.944 108.895 95.3705 113.1 90.641 133.499L90.4293 133.45C87.4804 147.137 72.5485 164.407 69.3879 167.918C66.4652 165.984 55.6 158.245 49.7004 146.564L49.277 146.731C49.9662 145.92 50.6571 145.06 51.3217 144.152L51.668 143.674L44.6805 133.762L43.8567 134.955C43.8567 134.955 43.8041 135.028 43.7237 135.123C43.4841 131.969 43.4317 129.199 43.4054 126.906C43.325 123.491 43.2987 121.03 42.7145 119.382C42.0499 117.423 40.0839 116.084 37.7996 116.014L35.9386 115.966C34.4518 115.99 33.1226 116.419 32.0871 117.327C31.0516 118.259 30.4937 119.478 30.4937 120.767C30.5199 122.964 30.4658 125.066 30.387 126.595C28.421 123.777 26.5339 119.214 24.9404 113.363C24.5417 111.834 23.319 110.592 21.6993 110.042C20.078 109.493 18.245 109.683 16.8633 110.543L2.30557 118.688C0.33961 119.907 -0.48412 122.152 0.285527 124.159C4.4833 135.171 13.9947 146.492 16.8633 149.764L16.2003 149.813L21.3006 157.218L23.4799 159.869H24.01C24.1708 159.869 25.2326 159.822 26.9064 159.534C28.6607 164.838 36.7362 185.38 58.0435 197.514L58.0697 197.466L58.0959 198.637C58.1238 200.262 59.5843 201.623 61.3911 201.718L74.4883 202.411H74.7016C75.5779 202.411 76.428 202.125 77.0663 201.574C77.7835 200.977 78.1822 200.166 78.1822 199.306L78.2085 198.565C78.5268 198.375 84.6906 194.815 88.3567 191.47V213.828C87.7183 213.733 87.0816 213.613 86.4432 213.519L85.2748 213.303V232.556L86.0461 232.699C86.1248 232.723 87.267 232.962 89.2872 233.32L97.4957 348.166C95.1309 348.525 88.012 349.622 78.8189 350.864C73.1065 351.654 68.7495 353.874 65.8269 357.481C60.354 364.217 61.9228 373.319 62.0016 373.701L62.1345 374.465H126.614V352.25L124.701 349.79L128.075 304.405L135.566 270.272L140.11 269.842C149.489 284.031 165.748 313.698 171.14 355.522C169.892 356.143 168.776 356.884 167.793 357.744C163.649 361.423 161.895 367.204 161.895 377.093V378H210.752L210.806 377.14C210.832 376.687 211.443 365.65 204.058 358.508C201.506 356.049 198.346 354.352 194.573 353.468V232.364C195.316 232.149 196.033 231.935 196.778 231.72L197.469 231.504L197.282 212.204L197.149 212.228C197.097 212.014 196.964 211.822 196.752 211.63C195.848 210.842 193.936 210.723 192.899 210.652V159.892C197.443 164.646 212.613 182.919 215.959 217.937H212.347V229.976L212.931 230.215C212.984 230.238 213.117 230.286 213.356 230.381L209.583 248.345C209.239 250.064 209.928 251.856 211.39 253.002C212.585 253.933 214.18 254.339 215.721 254.172C217.288 253.982 218.696 253.193 219.572 252.023L223.77 246.409C224.753 249.013 226.64 254.221 227.782 258.663C228.314 260.693 230.174 262.175 232.51 262.437C233.521 262.557 234.716 262.629 236.045 262.629C239.87 262.629 244.918 261.984 250.709 259.643C252.861 258.783 254.19 256.8 253.977 254.723C253.552 250.279 252.091 241.226 247.017 230.477Z" fill="white"/>
<path d="M163.05 65.2305C163.876 58.09 163.756 48.5831 156.716 45.777C152.255 44.0007 146.182 44.8048 141.479 44.8667C134.729 44.9538 127.494 44.8062 120.93 46.2889C120.08 46.4807 119.515 46.8732 119.121 47.3409C114.482 49.2352 112.999 53.518 112.357 57.9808C111.727 62.3521 110.503 70.3734 114.372 73.8832C114.072 75.385 115.086 76.9946 117.377 77.1643C119.535 77.3251 121.671 77.1923 123.798 76.9253C130.213 78.4419 137.832 77.5331 144.278 75.8468C144.359 75.8793 144.424 75.9265 144.511 75.9531C147.336 76.8205 150.363 76.524 153.265 76.1109C155.442 75.8011 157.907 75.4455 159.986 74.7625C164.317 73.3388 165.592 68.5381 163.05 65.2305Z" fill="#20E18F"/>
<path d="M173.91 54.052C173.954 54.0746 173.992 54.0973 174.051 54.1153C174.047 54.1048 174.047 54.0927 174.044 54.0822C173.998 54.0731 173.954 54.0625 173.91 54.052Z" fill="#20E18F"/>
<path d="M182.496 66.3767C183.853 58.5605 185.476 44.7295 173.649 47.8276C169.891 48.8131 170.531 53.2833 173.909 54.052C173.362 53.7953 173.845 53.3999 174.043 54.0815C174.235 54.1199 174.401 54.1936 174.611 54.2054C174.37 54.1921 174.193 54.1568 174.05 54.114C174.073 54.1966 174.097 54.2718 174.109 54.3884C174.166 54.9992 174.252 55.5436 174.237 56.1706C174.189 58.1652 173.83 60.1996 173.623 62.1839C173.361 64.6949 172.496 67.681 173.561 70.0164C172.447 71.8074 173.566 74.4733 176.191 74.3656C177.695 74.3037 178.988 74.159 180.263 73.3491C181.769 72.3931 182.836 71.3147 183.412 69.7169C183.885 68.4113 183.41 67.2162 182.496 66.3767Z" fill="#20E18F"/>
<path d="M103.859 63.916C103.085 61.3431 103.172 57.1517 101.7 54.3265C101.731 54.2955 101.757 54.2704 101.788 54.2364C103.392 52.5221 102.369 49.8755 99.7404 49.7929C97.9533 49.7368 96.6651 50.4257 95.7083 51.485C94.0591 51.7933 92.5461 52.7287 91.8126 54.1701C90.8936 55.9759 91.44 58.0074 92.8792 59.139C91.9553 64.4324 92.7447 69.6815 95.6067 74.4025C96.8752 76.493 100.704 77.1393 102.509 75.2022C105.73 71.747 105.105 68.041 103.859 63.916Z" fill="#20E18F"/>
<path d="M124.574 150.148C121.731 149.447 118.706 151.958 119.548 154.732C119.354 156.56 120.756 158.337 122.996 158.588C125.124 158.827 127.079 157.403 127.469 155.624C127.499 155.583 127.543 155.556 127.571 155.512C129.069 153.231 127.261 150.452 124.574 150.148Z" fill="#20E18F"/>
<path d="M242.972 178.624C242.039 175.274 241.572 168.802 236.406 168.719C231.404 168.639 231.256 173.892 232.361 177.211C231.588 177.246 230.867 177.496 230.308 178.114C229.92 178.542 229.786 179.07 230.099 179.573C231.031 181.07 233.14 181.069 234.343 182.363C235.802 183.931 235.191 185.994 237.592 186.86C239.575 187.575 241.818 186.851 243.018 185.282C244.577 183.248 243.572 180.781 242.972 178.624Z" fill="#20E18F"/>
<path d="M76.5611 195.701C75.7784 194.658 74.5443 194.073 73.2068 193.798C72.5078 193.655 71.6544 193.561 70.9389 193.522C70.9258 193.521 70.8913 193.516 70.8749 193.515C70.7764 192.165 69.7886 190.877 67.8472 190.877C65.9518 190.877 64.9721 192.112 64.8359 193.429C63.7118 193.465 62.6435 193.934 62.2529 194.967C60.5955 194.464 58.3948 195.358 58.362 197.304C58.3095 200.455 61.3963 200.992 64.2451 201.091C65.2298 201.126 66.2078 201.061 67.1892 201.073C68.4757 201.089 69.1174 201.412 70.3203 201.662C71.789 201.966 73.0903 201.825 74.4803 201.324C77.0879 200.384 78.2334 197.928 76.5611 195.701Z" fill="#20E18F"/>
<path d="M63.688 373.716L125.11 373.638L125.457 352.918L123.377 350.115L95.1351 349.102L72.0901 353.697L64.6397 360.24L62.3013 371.534L63.688 373.716Z" fill="#C4C1CF"/>
<path d="M163.226 377.065L209.661 376.908L208.969 368.496L201.865 357.357L189.91 353.464L176.655 354.709L166 360.24L162.447 370.443L163.226 377.065Z" fill="#C4C1CF"/>
<path d="M78.2076 196.415C77.9943 195.006 76.7455 193.86 75.1258 193.693L71.486 193.311L69.3067 190.85L67.8462 189.203L67.8199 189.179L64.9759 193.335L61.4691 193.406C60.0086 193.454 58.7597 194.289 58.2822 195.484C58.1493 195.819 58.0688 196.201 58.0688 196.607V197.467L58.0967 198.637C58.1229 200.262 59.5835 201.623 61.3903 201.719L74.4874 202.411H74.7008C75.5771 202.411 76.4271 202.125 77.0655 201.576C77.7826 200.979 78.1814 200.166 78.1814 199.307L78.2076 198.566V198.541L78.234 196.87C78.234 196.727 78.2339 196.56 78.2076 196.415ZM76.1876 199.282C76.1876 199.664 76.0284 199.999 75.71 200.261C75.4179 200.5 74.9929 200.62 74.5941 200.62L61.5232 199.927C60.7257 199.879 60.1153 199.307 60.089 198.59L60.0628 196.584C60.0628 195.843 60.6994 195.222 61.5232 195.198L66.0935 195.102L68.0316 192.283L70.4226 195.006L74.8862 195.461C75.6837 195.557 76.2417 196.129 76.2417 196.846L76.1876 199.282Z" fill="#24048F"/>
<path d="M244.465 183.397L241.489 170.069C241.304 169.137 240.666 168.325 239.763 167.824C238.885 167.299 237.797 167.154 236.76 167.369L236.069 167.513L234.131 167.943L233.706 168.038C231.766 168.492 230.517 170.164 230.81 171.933L231.42 175.754L227.436 180.531L229.321 181.056H229.347L233.281 182.131L234.449 185.69C234.927 187.22 236.494 188.198 238.168 188.198C238.514 188.198 238.859 188.174 239.205 188.08L239.656 187.96L241.57 187.482L241.703 187.459C243.641 186.957 244.863 185.188 244.465 183.397ZM241.171 185.739L238.673 186.36C237.664 186.599 236.627 186.072 236.361 185.188L234.901 180.699L230.729 179.551L233.493 176.232L232.776 171.694C232.643 170.81 233.253 169.997 234.183 169.782L237.239 169.113C237.743 168.994 238.275 169.09 238.7 169.329C239.151 169.591 239.443 169.973 239.55 170.428L242.525 183.756C242.712 184.616 242.128 185.5 241.171 185.739Z" fill="#24048F"/>
<path d="M204.057 358.51C201.506 356.049 198.346 354.352 194.573 353.469C193.935 353.302 193.27 353.182 192.581 353.087C191.171 352.848 189.684 352.728 188.143 352.704C181.74 352.634 176.799 353.278 173.026 354.711C172.362 354.95 171.725 355.213 171.141 355.524C169.892 356.145 168.776 356.885 167.793 357.746C163.648 361.424 161.895 367.204 161.895 377.093V378H210.752L210.805 377.14C210.832 376.687 211.443 365.652 204.057 358.51ZM163.887 376.209C163.913 374.92 163.94 373.701 164.02 372.578C164.073 371.957 164.127 371.36 164.206 370.787C164.818 365.174 166.411 361.494 169.201 359.035C170.45 357.912 171.991 357.029 173.85 356.335C174.434 356.12 175.046 355.929 175.709 355.738C178.978 354.83 183.069 354.448 188.117 354.497C190.428 354.544 192.553 354.807 194.493 355.308C195.131 355.475 195.768 355.667 196.38 355.906C198.771 356.766 200.842 358.032 202.596 359.703C205.996 362.999 207.563 367.3 208.254 370.787C208.387 371.408 208.468 372.03 208.546 372.578C208.76 374.13 208.812 375.421 208.839 376.209H163.887Z" fill="#24048F"/>
<path d="M208.866 370.794H163.664V372.586H208.866V370.794Z" fill="#24048F"/>
<path d="M190.757 362.071H178.794C177.026 362.071 175.449 360.948 174.865 359.277L173.364 354.956L175.267 354.424L176.767 358.743C177.086 359.662 177.903 360.28 178.794 360.28H190.757C191.553 360.28 192.285 359.796 192.669 359.02L194.832 354.621L196.653 355.344L194.49 359.744C193.781 361.18 192.352 362.071 190.757 362.071Z" fill="#24048F"/>
<path d="M126.612 352.25V374.465H62.1344L62.0014 373.701C61.921 373.319 60.3538 364.218 65.8267 357.481C68.7494 353.874 73.1063 351.654 78.8188 350.865C88.0102 349.622 95.1308 348.525 97.4955 348.166C98.0272 348.07 98.3192 348.023 98.3192 348.023L98.6639 349.79C98.6376 349.79 98.2914 349.861 97.6284 349.957C95.0782 350.363 88.0907 351.415 79.1109 352.632C77.1975 352.896 75.4711 353.325 73.9039 353.946C73.771 353.994 73.6381 354.042 73.5051 354.113C71.0337 355.116 69.0153 356.598 67.4481 358.508C65.0834 361.423 64.207 364.862 63.887 367.729C63.8345 368.35 63.782 368.948 63.782 369.52C63.7279 370.882 63.8082 371.981 63.8607 372.674H124.62V352.8L123.319 351.152L122.521 350.124L124.169 349.097L124.701 349.79L126.612 352.25Z" fill="#24048F"/>
<path d="M141.969 269.651L140.108 269.842L135.565 270.272L128.074 304.407L124.7 349.79L124.593 351.199L123.318 351.152L103.951 350.245L103.445 350.22L97.6278 349.957L97.5736 349.146L97.4949 348.166L89.2847 233.32V233.248L91.277 233.153L91.3048 233.679L96.3526 304.095L96.4855 305.886L99.5133 348.237L122.734 349.336L126.108 304.168L133.891 268.648L138.966 268.146L141.145 267.931L141.755 267.86L141.888 269.054L141.969 269.651Z" fill="#24048F"/>
<path d="M173.265 356.478L171.299 356.67C171.245 356.286 171.193 355.904 171.139 355.522C165.746 313.697 149.487 284.03 140.108 269.842C139.709 269.244 139.339 268.672 138.966 268.147C135.566 263.131 133.282 260.478 133.201 260.384L134.768 259.284C134.849 259.404 137.399 262.341 141.145 267.931C141.383 268.29 141.649 268.672 141.889 269.054C151.374 283.385 167.553 313.076 173.026 354.711C173.105 355.308 173.185 355.881 173.265 356.478Z" fill="#24048F"/>
<path d="M194.573 231.792H192.581V354.019H194.573V231.792Z" fill="#24048F"/>
<path d="M197.282 212.204L197.149 212.228L196.007 212.563C195.981 212.563 195.741 212.635 195.316 212.729H195.264C194.758 212.873 193.962 213.064 192.899 213.303C192.315 213.423 191.65 213.566 190.907 213.709C177.915 216.36 140.986 221.974 90.349 214.14C89.7122 214.044 89.0476 213.948 88.3568 213.829C87.7184 213.733 87.0816 213.613 86.4433 213.519L85.2749 213.303V232.556L86.0445 232.699C86.125 232.723 87.2671 232.962 89.2873 233.32C89.8715 233.415 90.5623 233.536 91.3057 233.679C95.7956 234.443 102.916 235.541 111.682 236.473C111.975 236.497 112.293 236.544 112.587 236.569C121.991 237.549 133.201 238.336 145.025 238.336C148.425 238.336 151.88 238.264 155.332 238.121C156.023 238.097 156.688 238.074 157.353 238.025C169.227 237.453 181.343 235.924 192.581 232.915C193.244 232.746 193.908 232.556 194.573 232.364C195.316 232.149 196.033 231.935 196.778 231.72L197.468 231.504L197.282 212.204ZM87.2671 231.122V215.476C146.407 225.079 187.666 216.433 195.316 214.593L195.449 230.215C152.597 243.137 94.5993 232.556 87.2671 231.122Z" fill="#24048F"/>
<path d="M107.298 110.33C107.272 110.33 107.058 110.424 106.66 110.639C103.684 112.264 91.2782 120.934 90.4003 152.225C90.374 152.799 90.3739 153.42 90.3739 154.017C90.3477 154.59 90.3477 155.164 90.3477 155.76V215.286H88.3555V155.76C88.3555 151.126 88.5951 146.923 89.0201 143.149C89.391 139.589 89.949 136.364 90.6398 133.499C95.3693 113.1 105.942 108.895 106.527 108.68L106.607 108.872L106.925 109.517L107.298 110.33Z" fill="#24048F"/>
<path d="M197.256 212.73H195.264C195.105 212.659 194.015 212.467 192.899 212.443C192.766 212.42 192.607 212.42 192.474 212.42C192.448 212.42 192.448 212.42 192.448 212.42V210.629C192.554 210.629 192.714 210.652 192.899 210.652C193.936 210.723 195.848 210.843 196.752 211.632C196.964 211.822 197.097 212.014 197.149 212.228C197.23 212.396 197.256 212.563 197.256 212.73Z" fill="#24048F"/>
<path d="M193.807 308.865L177.398 307.095L177.155 306.683C177.026 306.462 163.962 284.055 155.243 237.712L157.209 237.413C165.232 280.057 176.893 302.206 178.68 305.429L194.045 307.087L193.807 308.865Z" fill="#24048F"/>
<path d="M95.7646 305.912L95.7188 304.121L102.237 303.98C103.476 299.448 110.598 271.826 110.598 236.47H112.59C112.59 275.24 104.068 304.795 103.983 305.088L103.793 305.739L95.7646 305.912Z" fill="#24048F"/>
<path d="M107.239 152.234H89.936V154.025H107.239V152.234Z" fill="#24048F"/>
<path d="M192.893 162.164H190.9C190.9 161.413 190.526 160.723 189.758 160.055C181.83 153.137 141.032 154.177 140.619 154.182L140.557 152.39C142.28 152.351 182.618 151.328 191.147 158.768C192.307 159.777 192.893 160.921 192.893 162.164Z" fill="#24048F"/>
<path d="M124.01 142.003C117.048 142.003 111.364 147.209 111.364 153.634C111.364 160.061 117.048 165.292 124.01 165.292C130.997 165.292 136.682 160.061 136.682 153.634C136.682 147.209 130.997 142.003 124.01 142.003ZM124.01 163.5C118.138 163.5 113.356 159.058 113.356 153.634C113.356 148.212 118.138 143.794 124.01 143.794C129.907 143.794 134.689 148.212 134.689 153.634C134.689 159.058 129.907 163.5 124.01 163.5Z" fill="#24048F"/>
<path d="M107.856 150.13H105.862V155.738H107.856V150.13Z" fill="#24048F"/>
<path d="M141.584 150.13H139.592V155.738H141.584V150.13Z" fill="#24048F"/>
<path d="M123.772 148.643C120.505 148.643 117.875 151.079 117.875 154.065C117.875 157.051 120.505 159.487 123.772 159.487C127.013 159.487 129.67 157.051 129.67 154.065C129.67 151.079 127.013 148.643 123.772 148.643ZM123.772 157.696C121.621 157.696 119.867 156.071 119.867 154.065C119.867 152.059 121.621 150.434 123.772 150.434C125.925 150.434 127.678 152.059 127.678 154.065C127.678 156.071 125.925 157.696 123.772 157.696Z" fill="#24048F"/>
<path d="M244.229 218.821C244.229 219.585 244.201 220.206 244.174 220.612V221.807L243.59 222.022C238.516 224.029 234.133 224.744 230.467 224.744C221.407 224.744 216.651 220.373 216.385 220.11L216.146 219.871V219.728L216.119 219.561C216.067 219.013 216.013 218.486 215.96 217.937C212.612 182.919 197.443 164.646 192.9 159.894C192.103 159.057 191.625 158.627 191.597 158.603L192.475 157.792L192.979 157.314C193.112 157.433 202.756 165.984 210.169 184.592C210.408 185.188 210.62 185.786 210.86 186.383C214.18 195.149 216.943 205.994 218.085 219.083C219.574 220.326 227.623 226.13 242.208 220.612C242.315 217.269 242.607 199.856 239.658 187.96C239.606 187.792 239.578 187.625 239.525 187.459L241.465 187.051C241.491 187.195 241.544 187.339 241.572 187.482C244.229 198.087 244.307 213.041 244.229 218.821Z" fill="#24048F"/>
<path d="M236.284 168.707L234.318 168.947C234.266 168.612 234.212 168.277 234.133 167.943C229.643 142.289 208.787 117.685 206.211 114.748C206.05 114.556 205.945 114.46 205.945 114.437L207.486 113.314C207.512 113.339 207.645 113.482 207.884 113.768C211.019 117.399 231.529 141.858 236.071 167.512C236.151 167.918 236.232 168.3 236.284 168.707Z" fill="#24048F"/>
<path d="M175.178 101.085L174.222 74.5707L173.239 47.245L173.134 44.2826C173.079 43.9241 167.846 9.24239 134.769 12.0838C101.773 14.9268 101.108 45.597 101.108 46.0027C101.108 46.075 101.215 47.1727 101.4 49.036C101.906 54.1244 102.969 64.9694 104.005 76.2674C105.173 89.0937 106.315 102.518 106.609 108.872C106.635 109.54 106.662 110.138 106.662 110.639C106.688 110.902 106.688 111.117 106.688 111.333C106.688 112.622 106.873 113.792 107.246 114.844C107.485 115.512 107.778 116.157 108.176 116.731C108.601 117.399 109.105 117.997 109.717 118.545C113.17 121.604 118.298 121.604 118.484 121.58H156.953L157.033 120.767C157.033 120.624 158.468 107.032 173.691 102.47L184.531 106.53L187.427 107.606L204.138 113.864C199.594 116.827 186.789 126.453 185.461 141.19C184.69 149.813 186.045 154.375 187.639 156.765C187.957 157.241 188.277 157.623 188.595 157.935C189.445 158.771 190.269 159.177 190.906 159.367V213.733H192.9V157.792H192.475L191.917 157.768C191.917 157.768 191.039 157.696 190.056 156.716C188.702 155.354 186.523 151.533 187.427 141.333C188.781 126.334 203.233 116.588 206.209 114.748C206.529 114.556 206.714 114.438 206.74 114.438L207.882 113.768L208.362 113.506L175.178 101.085ZM155.174 119.788H118.484C118.405 119.764 113.968 119.811 111.099 117.256C109.504 115.823 108.68 113.841 108.68 111.333C108.68 101.945 103.34 48.1287 103.102 45.9305C103.102 45.6207 103.713 16.5511 134.956 13.8513C136.204 13.7568 137.426 13.7082 138.595 13.7082C166.464 13.7082 170.981 43.1849 171.168 44.4257L173.186 100.75C158.866 104.955 155.758 116.588 155.174 119.788Z" fill="#24048F"/>
<path d="M133.199 102.15C127.491 102.15 125.066 99.012 124.579 97.3537L126.504 96.889C126.548 97.0321 127.652 100.358 133.199 100.358H151.009C150.985 100.356 152.483 100.204 153.361 99.1359C154.063 98.2773 154.227 97.0204 153.845 95.4005L155.796 95.0331C156.303 97.1856 156.014 98.9323 154.943 100.22C153.504 101.955 151.19 102.14 151.093 102.147L133.199 102.15Z" fill="#24048F"/>
<path d="M164.604 54.4827C164.552 53.3836 164.153 52.3568 163.436 51.5202C162.585 50.4698 161.309 49.7055 159.822 49.4179C159.45 49.3706 159.051 49.3235 158.654 49.3235H158.493L117.473 50.4211C117.314 50.4211 117.155 50.4211 116.996 50.4698C115.64 50.5657 114.418 51.1145 113.461 51.951C113.409 51.9982 113.356 52.0454 113.302 52.0941C112.214 53.1445 111.628 54.5298 111.682 55.9638L112.399 73.0656C112.452 74.476 113.116 75.8127 114.285 76.7687C115.401 77.6996 116.837 78.2012 118.35 78.2012H118.563L159.556 76.8396C162.85 76.7451 165.402 74.2606 165.295 71.2982L164.604 54.4827ZM159.476 75.0485L118.483 76.4102C117.421 76.4825 116.438 76.124 115.64 75.4542C114.871 74.8095 114.418 73.9494 114.392 72.9949L113.674 55.8915C113.648 55.0314 113.94 54.22 114.551 53.5502C114.631 53.4794 114.684 53.4071 114.764 53.3363C114.817 53.2876 114.871 53.2404 114.923 53.2168C115.614 52.5957 116.543 52.2372 117.526 52.2136L158.547 51.1145C160.672 51.0186 162.531 52.5957 162.612 54.5534L163.303 71.3705C163.381 73.3283 161.681 74.9777 159.476 75.0485Z" fill="#24048F"/>
<path d="M184.132 53.9326C184.052 52.0456 183.175 50.3019 181.634 49.036C180.492 48.0815 179.084 47.4604 177.57 47.245C177.064 47.1491 176.534 47.1255 176.002 47.1491L175.577 47.1727L173.239 47.245L171.646 47.2922L172.761 74.6194L174.222 74.5707L177.118 74.4748C181.449 74.3317 184.823 71.0595 184.664 67.1662L184.132 53.9326ZM177.064 72.6838L174.673 72.7561L173.716 49.0124L176.081 48.9401C177.65 48.8929 179.137 49.3709 180.279 50.3505C181.421 51.3051 182.086 52.5959 182.14 54.0049L182.67 67.2385C182.803 70.1286 180.279 72.5643 177.064 72.6838Z" fill="#24048F"/>
<path d="M102.677 48.9399L101.402 49.0358L98.481 49.2276L98.3202 49.2512C97.7097 49.2984 97.0993 49.4179 96.5135 49.5861C95.1596 49.9682 93.937 50.7088 92.9803 51.712C91.6264 53.1445 90.9618 54.9843 91.1473 56.8476L92.3436 70.0561C92.6619 73.734 96.1163 76.5298 100.153 76.5298C100.367 76.5298 100.578 76.5298 100.792 76.5062L104.006 76.2672L105.149 76.1949L102.677 48.9399ZM100.632 74.7136C97.4176 74.9762 94.5754 72.8031 94.3095 69.913L93.1132 56.7031C93.0082 55.3178 93.4857 53.956 94.4949 52.882C95.5042 51.8065 96.9122 51.1617 98.481 51.0422L100.844 50.8756L102.997 74.547L100.632 74.7136Z" fill="#24048F"/>
<path d="M177.568 47.2451V47.6994L175.576 47.6271V47.1727C175.602 43.781 175.125 21.9493 161.071 9.91073C153.872 3.74834 144.201 1.07218 132.325 1.93229C98.5573 4.44032 98.2389 42.0623 98.4785 49.2279C98.5311 49.9434 98.5573 50.3505 98.5573 50.3977L96.5651 50.5409C96.5651 50.4937 96.5388 50.1588 96.5126 49.5863C96.2467 42.8501 96.1662 2.79236 132.166 0.164823C144.652 -0.742495 154.827 2.09894 162.453 8.61983C177.33 21.3282 177.622 43.6615 177.568 47.2451Z" fill="#24048F"/>
<path d="M248.266 218.821V229.976L247.681 230.215C247.468 230.311 247.23 230.405 247.017 230.477C246.406 230.74 245.794 230.979 245.184 231.194C240.243 232.913 235.354 233.534 230.944 233.534C224.036 233.534 218.271 232.029 215.243 231.05C214.393 230.787 213.755 230.55 213.356 230.381C213.116 230.286 212.985 230.238 212.931 230.215L212.347 229.976V217.937H217.183V219.728H214.339V228.806C217.368 229.928 231.954 234.706 246.273 228.829V220.612H243.882V218.821H248.266Z" fill="#24048F"/>
<path d="M253.978 254.723C254.19 256.8 252.862 258.783 250.709 259.643C244.918 261.984 239.87 262.629 236.045 262.629C234.715 262.629 233.521 262.556 232.511 262.437C230.173 262.174 228.314 260.695 227.782 258.663C226.64 254.221 224.753 249.013 223.77 246.409L219.572 252.023C218.696 253.194 217.288 253.982 215.72 254.172C214.179 254.34 212.584 253.935 211.39 253.002C209.929 251.856 209.238 250.065 209.583 248.345L213.356 230.383V230.311L215.322 230.645L215.241 231.051L211.549 248.68C211.309 249.777 211.762 250.925 212.691 251.641C213.462 252.238 214.472 252.501 215.455 252.381C216.464 252.262 217.34 251.76 217.898 251.019L224.328 242.445L224.992 244.116C225.019 244.189 228.1 251.976 229.722 258.257C230.066 259.547 231.235 260.503 232.749 260.67C236.496 261.077 242.527 260.981 249.913 258.018C251.293 257.47 252.117 256.204 252.012 254.889C251.587 250.543 250.151 241.704 245.184 231.194C245.157 231.098 245.103 231.002 245.051 230.908L246.884 230.191C246.936 230.287 246.964 230.383 247.017 230.477C252.091 241.226 253.553 250.279 253.978 254.723Z" fill="#24048F"/>
<path d="M125.239 367.719H62.7354V369.51H125.239V367.719Z" fill="#24048F"/>
<path d="M92.3954 133.785C91.7308 136.819 90.5362 139.996 89.0215 143.149C83.6274 154.424 74.2505 165.363 71.2737 168.708C70.7436 169.281 70.4235 169.615 70.3448 169.711L69.7606 170.332L69.4669 170.165C69.4669 170.165 69.4669 170.165 69.4669 170.14L69.0155 169.878C68.4576 169.544 55.3343 161.518 48.2138 147.926C48.0809 147.734 47.9742 147.521 47.8691 147.305L49.2771 146.731L49.7022 146.565C55.6001 158.245 66.4653 165.984 69.388 167.92C72.5487 164.408 87.4805 147.139 90.4294 133.451L90.6412 133.499L92.3954 133.785Z" fill="#24048F"/>
<path d="M59.1066 195.986L58.0694 197.466L58.0432 197.515C36.736 185.38 28.6604 164.838 26.9062 159.536C26.6403 158.746 26.5073 158.293 26.5073 158.245L28.447 157.815C28.447 157.863 28.58 158.317 28.8459 159.154C30.6264 164.384 38.3311 183.732 58.2828 195.485C58.5486 195.675 58.8145 195.818 59.1066 195.986Z" fill="#24048F"/>
<path d="M90.3483 189.346C89.8707 190.014 89.1799 190.731 88.356 191.472C84.69 194.815 78.5262 198.375 78.2078 198.565V198.541L77.1445 197.037C77.1724 197.037 77.5695 196.797 78.2078 196.415C80.5463 194.983 86.1521 191.447 88.356 188.772C88.489 188.629 88.5957 188.486 88.6761 188.366L90.3483 189.346Z" fill="#24048F"/>
<path d="M44.6809 133.762L43.857 134.957C43.857 134.957 43.8029 135.028 43.7241 135.124V135.147C43.4583 135.506 42.8478 136.27 41.9436 137.273C38.4908 141.119 30.4941 148.452 19.1496 149.623C18.7246 149.647 18.2996 149.694 17.8466 149.717L16.8636 149.766L16.2007 149.813L21.301 157.218L23.4803 159.87H24.0103C24.1695 159.87 25.2329 159.822 26.9068 159.536C27.4647 159.44 28.1294 159.32 28.8465 159.153C33.7352 158.031 41.4661 155.188 48.214 147.926C48.5849 147.544 48.9311 147.138 49.2757 146.733C49.9666 145.92 50.6575 145.06 51.3221 144.152L51.6668 143.674L44.6809 133.762ZM24.4353 158.031L22.9749 156.24L19.6271 151.367C33.1771 149.886 41.9436 140.402 44.6529 137.058L49.2757 143.651C40.0318 156.001 27.1463 157.792 24.4353 158.031Z" fill="#24048F"/>
<path d="M43.8829 137.13L41.9432 137.273H41.8907C41.5182 133.237 41.4394 129.725 41.4115 126.93C41.359 123.801 41.3065 121.316 40.8273 119.907C40.4023 118.69 39.1813 117.854 37.7454 117.805L35.8861 117.758C34.9557 117.758 34.1056 118.044 33.4689 118.618C32.8305 119.19 32.4859 119.931 32.4859 120.744C32.5384 125.139 32.2463 129.079 32.2463 129.128L32.0871 131.134L30.5199 129.677C27.013 126.428 24.4891 119.239 23.027 113.768C22.7628 112.814 22.0178 112.073 20.9823 111.715C19.9731 111.356 18.8571 111.476 17.9529 112.048L3.39362 120.195C2.19895 120.934 1.69348 122.319 2.17266 123.587C6.92839 136.054 19.1229 149.431 19.228 149.551L19.1492 149.622L17.687 150.697C17.6082 150.625 17.3162 150.291 16.8633 149.766C13.9947 146.494 4.4833 135.171 0.285527 124.159C-0.48412 122.153 0.33961 119.907 2.30557 118.69L16.8633 110.543C18.245 109.685 20.078 109.493 21.6993 110.042C23.319 110.592 24.5417 111.834 24.9404 113.363C26.5339 119.215 28.421 123.777 30.387 126.596C30.4658 125.066 30.5199 122.965 30.4937 120.767C30.4937 119.478 31.0516 118.259 32.0871 117.328C33.1226 116.42 34.4518 115.99 35.9386 115.967L37.7996 116.014C40.0839 116.086 42.0499 117.423 42.7145 119.382C43.2987 121.03 43.325 123.491 43.4054 126.906C43.4317 129.199 43.4841 131.971 43.7237 135.124V135.147C43.7763 135.792 43.8304 136.46 43.8829 137.13Z" fill="#24048F"/>
<path d="M81.3942 360.51C78.9589 360.51 76.632 359.563 75.0221 357.878L72.311 355.04L73.8225 353.874L76.5334 356.712C77.9267 358.17 80.0338 358.892 82.1557 358.679L96.9234 357.093C99.339 356.832 101.357 355.392 102.186 353.334L103.491 350.102L105.363 350.712L104.06 353.946C102.972 356.642 100.328 358.53 97.158 358.869L82.3903 360.457C82.0572 360.494 81.7241 360.51 81.3942 360.51Z" fill="#24048F"/>
<path d="M163.619 152.975C163.612 151.188 163.712 109.171 187.161 105.974L187.463 107.747C165.691 110.713 165.609 152.548 165.611 152.97L163.619 152.975Z" fill="#24048F"/>
<path d="M97.0851 153.487C97.0228 152.422 95.7099 127.247 107.539 114.543L109.066 115.695C97.7365 127.861 99.0609 153.14 99.074 153.394L97.0851 153.487Z" fill="#24048F"/>
<path d="M114.629 53.6006L112.98 52.5974L116.338 48.1419C118.208 45.6545 120.919 44.166 123.776 44.0524L152.288 42.9208C155.414 42.8042 158.42 44.3017 160.475 47.0546L163.686 51.3655L162.032 52.3642L158.819 48.0534C157.165 45.8301 154.79 44.579 152.375 44.7118L123.865 45.8434C121.643 45.9304 119.502 47.1342 117.987 49.1451L114.629 53.6006Z" fill="#24048F"/>
<path d="M69.2039 191.082L67.3545 190.419C71.444 181.187 69.3105 168.973 69.2892 168.849L71.2552 168.563C71.3487 169.082 73.5017 181.383 69.2039 191.082Z" fill="#24048F"/>
<path d="M210.458 186.706L209.041 185.446C209.32 185.193 215.987 179.263 229.324 179.263C229.416 179.263 229.506 179.263 229.596 179.263L229.581 181.054C229.498 181.054 229.412 181.054 229.33 181.054C216.809 181.054 210.521 186.647 210.458 186.706Z" fill="#24048F"/>
</svg>
