<svg width="451" height="479" viewBox="0 0 451 479" fill="none" xmlns="http://www.w3.org/2000/svg">
<path d="M3.0928 213.21C5.52876 211.456 9.14996 212.091 11.0062 214.736C12.8625 217.381 12.173 220.546 9.41533 222.326C6.65795 224.107 3.35848 223.445 1.5022 220.8C-0.326537 218.464 0.33542 214.99 3.0928 213.21Z" fill="#3700CD"/>
<path d="M354.445 442.884C354.445 429.794 365.444 419.227 379.069 419.227C392.694 419.227 403.692 429.794 403.692 442.884C403.692 455.817 392.694 466.541 379.069 466.541C365.444 466.384 354.445 455.817 354.445 442.884Z" fill="#6F3FF5"/>
<path d="M355.923 446.038C357.401 456.289 366.593 463.86 375.294 465.121C383.995 466.383 391.874 463.071 396.798 457.236C395.157 458.34 388.755 462.283 380.876 461.021C379.069 460.705 372.175 459.601 369.221 454.239C368.236 452.504 368.071 450.927 368.071 450.138C367.251 442.884 373.16 437.521 372.011 436.575C370.862 435.471 364.459 440.991 361.998 439.098C361.669 438.783 361.34 438.31 360.847 437.679C360.847 437.679 359.864 436.102 359.699 434.209C359.371 431.844 360.52 428.847 363.146 426.481C362.161 427.27 354.282 435.156 355.923 446.038Z" fill="#BAB2F4"/>
<path d="M378.905 419.227C365.444 419.227 354.282 429.794 354.282 442.884C354.282 455.817 365.28 466.541 378.905 466.541C392.53 466.541 403.528 455.974 403.528 442.884C403.528 429.794 392.53 419.227 378.905 419.227ZM378.905 464.491C366.429 464.491 356.416 454.713 356.416 442.884C356.416 431.056 366.593 421.277 378.905 421.277C391.381 421.277 401.394 431.056 401.394 442.884C401.394 454.713 391.381 464.491 378.905 464.491Z" fill="#3700CD"/>
<path d="M290.112 364.598C296.641 360.338 299.903 354.009 297.396 350.464C294.89 346.919 287.564 347.499 281.036 351.76C274.506 356.02 271.246 362.348 273.752 365.893C276.259 369.439 283.583 368.859 290.112 364.598Z" fill="#2E00D6" stroke="#2A009D" stroke-width="2" stroke-miterlimit="10"/>
<path d="M262.553 365.271C280.461 352.258 292.318 338.33 289.037 334.163C285.755 329.997 268.577 337.169 250.669 350.183C232.761 363.196 220.904 377.123 224.186 381.291C227.467 385.457 244.645 378.285 262.553 365.271Z" fill="#2E00D6" stroke="#2A009D" stroke-width="2" stroke-miterlimit="10"/>
<path d="M254.649 392.01C261.178 387.75 264.439 381.421 261.933 377.876C259.426 374.331 252.101 374.911 245.573 379.172C239.043 383.432 235.782 389.759 238.289 393.305C240.795 396.85 248.12 396.271 254.649 392.01Z" fill="#2E00D6" stroke="#2A009D" stroke-width="2" stroke-miterlimit="10"/>
<path d="M301.666 383.085C301.29 383.395 300.972 383.844 300.858 384.375C300.745 384.906 300.878 385.422 301.302 385.825C301.522 386.144 301.828 386.268 302.134 386.392C302.338 386.475 302.44 386.516 302.687 386.501C303.24 386.609 303.777 386.481 304.197 386.074C305.095 385.398 305.263 384.196 304.561 383.335C304.239 382.973 303.773 382.668 303.219 382.56C302.58 382.647 302.043 382.777 301.666 383.085Z" fill="#E2E0E7"/>
<path d="M281.795 387.276C281.042 387.894 280.857 388.859 281.458 389.679C281.72 389.902 281.881 390.082 282.188 390.206C282.799 390.454 283.439 390.367 283.961 390C284.714 389.381 284.898 388.417 284.297 387.597C283.976 387.236 283.611 386.972 283.117 387.003C282.709 386.838 282.171 386.967 281.795 387.276Z" fill="#E2E0E7"/>
<path d="M281.946 379.832C282.107 380.013 282.37 380.235 282.676 380.359C282.88 380.441 282.982 380.482 283.127 380.426C283.578 380.493 284.115 380.365 284.492 380.055C284.869 379.746 285.143 379.395 285.214 378.962C285.284 378.528 285.151 378.013 284.829 377.651C284.229 376.831 283.08 376.712 282.326 377.33C281.471 377.908 281.346 379.012 281.946 379.832Z" fill="#E2E0E7"/>
<path d="M264.495 411.56C264.119 411.869 263.946 412.261 263.876 412.694C263.805 413.128 263.982 413.545 264.201 413.865C264.362 414.046 264.625 414.268 264.931 414.392C265.033 414.433 265.237 414.516 265.382 414.459C265.833 414.526 266.269 414.357 266.602 414.145C267.312 413.624 267.54 412.562 266.896 411.839C266.735 411.659 266.472 411.437 266.166 411.313C266.064 411.271 265.86 411.189 265.715 411.246C265.264 411.178 264.829 411.349 264.495 411.56Z" fill="#E2E0E7"/>
<path d="M272.565 394.045C272.899 393.834 273.115 393.343 273.142 393.009C273.212 392.575 273.036 392.158 272.816 391.838C272.494 391.476 272.086 391.311 271.678 391.146C271.227 391.078 270.792 391.249 270.458 391.46C270.082 391.769 269.909 392.161 269.839 392.595C269.768 393.028 269.945 393.445 270.165 393.765C270.325 393.946 270.588 394.168 270.894 394.292C270.996 394.333 271.2 394.416 271.345 394.36C271.797 394.426 272.189 394.354 272.565 394.045Z" fill="#E2E0E7"/>
<path d="M227.561 370.967C224.887 374.04 222.938 376.83 221.538 378.919C218.364 375.208 209.669 363.836 206.496 360.125C198.213 349.727 189.975 339.232 181.692 328.834L172.825 317.853L172.59 317.295C172.413 316.878 171.491 315.696 175.825 309.946C176.163 310.545 176.289 309.441 176.289 309.441C176.707 309.034 176.896 308.879 177.316 308.471C193.703 325.847 214.16 351.452 227.561 370.967Z" fill="#F2F2F4"/>
<path d="M297.3 350.141L296.7 349.321C297.398 349.373 297.559 349.553 297.3 350.141Z" fill="#E2E0E7"/>
<path d="M164.289 288.647C165.603 286.755 167.502 285.445 168.977 283.733C169.945 282.624 170.827 281.712 171.973 281.021C166.265 273.513 161.874 264.923 156.585 257.007C146.286 241.635 132.174 228.646 124.036 212.187C117.853 199.752 115.879 188.675 114.893 183.543C112.4 170.64 112.301 159.4 112.841 151.074C109.738 149.933 105.732 148.657 100.83 148.057C96.9732 147.534 93.4978 147.512 90.6345 147.738C90.3439 147.851 90.1559 148.006 89.8221 148.217C88.1984 152.178 87.1404 155.675 86.6146 158.233C85.5331 162.875 85.5607 165.542 86.1687 167.982C86.3022 168.498 86.4357 169.014 86.5537 169.293C87.0405 173.647 88.01 178.542 89.4034 183.841C91.3741 191.105 93.8181 197.291 96.2858 202.332C114.088 238.063 135.33 269.528 159.301 297.249C159.462 297.43 159.521 297.569 159.682 297.75L160.058 297.441C160.117 297.58 160.277 297.761 160.583 297.885C160.685 297.926 160.685 297.926 160.788 297.967L160.889 298.009C160.858 294.531 162.658 290.988 164.289 288.647Z" fill="white"/>
<path d="M304.235 376.159C303.788 376.901 303.266 377.267 302.47 377.984C301.717 378.602 301.341 378.912 300.717 379.237C298.453 380.283 295.963 379.389 295.555 379.224C294.433 378.769 293.542 378.063 293.075 377.758C292.651 377.356 292.287 377.092 292.126 376.912C291.804 376.551 291.482 376.189 291.145 375.591C290.925 375.271 290.733 374.615 290.627 373.764C289.478 373.645 287.732 373.516 285.735 372.591C283.636 371.626 282.365 370.418 281.518 369.613C281.008 369.406 280.192 369.076 279.274 368.704C278.356 368.332 277.744 368.084 276.913 367.517C276.343 367.171 275.571 366.742 274.68 366.035C274.711 366.51 274.743 366.985 274.672 367.418C274.672 367.418 274.351 367.057 274.029 366.696C274.045 366.933 274.221 367.35 274.151 367.784C274.053 368.552 273.488 369.016 273.3 369.171C273.637 369.769 274.194 370.688 274.375 371.916C274.673 373.423 274.505 374.624 274.348 375.253C274.611 375.475 274.976 375.739 275.399 376.141C276.247 376.946 276.67 377.349 276.831 377.529C277.754 378.71 276.62 381.831 274.404 383.589C272.984 384.631 270.764 385.579 269.626 384.887C269.422 384.805 269.203 384.485 268.328 384.014C267.598 383.489 267.351 383.504 267.131 383.184C266.81 382.823 266.429 382.322 266.307 381.233C265.668 381.321 264.621 381.243 263.557 380.928C261.985 380.406 261.035 379.56 260.408 379.075C260.702 379.772 260.91 380.664 260.988 381.85C261.035 382.562 260.938 383.331 260.926 383.904C261.542 384.961 262.334 386.437 262.766 388.459C263.257 390.621 263.179 392.436 263.053 393.54C264.25 394.372 265.011 395.372 265.451 396.012C266.11 396.972 267.31 398.613 267.263 400.904C267.24 402.049 266.793 402.791 266.62 403.183C266.146 404.261 265.436 404.782 264.828 405.343C264.075 405.962 263.424 406.622 262.306 406.977C261.478 407.22 260.839 407.307 259.603 407.384C259.109 407.415 258.76 407.389 258.207 407.281C258.105 407.239 257.654 407.172 256.94 406.883C255.147 406.041 253.962 404.638 253.962 404.638C252.938 403.414 252.51 402.202 252.361 401.449C251.212 401.33 248.956 400.993 246.724 399.512C244.755 398.253 243.715 396.792 243.436 396.333C241.679 393.773 241.608 391.205 241.631 390.06C241.121 389.853 240.568 389.744 239.767 389.651C238.967 389.558 238.269 389.506 237.63 389.594C237.414 390.084 237.1 391.342 237.485 392.653C237.56 393.029 237.78 393.349 237.94 393.53C237.634 393.406 237.328 393.282 237.022 393.158C232.691 387.709 228.301 382.12 223.969 376.671C224.012 376.572 224.012 376.572 224.055 376.475C225.451 370.574 228.024 367.46 230.139 365.66C233.613 362.68 239.332 360.609 239.128 357.524C239.081 356.812 238.833 356.827 235.436 351.987C233.576 349.387 233.341 348.83 233.191 348.076C233.145 347.364 233.254 346.023 236.639 342.43C238.679 340.253 241.051 337.866 245.025 335.665C248.621 333.773 250.348 332.855 252.109 333.223C256.636 334.133 256.087 340.838 260.136 342.016C264.023 343.014 266.627 337.371 275.366 334.445C275.947 334.218 276.484 334.089 277.167 333.905C279.999 333.204 282.513 332.953 284.345 332.886C284.447 332.927 284.447 332.927 284.592 332.871C288.37 338.212 292.294 343.495 296.072 348.836C295.723 348.81 295.433 348.923 295.083 348.897C293.848 348.974 292.785 348.659 291.926 348.426C292.102 348.845 292.236 349.361 292.224 349.933C292.405 351.161 292.279 352.265 292.036 353.089C294.265 353.761 295.869 354.758 296.76 355.464C297.285 355.908 297.854 356.255 298.454 357.075C299.698 358.618 300.141 360.068 300.35 360.96C300.942 363.163 300.676 365.133 300.405 366.294C301.178 366.723 302.417 367.456 303.34 368.637C304.042 369.499 304.293 370.293 304.411 370.572C304.999 371.965 304.831 373.167 304.819 373.74C305.082 373.961 305 374.967 304.235 376.159Z" fill="#E2E0E7"/>
<path d="M282.823 363.099C286.554 364.725 289.681 367.723 291.211 371.345C294.294 371.439 297.385 373.153 298.896 375.728C299.233 376.326 299.528 377.024 299.226 377.709C298.794 378.689 297.413 378.823 296.409 378.647C294.911 378.502 293.15 378.135 292.271 376.855C291.772 376.076 291.709 375.127 291.066 374.404C290.262 373.501 288.909 373.299 287.7 373.041C285.939 372.673 284.264 372.111 282.847 370.96C282.161 370.335 281.518 369.613 280.745 369.185C279.811 368.576 278.791 368.163 277.815 367.651C275.029 366.061 273.385 362.97 273.777 359.897C273.984 357.787 277.083 352.114 279.954 353.508C282.724 354.861 283.117 360.793 282.823 363.099Z" fill="#F2F2F4"/>
<path d="M266.561 373.832C270.291 375.459 273.418 378.457 274.949 382.078C274.878 382.512 274.592 383.435 273.737 384.012C272.737 384.647 271.572 384.29 270.508 383.975C268.79 383.51 267.637 382.581 266.687 381.735C265.636 380.847 265.62 380.61 264.585 379.959C263.651 379.35 262.631 378.937 261.654 378.426C258.869 376.836 257.225 373.746 257.617 370.671C257.824 368.561 260.923 362.888 263.794 364.282C266.462 365.594 266.855 371.526 266.561 373.832Z" fill="#F2F2F4"/>
<path d="M247.851 386.575C248.942 386.555 251.617 386.484 253.908 388.105C257.09 390.432 258.334 394.978 256.989 399.398C258.531 399.445 260.147 399.869 261.488 400.643C263.297 401.722 264.176 403.002 264.776 403.822C265.055 404.282 265.274 404.602 265.247 404.936C265.122 406.04 262.972 406.556 262.289 406.741C261.607 406.927 259.603 407.385 257.461 406.517C256.747 406.228 255.217 405.608 254.483 404.272C253.648 402.894 254.444 402.177 253.639 401.275C252.674 400.191 251.153 401.19 248.501 400.116C248.093 399.951 246.869 399.455 245.598 398.248C245.335 398.026 244.589 397.262 243.899 395.828C242.357 392.778 243.353 391.334 242.007 389.75C240.661 388.166 239.022 388.888 238.363 387.928C236.487 385.09 245.292 374.916 248.003 376.129C248.776 376.558 249.6 378.508 247.851 386.575Z" fill="#F2F2F4"/>
<path d="M234.668 387.586C234.318 387.56 234.024 383.861 235.345 380.586C238.361 372.917 249.312 370.425 249.488 370.843C249.708 371.162 240.588 373.588 236.702 381.598C235.365 384.635 235.017 387.612 234.668 387.586Z" fill="#F2F2F4"/>
<path d="M285.942 335.265L263.517 346.62L251.356 336.844C254.863 340.343 257.554 343.512 259.296 345.833C264.769 352.784 263.243 352.975 267.41 357.433C269.222 359.322 271.078 361.112 270.603 362.191C270.113 363.031 268.497 362.608 265.767 363.35C262.166 364.431 261.739 366.22 260.256 366.313C255.11 366.538 253.059 343.077 245.943 342.041C244.343 341.855 241.816 342.679 238.047 347.965C244.266 355.68 250.339 363.451 256.558 371.166C255.989 370.819 242.179 363.148 231.045 369.607C227.797 371.525 225.585 374.092 224.244 376.321C225.64 370.42 228.212 367.306 230.326 365.505C233.801 362.526 239.52 360.454 239.316 357.369C239.268 356.657 239.022 356.673 235.623 351.833C233.765 349.233 233.528 348.675 233.38 347.922C233.332 347.21 233.442 345.869 236.827 342.275C238.866 340.099 241.239 337.711 245.213 335.51C248.81 333.619 250.535 332.702 252.296 333.068C256.823 333.978 256.275 340.684 260.323 341.862C264.211 342.859 266.815 337.217 275.554 334.291C276.135 334.064 276.672 333.935 277.354 333.75C280.187 333.05 282.701 332.798 284.533 332.731L285.942 335.265Z" fill="#DAA8C6"/>
<path d="M282.253 350.744C277.048 353.832 276.032 354.228 275.93 354.187C275.769 354.007 280.107 352.069 281.719 348.681C283.029 345.978 282.978 341.454 277.355 333.75C280.23 332.952 282.427 333.149 284.361 333.123L296.802 349.363C296.002 349.27 294.664 349.305 292.946 348.84C293.342 349.578 292.612 349.052 292.57 349.149C292.295 349.5 291.597 349.448 291.189 349.283C290.431 349.092 289.267 348.735 287.886 348.869C285.006 348.857 283.006 350.126 282.253 350.744Z" fill="#CCCCCC"/>
<path d="M297.3 350.141L296.7 349.321C297.398 349.373 297.559 349.553 297.3 350.141Z" fill="#CCCCCC"/>
<path d="M206.872 359.817C198.766 349.837 190.66 339.856 182.513 329.974C181.904 330.537 180.978 331.546 180.331 333.017C179.555 334.78 179.504 336.262 179.465 337.169C179.925 341.858 180.384 346.548 180.844 351.237L188.428 367.587L196.366 378.769C196.326 376.675 196.287 374.58 196.188 372.347C196.733 370.836 197.553 368.974 198.765 367.04C200.887 363.859 203.275 361.708 205.029 360.455C205.711 360.269 206.291 360.043 206.872 359.817Z" fill="#00E0AA"/>
<path d="M271.766 312.319C263.95 302.226 256.033 292.091 248.261 281.9C249.03 281.519 250.089 281.024 251.513 280.793C253.576 280.473 255.279 280.701 256.24 280.975C260.814 282.596 265.344 284.316 269.919 285.938L284.414 297.237L293.54 307.63C290.963 306.932 288.342 306.332 285.867 305.676C283.47 306.207 281.219 306.68 278.822 307.211C277.371 307.777 275.457 308.849 273.676 310.437C272.821 311.015 272.272 311.715 271.766 312.319Z" fill="#00E0AA"/>
<path d="M235.103 331.993L215.151 316.984L211.176 313.181L209.716 309.125L209.402 301.377L209.312 300.763L210.198 300.66L211.276 301.213L219.24 303.052L222.759 305.979L235.103 331.993Z" fill="#00E0AA"/>
<path d="M235.104 331.993L215.151 316.984L211.177 313.18L209.717 309.125L209.403 301.377L235.104 331.993Z" fill="#00E0AA"/>
<path d="M259.439 295.549L271.612 310.756C271.612 310.756 282.878 304.003 287.876 306.027C287.774 305.986 277.126 296.593 259.439 295.549Z" fill="#00E0AA"/>
<path d="M193.227 344.129C197.294 349.356 201.363 354.583 205.432 359.811C205.432 359.811 195.63 368.427 196.267 373.534C195.164 371.124 194.19 368.42 193.433 365.227C191.428 356.679 192.219 349.148 193.227 344.129Z" fill="#00E0AA"/>
<path d="M229.16 271.507C229.16 271.507 224.442 272.945 224.296 273.001C208.775 277.684 186.015 300.449 186.015 300.449C183.874 302.584 180.618 305.883 176.888 310.261C172.118 304.172 167.449 298.125 162.678 292.035C162.721 291.937 162.764 291.839 162.909 291.783C167.372 285.739 174.182 277.643 184.25 270.059C195.927 261.28 207.171 256.482 215.084 253.797L219.297 258.968L229.16 271.507Z" fill="#00E0AA"/>
<path d="M213.298 254.576L213.46 254.756L226.512 271.244L226.952 271.884L228.038 271.054L227.716 270.692L217.912 258.291L217.15 257.291L214.824 254.385L214.283 253.704L213.298 254.576Z" fill="#00E0AA"/>
<path d="M207.795 256.158L221.829 273.965L220.743 274.795L206.709 256.987L207.795 256.158Z" fill="#00E0AA"/>
<path d="M200.135 259.636L214.651 277.986L213.565 278.815L199.049 260.465L200.135 259.636Z" fill="#00E0AA"/>
<path d="M193.091 264.172L207.607 282.522L206.52 283.351L192.004 265.002L193.091 264.172Z" fill="#00E0AA"/>
<path d="M165.434 287.956L179.469 305.764L178.382 306.595L164.391 288.689L165.434 287.956Z" fill="#00E0AA"/>
<path d="M171.232 281.067L185.749 299.416L184.662 300.247L170.145 281.897L171.232 281.067Z" fill="#00E0AA"/>
<path d="M176.833 275.714L191.349 294.065L190.262 294.895L175.746 276.545L176.833 275.714Z" fill="#00E0AA"/>
<path d="M185.136 269.957L199.652 288.307L198.565 289.137L184.049 270.787L185.136 269.957Z" fill="#00E0AA"/>
<path d="M219.153 259.025C217.889 259.437 214.97 260.333 214.826 260.39C199.304 265.072 176.545 287.837 176.545 287.837C174.402 289.972 171.148 293.272 167.316 297.609C165.793 295.606 164.228 293.702 162.807 291.741C167.271 285.697 174.079 277.602 184.148 270.018C195.824 261.238 207.07 256.44 214.982 253.756L219.153 259.025Z" fill="#00E0AA"/>
<path d="M200.374 287.213L200.696 287.574L201.135 288.213C229.532 267.386 236.904 270.025 237.618 270.314L280.111 323.666L281.033 324.847L286.126 331.298C282.839 331.121 274.656 331.964 260.422 341.093L256.734 336.366L255.87 335.324L254.027 332.961C253.909 332.682 253.646 332.46 253.238 332.295C251.359 331.649 246.891 333.881 239.981 338.933L240.843 339.975C244.538 337.316 247.061 335.682 248.888 334.805C249.367 334.537 249.802 334.367 250.136 334.155C252.356 333.208 252.822 333.512 252.822 333.512L253.745 334.693L254.667 335.876L257.696 339.642L258.617 340.824L260.081 342.687L260.603 342.321C261.936 341.476 263.27 340.63 264.56 339.883C273.303 334.764 279.198 333.111 282.933 332.545C283.572 332.458 284.066 332.427 284.459 332.355C286.436 332.232 287.295 332.465 287.397 332.506L289.523 333.136L272.257 311.478L271.393 310.435L259.219 295.229L258.356 294.186L248.171 281.286L247.249 280.104L238.367 268.886C238.002 268.622 235.726 267.239 228.803 269.861C228.368 270.032 227.932 270.202 227.497 270.372C226.046 270.938 224.363 271.759 222.39 272.691C222.057 272.902 221.621 273.073 221.142 273.341C219.271 274.314 217.315 275.485 215.067 276.768C214.734 276.98 214.255 277.248 213.922 277.459C212.067 278.67 210.066 279.939 207.877 281.362C207.544 281.573 207.168 281.882 206.834 282.093C204.967 283.877 202.837 285.439 200.374 287.213Z" fill="#3700CD"/>
<path d="M159.877 296.213C159.834 296.31 159.791 296.409 159.748 296.506C159.721 296.843 159.752 297.317 160.031 297.776C160.09 297.915 160.251 298.096 160.557 298.22C160.659 298.261 160.659 298.261 160.76 298.302C161.78 298.715 163.436 298.231 165.77 296.752C165.958 296.597 166.248 296.484 166.48 296.232L165.762 295.132C165.428 295.344 165.24 295.499 164.949 295.612C162.181 297.261 161.467 296.972 161.263 296.889C161.058 296.806 161.086 296.472 161.086 296.472C161.399 295.213 161.858 293.898 162.564 292.567C162.736 292.175 163.055 291.727 163.227 291.335C163.804 290.297 164.627 289.246 165.451 288.194C165.725 287.843 165.999 287.492 166.275 287.142C167.647 285.388 169.267 283.62 170.945 281.991C171.322 281.682 171.596 281.331 171.973 281.021C173.796 279.335 175.62 277.649 177.213 276.216C177.589 275.906 177.966 275.597 178.197 275.345C181.963 272.251 184.803 270.168 184.846 270.07L185.933 269.24L187.018 268.41C187.062 268.312 189.294 266.791 192.671 264.579C193.004 264.368 193.381 264.059 193.816 263.889C195.628 262.776 197.774 261.451 200.021 260.168C200.355 259.956 200.833 259.688 201.268 259.518C203.328 258.39 205.489 257.301 207.564 256.41C207.999 256.24 208.435 256.07 208.87 255.9C210.655 255.122 212.498 254.483 214.256 254.04C214.793 253.911 215.185 253.84 215.723 253.711C217.292 253.422 218.775 253.33 220.113 253.295C220.113 253.295 220.316 253.377 220.375 253.516C220.434 253.656 220.438 254.465 218.049 256.615C217.861 256.77 217.629 257.023 217.297 257.234L218.159 258.277C218.347 258.122 218.579 257.87 218.767 257.715C220.925 255.817 221.92 254.373 221.551 253.301C221.536 253.063 221.375 252.882 221.214 252.702C220.892 252.341 220.383 252.134 220.178 252.052C220.077 252.01 219.932 252.067 219.829 252.025C207.497 251.648 187.011 266.79 186.113 267.465L183.838 269.084C183.331 269.687 162.642 284.747 159.877 296.213Z" fill="#3700CD"/>
<path d="M88.9791 148.221C85.9278 154.606 85.1954 162.277 86.0517 170.706C91.6912 219.868 156.48 294.375 159.654 298.085L160.031 297.776L160.639 297.214C160.536 297.173 160.317 296.853 159.775 296.171C153.91 289.293 120.939 250.074 101.45 211.351C101.171 210.892 100.995 210.473 100.759 209.917C97.2629 202.843 94.2179 195.836 91.8877 189.119C91.7542 188.603 91.5181 188.046 91.3846 187.53C89.5093 181.69 88.1005 176.154 87.4484 170.81C87.3581 170.196 87.3109 169.484 87.2636 168.772C86.6743 161.375 87.4108 154.514 90.1601 148.815L90.2033 148.717L90.3481 148.66C96.9302 147.632 104.046 148.666 111.519 151.347C112.131 151.595 112.743 151.842 113.355 152.09C118.498 154.058 123.79 156.779 129.173 160.114C129.639 160.418 130.106 160.723 130.572 161.027C136.787 164.93 143.005 169.642 149.254 174.829C149.619 175.092 150.043 175.495 150.408 175.758C184.096 204.067 214.894 244.946 220.135 252.149C220.575 252.789 220.896 253.15 220.956 253.289L221.622 252.867L222.101 252.599C218.821 248.037 140.062 139.469 90.3286 147.613L89.4259 147.479L88.9791 148.221Z" fill="#3700CD"/>
<path d="M214.239 253.802L214.4 253.983L227.716 270.691L228.257 271.373L229.344 270.543L229.023 270.182L219.057 257.6L218.194 256.559L215.868 253.653L215.326 252.972L214.239 253.802Z" fill="#3700CD"/>
<path d="M248.609 334.346L248.99 334.847L251.857 338.433L252.559 339.295L254.887 342.2L255.588 343.061L257.915 345.967L258.618 346.829L260.944 349.734L261.646 350.595L263.972 353.501L264.675 354.363L267.001 357.268L267.704 358.13L270.03 361.035L270.733 361.896L271.435 362.759L273.981 365.984C274.142 366.164 274.201 366.304 274.362 366.484C274.64 366.944 275.005 367.206 275.005 367.206L275.613 366.645L275.989 366.335L275.126 365.293C274.467 364.333 273.82 362.801 273.941 360.887C274.145 357.967 276.18 354.981 280.106 352.068C285.409 348.212 289.857 347.936 292.929 348.602C296.204 349.352 297.958 351.101 298.017 351.241L299.104 350.41L284.866 332.52L284.164 331.658L283.077 332.489L283.238 332.669L284.642 334.393L285.886 335.935L287.451 337.84L288.695 339.383L290.261 341.286L291.504 342.83L293.07 344.734L295.616 347.959C292.191 346.456 286.429 345.623 279.33 350.83C275.07 353.955 272.803 357.193 272.631 360.587C272.561 361.02 272.592 361.495 272.666 361.872L270.881 359.648L269.257 357.604L268.174 356.242L266.55 354.198L265.467 352.836L263.843 350.792L262.76 349.431L261.077 347.247L258.531 344.022L257.287 342.48L254.58 339.073L253.336 337.531L250.731 334.166L250.189 333.485L248.609 334.346Z" fill="#3700CD"/>
<path d="M247.178 280.537L247.606 281.75C247.606 281.75 247.897 281.637 248.391 281.606C251.325 280.946 262.516 279.822 278.067 292.818C279.017 293.664 280.067 294.552 281.017 295.398C284.187 298.298 287.447 301.812 290.943 305.884C287.405 304.913 280.363 304.255 271.554 310.617C271.409 310.673 271.365 310.771 271.221 310.828L272.084 311.87C272.229 311.814 272.272 311.715 272.417 311.659C284.168 303.256 292.712 307.871 292.771 308.01L295.761 309.683L293.595 306.958C268.851 275.806 250.285 279.486 247.512 280.326C247.324 280.481 247.178 280.537 247.178 280.537Z" fill="#3700CD"/>
<path d="M258.917 295.915C268.29 289.089 280.974 295.496 281.075 295.537L281.695 294.402C281.127 294.057 268.094 287.624 258.01 294.97L258.917 295.915Z" fill="#3700CD"/>
<path d="M256.357 336.675C271.222 325.839 281.033 324.847 281.178 324.791L281.04 323.465C280.648 323.537 270.736 324.487 255.494 335.633L256.357 336.675Z" fill="#3700CD"/>
<path d="M269.505 360.591L270.65 359.9C270.65 359.9 268.127 355.53 277.69 348.55C287.295 341.471 292.634 344.904 292.838 344.987L293.662 343.935C293.399 343.712 287.432 339.795 276.827 347.507C266.177 355.318 269.344 360.411 269.505 360.591Z" fill="#3700CD"/>
<path d="M266.696 357.144L267.842 356.453C267.842 356.453 265.319 352.083 274.881 345.102C284.487 338.024 289.826 341.457 290.03 341.54L290.853 340.488C290.591 340.265 284.624 336.348 274.018 344.06C263.412 351.772 266.535 356.964 266.696 357.144Z" fill="#3700CD"/>
<path d="M263.887 353.697L265.032 353.006C265.032 353.006 262.509 348.636 272.072 341.656C281.678 334.577 287.017 338.009 287.221 338.092L288.045 337.04C287.782 336.818 281.814 332.901 271.209 340.613C260.705 348.367 263.871 353.46 263.887 353.697Z" fill="#3700CD"/>
<path d="M261.223 350.194L262.368 349.503C262.368 349.503 259.626 344.812 269.263 338.208C279.131 331.352 284.267 334.702 284.369 334.743L285.192 333.691C284.929 333.47 279.225 329.773 268.502 337.207C257.677 344.6 261.062 350.013 261.223 350.194Z" fill="#3700CD"/>
<path d="M256.672 344.424L258.052 344.29C257.852 342.015 259.122 340.22 259.122 340.22L257.986 339.529C257.986 339.529 256.44 341.674 256.672 344.424Z" fill="#3700CD"/>
<path d="M252.72 339.475L254.101 339.341C253.901 337.067 255.171 335.273 255.171 335.273L254.033 334.581C254.033 334.581 252.489 336.726 252.72 339.475Z" fill="#3700CD"/>
<path d="M172.331 317.883L172.389 318.023L181.213 329.102L182.136 330.283L192.32 343.184L193.184 344.227L205.357 359.434L206.22 360.475L223.444 382.231L223.303 380.096C223.303 380.096 223.239 379.147 223.914 377.342C224.087 376.95 224.302 376.46 224.518 375.969C225.941 372.736 229.275 367.62 236.673 360.918C237.7 359.948 238.916 358.824 240.19 357.839L240.712 357.473L239.147 355.569L238.225 354.387L235.239 350.523L234.317 349.341L233.556 348.34C233.584 348.004 233.826 347.179 234.736 345.931C235.011 345.581 235.285 345.23 235.56 344.879C236.717 343.616 238.352 342.084 240.902 340.115L240.039 339.072C231.853 345.11 232.015 348.293 231.987 348.628L232.045 348.767L234.153 351.352L235.015 352.395L238.703 357.122C225.874 367.975 222.784 375.267 222.146 378.357L217.053 371.907L216.131 370.725L173.637 317.374C173.547 316.759 172.796 309.181 201.339 288.297L200.9 287.657L200.578 287.296C200.201 287.605 199.868 287.816 199.492 288.126C196.985 289.997 194.768 291.755 192.741 293.358C192.364 293.668 192.031 293.88 191.654 294.189C189.627 295.792 187.846 297.38 186.152 298.772C185.775 299.081 185.5 299.432 185.167 299.643C183.198 301.386 181.52 303.016 180.174 304.434C179.9 304.785 179.523 305.094 179.249 305.444C178.323 306.454 177.44 307.368 176.806 308.265C176.531 308.615 176.256 308.966 175.982 309.317C171.444 314.983 172.154 317.466 172.331 317.883Z" fill="#3700CD"/>
<path d="M162.182 292.066L162.724 292.747L165.051 295.652L165.914 296.695L175.879 309.276L176.2 309.637L177.287 308.807L176.746 308.126L163.43 291.417L163.269 291.236L162.182 292.066Z" fill="#3700CD"/>
<path d="M255.852 372.496L256.774 373.678C256.366 373.513 255.915 373.445 255.507 373.28C253.644 372.872 251.479 373.15 249.302 374L249.157 374.056C249.011 374.113 248.909 374.072 248.866 374.169C248.576 374.283 248.286 374.396 247.996 374.509C247.85 374.566 247.705 374.623 247.662 374.721C246.458 375.273 245.269 376.061 244.038 376.948C238.692 380.903 237.025 384.961 236.649 388.273C236.606 388.37 236.606 388.37 236.665 388.51C236.583 389.516 236.645 390.465 236.795 391.218L234.248 387.993L232.683 386.089L231.439 384.546L229.874 382.642L228.631 381.099L227.065 379.194L225.821 377.652L224.417 375.928L224.255 375.748L223.169 376.578L223.872 377.439L238.109 395.33L239.255 394.639C239.196 394.501 237.921 392.482 237.921 389.481C237.963 386.38 239.281 382.295 244.815 378.186C246.423 376.99 247.859 376.186 249.31 375.62C249.6 375.506 249.89 375.393 250.18 375.279C252.024 374.64 253.652 374.492 255.209 374.776C256.869 375.102 258.065 375.932 258.956 376.64C259.058 376.681 259.219 376.861 259.277 377.001L260.097 378.141L260.243 378.084L260.721 377.817L261.243 377.45C261.141 377.409 260.906 376.852 260.219 376.228L260.058 376.047L257.892 373.323L257.249 372.6L256.986 372.378L256.284 371.516L256.064 371.196L253.957 368.611L253.035 367.429L250.928 364.844L250.006 363.662L247.9 361.077L246.977 359.895L244.871 357.31L243.949 356.128L241.843 353.543L240.92 352.362L238.813 349.776L237.892 348.594L235.345 345.369L234.862 344.828L233.776 345.657L234.376 346.478L236.922 349.702L238.166 351.246L240.873 354.651L242.117 356.195L244.663 359.42L246.347 361.602L247.531 363.006L249.155 365.05L250.238 366.412L251.965 368.496L253.047 369.859L254.672 371.902L255.852 372.496Z" fill="#3700CD"/>
<path d="M195.871 378.799L197.935 381.483L197.076 378.248C197.001 377.872 194.674 368.962 206.162 360.337C206.307 360.28 206.35 360.182 206.495 360.125L205.632 359.083C205.487 359.14 205.444 359.238 205.298 359.294C196.65 365.837 195.404 372.491 195.392 376.066C192.128 371.741 189.535 367.804 187.451 364.074C186.776 362.876 186.203 361.72 185.587 360.663C176.716 342.868 180.665 332.805 182.076 330.144C182.292 329.654 182.481 329.499 182.481 329.499L181.386 328.71C181.386 328.71 181.3 328.906 181.154 328.962C179.64 331.582 171.186 347.787 195.871 378.799Z" fill="#3700CD"/>
<path d="M186.188 364.486L187.51 364.214C187.452 364.074 184.477 350.63 193.749 343.763L192.885 342.72C182.903 350.109 185.996 363.831 186.188 364.486Z" fill="#3700CD"/>
<path d="M215.685 371.468L216.951 371.866C216.994 371.767 220.527 362.923 235.436 351.988L234.572 350.945C219.433 362.133 215.857 371.076 215.685 371.468Z" fill="#3700CD"/>
<path d="M232.941 388.503L234.205 388.091L233.624 388.318L234.205 388.091C234.088 387.813 232.066 382.03 241.774 374.992C251.336 368.012 254.989 371.454 255.091 371.495L256.075 370.623C255.914 370.443 251.56 366.139 241.013 373.991C230.45 381.606 232.824 388.225 232.941 388.503Z" fill="#3700CD"/>
<path d="M230.132 385.057L231.395 384.645L230.814 384.871L231.395 384.645C231.277 384.366 229.256 378.582 238.964 371.544C248.526 364.564 252.179 368.007 252.281 368.048L253.265 367.177C253.105 366.996 248.75 362.692 238.203 370.543C227.64 378.158 230.014 384.778 230.132 385.057Z" fill="#3700CD"/>
<path d="M227.368 381.511L228.631 381.098C228.513 380.82 226.492 375.037 236.199 367.999C245.762 361.019 249.415 364.461 249.516 364.503L250.501 363.632C250.34 363.45 245.985 359.147 235.438 366.998C224.875 374.613 227.25 381.232 227.368 381.511Z" fill="#3700CD"/>
<path d="M224.703 378.007L225.967 377.595L225.386 377.822L226.068 377.636C226.068 377.636 224.149 371.894 233.535 364.496C242.877 357.196 246.707 361.056 246.707 361.056L247.692 360.185C247.531 360.004 242.957 355.38 232.672 363.454C222.43 371.43 224.585 377.728 224.703 378.007Z" fill="#3700CD"/>
<path d="M238.2 355.533C238.2 355.533 240.436 354.822 242.621 355.592L243.037 354.375C240.342 353.398 237.816 354.222 237.67 354.279L238.2 355.533Z" fill="#3700CD"/>
<path d="M234.251 350.584C234.251 350.584 236.487 349.873 238.672 350.642L239.088 349.426C236.392 348.449 233.867 349.274 233.721 349.329L234.251 350.584Z" fill="#3700CD"/>
<path d="M101.32 211.645C116.647 188.293 150.204 175.676 150.638 175.505L150.066 174.35C149.776 174.463 115.639 187.308 100.182 210.953L101.32 211.645Z" fill="#3700CD"/>
<path d="M91.8594 189.454C103.938 171.023 130.47 160.986 130.761 160.873L130.231 159.619C129.94 159.732 103.017 169.842 90.6199 188.721L91.8594 189.454Z" fill="#3700CD"/>
<path d="M86.0517 170.706L87.1896 171.398C87.2758 171.202 87.4207 171.145 87.5069 170.949C95.0998 159.707 110.453 153.224 113.398 151.993C113.689 151.879 113.833 151.823 113.833 151.823L113.304 150.569C113.159 150.626 112.578 150.852 111.563 151.249C107.079 153.243 94.6171 159.165 87.3231 168.912C86.9185 169.556 86.4563 170.062 86.0517 170.706Z" fill="#3700CD"/>
<path d="M208.634 255.343L223.033 273.414L221.946 274.243L207.548 256.172L208.634 255.343Z" fill="#3700CD"/>
<path d="M200.974 258.821L215.812 277.532L214.726 278.362L199.888 259.651L200.974 258.821Z" fill="#3700CD"/>
<path d="M193.742 263.512L208.58 282.223L207.494 283.053L192.656 264.342L193.742 263.512Z" fill="#3700CD"/>
<path d="M165.996 286.682L180.395 304.753L179.308 305.584L164.91 287.513L165.996 286.682Z" fill="#3700CD"/>
<path d="M171.533 280.381L186.371 299.092L185.285 299.922L170.447 281.211L171.533 280.381Z" fill="#3700CD"/>
<path d="M178.123 274.967L192.961 293.678L191.874 294.508L177.036 275.797L178.123 274.967Z" fill="#3700CD"/>
<path d="M185.917 269.002L200.755 287.713L199.669 288.543L184.83 269.832L185.917 269.002Z" fill="#3700CD"/>
<path d="M150.095 186.023C149.075 185.61 148.604 184.496 149.035 183.516C149.467 182.536 150.628 182.083 151.648 182.496C152.668 182.909 153.138 184.023 152.707 185.003C152.276 185.983 151.115 186.437 150.095 186.023Z" fill="#3700CD"/>
<path d="M134.916 195.116C133.897 194.703 133.425 193.589 133.857 192.609C134.288 191.629 135.45 191.176 136.469 191.589C137.489 192.002 137.96 193.116 137.528 194.096C137.097 195.076 135.835 195.488 134.916 195.116Z" fill="#3700CD"/>
<path d="M207.298 249.374C206.278 248.961 205.806 247.846 206.238 246.866C206.669 245.887 207.83 245.433 208.85 245.846C209.87 246.259 210.34 247.374 209.909 248.353C209.376 249.292 208.317 249.787 207.298 249.374Z" fill="#3700CD"/>
<path d="M193.341 255.96C192.321 255.547 191.85 254.432 192.281 253.452C192.712 252.473 193.874 252.019 194.894 252.432C195.914 252.845 196.384 253.96 195.953 254.939C195.42 255.878 194.259 256.332 193.341 255.96Z" fill="#3700CD"/>
<path d="M159.209 284.626C158.189 284.213 157.717 283.099 158.149 282.119C158.58 281.139 159.742 280.685 160.761 281.099C161.781 281.512 162.253 282.626 161.821 283.606C161.39 284.587 160.228 285.039 159.209 284.626Z" fill="#3700CD"/>
<path d="M180.255 265.209C179.235 264.796 178.764 263.681 179.195 262.701C179.627 261.721 180.788 261.268 181.808 261.681C182.828 262.094 183.299 263.208 182.868 264.188C182.437 265.169 181.275 265.622 180.255 265.209Z" fill="#3700CD"/>
<path d="M231.06 279.204C230.04 278.791 229.569 277.677 230 276.697C230.432 275.717 231.593 275.264 232.613 275.677C233.633 276.09 234.103 277.204 233.672 278.185C233.197 279.262 232.08 279.618 231.06 279.204Z" fill="#3700CD"/>
<path d="M217.061 285.889C216.041 285.476 215.57 284.361 216.002 283.381C216.433 282.401 217.594 281.949 218.614 282.362C219.634 282.775 220.105 283.889 219.674 284.869C219.243 285.849 218.081 286.302 217.061 285.889Z" fill="#3700CD"/>
<path d="M179.714 316.947C178.694 316.534 178.223 315.42 178.654 314.44C179.085 313.46 180.247 313.007 181.267 313.42C182.287 313.833 182.758 314.948 182.326 315.928C181.895 316.908 180.734 317.36 179.714 316.947Z" fill="#3700CD"/>
<path d="M193.3 303.284C192.28 302.871 191.809 301.756 192.24 300.776C192.672 299.796 193.833 299.342 194.853 299.756C195.873 300.169 196.344 301.283 195.913 302.263C195.481 303.244 194.32 303.697 193.3 303.284Z" fill="#3700CD"/>
<path d="M204.079 295.18C203.059 294.767 202.588 293.652 203.019 292.672C203.451 291.692 204.612 291.238 205.632 291.651C206.652 292.064 207.122 293.179 206.691 294.159C206.158 295.098 204.997 295.552 204.079 295.18Z" fill="#3700CD"/>
<path d="M107.978 216.997C106.958 216.584 106.487 215.47 106.919 214.49C107.35 213.509 108.511 213.057 109.531 213.47C110.551 213.883 111.021 214.997 110.59 215.977C110.057 216.916 108.998 217.41 107.978 216.997Z" fill="#3700CD"/>
<path d="M120.195 205.897C119.175 205.483 118.704 204.369 119.135 203.389C119.567 202.409 120.728 201.955 121.748 202.368C122.768 202.781 123.238 203.896 122.807 204.876C122.274 205.815 121.113 206.268 120.195 205.897Z" fill="#3700CD"/>
<path d="M216.627 301.07C219.947 301.722 222.72 303.885 224.015 306.949L237.144 335.821L211.605 314.393C209.646 312.561 208.426 309.873 208.5 307.247L208.637 299.566L216.627 301.07ZM209.839 307.211C209.791 309.502 210.836 311.772 212.53 313.382L233.441 330.858L222.752 307.362C221.869 305.272 220.174 303.662 218.032 302.794C217.523 302.588 216.868 302.437 216.314 302.329L209.881 301.109L209.839 307.211Z" fill="#3700CD"/>
<path d="M275.365 354.651C275.451 354.455 275.639 354.3 275.784 354.244L275.972 354.089C280.212 349.917 285.727 347.764 292.023 347.658L292.517 347.627L292.694 348.045C292.753 348.185 292.87 348.463 292.886 348.701C293.314 349.913 293.35 351.197 293.138 352.497C295.656 353.055 297.932 354.439 299.454 356.441C301.561 359.026 302.232 362.415 301.405 365.66C302.527 366.114 303.476 366.961 304.28 367.863C305.583 369.546 306.16 371.511 305.893 373.482C305.627 375.453 304.458 377.288 302.85 378.484C300.532 380.201 297.523 380.483 294.974 379.45C293.75 378.955 292.655 378.165 291.792 377.123C291.089 376.262 290.678 375.286 290.454 374.156C286.978 374.134 283.597 372.534 281.388 369.907C280.587 369.814 279.831 369.623 279.015 369.292C277.689 368.755 276.492 367.924 275.57 366.742C275.468 366.701 275.409 366.562 275.307 366.521C272.133 362.81 272.239 357.657 275.365 354.651ZM281.701 368.649L281.949 368.633L282.109 368.814C282.211 368.855 282.169 368.953 282.27 368.994C284.275 371.539 287.394 372.917 290.81 372.8L291.407 372.811L291.497 373.424C291.619 374.513 292.031 375.488 292.733 376.349C294.899 379.074 299.104 379.623 301.944 377.54C303.363 376.499 304.258 375.013 304.497 373.378C304.736 371.743 304.276 370.057 303.194 368.694C302.492 367.832 301.601 367.125 300.581 366.712L300.479 366.671L299.867 366.423L300.126 365.835C301.071 362.869 300.415 359.717 298.512 357.215C297.049 355.351 294.876 354.01 292.314 353.549L291.659 353.399L291.816 352.77C292.129 351.512 292.137 350.129 291.709 348.917C286.112 349.074 281.134 351.1 277.357 354.765C277.271 354.961 277.228 355.059 277.083 355.116L276.851 355.369C273.753 358.039 274.314 362.77 276.641 365.675C277.551 367.43 279.505 368.452 281.701 368.649Z" fill="#3700CD"/>
<path d="M301.344 382.725C301.866 382.358 302.548 382.173 303.247 382.225C303.945 382.276 304.514 382.623 304.996 383.164C305.859 384.207 305.663 385.744 304.577 386.574C304.055 386.94 303.373 387.126 302.674 387.074C302.427 387.089 302.223 387.006 302.019 386.924C301.611 386.759 301.246 386.496 301.027 386.176C300.646 385.675 300.454 385.02 300.509 384.349C300.461 383.637 300.822 383.09 301.344 382.725ZM301.658 384.468C301.631 384.804 301.748 385.082 301.866 385.361C302.027 385.541 302.29 385.763 302.639 385.789C302.988 385.815 303.278 385.702 303.569 385.589C303.757 385.434 303.988 385.181 304.016 384.846C304.043 384.51 304.027 384.274 303.808 383.954C303.749 383.814 303.545 383.731 303.341 383.649C303.239 383.607 303.137 383.566 303.035 383.525C302.686 383.499 302.439 383.514 302.207 383.766C301.874 383.978 301.787 384.174 301.658 384.468Z" fill="#3700CD"/>
<path d="M247.372 374.835L247.517 374.778C247.517 374.778 247.517 374.778 247.56 374.68C247.705 374.623 247.851 374.567 247.894 374.468C247.894 374.468 247.894 374.468 247.996 374.509C248.184 374.355 248.475 374.241 248.764 374.129C248.91 374.072 248.953 373.974 249.055 374.016L249.2 373.958C251.189 373.263 253.531 373.403 255.571 374.229C256.692 374.683 257.728 375.334 258.678 376.18C259.101 376.583 259.525 376.985 259.803 377.445C259.862 377.584 260.066 377.667 260.125 377.806C260.666 378.488 261.122 379.364 261.33 380.257C261.655 381.428 261.836 382.656 261.624 383.956C263.79 386.68 264.418 390.168 263.591 393.412C264.67 393.964 265.458 394.63 266.161 395.492C267.463 397.174 268.04 399.14 267.671 401.069C267.405 403.04 266.338 404.916 264.628 406.071C262.875 407.324 260.871 407.782 258.819 407.529C258.121 407.477 257.364 407.285 256.752 407.038C255.528 406.542 254.433 405.752 253.613 404.612C252.809 403.709 252.338 402.594 252.114 401.465C248.682 401.344 245.504 399.826 243.44 397.144C241.875 395.239 241.063 392.716 241.094 390.188C239.945 390.07 238.779 389.713 237.701 389.161C237.395 389.037 237.03 388.773 236.724 388.649L236.359 388.386L236.257 388.345L236.343 388.149L236.43 387.953C238.437 382.3 242.108 377.783 247.372 374.835ZM241.961 389.039L242.659 389.09L242.604 389.761C242.369 392.206 243.123 394.589 244.586 396.453C246.532 398.857 249.506 400.292 252.777 400.232L253.373 400.243L253.464 400.856C253.644 402.084 254.056 403.059 254.758 403.922C256.924 406.645 261.129 407.195 263.969 405.112C265.389 404.07 266.283 402.585 266.522 400.949C266.761 399.315 266.302 397.628 265.219 396.265C264.517 395.404 263.685 394.836 262.563 394.382L261.951 394.134L262.108 393.504C263.096 390.44 262.527 387.092 260.479 384.647L260.157 384.286L260.185 383.95C260.494 381.881 260.063 379.859 258.76 378.177C256.857 375.674 253.228 374.089 249.961 374.959C249.671 375.073 249.381 375.186 249.09 375.3C248.8 375.413 248.612 375.568 248.321 375.681L248.133 375.836C247.988 375.892 247.843 375.949 247.698 376.006C242.955 378.588 239.602 382.657 238.057 387.804C239.254 388.635 240.666 388.976 241.961 389.039Z" fill="#3700CD"/>
<path d="M256.456 371.124C258.126 367.875 260.629 365.194 263.978 363.318L264.124 363.261C264.269 363.204 264.312 363.106 264.559 363.091C266.328 362.076 268.45 361.896 270.184 362.598C270.286 362.639 270.388 362.68 270.49 362.722C270.694 362.804 271 362.928 271.161 363.109C271.934 363.537 272.561 364.023 273.103 364.704C273.542 365.344 273.939 366.081 274.088 366.835C274.237 367.588 274.284 368.3 274.041 369.125C275.3 370.905 275.646 373.124 274.901 375.362C275.615 375.651 276.039 376.053 276.521 376.596C278.306 378.82 277.537 382.204 274.843 384.23C272.901 385.637 270.489 385.93 268.653 385.186C267.939 384.897 267.21 384.371 266.77 383.731C266.287 383.189 265.993 382.492 265.844 381.739C264.157 381.749 262.541 381.325 261.345 380.494C260.776 380.148 260.352 379.745 259.972 379.245C259.328 378.523 258.975 377.687 258.767 376.795C258.81 376.696 258.708 376.655 258.751 376.557C258.618 376.041 258.528 375.427 258.684 374.798C257.637 374.72 256.676 374.446 255.844 373.878L255.377 373.574L255.593 373.084C255.636 372.986 255.679 372.888 255.765 372.692C255.852 372.496 255.895 372.398 255.981 372.202C256.197 371.712 256.327 371.418 256.456 371.124ZM258.021 373.028C258.472 373.096 259.026 373.204 259.52 373.173L260.363 373.169L260.222 374.035C260.065 374.665 260.155 375.278 260.246 375.892C260.336 376.506 260.528 377.161 260.807 377.621C260.968 377.801 261.086 378.08 261.246 378.261C262.388 379.762 264.369 380.449 266.593 380.31L267.334 380.265L267.382 380.977C267.429 381.689 267.621 382.344 268.002 382.844C269.304 384.526 272.14 384.636 274.168 383.033C276.298 381.471 276.823 378.912 275.521 377.23C275.242 376.771 274.775 376.466 274.163 376.218C274.061 376.176 273.959 376.135 273.959 376.135L273.246 375.846L273.504 375.258C274.41 373.2 274.166 371.024 272.982 369.62L273.445 369.115L272.923 369.48L272.66 369.259L272.79 368.964C273.146 367.608 272.864 366.339 272.103 365.338C270.961 363.836 268.572 362.985 266.336 363.695C266.191 363.752 265.944 363.767 265.755 363.922C265.61 363.979 265.32 364.092 265.132 364.247L264.943 364.402C264.9 364.499 264.798 364.458 264.798 364.458L264.755 364.556L264.653 364.515C261.406 366.432 258.946 369.016 257.48 372.347L257.264 372.837C257.366 372.879 257.672 373.003 258.021 373.028Z" fill="#3700CD"/>
<path d="M263.911 410.976C264.433 410.61 265.115 410.425 265.813 410.477C266.017 410.559 266.264 410.544 266.468 410.627C266.876 410.792 267.241 411.055 267.461 411.375C268.324 412.417 268.128 413.955 267.042 414.785C266.52 415.15 265.838 415.336 265.139 415.284C264.935 415.201 264.688 415.217 264.484 415.135C264.076 414.969 263.711 414.706 263.492 414.386C263.111 413.885 262.919 413.231 262.974 412.56C263.028 411.889 263.389 411.343 263.911 410.976ZM264.327 412.761C264.299 413.097 264.417 413.376 264.578 413.556C264.739 413.737 265.002 413.958 265.351 413.985C265.7 414.01 265.99 413.897 266.281 413.783C266.469 413.629 266.7 413.376 266.728 413.041C266.755 412.706 266.739 412.468 266.477 412.246C266.214 412.025 266.053 411.844 265.704 411.818C265.355 411.792 265.107 411.808 264.876 412.06C264.484 412.132 264.354 412.426 264.327 412.761Z" fill="#3700CD"/>
<path d="M270.019 390.82C270.541 390.454 271.223 390.269 271.922 390.321C272.576 390.471 273.188 390.719 273.671 391.26C274.052 391.76 274.244 392.416 274.189 393.087C274.134 393.758 273.773 394.304 273.252 394.67C272.73 395.036 272.048 395.221 271.35 395.169C271.146 395.087 270.898 395.102 270.694 395.02C270.286 394.855 269.922 394.591 269.702 394.271C269.321 393.771 269.129 393.115 269.184 392.445C269.094 391.831 269.497 391.187 270.019 390.82ZM270.333 392.564C270.306 392.9 270.322 393.136 270.584 393.358C270.745 393.539 271.008 393.761 271.357 393.787C271.706 393.813 271.997 393.7 272.287 393.586C272.475 393.431 272.706 393.179 272.734 392.843C272.761 392.509 272.643 392.23 272.483 392.049C272.322 391.869 272.22 391.827 272.016 391.745C271.914 391.703 271.812 391.662 271.71 391.621C271.361 391.594 271.114 391.61 270.78 391.821C270.549 392.074 270.42 392.368 270.333 392.564Z" fill="#3700CD"/>
<path d="M281.355 386.636C281.876 386.27 282.559 386.084 283.257 386.136C283.956 386.188 284.524 386.534 284.905 387.035C285.768 388.077 285.572 389.614 284.442 390.543C283.733 391.063 282.744 391.125 281.928 390.794C281.52 390.629 281.155 390.365 280.936 390.045C280.072 389.004 280.268 387.466 281.355 386.636ZM281.979 389.314C282.359 389.814 283.16 389.907 283.681 389.542C283.869 389.387 283.913 389.288 283.999 389.092C284.172 388.7 284.097 388.324 283.877 388.004C283.716 387.824 283.614 387.783 283.41 387.7C283.308 387.659 283.206 387.617 283.104 387.576C282.755 387.55 282.508 387.566 282.277 387.818C281.653 388.142 281.598 388.813 281.979 389.314Z" fill="#3700CD"/>
<path d="M281.844 376.789C282.93 375.959 284.531 376.145 285.394 377.187C285.774 377.688 285.967 378.343 285.912 379.014C285.857 379.685 285.496 380.231 284.975 380.597C284.453 380.964 283.77 381.149 283.072 381.096C282.825 381.112 282.621 381.029 282.417 380.947C282.009 380.782 281.644 380.518 281.424 380.199C280.561 379.156 280.757 377.619 281.844 376.789ZM282.468 379.467C282.629 379.647 282.891 379.869 283.241 379.895C283.59 379.921 283.837 379.905 284.17 379.694C284.358 379.54 284.59 379.286 284.617 378.952C284.645 378.616 284.629 378.378 284.366 378.157C284.205 377.977 284.001 377.894 283.899 377.853C283.491 377.688 283.099 377.76 282.766 377.971C282.185 378.197 282.087 378.966 282.468 379.467Z" fill="#3700CD"/>
<path d="M255.761 371.882L257.028 372.28C260.286 363.786 270.517 362.387 270.662 362.33L270.524 361.004C269.987 361.133 259.365 362.603 255.761 371.882Z" fill="#3700CD"/>
<path d="M252.733 368.116L254 368.513C257.259 360.018 267.489 358.62 267.634 358.563L267.497 357.237C266.959 357.366 256.336 358.837 252.733 368.116Z" fill="#3700CD"/>
<path d="M249.747 364.251L251.014 364.648C254.273 356.153 264.503 354.755 264.648 354.698L264.511 353.372C263.93 353.599 253.307 355.069 249.747 364.251Z" fill="#3700CD"/>
<path d="M246.718 360.483L247.986 360.881C251.244 352.386 261.474 350.987 261.619 350.931L261.482 349.606C260.945 349.734 250.322 351.205 246.718 360.483Z" fill="#3700CD"/>
<path d="M243.69 356.717L244.957 357.114C248.216 348.62 258.446 347.221 258.591 347.165L258.453 345.838C257.916 345.968 247.294 347.438 243.69 356.717Z" fill="#3700CD"/>
<path d="M240.661 352.949L241.928 353.346C245.187 344.852 255.417 343.453 255.561 343.397L255.425 342.072C254.887 342.2 244.264 343.67 240.661 352.949Z" fill="#3700CD"/>
<path d="M237.676 349.085L238.943 349.482C242.201 340.987 252.431 339.588 252.577 339.532L252.44 338.206C251.902 338.335 241.279 339.806 237.676 349.085Z" fill="#3700CD"/>
<path d="M137.096 250.498C146.622 262.439 164.388 264.67 176.834 255.509C182.847 251.133 186.74 244.743 187.752 237.532C188.763 230.32 186.75 223.154 182.198 217.385C179.17 213.618 175.199 210.625 170.712 208.807C168.366 207.857 165.993 207.242 163.388 206.88C155.879 205.917 148.415 207.858 142.402 212.235C138.331 215.205 135.311 219.062 133.456 223.276C129.719 232.039 130.76 242.506 137.096 250.498Z" fill="white"/>
<path d="M139.706 231.465C139.354 233.631 139.495 235.768 139.883 237.887C139.958 238.265 140.033 238.641 140.107 239.018L140.167 239.157C140.433 240.189 140.846 241.164 141.359 242.181C141.536 242.598 141.755 242.918 141.932 243.336C142.387 244.213 142.988 245.034 143.63 245.756C146.659 249.523 150.948 252.068 155.823 253.003C156.172 253.03 156.478 253.154 156.929 253.22C157.134 253.303 157.381 253.288 157.628 253.272C160.625 253.564 163.532 253.239 166.246 252.261C166.682 252.09 167.117 251.921 167.552 251.75C169.047 251.086 170.483 250.281 171.859 249.338C180.712 242.878 182.337 230.721 175.621 222.226C173.455 219.502 170.638 217.437 167.476 216.157C161.051 213.554 153.303 214.227 147.436 218.547C147.436 218.547 147.436 218.547 147.393 218.645C147.016 218.954 146.64 219.264 146.263 219.573C142.702 222.748 140.396 226.895 139.706 231.465Z" fill="white"/>
<path d="M167.359 215.878C177.966 220.174 182.91 231.875 178.424 242.067C176.181 247.162 172.011 250.9 167.077 252.827C167.163 252.631 167.104 252.492 167.089 252.255C166.837 251.46 162.953 245.269 163.083 244.974C163.357 244.624 168.018 246.049 169.194 245.834C173.654 244.985 176.858 240.162 176.634 236.03C176.619 235.793 176.458 235.613 176.399 235.473C176.191 231.578 171.796 228.183 167.697 228.485C164.731 228.67 162.449 231.671 160.013 233.109C158.868 233.8 157.926 234.573 157.044 235.486C156.017 236.455 155.232 236.599 153.926 237.109C151.792 237.862 150.733 238.357 149.211 236.354C148.289 235.172 147.787 233.584 146.821 232.5C145.696 231.235 144.151 230.378 142.424 231.296C140.596 232.172 140.707 233.833 141.063 235.479C141.405 236.887 142.633 238.193 143.119 239.544C143.916 241.83 142.739 242.046 140.649 242.701C138.24 237.799 137.948 231.907 140.321 226.518C144.559 216.342 156.751 211.581 167.359 215.878Z" fill="#6F3FF5"/>
<path d="M146.632 217.643C156.05 210.719 169.567 212.5 176.767 221.535C183.966 230.571 182.097 243.554 172.679 250.478C171.071 251.674 169.302 252.689 167.459 253.328C167.314 253.385 167.168 253.442 167.023 253.498C163.772 254.606 160.226 255.017 156.821 254.562C154.871 254.349 153.051 253.843 151.317 253.141C147.951 251.777 144.974 249.532 142.646 246.627C139.179 242.22 137.683 236.881 138.413 231.402C139.184 225.826 142.039 220.979 146.632 217.643ZM139.706 231.465C139.354 233.631 139.496 235.767 139.884 237.887C139.959 238.264 140.033 238.64 140.108 239.017L140.166 239.156C140.433 240.188 140.845 241.163 141.36 242.179C141.536 242.598 141.756 242.918 141.933 243.335C142.388 244.213 142.987 245.033 143.631 245.756C146.66 249.522 150.948 252.067 155.824 253.003C156.173 253.03 156.479 253.154 156.93 253.22C157.134 253.303 157.382 253.288 157.628 253.272C160.625 253.562 163.533 253.239 166.247 252.26C166.681 252.09 167.117 251.92 167.552 251.75C169.047 251.085 170.482 250.281 171.859 249.338C180.712 242.878 182.339 230.72 175.621 222.226C173.456 219.502 170.639 217.437 167.477 216.156C161.051 213.554 153.304 214.226 147.437 218.547C147.437 218.547 147.437 218.547 147.394 218.644C147.017 218.954 146.64 219.263 146.264 219.573C142.703 222.748 140.397 226.895 139.706 231.465Z" fill="#3700CD"/>
<path d="M141.598 211.332C147.944 206.743 155.699 204.689 163.658 205.719C171.516 206.708 178.472 210.564 183.344 216.694C188.158 222.685 190.246 230.228 189.208 237.774C188.169 245.32 184.145 252.004 177.756 256.691C169.005 263.191 157.653 264.137 148.065 260.253C143.475 258.394 139.259 255.415 136.009 251.329C126.146 238.789 128.631 220.859 141.598 211.332ZM137.096 250.498C146.622 262.439 164.389 264.67 176.834 255.509C182.847 251.133 186.741 244.742 187.752 237.532C188.763 230.32 186.75 223.154 182.199 217.385C179.17 213.618 175.2 210.624 170.712 208.807C168.366 207.857 165.993 207.242 163.388 206.88C155.88 205.917 148.416 207.858 142.402 212.235C138.331 215.205 135.312 219.062 133.457 223.276C129.719 232.039 130.761 242.506 137.096 250.498Z" fill="#3700CD"/>
<path d="M169.579 273.354C168.559 272.941 168.089 271.827 168.52 270.847C168.952 269.867 170.112 269.414 171.132 269.827C172.151 270.24 172.623 271.354 172.192 272.334C171.658 273.273 170.599 273.767 169.579 273.354Z" fill="#3700CD"/>
<path d="M156.688 254.046L165.159 247.086L159.705 238.18C158.194 235.605 154.758 234.674 152.017 235.99L150.189 236.865L150.762 238.021L152.589 237.144C154.708 236.156 157.285 236.853 158.458 238.83L163.252 246.776L155.62 252.921L156.688 254.046Z" fill="#3700CD"/>
<path d="M164.841 247.534L168.313 252.751L167.167 253.442L163.695 248.225L164.841 247.534Z" fill="#3700CD"/>
<path d="M163.668 245.558C165.198 246.178 167.673 246.833 170.113 246.206C172.553 245.578 174.479 243.933 175.993 241.313C178.832 236.227 176.968 232.817 175.622 231.233C173.413 228.606 169.408 227.33 166.184 228.103L165.357 228.345L168.632 235.099C168.272 235.646 167.421 237.033 166.099 237.305C165.271 237.548 164.311 237.274 163.318 236.526C161.434 235.07 160.776 234.11 160.583 233.454C160.449 232.939 160.026 232.537 159.473 232.428C158.963 232.221 158.324 232.308 157.904 232.716C156.672 233.603 155.805 234.753 155.637 235.954L156.99 236.156C157.175 235.191 157.767 234.392 158.767 233.759C158.912 233.701 159.058 233.645 159.159 233.686C159.261 233.728 159.364 233.769 159.423 233.908C159.85 235.121 160.874 236.343 162.596 237.618C163.852 238.589 165.264 238.93 166.484 238.616C168.778 238.044 170.002 235.537 170.045 235.44L170.174 235.145L167.353 229.269C169.911 228.92 172.912 230.019 174.536 232.063C176.424 234.328 176.526 237.372 174.71 240.678C173.471 242.946 171.733 244.436 169.728 244.895C166.214 245.78 162.7 243.664 162.7 243.664L161.977 244.757C162.079 244.799 162.751 245.186 163.668 245.558Z" fill="#3700CD"/>
<path d="M160.539 233.553C161.779 231.284 166.208 229.96 166.208 229.96L165.779 228.747C165.634 228.805 160.813 230.201 159.214 233.016L160.539 233.553Z" fill="#3700CD"/>
<path d="M141.923 235.712C142.154 235.458 142.386 235.206 142.822 235.036L145.563 233.721C145.854 233.608 146.042 233.453 146.391 233.48C146.928 233.35 147.583 233.501 148.093 233.708C148.603 233.914 149.027 234.317 149.306 234.775L150.436 236.85L151.051 237.907C151.212 238.088 151.374 238.269 151.68 238.393L156.752 240.794C157.932 241.387 158.564 242.683 158.149 243.899L157.447 246.041C157.247 246.768 156.741 247.37 156.015 247.655C155.289 247.937 154.548 247.984 153.834 247.695L146.126 244.457C145.616 244.25 145.09 243.806 144.811 243.347L144.136 242.15L143.419 241.051L141.967 238.616C141.908 238.476 141.747 238.296 141.731 238.059C141.598 237.543 141.567 237.068 141.68 236.537C141.563 236.259 141.692 235.964 141.923 235.712ZM142.822 238.038L145.624 242.868C145.742 243.146 146.004 243.369 146.208 243.451L153.916 246.688C154.324 246.854 154.673 246.88 155.007 246.668C155.341 246.457 155.674 246.245 155.745 245.812L156.446 243.672C156.603 243.042 156.411 242.388 155.799 242.14L150.726 239.739C150.216 239.533 149.793 239.13 149.557 238.573L147.811 235.441C147.694 235.162 147.431 234.94 147.125 234.816C146.819 234.692 146.367 234.625 146.034 234.836L143.292 236.15C142.959 236.362 142.727 236.614 142.598 236.909C142.63 237.383 142.704 237.76 142.822 238.038Z" fill="#3700CD"/>
<path d="M140.37 239.239L142.598 236.908L141.366 234.793C141.146 234.473 141.072 234.096 141.244 233.704C141.417 233.312 141.546 233.019 141.982 232.848L143.751 231.833C144.084 231.622 144.476 231.55 144.884 231.715C145.293 231.88 145.556 232.102 145.774 232.422L146.744 234.315L147.949 233.764L146.979 231.871C146.641 231.272 146.014 230.787 145.3 230.498C144.543 230.306 143.801 230.353 143.135 230.776L141.365 231.791C140.742 232.115 140.236 232.719 140.037 233.446C139.836 234.174 139.884 234.885 140.323 235.525L141.099 236.763L139.523 238.434L140.37 239.239Z" fill="#3700CD"/>
<path d="M146.618 232.417L150.191 228.668L147.243 217.891L145.878 218.262L148.676 228.286L145.566 231.529L146.618 232.417Z" fill="#3700CD"/>
<path d="M141.933 243.335L144.18 242.052L143.462 240.953L141.214 242.236L141.933 243.335Z" fill="#3700CD"/>
<path d="M33.3669 32.3811C31.7528 29.9034 32.7213 26.4966 35.6269 24.9481C38.5329 23.3996 41.7614 24.3286 43.3758 27.1161C44.9902 29.9033 44.0214 33.0003 41.1158 34.5488C38.5329 36.0973 34.9813 35.1683 33.3669 32.3811Z" fill="#3700CD"/>
<path d="M304.095 92.5134C305.708 95.3519 304.739 98.5057 301.833 100.083C298.93 101.659 295.699 100.713 294.086 97.8748C292.471 95.352 293.439 91.8828 296.345 90.306C298.93 89.0442 302.48 89.9905 304.095 92.5134Z" fill="#3700CD"/>
<path d="M49.5196 398.789C46.7087 400.572 43.3503 399.915 41.4645 397.272C39.579 394.632 40.286 391.463 43.0969 389.68C45.5795 387.921 49.2656 388.55 51.1514 391.194C52.6824 393.556 52.0023 397.029 49.5196 398.789Z" fill="#3700CD"/>
<path d="M213.52 477.446C210.709 479.229 207.351 478.572 205.465 475.929C203.579 473.289 204.286 470.12 207.097 468.337C209.58 466.578 213.266 467.208 215.152 469.851C216.683 472.213 216.003 475.687 213.52 477.446Z" fill="#3700CD"/>
<path d="M432.638 188.403C431.657 198.034 426.756 206.725 418.914 212.834C411.071 218.94 401.024 221.759 391.221 220.583C381.663 219.645 373.086 215.417 366.959 208.605C366.469 208.135 366.224 207.665 365.734 207.431C365.488 206.962 364.998 206.492 364.753 206.022C359.117 198.74 356.666 189.813 357.646 180.654C358.627 171.023 363.528 162.332 371.37 156.224C378.232 151.057 386.564 148.238 395.142 148.238C396.612 148.238 397.838 148.238 399.308 148.474C409.356 149.414 418.424 154.11 424.795 161.862C428.962 166.794 431.657 172.433 432.638 178.305C432.883 179.478 433.128 180.418 433.128 181.594C433.128 182.531 433.128 183.471 433.128 184.411C432.883 185.586 432.883 186.996 432.638 188.403Z" fill="#FF4672"/>
<path d="M357.436 185.55C357.436 192.989 360.119 200.198 364.753 206.242C364.997 206.707 365.485 207.172 365.729 207.637C365.973 208.103 366.461 208.568 366.949 208.801C373.047 215.544 381.584 219.728 391.097 220.659C401.098 221.589 410.855 219.032 418.661 212.985C425.734 207.637 430.369 200.198 432.077 191.594C429.637 195.547 426.222 199.267 422.32 202.29C413.538 209.033 402.806 212.055 391.829 210.893C381.34 209.732 372.071 205.08 365.241 197.641C364.753 197.176 364.266 196.71 364.022 196.245C363.534 195.78 363.29 195.315 362.802 194.85C360.607 191.828 358.655 188.803 357.436 185.55Z" fill="#C64268"/>
<path d="M431.671 180.508C431.671 180.744 431.671 180.745 431.914 180.983C432.156 181.932 432.642 182.408 433.128 183.123C413.938 198.101 389.161 206.662 371.186 209.752C370.7 208.801 369.972 207.85 369 207.135C386.732 204.52 411.995 195.723 431.671 180.508Z" fill="#C64268"/>
<path d="M434.949 179.234C434.705 178.052 434.705 176.872 434.462 175.927C433.243 171.203 431.293 166.716 428.613 162.701C428.125 161.756 427.394 161.047 426.663 160.339C420.083 152.31 410.335 146.641 399.124 145.461C388.401 144.279 377.678 147.351 369.391 153.963C360.862 160.574 355.744 170.023 354.525 180.414C354.282 182.066 354.282 183.721 354.282 185.138C354.282 186.083 354.282 187.025 354.282 187.97C354.769 194.584 357.206 200.723 360.862 206.393C361.593 207.337 362.324 208.282 363.055 209.227C369.879 217.493 379.627 222.453 390.351 223.633C391.813 223.633 393.275 223.87 394.737 223.87C403.998 223.87 412.772 220.798 420.083 215.131C424.226 211.824 427.638 207.81 430.319 203.323C432.756 198.836 434.462 193.874 434.949 188.68C435.436 185.373 435.193 182.303 434.949 179.234ZM432.025 188.443C431.05 198.126 426.176 206.865 418.377 213.004C410.578 219.146 400.586 221.98 390.838 220.798C381.333 219.853 372.803 215.604 366.711 208.755C366.223 208.282 365.98 207.81 365.492 207.572C365.249 207.1 364.761 206.628 364.518 206.155C358.912 198.836 356.475 189.86 357.45 180.649C358.425 170.968 363.299 162.229 371.097 156.087C377.921 150.893 386.207 148.058 394.737 148.058C396.2 148.058 397.418 148.058 398.88 148.294C408.872 149.238 417.889 153.963 424.226 161.756C428.369 166.716 431.05 172.385 432.025 178.289C432.268 179.469 432.512 180.414 432.512 181.594C432.512 182.539 432.512 183.483 432.512 184.428C432.268 185.61 432.268 187.025 432.025 188.443Z" fill="#3700CD"/>
<path d="M442.472 173.426C440.256 175.576 438.041 177.488 435.825 179.401C434.84 180.117 434.102 180.833 433.117 181.551C412.44 197.563 385.362 206.644 366.899 209.034C365.669 209.274 364.438 209.274 363.207 209.512C361.238 209.752 359.268 209.752 357.545 209.752H357.053C350.899 209.752 346.714 208.796 344.498 206.644C342.283 204.493 341.298 202.103 341.791 199.475C342.775 191.828 354.099 184.657 354.591 184.419L354.099 185.135L355.576 187.285C355.33 187.525 354.837 187.763 354.345 188.003C351.145 190.394 345.237 195.172 344.745 199.715C344.498 201.625 345.237 203.059 346.714 204.493C348.191 205.928 352.13 206.884 357.299 206.644C358.53 206.644 359.761 206.644 360.991 206.406C362.222 206.406 363.207 206.168 364.438 206.168C382.9 204.015 411.455 194.934 432.379 177.966C433.363 177.248 434.102 176.532 435.087 175.814C436.81 174.38 438.533 172.708 440.256 171.036C449.118 162.193 447.887 160.042 447.887 159.802C446.656 157.89 437.548 159.564 429.179 162.43C428.44 162.671 427.702 162.908 426.963 163.149L425.979 160.52C426.225 160.52 426.717 160.28 427.209 160.042C433.117 157.89 447.149 153.827 450.349 158.368C452.318 161.236 449.856 166.017 442.472 173.426Z" fill="#3700CD"/>
<path d="M105.128 326.227C105.128 339.445 94.0055 349.923 80.5543 349.923C66.8428 349.923 55.7178 339.197 55.7178 326.227C55.7178 313.006 66.8428 302.531 80.5543 302.531C94.2634 302.283 105.128 313.006 105.128 326.227Z" fill="#00E0AA"/>
<path d="M55.7178 326.916C55.7178 340.038 67.0134 350.931 80.6198 350.931C88.32 350.931 95.2525 347.464 99.8716 342.017C98.3311 342.266 96.7929 342.266 95.2524 342.266C77.7947 342.266 63.4204 328.402 63.4204 311.567C63.4204 310.825 63.4204 310.33 63.4204 309.586C58.5429 314.043 55.7178 320.232 55.7178 326.916Z" fill="#008F6A"/>
<path d="M80.4241 301.518C66.2565 301.518 54.6665 312.637 54.6665 326.226C54.6665 339.813 66.2565 350.931 80.4241 350.931C94.5894 350.931 106.179 339.813 106.179 326.226C106.179 312.637 94.5894 301.518 80.4241 301.518ZM80.4241 348.212C67.8021 348.212 57.7578 338.578 57.7578 326.472C57.7578 314.365 68.0613 304.732 80.4241 304.732C93.0437 304.732 103.088 314.365 103.088 326.472C103.088 338.33 93.0437 348.212 80.4241 348.212Z" fill="#3700CD"/>
<path d="M221.246 23.8571C227.728 32.5992 231.282 43.1297 231.282 54.4547C231.282 83.8601 205.982 107.901 175.038 107.901C164.583 107.901 154.547 105.12 146.185 100.152C129.875 90.8142 118.794 73.7271 118.794 54.4547C118.794 25.0492 144.094 1.0083 175.038 1.0083C193.855 1.0083 210.374 9.75046 220.618 23.2611H220.829C221.037 23.0624 221.037 23.4598 221.246 23.8571Z" fill="#E2B500"/>
<path d="M162.616 94.6265C163.451 94.4285 164.077 94.0322 164.913 93.6358C167.416 93.4379 169.713 93.0415 172.008 92.4472C171.382 92.4472 170.756 92.2491 170.548 92.0509C179.313 87.4939 191.002 79.3707 200.812 67.681C218.135 47.2738 220.638 34.9899 220.43 29.2441C221.264 29.4423 222.1 29.4423 222.934 29.2441C222.934 29.6405 222.934 30.0366 222.934 30.4329C222.726 37.1693 219.177 49.6514 202.899 69.0679C194.341 79.3707 185.366 86.3051 177.434 91.0603C203.733 83.9275 223.769 62.7279 228.153 36.773C230.239 42.3206 231.282 48.2644 231.282 54.4065C231.282 83.9275 206.028 107.901 174.931 107.901C164.495 107.901 154.685 105.127 146.128 100.372C151.764 98.5892 157.19 96.0134 162.616 94.6265Z" fill="#C28F00"/>
<path d="M222.088 23.4237C221.879 23.2234 221.669 23.0232 221.461 22.6227C211.216 8.80887 194.486 0 175.459 0C144.095 0 118.794 24.4247 118.794 54.4548C118.794 74.2748 129.875 91.4921 146.394 101.102C154.968 106.107 164.796 108.91 175.459 108.91C206.824 108.91 232.333 84.4852 232.333 54.4548C232.333 42.8432 228.57 32.2324 222.088 23.4237ZM175.459 106.307C166.467 106.307 158.105 104.305 150.578 100.501C149.323 99.9007 148.068 99.0998 146.813 98.4993C140.331 94.6953 134.895 89.4901 130.503 83.4842C129.875 82.6832 129.458 81.8825 128.831 81.0817C124.022 73.2738 121.094 64.0645 121.094 54.2546C121.094 25.6259 145.35 2.40242 175.251 2.40242C183.405 2.40242 191.141 4.20424 198.25 7.20726C199.297 7.60766 200.133 8.00807 201.177 8.60867C208.495 12.4125 214.978 17.818 219.787 24.4247C220.833 25.826 221.879 27.4277 222.715 29.0292C227.105 36.4368 229.615 45.2457 229.615 54.4548C229.825 83.0837 205.569 106.307 175.459 106.307Z" fill="#3700CD"/>
<path d="M129.308 83.6991V81.2914C129.515 81.2914 156.339 80.2882 180.669 49.7905C204.791 19.6943 198.345 7.45503 198.345 7.25439L200.631 6.05054C201.048 6.65245 208.118 19.6943 182.748 51.1951C157.587 82.6959 130.556 83.6991 129.308 83.6991Z" fill="#3700CD"/>
<path d="M222.872 28.6227C222.662 35.4625 219.097 48.3372 202.533 68.0518C181.775 92.7955 159.758 98.8306 150.532 100.44C148.015 100.842 146.337 100.842 146.128 100.842V98.4282C146.128 98.4282 146.337 98.4282 146.757 98.4282C151.161 98.026 176.951 94.8073 200.435 66.6435C222.242 40.2904 220.775 27.4156 219.726 23.9958C219.517 23.3923 219.308 23.1911 219.308 23.1911L221.404 22.1853H221.613C221.613 22.1853 221.822 22.5875 222.033 22.9899C222.451 23.7946 222.872 25.8062 222.872 28.6227Z" fill="#3700CD"/>
<path d="M385.547 313.731C383.933 311.253 384.901 307.847 387.807 306.298C390.713 304.75 393.941 305.679 395.555 308.466C397.17 311.253 396.201 314.35 393.295 315.899C390.713 317.447 387.161 316.518 385.547 313.731Z" fill="#3700CD"/>
<path d="M215.239 179.611C213.625 177.133 214.593 173.726 217.499 172.178C220.405 170.629 223.633 171.558 225.248 174.346C226.862 177.133 225.893 180.23 222.988 181.779C220.405 183.327 216.853 182.398 215.239 179.611Z" fill="#3700CD"/>
</svg>
