<svg width="228" height="337" viewBox="0 0 228 337" fill="none" xmlns="http://www.w3.org/2000/svg">
<path d="M221.733 205.79C221.923 205.726 222.138 205.642 222.329 205.557L222.854 205.344V195.423H219.228C219.299 190.282 219.228 176.982 216.844 167.55L216.963 167.527C218.704 167.081 219.8 165.509 219.444 163.916L216.771 152.062C216.605 151.233 216.033 150.511 215.222 150.065C214.435 149.596 213.457 149.469 212.528 149.661L211.907 149.788C207.828 126.971 189.418 105.216 186.605 101.987L187.033 101.753L157.248 90.706L156.389 67.1236L158.989 67.0383C162.876 66.9111 165.905 64.0007 165.761 60.5379L165.285 48.7676C165.213 47.0893 164.426 45.5384 163.043 44.4125C162.034 43.5767 160.792 43.0322 159.457 42.8327C158.149 42.9442 156.777 43.4166 155.465 43.1804C154.96 43.0885 154.588 42.5951 154.59 42.1556C154.595 41.4312 154.62 40.7056 154.586 39.9813C154.576 39.774 154.583 39.1232 154.489 38.6547C154.178 38.5484 153.914 38.3398 153.817 37.9894C153.779 37.8516 153.748 37.7178 153.711 37.5787C153.701 37.5459 153.69 37.5144 153.686 37.479C153.282 35.9674 152.941 34.4807 152.519 33.0268C151.725 31.3052 150.685 29.6519 149.76 27.9854C149.575 27.6522 149.604 27.3346 149.743 27.0669C147.92 24.4229 145.92 21.809 143.481 19.5941C140.445 16.8359 136.772 14.5317 132.701 13.1552C128.486 11.7289 124.642 12.3299 120.41 12.1541C120.289 12.2013 120.164 12.2459 120.016 12.263C118.254 12.4546 116.51 12.6894 114.816 13.0279C112.934 13.5239 111.026 14.18 109.238 14.7758C107.936 15.3807 106.7 16.1194 105.571 17.0786C103.019 19.249 100.622 21.8142 98.4977 24.3218C93.7412 29.9405 91.8704 36.0185 91.6804 42.9337C92.0354 43.4612 91.9308 44.3246 91.0867 44.6329C90.5314 44.835 89.8833 44.7419 89.3058 44.6816C88.9287 44.6422 88.5472 44.5858 88.1657 44.5792C88.1082 44.5779 87.849 44.6015 87.7547 44.5858C87.4439 45.0188 86.9445 45.0909 86.5041 44.9571C85.3418 45.3074 84.2886 45.9333 83.4622 46.7915C82.2455 48.0669 81.6503 49.7032 81.8168 51.3592L82.8891 63.1084C83.1764 66.3796 86.2757 68.8662 89.9009 68.8662C90.0924 68.8662 90.2825 68.8663 90.474 68.8439L93.3597 68.6327C94.4085 80.0407 95.4338 91.9802 95.696 97.6317L95.6252 97.4611C95.0993 97.6527 85.6085 101.392 81.3631 119.536L81.173 119.493C78.5259 131.666 65.1225 147.026 62.2854 150.149C59.6619 148.429 49.9088 141.545 44.6132 131.156L44.233 131.305C44.8517 130.583 45.4719 129.818 46.0685 129.011L46.3793 128.586L40.107 119.769L39.3675 120.831C39.3675 120.831 39.3204 120.895 39.2482 120.981C39.0331 118.175 38.9861 115.711 38.9625 113.672C38.8903 110.634 38.8667 108.445 38.3423 106.98C37.7457 105.237 35.981 104.047 33.9305 103.984L32.26 103.942C30.9254 103.963 29.7322 104.345 28.8027 105.152C27.8732 105.981 27.3724 107.065 27.3724 108.212C27.3959 110.166 27.3473 112.035 27.2766 113.395C25.5119 110.889 23.8179 106.83 22.3876 101.626C22.0296 100.267 20.9321 99.1617 19.4782 98.6723C18.0228 98.1842 16.3775 98.3534 15.1372 99.1184L2.06958 106.363C0.304848 107.447 -0.434566 109.444 0.2563 111.228C4.02439 121.023 12.5622 131.092 15.1372 134.003L14.5421 134.046L19.1203 140.632L21.0765 142.99H21.5523C21.6967 142.99 22.6498 142.948 24.1523 142.692C25.727 147.409 32.9759 165.68 52.1022 176.472L52.1257 176.429L52.1493 177.471C52.1743 178.916 53.4854 180.127 55.1072 180.211L66.8637 180.828H67.0552C67.8418 180.828 68.6049 180.573 69.1779 180.084C69.8216 179.552 70.1796 178.83 70.1796 178.065L70.2031 177.407C70.4889 177.237 76.0217 174.071 79.3126 171.096V190.982C78.7395 190.897 78.168 190.791 77.5949 190.707L76.5462 190.515V207.639L77.2385 207.766C77.3092 207.787 78.3345 208 80.1478 208.319L87.5161 310.465C85.3934 310.784 79.0032 311.76 70.7511 312.865C65.6234 313.567 61.7124 315.542 59.0889 318.75C54.1762 324.742 55.5845 332.836 55.6552 333.176L55.7745 333.856H113.654V314.097L111.936 311.91L114.965 271.543L121.69 241.185L125.769 240.802C134.187 253.422 148.782 279.809 153.623 317.008C152.502 317.56 151.5 318.219 150.618 318.984C146.898 322.256 145.323 327.397 145.323 336.193V337H189.179L189.228 336.235C189.252 335.832 189.8 326.016 183.171 319.663C180.88 317.476 178.043 315.967 174.656 315.181V207.469C175.324 207.277 175.968 207.087 176.636 206.895L177.256 206.704L177.089 189.538L176.969 189.559C176.922 189.368 176.803 189.198 176.613 189.027C175.801 188.327 174.085 188.22 173.154 188.157V143.011C177.233 147.238 190.85 163.491 193.853 194.637H190.611V205.344L191.136 205.557C191.183 205.578 191.302 205.62 191.517 205.705L188.131 221.682C187.821 223.211 188.44 224.805 189.752 225.825C190.825 226.653 192.257 227.013 193.64 226.865C195.047 226.696 196.311 225.994 197.097 224.953L200.865 219.961C201.748 222.277 203.442 226.908 204.467 230.859C204.944 232.665 206.613 233.982 208.711 234.216C209.618 234.322 210.691 234.387 211.884 234.387C215.317 234.387 219.849 233.813 225.047 231.731C226.978 230.966 228.171 229.202 227.98 227.355C227.598 223.402 226.287 215.351 221.733 205.79Z" fill="white"/>
<path d="M146.143 57.9451C146.861 51.264 146.757 42.3689 140.634 39.7434C136.755 38.0814 131.474 38.8337 127.383 38.8917C121.514 38.9731 115.221 38.8351 109.513 40.2224C108.774 40.4018 108.283 40.769 107.94 41.2066C103.906 42.979 102.616 46.9862 102.058 51.1619C101.51 55.252 100.445 62.7571 103.81 66.0411C103.549 67.4463 104.431 68.9523 106.423 69.111C108.3 69.2615 110.158 69.1373 112.007 68.8874C117.586 70.3065 124.212 69.4561 129.818 67.8784C129.888 67.9087 129.945 67.9529 130.021 67.9778C132.477 68.7894 135.11 68.512 137.633 68.1255C139.527 67.8356 141.67 67.5029 143.478 66.8638C147.245 65.5317 148.354 61.0399 146.143 57.9451Z" fill="#20E18F"/>
<path d="M162.772 59.4233C163.837 52.7026 165.112 40.8103 155.826 43.4742C152.875 44.3215 153.378 48.1651 156.029 48.826C155.6 48.6053 155.979 48.2654 156.135 48.8514C156.286 48.8844 156.416 48.9478 156.581 48.958C156.391 48.9466 156.252 48.9162 156.14 48.8794C156.158 48.9504 156.177 49.0151 156.186 49.1153C156.232 49.6405 156.299 50.1086 156.287 50.6477C156.25 52.3627 155.967 54.112 155.805 55.8182C155.599 57.9772 154.92 60.5447 155.756 62.5528C154.881 64.0927 155.76 66.385 157.822 66.2924C159.002 66.2391 160.017 66.1147 161.018 65.4183C162.201 64.5963 163.038 63.6691 163.491 62.2952C163.862 61.1726 163.489 60.1451 162.772 59.4233Z" fill="#20E18F"/>
<path d="M93.9295 57.6376C93.179 55.3907 93.2632 51.7306 91.8368 49.2635C91.867 49.2364 91.8925 49.2145 91.9227 49.1848C93.4763 47.6878 92.4856 45.3766 89.9382 45.3044C88.2065 45.2555 86.9582 45.8571 86.0311 46.7821C84.433 47.0514 82.9669 47.8682 82.2561 49.1269C81.3656 50.7038 81.8951 52.4779 83.2897 53.466C82.3944 58.0885 83.1593 62.6724 85.9326 66.795C87.1618 68.6206 90.8716 69.1849 92.6208 67.4934C95.7423 64.4761 95.1365 61.2398 93.9295 57.6376Z" fill="#20E18F"/>
<path d="M111.238 134.907C109.457 134.276 107.562 136.538 108.09 139.037C107.968 140.683 108.846 142.285 110.249 142.511C111.583 142.726 112.807 141.444 113.052 139.841C113.07 139.803 113.098 139.78 113.115 139.74C114.054 137.685 112.921 135.181 111.238 134.907Z" fill="#20E18F"/>
<path d="M217.426 159.183C216.623 156.168 216.22 150.344 211.767 150.27C207.456 150.198 207.329 154.924 208.281 157.911C207.614 157.943 206.993 158.167 206.511 158.724C206.177 159.109 206.061 159.584 206.332 160.037C207.135 161.384 208.953 161.383 209.989 162.547C211.247 163.958 210.721 165.814 212.79 166.594C214.498 167.238 216.432 166.586 217.466 165.174C218.81 163.344 217.944 161.124 217.426 159.183Z" fill="#20E18F"/>
<path d="M68.0515 174.541C67.3767 173.593 66.313 173.061 65.1602 172.812C64.5576 172.682 63.822 172.596 63.2053 172.561C63.194 172.56 63.1642 172.556 63.1501 172.554C63.0652 171.328 62.2137 170.157 60.5403 170.157C58.9066 170.157 58.0621 171.279 57.9447 172.477C56.9757 172.509 56.0549 172.935 55.7182 173.873C54.2896 173.416 52.3926 174.229 52.3643 175.997C52.3191 178.86 54.9798 179.348 57.4354 179.438C58.2842 179.47 59.1272 179.411 59.9731 179.422C61.0821 179.437 61.6352 179.73 62.6721 179.957C63.9381 180.233 65.0597 180.106 66.2578 179.65C68.5055 178.796 69.4929 176.564 68.0515 174.541Z" fill="#20E18F"/>
<path d="M57.9726 332.58L113.143 332.517L113.454 315.776L111.587 313.511L86.219 312.692L65.5195 316.405L58.8275 321.692L56.7271 330.817L57.9726 332.58Z" fill="white"/>
<path d="M146.866 337L187.636 336.861L187.028 329.378L180.791 319.47L170.294 316.007L158.657 317.114L149.301 322.034L146.182 331.11L146.866 337Z" fill="white"/>
<path d="M69.7955 175.095C69.6109 173.919 68.5299 172.961 67.1279 172.822L63.9774 172.503L62.0911 170.448L60.8268 169.072L60.8041 169.052L58.3424 172.523L55.307 172.582C54.0428 172.623 52.9618 173.32 52.5484 174.318C52.4334 174.597 52.3638 174.916 52.3638 175.255V175.973L52.3879 176.95C52.4106 178.307 53.6748 179.444 55.2387 179.524L66.5754 180.102H66.7601C67.5186 180.102 68.2543 179.863 68.8069 179.404C69.4276 178.905 69.7728 178.227 69.7728 177.51L69.7955 176.891V176.87L69.8183 175.475C69.8183 175.355 69.8182 175.216 69.7955 175.095ZM68.047 177.489C68.047 177.808 67.9092 178.087 67.6336 178.307C67.3808 178.506 67.0129 178.606 66.6677 178.606L55.3538 178.027C54.6635 177.988 54.1351 177.51 54.1124 176.911L54.0897 175.236C54.0897 174.617 54.6407 174.098 55.3538 174.079L59.3098 173.999L60.9873 171.644L63.057 173.919L66.9205 174.298C67.6109 174.378 68.0938 174.856 68.0938 175.455L68.047 177.489Z" fill="#24048F"/>
<path d="M219.21 164.49L216.743 151.821C216.59 150.935 216.06 150.164 215.312 149.687C214.584 149.188 213.682 149.051 212.822 149.255L212.249 149.391L210.642 149.801L210.29 149.891C208.682 150.322 207.646 151.911 207.888 153.593L208.395 157.224L205.091 161.765L206.654 162.264H206.676L209.937 163.286L210.906 166.669C211.302 168.123 212.602 169.052 213.989 169.052C214.277 169.052 214.562 169.03 214.849 168.94L215.224 168.827L216.81 168.372L216.92 168.35C218.527 167.873 219.541 166.192 219.21 164.49ZM216.479 166.715L214.408 167.305C213.572 167.532 212.712 167.032 212.491 166.192L211.28 161.925L207.822 160.834L210.113 157.679L209.518 153.365C209.408 152.525 209.914 151.753 210.686 151.548L213.219 150.913C213.637 150.799 214.078 150.89 214.43 151.118C214.804 151.367 215.047 151.73 215.135 152.162L217.602 164.83C217.757 165.648 217.273 166.488 216.479 166.715Z" fill="#24048F"/>
<path d="M182.689 319.977C180.415 317.827 177.596 316.346 174.232 315.574C173.663 315.428 173.07 315.324 172.455 315.24C171.198 315.031 169.872 314.927 168.498 314.906C162.788 314.844 158.382 315.407 155.017 316.659C154.425 316.867 153.857 317.097 153.336 317.369C152.222 317.911 151.227 318.558 150.35 319.309C146.654 322.522 145.091 327.57 145.091 336.208V337H188.66L188.707 336.249C188.732 335.853 189.276 326.215 182.689 319.977ZM146.867 335.436C146.891 334.309 146.914 333.245 146.986 332.265C147.033 331.722 147.081 331.2 147.151 330.7C147.697 325.797 149.118 322.584 151.606 320.435C152.72 319.455 154.094 318.683 155.752 318.077C156.273 317.889 156.819 317.723 157.41 317.555C160.325 316.763 163.973 316.429 168.475 316.472C170.535 316.513 172.43 316.742 174.16 317.181C174.73 317.326 175.297 317.494 175.843 317.702C177.975 318.454 179.822 319.559 181.387 321.019C184.419 323.898 185.816 327.654 186.432 330.7C186.551 331.243 186.623 331.785 186.693 332.265C186.883 333.62 186.93 334.748 186.953 335.436H146.867Z" fill="#24048F"/>
<path d="M187.637 330.37H147.273V332.58H187.637V330.37Z" fill="#24048F"/>
<path d="M170.665 322.636H160.578C159.088 322.636 157.759 321.663 157.266 320.213L156 316.467L157.605 316.007L158.87 319.75C159.138 320.547 159.827 321.083 160.578 321.083H170.665C171.336 321.083 171.953 320.664 172.277 319.991L174.101 316.177L175.636 316.803L173.813 320.619C173.215 321.863 172.01 322.636 170.665 322.636Z" fill="#24048F"/>
<path d="M113.454 314.368V334.79H55.9936L55.8751 334.088C55.8034 333.736 54.4068 325.37 59.2841 319.177C61.8887 315.861 65.7714 313.82 70.8622 313.094C79.0533 311.952 85.3989 310.943 87.5063 310.614C87.9802 310.525 88.2404 310.482 88.2404 310.482L88.5475 312.107C88.5241 312.107 88.2156 312.172 87.6248 312.26C85.3521 312.633 79.1251 313.6 71.1226 314.719C69.4174 314.962 67.8788 315.356 66.4822 315.927C66.3637 315.971 66.2453 316.015 66.1268 316.081C63.9244 317.003 62.1256 318.364 60.729 320.121C58.6216 322.801 57.8406 325.962 57.5554 328.597C57.5086 329.168 57.4619 329.718 57.4619 330.244C57.4136 331.496 57.4853 332.506 57.532 333.144H111.679V314.874L110.519 313.359L109.809 312.413L111.277 311.469L111.751 312.107L113.454 314.368Z" fill="#24048F"/>
<path d="M126.545 240.52L124.927 240.691L120.976 241.078L114.461 271.75L111.527 312.531L111.434 313.797L110.325 313.754L93.4818 312.939L93.0422 312.916L87.9829 312.681L87.9358 311.951L87.8673 311.071L80.7271 207.874V207.809L82.4597 207.725L82.4839 208.196L86.8739 271.471L86.9895 273.08L89.6227 311.135L109.817 312.122L112.752 271.536L119.521 239.619L123.934 239.168L125.829 238.975L126.36 238.911L126.475 239.983L126.545 240.52Z" fill="#24048F"/>
<path d="M156 319.149L154.18 319.321C154.13 318.978 154.081 318.635 154.031 318.293C149.039 280.804 133.986 254.213 125.304 241.496C124.934 240.96 124.591 240.447 124.246 239.976C121.098 235.48 118.984 233.103 118.909 233.018L120.36 232.033C120.434 232.14 122.795 234.773 126.264 239.783C126.484 240.105 126.73 240.447 126.952 240.789C135.733 253.635 150.712 280.247 155.778 317.565C155.851 318.101 155.926 318.614 156 319.149Z" fill="#24048F"/>
<path d="M174.546 206.62H172.364V316.007H174.546V206.62Z" fill="#24048F"/>
<path d="M176.561 188.941L176.443 188.963L175.421 189.274C175.397 189.274 175.183 189.342 174.803 189.429H174.756C174.304 189.563 173.592 189.741 172.64 189.963C172.118 190.074 171.523 190.208 170.858 190.341C159.236 192.807 126.201 198.029 80.9028 190.741C80.3332 190.652 79.7387 190.563 79.1207 190.452C78.5496 190.363 77.98 190.251 77.409 190.164L76.3638 189.963V207.872L77.0523 208.005C77.1242 208.027 78.1459 208.25 79.9531 208.583C80.4757 208.671 81.0937 208.783 81.7587 208.917C85.7752 209.627 92.1449 210.649 99.987 211.516C100.248 211.538 100.533 211.582 100.796 211.605C109.209 212.516 119.237 213.249 129.814 213.249C132.856 213.249 135.946 213.182 139.035 213.049C139.653 213.027 140.247 213.005 140.842 212.96C151.464 212.427 162.303 211.005 172.356 208.206C172.949 208.049 173.543 207.872 174.138 207.694C174.803 207.493 175.444 207.294 176.111 207.094L176.727 206.894L176.561 188.941ZM78.1459 206.538V191.985C131.05 200.917 167.959 192.874 174.803 191.163L174.922 205.694C136.588 217.715 84.705 207.872 78.1459 206.538Z" fill="#24048F"/>
<path d="M97.0908 98.703C97.0666 98.703 96.8699 98.7871 96.5025 98.9791C93.761 100.427 82.3294 108.155 81.5204 136.047C81.4962 136.558 81.4961 137.112 81.4961 137.643C81.4719 138.155 81.4719 138.666 81.4719 139.198V192.256H79.6362V139.198C79.6362 135.067 79.857 131.321 80.2487 127.957C80.5904 124.784 81.1046 121.909 81.7412 119.355C86.0991 101.173 95.8417 97.4248 96.38 97.2328L96.4541 97.4037L96.7474 97.9784L97.0908 98.703Z" fill="#24048F"/>
<path d="M176.727 188.941H174.919C174.775 188.904 173.786 188.803 172.773 188.79C172.653 188.778 172.508 188.778 172.388 188.778C172.364 188.778 172.364 188.778 172.364 188.778V187.836C172.461 187.836 172.605 187.848 172.773 187.848C173.715 187.886 175.45 187.949 176.27 188.364C176.462 188.464 176.583 188.565 176.631 188.677C176.704 188.766 176.727 188.853 176.727 188.941Z" fill="#24048F"/>
<path d="M173.24 275.125L158.478 273.564L158.26 273.201C158.143 273.006 146.389 253.256 138.545 212.408L140.314 212.144C147.532 249.732 158.023 269.255 159.631 272.096L173.455 273.558L173.24 275.125Z" fill="#24048F"/>
<path d="M86.2232 271.81L86.1816 270.214L92.0821 270.089C93.2037 266.051 99.6509 241.438 99.6509 209.934H101.454C101.454 244.48 93.7399 270.815 93.6627 271.076L93.4904 271.656L86.2232 271.81Z" fill="#24048F"/>
<path d="M97.0907 135.905H80.7271V137.01H97.0907V135.905Z" fill="#24048F"/>
<path d="M172.364 144.744H170.578C170.578 144.07 170.243 143.45 169.554 142.85C162.449 136.637 125.881 137.571 125.51 137.575L125.455 135.966C126.999 135.931 163.155 135.012 170.799 141.694C171.839 142.6 172.364 143.627 172.364 144.744Z" fill="#24048F"/>
<path d="M111.262 127.066C105.263 127.066 100.364 131.759 100.364 137.55C100.364 143.343 105.263 148.059 111.262 148.059C117.283 148.059 122.182 143.343 122.182 137.55C122.182 131.759 117.283 127.066 111.262 127.066ZM111.262 146.443C106.202 146.443 102.081 142.439 102.081 137.55C102.081 132.663 106.202 128.68 111.262 128.68C116.344 128.68 120.465 132.663 120.465 137.55C120.465 142.439 116.344 146.443 111.262 146.443Z" fill="#24048F"/>
<path d="M97.0909 134.8H96V140.325H97.0909V134.8Z" fill="#24048F"/>
<path d="M126.546 134.8H124.364V140.325H126.546V134.8Z" fill="#24048F"/>
<path d="M111.273 133.695C108.855 133.695 106.909 135.681 106.909 138.115C106.909 140.549 108.855 142.535 111.273 142.535C113.671 142.535 115.636 140.549 115.636 138.115C115.636 135.681 113.671 133.695 111.273 133.695ZM111.273 141.075C109.681 141.075 108.383 139.75 108.383 138.115C108.383 136.479 109.681 135.155 111.273 135.155C112.866 135.155 114.162 136.479 114.162 138.115C114.162 139.75 112.866 141.075 111.273 141.075Z" fill="#24048F"/>
<path d="M219.257 194.846C219.257 195.51 219.232 196.049 219.208 196.401V197.439L218.675 197.626C214.049 199.369 210.053 199.99 206.71 199.99C198.45 199.99 194.115 196.194 193.872 195.966L193.654 195.758V195.634L193.63 195.489C193.582 195.012 193.532 194.555 193.485 194.078C190.432 163.667 176.602 147.797 172.461 143.67C171.734 142.944 171.298 142.57 171.273 142.549L172.073 141.845L172.533 141.429C172.654 141.533 181.447 148.959 188.205 165.12C188.423 165.637 188.616 166.156 188.835 166.675C191.861 174.288 194.381 183.707 195.422 195.074C196.779 196.153 204.118 201.193 217.415 196.401C217.513 193.498 217.779 178.375 215.09 168.045C215.042 167.899 215.017 167.754 214.969 167.609L216.738 167.256C216.761 167.38 216.809 167.505 216.835 167.63C219.257 176.839 219.329 189.826 219.257 194.846Z" fill="#24048F"/>
<path d="M211.636 151.16L209.869 151.374C209.822 151.074 209.773 150.775 209.703 150.477C205.667 127.549 186.919 105.559 184.603 102.934C184.458 102.763 184.364 102.677 184.364 102.656L185.749 101.652C185.772 101.675 185.892 101.803 186.107 102.059C188.925 105.304 207.361 127.164 211.445 150.092C211.517 150.455 211.589 150.796 211.636 151.16Z" fill="#24048F"/>
<path d="M157.181 89.5177L156.334 65.856L155.465 41.4702L155.372 38.8265C155.324 38.5065 150.693 7.55616 121.423 10.0919C92.2244 12.629 91.6362 39.9995 91.6362 40.3616C91.6362 40.4261 91.7306 41.4056 91.8947 43.0685C92.342 47.6094 93.283 57.2877 94.1993 67.3701C95.2333 78.8165 96.2439 90.7961 96.5039 96.4667C96.5271 97.0631 96.5504 97.5963 96.5504 98.0439C96.5736 98.2783 96.5736 98.4706 96.5736 98.6628C96.5736 99.8135 96.7377 100.858 97.0673 101.796C97.2793 102.393 97.5378 102.968 97.8907 103.48C98.2668 104.077 98.7127 104.61 99.2543 105.1C102.31 107.829 106.848 107.829 107.012 107.808H141.053L141.125 107.082C141.125 106.955 142.394 94.8249 155.865 90.754L165.457 94.3773L168.02 95.3371L182.807 100.922C178.786 103.566 167.455 112.156 166.28 125.308C165.598 133.003 166.797 137.074 168.207 139.207C168.489 139.632 168.772 139.973 169.054 140.251C169.806 140.998 170.535 141.36 171.099 141.53V190.046H172.863V140.123H172.487L171.993 140.102C171.993 140.102 171.216 140.038 170.346 139.164C169.148 137.948 167.22 134.538 168.02 125.436C169.218 112.05 182.007 103.352 184.64 101.711C184.923 101.54 185.087 101.434 185.111 101.434L186.121 100.836L186.545 100.602L157.181 89.5177ZM139.479 106.208H107.012C106.942 106.187 103.015 106.229 100.477 103.949C99.0655 102.67 98.3365 100.901 98.3365 98.6628C98.3365 90.2853 93.6112 42.2588 93.4006 40.2971C93.4006 40.0206 93.9408 14.0785 121.589 11.6692C122.692 11.5849 123.774 11.5415 124.808 11.5415C149.47 11.5415 153.467 37.8469 153.632 38.9542L155.418 89.2188C142.747 92.9711 139.996 103.352 139.479 106.208Z" fill="#24048F"/>
<path d="M119.837 90.6033C114.889 90.6033 112.786 87.6801 112.364 86.1355L114.033 85.7026C114.071 85.8359 115.028 88.9335 119.837 88.9335H135.276C135.255 88.9321 136.554 88.7906 137.315 87.7956C137.924 86.9958 138.066 85.8249 137.735 84.316L139.426 83.9738C139.866 85.9788 139.615 87.6059 138.686 88.8057C137.439 90.4218 135.433 90.5936 135.349 90.6005L119.837 90.6033Z" fill="#24048F"/>
<path d="M147.756 48.737C147.71 47.7697 147.362 46.8661 146.734 46.13C145.99 45.2056 144.874 44.533 143.573 44.2798C143.247 44.2383 142.898 44.1968 142.551 44.1968H142.41L106.524 45.1627C106.385 45.1627 106.246 45.1627 106.106 45.2055C104.92 45.2899 103.851 45.7729 103.014 46.5091C102.968 46.5506 102.922 46.5921 102.875 46.635C101.923 47.5594 101.41 48.7785 101.458 50.0404L102.085 65.0904C102.131 66.3316 102.712 67.5079 103.735 68.3492C104.711 69.1685 105.967 69.6099 107.291 69.6099H107.477L143.34 68.4116C146.222 68.3285 148.454 66.1421 148.361 63.5351L147.756 48.737ZM143.27 66.8354L107.407 68.0338C106.478 68.0974 105.618 67.7819 104.92 67.1924C104.247 66.6251 103.851 65.8682 103.828 65.0282L103.2 49.9768C103.178 49.2199 103.433 48.5059 103.967 47.9164C104.037 47.8541 104.083 47.7905 104.154 47.7281C104.2 47.6853 104.247 47.6438 104.293 47.623C104.898 47.0764 105.71 46.7609 106.57 46.7401L142.457 45.7729C144.317 45.6885 145.943 47.0764 146.014 48.7993L146.618 63.5987C146.687 65.3216 145.199 66.7731 143.27 66.8354Z" fill="#24048F"/>
<path d="M164.278 49.1C164.21 47.4308 163.476 45.8883 162.185 44.7685C161.229 43.9241 160.049 43.3747 158.781 43.1841C158.357 43.0993 157.913 43.0784 157.468 43.0993L157.112 43.1202L155.153 43.1841L153.818 43.2259L154.753 67.4L155.976 67.3569L158.403 67.2721C162.03 67.1455 164.856 64.2508 164.723 60.8067L164.278 49.1ZM158.357 65.6877L156.354 65.7517L155.553 44.7476L157.534 44.6837C158.848 44.6419 160.093 45.0647 161.05 45.9313C162.007 46.7757 162.563 47.9176 162.609 49.164L163.053 60.8707C163.164 63.4273 161.05 65.582 158.357 65.6877Z" fill="#24048F"/>
<path d="M92.6036 44.1968L91.414 44.2813L88.6889 44.4503L88.5388 44.471C87.9693 44.5126 87.3998 44.6179 86.8532 44.7661C85.5902 45.1027 84.4496 45.7552 83.557 46.6391C82.2939 47.9013 81.6739 49.5222 81.8469 51.1639L82.963 62.8013C83.26 66.0418 86.4827 68.505 90.2489 68.505C90.4479 68.505 90.6455 68.505 90.8445 68.4842L93.8437 68.2736L94.9093 68.2099L92.6036 44.1968ZM90.696 66.9049C87.6967 67.1362 85.0451 65.2216 84.7971 62.6752L83.681 51.0365C83.583 49.816 84.0285 48.6162 84.9701 47.6699C85.9116 46.7224 87.2252 46.1543 88.6889 46.049L90.8935 45.9022L92.9022 66.758L90.696 66.9049Z" fill="#24048F"/>
<path d="M159.269 42.3474V42.7547L157.501 42.6899V42.2826C157.524 39.2425 157.1 19.6739 144.624 8.88334C138.232 3.35977 129.647 0.961036 119.104 1.73198C89.1254 3.98002 88.8428 37.7019 89.0555 44.1247C89.1021 44.7661 89.1254 45.131 89.1254 45.1733L87.3567 45.3016C87.3567 45.2593 87.3334 44.9591 87.3101 44.446C87.0741 38.408 87.0027 2.50289 118.962 0.147737C130.047 -0.665525 139.08 1.88136 145.85 7.72626C159.058 19.1172 159.318 39.1354 159.269 42.3474Z" fill="#24048F"/>
<path d="M222.546 195.217V204.7L222.031 204.903C221.843 204.984 221.633 205.064 221.446 205.126C220.908 205.349 220.369 205.552 219.831 205.735C215.479 207.197 211.173 207.725 207.29 207.725C201.205 207.725 196.127 206.445 193.46 205.613C192.711 205.389 192.149 205.187 191.798 205.044C191.587 204.963 191.471 204.923 191.424 204.903L190.909 204.7V194.466H195.169V195.988H192.664V203.705C195.332 204.659 208.178 208.72 220.791 203.725V196.739H218.685V195.217H222.546Z" fill="#24048F"/>
<path d="M227.98 226.971C228.172 228.882 226.968 230.705 225.015 231.496C219.763 233.65 215.184 234.243 211.715 234.243C210.51 234.243 209.426 234.176 208.511 234.066C206.39 233.825 204.703 232.464 204.221 230.595C203.185 226.51 201.474 221.72 200.582 219.325L196.775 224.488C195.98 225.566 194.703 226.29 193.282 226.465C191.884 226.62 190.438 226.247 189.354 225.389C188.029 224.335 187.403 222.688 187.715 221.106L191.137 204.586V204.52L192.92 204.828L192.847 205.201L189.498 221.414C189.281 222.423 189.692 223.479 190.534 224.137C191.234 224.686 192.149 224.928 193.041 224.818C193.956 224.708 194.751 224.247 195.257 223.566L201.088 215.68L201.691 217.217C201.715 217.283 204.51 224.445 205.98 230.222C206.293 231.408 207.353 232.287 208.727 232.441C212.124 232.815 217.594 232.727 224.293 230.002C225.545 229.498 226.292 228.334 226.197 227.125C225.811 223.127 224.509 214.999 220.004 205.332C219.98 205.244 219.931 205.156 219.883 205.069L221.546 204.41C221.593 204.498 221.619 204.586 221.666 204.673C226.268 214.559 227.594 222.884 227.98 226.971Z" fill="#24048F"/>
<path d="M113.454 328.161H56.7271V329.266H113.454V328.161Z" fill="#24048F"/>
<path d="M82.909 118.527C82.3228 121.253 81.2691 124.109 79.9331 126.943C75.1755 137.076 66.9049 146.908 64.2793 149.914C63.8118 150.43 63.5295 150.729 63.46 150.816L62.9448 151.374L62.6857 151.224C62.6857 151.224 62.6857 151.224 62.6857 151.201L62.2876 150.965C61.7955 150.666 50.2206 143.452 43.9402 131.236C43.823 131.064 43.7289 130.872 43.6362 130.678L44.8781 130.162L45.253 130.013C50.455 140.51 60.0383 147.466 62.6162 149.206C65.4039 146.05 78.574 130.528 81.175 118.226L81.3617 118.27L82.909 118.527Z" fill="#24048F"/>
<path d="M53.4546 175.426L52.4828 176.744L52.4582 176.787C32.4934 165.979 24.9266 147.684 23.2829 142.962C23.0338 142.259 22.9092 141.855 22.9092 141.812L24.7267 141.429C24.7267 141.471 24.8513 141.876 25.1004 142.621C26.7688 147.279 33.988 164.512 52.6827 174.979C52.9318 175.148 53.1809 175.276 53.4546 175.426Z" fill="#24048F"/>
<path d="M80.7271 169.902C80.293 170.481 79.6652 171.102 78.9165 171.744C75.5846 174.642 69.9828 177.727 69.6934 177.892V177.871L68.7271 176.567C68.7524 176.567 69.1133 176.36 69.6934 176.029C71.8187 174.787 76.9135 171.722 78.9165 169.404C79.0373 169.28 79.1342 169.156 79.2073 169.052L80.7271 169.902Z" fill="#24048F"/>
<path d="M40.6777 119.331L39.9429 120.393C39.9429 120.393 39.8946 120.456 39.8243 120.541V120.562C39.5872 120.881 39.0426 121.56 38.236 122.452C35.1561 125.87 28.0229 132.386 17.9035 133.427C17.5243 133.448 17.1452 133.49 16.7412 133.511L15.8643 133.555L15.2729 133.597L19.8225 140.177L21.7665 142.535H22.2393C22.3813 142.535 23.3299 142.491 24.823 142.237C25.3207 142.152 25.9135 142.046 26.5532 141.897C30.914 140.9 37.8101 138.373 43.8294 131.92C44.1602 131.58 44.4691 131.219 44.7765 130.859C45.3927 130.136 46.009 129.372 46.6019 128.566L46.9093 128.141L40.6777 119.331ZM22.6184 140.9L21.3156 139.308L18.3294 134.977C30.4162 133.661 38.236 125.233 40.6528 122.26L44.7765 128.12C36.5307 139.096 25.0366 140.687 22.6184 140.9Z" fill="#24048F"/>
<path d="M39.2727 122.358L37.5368 122.489H37.4898C37.1564 118.788 37.086 115.567 37.061 113.004C37.014 110.134 36.967 107.855 36.5381 106.563C36.1578 105.447 35.0651 104.68 33.78 104.635L32.1161 104.592C31.2834 104.592 30.5226 104.855 29.9528 105.381C29.3815 105.906 29.073 106.585 29.073 107.331C29.12 111.361 28.8586 114.975 28.8586 115.019L28.7162 116.86L27.3136 115.523C24.1751 112.544 21.9164 105.951 20.6079 100.934C20.3714 100.058 19.7047 99.3791 18.778 99.0503C17.8748 98.7215 16.8761 98.8311 16.0669 99.3561L3.0371 106.827C1.96793 107.505 1.51557 108.775 1.94441 109.938C6.20052 121.372 17.114 133.639 17.208 133.749L17.1375 133.814L15.8289 134.8C15.7584 134.734 15.497 134.428 15.0917 133.946C12.5245 130.945 4.0123 120.561 0.25553 110.463C-0.43326 108.623 0.303932 106.563 2.06336 105.447L15.0917 97.976C16.3283 97.1886 17.9687 97.0128 19.4197 97.5161C20.8692 98.0207 21.9634 99.1599 22.3203 100.562C23.7463 105.929 25.4352 110.112 27.1947 112.698C27.2652 111.295 27.3136 109.368 27.2901 107.352C27.2901 106.17 27.7895 105.052 28.7162 104.198C29.6429 103.365 30.8325 102.971 32.1631 102.95L33.8285 102.993C35.8729 103.059 37.6323 104.285 38.2271 106.082C38.7499 107.593 38.7735 109.85 38.8454 112.982C38.8689 115.084 38.9159 117.627 39.1303 120.518V120.54C39.1773 121.131 39.2257 121.744 39.2727 122.358Z" fill="#24048F"/>
<path d="M73.5491 321.531C71.3789 321.531 69.3052 320.727 67.8706 319.296L65.4546 316.885L66.8015 315.896L69.2174 318.306C70.459 319.544 72.3368 320.157 74.2277 319.976L87.388 318.629C89.5407 318.408 91.3394 317.185 92.0779 315.437L93.2405 312.692L94.9091 313.211L93.7481 315.957C92.7785 318.246 90.4224 319.85 87.597 320.138L74.4368 321.486C74.1399 321.517 73.8431 321.531 73.5491 321.531Z" fill="#24048F"/>
<path d="M146.182 137.01C146.176 135.414 146.267 97.8788 167.723 95.0228L168 96.607C148.078 99.2561 148.003 136.629 148.005 137.006L146.182 137.01Z" fill="#24048F"/>
<path d="M87.3385 137.01C87.2821 136.073 86.0939 113.931 96.7993 102.757L98.182 103.771C87.9281 114.471 89.1267 136.705 89.1385 136.928L87.3385 137.01Z" fill="#24048F"/>
<path d="M104 47.5115L102.545 46.578L105.507 42.4318C107.157 40.1171 109.549 38.7319 112.069 38.6262L137.218 37.5732C139.976 37.4647 142.628 38.8582 144.44 41.42L147.273 45.4316L145.814 46.361L142.979 42.3494C141.52 40.2805 139.426 39.1163 137.295 39.2398L112.147 40.2929C110.187 40.3739 108.298 41.4941 106.962 43.3654L104 47.5115Z" fill="#24048F"/>
<path d="M62.8754 171.262L61.0908 170.645C65.0371 162.038 62.9784 150.651 62.9578 150.536L64.8549 150.269C64.9451 150.753 67.0228 162.221 62.8754 171.262Z" fill="#24048F"/>
<path d="M188.84 166.843L187.636 165.72C187.873 165.494 193.535 160.213 204.859 160.213C204.937 160.213 205.014 160.213 205.091 160.213L205.078 161.808C205.007 161.808 204.935 161.808 204.865 161.808C194.233 161.808 188.893 166.79 188.84 166.843Z" fill="#24048F"/>
</svg>
