<svg width="511" height="339" viewBox="0 0 511 339" fill="none" xmlns="http://www.w3.org/2000/svg">
<g filter="url(#filter0_d_1471_45565)">
<path d="M263.922 234.829C263.478 233.164 263.7 231.832 263.589 230.61" stroke="#6F3FF5" stroke-width="0.647471"/>
<path d="M248.933 226.835L247.268 234.607" stroke="#6F3FF5" stroke-width="0.647471"/>
<path d="M243.492 214.955L244.491 219.174C246.601 227.501 254.928 232.608 263.256 230.61C271.583 228.611 276.69 220.173 274.914 211.846L274.803 211.402L271.583 197.634" stroke="#6F3FF5" stroke-width="0.647471"/>
<path d="M269.363 197.523C267.808 196.524 266.032 195.635 264.255 195.08C264.144 195.08 264.144 195.08 264.033 195.08C263.922 195.08 263.922 195.191 263.922 195.191C262.257 199.521 249.488 204.74 248.711 203.63C247.379 201.742 243.16 202.075 242.604 204.74C242.604 204.74 241.05 210.847 247.823 215.954L247.934 216.065V216.176V216.287V216.398C247.934 216.398 247.934 216.509 247.823 216.509C247.712 216.509 247.712 216.509 247.712 216.62H247.601C247.046 216.62 245.713 216.398 243.715 215.288C241.161 213.844 240.051 210.402 240.273 203.963C240.495 197.967 240.717 196.191 242.493 193.193C243.937 190.75 246.602 186.309 258.26 186.087C270.695 185.865 271.361 195.969 271.472 197.412C271.472 197.523 271.472 197.523 271.472 197.523L271.361 197.634C271.028 197.745 270.695 197.856 270.362 197.856C270.029 197.745 269.696 197.634 269.363 197.523Z" stroke="#6F3FF5" stroke-width="0.647471"/>
<path d="M240.606 191.86C235.055 191.86 242.716 199.743 233.167 205.294C236.609 199.299 234.499 198.855 231.724 194.08C229.836 189.972 234.055 183.977 237.941 183.755C242.605 183.532 244.492 187.419 244.492 187.419" stroke="#6F3FF5" stroke-width="0.647471"/>
<path d="M246.601 188.197L245.269 187.086C243.27 188.53 241.605 190.417 240.495 192.527L241.605 193.304" stroke="#6F3FF5" stroke-width="0.647471"/>
<path d="M283.908 250.928V244.822C283.686 243.156 282.909 239.936 278.689 238.826C276.802 238.382 269.141 237.272 265.477 235.495L263.922 234.718C263.922 236.494 260.258 237.716 255.595 237.716C250.932 237.716 247.157 236.272 247.157 234.496L246.047 235.495C241.939 238.937 233.278 239.825 231.502 240.491C228.504 241.602 228.06 244.489 227.949 246.043V252.261" stroke="#6F3FF5" stroke-width="0.647471"/>
<path d="M263.922 234.829L266.92 236.273C266.92 238.382 261.147 240.603 255.706 240.603C250.266 240.603 245.158 238.493 245.158 236.384L247.157 234.718" stroke="#6F3FF5" stroke-width="0.647471"/>
<path d="M325.099 189.529C323.323 188.863 320.325 187.864 319.215 187.42C312.886 173.097 324.1 165.88 324.655 149.669C323.545 134.347 350.858 120.912 356.965 137.9C366.18 138.233 373.731 144.229 369.733 154.888C365.514 170.987 376.839 163.881 370.733 181.202C370.4 184.422 373.064 185.088 373.508 187.531L367.402 190.639" stroke="#5D5FEF" stroke-width="0.647471"/>
<path d="M353.967 183.644C353.19 180.869 352.08 178.759 351.858 176.761C365.292 172.541 363.516 155.221 357.631 145.339C350.303 141.009 343.974 141.564 335.647 147.449C334.87 148.004 334.759 149.225 335.425 149.891C338.423 153 338.534 157.552 337.424 161.216C337.535 158.108 334.759 153.999 331.65 156.553C327.875 159.551 333.76 166.768 333.76 166.768C336.313 172.986 342.198 177.649 338.534 184.866" stroke="#5D5FEF" stroke-width="0.647471"/>
<path d="M319.992 200.743C320.88 198.3 322.546 193.97 324.655 190.084C325.877 187.863 327.209 185.754 328.764 184.31C330.207 182.867 331.65 182.201 332.983 182.312C334.537 182.534 335.981 183.2 337.535 184.199C338.756 184.976 339.978 185.976 341.199 186.864C341.421 187.086 341.754 187.308 341.976 187.53C343.42 188.64 344.974 189.862 346.417 190.528C347.972 191.305 349.637 191.638 351.414 191.083C352.635 190.75 353.412 189.973 353.856 188.973C354.3 188.085 354.3 186.975 354.3 186.087C354.3 185.198 354.078 184.31 353.856 183.644C353.745 183.311 353.745 183.089 353.634 182.978C354.3 182.09 355.078 181.646 355.744 181.423C356.521 181.201 357.409 181.201 358.298 181.646C360.185 182.423 362.295 184.31 364.404 186.753C368.179 191.194 371.621 197.301 373.62 200.854" stroke="#5D5FEF" stroke-width="0.647471"/>
<path d="M241.161 121.134C225.839 127.685 241.272 144.118 253.929 144.118C258.926 144.451 268.141 144.118 272.693 139.787C277.357 135.901 275.358 127.241 271.361 125.02" stroke="#6F3FF5" stroke-width="0.647471" stroke-miterlimit="10"/>
<path d="M241.05 114.25L241.383 127.352C247.712 126.686 250.154 134.68 249.932 134.791L250.043 135.124C274.359 135.013 271.361 135.901 270.806 113.362" stroke="#6F3FF5" stroke-width="0.647471" stroke-miterlimit="10"/>
<path d="M236.276 110.92C236.276 112.252 237.164 113.474 238.385 113.807L240.717 114.14C241.605 114.251 242.382 113.807 242.827 113.03C243.271 111.919 243.715 110.143 243.715 107.145C243.604 103.592 242.827 102.371 242.382 101.927C242.049 101.594 241.716 101.594 241.716 101.594L239.163 101.705C237.497 101.705 236.054 103.148 236.165 104.924L236.276 110.92Z" stroke="#6F3FF5" stroke-width="0.647471" stroke-miterlimit="10"/>
<path d="M272.694 95.5975C272.694 95.5975 274.47 78.1658 254.929 78.4989C237.275 78.7209 238.052 97.9291 238.385 101.593" stroke="#6F3FF5" stroke-width="0.647471" stroke-miterlimit="10"/>
<path d="M270.584 94.9311C268.585 89.6017 264.588 84.7164 256.705 84.9384C239.717 85.4936 240.717 101.704 240.717 101.704" stroke="#6F3FF5" stroke-width="0.647471" stroke-miterlimit="10"/>
<path d="M251.931 85.8267C251.931 85.8267 251.709 88.9355 256.594 88.9355C260.147 88.9355 260.813 88.6024 261.923 85.8267" stroke="#6F3FF5" stroke-width="0.647471" stroke-miterlimit="10"/>
<path d="M275.136 110.919V97.1518C275.136 95.9304 274.137 94.9312 272.915 94.9312H251.265C250.043 94.9312 249.044 95.9304 249.044 97.1518V110.919C249.044 112.141 250.043 113.14 251.265 113.14H272.915C274.137 113.14 275.136 112.252 275.136 110.919Z" stroke="#6F3FF5" stroke-width="0.647471" stroke-miterlimit="10"/>
<path d="M255.928 98.7065C252.93 98.7065 252.819 100.816 252.819 100.816V112.807" stroke="#6F3FF5" stroke-width="0.647471" stroke-miterlimit="10"/>
<path d="M241.383 127.463L235.054 131.016" stroke="#6F3FF5" stroke-width="0.647471" stroke-miterlimit="10"/>
<path d="M247.045 142.453C248.822 133.237 237.386 129.684 237.386 129.684" stroke="#6F3FF5" stroke-width="0.647471" stroke-miterlimit="10"/>
<path d="M434.908 238.382C434.464 240.936 433.908 243.378 433.242 245.932" stroke="#5D5FEF" stroke-width="0.647471"/>
<path d="M453.006 245.266L450.896 236.272" stroke="#5D5FEF" stroke-width="0.647471"/>
<path d="M419.142 253.149C422.028 251.594 425.248 250.595 429.245 250.04" stroke="#5D5FEF" stroke-width="0.647471"/>
<path d="M457.114 248.819C461.555 249.818 465.664 252.039 469.105 254.814" stroke="#5D5FEF" stroke-width="0.647471"/>
<path d="M455.893 250.262C448.787 252.594 437.684 253.038 430.134 251.039C428.69 250.706 428.135 248.93 429.023 247.709L429.801 246.598C430.356 245.821 431.355 245.488 432.354 245.71C438.905 247.264 446.011 247.486 453.672 245.155C454.782 244.822 456.115 245.266 456.559 246.376L457.003 247.264C457.669 248.486 457.114 249.929 455.893 250.262Z" stroke="#5D5FEF" stroke-width="0.647471"/>
<path d="M428.468 202.186C427.913 203.407 427.469 204.74 427.247 206.072L425.359 221.172C423.916 229.61 429.579 237.716 438.017 239.27L438.572 239.381C447.01 240.825 455.115 235.162 456.67 226.724L457.225 222.06" stroke="#5D5FEF" stroke-width="0.647471"/>
<path d="M415.811 185.976C418.476 187.197 423.028 186.198 425.581 187.086C427.58 187.197 425.915 184.532 427.136 183.422C432.798 190.528 438.35 184.199 446.344 185.754C453.783 186.975 457.114 193.082 457.669 198.522C457.669 198.855 457.891 199.188 458.224 199.299C465.33 203.741 464.22 210.958 457.003 223.171C459.002 218.952 459.335 212.734 455.115 209.958C451.118 207.627 447.788 210.847 447.232 214.955C442.236 213.955 441.459 205.628 446.122 202.852C446.233 202.297 445.789 201.742 445.234 201.742C438.128 202.741 428.579 202.963 421.14 200.077C417.587 197.856 415.145 192.416 415.811 185.976Z" stroke="#5D5FEF" stroke-width="0.647471"/>
<path d="M322.879 6.55176L289.015 65.2867H221.176L187.312 6.55176" stroke="#6F3FF5" stroke-width="0.647471" stroke-miterlimit="10" stroke-linecap="round" stroke-linejoin="round"/>
<path fill-rule="evenodd" clip-rule="evenodd" d="M289.015 53.6282H221.176L187.312 112.252L221.176 170.987H289.015L322.879 112.252L289.015 53.6282Z" stroke="#6F3FF5" stroke-width="0.647471" stroke-miterlimit="10" stroke-linecap="round" stroke-linejoin="round"/>
<path fill-rule="evenodd" clip-rule="evenodd" d="M289.015 159.329H221.176L187.312 217.953L221.176 276.688H289.015L322.879 217.953L289.015 159.329Z" stroke="#6F3FF5" stroke-width="0.647471" stroke-miterlimit="10" stroke-linecap="round" stroke-linejoin="round"/>
<path d="M5 112.252L38.9752 170.987H106.704L140.568 112.252L106.704 53.6282" stroke="#6F3FF5" stroke-width="0.647471" stroke-miterlimit="10" stroke-linecap="round" stroke-linejoin="round"/>
<path d="M106.704 276.688L140.568 217.953L106.704 159.329H38.9752L5 217.953" stroke="#6F3FF5" stroke-width="0.647471" stroke-miterlimit="10" stroke-linecap="round" stroke-linejoin="round"/>
<path d="M322.879 323.653L289.015 265.029H221.176L187.312 323.653" stroke="#6F3FF5" stroke-width="0.647471" stroke-miterlimit="10" stroke-linecap="round" stroke-linejoin="round"/>
<path d="M96.1558 59.7349L130.02 118.359H197.748L231.723 59.7349L197.748 1" stroke="#6F3FF5" stroke-width="0.647471" stroke-miterlimit="10" stroke-linecap="round" stroke-linejoin="round"/>
<path fill-rule="evenodd" clip-rule="evenodd" d="M197.748 106.7H130.02L96.1558 165.435L130.02 224.059H197.748L231.723 165.435L197.748 106.7Z" stroke="#6F3FF5" stroke-width="0.647471" stroke-miterlimit="10" stroke-linecap="round" stroke-linejoin="round"/>
<path d="M15.9922 224.059L49.9674 165.435L15.9922 106.7" stroke="#6F3FF5" stroke-width="0.647471" stroke-miterlimit="10" stroke-linecap="round" stroke-linejoin="round"/>
<path d="M197.748 329.76L231.723 271.136L197.748 212.401H130.02L96.1558 271.136" stroke="#6F3FF5" stroke-width="0.647471" stroke-miterlimit="10" stroke-linecap="round" stroke-linejoin="round"/>
<path d="M404.264 53.6282L370.4 112.252L404.264 170.987H471.992L505.968 112.252" stroke="#5D5FEF" stroke-width="0.647471" stroke-miterlimit="10" stroke-linecap="round" stroke-linejoin="round"/>
<path d="M505.968 217.953L471.992 159.329H404.264L370.4 217.953L404.264 276.688" stroke="#5D5FEF" stroke-width="0.647471" stroke-miterlimit="10" stroke-linecap="round" stroke-linejoin="round"/>
<path d="M313.219 1L279.244 59.7349L313.219 118.359H380.948L414.812 59.7349" stroke="#5D5FEF" stroke-width="0.647471" stroke-miterlimit="10" stroke-linecap="round" stroke-linejoin="round"/>
<path fill-rule="evenodd" clip-rule="evenodd" d="M279.244 165.435L313.219 224.059H380.948L414.812 165.435L380.948 106.7H313.219L279.244 165.435Z" stroke="#5D5FEF" stroke-width="0.647471" stroke-miterlimit="10" stroke-linecap="round" stroke-linejoin="round"/>
<path d="M494.976 106.7L461 165.435L494.976 224.059" stroke="#5D5FEF" stroke-width="0.647471" stroke-miterlimit="10" stroke-linecap="round" stroke-linejoin="round"/>
<path d="M414.812 271.136L380.948 212.401H313.219L279.244 271.136L313.219 329.76" stroke="#5D5FEF" stroke-width="0.647471" stroke-miterlimit="10" stroke-linecap="round" stroke-linejoin="round"/>
<path d="M458.447 165.435L460.667 161.549H415.145L417.366 165.435L415.478 168.877H460.445L458.447 165.435Z" fill="#5BF1CD"/>
<path d="M143.121 112.363L140.9 116.249H186.978L184.757 112.363L186.645 108.921H141.233L143.121 112.363Z" fill="#FFE48D"/>
<path d="M292.346 160.772L315.551 120.69H311.887L309.777 117.026L286.683 157.108H290.236L292.346 160.772Z" fill="#5BF1CD"/>
<path d="M140.9 221.95H186.978L184.757 218.064L186.645 214.622H141.233L143.121 218.064L140.9 221.95Z" fill="#FFE48D"/>
<path d="M382.28 120.69H377.728L400.822 160.772L402.931 157.108H407.484L384.389 117.026L382.28 120.69Z" fill="#FFE48D"/>
<path d="M199.08 120.69H194.639L217.844 160.772L219.954 157.108H224.284L201.19 117.026L199.08 120.69Z" fill="#5BF1CD"/>
<path d="M201.19 213.844L224.617 173.318H219.954L217.844 169.654L194.417 210.18H199.08L201.19 213.844Z" fill="#5BF1CD"/>
<path d="M276.691 165.435L278.911 161.549H232.057L234.277 165.435L232.279 168.877H278.689L276.691 165.435Z" fill="#5BF1CD"/>
<path d="M227.171 168.877L229.059 165.435L226.838 161.549H222.508L220.398 165.213L222.508 168.877H227.171Z" fill="#6F3FF5"/>
<path d="M283.797 168.877H287.683L289.792 165.213L287.683 161.549H284.13L281.909 165.435L283.797 168.877Z" fill="#6F3FF5"/>
<path d="M379.726 214.622H374.841L372.954 218.064L375.174 221.95H379.726L381.836 218.286L379.726 214.622Z" fill="#5D5FEF"/>
<path d="M226.838 267.25H222.508L220.398 270.914L222.508 274.578H227.171L229.059 271.136L226.838 267.25Z" fill="#6F3FF5"/>
<path d="M287.683 267.25H284.13L281.909 271.136L283.797 274.578H287.683L289.792 270.914L287.683 267.25Z" fill="#6F3FF5"/>
<path d="M375.174 116.249H379.726L381.836 112.585L379.726 108.921H374.841L372.954 112.363L375.174 116.249Z" fill="#5D5FEF"/>
<path d="M470.771 161.549H465.886L463.665 165.435L465.553 168.877H470.771L472.881 165.213L470.771 161.549Z" fill="#5D5FEF"/>
<path d="M136.126 214.622H131.241L129.131 218.286L131.241 221.95H135.793L138.014 218.064L136.126 214.622Z" fill="#6F3FF5"/>
<path d="M283.797 63.1766H287.683L289.792 59.5126L287.683 55.8486H284.13L281.909 59.7347L283.797 63.1766Z" fill="#6F3FF5"/>
<path d="M222.508 63.1766H227.171L229.059 59.7347L226.838 55.8486H222.508L220.398 59.5126L222.508 63.1766Z" fill="#6F3FF5"/>
<path d="M131.241 116.249H135.793L138.014 112.363L136.127 108.921H131.241L129.243 112.585L131.241 116.249Z" fill="#6F3FF5"/>
<path d="M410.038 161.549H405.485L403.487 165.213L405.485 168.877H410.371L412.258 165.435L410.038 161.549Z" fill="#5D5FEF"/>
<path d="M219.954 262.809H224.284L201.19 222.727L199.08 226.391H194.639L217.844 266.473L219.954 262.809Z" fill="#FFE48D"/>
<path d="M103.483 157.108H108.036L110.145 160.772L133.239 120.69H128.687L126.578 117.026L103.483 157.108Z" fill="#FFE48D"/>
<path d="M95.8226 161.549H50.3003L52.5209 165.435L50.5224 168.877H95.4895L93.602 165.435L95.8226 161.549Z" fill="#5BF1CD"/>
<path d="M100.93 161.549L98.7095 165.435L100.597 168.877H105.482L107.481 165.213L105.482 161.549H100.93Z" fill="#6F3FF5"/>
<path d="M232.279 274.578H278.689L276.691 271.136L278.911 267.25H232.057L234.277 271.136L232.279 274.578Z" fill="#FFE48D"/>
<path d="M292.346 266.473L315.551 226.391H311.887L309.777 222.727L286.683 262.809H290.236L292.346 266.473Z" fill="#FFE48D"/>
<path d="M323.212 221.95H370.067L367.846 218.064L369.733 214.622H323.434L325.433 218.064L323.212 221.95Z" fill="#FFE48D"/>
<path d="M45.0818 161.549H40.1965L38.0869 165.213L40.1965 168.877H45.4149L47.3024 165.435L45.0818 161.549Z" fill="#6F3FF5"/>
<path d="M318.327 214.622H314.441L312.331 218.286L314.441 221.95H318.105L320.325 218.064L318.327 214.622Z" fill="#5D5FEF"/>
<path d="M278.911 55.8486H232.057L234.277 59.7347L232.279 63.1766H278.689L276.691 59.7347L278.911 55.8486Z" fill="#FFE48D"/>
<path d="M191.864 108.921L189.865 112.363L192.086 116.249H196.527L198.637 112.585L196.527 108.921H191.864Z" fill="#6F3FF5"/>
<path d="M128.688 210.18H133.462L110.146 169.654L108.036 173.318H103.151L126.578 213.844L128.688 210.18Z" fill="#FFE48D"/>
<path d="M217.844 63.9534L194.417 104.479H199.08L201.19 108.143L224.617 67.6174H219.954L217.844 63.9534Z" fill="#FFE48D"/>
<path d="M196.527 221.95L198.637 218.286L196.527 214.622H191.864L189.865 218.064L192.086 221.95H196.527Z" fill="#6F3FF5"/>
<path d="M314.441 108.921L312.331 112.585L314.441 116.249H318.105L320.325 112.363L318.327 108.921H314.441Z" fill="#6F3FF5"/>
<path d="M290.236 67.6174H286.35L309.777 108.143L311.887 104.479H315.773L292.346 63.9534L290.236 67.6174Z" fill="#FFE48D"/>
<path d="M315.773 210.18L292.346 169.654L290.236 173.318H286.35L309.777 213.844L311.887 210.18H315.773Z" fill="#5BF1CD"/>
<path d="M384.39 213.844L407.817 173.318H402.932L400.822 169.654L377.506 210.18H382.28L384.39 213.844Z" fill="#FFE48D"/>
<path d="M369.733 108.921H323.434L325.433 112.363L323.212 116.249H370.067L367.846 112.363L369.733 108.921Z" fill="#FFE48D"/>
<path d="M144.121 160.772C144.676 161.882 145.342 162.992 146.008 163.881C145.231 166.323 145.12 169.099 145.564 171.764C147.229 180.868 156.001 186.975 165.105 185.309C174.099 183.644 180.205 175.095 178.651 165.99L176.541 150.668" stroke="#6F3FF5" stroke-width="0.647471" stroke-miterlimit="10"/>
<path d="M148.229 154.998C146.896 155.22 145.897 155.776 145.231 157.108C144.676 158.218 144.565 159.662 144.787 161.66C144.121 161.105 143.343 160.217 142.788 159.329C142.011 157.996 141.678 156.664 142.233 155.665L142.455 155.331L142.122 155.109C140.79 153.999 140.124 152.667 140.124 151.334C140.124 150.002 140.79 148.559 142.344 147.115L142.566 146.893L142.455 146.56C142.122 144.895 142.122 143.895 142.455 143.229C142.788 142.563 143.676 142.119 145.342 142.008H145.897L145.786 141.453C145.564 139.898 146.341 138.233 147.674 137.123C149.006 136.012 150.671 135.568 151.893 136.234L152.448 136.567L152.559 135.901C152.781 134.236 154.446 133.236 156.445 133.014C157.444 132.903 158.443 132.903 159.332 133.125C160.22 133.348 160.886 133.681 161.33 134.236L161.885 134.902L162.219 134.125C162.441 133.57 162.885 133.125 163.662 132.792C164.328 132.459 165.216 132.459 166.105 132.57C167.881 132.792 169.324 133.792 169.435 135.568L169.547 136.567L170.324 135.901C171.434 134.902 173.099 134.902 174.543 135.679C175.986 136.456 176.763 137.789 176.43 139.232L176.319 139.565L176.652 139.787C179.65 141.453 180.427 144.006 180.094 146.227C179.761 148.337 178.318 150.113 176.652 150.779C176.541 150.446 176.541 150.113 176.43 149.78V149.669C176.319 149.114 176.208 148.559 175.875 147.892L175.653 147.559L175.32 147.67C173.099 148.337 169.991 148.226 167.77 147.226L167.215 147.004L167.104 147.559C167.104 147.559 167.104 147.67 166.993 147.781C166.882 147.892 166.66 148.003 166.438 148.115C165.994 148.337 165.327 148.559 164.661 148.781C163.218 149.114 161.663 149.114 160.775 148.781L160.22 148.559L160.109 149.114C160.109 149.114 160.109 149.114 160.109 149.225C160.109 149.336 160.109 149.447 159.998 149.558C159.887 149.78 159.665 150.224 159.332 150.557C158.666 151.334 157.444 152.223 155.113 152.556L154.557 152.667L154.78 153.222C155.113 154.221 155.668 155.776 155.89 157.219C156.001 157.885 156.001 158.551 155.89 159.106C155.779 159.662 155.557 159.995 155.113 160.217C154.557 160.55 154.224 160.55 154.113 160.55C154.002 160.55 153.891 160.439 153.78 160.217C153.669 159.995 153.558 159.551 153.558 159.106C153.558 159.106 153.558 159.106 153.558 158.995C153.447 158.551 153.447 158.107 153.225 157.774C152.559 155.998 150.782 154.776 148.229 154.998Z" stroke="#6F3FF5" stroke-width="0.647471" stroke-miterlimit="10"/>
<path d="M158.444 185.198C157.556 188.529 156.001 191.638 153.892 194.303C153.892 194.303 163.218 202.519 175.32 193.969C175.32 193.969 169.325 187.974 168.881 183.866" stroke="#6F3FF5" stroke-width="0.647471" stroke-miterlimit="10"/>
<path d="M153.892 194.303L140.79 200.742" stroke="#6F3FF5" stroke-width="0.647471" stroke-miterlimit="10"/>
<path d="M188.422 200.742L175.32 194.303" stroke="#6F3FF5" stroke-width="0.647471" stroke-miterlimit="10"/>
<path d="M75.1714 134.569H58.5169C58.5169 134.569 56.5183 134.569 55.186 133.348C54.4087 132.571 54.0757 131.572 54.0757 130.35C54.0757 125.576 51.633 98.4847 51.522 97.3744C51.522 97.2634 51.744 82.6074 65.9559 81.164C66.511 81.164 67.0662 81.053 67.6213 81.053C80.2788 81.053 82.2773 95.931 82.3883 96.4862L83.2766 124.91C76.8368 127.13 75.3934 132.904 75.1714 134.569Z" stroke="#6F3FF5" stroke-width="0.647471" stroke-miterlimit="10"/>
<path d="M75.5046 119.58C75.7267 120.69 75.6157 121.579 75.1715 122.245C74.5054 123.133 73.5061 123.244 73.3951 123.244H65.2899C62.7362 123.244 61.6259 121.69 61.4038 120.801" stroke="#6F3FF5" stroke-width="0.647471" stroke-miterlimit="10"/>
<path d="M76.0594 109.921L59.627 110.476C59.1828 110.476 58.8497 110.365 58.5167 110.032C58.1836 109.699 58.0725 109.365 57.9615 108.921L57.6284 101.26C57.6284 100.927 57.7394 100.483 57.9615 100.261C57.9615 100.261 57.9615 100.15 58.0725 100.15C58.0725 100.15 58.0725 100.15 58.1836 100.15C58.5167 99.8169 58.8497 99.7058 59.1828 99.7058L75.6153 99.2617C76.5035 99.2617 77.1697 99.9279 77.2807 100.816L77.6138 108.366C77.6138 109.143 76.9476 109.921 76.0594 109.921Z" stroke="#6F3FF5" stroke-width="0.647471" stroke-miterlimit="10"/>
<path d="M82.6104 98.1514H84.1648C84.942 98.1514 85.7192 98.3734 86.2743 98.9286C86.8295 99.4837 87.1626 100.15 87.2736 101.038L87.4957 108.588C87.6067 110.254 86.2743 111.586 84.6089 111.697H83.0545" stroke="#6F3FF5" stroke-width="0.647471" stroke-miterlimit="10"/>
<path d="M52.41 112.03L51.1886 112.141C49.5232 112.252 48.0798 111.031 47.9688 109.366L47.4136 101.927C47.3026 101.149 47.6357 100.372 48.0798 99.706C48.6349 99.0398 49.3011 98.7067 50.0783 98.7067L51.2997 98.5957" stroke="#6F3FF5" stroke-width="0.647471" stroke-miterlimit="10"/>
<path d="M49.1904 99.1509C49.0793 96.042 49.0793 77.7221 64.8456 76.5007C70.2861 76.0566 74.7273 77.389 78.0582 80.3868C84.6089 86.1603 84.72 96.3751 84.72 98.0406" stroke="#6F3FF5" stroke-width="0.647471" stroke-miterlimit="10"/>
<path d="M77.0592 99.9281L75.8379 97.9296C75.1717 96.9303 74.1724 96.3751 73.2842 96.4862L61.8481 97.0413C60.9598 97.0413 60.0716 97.5965 59.5164 98.4847L58.1841 100.483" stroke="#6F3FF5" stroke-width="0.647471" stroke-miterlimit="10"/>
<path d="M54.2978 128.907C54.2978 128.907 47.9691 128.13 46.0815 143.785" stroke="#6F3FF5" stroke-width="0.647471" stroke-miterlimit="10"/>
<path d="M83.3877 124.91C83.3877 124.91 93.9355 122.578 103.262 138.012" stroke="#6F3FF5" stroke-width="0.647471" stroke-miterlimit="10"/>
<path d="M92.8252 127.13C92.8252 127.13 83.2766 126.575 80.2788 141.009" stroke="#6F3FF5" stroke-width="0.647471" stroke-miterlimit="10"/>
<path d="M53.9646 131.238C53.9646 131.238 51.4109 136.012 50.4116 143.895" stroke="#6F3FF5" stroke-width="0.647471" stroke-miterlimit="10"/>
</g>
<defs>
<filter id="filter0_d_1471_45565" x="0.67627" y="0.67627" width="509.615" height="337.407" filterUnits="userSpaceOnUse" color-interpolation-filters="sRGB">
<feFlood flood-opacity="0" result="BackgroundImageFix"/>
<feColorMatrix in="SourceAlpha" type="matrix" values="0 0 0 0 0 0 0 0 0 0 0 0 0 0 0 0 0 0 127 0" result="hardAlpha"/>
<feOffset dy="4"/>
<feGaussianBlur stdDeviation="2"/>
<feComposite in2="hardAlpha" operator="out"/>
<feColorMatrix type="matrix" values="0 0 0 0 0 0 0 0 0 0 0 0 0 0 0 0 0 0 0.25 0"/>
<feBlend mode="normal" in2="BackgroundImageFix" result="effect1_dropShadow_1471_45565"/>
<feBlend mode="normal" in="SourceGraphic" in2="effect1_dropShadow_1471_45565" result="shape"/>
</filter>
</defs>
</svg>
