<svg width="585" height="425" viewBox="0 0 585 425" fill="none" xmlns="http://www.w3.org/2000/svg">
<path d="M152.553 48.7269L316.021 244.972L132.59 338.503" stroke="#6F3FF5" stroke-width="1.5" stroke-miterlimit="10"/>
<path d="M337.9 273.208L425.644 376.422" stroke="#6F3FF5" stroke-width="1.5" stroke-miterlimit="10"/>
<path d="M463.48 188.64L315.044 240.565L377.912 47.1885" stroke="#6F3FF5" stroke-width="1.5" stroke-miterlimit="10"/>
<path d="M309.876 283.509C332.231 283.914 350.751 266.429 351.241 244.457C351.731 222.485 334.006 204.345 311.651 203.941C289.295 203.537 270.775 221.022 270.285 242.994C269.795 264.966 287.52 283.105 309.876 283.509Z" fill="white" stroke="#6F3FF5" stroke-width="1.5" stroke-miterlimit="10"/>
<path fill-rule="evenodd" clip-rule="evenodd" d="M337.151 244.779C337.183 243.37 337.096 241.961 336.893 240.567L328.511 237.452L332.539 229.554C330.91 227.237 328.912 225.192 326.622 223.499L318.431 227.136L315.602 218.779C312.779 218.266 309.888 218.214 307.045 218.624L303.846 226.872L295.824 222.942C293.46 224.552 291.372 226.522 289.641 228.779L293.313 236.816L284.8 239.625C284.268 242.402 284.205 245.243 284.612 248.036L292.993 251.151L288.966 259.049C290.595 261.367 292.593 263.411 294.883 265.105L303.074 261.467L305.903 269.825C308.725 270.337 311.617 270.389 314.46 269.979L317.659 261.731L325.681 265.661C328.045 264.052 330.132 262.081 331.864 259.825L328.192 251.787L336.705 248.978C336.971 247.592 337.12 246.188 337.151 244.779Z" stroke="#6F3FF5" stroke-width="1.5" stroke-miterlimit="10"/>
<ellipse rx="4.40048" ry="4.32543" transform="matrix(0.999837 0.0180729 -0.0223044 0.999751 310.753 244.302)" stroke="#6F3FF5" stroke-width="1.5" stroke-miterlimit="10"/>
<rect width="7.44333" height="7.40908" transform="matrix(0.814471 -0.583691 0.59377 0.802086 236.012 282.06)" fill="#DAD1FF" stroke="#6F3FF5" stroke-width="1.5" stroke-miterlimit="10"/>
<rect width="7.36443" height="7.48751" transform="matrix(-0.159684 0.987752 -0.987981 -0.150923 345.132 158.832)" fill="#DAD1FF" stroke="#6F3FF5" stroke-width="1.5" stroke-miterlimit="10"/>
<rect width="7.42354" height="7.42891" transform="matrix(0.68218 0.728285 -0.742917 0.672531 229.967 135.552)" fill="#DAD1FF" stroke="#6F3FF5" stroke-width="1.5" stroke-miterlimit="10"/>
<rect width="7.46239" height="7.38988" transform="matrix(-0.89866 0.442562 -0.451525 -0.890284 435.025 201.398)" fill="#DAD1FF" stroke="#6F3FF5" stroke-width="1.5" stroke-miterlimit="10"/>
<rect width="7.42354" height="7.42891" transform="matrix(0.68218 0.728285 -0.742917 0.672531 271.673 186.49)" fill="#DAD1FF" stroke="#6F3FF5" stroke-width="1.5" stroke-miterlimit="10"/>
<rect width="7.42354" height="7.42891" transform="matrix(0.68218 0.728285 -0.742917 0.672531 357.658 289.967)" fill="#DAD1FF" stroke="#6F3FF5" stroke-width="1.5" stroke-miterlimit="10"/>
<rect width="7.46239" height="7.38988" transform="matrix(-0.89866 0.442562 -0.451525 -0.890284 383.577 219.304)" fill="#DAD1FF" stroke="#6F3FF5" stroke-width="1.5" stroke-miterlimit="10"/>
<path d="M410.768 421.366C444.691 421.979 472.795 395.447 473.538 362.105C474.282 328.764 447.385 301.238 413.462 300.624C379.538 300.011 351.435 326.543 350.691 359.885C349.947 393.227 376.845 420.753 410.768 421.366Z" fill="white" stroke="#6F3FF5" stroke-width="1.5" stroke-miterlimit="10"/>
<path d="M410.85 379.426C431.11 379.792 447.902 363.572 448.356 343.196C448.811 322.821 432.756 306.006 412.496 305.64C392.236 305.274 375.444 321.494 374.989 341.87C374.535 362.245 390.59 379.06 410.85 379.426Z" fill="#5BF1CD"/>
<path d="M406.016 377.329L415.729 377.505C415.751 377.738 415.784 378.023 415.833 378.349C415.976 379.295 416.255 380.599 416.804 382.036C417.413 383.632 418.673 384.746 420.02 385.513C420.654 385.874 421.32 386.166 421.973 386.402C416.671 388.564 412.624 389.506 408.903 389.391C405.272 389.28 401.881 388.161 397.865 386.063C398.744 385.848 399.712 385.565 400.642 385.195C402.343 384.519 404.129 383.472 404.844 381.82C405.46 380.394 405.764 379.09 405.913 378.141C405.962 377.831 405.994 377.557 406.016 377.329Z" stroke="#6F3FF5" stroke-width="1.5"/>
<path d="M449.8 405.759L449.845 403.772C449.851 403.499 449.855 403.317 449.861 403.043C449.865 402.861 449.869 402.679 449.873 402.497C449.879 402.223 449.79 402.039 449.795 401.857L449.797 401.766C449.801 401.584 449.714 401.309 449.718 401.127C449.722 400.944 449.728 400.671 449.64 400.487C449.64 400.487 449.644 400.305 449.555 400.121C449.225 398.292 448.52 396.638 447.535 395.071C447.446 394.887 447.265 394.701 447.176 394.518C447.087 394.334 446.999 394.15 446.817 393.964C446.366 393.409 445.915 392.854 445.371 392.297C445.008 391.926 444.553 391.553 444.19 391.182C441.004 388.481 437.312 387.685 435.184 387.464C433.067 387.105 427.438 386.845 421.351 386.678M369.284 402.316C369.288 402.134 369.292 401.952 369.296 401.769C369.316 400.858 369.522 399.95 369.728 399.043C370.339 396.592 371.407 394.424 372.933 392.538C373.697 391.549 374.645 390.654 375.683 389.853C378.607 387.627 382.253 386.325 386.24 386.397C389.503 386.38 393.624 386.373 398.094 386.386" stroke="#6F3FF5" stroke-width="1.5"/>
<path d="M436.763 412.286L436.678 416.073" stroke="#6F3FF5" stroke-width="1.5"/>
<path d="M386.516 411.378L386.415 415.867" stroke="#6F3FF5" stroke-width="1.5"/>
<path d="M399.847 344.039C399.479 347 399.111 349.961 398.726 352.938C394.607 354.116 390.837 349.764 386.567 350.181C385.465 346.93 384.513 342.691 385.342 339.359C386.171 336.027 389.742 333.108 393.021 334.239C393.123 331.174 394.866 328.189 397.52 326.555C400.173 324.922 403.65 324.671 406.508 325.91C408.837 323.018 411.931 320.386 415.663 320.009C419.395 319.631 423.542 322.476 423.259 326.147C428.126 324.537 434.023 327.842 435.087 332.774C436.317 338.533 431.327 344.18 425.602 345.939C419.876 347.699 413.695 346.598 407.815 345.486C404.943 344.923 399.847 344.039 399.847 344.039Z" fill="#6F3FF5" stroke="#6F3FF5" stroke-width="1.5" stroke-miterlimit="10"/>
<path d="M389.765 359.241C389.071 358.767 388.516 358.081 388.25 357.219C387.937 356.224 388.061 355.188 388.533 354.323" stroke="#6F3FF5" stroke-width="1.5"/>
<path d="M407.052 352.063C407.152 350.278 408.704 348.905 410.52 348.997C412.335 349.088 413.726 350.609 413.627 352.394" stroke="#6F3FF5" stroke-width="1.5"/>
<path d="M409.164 355.476C409.958 355.49 410.616 354.869 410.633 354.089C410.65 353.309 410.021 352.665 409.227 352.651C408.434 352.636 407.776 353.257 407.759 354.037C407.741 354.817 408.37 355.462 409.164 355.476Z" fill="#6F3FF5"/>
<path d="M425.747 355.776C426.541 355.79 427.199 355.169 427.216 354.389C427.233 353.609 426.604 352.965 425.81 352.951C425.017 352.936 424.359 353.557 424.342 354.337C424.324 355.117 424.953 355.761 425.747 355.776Z" fill="#6F3FF5"/>
<path d="M420.268 352.408C420.308 350.622 421.813 349.2 423.631 349.233C425.449 349.266 426.89 350.741 426.851 352.527" stroke="#6F3FF5" stroke-width="1.5"/>
<path d="M415.404 363.376L420.203 361.41L418.471 354.748" stroke="#6F3FF5" stroke-width="1.5"/>
<path d="M410.114 368.808C410.697 370.484 412.246 371.732 413.961 372.323C415.675 372.915 417.537 372.915 419.335 372.767" stroke="#6F3FF5" stroke-width="1.5"/>
<path d="M411.172 376.946C401.591 376.773 392.553 370.754 391.264 362.194C391.258 362.106 391.243 362.016 391.237 361.978L391.236 361.971C391.23 361.931 391.224 361.894 391.219 361.867L391.214 361.835L391.212 361.825L391.211 361.823L391.211 361.822L391.211 361.822L391.211 361.821L391.211 361.821L390.473 361.958L391.211 361.821L391.062 360.996L390.258 361.24C387.314 362.135 384.205 360.513 383.313 357.649C382.422 354.79 384.058 351.731 386.992 350.838C387.891 350.571 388.82 350.532 389.685 350.69L389.719 350.76L390.358 352.086L391.055 350.785C391.084 350.732 391.103 350.684 391.115 350.648C391.117 350.643 391.118 350.638 391.12 350.633L391.13 350.614L391.152 350.535C393.683 341.548 402.168 335.009 412.104 335.188C423.875 335.401 433.16 344.923 432.903 356.443C432.646 367.965 422.926 377.159 411.172 376.946Z" stroke="#6F3FF5" stroke-width="1.5"/>
<path d="M137.974 393.129C173.782 393.777 203.447 365.771 204.232 330.577C205.017 295.383 176.625 266.327 140.817 265.68C105.01 265.033 75.3449 293.039 74.5598 328.233C73.7746 363.427 102.166 392.482 137.974 393.129Z" fill="white" stroke="#6F3FF5" stroke-width="1.5" stroke-miterlimit="10"/>
<path d="M140.657 369.803C168.109 370.299 190.852 348.828 191.454 321.846C192.056 294.863 170.289 272.588 142.837 272.092C115.384 271.595 92.6409 293.066 92.0389 320.049C91.437 347.031 113.204 369.306 140.657 369.803Z" fill="#FFE88F"/>
<path d="M132.444 339.795L144.29 340.009C144.316 340.307 144.358 340.688 144.426 341.136C144.594 342.256 144.925 343.801 145.575 345.503C146.286 347.364 147.759 348.67 149.347 349.575C150.211 350.067 151.128 350.452 152.013 350.75C145.506 353.434 140.562 354.61 136.013 354.47C131.552 354.334 127.397 352.929 122.447 350.306C123.587 350.041 124.879 349.679 126.114 349.188C128.137 348.384 130.217 347.154 131.045 345.24C131.775 343.553 132.133 342.011 132.31 340.888C132.378 340.458 132.419 340.089 132.444 339.795Z" stroke="#6F3FF5" stroke-width="1.5"/>
<path d="M159.363 309.053C161.23 309.631 162.194 311.061 162.162 312.474C162.133 313.778 160.878 315.494 159.1 315.897M116.913 308.177C114.257 308.238 112.891 309.953 112.855 311.582C112.819 313.212 114.541 315.309 116.755 315.24" stroke="#6F3FF5" stroke-width="1.5"/>
<path d="M158.921 313.828C158.81 313.826 158.813 313.718 158.815 313.609C158.931 313.394 159.412 311.663 160.188 311.569C160.409 311.573 160.628 311.685 160.844 311.907C160.842 312.015 160.842 312.015 160.839 312.124C160.729 312.122 160.729 312.122 160.618 312.12C160.402 311.899 160.291 311.897 160.181 311.895C159.736 311.995 159.27 313.074 159.032 313.83C159.032 313.83 158.921 313.828 158.921 313.828Z" fill="#6F3FF5"/>
<path d="M160.576 314.076C160.468 313.966 160.468 313.966 160.47 313.857C160.583 313.75 160.586 313.642 160.48 313.422C160.381 312.877 159.509 312.318 159.399 312.316C159.288 312.314 159.29 312.205 159.403 312.098C159.406 311.99 159.516 311.992 159.624 312.102C159.624 312.102 160.607 312.664 160.814 313.32C160.92 313.539 160.804 313.754 160.691 313.861C160.689 313.97 160.686 314.078 160.576 314.076Z" fill="#6F3FF5"/>
<path d="M116.138 313.055C116.027 313.053 116.027 313.053 116.03 312.944C115.823 312.288 115.408 311.085 114.968 310.968C114.968 310.968 114.747 310.964 114.521 311.178C114.518 311.286 114.408 311.284 114.3 311.174C114.189 311.172 114.192 311.063 114.304 310.956C114.53 310.743 114.756 310.53 114.975 310.642C115.747 310.765 116.148 312.62 116.256 312.731C116.361 312.95 116.248 313.057 116.138 313.055Z" fill="#6F3FF5"/>
<path d="M114.475 313.242C114.475 313.242 114.364 313.24 114.367 313.131C114.261 312.912 114.266 312.695 114.268 312.586C114.504 311.938 115.4 311.411 115.511 311.413C115.622 311.415 115.622 311.415 115.732 311.417C115.73 311.525 115.73 311.525 115.727 311.634C115.727 311.634 114.831 312.161 114.597 312.701C114.595 312.809 114.593 312.918 114.588 313.135C114.59 313.027 114.588 313.135 114.475 313.242Z" fill="#6F3FF5"/>
<path d="M132.485 323.895C133.333 325.541 135.189 326.661 137.289 326.699C138.284 326.717 139.286 326.409 140.181 325.991C140.964 325.57 141.753 324.932 142.214 324.071" stroke="#6F3FF5" stroke-width="1.5"/>
<path d="M143.054 306.269C143.638 304.866 145.316 304.027 146.751 304.161C148.296 304.298 149.596 305.517 149.894 307.044" stroke="#6F3FF5" stroke-width="1.5"/>
<path d="M126.472 305.969C127.056 304.566 128.734 303.727 130.169 303.862C131.714 303.998 133.014 305.218 133.312 306.745" stroke="#6F3FF5" stroke-width="1.5"/>
<path d="M129.21 312.096C130.004 312.111 130.661 311.49 130.679 310.71C130.696 309.929 130.067 309.285 129.273 309.271C128.479 309.257 127.822 309.878 127.804 310.658C127.787 311.438 128.416 312.082 129.21 312.096Z" fill="#6F3FF5"/>
<path d="M145.793 312.396C146.587 312.41 147.244 311.79 147.262 311.009C147.279 310.229 146.65 309.585 145.856 309.571C145.062 309.556 144.405 310.177 144.387 310.957C144.37 311.738 144.999 312.382 145.793 312.396Z" fill="#6F3FF5"/>
<path d="M139.978 316.492L135.224 316.406L137.251 309.811" stroke="#6F3FF5" stroke-width="1.5"/>
<path d="M184.791 373.845L184.844 371.476C184.851 371.15 184.856 370.932 184.863 370.606C184.868 370.389 184.873 370.172 184.878 369.955C184.885 369.629 184.779 369.409 184.784 369.192L184.787 369.083C184.791 368.866 184.688 368.538 184.693 368.321C184.698 368.103 184.705 367.777 184.599 367.558C184.599 367.558 184.604 367.341 184.498 367.121C184.105 364.94 183.264 362.968 182.089 361.099C181.983 360.88 181.767 360.658 181.661 360.439C181.556 360.22 181.45 360.001 181.234 359.779C180.695 359.117 180.157 358.455 179.508 357.791C179.076 357.349 178.533 356.904 178.1 356.462C174.301 353.24 169.898 352.291 167.361 352.028C164.836 351.6 158.123 351.289 150.864 351.091M88.772 369.739C88.7768 369.522 88.7817 369.305 88.7865 369.087C88.8108 368.001 89.0561 366.918 89.3015 365.835C90.0302 362.914 91.3045 360.328 93.1243 358.078C94.0354 356.899 95.1652 355.832 96.4031 354.876C99.8909 352.222 104.239 350.67 108.993 350.756C112.884 350.735 117.798 350.726 123.129 350.742" stroke="#6F3FF5" stroke-width="1.5"/>
<path d="M140.558 329.245L140.57 329.243L140.582 329.241L142.241 328.946C149.815 327.732 155.951 322.646 157.627 315.385L158.78 311.168L159.548 321.485C159.514 322.908 159.24 328.693 154.608 333.679C150.204 338.134 144.945 338.91 143.373 339.104L133.697 338.929C127.453 338.816 121.828 335.174 119.313 329.741L119.314 329.741L119.308 329.73L118.886 328.853C117.994 327.003 117.614 324.936 117.553 322.837L117.575 310.418L120.445 320.742L120.48 320.87L120.558 320.978C122.483 323.652 126.859 327.088 132.171 328.64C134.816 329.483 137.801 329.645 140.558 329.245Z" stroke="#6F3FF5" stroke-width="1.5"/>
<path d="M158.925 309.588C158.812 309.595 158.725 309.591 158.659 309.581C158.54 309.563 158.511 309.532 158.503 309.523L158.503 309.522C158.484 309.502 158.438 309.437 158.399 309.258C158.36 309.077 158.341 308.835 158.338 308.51C158.336 308.232 158.348 307.906 158.361 307.541C158.407 306.265 158.47 304.51 158.016 302.64L158.014 302.632L158.012 302.624C157.392 300.304 156.139 298.862 155.067 297.629C154.991 297.541 154.916 297.455 154.842 297.369C153.726 296.076 152.888 294.979 152.833 293.135L152.833 293.135L152.832 293.126C152.759 291.349 151.39 290.331 149.713 289.768C148.024 289.2 145.763 288.987 143.327 288.95C140.053 288.9 136.289 289.17 132.934 289.411C131.306 289.528 129.775 289.638 128.443 289.701C126.318 289.802 124.72 290.138 123.539 290.727C122.328 291.331 121.578 292.19 121.157 293.249C120.749 294.274 120.666 295.443 120.682 296.649C120.69 297.327 120.734 298.082 120.778 298.858C120.811 299.426 120.844 300.006 120.865 300.574C120.991 304.361 119.815 306.348 118.721 307.393C118.162 307.926 117.599 308.239 117.181 308.417C117.172 308.421 117.164 308.424 117.156 308.428C117.031 307.974 116.874 307.308 116.746 306.469C116.491 304.788 116.356 302.424 116.844 299.705L116.845 299.698L116.847 299.691C117.269 297.044 119.78 291.154 124.532 286.733C129.233 282.359 136.097 279.443 145.345 282.556C154.565 285.715 157.923 292.537 158.995 298.635C159.532 301.696 159.49 304.565 159.31 306.674C159.221 307.727 159.098 308.586 158.998 309.179C158.972 309.334 158.947 309.471 158.925 309.588Z" stroke="#6F3FF5" stroke-width="1.5"/>
<path d="M139.185 321.53L139.185 321.53L139.19 321.527C140.58 320.831 141.869 320.933 143.062 321.478C144.285 322.037 145.406 323.066 146.345 324.206C146.701 324.639 147.025 325.08 147.313 325.506C147.285 325.491 147.257 325.478 147.229 325.464C146.055 324.879 144.679 324.354 143.386 323.874C143.214 323.81 143.044 323.747 142.876 323.685C142.151 323.417 141.464 323.163 140.846 322.914C140.079 322.605 139.47 322.324 139.062 322.063C138.902 321.96 138.795 321.875 138.727 321.809C138.811 321.739 138.954 321.644 139.185 321.53ZM138.65 321.717C138.65 321.717 138.65 321.718 138.651 321.719C138.65 321.717 138.65 321.717 138.65 321.717Z" stroke="#6F3FF5" stroke-width="1.5"/>
<path d="M137.056 321.489L137.056 321.489L137.061 321.492C137.283 321.612 137.423 321.712 137.506 321.787C137.488 321.803 137.466 321.822 137.439 321.843C137.209 322.023 136.814 322.232 136.245 322.468C135.689 322.698 135.021 322.933 134.282 323.18C133.962 323.287 133.629 323.396 133.289 323.508C132.074 323.906 130.759 324.338 129.585 324.816C129.315 324.926 129.05 325.04 128.792 325.157C129.185 324.581 129.643 323.976 130.159 323.408C131.08 322.392 132.142 321.536 133.296 321.124C134.417 320.724 135.665 320.725 137.056 321.489ZM137.587 321.698C137.588 321.698 137.586 321.702 137.58 321.711C137.583 321.703 137.586 321.698 137.587 321.698Z" stroke="#6F3FF5" stroke-width="1.5"/>
<path d="M169.245 381.628L169.144 386.144" stroke="#6F3FF5" stroke-width="1.5"/>
<path d="M109.323 380.545L109.204 385.9" stroke="#6F3FF5" stroke-width="1.5"/>
<path d="M168.412 124.389C202.538 125.006 230.809 98.3156 231.557 64.7746C232.305 31.2335 205.248 3.5431 171.122 2.92624C136.996 2.30939 108.724 28.9997 107.976 62.5407C107.228 96.0817 134.286 123.772 168.412 124.389Z" fill="white" stroke="#6F3FF5" stroke-width="1.5" stroke-miterlimit="10"/>
<path d="M169.779 101.11C191.283 101.498 209.097 84.6798 209.569 63.5444C210.041 42.409 192.99 24.9602 171.486 24.5715C149.982 24.1828 132.168 41.0013 131.696 62.1368C131.224 83.2722 148.275 100.721 169.779 101.11Z" fill="#5BF1CD"/>
<path d="M166.325 43.3635C167.95 43.3929 169.297 42.1213 169.333 40.5233C169.369 38.9253 168.08 37.606 166.454 37.5767C164.828 37.5473 163.481 38.8189 163.445 40.4169C163.41 42.0148 164.699 43.3341 166.325 43.3635Z" fill="#6F3FF5"/>
<path d="M180.96 47.4874C184.211 47.5461 186.905 45.0029 186.976 41.8069C187.048 38.611 184.47 35.9725 181.218 35.9137C177.966 35.8549 175.272 38.3981 175.201 41.5941C175.13 44.7901 177.708 47.4286 180.96 47.4874Z" fill="#6F3FF5"/>
<path d="M192.182 59.8594C189.603 66.7527 170.429 65.3731 159.306 62.0731C153.101 60.2442 151.963 58.5651 151.577 57.4378C149.616 51.8156 159.338 40.2067 170.313 39.6195C183.171 38.9207 194.587 53.4723 192.182 59.8594Z" fill="#6F3FF5"/>
<path d="M154.168 56.0814C153.225 55.8494 152.189 55.8593 151.191 56.1567C148.298 57.0362 146.67 60.0605 147.554 62.9008C148.439 65.741 151.511 67.3306 154.404 66.451C154.404 66.451 154.443 66.6668 154.441 66.7241C155.608 74.6016 163.846 79.9833 172.39 80.1377C182.961 80.3288 191.722 72.0573 191.954 61.6675C192.186 51.2778 183.8 42.6963 173.229 42.5053C164.291 42.3437 156.648 48.2269 154.367 56.3288C154.352 56.3572 154.351 56.3858 154.336 56.4142L154.168 56.0814Z" fill="#5BF1CD" stroke="#6F3FF5" stroke-width="1.5" stroke-miterlimit="10"/>
<path d="M153.092 62.9107C152.488 62.4984 152.006 61.9019 151.775 61.1522C151.502 60.2871 151.61 59.3859 152.02 58.6334" stroke="#6F3FF5" stroke-width="1.5" stroke-miterlimit="10"/>
<path d="M151.946 63.5633C151.532 63.5558 151.188 63.8855 151.179 64.2996C151.17 64.7137 151.498 65.0555 151.912 65.0629L151.946 63.5633ZM151.912 65.0629C152.018 65.0648 152.216 65.1363 152.418 65.4619C152.614 65.7792 152.755 66.2589 152.742 66.8224L154.242 66.8495C154.26 66.0371 154.063 65.2635 153.693 64.6674C153.329 64.0795 152.73 63.5775 151.946 63.5633L151.912 65.0629ZM152.742 66.8224C152.729 67.3858 152.568 67.8601 152.357 68.17C152.141 68.488 151.94 68.5523 151.834 68.5504L151.801 70.05C152.585 70.0642 153.206 69.5842 153.596 69.01C153.993 68.4277 154.224 67.6618 154.242 66.8495L152.742 66.8224ZM151.834 68.5504C151.729 68.5485 151.531 68.477 151.329 68.1514C151.132 67.8341 150.992 67.3544 151.005 66.791L149.505 66.7639C149.487 67.5762 149.684 68.3498 150.053 68.9459C150.418 69.5338 151.017 70.0359 151.801 70.05L151.834 68.5504ZM151.005 66.791C151.01 66.5554 151.039 66.3393 151.088 66.1407L149.633 65.7836C149.554 66.0988 149.513 66.4262 149.505 66.7639L151.005 66.791Z" fill="#6F3FF5"/>
<path d="M158.107 59.6177C164.068 59.7254 176.005 49.4002 176.136 43.5409C176.267 37.6816 164.413 44.2939 158.451 44.1861C152.49 44.0783 152.522 45.9362 152.391 51.7955C149.319 57.5291 152.145 59.5099 158.107 59.6177Z" fill="#6F3FF5"/>
<path d="M173.192 43.5117C173.085 48.3284 182.183 57.1583 186.916 57.2438C206.846 57.6041 173.418 33.3893 173.192 43.5117Z" fill="#6F3FF5"/>
<path d="M153.397 50.8486C156.649 50.9073 159.343 48.3641 159.414 45.1681C159.485 41.9722 156.907 39.3337 153.655 39.2749C150.404 39.2161 147.71 41.7593 147.638 44.9553C147.567 48.1513 150.145 50.7898 153.397 50.8486Z" fill="#6F3FF5"/>
<path d="M185.519 89.2236C183.347 88.7553 178.746 87.5566 177.756 84.9644C176.766 82.3721 177.086 79.7621 177.086 79.7621C172.358 80.4863 170.052 80.4691 166.614 79.5728C166.614 79.5728 166.294 82.1828 165.189 84.7372C164.084 87.2916 159.434 88.323 157.243 88.7125" stroke="#6F3FF5" stroke-width="1.5"/>
<path d="M169.638 70.0182C170.307 71.3175 171.859 72.2037 173.43 72.2321C174.215 72.2463 175.006 72.0031 175.712 71.6727C176.331 71.3406 176.953 70.837 177.318 70.1571" stroke="#6F3FF5" stroke-width="1.5"/>
<path d="M178.154 56.0997C178.598 55.7645 179.57 55.2672 180.877 55.3766C182.272 55.4877 183.214 56.277 183.556 56.6264" stroke="#6F3FF5" stroke-width="1.5"/>
<path d="M165.065 55.8631C165.42 55.6121 166.308 54.9416 167.704 54.9669C169.273 55.0811 170.21 56.1277 170.466 56.3898" stroke="#6F3FF5" stroke-width="1.5"/>
<path d="M174.121 60.9174L175.49 66.0908L171.65 66.0214" stroke="#6F3FF5" stroke-width="1.5"/>
<path d="M208.165 111.163L208.288 105.681C208.324 104.052 208.097 102.503 207.435 100.861C207.357 100.43 207.192 99.9981 207.027 99.566C206.284 97.6648 205.098 96.0129 203.734 94.5295C202.881 93.6559 201.938 92.8666 201.077 92.3362C200.819 92.1599 200.559 92.0694 200.301 91.8931C199.61 91.5374 199.005 91.269 198.313 90.999C197.966 90.907 197.62 90.7291 197.273 90.637C196.579 90.4528 195.972 90.2702 195.363 90.1734C195.014 90.1671 194.754 90.0766 194.492 90.0719C194.232 89.9814 193.97 89.9766 193.708 89.9719C192.925 89.8719 192.229 89.7735 191.445 89.6735C191.358 89.672 191.358 89.672 191.271 89.6704C191.009 89.6657 190.749 89.5752 190.487 89.5704C190.14 89.4783 189.704 89.4704 189.356 89.3784C189.007 89.3721 188.747 89.2815 188.398 89.2752C187.18 89.0816 185.962 88.888 184.655 88.7785C184.568 88.7769 184.481 88.7754 184.393 88.7738C183.61 88.6738 182.733 88.8296 181.851 89.2427C180.969 89.6558 179.995 90.2389 179.02 90.9077C178.842 91.0761 178.576 91.243 178.31 91.4098C175.739 93.1653 173.075 95.1766 170.544 95.1309C167.753 94.9946 165.286 92.1183 162.886 90.1012C162.717 89.8408 162.459 89.6645 162.201 89.4882C161.086 88.6099 159.965 87.989 158.741 88.0527C157.866 88.1227 157.079 88.1942 156.292 88.2658C154.979 88.4137 153.755 88.4774 152.529 88.6269C152.18 88.6206 151.831 88.6143 151.567 88.6953C151.129 88.7732 150.78 88.7669 150.342 88.8448C149.991 88.9242 149.642 88.9179 149.291 88.9974C148.94 89.0769 148.678 89.0721 148.327 89.1516C147.629 89.139 146.929 89.2121 146.229 89.2853C145.965 89.3663 145.616 89.36 145.352 89.4411C144.652 89.5142 143.95 89.6731 143.333 89.9194C142.98 90.0847 142.629 90.1641 142.276 90.3294C141.66 90.5757 141.041 90.9077 140.423 91.2398C140.246 91.3224 139.981 91.4892 139.715 91.6561C136.882 93.4069 134.728 96.0281 133.525 99.0955C133.341 99.5213 133.156 99.947 133.06 100.374C132.682 101.655 132.479 102.938 132.448 104.311L132.281 111.783" stroke="#6F3FF5" stroke-width="1.5"/>
<path d="M196.566 118.025C196.245 117.008 195.93 115.715 195.414 115.705C194.898 115.696 194.526 116.977 194.159 117.981C193.699 119.352 193.15 120.813 192.119 120.794C191.001 120.774 190.604 119.296 190.205 117.91C189.884 116.893 189.569 115.6 189.053 115.59C188.537 115.581 188.165 116.862 187.798 117.866C187.338 119.237 186.789 120.698 185.758 120.68C184.64 120.659 184.243 119.181 183.844 117.795C183.523 116.778 183.208 115.485 182.692 115.475C182.176 115.466 181.804 116.747 181.437 117.751C180.977 119.122 180.514 120.585 179.397 120.565C178.279 120.544 177.882 119.066 177.483 117.68C177.162 116.663 176.847 115.37 176.331 115.36C175.815 115.351 175.443 116.632 175.077 117.636C174.616 119.007 174.153 120.47 173.036 120.45C171.919 120.429 171.522 118.951 171.123 117.565C170.801 116.548 170.486 115.255 169.97 115.245C169.455 115.236 169.082 116.517 168.716 117.521C168.255 118.892 167.793 120.355 166.675 120.335C165.558 120.314 165.161 118.836 164.762 117.45C164.44 116.433 164.125 115.14 163.609 115.131C163.094 115.121 162.721 116.402 162.355 117.406C161.894 118.777 161.346 120.238 160.314 120.22C159.197 120.199 158.8 118.721 158.401 117.335C158.079 116.318 157.764 115.025 157.249 115.016C156.733 115.006 156.36 116.287 155.994 117.291C155.533 118.662 154.985 120.123 153.953 120.105C152.836 120.084 152.439 118.606 152.04 117.22C151.719 116.203 151.403 114.91 150.888 114.901C150.372 114.891 149.999 116.172 149.633 117.176C149.173 118.547 148.71 120.01 147.592 119.99C146.475 119.969 146.078 118.491 145.679 117.105C145.358 116.088 145.043 114.795 144.527 114.786C144.011 114.776 142.577 116.934 142.211 117.939M139.318 116.99C138.997 115.973 138.682 114.68 138.166 114.671" stroke="#6F3FF5" stroke-width="1.5"/>
<path d="M207.476 106.913C207.382 107.279 207.202 107.644 207.11 107.918C206.649 109.289 206.101 110.75 205.069 110.731C204.038 110.712 203.555 109.233 203.156 107.846C202.834 106.829 202.519 105.536 202.003 105.527C201.488 105.518 201.115 106.798 200.749 107.803C200.288 109.174 199.826 110.636 198.708 110.616C197.591 110.596 197.194 109.118 196.795 107.731C196.473 106.714 196.158 105.421 195.643 105.412C195.127 105.403 194.754 106.683 194.388 107.688C193.927 109.059 193.379 110.52 192.347 110.501C191.23 110.481 190.833 109.003 190.434 107.616C190.113 106.599 189.797 105.306 189.282 105.297C188.766 105.288 188.393 106.568 188.027 107.573C187.566 108.944 187.018 110.405 185.986 110.386C184.869 110.366 184.472 108.888 184.073 107.501C183.752 106.484 183.437 105.191 182.921 105.182C182.405 105.173 182.033 106.453 181.666 107.458C181.206 108.829 180.743 110.291 179.626 110.271C178.508 110.251 178.111 108.773 177.712 107.386C177.391 106.369 177.076 105.076 176.56 105.067C176.044 105.058 175.672 106.338 175.305 107.343C174.845 108.714 174.382 110.176 173.265 110.156C172.147 110.136 171.75 108.658 171.351 107.271C171.03 106.254 170.715 104.961 170.199 104.952C169.683 104.943 169.311 106.223 168.944 107.228C168.484 108.599 168.021 110.061 166.904 110.041C165.786 110.021 165.389 108.543 164.99 107.156C164.669 106.139 164.354 104.846 163.838 104.837C163.322 104.828 162.95 106.108 162.584 107.113C162.123 108.484 161.574 109.945 160.543 109.926C159.426 109.906 159.029 108.428 158.63 107.041C158.308 106.024 157.993 104.731 157.477 104.722C156.962 104.713 156.589 105.993 156.223 106.998C155.762 108.369 155.214 109.83 154.182 109.811C153.065 109.791 152.668 108.313 152.269 106.926C151.947 105.909 151.632 104.616 151.116 104.607C150.601 104.598 150.228 105.878 149.862 106.883C149.401 108.254 148.939 109.716 147.821 109.696C146.704 109.676 146.307 108.198 145.908 106.812C145.586 105.794 145.271 104.501 144.756 104.492C144.24 104.483 143.867 105.763 143.501 106.768C143.04 108.139 142.578 109.601 141.46 109.581C140.343 109.561 139.946 108.083 139.547 106.697C139.226 105.679 138.911 104.387 138.395 104.377C137.879 104.368 137.506 105.648 137.14 106.653C136.68 108.024 136.131 109.485 135.1 109.466C134.068 109.448 133.665 108.245 133.264 106.951" stroke="#6F3FF5" stroke-width="1.5"/>
<path d="M205.922 98.3037C205.831 98.6698 205.657 99.0345 205.568 99.3087C205.123 100.68 204.592 102.141 203.597 102.123C202.602 102.105 202.137 100.626 201.754 99.2397C201.444 98.2228 201.141 96.9301 200.644 96.9211C200.146 96.9122 199.786 98.1928 199.432 99.1977C198.986 100.569 198.539 102.032 197.461 102.012C196.383 101.993 196.001 100.515 195.617 99.1288C195.308 98.1119 195.005 96.8192 194.508 96.8102C194.01 96.8012 193.65 98.0819 193.295 99.0868C192.85 100.458 192.32 101.919 191.325 101.901C190.247 101.882 189.865 100.404 189.481 99.0179C189.172 98.0009 188.869 96.7083 188.371 96.6993C187.874 96.6903 187.513 97.971 187.159 98.9759C186.714 100.347 186.183 101.808 185.188 101.79C184.11 101.771 183.728 100.293 183.344 98.907C183.035 97.89 182.732 96.5974 182.235 96.5884C181.737 96.5794 181.377 97.86 181.023 98.865C180.577 100.236 180.13 101.699 179.052 101.68C177.974 101.66 177.592 100.182 177.208 98.796C176.899 97.7791 176.596 96.4865 176.098 96.4775C175.601 96.4685 175.24 97.7491 174.886 98.7541C174.441 100.125 173.993 101.588 172.915 101.569C171.837 101.549 171.456 100.071 171.072 98.6851C170.763 97.6682 170.46 96.3755 169.962 96.3665C169.465 96.3576 169.104 97.6382 168.75 98.6431C168.304 100.014 167.857 101.477 166.779 101.458C165.701 101.438 165.319 99.9602 164.935 98.5742C164.626 97.5573 164.323 96.2646 163.826 96.2556C163.328 96.2466 162.968 97.5273 162.613 98.5322C162.168 99.9033 161.638 101.365 160.643 101.347C159.565 101.327 159.183 99.8493 158.799 98.4633C158.49 97.4463 158.187 96.1537 157.689 96.1447C157.192 96.1357 156.831 97.4164 156.477 98.4213C156.032 99.7924 155.501 101.254 154.506 101.236C153.428 101.216 153.046 99.7384 152.663 98.3524C152.353 97.3354 152.05 96.0428 151.553 96.0338C151.055 96.0248 150.695 97.3054 150.341 98.3104C149.895 99.6814 149.448 101.144 148.37 101.125C147.292 101.105 146.91 99.6275 146.526 98.2414C146.217 97.2245 145.914 95.9319 145.417 95.9229C144.919 95.9139 144.559 97.1945 144.204 98.1995C143.759 99.5705 143.312 101.033 142.234 101.014C141.156 100.995 140.774 99.5166 140.39 98.1305C140.081 97.1136 139.778 95.8209 139.28 95.8119C138.783 95.803 138.422 97.0836 138.068 98.0885C137.623 99.4596 137.092 100.921 136.097 100.903C135.102 100.885 134.714 99.6829 134.328 98.3887" stroke="#6F3FF5" stroke-width="1.5"/>
<path d="M143.239 90.2616C142.774 91.5403 142.307 92.9049 141.172 92.8844C140.474 92.8717 140.487 92.3161 140.155 91.5378" stroke="#6F3FF5" stroke-width="1.5"/>
<path d="M150.249 89.1457C150.065 89.5714 149.969 89.9542 149.783 90.4657C149.318 91.7445 148.851 93.109 147.717 93.0885C146.582 93.068 145.838 91.2112 145.43 89.9167" stroke="#6F3FF5" stroke-width="1.5"/>
<path d="M162.881 90.3587C162.79 90.5287 162.788 90.6144 162.697 90.7844C162.232 92.0632 161.677 93.4261 160.63 93.4072C159.496 93.3867 159.09 92.0064 158.682 90.7119C158.354 89.762 157.763 88.8521 157.24 88.8426C156.716 88.8331 156.609 89.7305 156.239 90.6677C155.774 91.9464 155.219 93.3094 154.172 93.2905C153.037 93.27 152.632 91.8897 152.224 90.5951C152.061 90.0773 151.902 89.3879 151.648 89.0401" stroke="#6F3FF5" stroke-width="1.5"/>
<path d="M189.088 89.8481C188.623 91.1268 187.692 93.7253 186.644 93.7064C185.51 93.6859 185.104 92.3056 184.697 91.011C184.369 90.0612 183.948 89.3261 183.425 89.3167C182.901 89.3072 182.623 90.0296 182.253 90.9669C181.788 92.2456 181.321 93.6102 180.186 93.5897C179.226 93.5723 178.813 92.5351 178.401 91.4121" stroke="#6F3FF5" stroke-width="1.5"/>
<path d="M195.624 90.3501C195.529 90.6916 195.349 90.9458 195.254 91.2873C194.789 92.5661 194.235 93.929 193.187 93.9101C192.053 93.8896 191.647 92.5093 191.24 91.2148C191.076 90.6969 191.078 90.611 190.824 90.2632" stroke="#6F3FF5" stroke-width="1.5"/>
<path d="M201.247 92.5966C200.878 93.4481 200.429 94.0406 199.643 94.0264C198.509 94.0059 198.103 92.6256 197.695 91.3311" stroke="#6F3FF5" stroke-width="1.5"/>
<path d="M147.805 112.569L147.638 120.028" stroke="#6F3FF5" stroke-width="1.5"/>
<path d="M196.329 113.446L196.207 118.914" stroke="#6F3FF5" stroke-width="1.5"/>
<path d="M167.399 61.6501C168.229 61.6651 168.916 61.0162 168.934 60.2008C168.952 59.3854 168.295 58.7123 167.465 58.6973C166.635 58.6823 165.948 59.3311 165.93 60.1465C165.912 60.9619 166.57 61.6351 167.399 61.6501Z" fill="#6F3FF5"/>
<path d="M181.252 61.9C182.081 61.9149 182.769 61.2661 182.787 60.4507C182.805 59.6353 182.147 58.9621 181.318 58.9471C180.488 58.9321 179.801 59.581 179.782 60.3964C179.764 61.2118 180.422 61.885 181.252 61.9Z" fill="#6F3FF5"/>
<path d="M114.218 90.6645L41.6093 193.576" stroke="#6F3FF5" stroke-width="1.5" stroke-miterlimit="10"/>
<rect width="7.39422" height="7.45809" transform="matrix(-0.525614 0.852893 -0.858559 -0.509158 91.1865 129.63)" fill="#DAD1FF" stroke="#6F3FF5" stroke-width="1.5" stroke-miterlimit="10"/>
<path d="M51.3058 239.663C77.483 240.136 99.1692 219.663 99.7432 193.934C100.317 168.206 79.5617 146.965 53.3844 146.492C27.2072 146.019 5.52101 166.492 4.94701 192.221C4.37301 217.949 25.1285 239.19 51.3058 239.663Z" fill="white" stroke="#6F3FF5" stroke-width="1.5" stroke-miterlimit="10"/>
<path d="M95.7732 211.552C95.7029 210.739 93.9681 191.979 83.3728 190.917L79.2289 190.234C79.4747 188.47 80.3074 181.556 79.2935 174.116C77.7208 162.635 72.4912 155.09 64.1768 152.273C56.2137 149.577 48.5935 150.019 42.1708 153.643C34.1358 158.137 29.8858 166.177 28.6308 172.185C26.1582 183.853 26.9188 185.461 26.7571 186.096" stroke="#6F3FF5" stroke-width="1.5" stroke-miterlimit="10"/>
<path d="M79.2281 190.205C78.5208 191.497 77.2988 193.388 75.2838 195.12C71.4943 198.386 67.3168 199.209 65.6323 199.353C50.3515 200.729 41.8986 194.865 39.2963 191.194C32.1768 181.092 25.0216 187.138 23.8377 187.319C15.4578 188.762 9.48768 199.003 6.76173 204.839" stroke="#6F3FF5" stroke-width="1.5" stroke-miterlimit="10"/>
<path d="M65.8143 152.882C65.638 152.85 48.5497 150.627 40.7487 161.822C32.0936 174.277 33.69 186.019 33.6874 186.134" stroke="#6F3FF5" stroke-width="1.5" stroke-miterlimit="10"/>
<path d="M28.2413 185.688C28.5335 185.809 37.9984 199.201 36.9627 215.214C35.9276 231.199 35.4344 236.106 35.4613 236.222" stroke="#6F3FF5" stroke-width="1.5" stroke-miterlimit="10"/>
<path d="M83.4038 227.895C83.4391 227.635 83.7185 219.075 83.8068 209.828C83.938 197.335 79.1381 191.682 78.9664 191.447" stroke="#6F3FF5" stroke-width="1.5" stroke-miterlimit="10"/>
<path d="M62.2331 224.775C66.5674 224.853 70.1955 220.889 70.3067 215.904C70.4179 210.92 66.9696 206.828 62.6352 206.749C58.3009 206.671 54.6721 210.664 54.5616 215.62C54.451 220.575 57.8987 224.696 62.2331 224.775Z" fill="#5BF1CD" stroke="#6F3FF5" stroke-width="1.5" stroke-miterlimit="10"/>
<path d="M36.4037 224.308C36.2551 220.391 39.9057 212.775 46.0408 211.465C52.8285 209.993 52.1582 199.051 52.1384 198.616" stroke="#6F3FF5" stroke-width="1.5" stroke-miterlimit="10"/>
<path d="M71.7761 197.695C71.7408 197.955 70.4428 204.571 73.8785 207.909C74.802 208.824 75.8761 209.597 76.9214 210.341C79.7369 212.392 83.2036 214.34 83.5784 218.695" stroke="#6F3FF5" stroke-width="1.5" stroke-miterlimit="10"/>
<path d="M20.2895 227.411C20.3805 227.297 24.5334 218.295 27.9359 207.253C31.4642 195.865 23.806 187.435 23.7188 187.376" stroke="#6F3FF5" stroke-width="1.5" stroke-miterlimit="10"/>
<path d="M12.1088 196.152C15.1281 204.933 25.7837 205.938 27.7297 205.973C27.9067 205.976 28.0246 205.978 28.0246 205.978" stroke="#6F3FF5" stroke-width="1.5" stroke-miterlimit="10"/>
<path d="M7.80069 202.859C6.2535 208.745 21.9618 217.292 24.4305 216.38C24.6388 216.296 24.7548 216.385 24.7843 216.386" stroke="#6F3FF5" stroke-width="1.5" stroke-miterlimit="10"/>
<path d="M83.3668 204.398C90.1539 202.956 91.2241 197.293 91.2549 197.235" stroke="#6F3FF5" stroke-width="1.5" stroke-miterlimit="10"/>
<path d="M83.6322 216.29C93.0237 214.459 94.6611 205.849 94.6631 205.763" stroke="#6F3FF5" stroke-width="1.5" stroke-miterlimit="10"/>
<path d="M79.34 189.163C68.1695 199.34 50.2139 193.681 45.6666 191.25C44.8212 190.8 44.3092 189.95 44.2709 189.022C43.7866 177.677 43.6842 163.759 55.0138 159.674C66.819 155.422 74.3273 159.994 74.3273 159.994C75.3052 161.113 75.9472 162.748 77.0473 165C78.9952 168.92 79.2727 172.346 79.5399 176.236C79.7637 179.429 80.2269 183.786 79.34 189.163ZM76.175 188.236C76.9711 188.25 77.6635 187.625 77.6816 186.814C77.6997 186.002 77.0652 185.353 76.2397 185.338C75.4435 185.324 74.7806 185.949 74.7625 186.761C74.7444 187.572 75.3494 188.221 76.175 188.236ZM74.9979 182.822C74.8913 183.632 75.495 184.339 76.3213 184.325C77.0295 184.308 77.6027 183.739 77.6182 183.043C77.6189 183.015 77.6195 182.986 77.6195 182.986C77.4748 178.895 76.7208 166.415 72.5641 162.339C72.6763 162.602 76.319 172.525 74.9979 182.822ZM53.3684 179.213C54.5414 179.524 55.7383 178.763 56.0904 177.523C56.4131 176.282 55.7326 175.052 54.559 174.77C53.3854 174.488 52.1597 175.219 51.837 176.46C51.5144 177.701 52.1949 178.931 53.3684 179.213ZM52.0978 170.058C53.2602 172.166 57.2112 172.238 60.8543 170.245C64.5269 168.253 66.5473 164.956 65.385 162.847C64.2226 160.739 60.3011 160.668 56.6285 162.66C52.9559 164.652 50.9348 167.978 52.0978 170.058Z" fill="#6F3FF5"/>
<path d="M518.876 229.914C552.677 230.525 580.68 204.088 581.421 170.866C582.162 137.644 555.362 110.217 521.56 109.606C487.759 108.995 459.757 135.432 459.015 168.654C458.274 201.876 485.075 229.303 518.876 229.914Z" fill="white" stroke="#6F3FF5" stroke-width="1.5" stroke-miterlimit="10"/>
<path d="M518.609 213.566C545.465 214.052 567.722 192.672 568.321 165.813C568.921 138.955 547.635 116.788 520.779 116.302C493.923 115.817 471.667 137.197 471.067 164.056C470.468 190.914 491.753 213.081 518.609 213.566Z" fill="#FFE88F"/>
<path d="M548.015 198.731C550.013 198.767 549.126 196.572 550.276 196.219C553.247 195.337 557.611 195.977 559.57 193.487C561.335 191.18 559.716 186.941 560.549 183.775C561.277 180.981 565.049 178.336 565.026 175.061C565.093 172.069 561.443 169.29 560.846 166.192C560.244 163.28 562.711 159.396 561.538 156.474C560.457 153.742 556.109 152.353 554.552 149.612C553.088 146.966 554.043 142.586 552.099 140.119C551.729 139.644 547.999 140.419 546.142 138.327C545.116 137.373 546.054 133.741 544.557 132.591C543.246 131.632 539.971 133.35 538.467 132.481C537.154 131.616 537.14 127.967 535.537 127.283C534.029 126.601 531.402 129.173 529.698 128.768C528.089 128.364 527.026 124.79 525.315 124.665C523.702 124.449 521.914 127.785 520.2 127.847C518.197 127.998 515.788 125.055 513.97 125.49C512.054 126.016 511.305 129.745 509.575 130.462C507.751 131.178 504.56 129.155 502.919 130.155C501.181 131.246 501.574 134.995 500.119 136.185C498.57 137.373 494.882 136.278 493.616 137.565C492.155 139.035 493.406 142.706 492.33 143.997C490.665 146.118 486.766 145.954 486.271 146.787C484.986 148.916 486.903 152.599 485.901 154.826C484.898 157.147 480.874 158.291 480.156 160.617C479.436 163.036 482.126 166.172 481.789 168.505C481.352 171.023 477.874 173.299 477.917 175.639C477.954 178.259 481.528 180.195 482.144 182.451C482.754 184.988 480.771 188.507 482.06 190.495C483.441 192.578 487.452 191.996 489.611 193.345C490.831 194.115 491.426 197.307 493.048 197.149" stroke="#6F3FF5" stroke-width="1.5"/>
<path d="M559.853 215.01C559.916 212.204 559.308 209.574 557.838 207.208C557.472 206.547 557.106 205.885 556.645 205.222C556.186 204.465 555.629 203.801 554.978 203.134C554.143 202.183 553.208 201.418 552.269 200.84C548.234 198.241 544.144 198.073 543.193 198.056C541.106 197.738 535.426 198.196 533.053 197.873M477.66 212.826C477.741 209.179 478.467 206.522 480.526 203.846C481.8 202.185 483.354 200.81 485.092 199.719C487.795 197.99 491.051 197.113 494.477 197.175C498.413 196.681 503.015 196.968 507.647 196.723" stroke="#6F3FF5" stroke-width="1.5"/>
<path d="M507.132 198.032C506.476 197.714 505.904 197.409 505.456 197.143C506.59 196.907 508.004 196.551 509.342 196.019C511.087 195.325 512.913 194.253 513.643 192.565C514.287 191.076 514.577 189.475 514.71 188.266C514.753 187.872 514.779 187.515 514.796 187.213C516.538 187.741 518.064 188.047 519.67 188.043C521.303 188.04 522.977 187.716 525.011 187.04C525.016 187.383 525.03 187.792 525.061 188.243C525.149 189.554 525.377 191.273 525.956 192.788C526.61 194.5 528.387 195.638 530.099 196.394C531.409 196.972 532.803 197.379 533.924 197.656C533.729 197.758 533.511 197.868 533.269 197.982C532.024 198.57 530.229 199.265 528.091 199.846C523.805 201.011 518.225 201.697 512.963 200.244L512.963 200.244L512.952 200.241C511.073 199.754 508.856 198.868 507.132 198.032Z" stroke="#6F3FF5" stroke-width="1.5"/>
<path d="M492.519 162.995C492.519 162.995 494.317 162.797 495.864 161.436C498.389 159.515 496.654 156.938 498.498 154.657C500.625 152.034 504.176 153.602 506.16 151.208C508.568 148.359 504.923 144.822 506.894 143.006C509.144 141.08 514.035 144.408 519.866 142.662C521.255 142.225 522.651 141.44 524.477 139.969C529.957 135.439 539.148 143.821 537.101 148.991C535.638 152.783 541.709 152.661 543.13 156.968C544.688 161.277 543.318 164.724 547.472 163.989" stroke="#6F3FF5" stroke-width="1.5"/>
<path d="M494.601 153.957C493.308 153.639 491.887 153.653 490.518 154.061C486.551 155.267 484.318 159.414 485.531 163.309C486.744 167.204 490.956 169.384 494.924 168.177C494.924 168.177 494.977 168.473 494.975 168.552C496.575 179.354 507.871 186.734 519.588 186.946C533.125 187.191 544.498 177.316 546.203 164.406" stroke="#6F3FF5" stroke-width="1.5" stroke-miterlimit="10"/>
<path d="M490.117 164.886C489.29 164.32 488.628 163.502 488.311 162.474C487.937 161.288 488.085 160.052 488.648 159.02" stroke="#6F3FF5" stroke-width="1.5" stroke-miterlimit="10"/>
<path d="M519.14 157.806C519.682 157.815 520.141 156.96 520.165 155.894C520.188 154.829 519.768 153.958 519.226 153.948C518.684 153.938 518.226 154.794 518.202 155.859C518.178 156.924 518.598 157.796 519.14 157.806Z" fill="#6F3FF5"/>
<path d="M534.842 158.089C535.384 158.099 535.843 157.244 535.867 156.178C535.891 155.113 535.471 154.241 534.929 154.232C534.387 154.222 533.928 155.077 533.904 156.143C533.88 157.208 534.301 158.08 534.842 158.089Z" fill="#6F3FF5"/>
<path d="M525.303 155.987C525.194 160.888 521.059 164.809 516.042 164.718C511.024 164.628 507.068 160.56 507.177 155.66C507.287 150.759 511.421 146.838 516.439 146.928C521.456 147.019 525.413 151.087 525.303 155.987Z" stroke="#6F3FF5" stroke-width="1.5"/>
<path d="M548.855 156.413C548.746 161.313 544.611 165.235 539.594 165.144C534.576 165.053 530.62 160.986 530.729 156.085C530.838 151.185 534.973 147.263 539.991 147.354C545.008 147.445 548.964 151.513 548.855 156.413Z" stroke="#6F3FF5" stroke-width="1.5"/>
<path d="M525.773 168.539L530.529 168.502L528.797 161.84" stroke="#6F3FF5" stroke-width="1.5"/>
<path d="M518.346 176.366C519.041 178.365 520.888 179.853 522.933 180.558C524.977 181.264 527.198 181.264 529.342 181.087" stroke="#6F3FF5" stroke-width="1.5" stroke-miterlimit="10"/>
<path d="M494.695 153.504C495.391 155.503 497.238 156.991 499.282 157.696C501.327 158.402 503.547 158.402 505.692 158.225" stroke="#6F3FF5" stroke-width="1.5" stroke-miterlimit="10"/>
<path d="M525.049 156.947C527.033 156.018 529.018 155.089 530.937 157.054" stroke="#6F3FF5" stroke-width="1.5" stroke-miterlimit="10"/>
<path d="M491.527 165.246C492.747 165.268 493.712 166.819 493.67 168.705C493.628 170.592 492.594 172.107 491.374 172.085C490.155 172.063 489.189 170.512 489.231 168.625C489.24 168.232 489.288 167.859 489.376 167.507" stroke="#6F3FF5" stroke-width="1.5" stroke-miterlimit="10"/>
<path d="M542.235 225.637L530.778 225.43L530.701 228.884" stroke="#6F3FF5" stroke-width="1.5"/>
<path d="M370.008 114.793C342.852 114.302 321.321 92.2671 321.916 65.5767C322.512 38.8864 345.008 17.6476 372.164 18.1384C399.32 18.6293 420.851 40.664 420.256 67.3543C419.66 94.0446 397.164 115.283 370.008 114.793Z" fill="white" stroke="#6F3FF5" stroke-width="1.5" stroke-miterlimit="10"/>
<path fill-rule="evenodd" clip-rule="evenodd" d="M421.497 116.324L428.872 103.676L422.067 90.7716L407.886 90.5153L400.511 103.163L407.316 116.067L421.497 116.324ZM414.689 103.418L407.884 90.5135ZM414.69 103.419L400.509 103.162ZM414.688 103.419L407.313 116.067ZM414.69 103.419L421.495 116.323ZM414.692 103.419L428.872 103.675ZM414.69 103.418L422.065 90.7698Z" fill="white"/>
<path d="M421.497 116.324L422.144 116.699L421.921 117.081L421.48 117.073L421.497 116.324ZM428.872 103.676L429.536 103.324L429.73 103.691L429.52 104.051L428.872 103.676ZM422.067 90.7716L422.083 90.0218L422.525 90.0298L422.731 90.4196L422.067 90.7716ZM407.886 90.5153L407.239 90.1396L407.462 89.7575L407.903 89.7655L407.886 90.5153ZM400.511 103.163L399.847 103.515L399.653 103.148L399.863 102.787L400.511 103.163ZM407.316 116.067L407.299 116.817L406.858 116.809L406.652 116.419L407.316 116.067ZM420.849 115.948L428.224 103.3L429.52 104.051L422.144 116.699L420.849 115.948ZM428.208 104.028L421.403 91.1236L422.731 90.4196L429.536 103.324L428.208 104.028ZM422.05 91.5214L407.87 91.2651L407.903 89.7655L422.083 90.0218L422.05 91.5214ZM408.534 90.891L401.159 103.539L399.863 102.787L407.239 90.1396L408.534 90.891ZM401.175 102.811L407.98 115.715L406.652 116.419L399.847 103.515L401.175 102.811ZM407.333 115.317L421.513 115.574L421.48 117.073L407.299 116.817L407.333 115.317ZM414.026 103.77L407.22 90.8655L408.548 90.1616L415.353 103.066L414.026 103.77ZM414.673 104.169L400.492 103.912L400.526 102.413L414.706 102.669L414.673 104.169ZM415.336 103.795L407.961 116.442L406.665 115.691L414.041 103.043L415.336 103.795ZM415.354 103.067L422.159 115.971L420.831 116.675L414.026 103.771L415.354 103.067ZM414.708 102.669L428.889 102.925L428.855 104.425L414.675 104.168L414.708 102.669ZM414.042 103.042L421.418 90.3941L422.713 91.1455L415.337 103.793L414.042 103.042Z" fill="#6F3FF5"/>
<path d="M377.569 59.6306C390.018 64.3603 379.372 77.0945 368.611 77.0958C364.822 77.2232 357.854 76.9014 354.343 73.5083C349.858 69.1184 353.592 62.5268 357.398 61.6163" stroke="#6F3FF5" stroke-width="1.5" stroke-miterlimit="10"/>
<path d="M357.542 55.1553C356.811 70.0272 354.833 69.4039 371.162 69.895L371.166 69.6992C371.166 69.6992 372.878 64.442 377.052 64.9091L377.444 56.2985" stroke="#6F3FF5" stroke-width="1.5" stroke-miterlimit="10"/>
<path d="M381.178 49.9028C381.204 48.7282 380.23 47.7313 379.234 47.7132L377.441 47.6808C377.441 47.6808 377.242 47.6773 377.038 47.8694C376.636 48.058 376.215 49.0297 375.964 51.3754C375.92 53.3332 376.093 54.5115 376.474 55.3018C376.66 55.8927 377.253 56.0993 377.851 56.1101L379.449 55.9431C380.25 55.7617 380.865 54.9894 380.887 54.0105L381.178 49.9028Z" stroke="#6F3FF5" stroke-width="1.5" stroke-miterlimit="10"/>
<path d="M379.635 47.7201C379.886 45.3744 380.768 32.6596 368.821 32.2478C355.678 31.8144 356.616 43.3869 356.616 43.3869" stroke="#6F3FF5" stroke-width="1.5" stroke-miterlimit="10"/>
<path d="M378.029 47.8882C378.029 47.8882 378.867 37.1312 367.522 36.5344C362.148 36.2414 359.484 39.5228 358.011 43.0216" stroke="#6F3FF5" stroke-width="1.5" stroke-miterlimit="10"/>
<path d="M365.952 62.358C365.783 60.984 363.61 60.1613 362.007 60.524C361.206 60.7054 360.401 61.0826 360.383 61.8657C360.37 62.453 360.561 62.8482 360.95 63.2469C361.34 63.6457 361.937 63.6565 362.331 63.8595C363.128 63.8739 363.726 63.8846 364.527 63.7033C364.726 63.7069 365.129 63.5183 365.332 63.3261C365.74 62.9418 365.948 62.5538 365.952 62.358Z" stroke="#6F3FF5" stroke-width="1.5" stroke-miterlimit="10"/>
<path d="M372.371 51.5052L372.467 47.1981C372.515 45.0445 370.762 43.2501 368.57 43.2105L359.009 43.0377C356.818 42.9981 354.986 44.7277 354.938 46.8813L354.842 51.1884C354.794 53.3419 356.547 55.1363 358.738 55.1759L368.3 55.3488C370.491 55.3884 372.323 53.6588 372.371 51.5052Z" fill="#5BF1CD" stroke="#6F3FF5" stroke-width="1.5" stroke-miterlimit="10"/>
<path d="M367.707 55.1427L367.842 49.0736C367.842 49.0736 367.873 47.7032 365.682 47.6636" stroke="#6F3FF5" stroke-width="1.5" stroke-miterlimit="10"/>
<path d="M382.766 68.1464L377.259 64.9131" stroke="#6F3FF5" stroke-width="1.5" stroke-miterlimit="10"/>
<path d="M379.81 66.5252C379.81 66.5252 372.162 69.9124 373.222 76.0031" stroke="#6F3FF5" stroke-width="1.5" stroke-miterlimit="10"/>
<path d="M350.523 110.607C350.558 109.041 350.574 108.302 350.605 106.932C350.627 105.953 351.64 105.188 352.433 105.398C363.539 107.753 373.897 107.94 385.1 105.988C386.1 105.81 386.88 106.608 386.858 107.587C386.827 108.957 386.889 110.987 386.854 112.554" stroke="#6F3FF5" stroke-width="1.5" stroke-miterlimit="10"/>
<path d="M355.813 105.85L355.355 112.629" stroke="#6F3FF5" stroke-width="1.5" stroke-miterlimit="10"/>
<path d="M362.964 107.156L362.798 114.595" stroke="#6F3FF5" stroke-width="1.5" stroke-miterlimit="10"/>
<path d="M370.729 107.296L370.563 114.735" stroke="#6F3FF5" stroke-width="1.5" stroke-miterlimit="10"/>
<path d="M379.92 106.286L380.356 113.54" stroke="#6F3FF5" stroke-width="1.5" stroke-miterlimit="10"/>
<path d="M382.856 63.8392L389.594 65.5278C390.98 65.9446 392.157 66.7493 392.928 67.9384C393.309 68.7287 393.252 71.2738 393.252 71.2738" stroke="#6F3FF5" stroke-width="1.5" stroke-miterlimit="10"/>
<path d="M354.741 73.7117C354.741 73.7117 351.193 80.8943 352.041 105.392" stroke="#6F3FF5" stroke-width="1.5" stroke-miterlimit="10"/>
<path d="M352.754 82.2925C352.754 82.2925 364.618 86.4241 381 84.5658" stroke="#6F3FF5" stroke-width="1.5" stroke-miterlimit="10"/>
<path d="M352.667 86.2088C352.667 86.2088 365.726 90.362 382.307 88.5073" stroke="#6F3FF5" stroke-width="1.5" stroke-miterlimit="10"/>
<path d="M382.761 68.1459L385.333 68.9758" stroke="#6F3FF5" stroke-width="1.5" stroke-miterlimit="10"/>
<path d="M386.338 68.6025C385.94 68.5953 385.736 68.7875 385.333 68.9761C384.515 69.9406 382.865 72.4569 381.794 75.7671C379.866 81.8038 379.873 90.4216 388.966 93.7197L389.049 89.9999C389.049 89.9999 382.935 87.1474 384.708 79.1493C386.025 73.6891 387.663 71.7602 388.672 71.1908C389.079 70.8065 389.291 70.2227 388.901 69.824C388.516 69.2294 387.733 68.6277 386.338 68.6025Z" stroke="#6F3FF5" stroke-width="1.5" stroke-miterlimit="10"/>
<path d="M387.812 82.7309L387.673 88.9952" stroke="#6F3FF5" stroke-width="1.5" stroke-miterlimit="10"/>
<path d="M387.388 93.1036L385.706 106" stroke="#6F3FF5" stroke-width="1.5" stroke-miterlimit="10"/>
<path d="M385.975 102.675C385.975 102.675 392.566 102.011 392.74 94.1799C392.911 86.5445 392.998 82.629 392.998 82.629" stroke="#6F3FF5" stroke-width="1.5" stroke-miterlimit="10"/>
<path d="M352.413 70.731C352.413 70.731 348.718 75.5607 349.262 86.9302C349.326 93.0029 351.729 92.4588 351.729 92.4588" stroke="#6F3FF5" stroke-width="1.5" stroke-miterlimit="10"/>
<path d="M363.68 92.8697C367.31 92.9353 370.317 90.096 370.397 86.5279C370.477 82.9598 367.598 80.014 363.968 79.9484C360.337 79.8828 357.33 82.7221 357.25 86.2903C357.171 89.8584 360.049 92.8041 363.68 92.8697Z" fill="#5BF1CD" stroke="#6F3FF5" stroke-width="1.5" stroke-miterlimit="10"/>
<path d="M349.042 88.1528C349.042 88.1528 346.869 88.1135 342.495 98.96C342.495 98.96 338.206 99.7949 334.527 94.6898C334.527 94.6898 338.63 81.0391 352.491 70.4097" stroke="#6F3FF5" stroke-width="1.5" stroke-miterlimit="10"/>
<path d="M336.058 90.0247C336.058 90.0247 339.046 94.1725 344.351 94.0677" stroke="#6F3FF5" stroke-width="1.5" stroke-miterlimit="10"/>
<path d="M335.15 95.2112C335.15 95.2112 334.058 96.7641 334.671 98.7102M341.777 98.9783C340.798 100.026 340.271 102.049 339.989 103.791" stroke="#6F3FF5" stroke-width="1.5" stroke-miterlimit="10"/>
<path d="M343.213 106.176L343.252 104.424L342.236 99.6194" stroke="#6F3FF5" stroke-width="1.5" stroke-miterlimit="10"/>
<path d="M428.492 99.9177C428.155 97.1696 422.873 92.7653 422.873 92.7653C422.01 90.3175 419.648 84.5072 417.047 83.4282C414.515 79.2543 406.937 75.7202 403.472 74.1525C402.958 77.5834 402.446 84.8413 404.511 86.4267C406.576 88.0121 410.942 92.3481 412.867 94.3179L415.419 97.5892L416.587 104.06C417.379 104.271 421.004 105.071 421.004 105.071C426.616 103.605 428.492 99.9177 428.492 99.9177Z" fill="white"/>
<path d="M412.466 94.5357L415.384 97.7221C415.384 97.7221 420.602 96.0538 423.275 92.3808L420.569 88.6106" stroke="#6F3FF5" stroke-width="1.5" stroke-miterlimit="10"/>
<path d="M388.884 70.9978C388.884 70.9978 404.421 71.2786 414.759 81.2584C414.759 81.2584 418.669 84.6586 420.582 88.2186C420.582 88.2186 418.698 92.2975 412.068 94.7238C412.068 94.7238 408.64 87.611 400.941 84.3382C393.238 81.2611 388.002 83.7126 388.002 83.7126" stroke="#6F3FF5" stroke-width="1.5" stroke-miterlimit="10"/>
<path d="M422.871 92.7654C422.871 92.7654 428.153 97.1697 428.491 99.9178C428.491 99.9178 426.615 103.605 421.003 105.071C421.003 105.071 417.384 97.5626 416.591 97.3524" stroke="#6F3FF5" stroke-width="1.5" stroke-miterlimit="10"/>
<path d="M421.002 105.07L416.637 104.208L415.582 97.9211" stroke="#6F3FF5" stroke-width="1.5" stroke-miterlimit="10"/>
</svg>
