<svg width="99" height="99" viewBox="0 0 99 99" fill="none" xmlns="http://www.w3.org/2000/svg">
<path d="M78.4557 70.7373C75.1628 76.9917 69.9349 82.0752 63.5138 85.2662C57.0928 88.4572 49.8049 89.5937 42.6846 88.5144" stroke="#5722EB" stroke-width="3.244" stroke-miterlimit="10"/>
<path d="M78.4557 70.7373C75.1628 76.9917 69.9349 82.0752 63.5138 85.2662C57.0928 88.4572 49.8049 89.5937 42.6846 88.5144" stroke="#5722EB" stroke-width="3.244" stroke-miterlimit="10"/>
<path d="M78.4557 70.7373C75.1628 76.9917 69.9349 82.0752 63.5138 85.2662C57.0928 88.4572 49.8049 89.5937 42.6846 88.5144" stroke="#5722EB" stroke-width="3.244" stroke-miterlimit="10"/>
<path d="M51.5138 22.2051C58.4264 22.9132 64.9557 25.6531 70.2374 30.0622C75.5191 34.4712 79.3041 40.3415 81.0914 46.896" stroke="#5722EB" stroke-width="3.244" stroke-miterlimit="10"/>
<path d="M15.5034 66.2495C13.1403 59.4661 13.071 52.1217 15.3058 45.297C17.5405 38.4723 21.9612 32.5278 27.9173 28.3383" stroke="#5722EB" stroke-width="3.244" stroke-miterlimit="10"/>
<ellipse cx="47.7083" cy="55.5627" rx="36.6442" ry="35.7582" fill="#5722EB"/>
<path d="M87.1612 46.2106C90.1679 46.5774 95.6175 48.3011 93.3625 52.262C92.6931 53.4378 92.2721 54.1902 92.0257 54.643C92.0858 54.5731 92.1583 54.5124 92.235 54.4625C92.0988 54.684 91.9626 54.9012 91.8662 55.0474C91.8733 55.4988 92.4568 56.0961 94.49 56.663C98.4363 57.7633 99.0001 59.4136 99.0001 61.6141C99.0001 63.3745 97.8726 65.6484 97.3088 66.5653C96.3692 67.4821 93.9263 69.2059 91.6712 68.7658C88.8524 68.2156 87.1612 69.866 87.7249 71.5164C88.2887 73.1668 86.5974 78.668 83.2149 76.4675C80.5088 74.7071 64.7988 63.998 57.2821 58.8635C54.8391 56.1129 52.321 50.2815 61.7921 48.9612C71.2632 47.6409 82.6511 46.5774 87.1612 46.2106Z" fill="#00DBA6"/>
<path d="M83.741 71.989L83.7284 71.9971C83.6992 72.0141 83.6655 72.0224 83.6315 72.0208C83.5975 72.0191 83.5648 72.0078 83.5374 71.988L59.9205 55.1371C59.8926 55.1173 59.8715 55.0899 59.8597 55.0583C59.8479 55.0267 59.8461 54.9924 59.8545 54.9598C59.863 54.9273 59.8811 54.898 59.9067 54.8755C59.9322 54.853 59.9639 54.8383 59.9979 54.8333L89.0576 50.7276C89.0914 50.7228 89.1259 50.7279 89.1567 50.7422C89.1876 50.7565 89.2134 50.7794 89.231 50.8079C89.2486 50.8365 89.2571 50.8695 89.2556 50.9027C89.254 50.936 89.2425 50.9681 89.2223 50.995L85.7839 55.5764C85.5888 55.8364 85.4621 56.1391 85.4149 56.458C85.3678 56.7769 85.4015 57.1022 85.5132 57.4054C85.625 57.7086 85.8113 57.9804 86.0558 58.1969C86.3004 58.4134 86.5956 58.568 86.9156 58.6472L93.0301 60.159C93.0521 60.1644 93.0729 60.1741 93.0912 60.1873C93.1094 60.2006 93.1248 60.2172 93.1365 60.2363C93.1481 60.2554 93.1558 60.2765 93.1591 60.2985C93.1624 60.3205 93.1611 60.3429 93.1555 60.3644L91.843 65.4179C91.8374 65.4395 91.8276 65.4597 91.814 65.4776C91.8004 65.4954 91.7834 65.5104 91.7638 65.5218C91.7442 65.5332 91.7226 65.5407 91.7 65.5438C91.6775 65.547 91.6546 65.5458 91.6325 65.5404L85.5181 64.029C85.1981 63.9498 84.863 63.9485 84.5423 64.0252C84.2216 64.102 83.9252 64.2544 83.6789 64.469C83.4327 64.6837 83.2443 64.9541 83.1302 65.2565C83.0161 65.5588 82.9799 65.8839 83.0246 66.2031L83.8122 71.8295C83.8161 71.8599 83.8115 71.8907 83.799 71.9188C83.7865 71.9468 83.7665 71.9711 83.741 71.989V71.989Z" fill="white" stroke="black" stroke-width="1.5" stroke-miterlimit="10"/>
<path d="M25.8523 4.1012L39.3173 0.104471C41.9988 -0.646011 44.7673 2.85035 45.4377 4.10117C46.1081 5.35199 46.0497 8.09788 46.0497 10.3818C46.0497 11.0072 46.8344 12.1192 49.1099 14.9494C50.946 17.2333 52.7821 24.8005 52.7821 27.5106V42.9266C52.7821 51.4322 46.3415 49.7875 42.9895 47.4943C39.414 43.5334 30.147 34.009 28.0017 31.5074C25.32 28.3803 27.0764 23.7317 27.0764 21.2301C27.0764 18.7284 26.0274 15.2762 24.0162 11.5237C22.4072 8.52173 24.735 5.14355 25.8523 4.1012Z" fill="#00DBA6"/>
<path d="M27.3313 11.9895C27.3313 11.9895 26.6609 9.48784 26.6609 8.86243C26.6609 8.23702 27.7342 7.67642 28.0017 7.61161C31.3537 6.56926 37.7896 4.35948 39.3986 3.85915C41.0076 3.35882 40.9526 4.88222 41.4098 5.73537C41.7451 6.36081 41.5439 6.11063 42.0803 7.61161C42.6166 9.1126 41.8568 8.86245 41.4098 8.86245L43.4211 15.1165C44.3149 16.1589 46.5049 18.7439 48.1139 20.7452C49.7229 22.7465 49.2313 23.6638 48.7843 23.8723V32.0026V43.8854C48.7843 47.6379 46.1027 42.6346 46.7731 44.5108C47.3094 46.0118 46.1027 45.5532 45.4323 45.1362L37.3874 35.7551C36.0466 34.0873 33.0968 30.5016 32.0241 29.501C30.9515 28.5003 30.6833 26.5824 30.6833 25.7485L31.3537 18.869C31.3537 18.869 30.0129 11.9895 29.3425 12.6149C28.6721 13.2403 27.3313 11.9895 27.3313 11.9895Z" fill="white" stroke="black" stroke-width="1.5"/>
<path d="M46.7731 43.8854L40.0691 24.4976M40.0691 24.4976C40.516 24.2892 41.4099 23.6221 41.4099 22.6214C41.4099 21.3706 40.0691 19.4944 38.7282 20.1198C37.3874 20.7452 36.0466 21.3706 36.717 22.6214C37.3874 23.8722 38.0578 24.4976 40.0691 24.4976Z" stroke="black" stroke-width="1.5"/>
<path d="M13.3191 69.3159L3.7352 76.4676C-1.33858 81.9688 -1.15067 86.0031 3.73522 89.1205C5.42649 90.1996 12.6426 90.2207 16.7017 92.4212C21.7755 95.1718 20.0842 96.8222 26.8492 98.4726C33.6143 100.123 36.9969 94.6217 36.9969 90.7709C36.9969 87.1489 48.304 82.3619 51.6545 80.3184C56.1646 77.5678 52.7821 69.3159 49.9633 67.6655C47.9913 66.511 43.0103 65.6484 39.8157 65.465C36.6211 65.0983 30.7956 59.9638 28.5405 58.3134C25.9107 56.3887 17.2654 58.8635 16.7017 61.064C16.2506 62.8244 14.2587 67.6655 13.3191 69.3159Z" fill="#00DBA6"/>
<path d="M7.11783 80.3185L17.8292 73.1668C19.3312 72.164 20.648 73.1668 20.648 74.8172C20.648 76.1375 19.8963 77.2011 19.5205 77.5678L12.1916 82.519C13.8829 82.7023 17.8292 83.1791 20.0842 83.6192C22.903 84.1693 22.903 85.2696 23.4668 86.92C23.9178 88.2403 21.7755 88.5704 20.648 88.5704L9.37285 86.3699C6.55408 85.8197 6.55408 85.8197 5.99033 83.6192L5.99032 83.6192C5.53931 81.8588 6.55408 80.6852 7.11783 80.3185Z" fill="white" stroke="black" stroke-width="1.5"/>
<path d="M21.7756 67.6656C20.8736 64.1448 22.1514 63.6313 22.9031 63.8147C25.6091 62.9345 25.9098 64.1814 25.7219 64.9149L27.4131 72.0666C28.3527 75.7341 30.4574 84.0593 31.3594 88.0202C32.4869 92.9714 31.9232 91.8711 30.2319 93.5215C28.8789 94.8418 27.789 92.9714 27.4131 91.8711L25.7219 84.1694C24.7823 80.1351 22.6776 71.1864 21.7756 67.6656Z" fill="white" stroke="black" stroke-width="1.5"/>
<path d="M31.9231 69.316L42.6345 70.9664C42.8225 70.9664 45.2103 71.1228 46.0171 71.5165C47.1446 72.0666 47.7083 73.1669 47.7083 74.8172C47.7083 76.1375 47.3325 76.8344 47.1446 77.0177C44.7016 78.4847 39.1392 81.9689 36.4332 84.1694C33.0507 86.92 33.6144 84.7195 33.0507 83.0691C32.5997 81.7488 33.6144 80.6853 34.1782 80.3185L41.507 75.3674C39.8157 75.184 35.7567 74.7072 33.0507 74.2671C29.6681 73.717 30.7956 73.1669 30.2319 71.5165C29.7809 70.1962 31.1715 69.4994 31.9231 69.316Z" fill="white" stroke="black" stroke-width="1.5"/>
</svg>
