<svg width="550" height="149" viewBox="0 0 550 149" fill="none" xmlns="http://www.w3.org/2000/svg">
<path d="M17.3867 98.2163L22.1771 96.1849C31.6862 92.5404 44.1983 98.2163 50.0611 108.911C55.9239 119.606 52.9925 131.197 43.4118 134.841L38.1925 137.231" fill="#02E2AC"/>
<path d="M17.3867 98.2163L22.1771 96.1849C31.6862 92.5404 44.1983 98.2163 50.0611 108.911C55.9239 119.606 52.9925 131.197 43.4118 134.841L38.1925 137.231" stroke="#6F3FF5" stroke-width="0.5" stroke-miterlimit="10" stroke-linecap="round"/>
<path d="M39.2555 137.8C48.9592 134.153 51.9711 122.517 45.9828 111.81C39.9946 101.104 27.2737 95.3818 17.5701 99.0293C7.86638 102.677 4.85445 114.313 10.8427 125.019C16.831 135.725 29.5518 141.448 39.2555 137.8Z" fill="#02E2AC" stroke="#6F3FF5" stroke-width="0.5" stroke-miterlimit="10"/>
<path d="M36.9529 133.685C44.6137 130.805 47.0001 121.634 42.2831 113.201C37.5661 104.767 27.5319 100.265 19.8711 103.145C12.2103 106.024 9.8239 115.196 14.5409 123.629C19.2579 132.062 29.2921 136.565 36.9529 133.685Z" fill="white" stroke="#6F3FF5" stroke-width="0.5" stroke-miterlimit="10"/>
<path d="M33.8606 126.386V117.311C33.8606 116.817 33.5618 116.323 33.1135 116.014L24.8212 110.087C23.9248 109.47 22.8789 109.84 22.8789 110.828V119.904C22.8789 120.398 23.1777 120.892 23.626 121.2L31.9183 127.127C32.8147 127.745 33.8606 127.374 33.8606 126.386Z" fill="#02E2AC" stroke="#6F3FF5" stroke-width="0.5" stroke-miterlimit="10"/>
<path d="M78.0802 28.4115L82.8083 29.1472C91.9421 30.8767 97.1625 40.4149 94.3924 50.4572C91.6223 60.4994 82.0115 67.2261 72.8268 65.4646L67.5606 64.7855" fill="#02E2AC"/>
<path d="M78.0802 28.4115L82.8083 29.1472C91.9421 30.8767 97.1625 40.4149 94.3924 50.4572C91.6223 60.4994 82.0115 67.2261 72.8268 65.4646L67.5606 64.7855" stroke="#6F3FF5" stroke-width="0.5" stroke-miterlimit="10" stroke-linecap="round"/>
<path d="M68.1087 65.1792C77.2912 66.8987 87.0236 60.0796 89.8466 49.9482C92.6696 39.8169 87.5141 30.2099 78.3316 28.4904C69.149 26.7709 59.4166 33.59 56.5936 43.7213C53.7707 53.8526 58.9261 63.4596 68.1087 65.1792Z" fill="#02E2AC" stroke="#6F3FF5" stroke-width="0.5" stroke-miterlimit="10"/>
<path d="M69.1966 61.2848C76.4459 62.6423 84.1254 57.2733 86.3491 49.2928C88.5728 41.3122 84.4986 33.7423 77.2492 32.3848C69.9998 31.0272 62.3204 36.3963 60.0967 44.3768C57.873 52.3573 61.9472 59.9273 69.1966 61.2848Z" fill="white" stroke="#6F3FF5" stroke-width="0.5" stroke-miterlimit="10"/>
<path d="M72.2629 54.5274L78.0471 48.3477C78.3619 48.0113 78.464 47.5413 78.3417 47.1304L76.2174 39.3822C75.9728 38.5605 74.9924 38.3445 74.3628 39.0171L68.5786 45.1968C68.2638 45.5331 68.1617 46.0032 68.284 46.4141L70.4083 54.1623C70.6529 54.984 71.6333 55.2 72.2629 54.5274Z" fill="#02E2AC" stroke="#6F3FF5" stroke-width="0.5" stroke-miterlimit="10"/>
<path d="M22.3337 25.8228C30.1059 25.1539 35.701 19.1022 34.8307 12.3059C33.9604 5.50966 26.9543 0.542413 19.1821 1.21128C11.41 1.88014 5.81489 7.93183 6.68518 14.7281C7.55548 21.5244 14.5616 26.4916 22.3337 25.8228Z" fill="#6F3FF5" stroke="#02E2AC" stroke-width="0.5" stroke-miterlimit="10"/>
<path d="M19.5056 26.4107C27.2778 25.7418 32.8728 19.6901 32.0025 12.8938C31.1322 6.09755 24.1261 1.1303 16.354 1.79917C8.58183 2.46803 2.98676 8.51973 3.85706 15.316C4.72735 22.1123 11.7334 27.0795 19.5056 26.4107Z" fill="#6F3FF5" stroke="#02E2AC" stroke-width="0.5" stroke-miterlimit="10"/>
<path d="M19.1699 23.7868C25.2962 23.2595 29.7074 18.4975 29.0227 13.1504C28.338 7.80335 22.8166 3.89609 16.6903 4.42331C10.564 4.95053 6.15273 9.71259 6.83745 15.0597C7.52216 20.4067 13.0436 24.314 19.1699 23.7868Z" fill="white" stroke="#6F3FF5" stroke-width="0.5" stroke-miterlimit="10"/>
<path d="M19.0351 18.3612L14.1557 15.6562C13.8984 15.5102 13.7571 15.2499 13.797 14.9955L14.6118 10.2131C14.6915 9.70432 15.4095 9.44238 15.9239 9.73439L20.8034 12.4394C21.0606 12.5854 21.2019 12.8456 21.162 13.1L20.3473 17.8824C20.2567 18.3712 19.5387 18.6331 19.0351 18.3612Z" fill="#6F3FF5" stroke="#6F3FF5" stroke-width="0.5" stroke-miterlimit="10"/>
<path d="M476.73 102.581L482.129 101.948C492.698 101.056 502.563 109.715 504.085 121.317C505.608 132.919 498.311 143.022 487.673 143.895L481.722 144.75" fill="#02E2AC"/>
<path d="M476.73 102.581L482.129 101.948C492.698 101.056 502.563 109.715 504.085 121.317C505.608 132.919 498.311 143.022 487.673 143.895L481.722 144.75" stroke="#6F3FF5" stroke-width="0.5" stroke-miterlimit="10" stroke-linecap="round"/>
<path d="M476.73 102.581L482.129 101.948C492.698 101.056 502.563 109.715 504.085 121.317C505.608 132.919 498.311 143.022 487.673 143.895L481.722 144.75" fill="#02E2AC"/>
<path d="M476.73 102.581L482.129 101.948C492.698 101.056 502.563 109.715 504.085 121.317C505.608 132.919 498.311 143.022 487.673 143.895L481.722 144.75" stroke="#6F3FF5" stroke-width="0.5" stroke-miterlimit="10" stroke-linecap="round"/>
<path d="M482.486 145.007C493.103 144.09 500.489 133.852 498.983 122.138C497.478 110.425 487.652 101.673 477.035 102.59C466.419 103.507 459.033 113.745 460.538 125.459C462.043 137.172 471.87 145.924 482.486 145.007Z" fill="#02E2AC" stroke="#6F3FF5" stroke-width="0.5" stroke-miterlimit="10"/>
<path d="M482.486 145.007C493.103 144.09 500.489 133.852 498.983 122.138C497.478 110.425 487.652 101.673 477.035 102.59C466.419 103.507 459.033 113.745 460.538 125.459C462.043 137.172 471.87 145.924 482.486 145.007Z" fill="#02E2AC" stroke="#6F3FF5" stroke-width="0.5" stroke-miterlimit="10"/>
<path d="M481.907 140.504C490.289 139.78 496.122 131.714 494.936 122.487C493.75 113.261 485.995 106.368 477.613 107.092C469.232 107.816 463.399 115.882 464.584 125.109C465.77 134.335 473.526 141.228 481.907 140.504Z" fill="white" stroke="#6F3FF5" stroke-width="0.5" stroke-miterlimit="10"/>
<path d="M481.907 140.504C490.289 139.78 496.122 131.714 494.936 122.487C493.75 113.261 485.995 106.368 477.613 107.092C469.232 107.816 463.399 115.882 464.584 125.109C465.77 134.335 473.526 141.228 481.907 140.504Z" fill="white" stroke="#6F3FF5" stroke-width="0.5" stroke-miterlimit="10"/>
<path d="M482.171 132.335L485.609 123.969C485.796 123.513 485.695 122.978 485.381 122.575L479.636 114.904C479.006 114.097 477.858 114.16 477.484 115.071L474.046 123.437C473.859 123.892 473.96 124.427 474.274 124.831L480.019 132.501C480.649 133.308 481.797 133.245 482.171 132.335Z" fill="#02E2AC" stroke="#6F3FF5" stroke-width="0.5" stroke-miterlimit="10"/>
<path d="M482.171 132.335L485.609 123.969C485.796 123.513 485.695 122.978 485.381 122.575L479.636 114.904C479.006 114.097 477.858 114.16 477.484 115.071L474.046 123.437C473.859 123.892 473.96 124.427 474.274 124.831L480.019 132.501C480.649 133.308 481.797 133.245 482.171 132.335Z" fill="#02E2AC" stroke="#6F3FF5" stroke-width="0.5" stroke-miterlimit="10"/>
<path d="M475.714 14.7505L480.165 13.2499C488.969 10.6091 499.696 16.2619 504.066 25.9144C508.436 35.5668 504.866 45.5047 495.999 48.1414L491.135 49.9303" fill="#02E2AC"/>
<path d="M475.714 14.7505L480.165 13.2499C488.969 10.6091 499.696 16.2619 504.066 25.9144C508.436 35.5668 504.866 45.5047 495.999 48.1414L491.135 49.9303" stroke="#6F3FF5" stroke-width="0.5" stroke-miterlimit="10" stroke-linecap="round"/>
<path d="M475.714 14.7505L480.165 13.2499C488.969 10.6091 499.696 16.2619 504.066 25.9144C508.436 35.5668 504.866 45.5047 495.999 48.1414L491.135 49.9303" fill="#02E2AC"/>
<path d="M475.714 14.7505L480.165 13.2499C488.969 10.6091 499.696 16.2619 504.066 25.9144C508.436 35.5668 504.866 45.5047 495.999 48.1414L491.135 49.9303" stroke="#6F3FF5" stroke-width="0.5" stroke-miterlimit="10" stroke-linecap="round"/>
<path d="M491.858 50.0137C500.695 47.3428 504.305 37.273 499.92 27.5222C495.535 17.7715 484.816 12.0321 475.979 14.703C467.141 17.3739 463.531 27.4436 467.916 37.1944C472.301 46.9452 483.02 52.6846 491.858 50.0137Z" fill="#02E2AC" stroke="#6F3FF5" stroke-width="0.5" stroke-miterlimit="10"/>
<path d="M491.858 50.0137C500.695 47.3428 504.305 37.273 499.92 27.5222C495.535 17.7715 484.816 12.0321 475.979 14.703C467.141 17.3739 463.531 27.4436 467.916 37.1944C472.301 46.9452 483.02 52.6846 491.858 50.0137Z" fill="#02E2AC" stroke="#6F3FF5" stroke-width="0.5" stroke-miterlimit="10"/>
<path d="M490.171 46.2657C497.148 44.1571 500.004 36.2212 496.55 28.5404C493.096 20.8596 484.64 16.3425 477.662 18.4511C470.685 20.5597 467.829 28.4955 471.283 36.1763C474.737 43.8571 483.193 48.3743 490.171 46.2657Z" fill="white" stroke="#6F3FF5" stroke-width="0.5" stroke-miterlimit="10"/>
<path d="M490.171 46.2657C497.148 44.1571 500.004 36.2212 496.55 28.5404C493.096 20.8596 484.64 16.3425 477.662 18.4511C470.685 20.5597 467.829 28.4955 471.283 36.1763C474.737 43.8571 483.193 48.3743 490.171 46.2657Z" fill="white" stroke="#6F3FF5" stroke-width="0.5" stroke-miterlimit="10"/>
<path d="M488.238 39.2314L488.967 31.465C489.006 31.0424 488.779 30.6028 488.403 30.3134L481.461 24.774C480.709 24.1952 479.744 24.4532 479.664 25.2985L478.936 33.0649C478.896 33.4876 479.124 33.9271 479.5 34.2165L486.442 39.7559C487.194 40.3348 488.159 40.0767 488.238 39.2314Z" fill="#02E2AC" stroke="#6F3FF5" stroke-width="0.5" stroke-miterlimit="10"/>
<path d="M488.238 39.2314L488.967 31.465C489.006 31.0424 488.779 30.6028 488.403 30.3134L481.461 24.774C480.709 24.1952 479.744 24.4532 479.664 25.2985L478.936 33.0649C478.896 33.4876 479.124 33.9271 479.5 34.2165L486.442 39.7559C487.194 40.3348 488.159 40.0767 488.238 39.2314Z" fill="#02E2AC" stroke="#6F3FF5" stroke-width="0.5" stroke-miterlimit="10"/>
<path d="M522.618 86.6188C529.379 89.8318 538.249 87.6437 542.43 81.7317C546.61 75.8196 544.519 68.4222 537.758 65.2092C530.997 61.9962 522.127 64.1843 517.946 70.0964C513.765 76.0085 515.857 83.4058 522.618 86.6188Z" fill="#6F3FF5" stroke="#02E2AC" stroke-width="0.5" stroke-miterlimit="10"/>
<path d="M522.618 86.6188C529.379 89.8318 538.249 87.6437 542.43 81.7317C546.61 75.8196 544.519 68.4222 537.758 65.2092C530.997 61.9962 522.127 64.1843 517.946 70.0964C513.765 76.0085 515.857 83.4058 522.618 86.6188Z" fill="#6F3FF5" stroke="#02E2AC" stroke-width="0.5" stroke-miterlimit="10"/>
<path d="M519.909 85.7277C526.67 88.9407 535.54 86.7526 539.721 80.8405C543.901 74.9285 541.81 67.5311 535.049 64.3181C528.288 61.1051 519.418 63.2932 515.237 69.2053C511.056 75.1173 513.148 82.5147 519.909 85.7277Z" fill="#6F3FF5" stroke="#02E2AC" stroke-width="0.5" stroke-miterlimit="10"/>
<path d="M519.909 85.7277C526.67 88.9407 535.54 86.7526 539.721 80.8405C543.901 74.9285 541.81 67.5311 535.049 64.3181C528.288 61.1051 519.418 63.2932 515.237 69.2053C511.056 75.1173 513.148 82.5147 519.909 85.7277Z" fill="#6F3FF5" stroke="#02E2AC" stroke-width="0.5" stroke-miterlimit="10"/>
<path d="M521.524 83.4451C526.853 85.9777 533.839 84.26 537.129 79.6086C540.418 74.9572 538.764 69.1334 533.435 66.6008C528.105 64.0682 521.119 65.7859 517.83 70.4373C514.54 75.0887 516.194 80.9125 521.524 83.4451Z" fill="white" stroke="#6F3FF5" stroke-width="0.5" stroke-miterlimit="10"/>
<path d="M521.524 83.4451C526.853 85.9777 533.839 84.26 537.129 79.6086C540.418 74.9572 538.764 69.1334 533.435 66.6008C528.105 64.0682 521.119 65.7859 517.83 70.4373C514.54 75.0887 516.194 80.9125 521.524 83.4451Z" fill="white" stroke="#6F3FF5" stroke-width="0.5" stroke-miterlimit="10"/>
<path d="M525.311 78.9943L523.312 74.452C523.209 74.2098 523.282 73.9313 523.497 73.745L527.592 70.274C528.022 69.9013 528.79 70.0364 528.996 70.5208L530.995 75.0631C531.098 75.3053 531.025 75.5838 530.81 75.7701L526.715 79.2411C526.291 79.5923 525.523 79.4573 525.311 78.9943Z" fill="#6F3FF5" stroke="#6F3FF5" stroke-width="0.5" stroke-miterlimit="10"/>
<path d="M525.311 78.9943L523.312 74.452C523.209 74.2098 523.282 73.9313 523.497 73.745L527.592 70.274C528.022 69.9013 528.79 70.0364 528.996 70.5208L530.995 75.0631C531.098 75.3053 531.025 75.5838 530.81 75.7701L526.715 79.2411C526.291 79.5923 525.523 79.4573 525.311 78.9943Z" fill="#6F3FF5" stroke="#6F3FF5" stroke-width="0.5" stroke-miterlimit="10"/>
</svg>
