<svg width="113" height="156" viewBox="0 0 113 156" fill="none" xmlns="http://www.w3.org/2000/svg">
<ellipse cx="53.3172" cy="105.116" rx="50.7555" ry="50.8838" fill="#5113FF"/>
<path d="M11.9319 105.899C7.63725 97.2879 19.2199 95.2003 24.4256 95.7222C28.1156 95.7222 39.2618 101.202 44.7278 105.899C50.1938 110.596 56.4406 124.053 56.4406 130.167C56.4406 134.081 47.8512 134.081 42.3852 134.081C36.9193 134.081 33.7959 132.515 27.549 127.818C20.0527 122.182 18.1916 118.45 11.9963 106.028L11.9319 105.899Z" fill="#02E2AC"/>
<path d="M62.6693 99.0193C63.3016 98.3544 67.6756 94.3098 69.7835 92.3705C72.1549 91.2624 77.372 89.0461 79.2691 89.0461C81.6405 89.0461 87.1738 88.215 92.707 89.0461C98.2403 89.8772 95.8689 99.0193 95.0784 101.513C94.288 104.006 90.3356 110.655 87.9642 113.148C85.4646 115.776 76.8977 120.628 74.5263 121.459C73.0265 121.985 63.4597 123.121 57.136 123.121C50.8123 123.121 52.6837 116.387 53.1837 114.81C53.9741 112.317 56.3455 108.161 57.136 106.499C58.3217 104.006 61.8788 99.8504 62.6693 99.0193Z" fill="#02E2AC"/>
<path d="M35.3576 61.2778L46.2895 47.9697C45.8608 48.4916 46.1976 48.2828 50.9746 43.2727C55.7516 38.2626 58.9516 41.4461 59.564 44.0556L69.7151 64.4091C72.8385 70.6717 70.7563 74.064 69.7151 74.5858C64.5094 80.3266 53.4734 92.5909 50.9746 95.7222C48.4759 98.8535 45.2484 97.0269 43.9469 95.7222C41.0838 88.9377 34.889 74.2727 33.015 69.8889C31.141 65.505 33.7959 62.3215 35.3576 61.2778Z" fill="#02E2AC"/>
<path d="M51.3784 128.406C47.707 110.693 36.6931 103.028 18.9483 102.51C21.9058 117.012 34.1435 132.135 51.3784 128.406Z" fill="white" stroke="#09090A" stroke-width="2"/>
<path d="M92.7844 95.6732C87.0733 112.868 75.2434 119.186 57.6007 117.529C62.19 103.545 76.0593 89.8728 92.7844 95.6732Z" fill="white" stroke="#09090A" stroke-width="2"/>
<path d="M37.2039 65.8416L55.5607 45.643L66.7785 70.5027L47.402 92.2549L37.2039 65.8416Z" fill="#FDFCFC" stroke="#09090A" stroke-width="2"/>
<path d="M18.8467 65.3238L1 68.9489" stroke="#09090A" stroke-width="2"/>
<path d="M28.9435 33.0058L17.8275 17.6758" stroke="#09090A" stroke-width="2"/>
<path d="M84.114 45.436L100.533 39.3251" stroke="#09090A" stroke-width="2"/>
<path d="M94.5509 70.8241L112 71.6988" stroke="#09090A" stroke-width="2"/>
<path d="M61.6781 18.1943L66.165 1" stroke="#09090A" stroke-width="2"/>
</svg>
