<svg width="702" height="489" viewBox="0 0 702 489" fill="none" xmlns="http://www.w3.org/2000/svg">
<path d="M336.757 216.11C337.292 216.998 336.971 217.985 336.008 218.478C335.046 218.972 333.976 218.676 333.441 217.788C332.907 216.9 333.227 215.913 334.19 215.42C335.153 215.025 336.329 215.321 336.757 216.11Z" fill="white"/>
<path d="M336.876 214.83C337.411 215.718 337.09 216.705 336.127 217.198C335.165 217.691 334.095 217.395 333.56 216.507C333.026 215.619 333.347 214.633 334.309 214.139C335.272 213.745 336.448 214.041 336.876 214.83Z" fill="white"/>
<path d="M417.845 115.179C417.31 114.39 417.631 113.305 418.593 112.811C419.556 112.318 420.626 112.614 421.16 113.502C421.695 114.39 421.374 115.377 420.412 115.87C419.556 116.363 418.379 116.067 417.845 115.179Z" fill="white"/>
<path d="M478.279 123.961C478.813 124.849 478.492 125.835 477.53 126.329C476.567 126.822 475.498 126.526 474.963 125.638C474.428 124.849 474.749 123.763 475.711 123.27C476.567 122.875 477.744 123.171 478.279 123.961Z" fill="#F579A6"/>
<path d="M636.646 12.4536C637.18 13.3416 636.86 14.3283 635.897 14.8216C634.934 15.3149 633.865 15.0189 633.33 14.1309C632.795 13.2429 633.116 12.2563 634.079 11.763C635.041 11.2696 636.111 11.5656 636.646 12.4536Z" fill="#33EDC0"/>
<path d="M532.4 271.267C532.934 272.056 532.614 273.142 531.651 273.635C530.688 274.128 529.619 273.832 529.084 272.944C528.549 272.056 528.87 271.07 529.833 270.576C530.795 270.083 531.972 270.379 532.4 271.267Z" fill="white"/>
<path d="M70.6906 265.947C71.2254 266.835 70.9045 267.822 69.9419 268.315C68.9793 268.808 67.9097 268.512 67.3749 267.624C66.8401 266.736 67.161 265.75 68.1236 265.256C69.0862 264.862 70.2628 265.158 70.6906 265.947Z" fill="white"/>
<path d="M177.801 121.613C178.336 122.501 178.015 123.487 177.052 123.98C176.09 124.474 175.02 124.178 174.485 123.29C173.95 122.501 174.271 121.415 175.234 120.922C176.09 120.527 177.266 120.823 177.801 121.613Z" fill="#FFDB4C"/>
<path d="M218.23 60.4407C218.764 61.3287 218.444 62.3154 217.481 62.8087C216.518 63.302 215.449 63.006 214.914 62.118C214.379 61.23 214.7 60.2434 215.663 59.7501C216.625 59.2567 217.695 59.5527 218.23 60.4407Z" fill="#9760FF"/>
<path d="M81.4074 43.2581C81.9422 44.0474 81.6213 45.1327 80.6587 45.626C79.6961 46.1194 78.6265 45.8234 78.0917 44.9354C77.5569 44.0474 77.8778 43.0608 78.8404 42.5675C79.803 42.0741 80.9796 42.3701 81.4074 43.2581Z" fill="#F579A6"/>
<path d="M584.889 324.585C585.424 325.473 585.103 326.46 584.14 326.953C583.177 327.447 582.108 327.151 581.573 326.263C581.038 325.375 581.359 324.388 582.322 323.895C583.284 323.5 584.461 323.796 584.889 324.585Z" fill="#FFDB4C"/>
<path d="M193.264 181.526C192.729 180.737 193.05 179.652 194.012 179.158C194.975 178.665 196.045 178.961 196.579 179.849C197.114 180.737 196.793 181.724 195.831 182.217C194.975 182.71 193.798 182.414 193.264 181.526Z" fill="white"/>
<path d="M117.086 244.259C117.621 245.147 117.3 246.133 116.337 246.627C115.375 247.12 114.305 246.824 113.77 245.936C113.236 245.147 113.557 244.061 114.519 243.568C115.375 243.173 116.551 243.469 117.086 244.259Z" fill="#F579A6"/>
<path d="M126.578 19.1513C127.113 20.0392 126.792 21.0259 125.83 21.5192C124.867 22.0125 123.797 21.7165 123.263 20.8286C122.728 19.9406 123.049 18.9539 124.011 18.4606C124.974 18.066 126.15 18.3619 126.578 19.1513Z" fill="white"/>
<path d="M604.864 114.798C605.399 115.686 605.078 116.673 604.116 117.166C603.153 117.659 602.084 117.363 601.549 116.475C601.014 115.587 601.335 114.601 602.298 114.107C603.26 113.614 604.33 113.91 604.864 114.798Z" fill="#33EDC0"/>
<path d="M285.85 152.971C286.385 153.859 286.064 154.846 285.101 155.339C284.139 155.833 283.069 155.537 282.534 154.649C281.999 153.761 282.32 152.774 283.283 152.281C284.245 151.886 285.422 152.182 285.85 152.971Z" fill="#33EDC0"/>
<path d="M366.816 53.3196C366.282 52.5303 366.602 51.445 367.565 50.9516C368.528 50.4583 369.597 50.7543 370.132 51.6423C370.667 52.5303 370.346 53.5169 369.383 54.0102C368.528 54.5036 367.351 54.2076 366.816 53.3196Z" fill="#9760FF"/>
<path d="M427.25 62.1014C427.785 62.9894 427.464 63.976 426.501 64.4693C425.539 64.9627 424.469 64.6667 423.934 63.7787C423.4 62.9894 423.721 61.9041 424.683 61.4107C425.539 61.0161 426.715 61.3121 427.25 62.1014Z" fill="#33EDC0"/>
<path d="M467.677 0.928311C468.212 1.8163 467.891 2.80295 466.928 3.29628C465.966 3.78961 464.896 3.49361 464.361 2.60562C463.826 1.71763 464.147 0.730979 465.11 0.237652C466.073 -0.255675 467.142 0.0403221 467.677 0.928311Z" fill="#F579A6"/>
<path d="M481.369 209.409C481.904 210.198 481.583 211.283 480.621 211.777C479.658 212.27 478.588 211.974 478.054 211.086C477.519 210.198 477.84 209.211 478.802 208.718C479.765 208.225 480.942 208.521 481.369 209.409Z" fill="white"/>
<path d="M532.279 272.548C532.813 273.337 532.492 274.422 531.53 274.916C530.567 275.409 529.498 275.113 528.963 274.225C528.428 273.337 528.749 272.351 529.712 271.857C530.674 271.364 531.851 271.66 532.279 272.548Z" fill="white"/>
<path d="M83.7414 213.763C84.2762 214.651 83.9553 215.638 82.9927 216.131C82.0301 216.624 80.9605 216.328 80.4257 215.44C79.8909 214.552 80.2118 213.566 81.1744 213.072C82.137 212.678 83.3136 212.974 83.7414 213.763Z" fill="white"/>
<path d="M81.2883 44.5387C81.8231 45.328 81.5022 46.4133 80.5396 46.9066C79.5769 47.3999 78.5074 47.1039 77.9726 46.216C77.4378 45.328 77.7587 44.3413 78.7213 43.848C79.6839 43.3547 80.8604 43.6507 81.2883 44.5387Z" fill="white"/>
<path d="M584.767 325.866C585.302 326.754 584.981 327.741 584.018 328.234C583.055 328.727 581.986 328.431 581.451 327.543C580.916 326.655 581.237 325.669 582.2 325.175C583.162 324.781 584.339 325.077 584.767 325.866Z" fill="white"/>
<path d="M353.314 124.262C352.78 123.472 353.1 122.387 354.063 121.894C355.026 121.4 356.095 121.696 356.63 122.584C357.165 123.472 356.844 124.459 355.881 124.952C355.026 125.446 353.849 125.15 353.314 124.262Z" fill="white"/>
<path d="M113.403 82.8225C113.937 83.7105 113.616 84.6971 112.654 85.1904C111.691 85.6838 110.622 85.3878 110.087 84.4998C109.552 83.7105 109.873 82.6251 110.836 82.1318C111.691 81.7371 112.868 82.0331 113.403 82.8225Z" fill="white"/>
<path d="M564.316 177.252C564.85 178.14 564.53 179.126 563.567 179.62C562.604 180.113 561.535 179.817 561 178.929C560.465 178.14 560.786 177.054 561.749 176.561C562.604 176.166 563.781 176.462 564.316 177.252Z" fill="white"/>
<path d="M296.12 63.6136C296.655 64.5016 296.334 65.4883 295.372 65.9816C294.409 66.475 293.339 66.179 292.805 65.291C292.27 64.403 292.591 63.4163 293.553 62.923C294.516 62.5283 295.692 62.8243 296.12 63.6136Z" fill="white"/>
<path d="M340.023 8.61181C340.557 9.40113 340.237 10.4864 339.274 10.9798C338.311 11.4731 337.242 11.1771 336.707 10.2891C336.172 9.40114 336.493 8.41449 337.456 7.92117C338.418 7.42785 339.595 7.72384 340.023 8.61181Z" fill="white"/>
<path d="M687.284 170.444L682.341 176.021M678.789 176.369V165.215V176.369ZM678.789 194.669V183.515V194.669ZM675.699 180.029H665.814H675.699ZM691.917 180.029H682.032H691.917ZM675.236 176.021L670.294 170.444L675.236 176.021ZM687.284 189.615L682.341 184.038L687.284 189.615ZM675.236 184.038L670.294 189.615L675.236 184.038Z" stroke="#5F26FF" stroke-miterlimit="10"/>
<path d="M680.185 328.311L671.59 330.707M668.088 327.285L676.842 311.202L668.088 327.285ZM653.605 353.462L662.359 337.379L653.605 353.462ZM660.608 329.509L645.646 320.099L660.608 329.509ZM684.801 344.907L669.839 335.497L684.801 344.907ZM663.632 325.745L661.404 316.506L663.632 325.745ZM669.043 348.5L666.815 339.261L669.043 348.5ZM659.016 334.129L650.421 336.524L659.016 334.129Z" stroke="#5F26FF" stroke-miterlimit="10"/>
<path d="M666.41 339.375C670.014 339.375 672.936 335.935 672.936 331.692C672.936 327.448 670.014 324.008 666.41 324.008C662.806 324.008 659.885 327.448 659.885 331.692C659.885 335.935 662.806 339.375 666.41 339.375Z" fill="#FFE48D" stroke="#5F26FF" stroke-width="1.5" stroke-miterlimit="10"/>
<path d="M678.275 184.424C679.913 184.424 681.241 182.991 681.241 181.223C681.241 179.454 679.913 178.021 678.275 178.021C676.637 178.021 675.309 179.454 675.309 181.223C675.309 182.991 676.637 184.424 678.275 184.424Z" fill="#21FDC8" stroke="#5F26FF" stroke-width="1.5" stroke-miterlimit="10"/>
<path d="M298.926 207.635L294.626 210.145M292.237 208.711L295.104 198.491L292.237 208.711ZM287.618 225.384L290.485 215.165L287.618 225.384ZM288.574 210.862L279.496 207.635L288.574 210.862ZM303.226 216.24L294.148 213.013L303.226 216.24ZM289.689 208.352L287.459 203.511L289.689 208.352ZM295.263 220.364L293.033 215.523L295.263 220.364ZM288.255 213.73L283.955 216.24L288.255 213.73Z" stroke="#5F26FF" stroke-width="1.5" stroke-miterlimit="10"/>
<path d="M290.77 216.42C293.063 216.42 294.923 214.413 294.923 211.938C294.923 209.462 293.063 207.456 290.77 207.456C288.476 207.456 286.617 209.462 286.617 211.938C286.617 214.413 288.476 216.42 290.77 216.42Z" fill="#FFE48D" stroke="#5F26FF" stroke-width="1.5" stroke-miterlimit="10"/>
<path d="M142.667 220.281L140.257 230.525M146.133 226.785L136.641 224.183L146.133 226.785Z" stroke="#FFE48D" stroke-width="1.5" stroke-miterlimit="10"/>
<path d="M244.483 350.779L250.585 358.462M251.021 351.406L243.902 357.992L251.021 351.406Z" stroke="#FFE48D" stroke-width="1.5" stroke-miterlimit="10"/>
<path d="M517.943 193.388L524.045 201.072M524.626 194.015L517.507 200.601L524.626 194.015Z" stroke="#FFE48D" stroke-width="1.5" stroke-miterlimit="10"/>
<path d="M588.695 164.895L599.374 162.974M593.033 158.812L595.036 169.057L593.033 158.812Z" stroke="#FFE48D" stroke-width="1.5" stroke-miterlimit="10"/>
<path d="M226.066 280.468L232.168 288.152M232.749 281.095L225.63 287.681L232.749 281.095Z" stroke="#FFE48D" stroke-width="1.5" stroke-miterlimit="10"/>
<path d="M225.83 149.848L229.852 160.093M232.748 152.8L223.256 157.141L232.748 152.8Z" stroke="#FFE48D" stroke-width="1.5" stroke-miterlimit="10"/>
<path d="M569.484 373.829L574.454 378.952M574.935 374.245L569.003 378.536L574.935 374.245Z" stroke="#FFE48D" stroke-width="1.5" stroke-miterlimit="10"/>
<path d="M80.2028 366.268L87.3217 373.951M87.9997 366.895L79.6943 373.481L87.9997 366.895Z" stroke="#FFE48D" stroke-width="1.5" stroke-miterlimit="10"/>
<path d="M398.861 302.598L408.353 294.395M400.493 291.993L406.573 304.799L400.493 291.993Z" stroke="#FFE48D" stroke-width="1.5" stroke-miterlimit="10"/>
<path d="M358.1 212.597L361.146 201.072M353.771 205.277L365.635 208.236L353.771 205.277Z" stroke="#FFE48D" stroke-width="1.5" stroke-miterlimit="10"/>
<path d="M387.733 361.145L388.771 371.39M392.924 365.787L383.432 366.908L392.924 365.787Z" stroke="#FFE48D" stroke-width="1.5" stroke-miterlimit="10"/>
<path d="M324.941 263.821L323.133 274.065M328.858 270L319.366 268.049L328.858 270Z" stroke="#FFE48D" stroke-width="1.5" stroke-miterlimit="10"/>
<path d="M352.012 338.095C350.68 335.057 351.568 331.483 354.083 329.875C356.597 328.267 359.556 329.339 360.887 332.377" stroke="#5F26FF" stroke-width="1.5" stroke-miterlimit="10"/>
<path d="M599.375 233.801C600.63 232.805 602.444 232.805 603.42 234.085C604.397 235.365 604.397 237.213 603.141 238.209" stroke="#5F26FF" stroke-width="1.5" stroke-miterlimit="10"/>
<path d="M79.7068 151.129C79.5588 149.132 80.7428 147.467 82.3708 147.301C83.9988 147.135 85.4788 148.466 85.6268 150.463" stroke="#5F26FF" stroke-width="1.5" stroke-miterlimit="10"/>
<path d="M455.817 347.059C455.672 344.508 456.828 342.188 458.56 341.956C460.293 341.724 461.593 343.58 461.737 346.363" stroke="#5F26FF" stroke-width="1.5" stroke-miterlimit="10"/>
<path d="M405.976 238.033C407.344 236.694 409.884 236.545 411.643 237.735C413.402 238.777 413.598 240.711 412.034 242.051" stroke="#5F26FF" stroke-width="1.5" stroke-miterlimit="10"/>
<path d="M454.622 170.793C454.794 168.978 456.518 167.492 458.586 167.822C460.654 168.153 462.033 169.638 461.688 171.618" stroke="#5F26FF" stroke-width="1.5" stroke-miterlimit="10"/>
<path d="M507.705 281.039C506.532 284.196 505.624 286.941 504.165 289.72C503.932 290.209 503.495 290.939 502.744 291.54C501.921 292.176 501.008 292.386 500.26 292.469C497.892 292.73 495.796 292.389 494.408 292.079C493.02 291.768 491.036 291.278 488.625 289.963C486.109 288.604 484.486 287.093 483.41 286.066C481.291 284.091 480.216 283.065 479.871 281.494C479.195 278.487 480.948 275.894 481.04 275.802C481.999 274.442 483.209 273.899 483.787 273.617L481.182 271.832C480.51 271.361 479.386 270.64 479.26 269.808C479.122 268.842 479.635 267.558 480.156 266.928L480.823 266.227C480.823 266.227 481.372 265.348 481.465 265.256C481.822 264.753 482.656 263.407 483.709 262.8C485.432 261.819 487.567 263.41 488.142 263.646C488.665 263.861 489.358 264.276 489.579 264.497C490.095 264.903 490.195 264.62 490.166 264.023C490.206 263.909 490.318 263.761 490.378 263.59C490.498 263.25 490.494 262.923 490.501 262.732C490.574 262.696 490.666 262.604 490.654 262.469C490.689 262.029 489.884 261.763 489.586 261.251C489.158 260.426 489.992 259.079 490.257 258.668C491.396 256.797 491.654 254.369 492.551 252.334C494.746 247.128 495.93 241.053 495.998 240.691C496.485 238.292 497.325 233.7 496.821 228.165C496.436 223.654 495.284 220.127 495.013 219.366C494.807 218.761 494.665 218.313 494.536 218C494.099 218.73 493.397 219.871 492.595 221.296C491.184 223.77 490.699 224.805 489.207 227.506C483.883 237.338 484.122 235.812 483.329 237.89C483.169 238.344 482.756 239.344 481.885 240.285C480.757 241.446 479.338 241.903 478.373 242.091C476.471 242.219 474.549 242.404 472.647 242.532C472.22 242.552 471.866 242.537 471.44 242.556C470.654 243.598 469.919 244.66 469.133 245.702C469.282 245.958 469.585 246.797 469.662 247.089C469.868 247.693 469.857 248.403 469.605 248.949L466.442 254.861C465.925 255.818 465.406 255.93 464.464 255.543L463.886 255.825L460.556 263.228C458.769 267.107 455.838 270.321 452.169 272.062L424.546 285.338C424.665 286.361 424.864 288.002 424.809 288.499L422.573 310.125C422.49 310.871 422.137 311.7 421.845 312.36L421.532 313.076L422.663 315.815L425.284 324.688C425.596 326.181 425.349 327.053 424.899 327.648L425.114 328.906C425.173 330.1 424.877 331.278 423.957 331.679C421.63 332.672 416.744 335.148 411.6 337.842C406.385 340.573 400.88 343.444 397.468 344.966C394.417 346.311 392.032 346.111 390.096 345.316C387.062 344.069 385.36 341.421 385.082 340.852C383.508 339.88 382.323 338.484 381.772 336.308C379.707 327.728 386.538 322.284 386.663 322.27L399.582 313.154C399.42 312.763 399.383 312.358 399.314 311.875L395.904 286.045C395.008 279.245 397.22 272.292 401.741 267.458L414.728 253.562L388.283 245.491C387.79 246.718 387.056 247.781 386.205 248.666L369.96 264.667C368.707 265.841 367.293 266.624 365.684 266.938C364.253 267.26 362.753 267.098 361.425 266.618C361.405 266.674 361.405 266.674 361.365 266.788L361.751 266.882L361.412 268.692C361.244 269.337 360.972 269.94 360.49 270.457L351.974 278.978C351.031 279.954 349.817 280.17 348.77 279.74C348.352 279.568 347.953 279.34 347.562 278.919L323.166 249.925C322.033 248.55 322.118 246.441 323.339 245.189C325.37 243.165 329.37 239.805 333.742 239.977C336.397 240.093 338.768 241.522 340.916 244.094C345.49 249.806 348.709 250.869 349.981 251.001C349.922 249.808 350.093 248.644 350.369 247.522L350.529 247.068C350.969 245.82 351.546 244.693 352.365 243.73L373.819 218.564C377.464 214.344 382.813 212.254 388.079 213.118L409.163 216.517C409.062 215.955 409.14 214.883 409.393 214.337L412.47 207.48C412.802 206.707 413.296 206.325 413.992 206.221C414.044 206.243 414.314 206.159 414.418 206.202L424.05 184.495C423.808 184.331 423.37 184.216 423.221 183.96C422.785 183.326 422.505 181.912 422.805 181.06C423.526 179.017 424.543 176.642 425.866 173.742C422.665 171.777 401.17 158.333 398.71 144.589L398.102 144.274C397.872 144.245 397.716 144.18 397.506 144.094C397.14 143.944 396.794 143.737 396.612 143.402C396.169 142.96 396.108 142.285 396.131 141.71L397.174 132.978C397.345 131.813 398.3 130.972 399.362 131.018L400.104 129.764C405.311 112.282 422.985 99.532 423.222 99.3695L424.118 98.6979L424.94 97.2164C427.392 94.0007 436.216 84.4368 445.656 80.2587L445.833 80.2664L445.99 80.3309C446.042 80.3524 457.717 82.745 461.992 94.5716L462.121 94.8846L461.864 95.1038C461.607 95.3231 455.312 101.963 449.407 105.969L457.787 104.798L457.916 105.111C458.053 105.233 458.868 106.997 458.438 114.162L458.39 114.467L458.153 114.629C457.791 114.806 449.499 119.975 438.221 119.175L437.518 119.471C437.159 119.129 423.84 129.38 423.744 136.617C423.642 138.264 424.807 139.717 426.216 140.816C433.871 146.625 438.606 149.674 439.991 150.503C440.613 149.589 441.444 148.761 442.13 148.003C443.893 146.064 445.924 144.04 448.562 143.694L448.542 143.751C449.46 141.659 451.48 140.345 451.573 140.253L451.605 140.331C455.299 132.233 458.256 127.926 469.727 116.461C476.119 110.056 485.943 107.335 494.919 109.398C503.948 111.483 511.054 118.171 514.992 128.235C523.139 149.124 505.787 167.073 501.917 170.746L502.198 170.797C502.138 170.967 505.421 176.604 505.889 177.316L507.82 179.993C508.288 180.705 508.458 181.75 508.158 182.601C508.098 182.771 508.018 182.998 507.906 183.147C514.16 192.928 517.038 201.582 517.051 201.717C519.712 210.476 521.371 219.02 521.944 227.246L522.173 227.275C522.777 227.263 523.247 227.457 523.691 227.899C524.134 228.341 524.287 228.924 524.349 229.599L524.171 238.426C524.072 239.555 523.253 240.518 522.132 240.642L521.902 240.613C520.434 262.1 511.558 273.851 511.518 273.964L511.386 274.17L511.104 274.119C510.875 274.09 510.521 274.075 510.292 274.045C509.739 275.443 509.259 276.805 508.706 278.202C508.198 279.812 507.918 280.607 507.705 281.039Z" fill="white"/>
<path d="M402.119 140.013L405.095 137.857L402.466 135.802L402.578 133.444C402.677 132.315 401.955 131.304 400.954 131.088C400.901 131.066 400.724 131.058 400.672 131.037L399.859 130.963L399.224 130.897C398.182 130.794 397.206 131.692 397.035 132.856L395.992 141.589C395.949 142.221 396.031 142.839 396.474 143.281C396.655 143.615 397.002 143.822 397.368 143.973C397.577 144.059 397.734 144.123 397.963 144.153L398.828 144.248L399.693 144.343C399.745 144.365 399.87 144.351 399.922 144.373C400.9 144.319 401.743 143.626 401.894 142.519L402.119 140.013Z" fill="#21FDC8"/>
<path d="M402.119 140.013L405.095 137.857L402.466 135.802L402.578 133.444C402.677 132.315 401.955 131.304 400.954 131.088C400.901 131.066 400.724 131.058 400.672 131.037L399.859 130.963L399.224 130.897C398.182 130.794 397.206 131.692 397.035 132.856L395.992 141.589C395.949 142.221 396.031 142.839 396.474 143.281C396.655 143.615 397.002 143.822 397.368 143.973C397.577 144.059 397.734 144.123 397.963 144.153L398.828 144.248L399.693 144.343C399.745 144.365 399.87 144.351 399.922 144.373C400.9 144.319 401.743 143.626 401.894 142.519L402.119 140.013Z" stroke="#6027FF" stroke-width="1.5" stroke-miterlimit="10"/>
<path d="M524.28 238.278L524.458 229.45C524.449 228.796 524.243 228.192 523.8 227.75C523.356 227.308 522.886 227.115 522.282 227.127L522.053 227.097L520.971 227.108L520.65 227.171C519.568 227.181 518.697 228.122 518.598 229.251L518.425 231.779L515.735 234.312L518.662 236.034L518.778 238.421C518.864 239.366 519.332 240.078 520.117 240.401C520.378 240.508 520.66 240.559 520.962 240.553L521.014 240.574L522.116 240.507L522.345 240.536C523.467 240.413 524.286 239.45 524.28 238.278Z" fill="#21FDC8"/>
<path d="M524.28 238.278L524.458 229.45C524.449 228.796 524.243 228.192 523.8 227.75C523.356 227.308 522.886 227.115 522.282 227.127L522.053 227.097L520.971 227.108L520.65 227.171C519.568 227.181 518.697 228.122 518.598 229.251L518.425 231.779L515.735 234.312L518.662 236.034L518.778 238.421C518.864 239.366 519.332 240.078 520.117 240.401C520.378 240.508 520.66 240.559 520.962 240.553L521.014 240.574L522.116 240.507L522.345 240.536C523.467 240.413 524.286 239.45 524.28 238.278Z" stroke="#6027FF" stroke-width="1.5" stroke-miterlimit="10"/>
<path d="M361.56 266.739L361.222 268.549C361.062 269.003 360.684 269.563 360.255 270.101L351.739 278.622C350.836 279.485 349.582 279.814 348.535 279.385C348.117 279.213 347.718 278.984 347.327 278.563L322.83 249.853C321.698 248.478 321.783 246.369 323.003 245.116C324.983 243.071 328.93 239.69 333.407 239.905C336.061 240.021 338.433 241.45 340.581 244.021C345.175 249.677 348.342 250.718 349.645 250.929" stroke="#6027FF" stroke-width="1.5" stroke-miterlimit="10"/>
<path d="M325.028 243.611L353.333 276.809" stroke="#6027FF" stroke-width="1.5" stroke-miterlimit="10"/>
<path d="M449.706 198.87C456.092 201.493 463.276 197.929 465.752 190.908C468.228 183.888 465.058 176.07 458.672 173.447C452.286 170.823 445.102 174.387 442.626 181.408C440.151 188.428 443.32 196.246 449.706 198.87Z" stroke="#6027FF" stroke-width="1.5" stroke-miterlimit="10"/>
<path d="M476.317 192.715C476.317 192.715 476.337 192.658 476.285 192.636C476.079 192.032 475.832 191.541 475.277 191.248L473.01 189.862C472.024 189.262 470.782 189.726 470.173 190.775L469.715 191.562L469.178 192.575L466.26 198.133L465.722 199.147L464.993 200.537C464.74 201.083 464.613 201.615 464.819 202.219C465.025 202.824 465.271 203.315 465.827 203.608L468.145 205.015C468.302 205.08 468.355 205.101 468.407 205.123C468.93 205.338 469.606 205.29 470.06 205.022C470.369 204.824 470.719 204.513 470.911 204.137L475.934 194.311C476.415 193.794 476.419 193.276 476.317 192.715Z" stroke="#6027FF" stroke-width="1.5" stroke-miterlimit="10"/>
<path d="M480.489 194.299C480.457 194.221 480.444 194.086 480.412 194.008C480.335 193.716 480.093 193.552 479.832 193.445L478.322 192.63C477.851 192.436 477.385 192.569 476.891 192.951C476.634 193.17 476.389 193.525 476.197 193.9L471.384 203.813C471.131 204.359 471.003 204.891 471.052 205.431C471.032 205.487 471.085 205.509 471.045 205.622C471.114 206.106 471.368 206.405 471.662 206.591L473.171 207.406C473.224 207.427 473.224 207.427 473.276 207.449C473.956 207.728 474.936 207.156 475.421 206.121L475.554 205.916L480.11 196.223C480.495 195.471 480.518 194.896 480.489 194.299Z" stroke="#6027FF" stroke-width="1.5" stroke-miterlimit="10"/>
<path d="M466.057 189.539C466.266 189.625 466.403 189.746 466.612 189.832C467.703 190.475 468.834 191.005 469.925 191.648" stroke="#6027FF" stroke-width="1.5" stroke-miterlimit="10"/>
<path d="M436.557 165.661C437.564 167.05 440.656 170.854 446.069 175.547" stroke="#6027FF" stroke-width="1.5" stroke-miterlimit="10"/>
<path d="M465.826 199.19C464.16 198.311 463.363 197.853 461.873 196.981" stroke="#6027FF" stroke-width="1.5" stroke-miterlimit="10"/>
<path d="M441.973 183.089C435.054 177.063 432.324 173.083 432.26 172.926" stroke="#6027FF" stroke-width="1.5" stroke-miterlimit="10"/>
<path d="M460.375 235.024L454.51 231.445C453.732 230.931 452.763 230.792 451.81 231.115C450.878 231.382 450.159 232.061 449.682 232.905L448.932 234.351L448.395 235.365L444.15 243.496L443.612 244.51L443.32 245.169C442.378 246.991 442.921 249.358 444.62 250.316L450.59 253.938C450.747 254.003 450.936 254.146 451.093 254.21C452.663 254.855 454.568 254.208 455.418 252.478L455.935 251.521L456.472 250.508L460.718 242.376L461.255 241.362L461.904 240.2C462.669 238.37 462.034 236.095 460.375 235.024Z" stroke="#6027FF" stroke-width="1.5" stroke-miterlimit="10"/>
<path d="M427.493 211.248L425.604 210.148C425.101 209.876 424.643 209.817 424.144 209.872C423.678 210.006 423.236 210.409 422.971 210.82L421.592 213.372L421.055 214.386L416.705 222.474L416.168 223.488L414.769 226.097C414.556 226.529 414.461 227.14 414.614 227.722C414.716 228.284 415.107 228.704 415.538 229.011L417.426 230.112C417.478 230.133 417.635 230.198 417.687 230.219C418.524 230.563 419.602 230.226 420.047 229.304L420.949 227.596L421.486 226.582L425.691 218.564L426.228 217.551L428.205 213.815C428.642 213.085 428.374 211.805 427.493 211.248Z" stroke="#6027FF" stroke-width="1.5" stroke-miterlimit="10"/>
<path d="M417.692 208.976L412.257 219.802" stroke="#6027FF" stroke-width="1.5" stroke-miterlimit="10"/>
<path d="M425.205 231.489L430.236 221.472" stroke="#6027FF" stroke-width="1.5" stroke-miterlimit="10"/>
<path d="M437.576 227.151L432.598 237.19" stroke="#6027FF" stroke-width="1.5" stroke-miterlimit="10"/>
<path d="M441.275 243.159L446.253 233.12" stroke="#6027FF" stroke-width="1.5" stroke-miterlimit="10"/>
<path d="M460.808 253.847L465.674 243.956" stroke="#6027FF" stroke-width="1.5" stroke-miterlimit="10"/>
<path d="M514.905 128.135C510.966 118.07 503.861 111.383 494.832 109.298C485.856 107.235 476.032 109.956 469.64 116.36C458.189 127.769 455.212 132.133 451.518 140.231C451.438 140.458 451.358 140.685 451.225 140.891L451.205 140.947L451.185 141.004C451.185 141.004 451.165 141.061 451.137 141.309C451.117 141.366 451.11 141.558 451.134 141.828C450.975 145.336 451.553 161.361 470.95 170.564C472.133 171.115 473.284 171.588 474.435 172.061C492.224 179.369 499.778 172.727 501.051 171.495C501.123 171.46 501.163 171.347 501.183 171.29C501.203 171.233 501.44 171.071 501.902 170.611C505.752 166.995 523.104 149.045 514.905 128.135Z" stroke="#6027FF" stroke-width="1.5" stroke-miterlimit="10"/>
<path d="M505.838 176.775L502.237 170.683C502.217 170.74 501.773 174.715 498.065 177.415C493.297 180.914 485.575 180.73 474.996 177.099C473.877 176.704 472.883 176.296 471.889 175.887C455.932 169.332 450.648 158.325 448.967 151.203C448.87 150.968 448.858 150.833 448.761 150.598C448.36 148.679 448.212 147.059 448.114 145.979C448.097 145.517 448.133 145.077 448.273 144.68C448.36 144.261 448.501 143.864 448.641 143.467C449.558 141.375 451.579 140.061 451.671 139.969L451.703 140.047" stroke="#6027FF" stroke-width="1.5" stroke-miterlimit="10"/>
<path d="M448.852 151.351C447.804 152.285 442.431 157.16 436.662 165.705C436.47 166.08 436.265 166.321 436.021 166.675C434.962 168.319 433.935 170.042 432.888 171.821C432.696 172.196 432.451 172.551 432.259 172.926C430.502 176.038 428.835 179.576 427.318 183.371C426.905 184.371 426.029 184.985 425 185.017C424.823 185.009 424.718 184.966 424.561 184.902C424.404 184.837 424.352 184.816 424.195 184.751C423.986 184.666 423.776 184.58 423.587 184.437C423.398 184.294 423.124 184.052 422.995 183.739C422.579 183.048 422.493 182.103 422.773 181.309C423.546 179.287 424.571 176.72 425.914 173.763C426.014 173.479 426.206 173.104 426.346 172.706C429.456 165.927 433.878 157.804 439.091 151.175C439.244 150.912 439.541 150.58 439.818 150.304C440.544 149.433 441.271 148.562 441.957 147.804C443.699 145.921 445.751 143.84 448.389 143.494L448.369 143.551" stroke="#6027FF" stroke-width="1.5" stroke-miterlimit="10"/>
<path d="M399.715 131.034C404.974 113.573 422.794 99.3894 422.907 99.2406L423.802 98.5691L423.704 99.698L423.684 99.7548C423.664 99.8115 423.681 100.273 423.69 100.927C423.913 104.202 425.473 113.874 437.622 118.15L439.486 118.981L438.135 119.075L437.287 119.442C437.174 119.59 423.858 129.323 423.814 136.581C423.837 138.215 424.511 139.531 425.921 140.63C433.576 146.439 438.311 149.489 439.696 150.317" stroke="#6027FF" stroke-width="1.5" stroke-miterlimit="10"/>
<path d="M425.97 173.784C425.917 173.763 426.139 173.984 425.97 173.784C422.769 171.82 401.04 158.02 398.58 144.275C398.548 144.197 398.588 144.084 398.503 143.984" stroke="#6027FF" stroke-width="1.5" stroke-miterlimit="10"/>
<path d="M423.803 98.569C426.255 95.3533 435.993 84.2159 445.466 80.116L445.643 80.1238L445.8 80.1883C445.957 80.2527 457.579 82.6238 461.802 94.4289L461.931 94.7419L461.674 94.9612C461.377 95.2939 455.472 101.509 449.764 105.466C449.619 105.536 449.716 105.771 449.84 105.757L457.597 104.656L457.726 104.969C457.823 105.203 458.678 106.854 458.248 114.019L458.22 114.268L457.983 114.43C457.674 114.628 449.329 119.776 438.051 118.975C437.874 118.968 437.822 118.946 437.665 118.882" stroke="#6027FF" stroke-width="1.5" stroke-miterlimit="10"/>
<path d="M507.965 179.923L506.034 177.245C505.566 176.533 504.781 176.211 503.909 176.307C500.74 176.63 490.086 178.815 481.2 194.33C480.743 195.117 480.193 195.996 479.821 196.882C478.281 199.888 477.076 202.966 476.297 206.025C474.263 213.83 474.747 221.631 477.736 229.291C477.813 229.582 477.962 229.838 478.091 230.151C478.124 230.229 478.241 230.407 478.253 230.542C478.519 230.977 478.878 231.319 479.401 231.534C479.662 231.641 479.944 231.692 480.246 231.686C481.183 231.746 482.038 231.188 482.503 230.21L484.21 226.558C484.583 225.671 484.505 224.535 483.92 223.645C483.634 223.267 483.335 222.755 482.992 222.029C482.831 221.638 482.657 221.112 482.535 220.607C481.802 217.252 482.073 211.387 486.717 201.275C492.804 187.923 501.779 184.723 506.504 184.065C506.825 184.003 507.127 183.997 507.332 183.756C507.641 183.558 507.918 183.282 508.175 183.063C508.287 182.914 508.367 182.687 508.427 182.517C508.571 181.601 508.485 180.656 507.965 179.923Z" stroke="#6027FF" stroke-width="1.5" stroke-miterlimit="10"/>
<path d="M482.864 222.043L489.953 208.907" stroke="#6027FF" stroke-width="1.5" stroke-miterlimit="10"/>
<path d="M478.178 230.577L472.397 241.196L471.747 242.359L469.698 246.13L469.566 246.335" stroke="#6027FF" stroke-width="1.5" stroke-miterlimit="10"/>
<path d="M507.956 183.168C514.21 192.949 517.141 201.625 517.141 201.625C519.822 210.328 521.409 218.906 522.034 227.154C522.034 227.154 522.087 227.176 522.067 227.232" stroke="#6027FF" stroke-width="1.5" stroke-miterlimit="10"/>
<path d="M522.003 239.811C521.975 240.059 521.999 240.329 521.939 240.499C520.596 261.973 511.845 273.71 511.732 273.859L511.6 274.064L511.318 274.014C511.089 273.984 510.84 274.012 510.506 273.94C510.119 273.846 509.818 273.852 509.432 273.758C507.493 273.481 505.601 272.899 503.979 272.233C498.067 269.804 493.785 265.641 491.565 263.105C491.259 262.784 491.077 262.45 490.823 262.15C490.199 261.374 489.86 260.975 489.86 260.975L489.711 260.719L490.251 259.187C491.204 256.654 492.99 251.931 495.157 244.765C498.597 233.314 497.295 224.268 494.83 217.668C494.669 217.277 494.475 216.807 494.313 216.416C493.829 215.242 492.444 212.205 490.078 208.894C490.078 208.894 489.844 208.538 488.01 206.095" stroke="#6027FF" stroke-width="1.5" stroke-miterlimit="10"/>
<path d="M510.477 273.861C509.925 276.104 509.277 278.112 508.677 279.814C508.537 280.211 508.397 280.608 508.297 280.892C506.563 285.638 504.939 288.544 503.9 290.131C503.138 291.442 501.796 292.19 500.341 292.242C496.681 292.428 493.479 291.827 490.758 290.709C485.683 288.624 482.27 284.883 480.496 282.27C479.053 280.248 479.314 277.301 481.12 275.575C481.859 274.839 482.598 274.103 483.284 273.345C483.541 273.126 483.786 272.772 484.011 272.474C486.375 269.677 488.168 266.971 489.275 265.021C489.467 264.646 489.712 264.291 489.812 264.008C490.349 262.994 490.662 262.278 490.742 262.051" stroke="#6027FF" stroke-width="1.5" stroke-miterlimit="10"/>
<path d="M483.308 273.615L480.703 271.83C479.978 271.338 479.531 270.569 479.424 269.681C479.298 268.849 479.482 267.82 480.076 267.155L480.525 266.56L481.272 265.632L482.937 263.457C483.724 262.416 485.03 262.108 486.181 262.581L489.876 264.164L490.137 264.271" stroke="#6027FF" stroke-width="1.5" stroke-miterlimit="10"/>
<path d="M494.738 217.76L483.531 237.649C482.801 239.039 481.713 240.086 480.456 240.934C480.147 241.132 479.837 241.329 479.548 241.47C478.463 241.999 477.229 242.272 475.95 242.331L471.695 242.337" stroke="#6027FF" stroke-width="1.5" stroke-miterlimit="10"/>
<path d="M414.56 206.131L423.588 184.437L423.668 184.21" stroke="#6027FF" stroke-width="1.5" stroke-miterlimit="10"/>
<path d="M460.989 241.447C463.452 242.784 466.021 244.164 468.661 245.508C468.714 245.53 468.713 245.53 468.818 245.573C469.08 245.68 469.374 245.866 469.523 246.122C469.672 246.378 469.841 246.578 469.898 246.926C470.157 247.552 470.114 248.184 469.841 248.787L466.678 254.699C466.161 255.656 465.096 256.128 464.102 255.72L463.945 255.655C463.683 255.548 463.369 255.419 462.951 255.247C461.296 254.502 458.793 253.279 455.774 251.649" stroke="#6027FF" stroke-width="1.5" stroke-miterlimit="10"/>
<path d="M426.292 217.707C432.604 223.419 439.554 228.678 448.915 234.408" stroke="#6027FF" stroke-width="1.5" stroke-miterlimit="10"/>
<path d="M416.126 223.601C413.975 221.548 411.864 219.382 409.91 217.279C409.857 217.258 409.773 217.158 409.773 217.158C409.571 216.88 409.35 216.659 409.345 216.333C409.139 215.728 409.182 215.096 409.467 214.629L412.684 207.374C412.977 206.715 413.603 206.127 414.383 206.123C414.456 206.088 414.56 206.131 414.665 206.174C415.091 206.154 415.353 206.262 415.679 206.526C415.868 206.668 416.037 206.868 416.207 207.067C417.214 208.456 418.899 210.642 421.603 213.507" stroke="#6027FF" stroke-width="1.5" stroke-miterlimit="10"/>
<path d="M443.574 244.623C434.697 239.222 428.081 234.035 421.012 227.753" stroke="#6027FF" stroke-width="1.5" stroke-miterlimit="10"/>
<path d="M388.393 238.716L388.556 239.952C388.848 241.502 388.794 242.844 388.406 244.114C388.266 244.511 388.218 244.816 388.026 245.192C387.553 246.362 386.799 247.482 385.948 248.366L369.703 264.367C368.554 265.585 367.036 266.325 365.427 266.639C363.819 266.953 362.266 266.77 360.801 266.168C359.493 265.63 358.338 264.831 357.447 263.62L351.656 256.433C350.588 255.215 349.994 253.671 349.669 252.044C349.56 251.674 349.523 251.269 349.506 250.807C349.448 249.614 349.619 248.45 349.895 247.329L350.055 246.875C350.495 245.626 351.072 244.499 351.891 243.536L373.345 218.37C377.01 214.094 382.339 212.06 387.605 212.924L409.188 216.268" stroke="#6027FF" stroke-width="1.5" stroke-miterlimit="10"/>
<path d="M414.804 253.335L414.438 253.184L387.993 245.114L387.784 245.028" stroke="#6027FF" stroke-width="1.5" stroke-miterlimit="10"/>
<path d="M421.683 281.563C423.438 282.024 424.204 283.248 424.616 284.457C424.725 284.827 424.815 285.254 424.871 285.602C424.99 286.625 424.859 287.676 424.856 288.194L422.802 310.155C422.429 311.041 422.169 311.779 421.929 312.46L421.789 312.857L421.131 314.211L420.759 315.098C420.386 315.984 419.752 316.763 419.073 317.329C415.72 320.044 412.366 320.551 409.47 320.271C408.992 320.269 408.553 320.154 408.062 320.017C407.06 319.8 406.183 319.57 405.399 319.248C405.242 319.183 405.189 319.162 405.032 319.097C404.195 318.753 403.386 318.161 402.761 317.384C402.761 317.384 402.709 317.363 402.729 317.306L402.39 316.907L400.601 314.678C400.399 314.4 400.125 314.158 400.016 313.788C399.835 313.454 399.653 313.119 399.564 312.693C399.402 312.301 399.261 311.853 399.296 311.413L395.814 285.619C394.918 278.819 397.13 271.866 401.65 267.031L414.637 253.135L415.139 252.562L422.55 244.627" stroke="#6027FF" stroke-width="1.5" stroke-miterlimit="10"/>
<path d="M464.229 255.187L464.069 255.641L460.791 263.066C459.109 266.988 456.074 270.159 452.405 271.9L424.601 285.686" stroke="#6027FF" stroke-width="1.5" stroke-miterlimit="10"/>
<path d="M500.981 142.815L482.669 123.403C480.304 120.937 476.177 120.411 472.126 124.594L463.31 133.966C459.886 137.562 459.131 143.099 461.339 147.71C466.396 158.168 473.603 163.208 479.515 165.637C481.503 166.454 483.415 166.979 484.855 167.311C487.245 167.838 489.656 166.945 491.222 165.054L501.208 153.044C503.672 149.963 503.548 145.559 500.981 142.815Z" fill="#5522F5"/>
<path d="M500.981 142.815L482.669 123.403C480.304 120.937 476.177 120.411 472.126 124.594L463.31 133.966C459.886 137.562 459.131 143.099 461.339 147.71C466.396 158.168 473.603 163.208 479.515 165.637C481.503 166.454 483.415 166.979 484.855 167.311C487.245 167.838 489.656 166.945 491.222 165.054L501.208 153.044C503.672 149.963 503.548 145.559 500.981 142.815Z" stroke="#6027FF" stroke-width="1.5" stroke-miterlimit="10"/>
<path d="M505.382 142.221L483.496 118.676C480.676 115.633 475.788 115.055 470.971 120.222L460.333 131.705C456.222 136.058 455.276 142.816 457.924 148.387C463.865 161.093 472.627 167.161 479.638 170.041C481.992 171.009 484.217 171.663 486.011 172.01C488.84 172.652 491.705 171.491 493.588 169.211L505.656 154.353C508.562 150.869 508.404 145.541 505.382 142.221Z" stroke="#6027FF" stroke-width="1.5" stroke-miterlimit="10"/>
<path d="M421.663 312.871L422.948 316.192L425.27 324.553C425.675 325.954 425.427 326.826 424.958 327.478C424.7 327.697 424.456 328.052 424.022 328.263C423.712 328.461 423.226 328.651 422.864 328.827L422.575 328.968L393.927 342.602C393.698 342.573 390.143 342.802 386.944 341.682C386.787 341.618 386.682 341.575 386.42 341.467C385.897 341.252 385.342 340.959 384.911 340.652C383.337 339.681 382.047 338.241 381.601 336.109C379.483 327.508 386.367 322.085 386.492 322.071L399.411 312.955L399.72 312.757" stroke="#6027FF" stroke-width="1.5" stroke-miterlimit="10"/>
<path d="M424.932 327.208L425.009 327.499L425.224 328.757C425.323 329.837 424.725 331.021 423.68 331.436C421.374 332.373 416.52 334.927 411.324 337.6C406.004 340.287 400.551 343.18 397.191 344.723C394.141 346.069 391.704 345.847 389.82 345.073C386.785 343.826 385.124 341.065 384.805 340.609C384.773 340.531 384.773 340.531 384.773 340.531" stroke="#6027FF" stroke-width="1.5" stroke-miterlimit="10"/>
<path d="M480.804 266.61C480.647 266.546 480.595 266.524 480.438 266.46C476.639 264.834 474.269 262.041 473.66 258.673C473.044 255.496 474.204 252.204 476.79 249.628C480.524 245.835 479.927 242.601 479.455 241.562" stroke="#6027FF" stroke-width="1.5" stroke-miterlimit="10"/>
<path d="M508.201 280.984C510.461 281.198 521.281 281.94 530.343 273.058C540.124 263.498 544.423 246.553 543.309 222.706C541.73 190.157 543.309 92.2025 665.7 137.023C677.953 141.511 689.725 143.629 701 143.774" stroke="#6027FF" stroke-width="1.5" stroke-miterlimit="10"/>
<path d="M391.902 322.019L391.54 322.195C391.323 322.301 386.92 325.105 386.17 328.76C385.939 330.095 386.207 331.374 387.026 332.62C387.61 333.51 388.42 334.102 389.204 334.425C393.024 335.994 398.024 332.006 398.301 331.73L398.723 331.383L391.902 322.019Z" stroke="#6027FF" stroke-width="1.5" stroke-miterlimit="10"/>
<path d="M408.816 320.261L402.112 325.174C401.204 325.71 400.279 325.785 399.442 325.441C399.024 325.269 398.561 324.884 398.222 324.485C397.63 323.787 397.451 322.934 397.542 321.997C397.633 321.059 398.07 320.329 398.769 319.707L402.175 317.013" stroke="#6027FF" stroke-width="1.5" stroke-miterlimit="10"/>
<path d="M348.693 250.734L346.586 251.103L341.701 252.215C341.078 252.283 340.547 252.26 339.971 252.024C339.553 251.852 339.05 251.58 338.764 251.203L335.943 248.16C335.045 247.141 334.745 245.783 335.08 244.492C335.228 243.903 336.012 241.171 336.212 240.604" stroke="#6027FF" stroke-width="1.5" stroke-miterlimit="10"/>
<path d="M406.978 281.305C405.903 281.123 404.929 280.658 403.943 280.058C403.061 279.501 402.22 278.83 401.498 277.819" stroke="#6027FF" stroke-width="1.5" stroke-miterlimit="10"/>
<path d="M380.41 226.535C379.793 225.567 379.413 224.436 379.243 223.392C378.987 222.247 378.909 221.111 379.08 219.946" stroke="#6027FF" stroke-width="1.5" stroke-miterlimit="10"/>
<path d="M415.486 244.779C414.925 243.314 414.83 241.715 414.695 240.23C414.579 238.689 414.641 237.155 414.952 235.593" stroke="#6027FF" stroke-width="1.5" stroke-miterlimit="10"/>
<path d="M457.451 186.589C457.432 187.491 457.132 188.342 456.59 189.029C456.101 189.738 455.39 190.225 454.582 190.478L454.902 191.779C455.927 191.42 456.875 190.77 457.549 189.878C458.243 188.928 458.683 187.68 458.697 186.451L457.949 186.534L457.451 186.589Z" fill="#26F2C1"/>
<path d="M455.191 193.001L454.11 188.594C454.504 188.496 454.833 188.241 455.13 187.909C455.375 187.554 455.567 187.179 455.603 186.738L457.754 186.583L460.05 186.356C460.175 186.343 460.287 186.194 460.295 186.002L460.238 185.654C460.046 183.821 459.21 182.113 457.946 180.944L458.527 180.144C458.547 180.087 458.62 180.052 458.64 179.995C458.66 179.938 458.68 179.881 458.647 179.803C458.667 179.746 458.635 179.668 458.603 179.59C458.571 179.512 458.518 179.49 458.486 179.412C458.434 179.39 458.381 179.369 458.329 179.347C458.277 179.326 458.224 179.304 458.152 179.34C458.08 179.375 458.027 179.353 458.007 179.41C457.935 179.445 457.915 179.502 457.895 179.559L457.313 180.359C456.967 180.152 456.621 179.945 456.202 179.773L456.916 178.767C456.936 178.71 457.009 178.675 457.029 178.618C457.049 178.561 457.069 178.505 457.036 178.427C457.056 178.37 457.024 178.292 456.992 178.213C456.96 178.135 456.907 178.114 456.875 178.035C456.823 178.014 456.77 177.992 456.718 177.971C456.666 177.949 456.613 177.928 456.541 177.963C456.469 177.998 456.416 177.977 456.396 178.034C456.324 178.069 456.304 178.126 456.284 178.182L455.345 179.486C453.872 179.076 452.324 179.219 450.93 179.946C449.556 180.616 448.407 181.833 447.73 183.244C447.033 184.712 446.859 186.395 447.131 188.001C447.455 189.628 448.266 191.066 449.414 192.057L453.236 195.317C453.373 195.438 453.518 195.367 453.61 195.275L455.131 193.171C455.183 193.193 455.223 193.079 455.191 193.001ZM450.213 191.151C449.307 190.324 448.625 189.199 448.285 187.955C448.017 186.676 448.124 185.355 448.596 184.185C449.069 183.015 449.908 181.995 450.981 181.331C452.033 180.724 453.267 180.451 454.466 180.619L453.323 182.163C453.303 182.22 453.23 182.255 453.21 182.312C453.19 182.369 453.17 182.426 453.203 182.504C453.183 182.561 453.215 182.639 453.247 182.717C453.279 182.795 453.332 182.817 453.364 182.895C453.416 182.917 453.469 182.938 453.521 182.96C453.573 182.981 453.626 183.003 453.698 182.967C453.77 182.932 453.823 182.953 453.843 182.897C453.915 182.861 453.935 182.805 453.955 182.748L455.343 180.85C455.939 181.029 456.527 181.401 457.022 181.864C457.948 182.634 458.63 183.759 458.918 184.982C458.95 185.06 458.858 185.152 458.785 185.187L455.335 185.459C455.238 185.224 455.017 185.003 454.847 184.804C454.626 184.583 454.364 184.475 454.083 184.425C453.801 184.374 453.519 184.323 453.25 184.407C452.981 184.492 452.711 184.576 452.474 184.739C452.237 184.901 452.033 185.142 451.933 185.426C451.78 185.688 451.68 185.971 451.685 186.298C451.637 186.603 451.714 186.895 451.791 187.186C451.868 187.478 452.017 187.734 452.238 187.955C452.46 188.176 452.702 188.34 452.963 188.448L453.96 192.755C453.94 192.812 453.992 192.834 453.92 192.869L453.358 193.613C453.338 193.669 453.213 193.683 453.161 193.662L450.213 191.151ZM454.244 187.025C454.131 187.173 454.039 187.265 453.842 187.314C453.697 187.385 453.52 187.377 453.363 187.313C453.207 187.248 453.05 187.184 452.985 187.027C452.92 186.871 452.836 186.771 452.791 186.558C452.779 186.423 452.787 186.231 452.847 186.061C452.907 185.891 452.999 185.799 453.144 185.728C453.288 185.658 453.433 185.587 453.59 185.652C453.767 185.659 453.924 185.724 454.008 185.824C454.198 185.966 454.242 186.18 454.287 186.393C454.436 186.649 454.356 186.876 454.244 187.025Z" fill="#0E0333"/>
<path d="M175.504 344.94C202.515 367.301 228.951 376.279 226.298 348.975C226.298 348.975 226.299 348.975 226.3 348.975L226.292 348.924L226.245 348.928C226.245 348.928 226.245 348.929 226.245 348.93C204.426 351.83 160.722 308.975 132.866 259.866L175.504 344.94ZM175.504 344.94C141.047 316.252 111.269 271.868 88.2265 230.56L175.504 344.94ZM205.365 417.093C221.849 425.926 237.122 431.288 248.541 430.525C254.412 430.133 259.267 428.122 262.744 424.128C266.22 420.135 268.311 414.164 268.664 405.866L268.664 405.865C268.911 395.968 267.14 383.546 262.15 369.813C258.849 360.61 254.06 350.792 247.441 340.516C247.427 340.494 247.402 340.487 247.38 340.498C247.359 340.508 247.349 340.535 247.356 340.559C251.367 354.124 252.122 364.706 250.229 372.21C248.337 379.71 243.8 384.14 237.215 385.408C230.625 386.677 221.979 384.782 211.874 379.613C201.77 374.445 190.212 366.006 177.8 354.199L177.8 354.199C142.99 321.291 111.588 275.002 89.042 232.117C111.965 272.99 141.437 316.641 175.476 344.981L175.476 344.981C188.991 356.17 202.369 364.014 212.037 365.636C216.871 366.447 220.788 365.704 223.327 363.031C225.866 360.358 227.014 355.768 226.34 348.919C226.339 348.905 226.332 348.892 226.322 348.883C226.311 348.874 226.298 348.87 226.285 348.872C220.849 349.612 214.038 347.495 206.438 343.126C198.84 338.758 190.459 332.143 181.888 323.899C164.745 307.41 146.842 284.408 132.906 259.839L132.906 259.839C121.369 239.577 113.995 221.501 110.098 206.294L110.053 206.306L110.098 206.294C104.365 184.014 106.215 168.276 112.733 159.698C108.626 168.606 107.087 181.875 111.98 200.403C114.84 211.337 119.888 224.05 127.802 238.46L127.837 238.437L127.802 238.46C134.181 250.063 143.319 264.317 152.815 276.032C157.563 281.89 162.401 287.114 167.03 291.054C171.658 294.994 176.081 297.654 179.998 298.378C180.017 298.382 180.037 298.372 180.047 298.353C180.056 298.334 180.054 298.311 180.041 298.294C163.238 276.827 151.84 254.438 146.649 236.438C144.243 228.051 143.222 220.726 143.59 214.913C143.959 209.099 145.716 204.803 148.859 202.46C151.922 200.188 155.868 199.514 160.474 200.167C165.08 200.82 170.342 202.799 176.035 205.827C187.421 211.883 200.519 222.131 213.511 234.336L213.512 234.336C216.633 237.221 219.121 239.608 220.828 241.273C221.037 241.477 221.235 241.671 221.42 241.853C211.521 232.717 201.291 224.023 192.048 217.899C187.098 214.619 182.43 212.075 178.245 210.595C174.061 209.115 170.356 208.696 167.336 209.674C164.794 210.361 162.31 211.984 160.895 214.846C159.48 217.709 159.139 221.804 160.867 227.424C162.051 231.292 164.254 235.891 167.689 241.254C167.698 241.268 167.711 241.276 167.726 241.277C167.741 241.278 167.755 241.272 167.765 241.26C170.722 237.638 175.123 236.029 180.794 236.883C186.467 237.737 193.408 241.054 201.434 247.283L201.434 247.284C223.36 264.055 247.97 294.44 267.397 326.526C279.106 346.042 288.035 364.823 295.008 382.737C299.958 395.552 300.387 396.805 303.278 407.516C301.264 401.241 300.791 400.052 299.092 395.777C298.485 394.248 297.72 392.325 296.672 389.632L296.628 389.651L296.672 389.632C289.709 371.851 281.081 353.463 268.687 333.653L268.687 333.653C261.248 321.874 251.936 308.668 242.893 298.095C238.371 292.809 233.916 288.18 229.796 284.717C225.676 281.255 221.886 278.954 218.694 278.331C218.674 278.327 218.654 278.338 218.644 278.357C218.635 278.377 218.638 278.401 218.652 278.417C240.511 303.731 258.437 335.06 268.654 362.218C273.97 376.617 277.239 390.149 277.625 401.104C277.966 411.395 276.207 419.169 272.713 424.622C269.22 430.074 263.991 433.212 257.38 434.223C244.432 436.204 226.191 430.025 205.365 417.093ZM112.967 159.314C112.921 159.372 112.875 159.43 112.83 159.489L112.87 159.519C112.902 159.45 112.935 159.382 112.967 159.314Z" fill="#5932C4" stroke="black" stroke-width="0.1" stroke-miterlimit="10" stroke-linejoin="round"/>
<path d="M145.015 255.916C143.136 258.12 141.456 260.007 140.005 262.375L139.983 262.413C139.74 262.828 139.374 263.455 139.582 264.437C139.482 265.406 139.671 266.226 139.904 266.949C140.603 269.116 141.744 270.794 142.497 271.848C143.295 272.925 144.456 274.433 146.359 276.027C148.397 277.691 150.155 278.489 151.305 279.029C153.649 280.133 154.821 280.624 156.118 280.34C158.599 279.772 159.823 277.166 159.866 277.068C160.477 275.705 160.439 274.423 160.365 273.843L162.692 275.359C163.28 275.786 164.298 276.497 164.967 276.246C165.749 275.993 166.454 275.039 166.737 274.285L166.995 273.459C166.995 273.459 167.433 272.606 167.477 272.508C167.717 271.972 168.33 270.73 168.383 269.616C168.428 267.777 166.395 266.475 166.009 266.093C165.623 265.712 165.08 265.308 164.809 265.167C164.335 264.859 164.467 264.688 164.958 264.463C165.046 264.389 165.09 264.292 165.201 264.169C165.422 263.924 165.644 263.8 165.8 263.701C165.799 263.58 165.842 263.483 165.931 263.409C166.219 263.139 166.72 263.761 167.259 263.801C168.021 263.839 168.655 262.547 168.875 262.181C169.773 260.427 171.462 259.265 172.654 257.724C175.654 253.762 179.625 250.367 179.891 250.145C181.444 248.792 184.529 246.256 188.834 244.477C192.343 243.078 195.399 242.693 196.065 242.609L196.074 242.608C196.611 242.528 197.014 242.498 197.305 242.47C196.933 243.176 196.362 244.201 195.638 245.445C194.365 247.665 193.837 248.471 192.386 250.838C187.244 259.331 188.288 258.494 187.051 260.011C186.786 260.354 186.189 261.064 185.845 262.206C185.414 263.664 185.633 265.04 185.891 265.955C186.562 267.688 187.188 269.396 187.814 271.105L187.814 271.106C187.998 271.442 188.114 271.803 188.297 272.139L186.857 275.353C186.655 275.308 185.894 275.391 185.648 275.443C185.111 275.523 184.599 275.797 184.29 276.237L181.124 281.314C180.596 282.12 180.737 282.675 181.395 283.319L181.403 283.923L232.163 315.887C232.632 315.711 233.343 315.242 233.652 314.802L237.487 309.473C237.883 308.838 238.033 308.255 237.801 307.654C237.733 307.558 237.685 307.292 237.64 307.269L249.942 290.375C250.191 290.565 250.441 290.876 250.688 290.945C251.295 291.082 252.502 290.75 252.988 290.163C254.181 288.742 255.549 286.932 257.201 284.61C260.586 279.06 267.577 266.985 268.461 263.086C268.853 262.21 269.018 260.974 269.32 260.05C269.969 258.105 269.17 253.302 268.876 251.225C268.09 251.115 265.079 241.311 262.091 237.168C259.538 233.672 223.42 216.742 222.701 216.607L219.981 215.968C219.24 215.882 218.391 216.16 217.905 216.748C217.795 216.87 217.617 217.018 217.597 217.188C207.827 215.633 200.284 216.563 200.172 216.565C192.632 217.737 185.616 219.603 179.306 222.378L179.191 222.138C178.961 221.657 178.575 221.276 178.102 221.089C177.629 220.902 177.092 220.982 176.601 221.207L170.078 224.832C169.277 225.376 168.842 226.471 169.235 227.457L169.35 227.698C154.002 237.473 148.816 249.668 148.706 249.791L148.618 249.985L148.779 250.249C148.894 250.49 149.03 250.681 149.145 250.922C148.328 251.877 147.533 252.904 146.694 253.908C145.744 255.035 145.279 255.573 145.015 255.916Z" fill="white"/>
<path d="M267.246 301.756L270.362 254.859C269.982 250.691 268.867 249.074 266.757 247.482L244.822 298.211L243.706 307.968L250.232 320.805L276.13 326.564L277.632 325.42L281.866 304.379L280.658 303.681L267.246 301.756Z" fill="white"/>
<path d="M249.422 321.239L247.411 322.326C247.087 322.489 246.662 322.578 246.339 322.502C246.017 322.427 245.73 322.058 245.545 321.763L240.917 311.203C240.65 310.449 240.875 309.735 241.472 309.372L243.058 308.375C243.485 308.047 244.079 308.161 244.485 308.458C244.637 308.569 244.841 308.717 244.924 308.938L246.79 312.454L249.899 312.567L248.588 315.841L249.994 319.501C250.145 319.851 250.125 320.236 250.055 320.584C249.987 320.693 249.952 320.748 249.884 320.858C249.866 321.004 249.661 321.094 249.422 321.239Z" fill="#21FDC8"/>
<path d="M249.422 321.239L247.411 322.326C247.087 322.489 246.662 322.578 246.339 322.502C246.017 322.427 245.73 322.058 245.545 321.763L240.917 311.203C240.65 310.449 240.875 309.735 241.472 309.372L243.058 308.375C243.485 308.047 244.079 308.161 244.485 308.458C244.637 308.569 244.841 308.717 244.924 308.938L246.79 312.454L249.899 312.567L248.588 315.841L249.994 319.501C250.145 319.851 250.125 320.236 250.055 320.584C249.987 320.693 249.952 320.748 249.884 320.858C249.866 321.004 249.661 321.094 249.422 321.239Z" stroke="#6027FF" stroke-width="1.5" stroke-miterlimit="10" stroke-linejoin="round"/>
<path d="M243.672 308.104L244.915 297.331" stroke="#6027FF" stroke-width="1.5" stroke-miterlimit="10" stroke-linejoin="round"/>
<path d="M266.688 247.131C269.062 249.536 270.156 251.038 270.364 254.859L267.247 301.756" stroke="#6027FF" stroke-width="1.5" stroke-miterlimit="10" stroke-linejoin="round"/>
<path d="M263.629 301.034L266.362 301.511L267.551 301.74L280.539 303.792C281.218 303.888 281.793 304.388 282.01 305.105L282.026 305.196C282.143 305.601 282.191 306.115 282.035 306.48C281.983 306.682 281.846 306.901 281.743 307.065C279.584 310.04 276.199 316.271 277.905 323.821C277.971 324.189 277.968 324.666 277.898 325.014C277.726 325.288 277.555 325.562 277.417 325.781C277.383 325.835 277.229 325.963 277.195 326.018C276.768 326.345 276.274 326.543 275.765 326.411L249.797 320.876" stroke="#6027FF" stroke-width="1.5" stroke-miterlimit="10" stroke-linejoin="round"/>
<path d="M240.435 216.791L221.356 211.159C217.668 210.195 214.148 211.963 212.621 215.372L212.474 216.197C215.375 216.93 216.746 217.225 217.125 217.123C217.638 216.849 217.881 216.555 218.818 216.203C219.353 216.002 220.283 216.1 221.475 216.422C222.374 216.651 222.97 216.628 223.627 217.151C224.894 218.173 225.928 218.352 227.885 218.953C229.888 219.578 232.748 220.65 236.96 222.308C238.104 220.502 239.269 218.646 240.435 216.791Z" fill="#F579A6"/>
<path d="M197.036 242.45L186.17 261.234C186.17 261.234 184.293 263.559 187.96 272.023L193.453 262.872L194.134 261.726C193.304 261.713 193.052 260.978 192.818 260.135C192.513 259.075 192.635 258.36 192.657 258.311C192.743 257.995 195.277 257.656 197.572 256.51C198.998 255.813 198.341 253.827 198.858 253.916C199.21 253.379 199.539 252.769 199.891 252.232L205.649 242.859L197.036 242.45Z" fill="#F579A6"/>
<path d="M224.244 218.133L232.499 220.46" stroke="#6027FF" stroke-width="1.5" stroke-miterlimit="10" stroke-linejoin="round"/>
<path d="M170.21 224.782L176.733 221.157C177.224 220.932 177.761 220.852 178.234 221.039C178.707 221.226 179.093 221.607 179.323 222.088L179.438 222.328L179.853 223.266L179.946 223.555C180.361 224.492 180.016 225.634 179.216 226.178L177.391 227.269L176.558 230.619L174.114 228.743L172.308 229.543C171.571 229.819 170.852 229.684 170.308 229.16C170.126 228.945 169.989 228.753 169.829 228.489L169.784 228.466L169.391 227.479L169.276 227.239C168.951 226.348 169.341 225.23 170.21 224.782Z" fill="#21FDC8"/>
<path d="M170.21 224.782L176.733 221.157C177.224 220.932 177.761 220.852 178.234 221.039C178.707 221.226 179.093 221.607 179.323 222.088L179.438 222.328L179.853 223.266L179.946 223.555C180.361 224.492 180.016 225.634 179.216 226.178L177.391 227.269L176.558 230.619L174.114 228.743L172.308 229.543C171.571 229.819 170.852 229.684 170.308 229.16C170.126 228.945 169.989 228.753 169.829 228.489L169.784 228.466L169.391 227.479L169.276 227.239C168.951 226.348 169.341 225.23 170.21 224.782Z" stroke="#6027FF" stroke-width="1.5" stroke-miterlimit="10" stroke-linejoin="round"/>
<path d="M228.996 273.882C224.517 269.385 224.31 261.767 228.533 256.866C232.756 251.966 239.811 251.64 244.29 256.137C248.769 260.634 248.977 268.252 244.753 273.152C240.53 278.052 233.475 278.379 228.996 273.882Z" stroke="#6027FF" stroke-width="1.5" stroke-miterlimit="10" stroke-linejoin="round"/>
<path d="M222.975 248.419C222.975 248.419 222.997 248.371 223.087 248.418C223.624 248.338 224.095 248.403 224.503 248.736L226.426 250.161C227.218 250.754 227.368 252.034 226.908 252.936L226.49 253.62L225.94 254.474L222.949 259.162L222.399 260.017L221.651 261.189C221.343 261.629 220.988 261.924 220.496 262.028C219.959 262.108 219.487 262.042 219.08 261.709L217.112 260.261C217.043 260.166 216.953 260.118 216.93 260.046C216.544 259.665 216.358 259.087 216.374 258.554C216.414 258.215 216.499 257.778 216.697 257.461L221.977 249.28C222.15 248.77 222.528 248.547 222.975 248.419Z" stroke="#6027FF" stroke-width="1.5" stroke-miterlimit="10" stroke-linejoin="round"/>
<path d="M220.183 245.459C220.25 245.433 220.362 245.432 220.429 245.407C220.675 245.355 220.901 245.473 221.083 245.688L222.306 246.687C222.601 247.021 222.719 247.503 222.658 248.012C222.572 248.328 222.465 248.692 222.267 249.01L216.828 257.047C216.541 257.438 216.165 257.782 215.741 257.982C215.719 258.031 215.674 258.007 215.607 258.032C215.227 258.134 214.935 258.042 214.619 257.877L213.396 256.878C213.351 256.855 213.351 256.855 213.328 256.782C212.874 256.305 212.906 255.24 213.456 254.385L213.543 254.191L218.917 246.42C219.27 245.883 219.715 245.635 220.183 245.459Z" stroke="#6027FF" stroke-width="1.5" stroke-miterlimit="10" stroke-linejoin="round"/>
<path d="M229.414 256.045C229.255 255.903 229.12 255.832 228.961 255.689C228.056 254.976 227.217 254.238 226.312 253.525" stroke="#6027FF" stroke-width="1.5" stroke-miterlimit="10" stroke-linejoin="round"/>
<path d="M258.819 272.176C257.403 271.858 253.376 270.657 247.737 267.834" stroke="#6027FF" stroke-width="1.5" stroke-miterlimit="10" stroke-linejoin="round"/>
<path d="M222.335 260.042C223.626 261.136 224.283 261.659 225.527 262.609" stroke="#6027FF" stroke-width="1.5" stroke-miterlimit="10" stroke-linejoin="round"/>
<path d="M243.805 274.374C251.045 277.972 255.044 278.738 255.18 278.809" stroke="#6027FF" stroke-width="1.5" stroke-miterlimit="10" stroke-linejoin="round"/>
<path d="M197.948 278.801L202.925 282.48C203.648 282.978 204.084 283.746 204.208 284.712C204.375 285.58 204.185 286.503 203.678 287.26L202.909 288.48L202.359 289.335L198.004 296.196L197.454 297.05L197.102 297.588C196.134 299.126 194.145 299.59 192.742 298.497L187.697 294.721C187.583 294.602 187.403 294.508 187.289 294.389C186.177 293.267 185.907 291.384 186.855 290.016L187.383 289.21L187.933 288.355L192.287 281.494L192.837 280.64L193.453 279.639C194.556 278.172 196.501 277.805 197.948 278.801Z" stroke="#6027FF" stroke-width="1.5" stroke-miterlimit="10" stroke-linejoin="round"/>
<path d="M228.625 297.937L230.208 299.124C230.616 299.457 230.823 299.866 230.962 300.299C231.035 300.758 230.953 301.315 230.733 301.682L229.415 303.878L228.865 304.732L224.578 311.689L224.029 312.543L222.622 314.814C222.402 315.18 221.935 315.477 221.488 315.604C220.996 315.708 220.546 315.593 220.184 315.284L218.6 314.097C218.555 314.073 218.442 313.954 218.418 313.881C217.805 313.261 217.658 312.223 218.165 311.466L219.043 310.001L219.593 309.147L223.859 302.36L224.409 301.505L226.388 298.332C226.805 297.649 227.856 297.416 228.625 297.937Z" stroke="#6027FF" stroke-width="1.5" stroke-miterlimit="10" stroke-linejoin="round"/>
<path d="M234.236 305.552L228.338 314.491" stroke="#6027FF" stroke-width="1.5" stroke-miterlimit="10" stroke-linejoin="round"/>
<path d="M214.489 307.865L219.925 299.585" stroke="#6027FF" stroke-width="1.5" stroke-miterlimit="10" stroke-linejoin="round"/>
<path d="M212.813 295.453L207.378 303.732" stroke="#6027FF" stroke-width="1.5" stroke-miterlimit="10" stroke-linejoin="round"/>
<path d="M199.516 298.545L204.997 290.289" stroke="#6027FF" stroke-width="1.5" stroke-miterlimit="10" stroke-linejoin="round"/>
<path d="M183.825 285.848L189.219 277.787" stroke="#6027FF" stroke-width="1.5" stroke-miterlimit="10" stroke-linejoin="round"/>
<path d="M263.625 252.51C264.254 254.461 266.591 256.823 257.414 274.446C254.458 280.174 248.299 287.956 248.28 288.246C248.161 289.506 249.749 291.056 250.627 291.334C252.089 291.797 254.049 288.914 256.623 284.91C265.159 271.699 266.855 267.416 267.615 265.349C269.612 260.022 269.743 257.867 269.703 256.464C269.669 251.819 267.764 248.241 266.575 246.299" fill="#F579A6"/>
<path d="M263.625 252.51C264.254 254.461 266.591 256.823 257.414 274.446C254.458 280.174 248.299 287.956 248.28 288.246C248.161 289.506 249.749 291.056 250.627 291.334C252.089 291.797 254.049 288.914 256.623 284.91C265.159 271.699 266.855 267.416 267.615 265.349C269.612 260.022 269.743 257.867 269.703 256.464C269.669 251.819 267.764 248.241 266.575 246.299" stroke="#6027FF" stroke-width="1.5" stroke-miterlimit="10" stroke-linejoin="round"/>
<path d="M219.96 216.017L222.68 216.656C223.399 216.79 223.988 217.339 224.245 218.133C225.244 220.998 227.855 231.074 219.887 244.882C219.469 245.565 219.053 246.37 218.568 247.078C216.94 249.593 215.107 251.821 213.18 253.76C208.173 258.598 202.22 261.199 195.389 261.659C195.143 261.711 194.873 261.69 194.604 261.67C194.492 261.671 194.357 261.601 194.201 261.7C193.775 261.657 193.368 261.445 193.006 261.136C192.824 260.921 192.687 260.729 192.527 260.465C192.114 259.649 192.147 258.705 192.72 257.922L194.747 255.014C195.277 254.329 196.102 253.979 197.023 254.159C197.428 254.25 197.899 254.316 198.572 254.307C198.975 254.277 199.4 254.198 199.825 254.119C202.574 253.451 206.824 250.923 212.487 242.882C219.98 232.372 218.794 223.34 217.396 219.005C217.303 218.716 217.21 218.427 217.274 218.16C217.314 217.821 217.422 217.456 217.508 217.14C217.528 216.971 217.706 216.823 217.816 216.701C218.459 216.135 219.151 215.835 219.96 216.017Z" fill="#F579A6" stroke="#6027FF" stroke-width="1.5" stroke-miterlimit="10" stroke-linejoin="round"/>
<path d="M198.637 254.282L205.538 242.982" stroke="#6027FF" stroke-width="1.5" stroke-miterlimit="10" stroke-linejoin="round"/>
<path d="M194.199 261.701L188.618 270.925L188.003 271.926L186.025 275.221L185.938 275.415" stroke="#6027FF" stroke-width="1.5" stroke-miterlimit="10" stroke-linejoin="round"/>
<path d="M217.554 217.285C207.805 215.682 200.217 216.588 200.217 216.588C192.721 217.663 185.706 219.65 179.351 222.402C179.351 222.402 179.306 222.378 179.239 222.403" stroke="#6027FF" stroke-width="1.5" stroke-miterlimit="10" stroke-linejoin="round"/>
<path d="M169.44 227.745C154.022 237.304 148.769 249.524 148.749 249.694L148.662 249.888L148.822 250.152C148.937 250.393 149.029 250.561 149.189 250.825C149.394 251.112 149.554 251.376 149.738 251.712C150.698 253.295 151.859 254.682 153.061 255.85C157.214 260.001 161.969 262.062 164.715 263.015C165.053 263.131 165.413 263.199 165.705 263.292C166.538 263.546 166.987 263.66 166.987 263.66L167.235 263.729L168.163 262.652C169.665 260.792 172.448 257.437 176.896 252.729C183.978 245.248 191.256 242.798 197.079 242.352C197.482 242.322 197.864 242.341 198.267 242.311C199.342 242.272 202.122 242.28 205.516 243.031C205.516 243.031 205.875 243.098 208.438 243.715" stroke="#6027FF" stroke-width="1.5" stroke-miterlimit="10" stroke-linejoin="round"/>
<path d="M149.237 250.727C147.774 252.127 146.534 253.403 145.496 254.603C145.253 254.897 145.031 255.142 144.832 255.339C142.049 258.693 140.511 261.255 139.722 262.767C139.086 263.937 139.037 265.413 139.545 266.64C140.863 269.912 142.575 272.428 144.459 274.312C148.022 277.915 152.097 279.381 154.771 279.876C156.839 280.354 158.907 278.97 159.484 276.687C159.742 275.74 159.977 274.842 160.28 273.918C160.366 273.602 160.473 273.238 160.649 272.969C161.777 269.832 163.067 267.2 164.122 265.468C164.32 265.15 164.473 264.809 164.672 264.613C165.222 263.758 165.574 263.221 165.752 263.073" stroke="#6027FF" stroke-width="1.5" stroke-miterlimit="10" stroke-linejoin="round"/>
<path d="M160.233 274.136L162.605 275.674C163.239 276.125 164.046 276.186 164.716 275.935C165.385 275.683 166.073 275.141 166.289 274.412L166.572 273.779L166.964 272.782L167.922 270.518C168.402 269.447 168.095 268.144 167.279 267.358L164.602 264.759L164.42 264.543" stroke="#6027FF" stroke-width="1.5" stroke-miterlimit="10" stroke-linejoin="round"/>
<path d="M197.035 242.449L186.756 259.798C186.008 260.97 185.666 262.354 185.549 263.735C185.508 264.074 185.512 264.437 185.539 264.751C185.575 265.912 185.881 267.093 186.343 268.175L188.024 271.877" stroke="#6027FF" stroke-width="1.5" stroke-miterlimit="10" stroke-linejoin="round"/>
<path d="M237.546 307.101L250.057 290.737" stroke="#6027FF" stroke-width="1.5" stroke-miterlimit="10" stroke-linejoin="round"/>
<path d="M192.932 280.808C190.918 279.216 188.902 277.503 186.862 275.717C186.817 275.694 186.817 275.694 186.749 275.598C186.567 275.383 186.296 275.241 186.049 275.172C185.801 275.103 185.577 275.106 185.331 275.158C184.771 275.166 184.304 275.463 183.973 275.952L180.808 281.029C180.279 281.835 180.405 282.922 181.086 283.638L181.2 283.758C181.382 283.973 181.585 284.139 181.881 284.474C183.105 285.594 185.009 287.309 187.409 289.283" stroke="#6027FF" stroke-width="1.5" stroke-miterlimit="10" stroke-linejoin="round"/>
<path d="M224.276 301.556C217.534 298.337 210.895 294.391 202.888 288.529" stroke="#6027FF" stroke-width="1.5" stroke-miterlimit="10" stroke-linejoin="round"/>
<path d="M223.942 312.618C226.308 313.673 228.764 314.654 231.084 315.565C231.129 315.588 231.241 315.587 231.241 315.587C231.533 315.679 231.781 315.748 232.049 315.648C232.586 315.568 232.986 315.296 233.294 314.856L237.373 309.233C237.725 308.696 237.895 307.943 237.64 307.269C237.638 307.148 237.593 307.125 237.48 307.006C237.318 306.621 237.114 306.454 236.82 306.241C236.64 306.147 236.414 306.029 236.19 306.032C234.774 305.713 232.48 305.117 229.304 303.88" stroke="#6027FF" stroke-width="1.5" stroke-miterlimit="10" stroke-linejoin="round"/>
<path d="M197.478 297.123C205.01 302.677 211.467 306.408 218.954 310.075" stroke="#6027FF" stroke-width="1.5" stroke-miterlimit="10" stroke-linejoin="round"/>
<path d="M239.945 264.345C240.26 265.082 240.298 265.921 240.151 266.661C240.004 267.402 239.601 268.139 239.093 268.63L239.828 269.574C240.535 268.853 241.078 267.927 241.278 266.923C241.488 265.865 241.405 264.739 240.946 263.692L240.362 264.055L239.945 264.345Z" fill="#26F2C1"/>
<path d="M240.428 270.433L237.971 267.319C238.231 267.047 238.441 266.764 238.525 266.34C238.599 265.97 238.574 265.577 238.49 265.226L240.185 264.18L241.949 263.039C242.068 262.956 242.1 262.798 242.023 262.669L241.869 262.412C241.071 261.01 239.777 260.046 238.327 259.6L238.496 258.754C238.506 258.701 238.517 258.648 238.527 258.595C238.538 258.542 238.499 258.478 238.461 258.414C238.422 258.349 238.373 258.338 238.335 258.274C238.286 258.262 238.247 258.198 238.198 258.187C238.149 258.176 238.1 258.164 238.041 258.206C237.981 258.247 237.932 258.236 237.873 258.277C237.813 258.319 237.803 258.372 237.743 258.413C237.733 258.466 237.673 258.508 237.712 258.572L237.533 259.471C237.179 259.445 236.826 259.418 236.462 259.444L236.683 258.334C236.693 258.281 236.704 258.228 236.714 258.175C236.725 258.122 236.686 258.058 236.648 257.994C236.609 257.929 236.56 257.918 236.522 257.854C236.473 257.842 236.434 257.778 236.385 257.767C236.336 257.755 236.287 257.744 236.228 257.786C236.179 257.774 236.119 257.816 236.06 257.857C236 257.899 235.99 257.952 235.93 257.993C235.919 258.046 235.86 258.088 235.898 258.152L235.614 259.58C234.274 259.878 233.094 260.656 232.253 261.789C231.413 262.922 230.922 264.358 230.894 265.79C230.855 267.275 231.288 268.703 232.139 269.841C232.989 270.978 234.158 271.802 235.471 272.162L239.723 273.202C239.871 273.236 239.99 273.153 240.021 272.994L240.484 270.667C240.505 270.561 240.466 270.497 240.428 270.433ZM235.74 271.062C234.711 270.824 233.766 270.162 233.07 269.282C232.374 268.401 231.986 267.26 231.961 266.092C231.937 264.925 232.218 263.773 232.869 262.817C233.471 261.85 234.375 261.174 235.422 260.808L235.085 262.5C235.074 262.553 235.064 262.606 235.053 262.659C235.043 262.712 235.081 262.776 235.12 262.841C235.158 262.905 235.207 262.916 235.246 262.98C235.295 262.992 235.333 263.056 235.382 263.067C235.431 263.079 235.48 263.09 235.54 263.048C235.589 263.06 235.648 263.018 235.708 262.977C235.767 262.935 235.778 262.882 235.837 262.841C235.848 262.788 235.908 262.746 235.869 262.682L236.279 260.619C236.86 260.533 237.42 260.552 238.009 260.688C239.038 260.926 239.993 261.535 240.64 262.404C240.679 262.468 240.658 262.574 240.598 262.616L237.902 264.315C237.727 264.164 237.493 264.054 237.297 264.009C237.052 263.952 236.796 263.948 236.53 263.997C236.264 264.046 236.037 264.159 235.848 264.337C235.658 264.514 235.469 264.692 235.368 264.945C235.266 265.198 235.165 265.451 235.161 265.727C235.157 266.003 235.154 266.279 235.259 266.524C235.364 266.77 235.469 267.016 235.633 267.22C235.798 267.424 236.022 267.586 236.267 267.643C236.501 267.753 236.757 267.757 237.012 267.76L239.381 270.799C239.43 270.81 239.42 270.863 239.409 270.916L239.241 271.762C239.23 271.815 239.171 271.857 239.122 271.845L235.74 271.062ZM237.506 266.049C237.475 266.208 237.405 266.302 237.324 266.45C237.205 266.533 237.086 266.616 236.978 266.646C236.82 266.665 236.722 266.642 236.575 266.608C236.438 266.521 236.351 266.445 236.274 266.317C236.197 266.188 236.169 266.071 236.152 265.901C236.183 265.743 236.215 265.584 236.285 265.489C236.365 265.342 236.484 265.259 236.593 265.229C236.701 265.199 236.859 265.18 237.006 265.214C237.202 265.259 237.328 265.399 237.454 265.539C237.482 265.656 237.548 265.838 237.506 266.049Z" fill="#0E0333"/>
<path d="M279.934 213.253L280.522 211.817L281.416 206.094L280.889 201.553L279.084 196.885L276.044 193.977C262.015 181.426 251.26 198.346 251.26 198.346L248.237 196.768L245.67 197.651L241.601 204L241.173 207.562L243.616 211.181L236.871 222.382L232.499 220.46L230.677 223.656C230.677 223.656 227.2 236.262 239.471 246.152C251.786 256.066 259.431 252.425 259.431 252.425L263.02 249.011L264.441 244.224L263.537 241.769L279.934 213.253Z" fill="white"/>
<path d="M265.303 239.324C265.303 239.324 267.555 243.865 266.13 248.289C266.066 248.556 265.912 248.776 265.848 249.043C265.5 249.943 264.995 250.821 264.311 251.726C264.09 251.971 263.869 252.216 263.604 252.559C263.296 252.999 262.897 253.391 262.431 253.809C261.19 254.964 259.742 255.711 258.154 256.024C257.863 256.052 257.551 256.129 257.259 256.157C251.798 256.792 245.387 253.205 241.478 250.624C239.376 249.226 238.04 248.108 237.95 248.061C230.089 241.374 226.647 233.028 227.88 223.816C227.896 223.284 228.045 222.701 228.197 222.239C228.282 221.923 228.435 221.582 228.499 221.315C229.087 219.88 229.97 218.778 231.037 218.013C231.259 217.889 231.415 217.79 231.593 217.642C231.971 217.419 232.261 217.27 232.617 217.095C235.36 215.943 238.435 216.287 240.031 216.578C240.233 216.624 240.213 216.794 240.125 216.988L238.938 218.892C238.781 218.871 235.476 218.047 232.877 219.995C231.522 221.03 230.688 222.518 230.422 224.603C229.459 231.971 231.828 238.736 237.455 244.318C238.227 245.081 239.02 245.796 239.902 246.436C240.445 246.84 241.306 247.529 242.503 248.335C247.136 251.414 255.868 256.032 261.076 251.119C265.176 247.31 264.502 243.473 264.036 242.028C263.874 241.643 263.959 241.207 264.178 240.84L265.303 239.324Z" fill="white" stroke="#6027FF" stroke-width="1.5" stroke-miterlimit="10" stroke-linejoin="round"/>
<path d="M243.925 210.62L243.947 210.571L236.111 224.207L236.722 224.707C242.599 228.615 240.068 236.127 240.002 236.273L239.828 236.663L253.636 245.854C259.354 249.619 262.713 243.862 262.735 243.813L271.403 228.568" stroke="#6027FF" stroke-width="1.5" stroke-miterlimit="10" stroke-linejoin="round"/>
<path d="M232.499 220.46L237.363 222.278" stroke="#6027FF" stroke-width="1.5" stroke-miterlimit="10" stroke-linejoin="round"/>
<path d="M265.579 199.69L280.856 209.828C280.991 209.898 281.037 209.922 281.105 210.018C281.354 210.208 281.581 210.446 281.786 210.734L281.831 210.757L282.399 211.354C282.581 211.569 282.763 211.784 282.855 211.953C283.06 212.24 283.198 212.553 283.36 212.937C283.985 214.525 283.918 216.413 283.017 217.926L277.903 226.854C276.521 229.318 273.616 230.085 271.27 228.86C271.135 228.789 271.066 228.694 270.931 228.623L255.45 218.319C254.591 217.75 253.953 216.937 253.47 215.903L253.17 215.206C252.477 213.522 252.611 211.609 253.489 210.145L258.583 201.386C260.077 198.921 263.161 198.127 265.579 199.69Z" fill="#21FDC8"/>
<path d="M265.579 199.69L280.856 209.828C280.991 209.898 281.037 209.922 281.105 210.018C281.354 210.208 281.581 210.446 281.786 210.734L281.831 210.757L282.399 211.354C282.581 211.569 282.763 211.784 282.855 211.953C283.06 212.24 283.198 212.553 283.36 212.937C283.985 214.525 283.918 216.413 283.017 217.926L277.903 226.854C276.521 229.318 273.616 230.085 271.27 228.86C271.135 228.789 271.066 228.694 270.931 228.623L255.45 218.319C254.591 217.75 253.953 216.937 253.47 215.903L253.17 215.206C252.477 213.522 252.611 211.609 253.489 210.145L258.583 201.386C260.077 198.921 263.161 198.127 265.579 199.69Z" stroke="#6027FF" stroke-width="1.5" stroke-miterlimit="10" stroke-linejoin="round"/>
<path d="M263.844 204.433C263.414 204.149 262.943 204.083 262.429 204.235C261.089 204.617 260.037 206.592 260.015 206.641L254.243 216.788" stroke="#6027FF" stroke-width="1.5" stroke-miterlimit="10" stroke-linejoin="round"/>
<path d="M249.069 197.022C249.317 197.091 249.633 197.256 249.903 197.397C249.949 197.421 249.949 197.421 250.039 197.468L252.141 198.865C252.276 198.936 252.705 199.22 252.917 199.991C253.27 201.438 252.668 203.527 251.11 206.259C247.796 212.041 245.13 212.151 245.018 212.153L244.86 212.131L244.406 211.653L243.726 211.058L241.866 209.246C240.795 207.785 240.614 205.828 241.514 204.315L244.653 198.803C245.485 197.194 247.381 196.441 249.069 197.022Z" fill="#21FDC8"/>
<path d="M249.069 197.022C249.317 197.091 249.633 197.256 249.903 197.397C249.949 197.421 249.949 197.421 250.039 197.468L252.141 198.865C252.276 198.936 252.705 199.22 252.917 199.991C253.27 201.438 252.668 203.527 251.11 206.259C247.796 212.041 245.13 212.151 245.018 212.153L244.86 212.131L244.406 211.653L243.726 211.058L241.866 209.246C240.795 207.785 240.614 205.828 241.514 204.315L244.653 198.803C245.485 197.194 247.381 196.441 249.069 197.022Z" stroke="#6027FF" stroke-width="1.5" stroke-miterlimit="10" stroke-linejoin="round"/>
<path d="M281.585 210.688C281.651 210.542 284.942 199.22 274.003 191.948C262.839 184.558 254.261 192.52 250.904 198.398" stroke="#6027FF" stroke-width="1.5" stroke-miterlimit="10" stroke-linejoin="round"/>
<path d="M283.272 213.132L283.294 213.084C283.866 212.18 288.127 205.031 286.598 197.262C285.668 192.751 283.022 188.966 278.569 185.981C263.81 176.053 255.675 185.387 249.069 197.022L249.004 197.168" stroke="#6027FF" stroke-width="1.5" stroke-miterlimit="10" stroke-linejoin="round"/>
<path d="M268.659 189.46L269.38 193.442C269.552 194.673 270.238 195.752 271.21 196.44L274.261 198.453C275.73 199.4 277.566 199.277 278.92 198.121L279.541 197.604" stroke="#6027FF" stroke-width="1.5" stroke-miterlimit="10" stroke-linejoin="round"/>
<path d="M261.154 228.206C262.488 229.082 262.494 231.429 261.331 233.526C260.102 235.648 258.118 236.596 256.875 235.767C255.542 234.891 255.446 232.497 256.653 230.423C257.837 228.277 259.821 227.329 261.154 228.206Z" stroke="#6027FF" stroke-width="1.5" stroke-miterlimit="10" stroke-linejoin="round"/>
<path d="M236.022 242.79C236.239 242.182 239.752 225.147 233.062 220.694" stroke="#6027FF" stroke-width="1.5" stroke-miterlimit="10" stroke-linejoin="round"/>
<path d="M240.457 216.741L221.966 211.416C218.052 210.334 214.351 212.008 212.824 215.417L212.3 216.586" stroke="#6027FF" stroke-width="1.5" stroke-miterlimit="10" stroke-linejoin="round"/>
<path d="M295.582 301.254C296.426 301.125 296.539 301.509 297.311 301.933C297.403 302.163 297.982 302.457 298.156 302.658C298.363 302.895 298.716 302.866 299.015 302.808C300.661 302.563 303.342 301.915 304.967 301.676C306.075 301.525 305.414 301.343 306.518 301.479C306.728 301.5 307.746 301.975 307.907 302.133C308.128 302.341 308.799 303.474 308.828 303.796C309.037 306.888 308.598 309.22 308.813 312.333C308.899 313.516 308.958 314.685 308.881 315.855C308.749 317.519 308.293 319.155 308.297 320.819C308.294 322.533 308.765 324.319 308.059 325.876C307.681 326.723 306.959 327.405 306.12 327.7C305.322 327.981 304.454 327.953 303.62 327.889C302.034 327.804 300.447 327.719 298.854 327.613C297.958 327.571 297.036 327.514 296.213 327.185C295.086 326.749 294.12 325.874 292.928 325.746C292.318 325.675 291.863 324.485 291.258 324.579C289.557 324.868 287.407 325.865 285.73 325.479C285.29 325.372 285.066 325.56 284.669 325.294C284.05 324.893 283.725 324.341 283.547 323.976C281.601 320.376 281.016 316.941 281.016 316.941C280.457 313.663 280.622 311.059 280.783 309.646C281.056 307.099 281.188 305.815 282.065 304.745C282.872 303.748 282.762 303.763 287.586 302.804C290.022 302.329 293.114 301.622 295.582 301.254Z" fill="white"/>
<path d="M293.267 325.072L284.506 325.535" stroke="#8C65F7" stroke-width="1.5" stroke-miterlimit="10" stroke-linejoin="round"/>
<path d="M290.224 309.89L290.835 312.59C291.024 313.442 291.535 314.158 292.269 314.565C292.549 314.742 292.831 314.85 293.147 314.922C293.652 315.02 294.187 314.993 294.712 314.854L298.072 313.834C298.904 313.587 299.594 313.023 300.013 312.233C300.431 311.444 300.547 310.553 300.297 309.723L298.459 303.483C298.002 301.968 296.502 301.05 294.944 301.368L281.97 304.001L282.182 305.303" stroke="#8C65F7" stroke-width="1.5" stroke-miterlimit="10" stroke-linejoin="round"/>
<path d="M293.446 315.812L292.7 324.538C292.587 326.116 293.589 327.485 295.117 327.82C295.191 327.84 295.265 327.86 295.333 327.859L304.652 328.347C305.555 328.489 306.468 328.214 307.187 327.594C307.906 326.974 308.34 326.086 308.376 325.156L308.949 304.617C308.973 303.645 308.609 302.74 307.88 302.124C307.171 301.501 306.216 301.263 305.277 301.455L298.296 302.908" stroke="#8C65F7" stroke-width="1.5" stroke-miterlimit="10" stroke-linejoin="round"/>
<path d="M276.124 328.622C274.087 319.969 273.99 309.616 275.14 304.148C275.285 303.459 275.826 302.973 276.47 302.889L279.172 302.538C280.804 302.326 283.323 305.762 283.235 307.557C282.958 313.16 283.908 321.41 284.776 326.996C284.934 328.007 284.305 328.957 283.378 329.097L277.925 329.921C277.11 330.044 276.329 329.494 276.124 328.622Z" fill="white" stroke="#8C65F7" stroke-width="1.5" stroke-linecap="round" stroke-linejoin="round"/>
<path d="M299.134 314.156C299.408 314.014 300.054 313.603 300.487 312.785C301.11 311.625 300.825 310.531 300.771 310.275L300.189 307.175L320.523 300.026L317.329 327.936L286.372 338.819L289.567 310.909L290.263 310.665C290.568 311.751 290.488 312.325 290.793 313.411C290.854 313.688 291.345 314.598 292.293 315.177C292.485 315.362 292.948 315.344 293.621 315.474C294.389 315.617 295.009 315.422 295.249 315.315C296.564 314.945 297.846 314.54 299.134 314.156Z" fill="white"/>
<path d="M299.747 307.19L320.486 299.899L317.292 327.809L286.335 338.692L289.53 310.782L290.247 310.53" stroke="#07E6B1" stroke-width="1.5" stroke-miterlimit="10" stroke-linejoin="round"/>
<path d="M315.559 328.443L318.754 300.532L320.494 299.921L317.299 327.831L315.559 328.443Z" fill="white" stroke="#07E6B1" stroke-width="1.5" stroke-miterlimit="10" stroke-linejoin="round"/>
<path d="M299.558 329.522L302.025 309.557L311.177 306.34L308.71 326.305L299.558 329.522Z" fill="white" stroke="#07E6B1" stroke-width="1.5" stroke-miterlimit="10" stroke-linejoin="round"/>
<path d="M287.312 339.749L286.343 338.713L317.3 327.83L320.494 299.92L321.484 300.949L318.269 328.866L287.312 339.749Z" fill="white" stroke="#07E6B1" stroke-width="1.5" stroke-miterlimit="10" stroke-linejoin="round"/>
<path d="M296.04 332.663L297.307 321.59L297.94 316.053" stroke="#07E6B1" stroke-width="1.5" stroke-miterlimit="10" stroke-linejoin="round"/>
<path d="M293.983 334.03L295.26 322.953" stroke="#07E6B1" stroke-width="1.5" stroke-miterlimit="10" stroke-linejoin="round"/>
<path d="M318.268 328.867L317.298 327.83" stroke="#07E6B1" stroke-width="1.5" stroke-miterlimit="10" stroke-linejoin="round"/>
<path d="M242.938 333.124C238.338 339.047 219.16 329.87 200.102 312.627C181.045 295.385 169.324 276.606 173.924 270.683C178.524 264.761 189.28 292.116 203.564 297.097C242.124 310.543 247.538 327.202 242.938 333.124Z" fill="#5932C4"/>
<path d="M185.103 287.136C189.047 294.868 193.849 297.891 199.489 303.369" stroke="#DFF0EC" stroke-width="1.5" stroke-linecap="round"/>
<path d="M227.172 313.172C228.972 314.702 231.45 315.391 233.55 316.326C237.409 318.046 239.365 323.146 240.25 327.21" stroke="#DFF0EC" stroke-width="1.5" stroke-linecap="round"/>
<path d="M209.297 319.681C212.024 322.192 214.816 324.858 218.379 325.798" stroke="#DFF0EC" stroke-width="1.5" stroke-linecap="round"/>
</svg>
