<svg width="294" height="340" viewBox="0 0 294 340" fill="none" xmlns="http://www.w3.org/2000/svg">
<path d="M146.354 71L138.958 223.328M240 151.283L149.167 265.868L240 151.283ZM186.875 154.306L142.708 267.849L186.875 154.306ZM98.4375 100.194L128.125 243.66L98.4375 100.194ZM65 147.112L127.917 274L65 147.112Z" stroke="#6F3FF5" stroke-miterlimit="10"/>
<path d="M99.3209 106.107C113.905 104.576 124.404 90.724 122.771 75.1675C121.138 59.611 107.991 48.2411 93.407 49.7721C78.8228 51.3032 68.3239 65.1553 69.9569 80.7118C71.59 96.2683 84.7367 107.638 99.3209 106.107Z" fill="#5BF1CD" stroke="#6F3FF5" stroke-miterlimit="10"/>
<path d="M92.3209 106.107C106.905 104.576 117.404 90.724 115.771 75.1675C114.138 59.611 100.991 48.2411 86.407 49.7721C71.8228 51.3032 61.3239 65.1553 62.9569 80.7118C64.59 96.2683 77.7367 107.638 92.3209 106.107Z" fill="#5BF1CD" stroke="#6F3FF5" stroke-miterlimit="10"/>
<path d="M91.4678 100.507C102.964 99.3007 111.241 88.4005 109.956 76.1612C108.671 63.9219 98.3107 54.9783 86.815 56.1851C75.3192 57.3919 67.0416 68.2921 68.3264 80.5314C69.6113 92.7707 79.972 101.714 91.4678 100.507Z" fill="white" stroke="#6F3FF5" stroke-miterlimit="10"/>
<path d="M269 87.5036L262.021 83.9372C248.166 77.5386 229.936 87.5036 221.394 106.28C212.852 125.056 217.123 145.406 231.082 151.804L238.687 156" fill="#5BF1CD"/>
<path d="M269 87.5036L262.021 83.9372C248.166 77.5386 229.936 87.5036 221.394 106.28C212.852 125.056 217.123 145.406 231.082 151.804L238.687 156" stroke="#6F3FF5" stroke-miterlimit="10" stroke-linecap="round"/>
<path d="M277.894 131.976C286.475 113.261 282.159 92.9207 268.253 86.5447C254.348 80.1688 236.119 90.1713 227.538 108.886C218.956 127.601 223.273 147.941 237.178 154.317C251.083 160.693 269.312 150.69 277.894 131.976Z" fill="#5BF1CD" stroke="#6F3FF5" stroke-miterlimit="10"/>
<path d="M272.994 129.921C279.753 115.179 276.334 99.1479 265.356 94.1142C254.378 89.0806 239.999 96.9506 233.239 111.692C226.48 126.434 229.899 142.465 240.877 147.499C251.855 152.533 266.234 144.663 272.994 129.921Z" fill="white" stroke="#6F3FF5" stroke-miterlimit="10"/>
<path d="M222.447 121.29C224.446 102.245 211.555 85.2819 193.654 83.4027C175.752 81.5234 159.619 95.4392 157.62 114.484C155.621 133.53 168.512 150.492 186.413 152.372C204.315 154.251 220.447 140.335 222.447 121.29Z" fill="#FFE48D" stroke="#6F3FF5" stroke-miterlimit="10"/>
<path d="M228.947 122.956C230.947 103.911 218.055 86.9481 200.154 85.0689C182.253 83.1896 166.12 97.1054 164.121 116.151C162.121 135.196 175.012 152.159 192.914 154.038C210.815 155.917 226.948 142.001 228.947 122.956Z" fill="#FFE48D" stroke="#6F3FF5" stroke-miterlimit="10"/>
<path d="M222.009 122.228C223.582 107.243 213.451 93.8985 199.382 92.4216C185.312 90.9446 172.632 101.895 171.059 116.879C169.486 131.864 179.616 145.208 193.685 146.685C207.755 148.162 220.436 137.212 222.009 122.228Z" fill="white" stroke="#6F3FF5" stroke-miterlimit="10"/>
<path d="M190.877 132.427L187.545 117.745C187.337 116.912 187.649 116.079 188.17 115.558L198.999 105.666C200.145 104.625 201.915 105.25 202.332 106.812L205.664 121.39C205.872 122.223 205.56 123.056 205.039 123.576L194.21 133.469C192.96 134.51 191.19 133.989 190.877 132.427Z" fill="#FFE48D" stroke="#6F3FF5" stroke-miterlimit="10"/>
<g filter="url(#filter0_d_1471_45452)">
<path d="M29.1811 131.46C38.5041 148.182 58.5558 154.849 73.9679 146.351C89.3799 137.854 94.3161 117.409 84.9931 100.688C75.6701 83.9656 55.6184 77.2984 40.2063 85.7959C24.7943 94.2934 19.8581 114.738 29.1811 131.46Z" fill="#FFE48D" stroke="#6F3FF5" stroke-miterlimit="10"/>
<path d="M23.021 133.739C32.344 150.461 52.3957 157.129 67.8077 148.631C83.2198 140.134 88.1559 119.689 78.8329 102.967C69.5099 86.2453 49.4582 79.5781 34.0462 88.0756C18.6341 96.5731 13.698 117.018 23.021 133.739Z" fill="#FFE48D" stroke="#6F3FF5" stroke-miterlimit="10"/>
<path d="M28.9942 130.446C36.3294 143.602 52.0953 148.854 64.2083 142.175C76.3213 135.497 80.1944 119.417 72.8592 106.261C65.524 93.1041 49.7581 87.8526 37.6452 94.5311C25.5322 101.21 21.659 117.289 28.9942 130.446Z" fill="white" stroke="#6F3FF5" stroke-miterlimit="10"/>
<path d="M48.0712 104.636L59.1608 114.795C59.8054 115.36 60.0331 116.218 59.9148 116.936L56.9173 131.112C56.5974 132.607 54.8216 133.087 53.5922 132.041L42.5623 121.968C41.9178 121.402 41.6901 120.545 41.8084 119.826L44.8058 105.651C45.2091 104.098 46.9252 103.532 48.0712 104.636Z" fill="#FFE48D" stroke="#6F3FF5" stroke-miterlimit="10"/>
</g>
<path d="M145 105C173.719 105 197 81.7188 197 53C197 24.2812 173.719 1 145 1C116.281 1 93 24.2812 93 53C93 81.7188 116.281 105 145 105Z" fill="#FFE48D" stroke="#6F3FF5" stroke-miterlimit="10"/>
<path d="M144.5 94C167.42 94 186 75.6437 186 53C186 30.3563 167.42 12 144.5 12C121.58 12 103 30.3563 103 53C103 75.6437 121.58 94 144.5 94Z" fill="white" stroke="#6F3FF5" stroke-miterlimit="10"/>
<path d="M142.277 73.5301L130.462 54.2407C129.846 53.2092 129.846 51.8682 130.462 50.8367L142.277 31.5473C143.51 29.4842 146.49 29.4842 147.723 31.5473L159.538 50.8367C160.154 51.8682 160.154 53.2092 159.538 54.2407L147.723 73.5301C146.49 75.49 143.51 75.49 142.277 73.5301Z" fill="#FFE48D" stroke="#6F3FF5" stroke-miterlimit="10"/>
<path d="M91.1577 87.9045L82.0016 81.7129C81.5189 81.3787 81.2538 80.783 81.3286 80.2007L82.8575 69.2538C83.0071 68.0892 84.3543 67.4896 85.3197 68.158L94.4758 74.3496C94.9585 74.6838 95.2236 75.2796 95.1488 75.8619L93.6199 86.8087C93.4499 87.9275 92.1027 88.527 91.1577 87.9045Z" fill="#5BF1CD" stroke="#6F3FF5" stroke-miterlimit="10"/>
<path d="M66.8373 278.739L64.0258 277.177H63.9217C63.8175 277.177 58.0904 277.281 51.8426 279.572C49.4476 280.405 48.0939 282.175 47.1568 283.842C46.4279 285.612 46.1155 287.278 46.0114 288.423C45.9072 289.36 46.532 290.298 47.365 290.714L50.8013 292.276" fill="white"/>
<path d="M66.8373 278.739L64.0258 277.177H63.9217C63.8175 277.177 58.0904 277.281 51.8426 279.572C49.4476 280.405 48.0939 282.175 47.1568 283.842C46.4279 285.612 46.1155 287.278 46.0114 288.423C45.9072 289.36 46.532 290.298 47.365 290.714L50.8013 292.276" stroke="#6F3FF5" stroke-miterlimit="10"/>
<path d="M65.3796 290.298L54.5501 292.693C53.4046 293.005 51.9468 292.589 50.6973 292.172C50.1766 291.964 49.656 291.651 49.2395 291.339C48.4064 290.506 48.094 289.361 48.4064 288.319C48.9271 286.237 50.2808 282.696 53.9253 281.655C58.9235 280.197 65.0672 279.052 66.1085 278.843L71.1067 282.8" fill="white"/>
<path d="M65.3796 290.298L54.5501 292.693C53.4046 293.005 51.9468 292.589 50.6973 292.172C50.1766 291.964 49.656 291.651 49.2395 291.339C48.4064 290.506 48.094 289.361 48.4064 288.319C48.9271 286.237 50.2808 282.696 53.9253 281.655C58.9235 280.197 65.0672 279.052 66.1085 278.843L71.1067 282.8" stroke="#6F3FF5" stroke-miterlimit="10"/>
<path d="M170.447 297.691C171.175 302.065 165.657 308.729 159.096 306.021C154.098 303.835 150.558 296.546 149.1 292.485C144.414 281.134 153.369 264.37 163.886 275.407" stroke="#6F3FF5" stroke-miterlimit="10"/>
<path d="M162.741 276.032C153.369 267.181 146.496 283.113 150.453 292.068C151.807 295.713 154.827 302.065 159.304 304.043C163.47 306.126 168.989 302.065 169.301 298.524" stroke="#6F3FF5" stroke-miterlimit="10"/>
<path d="M167.531 273.95L158.367 278.219C160.762 282.488 155.868 286.653 155.764 286.549L155.556 286.653C163.053 303.731 161.595 301.856 177.215 294.671" stroke="#6F3FF5" stroke-miterlimit="10"/>
<path d="M168.572 269.472C167.635 269.889 167.114 270.93 167.218 271.867L167.739 273.637C167.947 274.262 168.468 274.783 169.197 274.783C170.134 274.783 171.488 274.574 173.57 273.637C176.069 272.492 176.694 271.555 176.798 271.034C176.902 270.722 176.798 270.513 176.798 270.513L175.965 268.743C175.444 267.598 173.987 266.973 172.737 267.598L168.572 269.472Z" stroke="#6F3FF5" stroke-miterlimit="10"/>
<path d="M190.439 290.506C190.439 290.506 203.247 286.341 197.103 272.804C191.48 260.413 178.256 266.869 175.757 268.222" stroke="#6F3FF5" stroke-miterlimit="10"/>
<path d="M190.231 288.84C193.355 285.82 195.646 281.447 193.043 276.032C187.42 264.265 176.382 269.888 176.382 269.888" stroke="#6F3FF5" stroke-miterlimit="10"/>
<path d="M190.96 272.804C190.96 272.804 188.773 273.637 190.231 277.073C191.272 279.573 191.793 279.989 194.084 279.885" stroke="#6F3FF5" stroke-miterlimit="10"/>
<path d="M181.692 296.441L188.773 293.318C190.335 292.589 191.064 290.818 190.439 289.257L184.92 276.553C184.191 274.991 182.421 274.262 180.859 274.887L173.778 278.011C172.216 278.739 171.488 280.51 172.112 282.072L177.631 294.775C178.256 296.337 180.026 297.066 181.692 296.441Z" fill="#5BF1CD" stroke="#6F3FF5" stroke-miterlimit="10"/>
<path d="M183.15 279.677C182.213 277.594 180.651 278.115 180.651 278.115L172.216 281.759" stroke="#6F3FF5" stroke-miterlimit="10"/>
<path d="M158.367 278.115L153.994 274.782" stroke="#6F3FF5" stroke-miterlimit="10"/>
<path d="M149.516 286.758C156.597 285.196 155.556 276.032 155.556 276.032" stroke="#6F3FF5" stroke-miterlimit="10"/>
<path d="M102.658 315.705L97.5553 314.352C97.4512 314.352 84.1226 315.914 77.3542 313.414C70.8981 311.019 66.5247 292.484 65.4834 291.027C65.5875 290.298 66.4206 285.716 71.2105 282.904C72.0436 284.779 75.4798 292.588 82.1441 297.795L82.2483 297.899L82.3524 298.003L82.7689 297.899L103.491 293.526" stroke="#6F3FF5" stroke-miterlimit="10"/>
<path d="M116.923 324.14C116.715 324.036 107.968 323.515 102.762 324.244C99.4296 324.661 96.0974 324.348 92.9736 323.099L84.9556 314.768" stroke="#6F3FF5" stroke-miterlimit="10"/>
<path d="M82.4567 298.003L82.3525 301.335Z" fill="white"/>
<path d="M82.4567 298.003L82.3525 301.335" stroke="#6F3FF5" stroke-miterlimit="10"/>
<path d="M97.3472 324.661C97.4513 324.556 99.4298 321.745 98.1802 317.476Z" fill="white"/>
<path d="M97.3472 324.661C97.4513 324.556 99.4298 321.745 98.1802 317.476" stroke="#6F3FF5" stroke-miterlimit="10"/>
<path d="M77.2505 311.436C77.3546 311.332 80.2702 309.562 80.895 305.189Z" fill="white"/>
<path d="M77.2505 311.436C77.3546 311.332 80.2702 309.562 80.895 305.189" stroke="#6F3FF5" stroke-miterlimit="10"/>
<path d="M68.1909 285.508L63.1927 286.237C62.7761 286.341 62.4637 286.549 62.2555 286.861C62.2555 286.965 62.1514 287.07 62.1514 287.174V287.278C62.0472 287.694 62.1514 288.007 62.4637 288.319C62.7761 288.632 63.0885 288.736 63.505 288.736L66.3165 288.423" fill="white"/>
<path d="M68.1909 285.508L63.1927 286.237C62.7761 286.341 62.4637 286.549 62.2555 286.861C62.2555 286.965 62.1514 287.07 62.1514 287.174V287.278C62.0472 287.694 62.1514 288.007 62.4637 288.319C62.7761 288.632 63.0885 288.736 63.505 288.736L66.3165 288.423" stroke="#6F3FF5" stroke-miterlimit="10" stroke-linecap="round"/>
<path d="M48.8228 289.777C55.4871 290.298 55.6953 287.798 55.7994 287.174C56.216 284.883 51.3219 285.403 50.6971 283.842" fill="white"/>
<path d="M48.8229 290.298C50.489 290.402 52.2592 290.506 53.8211 289.985C54.6542 289.673 55.4872 289.256 55.9037 288.528C56.2161 288.111 56.3202 287.59 56.3202 287.07C56.4244 285.82 55.1748 285.195 54.1335 284.883C53.5087 284.675 52.8839 284.571 52.2592 284.362C51.9468 284.258 51.7385 284.154 51.5303 284.05C51.4261 283.946 51.4261 283.946 51.322 283.842C51.322 283.738 51.322 283.946 51.322 283.842C51.322 283.738 51.2179 283.738 51.2179 283.633C51.1137 283.425 50.6972 283.321 50.489 283.425C50.1766 283.529 50.1766 283.842 50.2807 284.154C50.6972 285.091 52.0509 285.404 52.8839 285.612C53.4046 285.716 53.9252 285.924 54.4459 286.133C54.6542 286.237 54.8624 286.341 55.0707 286.445C55.0707 286.445 55.1748 286.549 55.2789 286.549C55.3831 286.653 55.2789 286.549 55.2789 286.549C55.2789 286.549 55.3831 286.757 55.3831 286.653V286.757C55.3831 286.862 55.3831 286.757 55.3831 286.862C55.3831 286.966 55.3831 286.966 55.3831 287.07C55.3831 287.174 55.3831 287.07 55.3831 287.174C55.3831 287.278 55.3831 287.278 55.3831 287.382C55.3831 287.486 55.3831 287.59 55.2789 287.695V287.799C55.2789 287.903 55.2789 287.695 55.2789 287.903C55.1748 288.007 55.1748 288.111 55.0707 288.215C54.9665 288.319 55.0707 288.215 55.0707 288.215C55.0707 288.215 55.0707 288.319 54.9665 288.319C54.8624 288.423 54.8624 288.423 54.7583 288.528C54.6542 288.632 54.6542 288.632 54.55 288.632C54.6542 288.528 54.4459 288.736 54.3418 288.736C54.2376 288.736 54.1335 288.84 54.1335 288.84C54.1335 288.84 54.0294 288.84 54.0294 288.944C53.9252 288.944 53.9252 288.944 53.9252 288.944C52.3633 289.569 50.489 289.465 48.927 289.361C48.094 289.152 48.094 290.194 48.8229 290.298Z" fill="#6F3FF5"/>
<path d="M102.762 290.61C105.678 303.835 110.468 314.872 118.173 326.118C118.694 326.847 119.631 327.056 120.36 326.743C122.026 326.014 123.172 325.494 124.733 324.869C125.775 324.452 126.191 323.099 125.566 322.161C118.277 311.332 113.592 300.711 110.676 287.903C110.468 286.757 109.218 286.237 108.177 286.653C106.615 287.278 105.365 287.799 103.803 288.528C103.074 288.84 102.554 289.673 102.762 290.61Z" fill="white" stroke="#6F3FF5" stroke-miterlimit="10"/>
<path d="M113.071 320.495L113.383 321.12C113.696 321.745 114.529 321.953 115.153 321.641L123.796 317.059C124.421 316.747 124.629 315.914 124.317 315.289L124.004 314.664C123.692 314.039 122.859 313.831 122.234 314.143L113.591 318.725C112.967 319.038 112.758 319.766 113.071 320.495Z" fill="white" stroke="#6F3FF5" stroke-miterlimit="10"/>
<path d="M102.762 298.004L104.22 301.961C104.636 303.002 105.782 303.627 106.927 303.21L115.049 300.294C116.091 299.878 116.715 298.732 116.299 297.587L114.841 293.63C114.425 292.589 113.279 291.964 112.134 292.381L104.012 295.296C102.866 295.713 102.346 296.962 102.762 298.004Z" fill="white" stroke="#6F3FF5" stroke-miterlimit="10"/>
<path d="M124.525 320.808L117.028 324.557" stroke="#6F3FF5" stroke-miterlimit="10"/>
<path d="M119.215 311.749L111.405 315.081" stroke="#6F3FF5" stroke-miterlimit="10"/>
<path d="M117.34 307.375L109.53 310.707" stroke="#6F3FF5" stroke-miterlimit="10"/>
<path d="M115.674 303.522L107.864 306.959" stroke="#6F3FF5" stroke-miterlimit="10"/>
<path d="M110.884 289.256L103.074 291.964" stroke="#6F3FF5" stroke-miterlimit="10"/>
<path fill-rule="evenodd" clip-rule="evenodd" d="M158.68 305.813C158.68 305.813 152.432 312.79 125.879 322.474Z" fill="white"/>
<path d="M158.68 305.813C158.68 305.813 152.432 312.79 125.879 322.474" stroke="#6F3FF5" stroke-miterlimit="10"/>
<path fill-rule="evenodd" clip-rule="evenodd" d="M150.453 311.54C150.453 311.54 140.978 300.919 135.667 282.696Z" fill="white"/>
<path d="M150.453 311.54C150.453 311.54 140.978 300.919 135.667 282.696" stroke="#6F3FF5" stroke-miterlimit="10"/>
<path fill-rule="evenodd" clip-rule="evenodd" d="M146.184 313.415C146.184 313.415 136.083 301.544 130.877 283.321Z" fill="white"/>
<path d="M146.184 313.415C146.184 313.415 136.083 301.544 130.877 283.321" stroke="#6F3FF5" stroke-miterlimit="10"/>
<path d="M152.536 273.637L150.558 271.554" stroke="#6F3FF5" stroke-miterlimit="10"/>
<path d="M150.558 270.305C150.766 270.721 150.662 271.138 150.558 271.45C149.933 272.7 148.059 275.615 144.935 278.219C139.208 283.009 130.044 286.757 122.651 278.531L126.504 276.865C126.504 276.865 132.127 282.072 139.936 276.761C145.351 273.012 146.601 270.409 146.809 269.055C146.913 268.431 147.538 267.91 148.267 268.118C148.996 268.222 149.829 268.847 150.558 270.305Z" fill="white" stroke="#6F3FF5" stroke-miterlimit="10"/>
<path d="M134.73 274.887L128.065 277.698" stroke="#6F3FF5" stroke-miterlimit="10"/>
<path d="M123.796 279.885L110.572 287.278" stroke="#6F3FF5" stroke-miterlimit="10"/>
<path d="M133.272 275.095C133.272 275.095 124.213 259.996 127.649 243.856C127.649 243.856 128.586 237.921 130.773 233.859C130.773 233.859 135.875 233.131 142.436 238.025C142.436 238.025 137.437 245.73 139.103 255.102C140.769 264.474 147.017 268.431 147.017 268.431" fill="white"/>
<path d="M133.272 275.095C133.272 275.095 124.213 259.996 127.649 243.856C127.649 243.856 128.586 237.921 130.773 233.859C130.773 233.859 135.875 233.131 142.436 238.025C142.436 238.025 137.437 245.73 139.103 255.102C140.769 264.474 147.017 268.431 147.017 268.431" stroke="#6F3FF5" stroke-miterlimit="10"/>
<path fill-rule="evenodd" clip-rule="evenodd" d="M143.165 264.682C143.165 264.682 147.226 262.912 148.267 263.016C149.829 263.224 151.287 264.161 152.224 265.411L157.014 271.763L143.165 264.682ZM130.669 269.993C130.669 269.993 128.274 271.034 120.152 274.574C112.03 278.115 114.008 285.404 114.008 285.404" fill="white"/>
<path d="M130.669 269.993C130.669 269.993 128.274 271.034 120.152 274.574C112.03 278.115 114.008 285.404 114.008 285.404M143.165 264.682C143.165 264.682 147.226 262.912 148.267 263.016C149.829 263.224 151.287 264.161 152.224 265.411L157.014 271.763L143.165 264.682Z" stroke="#6F3FF5" stroke-miterlimit="10"/>
<path d="M162.949 306.854C162.949 306.854 159.409 312.894 146.913 317.267C140.353 319.87 139.937 316.955 139.937 316.955" fill="white"/>
<path d="M162.949 306.854C162.949 306.854 159.409 312.894 146.913 317.267C140.353 319.87 139.937 316.955 139.937 316.955" stroke="#6F3FF5" stroke-miterlimit="10"/>
<path fill-rule="evenodd" clip-rule="evenodd" d="M132.335 293.422L132.543 294.047C132.751 294.776 133.48 295.088 134.209 294.88L140.145 292.901C140.874 292.693 141.186 291.964 140.978 291.235L140.769 290.61C140.561 289.881 139.832 289.569 139.103 289.777L133.168 291.756C132.439 292.068 132.023 292.797 132.335 293.422Z" fill="white" stroke="#6F3FF5" stroke-miterlimit="10"/>
<path fill-rule="evenodd" clip-rule="evenodd" d="M130.46 289.152L130.669 289.673C130.877 290.194 131.397 290.506 131.918 290.298L138.374 288.111C138.895 287.903 139.207 287.382 138.999 286.862L138.791 286.341C138.582 285.82 138.062 285.508 137.541 285.716L131.085 287.903C130.564 288.111 130.252 288.632 130.46 289.152Z" fill="white" stroke="#6F3FF5" stroke-miterlimit="10"/>
<path d="M141.082 307.375C144.245 307.375 146.809 304.811 146.809 301.648C146.809 298.485 144.245 295.921 141.082 295.921C137.919 295.921 135.354 298.485 135.354 301.648C135.354 304.811 137.919 307.375 141.082 307.375Z" fill="#5BF1CD" stroke="#6F3FF5" stroke-miterlimit="10"/>
<path d="M141.811 237.608L143.269 234.172C143.269 234.172 138.375 230.215 133.272 229.902L131.502 233.859" stroke="#6F3FF5" stroke-miterlimit="10"/>
<path d="M133.897 229.798C133.897 229.798 134.938 221.989 137.437 220.01C137.437 220.01 142.227 219.594 147.017 224.071L148.267 227.299" stroke="#6F3FF5" stroke-miterlimit="10"/>
<path fill-rule="evenodd" clip-rule="evenodd" d="M142.956 233.755L143.581 232.297L144.935 231.36" fill="white"/>
<path d="M142.956 233.755L143.581 232.297L144.935 231.36" stroke="#6F3FF5" stroke-miterlimit="10"/>
<path fill-rule="evenodd" clip-rule="evenodd" d="M143.789 230.944L146.184 231.673L149.204 227.82L147.329 226.779L145.455 229.069" fill="white"/>
<path d="M143.789 230.944L146.184 231.673L149.204 227.82L147.329 226.779L145.455 229.069" stroke="#6F3FF5" stroke-miterlimit="10"/>
<path d="M162.636 308C166.073 312.165 173.153 319.246 182.421 322.786C182.421 322.786 183.15 327.889 176.59 332.158C176.59 332.158 163.782 327.784 152.432 314.976" stroke="#6F3FF5" stroke-miterlimit="10"/>
<path fill-rule="evenodd" clip-rule="evenodd" d="M174.299 331.325C174.299 331.325 179.402 327.889 179.714 321.537Z" fill="white"/>
<path d="M174.299 331.325C174.299 331.325 179.402 327.889 179.714 321.537" stroke="#6F3FF5" stroke-miterlimit="10"/>
<path d="M143.581 227.195L145.56 223.03" stroke="#6F3FF5" stroke-miterlimit="10"/>
<path d="M140.77 226.362L143.06 221.364" stroke="#6F3FF5" stroke-miterlimit="10"/>
<path d="M138.062 225.633L140.457 220.114" stroke="#6F3FF5" stroke-miterlimit="10"/>
<path d="M177.006 332.054C177.006 332.054 182.213 338.301 185.441 338.614C185.441 338.614 189.71 336.427 191.376 330.179L190.751 326.743" stroke="#6F3FF5" stroke-miterlimit="10"/>
<path fill-rule="evenodd" clip-rule="evenodd" d="M182.525 323.828L184.087 324.973L185.649 325.077" fill="white"/>
<path d="M182.525 323.828L184.087 324.973L185.649 325.077" stroke="#6F3FF5" stroke-miterlimit="10"/>
<path fill-rule="evenodd" clip-rule="evenodd" d="M184.92 325.91L186.586 324.14L191.168 325.806L190.127 327.68L187.315 326.743" fill="white"/>
<path d="M184.92 325.91L186.586 324.14L191.168 325.806L190.127 327.68L187.315 326.743" stroke="#6F3FF5" stroke-miterlimit="10"/>
<path d="M186.378 329.138L190.647 331.742" stroke="#6F3FF5" stroke-miterlimit="10"/>
<path d="M185.128 331.845L189.398 334.449" stroke="#6F3FF5" stroke-miterlimit="10"/>
<path d="M183.567 334.449L187.836 336.948" stroke="#6F3FF5" stroke-miterlimit="10"/>
<path d="M167.843 292.901C167.739 292.901 167.739 292.901 167.843 292.901C167.739 292.901 167.739 292.901 167.739 292.901C167.635 292.901 167.635 292.901 167.53 292.901C167.426 292.901 167.426 292.901 167.322 292.901C167.218 292.901 167.322 292.901 167.218 292.901C167.114 292.901 167.01 292.901 166.801 292.797C166.697 292.797 166.593 292.693 166.489 292.693C166.073 292.484 165.76 292.172 165.344 291.86C165.031 291.547 164.823 291.131 164.719 290.61C164.719 290.506 164.719 290.506 164.719 290.402C164.719 290.298 164.719 290.298 164.719 290.402V290.298C164.719 290.194 164.719 290.089 164.719 289.881C164.719 289.777 164.719 289.777 164.719 289.673C164.719 289.777 164.719 289.569 164.719 289.569C164.719 289.465 164.823 289.361 164.823 289.152C164.927 288.84 164.719 288.632 164.511 288.528C164.198 288.423 163.99 288.632 163.886 288.84C163.469 290.089 163.782 291.443 164.615 292.38C165.448 293.422 166.697 293.942 167.947 293.734C168.259 293.734 168.363 293.318 168.259 293.109C168.363 292.901 168.051 292.797 167.843 292.901Z" fill="#6F3FF5"/>
<path d="M246.314 132.12L249.31 116.518C249.465 115.627 250.034 114.897 250.649 114.541L263.077 108.064C264.39 107.384 265.559 108.551 265.29 110.23L262.334 125.728C262.179 126.619 261.61 127.349 260.995 127.705L248.567 134.181C247.171 134.829 245.962 133.766 246.314 132.12Z" fill="#5BF1CD" stroke="#6F3FF5" stroke-miterlimit="10"/>
<defs>
<filter id="filter0_d_1471_45452" x="13.8076" y="81.6031" width="80.3984" height="79.2209" filterUnits="userSpaceOnUse" color-interpolation-filters="sRGB">
<feFlood flood-opacity="0" result="BackgroundImageFix"/>
<feColorMatrix in="SourceAlpha" type="matrix" values="0 0 0 0 0 0 0 0 0 0 0 0 0 0 0 0 0 0 127 0" result="hardAlpha"/>
<feOffset dy="4"/>
<feGaussianBlur stdDeviation="2"/>
<feComposite in2="hardAlpha" operator="out"/>
<feColorMatrix type="matrix" values="0 0 0 0 0 0 0 0 0 0 0 0 0 0 0 0 0 0 0.25 0"/>
<feBlend mode="normal" in2="BackgroundImageFix" result="effect1_dropShadow_1471_45452"/>
<feBlend mode="normal" in="SourceGraphic" in2="effect1_dropShadow_1471_45452" result="shape"/>
</filter>
</defs>
</svg>
