<svg width="402" height="483" viewBox="0 0 402 483" fill="none" xmlns="http://www.w3.org/2000/svg">
<path d="M386.359 172.404C362.646 118.887 366.709 91.7256 374.272 78.3945C382.483 63.9308 396.551 62.0483 396.687 62.021L396.465 59.9745C395.833 60.0582 381.237 61.939 372.496 77.3166C361.092 97.3406 365.121 129.618 384.447 173.26C401.519 211.815 404.489 242.57 393.256 264.67C383.32 284.168 364.899 290.613 360.068 291.995C360.068 288.648 359.966 284.97 359.658 280.877C360.119 280.766 360.614 280.628 361.092 280.49L361.622 280.324L361.775 279.825C361.86 279.548 370.294 253.855 359.214 216.822L359.624 216.629C361.553 215.742 362.492 213.503 361.775 211.511L356.363 196.632C355.971 195.58 355.202 194.751 354.178 194.309C353.188 193.837 352.027 193.837 351.003 194.253L350.559 194.447C344.225 181.06 335.74 167.785 325.361 155.035C325.241 154.896 314.418 142.395 296.799 130.308C296.919 129.949 296.97 129.589 296.97 129.23C297.004 127.515 296.134 125.966 294.682 125.053L289.373 121.873C287.99 121.042 286.334 120.96 284.883 121.652C282.356 122.891 277.252 125.901 271.857 131.845C271.772 131.772 271.669 131.709 271.584 131.64C272.933 130.443 274.111 129.167 275.101 127.792C280.274 120.6 278.447 113.769 278.396 113.492L277.73 113.687C282.459 104.836 302.45 62.9349 274.23 33.5071C260.675 19.3457 243.398 13.0406 225.661 15.7499C208.077 18.4062 191.892 29.8275 184.398 44.8464C170.911 71.8673 168.197 81.1892 166.814 97.2569L166.677 97.1476C166.524 97.3679 163.758 100.88 163.451 105.111L163.399 105.002C158.841 107.353 156.4 112.221 154.488 116.591C153.685 118.443 152.917 120.323 152.234 122.288C149.247 121.845 138.662 120.076 120.976 115.595C117.624 114.765 115.496 112.995 114.473 110.257C109.968 98.0871 128.402 71.5906 128.573 71.3429L128.812 70.9825C149.878 64.5663 161.573 50.2393 162.068 49.6038L162.426 49.1887L162.256 48.6626C158.466 36.4384 155.785 34.0879 155.495 33.8384L154.966 33.4234L140.506 41.1668C148.718 30.4356 155.854 15.0581 156.144 14.3679L156.451 13.7308L155.99 13.2337C140.643 -3.60961 117.956 0.399642 117.706 0.456014L117.432 0.510674L117.21 0.732754C102.782 14.1459 92.9163 41.3615 90.5382 48.3585L89.9578 46.4231L88.7422 48.2475C88.493 48.6352 65.2223 84.5903 66.9073 117.448L65.7754 117.807C63.7575 118.443 62.5693 120.545 63.0388 122.592L66.687 138.024C66.9362 139.131 67.5987 140.043 68.5666 140.597C69.2017 140.984 69.9204 141.177 70.6118 141.177C70.9977 141.177 71.3579 141.123 71.7454 141.012L73.3194 140.569C86.6133 161.893 135.043 170.136 141.974 171.186C141.428 176.967 141.138 182.028 141.069 185.983C141.035 187.56 141.786 189.053 143.05 189.939C143.494 190.271 143.989 190.518 144.518 190.629L142.008 233.139C141.803 233.168 141.616 233.25 141.445 233.334C140.199 233.969 139.345 235.187 139.243 236.596L137.962 250.896C137.877 252.003 138.235 253.054 138.935 253.884L97.6145 263.093C87.4704 265.333 79.0966 272.44 75.2264 282.094L52.3141 339.041C51.4298 341.226 51.044 343.549 51.126 345.927L51.155 346.758C51.2643 348.915 51.7627 350.989 52.6198 352.897C50.1597 353.478 43.6911 353.893 31.7527 347.588C26.2521 344.684 20.9735 344.019 16.0807 345.623C7.95618 348.307 2.8978 356.658 0.603339 361.416C-0.834116 364.404 0.383054 368.027 3.33991 369.492L66.1902 400.717C67.0455 401.133 67.9588 401.355 68.8432 401.355C71.0813 401.355 73.2102 400.109 74.2602 397.979L84.2643 377.844C84.8174 376.712 85.0103 375.439 84.8174 374.194L84.2643 370.874L83.5421 370.992C83.5335 370.883 83.5439 370.774 83.5336 370.666C86.2993 370.557 89.0444 369.79 91.4789 368.304C94.1319 366.698 96.288 364.375 97.6691 361.609L116.933 323.607C118.012 321.479 118.591 319.21 118.705 316.915L171.816 312.241L157.151 344.573C152.064 355.774 152.559 368.884 158.534 379.643L181.171 420.548C181.547 421.24 181.991 421.876 182.52 422.457L164.919 446.712C164.833 446.85 155.768 460.542 165.107 473.596C167.428 476.859 170.655 478.381 174.121 478.934C175.025 479.625 179.788 483 186.003 483C189.98 483 194.539 481.644 199.165 477.329C204.321 472.462 212.43 463.943 220.266 455.728C227.931 447.708 235.17 440.13 238.738 436.922C240.291 435.511 240.718 433.188 239.762 431.196L238.516 429.26C239.045 427.877 238.789 426.329 237.27 424.033L227.675 411.698L223.202 407.106L223.254 406.414C223.39 405.06 223.288 403.705 222.929 402.378L212.567 364.071C212.293 363.131 211.85 361.389 210.928 359.701L252.634 317.357C258.114 311.826 261.512 304.468 262.178 296.725L263.424 282.039H263.663C265.66 282.039 267.367 280.601 267.675 278.636L269.587 266.494C269.74 265.389 269.467 264.255 268.75 263.397C268.426 262.955 267.999 262.596 267.538 262.346L268.887 254.574L276.655 251.643C278.891 250.812 280.905 249.485 282.561 247.826C283.978 249.43 287.137 254.354 282.818 263.286C279.864 269.398 279.915 275.705 282.988 280.628C286.249 285.828 292.361 288.759 300.265 288.925L299.787 290.28C299.241 291.802 299.394 293.489 300.197 294.899C300.999 296.31 302.382 297.278 303.987 297.61L309.791 298.744C309.04 300.459 308.22 302.201 307.281 303.944C305.13 308.037 306.479 313.126 310.423 315.56C315.425 318.684 323.893 322.612 334.494 322.612C340.111 322.612 346.308 321.534 352.881 318.63C355.424 317.523 357.336 315.283 357.968 312.629C358.77 309.309 359.88 303.252 360.034 294.152C364.182 293.047 384.361 286.658 395.082 265.638C406.64 242.958 403.704 211.595 386.359 172.404ZM315.186 279.646C315.135 279.649 315.101 279.677 315.066 279.677C314.401 279.677 313.974 279.326 313.718 278.836C313.325 278.995 312.932 279.152 312.471 279.267C309.757 279.95 307.282 279.282 305.182 281.586C303.884 283.004 303.679 284.953 302.075 286.281C298.233 289.448 294.341 287.745 290.91 284.998C290.91 284.996 290.91 284.998 290.892 284.996C290.773 284.95 290.688 284.894 290.568 284.846C290.568 284.849 290.568 284.853 290.568 284.856C290.534 284.839 290.5 284.818 290.466 284.801C287.495 283.551 285.617 281.873 284.473 279.917C284.03 279.941 283.603 279.764 283.347 279.238C280.82 274.147 281.127 267.61 284.456 262.934C284.576 262.751 284.73 262.616 284.9 262.519C285.02 262.01 285.156 261.503 285.293 260.997C285.737 259.224 286.181 257.546 286.146 255.693C286.078 252.895 284.354 251.585 283.688 249.125C283.381 247.96 283.227 247.119 283.278 246.275C283.125 246.007 283.074 245.686 283.176 245.305C287.905 229.348 292.173 213.282 293.317 196.613C293.402 195.383 294.734 194.838 295.673 195.636C296.168 196.062 296.236 196.547 296.27 197.18C296.27 197.261 296.236 197.315 296.219 197.387C296.236 197.403 296.253 197.408 296.27 197.425C296.356 197.565 296.441 197.715 296.526 197.857C296.817 197.937 297.107 198.094 297.294 198.448C303.765 210.047 311.191 219.632 313.052 233.142C314.076 240.51 314.4 247.944 314.742 255.367C314.896 258.85 314.759 262.264 314.776 265.741C314.776 268.904 316.398 271.865 316.432 274.841C316.432 275.071 316.347 275.23 316.33 275.438C316.517 275.642 316.654 275.883 316.688 276.199C316.773 276.79 316.739 277.309 316.637 277.821C316.961 278.773 316.313 279.991 315.186 279.646Z" fill="#E2E0E7"/>
</svg>
