<svg width="700" height="500" viewBox="0 0 551 328" fill="none" xmlns="http://www.w3.org/2000/svg">
<path d="M310.831 253.278L137.242 266.104L1 233.338L35.6842 199.498L209.322 186.672L346.896 213.541L310.831 253.278Z" fill="#92FFE2"/>
<ellipse cx="395.897" cy="317.402" rx="39.2703" ry="3.15875" fill="#92FFE2"/>
<ellipse cx="429.515" cy="238.433" rx="74.5853" ry="10.108" fill="#92FFE2"/>
<ellipse cx="469.917" cy="229.589" rx="81.0832" ry="12.635" fill="#92FFE2"/>
<path d="M350.033 149.059L348.145 147.457V142.837V138.191L349.985 136.589L350.033 149.059Z" fill="#551AF7" stroke="#551AF7" stroke-miterlimit="10" stroke-linejoin="round"/>
<path d="M350.028 191.952C350.03 192.379 349.53 192.611 349.205 192.335L348.321 191.585C348.209 191.49 348.145 191.35 348.145 191.204V186.816V182.397C348.145 182.253 348.207 182.115 348.316 182.02L349.161 181.285C349.484 181.004 349.987 181.232 349.989 181.66L350.028 191.952Z" fill="#551AF7" stroke="#551AF7" stroke-miterlimit="10" stroke-linejoin="round"/>
<path d="M366.26 202.356H353.402C351.418 202.356 349.793 200.54 349.793 198.324V175.948C349.793 173.731 351.418 171.916 353.402 171.916H366.284V202.356H366.26Z" fill="white" stroke="#551AF7" stroke-miterlimit="10" stroke-linejoin="round"/>
<path d="M366.308 155.921H353.425C351.442 155.921 349.816 154.105 349.816 151.889V134.319C349.816 132.103 351.442 130.287 353.425 130.287H366.308V155.921Z" fill="white" stroke="#551AF7" stroke-miterlimit="10" stroke-linejoin="round"/>
<path d="M472.807 215.841L452.564 238.617L384.186 145.775L413.296 134.987L472.807 215.841Z" fill="white" stroke="#551AF7" stroke-miterlimit="10" stroke-linejoin="round"/>
<path d="M384.185 145.721L384.448 145.962C382.368 145.988 380.241 146.015 378.09 146.015C369.94 146.015 362.292 145.721 355.576 145.214V133.198C362.292 132.691 369.94 132.397 378.09 132.397C391.976 132.397 404.476 133.251 413.223 134.587L384.185 145.721Z" fill="white" stroke="#551AF7" stroke-miterlimit="10" stroke-linejoin="round"/>
<path d="M378.09 59.9014V238.216H355.576V85.0545C355.576 71.1696 365.662 59.9014 378.09 59.9014Z" fill="white" stroke="#551AF7" stroke-miterlimit="10" stroke-linejoin="round"/>
<path d="M452.303 238.216H377.979V145.694H384.187L452.303 238.216Z" fill="white" stroke="#551AF7" stroke-miterlimit="10" stroke-linejoin="round"/>
<path d="M413.942 81.7437L413.225 134.587L378.092 132.397V85.5353L413.942 81.7437Z" fill="white" stroke="#551AF7" stroke-miterlimit="10" stroke-linejoin="round"/>
<path d="M392.073 74.6942L378.092 85.5352V59.9014L392.073 70.7156V74.6942Z" fill="white" stroke="#551AF7" stroke-miterlimit="10" stroke-linejoin="round"/>
<ellipse cx="389.078" cy="137.027" rx="9.32453" ry="1.98579" fill="#E7E1FE"/>
<path d="M397.199 123.994L398.236 111.566C398.246 111.439 398.35 108.484 393.437 107.039C388.847 105.691 388.14 106.975 388.047 107.234L382.3 118.079C382.3 118.079 380.851 121.047 383.83 124.348C383.83 124.348 385.647 126.631 391.005 127.412C391.005 127.412 394.185 127.703 395.653 127.109C397.122 126.515 397.199 123.994 397.199 123.994Z" fill="white"/>
<path d="M382.868 116.865C383.084 117.175 385.564 121.786 389.193 122.018C389.75 122.019 390.268 121.694 390.533 121.186L391.231 119.868C391.427 119.536 392.033 119.061 392.963 119.511C394.214 120.127 397.324 121.43 397.357 121.442L397.111 124.899C397.111 124.899 396.668 126.958 394.95 127.27C393.234 127.572 389.323 127.969 385.009 125.331C379.829 122.177 382.868 116.865 382.868 116.865Z" fill="white"/>
<path d="M380.889 121.414C380.803 121.432 380.711 121.439 380.616 121.425C380.356 121.391 380.117 121.223 379.967 120.967L379.227 119.771C379.074 119.524 379.026 119.224 379.1 118.969C379.164 118.751 379.312 118.583 379.511 118.514L381.428 117.801C381.771 117.674 382.186 117.855 382.412 118.22L382.669 118.636C382.901 119.012 382.877 119.467 382.627 119.739L381.191 121.241C381.102 121.33 381.005 121.385 380.889 121.414Z" fill="white" stroke="#551AF7" stroke-width="0.4" stroke-miterlimit="10"/>
<path d="M398.258 127.814C398.179 127.836 398.095 127.846 398.014 127.846L396.662 127.828C396.375 127.824 396.109 127.687 395.945 127.476C395.801 127.293 395.74 127.069 395.779 126.842L396.156 124.651C396.224 124.263 396.574 123.987 396.996 123.99L397.472 123.992C397.894 123.994 398.261 124.279 398.353 124.675L398.855 126.873C398.905 127.103 398.858 127.327 398.724 127.51C398.6 127.656 398.441 127.77 398.258 127.814Z" fill="white" stroke="#551AF7" stroke-width="0.4" stroke-miterlimit="10"/>
<path d="M389.13 129.873C388.944 129.926 388.738 129.922 388.543 129.851L386.811 129.281C386.5 129.178 386.244 128.944 386.112 128.624C385.978 128.313 385.973 127.959 386.117 127.648L387.517 124.601C387.741 124.109 388.268 123.877 388.777 124.042L389.376 124.24C389.886 124.405 390.221 124.92 390.176 125.478L389.909 128.897C389.884 129.231 389.715 129.532 389.454 129.719C389.352 129.793 389.249 129.836 389.13 129.873Z" fill="white" stroke="#551AF7" stroke-width="0.4" stroke-miterlimit="10"/>
<path d="M395.788 127.047C395.52 127.162 395.474 127.165 395.113 127.265C393.943 127.575 392.248 127.714 389.908 127.225" stroke="#551AF7" stroke-width="0.4" stroke-miterlimit="10"/>
<path d="M386.757 126.259C382.603 124.525 382.155 121.551 382.025 120.174" stroke="#551AF7" stroke-width="0.4" stroke-miterlimit="10"/>
<path d="M382.299 118.078L388.046 107.233C388.14 106.975 388.844 105.7 393.437 107.039C398.36 108.478 398.245 111.438 398.235 111.565L397.198 123.994" stroke="#551AF7" stroke-width="0.4" stroke-miterlimit="10"/>
<path d="M389.256 113.748C389.057 113.504 388.708 113.467 388.457 113.618C388.204 113.778 388.049 114.094 388.027 114.418C388.004 114.743 388.125 115.069 388.302 115.325C388.379 115.433 388.466 115.535 388.577 115.586C388.789 115.693 389.032 115.6 389.253 115.52C389.315 115.492 389.374 115.473 389.426 115.421C389.474 115.378 389.512 115.311 389.549 115.244C389.798 114.73 389.323 113.671 389.256 113.748Z" fill="white"/>
<path d="M387.12 111.864C386.923 111.832 386.72 111.819 386.536 111.893C386.382 111.958 386.259 112.074 386.14 112.202C385.595 112.84 385.357 113.721 385.048 114.535C384.978 114.711 384.909 114.888 384.889 115.082C384.876 115.188 384.887 115.303 384.909 115.412C384.943 115.575 384.995 115.735 385.096 115.852C385.279 116.09 385.598 116.166 385.874 116.085C386.149 116.004 386.38 115.796 386.56 115.549C386.74 115.302 386.876 115.019 387.01 114.745C387.2 114.371 387.395 114.009 387.498 113.593C387.554 113.402 387.583 113.211 387.614 113.011C387.656 112.865 387.664 112.686 387.69 112.534C387.705 112.419 387.764 112.249 387.76 112.137C387.729 111.904 387.283 111.893 387.12 111.864Z" fill="white"/>
<path d="M386.307 110.552L383.74 115.539C383.74 115.539 387.362 120.152 388.686 118.447C390.001 116.74 390.542 114.821 390.542 114.821C390.542 114.821 391.059 113.662 386.307 110.552ZM387.088 113.09L385.871 115.327C385.718 115.604 385.418 115.707 385.198 115.566C385.101 115.5 385.038 115.407 385.007 115.295C384.969 115.15 384.984 114.974 385.067 114.813L386.285 112.576C386.437 112.299 386.737 112.197 386.957 112.337C387.055 112.403 387.117 112.496 387.148 112.608C387.195 112.756 387.179 112.932 387.088 113.09ZM389.415 114.924C389.248 115.156 388.883 115.144 388.592 114.907C388.312 114.664 388.213 114.295 388.379 114.064C388.545 113.832 388.911 113.844 389.201 114.081C389.484 114.315 389.581 114.692 389.415 114.924Z" fill="#5B20FF"/>
<path d="M397.216 111.426C397.192 111.448 396.874 111.735 396.194 111.911C395.462 112.108 394.299 112.178 392.608 111.684C389.451 110.757 388.735 108.582 388.708 108.491" stroke="#551AF7" stroke-width="0.4" stroke-miterlimit="10"/>
<path d="M382.926 116.895C383.141 117.205 385.622 121.815 389.25 122.048C389.808 122.049 390.325 121.723 390.59 121.215L391.288 119.898C391.484 119.566 392.09 119.091 393.02 119.541C394.271 120.157 397.381 121.46 397.414 121.472" stroke="#551AF7" stroke-width="0.4" stroke-miterlimit="10"/>
<path d="M395.165 102.65C395.628 102.818 396.124 102.536 396.275 102.016C396.427 101.497 396.174 100.942 395.711 100.773C395.247 100.604 394.751 100.887 394.6 101.407C394.441 101.923 394.701 102.481 395.165 102.65Z" fill="#5B20FF"/>
<path d="M392.788 109.211L395.155 102.596" stroke="#551AF7" stroke-width="0.4" stroke-miterlimit="10"/>
<path d="M393.478 109.35C393.303 109.397 393.056 109.347 392.793 109.201C392.375 108.968 392.16 108.628 392.282 108.36C392.403 108.102 392.787 108.08 393.205 108.313C393.367 108.403 393.512 108.526 393.61 108.652C393.74 108.82 393.785 109.008 393.715 109.154C393.667 109.257 393.586 109.319 393.478 109.35Z" stroke="#551AF7" stroke-width="0.4" stroke-miterlimit="10"/>
<path d="M396.28 105.182C394.565 105.697 392.79 104.567 392.321 102.653C391.853 100.74 392.869 98.7624 394.584 98.2479C396.299 97.7335 398.075 98.8633 398.543 100.777C399.011 102.69 397.995 104.668 396.28 105.182Z" stroke="#551AF7" stroke-width="0.4" stroke-miterlimit="10"/>
<path d="M394.596 118.664C394.816 118.744 395.048 118.627 395.117 118.39C395.183 118.162 395.06 117.906 394.84 117.826C394.621 117.746 394.381 117.86 394.312 118.097C394.243 118.334 394.377 118.584 394.596 118.664Z" fill="#5B20FF"/>
<path d="M394.942 116.331C395.161 116.411 395.393 116.294 395.462 116.057C395.531 115.82 395.405 115.573 395.186 115.493C394.966 115.413 394.731 115.539 394.665 115.767C394.599 115.995 394.722 116.251 394.942 116.331Z" fill="#5B20FF"/>
<path d="M395.555 114.387C395.775 114.467 396.009 114.341 396.076 114.113C396.142 113.886 396.019 113.629 395.799 113.549C395.58 113.469 395.34 113.584 395.271 113.82C395.212 114.051 395.336 114.308 395.555 114.387Z" fill="#5B20FF"/>
<path d="M387.403 130.212L387.655 129.437" stroke="#551AF7" stroke-width="0.4" stroke-miterlimit="10"/>
<path d="M388.509 130.805L386.299 129.991" stroke="#551AF7" stroke-width="0.4" stroke-miterlimit="10"/>
<path d="M397.341 128.549L397.381 127.727" stroke="#551AF7" stroke-width="0.4" stroke-miterlimit="10"/>
<path d="M396.041 128.629L398.358 128.797" stroke="#551AF7" stroke-width="0.4" stroke-miterlimit="10"/>
<path d="M378.887 120.715L379.537 120.277" stroke="#551AF7" stroke-width="0.4" stroke-miterlimit="10"/>
<path d="M378.135 119.677L379.472 121.725" stroke="#551AF7" stroke-width="0.4" stroke-miterlimit="10"/>
<path d="M362.176 96.8303C362.915 96.8303 363.515 95.862 363.515 94.6675C363.515 93.473 362.915 92.5046 362.176 92.5046C361.437 92.5046 360.838 93.473 360.838 94.6675C360.838 95.862 361.437 96.8303 362.176 96.8303Z" fill="#551AF7" stroke="#551AF7" stroke-miterlimit="10" stroke-linejoin="round"/>
<path d="M413.942 59.6877L378.092 59.9014L392.073 70.7156L425.342 68.1255L413.942 59.6877Z" fill="white" stroke="#551AF7" stroke-miterlimit="10" stroke-linejoin="round"/>
<path d="M392.074 74.6944V70.7158L425.343 68.1257V70.9027L392.074 74.6944Z" fill="white" stroke="#551AF7" stroke-miterlimit="10"/>
<path d="M378.092 85.5354L413.942 81.7438L425.342 70.9028L392.073 74.6945L378.092 85.5354Z" fill="white" stroke="#551AF7" stroke-miterlimit="10" stroke-linejoin="round"/>
<path d="M384.449 145.961L452.302 238.216" stroke="#551AF7" stroke-miterlimit="10"/>
<path d="M435.88 196.508L438.771 193.25L435.617 188.951L432.82 192.102L435.88 196.508Z" fill="#551AF7"/>
<path d="M435.284 181.448L438.462 185.747L435.618 188.951L432.439 184.652L435.284 181.448Z" fill="#41FFD1"/>
<path d="M429.285 180.353L426.393 183.611L423.238 179.312L426.274 176.241L429.285 180.353Z" fill="#41FFD1"/>
<path d="M425.931 168.799L428.595 165.324L425.532 160.994L422.473 164.305L425.931 168.799Z" fill="#551AF7"/>
<path d="M451.393 210.233L448.668 213.571L445.514 209.378L448.286 206.228L451.393 210.233Z" fill="#551AF7"/>
<path d="M438.581 207.002L440.158 205.16L438.892 203.531L437.219 205.32L438.581 207.002Z" fill="#551AF7"/>
<path d="M432.034 198.538L433.635 196.695L432.345 195.04L430.672 196.829L432.034 198.538Z" fill="#41FFD1"/>
<path d="M409.711 170.954L447.617 222.622" stroke="#551AF7" stroke-width="0.5" stroke-miterlimit="10"/>
<path d="M410.598 162.116L451.706 218.003" stroke="#551AF7" stroke-width="0.5" stroke-miterlimit="10"/>
<path d="M413.463 158.858L454.571 214.772" stroke="#551AF7" stroke-width="0.5" stroke-miterlimit="10"/>
<path d="M419.484 159.954L457.414 211.568" stroke="#551AF7" stroke-width="0.5" stroke-miterlimit="10"/>
<path d="M422.404 156.669L460.358 208.284" stroke="#551AF7" stroke-width="0.5" stroke-miterlimit="10"/>
<path d="M460.358 208.284L447.619 222.623" stroke="#551AF7" stroke-width="0.5" stroke-miterlimit="10"/>
<path d="M457.179 203.985L444.512 218.243" stroke="#551AF7" stroke-width="0.5" stroke-miterlimit="10"/>
<path d="M454.023 199.686L441.355 213.945" stroke="#551AF7" stroke-width="0.5" stroke-miterlimit="10"/>
<path d="M450.868 195.387L438.201 209.619" stroke="#551AF7" stroke-width="0.5" stroke-miterlimit="10"/>
<path d="M447.688 191.087L434.973 205.4" stroke="#551AF7" stroke-width="0.5" stroke-miterlimit="10"/>
<path d="M444.561 186.736L431.822 201.101" stroke="#551AF7" stroke-width="0.5" stroke-miterlimit="10"/>
<path d="M441.38 182.464L432.824 192.103L428.498 196.963" stroke="#551AF7" stroke-width="0.5" stroke-miterlimit="10"/>
<path d="M438.201 178.164L425.51 192.476" stroke="#551AF7" stroke-width="0.5" stroke-miterlimit="10"/>
<path d="M435.045 173.865L422.354 188.177" stroke="#551AF7" stroke-width="0.5" stroke-miterlimit="10"/>
<path d="M431.89 169.566L419.199 183.878" stroke="#551AF7" stroke-width="0.5" stroke-miterlimit="10"/>
<path d="M428.736 165.267L416.021 179.579" stroke="#551AF7" stroke-width="0.5" stroke-miterlimit="10"/>
<path d="M412.867 175.254L425.558 160.969" stroke="#551AF7" stroke-width="0.5" stroke-miterlimit="10"/>
<path d="M422.402 156.669L409.711 170.954" stroke="#551AF7" stroke-width="0.5" stroke-miterlimit="10"/>
<path d="M413.466 158.858L410.598 162.116" stroke="#551AF7" stroke-width="0.5" stroke-miterlimit="10"/>
<path d="M348.768 143.932C347.31 143.932 346.115 142.597 346.115 140.968V97.6307C346.115 96.0018 347.31 94.6667 348.768 94.6667H362.487" stroke="#551AF7" stroke-width="3" stroke-miterlimit="10"/>
<path d="M32.0137 201.794V95.7683" stroke="#01CA99" stroke-miterlimit="10"/>
<path d="M178.732 190.576V79.5337" stroke="#01CA99" stroke-miterlimit="10"/>
<path d="M264.918 251.364V221.403L295.45 176.759L295.41 206.765L264.918 251.364Z" fill="#11BC92" stroke="#01CA99" stroke-miterlimit="10" stroke-linecap="round" stroke-linejoin="round"/>
<path d="M282.066 217.451V205.091L294.499 186.672H299.383L287.395 218.444L282.066 217.451Z" fill="#01CA99" stroke="#01CA99" stroke-miterlimit="10" stroke-linecap="round" stroke-linejoin="round"/>
<path d="M287.395 217.451V205.091L299.827 186.672L299.811 199.051L287.395 217.451Z" fill="#11BC92" stroke="#01CA99" stroke-miterlimit="10" stroke-linecap="round" stroke-linejoin="round"/>
<path d="M290.968 209.208C290.687 209.608 290.059 209.409 290.059 208.921V203.881C290.059 203.778 290.09 203.677 290.15 203.593L296.252 194.917C296.533 194.518 297.161 194.717 297.161 195.206L297.154 200.253C297.154 200.356 297.122 200.456 297.063 200.54L290.968 209.208Z" fill="#551AF7"/>
<path d="M348.225 188.657C336.68 188.657 354.175 212.09 346.005 216.459C335.792 221.92 330.02 208.515 314.035 209.508C302.846 210.203 301.158 196.104 294.498 198.09" stroke="#551AF7" stroke-linecap="round" stroke-linejoin="round"/>
<path d="M348.225 186.672C340.233 186.672 354.175 215.068 346.005 219.437C335.792 224.898 330.02 211.494 314.035 212.487C302.846 213.182 301.158 199.083 294.498 201.069" stroke="#551AF7" stroke-linecap="round" stroke-linejoin="round"/>
<path d="M347.78 183.693C336.236 183.693 353.286 218.047 345.116 222.416C334.904 227.877 329.131 214.472 313.146 215.465C301.957 216.16 300.27 202.061 293.609 204.047" stroke="#551AF7" stroke-linecap="round" stroke-linejoin="round"/>
<path d="M348.671 189.154C338.459 196.601 351.513 220.033 343.343 224.402C333.13 229.863 327.358 216.459 311.373 217.452C300.184 218.147 298.496 204.048 291.836 206.033" stroke="#551AF7" stroke-linecap="round" stroke-linejoin="round"/>
<path d="M1.44141 235.54L1.48212 205.579L117.953 235.814L117.912 265.774L1.44141 235.54Z" fill="#11BC92" stroke="#01CA99" stroke-miterlimit="10" stroke-linecap="round" stroke-linejoin="round"/>
<path d="M117.91 265.775L117.951 235.814L264.913 221.404V251.364L117.91 265.775Z" fill="#01CA99" stroke="#01CA99" stroke-miterlimit="10" stroke-linecap="round" stroke-linejoin="round"/>
<path d="M264.916 221.403L117.953 235.814L1.48242 205.579L31.9741 160.98L178.977 146.57L295.448 176.759L264.916 221.403Z" fill="white" stroke="#01CA99" stroke-miterlimit="10" stroke-linecap="round" stroke-linejoin="round"/>
<path d="M216.631 211.644V192.81L235.805 164.764V183.598L216.631 211.644Z" fill="#01CA99" stroke="#01CA99" stroke-width="1.5" stroke-miterlimit="10" stroke-linejoin="round"/>
<path d="M51.0234 201.703V182.869L124.26 201.84L124.22 220.719L51.0234 201.703Z" fill="#11BC92" stroke="#01CA99" stroke-width="1.5" stroke-miterlimit="10" stroke-linejoin="round"/>
<path d="M124.221 220.719L124.261 201.84L216.632 192.811V211.644L124.221 220.719Z" fill="#41FFD1" stroke="#01CA99" stroke-width="1.5" stroke-miterlimit="10" stroke-linejoin="round"/>
<path d="M216.631 192.81L124.26 201.84L51.0234 182.869L70.1978 154.778L162.609 145.749L235.805 164.765L216.631 192.81Z" fill="#E0FFF2" stroke="#01CA99" stroke-width="1.5" stroke-miterlimit="10" stroke-linejoin="round"/>
<path d="M173.232 175.573C171.318 178.354 165.578 181.045 160.449 181.546L145.834 182.96C140.704 183.462 132.4 182.823 127.392 181.501L119.25 179.403C114.243 178.081 111.678 174.752 113.592 171.97C115.505 169.188 121.245 166.498 126.375 165.996L140.989 164.582C146.119 164.081 154.424 164.719 159.431 166.042L167.573 168.139C172.58 169.462 175.145 172.791 173.232 175.573Z" fill="#41FFD1"/>
<path d="M184.025 116.015L172.341 58.0548C172.219 57.462 168.799 43.918 144.658 45.4685C122.105 46.9278 120.599 53.905 120.517 55.2274L108.793 113.781C108.793 113.781 106.147 129.605 123.978 139.638C123.978 139.638 135.214 146.98 160.494 141.69C160.494 141.69 175.272 137.768 181.134 132.66C186.996 127.553 184.025 116.015 184.025 116.015Z" fill="white"/>
<path d="M109.771 107.351C111.155 108.4 128.457 125.182 145.189 120.257C147.713 119.345 149.626 117.019 150.155 114.283L151.58 107.169C152.028 105.345 154.145 102.198 158.949 102.7C165.422 103.43 181.217 104.205 181.38 104.205L184.825 120.257C184.825 120.257 185.533 130.304 178.164 134.545C170.796 138.74 153.616 146.98 130.615 142.146C103.013 136.4 109.771 107.351 109.771 107.351Z" fill="#C9B8FF"/>
<path d="M106.798 131.202C106.431 131.43 106.024 131.612 105.577 131.703C104.355 131.977 103.052 131.612 102.035 130.7L97.1089 126.504C96.0911 125.638 95.4805 124.361 95.4805 123.084C95.4805 121.99 95.9283 120.987 96.7425 120.348L104.477 113.964C105.861 112.824 107.978 112.961 109.485 114.237L111.194 115.697C112.741 117.019 113.23 119.117 112.456 120.759L107.938 129.925C107.653 130.472 107.286 130.882 106.798 131.202Z" fill="#F0EBFF" stroke="#551AF7" stroke-miterlimit="10"/>
<path d="M193.833 131.566C193.508 131.794 193.141 131.977 192.775 132.113L186.628 134.257C185.325 134.713 183.941 134.53 182.923 133.846C182.028 133.253 181.458 132.341 181.335 131.247L180.155 120.713C179.951 118.843 181.173 117.019 183.086 116.335L185.244 115.56C187.157 114.876 189.192 115.56 190.129 117.201L195.299 126.322C195.828 127.28 195.91 128.374 195.543 129.423C195.177 130.289 194.607 131.065 193.833 131.566Z" fill="#F0EBFF" stroke="#551AF7" stroke-miterlimit="10"/>
<path d="M155.242 155.918C154.469 156.465 153.532 156.784 152.555 156.784L143.966 157.058C142.419 157.104 140.953 156.465 139.935 155.234C138.918 154.048 138.429 152.452 138.673 150.811L140.994 134.713C141.36 132.114 143.436 130.198 145.96 130.107L148.932 130.016C151.456 129.925 153.655 131.703 154.184 134.302L157.481 150.218C157.807 151.768 157.441 153.41 156.504 154.687C156.138 155.188 155.731 155.553 155.242 155.918Z" fill="#F0EBFF" stroke="#551AF7" stroke-miterlimit="10"/>
<path d="M181.665 132.159C180.607 133.116 180.403 133.208 178.897 134.256C174.012 137.585 166.521 141.006 155.285 142.647" stroke="#551AF7" stroke-miterlimit="10"/>
<path d="M139.734 143.468C118.646 142.465 112.703 129.742 110.301 123.722" stroke="#551AF7" stroke-miterlimit="10"/>
<path d="M108.791 113.781L120.515 55.2275C120.597 53.9051 122.103 46.9735 144.656 45.4686C168.838 43.8725 172.217 57.4621 172.339 58.0549L184.023 116.016" stroke="#551AF7" stroke-miterlimit="10"/>
<path d="M134.559 82.726C133.338 81.9507 131.71 82.3612 130.773 83.4556C129.837 84.5957 129.552 86.283 129.878 87.7879C130.203 89.2927 131.18 90.5696 132.32 91.4361C132.809 91.8009 133.338 92.1201 133.908 92.1657C135.007 92.3025 135.984 91.4817 136.88 90.752C137.124 90.524 137.368 90.3416 137.531 90.0224C137.694 89.7488 137.775 89.384 137.857 89.0191C138.305 86.283 134.763 82.27 134.559 82.726Z" fill="white"/>
<path d="M122.429 77.7099C121.493 77.8924 120.556 78.166 119.823 78.8044C119.213 79.3516 118.806 80.0813 118.439 80.8565C116.811 84.6415 116.892 89.0194 116.567 93.2148C116.485 94.1268 116.404 95.0389 116.567 95.9509C116.648 96.4526 116.852 96.9542 117.096 97.4102C117.462 98.0942 117.91 98.7327 118.521 99.0975C119.661 99.8727 121.208 99.6903 122.347 98.8695C123.487 98.0486 124.261 96.7262 124.749 95.3125C125.238 93.8988 125.482 92.3939 125.726 90.9347C126.093 88.9282 126.5 86.9672 126.418 84.9151C126.418 83.9575 126.296 83.0454 126.174 82.0878C126.174 81.3581 125.971 80.5373 125.889 79.8077C125.808 79.2604 125.849 78.394 125.686 77.8924C125.238 76.8891 123.202 77.5731 122.429 77.7099Z" fill="white"/>
<path d="M117.017 73.1172L111.969 99.9183C111.969 99.9183 134.441 114.83 138.186 104.935C141.89 95.0388 141.809 85.4623 141.809 85.4623C141.809 85.4623 142.623 79.3647 117.017 73.1172ZM123.897 83.319L121.332 95.4493C121.006 96.9541 119.785 97.9118 118.604 97.6382C118.075 97.5014 117.668 97.1821 117.383 96.7261C117.017 96.1333 116.854 95.3124 117.017 94.446L119.581 82.3158C119.907 80.8109 121.128 79.8532 122.309 80.1268C122.838 80.2636 123.245 80.5829 123.53 81.0389C123.937 81.6317 124.1 82.4526 123.897 83.319ZM136.842 87.788C136.395 89.1105 134.726 89.6577 133.097 89.0649C131.509 88.4265 130.573 86.9216 131.021 85.5991C131.469 84.2767 133.138 83.7294 134.766 84.3223C136.354 84.9151 137.29 86.4656 136.842 87.788Z" fill="#6F3FF5"/>
<path d="M167.537 59.104C167.456 59.2408 166.397 61.0649 163.548 62.9802C160.494 65.0779 155.324 67.3124 147.019 67.8597C131.509 68.8629 125.402 60.1985 125.158 59.8336" stroke="#551AF7" stroke-miterlimit="10"/>
<path d="M110.055 107.397C111.439 108.446 128.74 125.227 145.472 120.302C147.996 119.39 149.91 117.065 150.439 114.328L151.864 107.214C152.311 105.39 154.428 102.244 159.232 102.745C165.705 103.475 181.5 104.25 181.663 104.25" stroke="#551AF7" stroke-miterlimit="10"/>
<path d="M146.696 22.7586C149.016 22.7586 150.889 20.6609 150.889 18.0616C150.889 15.4622 149.016 13.3645 146.696 13.3645C144.375 13.3645 142.503 15.4622 142.503 18.0616C142.462 20.6609 144.375 22.7586 146.696 22.7586Z" fill="#5B20FF"/>
<path d="M144.576 56.3675L146.571 22.5305" stroke="#551AF7" stroke-miterlimit="10"/>
<path d="M147.875 55.866C147.142 56.3676 145.962 56.55 144.578 56.322C142.379 55.9572 140.954 54.7715 141.158 53.3578C141.362 51.9897 143.071 51.2601 145.27 51.6249C146.125 51.7617 146.939 52.081 147.549 52.4914C148.364 53.0386 148.811 53.8138 148.689 54.5891C148.608 55.1363 148.323 55.5467 147.875 55.866Z" stroke="#551AF7" stroke-miterlimit="10"/>
<path d="M155.08 32.3808C147.996 37.5339 138.47 35.3449 133.829 27.4557C129.188 19.5665 131.183 8.94113 138.267 3.78805C145.35 -1.36502 154.876 0.823896 159.517 8.71312C164.158 16.6023 162.163 27.2277 155.08 32.3808Z" stroke="#551AF7" stroke-miterlimit="10"/>
<path d="M165.215 96.1791C166.314 96.1791 167.21 95.267 167.21 94.0814C167.21 92.9413 166.314 91.9836 165.215 91.9836C164.116 91.9836 163.18 92.8957 163.18 94.0814C163.18 95.267 164.116 96.1791 165.215 96.1791Z" fill="#5B20FF"/>
<path d="M163.708 85.0516C164.807 85.0516 165.702 84.1396 165.702 82.9539C165.702 81.7683 164.807 80.8562 163.708 80.8562C162.609 80.8562 161.713 81.8139 161.713 82.9539C161.713 84.094 162.609 85.0516 163.708 85.0516Z" fill="#5B20FF"/>
<path d="M163.914 75.2469C165.014 75.2469 165.909 74.2893 165.909 73.1492C165.909 72.0092 165.014 71.0515 163.914 71.0515C162.815 71.0515 161.879 71.9636 161.879 73.1492C161.92 74.2893 162.815 75.2469 163.914 75.2469Z" fill="#5B20FF"/>
<path d="M147.875 160.295L147.999 156.374" stroke="#551AF7" stroke-miterlimit="10"/>
<path d="M153.657 161.162L142.584 161.116" stroke="#551AF7" stroke-miterlimit="10"/>
<path d="M190.661 136.4L189.766 132.615" stroke="#551AF7" stroke-miterlimit="10"/>
<path d="M184.881 138.908L195.588 135.853" stroke="#551AF7" stroke-miterlimit="10"/>
<path d="M96.8223 131.338L99.1834 128.283" stroke="#551AF7" stroke-miterlimit="10"/>
<path d="M92.0605 127.873L100.813 134.941" stroke="#551AF7" stroke-miterlimit="10"/>
<path d="M264.918 129.925V226.784" stroke="#01CA99" stroke-miterlimit="10"/>
<path d="M117.914 241.194V135.214" stroke="#01CA99" stroke-miterlimit="10"/>
<path d="M1.44141 218.347V112.322" stroke="#41FFD1" stroke-miterlimit="10"/>
<path d="M295.449 190.147V95.7683" stroke="#01CA99" stroke-miterlimit="10"/>
<path d="M178.733 79.5337L295.448 95.7682L264.915 129.924L117.912 135.214L1.44141 112.322L33.2765 95.7682L113.336 84.4032" stroke="#01CA99" stroke-miterlimit="10" stroke-linecap="round" stroke-linejoin="round"/>
<path d="M412.703 257.096C413.016 257.794 413.39 258.667 413.734 259.749C413.921 260.412 414.264 261.598 414.451 263.169C414.545 264.006 414.608 265.053 414.576 266.24C414.108 269.695 413.546 272.557 413.078 274.721C412.329 278.141 411.549 280.898 410.862 283.341C410.394 285.016 409.957 286.412 409.676 287.389C410.425 294.299 411.174 301.175 411.923 308.085C411.861 308.329 411.798 308.573 411.736 308.852C411.549 308.992 411.33 309.201 411.299 309.481C411.299 309.865 411.736 310.179 411.892 310.283C412.828 311.016 412.984 313.006 413.172 315.449C413.265 316.6 413.297 318.171 413.14 320.02C410.737 322.533 408.396 323.929 406.804 324.732C404.65 325.779 401.591 327.489 398.001 326.791C394.412 326.093 391.134 324.278 391.134 324.278C390.978 323.266 390.885 321.556 391.478 319.637C391.665 319.043 392.757 315.379 395.504 314.262C396.815 313.738 397.721 314.087 398.875 313.11C399.562 312.482 399.937 311.714 400.155 311.121L399.032 309.516L397.003 301.175L393.6 287.215C393.631 282.678 393.663 278.141 393.694 273.604C393.07 273.534 392.477 273.464 391.852 273.359L381.208 285.923L381.614 308.224L382.644 318.171C382.644 318.171 375.527 321.521 372.624 322.184C369.721 322.847 361.605 324.592 358.422 320.474C358.359 320.195 357.267 315.274 360.107 312.238C361.106 311.191 362.23 310.702 363.01 310.528C363.634 310.283 364.602 310.004 365.788 310.039C367.224 310.109 367.505 310.632 368.629 310.423C368.629 310.423 369.097 310.353 371.407 309.027L370.408 307.806C370.408 307.806 368.722 302.396 368.441 301.244C368.16 300.093 364.914 283.864 365.226 282.084C365.538 280.339 365.32 280.723 366.1 278.664C366.881 276.605 370.502 269.067 371.282 267.706C372.062 266.345 375.371 260.481 375.371 260.481V258.073L375.683 253.397L376.651 253.048C376.651 253.048 375.995 248.232 375.683 247.22C375.683 247.22 374.497 251.512 371.438 255.212C368.379 258.911 363.01 264.251 363.01 264.251L363.416 265.402L359.733 268.962L359.108 267.601C359.108 267.601 358.89 268.753 356.954 270.358C355.019 271.963 354.208 273.22 352.772 273.534C351.336 273.883 350.337 274.232 349.557 272.836C348.776 271.44 345.998 265.856 345.998 265.856C345.998 265.856 345.53 264.286 346.685 263.378C347.84 262.471 348.558 261.877 348.558 261.877C348.558 261.877 347.965 260.656 349.057 260.063C350.15 259.469 351.398 258.806 351.398 258.806L352.928 258.702L352.303 258.004L355.675 254.688L356.486 255.491C356.486 255.491 364.54 246.522 365.476 243.346C366.35 240.344 366.693 236.75 367.224 229.525C367.474 226.035 367.599 223.104 367.661 221.08C368.004 219.963 368.691 218.323 369.971 216.682C370.876 215.531 371.813 214.728 372.562 214.204C372.562 214.204 373.404 210.924 375.933 209.842C376.026 209.982 376.12 210.226 376.151 210.54C376.183 211.238 375.683 211.761 375.589 211.901C375.152 212.425 374.778 214.065 375.184 219.055C375.621 219.823 376.183 220.591 376.963 221.289C378.399 222.58 380.865 223.697 386.015 223.558C392.57 221.917 396.441 218.672 398.47 216.543C401.373 213.541 404.244 209.004 403.495 207.957C403.308 207.678 402.996 207.783 401.747 207.608C400.436 207.399 399.406 207.085 398.688 206.806C398.407 204.747 398.158 202.688 397.877 200.628C397.877 200.628 401.591 201.326 403.62 202.583L404.744 203.944C404.744 203.944 409.676 206.212 413.016 208.69C416.387 211.168 417.417 214.135 417.417 214.135L417.511 221.219C417.511 221.219 420.413 224.535 422.318 228.548C424.222 232.527 425.97 236.505 426.219 238.739C426.469 240.938 428.873 249.663 429.154 251.687C429.466 253.711 430.496 264.6 430.496 265.263L431.401 265.018L431.495 271.3L430.87 271.545C430.87 271.545 431.713 272.627 431.932 275.314C432.15 278.001 431.776 282.992 431.776 282.992C431.776 282.992 427.718 286.063 420.726 282.887L420.944 279.327L418.385 279.083C418.385 279.083 417.76 275.977 419.508 274.895C421.256 273.813 421.256 273.813 421.256 273.813L421.35 271.859L419.914 271.405L419.508 265.472L420.632 265.926C420.632 265.926 418.385 250.814 414.576 244.672C414.67 245.021 415.045 246.871 414.108 248.336C413.858 248.755 413.515 249.244 412.953 249.453C412.61 249.558 412.391 249.523 411.112 249.663C410.737 249.697 410.487 249.732 410.425 249.907C410.331 250.151 410.737 250.535 410.831 250.605C411.174 251.408 411.455 252.106 411.673 252.664C412.86 255.665 412.547 255.316 412.766 255.665C412.828 255.77 413.016 256.049 412.984 256.363C412.984 256.712 412.828 256.957 412.703 257.096Z" fill="white"/>
<path d="M398.687 206.876L403.494 208.027C403.494 208.167 403.494 208.411 403.494 208.655C403.4 210.505 402.401 211.796 401.246 213.227C399.467 215.461 398.562 216.543 397.625 217.485C396.314 218.741 394.847 220.172 392.538 221.394C390.758 222.336 389.166 222.79 388.043 222.999C385.202 223.837 382.892 223.627 381.55 223.383C379.646 223.034 377.742 222.72 376.275 220.94C376.025 220.626 374.745 219.021 374.589 216.682C374.527 215.391 374.839 214.309 375.12 213.297C375.12 213.297 375.276 212.774 376.244 210.191L374.496 204.014C374.496 204.014 369.439 185.517 372.061 180.422C374.683 175.326 377.898 172.429 385.951 172.918C393.849 173.407 395.784 185.377 395.784 185.377L398.687 206.876Z" fill="white"/>
<path d="M379.338 208.934C380.056 209.178 381.18 209.283 382.522 209.178C383.552 209.073 384.363 208.724 384.988 208.375" stroke="#551AF7" stroke-miterlimit="10"/>
<path d="M378.934 209.981C378.934 209.632 378.934 209.283 379.027 208.83C379.121 208.271 379.34 207.922 379.434 207.573" stroke="#551AF7" stroke-miterlimit="10"/>
<path d="M384.986 207.12C385.08 207.364 385.299 207.818 385.393 208.272C385.487 208.725 385.487 209.179 385.487 209.528" stroke="#551AF7" stroke-miterlimit="10"/>
<path d="M393.977 273.568H393.665L391.605 273.464L381.179 285.923L381.678 307.316V307.421C381.678 307.421 381.585 307.77 381.179 308.224C381.085 308.328 380.961 308.468 380.867 308.573C380.055 309.48 378.401 310.527 375.436 310.283C373.812 310.178 372.689 309.829 371.846 309.271C371.627 309.166 371.346 308.922 371.222 308.817C370.098 307.91 369.879 306.863 369.879 306.758C366.508 296.358 365.166 281.84 365.166 281.7V281.595V281.491C367.413 272.905 375.498 260.551 375.592 260.446" stroke="#551AF7" stroke-miterlimit="10"/>
<path d="M412.584 256.991C412.584 256.991 412.584 257.096 412.677 257.096C414.613 261.459 414.425 263.971 414.425 264.076C414.644 271.405 410.118 286.028 409.618 287.389L411.866 308.085C411.866 308.189 411.772 308.887 411.242 309.69C411.148 309.795 410.929 310.039 410.836 310.248C410.024 311.051 408.588 311.959 406.029 312.412C405.217 312.517 404.406 312.657 403.688 312.517C402.345 312.412 401.347 312.063 400.629 311.505C400.41 311.4 400.223 311.261 400.129 311.051C399.318 310.248 399.006 309.55 399.006 309.446L393.574 287.145L393.668 273.639V272.941V268.857" stroke="#551AF7" stroke-miterlimit="10"/>
<path d="M376.778 253.886C376.778 253.432 376.778 251.478 375.655 247.255C375.561 246.906 375.436 246.557 375.343 246.243C375.03 245.23 374.718 244.079 374.437 242.822C374.344 242.473 374.219 242.124 374.219 241.915C374.125 241.461 374 241.008 373.907 240.554C372.065 231.515 374.313 223.279 374.812 221.813" stroke="#551AF7" stroke-miterlimit="10"/>
<path d="M398.065 202.304C401.842 203.211 403.184 205.27 403.496 206.876C403.809 208.027 403.59 209.388 402.997 210.435C401.155 213.646 394.507 224.046 383.675 223.593C383.457 223.593 383.363 223.593 383.176 223.593C379.274 223.348 376.59 222.057 375.497 219.719C373.562 215.845 376.121 210.68 376.215 210.47" stroke="#551AF7" stroke-miterlimit="10"/>
<path d="M397.445 196.93L397.851 200.699L397.944 201.397L398.038 202.304L398.131 203.107L398.631 206.876L398.725 207.679H398.412C394.948 207.923 393.918 214.868 393.918 214.868V215.112L393.699 215.217C389.11 216.927 385.708 217.381 383.273 217.276C381.432 217.172 380.214 216.718 379.278 216.264C378.248 215.706 377.655 214.903 377.218 214.449C376.999 214.205 376.906 213.996 376.906 213.751C376.906 213.647 376.906 213.647 376.906 213.647L376.406 211.483L376.188 210.785L376.094 210.541L375.876 209.843L374.658 204.363V204.259" stroke="#551AF7" stroke-miterlimit="10"/>
<path d="M397.973 200.698C398.192 200.698 402.156 200.943 404.31 203.56C404.403 203.665 404.528 203.909 404.716 204.014C404.934 204.363 405.121 204.712 405.215 205.026C405.621 205.933 405.714 207.085 405.714 208.237C405.714 208.481 405.621 208.795 405.621 209.039C405.621 209.284 405.527 209.493 405.402 209.737C403.561 215.81 393.853 225.861 384.333 225.617C384.02 225.617 383.708 225.617 383.427 225.617C378.527 225.268 376.373 223.662 375.343 222.196C375.124 221.952 375.031 221.638 374.937 221.394C374.531 220.591 374.531 219.893 374.531 219.893L374.75 216.473" stroke="#551AF7" stroke-miterlimit="10"/>
<path d="M403.501 208.027L399.006 207.12" stroke="#551AF7" stroke-miterlimit="10"/>
<path d="M374.249 241.985C373.936 241.741 369.754 238.321 370.565 224.256C370.784 220.592 371.283 217.835 371.907 215.811C372.001 215.357 372.22 215.008 372.313 214.659C373.655 210.89 375.372 210.087 376.09 209.843" stroke="#551AF7" stroke-miterlimit="10"/>
<path d="M375.937 220.522C375.843 219.37 375.656 214.903 376.998 213.751" stroke="#551AF7" stroke-miterlimit="10"/>
<path d="M396.537 218.323C397.161 210.889 401.032 208.132 401.032 207.818" stroke="#551AF7" stroke-miterlimit="10"/>
<path d="M411.458 213.192L405.621 209.319" stroke="#551AF7" stroke-miterlimit="10"/>
<path d="M356.549 255.49C357.891 253.989 363.104 248.056 365.351 243.694C366.974 240.622 367.193 233.747 367.287 228.373C367.38 225.057 367.38 222.195 367.786 220.695C368.691 217.135 371.376 215.076 372.094 214.517C372.187 214.413 372.593 214.168 372.593 214.168" stroke="#551AF7" stroke-miterlimit="10"/>
<path d="M375.655 247.254C373.814 254.687 363.794 263.622 362.982 264.285" stroke="#551AF7" stroke-miterlimit="10"/>
<path d="M363.388 265.438C363.294 265.089 363.076 264.74 362.982 264.426C362.888 264.181 362.764 263.972 362.67 263.728C361.047 260.168 358.487 257.306 357.051 255.945C356.833 255.701 356.739 255.596 356.552 255.491C356.24 255.142 355.928 254.933 355.928 254.933L355.709 254.689L352.338 258.004L352.556 258.248C352.65 258.353 352.869 258.597 352.962 258.702C353.181 259.051 353.462 259.261 353.68 259.505C356.552 262.82 358.081 265.438 358.893 267.043C358.987 267.288 359.111 267.392 359.111 267.602C359.424 268.16 359.517 268.509 359.517 268.509L359.736 268.963L363.388 265.438Z" stroke="#551AF7" stroke-miterlimit="10"/>
<path d="M353.054 259.155L352.648 258.701H352.024C351.805 258.701 351.618 258.701 351.4 258.806L349.059 260.062C348.746 260.167 348.559 260.516 348.434 260.865C348.309 261.214 348.341 261.668 348.528 261.877L348.622 262.121L348.934 262.819L350.37 265.576C350.588 266.03 350.994 266.274 351.275 266.274C351.493 266.274 351.681 266.274 351.899 266.17L353.741 265.018C354.053 264.774 354.24 264.564 354.365 264.215C354.365 263.657 354.365 263.308 354.147 262.959L352.305 259.399L353.054 259.155Z" stroke="#551AF7" stroke-miterlimit="10"/>
<path d="M359.298 267.601C358.08 269.765 355.115 271.964 352.743 273.534C352.337 273.778 351.838 273.988 351.307 273.883C351.088 273.883 350.995 273.883 350.808 273.778C350.183 273.534 349.59 273.08 349.278 272.417L346.313 266.694C346 265.996 345.907 265.193 346.094 264.53C346.313 263.832 346.718 263.169 347.312 262.82L348.654 261.878L348.747 261.773" stroke="#551AF7" stroke-miterlimit="10"/>
<path d="M414.955 218.322C414.955 218.218 415.361 216.612 414.643 215.112C414.144 214.099 413.207 213.401 411.99 213.052H411.896L411.803 213.157C411.803 213.157 411.709 213.262 411.397 213.401C411.303 213.506 411.085 213.646 410.991 213.75C408.65 215.356 402.095 220.73 401.065 229.525C400.847 231.34 400.971 233.085 401.284 234.655C401.284 234.9 401.377 235.109 401.502 235.353C401.908 237.064 402.626 238.669 403.437 239.925C403.531 240.17 403.749 240.379 403.843 240.623C404.748 242.229 406.403 244.288 408.962 245.544C409.368 245.788 409.68 245.893 410.086 245.998C410.18 244.288 410.398 242.578 410.492 240.868C409.992 240.309 409.368 239.611 408.869 239.053C408.369 238.355 407.963 237.796 407.433 237.098C406.528 235.388 405.591 232.98 405.685 230.223C405.778 226.349 407.839 222.545 411.834 219.125C412.24 218.776 412.958 218.427 413.894 218.322C414.238 218.322 414.643 218.322 414.955 218.322Z" stroke="#551AF7" stroke-miterlimit="10"/>
<path d="M414.953 218.323C415.453 218.777 416.077 219.579 416.888 220.487C417.107 220.731 417.294 220.94 417.513 221.289C420.384 224.954 424.474 231.131 426.222 238.774V238.879" stroke="#551AF7" stroke-miterlimit="10"/>
<path d="M428.032 246.696C428.032 246.801 428.125 246.94 428.125 247.045C429.749 252.768 430.373 263.273 430.467 265.472C430.467 265.716 430.467 265.821 430.467 265.821V266.065L430.248 266.17C429.936 266.275 429.53 266.414 429.218 266.519C428.406 266.763 427.595 266.868 426.752 266.973C425.847 267.077 425.004 267.077 424.192 266.973C422.351 266.868 420.915 266.519 420.821 266.519L420.509 266.414L420.603 266.065C420.603 266.065 420.603 266.065 420.603 265.961C420.603 265.716 420.509 265.158 420.197 263.901C419.791 262.087 419.073 258.876 417.637 252.908C416.826 249.697 415.702 247.08 414.578 245.021C414.485 244.776 414.36 244.567 414.173 244.462C411.831 240.693 409.147 238.739 407.93 238.041" stroke="#551AF7" stroke-miterlimit="10"/>
<path d="M409.928 245.091L410.334 250.361" stroke="#551AF7" stroke-miterlimit="10"/>
<path d="M414.642 244.742L414.548 247.15C414.454 248.651 413.331 249.768 411.988 249.768L410.365 249.663" stroke="#551AF7" stroke-miterlimit="10"/>
<path d="M404.715 204.014C406.463 204.816 417.294 210.086 417.513 214.867C417.731 218.881 417.606 220.696 417.513 221.289C417.513 221.394 417.513 221.533 417.513 221.533" stroke="#551AF7" stroke-miterlimit="10"/>
<path d="M431.404 265.088L430.999 265.193C430.78 265.193 430.687 265.298 430.499 265.298C430.093 265.402 429.688 265.542 429.282 265.647H429.188C428.377 265.891 427.565 265.996 426.722 266.1C423.757 266.449 421.603 265.996 420.573 265.751C420.167 265.647 419.949 265.647 419.949 265.647L419.543 265.542L419.949 271.475L420.167 271.579C420.573 271.684 420.979 271.824 421.385 271.928C421.603 271.928 421.79 272.033 422.009 272.033C422.82 272.138 423.632 272.277 424.475 272.382C427.128 272.487 429.188 272.138 430.312 271.824C430.624 271.719 430.811 271.719 430.936 271.579C431.155 271.475 431.248 271.475 431.342 271.475L431.561 271.37L431.404 265.088Z" fill="white" stroke="#551AF7" stroke-miterlimit="10"/>
<path d="M430.996 271.265C430.996 271.265 430.996 271.37 431.09 271.509C431.402 272.417 432.713 276.639 431.901 282.817V282.921L431.808 283.026C431.714 283.131 430.278 284.631 426.595 284.387C425.065 284.282 423.224 283.933 420.976 283.026L420.758 282.921L420.976 279.362V278.664L421.288 274.65L421.382 273.847L421.476 271.788V271.544" stroke="#551AF7" stroke-miterlimit="10"/>
<path d="M421.194 279.397H420.976L418.416 279.153V278.804C418.416 275.035 420.351 274.128 421.288 273.883C421.506 273.779 421.694 273.779 421.694 273.779" stroke="#551AF7" stroke-miterlimit="10"/>
<path d="M392.446 199.337C392.446 198.884 392.353 188.134 389.075 184.714C388.357 183.912 387.452 183.563 386.516 183.702C381.802 184.156 374.436 185.308 372.188 185.657C371.876 185.657 371.689 185.761 371.564 185.761H371.47L370.128 187.122L369.223 188.03V188.134C369.223 188.588 368.599 199.233 372.906 203.909L373 204.014H373.094C373.187 204.014 373.905 204.014 374.935 204.014C375.154 204.014 375.341 204.014 375.653 204.014C378.837 204.014 384.362 203.665 387.92 202.059C388.014 202.059 390.48 201.257 392.415 199.442L392.446 199.337Z" fill="#41FFD1"/>
<path d="M392.446 199.337C392.446 198.884 392.353 188.134 389.075 184.714C388.357 183.912 387.452 183.563 386.516 183.702C381.802 184.156 374.436 185.308 372.188 185.657C371.876 185.657 371.689 185.761 371.564 185.761H371.47L370.128 187.122L369.223 188.03V188.134C369.223 188.588 368.599 199.233 372.906 203.909L373 204.014H373.094C373.187 204.014 373.905 204.014 374.935 204.014C375.154 204.014 375.341 204.014 375.653 204.014C378.837 204.014 384.362 203.665 387.92 202.059C388.014 202.059 390.48 201.257 392.415 199.442L392.446 199.337Z" stroke="#551AF7" stroke-miterlimit="10"/>
<path d="M372.596 189.146C374.843 188.588 385.987 186.18 387.11 189.042C388.546 193.055 389.452 200.943 389.452 201.292" stroke="#551AF7" stroke-miterlimit="10"/>
<path d="M371.471 185.97C371.471 185.725 370.847 181.502 373.407 177.838C375.248 175.081 378.307 173.371 382.303 172.917C394.071 171.312 395.819 185.272 395.819 185.376" stroke="#551AF7" stroke-miterlimit="10"/>
<path d="M370.131 187.331C369.819 186.319 368.508 179.793 371.567 174.768C373.627 171.452 376.998 169.498 381.805 168.939C386.393 168.381 390.202 169.498 392.948 172.255C397.537 176.827 397.974 184.156 397.974 185.168" stroke="#551AF7" stroke-miterlimit="10"/>
<path d="M399.597 185.272L399.504 185.028H399.285C399.285 185.028 398.88 185.028 397.943 185.132C397.725 185.132 397.35 185.272 397.132 185.272C396.726 185.272 396.289 185.237 395.789 185.377C395.571 185.377 395.384 185.551 395.196 185.551C394.697 185.656 394.166 185.621 393.636 185.83L393.417 185.935V186.179C393.323 186.528 391.794 193.718 395.477 197.173L395.571 197.277H395.664C395.758 197.277 396.164 197.277 396.695 197.173C396.913 197.173 397.1 197.068 397.319 197.068C398.13 196.824 399.16 196.51 400.191 195.707L400.284 195.602V195.498C400.534 195.218 401.658 190.542 399.597 185.272Z" fill="#41FFD1"/>
<path d="M399.596 185.272L399.502 185.028H399.283C399.283 185.028 394.164 185.586 393.665 185.83L393.446 185.935V186.179C393.353 186.528 391.823 193.718 395.506 197.173L395.6 197.277H395.694C395.787 197.277 396.193 197.277 396.724 197.173C396.942 197.173 397.13 197.068 397.348 197.068C398.16 196.824 399.19 196.51 400.22 195.707L400.314 195.602L400.407 195.428C400.407 195.393 400.438 195.393 400.438 195.358C400.719 194.834 401.593 190.367 399.596 185.272Z" stroke="#551AF7" stroke-miterlimit="10"/>
<path d="M396.724 192.148C395.194 189.39 396.505 185.621 396.505 185.412" stroke="#551AF7" stroke-miterlimit="10"/>
<path d="M410.741 309.934L411.146 309.376C411.146 309.376 411.146 309.376 411.24 309.481C411.74 309.934 413.581 312.552 413.082 319.776V320.02L408.306 323.65C406.371 325.151 404.123 326.163 401.876 326.512C400.752 326.756 399.41 326.861 397.974 326.756C395.726 326.651 393.385 325.953 391.232 324.348L391.138 324.243V324.139C391.138 323.894 390.639 319.218 393.073 316.147C394.291 314.646 396.039 313.843 398.192 313.738C398.505 313.738 398.817 313.738 399.223 313.738C399.316 313.738 399.441 313.738 399.628 313.738C399.847 313.738 404.529 313.843 406.183 317.298" stroke="#551AF7" stroke-miterlimit="10"/>
<path d="M381.306 308.224H381.618L382.649 318.171L382.43 318.275C382.43 318.275 378.747 319.881 374.345 321.591C372.004 322.498 368.009 323.406 364.513 323.196C361.953 323.092 359.612 322.289 358.489 320.579L358.395 320.474C358.395 320.369 357.49 316.705 359.019 313.739C359.924 312.028 361.36 310.981 363.42 310.423C365.574 309.865 367.197 309.969 368.446 310.528C368.758 310.632 368.945 310.772 369.258 310.877C371.411 312.133 371.911 314.541 371.911 314.541" stroke="#551AF7" stroke-miterlimit="10"/>
<path d="M368.1 310.597L368.412 310.493L371.377 308.992" stroke="#551AF7" stroke-miterlimit="10"/>
<path d="M397.848 313.913C397.848 313.913 397.941 313.808 398.066 313.808C398.69 313.25 399.908 311.993 400.22 311.051C400.22 311.051 400.22 310.946 400.22 310.807" stroke="#551AF7" stroke-miterlimit="10"/>
<path d="M384.77 245.195C380.993 244.951 378.121 241.182 378.34 236.749C378.558 232.317 381.805 228.967 385.488 229.211C389.265 229.455 392.137 233.225 391.918 237.552C391.824 241.984 388.547 245.439 384.77 245.195Z" stroke="#551AF7" stroke-miterlimit="10"/>
<path d="M400.627 234.691C401.033 234.586 401.251 234.586 401.657 234.446" stroke="#551AF7" stroke-miterlimit="10"/>
<path d="M391.916 235.354C392.54 235.354 394.07 235.354 394.694 235.354" stroke="#551AF7" stroke-miterlimit="10"/>
<path d="M373.406 232.492C373.406 232.492 375.654 233.504 378.713 234.097" stroke="#551AF7" stroke-miterlimit="10"/>
<path d="M401.033 240.379C402.063 240.135 402.656 240.03 403.593 239.821" stroke="#551AF7" stroke-miterlimit="10"/>
<path d="M391.232 241.182C392.262 241.182 393.48 241.182 394.604 241.182" stroke="#551AF7" stroke-miterlimit="10"/>
<path d="M373.625 238.564C373.625 238.564 375.966 239.367 378.651 240.065" stroke="#551AF7" stroke-miterlimit="10"/>
<path d="M374.124 287.389C372.782 287.843 371.471 287.948 370.441 287.843C369.317 287.738 368.506 287.494 368.381 287.494" stroke="#551AF7" stroke-miterlimit="10"/>
<path d="M402.562 290.6C401.22 291.054 399.909 291.158 398.879 291.054C397.755 290.949 396.943 290.705 396.818 290.705" stroke="#551AF7" stroke-miterlimit="10"/>
<path d="M390.605 268.997L391.823 273.36" stroke="#551AF7" stroke-miterlimit="10"/>
<path d="M429.376 245.091L428.034 239.716C427.94 239.367 427.722 239.018 427.41 238.809C427.098 238.565 426.786 238.565 426.38 238.704L426.161 238.809L425.537 239.053L425.318 239.158C424.694 239.402 424.288 240.065 424.507 240.763L424.819 242.264L423.695 244.323L425.631 244.777L426.13 246.138C426.349 246.696 426.754 247.045 427.254 247.045C427.347 247.045 427.472 247.045 427.472 247.045C427.566 247.045 427.691 247.045 427.784 246.941L428.097 246.836L428.502 246.592C429.158 246.557 429.564 245.754 429.376 245.091Z" fill="#41FFD1"/>
<path d="M429.376 245.091L428.034 239.716C427.94 239.367 427.722 239.018 427.41 238.809C427.098 238.565 426.786 238.565 426.38 238.704L426.161 238.809L425.537 239.053L425.318 239.158C424.694 239.402 424.288 240.065 424.507 240.763L424.819 242.264L423.695 244.323L425.631 244.777L426.13 246.138C426.349 246.696 426.754 247.045 427.254 247.045C427.347 247.045 427.472 247.045 427.472 247.045C427.566 247.045 427.691 247.045 427.784 246.941L428.097 246.836L428.502 246.592C429.158 246.557 429.564 245.754 429.376 245.091Z" stroke="#551AF7" stroke-miterlimit="10"/>
<path d="M382.021 315.658C381.928 315.763 378.245 317.961 370.659 319.776C368.412 320.335 366.352 320.474 364.635 320.335C360.64 320.09 358.08 318.52 357.986 318.38" stroke="#551AF7" stroke-miterlimit="10"/>
<path d="M413.114 317.368C413.02 317.473 411.366 319.183 404.717 322.638C402.563 323.79 400.409 323.999 398.474 323.894C394.385 323.65 391.201 321.591 391.107 321.591" stroke="#551AF7" stroke-miterlimit="10"/>
<path d="M398.473 264.076C398.379 264.076 398.254 264.076 398.161 264.076C397.755 264.076 397.443 264.181 397.037 264.181C394.571 264.425 392.23 264.425 389.889 264.285C387.735 264.181 385.3 264.041 383.146 263.378" stroke="#551AF7" stroke-miterlimit="10"/>
<path d="M380.683 262.819C380.59 262.819 380.465 262.714 380.371 262.714C377.312 261.702 375.658 260.655 375.564 260.655L375.346 260.55L375.658 254.373C375.658 254.024 375.876 253.815 376.064 253.57C376.157 253.466 376.376 253.466 376.563 253.466C376.657 253.466 376.782 253.466 376.875 253.57C376.969 253.57 377.094 253.675 377.187 253.675C378.217 254.233 379.435 254.687 380.871 255.176C380.964 255.176 381.183 255.28 381.276 255.28" stroke="#551AF7" stroke-miterlimit="10"/>
<path d="M383.742 255.735C387.332 256.537 390.609 256.747 390.703 256.747C393.169 256.991 395.51 256.851 397.57 256.747" stroke="#551AF7" stroke-miterlimit="10"/>
<path d="M403.377 255.735C403.471 255.735 403.595 255.63 403.689 255.63C407.591 254.129 409.12 251.966 409.713 250.814L409.807 250.709C409.901 250.465 410.119 250.36 410.431 250.465C410.744 250.465 410.931 250.709 411.056 250.919L412.991 256.293V256.398C412.991 256.398 412.897 256.642 412.679 257.096C412.585 257.34 412.46 257.55 412.273 257.794C411.243 259.155 409.214 261.354 404.813 262.819C404.719 262.819 404.719 262.819 404.594 262.924" stroke="#551AF7" stroke-miterlimit="10"/>
<path d="M403.813 264.076L399.506 264.878C399.194 264.878 399.006 264.774 398.882 264.425L397.758 256.293C397.758 255.944 397.851 255.735 398.164 255.595L402.471 254.792H402.565C402.658 254.792 402.783 254.792 402.877 254.897C402.971 255.002 403.095 255.141 403.095 255.246L404.219 263.378C404.219 263.727 404.001 264.076 403.813 264.076Z" stroke="#551AF7" stroke-miterlimit="10"/>
<path d="M382.837 263.727C382.837 264.076 382.431 264.285 382.119 264.285L381.089 264.181C380.996 264.181 380.683 264.076 380.683 263.936C380.59 263.832 380.59 263.692 380.59 263.483L381.308 254.339C381.308 253.99 381.714 253.781 381.932 253.781L382.962 253.885C383.056 253.885 383.368 253.99 383.368 254.13C383.462 254.234 383.462 254.374 383.462 254.583L382.837 263.727Z" stroke="#551AF7" stroke-miterlimit="10"/>
<path d="M378.219 254.339L377.812 261.772" stroke="#551AF7" stroke-miterlimit="10"/>
<path d="M386.708 256.643L386.488 263.623" stroke="#551AF7" stroke-miterlimit="10"/>
<path d="M390.924 257.201V263.937" stroke="#551AF7" stroke-miterlimit="10"/>
<path d="M395.199 257.445V264.18" stroke="#551AF7" stroke-miterlimit="10"/>
<path d="M405.219 255.246L406.748 261.772" stroke="#551AF7" stroke-miterlimit="10"/>
<path d="M408.184 253.083L410.119 259.504" stroke="#551AF7" stroke-miterlimit="10"/>
<path d="M387.95 173.477L384.86 178.398C384.36 179.2 383.518 179.759 382.706 179.759L378.711 180.108C378.492 180.108 378.399 180.108 378.305 180.108C377.087 180.003 376.057 179.2 375.652 177.804L375.027 175.85" stroke="#551AF7" stroke-miterlimit="10"/>
<path d="M397.661 242.334C397.567 242.439 397.349 242.579 397.255 242.579L395.632 242.683C395.413 242.683 395.32 242.683 395.226 242.439C395.132 242.334 395.007 242.09 395.007 241.985L394.695 235.005C394.695 234.656 394.914 234.307 395.32 234.203L396.849 234.098H396.943C397.036 234.098 397.255 234.203 397.349 234.342C397.442 234.447 397.567 234.691 397.567 234.796L397.973 241.776C397.848 241.985 397.754 242.125 397.661 242.334Z" stroke="#551AF7" stroke-miterlimit="10"/>
<path d="M400.314 241.984L399.097 242.229C399.003 242.229 399.003 242.229 398.878 242.124C398.785 242.019 398.66 241.775 398.66 241.566L398.254 234.586C398.254 234.132 398.472 233.783 398.66 233.783L399.877 233.539H399.971C400.064 233.539 400.064 233.539 400.189 233.643C400.283 233.748 400.408 233.992 400.408 234.202L400.813 241.182C400.72 241.635 400.533 241.984 400.314 241.984Z" stroke="#551AF7" stroke-miterlimit="10"/>
<path d="M403.903 315.065C403.403 314.82 402.373 315.518 401.968 315.763C401.343 316.112 400.937 317.019 400.844 317.717C400.625 318.869 399.626 319.671 398.596 319.532L395.943 319.427C395.319 319.427 394.726 319.078 394.32 318.415C393.914 317.857 393.821 317.054 393.914 316.356C394.32 314.646 395.662 314.052 396.38 313.948" stroke="#551AF7" stroke-miterlimit="10"/>
<path d="M370.972 312.656C369.443 312.412 366.883 313.215 365.853 314.017C364.948 314.82 363.793 315.169 362.576 315.169C362.264 315.169 361.951 315.064 361.764 315.064L358.705 314.262" stroke="#551AF7" stroke-miterlimit="10"/>
<path d="M386.514 236.644C386.732 236.958 386.826 237.377 386.826 237.761C386.826 238.145 386.701 238.564 386.514 238.878L386.951 239.262C387.232 238.843 387.388 238.32 387.388 237.796C387.388 237.238 387.232 236.679 386.919 236.26L386.67 236.505L386.514 236.644Z" fill="#23FFC9"/>
<path d="M387.326 239.577L385.859 238.32C385.953 238.181 386.015 237.971 386.047 237.797C386.047 237.587 386.015 237.413 385.922 237.238L386.608 236.54L387.326 235.772C387.389 235.738 387.389 235.633 387.326 235.598L387.233 235.493C386.702 234.9 386.015 234.551 385.266 234.516V234.062C385.266 234.028 385.266 233.993 385.266 233.958C385.266 233.923 385.235 233.888 385.235 233.888C385.235 233.888 385.204 233.853 385.173 233.818C385.141 233.818 385.11 233.783 385.11 233.783C385.11 233.783 385.048 233.783 385.048 233.818C385.017 233.818 384.985 233.853 384.985 233.888C384.985 233.923 384.954 233.923 384.954 233.958C384.954 233.993 384.954 234.028 384.954 234.062V234.516C384.767 234.551 384.611 234.586 384.423 234.621V234.062C384.423 234.028 384.423 233.993 384.423 233.958C384.423 233.923 384.392 233.888 384.392 233.888C384.361 233.853 384.361 233.853 384.33 233.818C384.299 233.818 384.267 233.783 384.267 233.783C384.267 233.783 384.205 233.783 384.205 233.818C384.174 233.818 384.143 233.853 384.143 233.888C384.143 233.923 384.111 233.923 384.111 233.958C384.111 233.993 384.111 234.028 384.111 234.062V234.795C383.518 235.109 383.019 235.633 382.707 236.261C382.395 236.924 382.301 237.657 382.457 238.39C382.582 239.123 382.925 239.751 383.456 240.24C383.955 240.728 384.611 240.973 385.266 241.007H387.389C387.451 241.007 387.514 240.938 387.514 240.868V239.681C387.358 239.646 387.358 239.611 387.326 239.577ZM385.173 240.414C384.642 240.414 384.143 240.205 383.737 239.856C383.331 239.507 383.019 238.983 382.894 238.425C382.769 237.866 382.8 237.273 382.988 236.715C383.206 236.191 383.549 235.738 383.986 235.423V236.296C383.986 236.331 383.986 236.366 383.986 236.401C383.986 236.436 384.018 236.47 384.018 236.47C384.018 236.47 384.049 236.505 384.08 236.54C384.111 236.54 384.143 236.575 384.143 236.575C384.143 236.575 384.205 236.575 384.205 236.54C384.236 236.54 384.267 236.505 384.267 236.47C384.299 236.436 384.299 236.436 384.299 236.401C384.299 236.366 384.299 236.331 384.299 236.296V235.214C384.548 235.109 384.829 235.04 385.11 235.04C385.61 235.04 386.109 235.214 386.546 235.563C386.577 235.598 386.577 235.633 386.546 235.668L385.422 236.819C385.329 236.785 385.204 236.75 385.11 236.75C384.985 236.75 384.86 236.785 384.767 236.819C384.673 236.854 384.548 236.959 384.486 237.064C384.392 237.168 384.33 237.308 384.299 237.413C384.267 237.552 384.267 237.692 384.267 237.832C384.299 237.971 384.33 238.111 384.392 238.215C384.455 238.32 384.548 238.425 384.642 238.495C384.736 238.564 384.86 238.634 384.985 238.634C385.11 238.669 385.235 238.634 385.36 238.599L386.796 239.821C386.796 239.821 386.827 239.856 386.827 239.891V240.309C386.827 240.344 386.796 240.379 386.765 240.379L385.173 240.414ZM385.516 237.762C385.516 237.832 385.485 237.901 385.454 237.971C385.422 238.041 385.36 238.076 385.297 238.111C385.235 238.146 385.173 238.146 385.11 238.146C385.048 238.146 384.985 238.111 384.923 238.041C384.86 237.971 384.829 237.936 384.829 237.832C384.829 237.727 384.829 237.692 384.86 237.622C384.892 237.552 384.923 237.483 384.985 237.448C385.048 237.413 385.11 237.378 385.173 237.378C385.266 237.378 385.36 237.413 385.422 237.483C385.485 237.552 385.516 237.657 385.516 237.762Z" fill="#0E0333"/>
<path d="M327.016 271.147C325.732 269.739 325.712 267.434 326.972 265.998L337.56 253.932C338.819 252.496 340.881 252.474 342.165 253.883L360.471 273.962C361.755 275.371 361.774 277.676 360.515 279.111L349.927 291.178C348.667 292.613 346.606 292.635 345.322 291.227L327.016 271.147Z" fill="white"/>
<path fill-rule="evenodd" clip-rule="evenodd" d="M337.909 254.314L327.321 266.381C326.25 267.601 326.267 269.56 327.358 270.757L345.664 290.837C346.755 292.034 348.508 292.015 349.578 290.795L360.166 278.729C361.237 277.509 361.22 275.549 360.129 274.352L341.823 254.272C340.732 253.075 338.979 253.094 337.909 254.314ZM326.972 265.998C325.712 267.434 325.732 269.739 327.016 271.147L345.322 291.227C346.606 292.635 348.667 292.613 349.927 291.178L360.515 279.111C361.774 277.676 361.755 275.371 360.471 273.962L342.165 253.883C340.881 252.474 338.819 252.496 337.56 253.932L326.972 265.998Z" fill="#8C65F7"/>
<path d="M328.584 270.202C327.942 269.498 327.932 268.346 328.562 267.628L338.962 255.777C339.591 255.059 340.622 255.048 341.264 255.752L358.757 274.94C359.399 275.644 359.408 276.796 358.779 277.514L348.379 289.365C347.75 290.083 346.719 290.094 346.077 289.39L328.584 270.202Z" fill="#FCFAFF"/>
<path fill-rule="evenodd" clip-rule="evenodd" d="M339.31 256.159L328.911 268.01C328.47 268.513 328.477 269.32 328.926 269.813L346.419 289C346.868 289.493 347.59 289.485 348.031 288.983L358.43 277.132C358.871 276.629 358.864 275.822 358.415 275.329L340.922 256.142C340.473 255.649 339.751 255.657 339.31 256.159ZM328.562 267.628C327.932 268.346 327.942 269.498 328.584 270.202L346.077 289.39C346.719 290.094 347.75 290.083 348.379 289.365L358.779 277.514C359.408 276.796 359.399 275.644 358.757 274.94L341.264 255.752C340.622 255.048 339.591 255.059 338.962 255.777L328.562 267.628Z" fill="#8C65F7"/>
<path d="M488.841 155.298C488.841 155.298 489.098 155.757 489.611 157.104V157.076C489.687 157.104 496.484 160.832 500.792 167.829L501.1 167.857H501.664C502.075 167.829 502.177 168.144 502.203 168.603L502.408 171.872C502.408 172.101 502.383 172.388 502.254 172.589C502.126 172.789 501.947 172.875 501.741 172.933L501.049 172.99C500.459 174.252 498.382 178.926 493.791 183.026L489.79 186.352L489.841 188.618C490.149 188.532 490.636 188.446 490.893 188.646C491.201 188.876 491.585 189.134 491.534 189.535L491.508 192.317C491.508 193.062 491.201 193.75 490.662 194.18L489.662 211.643C489.662 211.787 489.687 215.342 488.046 218.238L488.251 218.267L486.533 232.69L486.225 233.235C486.918 233.379 488.61 233.665 490.739 234.009C492.175 234.239 493.278 234.956 493.996 236.045C495.33 238.081 494.945 240.805 494.894 240.92L494.868 241.149H478.788V234.44L479.301 233.608L478.916 232.948L478.429 220.934L477.864 220.504V220.36C477.864 220.274 478.608 211.385 476.12 206.482C474.505 209.321 472.196 213.909 470.888 218.898L470.863 219.041L470.683 219.07L470.76 219.099C470.735 219.185 468.76 226.325 468.247 235.787C468.349 235.873 468.452 235.988 468.555 236.103C469.555 237.221 469.991 238.941 469.991 241.924V242.21H457.809V241.981C457.809 241.838 457.783 238.798 459.578 236.647C459.784 236.418 459.963 236.103 460.219 235.931L459.322 234.64V234.554C459.322 234.526 459.04 228.504 459.989 217.321L459.578 216.977V216.69C460.066 207.084 461.117 199.629 461.322 197.937C461.04 197.908 460.963 197.851 460.809 197.65C460.604 197.421 460.348 197.134 460.348 196.79L460.117 193.894C460.117 193.55 460.245 193.234 460.476 193.005C460.604 192.861 460.835 192.718 461.04 192.661L460.963 191.657L458.783 190.682C457.783 190.281 457.039 189.392 456.911 188.216L455.783 178.524L452.577 185.091C452.654 185.177 452.705 185.291 452.782 185.377L453.064 186.008C453.269 186.524 453.038 186.811 452.602 187.098L449.422 189.22C449.294 189.334 449.115 189.363 448.935 189.363C448.858 189.363 448.73 189.478 448.679 189.449C448.422 189.363 448.345 189.334 448.191 189.105L447.832 188.36C447.807 188.274 447.755 188.073 447.755 187.958L437.599 183.169C437.394 183.083 437.189 183.026 437.138 182.768V182.797L434.316 181.707L433.496 182.08L429.777 181.592C429.418 181.564 429.11 181.392 428.931 181.076C428.725 180.761 428.648 180.417 428.725 180.015L429.52 175.628C429.572 175.685 429.828 171.757 430.957 170.811C431.418 170.409 434.188 172.044 434.188 172.044C434.47 171.929 435.291 171.556 435.573 171.7L439.984 173.936L440.01 173.908C440.266 173.707 440.523 173.707 440.805 173.822L445.857 176.746L454.962 159.083L456.475 157.879C456.449 157.735 456.398 157.563 456.398 157.42C456.424 156.99 456.449 156.445 456.834 156.187L458.399 155.47C458.706 155.269 459.245 155.154 459.553 155.326L461.887 154.896C462.015 155.126 460.579 152.688 461.348 150.882C462.169 148.903 465.195 147.498 465.323 147.756L485.199 149.42C489.534 152.172 488.841 155.298 488.841 155.298ZM493.688 170.381L491.508 169.262L491.355 173.248L493.688 170.381Z" fill="white"/>
<path d="M478.454 178.38C475.366 178.38 472.863 175.582 472.863 172.129C472.863 168.677 475.366 165.878 478.454 165.878C481.542 165.878 484.045 168.677 484.045 172.129C484.045 175.582 481.542 178.38 478.454 178.38Z" stroke="#551AF7" stroke-miterlimit="10"/>
<path d="M465.936 190.481C466.244 190.137 466.628 189.936 467.064 189.936L470.142 189.85C470.552 189.85 470.988 189.994 471.296 190.366C471.604 190.682 471.783 191.141 471.783 191.628V192.144V192.689L471.886 196.99V197.535V198.281C471.912 199.256 471.194 200.087 470.322 200.116L467.244 200.202H467.218C466.808 200.202 466.423 200.001 466.09 199.686C465.782 199.342 465.603 198.911 465.603 198.424V197.879V197.334L465.526 193.091V192.546V191.829C465.526 191.313 465.654 190.854 465.936 190.481Z" stroke="#551AF7" stroke-miterlimit="10"/>
<path d="M484.276 187.757C484.455 187.556 484.661 187.441 484.917 187.441L485.892 187.413C486.379 187.413 486.764 187.843 486.789 188.359L486.815 189.535L486.841 190.079L486.943 194.897V195.441L486.969 196.703C486.969 197.248 486.584 197.678 486.122 197.707L485.148 197.735H485.122C484.635 197.735 484.25 197.305 484.25 196.789L484.225 196.044V195.499L484.122 190.825V190.28L484.096 188.474C484.045 188.187 484.148 187.957 484.276 187.757Z" stroke="#551AF7" stroke-miterlimit="10"/>
<path d="M447.78 188.187L448.242 189.105C448.319 189.248 448.447 189.391 448.575 189.449C448.704 189.506 448.883 189.449 449.011 189.391L452.91 186.811C453.166 186.61 453.243 186.294 453.115 186.008L452.781 185.234C452.705 185.004 452.474 184.889 452.269 184.889C452.192 184.889 452.089 184.889 452.012 184.947L450.601 185.721L449.499 184.947L449.242 186.467L447.96 187.413C447.832 187.499 447.755 187.642 447.703 187.786C447.703 187.843 447.703 187.872 447.703 187.929C447.678 187.986 447.729 188.072 447.78 188.187Z" stroke="#551AF7" stroke-miterlimit="10"/>
<path d="M500.023 169.606V168.745C500.023 168.459 500.151 168.201 500.331 168.029C500.459 167.914 500.613 167.828 500.818 167.828H500.844L501.357 167.799C501.767 167.77 502.152 168.143 502.203 168.631L502.408 171.9C502.408 172.129 502.331 172.358 502.203 172.559C502.075 172.76 501.818 172.875 501.613 172.903L501.049 172.932H500.972H500.895C500.767 172.932 500.639 172.903 500.536 172.846C500.28 172.731 500.151 172.502 500.126 172.186L500.023 171.297L498.895 170.437L500.023 169.606Z" stroke="#551AF7" stroke-miterlimit="10"/>
<path d="M468.602 169.262C468.602 169.204 468.602 169.204 468.602 169.262C468.808 169.032 469.013 168.918 469.295 168.918H470.475C470.988 168.918 471.424 169.377 471.424 169.979V170.409V170.954L471.449 173.964V174.509V175.255C471.449 175.828 471.039 176.344 470.5 176.344H469.269C469.013 176.344 468.782 176.23 468.602 176.029C468.577 176 468.526 175.914 468.5 175.886C468.397 175.742 468.32 175.484 468.32 175.312V170.036C468.32 169.692 468.423 169.434 468.602 169.262Z" stroke="#551AF7" stroke-miterlimit="10"/>
<path d="M466.195 173.219L466.221 170.179V169.663C466.221 169.348 466.298 169.032 466.477 168.831L466.503 168.803C466.631 168.688 466.76 168.602 466.913 168.659L467.683 168.745C467.914 168.774 468.093 168.975 468.221 169.262C468.298 169.405 468.35 169.663 468.35 169.892V175.14C468.35 175.427 468.273 175.685 468.144 175.885C468.144 175.914 468.119 175.914 468.119 175.971C467.991 176.115 467.862 176.201 467.708 176.201H467.683L466.888 176.172C466.683 176.172 466.503 175.971 466.375 175.742C466.298 175.541 466.221 175.312 466.221 175.082L466.195 173.219Z" stroke="#551AF7" stroke-miterlimit="10"/>
<path d="M487.66 219.012C487.686 218.983 487.737 218.897 487.789 218.811C487.917 218.61 488.045 218.41 488.148 218.238C489.763 215.342 489.763 211.786 489.763 211.643L490.764 194.18V194.094" stroke="#551AF7" stroke-miterlimit="10"/>
<path d="M478.479 220.876L478.966 232.919L479.351 233.579L479.53 233.865H479.787L484.3 233.722H484.813L485.814 233.693H485.942L486.224 233.235L486.532 232.69L488.25 218.266L488.045 218.238" stroke="#551AF7" stroke-miterlimit="10"/>
<path d="M469.581 219.442L470.324 219.213L470.786 219.069L470.965 219.041L470.991 218.897C472.325 213.85 474.633 209.32 476.223 206.481C476.326 206.28 476.428 206.137 476.531 205.965C477.428 204.359 478.095 203.413 478.146 203.384" stroke="#551AF7" stroke-miterlimit="10"/>
<path d="M468.323 235.758C468.887 226.267 470.836 219.155 470.836 219.069L470.759 219.041" stroke="#551AF7" stroke-miterlimit="10"/>
<path d="M459.988 217.119V217.148C459.09 228.388 459.321 234.381 459.321 234.41V234.496L460.116 235.614L460.219 235.758" stroke="#551AF7" stroke-miterlimit="10"/>
<path d="M461.242 197.965C460.986 199.657 460.011 206.998 459.524 216.604L459.498 216.718L460.011 217.263L460.473 217.722L460.678 217.923" stroke="#551AF7" stroke-miterlimit="10"/>
<path d="M486.942 195.442C488.122 195.155 489.174 194.868 490.046 194.553C490.071 194.553 490.148 194.524 490.174 194.524C490.353 194.438 490.533 194.323 490.661 194.208C491.174 193.778 491.508 193.09 491.508 192.345L491.533 189.563C491.533 189.162 491.354 188.789 491.072 188.56C490.815 188.359 490.507 188.273 490.2 188.359C490.174 188.359 490.097 188.388 490.071 188.388C489.969 188.416 489.815 188.474 489.712 188.531C488.815 188.932 487.789 189.276 486.737 189.592" stroke="#551AF7" stroke-miterlimit="10"/>
<path d="M484.146 190.251C480.453 191.14 476.709 191.743 471.785 192.115" stroke="#551AF7" stroke-miterlimit="10"/>
<path d="M465.552 192.402C463.885 192.431 462.474 192.488 461.576 192.431H461.371C461.294 192.431 461.192 192.431 461.115 192.46C460.91 192.488 460.73 192.603 460.551 192.804C460.294 193.119 460.166 193.435 460.166 193.779V196.618C460.166 196.962 460.294 197.277 460.525 197.506C460.73 197.736 460.987 197.851 461.217 197.851C461.243 197.851 461.294 197.851 461.32 197.851H461.346C461.474 197.851 461.602 197.851 461.73 197.851C463.064 197.822 464.346 197.822 465.654 197.736" stroke="#551AF7" stroke-miterlimit="10"/>
<path d="M471.886 197.535C476.836 197.191 480.658 196.761 484.248 196.044" stroke="#551AF7" stroke-miterlimit="10"/>
<path d="M489.559 176.631L489.816 188.502V188.732" stroke="#551AF7" stroke-miterlimit="10"/>
<path d="M460.424 184.058L460.936 190.969L460.962 191.542L461.039 192.546" stroke="#551AF7" stroke-miterlimit="10"/>
<path d="M460.551 180.588L459.576 172.473C459.551 172.187 459.371 172.015 459.115 171.929C458.858 171.9 458.627 172.015 458.525 172.244L452.626 184.976" stroke="#551AF7" stroke-miterlimit="10"/>
<path d="M456.963 156.1L458.501 155.47C458.809 155.269 459.168 155.24 459.476 155.384C459.604 155.47 459.758 155.527 459.886 155.699C459.886 155.699 459.938 155.756 459.989 155.814C465.093 162.065 465.939 167.628 465.939 167.628C466.195 169.434 466.195 171.212 466.195 172.502C466.195 174.194 466.17 175.026 466.016 176.058C466.016 176.058 465.246 181.219 461.63 183.972C461.451 184.115 461.246 184.173 461.246 184.173C461.169 184.201 461.066 184.201 460.963 184.201H460.938C460.758 184.201 460.63 184.173 460.476 184.058C460.476 184.058 460.45 184.058 460.45 184.029C460.091 183.829 459.886 183.399 459.861 182.968L459.835 181.85C459.835 181.506 459.938 181.219 460.143 180.961C460.245 180.847 460.399 180.732 460.553 180.617C460.553 180.617 460.579 180.617 460.579 180.588C461.374 179.241 462.707 176.66 463.015 173.104C463.092 172.158 463.451 167.111 460.502 162.351C459.245 160.316 457.783 159.025 456.809 158.28C456.783 158.28 456.757 158.251 456.732 158.222C456.527 158.022 456.45 157.764 456.424 157.649C456.398 157.563 456.347 157.391 456.347 157.19C456.373 156.674 456.578 156.33 456.963 156.1Z" stroke="#551AF7" stroke-miterlimit="10"/>
<path d="M456.475 157.62L456.449 157.649L454.936 158.853L445.831 176.517" stroke="#551AF7" stroke-miterlimit="10"/>
<path d="M447.239 177.205L446.188 176.66L445.726 176.43L440.776 173.764C440.52 173.62 440.212 173.649 439.981 173.85L439.956 173.878C439.827 173.993 439.699 174.165 439.674 174.337C439.648 174.423 439.648 174.538 439.648 174.624C439.75 176.258 439.571 179.384 437.34 181.649C437.237 181.764 437.135 181.936 437.083 182.079C437.083 182.223 437.083 182.366 437.083 182.481C437.083 182.509 437.109 182.595 437.109 182.624C437.186 182.854 437.314 183.054 437.519 183.14L447.727 187.958" stroke="#551AF7" stroke-miterlimit="10"/>
<path d="M455.705 178.409L456.833 188.13C456.961 189.306 457.705 190.28 458.731 190.682L461.039 191.542" stroke="#551AF7" stroke-miterlimit="10"/>
<path d="M486.481 158.337C488.328 160.631 488.892 164.215 489.2 167.828C489.225 168.029 489.225 168.23 489.225 168.373C489.302 169.377 489.354 170.351 489.354 171.269C489.354 171.47 489.354 171.671 489.354 171.843C489.379 174.395 489.251 176.23 489.251 176.287L489.225 176.689L489.507 176.603L489.815 176.517L489.995 176.488L490.585 176.344L490.764 176.316L490.79 176.172C490.969 175.169 491.097 174.137 491.2 173.19C491.226 172.961 491.226 172.674 491.277 172.445C491.38 171.556 491.405 170.638 491.457 169.835C491.457 169.635 491.457 169.434 491.482 169.262C491.585 164.1 490.687 160.287 489.866 157.907C489.79 157.62 489.687 157.391 489.61 157.161C489.097 155.785 488.661 155.097 488.635 155.039L488.558 154.953L487.558 154.724" stroke="#551AF7" stroke-miterlimit="10"/>
<path d="M500.844 167.771C496.509 160.774 489.713 157.018 489.662 157.018V157.046" stroke="#551AF7" stroke-miterlimit="10"/>
<path d="M489.841 176.545C489.918 176.574 489.969 176.574 490.021 176.631C494.047 178.351 493.201 182.538 493.175 182.71L492.996 183.484L493.406 183.14L493.534 183.025C498.151 178.868 500.536 174.165 501.074 172.932" stroke="#551AF7" stroke-miterlimit="10"/>
<path d="M494.51 169.29L491.304 173.19" stroke="#551AF7" stroke-miterlimit="10"/>
<path d="M491.507 169.176L493.559 170.38" stroke="#551AF7" stroke-miterlimit="10"/>
<path d="M489.764 186.323L493.482 183.112" stroke="#551AF7" stroke-miterlimit="10"/>
<path d="M459.5 236.332C459.705 236.102 459.911 235.873 460.167 235.701C460.295 235.586 460.449 235.471 460.577 235.385C461.372 234.841 462.398 234.554 463.501 234.525C465.425 234.496 466.81 234.754 467.835 235.414C468.015 235.529 468.143 235.643 468.297 235.758C468.4 235.844 468.502 235.959 468.605 236.074C469.605 237.192 470.041 238.912 470.041 241.894V242.181H457.859V241.952C457.859 241.78 457.705 238.482 459.5 236.332Z" stroke="#551AF7" stroke-miterlimit="10"/>
<path d="M469.99 240.575H457.962" stroke="#551AF7" stroke-miterlimit="10"/>
<path d="M461.397 235.127L461.91 236.676C462.09 237.106 462.474 237.392 462.859 237.392H465.834C466.296 237.392 466.68 237.048 466.809 236.532L467.193 235.242" stroke="#551AF7" stroke-miterlimit="10"/>
<path d="M476.07 206.195C476.095 206.223 476.172 206.338 476.198 206.481C478.634 211.356 477.942 220.216 477.942 220.36V220.503L478.506 220.933L478.993 221.335L479.455 221.679" stroke="#551AF7" stroke-miterlimit="10"/>
<path d="M479.374 233.579L478.861 234.41V241.12H494.941L494.967 240.891C494.993 240.776 495.377 238.052 494.069 236.016C493.325 234.898 492.248 234.21 490.812 233.98C488.709 233.636 487.042 233.321 486.298 233.206" stroke="#551AF7" stroke-miterlimit="10"/>
<path d="M495.02 239.199H478.862" stroke="#551AF7" stroke-miterlimit="10"/>
<path d="M439.984 173.907L435.624 171.785C435.342 171.642 435.035 171.642 434.778 171.757C434.65 171.785 434.496 171.9 434.368 172.043C434.342 172.072 434.342 172.072 434.291 172.129C434.265 172.158 434.188 172.244 434.163 172.33L434.034 172.617L432.957 174.595C432.829 174.939 432.778 175.312 432.855 175.656C432.932 176 433.137 176.287 433.419 176.431L434.496 177.09H434.522C434.65 177.176 434.804 177.233 434.983 177.233C435.009 177.233 435.06 177.233 435.086 177.233C435.188 177.233 435.342 177.205 435.445 177.205C435.753 177.09 436.009 176.861 436.137 176.545L436.599 175.542" stroke="#551AF7" stroke-miterlimit="10"/>
<path d="M434.032 181.707L437.109 182.681" stroke="#551AF7" stroke-miterlimit="10"/>
<path d="M434.288 172.101L434.109 172.072L431.698 170.897C431.672 170.897 431.57 170.868 431.467 170.868C431.288 170.839 431.159 170.839 430.98 170.897C430.903 170.925 430.852 170.925 430.775 170.983C430.467 171.183 430.262 171.499 430.185 171.872L429.774 173.907L429.569 174.997L428.595 179.929C428.62 180.359 428.723 180.703 428.902 181.019C429.108 181.334 429.415 181.478 429.749 181.535L431.031 181.764L431.518 181.85L433.134 182.137C433.16 182.137 433.211 182.137 433.237 182.137C433.545 182.137 433.878 181.994 434.083 181.736C434.083 181.736 434.109 181.736 434.109 181.707C434.211 181.592 434.314 181.42 434.365 181.277C434.391 181.191 434.391 181.133 434.391 181.047L434.468 180.503L434.955 177.262V177.148" stroke="#551AF7" stroke-miterlimit="10"/>
<path d="M465.473 152.487L461.78 154.724L459.471 155.441" stroke="#551AF7" stroke-miterlimit="10"/>
<path d="M473.041 170.438C472.374 170.438 472.143 170.409 471.425 170.38" stroke="#551AF7" stroke-miterlimit="10"/>
<path d="M489.25 167.771C489.045 167.886 487.455 168.775 483.454 169.606" stroke="#551AF7" stroke-miterlimit="10"/>
<path d="M473.193 173.994C472.424 173.994 472.219 174.023 471.449 173.936" stroke="#551AF7" stroke-miterlimit="10"/>
<path d="M489.404 171.241C489.379 171.241 487.712 172.187 483.967 173.019" stroke="#551AF7" stroke-miterlimit="10"/>
<path d="M489.301 188.732V194.811" stroke="#551AF7" stroke-miterlimit="10"/>
<path d="M482.248 190.653V196.36" stroke="#551AF7" stroke-miterlimit="10"/>
<path d="M477.734 191.456V196.818" stroke="#551AF7" stroke-miterlimit="10"/>
<path d="M473.582 191.915V197.392" stroke="#551AF7" stroke-miterlimit="10"/>
<path d="M463.605 192.402V197.678" stroke="#551AF7" stroke-miterlimit="10"/>
<path d="M484.274 233.693L484.53 234.439C484.812 235.27 485.428 235.844 486.197 235.93L489.788 236.389C489.89 236.389 489.993 236.389 490.07 236.389C490.66 236.389 491.224 236.102 491.609 235.615L492.275 234.754" stroke="#551AF7" stroke-miterlimit="10"/>
<path d="M462.756 217.636C463.448 217.98 464.141 218.152 464.859 218.295C465.603 218.41 466.295 218.496 467.064 218.41" stroke="#551AF7" stroke-miterlimit="10"/>
<path d="M484.351 218.496C484.838 218.611 485.326 218.582 485.787 218.496C486.275 218.381 486.736 218.267 487.146 217.951" stroke="#551AF7" stroke-miterlimit="10"/>
<path d="M480.082 170.703C480.287 171.047 480.415 171.448 480.415 171.85C480.415 172.251 480.287 172.653 480.082 172.997L480.518 173.37C480.8 172.939 480.954 172.395 480.954 171.85C480.954 171.276 480.8 170.731 480.492 170.273L480.236 170.531L480.082 170.703Z" fill="#23FFC9"/>
<path d="M480.926 173.714L479.413 172.423C479.516 172.251 479.593 172.079 479.593 171.878C479.593 171.678 479.541 171.477 479.464 171.305L480.183 170.588L480.926 169.814C480.978 169.757 480.978 169.67 480.926 169.613L480.824 169.498C480.285 168.896 479.567 168.552 478.798 168.524V168.065C478.798 168.036 478.798 168.007 478.798 167.979C478.798 167.95 478.772 167.921 478.746 167.893C478.721 167.864 478.695 167.864 478.669 167.835C478.644 167.835 478.618 167.807 478.592 167.807C478.567 167.807 478.541 167.807 478.515 167.835C478.49 167.835 478.464 167.864 478.439 167.893C478.413 167.921 478.413 167.95 478.387 167.979C478.387 168.007 478.387 168.036 478.387 168.065V168.552C478.208 168.581 478.028 168.61 477.849 168.667V168.065C477.849 168.036 477.849 168.007 477.849 167.979C477.849 167.95 477.823 167.921 477.797 167.893C477.772 167.864 477.746 167.864 477.72 167.835C477.695 167.835 477.669 167.807 477.644 167.807C477.618 167.807 477.592 167.807 477.567 167.835C477.541 167.835 477.515 167.864 477.49 167.893C477.464 167.921 477.464 167.95 477.438 167.979C477.438 168.007 477.438 168.036 477.438 168.065V168.81C476.823 169.126 476.31 169.67 476.002 170.33C475.694 170.99 475.592 171.792 475.72 172.509C475.848 173.255 476.207 173.914 476.72 174.402C477.233 174.889 477.9 175.176 478.567 175.176H480.747C480.824 175.176 480.875 175.119 480.875 175.033V173.8C480.978 173.8 480.952 173.742 480.926 173.714ZM478.695 174.603C478.156 174.603 477.644 174.402 477.208 174.029C476.772 173.656 476.489 173.14 476.336 172.567C476.207 171.993 476.233 171.362 476.438 170.817C476.643 170.273 477.002 169.785 477.49 169.498V170.387C477.49 170.416 477.49 170.445 477.49 170.473C477.49 170.502 477.515 170.531 477.541 170.559C477.567 170.588 477.592 170.588 477.618 170.617C477.644 170.617 477.669 170.645 477.695 170.645C477.72 170.645 477.746 170.645 477.772 170.617C477.797 170.617 477.823 170.588 477.849 170.559C477.874 170.531 477.874 170.502 477.9 170.473C477.9 170.445 477.9 170.416 477.9 170.387V169.269C478.156 169.154 478.464 169.097 478.746 169.097C479.285 169.097 479.798 169.298 480.208 169.642C480.234 169.67 480.234 169.728 480.208 169.757L479.054 170.932C478.951 170.875 478.823 170.846 478.721 170.846C478.592 170.846 478.464 170.875 478.362 170.932C478.233 170.99 478.131 171.076 478.054 171.19C477.977 171.305 477.9 171.42 477.874 171.563C477.849 171.706 477.823 171.85 477.849 171.993C477.874 172.136 477.9 172.28 477.977 172.395C478.054 172.509 478.131 172.624 478.233 172.681C478.336 172.767 478.464 172.796 478.592 172.825C478.721 172.853 478.849 172.825 478.977 172.796L480.439 174.029C480.465 174.029 480.465 174.058 480.465 174.086V174.516C480.465 174.545 480.439 174.574 480.413 174.574L478.695 174.603ZM479.054 171.878C479.054 171.964 479.028 172.022 479.003 172.108C478.951 172.165 478.9 172.223 478.849 172.251C478.772 172.28 478.721 172.28 478.644 172.28C478.567 172.251 478.515 172.223 478.464 172.165C478.413 172.108 478.387 172.05 478.362 171.964C478.362 171.878 478.362 171.821 478.387 171.735C478.413 171.649 478.464 171.592 478.515 171.563C478.567 171.534 478.644 171.506 478.721 171.506C478.823 171.506 478.9 171.534 478.977 171.62C479.028 171.678 479.054 171.764 479.054 171.878Z" fill="#0E0333"/>
<path d="M484.477 157.477C484.913 156.674 484.785 155.699 484.657 155.068C484.734 152.86 485.067 148.215 485.401 143.771L486.35 143.857H486.555C487.683 143.857 488.709 142.882 488.76 141.62L489.094 136.975C489.094 136.286 488.966 135.713 488.555 135.168C488.222 134.738 487.837 134.509 487.606 134.423C487.427 134.394 487.222 134.394 487.042 134.365C486.734 134.337 486.478 134.279 486.221 134.222C486.221 134.222 486.606 128 482.605 123.928C482.272 123.584 477.937 120.028 472.936 121.892C468.756 123.469 466.191 129.003 465.935 133.591C465.576 133.562 465.217 133.734 464.858 133.706C464.447 133.792 464.063 133.763 463.729 134.079C463.319 134.537 463.062 135.139 463.062 135.799L462.678 140.444C462.678 141.792 463.652 143.14 464.858 143.226H465.807L465.55 152.516C466.114 152.832 466.653 153.147 467.217 153.491C467.781 153.864 468.936 154.724 469.756 156.359C470.423 157.678 470.577 158.882 470.628 159.57C473.731 159.714 476.27 159.628 478.117 159.513C482.528 159.197 483.041 160.058 484.477 157.477Z" fill="white"/>
<path d="M480.524 132.587C480.524 132.587 472.882 131.756 471.215 132.186C469.573 132.587 468.753 135.111 468.753 135.111C468.753 135.111 468.265 135.828 468.291 142.796C468.291 142.968 468.547 143.57 469.676 144C470.804 144.459 481.73 144.459 481.73 144.459C481.73 144.459 483.192 144.029 483.192 142.021C483.192 139.985 483.371 136 483.371 136L482.397 134.509L481.55 133.247L480.524 132.587Z" fill="#41FFD1"/>
<path d="M465.475 152.488L465.731 143.197L465.987 133.62V132.559C465.987 132.415 467.449 120.286 476.785 121.318C486.094 122.293 486.223 133.075 486.223 133.218C486.223 133.218 486.223 133.591 486.146 134.279C486.017 136.086 485.684 139.814 485.402 143.799C485.069 148.301 484.735 153.004 484.658 155.183V156.015C484.658 156.473 484.581 156.904 484.53 157.219C484.453 157.448 484.402 157.678 484.274 157.907C484.145 158.137 484.017 158.366 483.863 158.509C482.863 159.57 481.452 159.57 481.375 159.57H470.527V159.284C470.527 159.197 470.117 154.495 465.834 152.832L465.475 152.488Z" stroke="#551AF7" stroke-miterlimit="10"/>
<path d="M470.887 150.394C470.759 151.14 470.81 151.742 471.144 152.201C471.554 152.803 472.221 152.889 472.221 152.889H477.247C478.863 152.889 479.53 151.771 479.658 151.255" stroke="#551AF7" stroke-miterlimit="10"/>
<path d="M468.421 136.171C468.421 135.799 468.55 135.426 468.755 135.111C469.011 134.738 469.37 134.508 469.755 134.365C469.883 134.365 469.96 134.365 470.088 134.365H470.165L481.681 134.738C481.758 134.738 481.758 134.738 481.809 134.738C482.219 134.738 482.553 134.967 482.809 135.254C482.809 135.254 482.809 135.254 482.886 135.34C483.219 135.713 483.348 136.171 483.348 136.688L483.142 142.681C483.142 143.197 482.937 143.656 482.604 143.942C482.27 144.229 481.86 144.458 481.475 144.458H481.399L469.883 144C468.934 144 468.216 143.111 468.267 142.05L468.421 136.171Z" stroke="#551AF7" stroke-miterlimit="10"/>
<path d="M462.882 136.028C462.882 135.34 463.113 134.766 463.447 134.308C463.729 134.021 464.062 133.791 464.396 133.705C464.498 133.705 464.626 133.619 464.78 133.705H464.883H465.447H465.857L465.575 143.225H465.242H464.575C463.575 143.139 462.78 142.021 462.78 140.673L462.882 136.028Z" stroke="#551AF7" stroke-miterlimit="10"/>
<path d="M486.119 134.222H486.427L487.145 134.308H487.196C487.375 134.308 487.504 134.394 487.683 134.451C488.042 134.594 488.35 134.824 488.606 135.197C488.966 135.713 489.094 136.315 489.094 137.003L488.786 141.648C488.735 142.91 487.811 143.885 486.786 143.885C486.734 143.885 486.657 143.885 486.606 143.885L485.76 143.799H485.452L486.119 134.222Z" stroke="#551AF7" stroke-miterlimit="10"/>
<path d="M487.582 134.509C487.659 132.186 487.659 118.107 477.528 117.218C474.04 116.931 471.168 117.906 469.014 120.2C464.859 124.558 464.731 132.415 464.782 133.62V133.763" stroke="#551AF7" stroke-miterlimit="10"/>
<path d="M482.941 135.483L481.992 133.906C481.454 133.017 480.71 132.472 479.915 132.472L471.888 132.1C471.016 132.014 470.144 132.558 469.605 133.533L468.733 135.024" stroke="#551AF7" stroke-miterlimit="10"/>
<path d="M485.119 149.276C485.119 149.276 487.991 150.824 488.632 153.749C488.683 153.921 488.683 154.093 488.709 154.265C488.786 154.867 488.812 155.527 488.735 156.273C488.709 156.502 488.658 156.703 488.632 156.989C488.607 157.333 488.53 157.706 488.401 158.079C488.094 159.169 487.555 160.115 486.837 160.86C486.683 161.004 486.555 161.119 486.401 161.262C483.708 163.642 479.22 164.129 476.373 164.158C474.834 164.187 473.757 164.072 473.732 164.072C467.525 163.412 463.088 160.144 460.883 154.695C460.729 154.38 460.626 154.036 460.549 153.749C460.498 153.52 460.472 153.319 460.421 153.147C460.293 152.143 460.395 151.226 460.729 150.423C460.806 150.28 460.831 150.165 460.908 150.021C461.011 149.763 461.139 149.591 461.293 149.362C462.396 147.728 464.422 146.753 465.371 146.322C465.473 146.265 465.55 146.38 465.55 146.523L465.473 148.072C465.396 148.129 463.114 148.817 462.37 150.853C461.985 151.914 462.011 153.061 462.498 154.265C464.319 158.739 467.833 161.549 472.706 162.409C473.244 162.495 473.757 162.552 474.296 162.581C474.706 162.61 475.373 162.638 476.219 162.61C479.605 162.552 485.632 161.778 486.863 157.19C488.094 152.688 485.016 150.824 484.99 150.824L485.119 149.276Z" fill="white" stroke="#551AF7" stroke-miterlimit="10"/>
<path d="M469.68 161.577C469.603 160.631 469.295 158.079 467.525 155.785C466.371 154.323 465.089 153.549 464.32 153.176" stroke="#551AF7" stroke-miterlimit="10"/>
</svg>
