<svg width="489" height="250" viewBox="0 0 489 250" fill="none" xmlns="http://www.w3.org/2000/svg">
<path fill-rule="evenodd" clip-rule="evenodd" d="M236.527 39.706C237.66 40.5796 238.63 41.3317 239.227 41.8039C239.434 41.9672 239.6 42.1722 239.714 42.4042C239.827 42.6361 239.886 42.8893 239.885 43.1454L239.867 51.0323C239.813 51.3358 239.649 51.6114 239.403 51.8102C239.157 52.009 238.845 52.1181 238.523 52.1183H220.861C207.63 52.1183 196.604 41.7737 196.708 29.1314C196.776 20.9953 201.304 13.8758 208.072 9.89239V2.17178C208.072 1.87442 208.136 1.58023 208.26 1.30744C208.383 1.03464 208.564 0.789051 208.792 0.58589C209.019 0.38273 209.287 0.226325 209.581 0.12637C209.874 0.0264142 210.185 -0.0149627 210.496 0.00480327C211.703 0.0796412 212.617 1.08945 212.617 2.24595V7.81655C214.452 7.19621 216.36 6.79405 218.298 6.61915V2.17178C218.298 1.87441 218.362 1.58021 218.486 1.30741C218.61 1.03461 218.791 0.78903 219.018 0.585874C219.246 0.382718 219.514 0.226319 219.807 0.126367C220.1 0.026415 220.412 -0.0149607 220.722 0.00480327C221.93 0.0796412 222.843 1.08945 222.843 2.24595V6.61715C228.595 7.13669 233.753 9.60601 237.582 13.327C238.299 14.0234 238.969 14.763 239.587 15.5412C240.062 16.1385 239.955 16.5995 239.302 17.0156L236.656 19.0683C238.762 22.107 239.886 25.671 239.887 29.3164C239.895 33.0265 238.722 36.6496 236.527 39.706ZM233.032 37.0215C234.58 34.7248 235.404 32.0501 235.404 29.3164C235.404 26.5208 234.518 23.8667 233.055 21.6714L227.542 25.6559C228.177 26.7595 228.514 27.9964 228.525 29.2555C228.535 30.5146 228.218 31.7564 227.601 32.8693L227.779 33.0048C228.553 33.5957 230.733 35.2596 233.032 37.0215ZM235.342 47.775L235.366 44.5869L224.155 36.1003C223.044 36.6383 221.815 36.9181 220.57 36.9172C216.177 36.9172 212.616 33.5146 212.616 29.3167C212.616 25.1187 216.177 21.7161 220.57 21.7161C221.796 21.7148 223.006 21.9858 224.105 22.5077L233.382 15.5338C229.933 12.4688 225.652 10.858 220.57 10.858C217.826 10.856 215.114 11.4146 212.616 12.4964V19.5445C212.616 19.8418 212.552 20.136 212.428 20.4088C212.304 20.6815 212.123 20.9271 211.896 21.1303C211.668 21.3334 211.4 21.4898 211.107 21.5898C210.814 21.6898 210.502 21.7312 210.192 21.7115C208.984 21.6366 208.071 20.6268 208.071 19.47V15.2485C203.924 18.6155 201.282 23.6233 201.253 29.2239C201.201 39.4264 210.131 47.775 220.809 47.775H235.342ZM223.404 31.1265C223.779 30.5908 223.979 29.961 223.979 29.3167C223.979 28.4527 223.62 27.6241 222.98 27.0132C222.341 26.4023 221.474 26.059 220.57 26.059C219.896 26.059 219.236 26.2501 218.676 26.6081C218.115 26.966 217.678 27.4748 217.42 28.07C217.162 28.6653 217.095 29.3203 217.226 29.9522C217.358 30.5841 217.682 31.1645 218.159 31.6201C218.636 32.0757 219.243 32.386 219.905 32.5117C220.566 32.6374 221.251 32.5729 221.874 32.3263C222.497 32.0797 223.03 31.6622 223.404 31.1265Z" fill="#0E0333"/>
<path d="M241 131.247C241 138.05 234.983 143.563 227.562 143.563C227.247 143.563 226.935 143.546 226.625 143.513C225.687 143.406 224.74 143.517 223.843 143.837C222.947 144.158 222.122 144.681 221.421 145.374C220.721 146.066 220.16 146.912 219.775 147.858C219.391 148.803 219.191 149.826 219.189 150.862V163.602C219.189 165.564 218.48 167.445 217.217 168.832C215.954 170.219 214.242 170.998 212.456 170.998H200.819C199.885 170.995 198.962 170.779 198.108 170.365C197.254 169.95 196.488 169.345 195.858 168.588C195.228 167.831 194.747 166.939 194.447 165.968C194.146 164.997 194.032 163.968 194.112 162.947C194.143 162.53 194.158 162.118 194.158 161.711C194.158 153.552 187.915 150.658 181.725 150.658C175.535 150.658 169.642 155.32 169.642 163.476C169.643 165.468 168.924 167.379 167.644 168.79C166.363 170.2 164.625 170.995 162.812 171H156.733C154.948 171 153.235 170.221 151.972 168.834C150.71 167.447 150 165.566 150 163.604V102.396C150 100.434 150.71 98.5533 151.972 97.1663C153.235 95.7794 154.948 95.0001 156.733 95H212.456C214.242 95 215.954 95.7792 217.217 97.1662C218.48 98.5532 219.189 100.434 219.189 102.396V111.639C219.192 112.677 219.394 113.702 219.781 114.649C220.167 115.595 220.73 116.442 221.434 117.135C222.137 117.827 222.965 118.35 223.864 118.668C224.763 118.987 225.713 119.095 226.652 118.986C226.953 118.953 227.255 118.936 227.56 118.936C234.983 118.936 241 124.448 241 131.247Z" fill="#05E5AF"/>
<path d="M241 131.247C241 138.05 234.983 143.563 227.562 143.563C227.247 143.563 226.935 143.546 226.625 143.513C225.687 143.406 224.74 143.517 223.843 143.837C222.947 144.158 222.122 144.681 221.421 145.374C220.721 146.066 220.16 146.912 219.775 147.858C219.391 148.803 219.191 149.826 219.189 150.862V163.602C219.189 165.564 218.48 167.445 217.217 168.832C215.954 170.219 214.242 170.998 212.456 170.998H200.819C199.885 170.995 198.962 170.779 198.108 170.365C197.254 169.95 196.488 169.345 195.858 168.588C195.228 167.831 194.747 166.939 194.447 165.968C194.146 164.997 194.032 163.968 194.112 162.947C194.143 162.53 194.158 162.118 194.158 161.711C194.158 153.552 187.915 150.658 181.725 150.658C175.535 150.658 169.642 155.32 169.642 163.476C169.643 165.468 168.924 167.379 167.644 168.79C166.363 170.2 164.625 170.995 162.812 171H156.733C154.948 171 153.235 170.221 151.972 168.834C150.71 167.447 150 165.566 150 163.604V102.396C150 100.434 150.71 98.5533 151.972 97.1663C153.235 95.7794 154.948 95.0001 156.733 95H212.456C214.242 95 215.954 95.7792 217.217 97.1662C218.48 98.5532 219.189 100.434 219.189 102.396V111.639C219.192 112.677 219.394 113.702 219.781 114.649C220.167 115.595 220.73 116.442 221.434 117.135C222.137 117.827 222.965 118.35 223.864 118.668C224.763 118.987 225.713 119.095 226.652 118.986C226.953 118.953 227.255 118.936 227.56 118.936C234.983 118.936 241 124.448 241 131.247Z" fill="#05E5AF"/>
<path d="M241 131.247C241 138.05 234.983 143.563 227.562 143.563C227.247 143.563 226.935 143.546 226.625 143.513C225.687 143.406 224.74 143.517 223.843 143.837C222.947 144.158 222.122 144.681 221.421 145.374C220.721 146.066 220.16 146.912 219.775 147.858C219.391 148.803 219.191 149.826 219.189 150.862V163.602C219.189 165.564 218.48 167.445 217.217 168.832C215.954 170.219 214.242 170.998 212.456 170.998H200.819C199.885 170.995 198.962 170.779 198.108 170.365C197.254 169.95 196.488 169.345 195.858 168.588C195.228 167.831 194.747 166.939 194.447 165.968C194.146 164.997 194.032 163.968 194.112 162.947C194.143 162.53 194.158 162.118 194.158 161.711C194.158 153.552 187.915 150.658 181.725 150.658C175.535 150.658 169.642 155.32 169.642 163.476C169.643 165.468 168.924 167.379 167.644 168.79C166.363 170.2 164.625 170.995 162.812 171H156.733C154.948 171 153.235 170.221 151.972 168.834C150.71 167.447 150 165.566 150 163.604V102.396C150 100.434 150.71 98.5533 151.972 97.1663C153.235 95.7794 154.948 95.0001 156.733 95H212.456C214.242 95 215.954 95.7792 217.217 97.1662C218.48 98.5532 219.189 100.434 219.189 102.396V111.639C219.192 112.677 219.394 113.702 219.781 114.649C220.167 115.595 220.73 116.442 221.434 117.135C222.137 117.827 222.965 118.35 223.864 118.668C224.763 118.987 225.713 119.095 226.652 118.986C226.953 118.953 227.255 118.936 227.56 118.936C234.983 118.936 241 124.448 241 131.247Z" stroke="#6F3FF5" stroke-width="8" stroke-miterlimit="10"/>
<path d="M241 129.77C241 136.484 234.983 141.924 227.562 141.924C227.247 141.924 226.935 141.908 226.625 141.874C225.687 141.769 224.74 141.878 223.843 142.194C222.947 142.511 222.122 143.027 221.421 143.711C220.721 144.394 220.16 145.229 219.775 146.162C219.391 147.095 219.191 148.105 219.189 149.127V161.7C219.189 163.635 218.48 165.492 217.217 166.861C215.954 168.229 214.242 168.998 212.456 168.998H200.819C199.885 168.995 198.962 168.782 198.108 168.373C197.254 167.964 196.488 167.367 195.858 166.62C195.228 165.873 194.747 164.993 194.447 164.035C194.146 163.076 194.032 162.061 194.112 161.053C194.143 160.642 194.158 160.235 194.158 159.833C194.158 151.782 187.915 148.926 181.725 148.926C175.535 148.926 169.642 153.526 169.642 161.575C169.643 163.541 168.924 165.427 167.644 166.819C166.363 168.211 164.625 168.995 162.812 169H156.733C154.948 169 153.235 168.231 151.972 166.862C150.71 165.493 150 163.637 150 161.701V101.299C150 99.3629 150.71 97.5066 151.972 96.1378C153.235 94.7691 154.948 94.0001 156.733 94H212.456C214.242 94 215.954 94.769 217.217 96.1377C218.48 97.5065 219.189 99.3629 219.189 101.299V110.42C219.192 111.444 219.394 112.456 219.781 113.39C220.167 114.324 220.73 115.16 221.434 115.843C222.137 116.527 222.965 117.042 223.864 117.357C224.763 117.672 225.713 117.778 226.652 117.67C226.953 117.638 227.255 117.621 227.56 117.621C234.983 117.621 241 123.06 241 129.77Z" fill="#05E5AF"/>
<path d="M241 129.77C241 136.484 234.983 141.924 227.562 141.924C227.247 141.924 226.935 141.908 226.625 141.874C225.687 141.769 224.74 141.878 223.843 142.194C222.947 142.511 222.122 143.027 221.421 143.711C220.721 144.394 220.16 145.229 219.775 146.162C219.391 147.095 219.191 148.105 219.189 149.127V161.7C219.189 163.635 218.48 165.492 217.217 166.861C215.954 168.229 214.242 168.998 212.456 168.998H200.819C199.885 168.995 198.962 168.782 198.108 168.373C197.254 167.964 196.488 167.367 195.858 166.62C195.228 165.873 194.747 164.993 194.447 164.035C194.146 163.076 194.032 162.061 194.112 161.053C194.143 160.642 194.158 160.235 194.158 159.833C194.158 151.782 187.915 148.926 181.725 148.926C175.535 148.926 169.642 153.526 169.642 161.575C169.643 163.541 168.924 165.427 167.644 166.819C166.363 168.211 164.625 168.995 162.812 169H156.733C154.948 169 153.235 168.231 151.972 166.862C150.71 165.493 150 163.637 150 161.701V101.299C150 99.3629 150.71 97.5066 151.972 96.1378C153.235 94.7691 154.948 94.0001 156.733 94H212.456C214.242 94 215.954 94.769 217.217 96.1377C218.48 97.5065 219.189 99.3629 219.189 101.299V110.42C219.192 111.444 219.394 112.456 219.781 113.39C220.167 114.324 220.73 115.16 221.434 115.843C222.137 116.527 222.965 117.042 223.864 117.357C224.763 117.672 225.713 117.778 226.652 117.67C226.953 117.638 227.255 117.621 227.56 117.621C234.983 117.621 241 123.06 241 129.77Z" fill="#12F5BF"/>
<path d="M241 129.77C241 136.484 234.983 141.924 227.562 141.924C227.247 141.924 226.935 141.908 226.625 141.874C225.687 141.769 224.74 141.878 223.843 142.194C222.947 142.511 222.122 143.027 221.421 143.711C220.721 144.394 220.16 145.229 219.775 146.162C219.391 147.095 219.191 148.105 219.189 149.127V161.7C219.189 163.635 218.48 165.492 217.217 166.861C215.954 168.229 214.242 168.998 212.456 168.998H200.819C199.885 168.995 198.962 168.782 198.108 168.373C197.254 167.964 196.488 167.367 195.858 166.62C195.228 165.873 194.747 164.993 194.447 164.035C194.146 163.076 194.032 162.061 194.112 161.053C194.143 160.642 194.158 160.235 194.158 159.833C194.158 151.782 187.915 148.926 181.725 148.926C175.535 148.926 169.642 153.526 169.642 161.575C169.643 163.541 168.924 165.427 167.644 166.819C166.363 168.211 164.625 168.995 162.812 169H156.733C154.948 169 153.235 168.231 151.972 166.862C150.71 165.493 150 163.637 150 161.701V101.299C150 99.3629 150.71 97.5066 151.972 96.1378C153.235 94.7691 154.948 94.0001 156.733 94H212.456C214.242 94 215.954 94.769 217.217 96.1377C218.48 97.5065 219.189 99.3629 219.189 101.299V110.42C219.192 111.444 219.394 112.456 219.781 113.39C220.167 114.324 220.73 115.16 221.434 115.843C222.137 116.527 222.965 117.042 223.864 117.357C224.763 117.672 225.713 117.778 226.652 117.67C226.953 117.638 227.255 117.621 227.56 117.621C234.983 117.621 241 123.06 241 129.77Z" stroke="#37007A" stroke-width="3" stroke-miterlimit="10"/>
<path d="M284 102.456V162.954C284 164.931 283.292 166.827 282.031 168.226C280.77 169.624 279.06 170.409 277.277 170.409H262.706C262.172 170.406 261.647 170.554 261.18 170.839C260.713 171.124 260.319 171.536 260.035 172.037C259.752 172.538 259.588 173.11 259.56 173.701C259.532 174.291 259.64 174.88 259.874 175.411C260.6 176.934 260.992 178.626 261.018 180.348C261.018 188.441 256.085 195 249.999 195C243.914 195 238.982 188.441 238.982 180.348C239.002 178.621 239.357 176.919 240.022 175.357C240.245 174.828 240.344 174.245 240.311 173.662C240.277 173.08 240.111 172.516 239.829 172.023C239.547 171.53 239.157 171.124 238.696 170.842C238.235 170.56 237.717 170.412 237.19 170.411H222.723C220.94 170.411 219.23 169.625 217.969 168.227C216.708 166.829 216 164.933 216 162.955V145.439C216.004 144.872 216.133 144.315 216.378 143.817C216.622 143.319 216.974 142.896 217.401 142.585C217.828 142.275 218.318 142.086 218.827 142.036C219.336 141.985 219.849 142.076 220.319 142.298C221.559 142.871 222.887 143.172 224.23 143.185C231.523 143.185 237.437 137.715 237.437 130.966C237.437 124.218 231.522 118.748 224.229 118.748C223.967 118.748 223.707 118.761 223.449 118.786C222.512 118.892 221.565 118.779 220.669 118.456C219.774 118.132 218.949 117.605 218.248 116.908C217.547 116.21 216.984 115.358 216.597 114.406C216.21 113.453 216.007 112.422 216 111.377V102.456C216 100.479 216.708 98.5821 217.969 97.1838C219.23 95.7855 220.94 95 222.723 95H277.28C279.063 95.001 280.772 95.787 282.032 97.1851C283.292 98.5833 284 100.479 284 102.456V102.456Z" fill="#6F3FF5" stroke="#14004A" stroke-width="3" stroke-miterlimit="10"/>
<path d="M488.45 177.585C485.554 173.442 481.24 171.116 477.068 168.865C476.134 168.362 475.253 167.886 474.383 167.388C470.904 165.4 467.427 163.199 464.066 161.072C461.205 159.261 458.245 157.388 455.284 155.644C444.11 149.064 431.281 141.181 420.445 130.877C413.797 124.556 410.537 116.088 407.084 107.123C405.954 104.188 404.786 101.154 403.499 98.2398C400.475 91.3936 396.743 85.0851 393.492 79.8176C392.484 78.1851 391.536 76.4267 390.618 74.7258C388.702 71.1746 386.724 67.5027 383.981 64.4993C380.068 60.2144 374.961 57.6567 370.021 55.1833L369.28 54.812C366.843 53.5137 364.484 52.0481 362.215 50.4239C359.17 48.3436 356.02 46.192 352.585 44.8648C352.424 44.8023 352.255 44.768 352.085 44.7632L351.885 44.4842C351.581 44.0587 351.276 43.634 350.978 43.202C346.804 37.1692 342.139 30.0651 339.601 22.0586C339.46 21.6132 339.32 21.1318 339.174 20.6285C338.352 17.7903 337.332 14.2719 334.825 12.7037C334.608 12.4672 334.336 12.3003 334.039 12.2211C333.07 11.9404 332.071 11.809 331.069 11.8308C330.096 11.8319 329.137 12.0834 328.269 12.5652C327.401 13.047 326.647 13.7456 326.069 14.6051C325.332 15.6792 323.372 19.3588 324.162 27.1459C323.204 25.347 322.217 23.4417 321.192 21.4047L320.947 20.9188C318.71 16.459 315.647 10.3514 310.203 10.5538H310.181C309.824 10.1891 309.352 9.99076 308.864 10.0003C308.511 10.0158 308.17 10.1469 307.884 10.3769C300.522 16.223 303.768 28.5966 309.261 38.2292C311.673 42.4598 313.804 46.9836 315.864 51.3584C317.448 54.7189 319.084 58.1968 320.847 61.5387L321.291 62.3825C322.452 64.6757 323.719 66.9021 325.086 69.053C322.66 68.6538 320.211 68.4469 317.758 68.4339C317.281 68.4311 316.8 68.4384 316.324 68.4558C308.271 68.7529 301.543 72.0034 295.473 75.4716C293.471 76.615 291.488 77.8543 289.57 79.0528C287.783 80.1694 285.936 81.3242 284.092 82.3886C283.673 82.6315 283.16 82.8656 282.618 83.1142C281.122 83.7992 279.44 84.5693 278.475 86.0228C278.036 86.114 277.642 86.3783 277.367 86.7662C277.203 87.0026 277.091 87.2763 277.036 87.5671C276.982 87.8578 276.989 88.1582 277.054 88.4461C278.118 93.6019 283.807 96.2142 288.354 96.8851C289.251 97.0163 290.156 97.0654 291.06 97.0316C295.153 96.8806 298.866 95.0797 302.457 93.3379C303.643 92.7625 304.87 92.1678 306.084 91.6463C308.607 90.5528 311.282 89.9394 313.993 89.8324C322.706 89.5113 330.404 94.661 334.082 103.272C338.982 114.741 338.724 130.277 326.58 137.285C323.78 138.901 320.846 140.409 318.009 141.868C315.532 143.141 312.971 144.459 310.493 145.848C308.456 146.991 306.299 147.929 304.213 148.836C301.008 150.23 297.69 151.67 294.657 153.908C285.16 160.912 279.588 171.324 279.373 182.47C279.364 183.03 279.518 183.579 279.813 184.035C280.108 184.492 280.528 184.832 281.012 185.007C282.441 185.53 283.944 185.764 285.448 185.7C289.142 185.564 292.777 183.805 295.986 182.253L296.043 182.225C297.683 181.431 299.35 180.6 300.962 179.795C305.413 177.576 310.016 175.28 314.628 173.483C316.886 172.624 319.254 172.156 321.644 172.097C325.591 171.952 329.639 172.693 333.427 173.514C339.679 174.872 344.897 175.974 350.375 176.771C356.558 177.67 362.941 178.292 369.345 178.618C371.101 178.708 372.946 178.688 374.73 178.669C379.055 178.622 383.528 178.574 387.429 180.026C391.508 181.544 394.794 184.856 397.971 188.06C398.711 188.805 399.476 189.576 400.238 190.312C402.844 192.827 405.6 195.219 408.265 197.531C410.165 199.18 412.13 200.885 414.015 202.614C417.969 206.239 421.396 210.207 425.024 214.408C425.701 215.193 426.381 215.978 427.063 216.763C428.828 218.791 430.638 220.833 432.389 222.808C435.084 225.851 437.872 228.996 440.551 232.148C440.784 232.428 441.07 232.649 441.388 232.796C441.707 232.943 442.051 233.012 442.396 232.998C442.858 232.976 443.307 232.824 443.7 232.557C444.093 232.289 444.417 231.915 444.641 231.47C444.84 231.072 444.937 230.623 444.924 230.17C444.911 229.716 444.787 229.275 444.565 228.892C444.293 228.378 443.938 227.922 443.518 227.547L442.983 226.915C433.788 216.055 424.281 204.826 413.608 195.458C408.509 190.982 403.913 186.736 399.556 182.477C396.029 179.028 392.08 175.663 387.112 174.403C383.085 173.382 378.888 173.396 374.829 173.41C373.075 173.416 371.262 173.422 369.516 173.341C362.924 173.037 356.373 172.42 350.043 171.507C346.862 171.048 343.625 170.292 340.197 169.491C334.174 168.084 327.947 166.629 321.877 166.853C319.562 166.92 317.261 167.284 315.022 167.935C311.014 169.125 307.116 171.111 303.347 173.033C301.841 173.802 300.285 174.594 298.771 175.309C297.818 175.759 296.84 176.271 295.805 176.814C292.588 178.5 288.941 180.412 285.571 180.536C285.118 180.554 284.665 180.537 284.215 180.485C284.826 173.731 287.715 167.467 292.604 162.317C296.731 157.97 301.476 155.791 306.498 153.483C307.482 153.031 308.5 152.564 309.522 152.076C312.356 150.724 315.136 149.151 317.824 147.629C320.379 146.184 323.019 144.69 325.685 143.399C331.024 140.813 334.741 137.719 337.383 133.662C344.319 123.01 341.694 108.581 337.336 99.4625C332.869 90.1142 323.915 84.5349 313.967 84.9021C313.44 84.9216 312.905 84.9584 312.379 85.0115C308.064 85.4459 304.465 87.1792 300.655 89.0145C299.714 89.4676 298.742 89.936 297.767 90.3782C295.53 91.4604 293.134 92.0903 290.693 92.2378C289.599 92.2819 288.504 92.1785 287.433 91.9301C286.07 91.6086 283.016 90.7102 281.457 88.853C281.498 88.7973 281.536 88.7392 281.571 88.6789C281.579 88.6643 281.588 88.6493 281.596 88.6343C282.197 88.4344 282.772 88.1485 283.306 87.7841C283.538 87.642 283.759 87.508 283.903 87.4363C285.124 86.8318 286.436 86.1646 287.759 85.3815C291.585 83.1174 295.152 81.0561 298.665 79.0799C305.407 75.2862 311.044 73.4974 316.939 73.2804C318.044 73.2399 319.178 73.2557 320.307 73.3289C328.026 73.8286 334.726 76.3939 340.221 80.9537C343.333 83.4695 346.247 86.2695 348.93 89.3239C350.725 91.411 352.711 93.5468 355.499 94.7185C355.769 94.8347 356.058 94.8898 356.349 94.8805C356.832 94.8487 357.29 94.6325 357.644 94.2691C357.997 93.9056 358.225 93.4179 358.286 92.8901C358.383 92.3333 358.298 91.7566 358.044 91.2627C357.791 90.7688 357.386 90.3898 356.902 90.1931C354.646 89.2445 352.801 87.0776 351.017 84.9823C350.061 83.8126 349.042 82.7065 347.966 81.67L347.229 80.9885C344.387 78.3608 341.447 75.6441 338.132 73.6634C336.333 72.599 334.454 71.7066 332.516 70.996C329.203 68.5072 326.864 63.9972 324.797 60.0135C324.565 59.5682 324.337 59.1264 324.111 58.6969C322.483 55.595 320.947 52.3556 319.462 49.2226C318.072 46.2884 316.634 43.2546 315.115 40.3216C314.74 39.5977 314.302 38.7896 313.838 37.9328C310.251 31.311 304.293 20.3139 309.581 14.4836H309.591C313.107 14.367 315.259 18.6393 316.83 21.759C317.555 23.1987 318.272 24.6794 318.964 26.111C320.095 28.448 321.264 30.8648 322.518 33.1965C326.505 40.5522 331.181 47.4301 336.469 53.718C338.588 56.2688 340.805 58.7791 342.95 61.2116C346.352 65.0681 349.871 69.0562 353.042 73.25L353.69 74.1087C358.106 79.9589 362.673 86.0079 368.896 90.0611C369.225 90.2804 369.606 90.3912 369.991 90.3806C370.435 90.3537 370.859 90.1708 371.202 89.8589C371.544 89.547 371.787 89.1226 371.893 88.6481C372.003 88.2004 371.974 87.7254 371.813 87.2972C371.651 86.869 371.365 86.5116 370.999 86.2808C365.386 82.5728 361.348 77.2616 357.072 71.6382C355.815 69.9854 354.516 68.2776 353.187 66.6322C350.779 63.6534 348.255 60.7071 345.815 57.8579C342.51 53.9994 339.093 50.0097 335.937 45.9078C334.38 43.8834 332.831 41.6833 331.209 39.1896C331.213 38.8661 331.152 38.5456 331.031 38.2507C329.147 33.5726 328.121 29.2979 327.892 25.1806C327.774 23.0594 327.762 20.6305 328.568 18.7025C329.439 16.6202 330.815 16.1861 333.363 16.0821C334.237 17.1971 334.704 19.1831 335.087 20.8083C335.195 21.2674 335.297 21.699 335.399 22.08C336.038 24.46 336.846 26.7811 337.816 29.0218C340.712 35.725 344.698 41.7027 348.206 46.7795C352.646 53.1778 357.376 59.3264 362.379 65.2017C362.83 65.7329 363.28 66.2605 363.728 66.7844C367.826 71.5807 371.696 76.1105 374.537 81.8995C374.705 82.242 374.958 82.5248 375.267 82.7148C375.575 82.9048 375.927 82.9942 376.28 82.9725C376.602 82.9636 376.917 82.872 377.201 82.7049C377.485 82.5378 377.729 82.3 377.913 82.0105C378.067 81.7541 378.162 81.4608 378.191 81.1553C378.219 80.8499 378.18 80.5414 378.077 80.2561C376.103 74.5638 372.249 70.1279 368.521 65.8382C367.776 64.9798 367.005 64.0928 366.274 63.2214C363.474 59.8844 360.716 56.4315 358.038 52.9058C358.757 53.4269 359.478 53.9488 360.205 54.4642C362.664 56.2097 365.309 57.5527 367.868 58.8519C368.508 59.1758 369.15 59.5026 369.789 59.835C377.568 63.8757 382.172 68.0845 385.683 74.3622C386.477 75.7833 387.271 77.1968 388.066 78.6025C393.735 88.6627 399.089 98.1649 403.08 109.069L403.386 109.905C405.365 115.32 407.411 120.918 410.367 125.938C413.468 131.202 417.724 135.202 421.862 138.739C433.431 148.628 446.344 156.577 456.303 162.396C458.838 163.877 461.355 165.523 463.79 167.114C466.542 168.913 469.387 170.772 472.29 172.418C473.082 172.868 473.913 173.314 474.716 173.746C478.41 175.73 482.229 177.786 484.633 181.236C484.846 181.565 485.129 181.831 485.457 182.011C485.785 182.192 486.148 182.281 486.515 182.272C486.993 182.236 487.453 182.058 487.846 181.757C488.239 181.455 488.55 181.042 488.745 180.561C488.954 180.084 489.037 179.553 488.985 179.026C488.933 178.5 488.747 178.001 488.45 177.585V177.585Z" fill="#002C22"/>
<path d="M484.207 182.896C481.803 179.484 477.982 177.453 474.288 175.489C473.484 175.062 472.654 174.621 471.861 174.176C468.958 172.548 466.113 170.709 463.36 168.931C460.925 167.358 458.407 165.728 455.872 164.266C445.912 158.511 432.995 150.653 421.426 140.873C417.287 137.374 413.03 133.42 409.929 128.215C406.973 123.25 404.926 117.715 402.947 112.36L402.641 111.534C398.65 100.751 393.294 91.3553 387.624 81.4066C386.831 80.0154 386.037 78.6179 385.241 77.2139C381.729 71.0082 377.124 66.8444 369.345 62.8487C368.705 62.52 368.064 62.1981 367.424 61.8766C364.865 60.5919 362.219 59.2634 359.759 57.5378C359.032 57.0278 358.31 56.514 357.592 55.9964C360.27 59.4828 363.027 62.8976 365.829 66.197C366.561 67.0586 367.332 67.9362 368.077 68.7846C371.805 73.0265 375.66 77.4129 377.634 83.0421C377.738 83.3242 377.777 83.6292 377.748 83.9313C377.72 84.2333 377.625 84.5234 377.471 84.7769C377.286 85.0631 377.042 85.2983 376.758 85.4635C376.474 85.6287 376.159 85.7194 375.837 85.7281C375.484 85.7495 375.132 85.6611 374.823 85.4731C374.514 85.2851 374.261 85.0054 374.094 84.6668C371.252 78.9415 367.382 74.463 363.284 69.7206C362.835 69.2018 362.385 68.6799 361.934 68.1552C356.93 62.3452 352.199 56.2652 347.759 49.9385C344.249 44.9182 340.262 39.0084 337.367 32.3783C336.397 30.1627 335.589 27.8677 334.95 25.5144C334.847 25.1373 334.745 24.7109 334.637 24.2565C334.255 22.6494 333.788 20.686 332.914 19.583C330.364 19.6859 328.988 20.1151 328.118 22.1741C327.312 24.0803 327.323 26.4817 327.441 28.58C327.669 32.651 328.696 36.8785 330.581 41.5039C330.702 41.7956 330.763 42.1125 330.759 42.4324C332.38 44.8986 333.931 47.0766 335.488 49.0761C338.644 53.1318 342.062 57.0774 345.367 60.8925C347.808 63.7103 350.332 66.6238 352.74 69.5689C354.07 71.1948 355.369 72.8847 356.626 74.5194C360.901 80.0798 364.941 85.3318 370.555 88.9984C370.921 89.2267 371.207 89.5801 371.369 90.0035C371.531 90.4269 371.559 90.8966 371.45 91.3393C371.343 91.8086 371.101 92.2283 370.758 92.5368C370.416 92.8452 369.991 93.026 369.547 93.0525C369.162 93.0633 368.781 92.9539 368.452 92.737C362.228 88.7273 357.661 82.7454 353.244 76.9625L352.595 76.1133C349.424 71.9663 345.905 68.0231 342.501 64.2096C340.357 61.8074 338.139 59.3211 336.02 56.7992C330.731 50.5814 326.055 43.7802 322.066 36.5065C320.813 34.2004 319.643 31.8106 318.512 29.5001C317.82 28.0844 317.103 26.6206 316.378 25.1969C314.806 22.1121 312.654 17.887 309.138 18.0023H309.128C303.838 23.7676 309.797 34.6416 313.386 41.1896C313.849 42.0356 314.287 42.8343 314.662 43.5518C316.182 46.4517 317.62 49.452 319.01 52.3531C320.495 55.4507 322.032 58.6541 323.66 61.7217C323.886 62.1469 324.115 62.5809 324.346 63.0237C326.412 66.9633 328.752 71.423 332.066 73.8837C334.004 74.5862 335.883 75.4688 337.683 76.5217C340.999 78.4795 343.938 81.166 346.781 83.7647L347.518 84.4386C348.594 85.4638 349.613 86.5575 350.57 87.714C352.354 89.7863 354.199 91.9287 356.456 92.8667C356.94 93.0612 357.345 93.4361 357.599 93.9246C357.852 94.413 357.937 94.9834 357.84 95.534C357.779 96.0559 357.552 96.5382 357.198 96.8976C356.844 97.257 356.386 97.4708 355.903 97.5022C355.612 97.511 355.323 97.4565 355.053 97.342C352.264 96.183 350.278 94.071 348.483 92.0071C345.8 88.9849 342.886 86.2143 339.774 83.7247C334.278 79.2162 327.577 76.6782 319.857 76.185C318.728 76.1129 317.595 76.0965 316.488 76.1369C310.592 76.3519 304.955 78.1208 298.211 81.8718C294.698 83.826 291.13 85.8643 287.304 88.1031C285.981 88.8778 284.668 89.5377 283.447 90.135C283.303 90.2059 283.082 90.3388 282.849 90.4793C282.316 90.8397 281.741 91.1224 281.139 91.3201C281.131 91.3349 281.123 91.3497 281.114 91.3641C281.079 91.4239 281.041 91.4814 281 91.5363C282.56 93.3724 285.615 94.2608 286.978 94.5791C288.049 94.8246 289.144 94.9267 290.238 94.8834C292.679 94.7373 295.075 94.1144 297.313 93.0445C298.288 92.6073 299.261 92.144 300.202 91.6956C304.012 89.8808 307.611 88.1668 311.927 87.7372C312.454 87.6847 312.988 87.6483 313.515 87.6291C323.465 87.2664 332.419 92.7834 336.888 102.028C341.245 111.045 343.872 125.312 336.935 135.845C334.293 139.858 330.575 142.917 325.235 145.474C322.57 146.75 319.929 148.228 317.373 149.657C314.683 151.161 311.904 152.717 309.07 154.055C308.048 154.535 307.03 154.999 306.045 155.446C301.022 157.728 296.277 159.882 292.149 164.181C287.259 169.274 284.37 175.467 283.759 182.146C284.209 182.197 284.662 182.214 285.115 182.197C288.486 182.074 292.133 180.184 295.351 178.516C296.386 177.979 297.364 177.472 298.316 177.028C299.831 176.321 301.388 175.536 302.894 174.777C306.664 172.877 310.562 170.912 314.571 169.737C316.81 169.092 319.111 168.733 321.427 168.667C327.497 168.445 333.726 169.884 339.75 171.275C343.177 172.067 346.416 172.815 349.597 173.268C355.928 174.171 362.48 174.781 369.073 175.082C370.819 175.162 372.633 175.156 374.387 175.15C378.447 175.136 382.644 175.122 386.672 176.132C391.641 177.378 395.59 180.705 399.118 184.115C403.475 188.328 408.072 192.527 413.172 196.952C423.497 205.912 432.73 216.592 441.645 227L485 183.635C484.69 183.453 484.42 183.201 484.207 182.896V182.896Z" fill="#0BF2BA" fill-opacity="0.51"/>
<path d="M484.207 179.896C481.803 176.484 477.982 174.453 474.288 172.489C473.484 172.062 472.654 171.621 471.861 171.176C468.958 169.548 466.113 167.709 463.36 165.931C460.925 164.358 458.407 162.728 455.872 161.266C445.912 155.511 432.995 147.653 421.426 137.873C417.287 134.374 413.03 130.42 409.929 125.215C406.973 120.25 404.926 114.715 402.947 109.36L402.641 108.534C398.65 97.7512 393.294 88.3553 387.624 78.4066C386.831 77.0154 386.037 75.6179 385.241 74.2139C381.729 68.0082 377.124 63.8444 369.345 59.8487C368.705 59.52 368.064 59.1981 367.424 58.8766C364.865 57.5919 362.219 56.2634 359.759 54.5378C359.032 54.0278 358.31 53.514 357.592 52.9964C360.27 56.4828 363.027 59.8976 365.829 63.197C366.561 64.0586 367.332 64.9362 368.077 65.7846C371.805 70.0265 375.66 74.4129 377.634 80.0421C377.738 80.3242 377.777 80.6292 377.748 80.9313C377.72 81.2333 377.625 81.5234 377.471 81.7769C377.286 82.0631 377.042 82.2983 376.758 82.4635C376.474 82.6287 376.159 82.7194 375.837 82.7281C375.484 82.7495 375.132 82.6611 374.823 82.4731C374.514 82.2851 374.261 82.0054 374.094 81.6668C371.252 75.9415 367.382 71.463 363.284 66.7206C362.835 66.2018 362.385 65.6799 361.934 65.1552C356.93 59.3452 352.199 53.2652 347.759 46.9385C344.249 41.9182 340.262 36.0084 337.367 29.3783C336.397 27.1627 335.589 24.8677 334.95 22.5144C334.847 22.1373 334.745 21.7109 334.637 21.2565C334.255 19.6494 333.788 17.686 332.914 16.583C330.364 16.6859 328.988 17.1151 328.118 19.1741C327.312 21.0803 327.323 23.4817 327.441 25.58C327.669 29.651 328.696 33.8785 330.581 38.5039C330.702 38.7956 330.763 39.1125 330.759 39.4324C332.38 41.8986 333.931 44.0766 335.488 46.0761C338.644 50.1318 342.062 54.0774 345.367 57.8925C347.808 60.7103 350.332 63.6238 352.74 66.5689C354.07 68.1948 355.369 69.8847 356.626 71.5194C360.901 77.0798 364.941 82.3318 370.555 85.9984C370.921 86.2267 371.207 86.5801 371.369 87.0035C371.531 87.4269 371.559 87.8966 371.45 88.3393C371.343 88.8086 371.101 89.2283 370.758 89.5368C370.416 89.8452 369.991 90.026 369.547 90.0525C369.162 90.0633 368.781 89.9539 368.452 89.737C362.228 85.7273 357.661 79.7454 353.244 73.9625L352.595 73.1133C349.424 68.9663 345.905 65.0231 342.501 61.2096C340.357 58.8074 338.139 56.3211 336.02 53.7992C330.731 47.5814 326.055 40.7802 322.066 33.5065C320.813 31.2004 319.643 28.8106 318.512 26.5001C317.82 25.0844 317.103 23.6206 316.378 22.1969C314.806 19.1121 312.654 14.887 309.138 15.0023H309.128C303.838 20.7676 309.797 31.6416 313.386 38.1896C313.849 39.0356 314.287 39.8343 314.662 40.5518C316.182 43.4517 317.62 46.452 319.01 49.3531C320.495 52.4507 322.032 55.6541 323.66 58.7217C323.886 59.1469 324.115 59.5809 324.346 60.0237C326.412 63.9633 328.752 68.423 332.066 70.8837C334.004 71.5862 335.883 72.4688 337.683 73.5217C340.999 75.4795 343.938 78.166 346.781 80.7647L347.518 81.4386C348.594 82.4638 349.613 83.5575 350.57 84.714C352.354 86.7863 354.199 88.9287 356.456 89.8667C356.94 90.0612 357.345 90.4361 357.599 90.9246C357.852 91.413 357.937 91.9834 357.84 92.534C357.779 93.0559 357.552 93.5382 357.198 93.8976C356.844 94.257 356.386 94.4708 355.903 94.5022C355.612 94.511 355.323 94.4565 355.053 94.342C352.264 93.183 350.278 91.071 348.483 89.0071C345.8 85.9849 342.886 83.2143 339.774 80.7247C334.278 76.2162 327.577 73.6782 319.857 73.185C318.728 73.1129 317.595 73.0965 316.488 73.1369C310.592 73.3519 304.955 75.1208 298.211 78.8718C294.698 80.826 291.13 82.8643 287.304 85.1031C285.981 85.8778 284.668 86.5377 283.447 87.135C283.303 87.2059 283.082 87.3388 282.849 87.4793C282.316 87.8397 281.741 88.1224 281.139 88.3201C281.131 88.3349 281.123 88.3497 281.114 88.3641C281.079 88.4239 281.041 88.4814 281 88.5363C282.56 90.3724 285.615 91.2608 286.978 91.5791C288.049 91.8246 289.144 91.9267 290.238 91.8834C292.679 91.7373 295.075 91.1144 297.313 90.0445C298.288 89.6073 299.261 89.144 300.202 88.6956C304.012 86.8808 307.611 85.1668 311.927 84.7372C312.454 84.6847 312.988 84.6483 313.515 84.6291C323.465 84.2664 332.419 89.7834 336.888 99.0275C341.245 108.045 343.872 122.312 336.935 132.845C334.293 136.858 330.575 139.917 325.235 142.474C322.57 143.75 319.929 145.228 317.373 146.657C314.683 148.161 311.904 149.717 309.07 151.055C308.048 151.535 307.03 151.999 306.045 152.446C301.022 154.728 296.277 156.882 292.149 161.181C287.259 166.274 284.37 172.467 283.759 179.146C284.209 179.197 284.662 179.214 285.115 179.197C288.486 179.074 292.133 177.184 295.351 175.516C296.386 174.979 297.364 174.472 298.316 174.028C299.831 173.321 301.388 172.536 302.894 171.777C306.664 169.877 310.562 167.912 314.571 166.737C316.81 166.092 319.111 165.733 321.427 165.667C327.497 165.445 333.726 166.884 339.75 168.275C343.177 169.067 346.416 169.815 349.597 170.268C355.928 171.171 362.48 171.781 369.073 172.082C370.819 172.162 372.633 172.156 374.387 172.15C378.447 172.136 382.644 172.122 386.672 173.132C391.641 174.378 395.59 177.705 399.118 181.115C403.475 185.328 408.072 189.527 413.172 193.952C423.497 202.912 432.73 213.592 441.645 224L485 180.635C484.69 180.453 484.42 180.201 484.207 179.896V179.896Z" fill="#23FFCA" fill-opacity="0.51"/>
<path d="M161.28 180.821C158.606 163.027 140.515 169.554 129.022 170.373C127.277 164.591 125.462 158.751 121.889 153.939C135.564 130.026 136.692 127.633 150.094 103.54C153.173 98.4925 161.588 97.0219 166.559 94.1705C181.558 90.664 181.651 69.3894 167.771 64.2377C161.869 62.3384 156.917 65.6582 151.625 68.0538C142.763 71.7801 138.526 73.873 135.691 74.3661C133.184 65.0249 121.893 59.9873 114.67 65.8619C111.888 52.5237 93.6495 49.4015 88.9449 63.0242C85.8322 52.8069 72.2228 47.159 65.5696 57.4619C63.4866 60.6884 61.6099 64.0809 59.6423 67.3914C57.3031 74.0997 53.2624 78.1183 56.553 86.0131C49.9202 94.2752 45.3973 105.37 39.8439 114.789C29.9113 131.366 29.3591 147.239 44.5087 160.175C43.8775 161.85 43.1047 163.458 42.2003 164.977C32.6946 154.334 26.4343 170.874 21.211 177.715C15.0948 186.938 8.95991 196.147 3.00219 205.492C1.32385 207.538 -2.61579 213.938 2.63087 213.675L2.52245 213.761C4.62594 213.373 6.07296 209.942 7.1661 208.242C15.234 195.707 22.7613 182.751 30.5436 170.026C33.6552 163.671 36.8682 163.821 40.9467 169.174C44.5674 173.234 48.1212 177.381 52.1292 180.999C56.0324 184.524 60.4689 186.961 65.2414 188.781C69.6518 191.138 78.3038 190.324 78.2281 197.259C71.3838 211.863 64.4236 226.393 57.3476 240.849C56.4832 242.667 53.6965 246.641 55.0043 248.788L55.0069 248.676C57.446 252.571 60.2138 246.851 61.0374 244.584C62.9136 240.705 64.729 236.795 66.5283 232.872C70.8356 223.481 75.0778 214.03 78.9347 204.407C82.0051 198.087 84.0139 191.419 76.3704 188.087C77.5186 186.065 78.7707 184.115 80.1207 182.246C84.8679 183.884 89.8049 184.622 94.3873 182.818C101.577 188.152 109.447 192.341 116.796 197.389C119.056 198.597 120.922 200.675 123.42 201.131C128.864 200.59 134.322 200.188 139.772 199.719C152.184 199.93 162.4 196.737 161.28 180.821ZM142.994 77.6762C147.833 75.2482 152.961 73.3586 157.886 71.1295C159.972 70.1851 161.774 68.9764 164.111 69.1166C170.882 69.2071 175.659 78.9087 171.597 84.9636C169.867 87.4113 166.696 88.2539 164.187 89.4052C159.061 92.1936 152.964 93.5158 148.465 97.338C141.297 95.1121 136.518 83.4461 142.994 77.6762ZM131.131 92.2356C137.48 81.6539 130.696 91.901 137.822 81.9375C136.708 88.7865 140.365 97.1917 146.69 99.4292C139.691 111.305 145.396 101.799 138.623 113.834C132.397 116.121 125.691 110.208 124.777 103.493C126.934 99.7683 128.811 95.8298 131.131 92.2356ZM130.923 81.4372C130.859 81.8329 130.875 81.645 130.923 81.4372V81.4372ZM116.765 71.2192C116.784 71.1812 116.806 71.1441 116.823 71.1057C116.978 70.7593 117.237 70.7642 116.765 71.2192ZM115.88 72.7027C120.591 63.8898 133.458 71.673 131.011 80.8481C129.6 84.6851 127.228 88.1201 125.428 91.783C123.747 85.3551 116.595 81.0226 110.631 81.8511C112.372 78.7939 114.113 75.738 115.88 72.7011V72.7027ZM102.25 96.6942C104.412 92.8279 106.584 88.967 108.766 85.1115C114.621 82.979 122.528 86.7938 123.438 93.8432C123.453 94.6567 123.546 95.5287 123.055 96.2028C120.182 101.309 117.301 106.411 114.412 111.509C111.582 116.803 108.428 124.507 101.515 121.649C89.5372 115.716 97.5471 104.963 102.25 96.6926V96.6942ZM95.6928 108.908C95.5536 109.417 95.519 109.283 95.6928 108.908V108.908ZM109.711 72.1438C109.647 72.5403 109.663 72.3515 109.711 72.1438V72.1438ZM95.5532 61.9246C95.5718 61.8866 95.594 61.8498 95.6111 61.8114C95.7656 61.4643 96.0248 61.4691 95.5532 61.9246ZM94.668 63.4085C99.3784 54.5956 112.246 62.3788 109.799 71.5534C108.388 75.3925 106.016 78.8275 104.216 82.4884C102.534 76.0609 95.3831 71.7284 89.4191 72.5568C91.1602 69.4989 92.9016 66.4434 94.668 63.4065V63.4085ZM81.0382 87.3979C83.2005 83.5316 85.3723 79.6707 87.5536 75.8152C93.697 73.2693 104.026 78.9673 101.844 86.9061C98.97 92.0133 96.0886 97.1154 93.1998 102.212C90.9448 105.734 89.6333 110.691 85.7071 112.415C79.9821 114.552 73.5146 108.956 73.9717 102.436C74.8435 96.9031 78.4947 92.1883 81.0382 87.3979ZM74.4808 99.6115C74.3415 100.12 74.307 99.9869 74.4808 99.6115V99.6115ZM69.52 60.7785C77.2348 51.3938 89.7403 64.2943 82.3348 74.0165C81.0441 67.3801 73.7738 62.9587 67.8083 63.5443C68.3779 62.6217 68.94 61.693 69.52 60.7785V60.7785ZM60.6653 77.0106C60.5833 77.2842 60.5847 77.2102 60.6653 77.0106V77.0106ZM60.3541 78.9322C61.0745 74.4812 64.1126 70.805 65.8945 66.7659C71.6451 64.8213 79.4074 68.6652 80.274 75.5877C80.5414 79.5117 77.2853 82.3954 75.7674 85.7241C75.3389 86.5509 74.5892 87.68 73.9108 88.1456C68.1788 92.8596 59.4715 86.3913 60.3541 78.9322V78.9322ZM74.6917 87.5256C74.6716 87.5551 74.6546 87.5883 74.6349 87.617C74.5588 87.7253 74.4874 87.7604 74.6917 87.5256V87.5256ZM75.2345 184.59C74.6231 185.384 74.0688 186.229 73.5766 187.116C61.4967 184.479 51.7991 176.572 43.7795 166.695C44.7352 165.096 45.4723 163.354 45.9676 161.525C55.5003 170.281 66.3226 176.464 77.9622 181.433C76.9706 182.397 76.0579 183.454 75.2345 184.59ZM73.7838 173.911C21.8939 146.254 33.1343 135.518 58.5752 89.4977C61.6537 93.5025 66.6033 95.6653 71.1998 95.0979C62.8642 107.904 79.1088 125.12 90.5757 115.698C92.368 123.823 100.443 129.423 108.122 127.05C115.516 124.493 118.572 113.249 122.953 106.783C124.841 112.801 131.118 117.283 136.915 116.911C130.78 127.907 124.703 138.939 118.683 150.008C100.342 127.931 68.8004 156.883 89.7347 178.45C84.3128 178.918 78.5689 176.148 73.7838 173.911V173.911ZM123.496 196.104C115.132 191.067 106.919 185.011 98.5805 179.684C66.4377 156.977 113.423 122.444 126.237 173.815C120.738 179.12 120.976 191.042 126.951 195.744C125.8 195.864 124.649 195.99 123.496 196.104V196.104ZM149.97 193.309C146.554 193.713 142.775 194.051 139.312 194.428C135.627 194.454 131.472 196.501 128.263 193.814C123.516 189.394 123.695 180.523 127.833 175.712C135.082 175.405 142.357 174.22 149.608 173.911C158.526 175.305 158.631 191.241 149.968 193.309H149.97Z" fill="#14004A"/>
<g opacity="0.8">
<path opacity="0.8" d="M94.9717 62.195C95.4414 61.7417 95.1832 61.7368 95.0294 62.0819C95.0124 62.1182 94.9902 62.1546 94.9717 62.195Z" fill="#6F3FF5"/>
<path opacity="0.8" d="M120.99 86.0927C122.684 87.6684 124.23 89.617 124.665 92.0443C125.627 90.2429 126.589 88.4413 127.55 86.6394C128.349 85.1372 129.14 83.6307 129.903 82.1055C129.987 81.9362 130.068 81.7629 130.144 81.5884C130.163 81.4671 130.186 81.3144 130.215 81.1116C130.551 78.778 130.507 76.4994 129.409 74.3896C127.371 70.4706 123.092 68.2485 119.083 69.4424C117.808 69.8226 117.031 70.6274 116.049 71.498C115.802 72.0043 115.453 72.4887 115.175 72.9687C113.419 76.0048 111.689 79.06 109.958 82.1148C113.878 81.4328 118.042 83.3487 120.99 86.0927Z" fill="#6F3FF5"/>
<path opacity="0.8" d="M95.7316 107.896C95.5379 108.281 95.3571 108.675 95.1611 109.058C95.1437 109.093 95.1312 109.122 95.1168 109.153C94.855 110.076 94.6835 111.026 94.6053 111.989C94.3587 116.464 97.0927 120.421 100.898 121.903C102.634 122.567 104.521 122.588 106.269 121.965C107.248 121.614 107.831 120.984 108.636 120.319C108.795 120.188 108.915 120.091 109.005 120.019C110.759 117.441 112.177 114.489 113.715 111.765C116.591 106.673 119.455 101.572 122.306 96.4628C122.417 96.2554 122.528 96.048 122.638 95.8406C122.697 95.2638 122.713 94.6829 122.686 94.1033C122.551 91.5439 121.257 89.7472 119.549 88.1239C116.181 84.9225 112.326 84.0365 108.104 85.3766C105.934 89.2298 103.776 93.0898 101.628 96.9565C101.534 97.1285 101.423 97.2895 101.298 97.4369C100.512 98.8625 99.7247 100.288 98.9362 101.712C97.8486 103.761 96.775 105.82 95.7316 107.896Z" fill="#6F3FF5"/>
<path opacity="0.8" d="M116.055 71.487C116.524 71.0337 116.266 71.0289 116.112 71.3735C116.095 71.4103 116.073 71.4466 116.055 71.487Z" fill="#6F3FF5"/>
<path opacity="0.8" d="M109.044 72.4097C108.997 72.6182 108.98 72.8076 109.044 72.4097V72.4097Z" fill="#6F3FF5"/>
<path opacity="0.8" d="M95.1104 109.165C94.9373 109.54 94.9717 109.673 95.1104 109.165V109.165Z" fill="#6F3FF5"/>
<path opacity="0.8" d="M139.673 88.5098C140.757 93.0101 143.586 96.0758 147.562 97.6002C147.856 97.3228 148.162 97.0624 148.48 96.82C148.732 96.4114 149.093 96.0979 149.514 95.9223C154.075 93.847 158.634 91.7627 163.189 89.6693C165.684 88.5183 168.835 87.6759 170.554 85.2288C173.162 81.5183 172.03 75.9497 169.403 72.6893C168.615 71.6986 167.651 70.8946 166.57 70.3265C165.488 69.7584 164.312 69.4382 163.113 69.3857C160.788 69.2455 158.999 70.4539 156.926 71.3981C152.032 73.6254 146.937 75.515 142.127 77.9407H142.123C141.183 78.8478 140.391 79.9226 139.78 81.1195C138.644 83.4996 139.076 86.0348 139.673 88.5098Z" fill="#6F3FF5"/>
<path opacity="0.8" d="M56.9984 241.075C61.1558 232.272 65.479 223.563 69.7017 214.798C72.4416 209.111 74.8715 203.126 77.7516 197.496C77.6637 197.249 77.6205 196.985 77.6243 196.72C77.639 193.318 75.1689 192.329 72.5235 191.519C69.9479 190.731 67.3696 189.989 64.8438 189.02C60.1003 187.202 55.6912 184.764 51.8113 181.24C47.8277 177.623 44.2955 173.476 40.6968 169.418C39.2593 167.797 37.4392 165.3 35.158 165.388C32.7865 165.478 31.5176 168.397 30.357 170.27C30.2945 170.372 30.2158 170.461 30.1244 170.532C29.7244 171.205 29.3214 171.868 28.9398 172.522C27.4456 175.08 25.9381 177.631 24.4174 180.173C21.2435 185.485 18.0733 190.799 14.8359 196.066C12.2839 200.218 9.74293 204.376 7.12263 208.476C6.49523 209.456 5.75195 211.009 4.83447 212.224L54.825 245.42C55.4546 243.763 56.5209 242.086 56.9984 241.075Z" fill="#6F3FF5"/>
<path opacity="0.8" d="M131.567 113.775C133.646 114.672 135.674 115.092 137.78 114.091C140.245 109.638 142.709 105.185 145.172 100.731C148.272 95.1234 139.22 111.244 142.352 105.657C143.129 104.272 156.085 81.1739 156.873 79.7946C156.997 79.578 144.93 101.066 145.057 100.851C145.302 100.434 145.548 100.052 145.798 99.69C141.404 98.2549 138.326 93.3934 137.283 88.7411C136.808 86.6201 136.495 84.3317 136.984 82.2021C135.479 84.1321 134.113 86.1869 132.899 88.348C127.834 96.8619 135.281 83.9038 130.333 92.4977C130.207 92.7171 130.054 92.9156 129.877 93.0871C127.925 96.6425 125.972 100.198 124.018 103.753C124.853 108.566 127.364 111.961 131.567 113.775Z" fill="#6F3FF5"/>
<path opacity="0.8" d="M130.128 81.7021C130.081 81.9106 130.064 82.0993 130.128 81.7021V81.7021Z" fill="#6F3FF5"/>
<path opacity="0.8" d="M122.048 188.558C120.966 183.679 121.753 177.477 125.468 174.059C125.436 173.842 125.427 173.622 125.439 173.404C122.529 164.851 119.447 156.599 112.475 150.923C108.011 147.29 103.036 146.268 97.6708 147.963C92.7708 149.511 88.5621 154.306 87.3213 159.737C85.3609 168.317 91.7386 175.808 97.9789 179.925C102.863 183.148 107.708 186.44 112.57 189.703C115.044 191.362 117.519 193.02 119.994 194.676C120.79 195.209 121.611 195.715 122.374 196.302L122.483 196.383C122.567 196.365 122.654 196.351 122.744 196.342C123.888 196.228 125.032 196.102 126.176 195.982C126.024 195.883 125.866 195.795 125.719 195.682C123.571 194.028 122.642 191.238 122.048 188.558Z" fill="#6F3FF5"/>
<path opacity="0.8" d="M82.5621 166.207C81.6303 159.975 83.6542 154.194 87.399 149.549C91.2741 144.741 96.8638 142.369 102.676 142.348C108.367 142.327 113.348 145.438 117.384 149.629C117.58 149.831 117.767 150.049 117.96 150.258C119.473 147.533 120.929 144.768 122.418 142.031C126.939 133.721 131.492 125.434 136.079 117.168C134.224 117.434 132.329 116.885 130.589 116.113C126.946 114.492 123.41 111.261 122.204 107.043C120.123 110.817 118.033 114.585 115.933 118.346C113.75 122.243 111.846 125.942 107.463 127.304C99.831 129.677 91.8051 124.078 90.0237 115.955C88.9502 116.906 87.7102 117.606 86.38 118.012C77.7577 120.693 68.6262 113.201 68.5719 103.386C68.5498 100.725 69.2194 98.1106 70.5028 95.8495C70.5896 95.6855 70.6785 95.5227 70.7656 95.3586C66.3225 95.9089 61.5794 93.8908 58.4841 90.102C58.3926 89.99 58.307 89.8741 58.2188 89.7598C53.1203 99.0663 47.9959 108.337 43.1362 117.799C39.8073 124.279 36.0968 131.671 36.7622 139.375C37.5118 148.047 44.5928 154.647 50.4324 159.669C57.4039 165.664 65.2065 170.33 73.335 174.154C78.0895 176.39 83.7999 179.159 89.1874 178.692C85.9814 175.233 83.2973 171.125 82.5621 166.207Z" fill="#6F3FF5"/>
<path opacity="0.8" d="M99.9067 76.7993C101.601 78.3749 103.147 80.3235 103.582 82.7504C104.544 80.9493 105.505 79.1478 106.466 77.3459C107.266 75.8438 108.056 74.3368 108.819 72.812C108.904 72.6427 108.985 72.4694 109.06 72.2945C109.079 72.1733 109.102 72.021 109.131 71.8182C109.467 69.4842 109.423 67.2059 108.325 65.0961C106.287 61.1772 102.009 58.9551 97.9998 60.149C96.7244 60.5291 95.9475 61.3339 94.965 62.2042C94.7185 62.7108 94.369 63.1948 94.0915 63.6752C92.3355 66.7114 90.605 69.7662 88.8745 72.8213C92.7939 72.1389 96.9576 74.0548 99.9067 76.7993Z" fill="#6F3FF5"/>
<path opacity="0.8" d="M45.6875 161.771C45.1953 163.6 44.4627 165.341 43.5127 166.94C44.0213 167.519 44.5213 168.1 45.0236 168.655C47.3147 171.187 49.611 173.717 52.046 176.085C57.5295 181.418 63.7414 184.501 70.7572 186.666C71.5322 186.905 72.3316 187.123 73.1295 187.356C73.6187 186.469 74.1696 185.625 74.7773 184.831C75.5957 183.694 76.5028 182.638 77.4884 181.674C74.5533 180.49 71.7241 179.052 69.1418 177.762C60.6956 173.542 52.7834 168.324 45.6875 161.771Z" fill="#6F3FF5"/>
<path opacity="0.8" d="M154.935 180.016C154.007 177.143 151.533 174.472 148.696 174.153C147.46 174.014 146.054 174.334 144.825 174.438C139.121 174.923 133.421 175.459 127.72 175.992C127.497 176.012 127.273 175.999 127.053 175.954C124.441 179.234 123.369 183.216 124.265 187.554C124.782 190.051 125.468 192.518 127.48 194.051C128.383 194.711 129.375 195.212 130.42 195.536C133.102 195.247 135.783 194.956 138.462 194.665C140.753 194.419 143.045 194.191 145.336 193.953C146.193 193.864 147.05 193.775 147.906 193.679C148.545 193.608 148.903 193.584 149.056 193.546C154.381 192.229 156.628 185.257 154.935 180.016Z" fill="#6F3FF5"/>
<path opacity="0.8" d="M74.2388 87.7891C74.0329 88.0247 74.1045 87.9895 74.1816 87.8807C74.2022 87.8519 74.2171 87.8187 74.2388 87.7891Z" fill="#6F3FF5"/>
<path opacity="0.8" d="M73.463 88.4091C73.5464 88.3384 74.1107 87.7987 74.3705 87.5724C74.3989 87.5239 74.4322 87.4779 74.4584 87.4302C74.7263 86.9409 75.026 86.4694 75.3072 85.9879C76.7627 83.483 78.2058 80.9685 79.6362 78.4445C79.771 77.5896 79.8214 76.7214 79.7864 75.8547C79.6521 73.2949 78.3578 71.4982 76.6495 69.8733C73.3593 66.7458 69.6038 65.8274 65.4962 67.035C64.1657 69.5803 62.8449 72.1305 61.5547 74.6996C61.159 75.4875 60.7822 76.2866 60.3884 77.0757C60.3589 77.1346 60.3353 77.188 60.3146 77.2373C60.1478 77.8775 60.0389 78.534 59.9895 79.1976C59.6817 83.1674 61.489 86.5822 64.5721 88.6071C67.2994 90.4009 70.8866 90.5944 73.463 88.4091Z" fill="#6F3FF5"/>
<path opacity="0.8" d="M74.0274 99.8726C73.8543 100.248 73.8887 100.381 74.0274 99.8726V99.8726Z" fill="#6F3FF5"/>
<path opacity="0.8" d="M78.0883 67.8431C79.8945 69.5238 81.5327 71.6271 81.8335 74.2835C82.4192 73.0965 83.0016 71.9071 83.6124 70.7375C83.6667 70.6227 83.7146 70.5043 83.7559 70.3832C83.9382 69.6776 84.0496 68.9524 84.0881 68.2205C84.2187 66.3305 83.805 64.4433 82.9052 62.824C81.1925 59.8004 78.0193 57.7164 74.7425 57.8312C72.778 57.9003 71.5955 58.6643 70.0444 59.8662C69.8853 59.9874 69.7646 60.0803 69.6694 60.149C69.6668 60.1522 69.6668 60.1535 69.6639 60.1575C69.4583 60.4379 69.2819 60.7514 69.0959 61.0463C68.5194 61.9606 67.9607 62.8891 67.3945 63.8114C71.2146 63.2959 75.2244 65.1778 78.0883 67.8431Z" fill="#6F3FF5"/>
<path opacity="0.8" d="M60.2963 77.2773C60.2158 77.4777 60.2143 77.552 60.2963 77.2773V77.2773Z" fill="#6F3FF5"/>
<path opacity="0.8" d="M74.0771 99.7678C74.0597 99.8021 74.0472 99.8312 74.0328 99.8623C73.7708 100.785 73.5994 101.736 73.5213 102.698C73.2748 107.174 76.0087 111.13 79.8141 112.612C81.55 113.276 83.4369 113.297 85.1853 112.674C86.1641 112.323 86.7468 111.694 87.5521 111.029C87.7108 110.898 87.8315 110.8 87.9211 110.728C89.6745 108.151 91.0928 105.198 92.631 102.474C95.507 97.382 98.3707 92.2812 101.222 87.1717L101.554 86.55C101.613 85.9732 101.629 85.3922 101.602 84.8127C101.468 82.2528 100.174 80.4562 98.4655 78.8312C95.0974 75.6298 91.2419 74.7442 87.0206 76.0839C84.8506 79.9355 82.692 83.7955 80.5448 87.6638C80.4114 87.9066 80.2455 88.126 80.0525 88.3147C78.2113 91.7214 76.3903 95.1426 74.6477 98.6054C74.4539 98.988 74.2731 99.3819 74.0771 99.7678Z" fill="#6F3FF5"/>
</g>
</svg>
