<svg width="526" height="591" viewBox="0 0 526 591" fill="none" xmlns="http://www.w3.org/2000/svg">
<path d="M510.223 165.542C511.782 168.275 510.845 171.313 508.035 172.831C505.227 174.35 502.103 173.439 500.543 170.705C498.981 168.275 499.918 164.935 502.728 163.416C505.227 162.201 508.66 163.112 510.223 165.542Z" fill="#5932C4"/>
<path d="M399.254 35.709C400.813 38.4426 399.876 41.4797 397.066 42.9983C394.259 44.5168 391.134 43.6058 389.575 40.8722C388.012 38.4426 388.949 35.1018 391.759 33.5832C394.259 32.3682 397.692 33.2795 399.254 35.709Z" fill="#5932C4"/>
<path d="M271.94 22.5614C273.5 25.295 272.563 28.3321 269.753 29.8506C266.945 31.3692 263.82 30.4582 262.261 27.7246C260.699 25.295 261.636 21.9541 264.446 20.4356C266.945 19.2205 270.378 20.1318 271.94 22.5614Z" fill="#5932C4"/>
<path d="M330.436 150.751C331.995 153.484 331.058 156.521 328.248 158.04C325.44 159.559 322.316 158.648 320.756 155.914C319.194 153.484 320.131 150.144 322.941 148.625C325.441 147.41 328.873 148.321 330.436 150.751Z" fill="#5932C4"/>
<path d="M214.305 150.751C215.865 153.484 214.928 156.521 212.118 158.04C209.31 159.559 206.185 158.648 204.626 155.914C203.064 153.484 204.001 150.144 206.811 148.625C209.31 147.41 212.743 148.321 214.305 150.751Z" fill="#5932C4"/>
<path d="M124.842 320.027C126.401 322.76 125.464 325.797 122.654 327.316C119.846 328.834 116.722 327.923 115.163 325.19C113.6 322.76 114.537 319.419 117.347 317.901C119.847 316.686 123.279 317.597 124.842 320.027Z" fill="#5932C4"/>
<path d="M71.5083 467.937C73.0677 470.671 72.1309 473.708 69.3204 475.227C66.513 476.745 63.3884 475.834 61.829 473.101C60.2667 470.671 61.2035 467.33 64.0139 465.812C66.513 464.597 69.946 465.508 71.5083 467.937Z" fill="#5932C4"/>
<path d="M261.618 421.099C263.177 423.833 262.24 426.87 259.43 428.388C256.622 429.907 253.498 428.996 251.938 426.262C250.376 423.833 251.313 420.492 254.123 418.973C256.622 417.758 260.055 418.669 261.618 421.099Z" fill="#5932C4"/>
<path d="M448.287 320.848C449.846 323.582 448.909 326.619 446.099 328.138C443.291 329.656 440.167 328.745 438.607 326.011C437.045 323.582 437.982 320.241 440.792 318.723C443.291 317.507 446.724 318.419 448.287 320.848Z" fill="#5932C4"/>
<path d="M345.92 566.545C347.479 569.278 346.542 572.315 343.732 573.834C340.925 575.352 337.8 574.441 336.241 571.708C334.678 569.278 335.615 565.937 338.426 564.419C340.925 563.204 344.358 564.115 345.92 566.545Z" fill="#5932C4"/>
<path d="M15.9961 375.904C17.5555 378.638 16.6187 381.675 13.8082 383.193C11.0008 384.712 7.87616 383.801 6.3168 381.067C4.75447 378.638 5.69128 375.297 8.50169 373.778C11.0008 372.563 14.4338 373.474 15.9961 375.904Z" fill="#5932C4"/>
<path d="M99.8955 177.868C101.455 180.601 100.518 183.638 97.7077 185.157C94.9002 186.676 91.7756 185.765 90.2162 183.031C88.6539 180.601 89.5907 177.261 92.4011 175.742C94.9002 174.527 98.3332 175.438 99.8955 177.868Z" fill="#5932C4"/>
<path d="M158.793 78.4388C160.353 81.1724 159.416 84.2095 156.606 85.7281C153.798 87.2466 150.674 86.3356 149.114 83.602C147.552 81.1724 148.489 77.8316 151.299 76.313C153.798 75.098 157.231 76.0093 158.793 78.4388Z" fill="#5932C4"/>
<path d="M434.065 227.171C435.625 229.905 434.688 232.942 431.878 234.461C429.07 235.979 425.945 235.068 424.386 232.335C422.824 229.905 423.761 226.564 426.571 225.046C429.07 223.831 432.503 224.742 434.065 227.171Z" fill="#5932C4"/>
<path d="M525.249 264.149C526.808 266.883 525.872 269.92 523.061 271.438C520.254 272.957 517.129 272.046 515.57 269.312C514.007 266.883 514.944 263.542 517.755 262.023C520.254 260.808 523.687 261.72 525.249 264.149Z" fill="#5932C4"/>
<path d="M379.871 462.185C381.43 464.919 380.494 467.956 377.683 469.475C374.876 470.993 371.751 470.082 370.192 467.349C368.629 464.919 369.566 461.578 372.377 460.06C374.876 458.844 378.309 459.756 379.871 462.185Z" fill="#5932C4"/>
<path d="M220.73 462.185C222.289 464.919 221.352 467.956 218.542 469.475C215.734 470.993 212.61 470.082 211.05 467.349C209.488 464.919 210.425 461.578 213.235 460.06C215.734 458.844 219.167 459.756 220.73 462.185Z" fill="#5932C4"/>
<path d="M119.223 582.979C120.783 585.713 119.846 588.75 117.035 590.268C114.228 591.787 111.103 590.876 109.544 588.142C107.982 585.713 108.918 582.372 111.729 580.853C114.228 579.638 117.661 580.55 119.223 582.979Z" fill="#5932C4"/>
<path d="M17.7166 499.163C19.2759 501.897 18.3391 504.934 15.5287 506.452C12.7213 507.971 9.59662 507.06 8.03726 504.326C6.47493 501.897 7.41173 498.556 10.2221 497.037C12.7213 495.822 16.1542 496.734 17.7166 499.163Z" fill="#5932C4"/>
<path d="M242.235 54.6087C243.794 57.3423 242.858 60.3794 240.047 61.898C237.24 63.4165 234.115 62.5055 232.556 59.7719C230.993 57.3424 231.93 54.0015 234.741 52.483C237.24 51.2679 240.673 52.1792 242.235 54.6087Z" fill="#5932C4"/>
<path d="M156.213 247.715C157.772 250.448 156.835 253.485 154.025 255.004C151.217 256.522 148.093 255.611 146.533 252.878C144.971 250.448 145.908 247.107 148.718 245.589C151.217 244.374 154.65 245.285 156.213 247.715Z" fill="#5932C4"/>
<path d="M141.44 300.584C142.055 300.569 145.655 300.826 147.378 300.957L148.707 301.441C149.238 301.635 149.604 302.367 149.721 302.709L149.968 303.995L150.166 308.255L149.615 313.438L148.799 316.43L149.69 317.055L149.927 323.123L150.923 323.487L151.188 325.677L151.111 332.528L149.62 340.06C149.418 340.883 148.974 342.815 148.823 343.956C148.671 345.097 147.38 348.515 146.753 350.081L144.647 354.396L140.082 362.003L135.917 367.661L140.849 372.452C143.315 374.848 148.45 379.893 149.262 380.907C150.074 381.921 152.167 385.058 153.113 386.5L153.587 388.168L154.165 389.576C154.842 390.421 156.419 392.312 157.314 393.118C158.209 393.923 157.503 395.181 157.038 395.709L155.852 396.772L147.968 403.166L149.77 405.32L150.225 406.084C150.26 405.997 150.504 405.767 151.203 405.543C151.901 405.32 153.112 405.842 153.631 406.131C155.013 407.432 158 410.238 158.895 411.043C159.791 411.848 159.818 413.174 159.72 413.737L156.949 417.81L165.41 423.291L174.535 429.015L181.877 433.489C182.856 434.086 183.834 434.303 184.201 434.337L187.36 433.097L192.474 430.776L197.465 427.812L201.791 424.606L206.326 420.877L207.512 419.814L208.688 423.534L210.707 430.851L210.849 432.398L210.764 433.564L208.619 436.071L202.186 443.593L198.856 447.164L194.985 451.134L191.635 453.8L189.036 455.544C188.89 455.59 188.383 455.844 187.518 456.485C186.652 457.126 184.178 457.858 183.049 458.144L180.412 458.079L174.35 457.063L170.926 456.112L166.685 458.154L162.985 459.794L158.744 461.836L155.48 463.336L153.612 463.252L148.878 462.721L144.789 461.528L141.574 460.055L135.474 457.231L127.506 454.323L121.758 452.524L118.617 454.667C118.507 454.627 118.177 454.626 117.744 454.947C117.312 455.268 115.793 454.434 115.088 453.978L110.384 449.569L109.473 448.04C109.291 447.734 109.524 446.962 109.663 446.614L109.977 445.831L105.727 442.186L95.0944 432.622L93.7476 431.233L92.666 432.035C92.1252 432.436 91.1292 432.072 89.6967 431.849C88.5508 431.67 86.108 430.04 85.0298 429.248L79.6612 424.596L77.1951 422.201L76.2179 422.742L73.3907 424.102C72.8088 424.289 71.5369 424.742 71.1043 425.063C70.6716 425.383 63.2205 427.968 59.5489 429.22L49.8248 431.653L42.5959 432.604L34.371 433.191L33.8114 432.688L33.2706 433.088C31.5312 433.949 27.7907 435.754 26.7433 436.09C25.4341 436.509 22.0472 437.367 20.074 437.544C18.1008 437.721 18.082 436.817 17.6267 436.053C17.1715 435.288 15.313 430.422 15.1898 429.779C15.0912 429.265 14.9092 425.091 14.8305 423.068L16.5384 420.7L17.7056 418.733L17.5636 417.186L25.1433 417.261L25.6174 418.929L27.9414 419.777L30.5598 418.938L30.9774 417.894L31.5182 417.494C33.6021 417.357 38.2519 417.02 40.1796 416.767C42.5892 416.45 53.7269 413.336 54.5998 413.057C55.298 412.833 62.5817 409.589 66.1363 407.995L67.5499 407.315L67.3035 406.028C67.2276 405.901 67.0094 405.622 66.7438 405.525C66.4118 405.404 64.733 403.894 63.6137 402.887C62.4945 401.88 60.8824 398.301 60.5316 397.275C60.2509 396.455 60.4215 393.746 60.5419 392.493L61.1494 390.023L53.296 382.072C52.8658 382.513 51.8101 383.504 51.0283 383.936C50.2466 384.369 48.5714 383.737 47.8315 383.368L44.2462 379.965C42.1942 378.12 37.9329 374.251 37.3031 373.543C36.6733 372.834 36.6996 370.93 36.7914 370.066L37.1046 369.283C36.994 369.243 36.6152 368.985 35.9854 368.276C35.1982 367.391 32.4856 363.709 31.9072 362.301C31.3288 360.894 31.0447 357.799 30.7983 356.513C30.5518 355.226 31.7858 351.19 31.9946 350.668C32.2034 350.146 34.5377 346.212 35.9325 344.628C37.3273 343.043 42.1946 339.436 43.7126 338.494C45.2306 337.553 50.5906 336.518 53.4555 336.965C56.3204 337.413 61.4237 339.874 62.6473 340.619C63.6262 341.216 67.2287 344.385 68.9075 345.895L70.5535 347.376C70.5473 347.314 70.8068 347.184 71.8955 346.986C73.2084 346.747 74.5863 347.868 75.1112 348.459C76.2304 349.465 78.7382 351.757 79.8157 352.868C80.8932 353.979 80.6058 355.649 80.3274 356.345L78.183 358.852L82.2236 363.019C82.4038 362.885 82.8516 362.59 83.2008 362.478C83.6372 362.338 87.4604 361.341 88.3332 361.061C89.0315 360.838 91.6282 361.068 92.8393 361.21L94.2717 361.434L103.048 355.664L109.224 351.637C109.876 351.277 111.594 350.468 113.256 350.118C114.918 349.767 117.187 350.755 118.113 351.292L122.258 355.198L124.194 353.213C124.839 352.551 129.09 345.727 130.257 343.761C131.424 341.794 132.792 333.619 132.982 332.193C133.134 331.052 132.85 325.863 132.689 323.412L133.562 323.132L133.449 317.707L134.322 317.428L134.161 314.976L133.023 313.065L130.822 312.86L128.926 306.186L130.567 305.888L133.253 302.979L134.439 301.917L136.184 301.357C137.057 301.078 140.671 300.602 141.44 300.584Z" fill="white"/>
<path d="M157.434 395.029C159.58 395.934 161.343 397.798 162.625 399.608C163.974 401.564 165.019 403.654 166.259 405.57C169.602 410.694 174.44 414.9 180.111 417.336C177.929 417.15 175.594 417.03 173.43 416.484C171.266 415.938 169.12 415.033 167.449 413.568C169.916 418.373 178.286 424.722 183.215 427.131C183.112 427.704 170.819 428.341 158.735 419.05C154.693 415.989 152.495 407.379 147.657 403.173" fill="#FFE48D"/>
<path d="M158.09 395.268C160.236 396.174 161.999 398.037 163.281 399.847C164.63 401.803 165.675 403.893 166.915 405.809C170.257 410.934 175.096 415.139 180.767 417.575C178.585 417.389 176.25 417.269 174.086 416.723C171.922 416.177 169.776 415.272 168.105 413.808C170.572 418.612 178.941 424.961 183.871 427.371C183.81 427.836 174.685 426.824 164.023 422.444" stroke="#6F3FF5" stroke-width="1.5" stroke-miterlimit="10"/>
<path d="M215.584 416.742L220.266 416.011L220.375 416.051C220.485 416.09 228.539 419.152 235.839 425.355C238.653 427.724 239.686 430.785 239.953 433.566C240.067 436.414 239.501 438.77 238.972 440.407C238.571 441.724 237.294 442.722 235.768 442.775L230.144 443.041" fill="white"/>
<path d="M215.584 416.742L220.266 416.011L220.375 416.051C220.485 416.09 228.539 419.152 235.839 425.355C238.653 427.724 239.686 430.785 239.953 433.566C240.067 436.414 239.501 438.77 238.972 440.407C238.571 441.724 237.294 442.722 235.768 442.775L230.144 443.041" stroke="#6F3FF5" stroke-width="1.5" stroke-miterlimit="10"/>
<path d="M211.228 432.964L225.008 441.776C226.436 442.907 228.661 442.987 230.558 442.948C231.409 443.014 232.236 442.828 232.996 442.495C234.516 441.83 235.592 440.393 235.86 438.783C236.311 435.775 236.3 430.159 231.82 426.938C225.584 422.466 217.797 417.794 216.503 416.955L207.48 419.762" fill="white"/>
<path d="M61.4776 389.775C58.1508 395.271 62.1906 407.115 72.7628 406.704C80.958 406.279 89.6901 398.242 93.8314 393.531C106.529 380.597 103.125 353.368 82.501 362.921M211.227 432.964L225.007 441.776C226.435 442.907 228.661 442.987 230.557 442.948C231.408 443.014 232.235 442.828 232.995 442.495C234.515 441.83 235.592 440.393 235.86 438.783C236.31 435.775 236.3 430.159 231.82 426.938C225.583 422.466 217.797 417.794 216.502 416.955L207.48 419.762L211.227 432.964Z" stroke="#6F3FF5" stroke-width="1.5" stroke-miterlimit="10"/>
<path d="M83.9114 364.412C101.702 357.241 102.619 382.22 92.294 392.36C88.475 396.578 80.8678 403.684 73.6089 403.963C66.6599 404.721 61.2148 396.389 62.6934 391.439" stroke="#6F3FF5" stroke-width="1.5" stroke-miterlimit="10"/>
<path d="M37.7123 369.877C37.7123 369.877 22.0912 357.831 37.9928 342.528C52.4471 328.649 67.4473 344.129 70.1154 347.176M78.3861 359.103L88.7793 369.484C83.1972 374.035 87.6575 382.007 87.8764 382.087L88.1194 382.42C68.4841 401.728 71.585 399.931 53.6855 382.296L78.3861 359.103ZM79.4581 352.66C80.5156 353.778 80.7706 355.336 80.1502 356.573L78.5142 358.782C77.9547 359.554 76.8239 359.873 75.9485 359.554C74.6355 359.074 72.7937 358.036 70.4597 355.72C67.6639 352.992 67.3421 351.288 67.2267 350.636C67.1782 350.131 67.4154 349.851 67.5248 349.891L69.5559 347.948C70.9605 346.631 73.2282 346.605 74.5714 347.949L79.4581 352.66V352.66Z" stroke="#6F3FF5" stroke-width="1.5" stroke-miterlimit="10"/>
<path d="M38.8249 367.722C36.1088 361.972 35.3446 355.105 41.9362 348.971C56.0925 335.837 68.4547 349.133 68.4547 349.133" stroke="#6F3FF5" stroke-width="1.5" stroke-miterlimit="10"/>
<path d="M46.4846 345.751C46.4846 345.751 49.1225 347.934 45.2793 351.899C42.3848 354.747 41.5154 355.039 38.4942 353.815" stroke="#6F3FF5" stroke-width="1.5" stroke-miterlimit="10"/>
<path d="M47.4786 383.08L37.6627 373.763C36.3195 372.418 36.2774 370.329 37.5727 368.972L53.6204 352.99C55.0251 351.673 57.1833 351.607 58.5691 352.845L68.385 362.161C69.7282 363.506 69.7703 365.595 68.475 366.952L52.4273 382.934C51.0895 384.397 48.8218 384.424 47.4786 383.08Z" fill="#58EAD3" stroke="#6F3FF5" stroke-width="1.5" stroke-miterlimit="10"/>
<path d="M145.87 448.393L153.706 449.18C153.925 449.259 171.456 458.098 182.229 458.126C192.479 458.207 208.656 435.318 210.735 433.881C211.052 432.777 212.275 426.269 207.176 419.894C205.103 421.943 195.963 430.686 183.961 434.358C183.809 434.424 183.809 434.424 183.7 434.384L183.439 434.411L182.934 434.105L163.124 421.872M53.7223 359.005C56.1851 356.61 58.0754 358.154 58.0754 358.154L67.8245 367.325L53.7223 359.005ZM88.822 369.377L96.8474 367.182L88.822 369.377ZM96.5023 385.601C87.6156 379.917 93.8683 368.047 93.8683 368.047L96.5023 385.601ZM163.124 421.873L156.717 417.827L163.124 421.873Z" stroke="#6F3FF5" stroke-width="1.5" stroke-miterlimit="10"/>
<path d="M121.508 452.556C121.879 452.57 134.323 456.257 141.161 459.851C145.501 462.167 150.419 463.352 155.326 463.313L171 456.102" stroke="#6F3FF5" stroke-width="1.5" stroke-miterlimit="10"/>
<path d="M183.462 434.665L181.784 439.176L183.462 434.665Z" fill="white"/>
<path d="M183.462 434.665L181.784 439.176" stroke="#6F3FF5" stroke-width="1.5" stroke-miterlimit="10"/>
<path d="M148.346 463.207C148.322 462.954 147.077 458.229 151.06 452.973L148.346 463.207Z" fill="white"/>
<path d="M148.346 463.207C148.322 462.954 147.077 458.229 151.06 452.973" stroke="#6F3FF5" stroke-width="1.5" stroke-miterlimit="10"/>
<path d="M183.402 455.505C183.226 455.319 180.157 451.393 181.776 445.152L183.402 455.505Z" fill="white"/>
<path d="M183.402 455.505C183.226 455.319 180.157 451.393 181.776 445.152" stroke="#6F3FF5" stroke-width="1.5" stroke-miterlimit="10"/>
<path d="M210.105 425.112L216.682 428.733C217.187 429.039 217.496 429.518 217.545 430.024C217.612 430.17 217.527 430.383 217.484 430.49L217.442 430.596C217.338 431.168 217.016 431.661 216.45 431.82C215.952 432.126 215.362 432.033 214.815 431.834L211.046 429.97" fill="white"/>
<path d="M210.105 425.112L216.682 428.733C217.187 429.039 217.496 429.518 217.545 430.024C217.612 430.17 217.527 430.383 217.484 430.49L217.442 430.596C217.338 431.168 217.016 431.661 216.45 431.82C215.952 432.126 215.362 432.033 214.815 431.834L211.046 429.97" stroke="#6F3FF5" stroke-width="1.5" stroke-miterlimit="10" stroke-linecap="round"/>
<path d="M234.723 440.686C225.124 438.036 226.268 434.55 226.39 433.618C227.078 430.331 233.606 433.446 235.333 431.636" fill="white"/>
<path d="M234.936 440.153C232.662 439.567 230.364 438.729 228.541 437.331C228.079 436.919 227.617 436.506 227.307 436.027C227.064 435.694 226.973 435.295 226.882 434.896C226.924 434.789 226.815 434.749 226.857 434.643L226.79 434.496C226.833 434.39 226.766 434.243 226.851 434.03C226.827 433.778 226.955 433.458 227.04 433.245C227.618 432.114 229.648 432.367 230.718 432.514C231.679 432.62 232.53 432.687 233.424 432.647C234.165 432.674 234.992 432.488 235.576 431.969C236.16 431.45 235.388 430.558 234.804 431.077C234.372 431.529 233.74 431.543 233.108 431.556C232.214 431.596 231.406 431.423 230.445 431.316C229.004 431.156 226.931 431.01 226.007 432.38C225.599 433.085 225.477 434.017 225.55 434.776C225.605 435.894 226.334 436.892 227.148 437.677C229.063 439.474 231.841 440.366 234.333 441.031C235.209 441.351 235.635 440.286 234.936 440.153V440.153Z" fill="#6F3FF5"/>
<path d="M159.344 414.394C148.142 430.801 135.506 443.27 118.845 454.513C117.805 455.232 116.365 455.072 115.441 454.247C113.526 452.45 112.183 451.106 110.335 449.455C109.168 448.297 109.302 446.394 110.689 445.436C126.589 434.525 138.836 422.403 149.741 406.74C150.665 405.37 152.647 405.117 153.814 406.275C155.552 407.886 157.005 409.27 158.92 411.067C159.801 411.998 160.032 413.303 159.344 414.394V414.394Z" fill="white" stroke="#6F3FF5" stroke-width="1.5" stroke-miterlimit="10"/>
<path d="M130.306 449.057L128.512 450.721C128.08 451.173 127.229 451.106 126.767 450.694L115.864 439.394C115.402 438.981 115.481 438.156 115.913 437.704L117.707 436.041C118.138 435.588 118.989 435.655 119.451 436.067L130.355 447.367C130.884 447.926 130.847 448.645 130.306 449.057Z" fill="white" stroke="#6F3FF5" stroke-width="1.5" stroke-miterlimit="10"/>
<path d="M155.883 423.989L150.835 429.711C149.972 430.616 148.513 430.815 147.479 429.95L136.642 420.992C135.718 420.167 135.53 418.756 136.436 417.745L141.483 412.023C142.347 411.118 143.806 410.919 144.839 411.784L155.677 420.741C156.601 421.567 156.679 422.937 155.883 423.989Z" fill="#58EAD3" stroke="#6F3FF5" stroke-width="1.5" stroke-miterlimit="10"/>
<path d="M148.756 408.577L158.14 416.15M112.793 444.252L121.144 453.156L112.793 444.252ZM125.021 434.685L134.022 443.217L125.021 434.685ZM130.032 429.681L139.034 438.212L130.032 429.681ZM134.373 425.41L143.375 433.942L134.373 425.41Z" stroke="#6F3FF5" stroke-width="1.5" stroke-miterlimit="10"/>
<path fill-rule="evenodd" clip-rule="evenodd" d="M73.5039 406.732C73.5039 406.732 78.4008 419.256 109.928 445.769L73.5039 406.732Z" fill="white"/>
<path d="M73.5039 406.732C73.5039 406.732 78.4008 419.256 109.928 445.769" stroke="#6F3FF5" stroke-width="1.5" stroke-miterlimit="10"/>
<path fill-rule="evenodd" clip-rule="evenodd" d="M81.8175 418.551C81.8175 418.551 100.697 408.971 117.864 387.054L81.8175 418.551Z" fill="white"/>
<path d="M81.8175 418.551C81.8175 418.551 100.697 408.971 117.864 387.054" stroke="#6F3FF5" stroke-width="1.5" stroke-miterlimit="10"/>
<path fill-rule="evenodd" clip-rule="evenodd" d="M86.7052 423.261C86.7052 423.261 107.141 412.297 124.309 390.381L86.7052 423.261Z" fill="white"/>
<path d="M99.3034 366.371L103.298 364.535M86.705 423.261C86.705 423.261 107.141 412.297 124.309 390.381L86.705 423.261Z" stroke="#6F3FF5" stroke-width="1.5" stroke-miterlimit="10"/>
<path d="M103.98 362.83C103.548 363.283 103.335 363.815 103.493 364.361C103.839 366.317 104.738 371.281 107.709 376.392C113.033 385.655 123.791 395.438 138.505 388.12L133.928 383.887C133.928 383.887 123.306 388.185 115.303 376.845C109.863 369.126 109.56 364.867 109.914 363.044C110.035 362.112 109.416 361.154 108.455 361.048C107.276 360.861 105.664 361.127 103.98 362.83V362.83Z" fill="white" stroke="#6F3FF5" stroke-width="1.5" stroke-miterlimit="10"/>
<path d="M123.503 377.033L131.228 384.367L123.503 377.033ZM135.921 389.252L150.3 405.968L135.921 389.252ZM136.789 368.584C136.789 368.584 135.731 367.466 145.043 376.477C159.326 389.986 152.383 393.552 152.383 393.552L145.031 400.019L136.789 368.584ZM93.8273 361.566L109.387 351.507C111.382 350.283 113.862 349.724 116.245 350.35C117.862 350.696 122.463 355.181 122.463 355.181L93.8273 361.566Z" stroke="#6F3FF5" stroke-width="1.5" stroke-miterlimit="10"/>
<path d="M67.0845 405.853C67.0845 405.853 68.7295 415.847 83.7852 428.053C91.4618 434.881 93.5419 431.248 93.5419 431.248" fill="white"/>
<path d="M67.0845 405.853C67.0845 405.853 68.7295 415.847 83.7852 428.053C91.4618 434.881 93.5419 431.248 93.5419 431.248" stroke="#6F3FF5" stroke-width="1.5" stroke-miterlimit="10"/>
<path fill-rule="evenodd" clip-rule="evenodd" d="M117.21 402.797L115.593 404.647C115.161 405.099 114.377 405.179 113.915 404.767L105.63 398.205C105.168 397.792 105.095 397.034 105.527 396.581L107.145 394.732C107.576 394.279 108.361 394.199 108.823 394.612L117.107 401.174C117.569 401.586 117.642 402.345 117.21 402.797ZM121.984 398.072L120.756 399.576C120.476 399.962 119.844 399.975 119.449 399.709L110.811 392.775C110.416 392.508 110.41 391.896 110.69 391.51L111.919 390.007C112.198 389.621 112.831 389.607 113.226 389.874L121.863 396.808C122.258 397.074 122.264 397.687 121.984 398.072Z" fill="white" stroke="#6F3FF5" stroke-width="1.5" stroke-miterlimit="10"/>
<path d="M97.0961 417.66C99.1857 418.423 101.513 418.347 103.565 417.448C105.618 416.55 107.228 414.903 108.041 412.87C108.854 410.837 108.803 408.584 107.901 406.607C106.998 404.63 105.317 403.091 103.227 402.329C101.138 401.566 98.8107 401.642 96.7582 402.541C94.7056 403.439 93.0958 405.086 92.2827 407.119C91.4697 409.153 91.52 411.405 92.4227 413.382C93.3254 415.359 95.0064 416.898 97.0961 417.66V417.66Z" fill="#58EAD3" stroke="#6F3FF5" stroke-width="1.5" stroke-miterlimit="10"/>
<path d="M148.912 316.642C148.912 316.642 151.596 305.544 149.269 301.644C149.269 301.644 142.917 298.716 133.857 302.241L130.361 305.967M133.687 323.043L133.482 317.6C133.482 317.6 142.547 314.687 149.569 316.883L149.847 323.085L133.687 323.043Z" stroke="#6F3FF5" stroke-width="1.5" stroke-miterlimit="10"/>
<path fill-rule="evenodd" clip-rule="evenodd" d="M134.2 317.374L134.133 315.032L132.784 313.075" fill="white"/>
<path d="M134.2 317.374L134.133 315.032L132.784 313.075" stroke="#6F3FF5" stroke-width="1.5" stroke-miterlimit="10"/>
<path fill-rule="evenodd" clip-rule="evenodd" d="M134.529 313.102L130.821 312.968L128.749 306.234L131.972 305.702L133.363 309.748" fill="white"/>
<path d="M66.7741 407.569C59.8121 411.495 46.065 417.335 31.3041 417.56C31.3041 417.56 27.442 424.081 34.3338 433.184C34.3338 433.184 54.4019 433.799 77.2088 422.236M134.529 313.102L130.821 312.969L128.749 306.234L131.971 305.702L133.363 309.748L134.529 313.102Z" stroke="#6F3FF5" stroke-width="1.5" stroke-miterlimit="10"/>
<path fill-rule="evenodd" clip-rule="evenodd" d="M38.0854 433.21C38.0854 433.21 32.8041 426.036 35.8157 417.253L38.0854 433.21Z" fill="white"/>
<path d="M33.8719 432.772C33.8719 432.772 23.2862 438.546 18.6965 437.481C18.6965 437.481 13.9801 432.343 14.9369 423.054L17.6859 418.69M38.0853 433.21C38.0853 433.21 32.8041 426.036 35.8156 417.253L38.0853 433.21ZM136.901 308.112L136.38 301.577L136.901 308.112ZM141.157 308.444L140.667 300.579L141.157 308.444ZM145.26 308.845L145.111 300.128L145.26 308.845Z" stroke="#6F3FF5" stroke-width="1.5" stroke-miterlimit="10"/>
<path fill-rule="evenodd" clip-rule="evenodd" d="M30.599 419.01L27.9238 419.741L25.5834 419.009" fill="white"/>
<path d="M30.599 419.01L27.9238 419.741L25.5834 419.009" stroke="#6F3FF5" stroke-width="1.5" stroke-miterlimit="10"/>
<path fill-rule="evenodd" clip-rule="evenodd" d="M26.2086 420.58L24.9328 417.187L17.5402 417.173L18.0501 420.287L22.3908 420.407" fill="white"/>
<path d="M23.3608 432.716L16.1989 434.006M26.2086 420.58L24.9328 417.187L17.5402 417.173L18.0501 420.287L22.3908 420.407L26.2086 420.58ZM22.3838 424.186L15.1124 425.437L22.3838 424.186ZM22.6867 428.445L15.3728 429.802L22.6867 428.445Z" stroke="#6F3FF5" stroke-width="1.5" stroke-miterlimit="10"/>
<path d="M67.0412 385.584C68.7067 386.436 70.6035 386.397 72.2513 385.412C73.8565 384.534 75.0849 383.03 75.0672 381.194C75.0855 380.834 74.9092 380.648 74.5384 380.635C74.277 380.661 73.9304 380.901 73.9546 381.153C73.8932 383.815 70.3604 386.064 67.7527 384.746C67.4244 384.626 67.163 384.653 66.9684 384.826C66.7313 385.105 66.7129 385.465 67.0412 385.584Z" fill="#6F3FF5"/>
<path d="M125.346 378.071C125.346 378.071 146.105 362.223 149.977 338.747C149.977 338.747 151.858 330.284 151.008 323.629C151.008 323.629 144.389 320.115 132.557 323.361C132.557 323.361 135.278 336.31 127.913 348.141C120.547 359.971 109.774 362.139 109.774 362.139" fill="white"/>
<path d="M125.346 378.071C125.346 378.071 146.105 362.223 149.977 338.747C149.977 338.747 151.858 330.284 151.008 323.629C151.008 323.629 144.389 320.115 132.557 323.361C132.557 323.361 135.278 336.31 127.913 348.141C120.547 359.971 109.774 362.139 109.774 362.139" stroke="#6F3FF5" stroke-width="1.5" stroke-miterlimit="10"/>
<path d="M154.111 389.545L157.441 393.445C158.037 394.151 157.915 395.082 157.179 395.668L147.943 403.399" stroke="#6F3FF5" stroke-width="1.5" stroke-miterlimit="10" stroke-linecap="round" stroke-linejoin="round"/>
<path d="M455.181 50.2117L462.844 49.6461L474.886 48.7976H480.725L482.185 48.5148L484.009 48.7976L488.023 49.6461C489.604 50.1175 492.986 51.1733 493.862 51.6259C494.738 52.0784 498.362 54.077 500.065 55.0198L504.079 57.8481C504.809 58.6023 506.415 60.2238 506.999 60.6764C507.729 61.242 509.553 65.2016 509.918 66.0501C510.283 66.8986 511.013 70.5753 511.378 71.9895C511.67 73.1208 511.743 76.7975 511.743 78.4945L511.378 83.3025L509.918 90.0904L507.729 97.4439L504.809 103.949L502.255 107.909L486.564 130.818L476.346 144.393L466.858 154.292L448.977 172.959L437.3 184.555L429.272 191.625L417.595 187.1L413.581 185.403L412.851 186.252L406.282 191.06L396.065 197.565L380.373 206.333L375.994 208.595C376.116 209.915 376.505 213.064 377.089 215.1C377.819 217.646 379.644 220.474 380.373 221.888C381.103 223.302 381.103 225.565 381.103 227.545C381.103 229.524 379.279 231.787 377.819 233.201C376.651 234.332 375.386 233.861 374.9 233.484L373.075 231.787L363.587 221.888L355.559 212.555L353.735 210.575L361.763 203.787L369.791 197.282L373.805 193.888L385.117 184.555L391.686 179.464L394.97 176.353C390.713 174.279 381.76 169.904 380.008 168.999C377.819 167.868 377.819 168.151 375.994 168.716C374.535 169.169 371.98 170.602 370.886 171.262C369.304 172.205 365.996 174.316 365.412 175.221C364.682 176.353 361.763 178.615 359.573 180.03C357.822 181.161 355.194 180.689 354.099 180.312L350.45 178.615L347.531 177.201L353.37 168.716L359.573 160.232L365.777 152.595L366.871 151.747L369.791 152.03L398.619 157.969L405.917 159.383L409.931 150.333L413.581 143.262L418.324 134.494L425.623 122.898L429.637 116.111L431.461 112.434L419.784 106.777V101.404L420.514 93.2015C420.879 91.2217 421.609 87.0924 421.609 86.4137C421.609 85.7349 423.312 79.7201 424.163 76.7975L427.082 69.444L427.812 68.3127V63.5046C427.812 63.2218 427.958 62.4299 428.542 61.5248C429.126 60.6198 432.191 60.205 433.651 60.1107C433.894 59.9221 434.454 59.3753 434.746 58.6966C435.111 57.8481 439.854 54.737 442.044 53.3228C443.796 52.1915 446.909 51.343 448.247 51.0602L455.181 50.2117Z" fill="white"/>
<path d="M501.96 146.937C502.201 145.322 502.442 143.822 502.682 142.323C502.802 140.938 502.923 139.439 503.163 138.054C502.802 141.054 502.321 144.053 501.96 146.937Z" fill="#E9E1FF"/>
<path d="M448.322 51.1866C445.556 54.4167 442.309 59.3774 438.701 72.9904M420.902 121.903C418.617 112.328 416.332 64.9137 443.992 52.4544C445.195 51.8776 446.518 51.5315 447.961 51.3008L452.05 50.6086C461.19 49.6857 478.508 48.0706 483.199 48.7628C488.13 49.455 492.94 50.9547 497.15 53.1466C499.675 54.531 501.479 57.069 501.84 59.8377C502.682 67.1057 502.321 74.4889 500.998 81.6415C499.675 89.1401 497.39 96.5234 494.263 103.445C491.136 110.367 487.288 116.943 482.597 122.942C481.515 124.441 480.312 125.826 479.11 127.21C478.749 127.672 478.268 128.133 477.787 128.595C477.667 128.71 477.667 128.825 477.546 128.941L420.902 121.903Z" stroke="#6F3FF5" stroke-width="1.5" stroke-miterlimit="10"/>
<path d="M491.618 50.8391C508.696 57.8762 509.778 64.452 511.341 71.8353C513.145 80.4876 509.778 93.8698 504.727 104.368L491.618 50.8391ZM444.354 133.787C439.784 140.016 424.39 159.052 419.82 165.281L444.354 133.787Z" stroke="#6F3FF5" stroke-width="1.5" stroke-miterlimit="10"/>
<path d="M494.143 125.249C493.829 125.577 493.496 125.926 493.147 126.292C479.899 140.218 442.679 180.908 429.321 191.699C410.8 185.123 395.887 176.24 378.088 168.164C378.088 168.164 369.789 170.241 364.137 176.47C356.681 184.661 351.87 178.778 348.021 177.393M429.321 191.469C431.125 188.354 430.403 183.624 428.84 180.279" stroke="#6F3FF5" stroke-width="1.5" stroke-miterlimit="10"/>
<path d="M426.795 121.327C423.909 125.134 421.383 129.288 419.098 133.21C414.889 140.824 408.875 151.437 405.869 159.513M356.68 164.127C360.529 158.821 364.738 153.514 366.783 151.668C366.783 151.668 368.827 151.783 368.707 152.014C364.257 159.167 351.87 178.779 347.54 177.279C347.3 177.394 351.75 170.819 356.68 164.127ZM373.397 153.628C368.947 160.781 360.89 171.625 360.89 171.625C360.89 171.625 354.756 181.085 351.389 179.008L373.397 153.628ZM353.794 210.502C354.997 209.464 356.921 209.118 357.763 210.156C360.89 213.733 367.384 220.424 370.15 223.769C372.916 227.115 375.322 230.345 376.284 232.537C376.885 233.806 376.765 234.729 375.081 233.46C374.119 232.768 373.036 231.729 371.954 230.691C365.099 224.115 358.845 216.271 353.794 210.502ZM380.012 229.654C378.929 227.462 376.524 223.886 373.758 220.425C370.992 217.079 363.295 208.773 360.168 205.197L380.012 229.654ZM431.245 113.598C444.233 108.061 464.558 108.407 476.585 115.905C478.028 116.713 479.351 117.751 480.313 119.02C481.275 120.405 481.636 121.212 482.357 123.173L431.245 113.598Z" stroke="#6F3FF5" stroke-width="1.5" stroke-miterlimit="10"/>
<path d="M413.085 185.93C403.584 194.467 375.923 208.657 375.923 208.657C375.923 208.657 375.923 215.002 379.772 221.116C383.62 227.231 378.689 232.537 378.689 232.537L376.885 234.037M472.616 124.789L477.667 116.829M466.723 120.751L471.293 113.598M459.628 118.789L464.679 110.829M452.412 117.289L456.861 110.367M444.715 116.829L449.405 110.022M436.657 117.867L442.43 110.599M366.903 200.121L375.923 208.658M378.088 168.28L382.658 156.397M422.225 162.742C408.515 159.974 394.805 157.666 380.974 155.705L369.068 151.898L422.225 162.742ZM394.925 176.356C386.146 184.893 375.683 193.776 365.701 201.044L353.794 210.504L394.925 176.356Z" stroke="#6F3FF5" stroke-width="1.5" stroke-miterlimit="10"/>
<path d="M473.218 101.485H458.064C452.893 101.485 451.209 96.7548 451.811 91.3327L454.456 75.0664C454.817 71.0287 458.425 67.9139 462.514 67.9139L474.3 67.6832C478.389 67.5678 482.117 70.6826 482.598 74.7204L481.516 91.102C482.238 96.7548 478.509 101.485 473.218 101.485Z" fill="#58EAD3" stroke="#6F3FF5" stroke-width="1.5" stroke-miterlimit="10"/>
<path d="M473.218 97.4474H458.064C452.893 97.4474 451.209 92.7175 451.811 87.2954L454.456 71.0291C454.817 66.9913 458.425 63.8765 462.514 63.8765L474.3 63.6458C478.389 63.5304 482.117 66.6453 482.598 70.683L481.516 87.0646C482.238 92.6021 478.509 97.4474 473.218 97.4474Z" fill="#58EAD3" stroke="#6F3FF5" stroke-width="1.5" stroke-miterlimit="10"/>
<path d="M467.324 90.9873C468.344 90.9873 469.323 90.5984 470.045 89.9061C470.767 89.2137 471.172 88.2748 471.172 87.2957C471.172 86.3166 470.767 85.3776 470.045 84.6853C469.323 83.993 468.344 83.604 467.324 83.604C466.303 83.604 465.324 83.993 464.602 84.6853C463.881 85.3776 463.475 86.3166 463.475 87.2957C463.475 88.2748 463.881 89.2137 464.602 89.9061C465.324 90.5984 466.303 90.9873 467.324 90.9873V90.9873Z" fill="white" stroke="#6F3FF5" stroke-width="1.5" stroke-miterlimit="10"/>
<path d="M477.186 129.173C475.983 131.134 471.654 135.172 468.647 137.94C466.843 139.555 466.963 142.209 468.767 143.824C470.21 145.093 472.014 146.477 473.097 147.285C473.818 147.862 474.901 147.746 475.382 147.054C476.584 145.785 478.268 143.593 478.749 142.324C478.388 143.824 480.072 147.054 480.072 147.054L482.718 146.708C482.718 146.362 483.079 143.132 483.439 141.978C483.8 140.824 486.085 134.249 486.085 133.672" fill="white"/>
<path d="M476.705 129.057L486.085 135.056M477.186 129.173C475.983 131.134 471.654 135.172 468.647 137.94C466.843 139.555 466.963 142.209 468.767 143.824C470.21 145.093 472.014 146.477 473.097 147.285C473.818 147.862 474.901 147.746 475.382 147.054C476.584 145.785 478.268 143.593 478.749 142.324C478.388 143.824 480.072 147.054 480.072 147.054L482.718 146.708C482.718 146.362 483.079 143.132 483.439 141.978C483.8 140.824 486.085 134.249 486.085 133.672L477.186 129.173Z" stroke="#6F3FF5" stroke-width="1.5" stroke-miterlimit="10"/>
<path d="M487.408 40.6885L481.876 48.7639L474.9 48.8793L462.272 49.8022C462.272 49.8022 463.836 45.7645 455.177 41.2653C446.518 36.7661 445.195 25.6912 445.195 25.6912C443.03 14.3855 450.727 3.42595 462.633 1.3494C474.539 -0.727148 485.844 6.65614 488.009 18.0772" fill="white"/>
<path d="M487.408 40.6885L481.876 48.7639L474.9 48.8793L462.272 49.8022C462.272 49.8022 463.836 45.7645 455.177 41.2653C446.518 36.7661 445.195 25.6912 445.195 25.6912C443.03 14.3855 450.727 3.42595 462.633 1.3494C474.539 -0.727148 485.844 6.65614 488.009 18.0772" stroke="#6F3FF5" stroke-width="1.5" stroke-miterlimit="10"/>
<path d="M456.718 29.2223C458.498 29.0054 459.628 26.4732 459.243 23.566C458.861 20.6577 457.107 18.4761 455.328 18.6919C453.548 18.9088 452.417 21.441 452.802 24.3482C453.184 27.2565 454.938 29.438 456.718 29.2223Z" fill="#58EAD3" stroke="#6F3FF5" stroke-width="1.5" stroke-miterlimit="10"/>
<path d="M426.794 121.442L434.251 107.368" stroke="#6F3FF5" stroke-width="1.5" stroke-miterlimit="10"/>
<path d="M498.232 78.7586L436.897 78.1818C434.612 78.1818 432.688 76.4513 432.688 74.3747C432.688 72.2982 434.612 70.6831 437.017 70.6831L498.352 71.2599C500.637 71.2599 502.562 72.9904 502.562 75.0669C502.562 77.1435 500.637 78.7586 498.232 78.7586V78.7586Z" fill="white" stroke="#6F3FF5" stroke-width="1.5" stroke-miterlimit="10"/>
<path d="M491.858 91.4473L492.339 79.4494C492.339 78.5265 494.263 77.9497 496.548 77.9497C498.833 77.9497 500.637 78.7572 500.637 79.5648L500.156 91.5626C500.156 92.4855 498.232 93.0623 495.947 93.0623C493.662 93.0623 491.858 92.3702 491.858 91.4473V91.4473Z" fill="white" stroke="#6F3FF5" stroke-width="1.5" stroke-miterlimit="10"/>
<path d="M489.332 84.2948L490.054 64.4523C490.054 62.9525 493.181 61.9142 496.909 61.9142C500.637 62.0296 503.764 63.1832 503.644 64.683L502.802 84.4102C502.802 85.9099 499.675 86.9482 495.947 86.9482C492.339 86.9482 489.332 85.6792 489.332 84.2948Z" fill="white" stroke="#6F3FF5" stroke-width="1.5" stroke-miterlimit="10"/>
<path d="M503.524 64.9135C503.524 65.8364 500.517 66.4132 496.789 66.2979C493.061 66.1825 490.054 65.375 490.054 64.4521" stroke="#6F3FF5" stroke-width="1.5" stroke-miterlimit="10"/>
<path d="M430.282 89.0248L430.764 78.0652C430.764 77.2577 432.447 76.6808 434.492 76.6808C436.536 76.6808 438.22 77.3731 438.22 78.1806L437.739 89.1402C437.739 89.9477 436.055 90.5245 434.011 90.5245C431.846 90.5245 430.282 89.8323 430.282 89.0248Z" fill="white" stroke="#6F3FF5" stroke-width="1.5" stroke-miterlimit="10"/>
<path d="M427.276 82.3339L427.998 62.6067C427.998 61.107 431.004 60.0687 434.733 60.0687C438.461 60.1841 441.467 61.3377 441.467 62.8374L440.746 82.5646C440.746 84.0644 437.739 85.1027 434.011 85.1027C430.283 84.9873 427.276 83.8337 427.276 82.3339Z" fill="white" stroke="#6F3FF5" stroke-width="1.5" stroke-miterlimit="10"/>
<path d="M441.467 90.1783C441.587 96.2926 441.707 102.407 441.828 108.406C441.828 110.252 441.948 112.213 442.67 113.943C443.391 115.789 444.834 117.289 445.917 119.019C448.322 123.172 447.841 128.248 447.24 132.978C446.759 136.785 446.518 140.823 447.6 144.284C447.961 145.207 446.759 146.014 445.917 145.438C443.271 143.592 441.467 140.592 440.385 137.593C439.062 134.132 438.581 130.44 437.498 126.864C437.258 126.172 436.295 125.941 435.814 126.518C433.529 129.402 433.289 133.555 434.01 137.131C434.612 140.246 435.694 143.361 436.175 146.591C436.416 147.86 434.852 148.552 433.77 147.86C425.832 142.669 427.276 132.748 427.516 130.44C427.877 127.556 429.801 125.018 431.365 122.596C434.371 117.866 428.238 111.175 426.314 114.059C424.389 116.943 423.668 120.288 421.503 123.057C419.939 124.903 418.617 127.21 418.256 129.517C418.135 129.863 417.654 129.979 417.534 129.517C416.692 125.826 416.211 122.134 416.332 118.327C416.572 113.597 418.015 108.867 421.262 105.291C423.427 102.868 426.434 100.907 427.396 97.7923C428.358 94.5621 426.795 90.8704 427.035 87.6403C427.155 86.8327 428.238 86.3713 428.839 86.9481C430.282 88.2171 432.086 89.0246 434.01 89.14C435.694 89.2554 437.498 88.9093 438.941 87.9864C439.903 87.4096 441.226 87.871 441.347 89.0246L441.467 90.1783V90.1783Z" fill="#FFE48D" stroke="#6F3FF5" stroke-width="1.5" stroke-miterlimit="10"/>
<path d="M441.468 62.9521C441.468 63.875 438.461 64.4518 434.733 64.3365C431.005 64.2211 427.998 63.4136 428.118 62.4906" stroke="#6F3FF5" stroke-width="1.5" stroke-miterlimit="10"/>
<path d="M503.644 102.638C502.682 101.6 501.84 100.331 501.479 98.9462C500.757 95.9468 502.321 92.832 502.201 89.8325C502.201 89.025 501.239 88.6789 500.637 89.1403C499.314 90.1786 497.631 90.8708 495.947 90.9861C494.383 90.9861 492.82 90.64 491.617 89.8325C490.775 89.2557 489.573 89.7171 489.453 90.64L489.212 91.563C488.851 96.9851 488.49 102.407 488.25 107.829C488.13 109.444 488.009 111.175 487.288 112.79C486.566 114.405 485.243 115.674 484.281 117.174C481.996 120.865 482.237 125.365 482.597 129.633C482.838 132.979 482.958 136.67 481.876 139.785C481.515 140.593 482.597 141.4 483.319 140.823C485.724 139.208 487.408 136.67 488.611 134.017C489.813 130.902 495.105 130.671 494.383 133.901C493.782 136.67 492.7 139.439 492.098 142.208C491.858 143.361 493.301 144.169 494.263 143.477C497.51 140.823 499.675 136.786 501.479 132.863C502.321 131.017 503.283 129.056 503.042 127.095C502.802 124.557 500.878 122.48 499.675 120.289C497.15 115.905 498.713 111.982 500.276 114.52C501.96 117.058 504.245 119.25 506.169 121.673C507.492 123.403 508.575 125.48 508.935 127.556C508.935 127.903 509.537 127.903 509.537 127.556C510.379 124.326 510.98 120.981 510.98 117.635C510.98 113.367 509.777 109.098 507.011 105.753C505.688 104.83 504.606 103.791 503.644 102.638V102.638Z" fill="#FFE48D" stroke="#6F3FF5" stroke-width="1.5" stroke-miterlimit="10"/>
<path d="M456.019 23.9606C454.937 32.4976 474.66 34.9202 469.97 54.4167C467.204 66.0684 454.215 92.1406 462.874 92.256C466.723 92.3714 467.324 90.0641 467.204 87.2954" stroke="#6F3FF5" stroke-width="1.5" stroke-miterlimit="10"/>
<path d="M487.408 40.6884C494.865 29.4981 491.858 14.0394 480.674 6.07925L471.894 23.9606L472.736 26.614L487.408 40.6884V40.6884Z" fill="#58EAD3" stroke="#6F3FF5" stroke-width="1.5" stroke-miterlimit="10"/>
<path d="M472.254 27.651C473.179 27.651 474.066 27.2985 474.72 26.6711C475.375 26.0437 475.742 25.1927 475.742 24.3054C475.742 23.4181 475.375 22.5672 474.72 21.9398C474.066 21.3124 473.179 20.9599 472.254 20.9599C471.329 20.9599 470.442 21.3124 469.788 21.9398C469.134 22.5672 468.767 23.4181 468.767 24.3054C468.767 25.1927 469.134 26.0437 469.788 26.6711C470.442 27.2985 471.329 27.651 472.254 27.651V27.651Z" fill="white" stroke="#6F3FF5" stroke-width="1.5" stroke-miterlimit="10"/>
<path d="M310.113 261.077L317.425 265.185L318.285 266.007L304.952 286.55L290.328 305.861L285.167 311.202L280.179 309.148L273.554 307.504C272.98 307.367 270.801 307.011 266.672 306.682C261.51 306.272 259.79 308.326 258.5 309.148C257.467 309.805 254.055 314.078 252.478 316.132C250.758 318.871 246.715 325.336 244.306 329.28C241.897 333.224 237.281 343.249 235.274 347.769L223.661 376.118L216.779 394.607L207.316 418.848L196.994 443.5L191.402 458.702L186.671 475.136C186.097 477.739 184.692 484.175 183.66 489.106C182.628 494.036 182.657 499.103 182.8 501.021C182.943 502.116 183.402 505.212 184.09 508.827C184.778 512.443 189.252 515.538 191.402 516.634L198.714 519.921C201.581 520.742 208.521 522.632 213.338 523.618C218.155 524.604 223.661 520.742 225.811 518.688L229.252 514.579L236.564 503.897L244.306 490.338L252.048 473.082L261.941 449.252L270.543 428.298L277.425 411.453L284.306 393.375L288.608 380.227L291.618 369.545L302.801 362.56L313.554 353.932L324.737 342.428L343.232 319.419L351.834 306.682C352.264 307.093 353.296 308.408 353.985 310.38C354.673 312.352 355.418 319.693 355.705 323.117C355.705 328.184 356.135 335.032 355.705 341.606C355.303 347.757 350.974 368.723 349.684 373.653C348.651 377.597 344.092 393.649 341.941 401.181L321.726 453.772L305.382 494.858C299.36 508.827 289.038 529.288 287.317 532.246C283.255 539.231 273.554 552.379 262.801 560.596C252.34 568.59 236.994 575.387 222.37 577.852C207.746 580.317 183.652 573.551 172.907 568.813C161.725 563.883 141.939 548.681 135.918 538.82C129.896 528.96 128.606 525.673 126.885 513.347C125.165 501.021 128.176 474.726 130.326 464.865C132.047 456.976 139.645 435.283 143.23 425.422L167.316 365.025C172.191 352.836 182.198 327.801 183.23 325.171C184.52 321.884 194.843 302.163 196.564 298.876C198.284 295.589 205.166 285.317 208.177 281.62C211.187 277.922 219.79 269.294 224.521 265.185C229.252 261.077 241.295 255.735 247.317 254.092C253.338 252.448 267.962 252.038 270.543 252.038C273.124 252.038 286.027 253.681 292.909 255.735C298.414 257.379 306.672 259.981 310.113 261.077Z" fill="#58EAD3" stroke="#6F3FF5" stroke-width="3"/>
<path d="M246.457 254.503C251.962 252.531 260.794 252.311 264.522 252.448L285.167 215.471C292.909 201.364 308.737 172.577 310.113 170.276C311.834 167.4 322.157 151.376 324.307 148.089C326.458 144.802 333.77 135.763 337.641 131.655C341.512 127.546 347.103 124.67 352.264 121.794C356.394 119.493 362.587 119.739 365.168 120.15C367.032 120.561 370.931 121.465 371.62 121.794C372.48 122.205 378.501 124.67 381.512 127.546C384.523 130.422 384.953 135.763 385.383 139.05C385.813 142.337 383.233 150.965 382.372 153.019C381.512 155.074 369.039 182.191 368.179 183.834C367.318 185.478 348.824 216.292 346.673 220.401C344.522 224.51 320.436 262.72 316.565 268.472C312.694 274.224 296.35 297.232 292.909 302.163C289.468 307.093 278.285 318.187 271.403 323.939C265.898 328.54 259.934 327.773 257.64 326.815L248.177 322.706C245.883 326.815 240.865 335.936 239.145 339.551C237.424 343.167 230.686 359.684 227.532 367.49C227.675 367.49 228.478 367.819 230.543 369.134C233.123 370.777 244.306 374.064 253.769 375.707C263.231 377.351 270.543 376.118 279.145 374.064C287.748 372.01 301.511 363.792 305.382 360.916C309.253 358.04 322.587 344.482 327.318 339.962C332.049 335.443 351.404 307.915 357.426 298.465C363.447 289.015 384.093 257.379 390.114 246.696C396.136 236.014 409.039 213.006 409.9 211.362C410.76 209.719 418.932 192.462 419.362 191.23C419.792 189.997 427.534 169.454 427.964 167.811C428.394 166.167 431.835 151.787 432.265 149.322C432.695 146.856 433.556 135.763 433.556 132.065C433.556 128.368 432.265 120.561 430.975 114.809C429.943 110.207 426.531 103.853 424.953 101.251C423.806 99.6072 420.996 95.7451 418.932 93.4442C416.351 90.5682 410.33 86.4595 404.738 82.7617C399.147 79.064 391.405 77.0097 386.673 75.7771C381.942 74.5445 369.469 74.1336 366.458 74.1336C363.447 74.1336 352.264 75.3662 344.953 77.4205C337.829 79.4218 324.307 85.6378 318.286 90.5682L317.96 90.8344C312.77 95.0828 300.506 105.122 293.769 113.166C274.228 136.499 256.714 162.034 241.726 187.943L227.532 214.238L209.897 247.107C206.456 254.64 199.23 270.691 197.854 274.635C196.478 278.579 192.693 294.083 190.972 301.341L190.112 311.613L193.123 305.861C195.704 300.93 203.015 288.604 206.026 284.496C209.037 280.387 218.499 270.116 224.521 265.185C230.543 260.255 239.575 256.968 246.457 254.503Z" fill="#58EAD3" stroke="#6F3FF5" stroke-width="3"/>
<path d="M219.18 363.769C234.419 330.111 248.705 284.626 282.04 303.729" stroke="#6F3FF5" stroke-width="3" stroke-linecap="round" stroke-linejoin="round"/>
<path d="M156.32 549.346C156.32 549.346 200.132 583.004 241.086 562.991C282.04 542.978 301.236 480.437 301.236 480.437" stroke="#6F3FF5" stroke-width="3" stroke-linecap="round" stroke-linejoin="round"/>
<path d="M387.76 83.5844C387.76 83.5844 423.952 95.4103 423.952 133.617C423.952 173.685 385.264 237.322 385.264 237.322" stroke="#6F3FF5" stroke-width="3" stroke-linecap="round" stroke-linejoin="round"/>
<path d="M337.513 318.827L339.308 317.181C339.844 318.428 341.11 321.327 341.888 322.941C342.86 324.96 344.219 325.855 345.588 326.466C346.683 326.955 348.822 326.759 349.754 326.599L353.623 325.303L361.033 322.132L365.626 320.007C365.976 319.923 366.614 319.584 366.36 318.894C366.042 318.032 366.141 315.196 366.538 313.789C366.934 312.382 368.045 310.43 368.412 309.874C368.706 309.429 370.201 308.417 370.912 307.966L371.973 307.432L369.066 301.094L368.441 299.086C368.676 298.999 369.215 298.827 369.493 298.836C369.84 298.847 373.312 298.957 374.691 299.285C376.07 299.613 378.798 301.12 379.472 301.709C380.012 302.18 381.252 303.848 381.804 304.622L382.419 306.913L382.717 308.342C383.646 308.277 385.643 308.152 386.199 308.169C386.893 308.191 387.25 307.919 387.26 307.635C387.268 307.408 387.984 306.807 388.341 306.534C388.695 306.356 389.75 306.011 391.139 306.055C392.527 306.1 393.543 306.889 393.877 307.278L393.847 308.129C394.657 308.155 396.553 308.272 397.656 308.534C398.759 308.797 401.76 310.463 403.122 311.264L406.495 314.21L408.836 316.84L414.769 326.114L419.611 336.774L424.284 352.254L429.275 368.597L431.468 375.481L428.998 376.538C429.534 377.785 430.669 380.452 430.923 381.142C431.24 382.003 431.856 384.294 432.143 386.007C432.431 387.72 431.39 387.687 429.971 388.493C428.836 389.138 425.524 389.771 424.009 390.007L428.613 397.535L449.98 392.821L452.787 392.059C456.441 390.283 463.889 386.677 464.452 386.468C465.016 386.259 465.825 386.985 466.159 387.374L473.827 396.704C475.375 398.835 478.734 403.504 479.79 405.128C480.846 406.751 480.402 407.513 480.048 407.691C479.803 408.062 479.026 409.078 477.876 410.177C476.725 411.276 474.162 410.343 473.025 409.739C471.778 408.942 468.743 406.934 466.577 405.275C464.41 403.616 461.541 403.505 460.377 403.658L458.621 404.169L447.372 407.786L444.208 408.821L457.59 413.79L464.107 416.269C464.564 416.473 465.822 416.948 467.202 417.219C468.583 417.49 468.922 417.747 468.919 417.842L469.484 421.551L469.375 424.67C468.985 425.888 468.05 428.773 467.432 430.571C466.813 432.368 465.745 432.41 465.289 432.206L462.164 432.106L444.477 430.975C443.092 430.837 438.799 430.34 432.712 429.465C426.625 428.59 422.617 426.588 421.373 425.697L417.98 423.317L415.272 421.244L402.724 422.264L398.537 422.698L392.397 419.379L389.024 416.433L385.671 412.919L379.966 407.059L372.883 400.871C371.534 399.692 371.544 399.409 368.727 400.455C366.473 401.291 365.281 399.588 364.967 398.631L363.359 394.889L362.07 392.009L362.476 390.318L363.22 388.922L354.152 369.895C354.053 369.419 353.642 368.573 352.793 369C351.944 369.427 350.601 368.741 350.035 368.344L348.359 366.587L345.729 362.245L341.85 353.887L339.33 346.425L338.467 341.287L338.288 336.455L338.694 334.764L338.039 333.608L333.416 326.646L335.648 322.459L337.513 318.827Z" fill="white"/>
<path d="M360.415 280.092L350.951 282.346L348.562 301.008L355.615 298.11L363.025 294.939C364.083 294.499 366.342 293.511 366.913 293.075L369.413 291.167C369.984 290.731 369.942 289.291 369.849 288.626L368.887 286.324C368.569 285.462 367.674 283.219 366.635 281.142C365.595 279.064 363.225 279.235 362.171 279.58L360.415 280.092Z" fill="white"/>
<path d="M330.333 336.908C331 337.508 331.666 338.108 332.443 338.828C333.444 339.67 334.442 340.629 335.554 341.59C333.779 339.913 331.997 338.466 330.333 336.908V336.908Z" fill="#E9E1FF"/>
<path d="M330.334 336.909C330.779 337.271 317.968 326.903 302.994 316.119L330.334 336.909Z" fill="#E9E1FF"/>
<path d="M340.504 294.962L343.14 294.93L347.803 295.889L350.591 298.062L361.737 293.785" fill="#E9E1FF"/>
<path d="M426.813 336.159C428.901 335.415 432.174 343.394 432.952 347.357C433.718 351.666 436.559 362.179 437.983 367.32C438.183 368.137 439.332 368.058 439.474 367.252C440.547 362.77 442.326 354.488 442.308 351.708C441.919 339.883 431.349 334.219 427.731 322.986C427.011 320.647 426.177 318.304 425.342 315.961C425.137 315.26 424.344 315.003 423.764 315.216C423.065 315.542 422.244 316.094 421.317 316.412C419.809 316.943 418.313 317.127 417.97 317.116C416.593 317.188 416.868 319.166 416.95 320.095C417.012 321.602 417.188 323.114 417.483 324.513C417.84 327.419 417.191 329.599 417.891 332.516C418.591 335.434 423.308 347.976 424.707 350.568C424.691 351.031 425.073 336.799 426.813 336.159V336.159Z" fill="#FFE48D" stroke="#6F3FF5" stroke-width="1.5" stroke-miterlimit="10"/>
<path d="M413.375 310.948L409.296 299.816C408.878 298.645 409.495 297.391 410.541 296.961L416.576 294.721C417.736 294.295 418.975 294.913 419.396 295.969L423.585 307.22C424.314 309.328 423.313 311.728 421.225 312.472L418.905 313.325C416.584 314.177 414.217 313.059 413.375 310.948V310.948Z" fill="white" stroke="#6F3FF5" stroke-width="1.5" stroke-miterlimit="10"/>
<path d="M333.317 326.928L309.749 335.905C308.241 336.436 306.549 335.687 305.915 334.162C305.396 332.639 306.143 330.926 307.655 330.279L337.376 318.95" fill="white"/>
<path d="M333.317 326.928L309.749 335.905C308.241 336.436 306.549 335.687 305.915 334.162C305.396 332.639 306.143 330.926 307.655 330.279L337.376 318.95" stroke="#6F3FF5" stroke-width="1.5" stroke-miterlimit="10"/>
<path d="M380.445 302.603L403.547 293.843C405.055 293.312 406.747 294.061 407.381 295.586C407.9 297.108 407.153 298.822 405.642 299.468L382.773 308.121" fill="white"/>
<path d="M380.445 302.603L403.547 293.843C405.055 293.312 406.747 294.061 407.381 295.586C407.9 297.108 407.153 298.822 405.642 299.468L382.773 308.121" stroke="#6F3FF5" stroke-width="1.5" stroke-miterlimit="10"/>
<path d="M477.484 417.104L482.028 418.175L482.139 418.295C482.249 418.414 488.459 424.286 492.856 432.881C494.574 436.178 494.457 439.533 493.673 442.287C492.661 445.034 491.325 447.192 490.247 448.548C489.291 449.675 487.788 450.091 486.427 449.7L481.22 447.913" fill="white"/>
<path d="M477.484 417.104L482.028 418.175L482.139 418.295C482.249 418.414 488.459 424.286 492.856 432.881C494.574 436.178 494.457 439.533 493.673 442.287C492.661 445.034 491.325 447.192 490.247 448.548C489.291 449.675 487.788 450.091 486.427 449.7L481.22 447.913" stroke="#6F3FF5" stroke-width="1.5" stroke-miterlimit="10"/>
<path d="M467.486 431.145L476.866 444.646C477.729 446.179 479.761 447.054 481.563 447.922C482.352 448.295 483.149 448.436 483.954 448.346C485.674 448.285 487.084 447.287 487.937 445.809C489.407 443.076 491.542 437.701 488.618 432.86C484.611 426.247 479.14 418.893 478.154 417.587L468.78 417.057" fill="white"/>
<path d="M467.486 431.145L476.866 444.646C477.729 446.179 479.761 447.054 481.563 447.922C482.352 448.295 483.149 448.436 483.954 448.346C485.674 448.285 487.084 447.287 487.937 445.809C489.407 443.076 491.542 437.701 488.618 432.86C484.611 426.247 479.14 418.893 478.154 417.587L468.78 417.057" stroke="#6F3FF5" stroke-width="1.5" stroke-miterlimit="10"/>
<path d="M469.256 423.095L473.978 428.92C474.305 429.394 474.514 429.98 474.265 430.551C474.261 430.667 474.139 430.894 474.02 431.006L473.902 431.118C473.657 431.574 473.072 431.903 472.496 432C471.92 432.098 471.356 431.848 471.029 431.374L468.277 428.16" fill="white"/>
<path d="M469.256 423.095L473.978 428.92C474.305 429.394 474.514 429.98 474.265 430.551C474.261 430.667 474.139 430.894 474.02 431.006L473.902 431.118C473.657 431.574 473.072 431.903 472.496 432C471.92 432.098 471.356 431.848 471.029 431.374L468.277 428.16" stroke="#6F3FF5" stroke-width="1.5" stroke-miterlimit="10" stroke-linecap="round"/>
<path d="M486.173 447.143C478.365 441.104 480.644 438.166 481.134 437.255C482.955 434.302 487.804 439.784 490.019 438.696" fill="white"/>
<path d="M486.418 446.687C484.631 445.356 482.857 443.678 481.667 441.671C481.344 441.082 481.131 440.612 481.041 439.914C480.935 439.679 480.939 439.564 480.947 439.332L480.963 438.87L480.967 438.754C480.971 438.638 481.093 438.411 481.097 438.295C481.097 438.295 481.22 438.067 481.102 438.179C481.097 438.295 481.106 438.064 481.22 438.067C481.343 437.839 481.465 437.612 481.702 437.388C482.539 436.372 484.448 437.475 485.347 437.967C486.696 438.705 488.601 439.924 490.227 439.281C490.926 438.955 490.386 438.012 489.691 438.221C489.226 438.438 488.433 438.181 487.983 437.935L485.617 436.817C484.264 436.195 482.347 435.324 481.048 436.44C479.512 437.781 479.545 440.098 480.4 441.863C481.578 444.216 483.688 446.137 485.809 447.71C486.365 448.191 486.974 447.168 486.418 446.687Z" fill="#6F3FF5"/>
<path d="M444.322 408.866C444.322 408.866 458.463 404.105 459.963 403.805C467.13 401.949 471.245 412.04 477.718 410.393L480.581 407.126" stroke="#6F3FF5" stroke-width="1.5" stroke-miterlimit="10"/>
<path d="M428.453 397.476L452.345 392.331L464.116 386.568" fill="white"/>
<path d="M428.453 397.476L452.345 392.331L464.116 386.568" stroke="#6F3FF5" stroke-width="1.5" stroke-miterlimit="10"/>
<path d="M335.813 324.344C335.813 324.344 325.395 330.729 336.587 357.953C337.957 361.355 339.908 364.544 342.1 367.393L363.578 395.293L371.991 390.581" fill="white"/>
<path d="M335.813 324.344C335.813 324.344 325.395 330.729 336.587 357.953C337.957 361.355 339.908 364.544 342.1 367.393L363.578 395.293L371.991 390.581" stroke="#6F3FF5" stroke-width="1.5" stroke-miterlimit="10"/>
<path d="M339.389 317.045C334.32 321.169 333.643 334.002 343.485 337.558C351.066 340.232 362.11 335.604 367.712 332.655C384.022 324.836 391.056 297.266 368.544 298.981" stroke="#6F3FF5" stroke-width="1.5" stroke-miterlimit="10"/>
<path d="M369.281 300.858C388.197 300.418 379.781 324.933 366.743 330.887C361.726 333.507 352.075 337.6 345.286 335.184C338.706 333.353 336.651 323.328 339.889 319.146" stroke="#6F3FF5" stroke-width="1.5" stroke-miterlimit="10"/>
<path d="M366.208 293.697L371.911 307.544C365.071 309.874 366.231 319.291 366.46 319.299L366.562 319.649C341.422 331.009 344.879 330.424 335.053 306.718" fill="white"/>
<path d="M324.899 289.137C324.899 289.137 315.08 271.8 335.321 262.949C353.585 254.961 361.697 275.254 363.047 279.234M366.208 293.697L371.911 307.544C365.071 309.874 366.231 319.291 366.46 319.298L366.562 319.649C341.422 331.008 344.879 330.424 335.053 306.717L366.208 293.697ZM369.503 287.894C370.142 289.304 369.742 290.913 368.676 291.921L366.335 293.352C365.513 293.905 364.373 293.753 363.707 293.153C362.709 292.194 361.393 290.531 360.125 287.48C358.537 283.723 358.823 282.111 359.076 281.424C359.321 280.969 359.558 280.745 359.558 280.745L362.23 279.672C363.975 278.917 366.12 279.796 366.861 281.556L369.503 287.894V287.894Z" stroke="#6F3FF5" stroke-width="1.5" stroke-miterlimit="10"/>
<path d="M326.79 287.461C326.444 280.964 328.293 273.959 336.546 270.516C354.332 263.091 360.829 280.438 360.829 280.438" fill="white"/>
<path d="M326.79 287.461C326.444 280.964 328.293 273.959 336.546 270.516C354.332 263.091 360.829 280.438 360.829 280.438" stroke="#6F3FF5" stroke-width="1.5" stroke-miterlimit="10"/>
<path d="M341.862 269.18C341.862 269.18 343.473 272.243 338.464 274.631C334.852 276.369 333.937 276.34 331.5 273.946" stroke="#6F3FF5" stroke-width="1.5" stroke-miterlimit="10"/>
<path d="M329.025 305.482L323.397 292.795C322.656 291.035 323.415 288.974 325.16 288.219L345.879 278.804C347.624 278.049 349.659 278.808 350.4 280.569L356.028 293.256C356.769 295.016 356.009 297.077 354.265 297.832L333.546 307.247C331.915 308.006 329.88 307.246 329.025 305.482Z" fill="#58EAD3" stroke="#6F3FF5" stroke-width="1.5" stroke-miterlimit="10"/>
<path d="M395.212 404.638L402.185 408.335C402.296 408.454 415.175 423.456 425.001 427.475C434.373 431.364 464.115 432.543 466.657 431.929C467.265 430.906 470.904 425.115 468.547 417.165C465.871 418.354 446.197 407.652 433.745 406.676C433.631 406.673 424.454 390.63 424.454 390.63M343.617 284.522C346.759 283.117 347.831 285.235 347.831 285.235L353.353 297.687L343.617 284.522ZM372.025 307.546L380.133 308.268L372.025 307.546ZM372.985 325.991C366.876 317.226 377.043 308.17 377.043 308.17L372.985 325.991Z" stroke="#6F3FF5" stroke-width="1.5" stroke-miterlimit="10"/>
<path d="M371.328 399.71C371.667 399.836 381.691 408.031 386.638 413.979C389.827 417.786 393.849 420.694 398.366 422.575L415.361 421.379" stroke="#6F3FF5" stroke-width="1.5" stroke-miterlimit="10"/>
<path d="M392.047 419.825C392.055 419.594 392.805 414.522 398.312 410.992L392.047 419.825Z" fill="white"/>
<path d="M392.047 419.825C392.055 419.594 392.805 414.522 398.312 410.992" stroke="#6F3FF5" stroke-width="1.5" stroke-miterlimit="10"/>
<path d="M425.593 426.915C425.487 426.68 424.169 421.774 427.795 416.331L425.593 426.915Z" fill="white"/>
<path d="M425.593 426.915C425.487 426.68 424.169 421.774 427.795 416.331" stroke="#6F3FF5" stroke-width="1.5" stroke-miterlimit="10"/>
<path d="M420.125 376.827C403.795 388.467 387.616 395.827 368.206 400.536C366.936 400.843 365.697 400.224 365.165 399.049C364.102 396.699 363.251 394.819 362.298 392.588C361.664 391.063 362.529 389.237 364.148 388.826C382.752 384.207 398.466 377.064 414.317 365.988C415.726 364.99 417.541 365.511 418.29 367.041C419.243 369.272 420.094 371.152 421.157 373.502C421.46 374.669 421.068 376.047 420.125 376.827V376.827Z" fill="white" stroke="#6F3FF5" stroke-width="1.5" stroke-miterlimit="10"/>
<path d="M384.102 398.032L381.781 398.884C381.201 399.097 380.526 398.728 380.318 398.143L375.003 383.034C374.794 382.448 375.162 381.765 375.742 381.552L378.063 380.699C378.643 380.486 379.317 380.855 379.526 381.441L384.841 396.55C384.935 397.132 384.682 397.818 384.102 398.032Z" fill="#58EAD3" stroke="#6F3FF5" stroke-width="1.5" stroke-miterlimit="10"/>
<path d="M404.258 371.922L409.359 383.318M369.345 387.602L373.751 399.207L369.345 387.602ZM387.445 380.997L392.542 392.509L387.445 380.997ZM396.181 376.876L401.282 388.272L396.181 376.876Z" stroke="#6F3FF5" stroke-width="1.5" stroke-miterlimit="10"/>
<path fill-rule="evenodd" clip-rule="evenodd" d="M344.163 337.812C344.163 337.812 344.022 351.704 363.228 388.912L344.163 337.812Z" fill="white"/>
<path d="M344.163 337.812C344.163 337.812 344.022 351.704 363.228 388.912" stroke="#6F3FF5" stroke-width="1.5" stroke-miterlimit="10"/>
<path fill-rule="evenodd" clip-rule="evenodd" d="M347.438 352.276C347.438 352.276 368.25 350.044 392.138 335.17L347.438 352.276Z" fill="white"/>
<path d="M347.438 352.276C347.438 352.276 368.25 350.044 392.138 335.17" stroke="#6F3FF5" stroke-width="1.5" stroke-miterlimit="10"/>
<path fill-rule="evenodd" clip-rule="evenodd" d="M350.195 358.618C350.195 358.618 372.981 355.638 396.754 340.761L350.195 358.618Z" fill="white"/>
<path d="M338.547 334.622C338.547 334.622 336.357 344.859 345.718 362.181C350.315 371.592 353.506 368.799 353.506 368.799M350.196 358.618C350.196 358.618 372.981 355.638 396.755 340.761L350.196 358.618ZM382.761 308.469L387.125 308.144L382.761 308.469ZM407.867 344.01L414.909 365.427L407.867 344.01Z" stroke="#6F3FF5" stroke-width="1.5" stroke-miterlimit="10"/>
<path fill-rule="evenodd" clip-rule="evenodd" d="M389.374 348.748L387.625 349.619C387.159 349.836 386.591 349.702 386.379 349.232L381.233 339.108C381.021 338.638 381.155 338.064 381.621 337.847L383.37 336.976C383.836 336.759 384.404 336.893 384.616 337.363L389.762 347.487C389.974 347.957 389.84 348.532 389.374 348.748Z" fill="#58EAD3" stroke="#6F3FF5" stroke-width="1.5" stroke-miterlimit="10"/>
<path d="M372.377 357.512C373.263 356.85 374.011 356.017 374.579 355.063C375.147 354.109 375.524 353.052 375.688 351.952C375.851 350.852 375.799 349.731 375.533 348.653C375.267 347.575 374.793 346.562 374.138 345.671C373.483 344.78 372.661 344.03 371.717 343.462C370.774 342.894 369.728 342.521 368.64 342.363C367.551 342.205 366.442 342.266 365.376 342.543C364.31 342.819 363.307 343.305 362.425 343.973C360.652 345.317 359.475 347.314 359.153 349.528C358.831 351.741 359.39 353.99 360.707 355.782C362.024 357.574 363.992 358.762 366.179 359.086C368.367 359.41 370.596 358.844 372.377 357.512V357.512Z" fill="#58EAD3" stroke="#6F3FF5" stroke-width="1.5" stroke-miterlimit="10"/>
<path d="M347.104 315.901L349.765 318.418L353.258 316.792L353.952 313.34" stroke="#6F3FF5" stroke-width="1.5" stroke-miterlimit="10"/>
<path d="M393.876 308.359C393.876 308.359 407.07 304.495 419.785 337.326L431.395 375.566L416.91 380.316L411.241 358.942L407.753 344.007L402.458 338.164" fill="white"/>
<path d="M393.876 308.359C393.876 308.359 407.07 304.495 419.785 337.326L431.395 375.566L416.91 380.316L411.241 358.942L407.753 344.007L402.458 338.164" stroke="#6F3FF5" stroke-width="1.5" stroke-miterlimit="10"/>
<path d="M388.322 306.676C387.741 306.889 387.382 307.341 387.243 308.031C386.831 309.987 385.849 315.167 386.673 321.1C388.124 332.032 394.419 345.319 410.511 343.747L407.963 337.991C407.963 337.991 396.614 338.209 393.548 324.33C391.357 314.879 392.651 310.636 393.737 309.049C394.227 308.138 394.035 307.09 393.136 306.598C392.008 306.098 390.528 305.82 388.322 306.676Z" fill="white" stroke="#6F3FF5" stroke-width="1.5" stroke-miterlimit="10"/>
<path fill-rule="evenodd" clip-rule="evenodd" d="M429.07 376.533C429.07 376.533 433.045 384.071 432.131 387.285C432.131 387.285 428.353 390.523 421.736 389.733L418.711 387.784" fill="white"/>
<path d="M429.07 376.533C429.07 376.533 433.045 384.071 432.131 387.285C432.131 387.285 428.353 390.523 421.736 389.733L418.711 387.784" stroke="#6F3FF5" stroke-width="1.5" stroke-miterlimit="10"/>
<path fill-rule="evenodd" clip-rule="evenodd" d="M419.972 384.466L419.749 387.585L417.563 387.863L417.744 382.657L420.18 381.808L419.341 379.581" fill="white"/>
<path d="M451.99 392.665C452.645 396.855 455.038 400.522 457.434 404.072M419.972 384.466L419.749 387.585L417.563 387.863L417.744 382.657L420.18 381.808L419.341 379.581L419.972 384.466ZM422.718 384.554L423.456 389.673L422.718 384.554ZM425.816 384.42L426.554 389.539L425.816 384.42ZM428.815 383.821L429.667 388.943L428.815 383.821Z" stroke="#6F3FF5" stroke-width="1.5" stroke-miterlimit="10"/>
<path d="M480.502 406.982C480.951 406.627 477.716 401.697 473.279 395.97C468.842 390.244 464.88 385.891 464.431 386.248C463.983 386.603 467.217 391.534 471.654 397.26C476.093 402.985 480.053 407.338 480.502 406.982Z" fill="white" stroke="#6F3FF5" stroke-width="1.5" stroke-miterlimit="10"/>
<path d="M478.425 409.837C476.831 409.554 473.409 405.855 468.809 399.802C464.095 393.746 460.844 388.431 461.546 387.99" fill="white"/>
<path d="M478.425 409.837C476.831 409.554 473.409 405.855 468.809 399.802C464.095 393.746 460.844 388.431 461.546 387.99" stroke="#6F3FF5" stroke-width="1.5" stroke-miterlimit="10"/>
<path fill-rule="evenodd" clip-rule="evenodd" d="M415.763 373.793C415.763 373.793 424.851 372.693 429.352 368.435L415.763 373.793Z" fill="white"/>
<path d="M415.763 373.793C415.763 373.793 424.851 372.693 429.352 368.435" stroke="#6F3FF5" stroke-width="1.5" stroke-miterlimit="10"/>
<path d="M410.321 299.965L403.007 302.743C401.614 303.278 400.151 302.536 399.623 301.245L397.946 296.791C397.422 295.385 398.161 293.903 399.44 293.365L406.754 290.586C408.147 290.052 409.61 290.793 410.138 292.084L411.815 296.538C412.339 297.945 411.714 299.43 410.321 299.965Z" fill="white" stroke="#6F3FF5" stroke-width="1.5" stroke-miterlimit="10"/>
<path d="M408.713 303.389L405.37 294.133C404.85 292.611 405.593 291.014 407.105 290.367L415.113 287.379C416.621 286.848 418.199 287.594 418.833 289.119L422.286 298.494C423.333 301.307 421.851 304.386 419.179 305.459L416.045 306.633C412.915 307.692 409.76 306.202 408.713 303.389V303.389ZM319.917 346.536L315.724 335.4C315.306 334.229 314.064 333.726 312.903 334.152L306.979 336.512C305.819 336.938 305.316 338.196 305.734 339.367L309.923 350.618C310.766 352.73 313.022 353.728 315.11 352.984L317.435 352.016C319.645 351.044 320.76 348.647 319.917 346.536Z" fill="white" stroke="#6F3FF5" stroke-width="1.5" stroke-miterlimit="10"/>
<path d="M315.123 336.193L322.441 333.299C323.834 332.765 324.459 331.279 323.935 329.873L322.258 325.418C321.734 324.012 320.267 323.386 318.873 323.921L311.555 326.815C310.162 327.349 309.537 328.835 310.061 330.241L311.739 334.696C312.262 336.102 313.73 336.728 315.123 336.193Z" fill="white" stroke="#6F3FF5" stroke-width="1.5" stroke-miterlimit="10"/>
<path d="M318.508 337.69L315.047 328.546C314.527 327.024 312.835 326.275 311.323 326.922L303.425 330.029C301.917 330.56 301.17 332.273 301.804 333.799L305.261 343.058C306.309 345.871 309.468 347.245 312.14 346.172L315.274 344.998C318.183 343.701 319.67 340.506 318.508 337.69V337.69Z" fill="white" stroke="#6F3FF5" stroke-width="1.5" stroke-miterlimit="10"/>
<path d="M324.003 354.194C326.134 358.778 328.261 363.478 330.507 368.066C331.145 369.476 331.897 370.89 333.001 372.083C334.219 373.28 335.687 373.906 337.028 374.875C340.151 377.291 341.501 381.271 342.741 385.132C343.666 388.173 344.815 391.336 346.794 393.716C347.346 394.312 346.738 395.335 345.945 395.078C343.444 394.535 341.097 392.839 339.217 390.926C337.119 388.659 335.492 386.06 333.513 383.68C333.071 383.203 332.262 383.409 332.127 383.984C331.45 386.973 332.714 390.14 334.342 392.74C335.867 394.989 337.629 397.014 339.04 399.259C339.58 400.203 338.739 401.334 337.717 401.07C334.092 399.912 330.985 397.034 328.102 394.278C326.774 392.962 325.335 391.527 324.823 389.773C324.103 387.434 324.989 385.03 325.302 382.608C325.922 377.996 323.276 375.016 322.836 377.782C322.396 380.547 321.159 383.171 320.486 386.045C319.959 387.997 319.768 390.191 320.276 392.06C320.378 392.411 319.912 392.628 319.81 392.277C317.954 389.67 316.326 387.071 315.168 384.138C313.691 380.501 313.265 376.319 314.313 372.53C315.089 370.007 316.555 367.39 316.3 364.834C315.939 362.043 313.499 359.765 312.676 357.076C312.472 356.374 313.068 355.698 313.747 355.952C315.218 356.462 316.82 356.513 318.213 355.978C319.488 355.555 320.665 354.666 321.391 353.531C321.877 352.736 323.022 352.773 323.455 353.481L324.003 354.194V354.194Z" fill="#FFE48D" stroke="#6F3FF5" stroke-width="1.5" stroke-miterlimit="10"/>
</svg>
