<svg width="549" height="500" viewBox="0 0 549 500" fill="none" xmlns="http://www.w3.org/2000/svg">
<path d="M439.2 210.296V188.497C447.286 190.421 464.479 194.396 468.565 194.909C473.672 195.55 496.653 204.526 498.569 205.167C500.484 205.808 513.251 212.861 514.528 213.502C515.549 214.015 520.912 218.418 523.465 220.555C525.167 222.478 529.083 227.607 531.126 232.736C533.679 239.148 529.849 244.918 527.295 250.047C524.742 255.177 517.081 257.1 510.059 262.87C503.037 268.641 476.864 276.976 471.119 278.899C466.522 280.438 447.924 284.242 439.2 285.952V262.87V228.248V210.296Z" fill="#784FFD"/>
<path d="M95.7558 7.05263L108.523 4.48804L109.162 5.77033V28.2105V60.2678V86.5549V101.942L92.5639 98.7367L76.6046 94.8898L58.7302 89.1195C53.1977 86.5549 41.7495 81.1693 40.2174 80.1434C38.3023 78.8611 27.45 72.4496 23.6198 69.2439C19.7895 66.0382 17.236 59.6267 16.5977 58.3444C15.9593 57.0621 15.9593 50.6506 16.5977 48.7272C17.1084 47.1884 19.364 42.5294 20.4279 40.3923L22.343 38.4688C24.2581 36.5454 30.0035 31.4162 33.8337 28.8516C37.664 26.287 55.5384 18.5933 56.8151 17.9521C57.8365 17.4392 73.4128 12.6092 81.0733 10.2584L95.7558 7.05263Z" fill="#784FFD"/>
<path d="M331.954 219.272C336.422 216.708 336.422 216.708 339.614 215.425L340.252 214.913C340.811 214.359 341.604 213.493 342.806 212.861C345.082 211.664 348.385 210.937 349.828 210.937V213.502C349.19 213.716 347.274 214.4 344.721 215.425C341.529 216.708 341.529 221.837 341.529 223.119C341.529 224.402 344.721 227.607 347.913 231.454C351.105 235.301 358.127 239.148 360.68 240.43C363.234 241.713 368.979 242.354 371.533 242.354C374.086 242.354 377.916 241.713 379.831 241.071C381.364 240.558 383.023 239.148 383.662 238.507V234.66C383.662 233.634 383.236 231.24 383.023 230.172L382.385 228.89L383.662 223.76C384.726 224.188 386.981 225.171 387.492 225.684C388.003 226.197 389.833 229.744 390.684 231.454C391.109 231.454 392.471 231.967 394.514 234.019C396.557 236.07 397.493 241.285 397.706 243.636C397.706 248.338 397.961 259.28 398.983 265.435C400.004 271.59 401.11 273.556 401.536 273.77L409.835 283.387L414.942 288.516H416.857L418.134 289.799L398.983 292.363H396.429C395.578 291.295 393.365 288.645 391.322 286.593C389.279 284.541 386.641 279.326 385.577 276.976L384.938 275.052L383.023 282.105C382.385 283.601 381.491 286.465 383.023 285.952C384.555 285.439 384.513 286.165 384.3 286.593V294.287H381.747L376.001 294.928L368.979 295.569L365.787 298.775V309.033L365.149 319.291L360.042 314.162H356.212V327.626V333.397L353.658 342.373C352.169 347.288 348.934 358.145 347.913 362.248C346.636 367.377 344.083 368.019 342.167 368.66C340.635 369.173 336.422 368.873 334.507 368.66C334.081 368.446 332.592 367.762 330.038 366.736C327.485 365.71 327.272 362.889 327.485 361.607C328.549 353.7 330.804 337.628 331.315 336.602C331.826 335.576 331.102 333.183 330.677 332.114L326.847 319.291C325.995 315.872 324.293 308.392 324.293 305.827V298.133C324.719 296.851 325.697 294.03 326.208 293.004C326.847 291.722 326.847 291.081 326.208 290.44C325.697 289.927 326.421 288.516 326.847 287.875C327.272 286.807 328.251 284.285 328.762 282.746C329.272 281.207 330.251 281.25 330.677 281.464V279.54C330.038 279.754 328.379 280.181 326.847 280.181C325.314 280.181 324.08 277.617 323.655 276.334V273.77C323.655 273.342 323.399 272.744 322.378 273.77C321.101 275.052 317.909 284.028 317.271 285.952C316.76 287.49 314.079 298.561 312.802 303.904H314.717L314.079 310.315L312.164 311.598V314.803C312.802 315.231 314.334 316.342 315.356 317.368C316.377 318.394 316.633 320.787 316.633 321.856L312.802 322.497V324.421V326.985C312.377 327.199 311.398 327.754 310.887 328.267C310.249 328.909 303.227 329.55 299.397 328.909C296.332 328.396 295.992 327.413 296.205 326.985C295.992 325.275 295.694 321.471 296.205 319.932C296.715 318.394 297.694 313.735 298.12 311.598L296.843 310.956V303.263H298.12C298.545 298.561 299.652 288.132 300.673 284.028C301.95 278.899 305.78 270.564 305.142 264.794C304.631 260.178 312.59 248.338 316.633 242.995L318.548 239.789C318.973 240.217 319.697 239.533 319.186 233.378C318.548 225.684 327.485 221.837 331.954 219.272Z" fill="white"/>
<path d="M383.005 230.054L383.654 231.033L384.467 232.011L384.142 235.764L383.167 239.189C383.167 239.189 375.533 247.346 359.453 240.168C343.86 233.153 341.586 223.202 341.586 223.202L341.099 221.082L348.57 219.287L351.494 204.279L345.647 202.321L345.484 193.512L347.271 188.618L353.118 189.108L353.768 187.476C353.768 187.476 357.341 164.964 380.568 172.795L385.604 174.915L389.339 179.32L390.964 183.888L391.938 190.087L391.776 191.718L383.005 230.054Z" fill="white"/>
<path d="M370.336 222.224C370.011 222.224 370.011 222.06 369.848 222.06L370.173 221.082C370.173 221.082 375.208 222.876 378.619 222.06L378.944 223.039C375.858 223.855 371.635 222.713 370.336 222.224Z" fill="#2D00AA"/>
<path d="M378.944 220.103L377.97 220.266L378.782 223.855L379.756 223.692L378.944 220.103Z" fill="#2D00AA"/>
<path d="M371.473 219.777L370.336 219.45L369.523 222.876L370.66 223.202L371.473 219.777Z" fill="#2D00AA"/>
<path d="M395.187 193.186L394.699 203.3L390.801 213.904L388.04 215.372L375.533 214.719L363.351 211.783L359.615 209.01L359.128 206.237L360.265 196.449L362.702 190.25L366.112 187.15L391.938 189.597" fill="#4603FF"/>
<path d="M300.98 269.858C301.467 268.39 301.954 266.922 302.929 265.617C303.091 265.29 303.416 265.29 303.579 265.127C303.903 264.801 304.228 264.638 304.878 264.638C306.989 264.475 307.477 267.085 306.34 268.227C306.34 268.553 306.34 268.879 306.177 269.206C306.177 269.532 306.015 269.695 305.853 270.021C306.015 270.021 306.34 270.184 306.502 270.184C306.827 270.348 307.152 270.674 307.152 271.163C307.152 271.163 307.152 271.163 307.152 271.326C307.152 271.816 306.827 272.142 306.502 272.305C306.177 272.468 305.69 272.305 305.203 272.305C305.04 272.958 304.716 273.447 304.391 273.936C304.391 273.936 304.391 274.1 304.553 274.1C304.716 274.426 304.716 274.752 304.553 275.078C304.228 275.731 303.579 276.22 302.929 276.057C302.766 276.057 302.604 275.894 302.442 275.894C302.442 275.894 302.279 275.894 302.279 276.057C301.305 276.383 300.492 275.568 300.33 274.752C300.005 273.121 300.492 271.326 300.98 269.858Z" fill="#00C092"/>
<path d="M375.533 365.127C375.371 363.659 377.482 363.007 378.294 364.312C378.619 364.964 378.944 365.29 379.107 365.78C379.269 365.617 379.594 365.617 379.919 365.617C381.705 365.78 383.655 365.943 385.441 365.943C386.416 365.943 387.553 365.943 388.527 365.943C388.69 365.78 388.852 365.617 389.177 365.617C391.451 364.964 394.05 365.78 395.512 367.737C397.786 366.759 400.222 366.269 401.846 367.411C403.308 366.922 404.77 367.248 406.069 368.227C408.018 368.716 409.968 369.369 411.105 370.837C413.216 373.61 413.054 377.688 412.079 380.951C411.917 381.441 411.592 381.93 411.267 382.093C411.267 382.256 411.105 382.256 411.105 382.419C408.343 384.703 402.983 385.519 399.085 384.377C393.075 383.887 386.578 381.767 382.355 380.299C379.919 379.483 377.482 378.83 376.183 376.383C373.909 373.121 376.02 368.716 375.533 365.127Z" fill="white"/>
<path d="M327.942 367.901C327.942 367.901 327.942 367.737 327.942 367.901C328.592 367.248 329.404 366.922 330.379 366.759C331.029 366.595 331.353 366.922 331.678 367.248C331.841 367.248 332.003 367.248 332.003 367.248C334.115 367.737 336.064 368.553 338.338 368.879C339.962 369.042 341.749 368.553 343.21 368.879C344.023 368.227 345.484 368.064 346.134 369.206C348.246 371.979 352.794 372.631 355.717 374.589C358.316 376.383 360.265 378.994 360.265 382.256C360.265 388.292 355.23 389.108 350.195 388.945C347.758 389.597 345.322 389.271 342.886 388.292C342.886 388.292 342.723 388.292 342.723 388.129C337.201 388.455 330.704 384.214 327.78 379.972C326.968 378.83 326.318 377.199 325.993 375.568C326.643 373.121 327.13 370.511 327.942 367.901Z" fill="white"/>
<path d="M355.88 314.719H356.367L359.615 314.556L376.345 332.012L375.208 362.354V362.517C375.208 362.517 375.371 363.007 376.02 363.659C376.183 363.822 376.345 363.985 376.508 364.149C377.807 365.454 380.406 366.759 385.116 366.596C387.715 366.432 389.664 365.78 390.964 365.127C391.451 364.964 391.776 364.638 392.101 364.475C393.887 363.17 394.212 361.702 394.212 361.538C399.897 346.693 402.009 326.139 402.171 325.976V325.812V325.649C398.76 313.578 385.766 296.286 385.766 295.959L384.954 296.612C385.116 296.775 397.786 313.904 401.196 325.812C401.034 327.281 398.76 346.857 393.4 361.049C393.4 361.212 392.425 364.964 385.279 365.29C378.619 365.78 376.67 362.517 376.345 361.865L377.482 331.359L360.59 313.741L360.265 313.414H359.615L356.529 313.578H356.042L355.88 314.719Z" fill="#2D00AA"/>
<path d="M330.866 333.969L326.968 363.333C326.968 363.496 326.968 364.475 327.942 365.454C328.105 365.617 328.43 365.943 328.592 366.269C329.891 367.411 332.165 368.716 336.226 369.369C337.688 369.532 338.825 369.695 339.962 369.532C342.236 369.369 343.86 368.716 344.997 368.064C345.322 367.901 345.647 367.574 345.809 367.411C347.109 366.269 347.596 365.127 347.596 365.127L356.854 333.317V314.23V313.251V307.379H355.88V333.317L346.784 364.964C346.784 365.127 344.51 369.695 336.388 368.553C328.267 367.248 327.942 363.659 327.942 363.659L331.841 334.132V333.969C331.841 333.806 323.882 311.783 324.531 301.179C324.531 301.016 324.369 297.917 327.13 292.37C327.293 292.207 327.293 291.881 327.455 291.718L326.48 291.228C326.48 291.228 326.48 291.392 326.318 291.392C323.07 297.591 323.394 301.179 323.394 301.179C322.907 311.457 330.216 332.011 330.866 333.969Z" fill="#2D00AA"/>
<path d="M348.895 300.853C349.058 300.853 349.22 300.853 349.383 300.853C350.032 300.853 350.52 301.016 351.169 301.016C355.067 301.343 358.803 301.343 362.539 301.016C365.95 300.853 369.361 300.364 372.61 299.711C372.772 299.711 372.934 299.711 373.097 299.548L372.934 298.569C372.772 298.569 372.61 298.569 372.447 298.569C370.985 298.896 369.361 299.059 367.899 299.385C367.574 299.385 367.249 299.548 366.925 299.548C364.975 299.711 363.026 299.874 361.077 300.038C360.752 300.038 360.428 300.038 360.103 300.038C358.154 300.038 356.367 300.038 354.418 300.038C354.093 300.038 353.768 300.038 353.443 300.038C352.793 300.038 352.144 300.038 351.494 299.874C350.844 299.874 350.357 299.711 349.707 299.711C349.545 299.711 349.383 299.711 349.22 299.711L348.895 300.853Z" fill="#2D00AA"/>
<path d="M383.817 286.824L384.142 294.981C383.654 295.144 382.842 295.633 381.381 296.286C381.056 296.449 380.893 296.449 380.568 296.612C379.594 296.938 378.457 297.428 377.157 297.754C376.995 297.754 376.67 297.917 376.508 297.917L376.833 298.896C376.995 298.896 377.157 298.733 377.32 298.733C382.355 297.264 384.954 295.796 384.954 295.633L385.279 295.47L384.954 286.661C384.954 286.171 384.629 285.845 384.304 285.519C384.142 285.356 383.817 285.356 383.492 285.356C383.33 285.356 383.167 285.356 383.005 285.519C382.842 285.519 382.68 285.682 382.517 285.682C380.893 286.498 378.782 287.15 376.67 287.803C376.345 287.966 376.183 287.966 375.858 287.966L376.183 288.945C376.345 288.945 376.508 288.781 376.67 288.781C377.807 288.455 378.944 288.129 380.081 287.64C380.244 287.64 380.406 287.476 380.568 287.476C381.705 287.15 382.517 286.661 383.492 286.171C383.654 286.171 383.817 286.171 383.817 286.171C383.817 286.661 383.817 286.661 383.817 286.824Z" fill="#2D00AA"/>
<path d="M360.752 291.228C360.915 291.228 361.24 291.228 361.402 291.228C361.402 291.228 366.437 291.065 372.122 289.923L371.96 288.945C366.275 289.923 361.402 290.25 361.24 290.25C357.342 290.576 353.606 290.576 350.195 290.25L350.032 291.228C353.443 291.392 357.017 291.392 360.752 291.228Z" fill="#2D00AA"/>
<path d="M325.668 289.76V289.923C325.668 289.923 325.831 290.25 326.156 290.902C326.318 291.228 326.481 291.555 326.805 291.881C328.43 293.839 331.678 296.775 338.825 298.733C338.987 298.733 338.987 298.733 339.15 298.733L339.475 297.754C339.312 297.754 339.15 297.754 339.15 297.591C338.013 297.264 336.876 296.775 335.901 296.449C335.576 296.286 335.252 296.122 334.927 295.959C333.14 295.144 331.678 294.328 330.541 293.512C330.216 293.349 329.892 293.023 329.729 292.86C327.942 291.392 327.13 290.087 326.968 289.597L330.054 281.93H330.216C330.704 282.746 331.353 283.724 332.49 284.703C332.815 284.866 332.978 285.193 333.302 285.356C334.277 286.171 335.576 286.987 337.201 287.64C337.526 287.803 337.85 287.966 338.175 288.129C338.987 288.455 339.637 288.781 340.612 288.945C340.774 288.945 340.774 288.945 340.936 289.108L341.261 288.129C341.099 288.129 340.936 287.966 340.774 287.966C334.602 286.008 332.003 282.909 331.191 281.277L331.029 281.114C330.866 280.951 330.541 280.788 330.054 280.788C329.567 280.788 329.242 281.114 329.079 281.441L325.668 289.76Z" fill="#2D00AA"/>
<path d="M382.03 285.845C382.03 286.008 382.193 286.171 382.193 286.334L382.355 286.498H382.68V286.008L383.005 285.682C383.005 285.682 383.005 285.519 383.005 285.356C383.005 284.703 383.005 282.746 384.791 276.71C384.954 276.22 385.116 275.731 385.279 275.241C385.766 273.773 386.253 272.142 386.903 270.348C387.065 269.858 387.228 269.369 387.39 269.042C387.553 268.39 387.715 267.737 387.878 267.085C391.126 254.034 387.39 242.452 386.578 240.331C386.416 240.168 386.416 240.005 386.416 240.005L385.441 240.331C385.441 240.331 385.604 240.821 385.766 241.473C386.578 243.757 388.04 249.14 388.04 255.992C388.04 256.318 388.04 256.644 388.04 256.971C388.04 259.418 387.715 262.028 387.228 264.801C387.228 265.127 387.065 265.454 387.065 265.617C386.741 267.085 386.416 268.553 385.766 270.184C383.005 278.83 381.705 284.051 382.03 285.845Z" fill="#2D00AA"/>
<path d="M373.259 242.778C379.594 242.289 383.655 240.494 385.604 237.232C388.69 231.848 384.791 224.671 384.629 224.344L383.654 224.834C383.654 224.834 387.553 231.848 384.791 236.742C383.005 239.842 378.944 241.636 372.61 241.799C355.88 242.615 345.484 228.423 342.723 224.181C341.911 222.876 341.586 221.408 342.073 219.94C342.886 217.166 345.647 215.046 350.032 214.067L349.87 213.088C343.698 214.393 341.749 217.493 341.099 219.613C340.612 221.245 340.936 223.039 341.911 224.671C344.672 229.075 355.392 243.594 372.61 242.778C372.772 242.778 372.934 242.778 373.259 242.778Z" fill="#2D00AA"/>
<path d="M348.246 220.592H348.733C354.255 220.918 355.717 230.543 355.717 230.706V231.033L356.042 231.196C363.514 233.48 368.874 234.132 372.772 233.806C375.696 233.643 377.645 232.99 379.107 232.175C380.893 231.359 381.868 230.217 382.355 229.564C382.68 229.238 382.842 228.912 382.842 228.586C382.842 228.423 382.842 228.423 382.842 228.423L383.654 225.323L383.979 224.344L384.142 224.018L384.467 223.039L386.578 215.209V215.046L385.604 214.883L385.441 215.209L382.03 228.096C382.03 228.096 378.619 236.905 356.692 230.217C356.367 228.423 354.58 220.429 349.383 219.613L351.494 205.584V205.095L350.52 204.932V205.421L349.707 210.804L349.545 211.783L349.383 213.088L349.22 214.23L348.408 219.613L348.246 220.592Z" fill="#2D00AA"/>
<path d="M337.363 221.897C337.363 222.224 337.526 222.713 337.526 223.039C337.526 223.365 337.688 223.692 337.85 224.018C340.774 232.501 356.042 246.53 371.31 245.878C371.797 245.878 372.285 245.878 372.772 245.878C380.568 245.388 384.142 242.941 385.766 240.984C386.091 240.657 386.253 240.168 386.578 239.842C387.228 238.7 387.228 237.721 387.228 237.721L387.066 232.827V232.338H386.091V232.664L386.253 236.416V237.558C386.253 237.558 386.091 244.246 371.473 244.736C355.23 245.388 338.987 229.075 338.5 221.571C338.338 219.613 338.825 217.819 339.8 216.351C339.8 216.351 339.8 216.188 339.962 216.188C340.124 216.025 340.287 215.698 340.449 215.535C343.373 212.272 348.733 211.783 349.87 211.62C350.032 211.62 350.032 211.62 350.032 211.62V210.641C349.708 210.641 343.373 210.967 339.8 214.883C339.637 215.046 339.475 215.372 339.15 215.535C338.825 216.025 338.5 216.514 338.338 217.003C337.526 218.635 337.201 220.103 337.363 221.897Z" fill="#2D00AA"/>
<path d="M348.57 219.287L348.733 220.266L341.586 221.571L341.424 220.592L348.57 219.287Z" fill="#2D00AA"/>
<path d="M392.263 243.92C393.075 258.439 389.502 264.801 387.553 267.248C386.903 268.064 386.416 268.39 386.416 268.39L387.065 269.206C387.553 268.879 394.537 263.822 393.4 243.92C393.075 238.7 392.263 234.785 391.451 231.848C391.288 231.196 390.964 230.706 390.801 230.217C388.527 224.834 385.766 223.692 384.467 223.529C384.142 223.529 383.979 223.529 383.817 223.529V224.507C383.817 224.507 383.979 224.507 384.142 224.507C385.604 224.671 391.288 227.118 392.263 243.92Z" fill="#2D00AA"/>
<path d="M384.467 239.026C384.629 237.395 385.279 229.565 382.355 228.749L382.03 229.728C383.492 230.217 383.655 235.437 383.33 239.026H384.467Z" fill="#2D00AA"/>
<path d="M351.169 234.622L352.144 234.458C350.844 223.855 344.347 220.592 344.023 220.429L343.535 221.408C343.535 221.408 349.87 224.671 351.169 234.622Z" fill="#2D00AA"/>
<path d="M337.688 222.55L338.175 223.365L328.592 229.075L328.105 228.259L337.688 222.55Z" fill="#2D00AA"/>
<path d="M389.664 231.033C389.664 231.033 390.314 231.359 391.126 232.011C392.75 233.317 395.512 235.763 396.486 239.352C396.973 241.31 397.136 245.225 397.136 249.956C397.298 257.786 397.461 267.737 400.222 272.305C403.958 278.341 412.242 286.661 414.516 288.945C414.84 289.271 415.165 289.597 415.165 289.597L415.977 288.781C415.977 288.781 415.815 288.618 415.49 288.292C413.379 286.171 405.095 277.852 401.359 271.816C398.76 267.411 398.598 257.786 398.435 249.956C398.435 245.225 398.273 241.31 397.786 239.189C396.324 234.132 392.101 231.196 390.801 230.543C390.639 230.38 390.476 230.38 390.476 230.38L389.664 231.033Z" fill="#2D00AA"/>
<path d="M384.792 275.731C384.792 276.22 384.954 276.547 385.116 277.036C388.04 287.476 403.958 299.874 405.257 300.853L405.907 300.038C405.907 300.038 405.744 300.038 405.744 299.874C403.633 298.243 387.553 285.356 385.928 275.405H385.604L384.792 275.731Z" fill="#2D00AA"/>
<path d="M404.283 302.811C404.445 302.321 404.77 301.832 404.932 301.343C405.095 301.016 405.257 300.69 405.42 300.364C408.018 295.307 412.242 291.228 414.516 289.271C414.84 288.945 415.165 288.781 415.328 288.618C415.815 288.129 416.302 287.803 416.302 287.803L416.627 287.476L421.987 292.044L421.662 292.37C421.5 292.533 421.175 292.86 421.013 293.023C420.525 293.349 420.2 293.839 419.876 294.165C415.328 298.896 412.729 302.648 411.429 304.932C411.267 305.258 411.105 305.421 410.942 305.747C410.455 306.563 410.292 307.052 410.292 307.052L409.968 307.705L404.12 302.974L404.283 302.811ZM409.643 306.073C410.455 304.279 413.379 299.059 420.525 292.044L416.627 288.618C415.003 289.923 408.343 295.47 405.42 302.485L409.643 306.073Z" fill="#2D00AA"/>
<path d="M419.063 299.222L421.987 294.165L419.713 294.491H419.551L419.388 293.512L420.85 293.349L422.474 293.186C422.799 293.186 423.124 293.186 423.449 293.349L427.347 294.98C427.834 295.144 428.159 295.633 428.322 296.122C428.484 296.612 428.484 297.101 428.159 297.591L427.997 297.917L427.51 298.733L425.236 302.648C424.911 303.3 424.261 303.626 423.774 303.626C423.449 303.626 423.124 303.626 422.799 303.463L419.876 301.995C419.388 301.832 419.063 301.343 418.901 300.853C418.739 300.201 418.739 299.711 419.063 299.222ZM419.876 300.364C419.876 300.527 420.038 300.69 420.363 300.853L423.287 302.321C423.611 302.485 424.261 302.321 424.423 301.995L427.51 296.938C427.672 296.775 427.672 296.449 427.672 296.286C427.672 296.122 427.51 295.959 427.185 295.796L423.449 294.165L420.2 299.711C419.876 299.874 419.876 300.201 419.876 300.364Z" fill="#2D00AA"/>
<path d="M410.78 305.747C410.78 305.91 410.942 306.073 410.942 306.073C412.891 309.01 417.602 312.109 421.337 314.23C421.987 314.556 422.799 314.719 423.611 314.719C423.936 314.719 424.099 314.719 424.423 314.556C425.56 314.23 426.373 313.578 427.022 312.599L431.895 304.442C432.382 303.463 432.545 302.485 432.382 301.343C432.057 300.364 431.408 299.385 430.433 298.896L428.322 297.754L428.159 297.591L427.672 298.406L427.834 298.569L429.946 299.711C430.596 300.038 431.083 300.69 431.408 301.506C431.57 302.321 431.57 303.137 431.083 303.79L426.21 311.946C425.723 312.599 425.073 313.088 424.261 313.414C423.449 313.578 422.637 313.578 421.987 313.088C418.901 311.294 413.541 308.031 411.754 304.932L411.429 305.095L410.78 305.747Z" fill="#2D00AA"/>
<path d="M323.07 231.196C323.882 229.728 325.344 228.749 327.455 228.259H327.618L327.78 228.423C327.78 228.423 327.942 228.586 328.43 228.749C328.592 228.912 328.917 229.075 329.079 229.075C332.815 231.359 343.535 238.863 344.835 251.261C345.16 253.871 344.997 256.318 344.347 258.602C344.185 258.928 344.185 259.254 344.023 259.581C343.21 262.028 342.073 264.312 340.774 266.106C340.612 266.432 340.287 266.759 340.124 267.085C336.389 271.816 331.841 274.1 331.678 274.1H330.866L329.891 274.263H329.404L329.079 267.574L330.866 266.269C330.866 266.269 332.003 265.29 333.302 263.496C333.627 263.007 333.952 262.68 334.277 262.191C335.739 259.744 337.201 256.318 337.201 252.403C337.038 246.856 333.79 241.473 327.455 236.742C326.643 236.253 325.181 235.6 324.207 235.6C323.882 235.6 323.557 235.763 323.394 235.927L322.745 236.579L322.42 235.763C322.582 235.6 321.933 233.316 323.07 231.196ZM328.267 235.763C334.764 240.821 338.175 246.367 338.338 252.24C338.5 260.723 332.003 266.595 331.678 266.922L330.216 267.901L330.379 273.121H331.353C332.653 272.468 345.322 265.127 343.86 251.424C342.398 237.721 329.079 230.217 327.455 229.401C325.831 229.891 324.531 230.706 323.882 231.685C323.232 232.827 323.232 233.969 323.232 234.622C325.181 234.132 327.78 235.6 328.267 235.763Z" fill="#2D00AA"/>
<path d="M304.391 264.964L305.365 265.127C305.365 265.127 305.365 265.127 305.365 264.964C309.913 247.346 324.369 235.437 324.531 235.274L323.882 234.458C323.882 234.458 323.394 234.785 322.745 235.437C321.933 236.09 320.958 237.232 319.659 238.537C319.334 238.863 319.009 239.189 318.684 239.679C313.974 244.899 307.314 253.708 304.391 264.638C304.391 264.801 304.391 264.964 304.391 264.964Z" fill="#2D00AA"/>
<path d="M297.569 303.626L297.894 303.79C298.381 303.953 299.031 304.116 299.518 304.279C300.817 304.605 302.279 304.768 303.579 304.768C305.04 304.932 306.34 304.768 307.639 304.768C310.563 304.605 312.837 304.116 312.999 303.953L313.486 303.79L313.324 303.3C313.324 303.3 313.324 303.3 313.324 303.137C313.324 302.811 313.486 301.995 313.974 300.364C314.623 297.754 315.76 293.186 318.197 284.866C319.496 280.299 321.283 276.547 323.232 273.61C323.394 273.284 323.557 272.958 323.882 272.795C327.78 267.411 332.003 264.638 333.952 263.496C334.764 263.17 335.089 263.007 335.089 263.007L334.764 262.191V262.028C334.602 262.028 322.258 266.922 317.222 284.703C313.486 297.754 312.512 301.832 312.35 303.137C311.213 303.3 307.639 304.116 303.579 303.79C302.279 303.79 300.98 303.626 299.68 303.3H299.518C299.193 303.3 298.868 303.137 298.706 303.137C298.868 300.527 300.005 285.193 302.766 277.199C302.766 277.036 302.929 276.873 302.929 276.873L301.954 276.547C301.954 276.71 301.792 276.873 301.792 277.036C299.031 285.029 297.894 300.038 297.731 303.137C297.731 303.463 297.731 303.626 297.569 303.626Z" fill="#2D00AA"/>
<path d="M329.891 281.114H330.866H331.028L331.678 274.1V273.447H330.704V274.263L330.216 279.157L330.054 280.135V280.788L329.891 281.114Z" fill="#2D00AA"/>
<path d="M323.07 272.795L323.232 276.71C323.394 278.83 325.181 280.462 327.293 280.299L330.054 280.135V279.157L327.293 279.32C325.668 279.483 324.369 278.178 324.207 276.71L324.044 272.795H323.07Z" fill="#2D00AA"/>
<path d="M318.359 239.679C318.359 239.842 318.359 240.005 318.359 240.005L319.334 239.842C319.334 239.842 319.334 239.516 319.334 238.537C319.334 237.232 319.334 234.785 319.496 230.706C319.821 225.16 333.465 218.798 338.338 216.677C339.15 216.351 339.637 216.025 339.962 216.025H340.124L339.799 215.209C339.799 215.209 339.637 215.372 339.312 215.372C336.226 216.677 319.009 224.018 318.522 230.87C318.197 236.416 318.359 238.863 318.359 239.679Z" fill="#2D00AA"/>
<path d="M296.594 302.485L297.244 302.648C297.569 302.648 297.731 302.811 298.056 302.811C298.706 302.974 299.355 303.137 300.005 303.3H300.168C301.467 303.626 302.766 303.79 304.066 303.79C308.776 304.116 312.187 303.626 313.811 303.3C314.461 303.137 314.786 303.137 314.786 303.137L315.436 302.974L314.786 311.294L314.461 311.457C313.811 311.62 313.162 311.783 312.512 311.946C312.187 311.946 311.862 312.109 311.537 312.109C310.238 312.272 308.939 312.436 307.639 312.599C303.416 312.925 300.168 312.273 298.381 311.946C297.894 311.946 297.569 311.783 297.406 311.62C297.081 311.457 296.919 311.457 296.757 311.457L296.432 311.294L296.594 302.485ZM313.649 310.315L314.136 304.279C312.674 304.605 308.939 305.421 303.741 304.932C302.442 304.768 301.142 304.605 299.843 304.442C299.031 304.279 298.218 304.116 297.406 303.953L297.081 310.478C298.706 310.804 305.365 312.436 313.649 310.315Z" fill="#2D00AA"/>
<path d="M295.62 327.607V327.77L295.782 327.933C295.944 328.096 298.218 330.217 304.066 329.728C306.502 329.564 309.426 329.075 313.162 327.77L313.486 327.607L313.162 322.55V321.571L312.837 315.861V314.719L312.674 311.783V311.457L311.7 311.62V312.109L312.674 326.954C302.279 330.543 297.731 327.933 296.919 327.281C295.782 318.635 298.056 312.599 298.381 311.783V311.62L297.406 311.131C297.406 311.131 297.406 311.294 297.244 311.457C296.594 312.925 294.32 318.961 295.62 327.607Z" fill="#2D00AA"/>
<path d="M312.999 321.571H312.674V322.55H312.999L317.06 322.224V321.734C317.222 316.351 313.974 315.046 312.512 314.719C312.025 314.556 311.862 314.556 311.862 314.556V315.535C311.862 315.535 312.187 315.535 312.674 315.698C313.811 316.025 316.085 317.166 316.085 321.082L312.999 321.571Z" fill="#2D00AA"/>
<path d="M358.316 208.52C358.316 207.868 358.641 192.86 364.001 187.966C365.3 186.824 366.6 186.334 368.224 186.498C375.696 186.987 387.553 188.455 391.126 188.945C391.613 188.945 391.938 189.108 392.101 189.108H392.263L394.375 191.065L395.836 192.37V192.534C395.836 193.186 396.649 208.031 389.664 214.883L389.502 215.046H389.339C389.177 215.046 388.04 215.046 386.416 215.209C386.091 215.209 385.766 215.209 385.279 215.209C380.244 215.209 371.31 214.883 365.625 212.762C365.463 212.762 361.565 211.62 358.478 209.173L358.316 209.01V208.52ZM363.026 210.641C363.351 210.804 363.676 210.967 364.001 211.131C364.976 211.457 365.788 211.783 365.788 211.783C373.422 214.719 387.065 214.23 388.852 214.067C395.024 208.031 394.699 194.654 394.537 192.86L391.451 190.25C389.827 190.087 376.183 188.292 367.737 187.64C366.437 187.476 365.3 187.966 364.326 188.781C359.615 193.023 359.128 206.4 358.966 208.357C360.428 209.336 361.889 210.152 363.026 210.641Z" fill="#2D00AA"/>
<path d="M364.001 211.294C364.001 211.131 365.625 199.711 367.899 194.328C368.874 191.881 381.868 193.349 389.827 194.817L389.989 193.839C386.416 193.186 368.549 189.923 366.925 194.002C364.651 199.548 363.026 210.804 363.026 211.294H364.001Z" fill="#2D00AA"/>
<path d="M391.776 188.781C391.776 188.455 392.75 182.582 388.852 177.362C385.929 173.61 381.218 171.326 374.721 170.674C356.042 168.716 352.794 188.618 352.794 188.781L353.768 188.945C353.931 188.129 356.854 169.858 374.559 171.653C380.731 172.305 385.279 174.426 388.04 178.015C391.776 182.746 390.801 188.618 390.801 188.618L391.776 188.781Z" fill="#2D00AA"/>
<path d="M349.545 188.292H350.52C350.52 188.292 350.52 188.292 350.52 188.129C350.52 186.824 351.332 176.71 358.478 170.511C362.702 166.759 368.549 165.29 375.533 165.943C382.842 166.595 388.04 169.206 390.964 173.447C395.024 179.483 393.725 187.313 393.075 189.76C392.913 190.25 392.913 190.413 392.913 190.413L393.887 190.739V190.576C394.375 189.108 396.486 179.972 391.776 172.958C388.69 168.39 383.167 165.617 375.533 164.964C368.224 164.312 362.052 165.943 357.666 169.858C350.357 176.383 349.707 186.661 349.545 188.292Z" fill="#2D00AA"/>
<path d="M347.109 188.618L347.271 188.292H347.596C347.596 188.292 348.57 188.129 350.032 188.129C350.357 188.129 350.682 188.129 351.007 188.129C351.657 188.129 352.306 188.292 353.118 188.292C353.443 188.292 353.768 188.455 354.093 188.455C354.905 188.618 355.717 188.781 356.692 189.108H357.017V189.434C357.179 189.923 359.453 200.201 353.606 204.932L353.443 205.095H353.281C353.118 205.095 352.469 205.095 351.657 205.095C351.332 205.095 351.007 205.095 350.682 204.932C349.383 204.605 347.758 204.116 345.972 203.137L345.809 202.974V202.811C345.322 202.485 343.698 195.959 347.109 188.618ZM346.459 202.321C349.383 204.116 352.306 204.116 352.956 204.116C357.666 200.038 356.367 191.718 356.042 190.086C354.743 189.76 353.443 189.434 352.306 189.434C351.981 189.434 351.494 189.271 351.169 189.271C349.545 189.108 348.408 189.271 347.921 189.271C345.16 195.47 346.134 201.179 346.459 202.321Z" fill="#2D00AA"/>
<path d="M351.657 198.08C354.255 194.165 352.144 188.781 351.981 188.455L351.007 188.781C351.007 188.781 352.956 193.839 350.682 197.427L351.657 198.08Z" fill="#2D00AA"/>
<path d="M325.506 380.462V380.625L336.551 387.803C336.713 387.803 342.561 390.25 349.707 389.76C353.281 389.597 357.017 388.618 360.59 386.334L360.752 386.171V386.008C360.752 385.682 361.727 378.994 357.666 374.915C355.717 372.958 352.956 371.816 349.545 371.653C349.058 371.653 348.57 371.653 347.921 371.653C347.758 371.653 347.596 371.653 347.271 371.653C346.946 371.653 339.312 371.979 336.713 376.71L337.688 377.199C338.338 375.894 339.637 374.915 340.774 374.263C341.586 373.936 342.398 373.61 343.21 373.284C345.322 372.631 347.271 372.631 347.271 372.631C347.921 372.631 348.408 372.631 349.058 372.631C350.195 372.631 351.169 372.795 351.981 372.958C352.144 372.958 352.144 372.958 352.306 372.958C352.469 372.958 352.631 372.958 352.956 373.121C354.093 373.447 355.068 373.936 355.88 374.589C356.205 374.915 356.529 375.078 356.854 375.405C358.478 377.199 359.291 379.483 359.615 381.604C359.615 381.93 359.778 382.256 359.778 382.419C359.94 383.887 359.778 385.029 359.778 385.519C349.707 391.881 337.201 386.824 337.038 386.824L326.481 379.972C326.481 379.157 326.318 378.341 326.318 377.525C326.318 377.036 326.318 376.71 326.318 376.22C326.481 369.532 328.592 366.922 329.242 366.432L329.404 366.269L328.755 365.454C328.755 365.454 328.755 365.454 328.592 365.617C327.78 366.759 324.694 370.348 325.506 380.462Z" fill="#2D00AA"/>
<path d="M373.909 378.015L374.234 378.178C374.234 378.178 380.081 380.299 387.065 382.746C390.801 384.051 397.136 385.193 402.658 384.703C406.719 384.377 410.455 383.398 412.404 380.951L412.566 380.788C412.566 380.625 414.191 375.405 411.754 371.326C410.455 369.042 408.018 367.411 404.77 366.759C401.359 366.106 398.76 366.269 396.811 366.922C396.324 367.085 395.999 367.248 395.512 367.411C392.101 369.206 391.289 372.468 391.126 372.631L392.101 372.795C392.101 372.631 392.426 371.326 393.725 370.021C394.05 369.695 394.375 369.206 394.862 368.879C395.349 368.553 395.999 368.227 396.649 367.901C398.435 367.248 400.872 366.922 404.283 367.574C407.044 368.227 408.993 369.369 410.292 371.163C410.455 371.326 410.455 371.489 410.617 371.653C410.78 371.816 410.78 371.979 410.78 372.142C411.592 373.773 411.754 375.568 411.754 377.199C411.754 377.525 411.754 378.015 411.754 378.341C411.592 379.32 411.429 380.135 411.429 380.299C407.369 385.193 393.725 383.724 387.228 381.604C381.218 379.646 376.183 377.688 374.884 377.199L375.208 374.589L375.371 373.447L376.508 364.312V363.822H375.858H375.371L373.909 378.015Z" fill="#2D00AA"/>
<path d="M390.801 365.454L395.349 367.574L396.486 368.064L396.973 367.248L396.486 367.085L391.776 364.964L390.964 364.638L390.801 365.454Z" fill="#2D00AA"/>
<path d="M345.16 367.737C345.16 367.901 345.322 368.227 345.322 368.39C345.809 369.532 347.109 370.837 347.921 371.653C348.57 372.305 349.058 372.631 349.22 372.631L349.87 371.816L349.707 371.653C348.733 370.837 346.784 369.206 346.297 367.737C346.297 367.737 346.297 367.574 346.297 367.411L345.16 367.737Z" fill="#2D00AA"/>
<path d="M358.154 260.886C358.154 260.56 358.316 260.233 358.316 259.907C359.453 254.524 364.001 250.445 369.523 250.119C374.884 249.793 379.431 253.056 381.218 257.786C381.381 258.113 381.381 258.439 381.543 258.765C381.868 259.744 381.868 260.56 382.03 261.538C382.03 263.17 381.868 264.638 381.381 266.106C381.218 266.432 381.056 266.922 380.893 267.248C379.107 271.326 375.208 274.263 370.498 274.589C366.113 274.915 362.052 272.631 359.94 269.042C359.778 268.716 359.615 268.39 359.291 268.064C358.478 266.595 357.991 264.801 357.991 263.007C357.991 262.354 357.991 261.702 358.154 260.886ZM370.498 273.61C376.508 273.284 381.218 267.901 380.893 261.538C380.568 255.339 375.533 250.609 369.523 250.935C363.514 251.261 358.803 256.644 359.128 262.843C359.291 269.369 364.326 274.1 370.498 273.61Z" fill="#2D00AA"/>
<path d="M345.322 259.907L345.484 258.928C344.835 258.928 344.185 258.765 343.535 258.602L343.373 259.581C344.023 259.744 344.672 259.744 345.322 259.907Z" fill="#2D00AA"/>
<path d="M358.641 260.723V259.744C357.666 259.744 356.529 259.744 355.555 259.744V260.723C356.529 260.723 357.504 260.723 358.641 260.723Z" fill="#2D00AA"/>
<path d="M380.406 259.091C385.604 258.113 388.202 256.808 388.365 256.808L387.878 255.829C387.878 255.829 385.116 257.134 380.081 258.113L380.406 259.091Z" fill="#2D00AA"/>
<path d="M344.672 267.901L344.835 266.922C343.21 266.595 341.586 266.432 340.124 265.943L339.799 266.922C341.424 267.411 343.048 267.737 344.672 267.901Z" fill="#2D00AA"/>
<path d="M360.265 269.042V268.064C358.478 268.064 356.854 268.064 355.068 268.064V269.042C356.692 269.206 358.478 269.206 360.265 269.042Z" fill="#2D00AA"/>
<path d="M380.568 267.574C384.954 266.595 387.553 265.454 387.715 265.454L387.39 264.475C387.39 264.475 384.791 265.454 380.406 266.432L380.568 267.574Z" fill="#2D00AA"/>
<path d="M387.39 333.969C389.502 334.622 391.613 334.622 393.238 334.622C395.024 334.458 396.324 334.132 396.486 334.132L396.161 333.153C396.161 333.153 391.938 334.295 387.715 332.99L387.39 333.969Z" fill="#2D00AA"/>
<path d="M342.398 338.7C344.51 339.352 346.621 339.352 348.246 339.352C350.032 339.189 351.332 338.863 351.494 338.863L351.169 337.884C351.169 337.884 346.946 339.026 342.723 337.721L342.398 338.7Z" fill="#2D00AA"/>
<path d="M359.291 313.578L360.265 313.904L360.428 313.578L362.377 308.031L361.402 307.705L359.453 313.251L359.291 313.578Z" fill="#2D00AA"/>
<path d="M338.663 299.711L338.825 298.896L338.987 297.917L340.449 289.434L340.612 288.455V288.292C340.612 287.803 340.937 287.313 341.424 287.15C341.749 286.824 342.236 286.661 342.723 286.824L349.708 287.803C350.682 287.966 351.332 288.945 351.169 289.923V290.25L351.007 291.228L349.545 299.711L349.383 300.69L349.22 301.179C349.058 301.995 348.246 302.648 347.434 302.648C347.271 302.648 347.109 302.648 347.109 302.648L340.124 301.669C339.15 301.669 338.5 300.69 338.663 299.711ZM340.287 300.853L347.271 301.832C347.758 301.832 348.083 301.506 348.246 301.179L350.195 289.76C350.195 289.271 350.032 288.945 349.545 288.781L342.561 287.803H342.398C342.236 287.803 342.074 287.803 341.911 287.966C341.749 288.129 341.586 288.292 341.586 288.455L339.637 299.874C339.637 300.364 339.8 300.69 340.287 300.853Z" fill="#2D00AA"/>
<path d="M371.96 286.171C372.285 285.845 372.772 285.519 373.259 285.519L374.559 285.356C375.696 285.356 376.508 286.008 376.67 286.987V287.966V288.945L377.32 297.754V298.733V299.874C377.32 300.364 377.157 300.853 376.833 301.18C376.508 301.506 376.02 301.832 375.533 301.832L374.234 301.995C373.259 301.995 372.285 301.343 372.285 300.364V300.038V299.059L371.635 290.25V289.271L371.473 287.64C371.473 286.987 371.635 286.498 371.96 286.171ZM373.422 300.201C373.422 300.69 373.909 301.016 374.396 301.016L375.696 300.853C375.858 300.853 376.183 300.69 376.345 300.527C376.508 300.364 376.508 300.201 376.508 299.874L375.533 286.987C375.533 286.498 375.046 286.171 374.559 286.171L373.259 286.335C373.097 286.335 372.772 286.498 372.61 286.661C372.447 286.824 372.447 286.987 372.447 287.313L373.422 300.201Z" fill="#2D00AA"/>
<path d="M299.68 273.61L301.954 266.106C302.117 265.617 302.442 265.127 302.929 264.801C303.416 264.475 304.066 264.475 304.553 264.638H304.878L305.852 264.964L306.177 265.127C307.152 265.454 307.802 266.432 307.477 267.411L306.989 269.532L308.776 272.468L305.69 273.121L304.878 275.078C304.553 275.894 303.903 276.383 303.091 276.383C302.929 276.383 302.766 276.383 302.766 276.383C302.604 276.383 302.442 276.383 302.279 276.22L301.792 276.057L301.142 275.894C300.005 275.731 299.355 274.752 299.68 273.61ZM301.305 275.078L302.604 275.568C303.091 275.731 303.741 275.405 303.903 274.915L304.878 272.468L307.152 271.979L305.852 270.021L306.502 267.411C306.665 266.922 306.34 266.432 305.852 266.269L304.228 265.78C303.903 265.78 303.741 265.78 303.416 265.78C303.091 265.943 302.929 266.106 302.929 266.432L300.655 273.936C300.655 274.426 300.817 274.915 301.305 275.078Z" fill="#2D00AA"/>
<path d="M402.496 380.788C408.83 380.462 412.404 378.341 412.566 378.178L412.079 377.362C412.079 377.362 404.932 381.441 393.238 379.157C381.381 376.873 375.533 373.936 375.533 373.936L375.046 374.752C375.208 374.915 381.056 377.852 393.075 380.136C396.486 380.788 399.735 380.951 402.496 380.788Z" fill="#2D00AA"/>
<path d="M348.733 385.682C355.23 385.193 360.103 382.419 360.103 382.419L359.615 381.604C359.453 381.604 349.383 387.476 339.15 383.235C328.917 378.83 326.318 376.383 326.318 376.383L325.506 377.036C325.668 377.199 328.267 379.646 338.662 384.051C342.236 385.519 345.647 385.845 348.733 385.682Z" fill="#2D00AA"/>
<path d="M380.081 287.803H381.218L381.705 296.612H380.568L380.081 287.803Z" fill="#2D00AA"/>
<path d="M366.437 290.413H367.574L367.899 300.038H366.762L366.437 290.413Z" fill="#2D00AA"/>
<path d="M359.94 291.065H360.915V300.69H359.94V291.065Z" fill="#2D00AA"/>
<path d="M353.118 291.228H354.093V300.853H353.118V291.228Z" fill="#2D00AA"/>
<path d="M337.201 287.803L338.175 288.129L335.576 297.427L334.602 297.101L337.201 287.803Z" fill="#2D00AA"/>
<path d="M332.328 284.703L333.302 285.029L330.216 294.165L329.242 293.839L332.328 284.703Z" fill="#2D00AA"/>
<path d="M380.893 180.788C382.842 180.625 384.467 179.483 385.116 177.688L385.766 175.731L384.792 175.405L384.142 177.362C383.655 178.994 382.03 179.972 380.406 179.809L374.071 179.483C372.934 179.483 371.96 178.83 371.31 178.015L366.925 171.816L366.113 172.468L370.498 178.667C371.31 179.809 372.61 180.462 373.909 180.625L380.244 180.951C380.406 180.788 380.568 180.788 380.893 180.788Z" fill="#2D00AA"/>
<path d="M349.545 258.928C349.545 258.439 349.87 257.95 350.195 257.623C350.682 257.297 351.169 257.134 351.657 257.134L354.255 257.297C355.392 257.297 356.204 258.276 356.204 259.418V259.744V260.723L355.717 268.064V269.043V269.206C355.717 269.695 355.392 270.184 355.067 270.674C354.743 271 354.255 271.163 353.768 271.163C353.606 271.163 353.606 271.163 353.606 271.163L351.007 271C350.52 271 349.87 270.674 349.545 270.348C349.383 270.184 349.383 270.184 349.383 270.021C349.22 269.695 349.058 269.369 349.058 268.879L349.545 258.928ZM350.032 269.695C350.195 269.858 350.52 270.021 350.682 270.021L353.281 270.184C353.606 270.184 353.768 270.184 354.093 269.858C354.255 269.695 354.418 269.369 354.418 269.206L355.067 259.255C355.067 258.765 354.743 258.276 354.093 258.276L351.494 258.113H351.332C351.169 258.113 350.844 258.276 350.682 258.439C350.52 258.602 350.357 258.928 350.357 259.091L349.545 269.043C349.707 269.206 349.87 269.532 350.032 269.695Z" fill="#2D00AA"/>
<path d="M344.185 268.064L344.347 266.922L344.997 259.907V258.928V258.276C344.997 257.623 345.322 257.134 345.809 256.808C346.134 256.481 346.621 256.481 346.946 256.481L348.895 256.808C349.383 256.808 349.87 257.297 350.195 257.786C350.357 258.113 350.52 258.602 350.357 258.928L349.545 268.879C349.545 269.369 349.22 269.858 348.895 270.184C348.895 270.184 348.895 270.348 348.733 270.348C348.408 270.511 348.083 270.674 347.758 270.674C347.596 270.674 347.596 270.674 347.434 270.674L345.322 270.511C344.835 270.184 344.185 269.206 344.185 268.064ZM345.809 269.206L347.921 269.369C348.083 269.369 348.083 269.369 348.246 269.206C348.408 269.042 348.571 268.716 348.571 268.39L349.383 258.439C349.383 257.786 349.058 257.297 348.733 257.297L346.784 256.971H346.621C346.459 256.971 346.459 256.971 346.297 257.134C346.134 257.297 345.972 257.623 345.972 257.95L345.16 267.901C345.16 268.716 345.484 269.206 345.809 269.206Z" fill="#2D00AA"/>
<path d="M352.956 379.646C353.931 379.646 354.905 378.993 355.555 378.178C356.204 377.362 356.367 376.383 356.204 375.405C355.555 372.958 353.443 372.142 352.306 372.142L352.144 373.121C352.306 373.121 354.58 373.284 355.067 375.568C355.23 376.22 355.067 377.036 354.58 377.525C354.093 378.178 353.443 378.504 352.631 378.504L348.408 378.667C347.271 378.667 346.134 378.015 345.972 376.873C345.484 375.241 344.835 374.1 343.698 373.447C342.886 372.958 341.749 372.958 340.612 373.447L340.936 374.426C341.749 374.1 342.561 374.1 343.21 374.426C344.185 374.915 344.672 376.22 344.997 377.199C345.322 378.83 346.946 379.809 348.57 379.809L352.956 379.646C352.956 379.646 352.794 379.646 352.956 379.646Z" fill="#2D00AA"/>
<path d="M405.744 373.447C406.232 373.447 406.719 373.284 407.044 373.284L411.104 372.305L410.942 371.326L406.881 372.305C404.932 372.795 402.821 372.305 401.196 371.163C399.41 369.858 396.161 368.879 393.4 369.206L393.562 370.184C395.999 369.858 398.923 370.837 400.547 371.979C402.171 373.121 403.958 373.61 405.744 373.447Z" fill="#2D00AA"/>
<path fill-rule="evenodd" clip-rule="evenodd" d="M372.122 261.212C372.447 261.702 372.447 262.354 372.447 263.007C372.285 263.659 372.122 264.149 371.635 264.638L372.285 265.29C372.934 264.638 373.259 263.985 373.422 263.17C373.584 262.354 373.422 261.375 372.934 260.723L372.447 261.049L372.122 261.212Z" fill="#00D4A1"/>
<path fill-rule="evenodd" clip-rule="evenodd" d="M372.934 265.943L370.66 263.659C370.823 263.496 370.985 263.17 371.148 262.843C371.148 262.517 371.148 262.191 370.985 262.028L372.285 261.049L373.747 260.07C373.909 260.07 373.909 259.907 373.747 259.744L373.584 259.581C372.772 258.602 371.635 257.786 370.336 257.623L370.498 256.971V256.808V256.644C370.498 256.644 370.498 256.644 370.336 256.481H370.173H370.011H369.848C369.848 256.481 369.848 256.481 369.686 256.644V256.808L369.523 257.46C369.199 257.46 368.874 257.46 368.549 257.46L368.711 256.481V256.318V256.155C368.711 256.155 368.711 256.155 368.549 255.992H368.386H368.224H368.062C368.062 255.992 368.062 255.992 367.899 256.155V256.318L367.737 257.46C366.6 257.786 365.625 258.439 364.976 259.418C364.326 260.397 364.001 261.538 364.001 262.68C364.001 263.822 364.488 264.964 365.3 265.78C366.113 266.596 367.087 267.248 368.224 267.411L371.96 267.901C372.122 267.901 372.122 267.901 372.122 267.737L372.447 265.78C373.097 266.106 373.097 265.943 372.934 265.943ZM368.874 265.943C367.899 265.78 367.087 265.454 366.6 264.964C365.95 264.312 365.625 263.659 365.463 262.68C365.3 261.865 365.625 261.049 365.95 260.233C366.437 259.418 367.087 258.928 367.899 258.602L367.737 259.744V259.907V260.07C367.737 260.07 367.737 260.07 367.899 260.233H368.062H368.224H368.386C368.386 260.233 368.386 260.233 368.549 260.07V259.907L368.711 258.439C369.199 258.276 369.686 258.276 370.173 258.439C371.148 258.602 371.96 258.928 372.285 259.418V259.581L370.336 260.886C370.173 260.723 370.011 260.723 369.848 260.723C369.686 260.723 369.361 260.723 369.199 260.723C369.036 260.723 368.874 260.886 368.711 261.049C368.549 261.212 368.386 261.375 368.386 261.538C368.224 261.702 368.224 262.028 368.224 262.191C368.224 262.354 368.224 262.68 368.386 262.843C368.549 263.007 368.549 263.17 368.711 263.333C368.874 263.496 369.036 263.659 369.199 263.659C369.361 263.659 369.686 263.659 369.848 263.659L371.96 265.78C371.96 265.78 371.96 265.78 371.96 265.943L371.797 266.596C371.797 266.596 371.797 266.759 371.635 266.759L368.874 265.943ZM370.173 262.68C370.173 262.843 370.173 262.843 370.011 263.007C370.011 263.17 369.848 263.17 369.686 263.17C369.523 263.17 369.523 263.17 369.361 263.17C369.199 263.17 369.199 263.007 369.036 263.007C369.036 262.843 368.874 262.843 368.874 262.68C368.874 262.517 368.874 262.517 369.036 262.354C369.036 262.191 369.199 262.191 369.361 262.191C369.523 262.191 369.523 262.191 369.686 262.191C369.848 262.191 370.011 262.354 370.011 262.354C370.173 262.354 370.173 262.517 370.173 262.68Z" fill="#050017"/>
<path d="M293.666 317.618C293.829 317.618 293.991 317.455 294.154 317.455L294.478 317.292V308.809H291.717C291.717 304.405 291.717 292.985 289.93 284.992H290.093C291.392 284.666 292.204 283.197 292.042 281.892L290.093 271.778C289.931 271.126 289.606 270.473 288.956 270.147C288.306 269.821 287.657 269.657 286.844 269.821L286.357 269.984C283.271 250.408 269.302 231.811 267.191 229.038L267.516 228.874L244.938 219.413L244.289 199.184H246.238C249.162 199.021 251.436 196.574 251.436 193.638L251.111 183.524C251.111 182.055 250.461 180.75 249.324 179.772C248.512 179.119 247.537 178.63 246.563 178.467C245.588 178.63 244.451 178.956 243.477 178.793C243.152 178.793 242.827 178.303 242.827 177.977C242.827 177.325 242.827 176.672 242.827 176.183C242.827 176.02 242.827 175.367 242.827 175.041C242.665 174.878 242.34 174.715 242.34 174.551C242.34 174.388 242.34 174.388 242.34 174.225C242.34 174.225 242.34 174.225 242.34 174.062C242.015 172.757 241.852 171.452 241.528 170.31C240.878 168.842 240.066 167.374 239.416 166.069C239.254 165.742 239.254 165.579 239.416 165.253C237.954 162.969 236.492 160.685 234.706 158.891C232.432 156.607 229.67 154.486 226.584 153.344C223.336 152.202 220.412 152.692 217.164 152.529C217.001 152.529 217.001 152.529 216.839 152.692C215.539 152.855 214.24 153.018 212.941 153.344C211.479 153.834 210.017 154.323 208.717 154.812C207.743 155.302 206.768 155.954 205.956 156.77C204.007 158.564 202.22 160.848 200.596 162.969C197.023 167.863 195.561 172.92 195.399 178.956C195.723 179.445 195.561 180.098 194.911 180.424C194.424 180.587 193.937 180.587 193.612 180.424C193.287 180.424 192.962 180.424 192.8 180.261C192.8 180.261 192.637 180.261 192.475 180.261C192.312 180.587 191.825 180.75 191.5 180.587C190.688 180.914 189.876 181.403 189.226 182.219C188.252 183.361 187.927 184.666 187.927 186.134L188.739 196.248C188.901 199.021 191.338 201.142 194.099 201.142C194.262 201.142 194.424 201.142 194.586 201.142L196.86 200.979C197.672 210.767 198.485 221.044 198.647 225.775V225.612C198.322 225.775 191.013 229.038 187.764 244.535H187.602C185.653 254.976 175.42 268.189 173.309 270.799C171.359 269.331 163.888 263.458 159.827 254.486L159.502 254.649C159.99 253.997 160.477 253.344 160.964 252.692L161.127 252.365L156.416 244.861L155.929 245.84C155.929 245.84 155.929 245.84 155.767 246.003C155.604 243.556 155.604 241.436 155.604 239.804C155.604 237.194 155.604 235.4 155.117 234.095C154.63 232.626 153.33 231.648 151.706 231.485H150.407C149.432 231.485 148.457 231.811 147.808 232.463C147.158 233.116 146.671 234.095 146.671 235.073C146.671 236.705 146.671 238.336 146.671 239.478C145.371 237.357 144.072 233.932 142.935 229.364C142.61 228.222 141.798 227.243 140.661 226.754C139.524 226.264 138.225 226.427 137.412 227.08L127.504 233.279C126.205 234.258 125.555 235.889 126.205 237.52C129.129 245.84 135.626 254.486 137.575 257.096H137.088L140.499 262.806L141.96 264.763H142.285C142.448 264.763 143.097 264.763 144.234 264.437C145.371 268.516 150.894 284.176 165.512 293.475V294.29C165.512 295.595 166.487 296.574 167.786 296.574L176.72 297.064H176.882C177.532 297.064 178.019 296.9 178.506 296.411C178.993 295.922 179.318 295.269 179.318 294.617V294.127C179.481 293.964 183.704 291.191 186.303 288.744V305.71C185.815 305.71 185.491 305.546 185.003 305.546L184.191 305.383V320.065L184.678 320.228C184.678 320.228 185.491 320.392 186.952 320.718L192.475 408.32C190.851 408.646 185.978 409.462 179.806 410.44C175.907 411.093 172.984 412.724 170.872 415.498C167.136 420.555 168.273 427.569 168.273 427.896L168.436 428.548H212.453V411.582L211.154 409.788L213.428 375.204L218.463 349.103L221.549 348.777C227.884 359.543 239.091 382.219 242.665 414.029C241.852 414.519 241.04 415.008 240.391 415.661C237.629 418.434 236.33 422.838 236.33 430.343V430.995H269.627V430.343C269.627 430.016 270.115 421.533 265.079 416.15C263.293 414.192 261.181 413.051 258.582 412.235V319.902C259.07 319.739 259.557 319.576 260.044 319.413L260.531 319.25L260.369 304.568H260.207C260.207 304.405 260.044 304.241 259.882 304.078C259.232 303.426 257.933 303.426 257.283 303.263V264.6C260.369 268.189 270.764 282.219 273.038 308.809H270.602V317.945L270.927 318.108C270.927 318.108 271.089 318.108 271.251 318.271L268.653 331.974C268.49 333.279 268.815 334.584 269.952 335.563C270.764 336.215 271.901 336.542 272.876 336.378C274.013 336.215 274.825 335.563 275.475 334.747L278.398 330.506C279.048 332.463 280.347 336.542 281.159 339.804C281.484 341.272 282.784 342.414 284.408 342.741C285.058 342.904 285.87 342.904 286.844 342.904C289.443 342.904 292.854 342.414 296.915 340.62C298.377 339.967 299.351 338.499 299.189 336.868C298.052 332.79 297.077 325.775 293.666 317.618Z" fill="white"/>
<path d="M236.33 191.68C236.817 186.297 236.817 178.956 231.944 176.835C228.858 175.53 224.798 176.02 221.549 176.183C217.001 176.183 211.966 176.183 207.58 177.325C206.931 177.488 206.606 177.814 206.281 178.14C203.195 179.608 202.058 182.871 201.733 186.297C201.246 189.56 200.434 195.759 203.032 198.369C202.87 199.511 203.52 200.816 205.144 200.816C206.606 200.979 208.068 200.816 209.53 200.653C213.915 201.794 219.113 201.142 223.498 199.837C223.498 199.837 223.661 199.837 223.661 200C225.61 200.653 227.721 200.489 229.67 200.163C231.132 200 232.756 199.674 234.218 199.184C237.142 197.879 238.117 194.127 236.33 191.68Z" fill="#00C092"/>
<path d="M210.017 256.444C208.068 255.954 205.956 257.749 206.606 259.87C206.443 261.338 207.418 262.643 208.88 262.806C210.342 262.969 211.641 261.827 211.966 260.522C211.966 260.522 211.966 260.522 211.966 260.359C213.103 258.728 211.966 256.607 210.017 256.444Z" fill="#00C092"/>
<path d="M290.905 278.14C290.255 275.53 289.93 270.636 286.357 270.636C282.946 270.636 282.784 274.551 283.596 277.162C283.109 277.162 282.621 277.325 282.134 277.814C281.809 278.14 281.809 278.467 281.972 278.956C282.621 280.098 284.083 280.098 284.895 281.077C285.87 282.219 285.545 283.85 287.169 284.502C288.469 284.992 290.093 284.502 290.905 283.361C292.042 281.566 291.23 279.772 290.905 278.14Z" fill="#00C092"/>
<path d="M177.369 291.191C176.882 290.375 176.07 289.886 175.095 289.723C174.608 289.56 173.958 289.56 173.471 289.56C173.471 288.581 172.659 287.602 171.359 287.602C170.06 287.602 169.41 288.581 169.248 289.56C168.436 289.56 167.786 289.886 167.461 290.701C166.324 290.375 164.862 291.028 164.862 292.496C164.862 294.943 166.974 295.269 168.923 295.432C169.573 295.432 170.222 295.432 170.872 295.432C171.684 295.432 172.172 295.759 172.984 295.922C173.958 296.085 174.933 296.085 175.745 295.595C177.694 294.617 178.506 292.822 177.369 291.191Z" fill="#00C092"/>
<path d="M168.598 426.917H210.504L210.667 411.093L209.205 408.972L189.876 408.157L174.121 411.582L169.085 416.639L167.461 425.285L168.598 426.917Z" fill="white"/>
<path d="M236.492 429.364L268.165 429.201L267.678 422.839L262.805 414.356L254.684 411.419L245.588 412.398L238.279 416.639L235.843 424.47L236.492 429.364Z" fill="white"/>
<path d="M178.506 291.68C178.344 290.538 177.532 289.723 176.395 289.56L173.958 289.233L172.496 287.276L171.522 285.971L169.573 289.07H167.136C166.162 289.07 165.35 289.723 165.025 290.702C164.862 291.028 164.862 291.191 164.862 291.517V292.17V292.985C164.862 294.29 165.837 295.269 167.136 295.269L176.07 295.759H176.232C176.882 295.759 177.369 295.595 177.857 295.106C178.344 294.617 178.669 293.964 178.669 293.312V292.822V291.517C178.506 291.843 178.506 291.843 178.506 291.68ZM177.044 293.801C177.044 294.127 176.882 294.29 176.72 294.617C176.557 294.78 176.232 294.943 175.907 294.943L166.974 294.454C166.487 294.454 165.999 293.964 165.999 293.475V292.007C165.999 291.517 166.487 291.028 166.974 291.028H170.06L171.359 288.907L172.984 291.028L176.07 291.354C176.557 291.354 177.044 291.843 177.044 292.333V293.801Z" fill="#2D00AA"/>
<path d="M291.88 281.729L289.93 271.615C289.768 270.962 289.443 270.31 288.793 269.984C288.144 269.657 287.494 269.494 286.682 269.657L286.195 269.821L284.895 270.147H284.57C283.271 270.473 282.459 271.778 282.621 273.083L283.109 276.02L280.347 279.608L281.647 279.935L284.408 280.75L285.22 283.524C285.545 284.666 286.682 285.481 287.819 285.481C287.981 285.481 288.306 285.481 288.469 285.318L288.793 285.155L290.093 284.829H290.255C291.392 284.502 292.204 283.034 291.88 281.729ZM289.606 283.524L287.981 284.013C287.332 284.176 286.519 283.85 286.357 283.197L285.382 279.772L282.459 278.956L284.408 276.346L283.921 272.92C283.758 272.268 284.246 271.615 284.895 271.452L287.007 270.963C287.332 270.799 287.656 270.962 287.981 271.126C288.306 271.289 288.469 271.615 288.631 271.941L290.58 282.055C290.743 282.708 290.255 283.361 289.606 283.524Z" fill="#2D00AA"/>
<path d="M264.267 415.171C262.48 413.377 260.369 412.072 257.77 411.256C257.283 411.093 256.958 411.093 256.471 410.93C255.496 410.767 254.522 410.604 253.385 410.604C248.999 410.604 245.588 411.093 242.989 412.072C242.502 412.235 242.177 412.398 241.69 412.724C240.878 413.214 240.066 413.703 239.416 414.356C236.655 417.129 235.355 421.533 235.355 429.038V429.69H268.653V429.038C268.978 429.038 269.302 420.718 264.267 415.171ZM236.98 428.711C236.98 427.732 236.98 426.754 237.142 425.938C237.142 425.449 237.142 424.959 237.304 424.633C237.792 420.392 238.766 417.618 240.715 415.661C241.528 414.845 242.665 414.192 243.964 413.54C244.289 413.377 244.776 413.214 245.263 413.051C247.537 412.398 250.299 412.072 253.709 412.072C255.334 412.072 256.796 412.235 258.095 412.724C258.582 412.887 258.907 413.051 259.394 413.214C261.019 413.866 262.481 414.845 263.617 416.15C265.891 418.597 267.028 422.023 267.516 424.633C267.678 425.122 267.678 425.612 267.678 425.938C267.841 427.08 267.841 428.059 267.841 428.711H236.98Z" fill="#2D00AA"/>
<path d="M267.678 424.633H236.817V425.938H267.678V424.633Z" fill="#2D00AA"/>
<path d="M255.171 417.945H247.05C245.913 417.945 244.776 417.129 244.289 415.824L243.314 412.561L244.614 412.235L245.588 415.498C245.751 416.15 246.4 416.639 247.05 416.639H255.171C255.659 416.639 256.146 416.313 256.471 415.661L257.933 412.235L259.232 412.724L257.77 416.15C257.283 417.292 256.308 417.945 255.171 417.945Z" fill="#2D00AA"/>
<path d="M211.479 410.44V427.406H167.461L167.299 426.754C167.299 426.427 166.162 419.576 169.898 414.356C171.847 411.582 174.933 409.951 178.831 409.299C185.166 408.32 190.038 407.504 191.5 407.178C191.825 407.178 191.988 407.015 191.988 407.015L192.15 408.32C192.15 408.32 191.825 408.32 191.5 408.483C189.714 408.809 185.003 409.625 178.831 410.44C177.532 410.604 176.395 410.93 175.258 411.419C175.095 411.419 175.095 411.419 174.933 411.582C173.309 412.398 171.847 413.54 170.872 415.008C169.248 417.292 168.598 419.902 168.436 422.023C168.436 422.512 168.436 423.002 168.436 423.328C168.436 424.307 168.436 425.122 168.436 425.775H209.854V410.604L209.042 409.299L208.555 408.483L209.692 407.667L210.017 408.157L211.479 410.44Z" fill="#2D00AA"/>
<path d="M221.874 347.471L220.575 347.635L217.488 347.961L212.453 374.062L210.179 408.646V409.788H209.367L196.211 409.135H195.886L191.988 408.972V408.32V407.504L186.465 319.902H187.764V320.228L191.175 373.899L191.338 375.204L193.449 407.504L209.367 408.32L211.641 373.899L217.001 346.819L220.412 346.493L221.874 346.33H222.361L222.524 347.308L221.874 347.471Z" fill="#2D00AA"/>
<path d="M243.314 413.703L242.015 413.866C242.015 413.54 242.015 413.214 241.852 413.051C238.117 381.24 227.072 358.564 220.737 347.798C220.412 347.308 220.25 346.982 219.925 346.493C217.651 342.741 216.027 340.62 216.027 340.62L217.164 339.804C217.164 339.967 218.95 342.088 221.549 346.33C221.712 346.656 221.874 346.819 222.036 347.145C228.533 358.075 239.578 380.75 243.314 412.398C243.152 412.887 243.314 413.214 243.314 413.703Z" fill="#2D00AA"/>
<path d="M257.932 318.597H256.633V411.746H257.932V318.597Z" fill="#2D00AA"/>
<path d="M259.719 303.752L258.907 304.078C258.907 304.078 258.745 304.078 258.42 304.241C258.095 304.405 257.608 304.568 256.796 304.731C256.471 304.894 255.983 304.894 255.496 305.057C246.563 307.015 221.387 311.419 186.952 305.383C186.465 305.383 186.14 305.22 185.653 305.22C185.166 305.22 184.841 305.057 184.354 305.057L183.541 304.894V319.576L184.029 319.739C184.029 319.739 184.841 319.902 186.303 320.228C186.627 320.228 187.115 320.392 187.602 320.555C190.688 321.207 195.561 322.023 201.571 322.675C201.733 322.675 202.058 322.675 202.22 322.675C208.717 323.491 216.351 323.98 224.31 323.98C226.584 323.98 229.021 323.98 231.295 323.817C231.782 323.817 232.269 323.817 232.594 323.817C240.715 323.328 248.999 322.186 256.633 319.902C257.12 319.739 257.608 319.576 257.932 319.413C258.42 319.25 258.907 319.086 259.394 318.923L259.882 318.76L259.719 303.752ZM184.678 318.108V306.199C224.96 313.54 253.222 306.852 258.42 305.547L258.582 317.455C229.183 327.243 189.551 319.25 184.678 318.108Z" fill="#2D00AA"/>
<path d="M198.322 226.101C198.322 226.101 198.16 226.101 197.835 226.264C195.886 227.569 187.277 234.095 186.79 257.912C186.79 258.401 186.79 258.891 186.79 259.217C186.79 259.706 186.79 260.033 186.79 260.522V305.873H185.49V260.522C185.49 256.933 185.653 253.834 185.978 250.897C186.303 248.124 186.627 245.677 187.115 243.556C190.363 228.059 197.51 224.796 197.997 224.633V224.796L198.16 225.285L198.322 226.101Z" fill="#2D00AA"/>
<path d="M259.719 304.078H258.257C258.095 304.078 257.445 303.915 256.633 303.915C256.471 303.915 256.471 303.915 256.308 303.915V302.61C256.308 302.61 256.471 302.61 256.633 302.61C257.283 302.61 258.582 302.773 259.232 303.426C259.394 303.589 259.394 303.752 259.557 303.915C259.719 303.915 259.719 303.915 259.719 304.078Z" fill="#2D00AA"/>
<path d="M257.283 377.325L246.075 376.02L245.913 375.693C245.751 375.53 236.98 358.401 230.97 323.165L232.269 323.002C237.792 355.465 245.751 372.431 246.888 374.878L257.445 376.183L257.283 377.325Z" fill="#2D00AA"/>
<path d="M190.363 375.204V373.899L194.749 373.736C195.561 370.31 200.434 349.266 200.434 322.186H201.733C201.733 351.713 195.886 374.225 195.886 374.551L195.723 375.041L190.363 375.204Z" fill="#2D00AA"/>
<path d="M198.322 257.912H186.465V259.217H198.322V257.912Z" fill="#2D00AA"/>
<path d="M256.633 265.579H255.334C255.334 264.927 255.009 264.437 254.522 263.948C249.162 258.728 221.224 259.543 221.062 259.543V258.238C222.199 258.238 249.811 257.423 255.659 263.132C256.308 263.785 256.633 264.6 256.633 265.579Z" fill="#2D00AA"/>
<path d="M209.692 250.245C204.982 250.245 201.083 254.16 201.083 259.054C201.083 263.948 204.982 267.863 209.692 267.863C214.402 267.863 218.301 263.948 218.301 259.054C218.301 254.16 214.402 250.245 209.692 250.245ZM209.692 266.558C205.631 266.558 202.383 263.132 202.383 259.054C202.383 254.976 205.631 251.55 209.692 251.55C213.753 251.55 217.001 254.976 217.001 259.054C217.001 263.132 213.753 266.558 209.692 266.558Z" fill="#2D00AA"/>
<path d="M198.647 256.444H197.348V260.685H198.647V256.444Z" fill="#2D00AA"/>
<path d="M221.712 256.444H220.412V260.685H221.712V256.444Z" fill="#2D00AA"/>
<path d="M209.53 255.302C207.256 255.302 205.469 257.096 205.469 259.38C205.469 261.664 207.256 263.458 209.53 263.458C211.803 263.458 213.59 261.664 213.59 259.38C213.59 257.096 211.803 255.302 209.53 255.302ZM209.53 262.153C208.068 262.153 206.931 260.848 206.931 259.38C206.931 257.912 208.068 256.607 209.53 256.607C210.991 256.607 212.128 257.912 212.128 259.38C212.128 260.848 210.991 262.153 209.53 262.153Z" fill="#2D00AA"/>
<path d="M291.717 308.809C291.717 309.462 291.717 309.788 291.717 310.114V311.093L291.392 311.256C287.981 312.724 284.895 313.377 282.459 313.377C276.287 313.377 273.038 310.114 272.876 309.788L272.713 309.625V309.462V309.299C272.713 308.809 272.713 308.483 272.551 307.993C270.277 281.24 259.882 267.374 256.796 263.785C256.308 263.132 255.983 262.806 255.983 262.806L256.633 262.153L256.958 261.827C257.12 261.99 263.617 268.515 268.653 282.545C268.815 283.034 268.977 283.524 269.14 283.85C271.414 290.538 273.363 298.858 274.013 308.809C274.987 309.788 280.51 314.192 290.418 309.951C290.418 307.341 290.743 294.127 288.631 284.992C288.631 284.829 288.631 284.666 288.469 284.666L289.768 284.339C289.768 284.502 289.768 284.502 289.768 284.666C291.717 292.985 291.717 304.405 291.717 308.809Z" fill="#2D00AA"/>
<path d="M286.357 270.473L285.058 270.636C285.058 270.31 285.058 270.147 284.895 269.821C281.809 250.245 267.678 231.485 265.891 229.201C265.729 229.038 265.729 229.038 265.729 229.038L266.704 228.222C266.704 228.222 266.866 228.385 267.028 228.548C269.14 231.321 283.109 249.918 286.195 269.494C286.195 269.984 286.357 270.31 286.357 270.473Z" fill="#2D00AA"/>
<path d="M244.614 218.923L243.964 198.695L243.314 177.814V175.53C243.314 175.204 239.741 148.777 217.164 151.06C194.586 153.181 194.261 176.672 194.261 176.998C194.261 176.998 194.261 177.814 194.424 179.282C194.749 183.197 195.561 191.354 196.211 200C197.023 209.788 197.835 220.065 197.997 224.796C197.997 225.286 197.997 225.775 197.997 226.101C197.997 226.264 197.997 226.427 197.997 226.591C197.997 227.569 198.16 228.385 198.322 229.201C198.485 229.69 198.647 230.179 198.972 230.669C199.297 231.158 199.622 231.648 199.946 231.974C202.383 234.258 205.794 234.258 205.956 234.258H232.269V233.605C232.269 233.442 233.244 223.165 243.639 219.576L251.111 222.675L253.06 223.491L264.43 228.222C261.343 230.506 252.572 237.847 251.76 249.103C251.273 255.628 252.085 259.217 253.222 261.011C253.385 261.338 253.709 261.664 253.872 261.827C254.522 262.48 255.009 262.806 255.496 262.969V304.405H256.796V261.827H256.471H256.146C256.146 261.827 255.496 261.827 254.846 261.011C253.872 260.033 252.41 257.096 253.06 249.266C254.034 237.847 263.78 230.343 265.891 229.038C266.054 228.874 266.216 228.874 266.216 228.874L267.028 228.385L267.353 228.222L244.614 218.923ZM230.97 233.279H205.956C205.956 233.279 202.87 233.279 200.921 231.321C199.784 230.179 199.297 228.711 199.297 226.754C199.297 219.576 195.723 178.63 195.561 176.835C195.561 176.672 196.048 154.486 217.326 152.365C218.138 152.365 218.95 152.202 219.762 152.202C238.766 152.202 241.852 174.715 242.015 175.693L243.314 218.597C233.406 222.023 231.295 230.832 230.97 233.279Z" fill="#2D00AA"/>
<path d="M216.027 219.739C212.128 219.739 210.504 217.292 210.179 216.15L211.479 215.824C211.479 215.987 212.291 218.434 216.027 218.434H228.208C228.208 218.434 229.183 218.271 229.833 217.455C230.32 216.803 230.482 215.824 230.158 214.682L231.457 214.356C231.782 215.987 231.619 217.292 230.807 218.271C229.833 219.576 228.208 219.739 228.208 219.739H216.027Z" fill="#2D00AA"/>
<path d="M237.467 183.524C237.467 182.708 237.142 181.892 236.655 181.24C236.005 180.424 235.193 179.935 234.218 179.609C233.893 179.609 233.731 179.609 233.406 179.609H233.244L205.307 180.424C205.144 180.424 205.144 180.424 204.982 180.424C204.007 180.424 203.195 180.914 202.545 181.566C202.545 181.566 202.545 181.566 202.383 181.729C201.571 182.545 201.246 183.524 201.246 184.666L201.733 197.716C201.733 198.858 202.22 199.837 203.033 200.489C203.845 201.142 204.819 201.631 205.794 201.631H205.956L233.893 200.653C236.167 200.653 237.954 198.695 237.792 196.411L237.467 183.524ZM233.893 199.184L205.956 200.163C205.307 200.163 204.494 200 204.007 199.511C203.52 199.021 203.195 198.369 203.195 197.716L202.708 184.666C202.708 184.013 202.87 183.361 203.357 182.871L203.52 182.708C203.52 182.708 203.52 182.708 203.682 182.545C204.17 182.056 204.819 181.729 205.469 181.729L233.406 180.914C234.868 180.914 236.167 182.056 236.167 183.524L236.655 196.411C236.492 197.879 235.355 199.021 233.893 199.184Z" fill="#2D00AA"/>
<path d="M250.786 183.034C250.786 181.566 250.136 180.261 249.162 179.282C248.349 178.63 247.375 178.14 246.4 177.977C246.075 177.977 245.751 177.814 245.263 177.977H244.938H243.314H242.177L242.989 198.858H243.964H245.913C248.837 198.695 251.111 196.248 251.111 193.312L250.786 183.034ZM245.913 197.39H244.289L243.639 179.282H245.263C246.4 179.282 247.375 179.608 248.187 180.424C248.999 181.077 249.486 182.219 249.486 183.197L249.811 193.312C249.811 195.432 248.025 197.227 245.913 197.39Z" fill="#2D00AA"/>
<path d="M195.074 179.282H194.261L192.312 179.445H192.15C191.663 179.445 191.338 179.608 190.851 179.772C189.876 180.098 189.064 180.587 188.414 181.403C187.44 182.545 187.115 183.85 187.115 185.318L187.927 195.432C188.089 198.206 190.526 200.326 193.287 200.326C193.449 200.326 193.612 200.326 193.774 200.326L195.886 200.163H196.698L195.074 179.282ZM193.774 198.858C191.5 199.021 189.714 197.39 189.389 195.269L188.577 185.155C188.577 184.176 188.901 183.034 189.551 182.219C190.201 181.403 191.175 180.914 192.312 180.75L193.937 180.587L195.398 198.695L193.774 198.858Z" fill="#2D00AA"/>
<path d="M246.238 177.977V178.303H244.938V177.814C244.938 175.204 244.614 158.564 235.03 149.429C230.158 144.698 223.498 142.741 215.377 143.393C192.312 145.351 192.15 174.062 192.312 179.445C192.312 179.935 192.312 180.261 192.312 180.261L191.013 180.424C191.013 180.424 191.013 180.098 191.013 179.772C190.851 174.715 190.851 144.046 215.377 142.088C223.823 141.436 230.807 143.556 236.005 148.613C246.075 158.238 246.238 175.204 246.238 177.977Z" fill="#2D00AA"/>
<path d="M294.478 308.809V317.292L294.153 317.455C293.991 317.455 293.829 317.618 293.666 317.618C293.179 317.781 292.854 317.945 292.367 318.108C288.956 319.413 285.707 319.902 282.621 319.902C277.911 319.902 274.013 318.76 271.901 317.944C271.251 317.781 270.927 317.618 270.602 317.455C270.439 317.455 270.277 317.292 270.277 317.292L269.952 317.129V307.993H273.201V309.299H271.251V316.15C273.363 316.966 283.271 320.718 293.016 316.15V309.951H291.392V308.646H294.478V308.809Z" fill="#2D00AA"/>
<path d="M298.377 336.052C298.539 337.684 297.564 339.152 296.103 339.804C292.204 341.599 288.631 342.088 286.032 342.088C285.058 342.088 284.246 342.088 283.596 341.925C281.972 341.762 280.672 340.62 280.347 338.989C279.535 335.563 278.236 331.648 277.586 329.69L274.662 333.931C274.013 334.747 273.038 335.4 272.064 335.563C271.089 335.726 269.952 335.4 269.14 334.747C268.165 333.931 267.678 332.463 267.84 331.158L270.439 317.455L271.739 317.781V318.108L269.14 331.484C268.977 332.3 269.302 333.116 269.952 333.768C270.439 334.258 271.089 334.421 271.901 334.258C272.551 334.095 273.201 333.768 273.525 333.279L277.911 326.754L278.398 328.059C278.398 328.059 280.51 334.095 281.647 338.825C281.809 339.804 282.621 340.457 283.758 340.62C286.357 340.946 290.418 340.783 295.453 338.662C296.427 338.173 296.915 337.357 296.915 336.215C296.59 332.953 295.615 326.101 292.204 318.108C292.204 318.108 292.204 317.945 292.042 317.945L293.341 317.455C293.341 317.455 293.341 317.618 293.504 317.618C297.077 325.775 298.052 332.79 298.377 336.052Z" fill="#2D00AA"/>
<path d="M210.504 422.349H167.786V423.654H210.504V422.349Z" fill="#2D00AA"/>
<path d="M188.089 243.883C187.602 246.166 186.79 248.613 185.815 251.06C182.08 259.706 175.745 268.026 173.633 270.473C173.309 270.963 172.984 271.126 172.984 271.289L172.659 271.778L172.496 271.615L172.172 271.452C171.847 271.126 162.913 265.09 158.04 254.649C157.878 254.486 157.878 254.323 157.878 254.16L158.853 253.67L159.177 253.507C163.238 262.48 170.547 268.352 172.659 269.821C174.77 267.21 185.003 253.997 186.952 243.556H187.115L188.089 243.883Z" fill="#2D00AA"/>
<path d="M165.35 291.354L164.7 292.496C150.082 283.197 144.722 267.537 143.422 263.458C143.26 262.806 143.097 262.48 143.097 262.48L144.397 262.153C144.397 262.153 144.559 262.48 144.722 263.132C145.859 267.047 151.219 281.892 164.862 290.865C165.025 291.028 165.187 291.191 165.35 291.354Z" fill="#2D00AA"/>
<path d="M186.79 286.297C186.465 286.786 185.978 287.276 185.49 287.928C183.054 290.538 178.831 293.148 178.506 293.312L177.856 292.17C177.856 292.17 178.181 292.007 178.506 291.68C180.13 290.538 183.866 287.928 185.49 285.808C185.653 285.644 185.653 285.644 185.653 285.481L186.79 286.297Z" fill="#2D00AA"/>
<path d="M155.604 243.883L155.117 244.861C155.117 244.861 155.117 244.861 154.954 245.024C154.792 245.351 154.305 245.84 153.817 246.656C151.381 249.592 146.021 255.139 138.224 256.117C137.9 256.117 137.575 256.117 137.412 256.117H136.763H136.275L139.686 261.827L141.148 263.785H141.473C141.635 263.785 142.285 263.785 143.422 263.458C143.747 263.458 144.234 263.295 144.722 263.132C148.132 262.317 153.33 260.033 157.878 254.649C158.203 254.323 158.365 253.997 158.528 253.67C159.015 253.018 159.502 252.365 159.99 251.713L160.152 251.387L155.604 243.883ZM141.798 262.48L140.823 261.175L138.549 257.423C147.808 256.281 153.817 249.103 155.604 246.493L158.69 251.55C152.356 260.848 143.585 262.153 141.798 262.48Z" fill="#2D00AA"/>
<path d="M154.954 246.493L153.655 246.656C153.33 243.556 153.33 240.946 153.33 238.825C153.33 236.379 153.33 234.584 153.005 233.442C152.68 232.463 151.868 231.811 150.894 231.811H149.594C148.945 231.811 148.457 231.974 147.97 232.463C147.483 232.953 147.32 233.442 147.32 234.095C147.32 237.52 147.158 240.457 147.158 240.457L146.996 241.925L145.859 240.783C143.422 238.336 141.798 232.79 140.823 228.711C140.661 228.059 140.174 227.406 139.362 227.08C138.712 226.754 137.9 226.917 137.25 227.406L127.342 233.605C126.53 234.095 126.205 235.237 126.53 236.215C129.778 245.677 138.062 255.954 138.225 255.954L137.25 256.77C137.25 256.77 136.925 256.444 136.763 256.118C134.814 253.671 128.317 245.025 125.393 236.542C124.906 235.073 125.393 233.279 126.692 232.3L136.6 226.101C137.575 225.449 138.874 225.286 139.849 225.775C140.823 226.264 141.798 227.08 142.123 228.385C143.26 232.79 144.559 236.379 145.859 238.499C145.859 237.357 146.021 235.726 145.859 234.095C145.859 233.116 146.183 232.137 146.996 231.485C147.645 230.832 148.62 230.506 149.594 230.506H150.894C152.518 230.506 153.817 231.648 154.305 233.116C154.63 234.421 154.792 236.215 154.792 238.825C154.792 240.62 154.792 242.741 154.954 245.025C154.954 245.514 154.954 246.003 154.954 246.493Z" fill="#2D00AA"/>
<path d="M180.618 416.803C178.993 416.803 177.369 416.15 176.232 414.845L174.446 412.724L175.42 411.909L177.207 414.029C178.181 415.171 179.643 415.661 181.105 415.498L191.175 414.356C192.8 414.193 194.262 413.051 194.749 411.419L195.561 408.972L196.86 409.462L196.048 411.909C195.236 414.029 193.449 415.334 191.338 415.661L181.267 416.803C181.105 416.803 180.78 416.803 180.618 416.803Z" fill="#2D00AA"/>
<path d="M236.655 258.564C236.655 257.259 236.655 225.122 252.735 222.675L252.897 223.98C238.116 226.264 237.954 258.075 237.954 258.401L236.655 258.564Z" fill="#2D00AA"/>
<path d="M191.338 258.891C191.338 258.075 190.363 238.825 198.485 229.201L199.459 230.016C191.663 239.315 192.637 258.564 192.637 258.728L191.338 258.891Z" fill="#2D00AA"/>
<path d="M203.357 182.708L202.22 181.892L204.494 178.467C205.794 176.509 207.58 175.367 209.53 175.367L229.021 174.551C231.132 174.388 233.244 175.53 234.543 177.651L236.655 180.914L235.518 181.729L233.244 178.467C232.107 176.835 230.482 175.856 228.858 175.856L209.367 176.672C207.905 176.672 206.443 177.651 205.306 179.119L203.357 182.708Z" fill="#2D00AA"/>
<path d="M172.334 287.602L171.035 287.113C173.796 280.098 172.334 270.799 172.334 270.636L173.633 270.473C173.796 270.799 175.258 280.261 172.334 287.602Z" fill="#2D00AA"/>
<path d="M268.653 284.339L267.678 283.36C267.841 283.197 272.388 278.63 281.484 278.63H281.647V279.935H281.484C273.038 279.935 268.653 284.176 268.653 284.339Z" fill="#2D00AA"/>
<path d="M517.327 265.579C488.578 280.914 439.038 292.17 377.641 297.553C373.58 297.879 369.519 298.206 365.459 298.532V458.564C369.519 458.238 373.58 457.912 377.478 457.586C438.875 452.202 488.415 440.783 517.164 425.612C534.057 416.803 542.503 407.015 542.503 397.39L542.665 237.357C542.665 246.982 534.219 256.607 517.327 265.579Z" fill="#00FDB5" stroke="#4603FF" stroke-miterlimit="10" stroke-linecap="round" stroke-linejoin="round"/>
<path d="M438.875 284.666V188.418C461.128 192.659 483.705 197.879 504.658 207.994C515.54 213.866 528.534 220.392 531.458 234.258C532.92 243.067 528.534 250.245 522.037 255.302C495.237 274.878 466.163 281.566 434.327 286.623C411.912 291.028 390.147 293.964 368.545 295.595L365.459 298.695C365.459 298.695 373.58 298.042 377.641 297.716C439.038 292.333 488.578 280.914 517.327 265.742C546.076 250.571 550.462 233.279 529.834 216.966C513.916 204.568 484.354 193.801 445.21 186.134C445.047 186.134 444.885 186.134 444.885 186.134L439.038 188.581" fill="white"/>
<path d="M438.875 284.666V188.418C461.128 192.659 483.705 197.879 504.658 207.994C515.54 213.866 528.534 220.392 531.458 234.258C532.92 243.067 528.534 250.245 522.037 255.302C495.237 274.878 466.163 281.566 434.327 286.623C411.912 291.028 390.147 293.964 368.545 295.595L365.459 298.695C365.459 298.695 373.58 298.042 377.641 297.716C439.038 292.333 488.578 280.914 517.327 265.742C546.076 250.571 550.462 233.279 529.834 216.966C513.916 204.568 484.354 193.801 445.21 186.134C445.047 186.134 444.885 186.134 444.885 186.134L439.038 188.581" stroke="#4603FF" stroke-miterlimit="10" stroke-linecap="round" stroke-linejoin="round"/>
<path d="M423.12 323.002C420.684 323.328 418.085 323.654 415.648 323.98" stroke="#4603FF" stroke-miterlimit="10" stroke-linecap="round" stroke-linejoin="round" stroke-dasharray="4.65 4.65"/>
<path d="M531.458 290.049C522.2 296.411 512.129 301.468 501.572 305.383" stroke="#4603FF" stroke-miterlimit="10" stroke-linecap="round" stroke-linejoin="round" stroke-dasharray="20.72 20.72"/>
<path d="M402.492 344.209C400.705 344.372 398.918 344.698 397.132 344.861" stroke="#4603FF" stroke-miterlimit="10" stroke-linecap="round" stroke-linejoin="round" stroke-dasharray="3.33 3.33"/>
<path d="M424.419 341.272C418.41 342.088 412.237 342.904 406.065 343.719" stroke="#4603FF" stroke-miterlimit="10" stroke-linecap="round" stroke-linejoin="round" stroke-dasharray="11.41 11.41"/>
<path d="M513.591 318.434C504.658 322.186 495.399 324.959 486.304 328.222" stroke="#4603FF" stroke-miterlimit="10" stroke-linecap="round" stroke-linejoin="round" stroke-dasharray="17.85 17.85"/>
<path d="M432.216 358.728C419.222 361.338 405.903 362.48 392.746 363.621" stroke="#4603FF" stroke-miterlimit="10" stroke-linecap="round" stroke-linejoin="round" stroke-dasharray="24.51 24.51"/>
<path d="M541.528 319.086C522.037 338.01 495.075 344.535 469.736 351.55" stroke="#4603FF" stroke-miterlimit="10" stroke-linecap="round" stroke-linejoin="round" stroke-dasharray="49.04 49.04"/>
<path d="M471.198 369.494C455.118 373.409 438.713 376.346 422.145 378.793" stroke="#4603FF" stroke-miterlimit="10" stroke-linecap="round" stroke-linejoin="round" stroke-dasharray="30.75 30.75"/>
<path d="M524.149 350.082C514.403 355.302 504.333 359.706 493.938 363.132" stroke="#4603FF" stroke-miterlimit="10" stroke-linecap="round" stroke-linejoin="round" stroke-dasharray="20.28 20.28"/>
<path d="M530.646 346.493C529.509 347.145 528.534 347.798 527.397 348.45" stroke="#4603FF" stroke-miterlimit="10" stroke-linecap="round" stroke-linejoin="round" stroke-dasharray="2.34 2.34"/>
<path d="M403.466 399.511C392.584 400.816 381.701 401.794 370.656 402.773" stroke="#4603FF" stroke-miterlimit="10" stroke-linecap="round" stroke-linejoin="round" stroke-dasharray="20.31 20.31"/>
<path d="M425.881 415.334C407.527 418.108 389.173 420.065 370.819 421.37" stroke="#4603FF" stroke-miterlimit="10" stroke-linecap="round" stroke-linejoin="round" stroke-dasharray="34.12 34.12"/>
<path d="M483.867 403.099C466 408.32 447.646 411.909 429.292 414.682" stroke="#4603FF" stroke-miterlimit="10" stroke-linecap="round" stroke-linejoin="round" stroke-dasharray="34.38 34.38"/>
<path d="M507.906 395.269C501.247 398.042 494.263 400.326 487.278 402.284" stroke="#4603FF" stroke-miterlimit="10" stroke-linecap="round" stroke-linejoin="round" stroke-dasharray="13.43 13.43"/>
<path d="M539.254 376.998C531.62 384.829 521.225 389.396 511.317 393.638" stroke="#4603FF" stroke-miterlimit="10" stroke-linecap="round" stroke-linejoin="round" stroke-dasharray="20.14 20.14"/>
<path d="M453.331 264.274C451.22 263.785 449.108 263.458 446.834 262.969" stroke="#4603FF" stroke-miterlimit="10" stroke-linecap="round" stroke-linejoin="round" stroke-dasharray="4.09 4.09"/>
<path d="M472.335 268.842C467.137 267.537 461.777 266.232 456.58 265.09" stroke="#4603FF" stroke-miterlimit="10" stroke-linecap="round" stroke-linejoin="round" stroke-dasharray="9.98 9.98"/>
<path d="M480.456 270.799C478.832 270.31 477.208 269.984 475.746 269.657" stroke="#4603FF" stroke-miterlimit="10" stroke-linecap="round" stroke-linejoin="round" stroke-dasharray="2.99 2.99"/>
<path d="M487.928 272.92C486.628 272.431 485.167 272.104 483.867 271.778" stroke="#4603FF" stroke-miterlimit="10" stroke-linecap="round" stroke-linejoin="round" stroke-dasharray="2.61 2.61"/>
<path d="M467.787 242.088C460.803 240.294 453.818 238.825 446.834 237.52" stroke="#4603FF" stroke-miterlimit="10" stroke-linecap="round" stroke-linejoin="round" stroke-dasharray="13.21 13.21"/>
<path d="M494.425 249.755C486.791 247.145 478.994 244.861 471.198 242.904" stroke="#4603FF" stroke-miterlimit="10" stroke-linecap="round" stroke-linejoin="round" stroke-dasharray="14.92 14.92"/>
<path d="M510.18 255.791C506.12 254.16 502.059 252.528 497.998 251.06" stroke="#4603FF" stroke-miterlimit="10" stroke-linecap="round" stroke-linejoin="round" stroke-dasharray="8.05 8.05"/>
<path d="M455.443 225.122C452.519 224.47 449.595 223.817 446.672 223.328" stroke="#4603FF" stroke-miterlimit="10" stroke-linecap="round" stroke-linejoin="round" stroke-dasharray="5.52 5.52"/>
<path d="M497.836 236.868C485.167 232.3 472.335 228.711 459.178 225.938" stroke="#4603FF" stroke-miterlimit="10" stroke-linecap="round" stroke-linejoin="round" stroke-dasharray="24.75 24.75"/>
<path d="M513.429 243.23C509.53 241.272 505.47 239.641 501.409 238.173" stroke="#4603FF" stroke-miterlimit="10" stroke-linecap="round" stroke-linejoin="round" stroke-dasharray="8.04 8.04"/>
<path d="M489.227 260.196C480.294 257.912 471.36 255.791 462.265 253.997" stroke="#4603FF" stroke-miterlimit="10" stroke-linecap="round" stroke-linejoin="round" stroke-dasharray="17.04 17.04"/>
<path d="M497.836 262.48C496.212 261.99 494.425 261.501 492.638 261.011" stroke="#4603FF" stroke-miterlimit="10" stroke-linecap="round" stroke-linejoin="round" stroke-dasharray="3.33 3.33"/>
<path d="M108.988 100.489V4.24146C86.7355 8.4829 64.1583 13.7031 43.2053 23.8173C32.3228 29.6901 19.3287 36.2154 16.405 50.0816C14.9432 58.8907 19.3287 66.0685 25.8258 71.1256C52.6261 90.7015 81.7003 97.3899 113.536 102.447C135.951 106.852 157.716 109.788 179.318 111.419L182.404 114.519C182.404 114.519 174.283 113.866 170.223 113.54C108.825 108.157 59.2855 96.7374 30.5361 81.5661C1.7867 66.0685 -2.5988 48.7765 18.1917 32.6265C34.1095 20.0653 63.5086 9.46169 102.816 1.63135C102.978 1.63135 103.141 1.63135 103.141 1.63135L108.988 4.07833" fill="white"/>
<path d="M30.5361 81.2398C59.2855 96.5742 108.825 107.83 170.223 113.214C174.283 113.54 178.344 113.866 182.404 114.193V274.225C178.344 273.899 174.283 273.573 170.223 273.246C108.825 267.863 59.2855 256.444 30.5361 241.272C13.8062 232.463 5.36009 222.839 5.36009 213.051V53.0179C5.19766 62.8059 13.6438 72.4307 30.5361 81.2398Z" fill="#00FDB5" stroke="#4603FF" stroke-miterlimit="10" stroke-linecap="round" stroke-linejoin="round"/>
<path d="M108.988 100.489V4.24146C86.7355 8.4829 64.1583 13.7031 43.2053 23.8173C32.3228 29.6901 19.3287 36.2154 16.405 50.0816C14.9432 58.8907 19.3287 66.0685 25.8258 71.1256C52.6261 90.7015 81.7003 97.3899 113.536 102.447C135.951 106.852 157.716 109.788 179.318 111.419L182.404 114.519C182.404 114.519 174.283 113.866 170.223 113.54C108.825 108.157 59.2855 96.7374 30.5361 81.5661C1.7867 66.0685 -2.5988 48.7765 18.1917 32.6265C34.1095 20.0653 63.5086 9.46169 102.816 1.63135C102.978 1.63135 103.141 1.63135 103.141 1.63135L108.988 4.07833" stroke="#4603FF" stroke-miterlimit="10" stroke-linecap="round" stroke-linejoin="round"/>
<path d="M124.743 138.662C127.18 138.989 129.778 139.315 132.215 139.641" stroke="#4603FF" stroke-miterlimit="10" stroke-linecap="round" stroke-linejoin="round" stroke-dasharray="4.65 4.65"/>
<path d="M50.3521 122.512C68.2189 128.711 86.8979 132.3 105.577 135.563C110.775 136.542 116.135 137.357 121.332 138.336" stroke="#4603FF" stroke-miterlimit="10" stroke-linecap="round" stroke-linejoin="round" stroke-dasharray="44.83 44.83"/>
<path d="M16.405 105.71C25.6633 112.072 35.7337 117.129 46.2914 121.044" stroke="#4603FF" stroke-miterlimit="10" stroke-linecap="round" stroke-linejoin="round" stroke-dasharray="20.72 20.72"/>
<path d="M145.371 159.869C147.158 160.033 148.945 160.359 150.731 160.522" stroke="#4603FF" stroke-miterlimit="10" stroke-linecap="round" stroke-linejoin="round" stroke-dasharray="3.33 3.33"/>
<path d="M123.606 156.712C129.616 157.528 135.788 158.343 141.96 159.159" stroke="#4603FF" stroke-miterlimit="10" stroke-linecap="round" stroke-linejoin="round" stroke-dasharray="11.41 11.41"/>
<path d="M33.2973 134.095C42.2307 137.847 51.489 140.62 60.5849 143.883" stroke="#4603FF" stroke-miterlimit="10" stroke-linecap="round" stroke-linejoin="round" stroke-dasharray="17.85 17.85"/>
<path d="M158.528 179.608C161.776 179.935 165.187 180.261 168.436 180.424" stroke="#4603FF" stroke-miterlimit="10" stroke-linecap="round" stroke-linejoin="round" stroke-dasharray="6.13 6.13"/>
<path d="M81.8627 168.026C91.9331 170.31 102.004 172.267 112.074 173.899" stroke="#4603FF" stroke-miterlimit="10" stroke-linecap="round" stroke-linejoin="round" stroke-dasharray="18.96 18.96"/>
<path d="M76.6651 185.318C92.7453 189.233 109.15 192.17 125.718 194.617" stroke="#4603FF" stroke-miterlimit="10" stroke-linecap="round" stroke-linejoin="round" stroke-dasharray="30.75 30.75"/>
<path d="M58.3109 180.424C63.0213 181.892 67.8941 183.197 72.9293 184.339" stroke="#4603FF" stroke-miterlimit="10" stroke-linecap="round" stroke-linejoin="round" stroke-dasharray="9.33 9.33"/>
<path d="M23.7142 165.905C33.4597 171.126 43.5301 175.53 53.9254 178.956" stroke="#4603FF" stroke-miterlimit="10" stroke-linecap="round" stroke-linejoin="round" stroke-dasharray="20.28 20.28"/>
<path d="M17.2172 162.153C18.3541 162.806 19.3287 163.458 20.4657 164.111" stroke="#4603FF" stroke-miterlimit="10" stroke-linecap="round" stroke-linejoin="round" stroke-dasharray="2.34 2.34"/>
<path d="M144.559 215.334C155.442 216.639 166.324 217.618 177.369 218.597" stroke="#4603FF" stroke-miterlimit="10" stroke-linecap="round" stroke-linejoin="round" stroke-dasharray="20.31 20.31"/>
<path d="M23.7142 184.829C38.6574 192.985 55.0624 197.879 71.4674 202.447" stroke="#4603FF" stroke-miterlimit="10" stroke-linecap="round" stroke-linejoin="round" stroke-dasharray="31.4 31.4"/>
<path d="M122.144 230.995C140.498 233.768 158.853 235.726 177.207 237.031" stroke="#4603FF" stroke-miterlimit="10" stroke-linecap="round" stroke-linejoin="round" stroke-dasharray="34.12 34.12"/>
<path d="M39.9568 210.93C46.6163 213.703 53.6006 215.987 60.5849 217.945" stroke="#4603FF" stroke-miterlimit="10" stroke-linecap="round" stroke-linejoin="round" stroke-dasharray="13.43 13.43"/>
<path d="M8.771 192.822C16.405 200.652 26.8003 205.22 36.7083 209.462" stroke="#4603FF" stroke-miterlimit="10" stroke-linecap="round" stroke-linejoin="round" stroke-dasharray="20.14 20.14"/>
<path d="M94.6944 80.0979C96.8059 79.6085 98.9175 79.2822 101.191 78.7928" stroke="#4603FF" stroke-miterlimit="10" stroke-linecap="round" stroke-linejoin="round" stroke-dasharray="4.09 4.09"/>
<path d="M75.5281 85.4812C80.7258 84.1762 86.0858 82.8711 91.2835 81.7292" stroke="#4603FF" stroke-miterlimit="10" stroke-linecap="round" stroke-linejoin="round" stroke-dasharray="9.98 9.98"/>
<path d="M67.4068 86.6232C69.0311 86.1338 70.6553 85.8075 72.1172 85.4813" stroke="#4603FF" stroke-miterlimit="10" stroke-linecap="round" stroke-linejoin="round" stroke-dasharray="2.99 2.99"/>
<path d="M59.9352 88.7439C61.2347 88.2545 62.6965 87.9283 63.9959 87.602" stroke="#4603FF" stroke-miterlimit="10" stroke-linecap="round" stroke-linejoin="round" stroke-dasharray="2.61 2.61"/>
<path d="M80.076 57.7488C87.0604 55.9543 94.0447 54.4861 101.029 53.1811" stroke="#4603FF" stroke-miterlimit="10" stroke-linecap="round" stroke-linejoin="round" stroke-dasharray="13.21 13.21"/>
<path d="M53.4382 65.416C61.0722 62.8059 68.8686 60.522 76.6651 58.5645" stroke="#4603FF" stroke-miterlimit="10" stroke-linecap="round" stroke-linejoin="round" stroke-dasharray="14.92 14.92"/>
<path d="M37.6829 71.4519C41.7435 69.8206 45.8042 68.1893 49.7024 66.7211" stroke="#4603FF" stroke-miterlimit="10" stroke-linecap="round" stroke-linejoin="round" stroke-dasharray="7.96 7.96"/>
<path d="M92.258 40.783C95.1817 40.1305 98.1053 39.478 101.029 38.9886" stroke="#4603FF" stroke-miterlimit="10" stroke-linecap="round" stroke-linejoin="round" stroke-dasharray="5.52 5.52"/>
<path d="M50.0272 52.5285C62.6965 47.9608 75.5281 44.3719 88.6846 41.5987" stroke="#4603FF" stroke-miterlimit="10" stroke-linecap="round" stroke-linejoin="round" stroke-dasharray="24.75 24.75"/>
<path d="M34.4343 59.0539C38.3326 57.0963 42.3932 55.465 46.4539 53.9968" stroke="#4603FF" stroke-miterlimit="10" stroke-linecap="round" stroke-linejoin="round" stroke-dasharray="8.04 8.04"/>
<path d="M29.0743 61.664C29.724 61.3377 30.3737 61.0114 31.0234 60.6852" stroke="#4603FF" stroke-miterlimit="10" stroke-linecap="round" stroke-linejoin="round" stroke-dasharray="1.35 1.35"/>
<path d="M58.6358 75.8564C67.5692 73.5726 76.5027 71.4519 85.5985 69.6574" stroke="#4603FF" stroke-miterlimit="10" stroke-linecap="round" stroke-linejoin="round" stroke-dasharray="17.04 17.04"/>
<path d="M50.1897 77.3246C51.814 76.8352 53.6006 76.3458 55.3873 75.8564" stroke="#4603FF" stroke-miterlimit="10" stroke-linecap="round" stroke-linejoin="round" stroke-dasharray="3.33 3.33"/>
</svg>
