<svg width="322" height="516" viewBox="0 0 322 516" fill="none" xmlns="http://www.w3.org/2000/svg">
<path d="M313.149 307.581C313.417 307.479 313.721 307.345 313.991 307.21L314.732 306.872V291.112H309.612C309.712 282.946 309.612 261.819 306.244 246.837L306.413 246.802C308.872 246.093 310.419 243.596 309.916 241.066L306.142 222.236C305.907 220.919 305.1 219.772 303.953 219.064C302.843 218.32 301.461 218.118 300.149 218.422L299.273 218.624C293.512 182.38 267.511 147.824 263.538 142.694L264.143 142.323L222.078 124.776L220.865 87.3162L224.537 87.1807C230.027 86.9785 234.304 82.3555 234.101 76.855L233.429 58.1586C233.327 55.4928 232.216 53.0292 230.262 51.2408C228.837 49.9131 227.083 49.0482 225.199 48.7314C223.351 48.9085 221.412 49.6588 219.561 49.2836C218.847 49.1377 218.321 48.354 218.325 47.6557C218.331 46.5052 218.367 45.3526 218.319 44.2021C218.304 43.8727 218.315 42.839 218.182 42.0949C217.743 41.926 217.37 41.5946 217.233 41.0381C217.179 40.8192 217.135 40.6066 217.083 40.3857C217.069 40.3336 217.054 40.2836 217.048 40.2273C216.478 37.8262 215.995 35.4646 215.4 33.1552C214.279 30.4206 212.81 27.7944 211.504 25.1473C211.241 24.6179 211.283 24.1135 211.479 23.6883C208.905 19.4884 206.08 15.3364 202.635 11.818C198.347 7.43681 193.161 3.77679 187.411 1.59034C181.459 -0.675318 176.029 0.279299 170.052 0C169.881 0.0750354 169.705 0.145919 169.497 0.173015C167.009 0.477325 164.545 0.850307 162.153 1.38806C159.494 2.17593 156.8 3.21816 154.274 4.16444C152.435 5.12531 150.69 6.29879 149.096 7.82243C145.491 11.2699 142.106 15.3446 139.106 19.3278C132.389 28.2528 129.747 37.9074 129.478 48.8918C129.98 49.7297 129.832 51.1011 128.64 51.5909C127.856 51.9119 126.94 51.764 126.125 51.6682C125.592 51.6056 125.054 51.516 124.515 51.5056C124.434 51.5035 124.067 51.541 123.934 51.516C123.495 52.2038 122.79 52.3184 122.168 52.1058C120.527 52.6623 119.039 53.6565 117.872 55.0197C116.154 57.0456 115.313 59.6448 115.548 62.2752L117.063 80.9382C117.468 86.1344 121.846 90.0842 126.965 90.0842C127.236 90.0842 127.504 90.0842 127.775 90.0488L131.85 89.7132C133.331 107.834 134.779 126.799 135.15 135.777L135.05 135.506C134.307 135.81 120.903 141.75 114.908 170.57L114.639 170.501C110.901 189.838 91.9713 214.237 87.9645 219.197C84.2593 216.465 70.4853 205.53 63.0063 189.029L62.4694 189.264C63.3432 188.118 64.2191 186.903 65.0617 185.621L65.5006 184.946L56.6424 170.941L55.598 172.627C55.598 172.627 55.5314 172.729 55.4295 172.865C55.1258 168.409 55.0593 164.494 55.026 161.255C54.924 156.43 54.8907 152.953 54.1501 150.625C53.3075 147.857 50.8153 145.967 47.9194 145.867L45.5602 145.8C43.6753 145.833 41.9903 146.44 40.6775 147.722C39.3648 149.039 38.6575 150.761 38.6575 152.582C38.6908 155.686 38.6221 158.656 38.5222 160.815C36.03 156.834 33.6376 150.388 31.6175 142.121C31.112 139.962 29.562 138.207 27.5087 137.429C25.4533 136.654 23.1296 136.923 21.3779 138.138L2.92282 149.646C0.430531 151.367 -0.613729 154.54 0.361968 157.374C5.68357 172.932 17.7414 188.927 21.3779 193.55L20.5375 193.619L27.0032 204.08L29.766 207.825H30.4379C30.6418 207.825 31.9878 207.759 34.1098 207.352C36.3337 214.845 46.5713 243.867 73.5829 261.011L73.6162 260.942L73.6494 262.597C73.6848 264.892 75.5363 266.816 77.8268 266.949L94.4304 267.929H94.7008C95.8117 267.929 96.8893 267.524 97.6986 266.747C98.6077 265.903 99.1132 264.756 99.1132 263.541L99.1465 262.495C99.5501 262.226 107.364 257.196 112.012 252.471V284.059C111.202 283.924 110.395 283.755 109.586 283.621L108.105 283.317V310.517L109.082 310.72C109.182 310.753 110.63 311.091 113.191 311.597L123.597 473.851C120.599 474.357 111.575 475.908 99.9204 477.663C92.6786 478.778 87.1552 481.915 83.4501 487.011C76.512 496.528 78.5009 509.386 78.6007 509.926L78.7692 511.006H160.511V479.62L158.086 476.146L162.363 412.026L171.86 363.803L177.62 363.194C189.51 383.241 210.122 425.155 216.958 484.243C215.375 485.121 213.961 486.167 212.714 487.382C207.461 492.581 205.238 500.747 205.238 514.718V516H267.174L267.243 514.785C267.276 514.145 268.05 498.552 258.689 488.462C255.454 484.987 251.447 482.59 246.664 481.342V310.246C247.606 309.942 248.516 309.64 249.46 309.336L250.336 309.031L250.099 281.764L249.93 281.798C249.864 281.495 249.695 281.225 249.427 280.954C248.28 279.841 245.857 279.672 244.542 279.572V207.859C250.303 214.574 269.534 240.391 273.776 289.864H269.197V306.872L269.937 307.21C270.004 307.243 270.172 307.31 270.476 307.445L265.693 332.824C265.256 335.252 266.13 337.785 267.984 339.404C269.498 340.719 271.52 341.292 273.474 341.057C275.461 340.788 277.246 339.673 278.356 338.02L283.678 330.089C284.924 333.768 287.317 341.126 288.765 347.402C289.439 350.27 291.796 352.362 294.758 352.733C296.04 352.902 297.554 353.004 299.239 353.004C304.089 353.004 310.488 352.093 317.83 348.785C320.557 347.57 322.242 344.769 321.972 341.834C321.433 335.556 319.581 322.767 313.149 307.581Z" fill="#E2E0E7"/>
</svg>
