<svg width="480" height="566" viewBox="0 0 480 566" fill="none" xmlns="http://www.w3.org/2000/svg">
<path d="M175.301 117.292C171.729 117.292 168.752 120.001 168.752 123.388C168.752 126.776 171.729 129.598 175.301 129.598C178.873 129.598 181.85 126.776 181.85 123.388C181.85 120.001 178.873 117.292 175.301 117.292Z" fill="white"/>
<path d="M345.807 185.825C342.235 185.825 339.377 188.647 339.377 192.034C339.377 195.422 342.354 198.131 345.807 198.131C349.379 198.131 352.356 195.309 352.356 192.034C352.356 188.647 349.379 185.825 345.807 185.825Z" fill="white"/>
<path d="M137.318 191.978C135.175 191.978 133.508 193.671 133.508 195.591C133.508 197.51 135.294 199.203 137.318 199.203C139.462 199.203 141.248 197.51 141.248 195.591C141.129 193.671 139.462 191.978 137.318 191.978Z" fill="white"/>
<path d="M221.024 50.4519C218.881 50.4519 217.095 52.1455 217.095 54.0648C217.095 56.0971 218.881 57.7907 221.024 57.7907C223.167 57.7907 224.834 56.0971 224.834 54.0648C224.834 52.1455 223.167 50.4519 221.024 50.4519Z" fill="white"/>
<path d="M313.063 130.614C310.92 130.614 309.253 132.308 309.253 134.227C309.253 136.146 311.039 137.84 313.063 137.84C315.207 137.84 316.874 136.146 316.874 134.227C316.874 132.195 315.207 130.614 313.063 130.614Z" fill="white"/>
<path d="M271.151 77.8879C269.008 77.8879 267.341 79.5815 267.341 81.5009C267.341 83.5332 269.127 85.1138 271.151 85.1138C273.295 85.1138 274.962 83.4203 274.962 81.5009C275.081 79.4686 273.295 77.8879 271.151 77.8879Z" fill="white"/>
<path d="M113.981 328.761H19.4412V331.584H113.981V328.761Z" fill="#703CFF"/>
<path d="M460.113 328.761H391.172V331.584H460.113V328.761Z" fill="#703CFF"/>
<path d="M409.032 412.198L252.1 557.506C245.432 563.829 234.597 563.829 227.929 557.506L78.4983 417.73V417.617C73.3783 408.472 134.222 345.02 211.378 331.923C295.679 317.584 364.143 369.407 374.026 376.972C390.1 389.73 401.65 402.601 409.032 412.198Z" fill="#32FFDF"/>
<path d="M406.532 413.553C397.006 397.972 383.313 384.085 365.572 372.23L367.239 369.972C385.218 381.939 399.387 396.165 409.032 412.085L406.532 413.553Z" fill="#5E25FF"/>
<path d="M78.3795 417.73L75.76 416.488C86.1189 397.52 103.265 380.359 125.054 366.923L126.602 369.181C105.289 382.278 88.6194 399.101 78.3795 417.73Z" fill="#5E25FF"/>
<path d="M326.519 353.454C321.875 351.648 317.112 350.18 312.23 348.712L313.064 346.002C317.946 347.47 322.828 349.051 327.59 350.744L326.519 353.454Z" fill="#5E25FF"/>
<path d="M342.235 232.308L308.539 205.888C309.492 191.775 306.872 149.323 283.059 126.291C271.628 115.113 256.744 109.919 239.241 110.823C212.927 112.065 193.757 129.791 183.756 162.081C176.969 183.985 176.612 205.662 176.492 209.727L152.917 227.679L152.798 227.904C152.679 228.13 141.248 245.518 132.556 272.615C124.579 297.567 117.316 336.293 128.151 378.406L128.389 379.309L129.341 379.535C129.58 379.535 130.175 379.648 131.127 379.761C131.604 384.616 134.819 410.245 146.964 421.423L147.321 421.761H147.916C148.035 421.761 148.511 421.761 149.345 421.761C151.607 421.761 156.132 421.536 161.728 419.955C159.823 430.003 153.512 466.923 155.655 493.117L203.878 537.15C203.997 536.585 213.165 486.794 234.36 459.81L270.08 541.553L311.278 504.972L305.324 436.778C306.991 437.229 308.658 437.681 310.563 438.02C310.801 438.132 311.278 438.132 311.516 438.132C313.421 438.132 315.207 437.342 316.517 435.874L317.112 435.197L320.565 495.262L323.542 495.036L320.089 431.81L344.974 400.874C345.212 401.1 345.212 401.213 345.212 401.213L346.046 402.68L347.355 401.439C348.427 400.535 372.598 378.406 377.003 331.325L377.242 331.099C377.122 331.099 377.122 330.986 377.122 330.986C377.242 330.309 377.242 329.744 377.361 328.954C381.052 280.179 342.593 232.759 342.235 232.308ZM327.947 355.148C326.638 361.809 324.852 364.406 324.375 365.422C321.399 370.277 319.136 371.067 317.469 374.341C317.469 374.341 316.636 376.035 314.493 377.616C314.254 377.842 313.897 377.954 313.54 377.842C312.707 377.842 312.23 376.825 312.111 376.035C310.92 370.841 311.159 365.648 311.278 360.341C311.516 353.567 311.635 346.567 312.111 339.793C312.468 333.583 313.183 327.486 314.374 321.276C314.969 318.115 315.683 315.067 316.398 312.018C317.707 307.276 317.707 308.292 319.136 303.212C319.97 300.389 319.97 299.599 320.446 299.486C321.994 299.26 324.494 308.631 326.399 315.405C328.9 324.776 330.21 329.406 330.329 333.357C330.567 340.809 329.257 348.035 327.947 355.148Z" fill="white"/>
<path d="M163.157 223.276L177.207 212.437C179.946 215.824 194.829 232.985 228.764 237.163C233.526 237.727 238.051 237.953 242.099 237.953C270.795 237.953 284.726 225.082 291.036 219.211C291.87 218.421 292.465 217.856 293.06 217.404C299.133 212.55 305.086 208.711 307.468 208.485L324.018 221.469L325.923 222.937L339.973 234.001C340.092 234.114 340.092 234.227 340.211 234.227C325.566 239.421 315.802 247.437 311.04 258.05C303.538 274.421 310.802 290.905 311.04 291.583L311.278 292.034L311.635 292.26C313.897 293.502 316.041 295.309 317.827 297.68C316.517 304.002 309.135 341.712 310.563 377.051L313.302 376.938C313.183 377.164 313.064 377.164 313.064 377.164L294.37 378.971C291.513 379.196 289.131 380.777 287.702 382.922C286.274 385.18 285.797 387.89 286.869 390.374C287.702 392.632 289.607 394.439 291.87 395.342C293.775 396.132 295.918 396.132 297.942 395.568L294.251 399.745C292.941 402.116 291.155 404.939 288.774 407.874C286.035 411.261 284.368 412.503 284.13 414.761C283.892 417.471 285.678 419.729 288.655 422.552C296.633 430.342 304.848 438.358 312.707 435.874C314.255 435.423 316.993 434.068 319.494 430.116C320.446 450.552 321.399 470.875 322.47 491.311C319.494 495.94 314.493 503.053 311.516 502.149C309.492 501.472 309.254 497.407 308.897 491.311C306.158 444.907 303.777 445.246 304.967 438.697C305.086 437.907 305.444 435.987 304.61 434.181C302.943 430.907 299.133 431.133 294.489 428.31C289.488 425.261 289.488 420.294 286.154 420.294C284.845 420.294 284.249 420.971 283.059 421.649C280.32 423.229 278.177 423.116 267.699 422.89C255.911 422.665 254.244 422.778 252.22 422.89C247.1 423.116 246.148 423.681 235.67 423.003C211.618 421.31 189.59 416.681 176.374 413.519C178.04 412.39 179.827 411.148 181.374 409.794L182.327 409.003L178.993 404.261L180.303 400.761L181.255 398.051L183.994 390.713L169.11 376.713L169.706 376.487L169.468 375.471C169.349 374.906 160.418 322.293 169.587 298.131L169.706 297.905L168.872 290.115C175.302 256.582 159.823 234.114 155.894 228.921L160.895 225.082L163.157 223.276Z" fill="white"/>
<path d="M191.939 167.892L191.939 167.892L191.944 167.881C193.674 163.67 199.699 153.371 209.999 146.236C220.232 139.148 234.719 135.149 253.602 143.464C268.618 150.116 275.599 163.481 278.538 177.319C281.48 191.169 280.335 205.346 279.211 213.313L279.209 213.323L279.208 213.333C278.778 216.899 276.308 219.957 272.755 221.08L272.745 221.083L272.735 221.087C226.255 236.859 198.161 219.087 188.107 210.556C185.605 208.28 184.44 205.222 184.864 202.08C185.579 197.452 186.677 190.472 187.938 183.847C189.207 177.179 190.619 170.994 191.939 167.892ZM261.896 184.361L261.888 184.363L261.881 184.365C258.358 185.166 256.104 188.771 257.09 192.378C258.057 195.915 261.655 198.182 265.182 197.379C268.693 196.58 270.944 192.996 269.983 189.402C269.253 185.773 265.589 183.583 261.896 184.361ZM242.691 174.249L242.695 174.252C247.52 176.857 252.565 178.183 256.852 178.168C261.1 178.154 264.843 176.806 266.653 173.771C268.472 170.719 267.782 166.908 265.651 163.397C263.504 159.86 259.788 156.415 255.078 153.863L255.076 153.863C250.252 151.257 245.207 149.931 240.92 149.946C236.672 149.961 232.929 151.308 231.119 154.343C229.303 157.39 229.955 161.171 232.075 164.674C234.209 168.199 237.926 171.642 242.691 174.249Z" fill="#32FFDF" stroke="#5E25FF" stroke-width="2"/>
<path d="M247.973 300.183C248.211 299.393 256.189 282.118 248.807 270.037C245.115 263.941 238.448 260.328 228.684 259.199C219.873 258.183 213.443 260.102 209.276 264.731C199.75 275.457 206.299 296.796 206.656 297.699L209.514 296.909C209.395 296.683 203.084 276.021 211.538 266.425C214.991 262.473 220.706 261.005 228.327 261.795C237.019 262.812 242.972 265.973 246.187 271.167C252.855 282.005 245.354 298.715 245.234 298.941L247.973 300.183Z" fill="#5E25FF"/>
<path d="M155.655 493.117C153.036 462.746 162.085 417.81 162.204 417.358L165.062 417.923C164.943 418.374 156.013 462.971 158.632 492.891L155.655 493.117Z" fill="#5E25FF"/>
<path d="M310.563 377.164C309.015 338.664 317.945 297.341 318.065 296.889L320.922 297.454C320.803 297.792 312.111 338.89 313.54 377.051L310.563 377.164Z" fill="#5E25FF"/>
<path d="M311.754 437.681C311.516 437.681 311.04 437.681 310.802 437.568C292.703 434.858 285.916 421.649 283.773 416.116C282.94 414.197 283.535 411.826 284.964 410.358L297.942 396.019C296.037 396.584 293.894 396.471 291.87 395.793C289.488 394.89 287.702 393.084 286.869 390.826C285.916 388.342 286.154 385.519 287.702 383.374C289.131 381.116 291.632 379.648 294.37 379.422L315.564 377.39L315.802 380.213L294.608 382.245C292.703 382.471 291.036 383.487 290.084 384.955C289.131 386.535 288.774 388.342 289.488 390.035C290.084 391.616 291.393 392.858 292.941 393.422C294.608 394.1 296.394 393.987 297.942 393.31L308.777 388.455L287.107 412.503C286.273 413.294 286.154 414.536 286.512 415.665C288.417 420.745 294.727 432.826 311.159 435.31C312.349 435.536 313.54 435.084 314.255 434.068L343.545 397.826L345.927 399.519L316.636 435.423C315.445 436.778 313.659 437.681 311.754 437.681Z" fill="#5E25FF"/>
<path d="M149.345 421.761C148.511 421.761 148.035 421.761 147.916 421.761H147.321L146.963 421.423C133.866 409.229 131.127 380.1 131.008 378.858L133.985 378.632C133.985 378.858 136.605 407.31 148.63 419.052C151.488 419.165 165.538 418.826 178.159 408.664L164.705 389.809L167.086 388.229L181.85 409.116L180.898 409.906C168.039 420.858 153.75 421.761 149.345 421.761Z" fill="#5E25FF"/>
<path d="M178.16 405.052L175.421 404.148L180.065 391.503L165.657 377.39L167.801 375.471L183.399 390.826L178.16 405.052Z" fill="#5E25FF"/>
<path d="M270.318 541.327L234.478 459.81C213.284 486.794 203.997 536.698 203.878 537.15L201.02 536.698C201.377 534.553 210.903 483.181 233.645 456.197L235.193 454.391L272.818 540.311L270.318 541.327Z" fill="#5E25FF"/>
<path d="M319.97 430.342L316.993 430.568L320.565 494.811L323.542 494.585L319.97 430.342Z" fill="#5E25FF"/>
<path d="M305.562 435.31L302.585 435.536L308.658 504.972L311.635 504.746L305.562 435.31Z" fill="#5E25FF"/>
<path d="M242.099 238.179C237.932 238.179 233.526 237.953 228.763 237.389C191.852 232.759 177.445 212.888 176.85 211.985L179.231 210.404C179.35 210.63 193.638 230.163 229.121 234.566C265.555 239.082 281.987 223.953 289.012 217.404C289.845 216.614 290.56 215.937 291.155 215.485C296.156 211.308 303.538 206.34 307.229 205.888L307.587 208.711C305.205 208.937 299.133 212.775 293.06 217.63C292.584 218.082 291.751 218.759 291.036 219.437C284.725 225.308 270.914 238.179 242.099 238.179Z" fill="#5E25FF"/>
<path d="M268.175 343.631L266.865 341.148C267.104 341.035 283.178 332.228 284.964 286.502C286.869 238.856 324.495 221.469 324.971 221.243L326.281 223.727C325.923 223.953 289.846 240.55 287.941 286.502C286.035 334.148 269.009 343.18 268.175 343.631Z" fill="#5E25FF"/>
<path d="M345.605 402.342L344.653 400.874C344.534 400.648 333.817 383.487 313.457 379.648L311.075 379.197L312.742 377.39C312.98 377.164 329.055 359.212 328.102 335.954C327.15 313.486 320.958 297.68 311.313 292.373L310.956 292.147L310.718 291.696C310.48 290.905 303.217 274.534 310.718 258.163C315.6 247.55 325.364 239.647 339.89 234.34C339.771 234.227 339.652 234.114 339.652 234.114L305.241 207.13L305.36 206.34C306.432 193.356 304.169 150.904 280.713 128.097C269.878 117.597 255.947 112.629 239.039 113.42C213.797 114.662 195.936 131.259 186.173 162.533C178.79 186.243 179.029 209.84 179.029 210.179V210.856L155.453 228.808C159.382 234.001 174.861 256.582 168.432 290.002L169.265 297.792L169.146 298.018C159.978 322.18 168.908 374.793 169.027 375.358L169.265 376.374L168.312 376.826C154.739 383.148 129.853 379.535 128.782 379.309L127.829 379.084L127.591 378.18C116.756 336.18 123.9 297.454 131.997 272.389C140.689 245.292 152 227.792 152.238 227.679L152.357 227.453L175.933 209.501C175.933 205.437 176.409 183.646 183.196 161.856C193.198 129.678 212.368 111.952 238.682 110.597C256.423 109.807 271.068 114.887 282.499 126.065C306.194 149.21 308.932 191.549 307.98 205.662L341.557 232.082L341.676 232.195C342.033 232.647 380.611 280.066 376.801 328.615C372.991 377.164 347.987 399.971 346.915 400.987L345.605 402.342ZM316.314 377.39C333.103 381.455 343.105 393.648 346.2 397.939C351.32 392.632 370.729 369.938 373.943 328.615C377.158 287.518 349.296 246.873 341.438 236.598L341.557 236.824C327.388 241.679 317.862 249.356 313.338 259.292C306.908 273.179 312.147 287.744 313.219 290.228C323.578 296.212 330.007 312.809 330.96 335.841C331.793 356.164 320.482 372.309 316.314 377.39ZM130.33 376.826C134.854 377.39 154.62 379.648 166.169 374.793C164.86 367.003 157.834 320.712 166.407 297.454L165.574 289.889V289.663C171.646 258.163 157.834 236.824 153.667 230.953C150.69 235.921 141.879 251.389 134.854 273.405C126.996 298.018 119.852 335.728 130.33 376.826Z" fill="#5E25FF"/>
<path d="M193.043 344.535C172.206 337.873 176.254 296.437 178.874 269.002L179.112 267.308C181.612 241.001 161.014 224.969 160.775 224.743L162.68 222.598C162.919 222.824 184.708 239.759 182.089 267.534L181.85 269.228C179.35 295.76 175.421 335.954 194.115 341.938L193.043 344.535Z" fill="#5E25FF"/>
<path d="M360.096 380.1C351.166 362.487 325.923 362.261 325.566 362.261V359.438C326.876 359.438 352.952 359.664 362.715 378.858L360.096 380.1Z" fill="#5E25FF"/>
<path d="M375.456 333.019C358.072 320.373 329.853 331.664 329.495 331.777L328.305 329.18C329.614 328.728 358.31 317.099 377.123 330.76L375.456 333.019Z" fill="#5E25FF"/>
<path d="M323.78 302.534L321.161 301.293C321.399 301.067 336.401 271.824 366.288 274.647L366.049 277.47C338.068 274.647 323.899 302.309 323.78 302.534Z" fill="#5E25FF"/>
<path d="M144.225 358.196C131.247 358.196 125.055 355.6 124.817 355.487L126.127 353.003L125.531 354.245L126.127 353.003C126.246 353.003 138.391 358.083 165.181 353.68L165.657 356.503C156.965 357.632 149.94 358.196 144.225 358.196Z" fill="#5E25FF"/>
<path d="M164.467 323.986C138.986 323.535 125.889 307.277 125.293 306.599L127.675 304.906C127.794 305.131 140.653 320.825 164.586 321.277L164.467 323.986Z" fill="#5E25FF"/>
<path d="M167.324 299.825C141.724 288.986 136.009 264.937 135.771 263.921L138.629 263.357C138.629 263.582 144.225 286.954 168.634 297.341L167.324 299.825Z" fill="#5E25FF"/>
<path d="M295.442 399.971L262.222 401.551L262.46 404.374L295.68 402.793L295.442 399.971Z" fill="#5E25FF"/>
<path d="M179.35 397.938L178.874 400.761L196.02 403.584L196.496 400.761L179.35 397.938Z" fill="#5E25FF"/>
<path d="M193.541 409.213C184.704 408.995 168.884 405.722 168.229 405.612L168.775 402.994C168.993 402.994 185.031 406.376 193.651 406.594L193.541 409.213Z" fill="#5E25FF"/>
<path d="M287.583 420.294L262.222 421.649L262.46 424.471L287.821 423.116L287.583 420.294Z" fill="#5E25FF"/>
<mask id="mask0_2186_29321" style="mask-type:alpha" maskUnits="userSpaceOnUse" x="1" y="1" width="478" height="565">
<path d="M238.689 565.522L1.00049 340.621L235.2 1L479 340.621L238.689 565.522Z" fill="white"/>
</mask>
<g mask="url(#mask0_2186_29321)">
</g>
<path d="M225.92 266.099L185.556 358.229L236.041 415.924L277.834 348.858L225.92 266.099Z" fill="#5C24F4"/>
<path d="M236.16 417.843L184.365 358.681L225.801 264.067L279.144 349.084L236.16 417.843ZM187.699 358.23L235.684 413.101L275.691 349.084L226.277 270.277L187.699 358.23Z" fill="white"/>
<path d="M227.825 268.809L224.848 269.035L234.017 414.004L236.874 413.778L227.825 268.809Z" fill="white"/>
<path d="M187.937 360.262L186.746 357.665L230.563 340.165L276.643 347.955L276.167 350.778L230.921 343.1L187.937 360.262Z" fill="white"/>
<path d="M239.955 565.07C234.835 565.07 229.715 563.264 225.905 559.538L6.81955 351.794C-0.919889 344.455 -0.919889 332.487 6.70048 325.036L225.667 6.64522L225.905 6.53231C229.715 2.91937 234.716 1 239.955 1C245.194 1 250.314 2.91937 254.005 6.53231L254.243 6.75812L473.21 325.036C480.949 332.374 480.949 344.455 473.091 351.794L254.005 559.538C250.195 563.151 245.075 565.07 239.955 565.07ZM227.929 557.506C234.597 563.828 245.432 563.828 252.1 557.506L471.186 349.762C477.854 343.439 477.854 333.165 471.186 326.842L470.948 326.616L251.981 8.33878C248.766 5.29037 244.48 3.70971 240.074 3.70971C235.55 3.70971 231.263 5.40327 228.167 8.33878L8.96278 326.842L8.84371 326.955C2.17589 333.278 2.17589 343.552 8.84371 349.875L227.929 557.506Z" fill="#5E25FF" stroke="#5E25FF" stroke-linecap="round"/>
</svg>
