<svg width="3014" height="1490" viewBox="0 0 3014 1490" fill="none" xmlns="http://www.w3.org/2000/svg">
<path d="M1437.9 1342.14C1437.21 1339.57 1437.55 1337.51 1437.38 1335.63" stroke="#6F3FF5"/>
<path d="M1414.75 1329.8L1412.18 1341.8" stroke="#6F3FF5"/>
<path d="M1406.34 1311.45L1407.89 1317.96C1411.15 1330.82 1424.01 1338.71 1436.87 1335.63C1449.73 1332.54 1457.62 1319.51 1454.87 1306.65L1454.7 1305.96L1449.73 1284.7" stroke="#6F3FF5"/>
<path d="M1446.3 1284.52C1443.9 1282.98 1441.16 1281.61 1438.41 1280.75C1438.24 1280.75 1438.24 1280.75 1438.07 1280.75C1437.9 1280.75 1437.9 1280.92 1437.9 1280.92C1435.33 1287.61 1415.6 1295.67 1414.4 1293.96C1412.35 1291.04 1405.83 1291.55 1404.97 1295.67C1404.97 1295.67 1402.57 1305.1 1413.03 1312.99L1413.2 1313.16V1313.33V1313.5V1313.68C1413.2 1313.68 1413.2 1313.85 1413.03 1313.85C1412.86 1313.85 1412.86 1313.85 1412.86 1314.02H1412.69C1411.83 1314.02 1409.77 1313.68 1406.69 1311.96C1402.74 1309.73 1401.03 1304.42 1401.37 1294.47C1401.71 1285.21 1402.06 1282.47 1404.8 1277.84C1407.03 1274.06 1411.15 1267.2 1429.15 1266.86C1448.36 1266.52 1449.39 1282.12 1449.56 1284.35C1449.56 1284.52 1449.56 1284.52 1449.56 1284.52L1449.39 1284.7C1448.87 1284.87 1448.36 1285.04 1447.84 1285.04C1447.33 1284.87 1446.81 1284.7 1446.3 1284.52Z" stroke="#6F3FF5"/>
<path d="M1401.89 1275.78C1393.31 1275.78 1405.14 1287.95 1390.4 1296.53C1395.71 1287.27 1392.45 1286.58 1388.17 1279.21C1385.25 1272.86 1391.77 1263.6 1397.77 1263.26C1404.97 1262.92 1407.89 1268.92 1407.89 1268.92" stroke="#6F3FF5"/>
<path d="M1411.15 1270.12L1409.09 1268.41C1406 1270.63 1403.43 1273.55 1401.71 1276.81L1403.43 1278.01" stroke="#6F3FF5"/>
<path d="M1468.76 1367.01V1357.58C1468.42 1355 1467.22 1350.03 1460.7 1348.32C1457.79 1347.63 1445.96 1345.91 1440.3 1343.17L1437.9 1341.97C1437.9 1344.71 1432.24 1346.6 1425.04 1346.6C1417.83 1346.6 1412 1344.37 1412 1341.63L1410.29 1343.17C1403.94 1348.49 1390.57 1349.86 1387.82 1350.89C1383.19 1352.6 1382.51 1357.06 1382.34 1359.46V1369.06" stroke="#6F3FF5"/>
<path d="M1437.9 1342.14L1442.53 1344.37C1442.53 1347.63 1433.61 1351.06 1425.21 1351.06C1416.8 1351.06 1408.92 1347.8 1408.92 1344.54L1412 1341.97" stroke="#6F3FF5"/>
<path d="M1532.38 1272.18C1529.64 1271.15 1525.01 1269.61 1523.3 1268.92C1513.52 1246.8 1530.84 1235.65 1531.7 1210.62C1529.98 1186.95 1572.17 1166.2 1581.6 1192.44C1595.83 1192.95 1607.49 1202.21 1601.32 1218.67C1594.8 1243.54 1612.3 1232.57 1602.86 1259.32C1602.35 1264.29 1606.46 1265.32 1607.15 1269.09L1597.72 1273.89" stroke="#5D5FEF"/>
<path d="M1576.97 1263.09C1575.77 1258.8 1574.05 1255.54 1573.71 1252.46C1594.46 1245.94 1591.72 1219.19 1582.63 1203.93C1571.31 1197.24 1561.54 1198.1 1548.68 1207.19C1547.48 1208.04 1547.3 1209.93 1548.33 1210.96C1552.96 1215.76 1553.13 1222.79 1551.42 1228.45C1551.59 1223.65 1547.3 1217.3 1542.5 1221.25C1536.67 1225.88 1545.76 1237.02 1545.76 1237.02C1549.7 1246.63 1558.79 1253.83 1553.13 1264.98" stroke="#5D5FEF"/>
<path d="M1524.5 1289.5C1525.87 1285.72 1528.44 1279.04 1531.7 1273.03C1533.58 1269.6 1535.64 1266.35 1538.04 1264.12C1540.27 1261.89 1542.5 1260.86 1544.56 1261.03C1546.96 1261.37 1549.19 1262.4 1551.59 1263.95C1553.48 1265.15 1555.36 1266.69 1557.25 1268.06C1557.59 1268.4 1558.11 1268.75 1558.45 1269.09C1560.68 1270.81 1563.08 1272.69 1565.31 1273.72C1567.71 1274.92 1570.28 1275.44 1573.03 1274.58C1574.91 1274.06 1576.11 1272.86 1576.8 1271.32C1577.48 1269.95 1577.48 1268.23 1577.48 1266.86C1577.48 1265.49 1577.14 1264.12 1576.8 1263.09C1576.63 1262.57 1576.63 1262.23 1576.46 1262.06C1577.48 1260.69 1578.68 1260 1579.71 1259.66C1580.91 1259.32 1582.29 1259.32 1583.66 1260C1586.57 1261.2 1589.83 1264.12 1593.09 1267.89C1598.92 1274.75 1604.24 1284.18 1607.32 1289.67" stroke="#5D5FEF"/>
<path d="M1402.74 1166.54C1379.08 1176.66 1402.92 1202.04 1422.46 1202.04C1430.18 1202.56 1444.41 1202.04 1451.44 1195.35C1458.65 1189.35 1455.56 1175.98 1449.39 1172.55" stroke="#6F3FF5" stroke-miterlimit="10"/>
<path d="M1402.57 1155.91L1403.09 1176.15C1412.86 1175.12 1416.63 1187.46 1416.29 1187.64L1416.46 1188.15C1454.02 1187.98 1449.39 1189.35 1448.53 1154.54" stroke="#6F3FF5" stroke-miterlimit="10"/>
<path d="M1395.2 1150.77C1395.2 1152.83 1396.57 1154.71 1398.46 1155.23L1402.06 1155.74C1403.43 1155.91 1404.63 1155.23 1405.32 1154.03C1406 1152.31 1406.69 1149.57 1406.69 1144.94C1406.52 1139.45 1405.32 1137.56 1404.63 1136.88C1404.12 1136.36 1403.6 1136.36 1403.6 1136.36L1399.66 1136.54C1397.08 1136.54 1394.86 1138.76 1395.03 1141.51L1395.2 1150.77Z" stroke="#6F3FF5" stroke-miterlimit="10"/>
<path d="M1451.44 1127.1C1451.44 1127.1 1454.19 1100.18 1424.01 1100.69C1396.74 1101.04 1397.94 1130.7 1398.46 1136.36" stroke="#6F3FF5" stroke-miterlimit="10"/>
<path d="M1448.19 1126.07C1445.1 1117.84 1438.93 1110.3 1426.75 1110.64C1400.51 1111.5 1402.06 1136.53 1402.06 1136.53" stroke="#6F3FF5" stroke-miterlimit="10"/>
<path d="M1419.38 1112.01C1419.38 1112.01 1419.03 1116.81 1426.58 1116.81C1432.07 1116.81 1433.1 1116.3 1434.81 1112.01" stroke="#6F3FF5" stroke-miterlimit="10"/>
<path d="M1455.22 1150.77V1129.5C1455.22 1127.62 1453.67 1126.07 1451.79 1126.07H1418.35C1416.46 1126.07 1414.92 1127.62 1414.92 1129.5V1150.77C1414.92 1152.65 1416.46 1154.2 1418.35 1154.2H1451.79C1453.67 1154.2 1455.22 1152.83 1455.22 1150.77Z" stroke="#6F3FF5" stroke-miterlimit="10"/>
<path d="M1425.55 1131.91C1420.92 1131.91 1420.75 1135.16 1420.75 1135.16V1153.68" stroke="#6F3FF5" stroke-miterlimit="10"/>
<path d="M1403.09 1176.32L1393.31 1181.81" stroke="#6F3FF5" stroke-miterlimit="10"/>
<path d="M1411.83 1199.47C1414.58 1185.24 1396.91 1179.75 1396.91 1179.75" stroke="#6F3FF5" stroke-miterlimit="10"/>
<path d="M1701.98 1347.63C1701.3 1351.57 1700.44 1355.35 1699.41 1359.29" stroke="#5D5FEF"/>
<path d="M1729.93 1358.26L1726.67 1344.37" stroke="#5D5FEF"/>
<path d="M1677.63 1370.44C1682.09 1368.04 1687.06 1366.49 1693.24 1365.63" stroke="#5D5FEF"/>
<path d="M1736.28 1363.75C1743.14 1365.29 1749.48 1368.72 1754.8 1373.01" stroke="#5D5FEF"/>
<path d="M1734.39 1365.98C1723.42 1369.58 1706.27 1370.27 1694.61 1367.18C1692.38 1366.66 1691.52 1363.92 1692.89 1362.03L1694.09 1360.32C1694.95 1359.12 1696.49 1358.6 1698.04 1358.95C1708.15 1361.35 1719.13 1361.69 1730.96 1358.09C1732.68 1357.58 1734.73 1358.26 1735.42 1359.98L1736.11 1361.35C1737.14 1363.23 1736.28 1365.46 1734.39 1365.98Z" stroke="#5D5FEF"/>
<path d="M1692.03 1291.73C1691.18 1293.61 1690.49 1295.67 1690.15 1297.73L1687.23 1321.05C1685 1334.08 1693.75 1346.6 1706.78 1349L1707.64 1349.17C1720.67 1351.4 1733.19 1342.66 1735.59 1329.62L1736.45 1322.42" stroke="#5D5FEF"/>
<path d="M1672.49 1266.69C1676.6 1268.58 1683.63 1267.03 1687.58 1268.4C1690.66 1268.58 1688.09 1264.46 1689.98 1262.75C1698.72 1273.72 1707.3 1263.95 1719.64 1266.35C1731.13 1268.23 1736.28 1277.66 1737.14 1286.07C1737.14 1286.58 1737.48 1287.1 1737.99 1287.27C1748.97 1294.13 1747.25 1305.27 1736.11 1324.14C1739.19 1317.62 1739.71 1308.02 1733.19 1303.73C1727.02 1300.13 1721.87 1305.1 1721.02 1311.45C1713.3 1309.9 1712.1 1297.04 1719.3 1292.76C1719.47 1291.9 1718.79 1291.04 1717.93 1291.04C1706.95 1292.58 1692.21 1292.93 1680.72 1288.47C1675.23 1285.04 1671.46 1276.64 1672.49 1266.69Z" stroke="#5D5FEF"/>
<path d="M1528.95 989.574L1476.65 1080.29H1371.88L1319.57 989.574" stroke="#6F3FF5" stroke-miterlimit="10" stroke-linecap="round" stroke-linejoin="round"/>
<path fill-rule="evenodd" clip-rule="evenodd" d="M1476.65 1062.28H1371.88L1319.57 1152.83L1371.88 1243.54H1476.65L1528.95 1152.83L1476.65 1062.28Z" stroke="#6F3FF5" stroke-miterlimit="10" stroke-linecap="round" stroke-linejoin="round"/>
<path fill-rule="evenodd" clip-rule="evenodd" d="M1476.65 1225.53H1371.88L1319.57 1316.08L1371.88 1406.79H1476.65L1528.95 1316.08L1476.65 1225.53Z" stroke="#6F3FF5" stroke-miterlimit="10" stroke-linecap="round" stroke-linejoin="round"/>
<path d="M1038 1152.83L1090.47 1243.54H1195.08L1247.38 1152.83L1195.08 1062.28" stroke="#6F3FF5" stroke-miterlimit="10" stroke-linecap="round" stroke-linejoin="round"/>
<path d="M1195.08 1406.79L1247.38 1316.08L1195.08 1225.53H1090.47L1038 1316.08" stroke="#6F3FF5" stroke-miterlimit="10" stroke-linecap="round" stroke-linejoin="round"/>
<path d="M1528.95 1479.33L1476.65 1388.79H1371.88L1319.57 1479.33" stroke="#6F3FF5" stroke-miterlimit="10" stroke-linecap="round" stroke-linejoin="round"/>
<path d="M1178.79 1071.71L1231.09 1162.26H1335.69L1388.17 1071.71L1335.69 981" stroke="#6F3FF5" stroke-miterlimit="10" stroke-linecap="round" stroke-linejoin="round"/>
<path fill-rule="evenodd" clip-rule="evenodd" d="M1335.69 1144.25H1231.09L1178.79 1234.97L1231.09 1325.51H1335.69L1388.17 1234.97L1335.69 1144.25Z" stroke="#6F3FF5" stroke-miterlimit="10" stroke-linecap="round" stroke-linejoin="round"/>
<path d="M1054.98 1325.51L1107.45 1234.97L1054.98 1144.25" stroke="#6F3FF5" stroke-miterlimit="10" stroke-linecap="round" stroke-linejoin="round"/>
<path d="M1335.69 1488.76L1388.17 1398.22L1335.69 1307.5H1231.09L1178.79 1398.22" stroke="#6F3FF5" stroke-miterlimit="10" stroke-linecap="round" stroke-linejoin="round"/>
<path d="M1654.65 1062.28L1602.35 1152.83L1654.65 1243.54H1759.26L1811.73 1152.83" stroke="#5D5FEF" stroke-miterlimit="10" stroke-linecap="round" stroke-linejoin="round"/>
<path d="M1811.73 1316.08L1759.26 1225.53H1654.65L1602.35 1316.08L1654.65 1406.79" stroke="#5D5FEF" stroke-miterlimit="10" stroke-linecap="round" stroke-linejoin="round"/>
<path d="M1514.04 981L1461.56 1071.71L1514.04 1162.26H1618.64L1670.94 1071.71" stroke="#5D5FEF" stroke-miterlimit="10" stroke-linecap="round" stroke-linejoin="round"/>
<path fill-rule="evenodd" clip-rule="evenodd" d="M1461.56 1234.97L1514.04 1325.51H1618.64L1670.94 1234.97L1618.64 1144.25H1514.04L1461.56 1234.97Z" stroke="#5D5FEF" stroke-miterlimit="10" stroke-linecap="round" stroke-linejoin="round"/>
<path d="M1794.75 1144.25L1742.28 1234.97L1794.75 1325.51" stroke="#5D5FEF" stroke-miterlimit="10" stroke-linecap="round" stroke-linejoin="round"/>
<path d="M1670.94 1398.22L1618.64 1307.5H1514.04L1461.56 1398.22L1514.04 1488.76" stroke="#5D5FEF" stroke-miterlimit="10" stroke-linecap="round" stroke-linejoin="round"/>
<path d="M1738.34 1234.97L1741.76 1228.96H1671.46L1674.89 1234.97L1671.97 1240.28H1741.42L1738.34 1234.97Z" fill="#5BF1CD"/>
<path d="M1251.32 1153L1247.89 1159H1319.06L1315.63 1153L1318.55 1147.68H1248.41L1251.32 1153Z" fill="#FFE48D"/>
<path d="M1481.8 1227.76L1517.64 1165.86H1511.98L1508.72 1160.2L1473.05 1222.1H1478.54L1481.8 1227.76Z" fill="#5BF1CD"/>
<path d="M1247.89 1322.25H1319.06L1315.63 1316.25L1318.55 1310.93H1248.41L1251.32 1316.25L1247.89 1322.25Z" fill="#FFE48D"/>
<path d="M1620.7 1165.86H1613.67L1649.34 1227.76L1652.59 1222.1H1659.62L1623.96 1160.2L1620.7 1165.86Z" fill="#FFE48D"/>
<path d="M1337.75 1165.86H1330.89L1366.73 1227.76L1369.99 1222.1H1376.68L1341.01 1160.2L1337.75 1165.86Z" fill="#5BF1CD"/>
<path d="M1341.01 1309.73L1377.19 1247.14H1369.99L1366.73 1241.48L1330.55 1304.07H1337.75L1341.01 1309.73Z" fill="#5BF1CD"/>
<path d="M1457.62 1234.97L1461.05 1228.96H1388.68L1392.11 1234.97L1389.02 1240.28H1460.7L1457.62 1234.97Z" fill="#5BF1CD"/>
<path d="M1381.14 1240.28L1384.05 1234.97L1380.62 1228.96H1373.93L1370.68 1234.62L1373.93 1240.28H1381.14Z" fill="#6F3FF5"/>
<path d="M1468.59 1240.28H1474.59L1477.85 1234.62L1474.59 1228.96H1469.11L1465.68 1234.97L1468.59 1240.28Z" fill="#6F3FF5"/>
<path d="M1616.75 1310.93H1609.21L1606.29 1316.25L1609.72 1322.25H1616.75L1620.01 1316.59L1616.75 1310.93Z" fill="#5D5FEF"/>
<path d="M1380.62 1392.22H1373.93L1370.68 1397.87L1373.93 1403.53H1381.14L1384.05 1398.22L1380.62 1392.22Z" fill="#6F3FF5"/>
<path d="M1474.59 1392.22H1469.11L1465.68 1398.22L1468.59 1403.53H1474.59L1477.85 1397.87L1474.59 1392.22Z" fill="#6F3FF5"/>
<path d="M1609.72 1159H1616.75L1620.01 1153.34L1616.75 1147.68H1609.21L1606.29 1153L1609.72 1159Z" fill="#5D5FEF"/>
<path d="M1757.37 1228.96H1749.82L1746.39 1234.97L1749.31 1240.28H1757.37L1760.63 1234.62L1757.37 1228.96Z" fill="#5D5FEF"/>
<path d="M1240.52 1310.93H1232.98L1229.72 1316.59L1232.98 1322.25H1240.01L1243.44 1316.25L1240.52 1310.93Z" fill="#6F3FF5"/>
<path d="M1468.59 1077.03H1474.59L1477.85 1071.37L1474.59 1065.71H1469.11L1465.68 1071.71L1468.59 1077.03Z" fill="#6F3FF5"/>
<path d="M1373.93 1077.03H1381.14L1384.05 1071.71L1380.62 1065.71H1373.93L1370.68 1071.37L1373.93 1077.03Z" fill="#6F3FF5"/>
<path d="M1232.98 1159H1240.01L1243.44 1153L1240.52 1147.68H1232.98L1229.89 1153.34L1232.98 1159Z" fill="#6F3FF5"/>
<path d="M1663.57 1228.96H1656.54L1653.45 1234.62L1656.54 1240.28H1664.08L1667 1234.97L1663.57 1228.96Z" fill="#5D5FEF"/>
<path d="M1369.99 1385.36H1376.68L1341.01 1323.45L1337.75 1329.11H1330.89L1366.73 1391.01L1369.99 1385.36Z" fill="#FFE48D"/>
<path d="M1190.1 1222.1H1197.14L1200.39 1227.76L1236.06 1165.86H1229.03L1225.77 1160.2L1190.1 1222.1Z" fill="#FFE48D"/>
<path d="M1178.27 1228.96H1107.96L1111.39 1234.97L1108.31 1240.28H1177.76L1174.84 1234.97L1178.27 1228.96Z" fill="#5BF1CD"/>
<path d="M1186.16 1228.96L1182.73 1234.97L1185.65 1240.28H1193.19L1196.28 1234.62L1193.19 1228.96H1186.16Z" fill="#6F3FF5"/>
<path d="M1389.02 1403.53H1460.7L1457.62 1398.22L1461.05 1392.22H1388.68L1392.11 1398.22L1389.02 1403.53Z" fill="#FFE48D"/>
<path d="M1481.8 1391.01L1517.64 1329.11H1511.98L1508.72 1323.45L1473.05 1385.36H1478.54L1481.8 1391.01Z" fill="#FFE48D"/>
<path d="M1529.47 1322.25H1601.83L1598.41 1316.25L1601.32 1310.93H1529.81L1532.9 1316.25L1529.47 1322.25Z" fill="#FFE48D"/>
<path d="M1099.91 1228.96H1092.36L1089.1 1234.62L1092.36 1240.28H1100.42L1103.33 1234.97L1099.91 1228.96Z" fill="#6F3FF5"/>
<path d="M1521.92 1310.93H1515.92L1512.66 1316.59L1515.92 1322.25H1521.58L1525.01 1316.25L1521.92 1310.93Z" fill="#5D5FEF"/>
<path d="M1461.05 1065.71H1388.68L1392.11 1071.71L1389.02 1077.03H1460.7L1457.62 1071.71L1461.05 1065.71Z" fill="#FFE48D"/>
<path d="M1326.61 1147.68L1323.52 1153L1326.95 1159H1333.81L1337.07 1153.34L1333.81 1147.68H1326.61Z" fill="#6F3FF5"/>
<path d="M1229.03 1304.07H1236.41L1200.39 1241.48L1197.14 1247.14H1189.59L1225.77 1309.73L1229.03 1304.07Z" fill="#FFE48D"/>
<path d="M1366.73 1078.23L1330.55 1140.82H1337.75L1341.01 1146.48L1377.19 1083.89H1369.99L1366.73 1078.23Z" fill="#FFE48D"/>
<path d="M1333.81 1322.25L1337.07 1316.59L1333.81 1310.93H1326.61L1323.52 1316.25L1326.95 1322.25H1333.81Z" fill="#6F3FF5"/>
<path d="M1515.92 1147.68L1512.66 1153.34L1515.92 1159H1521.58L1525.01 1153L1521.92 1147.68H1515.92Z" fill="#6F3FF5"/>
<path d="M1478.54 1083.89H1472.54L1508.72 1146.48L1511.98 1140.82H1517.98L1481.8 1078.23L1478.54 1083.89Z" fill="#FFE48D"/>
<path d="M1517.98 1304.07L1481.8 1241.48L1478.54 1247.14H1472.54L1508.72 1309.73L1511.98 1304.07H1517.98Z" fill="#5BF1CD"/>
<path d="M1623.96 1309.73L1660.14 1247.14H1652.59L1649.34 1241.48L1613.32 1304.07H1620.7L1623.96 1309.73Z" fill="#FFE48D"/>
<path d="M1601.32 1147.68H1529.81L1532.9 1153L1529.47 1159H1601.83L1598.41 1153L1601.32 1147.68Z" fill="#FFE48D"/>
<path d="M1252.87 1227.76C1253.73 1229.48 1254.75 1231.19 1255.78 1232.56C1254.58 1236.34 1254.41 1240.62 1255.1 1244.74C1257.67 1258.8 1271.22 1268.23 1285.28 1265.66C1299.17 1263.09 1308.6 1249.88 1306.2 1235.82L1302.94 1212.16" stroke="#6F3FF5" stroke-miterlimit="10"/>
<path d="M1259.21 1218.85C1257.15 1219.19 1255.61 1220.05 1254.58 1222.1C1253.73 1223.82 1253.55 1226.05 1253.9 1229.14C1252.87 1228.28 1251.67 1226.91 1250.81 1225.53C1249.61 1223.48 1249.1 1221.42 1249.95 1219.87L1250.3 1219.36L1249.78 1219.02C1247.72 1217.3 1246.69 1215.24 1246.69 1213.19C1246.69 1211.13 1247.72 1208.9 1250.12 1206.67L1250.47 1206.33L1250.3 1205.81C1249.78 1203.24 1249.78 1201.7 1250.3 1200.67C1250.81 1199.64 1252.18 1198.95 1254.75 1198.78H1255.61L1255.44 1197.93C1255.1 1195.52 1256.3 1192.95 1258.36 1191.24C1260.41 1189.52 1262.99 1188.84 1264.87 1189.87L1265.73 1190.38L1265.9 1189.35C1266.24 1186.78 1268.82 1185.24 1271.9 1184.89C1273.45 1184.72 1274.99 1184.72 1276.36 1185.06C1277.73 1185.41 1278.76 1185.92 1279.45 1186.78L1280.3 1187.81L1280.82 1186.61C1281.16 1185.75 1281.85 1185.06 1283.05 1184.55C1284.08 1184.04 1285.45 1184.04 1286.82 1184.21C1289.56 1184.55 1291.79 1186.09 1291.97 1188.84L1292.14 1190.38L1293.34 1189.35C1295.05 1187.81 1297.62 1187.81 1299.85 1189.01C1302.08 1190.21 1303.28 1192.27 1302.77 1194.5L1302.6 1195.01L1303.11 1195.35C1307.74 1197.93 1308.94 1201.87 1308.43 1205.3C1307.91 1208.56 1305.68 1211.3 1303.11 1212.33C1302.94 1211.82 1302.94 1211.3 1302.77 1210.79V1210.61C1302.6 1209.76 1302.43 1208.9 1301.91 1207.87L1301.57 1207.36L1301.05 1207.53C1297.62 1208.56 1292.82 1208.39 1289.39 1206.84L1288.54 1206.5L1288.36 1207.36C1288.36 1207.36 1288.36 1207.53 1288.19 1207.7C1288.02 1207.87 1287.68 1208.04 1287.34 1208.21C1286.65 1208.56 1285.62 1208.9 1284.59 1209.24C1282.36 1209.76 1279.96 1209.76 1278.59 1209.24L1277.73 1208.9L1277.56 1209.76C1277.56 1209.76 1277.56 1209.76 1277.56 1209.93C1277.56 1210.1 1277.56 1210.27 1277.39 1210.44C1277.22 1210.79 1276.88 1211.47 1276.36 1211.99C1275.33 1213.19 1273.45 1214.56 1269.84 1215.07L1268.99 1215.24L1269.33 1216.1C1269.84 1217.65 1270.7 1220.05 1271.04 1222.28C1271.22 1223.3 1271.22 1224.33 1271.04 1225.19C1270.87 1226.05 1270.53 1226.56 1269.84 1226.91C1268.99 1227.42 1268.47 1227.42 1268.3 1227.42C1268.13 1227.42 1267.96 1227.25 1267.79 1226.91C1267.62 1226.56 1267.44 1225.88 1267.44 1225.19C1267.44 1225.19 1267.44 1225.19 1267.44 1225.02C1267.27 1224.33 1267.27 1223.65 1266.93 1223.13C1265.9 1220.39 1263.16 1218.5 1259.21 1218.85Z" stroke="#6F3FF5" stroke-miterlimit="10"/>
<path d="M1274.99 1265.49C1273.62 1270.63 1271.22 1275.43 1267.96 1279.55C1267.96 1279.55 1282.36 1292.24 1301.05 1279.04C1301.05 1279.04 1291.79 1269.78 1291.11 1263.43" stroke="#6F3FF5" stroke-miterlimit="10"/>
<path d="M1267.96 1279.55L1247.72 1289.5" stroke="#6F3FF5" stroke-miterlimit="10"/>
<path d="M1321.29 1289.5L1301.05 1279.55" stroke="#6F3FF5" stroke-miterlimit="10"/>
<path d="M1146.38 1187.29H1120.65C1120.65 1187.29 1117.57 1187.29 1115.51 1185.41C1114.31 1184.21 1113.8 1182.66 1113.8 1180.78C1113.8 1173.4 1110.02 1131.56 1109.85 1129.85C1109.85 1129.68 1110.19 1107.04 1132.14 1104.81C1133 1104.81 1133.86 1104.64 1134.72 1104.64C1154.27 1104.64 1157.35 1127.62 1157.52 1128.48L1158.9 1172.38C1148.95 1175.8 1146.72 1184.72 1146.38 1187.29Z" stroke="#6F3FF5" stroke-miterlimit="10"/>
<path d="M1146.89 1164.14C1147.23 1165.86 1147.06 1167.23 1146.38 1168.26C1145.35 1169.63 1143.8 1169.8 1143.63 1169.8H1131.11C1127.17 1169.8 1125.46 1167.4 1125.11 1166.03" stroke="#6F3FF5" stroke-miterlimit="10"/>
<path d="M1147.75 1149.22L1122.37 1150.08C1121.68 1150.08 1121.17 1149.91 1120.65 1149.4C1120.14 1148.88 1119.97 1148.37 1119.8 1147.68L1119.28 1135.85C1119.28 1135.33 1119.45 1134.65 1119.8 1134.31C1119.8 1134.31 1119.8 1134.13 1119.97 1134.13C1119.97 1134.13 1119.97 1134.13 1120.14 1134.13C1120.65 1133.62 1121.17 1133.45 1121.68 1133.45L1147.06 1132.76C1148.43 1132.76 1149.46 1133.79 1149.64 1135.16L1150.15 1146.82C1150.15 1148.02 1149.12 1149.22 1147.75 1149.22Z" stroke="#6F3FF5" stroke-miterlimit="10"/>
<path d="M1157.87 1131.05H1160.27C1161.47 1131.05 1162.67 1131.39 1163.53 1132.25C1164.38 1133.11 1164.9 1134.13 1165.07 1135.51L1165.41 1147.17C1165.58 1149.74 1163.53 1151.8 1160.95 1151.97H1158.55" stroke="#6F3FF5" stroke-miterlimit="10"/>
<path d="M1111.22 1152.48L1109.34 1152.65C1106.76 1152.83 1104.54 1150.94 1104.36 1148.37L1103.51 1136.88C1103.33 1135.68 1103.85 1134.48 1104.54 1133.45C1105.39 1132.42 1106.42 1131.91 1107.62 1131.91L1109.51 1131.73" stroke="#6F3FF5" stroke-miterlimit="10"/>
<path d="M1106.25 1132.59C1106.08 1127.79 1106.08 1099.49 1130.43 1097.61C1138.83 1096.92 1145.69 1098.98 1150.84 1103.61C1160.95 1112.53 1161.12 1128.3 1161.12 1130.88" stroke="#6F3FF5" stroke-miterlimit="10"/>
<path d="M1149.29 1133.79L1147.41 1130.7C1146.38 1129.16 1144.83 1128.3 1143.46 1128.48L1125.8 1129.33C1124.43 1129.33 1123.06 1130.19 1122.2 1131.56L1120.14 1134.65" stroke="#6F3FF5" stroke-miterlimit="10"/>
<path d="M1114.14 1178.55C1114.14 1178.55 1104.36 1177.35 1101.45 1201.53" stroke="#6F3FF5" stroke-miterlimit="10"/>
<path d="M1159.07 1172.38C1159.07 1172.38 1175.36 1168.77 1189.76 1192.61" stroke="#6F3FF5" stroke-miterlimit="10"/>
<path d="M1173.64 1175.8C1173.64 1175.8 1158.89 1174.95 1154.26 1197.24" stroke="#6F3FF5" stroke-miterlimit="10"/>
<path d="M1113.62 1182.15C1113.62 1182.15 1109.68 1189.52 1108.14 1201.7" stroke="#6F3FF5" stroke-miterlimit="10"/>
<path d="M400.898 371.143C400.212 368.571 400.555 366.513 400.383 364.626" stroke="#6F3FF5"/>
<path d="M377.747 358.795L375.175 370.799" stroke="#6F3FF5"/>
<path d="M369.344 340.447L370.888 346.963C374.146 359.824 387.007 367.712 399.868 364.626C412.73 361.539 420.618 348.506 417.874 335.645L417.703 334.959L412.73 313.695" stroke="#6F3FF5"/>
<path d="M409.3 313.524C406.899 311.981 404.156 310.609 401.412 309.752C401.24 309.752 401.24 309.752 401.069 309.752C400.897 309.752 400.897 309.923 400.897 309.923C398.325 316.611 378.605 324.671 377.404 322.956C375.347 320.041 368.83 320.555 367.973 324.671C367.973 324.671 365.572 334.102 376.032 341.99L376.204 342.162V342.333V342.505V342.676C376.204 342.676 376.204 342.848 376.032 342.848C375.861 342.848 375.861 342.848 375.861 343.019H375.689C374.832 343.019 372.774 342.676 369.688 340.961C365.744 338.732 364.029 333.416 364.372 323.47C364.715 314.21 365.058 311.466 367.801 306.836C370.031 303.064 374.146 296.204 392.152 295.862C411.358 295.519 412.387 311.123 412.558 313.353C412.558 313.524 412.558 313.524 412.558 313.524L412.387 313.696C411.872 313.867 411.358 314.039 410.843 314.039C410.329 313.867 409.815 313.696 409.3 313.524Z" stroke="#6F3FF5"/>
<path d="M364.886 304.778C356.312 304.778 368.145 316.953 353.397 325.527C358.713 316.267 355.455 315.581 351.168 308.207C348.253 301.862 354.769 292.602 360.771 292.259C367.973 291.916 370.888 297.918 370.888 297.918" stroke="#6F3FF5"/>
<path d="M374.146 299.12L372.088 297.405C369.002 299.635 366.43 302.55 364.715 305.808L366.43 307.008" stroke="#6F3FF5"/>
<path d="M431.764 396.007V386.575C431.421 384.003 430.221 379.03 423.705 377.315C420.79 376.629 408.957 374.915 403.298 372.171L400.898 370.97C400.898 373.714 395.239 375.6 388.036 375.6C380.834 375.6 375.004 373.371 375.004 370.627L373.289 372.171C366.944 377.487 353.568 378.859 350.825 379.888C346.195 381.602 345.509 386.061 345.337 388.462V398.065" stroke="#6F3FF5"/>
<path d="M400.897 371.143L405.527 373.372C405.527 376.63 396.61 380.06 388.208 380.06C379.805 380.06 371.917 376.802 371.917 373.543L375.004 370.971" stroke="#6F3FF5"/>
<path d="M495.385 301.178C492.641 300.149 488.011 298.606 486.296 297.92C476.521 275.798 493.841 264.652 494.699 239.616C492.984 215.951 535.168 195.201 544.6 221.438C558.833 221.953 570.494 231.213 564.32 247.675C557.804 272.54 575.295 261.565 565.864 288.317C565.349 293.29 569.465 294.318 570.151 298.091L560.719 302.893" stroke="#5D5FEF"/>
<path d="M539.97 292.089C538.77 287.802 537.055 284.544 536.712 281.458C557.461 274.941 554.718 248.19 545.629 232.928C534.311 226.24 524.537 227.098 511.675 236.186C510.475 237.044 510.304 238.93 511.332 239.959C515.962 244.76 516.134 251.791 514.419 257.45C514.591 252.648 510.304 246.304 505.502 250.248C499.672 254.878 508.76 266.024 508.76 266.024C512.704 275.627 521.793 282.829 516.134 293.976" stroke="#5D5FEF"/>
<path d="M487.496 318.497C488.868 314.724 491.44 308.036 494.699 302.035C496.585 298.605 498.643 295.347 501.043 293.117C503.273 290.888 505.502 289.859 507.56 290.031C509.961 290.374 512.19 291.403 514.591 292.946C516.477 294.146 518.363 295.69 520.25 297.062C520.593 297.404 521.107 297.747 521.45 298.09C523.679 299.805 526.08 301.692 528.309 302.72C530.71 303.921 533.282 304.435 536.026 303.578C537.912 303.063 539.113 301.863 539.799 300.32C540.484 298.948 540.484 297.233 540.484 295.861C540.484 294.489 540.142 293.117 539.799 292.089C539.627 291.574 539.627 291.231 539.456 291.06C540.484 289.688 541.685 289.002 542.714 288.659C543.914 288.316 545.286 288.316 546.658 289.002C549.573 290.202 552.831 293.117 556.089 296.89C561.92 303.749 567.236 313.181 570.322 318.668" stroke="#5D5FEF"/>
<path d="M365.744 195.543C342.079 205.661 365.915 231.04 385.464 231.04C393.181 231.555 407.414 231.04 414.445 224.353C421.647 218.351 418.56 204.975 412.387 201.545" stroke="#6F3FF5" stroke-miterlimit="10"/>
<path d="M365.572 184.912L366.086 205.147C375.861 204.118 379.634 216.465 379.291 216.636L379.462 217.151C417.017 216.979 412.387 218.351 411.529 183.54" stroke="#6F3FF5" stroke-miterlimit="10"/>
<path d="M358.198 179.768C358.198 181.826 359.57 183.712 361.457 184.227L365.058 184.741C366.43 184.913 367.63 184.227 368.316 183.026C369.002 181.312 369.688 178.568 369.688 173.938C369.516 168.45 368.316 166.564 367.63 165.878C367.115 165.364 366.601 165.364 366.601 165.364L362.657 165.535C360.085 165.535 357.855 167.765 358.027 170.508L358.198 179.768Z" stroke="#6F3FF5" stroke-miterlimit="10"/>
<path d="M414.445 156.103C414.445 156.103 417.188 129.18 387.008 129.695C359.742 130.038 360.942 159.704 361.457 165.363" stroke="#6F3FF5" stroke-miterlimit="10"/>
<path d="M411.186 155.074C408.1 146.842 401.926 139.297 389.751 139.64C363.514 140.498 365.058 165.534 365.058 165.534" stroke="#6F3FF5" stroke-miterlimit="10"/>
<path d="M382.377 141.013C382.377 141.013 382.034 145.814 389.579 145.814C395.067 145.814 396.096 145.3 397.811 141.013" stroke="#6F3FF5" stroke-miterlimit="10"/>
<path d="M418.217 179.768V158.504C418.217 156.618 416.674 155.074 414.787 155.074H381.348C379.462 155.074 377.919 156.618 377.919 158.504V179.768C377.919 181.654 379.462 183.197 381.348 183.197H414.787C416.674 183.197 418.217 181.826 418.217 179.768Z" stroke="#6F3FF5" stroke-miterlimit="10"/>
<path d="M388.551 160.905C383.921 160.905 383.75 164.163 383.75 164.163V182.683" stroke="#6F3FF5" stroke-miterlimit="10"/>
<path d="M366.086 205.318L356.312 210.806" stroke="#6F3FF5" stroke-miterlimit="10"/>
<path d="M374.832 228.469C377.576 214.236 359.913 208.749 359.913 208.749" stroke="#6F3FF5" stroke-miterlimit="10"/>
<path d="M664.981 376.629C664.295 380.573 663.438 384.346 662.409 388.29" stroke="#5D5FEF"/>
<path d="M692.932 387.262L689.674 373.372" stroke="#5D5FEF"/>
<path d="M640.63 399.436C645.089 397.036 650.062 395.492 656.235 394.635" stroke="#5D5FEF"/>
<path d="M699.278 392.749C706.137 394.292 712.482 397.722 717.798 402.009" stroke="#5D5FEF"/>
<path d="M697.391 394.978C686.417 398.579 669.268 399.265 657.607 396.179C655.378 395.664 654.521 392.92 655.893 391.034L657.093 389.319C657.95 388.119 659.494 387.604 661.037 387.947C671.155 390.348 682.129 390.691 693.962 387.09C695.677 386.575 697.734 387.261 698.42 388.976L699.106 390.348C700.135 392.234 699.278 394.464 697.391 394.978Z" stroke="#5D5FEF"/>
<path d="M655.035 320.726C654.178 322.612 653.492 324.67 653.149 326.727L650.233 350.049C648.004 363.082 656.75 375.6 669.782 378.001L670.64 378.172C683.673 380.402 696.191 371.656 698.592 358.623L699.449 351.421" stroke="#5D5FEF"/>
<path d="M635.486 295.69C639.602 297.576 646.632 296.033 650.577 297.405C653.663 297.576 651.091 293.46 652.977 291.746C661.723 302.72 670.297 292.946 682.644 295.347C694.133 297.233 699.278 306.665 700.135 315.067C700.135 315.582 700.478 316.096 700.992 316.268C711.967 323.127 710.252 334.273 699.106 353.136C702.193 346.62 702.707 337.017 696.191 332.73C690.017 329.129 684.873 334.102 684.016 340.447C676.299 338.903 675.099 326.042 682.301 321.755C682.472 320.898 681.786 320.04 680.929 320.04C669.954 321.584 655.207 321.927 643.717 317.468C638.23 314.038 634.457 305.636 635.486 295.69Z" stroke="#5D5FEF"/>
<path d="M491.955 18.5742L439.653 109.289H334.877L282.574 18.5742" stroke="#6F3FF5" stroke-miterlimit="10" stroke-linecap="round" stroke-linejoin="round"/>
<path fill-rule="evenodd" clip-rule="evenodd" d="M439.653 91.2827H334.877L282.574 181.826L334.877 272.54H439.653L491.955 181.826L439.653 91.2827Z" stroke="#6F3FF5" stroke-miterlimit="10" stroke-linecap="round" stroke-linejoin="round"/>
<path fill-rule="evenodd" clip-rule="evenodd" d="M439.653 254.535H334.877L282.574 345.078L334.877 435.792H439.653L491.955 345.078L439.653 254.535Z" stroke="#6F3FF5" stroke-miterlimit="10" stroke-linecap="round" stroke-linejoin="round"/>
<path d="M1 181.826L53.4737 272.54H158.078L210.38 181.826L158.078 91.2827" stroke="#6F3FF5" stroke-miterlimit="10" stroke-linecap="round" stroke-linejoin="round"/>
<path d="M158.078 435.792L210.38 345.078L158.078 254.535H53.4737L1 345.078" stroke="#6F3FF5" stroke-miterlimit="10" stroke-linecap="round" stroke-linejoin="round"/>
<path d="M491.955 508.328L439.653 417.785H334.877L282.574 508.328" stroke="#6F3FF5" stroke-miterlimit="10" stroke-linecap="round" stroke-linejoin="round"/>
<path d="M141.787 100.714L194.089 191.257H298.694L351.168 100.714L298.694 10" stroke="#6F3FF5" stroke-miterlimit="10" stroke-linecap="round" stroke-linejoin="round"/>
<path fill-rule="evenodd" clip-rule="evenodd" d="M298.694 173.251H194.089L141.787 263.966L194.089 354.509H298.694L351.168 263.966L298.694 173.251Z" stroke="#6F3FF5" stroke-miterlimit="10" stroke-linecap="round" stroke-linejoin="round"/>
<path d="M17.9769 354.509L70.4506 263.966L17.9769 173.251" stroke="#6F3FF5" stroke-miterlimit="10" stroke-linecap="round" stroke-linejoin="round"/>
<path d="M298.694 517.76L351.168 427.217L298.694 336.502H194.089L141.787 427.217" stroke="#6F3FF5" stroke-miterlimit="10" stroke-linecap="round" stroke-linejoin="round"/>
<path d="M617.651 91.2827L565.349 181.826L617.651 272.54H722.256L774.729 181.826" stroke="#5D5FEF" stroke-miterlimit="10" stroke-linecap="round" stroke-linejoin="round"/>
<path d="M774.729 345.078L722.256 254.535H617.651L565.349 345.078L617.651 435.792" stroke="#5D5FEF" stroke-miterlimit="10" stroke-linecap="round" stroke-linejoin="round"/>
<path d="M477.036 10L424.562 100.714L477.036 191.257H581.64L633.942 100.714" stroke="#5D5FEF" stroke-miterlimit="10" stroke-linecap="round" stroke-linejoin="round"/>
<path fill-rule="evenodd" clip-rule="evenodd" d="M424.562 263.966L477.036 354.509H581.64L633.942 263.966L581.64 173.251H477.036L424.562 263.966Z" stroke="#5D5FEF" stroke-miterlimit="10" stroke-linecap="round" stroke-linejoin="round"/>
<path d="M757.753 173.251L705.279 263.966L757.753 354.509" stroke="#5D5FEF" stroke-miterlimit="10" stroke-linecap="round" stroke-linejoin="round"/>
<path d="M633.942 427.217L581.64 336.502H477.036L424.562 427.217L477.036 517.76" stroke="#5D5FEF" stroke-miterlimit="10" stroke-linecap="round" stroke-linejoin="round"/>
<path d="M701.335 263.966L704.765 257.964H634.457L637.886 263.966L634.971 269.282H704.422L701.335 263.966Z" fill="#5BF1CD"/>
<path d="M214.324 181.997L210.895 187.999H282.06L278.63 181.997L281.545 176.681H211.409L214.324 181.997Z" fill="#FFE48D"/>
<path d="M444.797 256.763L480.637 194.858H474.978L471.72 189.199L436.052 251.104H441.539L444.797 256.763Z" fill="#5BF1CD"/>
<path d="M210.895 351.25H282.06L278.63 345.249L281.545 339.933H211.409L214.324 345.249L210.895 351.25Z" fill="#FFE48D"/>
<path d="M583.698 194.858H576.667L612.335 256.763L615.594 251.104H622.624L586.956 189.199L583.698 194.858Z" fill="#FFE48D"/>
<path d="M300.752 194.858H293.892L329.732 256.763L332.99 251.104H339.678L304.01 189.199L300.752 194.858Z" fill="#5BF1CD"/>
<path d="M304.01 338.732L340.193 276.14H332.99L329.732 270.481L293.549 333.073H300.752L304.01 338.732Z" fill="#5BF1CD"/>
<path d="M420.618 263.966L424.048 257.964H351.682L355.112 263.966L352.025 269.282H423.705L420.618 263.966Z" fill="#5BF1CD"/>
<path d="M344.137 269.282L347.052 263.966L343.622 257.964H336.934L333.676 263.623L336.934 269.282H344.137Z" fill="#6F3FF5"/>
<path d="M431.593 269.282H437.595L440.853 263.623L437.595 257.964H432.107L428.678 263.966L431.593 269.282Z" fill="#6F3FF5"/>
<path d="M579.754 339.933H572.209L569.293 345.249L572.723 351.25H579.754L583.012 345.592L579.754 339.933Z" fill="#5D5FEF"/>
<path d="M343.622 421.215H336.934L333.676 426.874L336.934 432.533H344.137L347.052 427.217L343.622 421.215Z" fill="#6F3FF5"/>
<path d="M437.595 421.215H432.107L428.678 427.217L431.593 432.533H437.595L440.853 426.874L437.595 421.215Z" fill="#6F3FF5"/>
<path d="M572.723 187.999H579.754L583.012 182.34L579.754 176.681H572.209L569.293 181.997L572.723 187.999Z" fill="#5D5FEF"/>
<path d="M720.37 257.964H712.824L709.395 263.966L712.31 269.282H720.37L723.628 263.623L720.37 257.964Z" fill="#5D5FEF"/>
<path d="M203.521 339.933H195.976L192.718 345.592L195.976 351.25H203.006L206.436 345.249L203.521 339.933Z" fill="#6F3FF5"/>
<path d="M431.593 106.03H437.595L440.853 100.371L437.595 94.7119H432.107L428.678 100.714L431.593 106.03Z" fill="#6F3FF5"/>
<path d="M336.934 106.03H344.137L347.052 100.714L343.622 94.7119H336.934L333.676 100.371L336.934 106.03Z" fill="#6F3FF5"/>
<path d="M195.976 187.999H203.007L206.436 181.997L203.521 176.681H195.976L192.889 182.34L195.976 187.999Z" fill="#6F3FF5"/>
<path d="M626.569 257.964H619.538L616.451 263.623L619.538 269.282H627.083L629.998 263.966L626.569 257.964Z" fill="#5D5FEF"/>
<path d="M332.99 414.356H339.678L304.01 352.451L300.752 358.11H293.892L329.732 420.015L332.99 414.356Z" fill="#FFE48D"/>
<path d="M153.105 251.104H160.136L163.394 256.763L199.062 194.858H192.032L188.773 189.199L153.105 251.104Z" fill="#FFE48D"/>
<path d="M141.273 257.964H70.9648L74.3945 263.966L71.3078 269.282H140.758L137.843 263.966L141.273 257.964Z" fill="#5BF1CD"/>
<path d="M149.161 257.964L145.731 263.966L148.647 269.282H156.192L159.279 263.623L156.192 257.964H149.161Z" fill="#6F3FF5"/>
<path d="M352.025 432.533H423.705L420.618 427.217L424.048 421.215H351.682L355.112 427.217L352.025 432.533Z" fill="#FFE48D"/>
<path d="M444.797 420.015L480.637 358.11H474.978L471.72 352.451L436.052 414.356H441.539L444.797 420.015Z" fill="#FFE48D"/>
<path d="M492.469 351.25H564.835L561.405 345.249L564.32 339.933H492.812L495.899 345.249L492.469 351.25Z" fill="#FFE48D"/>
<path d="M62.9051 257.964H55.3599L52.1017 263.623L55.3599 269.282H63.4196L66.3348 263.966L62.9051 257.964Z" fill="#6F3FF5"/>
<path d="M484.924 339.933H478.922L475.664 345.592L478.922 351.25H484.581L488.011 345.249L484.924 339.933Z" fill="#5D5FEF"/>
<path d="M424.048 94.7119H351.682L355.112 100.714L352.025 106.03H423.705L420.618 100.714L424.048 94.7119Z" fill="#FFE48D"/>
<path d="M289.605 176.681L286.519 181.997L289.948 187.999H296.808L300.066 182.34L296.808 176.681H289.605Z" fill="#6F3FF5"/>
<path d="M192.032 333.073H199.406L163.394 270.481L160.136 276.14H152.591L188.774 338.732L192.032 333.073Z" fill="#FFE48D"/>
<path d="M329.732 107.23L293.549 169.821H300.752L304.01 175.48L340.193 112.889H332.99L329.732 107.23Z" fill="#FFE48D"/>
<path d="M296.808 351.25L300.066 345.592L296.808 339.933H289.605L286.519 345.249L289.948 351.25H296.808Z" fill="#6F3FF5"/>
<path d="M478.922 176.681L475.664 182.34L478.922 187.999H484.581L488.011 181.997L484.924 176.681H478.922Z" fill="#6F3FF5"/>
<path d="M441.539 112.889H435.537L471.72 175.48L474.978 169.821H480.98L444.797 107.23L441.539 112.889Z" fill="#FFE48D"/>
<path d="M480.98 333.073L444.797 270.481L441.539 276.14H435.537L471.72 338.732L474.978 333.073H480.98Z" fill="#5BF1CD"/>
<path d="M586.956 338.732L623.139 276.14H615.594L612.336 270.481L576.324 333.073H583.698L586.956 338.732Z" fill="#FFE48D"/>
<path d="M564.32 176.681H492.812L495.899 181.997L492.469 187.999H564.835L561.405 181.997L564.32 176.681Z" fill="#FFE48D"/>
<path d="M215.868 256.763C216.725 258.477 217.754 260.192 218.783 261.564C217.582 265.337 217.411 269.624 218.097 273.739C220.669 287.801 234.216 297.233 248.278 294.66C262.168 292.088 271.599 278.884 269.199 264.822L265.94 241.158" stroke="#6F3FF5" stroke-miterlimit="10"/>
<path d="M222.212 247.846C220.155 248.189 218.611 249.046 217.582 251.104C216.725 252.819 216.554 255.048 216.896 258.135C215.868 257.278 214.667 255.906 213.81 254.534C212.609 252.476 212.095 250.418 212.952 248.875L213.295 248.361L212.781 248.018C210.723 246.303 209.694 244.245 209.694 242.187C209.694 240.129 210.723 237.9 213.124 235.671L213.467 235.328L213.295 234.813C212.781 232.241 212.781 230.698 213.295 229.669C213.81 228.64 215.182 227.954 217.754 227.783H218.611L218.44 226.925C218.097 224.524 219.297 221.952 221.355 220.237C223.413 218.523 225.985 217.837 227.871 218.865L228.729 219.38L228.9 218.351C229.243 215.779 231.815 214.235 234.902 213.892C236.446 213.721 237.989 213.721 239.361 214.064C240.733 214.407 241.761 214.921 242.447 215.779L243.305 216.808L243.819 215.607C244.162 214.75 244.848 214.064 246.049 213.55C247.077 213.035 248.449 213.035 249.821 213.207C252.565 213.55 254.794 215.093 254.966 217.837L255.137 219.38L256.337 218.351C258.052 216.808 260.625 216.808 262.854 218.008C265.083 219.208 266.283 221.266 265.769 223.496L265.598 224.01L266.112 224.353C270.742 226.925 271.942 230.869 271.428 234.299C270.914 237.557 268.684 240.301 266.112 241.33C265.941 240.815 265.941 240.301 265.769 239.786V239.615C265.598 238.757 265.426 237.9 264.912 236.871L264.569 236.357L264.054 236.528C260.625 237.557 255.823 237.386 252.393 235.842L251.536 235.499L251.364 236.357C251.364 236.357 251.364 236.528 251.193 236.7C251.022 236.871 250.679 237.043 250.336 237.214C249.65 237.557 248.621 237.9 247.592 238.243C245.363 238.757 242.962 238.757 241.59 238.243L240.733 237.9L240.561 238.757C240.561 238.757 240.561 238.757 240.561 238.929C240.561 239.1 240.561 239.272 240.39 239.443C240.218 239.786 239.875 240.472 239.361 240.987C238.332 242.187 236.446 243.559 232.844 244.073L231.987 244.245L232.33 245.102C232.844 246.646 233.702 249.046 234.045 251.276C234.216 252.305 234.216 253.333 234.045 254.191C233.873 255.048 233.53 255.563 232.844 255.906C231.987 256.42 231.472 256.42 231.301 256.42C231.13 256.42 230.958 256.249 230.787 255.906C230.615 255.563 230.444 254.877 230.444 254.191C230.444 254.191 230.444 254.191 230.444 254.019C230.272 253.333 230.272 252.648 229.929 252.133C228.9 249.389 226.157 247.503 222.212 247.846Z" stroke="#6F3FF5" stroke-miterlimit="10"/>
<path d="M237.989 294.488C236.617 299.633 234.216 304.434 230.958 308.55C230.958 308.55 245.363 321.24 264.054 308.036C264.054 308.036 254.794 298.776 254.108 292.431" stroke="#6F3FF5" stroke-miterlimit="10"/>
<path d="M230.958 308.55L210.723 318.496" stroke="#6F3FF5" stroke-miterlimit="10"/>
<path d="M284.289 318.496L264.054 308.55" stroke="#6F3FF5" stroke-miterlimit="10"/>
<path d="M109.377 216.294H83.6545C83.6545 216.294 80.5678 216.294 78.51 214.407C77.3096 213.207 76.7952 211.664 76.7952 209.777C76.7952 202.404 73.0226 160.562 72.8511 158.847C72.8511 158.676 73.194 136.04 95.1438 133.811C96.0012 133.811 96.8586 133.639 97.7161 133.639C117.265 133.639 120.352 156.618 120.523 157.475L121.895 201.375C111.949 204.804 109.72 213.722 109.377 216.294Z" stroke="#6F3FF5" stroke-miterlimit="10"/>
<path d="M109.891 193.143C110.234 194.858 110.063 196.23 109.377 197.259C108.348 198.631 106.805 198.802 106.633 198.802H94.1149C90.1708 198.802 88.456 196.401 88.113 195.029" stroke="#6F3FF5" stroke-miterlimit="10"/>
<path d="M110.749 178.225L85.3693 179.082C84.6833 179.082 84.1689 178.91 83.6544 178.396C83.14 177.882 82.9685 177.367 82.797 176.681L82.2826 164.849C82.2826 164.334 82.4541 163.649 82.797 163.306C82.797 163.306 82.797 163.134 82.9685 163.134C82.9685 163.134 82.9685 163.134 83.14 163.134C83.6545 162.62 84.1689 162.448 84.6833 162.448L110.063 161.762C111.435 161.762 112.464 162.791 112.635 164.163L113.149 175.824C113.149 177.024 112.121 178.225 110.749 178.225Z" stroke="#6F3FF5" stroke-miterlimit="10"/>
<path d="M120.866 160.047H123.267C124.467 160.047 125.668 160.39 126.525 161.248C127.383 162.105 127.897 163.134 128.068 164.506L128.411 176.167C128.583 178.739 126.525 180.797 123.953 180.968H121.552" stroke="#6F3FF5" stroke-miterlimit="10"/>
<path d="M74.223 181.483L72.3367 181.654C69.7644 181.826 67.5352 179.939 67.3637 177.367L66.5063 165.878C66.3348 164.677 66.8492 163.477 67.5352 162.448C68.3926 161.419 69.4215 160.905 70.6218 160.905L72.5082 160.733" stroke="#6F3FF5" stroke-miterlimit="10"/>
<path d="M69.2498 161.591C69.0783 156.789 69.0783 128.495 93.4288 126.608C101.831 125.923 108.691 127.98 113.835 132.61C123.953 141.527 124.124 157.304 124.124 159.876" stroke="#6F3FF5" stroke-miterlimit="10"/>
<path d="M112.292 162.791L110.406 159.705C109.377 158.161 107.834 157.304 106.462 157.475L88.7991 158.333C87.4272 158.333 86.0553 159.19 85.1979 160.562L83.1401 163.649" stroke="#6F3FF5" stroke-miterlimit="10"/>
<path d="M77.1382 207.548C77.1382 207.548 67.3637 206.348 64.4485 230.527" stroke="#6F3FF5" stroke-miterlimit="10"/>
<path d="M122.067 201.375C122.067 201.375 138.357 197.774 152.762 221.61" stroke="#6F3FF5" stroke-miterlimit="10"/>
<path d="M136.643 204.804C136.643 204.804 121.895 203.947 117.265 226.24" stroke="#6F3FF5" stroke-miterlimit="10"/>
<path d="M76.6238 211.148C76.6238 211.148 72.6797 218.522 71.1364 230.697" stroke="#6F3FF5" stroke-miterlimit="10"/>
<path d="M2638.9 362.143C2638.21 359.571 2638.55 357.513 2638.38 355.626" stroke="#6F3FF5"/>
<path d="M2615.75 349.795L2613.17 361.799" stroke="#6F3FF5"/>
<path d="M2607.34 331.447L2608.89 337.963C2612.15 350.824 2625.01 358.712 2637.87 355.626C2650.73 352.539 2658.62 339.506 2655.87 326.645L2655.7 325.959L2650.73 304.695" stroke="#6F3FF5"/>
<path d="M2647.3 304.524C2644.9 302.981 2642.16 301.609 2639.41 300.752C2639.24 300.752 2639.24 300.752 2639.07 300.752C2638.9 300.752 2638.9 300.923 2638.9 300.923C2636.33 307.611 2616.6 315.671 2615.4 313.956C2613.35 311.041 2606.83 311.555 2605.97 315.671C2605.97 315.671 2603.57 325.102 2614.03 332.99L2614.2 333.162V333.333V333.505V333.676C2614.2 333.676 2614.2 333.848 2614.03 333.848C2613.86 333.848 2613.86 333.848 2613.86 334.019H2613.69C2612.83 334.019 2610.77 333.676 2607.69 331.961C2603.74 329.732 2602.03 324.416 2602.37 314.47C2602.71 305.21 2603.06 302.466 2605.8 297.836C2608.03 294.064 2612.15 287.204 2630.15 286.862C2649.36 286.519 2650.39 302.123 2650.56 304.353C2650.56 304.524 2650.56 304.524 2650.56 304.524L2650.39 304.696C2649.87 304.867 2649.36 305.039 2648.84 305.039C2648.33 304.867 2647.81 304.696 2647.3 304.524Z" stroke="#6F3FF5"/>
<path d="M2602.89 295.778C2594.31 295.778 2606.14 307.953 2591.4 316.527C2596.71 307.267 2593.46 306.581 2589.17 299.207C2586.25 292.862 2592.77 283.602 2598.77 283.259C2605.97 282.916 2608.89 288.918 2608.89 288.918" stroke="#6F3FF5"/>
<path d="M2612.15 290.12L2610.09 288.405C2607 290.635 2604.43 293.55 2602.71 296.808L2604.43 298.008" stroke="#6F3FF5"/>
<path d="M2669.76 387.007V377.575C2669.42 375.003 2668.22 370.03 2661.7 368.315C2658.79 367.629 2646.96 365.915 2641.3 363.171L2638.9 361.97C2638.9 364.714 2633.24 366.6 2626.04 366.6C2618.83 366.6 2613 364.371 2613 361.627L2611.29 363.171C2604.94 368.487 2591.57 369.859 2588.82 370.888C2584.19 372.602 2583.51 377.061 2583.34 379.462V389.065" stroke="#6F3FF5"/>
<path d="M2638.9 362.143L2643.53 364.372C2643.53 367.63 2634.61 371.06 2626.21 371.06C2617.81 371.06 2609.92 367.802 2609.92 364.543L2613 361.971" stroke="#6F3FF5"/>
<path d="M2733.38 292.178C2730.64 291.149 2726.01 289.606 2724.3 288.92C2714.52 266.798 2731.84 255.652 2732.7 230.616C2730.98 206.951 2773.17 186.201 2782.6 212.438C2796.83 212.953 2808.49 222.213 2802.32 238.675C2795.8 263.54 2813.3 252.565 2803.86 279.317C2803.35 284.29 2807.46 285.318 2808.15 289.091L2798.72 293.893" stroke="#5D5FEF"/>
<path d="M2777.97 283.089C2776.77 278.802 2775.05 275.544 2774.71 272.458C2795.46 265.941 2792.72 239.19 2783.63 223.928C2772.31 217.24 2762.54 218.098 2749.68 227.186C2748.47 228.044 2748.3 229.93 2749.33 230.959C2753.96 235.76 2754.13 242.791 2752.42 248.45C2752.59 243.648 2748.3 237.304 2743.5 241.248C2737.67 245.878 2746.76 257.024 2746.76 257.024C2750.7 266.627 2759.79 273.829 2754.13 284.976" stroke="#5D5FEF"/>
<path d="M2725.5 309.497C2726.87 305.724 2729.44 299.036 2732.7 293.035C2734.59 289.605 2736.64 286.347 2739.04 284.117C2741.27 281.888 2743.5 280.859 2745.56 281.031C2747.96 281.374 2750.19 282.403 2752.59 283.946C2754.48 285.146 2756.36 286.69 2758.25 288.062C2758.59 288.404 2759.11 288.747 2759.45 289.09C2761.68 290.805 2764.08 292.692 2766.31 293.72C2768.71 294.921 2771.28 295.435 2774.03 294.578C2775.91 294.063 2777.11 292.863 2777.8 291.32C2778.48 289.948 2778.48 288.233 2778.48 286.861C2778.48 285.489 2778.14 284.117 2777.8 283.089C2777.63 282.574 2777.63 282.231 2777.46 282.06C2778.48 280.688 2779.69 280.002 2780.71 279.659C2781.91 279.316 2783.29 279.316 2784.66 280.002C2787.57 281.202 2790.83 284.117 2794.09 287.89C2799.92 294.749 2805.24 304.181 2808.32 309.668" stroke="#5D5FEF"/>
<path d="M2603.74 186.543C2580.08 196.661 2603.92 222.04 2623.46 222.04C2631.18 222.555 2645.41 222.04 2652.44 215.353C2659.65 209.351 2656.56 195.975 2650.39 192.545" stroke="#6F3FF5" stroke-miterlimit="10"/>
<path d="M2603.57 175.912L2604.09 196.147C2613.86 195.118 2617.63 207.465 2617.29 207.636L2617.46 208.151C2655.02 207.979 2650.39 209.351 2649.53 174.54" stroke="#6F3FF5" stroke-miterlimit="10"/>
<path d="M2596.2 170.768C2596.2 172.826 2597.57 174.712 2599.46 175.227L2603.06 175.741C2604.43 175.913 2605.63 175.227 2606.32 174.026C2607 172.312 2607.69 169.568 2607.69 164.938C2607.52 159.45 2606.32 157.564 2605.63 156.878C2605.12 156.364 2604.6 156.364 2604.6 156.364L2600.66 156.535C2598.08 156.535 2595.86 158.765 2596.03 161.508L2596.2 170.768Z" stroke="#6F3FF5" stroke-miterlimit="10"/>
<path d="M2652.44 147.103C2652.44 147.103 2655.19 120.18 2625.01 120.695C2597.74 121.038 2598.94 150.704 2599.46 156.363" stroke="#6F3FF5" stroke-miterlimit="10"/>
<path d="M2649.19 146.074C2646.1 137.842 2639.93 130.297 2627.75 130.64C2601.51 131.498 2603.06 156.534 2603.06 156.534" stroke="#6F3FF5" stroke-miterlimit="10"/>
<path d="M2620.38 132.013C2620.38 132.013 2620.03 136.814 2627.58 136.814C2633.07 136.814 2634.1 136.3 2635.81 132.013" stroke="#6F3FF5" stroke-miterlimit="10"/>
<path d="M2656.22 170.768V149.504C2656.22 147.618 2654.67 146.074 2652.79 146.074H2619.35C2617.46 146.074 2615.92 147.618 2615.92 149.504V170.768C2615.92 172.654 2617.46 174.197 2619.35 174.197H2652.79C2654.67 174.197 2656.22 172.826 2656.22 170.768Z" stroke="#6F3FF5" stroke-miterlimit="10"/>
<path d="M2626.55 151.905C2621.92 151.905 2621.75 155.163 2621.75 155.163V173.683" stroke="#6F3FF5" stroke-miterlimit="10"/>
<path d="M2604.09 196.318L2594.31 201.806" stroke="#6F3FF5" stroke-miterlimit="10"/>
<path d="M2612.83 219.469C2615.58 205.236 2597.91 199.749 2597.91 199.749" stroke="#6F3FF5" stroke-miterlimit="10"/>
<path d="M2902.98 367.629C2902.29 371.573 2901.44 375.346 2900.41 379.29" stroke="#5D5FEF"/>
<path d="M2930.93 378.262L2927.67 364.372" stroke="#5D5FEF"/>
<path d="M2878.63 390.436C2883.09 388.036 2888.06 386.492 2894.23 385.635" stroke="#5D5FEF"/>
<path d="M2937.28 383.749C2944.14 385.292 2950.48 388.722 2955.8 393.009" stroke="#5D5FEF"/>
<path d="M2935.39 385.978C2924.42 389.579 2907.27 390.265 2895.61 387.179C2893.38 386.664 2892.52 383.92 2893.89 382.034L2895.09 380.319C2895.95 379.119 2897.49 378.604 2899.04 378.947C2909.15 381.348 2920.13 381.691 2931.96 378.09C2933.68 377.575 2935.73 378.261 2936.42 379.976L2937.11 381.348C2938.13 383.234 2937.28 385.464 2935.39 385.978Z" stroke="#5D5FEF"/>
<path d="M2893.03 311.726C2892.18 313.612 2891.49 315.67 2891.15 317.727L2888.23 341.049C2886 354.082 2894.75 366.6 2907.78 369.001L2908.64 369.172C2921.67 371.402 2934.19 362.656 2936.59 349.623L2937.45 342.421" stroke="#5D5FEF"/>
<path d="M2873.49 286.69C2877.6 288.576 2884.63 287.033 2888.58 288.405C2891.66 288.576 2889.09 284.46 2890.98 282.746C2899.72 293.72 2908.3 283.946 2920.64 286.347C2932.13 288.233 2937.28 297.665 2938.13 306.067C2938.13 306.582 2938.48 307.096 2938.99 307.268C2949.97 314.127 2948.25 325.273 2937.11 344.136C2940.19 337.62 2940.71 328.017 2934.19 323.73C2928.02 320.129 2922.87 325.102 2922.02 331.447C2914.3 329.903 2913.1 317.042 2920.3 312.755C2920.47 311.898 2919.79 311.04 2918.93 311.04C2907.95 312.584 2893.21 312.927 2881.72 308.468C2876.23 305.038 2872.46 296.636 2873.49 286.69Z" stroke="#5D5FEF"/>
<path d="M2729.96 9.57422L2677.65 100.289H2572.88L2520.57 9.57422" stroke="#6F3FF5" stroke-miterlimit="10" stroke-linecap="round" stroke-linejoin="round"/>
<path fill-rule="evenodd" clip-rule="evenodd" d="M2677.65 82.2827H2572.88L2520.57 172.826L2572.88 263.54H2677.65L2729.96 172.826L2677.65 82.2827Z" stroke="#6F3FF5" stroke-miterlimit="10" stroke-linecap="round" stroke-linejoin="round"/>
<path fill-rule="evenodd" clip-rule="evenodd" d="M2677.65 245.535H2572.88L2520.57 336.078L2572.88 426.792H2677.65L2729.96 336.078L2677.65 245.535Z" stroke="#6F3FF5" stroke-miterlimit="10" stroke-linecap="round" stroke-linejoin="round"/>
<path d="M2239 172.826L2291.47 263.54H2396.08L2448.38 172.826L2396.08 82.2827" stroke="#6F3FF5" stroke-miterlimit="10" stroke-linecap="round" stroke-linejoin="round"/>
<path d="M2396.08 426.792L2448.38 336.078L2396.08 245.535H2291.47L2239 336.078" stroke="#6F3FF5" stroke-miterlimit="10" stroke-linecap="round" stroke-linejoin="round"/>
<path d="M2729.96 499.328L2677.65 408.785H2572.88L2520.57 499.328" stroke="#6F3FF5" stroke-miterlimit="10" stroke-linecap="round" stroke-linejoin="round"/>
<path d="M2379.79 91.7143L2432.09 182.257H2536.69L2589.17 91.7143L2536.69 1" stroke="#6F3FF5" stroke-miterlimit="10" stroke-linecap="round" stroke-linejoin="round"/>
<path fill-rule="evenodd" clip-rule="evenodd" d="M2536.69 164.251H2432.09L2379.79 254.966L2432.09 345.509H2536.69L2589.17 254.966L2536.69 164.251Z" stroke="#6F3FF5" stroke-miterlimit="10" stroke-linecap="round" stroke-linejoin="round"/>
<path d="M2255.98 345.509L2308.45 254.966L2255.98 164.251" stroke="#6F3FF5" stroke-miterlimit="10" stroke-linecap="round" stroke-linejoin="round"/>
<path d="M2536.69 508.76L2589.17 418.217L2536.69 327.502H2432.09L2379.79 418.217" stroke="#6F3FF5" stroke-miterlimit="10" stroke-linecap="round" stroke-linejoin="round"/>
<path d="M2855.65 82.2827L2803.35 172.826L2855.65 263.54H2960.26L3012.73 172.826" stroke="#5D5FEF" stroke-miterlimit="10" stroke-linecap="round" stroke-linejoin="round"/>
<path d="M3012.73 336.078L2960.26 245.535H2855.65L2803.35 336.078L2855.65 426.792" stroke="#5D5FEF" stroke-miterlimit="10" stroke-linecap="round" stroke-linejoin="round"/>
<path d="M2715.04 1L2662.56 91.7143L2715.04 182.257H2819.64L2871.94 91.7143" stroke="#5D5FEF" stroke-miterlimit="10" stroke-linecap="round" stroke-linejoin="round"/>
<path fill-rule="evenodd" clip-rule="evenodd" d="M2662.56 254.966L2715.04 345.509H2819.64L2871.94 254.966L2819.64 164.251H2715.04L2662.56 254.966Z" stroke="#5D5FEF" stroke-miterlimit="10" stroke-linecap="round" stroke-linejoin="round"/>
<path d="M2995.75 164.251L2943.28 254.966L2995.75 345.509" stroke="#5D5FEF" stroke-miterlimit="10" stroke-linecap="round" stroke-linejoin="round"/>
<path d="M2871.94 418.217L2819.64 327.502H2715.04L2662.56 418.217L2715.04 508.76" stroke="#5D5FEF" stroke-miterlimit="10" stroke-linecap="round" stroke-linejoin="round"/>
<path d="M2939.34 254.966L2942.76 248.964H2872.46L2875.89 254.966L2872.97 260.282H2942.42L2939.34 254.966Z" fill="#5BF1CD"/>
<path d="M2452.32 172.997L2448.89 178.999H2520.06L2516.63 172.997L2519.55 167.681H2449.41L2452.32 172.997Z" fill="#FFE48D"/>
<path d="M2682.8 247.763L2718.64 185.858H2712.98L2709.72 180.199L2674.05 242.104H2679.54L2682.8 247.763Z" fill="#5BF1CD"/>
<path d="M2448.89 342.25H2520.06L2516.63 336.249L2519.55 330.933H2449.41L2452.32 336.249L2448.89 342.25Z" fill="#FFE48D"/>
<path d="M2821.7 185.858H2814.67L2850.34 247.763L2853.59 242.104H2860.62L2824.96 180.199L2821.7 185.858Z" fill="#FFE48D"/>
<path d="M2538.75 185.858H2531.89L2567.73 247.763L2570.99 242.104H2577.68L2542.01 180.199L2538.75 185.858Z" fill="#5BF1CD"/>
<path d="M2542.01 329.732L2578.19 267.14H2570.99L2567.73 261.481L2531.55 324.073H2538.75L2542.01 329.732Z" fill="#5BF1CD"/>
<path d="M2658.62 254.966L2662.05 248.964H2589.68L2593.11 254.966L2590.03 260.282H2661.7L2658.62 254.966Z" fill="#5BF1CD"/>
<path d="M2582.14 260.282L2585.05 254.966L2581.62 248.964H2574.93L2571.68 254.623L2574.93 260.282H2582.14Z" fill="#6F3FF5"/>
<path d="M2669.59 260.282H2675.59L2678.85 254.623L2675.59 248.964H2670.11L2666.68 254.966L2669.59 260.282Z" fill="#6F3FF5"/>
<path d="M2817.75 330.933H2810.21L2807.29 336.249L2810.72 342.25H2817.75L2821.01 336.592L2817.75 330.933Z" fill="#5D5FEF"/>
<path d="M2581.62 412.215H2574.93L2571.68 417.874L2574.93 423.533H2582.14L2585.05 418.217L2581.62 412.215Z" fill="#6F3FF5"/>
<path d="M2675.59 412.215H2670.11L2666.68 418.217L2669.59 423.533H2675.59L2678.85 417.874L2675.59 412.215Z" fill="#6F3FF5"/>
<path d="M2810.72 178.999H2817.75L2821.01 173.34L2817.75 167.681H2810.21L2807.29 172.997L2810.72 178.999Z" fill="#5D5FEF"/>
<path d="M2958.37 248.964H2950.82L2947.39 254.966L2950.31 260.282H2958.37L2961.63 254.623L2958.37 248.964Z" fill="#5D5FEF"/>
<path d="M2441.52 330.933H2433.98L2430.72 336.592L2433.98 342.25H2441.01L2444.44 336.249L2441.52 330.933Z" fill="#6F3FF5"/>
<path d="M2669.59 97.0298H2675.59L2678.85 91.3708L2675.59 85.7119H2670.11L2666.68 91.7138L2669.59 97.0298Z" fill="#6F3FF5"/>
<path d="M2574.93 97.0298H2582.14L2585.05 91.7138L2581.62 85.7119H2574.93L2571.68 91.3708L2574.93 97.0298Z" fill="#6F3FF5"/>
<path d="M2433.98 178.999H2441.01L2444.44 172.997L2441.52 167.681H2433.98L2430.89 173.34L2433.98 178.999Z" fill="#6F3FF5"/>
<path d="M2864.57 248.964H2857.54L2854.45 254.623L2857.54 260.282H2865.08L2868 254.966L2864.57 248.964Z" fill="#5D5FEF"/>
<path d="M2570.99 405.356H2577.68L2542.01 343.451L2538.75 349.11H2531.89L2567.73 411.015L2570.99 405.356Z" fill="#FFE48D"/>
<path d="M2391.1 242.104H2398.14L2401.39 247.763L2437.06 185.858H2430.03L2426.77 180.199L2391.1 242.104Z" fill="#FFE48D"/>
<path d="M2379.27 248.964H2308.96L2312.39 254.966L2309.31 260.282H2378.76L2375.84 254.966L2379.27 248.964Z" fill="#5BF1CD"/>
<path d="M2387.16 248.964L2383.73 254.966L2386.65 260.282H2394.19L2397.28 254.623L2394.19 248.964H2387.16Z" fill="#6F3FF5"/>
<path d="M2590.03 423.533H2661.7L2658.62 418.217L2662.05 412.215H2589.68L2593.11 418.217L2590.03 423.533Z" fill="#FFE48D"/>
<path d="M2682.8 411.015L2718.64 349.11H2712.98L2709.72 343.451L2674.05 405.356H2679.54L2682.8 411.015Z" fill="#FFE48D"/>
<path d="M2730.47 342.25H2802.83L2799.41 336.249L2802.32 330.933H2730.81L2733.9 336.249L2730.47 342.25Z" fill="#FFE48D"/>
<path d="M2300.91 248.964H2293.36L2290.1 254.623L2293.36 260.282H2301.42L2304.33 254.966L2300.91 248.964Z" fill="#6F3FF5"/>
<path d="M2722.92 330.933H2716.92L2713.66 336.592L2716.92 342.25H2722.58L2726.01 336.249L2722.92 330.933Z" fill="#5D5FEF"/>
<path d="M2662.05 85.7119H2589.68L2593.11 91.7138L2590.03 97.0298H2661.7L2658.62 91.7138L2662.05 85.7119Z" fill="#FFE48D"/>
<path d="M2527.61 167.681L2524.52 172.997L2527.95 178.999H2534.81L2538.07 173.34L2534.81 167.681H2527.61Z" fill="#6F3FF5"/>
<path d="M2430.03 324.073H2437.41L2401.39 261.481L2398.14 267.14H2390.59L2426.77 329.732L2430.03 324.073Z" fill="#FFE48D"/>
<path d="M2567.73 98.23L2531.55 160.821H2538.75L2542.01 166.48L2578.19 103.889H2570.99L2567.73 98.23Z" fill="#FFE48D"/>
<path d="M2534.81 342.25L2538.07 336.592L2534.81 330.933H2527.61L2524.52 336.249L2527.95 342.25H2534.81Z" fill="#6F3FF5"/>
<path d="M2716.92 167.681L2713.66 173.34L2716.92 178.999H2722.58L2726.01 172.997L2722.92 167.681H2716.92Z" fill="#6F3FF5"/>
<path d="M2679.54 103.889H2673.54L2709.72 166.48L2712.98 160.821H2718.98L2682.8 98.23L2679.54 103.889Z" fill="#FFE48D"/>
<path d="M2718.98 324.073L2682.8 261.481L2679.54 267.14H2673.54L2709.72 329.732L2712.98 324.073H2718.98Z" fill="#5BF1CD"/>
<path d="M2824.96 329.732L2861.14 267.14H2853.59L2850.34 261.481L2814.32 324.073H2821.7L2824.96 329.732Z" fill="#FFE48D"/>
<path d="M2802.32 167.681H2730.81L2733.9 172.997L2730.47 178.999H2802.83L2799.41 172.997L2802.32 167.681Z" fill="#FFE48D"/>
<path d="M2453.87 247.763C2454.73 249.477 2455.75 251.192 2456.78 252.564C2455.58 256.337 2455.41 260.624 2456.1 264.739C2458.67 278.801 2472.22 288.233 2486.28 285.66C2500.17 283.088 2509.6 269.884 2507.2 255.822L2503.94 232.158" stroke="#6F3FF5" stroke-miterlimit="10"/>
<path d="M2460.21 238.846C2458.15 239.189 2456.61 240.046 2455.58 242.104C2454.73 243.819 2454.55 246.048 2454.9 249.135C2453.87 248.278 2452.67 246.906 2451.81 245.534C2450.61 243.476 2450.1 241.418 2450.95 239.875L2451.3 239.361L2450.78 239.018C2448.72 237.303 2447.69 235.245 2447.69 233.187C2447.69 231.129 2448.72 228.9 2451.12 226.671L2451.47 226.328L2451.3 225.813C2450.78 223.241 2450.78 221.698 2451.3 220.669C2451.81 219.64 2453.18 218.954 2455.75 218.783H2456.61L2456.44 217.925C2456.1 215.524 2457.3 212.952 2459.36 211.237C2461.41 209.523 2463.99 208.837 2465.87 209.865L2466.73 210.38L2466.9 209.351C2467.24 206.779 2469.82 205.235 2472.9 204.892C2474.45 204.721 2475.99 204.721 2477.36 205.064C2478.73 205.407 2479.76 205.921 2480.45 206.779L2481.3 207.808L2481.82 206.607C2482.16 205.75 2482.85 205.064 2484.05 204.55C2485.08 204.035 2486.45 204.035 2487.82 204.207C2490.56 204.55 2492.79 206.093 2492.97 208.837L2493.14 210.38L2494.34 209.351C2496.05 207.808 2498.62 207.808 2500.85 209.008C2503.08 210.208 2504.28 212.266 2503.77 214.496L2503.6 215.01L2504.11 215.353C2508.74 217.925 2509.94 221.869 2509.43 225.299C2508.91 228.557 2506.68 231.301 2504.11 232.33C2503.94 231.815 2503.94 231.301 2503.77 230.786V230.615C2503.6 229.757 2503.43 228.9 2502.91 227.871L2502.57 227.357L2502.05 227.528C2498.62 228.557 2493.82 228.386 2490.39 226.842L2489.54 226.499L2489.36 227.357C2489.36 227.357 2489.36 227.528 2489.19 227.7C2489.02 227.871 2488.68 228.043 2488.34 228.214C2487.65 228.557 2486.62 228.9 2485.59 229.243C2483.36 229.757 2480.96 229.757 2479.59 229.243L2478.73 228.9L2478.56 229.757C2478.56 229.757 2478.56 229.757 2478.56 229.929C2478.56 230.1 2478.56 230.272 2478.39 230.443C2478.22 230.786 2477.88 231.472 2477.36 231.987C2476.33 233.187 2474.45 234.559 2470.84 235.073L2469.99 235.245L2470.33 236.102C2470.84 237.646 2471.7 240.046 2472.04 242.276C2472.22 243.305 2472.22 244.333 2472.04 245.191C2471.87 246.048 2471.53 246.563 2470.84 246.906C2469.99 247.42 2469.47 247.42 2469.3 247.42C2469.13 247.42 2468.96 247.249 2468.79 246.906C2468.62 246.563 2468.44 245.877 2468.44 245.191C2468.44 245.191 2468.44 245.191 2468.44 245.019C2468.27 244.333 2468.27 243.648 2467.93 243.133C2466.9 240.389 2464.16 238.503 2460.21 238.846Z" stroke="#6F3FF5" stroke-miterlimit="10"/>
<path d="M2475.99 285.488C2474.62 290.633 2472.22 295.434 2468.96 299.55C2468.96 299.55 2483.36 312.24 2502.05 299.036C2502.05 299.036 2492.79 289.776 2492.11 283.431" stroke="#6F3FF5" stroke-miterlimit="10"/>
<path d="M2468.96 299.55L2448.72 309.496" stroke="#6F3FF5" stroke-miterlimit="10"/>
<path d="M2522.29 309.496L2502.05 299.55" stroke="#6F3FF5" stroke-miterlimit="10"/>
<path d="M2347.38 207.294H2321.65C2321.65 207.294 2318.57 207.294 2316.51 205.407C2315.31 204.207 2314.8 202.664 2314.8 200.777C2314.8 193.404 2311.02 151.562 2310.85 149.847C2310.85 149.676 2311.19 127.04 2333.14 124.811C2334 124.811 2334.86 124.639 2335.72 124.639C2355.27 124.639 2358.35 147.618 2358.52 148.475L2359.9 192.375C2349.95 195.804 2347.72 204.722 2347.38 207.294Z" stroke="#6F3FF5" stroke-miterlimit="10"/>
<path d="M2347.89 184.143C2348.23 185.858 2348.06 187.23 2347.38 188.259C2346.35 189.631 2344.8 189.802 2344.63 189.802H2332.11C2328.17 189.802 2326.46 187.401 2326.11 186.029" stroke="#6F3FF5" stroke-miterlimit="10"/>
<path d="M2348.75 169.225L2323.37 170.082C2322.68 170.082 2322.17 169.91 2321.65 169.396C2321.14 168.882 2320.97 168.367 2320.8 167.681L2320.28 155.849C2320.28 155.334 2320.45 154.649 2320.8 154.306C2320.8 154.306 2320.8 154.134 2320.97 154.134C2320.97 154.134 2320.97 154.134 2321.14 154.134C2321.65 153.62 2322.17 153.448 2322.68 153.448L2348.06 152.762C2349.43 152.762 2350.46 153.791 2350.64 155.163L2351.15 166.824C2351.15 168.024 2350.12 169.225 2348.75 169.225Z" stroke="#6F3FF5" stroke-miterlimit="10"/>
<path d="M2358.87 151.047H2361.27C2362.47 151.047 2363.67 151.39 2364.53 152.248C2365.38 153.105 2365.9 154.134 2366.07 155.506L2366.41 167.167C2366.58 169.739 2364.53 171.797 2361.95 171.968H2359.55" stroke="#6F3FF5" stroke-miterlimit="10"/>
<path d="M2312.22 172.483L2310.34 172.654C2307.76 172.826 2305.54 170.939 2305.36 168.367L2304.51 156.878C2304.33 155.677 2304.85 154.477 2305.54 153.448C2306.39 152.419 2307.42 151.905 2308.62 151.905L2310.51 151.733" stroke="#6F3FF5" stroke-miterlimit="10"/>
<path d="M2307.25 152.591C2307.08 147.789 2307.08 119.495 2331.43 117.608C2339.83 116.923 2346.69 118.98 2351.84 123.61C2361.95 132.527 2362.12 148.304 2362.12 150.876" stroke="#6F3FF5" stroke-miterlimit="10"/>
<path d="M2350.29 153.791L2348.41 150.705C2347.38 149.161 2345.83 148.304 2344.46 148.475L2326.8 149.333C2325.43 149.333 2324.06 150.19 2323.2 151.562L2321.14 154.649" stroke="#6F3FF5" stroke-miterlimit="10"/>
<path d="M2315.14 198.548C2315.14 198.548 2305.36 197.348 2302.45 221.527" stroke="#6F3FF5" stroke-miterlimit="10"/>
<path d="M2360.07 192.375C2360.07 192.375 2376.36 188.774 2390.76 212.61" stroke="#6F3FF5" stroke-miterlimit="10"/>
<path d="M2374.64 195.804C2374.64 195.804 2359.89 194.947 2355.26 217.24" stroke="#6F3FF5" stroke-miterlimit="10"/>
<path d="M2314.62 202.148C2314.62 202.148 2310.68 209.522 2309.14 221.697" stroke="#6F3FF5" stroke-miterlimit="10"/>
</svg>
