<svg width="700" height="650" viewBox="0 0 550 516" fill="none" xmlns="http://www.w3.org/2000/svg">
<path d="M328.325 218.754C328.325 218.754 329.098 220.094 330.643 224.03V223.946C330.875 224.03 351.349 234.916 364.33 255.35L365.257 255.434H366.957C368.193 255.35 368.502 256.271 368.579 257.611L369.197 267.158C369.197 267.828 369.12 268.665 368.734 269.251C368.347 269.838 367.807 270.089 367.188 270.256L365.102 270.424C363.325 274.108 357.067 287.759 343.237 299.734L331.184 309.448L331.338 316.064C332.266 315.813 333.733 315.562 334.506 316.148C335.433 316.818 336.592 317.571 336.438 318.744L336.36 326.867C336.36 329.044 335.433 331.054 333.811 332.31L330.797 383.31C330.797 383.729 330.875 394.113 325.93 402.571L326.548 402.655L321.371 444.778L320.444 446.369C322.53 446.788 327.63 447.625 334.043 448.63C338.369 449.3 341.692 451.394 343.855 454.576C347.873 460.522 346.714 468.478 346.559 468.812L346.482 469.482H298.038V449.886L299.583 447.458L298.424 445.532L296.956 410.443L295.256 409.187V408.768C295.256 408.517 297.497 382.557 290.003 368.236C285.135 376.527 278.181 389.926 274.241 404.497L274.164 404.916L273.623 405L273.855 405.084C273.777 405.335 267.828 426.187 266.283 453.822C266.592 454.074 266.901 454.409 267.21 454.744C270.223 458.01 271.537 463.034 271.537 471.744V472.581H234.837V471.911C234.837 471.492 234.759 462.615 240.168 456.335C240.786 455.665 241.327 454.744 242.099 454.241L239.395 450.473V450.221C239.395 450.138 238.545 432.551 241.404 399.891L240.168 398.887V398.049C241.636 369.995 244.804 348.222 245.422 343.281C244.572 343.197 244.34 343.03 243.877 342.443C243.258 341.773 242.486 340.936 242.486 339.931L241.79 331.473C241.79 330.468 242.177 329.547 242.872 328.877C243.258 328.458 243.954 328.039 244.572 327.872L244.34 324.941L237.773 322.094C234.759 320.921 232.519 318.325 232.132 314.892L228.733 286.586L219.075 305.764C219.307 306.015 219.461 306.35 219.693 306.601L220.543 308.443C221.161 309.951 220.466 310.788 219.152 311.626L209.572 317.823C209.185 318.158 208.645 318.241 208.104 318.241C207.872 318.241 207.486 318.576 207.331 318.493C206.558 318.241 206.327 318.158 205.863 317.488L204.781 315.31C204.704 315.059 204.55 314.473 204.55 314.138L173.953 300.153C173.335 299.902 172.717 299.734 172.563 298.98V299.064L164.064 295.882L161.591 296.971L150.388 295.547C149.307 295.463 148.379 294.961 147.838 294.039C147.22 293.118 146.989 292.113 147.22 290.941L149.616 278.128C149.77 278.296 150.543 266.823 153.942 264.059C155.333 262.887 163.677 267.66 163.677 267.66C164.527 267.325 167 266.237 167.85 266.655L181.139 273.187L181.216 273.104C181.989 272.517 182.761 272.517 183.611 272.852L198.832 281.394L226.261 229.808L230.819 226.291C230.742 225.872 230.587 225.37 230.587 224.951C230.664 223.695 230.742 222.104 231.901 221.35L236.614 219.256C237.541 218.67 239.163 218.335 240.091 218.838L247.122 217.582C247.508 218.252 243.181 211.133 245.499 205.857C247.971 200.079 257.089 195.976 257.475 196.729L317.354 201.587C330.411 209.626 328.325 218.754 328.325 218.754ZM342.928 262.803L336.36 259.537L335.897 271.177L342.928 262.803Z" fill="white"/>
<path d="M230.981 306.121C230.981 322.169 239.371 323.64 244.306 323.774L242.826 304.115L241.345 301.306V295.689L242.826 292.078L239.865 268.006L237.644 267.204L228.76 286.863L230.981 306.121Z" fill="#B8A9E7"/>
<path d="M297.037 286.163C287.735 286.163 280.194 277.989 280.194 267.907C280.194 257.824 287.735 249.651 297.037 249.651C306.34 249.651 313.881 257.824 313.881 267.907C313.881 277.989 306.34 286.163 297.037 286.163Z" stroke="#3502C4" stroke-width="1.37477" stroke-miterlimit="10"/>
<path d="M259.333 321.503C260.26 320.498 261.419 319.912 262.732 319.912L272.004 319.661C273.24 319.661 274.554 320.08 275.481 321.168C276.408 322.089 276.949 323.429 276.949 324.853V326.36V327.951L277.258 340.513V342.104V344.281C277.335 347.129 275.172 349.557 272.545 349.641L263.273 349.892H263.196C261.96 349.892 260.801 349.306 259.796 348.385C258.869 347.38 258.328 346.124 258.328 344.7V343.109V341.518L258.097 329.124V327.533V325.439C258.097 323.932 258.483 322.592 259.333 321.503Z" stroke="#3502C4" stroke-width="1.37477" stroke-miterlimit="10"/>
<path d="M314.577 313.549C315.118 312.963 315.736 312.628 316.508 312.628L319.444 312.544C320.912 312.544 322.071 313.8 322.149 315.308L322.226 318.741L322.303 320.332L322.612 334.401V335.992L322.689 339.677C322.689 341.268 321.531 342.524 320.14 342.608L317.204 342.692H317.127C315.659 342.692 314.5 341.435 314.5 339.928L314.422 337.751V336.16L314.113 322.509V320.918L314.036 315.642C313.881 314.805 314.191 314.135 314.577 313.549Z" stroke="#3502C4" stroke-width="1.37477" stroke-miterlimit="10"/>
<path d="M204.634 314.8L206.025 317.479C206.257 317.898 206.643 318.317 207.03 318.484C207.416 318.652 207.957 318.484 208.343 318.317L220.087 310.78C220.86 310.194 221.091 309.272 220.705 308.435L219.701 306.174C219.469 305.504 218.774 305.169 218.155 305.169C217.924 305.169 217.615 305.169 217.383 305.337L213.133 307.598L209.811 305.337L209.038 309.775L205.175 312.539C204.789 312.79 204.557 313.208 204.403 313.627C204.403 313.795 204.403 313.878 204.403 314.046C204.325 314.213 204.48 314.465 204.634 314.8Z" fill="#46FFD3" stroke="#3502C4" stroke-width="1.37477" stroke-miterlimit="10"/>
<path d="M362.012 260.536V258.024C362.012 257.187 362.398 256.433 362.939 255.93C363.325 255.595 363.789 255.344 364.407 255.344H364.484L366.029 255.26C367.266 255.177 368.425 256.265 368.579 257.689L369.197 267.236C369.197 267.906 368.965 268.576 368.579 269.162C368.193 269.748 367.42 270.083 366.802 270.167L365.102 270.251H364.871H364.639C364.252 270.251 363.866 270.167 363.557 269.999C362.784 269.664 362.398 268.994 362.321 268.073L362.012 265.477L358.612 262.965L362.012 260.536Z" fill="#46FFD3" stroke="#3502C4" stroke-width="1.37477" stroke-miterlimit="10"/>
<path d="M267.367 259.532C267.367 259.364 267.367 259.364 267.367 259.532C267.985 258.862 268.603 258.527 269.453 258.527H273.007C274.553 258.527 275.866 259.867 275.866 261.625V262.882V264.473L275.943 273.266V274.857V277.034C275.943 278.709 274.707 280.216 273.085 280.216H269.376C268.603 280.216 267.908 279.882 267.367 279.295C267.29 279.212 267.135 278.96 267.058 278.877C266.749 278.458 266.517 277.704 266.517 277.202V261.793C266.517 260.788 266.826 260.034 267.367 259.532Z" stroke="#3502C4" stroke-width="1.37477" stroke-miterlimit="10"/>
<path d="M260.104 271.094L260.181 262.217V260.709C260.181 259.788 260.413 258.867 260.954 258.281L261.031 258.197C261.417 257.862 261.803 257.611 262.267 257.778L264.585 258.03C265.28 258.113 265.821 258.7 266.207 259.537C266.439 259.956 266.594 260.709 266.594 261.379V276.704C266.594 277.542 266.362 278.296 265.976 278.882C265.976 278.966 265.898 278.966 265.898 279.133C265.512 279.552 265.126 279.803 264.662 279.803H264.585L262.19 279.719C261.572 279.719 261.031 279.133 260.644 278.463C260.413 277.877 260.181 277.207 260.181 276.537L260.104 271.094Z" stroke="#3502C4" stroke-width="1.37477" stroke-miterlimit="10"/>
<path d="M324.774 404.829C324.851 404.745 325.006 404.494 325.161 404.243C325.547 403.656 325.933 403.07 326.242 402.568C331.11 394.11 331.11 383.725 331.11 383.307L334.123 332.307V332.056" stroke="#3502C4" stroke-width="1.37477" stroke-miterlimit="10"/>
<path d="M297.114 410.27L298.582 445.442L299.903 449.681L300.444 450.518H301.216L314.815 450.1H316.36L319.373 450.016H319.759L320.609 448.676L321.374 444.772L326.551 402.649L325.933 402.565" stroke="#3502C4" stroke-width="1.37477" stroke-miterlimit="10"/>
<path d="M270.305 406.087L272.546 405.417L273.937 404.998L274.478 404.914L274.555 404.496C278.573 389.757 285.526 376.525 290.317 368.235C290.626 367.649 290.935 367.23 291.244 366.727C293.948 362.038 295.957 359.274 296.111 359.19" stroke="#3502C4" stroke-width="1.37477" stroke-miterlimit="10"/>
<path d="M266.516 453.739C268.216 426.02 274.088 405.252 274.088 405.001L273.856 404.917" stroke="#3502C4" stroke-width="1.37477" stroke-miterlimit="10"/>
<path d="M241.41 399.302V399.386C238.706 432.214 239.401 449.716 239.401 449.8V450.051L241.796 453.317L242.105 453.736" stroke="#3502C4" stroke-width="1.37477" stroke-miterlimit="10"/>
<path d="M245.197 343.362C244.425 348.302 241.489 369.741 240.021 397.795L239.943 398.13L241.489 399.721L242.879 401.061L243.497 401.647" stroke="#3502C4" stroke-width="1.37477" stroke-miterlimit="10"/>
<path d="M322.609 335.989C326.163 335.151 329.331 334.314 331.958 333.393C332.035 333.393 332.267 333.309 332.345 333.309C332.885 333.058 333.426 332.723 333.813 332.388C335.358 331.132 336.362 329.122 336.362 326.945L336.439 318.821C336.439 317.649 335.899 316.56 335.049 315.89C334.276 315.304 333.349 315.053 332.422 315.304C332.345 315.304 332.113 315.388 332.035 315.388C331.726 315.472 331.263 315.639 330.954 315.807C328.25 316.979 325.159 317.984 321.991 318.905" stroke="#3502C4" stroke-width="1.37477" stroke-miterlimit="10"/>
<path d="M314.191 320.836C303.066 323.432 291.785 325.19 276.951 326.279" stroke="#3502C4" stroke-width="1.37477" stroke-miterlimit="10"/>
<path d="M258.173 327.115C253.151 327.199 248.902 327.366 246.198 327.199H245.579C245.348 327.199 245.039 327.199 244.807 327.283C244.189 327.366 243.648 327.701 243.107 328.288C242.334 329.209 241.948 330.13 241.948 331.135V339.425C241.948 340.43 242.334 341.352 243.03 342.021C243.648 342.691 244.421 343.026 245.116 343.026C245.193 343.026 245.348 343.026 245.425 343.026H245.502C245.889 343.026 246.275 343.026 246.661 343.026C250.679 342.943 254.542 342.943 258.482 342.691" stroke="#3502C4" stroke-width="1.37477" stroke-miterlimit="10"/>
<path d="M277.263 342.106C292.175 341.101 303.687 339.844 314.504 337.751" stroke="#3502C4" stroke-width="1.37477" stroke-miterlimit="10"/>
<path d="M330.491 281.059L331.264 315.729V316.399" stroke="#3502C4" stroke-width="1.37477" stroke-miterlimit="10"/>
<path d="M242.722 302.746L244.267 322.928L244.344 324.603L244.576 327.534" stroke="#3502C4" stroke-width="1.37477" stroke-miterlimit="10"/>
<path d="M243.109 292.611L240.173 268.912C240.096 268.074 239.555 267.572 238.783 267.321C238.01 267.237 237.315 267.572 237.006 268.242L219.235 305.424" stroke="#3502C4" stroke-width="1.37477" stroke-miterlimit="10"/>
<path d="M232.293 221.096L236.928 219.254C237.856 218.667 238.937 218.584 239.864 219.002C240.251 219.254 240.714 219.421 241.101 219.923C241.101 219.923 241.255 220.091 241.41 220.258C256.785 238.515 259.335 254.761 259.335 254.761C260.107 260.037 260.107 265.229 260.107 268.997C260.107 273.938 260.03 276.367 259.567 279.381C259.567 279.381 257.249 294.455 246.355 302.495C245.814 302.913 245.196 303.081 245.196 303.081C244.964 303.165 244.655 303.165 244.346 303.165H244.268C243.728 303.165 243.341 303.081 242.878 302.746C242.878 302.746 242.801 302.746 242.801 302.662C241.719 302.076 241.101 300.82 241.023 299.564L240.946 296.298C240.946 295.293 241.255 294.455 241.873 293.702C242.182 293.367 242.646 293.032 243.11 292.697C243.11 292.697 243.187 292.697 243.187 292.613C245.582 288.677 249.6 281.14 250.527 270.756C250.759 267.992 251.84 253.253 242.955 239.352C239.169 233.406 234.765 229.638 231.829 227.46C231.752 227.46 231.675 227.377 231.597 227.293C230.979 226.707 230.747 225.953 230.67 225.618C230.593 225.367 230.438 224.864 230.438 224.278C230.516 222.771 231.134 221.766 232.293 221.096Z" fill="#C9B8FF" stroke="#3502C4" stroke-width="1.37477" stroke-miterlimit="10"/>
<path d="M230.826 225.534L230.749 225.618L226.19 229.135L198.762 280.721" stroke="#3502C4" stroke-width="1.37477" stroke-miterlimit="10"/>
<path d="M203.01 282.732L199.843 281.141L198.452 280.471L183.54 272.683C182.768 272.264 181.84 272.348 181.145 272.934L181.068 273.018C180.681 273.353 180.295 273.856 180.218 274.358C180.141 274.609 180.141 274.944 180.141 275.195C180.45 279.969 179.909 289.097 173.187 295.713C172.878 296.048 172.569 296.55 172.414 296.969C172.414 297.388 172.414 297.806 172.414 298.141C172.414 298.225 172.492 298.476 172.492 298.56C172.723 299.23 173.11 299.816 173.728 300.067L204.479 314.136" stroke="#3502C4" stroke-width="1.37477" stroke-miterlimit="10"/>
<path d="M228.505 286.25L231.905 314.639C232.291 318.073 234.532 320.92 237.622 322.092L244.576 324.605" stroke="#3502C4" stroke-width="1.37477" stroke-miterlimit="10"/>
<path d="M321.224 227.626C326.787 234.325 328.487 244.793 329.414 255.345C329.491 255.931 329.491 256.517 329.491 256.936C329.723 259.867 329.877 262.714 329.877 265.394C329.877 265.98 329.877 266.567 329.877 267.069C329.955 274.522 329.568 279.882 329.568 280.049L329.491 281.222L330.341 280.97L331.268 280.719L331.809 280.635L333.586 280.217L334.127 280.133L334.204 279.714C334.745 276.783 335.131 273.768 335.44 271.005C335.518 270.335 335.518 269.498 335.672 268.828C335.981 266.232 336.058 263.552 336.213 261.207C336.213 260.621 336.213 260.035 336.29 259.532C336.599 244.458 333.895 233.32 331.423 226.37C331.191 225.532 330.882 224.862 330.65 224.192C329.105 220.173 327.791 218.163 327.714 217.995L327.482 217.744L324.469 217.074" fill="#C9B8FF"/>
<path d="M321.224 227.626C326.787 234.325 328.487 244.793 329.414 255.345C329.491 255.931 329.491 256.517 329.491 256.936C329.723 259.867 329.877 262.714 329.877 265.394C329.877 265.98 329.877 266.567 329.877 267.069C329.955 274.522 329.568 279.882 329.568 280.049L329.491 281.222L330.341 280.97L331.268 280.719L331.809 280.635L333.586 280.217L334.127 280.133L334.204 279.714C334.745 276.783 335.131 273.768 335.44 271.005C335.518 270.335 335.518 269.498 335.672 268.828C335.981 266.232 336.058 263.552 336.213 261.207C336.213 260.621 336.213 260.035 336.29 259.532C336.599 244.458 333.895 233.32 331.423 226.37C331.191 225.532 330.882 224.862 330.65 224.192C329.105 220.173 327.791 218.163 327.714 217.995L327.482 217.744L324.469 217.074" stroke="#3502C4" stroke-width="1.37477" stroke-miterlimit="10"/>
<path d="M364.49 255.175C351.433 234.741 330.958 223.771 330.803 223.771V223.855" stroke="#3502C4" stroke-width="1.37477" stroke-miterlimit="10"/>
<path d="M331.342 280.809C331.574 280.893 331.729 280.893 331.883 281.06C344.014 286.085 341.464 298.311 341.387 298.814L340.846 301.075L342.082 300.07L342.468 299.735C356.376 287.592 363.561 273.858 365.184 270.257" stroke="#3502C4" stroke-width="1.37477" stroke-miterlimit="10"/>
<path d="M345.406 259.62L335.748 271.009" stroke="#3502C4" stroke-width="1.37477" stroke-miterlimit="10"/>
<path d="M336.364 259.281L342.545 262.798" stroke="#3502C4" stroke-width="1.37477" stroke-miterlimit="10"/>
<path d="M331.111 309.362L342.314 299.983" stroke="#3502C4" stroke-width="1.37477" stroke-miterlimit="10"/>
<path d="M239.942 455.403C240.56 454.733 241.178 454.063 241.951 453.561C242.337 453.226 242.801 452.891 243.187 452.64C245.582 451.049 248.673 450.211 251.995 450.127C257.79 450.044 261.962 450.797 265.053 452.724C265.594 453.058 265.98 453.393 266.443 453.728C266.752 453.98 267.061 454.315 267.371 454.65C270.384 457.916 271.697 462.94 271.697 471.65V472.487H234.997V471.817C234.997 471.315 234.534 461.684 239.942 455.403Z" stroke="#3502C4" stroke-width="1.37477" stroke-miterlimit="10"/>
<path d="M271.541 467.808H235.305" stroke="#3502C4" stroke-width="1.37477" stroke-miterlimit="10"/>
<path d="M245.66 451.895L247.205 456.417C247.746 457.673 248.905 458.51 250.064 458.51H259.026C260.417 458.51 261.576 457.505 261.962 455.998L263.121 452.23" stroke="#3502C4" stroke-width="1.37477" stroke-miterlimit="10"/>
<path d="M289.854 367.396C289.931 367.479 290.163 367.814 290.24 368.233C297.58 382.47 295.494 408.346 295.494 408.765V409.184L297.194 410.44L298.662 411.612L300.053 412.617" stroke="#3502C4" stroke-width="1.37477" stroke-miterlimit="10"/>
<path d="M300.236 449.762L298.691 452.191V471.787H347.135L347.212 471.117C347.289 470.782 348.448 462.826 344.508 456.881C342.267 453.615 339.022 451.605 334.696 450.935C328.36 449.93 323.338 449.009 321.097 448.674" stroke="#3502C4" stroke-width="1.37477" stroke-miterlimit="10"/>
<path d="M347.363 466.173H298.688" stroke="#3502C4" stroke-width="1.37477" stroke-miterlimit="10"/>
<path d="M163.215 295.88L172.486 298.727" stroke="#3502C4" stroke-width="1.37477" stroke-miterlimit="10"/>
<path d="M163.995 267.825L163.454 267.741L156.192 264.308C156.114 264.308 155.805 264.224 155.496 264.224C154.955 264.14 154.569 264.14 154.028 264.308C153.796 264.392 153.642 264.392 153.41 264.559C152.483 265.145 151.865 266.066 151.633 267.155L150.397 273.101L149.779 276.283L146.843 290.687C146.92 291.943 147.229 292.948 147.77 293.869C148.388 294.791 149.315 295.209 150.319 295.377L154.183 296.047L155.651 296.298L160.518 297.135C160.596 297.135 160.75 297.135 160.827 297.135C161.754 297.135 162.759 296.717 163.377 295.963C163.377 295.963 163.454 295.963 163.454 295.879C163.763 295.544 164.072 295.042 164.227 294.623C164.304 294.372 164.304 294.204 164.304 293.953L164.536 292.362L166.004 282.899V282.564" stroke="#3502C4" stroke-width="1.37477" stroke-miterlimit="10"/>
<path d="M126.633 335.59C127.993 340.16 132.514 342.67 136.731 341.196L172.18 328.805C176.396 327.33 178.712 322.43 177.352 317.86L157.96 252.688C156.6 248.118 152.079 245.607 147.862 247.081L112.413 259.473C108.196 260.947 105.881 265.848 107.241 270.418L126.633 335.59Z" fill="white"/>
<path fill-rule="evenodd" clip-rule="evenodd" d="M171.81 327.563L136.362 339.955C132.777 341.208 128.934 339.074 127.778 335.189L108.386 270.018C107.23 266.133 109.198 261.968 112.783 260.715L148.231 248.323C151.816 247.07 155.658 249.203 156.814 253.088L176.207 318.26C177.363 322.145 175.394 326.31 171.81 327.563ZM136.731 341.196C132.514 342.67 127.993 340.16 126.633 335.59L107.241 270.418C105.881 265.848 108.196 260.947 112.413 259.473L147.862 247.081C152.079 245.607 156.6 248.118 157.96 252.688L177.352 317.86C178.712 322.43 176.396 327.33 172.18 328.805L136.731 341.196Z" fill="#3502C4"/>
<path d="M130.228 332.849C130.908 335.134 133.168 336.389 135.277 335.652L170.094 323.481C172.202 322.744 173.36 320.294 172.68 318.009L154.149 255.732C153.469 253.447 151.209 252.192 149.1 252.929L114.283 265.1C112.175 265.837 111.017 268.287 111.697 270.573L130.228 332.849Z" fill="#FCFAFF"/>
<path fill-rule="evenodd" clip-rule="evenodd" d="M132.916 293.496C132.916 292.914 132.96 292.333 133.048 291.759L136.213 290.534L134.771 287.242C135.4 286.297 136.166 285.467 137.038 284.785L140.076 286.348L141.205 282.917C142.267 282.726 143.35 282.726 144.412 282.917L145.541 286.348L148.579 284.785C149.451 285.467 150.217 286.297 150.846 287.242L149.404 290.534L152.569 291.759C152.745 292.909 152.745 294.084 152.569 295.234L149.404 296.459L150.846 299.751C150.217 300.696 149.451 301.526 148.579 302.208L145.541 300.645L144.412 304.076C143.35 304.267 142.267 304.267 141.205 304.076L140.076 300.645L137.038 302.208C136.166 301.526 135.4 300.696 134.771 299.751L136.213 296.459L133.048 295.234C132.96 294.66 132.916 294.079 132.916 293.496Z" fill="#F0EBFF" stroke="#3502C4" stroke-width="1.37477"/>
<ellipse rx="1.69428" ry="1.74397" transform="matrix(-0.973139 0 0 1.02471 142.812 293.498)" fill="#F0EBFF" stroke="#3502C4" stroke-width="1.37477"/>
<path fill-rule="evenodd" clip-rule="evenodd" d="M169.725 322.24L134.907 334.411C133.431 334.927 131.849 334.048 131.373 332.448L112.842 270.172C112.366 268.572 113.177 266.857 114.652 266.341L149.47 254.17C150.946 253.654 152.528 254.533 153.004 256.133L171.535 318.409C172.011 320.009 171.2 321.724 169.725 322.24ZM135.277 335.652C133.168 336.389 130.908 335.134 130.228 332.849L111.697 270.573C111.017 268.287 112.175 265.837 114.283 265.1L149.1 252.929C151.209 252.192 153.469 253.447 154.149 255.732L172.68 318.009C173.36 320.294 172.202 322.744 170.094 323.481L135.277 335.652Z" fill="#3502C4"/>
<path d="M181.143 273.101L168.008 266.904C167.158 266.485 166.231 266.485 165.458 266.82C165.072 266.904 164.608 267.239 164.222 267.658C164.145 267.741 164.145 267.741 163.99 267.909C163.913 267.993 163.681 268.244 163.604 268.495L163.218 269.332L159.972 275.111C159.586 276.116 159.432 277.204 159.663 278.209C159.895 279.214 160.513 280.052 161.363 280.47L164.608 282.396H164.686C165.072 282.648 165.535 282.815 166.076 282.815C166.154 282.815 166.308 282.815 166.385 282.815C166.694 282.815 167.158 282.731 167.467 282.731C168.394 282.396 169.167 281.726 169.553 280.805L170.944 277.874" fill="white"/>
<path d="M181.143 273.101L168.008 266.904C167.158 266.485 166.231 266.485 165.458 266.82C165.072 266.904 164.608 267.239 164.222 267.658C164.145 267.741 164.145 267.741 163.99 267.909C163.913 267.993 163.681 268.244 163.604 268.495L163.218 269.332L159.972 275.111C159.586 276.116 159.432 277.204 159.663 278.209C159.895 279.214 160.513 280.052 161.363 280.47L164.608 282.396H164.686C165.072 282.648 165.535 282.815 166.076 282.815C166.154 282.815 166.308 282.815 166.385 282.815C166.694 282.815 167.158 282.731 167.467 282.731C168.394 282.396 169.167 281.726 169.553 280.805L170.944 277.874" stroke="#3502C4" stroke-width="1.37477" stroke-miterlimit="10"/>
<path d="M257.943 210.545L246.817 217.077L239.864 219.171" stroke="#3502C4" stroke-width="1.37477" stroke-miterlimit="10"/>
<path d="M280.736 262.973C278.727 262.973 278.032 262.889 275.869 262.805" stroke="#3502C4" stroke-width="1.37477" stroke-miterlimit="10"/>
<path d="M329.566 255.18C328.948 255.515 324.158 258.111 312.105 260.539" stroke="#3502C4" stroke-width="1.37477" stroke-miterlimit="10"/>
<path d="M281.199 273.35C278.881 273.35 278.263 273.434 275.945 273.183" stroke="#3502C4" stroke-width="1.37477" stroke-miterlimit="10"/>
<path d="M330.031 265.313C329.954 265.313 324.932 268.076 313.651 270.505" stroke="#3502C4" stroke-width="1.37477" stroke-miterlimit="10"/>
<path d="M329.717 316.397V334.151" stroke="#3502C4" stroke-width="1.37477" stroke-miterlimit="10"/>
<path d="M308.471 322.006V338.671" stroke="#3502C4" stroke-width="1.37477" stroke-miterlimit="10"/>
<path d="M294.877 324.349V340.009" stroke="#3502C4" stroke-width="1.37477" stroke-miterlimit="10"/>
<path d="M282.355 325.694V341.689" stroke="#3502C4" stroke-width="1.37477" stroke-miterlimit="10"/>
<path d="M252.305 327.115V342.524" stroke="#3502C4" stroke-width="1.37477" stroke-miterlimit="10"/>
<path d="M314.994 450.1L315.766 452.277C316.616 454.706 318.47 456.381 320.788 456.632L331.605 457.972C331.914 457.972 332.223 457.972 332.455 457.972C334.232 457.972 335.932 457.134 337.091 455.711L339.1 453.198" stroke="#3502C4" stroke-width="1.37477" stroke-miterlimit="10"/>
<path d="M249.75 400.812C251.836 401.817 253.922 402.32 256.086 402.738C258.326 403.073 260.413 403.325 262.73 403.073" stroke="#3502C4" stroke-width="1.37477" stroke-miterlimit="10"/>
<path d="M314.809 403.323C316.277 403.658 317.745 403.574 319.136 403.323C320.604 402.988 321.994 402.653 323.23 401.732" stroke="#3502C4" stroke-width="1.37477" stroke-miterlimit="10"/>
<path d="M303.316 264.039C304.054 265.237 304.514 266.636 304.514 268.034C304.514 269.432 304.054 270.83 303.316 272.029L304.883 273.327C305.897 271.829 306.449 269.931 306.449 268.034C306.449 266.036 305.896 264.139 304.791 262.541L303.869 263.44L303.316 264.039Z" fill="#15EBB7"/>
<path d="M306.357 274.522L300.92 270.028C301.289 269.428 301.565 268.829 301.565 268.13C301.565 267.431 301.381 266.732 301.104 266.132L303.684 263.636L306.357 260.939C306.541 260.739 306.541 260.44 306.357 260.24L305.988 259.84C304.053 257.743 301.473 256.544 298.709 256.445V254.847C298.709 254.747 298.709 254.647 298.709 254.547C298.709 254.447 298.616 254.347 298.524 254.247C298.432 254.147 298.34 254.147 298.248 254.048C298.156 254.048 298.064 253.948 297.971 253.948C297.879 253.948 297.787 253.948 297.695 254.048C297.603 254.048 297.511 254.147 297.418 254.247C297.326 254.347 297.326 254.447 297.234 254.547C297.234 254.647 297.234 254.747 297.234 254.847V256.544C296.589 256.644 295.944 256.744 295.299 256.944V254.847C295.299 254.747 295.299 254.647 295.299 254.547C295.299 254.447 295.207 254.347 295.115 254.247C295.023 254.147 294.931 254.147 294.838 254.048C294.746 254.048 294.654 253.948 294.562 253.948C294.47 253.948 294.378 253.948 294.286 254.048C294.193 254.048 294.101 254.147 294.009 254.247C293.917 254.347 293.917 254.447 293.825 254.547C293.825 254.647 293.825 254.747 293.825 254.847V257.443C291.613 258.542 289.77 260.44 288.665 262.737C287.559 265.034 287.19 267.83 287.651 270.327C288.112 272.924 289.402 275.221 291.245 276.919C293.088 278.617 295.483 279.616 297.879 279.616H305.712C305.988 279.616 306.172 279.416 306.172 279.116V274.822C306.541 274.822 306.449 274.622 306.357 274.522ZM298.34 277.618C296.405 277.618 294.562 276.919 292.995 275.621C291.429 274.322 290.415 272.524 289.863 270.527C289.402 268.529 289.494 266.332 290.231 264.435C290.968 262.537 292.258 260.839 294.009 259.84V262.936C294.009 263.036 294.009 263.136 294.009 263.236C294.009 263.336 294.101 263.436 294.193 263.536C294.286 263.636 294.378 263.636 294.47 263.735C294.562 263.735 294.654 263.835 294.746 263.835C294.838 263.835 294.931 263.835 295.023 263.735C295.115 263.735 295.207 263.636 295.299 263.536C295.391 263.436 295.391 263.336 295.483 263.236C295.483 263.136 295.483 263.036 295.483 262.936V259.041C296.405 258.642 297.511 258.442 298.524 258.442C300.459 258.442 302.302 259.141 303.777 260.34C303.869 260.44 303.869 260.639 303.777 260.739L299.63 264.834C299.261 264.634 298.801 264.534 298.432 264.534C297.971 264.534 297.511 264.634 297.142 264.834C296.681 265.034 296.313 265.333 296.036 265.733C295.76 266.132 295.483 266.532 295.391 267.031C295.299 267.531 295.207 268.03 295.299 268.529C295.391 269.029 295.483 269.528 295.76 269.928C296.036 270.327 296.313 270.727 296.681 270.926C297.05 271.226 297.511 271.326 297.971 271.426C298.432 271.526 298.893 271.426 299.354 271.326L304.606 275.621C304.698 275.621 304.698 275.72 304.698 275.82V277.318C304.698 277.418 304.606 277.518 304.514 277.518L298.34 277.618ZM299.63 268.13C299.63 268.43 299.538 268.629 299.446 268.929C299.261 269.129 299.077 269.328 298.893 269.428C298.616 269.528 298.432 269.528 298.156 269.528C297.879 269.428 297.695 269.328 297.511 269.129C297.326 268.929 297.234 268.729 297.142 268.43C297.142 268.13 297.142 267.93 297.234 267.631C297.326 267.331 297.511 267.131 297.695 267.031C297.879 266.931 298.156 266.832 298.432 266.832C298.801 266.832 299.077 266.931 299.354 267.231C299.538 267.431 299.63 267.73 299.63 268.13Z" fill="#0E0333"/>
<path d="M315.2 225.116C316.514 222.771 316.127 219.923 315.741 218.081C315.973 211.633 316.977 198.066 317.982 185.086L320.84 185.337H321.458C324.858 185.337 327.948 182.49 328.103 178.805L329.107 165.239C329.107 163.229 328.721 161.554 327.485 159.963C326.48 158.707 325.322 158.037 324.626 157.786C324.085 157.702 323.467 157.702 322.926 157.618C321.999 157.534 321.227 157.367 320.454 157.199C320.454 157.199 321.613 139.027 309.56 127.135C308.555 126.131 295.498 115.746 280.432 121.19C267.838 125.796 260.111 141.958 259.339 155.357C258.257 155.273 257.175 155.776 256.094 155.692C254.858 155.943 253.699 155.86 252.694 156.781C251.458 158.121 250.685 159.879 250.685 161.805L249.526 175.372C249.526 179.308 252.462 183.244 256.094 183.495H258.953L258.18 210.628C259.88 211.549 261.502 212.47 263.202 213.475C264.902 214.564 268.379 217.076 270.851 221.85C272.86 225.702 273.323 229.219 273.478 231.229C282.827 231.648 290.476 231.396 296.039 231.061C309.328 230.14 310.873 232.652 315.2 225.116Z" fill="white"/>
<path d="M303.305 152.425C303.305 152.425 280.28 149.997 275.258 151.253C270.313 152.425 267.841 159.795 267.841 159.795C267.841 159.795 266.373 161.888 266.45 182.238C266.45 182.74 267.223 184.499 270.622 185.755C274.022 187.095 306.936 187.095 306.936 187.095C306.936 187.095 311.34 185.839 311.34 179.977C311.34 174.031 311.881 162.391 311.881 162.391L308.945 158.036L306.395 154.351L303.305 152.425Z" fill="#5BF1CD"/>
<path d="M257.949 210.545L258.722 183.412L259.494 155.442V152.343C259.494 151.924 263.898 116.501 292.022 119.516C320.069 122.363 320.455 153.851 320.455 154.269C320.455 154.269 320.455 155.358 320.223 157.368C319.837 162.644 318.833 173.53 317.983 185.171C316.978 198.318 315.974 212.052 315.742 218.417V220.846C315.742 222.185 315.51 223.442 315.356 224.363C315.124 225.033 314.969 225.703 314.583 226.373C314.197 227.043 313.81 227.712 313.347 228.131C310.334 231.23 306.084 231.23 305.852 231.23H273.17V230.392C273.17 230.141 271.934 216.407 259.031 211.55L257.949 210.545Z" stroke="#3502C4" stroke-width="1.37477" stroke-miterlimit="10"/>
<path d="M274.25 204.428C273.864 206.605 274.018 208.364 275.022 209.704C276.259 211.463 278.268 211.714 278.268 211.714H293.411C298.279 211.714 300.288 208.448 300.674 206.94" stroke="#3502C4" stroke-width="1.37477" stroke-miterlimit="10"/>
<path d="M266.836 162.893C266.836 161.804 267.222 160.716 267.84 159.795C268.613 158.706 269.694 158.036 270.853 157.617C271.24 157.617 271.471 157.617 271.858 157.617H272.089L306.781 158.706C307.012 158.706 307.012 158.706 307.167 158.706C308.403 158.706 309.408 159.376 310.18 160.213C310.18 160.213 310.18 160.213 310.412 160.464C311.416 161.553 311.803 162.893 311.803 164.4L311.185 181.903C311.185 183.41 310.567 184.75 309.562 185.588C308.558 186.425 307.321 187.095 306.163 187.095H305.931L271.24 185.755C268.381 185.755 266.218 183.159 266.372 180.06L266.836 162.893Z" stroke="#3502C4" stroke-width="1.37477" stroke-miterlimit="10"/>
<path d="M250.143 162.476C250.143 160.466 250.838 158.791 251.843 157.451C252.693 156.614 253.697 155.944 254.701 155.693C255.011 155.693 255.397 155.441 255.86 155.693H256.169H257.869H259.105L258.256 183.495H257.251H255.242C252.229 183.244 249.834 179.978 249.834 176.042L250.143 162.476Z" fill="#5BF1CD" stroke="#3502C4" stroke-width="1.37477" stroke-miterlimit="10"/>
<path d="M320.145 157.195H321.072L323.235 157.446H323.39C323.931 157.446 324.317 157.698 324.858 157.865C325.94 158.284 326.867 158.954 327.639 160.042C328.721 161.55 329.107 163.308 329.107 165.318L328.18 178.885C328.026 182.569 325.244 185.417 322.154 185.417C321.999 185.417 321.767 185.417 321.613 185.417L319.063 185.166H318.136L320.145 157.195Z" fill="#5BF1CD" stroke="#3502C4" stroke-width="1.37477" stroke-miterlimit="10"/>
<path d="M324.55 158.035C324.782 151.252 324.782 110.134 294.263 107.537C283.755 106.7 275.102 109.547 268.612 116.247C256.095 128.976 255.709 151.922 255.863 155.439V155.858" stroke="#3502C4" stroke-width="1.37477" stroke-miterlimit="10"/>
<path d="M310.566 160.886L307.708 156.28C306.085 153.684 303.845 152.093 301.449 152.093L277.266 151.004C274.639 150.753 272.012 152.344 270.39 155.192L267.763 159.546" stroke="#3502C4" stroke-width="1.37477" stroke-miterlimit="10"/>
<path d="M317.126 201.159C317.126 201.159 325.78 205.681 327.711 214.223C327.866 214.725 327.866 215.228 327.943 215.73C328.175 217.489 328.252 219.415 328.02 221.592C327.943 222.262 327.788 222.848 327.711 223.686C327.634 224.691 327.402 225.779 327.016 226.868C326.089 230.05 324.466 232.814 322.303 234.991C321.839 235.41 321.453 235.745 320.989 236.163C312.877 243.114 299.356 244.538 290.779 244.622C286.144 244.705 282.899 244.37 282.821 244.37C264.124 242.444 250.757 232.897 244.112 216.986C243.649 216.065 243.34 215.06 243.108 214.223C242.954 213.553 242.876 212.966 242.722 212.464C242.335 209.533 242.644 206.853 243.649 204.508C243.881 204.09 243.958 203.755 244.19 203.336C244.499 202.582 244.885 202.08 245.349 201.41C248.671 196.636 254.775 193.789 257.634 192.533C257.943 192.365 258.174 192.7 258.174 193.119L257.943 197.641C257.711 197.809 250.834 199.819 248.594 205.765C247.435 208.863 247.512 212.213 248.98 215.73C254.466 228.794 265.051 237.001 279.731 239.513C281.353 239.764 282.899 239.932 284.521 240.016C285.757 240.099 287.766 240.183 290.316 240.099C300.515 239.932 318.671 237.671 322.38 224.272C326.089 211.124 316.817 205.681 316.74 205.681L317.126 201.159Z" fill="#B3FFED" stroke="#3502C4" stroke-width="1.37477" stroke-miterlimit="10"/>
<path d="M270.613 237.086C270.381 234.323 269.454 226.87 264.123 220.17C260.646 215.899 256.783 213.638 254.465 212.549" stroke="#3502C4" stroke-width="1.37477" stroke-miterlimit="10"/>
<path d="M371.433 291.653C373.054 293.961 372.626 297.383 370.497 299.139C368.368 300.895 365.211 300.431 363.59 298.124C361.97 295.817 362.398 292.395 364.527 290.638C366.656 288.882 369.813 289.346 371.433 291.653Z" fill="#F0EBFF"/>
<path d="M208.345 206.656C209.966 208.964 209.538 212.386 207.409 214.142C205.28 215.898 202.123 215.434 200.503 213.127C198.882 210.82 199.31 207.398 201.439 205.641C203.568 203.885 206.725 204.349 208.345 206.656Z" fill="#F0EBFF"/>
<path d="M117.703 207.533C118.897 209.233 118.603 211.586 117.034 212.88C115.465 214.174 113.295 213.855 112.101 212.155C110.907 210.455 111.201 208.102 112.77 206.808C114.338 205.514 116.509 205.833 117.703 207.533Z" fill="#F0EBFF"/>
<path d="M226.967 121.221C228.161 122.921 227.866 125.274 226.298 126.568C224.729 127.862 222.559 127.543 221.365 125.843C220.171 124.143 220.465 121.79 222.033 120.496C223.602 119.202 225.773 119.521 226.967 121.221Z" fill="#F0EBFF"/>
<path d="M295.262 442.728C296.456 444.428 296.161 446.781 294.593 448.075C293.024 449.369 290.853 449.05 289.659 447.35C288.465 445.65 288.76 443.297 290.328 442.003C291.897 440.709 294.068 441.028 295.262 442.728Z" fill="#F0EBFF"/>
<path d="M479.377 304.253C480.571 305.953 480.276 308.305 478.708 309.599C477.139 310.894 474.969 310.575 473.775 308.874C472.581 307.174 472.875 304.822 474.444 303.528C476.012 302.233 478.183 302.552 479.377 304.253Z" fill="#F0EBFF"/>
<path d="M375.053 178.38C375.991 179.716 375.75 181.64 374.517 182.657C373.285 183.674 371.509 183.413 370.571 182.077C369.633 180.741 369.874 178.817 371.106 177.8C372.339 176.783 374.114 177.044 375.053 178.38Z" fill="#F0EBFF"/>
<path d="M196.072 172.217L198.405 141.522L201.194 141.714L198.861 172.409L196.072 172.217Z" fill="#8C65F7"/>
<path d="M234.523 212.023L235.677 194.768L238.466 194.96L237.312 212.215L234.523 212.023Z" fill="#8C65F7"/>
<path d="M344.084 153.674L346.575 125.725L349.45 126.039L346.958 153.988L344.084 153.674ZM399.768 210.539L400.629 191.607L403.419 191.799L402.557 210.731L399.768 210.539Z" fill="#8C65F7"/>
<path d="M94.5597 187.793C87.9495 173.802 72.7547 167.919 60.6213 174.653C48.4879 181.387 44.0106 198.189 50.6209 212.18C57.2311 226.172 72.4259 232.055 84.5593 225.32C96.6927 218.586 101.17 201.784 94.5597 187.793Z" fill="#F0EBFF" stroke="#6F3FF5" stroke-width="1.20827" stroke-miterlimit="10"/>
<path d="M99.3722 186.023C92.762 172.032 77.5672 166.149 65.4338 172.883C53.3004 179.618 48.8231 196.419 55.4334 210.411C62.0436 224.402 77.2384 230.285 89.3718 223.551C101.505 216.816 105.983 200.015 99.3722 186.023Z" fill="#F0EBFF" stroke="#6F3FF5" stroke-width="1.20827" stroke-miterlimit="10"/>
<path d="M94.6672 188.635C89.4663 177.626 77.5196 172.993 67.9834 178.286C58.4473 183.579 54.9329 196.794 60.1337 207.802C65.3346 218.81 77.2814 223.443 86.8175 218.151C96.3537 212.858 99.8681 199.643 94.6672 188.635Z" fill="white" stroke="#6F3FF5" stroke-width="1.20827" stroke-miterlimit="10"/>
<path d="M81.8959 211.965L69.3348 200.617L73.7381 183.548L86.2992 194.896L81.8959 211.965Z" stroke="#6F3FF5" stroke-width="1.20827"/>
<path d="M69.334 200.617L79.2558 202.771L86.2984 194.896" stroke="#6F3FF5" stroke-width="1.20827"/>
<path d="M73.7383 183.549L81.8961 211.966" stroke="#6F3FF5" stroke-width="1.20827"/>
<path d="M405.438 295.482C418.634 299.14 432.034 290.651 435.368 276.521C438.703 262.391 430.709 247.971 417.513 244.313C404.318 240.655 390.918 249.144 387.584 263.273C384.249 277.403 392.243 291.823 405.438 295.482Z" fill="#FFD347" stroke="#6F3FF5" stroke-width="1.01688" stroke-miterlimit="10"/>
<path d="M401.85 292.493C415.045 296.151 428.478 287.522 431.853 273.22C435.228 258.918 427.267 244.358 414.072 240.7C400.877 237.042 387.444 245.67 384.068 259.972C380.693 274.275 388.654 288.834 401.85 292.493Z" fill="#FFD347" stroke="#6F3FF5" stroke-width="1.01688" stroke-miterlimit="10"/>
<path d="M403.176 286.875C413.51 289.74 424.03 282.983 426.673 271.783C429.316 260.582 423.082 249.18 412.748 246.315C402.414 243.45 391.894 250.207 389.251 261.408C386.608 272.608 392.842 284.011 403.176 286.875Z" fill="white" stroke="#6F3FF5" stroke-width="1.01688" stroke-miterlimit="10"/>
<path d="M406.002 259.005L415.399 264.926C415.41 264.933 415.42 264.943 415.425 264.956C415.431 264.969 415.433 264.983 415.431 264.997C415.429 265.011 415.422 265.024 415.413 265.034C415.404 265.044 415.392 265.05 415.379 265.052L400.613 269.289C400.6 269.291 400.589 269.297 400.579 269.307C400.57 269.317 400.564 269.33 400.562 269.344C400.559 269.358 400.561 269.372 400.567 269.385C400.573 269.398 400.582 269.408 400.594 269.415L409.991 275.336" stroke="#6F3FF5" stroke-width="1.01688"/>
<path d="M410.766 262.006L413.535 256.842" stroke="#6F3FF5" stroke-width="1.01688"/>
<path d="M405.227 272.334L402.457 277.497" stroke="#6F3FF5" stroke-width="1.01688"/>
<path d="M337.194 304.051C457.023 341.288 542.758 392.154 535.57 424.565C527.464 461.111 404.288 460.356 260.447 422.878C116.607 385.4 6.57124 325.393 14.6765 288.847C18.9256 269.688 54.7998 260.781 108.697 262.042" stroke="#8C65F7" stroke-width="1.25"/>
<path d="M351.961 334.762L346.623 341.594C336.723 355.334 342.442 378.235 359.505 392.665C376.569 407.096 398.359 407.681 408.285 393.825L414.416 386.462" fill="#FAADBF"/>
<path d="M351.961 334.762L346.623 341.594C336.723 355.334 342.442 378.235 359.505 392.665C376.569 407.096 398.359 407.681 408.285 393.825L414.416 386.462" stroke="#6F3FF5" stroke-width="2.04975" stroke-miterlimit="10" stroke-linecap="round"/>
<path d="M400.944 336.054C383.813 321.556 361.868 320.987 351.93 334.783C341.991 348.579 347.821 371.516 364.952 386.015C382.083 400.513 404.028 401.082 413.966 387.285C423.905 373.489 418.075 350.552 400.944 336.054Z" fill="#FAADBF" stroke="#6F3FF5" stroke-width="2.04975" stroke-miterlimit="10"/>
<path d="M397.155 341.314C383.66 329.894 366.36 329.465 358.514 340.357C350.668 351.249 355.246 369.336 368.74 380.757C382.235 392.177 399.535 392.606 407.381 381.714C415.227 370.822 410.649 352.735 397.155 341.314Z" fill="white" stroke="#6F3FF5" stroke-width="2.04975" stroke-miterlimit="10"/>
<path d="M373.021 371.06L392.179 346.983" stroke="#6F3FF5" stroke-width="2.04975"/>
<path d="M376.766 374.559L395.923 350.482" stroke="#6F3FF5" stroke-width="2.04975"/>
<path d="M388.137 378.73L393.11 372.48C395.309 369.717 396.332 366.053 395.956 362.294C395.579 358.535 393.834 354.989 391.103 352.437C388.372 349.884 384.879 348.534 381.394 348.682C377.908 348.831 374.715 350.467 372.517 353.23L367.543 359.481L388.137 378.73Z" stroke="#6F3FF5" stroke-width="2.04975"/>
<path d="M143.608 222.981C136.593 216.641 135.648 205.337 141.498 197.734C147.347 190.131 157.776 189.107 164.791 195.447C171.806 201.788 172.75 213.091 166.901 220.694C161.051 228.297 150.622 229.321 143.608 222.981Z" fill="#B3FFED" stroke="#6F3FF5" stroke-width="0.813746" stroke-miterlimit="10"/>
<path d="M145.176 221.296C138.161 214.956 137.217 203.652 143.066 196.049C148.916 188.446 159.344 187.422 166.359 193.763C173.374 200.103 174.319 211.406 168.469 219.009C162.619 226.612 152.191 227.636 145.176 221.296Z" fill="#B3FFED" stroke="#6F3FF5" stroke-width="0.813746" stroke-miterlimit="10"/>
<path d="M147.415 218.384C141.885 213.386 141.14 204.474 145.752 198.479C150.364 192.485 158.586 191.678 164.117 196.676C169.647 201.675 170.392 210.587 165.78 216.581C161.168 222.576 152.946 223.383 147.415 218.384Z" fill="white" stroke="#6F3FF5" stroke-width="0.813746" stroke-miterlimit="10"/>
<path d="M153.81 207.988C152.309 207.548 151.422 205.872 151.829 204.245C152.235 202.619 153.781 201.657 155.282 202.098" stroke="#3502C4" stroke-width="0.813746"/>
<path d="M156.531 208.786C158.032 209.227 158.919 210.903 158.513 212.529C158.106 214.156 156.56 215.118 155.06 214.677" stroke="#3502C4" stroke-width="0.813746"/>
<path d="M157.377 199.551L156.641 202.496" stroke="#3502C4" stroke-width="0.813746"/>
<path d="M153.697 214.278L152.961 217.224" stroke="#3502C4" stroke-width="0.813746"/>
<path d="M153.81 207.989L156.528 208.786" stroke="#3502C4" stroke-width="0.813746"/>
<path d="M160.348 205.168C160.348 205.168 159.358 203.296 157.999 202.898L155.281 202.1" stroke="#3502C4" stroke-width="0.813746"/>
<path d="M149.99 211.609C149.99 211.609 150.981 213.481 152.34 213.879L155.057 214.677" stroke="#3502C4" stroke-width="0.813746"/>
<path fill-rule="evenodd" clip-rule="evenodd" d="M69.0255 288.092L56.1797 271.423L62.1549 250.693L80.9758 246.631L93.8216 263.299L87.8464 284.03L69.0255 288.092ZM75.0039 267.359L80.9791 246.629ZM75.0021 267.36L93.8231 263.298ZM75.0041 267.362L87.8499 284.03ZM75.0045 267.361L69.0293 288.091ZM75.0028 267.36L56.1818 271.422ZM75.0042 267.359L62.1584 250.69Z" fill="white"/>
<path d="M69.0255 288.092L68.6303 288.408L68.8155 288.648L69.1158 288.584L69.0255 288.092ZM56.1797 271.423L55.7028 271.295L55.6319 271.541L55.7845 271.739L56.1797 271.423ZM62.1549 250.693L62.0645 250.201L61.7642 250.266L61.678 250.565L62.1549 250.693ZM80.9758 246.631L81.3711 246.314L81.1858 246.074L80.8855 246.139L80.9758 246.631ZM93.8216 263.299L94.2985 263.427L94.3695 263.181L94.2168 262.983L93.8216 263.299ZM87.8464 284.03L87.9368 284.522L88.2371 284.457L88.3233 284.158L87.8464 284.03ZM69.4207 287.776L56.5749 271.107L55.7845 271.739L68.6303 288.408L69.4207 287.776ZM56.6565 271.551L62.6317 250.821L61.678 250.565L55.7028 271.295L56.6565 271.551ZM62.2452 251.184L81.0662 247.122L80.8855 246.139L62.0645 250.201L62.2452 251.184ZM80.5806 246.947L93.4264 263.616L94.2168 262.983L81.3711 246.314L80.5806 246.947ZM93.3448 263.171L87.3696 283.902L88.3233 284.158L94.2985 263.427L93.3448 263.171ZM87.7561 283.538L68.9351 287.6L69.1158 288.584L87.9368 284.522L87.7561 283.538ZM75.4808 267.487L81.4559 246.757L80.5022 246.501L74.5271 267.231L75.4808 267.487ZM75.0925 267.852L93.9135 263.79L93.7328 262.806L74.9118 266.868L75.0925 267.852ZM74.6089 267.678L87.4547 284.347L88.2452 283.714L75.3994 267.045L74.6089 267.678ZM74.5276 267.233L68.5525 287.963L69.5061 288.219L75.4813 267.489L74.5276 267.233ZM74.9125 266.869L56.0915 270.931L56.2722 271.914L75.0931 267.852L74.9125 266.869ZM75.3995 267.043L62.5537 250.374L61.7632 251.007L74.609 267.675L75.3995 267.043Z" fill="#8C65F7"/>
<path d="M197.177 423.616L189.242 399.45L206.329 381.702L214.264 405.869L197.177 423.616Z" fill="white" stroke="#8C65F7"/>
<path d="M189.242 399.45L200.138 410.056L214.264 405.869" fill="white"/>
<path d="M189.242 399.45L200.138 410.056L214.264 405.869" stroke="#8C65F7"/>
<path d="M206.33 381.702L197.178 423.616Z" fill="white"/>
<path d="M206.33 381.702L197.178 423.616" stroke="#8C65F7"/>
<path d="M33.4932 318.953C33.4932 321.562 31.5495 323.62 29.2181 323.62C26.8867 323.62 24.943 321.562 24.943 318.953C24.943 316.344 26.8867 314.286 29.2181 314.286C31.5495 314.286 33.4932 316.344 33.4932 318.953Z" fill="#6F3FF5" stroke="#8C65F7" stroke-width="0.8"/>
<path d="M376.89 445.592C376.89 448.201 374.946 450.26 372.615 450.26C370.283 450.26 368.339 448.201 368.339 445.592C368.339 442.984 370.283 440.925 372.615 440.925C374.946 440.925 376.89 442.984 376.89 445.592Z" fill="#6F3FF5" stroke="#8C65F7" stroke-width="0.8"/>
<path d="M498.669 373.426C498.669 376.034 496.725 378.093 494.394 378.093C492.063 378.093 490.119 376.034 490.119 373.426C490.119 370.817 492.063 368.759 494.394 368.759C496.725 368.759 498.669 370.817 498.669 373.426Z" fill="#6F3FF5" stroke="#8C65F7" stroke-width="0.8"/>
</svg>
