<svg width="608" height="463" viewBox="0 0 608 463" fill="none" xmlns="http://www.w3.org/2000/svg">
<path d="M80.62 87.0063C85.3255 87.0063 88.9616 83.3282 88.9616 79.0371C88.9616 74.5417 85.1116 71.0679 80.62 71.0679C75.9144 71.0679 72.2783 74.746 72.2783 79.0371C72.2783 83.3282 75.9144 87.0063 80.62 87.0063Z" fill="#FFE88F"/>
<path d="M227.087 30.6733C231.792 30.6733 235.428 26.9952 235.428 22.7041C235.428 18.2087 231.578 14.7349 227.087 14.7349C222.381 14.7349 218.745 18.413 218.745 22.7041C218.745 26.9952 222.381 30.6733 227.087 30.6733Z" fill="#5BF1CD"/>
<path d="M589.392 169.865C594.098 169.865 597.734 166.187 597.734 161.896C597.734 157.4 593.884 153.926 589.392 153.926C584.687 153.926 581.051 157.604 581.051 161.896C581.051 166.187 584.687 169.865 589.392 169.865Z" fill="#5BF1CD"/>
<path d="M4.91942 393.025C7.69997 393.025 9.83885 390.982 9.83885 388.325C9.83885 385.669 7.69997 383.626 4.91942 383.626C2.13888 383.626 0 385.669 0 388.325C0 390.982 2.13888 393.025 4.91942 393.025Z" fill="#5BF1CD"/>
<path d="M44.8647 207.672C47.6453 207.672 49.7842 205.628 49.7842 202.972C49.7842 200.315 47.6453 198.272 44.8647 198.272C42.0842 198.272 39.9453 200.315 39.9453 202.972C39.9453 205.628 42.0842 207.672 44.8647 207.672Z" fill="#5BF1CD"/>
<path d="M472.842 318.52C475.623 318.52 477.762 316.477 477.762 313.82C477.762 311.164 475.623 309.121 472.842 309.121C470.062 309.121 467.923 311.164 467.923 313.82C467.923 316.477 470.062 318.52 472.842 318.52Z" fill="#FFF2C0"/>
<path d="M603.081 318.623C605.861 318.623 608 316.58 608 313.923C608 311.267 605.861 309.224 603.081 309.224C600.3 309.224 598.161 311.267 598.161 313.923C598.161 316.58 600.3 318.623 603.081 318.623Z" fill="#FFE88F"/>
<path d="M524.199 45.9409C526.979 45.9409 529.118 43.8976 529.118 41.2412C529.118 38.5848 526.979 36.5414 524.199 36.5414C521.418 36.5414 519.279 38.5848 519.279 41.2412C519.279 43.8976 521.418 45.9409 524.199 45.9409Z" fill="#FFE88F"/>
<path d="M516.334 414.224C519.115 414.224 521.254 412.181 521.254 409.524C521.254 406.868 519.115 404.824 516.334 404.824C513.554 404.824 511.415 406.868 511.415 409.524C511.415 412.181 513.554 414.224 516.334 414.224Z" fill="#5BF1CD"/>
<path d="M217.5 139.837C215.415 139.354 213.203 139.368 211.653 140.87C210.361 142.121 209.788 143.927 208.693 145.363C206.953 147.674 204.482 147.814 201.685 147.77C198.172 147.793 194.726 148.002 191.218 148.646" stroke="#6F3FF5" stroke-width="1.71644"/>
<path d="M316.534 406.537C332.76 417.16 385.703 440.99 403.07 430.198C412.647 424.269 419.202 414.476 421.868 403.935C423.468 397.611 428.031 368.726 467.045 372.719" stroke="#6F3FF5" stroke-width="1.71644" stroke-miterlimit="10"/>
<path d="M529.426 143.852C540.649 148.613 545.589 163.514 539.225 173.515C534.179 181.528 523.894 185.681 518.734 193.664C513.992 201.056 514.576 210.342 514.751 218.934C514.999 228.95 514.696 239.169 511.44 248.598C508.184 258.027 501.734 267.069 492.194 271.187C482.8 275.226 471.548 274.321 462.111 270.155C452.673 265.99 445.036 259.029 438.626 251.226C429.949 240.709 423.322 228.634 414.967 217.852" stroke="#6F3FF5" stroke-width="1.71644" stroke-miterlimit="10"/>
<path d="M337.77 44.139L330.401 45.2436L460.332 141.85L453.475 73.6755L401.277 34.8811L384.801 37.2764L365.275 40.1318L357.202 41.2391L337.77 44.139Z" fill="#8C65F7" stroke="#6F3FF5" stroke-width="1.71644" stroke-miterlimit="10"/>
<path d="M518.164 160.987C518.164 160.987 518.268 160.935 518.323 161.035C518.482 161.082 518.691 160.977 518.796 160.925C519.109 160.768 519.208 160.463 519.153 160.363L519.875 157.072L519.98 157.02L520.104 152.884L520.258 152.679C520.412 152.474 521.748 150.785 523.173 148.287L523.432 148.03L524.207 147.259C524.312 147.207 524.361 147.054 524.306 146.955L524.301 146.703L524.873 146.288L525.351 146.43C525.883 146.672 526.889 146.804 527.978 145.876L530.15 143.767L530.335 145.074C530.592 147.237 529.256 148.926 529.206 149.079L529.53 149.425L529.277 149.934C528.969 150.344 528.457 151.11 527.946 151.876C528.917 152.916 530.027 152.995 530.132 152.943C530.55 152.733 530.902 151.92 531.144 150.907L531.238 150.35L531.925 150.388C532.437 149.622 532.783 148.556 532.883 148.252C533.571 145.869 533.155 143.659 532.596 142.157L532.536 141.805L532.794 141.548C533.053 141.291 533.102 141.139 533.207 141.087C533.306 140.782 533.246 140.43 533.026 140.031C533.026 140.031 532.182 137.527 531.962 137.128L531.847 136.676L534.179 134.615C534.179 134.615 535.163 133.739 535.191 132.579C535.175 131.823 534.95 131.172 534.303 130.478C533.331 129.438 532.122 129.663 531.336 129.93L531.022 130.087L530.808 129.94C530.594 129.793 530.33 129.798 530.171 129.751C529.803 129.808 529.435 129.866 529.176 130.123L528.764 130.585C528.401 130.894 528.203 131.503 528.477 132.002L528.696 132.401L527.608 133.329L527.08 133.339C526.762 133.245 526.393 133.302 525.921 133.412L524.806 133.081C520.763 131.545 517.295 132.267 517.19 132.32L517.091 132.624L516.668 132.582C516.3 132.639 515.141 132.712 514.574 133.378L514.525 133.53C514.525 133.53 514.172 134.344 514.507 135.194C514.507 135.194 515.342 134.775 515.974 134.713L516.272 133.799L517.084 134.792C519.293 134.447 521.255 134.863 522.529 135.242L523.699 135.673L522.66 136.449C521.363 137.483 519.757 138.925 518.052 140.672L517.794 140.929L517.53 140.934C517.426 140.987 517.266 140.939 517.217 141.091L516.442 141.863C516.442 141.863 516.337 141.915 516.392 142.015L516.089 142.676L515.93 142.629L515.171 144.156L514.291 144.979C513.664 145.294 511.366 146.447 510.442 147.675C509.672 148.698 510.467 151.355 510.812 152.709L511.032 153.108L510.455 153.271C509.773 153.485 508.674 153.91 508.57 153.962C508.201 154.02 507.998 154.377 507.844 154.581C507.739 154.634 507.69 154.786 507.64 154.938C507.646 155.19 507.651 155.442 507.865 155.589C508.348 155.983 508.991 156.425 509.881 156.105C511.035 155.78 512.343 155.251 512.657 155.094L513.103 153.724C513.037 153.12 512.791 151.461 513.282 149.687L513.381 149.383L518.355 147.523L516.771 149.973C516.309 150.587 516.165 151.296 516.022 152.004L517.321 156.063L515.648 159.322C515.648 159.322 515.648 159.322 515.703 159.421C515.708 159.673 515.824 160.125 516.252 160.419C516.252 160.419 516.307 160.519 516.411 160.466C516.625 160.614 516.944 160.708 517.263 160.803C517.636 160.998 517.9 160.992 518.164 160.987Z" fill="white"/>
<path d="M531.059 129.431C532.054 129.059 533.159 128.887 534.131 129.927C536.288 132.154 534.007 134.063 534.007 134.063L532.297 135.558L530.537 137.205C529.78 136.312 528.422 136.994 528.477 137.094L528.372 137.146C525.248 134.131 525.522 134.63 528.525 131.849" stroke="#6F3FF5" stroke-width="1.71644" stroke-miterlimit="10"/>
<path d="M528.434 129.986L529.105 129.267C529.518 128.806 530.309 128.79 530.847 129.284L532.571 130.965C533.054 131.359 533.07 132.115 532.553 132.629L531.882 133.348C531.47 133.81 530.679 133.825 530.141 133.331L528.417 131.65C528.038 131.204 527.917 130.5 528.434 129.986Z" fill="#5BF1CD" stroke="#6F3FF5" stroke-width="1.71644" stroke-miterlimit="10"/>
<path d="M518.357 147.523L513.592 149.278L513.487 149.331C512.892 151.157 513.144 153.068 513.259 153.52C511.94 153.545 511.133 152.804 511.078 152.705C511.122 152.3 509.504 148.147 510.428 146.919C511.457 145.639 514.277 144.224 514.381 144.171L515.206 143.248L516.219 141.212" stroke="#6F3FF5" stroke-width="1.71644" stroke-miterlimit="10"/>
<path d="M518.128 146.62C518.128 146.62 518.556 146.914 518.408 147.371C518.408 147.371 518.358 147.523 518.308 147.675C518.105 148.032 517.593 148.798 516.983 149.868C516.521 150.482 516.273 151.243 516.289 151.999L517.637 155.906C517.747 156.105 518.769 156.993 520.186 156.663L520.31 152.527C520.31 152.527 520.415 152.474 520.36 152.375C520.772 151.913 522.054 150.124 523.584 147.574" stroke="#6F3FF5" stroke-width="1.71644" stroke-miterlimit="10"/>
<path d="M511.084 152.957L508.622 153.811C508.413 153.915 508.155 154.172 507.896 154.429C507.792 154.482 507.742 154.634 507.693 154.786C507.698 155.038 507.703 155.29 507.917 155.437C508.241 155.784 509.043 156.273 509.934 155.953C511.088 155.628 512.5 155.047 512.709 154.942L513.155 153.572" stroke="#6F3FF5" stroke-width="1.71644" stroke-miterlimit="10"/>
<path d="M517.587 156.058L516.068 159.112L516.018 159.265C516.018 159.265 516.073 159.364 515.969 159.417C515.974 159.669 516.034 160.021 516.518 160.415C516.518 160.415 516.572 160.514 516.677 160.462C516.891 160.609 517.21 160.704 517.528 160.799C517.847 160.893 518.111 160.888 518.374 160.883C518.374 160.883 518.479 160.831 518.534 160.93C518.798 160.925 518.902 160.873 519.111 160.768C519.529 160.558 519.573 160.154 519.573 160.154L520.246 157.016L520.35 156.963" stroke="#6F3FF5" stroke-width="1.71644" stroke-miterlimit="10"/>
<path d="M523.482 147.878C523.74 147.621 523.999 147.364 524.257 147.107C524.411 146.903 524.406 146.651 524.192 146.503C521.676 144.838 519.683 142.91 517.839 140.525C517.729 140.326 517.306 140.283 517.152 140.488C516.893 140.745 516.635 141.002 516.377 141.259L516.118 141.516" stroke="#6F3FF5" stroke-width="1.71644" stroke-miterlimit="10"/>
<path d="M532.469 141.202C532.469 141.202 532.986 140.688 533.036 140.535C533.135 140.231 533.02 139.779 532.855 139.48L531.873 137.936L531.632 136.529" stroke="#6F3FF5" stroke-width="1.71644" stroke-miterlimit="10"/>
<path d="M524.469 134.65C524.469 134.65 522.375 135.447 517.833 140.273" stroke="#6F3FF5" stroke-width="1.71644" stroke-miterlimit="10"/>
<path d="M532.192 140.451C532.192 140.451 534.063 144.095 532.978 147.695C532.978 147.695 532.636 149.013 532.075 149.931C532.075 149.931 530.811 150.056 529.411 148.722C529.411 148.722 530.747 147.033 530.491 144.87C530.234 142.707 529.053 141.771 529.053 141.771" stroke="#6F3FF5" stroke-width="1.71644" stroke-miterlimit="10"/>
<path d="M525.075 145.931C525.075 145.931 526.47 147.013 528.02 145.471C529.522 144.081 530.297 143.31 530.297 143.31" stroke="#6F3FF5" stroke-width="1.71644" stroke-miterlimit="10"/>
<path d="M524.168 141.518C525.073 141.87 526.105 141.454 526.474 140.589C526.843 139.725 526.407 138.738 525.502 138.386C524.597 138.034 523.565 138.449 523.196 139.314C522.827 140.179 523.262 141.166 524.168 141.518Z" fill="#5BF1CD" stroke="#6F3FF5" stroke-width="1.71644" stroke-miterlimit="10"/>
<path d="M531.237 150.35C531.237 150.35 530.851 152.072 530.175 152.539C530.175 152.539 528.961 152.512 527.989 151.472C527.989 151.472 529.529 149.425 529.524 149.173" stroke="#6F3FF5" stroke-width="1.71644" stroke-miterlimit="10"/>
<path d="M523.632 135.07C523.632 135.07 520.54 133.566 517.017 134.189C517.017 134.189 516.26 133.296 517.019 131.769C517.019 131.769 520.855 130.989 525.271 132.719L526.442 133.15" stroke="#6F3FF5" stroke-width="1.71644" stroke-miterlimit="10"/>
<path d="M516.657 132.078C516.657 132.078 515.179 132.056 514.404 132.827C514.404 132.827 513.947 133.693 514.441 134.591C514.441 134.591 515.903 133.857 516.699 134.094" stroke="#6F3FF5" stroke-width="1.71644" stroke-miterlimit="10"/>
<path d="M200.248 126.828L200.384 126.71C201.598 125.895 204.642 126.224 205.552 126.266L205.812 126.279L205.886 126.095L208.832 125.797L208.975 125.555L209.105 125.561C211.537 125.115 214.581 125.443 214.581 125.443C219.965 125.881 224.392 128.452 227.149 130.572L227.273 130.702L227.409 130.584C228.022 130.053 228.561 129.705 228.889 129.658C229.743 129.511 230.646 129.677 231.469 130.151L234.808 132.36L234.937 132.366C235.99 132.167 237.221 132.286 238.557 132.909L238.748 132.98L240.043 131.858L239.493 131.148C239.259 130.639 239.359 129.96 239.836 129.546L241.546 127.946C241.955 127.592 242.481 127.492 242.994 127.64L243.124 127.647L243.26 127.528C244.522 128.334 245.137 126.496 248.262 126.518C250.019 126.537 250.978 126.893 252.337 128.325C254.006 130.083 254.418 132.218 254.261 134.015C254.078 136.308 255.02 135.73 254.543 136.143L254.474 136.202L254.468 136.326C254.498 137.012 254.268 137.686 253.723 138.158L251.338 140.225C250.588 140.874 249.543 140.95 248.652 140.535L248.46 140.464L248.324 140.582C247.643 141.172 247.159 141.709 246.614 142.182L245.796 142.89L245.852 143.079C246.253 144.156 245.978 145.698 245.203 146.844C245.135 146.903 245.067 146.963 245.067 146.963L244.924 147.205L245.048 147.335C251.567 154.856 252.076 162.72 252.126 163.033L252.119 163.157L252.051 163.216C251.983 163.275 251.983 163.275 251.915 163.334L251.71 163.511L251.766 163.701C251.981 164.582 252.387 166.84 251.327 168.471C251.327 168.471 249.561 169.882 247.297 169.589L247.037 169.577L247.043 169.453L245.145 168.369L245.455 167.388L246.765 164.712L246.573 164.64L246.579 164.516C245.913 158.45 242.23 154.047 241.118 152.876L240.932 152.68L240.728 152.857C239.829 153.873 238.671 154.877 237.451 155.815C236.094 156.872 235.029 157.32 234.318 157.225C234.188 157.218 233.996 157.147 233.934 157.082L233.742 157.011L233.606 157.129C232.039 158.487 230.205 159.957 228.304 161.486L228.167 161.604L228.223 161.793C228.216 161.917 228.278 161.982 228.272 162.106C228.321 162.42 228.172 162.786 227.899 163.022L226.06 164.616C225.787 164.853 225.391 164.958 225.069 164.881L224.939 164.875L223.532 166.925C223.215 168.03 221.753 173.686 219.541 176.196C217.676 178.286 211.432 178.119 208.116 178.027C207.076 177.978 206.556 177.954 206.358 178.007L206.16 178.06L206.086 178.243C205.886 179.603 205.448 183.066 205.442 183.191C205.404 183.935 204.92 184.473 204.505 184.951L204.369 185.069L203.204 186.197C202.727 186.61 202.133 186.769 201.558 186.556C200.982 186.342 200.222 185.933 199.412 185.211L199.35 185.146C198.485 184.235 198.078 183.282 198.135 182.165C198.158 179.18 199.009 176.544 199.164 176.054L199.232 175.995L200.384 175.115L200.508 175.245L203.257 173.694L203.264 173.57L203.524 173.582C204.699 173.512 208.951 173.151 212.512 171.015L212.58 170.956L214.004 160.943L213.459 161.415C212.641 162.124 211.544 163.192 209.971 164.674C208.738 165.861 207.257 166.788 205.605 167.27L196.262 166.586L196.193 166.645L190.086 171.461L188.284 172.311C188.086 172.364 186.706 172.61 185.223 171.048C184.914 170.722 184.673 170.338 184.37 169.888C182.437 166.936 184.19 165.773 184.32 165.779L185.738 164.788C186.011 164.552 186.277 164.44 186.277 164.44L192.939 161.515L192.952 161.267L202.119 159.019L202.323 158.842C202.67 158.423 205.924 154.655 211.103 150.168L211.171 150.109L211.178 149.985C211.197 149.613 211.277 149.305 211.55 149.069L213.39 147.475C213.662 147.239 214.059 147.133 214.38 147.21C214.51 147.216 214.51 147.216 214.572 147.281L214.764 147.353L215.867 146.16L215.811 145.971C215.274 145.012 214.43 142.422 217.292 139.942L222.266 135.633L222.081 135.437C221.216 134.526 220.016 133.785 218.81 133.169C214.611 131.231 210.192 132.331 209.993 132.384L209.795 132.437L209.678 132.183L207.011 132.121L203.785 134.086L201.652 132.493L201.584 132.552L201.528 132.363C199.28 129.209 200.242 126.952 200.248 126.828Z" fill="white"/>
<path d="M238.605 133.222C231.555 129.72 229.971 139.041 234.167 143.592C235.514 145.273 238.493 148.149 241.283 148.342C244.984 148.577 246.554 144.606 245.548 142.63" stroke="#6F3FF5" stroke-width="1.71644" stroke-miterlimit="10"/>
<path d="M248.349 140.085C241.794 146.001 242.87 146.611 236.382 139.775L236.45 139.716C236.512 139.782 238.217 136.999 236.344 135.418L240.166 131.988" stroke="#6F3FF5" stroke-width="1.71644" stroke-miterlimit="10"/>
<path d="M241.599 128.136C242.076 127.722 242.924 127.7 243.357 128.155L244.037 128.872C244.037 128.872 244.098 128.937 244.154 129.126C244.141 129.374 243.986 129.865 242.957 130.874C242.071 131.642 241.403 131.984 241.006 132.09C240.61 132.196 240.289 132.119 240.11 131.799L239.56 131.089C239.387 130.646 239.481 130.09 239.889 129.736L241.599 128.136Z" stroke="#6F3FF5" stroke-width="1.71644" stroke-miterlimit="10"/>
<path d="M243.173 127.96C244.202 126.951 249.611 121.79 254.437 126.744C259.696 132.153 254.153 136.126 254.153 136.126" stroke="#6F3FF5" stroke-width="1.71644" stroke-miterlimit="10"/>
<path d="M243.791 128.611C243.791 128.611 248.314 124.218 253.029 128.793C255.198 130.948 254.88 133.359 253.807 135.238" stroke="#6F3FF5" stroke-width="1.71644" stroke-miterlimit="10"/>
<path d="M241.945 139.227C242.682 138.825 243.887 139.442 244.307 140.146C244.548 140.53 244.653 141.033 244.312 141.328C244.108 141.505 243.773 141.676 243.451 141.599C243.13 141.522 242.876 141.385 242.691 141.19C242.314 140.924 242.135 140.604 241.894 140.22C241.77 140.09 241.715 139.9 241.721 139.776C241.727 139.652 241.808 139.345 241.945 139.227Z" stroke="#6F3FF5" stroke-width="1.71644" stroke-miterlimit="10"/>
<path d="M243.972 132.726L246.63 130.424C247.379 129.774 248.549 129.829 249.228 130.545L253.74 135.297C254.419 136.013 254.362 137.131 253.613 137.78L250.955 140.083C250.205 140.732 249.036 140.677 248.356 139.961L243.845 135.209C243.165 134.493 243.222 133.376 243.972 132.726Z" fill="#5BF1CD" stroke="#6F3FF5" stroke-width="1.71644" stroke-miterlimit="10"/>
<path d="M244.47 135.736L247.128 133.433C247.128 133.433 247.803 132.967 248.606 133.813" stroke="#6F3FF5" stroke-width="1.71644" stroke-miterlimit="10"/>
<path d="M232.693 134.191L236.343 135.419" stroke="#6F3FF5" stroke-width="1.71644" stroke-miterlimit="10"/>
<path d="M234.613 134.902C234.613 134.902 236.012 139.385 232.853 141.291" stroke="#6F3FF5" stroke-width="1.71644" stroke-miterlimit="10"/>
<path d="M224.578 164.36L223.035 166.528C222.967 166.587 221.399 173.047 219.044 175.799C216.695 178.427 206.852 177.346 206.059 177.557C205.744 177.356 203.654 176.201 203.076 173.498C204.121 173.423 208.565 173.132 212.262 170.879L212.33 170.819L212.398 170.76L212.411 170.512L213.854 160.127" stroke="#6F3FF5" stroke-width="1.71644" stroke-miterlimit="10"/>
<path d="M215.933 160.224C215.871 160.159 214.987 159.62 214.127 159.891C214.059 159.95 213.792 160.062 213.452 160.357C213.452 160.357 213.452 160.357 213.383 160.416C212.634 161.066 211.265 162.371 209.282 164.207C208.049 165.394 206.569 166.32 204.916 166.803L195.641 166.059C195.196 165.852 192.729 164.43 192.634 161.19L201.733 159.002C201.733 159.002 201.938 158.824 201.944 158.7C202.774 157.744 206.09 154.041 210.928 149.849" stroke="#6F3FF5" stroke-width="1.71644" stroke-miterlimit="10"/>
<path d="M205.737 177.48L205 182.983C204.968 183.604 204.485 184.141 204.07 184.62C203.927 184.862 203.661 184.974 203.327 185.145C202.794 185.369 202.144 185.339 201.706 185.007C200.76 184.403 199.257 183.213 199.421 181.292C199.616 178.75 200.103 175.6 200.19 175.168L203.007 173.558" stroke="#6F3FF5" stroke-width="1.71644" stroke-miterlimit="10"/>
<path d="M200.331 174.926L199.043 175.923C199.043 175.923 198.055 178.677 198.082 181.976C198.087 183.158 198.685 184.181 199.365 184.898C200.113 185.555 200.874 185.963 201.449 186.177C201.894 186.384 202.42 186.284 202.829 185.93L204.198 184.625" stroke="#6F3FF5" stroke-width="1.71644" stroke-miterlimit="10"/>
<path d="M189.595 170.941L188.592 171.454L187.855 171.855C187.855 171.855 185.942 172.326 184.133 169.504C182.385 166.747 183.933 165.761 184.002 165.702L184.677 165.236L185.488 164.652" stroke="#6F3FF5" stroke-width="1.71644" stroke-miterlimit="10"/>
<path d="M212.461 170.826L214.057 171.46" stroke="#6F3FF5" stroke-width="1.71644" stroke-miterlimit="10"/>
<path d="M201.931 158.948L203.478 159.269" stroke="#6F3FF5" stroke-width="1.71644" stroke-miterlimit="10"/>
<path d="M207.128 164.293C207.134 164.169 207.025 162.484 205.201 161.216" stroke="#6F3FF5" stroke-width="1.71644" stroke-miterlimit="10"/>
<path d="M218.147 175.508C218.086 175.443 217.778 173.811 215.75 172.721" stroke="#6F3FF5" stroke-width="1.71644" stroke-miterlimit="10"/>
<path d="M184.778 167.045L186.889 166.522C187.353 166.357 187.799 166.564 188.039 166.949L188.218 167.268C188.459 167.653 188.366 168.208 188.087 168.568L186.513 170.05" stroke="#6F3FF5" stroke-width="1.71644" stroke-miterlimit="10"/>
<path d="M202.098 185.025C202.315 184.6 202.532 184.175 202.619 183.743C202.626 183.619 202.694 183.56 202.7 183.436L202.707 183.312L202.713 183.187C202.713 183.187 202.781 183.128 202.719 183.063C202.719 183.063 202.787 183.004 202.726 182.939C202.732 182.815 202.732 182.815 202.738 182.691C202.745 182.567 202.745 182.567 202.683 182.502C202.683 182.502 202.683 182.502 202.689 182.378C202.627 182.312 202.683 182.502 202.689 182.378C202.696 182.253 202.634 182.188 202.64 182.064C202.64 182.064 202.578 181.999 202.64 182.064C202.702 182.129 202.64 182.064 202.64 182.064L202.578 181.999L202.517 181.934C202.455 181.869 202.578 181.999 202.578 181.999C202.578 181.999 202.578 181.999 202.517 181.934C202.455 181.869 202.455 181.869 202.393 181.804C202.331 181.739 202.517 181.934 202.393 181.804L202.331 181.739L202.269 181.674C202.269 181.674 202.269 181.674 202.208 181.608C202.146 181.543 202.269 181.674 202.208 181.608L202.078 181.602C202.078 181.602 202.208 181.608 202.078 181.602C202.078 181.602 202.208 181.608 202.078 181.602L202.01 181.661C201.941 181.72 202.078 181.602 202.01 181.661L201.941 181.72C201.873 181.779 201.941 181.72 201.941 181.72L201.873 181.779C201.805 181.839 201.805 181.839 201.737 181.898L201.669 181.957C201.601 182.016 201.737 181.898 201.669 181.957C201.532 182.075 201.526 182.199 201.39 182.317C201.036 182.86 200.547 183.522 199.829 183.551C199.569 183.538 199.384 183.343 199.396 183.095C199.409 182.847 199.613 182.67 199.873 182.682C199.805 182.741 199.743 182.676 199.873 182.682C199.941 182.623 199.805 182.741 199.873 182.682L199.941 182.623C200.01 182.564 199.873 182.682 199.941 182.623C200.01 182.564 200.01 182.564 200.078 182.505L200.146 182.445C200.214 182.386 200.078 182.505 200.146 182.445C200.289 182.203 200.561 181.967 200.704 181.725C201.119 181.247 201.609 180.585 202.314 180.805C202.635 180.882 202.951 181.083 203.136 181.278C203.445 181.604 203.618 182.048 203.593 182.544C203.61 183.478 203.237 184.394 202.871 185.186C202.797 185.369 202.592 185.546 202.271 185.469C202.141 185.463 201.955 185.268 202.098 185.025Z" fill="#6F3FF5"/>
<path d="M192.621 161.438L192.485 161.556L185.953 164.487C185.953 164.487 185.154 164.823 184.782 165.739C184.633 166.105 184.614 166.477 184.663 166.791C184.657 166.915 184.718 166.98 184.712 167.104C184.817 167.607 185.051 168.115 185.409 168.754C185.767 169.393 186.132 169.908 186.571 170.24C186.632 170.305 186.756 170.435 186.818 170.5C187.819 171.293 188.729 171.336 189.193 171.171C189.391 171.118 189.589 171.065 189.589 171.065L189.794 170.888L195.697 166.248" stroke="#6F3FF5" stroke-width="1.71644" stroke-miterlimit="10"/>
<path d="M211.042 150.103C214.723 155.813 218.925 160.239 224.514 164.296C224.891 164.562 225.349 164.521 225.69 164.226C226.371 163.636 226.916 163.163 227.53 162.632C227.938 162.278 227.908 161.592 227.469 161.26C222.134 157.341 218.056 153.044 214.43 147.524C214.128 147.074 213.416 146.979 213.007 147.333C212.394 147.864 211.849 148.337 211.167 148.927C210.888 149.287 210.801 149.719 211.042 150.103Z" stroke="#6F3FF5" stroke-width="1.71644" stroke-miterlimit="10"/>
<path d="M226.034 160.011L222.954 162.916" stroke="#6F3FF5" stroke-width="1.71644" stroke-miterlimit="10"/>
<path d="M222.715 157.43L219.444 160.264" stroke="#6F3FF5" stroke-width="1.71644" stroke-miterlimit="10"/>
<path d="M219.562 154.11L216.292 156.944" stroke="#6F3FF5" stroke-width="1.71644" stroke-miterlimit="10"/>
<path d="M216.394 149.856L213.005 152.435" stroke="#6F3FF5" stroke-width="1.71644" stroke-miterlimit="10"/>
<path d="M234.665 132.603L231.196 130.388C230.504 129.92 229.669 129.694 228.876 129.906C228.35 130.006 227.192 131.01 227.192 131.01" stroke="#6F3FF5" stroke-width="1.71644" stroke-miterlimit="10"/>
<path d="M241.085 148.395C241.085 148.395 239.174 152.661 227.783 161.462" stroke="#6F3FF5" stroke-width="1.71644" stroke-miterlimit="10"/>
<path d="M238.017 152.358C238.017 152.358 231.616 148.886 225.89 141.153" stroke="#6F3FF5" stroke-width="1.71644" stroke-miterlimit="10"/>
<path d="M236.245 153.893C236.245 153.893 229.351 149.9 223.686 142.232" stroke="#6F3FF5" stroke-width="1.71644" stroke-miterlimit="10"/>
<path d="M232.693 134.191L231.358 133.568" stroke="#6F3FF5" stroke-width="1.71644" stroke-miterlimit="10"/>
<path d="M231.132 132.936C231.255 133.066 231.311 133.255 231.298 133.503C231.198 134.183 230.787 135.844 229.659 137.533C227.675 140.676 223.797 143.917 218.788 141.257L220.424 139.84C220.424 139.84 224.054 141.44 226.986 137.595C229.006 135.014 229.212 133.53 229.114 132.904C229.065 132.59 229.276 132.289 229.604 132.242C229.994 132.26 230.575 132.35 231.132 132.936Z" stroke="#6F3FF5" stroke-width="1.71644" stroke-miterlimit="10"/>
<path d="M224.12 137.586L221.326 140.006" stroke="#6F3FF5" stroke-width="1.71644" stroke-miterlimit="10"/>
<path d="M219.61 141.731L214.312 147.27" stroke="#6F3FF5" stroke-width="1.71644" stroke-miterlimit="10"/>
<path d="M229.121 132.78C229.121 132.78 222.873 126.329 214.44 125.686C214.44 125.686 211.334 125.292 209.031 125.745C209.031 125.745 207.871 128.055 209.37 131.858C209.37 131.858 213.994 130.58 218.379 132.714C222.831 134.788 223.712 137.94 223.712 137.94" stroke="#6F3FF5" stroke-width="1.71644" stroke-miterlimit="10"/>
<path d="M215.749 145.906C215.749 145.906 213.562 142.817 216.969 139.865C220.377 136.914 222.08 135.438 222.08 135.438" stroke="#6F3FF5" stroke-width="1.71644" stroke-miterlimit="10"/>
<path d="M243.315 148.125C243.315 148.125 242.556 151.512 237.136 155.614C234.349 157.911 233.701 156.574 233.701 156.574" stroke="#6F3FF5" stroke-width="1.71644" stroke-miterlimit="10"/>
<path d="M228.933 151.685C227.5 150.175 227.619 147.841 229.2 146.471C230.781 145.102 233.224 145.216 234.657 146.726C236.091 148.236 235.972 150.57 234.391 151.94C232.81 153.309 230.367 153.195 228.933 151.685Z" fill="#5BF1CD" stroke="#6F3FF5" stroke-width="1.71644" stroke-miterlimit="10"/>
<path d="M209.121 131.598L206.584 131.542C206.584 131.542 205.301 128.62 205.947 126.161L208.695 125.916" stroke="#6F3FF5" stroke-width="1.71644" stroke-miterlimit="10"/>
<path d="M205.869 126.468C205.869 126.468 201.86 125.907 200.448 126.775C200.448 126.775 199.554 128.973 201.036 131.842C201.036 131.842 205.92 130.576 206.235 130.778" stroke="#6F3FF5" stroke-width="1.71644" stroke-miterlimit="10"/>
<path d="M201.026 131.967L203.097 133.494L206.323 131.529" stroke="#6F3FF5" stroke-width="1.71644" stroke-miterlimit="10"/>
<path d="M240.952 152.308C240.952 152.308 245.915 157.144 246.778 164.464C246.778 164.464 249.072 165.442 251.934 162.962C251.934 162.962 251.375 154.786 244.665 147.193" stroke="#6F3FF5" stroke-width="1.71644" stroke-miterlimit="10"/>
<path d="M251.678 160.337C251.678 160.337 249.367 162.22 246.404 161.584" stroke="#6F3FF5" stroke-width="1.71644" stroke-miterlimit="10"/>
<path d="M251.455 163.375C251.455 163.375 252.41 166.344 251.139 168.276C251.139 168.276 249.442 169.628 247.308 169.341C247.308 169.341 247.999 166.014 247.091 164.665" stroke="#6F3FF5" stroke-width="1.71644" stroke-miterlimit="10"/>
<path d="M247.247 169.276L245.41 168.257L245.64 167.584L246.888 164.842" stroke="#6F3FF5" stroke-width="1.71644" stroke-miterlimit="10"/>
<path d="M229.212 332.984C227.629 331.834 229.992 326.168 234.627 320.272C239.163 314.339 244.176 310.557 245.798 311.612L326.361 368.645L309.814 389.923L229.212 332.984Z" fill="#8C65F7" stroke="#6F3FF5" stroke-width="1.71644" stroke-miterlimit="10"/>
<path d="M321.022 381.396C325.603 375.486 328.015 369.773 326.409 368.637C324.804 367.502 319.788 371.372 315.207 377.283C310.626 383.193 308.214 388.905 309.82 390.041C311.425 391.177 316.441 387.307 321.022 381.396Z" fill="#8C65F7" stroke="#6F3FF5" stroke-width="1.71644" stroke-miterlimit="10"/>
<path d="M195.936 372.405C194.353 371.256 196.716 365.589 201.351 359.694C205.887 353.76 210.9 349.978 212.522 351.033L293.084 408.067L276.537 429.344L195.936 372.405Z" fill="#8C65F7" stroke="#6F3FF5" stroke-width="1.71644" stroke-miterlimit="10"/>
<path d="M287.635 420.738C292.216 414.828 294.628 409.116 293.023 407.98C291.417 406.844 286.401 410.714 281.82 416.625C277.239 422.535 274.827 428.248 276.433 429.383C278.038 430.519 283.054 426.649 287.635 420.738Z" fill="#8C65F7" stroke="#6F3FF5" stroke-width="1.71644" stroke-miterlimit="10"/>
<path d="M243.912 373.266L235.15 367.086C231.59 364.637 230.931 359.9 233.494 356.499L238.977 349.394C241.541 345.992 246.5 345.363 250.06 347.812L258.822 353.992C262.382 356.441 263.041 361.179 260.478 364.58L254.995 371.685C252.372 374.954 247.374 375.678 243.912 373.266Z" fill="#5BF1CD" stroke="#6F3FF5" stroke-width="1.71644" stroke-miterlimit="10"/>
<path d="M237.902 369.008L229.139 362.828C225.579 360.379 224.92 355.642 227.484 352.241L232.966 345.136C235.53 341.734 240.489 341.105 244.049 343.554L252.811 349.734C256.372 352.183 257.031 356.921 254.467 360.322L248.984 367.427C246.361 370.696 241.363 371.42 237.902 369.008Z" fill="#5BF1CD" stroke="#6F3FF5" stroke-width="1.71644" stroke-miterlimit="10"/>
<path d="M255.768 357.753L261.781 362.011" stroke="#6F3FF5" stroke-width="1.71644" stroke-miterlimit="10"/>
<path d="M247.859 368.75L253.516 372.763" stroke="#6F3FF5" stroke-width="1.71644" stroke-miterlimit="10"/>
<path d="M273.462 394.143L264.7 387.963C261.14 385.514 260.481 380.776 263.044 377.375L268.527 370.27C271.091 366.869 276.049 366.239 279.61 368.688L288.372 374.868C291.932 377.318 292.591 382.055 290.027 385.456L284.545 392.561C281.981 395.963 277.022 396.592 273.462 394.143Z" fill="#FFE88F" stroke="#6F3FF5" stroke-width="1.71644" stroke-miterlimit="10"/>
<path d="M267.451 389.885L258.689 383.705C255.129 381.255 254.47 376.518 257.034 373.117L262.516 366.012C265.08 362.611 270.039 361.981 273.599 364.43L282.361 370.61C285.921 373.06 286.58 377.797 284.017 381.198L278.534 388.303C275.97 391.704 271.012 392.334 267.451 389.885Z" fill="#FFE88F" stroke="#6F3FF5" stroke-width="1.71644" stroke-miterlimit="10"/>
<path d="M285.276 378.724L291.289 382.982" stroke="#6F3FF5" stroke-width="1.71644" stroke-miterlimit="10"/>
<path d="M277.509 389.664L283.067 393.639" stroke="#6F3FF5" stroke-width="1.71644" stroke-miterlimit="10"/>
<path d="M297.465 444.531L290.938 439.858C282.531 433.923 280.756 422.524 286.969 414.493L313.929 379.78C320.141 371.749 332.073 370.053 340.48 375.988L347.007 380.661C355.414 386.596 357.189 397.995 350.976 406.026L324.016 440.739C317.804 448.77 305.871 450.466 297.465 444.531Z" fill="#FFE88F" stroke="#6F3FF5" stroke-width="1.71644" stroke-miterlimit="10"/>
<path d="M287.12 437.202L280.593 432.529C272.187 426.594 270.411 415.195 276.624 407.164L303.584 372.451C309.797 364.42 321.729 362.724 330.135 368.659L336.662 373.332C345.069 379.267 346.844 390.666 340.632 398.697L313.671 433.41C307.459 441.441 295.527 443.137 287.12 437.202Z" fill="#C9B8FF" stroke="#6F3FF5" stroke-width="1.71644" stroke-miterlimit="10"/>
<path d="M341.103 396.469L351.447 403.798" stroke="#6F3FF5" stroke-width="1.71644" stroke-miterlimit="10"/>
<path d="M314.44 432.389L324.073 439.229" stroke="#6F3FF5" stroke-width="1.71644" stroke-miterlimit="10"/>
<path d="M292.263 255.694C290.68 254.545 293.043 248.879 297.678 242.983C302.214 237.049 307.227 233.267 308.849 234.322L389.412 291.356L372.865 312.633L292.263 255.694Z" fill="#8C65F7" stroke="#6F3FF5" stroke-width="1.71644" stroke-miterlimit="10"/>
<path d="M383.985 304.028C388.566 298.117 390.978 292.405 389.372 291.269C387.767 290.133 382.751 294.004 378.17 299.914C373.589 305.825 371.177 311.537 372.782 312.673C374.388 313.809 379.404 309.938 383.985 304.028Z" fill="#8C65F7" stroke="#6F3FF5" stroke-width="1.71644" stroke-miterlimit="10"/>
<path d="M258.927 294.985C257.344 293.835 259.707 288.169 264.342 282.273C268.977 276.377 273.891 272.558 275.513 273.613L356.076 330.646L339.489 352.018L258.927 294.985Z" fill="#8C65F7" stroke="#6F3FF5" stroke-width="1.71644" stroke-miterlimit="10"/>
<path d="M350.601 343.371C355.182 337.46 357.594 331.748 355.988 330.612C354.383 329.476 349.367 333.347 344.786 339.257C340.205 345.168 337.793 350.88 339.399 352.016C341.004 353.152 346.02 349.281 350.601 343.371Z" fill="#8C65F7" stroke="#6F3FF5" stroke-width="1.71644" stroke-miterlimit="10"/>
<path d="M306.901 295.846L298.138 289.666C294.578 287.216 293.919 282.479 296.483 279.078L301.965 271.973C304.529 268.572 309.488 267.942 313.048 270.391L321.81 276.571C325.371 279.021 326.03 283.758 323.466 287.159L317.983 294.264C315.419 297.665 310.461 298.295 306.901 295.846Z" fill="#5BF1CD" stroke="#6F3FF5" stroke-width="1.71644" stroke-miterlimit="10"/>
<path d="M300.891 291.588L292.128 285.408C288.568 282.958 287.909 278.221 290.473 274.82L295.956 267.715C298.519 264.313 303.478 263.684 307.038 266.133L315.801 272.313C319.361 274.762 320.02 279.5 317.456 282.901L311.973 290.006C309.41 293.407 304.451 294.037 300.891 291.588Z" fill="#5BF1CD" stroke="#6F3FF5" stroke-width="1.71644" stroke-miterlimit="10"/>
<path d="M318.715 280.427L324.728 284.685" stroke="#6F3FF5" stroke-width="1.71644" stroke-miterlimit="10"/>
<path d="M310.947 291.366L316.505 295.342" stroke="#6F3FF5" stroke-width="1.71644" stroke-miterlimit="10"/>
<path d="M336.549 316.76L327.787 310.58C324.226 308.131 323.567 303.393 326.131 299.992L331.614 292.887C334.178 289.486 339.136 288.856 342.697 291.305L351.459 297.485C355.019 299.935 355.678 304.672 353.114 308.073L347.632 315.178C344.969 318.542 339.971 319.266 336.549 316.76Z" fill="#FFE88F" stroke="#6F3FF5" stroke-width="1.71644" stroke-miterlimit="10"/>
<path d="M330.538 312.502L321.776 306.322C318.216 303.872 317.557 299.135 320.12 295.734L325.603 288.629C328.167 285.227 333.126 284.598 336.686 287.047L345.448 293.227C349.008 295.676 349.667 300.414 347.104 303.815L341.621 310.92C338.958 314.284 333.96 315.008 330.538 312.502Z" fill="#FFE88F" stroke="#6F3FF5" stroke-width="1.71644" stroke-miterlimit="10"/>
<path d="M348.363 301.34L354.376 305.599" stroke="#6F3FF5" stroke-width="1.71644" stroke-miterlimit="10"/>
<path d="M340.456 312.337L346.152 316.256" stroke="#6F3FF5" stroke-width="1.71644" stroke-miterlimit="10"/>
<path d="M360.517 367.242L353.989 362.569C345.583 356.634 343.808 345.235 350.02 337.204L376.981 302.491C383.193 294.46 395.125 292.764 403.532 298.699L410.059 303.372C418.465 309.307 420.24 320.706 414.028 328.737L387.068 363.45C380.756 371.443 368.824 373.139 360.517 367.242Z" fill="#FFE88F" stroke="#6F3FF5" stroke-width="1.71644" stroke-miterlimit="10"/>
<path d="M350.172 359.913L343.645 355.24C335.238 349.305 333.463 337.905 339.676 329.874L366.636 295.161C372.848 287.13 384.78 285.435 393.187 291.37L399.714 296.042C408.121 301.977 409.896 313.377 403.683 321.408L376.723 356.121C370.412 364.114 358.48 365.81 350.172 359.913Z" fill="#C9B8FF" stroke="#6F3FF5" stroke-width="1.71644" stroke-miterlimit="10"/>
<path d="M404.154 319.179L414.499 326.509" stroke="#6F3FF5" stroke-width="1.71644" stroke-miterlimit="10"/>
<path d="M377.532 355.005L387.165 361.845" stroke="#6F3FF5" stroke-width="1.71644" stroke-miterlimit="10"/>
<path d="M140.864 408.047C142.545 409.394 144.554 410.328 146.465 410.99C154.252 413.593 163.221 411.318 168.476 404.717L336.118 197.148L305.02 174.1L137.378 381.668C130.713 389.875 132.274 401.68 140.864 408.047Z" stroke="#6F3FF5" stroke-width="1.71644" stroke-miterlimit="10"/>
<path d="M213.262 337.695L188.357 319.448" stroke="#6F3FF5" stroke-width="1.71644" stroke-miterlimit="10"/>
<path d="M243.352 300.923L232.315 292.853L242.324 252.059" stroke="#6F3FF5" stroke-width="1.71644" stroke-miterlimit="10"/>
<path d="M200.834 328.639L165.848 374.328L138.88 379.879" stroke="#6F3FF5" stroke-width="1.71644" stroke-miterlimit="10"/>
<path d="M165.042 399.134L165.043 399.133L330.639 193.045L335.886 196.918L165.456 406.433C163.478 404.47 163.274 401.329 165.042 399.134Z" fill="#6F3FF5" stroke="#6F3FF5" stroke-width="1.71644"/>
<path d="M199.426 309.7C201.02 310.835 206.057 307.14 210.794 301.372C215.532 295.603 218.038 289.99 216.483 288.76L137.494 229.74L120.338 250.643L199.426 309.7Z" fill="#8C65F7" stroke="#6F3FF5" stroke-width="1.71644" stroke-miterlimit="10"/>
<path d="M131.832 242.383C136.572 236.587 139.138 230.936 137.563 229.761C135.989 228.586 130.87 232.331 126.13 238.127C121.39 243.923 118.824 249.574 120.399 250.749C121.973 251.924 127.092 248.179 131.832 242.383Z" fill="#8C65F7" stroke="#6F3FF5" stroke-width="1.71644" stroke-miterlimit="10"/>
<path d="M168.546 350.923C170.14 352.058 175.177 348.363 179.914 342.595C184.652 336.827 187.158 331.213 185.603 329.983L106.614 270.963L89.4585 291.866L168.546 350.923Z" fill="#8C65F7" stroke="#6F3FF5" stroke-width="1.71644" stroke-miterlimit="10"/>
<path d="M100.973 283.588C105.712 277.793 108.278 272.142 106.704 270.966C105.129 269.791 100.01 273.537 95.2706 279.333C90.5308 285.128 87.9649 290.779 89.5395 291.955C91.114 293.13 96.2328 289.384 100.973 283.588Z" fill="#8C65F7" stroke="#6F3FF5" stroke-width="1.71644" stroke-miterlimit="10"/>
<path d="M154.891 306.944L163.46 313.388C166.867 315.959 171.919 315.322 174.61 312.067L180.282 305.118C182.973 301.863 182.306 297.037 178.899 294.466L170.33 288.022C166.922 285.451 161.871 286.088 159.18 289.344L153.507 296.292C150.916 299.584 151.483 304.373 154.891 306.944Z" fill="#5BF1CD" stroke="#6F3FF5" stroke-width="1.71644" stroke-miterlimit="10"/>
<path d="M160.769 311.302L169.338 317.746C172.745 320.317 177.797 319.68 180.487 316.424L186.16 309.476C188.851 306.22 188.184 301.394 184.777 298.824L176.208 292.38C172.8 289.809 167.749 290.446 165.058 293.701L159.385 300.65C156.755 304.037 157.361 308.731 160.769 311.302Z" fill="#5BF1CD" stroke="#6F3FF5" stroke-width="1.71644" stroke-miterlimit="10"/>
<path d="M167.371 291.941L161.394 287.547" stroke="#6F3FF5" stroke-width="1.71644" stroke-miterlimit="10"/>
<path d="M158.373 302.019L152.815 297.998" stroke="#6F3FF5" stroke-width="1.71644" stroke-miterlimit="10"/>
<path d="M125.9 285.303L134.469 291.747C137.877 294.318 142.928 293.681 145.619 290.426L151.292 283.477C153.982 280.222 153.316 275.396 149.908 272.825L141.339 266.381C137.931 263.81 132.88 264.447 130.189 267.703L124.517 274.651C121.826 277.906 122.492 282.732 125.9 285.303Z" fill="#FFE48D" stroke="#6F3FF5" stroke-width="1.71644" stroke-miterlimit="10"/>
<path d="M131.779 289.66L140.348 296.105C143.756 298.675 148.807 298.039 151.498 294.783L157.171 287.835C159.861 284.579 159.195 279.753 155.787 277.183L147.218 270.738C143.81 268.168 138.759 268.804 136.068 272.06L130.396 279.008C127.705 282.264 128.371 287.09 131.779 289.66Z" fill="#FFE48D" stroke="#6F3FF5" stroke-width="1.71644" stroke-miterlimit="10"/>
<path d="M138.281 270.263L132.403 265.905" stroke="#6F3FF5" stroke-width="1.71644" stroke-miterlimit="10"/>
<path d="M129.283 280.341L123.862 276.262" stroke="#6F3FF5" stroke-width="1.71644" stroke-miterlimit="10"/>
<path d="M68.5957 276.617L75.0912 281.421C83.3402 287.529 95.2999 286.181 101.693 278.3L129.551 244.243C135.944 236.363 134.532 224.937 126.283 218.829L119.788 214.025C111.539 207.917 99.5792 209.266 93.1858 217.146L65.3283 251.203C58.9348 259.083 60.446 270.546 68.5957 276.617Z" fill="#5BF1CD" stroke="#6F3FF5" stroke-width="1.71644" stroke-miterlimit="10"/>
<path d="M78.757 284.197L85.2525 289.001C93.5014 295.109 105.461 293.76 111.855 285.88L139.712 251.823C146.105 243.942 144.694 232.517 136.445 226.409L129.949 221.604C121.7 215.496 109.74 216.845 103.347 224.726L75.4895 258.782C69.0961 266.663 70.508 278.089 78.757 284.197Z" fill="#C9B8FF" stroke="#6F3FF5" stroke-width="1.71644" stroke-miterlimit="10"/>
<path d="M105.49 223.666L95.3281 216.086" stroke="#6F3FF5" stroke-width="1.71644" stroke-miterlimit="10"/>
<path d="M76.3499 257.792L66.9043 250.696" stroke="#6F3FF5" stroke-width="1.71644" stroke-miterlimit="10"/>
<path d="M260.101 232.738C261.695 233.873 266.732 230.179 271.47 224.41C276.207 218.642 278.713 213.029 277.158 211.798L198.269 152.815L181.113 173.718L260.101 232.738Z" fill="#8C65F7" stroke="#6F3FF5" stroke-width="1.71644" stroke-miterlimit="10"/>
<path d="M192.511 165.378C197.25 159.582 199.816 153.931 198.242 152.755C196.667 151.58 191.549 155.326 186.809 161.122C182.069 166.917 179.503 172.569 181.078 173.744C182.652 174.919 187.771 171.173 192.511 165.378Z" fill="#8C65F7" stroke="#6F3FF5" stroke-width="1.71644" stroke-miterlimit="10"/>
<path d="M229.357 273.904C230.951 275.039 235.988 271.345 240.725 265.576C245.463 259.808 247.969 254.195 246.414 252.964L167.387 194.039L150.231 214.942L229.357 273.904Z" fill="#8C65F7" stroke="#6F3FF5" stroke-width="1.71644" stroke-miterlimit="10"/>
<path d="M161.733 206.647C166.473 200.852 169.039 195.2 167.464 194.025C165.89 192.85 160.771 196.596 156.031 202.391C151.292 208.187 148.726 213.838 150.3 215.013C151.875 216.189 156.994 212.443 161.733 206.647Z" fill="#8C65F7" stroke="#6F3FF5" stroke-width="1.71644" stroke-miterlimit="10"/>
<path d="M215.707 229.925L224.276 236.369C227.684 238.94 232.735 238.303 235.426 235.048L241.099 228.099C243.789 224.844 243.123 220.018 239.715 217.447L231.146 211.003C227.738 208.432 222.687 209.069 219.996 212.325L214.324 219.273C211.594 222.623 212.2 227.318 215.707 229.925Z" fill="#5BF1CD" stroke="#6F3FF5" stroke-width="1.71644" stroke-miterlimit="10"/>
<path d="M221.549 234.377L230.117 240.822C233.525 243.392 238.577 242.755 241.267 239.5L246.94 232.552C249.631 229.296 248.964 224.47 245.557 221.9L236.988 215.455C233.58 212.885 228.528 213.521 225.838 216.777L220.165 223.725C217.474 226.981 218.141 231.807 221.549 234.377Z" fill="#5BF1CD" stroke="#6F3FF5" stroke-width="1.71644" stroke-miterlimit="10"/>
<path d="M228.087 214.885L222.209 210.527" stroke="#6F3FF5" stroke-width="1.71644" stroke-miterlimit="10"/>
<path d="M219.052 225.057L213.632 220.978" stroke="#6F3FF5" stroke-width="1.71644" stroke-miterlimit="10"/>
<path d="M186.616 208.247L195.185 214.692C198.593 217.262 203.645 216.625 206.335 213.37L212.008 206.421C214.698 203.166 214.032 198.34 210.624 195.769L202.055 189.325C198.648 186.754 193.596 187.391 190.906 190.647L185.233 197.595C182.641 200.887 183.209 205.677 186.616 208.247Z" fill="#FFE88F" stroke="#6F3FF5" stroke-width="1.71644" stroke-miterlimit="10"/>
<path d="M192.495 212.604L201.064 219.049C204.472 221.619 209.523 220.983 212.214 217.727L217.887 210.779C220.577 207.523 219.911 202.697 216.503 200.127L207.934 193.682C204.527 191.112 199.475 191.749 196.785 195.004L191.112 201.952C188.482 205.339 189.049 210.129 192.495 212.604Z" fill="#FFE88F" stroke="#6F3FF5" stroke-width="1.71644" stroke-miterlimit="10"/>
<path d="M199.094 193.244L193.117 188.85" stroke="#6F3FF5" stroke-width="1.71644" stroke-miterlimit="10"/>
<path d="M190.061 203.417L184.541 199.301" stroke="#6F3FF5" stroke-width="1.71644" stroke-miterlimit="10"/>
<path d="M129.411 199.598L135.906 204.402C144.155 210.51 156.115 209.161 162.508 201.281L190.366 167.224C196.759 159.343 195.347 147.918 187.098 141.81L180.603 137.005C172.354 130.897 160.356 132.341 154.001 140.127L126.143 174.184C119.65 182.027 121.162 193.49 129.411 199.598Z" fill="#5BF1CD" stroke="#6F3FF5" stroke-width="1.71644" stroke-miterlimit="10"/>
<path d="M139.534 207.273L146.03 212.077C154.279 218.185 166.239 216.836 172.632 208.955L200.49 174.899C206.883 167.018 205.471 155.592 197.222 149.485L190.727 144.68C182.478 138.572 170.518 139.921 164.124 147.802L136.267 181.858C129.813 189.607 131.324 201.07 139.534 207.273Z" fill="#C9B8FF" stroke="#6F3FF5" stroke-width="1.71644" stroke-miterlimit="10"/>
<path d="M166.204 146.61L156.042 139.03" stroke="#6F3FF5" stroke-width="1.71644" stroke-miterlimit="10"/>
<path d="M137.064 180.737L127.618 173.641" stroke="#6F3FF5" stroke-width="1.71644" stroke-miterlimit="10"/>
<path d="M457.941 117.473L457.216 109.652L446.543 101.321L413.514 106.141L419.879 111.233L445.314 108.406L457.941 117.473Z" fill="#FFE88F"/>
<path d="M290.918 162.814L350.608 207.279C352.21 208.484 354.559 208.7 356.387 207.885L372.043 200.513L292.567 141.316L288.924 157.617C288.51 159.548 289.222 161.564 290.918 162.814Z" fill="#8C65F7" stroke="#6F3FF5" stroke-width="1.71644" stroke-miterlimit="10"/>
<path d="M243.992 104.347L228.587 58.7737L475.541 242.524L425.462 239.437L243.992 104.347Z" fill="#C9B8FF"/>
<path d="M227.55 57.3864L243.573 104.708L425.325 239.931L477.236 243.1" stroke="#6F3FF5" stroke-width="1.71644"/>
<path d="M480.818 238.505L231.264 52.7966L227.585 57.3084L477.14 243.017L480.818 238.505Z" fill="#8C65F7" stroke="#6F3FF5" stroke-width="1.71644" stroke-miterlimit="10"/>
<path d="M234.95 41.5206C229.841 43.9179 229.117 50.5164 233.592 53.8647L479.274 236.677C483.75 240.026 490.221 237.713 491.373 232.324L502.896 179.336C503.495 176.596 502.357 173.819 500.095 172.077L293.892 18.6846L293.704 18.5956C291.396 16.9442 288.342 16.7313 285.858 17.9073L251.123 34.0563L234.95 41.5206Z" fill="#F0EBFF" stroke="#6F3FF5" stroke-width="1.71644" stroke-miterlimit="10"/>
<path d="M243.434 37.5853L493.355 223.523L495.108 215.619L251.122 34.0566L243.434 37.5853Z" fill="#5BF1CD" stroke="#6F3FF5" stroke-width="1.71644" stroke-miterlimit="10"/>
<path d="M455.539 165.297L324.714 67.9422L317.744 76.4908L448.569 173.846L455.539 165.297Z" fill="#FFE48D" stroke="#6F3FF5" stroke-width="1.71644" stroke-miterlimit="10"/>
<path d="M298.381 59.7681C295.764 63.0086 290.788 63.5657 287.397 61.0659L251.121 34.0568L251.168 33.9669L285.856 17.9078C288.341 16.7318 291.394 16.9447 293.702 18.5961L299.811 53.3914C300.05 54.5122 300.149 55.6784 299.825 56.7565C299.641 57.7892 299.082 58.8681 298.381 59.7681Z" fill="#E6FFF9" stroke="#6F3FF5" stroke-width="1.71644" stroke-miterlimit="10"/>
<path d="M406.561 86.6402C405.346 88.0806 403.565 89.0295 401.828 89.2155C399.951 89.447 398.07 89.0054 396.562 87.8444L337.769 44.1393L357.2 41.2393L405.301 77.0879C408.363 79.3198 408.897 83.7149 406.561 86.6402Z" fill="#C9B8FF" stroke="#6F3FF5" stroke-width="1.71644" stroke-miterlimit="10"/>
<path d="M457.054 109.961L446.407 102.014L412.467 106.001" stroke="#6F3FF5" stroke-width="1.71644" stroke-miterlimit="10"/>
<path d="M457.787 117.362L445.444 108.165L418.499 111.318" stroke="#6F3FF5" stroke-width="1.71644" stroke-miterlimit="10"/>
<path d="M522.93 381.947L523.003 381.739C523.372 380.003 521.449 376.833 520.942 375.858L520.797 375.579L520.979 375.406L519.859 372.03L520.078 371.753L520.006 371.614C519.321 368.727 517.398 365.557 517.398 365.557C514.171 359.879 508.86 356.315 504.929 354.354L504.711 354.284L504.784 354.075C505.115 353.138 505.263 352.374 505.154 351.991C504.902 350.982 504.249 350.076 503.266 349.412L498.937 346.859L498.864 346.72C498.576 345.468 497.814 344.179 496.396 343.027L496.215 342.852L496.912 340.874L498.041 341.121C498.77 341.124 499.537 340.675 499.794 339.946L500.858 337.273C501.078 336.648 500.934 336.022 500.498 335.534L500.426 335.395L500.499 335.187C498.898 334.208 500.798 332.616 499.203 329.204C498.298 327.289 497.389 326.416 494.986 325.643C492.037 324.694 489.265 325.309 487.185 326.379C484.521 327.725 484.744 326.405 484.487 327.134L484.45 327.238L484.304 327.307C483.465 327.617 482.771 328.205 482.477 329.038L481.192 332.683C480.788 333.829 481.222 335.012 482.167 335.78L482.349 335.954L482.276 336.163C481.908 337.204 481.505 338.002 481.212 338.835L480.771 340.085L480.516 340.119C479.021 340.217 477.306 341.289 476.318 342.71C476.281 342.814 476.245 342.918 476.245 342.918L476.025 343.196L475.807 343.125C463.499 339.744 453.796 343.114 453.395 343.217L453.249 343.286L453.212 343.39C453.176 343.494 453.176 343.494 453.139 343.599L453.029 343.911L452.774 343.945C451.607 344.149 448.69 344.834 447.263 346.81C447.263 346.81 446.454 349.448 447.942 351.782L448.087 352.061L448.233 351.992L450.488 353.529L451.511 352.699L454.069 349.928L454.251 350.102L454.397 350.033C462.019 347.732 469.157 349.566 471.123 350.199L471.451 350.304L471.341 350.617C470.571 352.108 469.947 353.879 469.432 355.684C468.88 357.594 468.84 359.088 469.311 359.82C469.384 359.959 469.566 360.134 469.675 360.169L469.857 360.343L469.783 360.551C468.938 362.947 468.093 365.689 467.211 368.536L467.137 368.744L466.882 368.778C466.736 368.847 466.627 368.812 466.481 368.881C466.08 368.984 465.714 369.33 465.567 369.747L464.576 372.558C464.429 372.975 464.501 373.462 464.755 373.776L464.827 373.915L463.071 376.48C461.903 377.38 455.841 381.807 453.936 385.484C452.361 388.572 455.695 395.327 457.471 398.913C458.051 400.028 458.341 400.585 458.377 400.828L458.413 401.072L458.23 401.245C456.697 402.143 452.755 404.353 452.61 404.422C451.734 404.836 451.331 405.634 450.964 406.327L450.891 406.536L450.121 408.375C449.864 409.104 449.971 409.834 450.516 410.358C451.061 410.881 451.934 411.51 453.208 412.036L453.318 412.071C454.847 412.563 456.195 412.533 457.509 411.913C461.084 410.396 463.823 408.147 464.335 407.732L464.371 407.628L464.85 405.926L464.631 405.856L465.115 402.069L465.261 402L465.116 401.722C464.61 400.399 462.91 395.562 463.689 390.594L463.726 390.49L475.04 383.927L474.746 384.761C474.306 386.01 473.572 387.745 472.582 390.21C471.775 392.153 471.404 394.237 471.654 396.289L477.166 406.18L477.13 406.284L474.408 415.38L474.292 417.778C474.328 418.022 474.725 419.657 477.346 420.501C477.892 420.676 478.475 420.748 479.167 420.855C483.684 421.497 484.201 418.996 484.129 418.857L484.608 416.808C484.755 416.391 484.756 416.044 484.756 416.044L484.925 407.286L485.217 407.148L483.316 395.984L483.426 395.671C483.756 395.082 486.649 389.635 489.44 381.721L489.477 381.617L489.623 381.548C490.061 381.341 490.39 381.099 490.537 380.682L491.528 377.87C491.675 377.454 491.603 376.967 491.349 376.653C491.277 376.514 491.277 376.514 491.167 376.479L490.986 376.304L491.865 374.5L492.12 374.466C493.541 374.576 497.077 374.206 498.619 369.833L501.3 362.231L501.628 362.336C503.157 362.828 504.649 363.772 505.994 364.785C510.43 368.416 511.327 373.807 511.363 374.05L511.398 374.294L511.763 374.295L513.176 377.185L512.435 381.701L515.419 383.241L515.382 383.345L515.638 383.311C520.555 384.198 522.784 382.016 522.93 381.947Z" fill="white"/>
<path d="M522.93 381.947L523.003 381.739C523.372 380.003 521.449 376.833 520.942 375.858L520.797 375.579L520.979 375.406L519.859 372.03L520.078 371.753L520.006 371.614C519.321 368.727 517.398 365.557 517.398 365.557C514.171 359.879 508.86 356.315 504.929 354.354L504.711 354.284L504.784 354.075C505.115 353.138 505.263 352.374 505.154 351.991C504.902 350.982 504.249 350.076 503.266 349.412L498.937 346.859L498.864 346.72C498.576 345.468 497.814 344.179 496.396 343.027L496.215 342.852L496.912 340.874L498.041 341.121C498.77 341.124 499.537 340.675 499.794 339.946L500.858 337.273C501.078 336.648 500.934 336.022 500.498 335.534L500.426 335.395L500.499 335.187C498.898 334.208 500.798 332.616 499.203 329.204C498.298 327.289 497.389 326.416 494.986 325.643C492.037 324.694 489.265 325.309 487.185 326.379C484.521 327.725 484.744 326.405 484.487 327.134L484.45 327.238L484.304 327.307C483.465 327.617 482.771 328.205 482.477 329.038L481.192 332.683C480.788 333.829 481.222 335.012 482.167 335.78L482.349 335.954L482.276 336.163C481.908 337.204 481.505 338.002 481.212 338.835L480.771 340.085L480.516 340.119C479.021 340.217 477.306 341.289 476.318 342.71C476.281 342.814 476.245 342.918 476.245 342.918L476.025 343.196L475.807 343.125C463.499 339.744 453.796 343.114 453.395 343.217L453.249 343.286L453.212 343.39C453.176 343.494 453.176 343.494 453.139 343.599L453.029 343.911L452.774 343.945C451.607 344.149 448.69 344.834 447.263 346.81C447.263 346.81 446.454 349.448 447.942 351.782L448.087 352.061L448.233 351.992L450.488 353.529L451.511 352.699L454.069 349.928L454.251 350.102L454.397 350.033C462.019 347.732 469.157 349.566 471.123 350.199L471.451 350.304L471.341 350.617C470.571 352.108 469.947 353.879 469.432 355.684C468.88 357.594 468.84 359.088 469.311 359.82C469.384 359.959 469.566 360.134 469.675 360.169L469.857 360.343L469.783 360.551C468.938 362.947 468.093 365.689 467.211 368.536L467.137 368.744L466.882 368.778C466.736 368.847 466.627 368.812 466.481 368.881C466.08 368.984 465.714 369.33 465.567 369.747L464.576 372.558C464.429 372.975 464.501 373.462 464.755 373.776L464.827 373.915L463.071 376.48C461.903 377.38 455.841 381.807 453.936 385.484C452.361 388.572 455.695 395.327 457.471 398.913C458.051 400.028 458.341 400.585 458.377 400.828L458.413 401.072L458.23 401.245C456.697 402.143 452.755 404.353 452.61 404.422C451.734 404.836 451.331 405.634 450.964 406.327L450.891 406.536L450.121 408.375C449.864 409.104 449.971 409.834 450.516 410.358C451.061 410.881 451.934 411.51 453.208 412.036L453.318 412.071C454.847 412.563 456.195 412.533 457.509 411.913C461.084 410.396 463.823 408.147 464.335 407.732L464.371 407.628L464.85 405.926L464.631 405.856L465.115 402.069L465.261 402L465.116 401.722C464.61 400.399 462.91 395.562 463.689 390.594L463.726 390.49L475.04 383.927L474.746 384.761C474.306 386.01 473.572 387.745 472.582 390.21C471.775 392.153 471.404 394.237 471.654 396.289L477.166 406.18L477.13 406.284L474.408 415.38L474.292 417.778C474.328 418.022 474.725 419.657 477.346 420.501C477.892 420.676 478.475 420.748 479.167 420.855C483.684 421.497 484.201 418.996 484.129 418.857L484.608 416.808C484.755 416.391 484.756 416.044 484.756 416.044L484.925 407.286L485.217 407.148L483.316 395.984L483.426 395.671C483.756 395.082 486.649 389.635 489.44 381.721L489.477 381.617L489.623 381.548C490.061 381.341 490.39 381.099 490.537 380.682L491.528 377.87C491.675 377.454 491.603 376.967 491.349 376.653C491.277 376.514 491.277 376.514 491.167 376.479L490.986 376.304L491.865 374.5L492.12 374.466C493.541 374.576 497.077 374.206 498.619 369.833L501.3 362.231L501.628 362.336C503.157 362.828 504.649 363.772 505.994 364.785C510.43 368.416 511.327 373.807 511.363 374.05L511.398 374.294L511.763 374.295L513.176 377.185L512.435 381.701L515.419 383.241L515.382 383.345L515.638 383.311C520.555 384.198 522.784 382.016 522.93 381.947Z" fill="white"/>
<path d="M496.001 343.13C503.747 349.102 493.343 355.494 485.77 353.173C483.075 352.537 478.124 350.712 476.492 347.751C474.353 343.816 478.335 340.112 481.213 340.226" stroke="#6F3FF5" stroke-width="1.25" stroke-miterlimit="10"/>
<path d="M482.865 335.888C479.047 346.023 477.774 345.149 489.243 348.841L489.28 348.737C489.171 348.702 491.657 345.443 494.496 346.705L496.699 340.804" stroke="#6F3FF5" stroke-width="1.25" stroke-miterlimit="10"/>
<path d="M500.608 337.308C500.865 336.579 500.467 335.639 499.702 335.393L498.501 335.006C498.501 335.006 498.391 334.971 498.136 335.005C497.844 335.143 497.333 335.558 496.636 337.189C496.159 338.543 496.083 339.446 496.155 339.933C496.227 340.42 496.481 340.734 496.954 340.77L498.084 341.018C498.703 340.985 499.324 340.605 499.544 339.98L500.608 337.308Z" stroke="#6F3FF5" stroke-width="1.25" stroke-miterlimit="10"/>
<path d="M500.03 335.498C500.727 333.867 504.212 325.365 495.838 322.554C486.699 319.496 484.71 327.553 484.71 327.553" stroke="#6F3FF5" stroke-width="1.25" stroke-miterlimit="10"/>
<path d="M498.902 335.251C498.902 335.251 501.909 328.102 494.046 325.224C490.369 323.924 487.631 325.478 485.913 327.592" stroke="#6F3FF5" stroke-width="1.25" stroke-miterlimit="10"/>
<path d="M487.11 342.472C487.222 341.464 485.877 340.452 484.82 340.343C484.237 340.272 483.581 340.408 483.398 340.929C483.287 341.242 483.25 341.693 483.504 342.007C483.758 342.321 484.049 342.53 484.377 342.636C484.886 342.916 485.36 342.952 485.943 343.024C486.161 343.094 486.416 343.06 486.562 342.991C486.708 342.922 487.037 342.68 487.11 342.472Z" stroke="#6F3FF5" stroke-width="1.25" stroke-miterlimit="10"/>
<path d="M493.904 337.006L495.336 332.944C495.74 331.799 495.087 330.545 493.886 330.159L485.912 327.592C484.711 327.205 483.397 327.826 482.993 328.972L481.561 333.033C481.157 334.179 481.809 335.432 483.011 335.819L490.985 338.385C492.186 338.772 493.5 338.151 493.904 337.006Z" fill="#5BF1CD" stroke="#6F3FF5" stroke-width="1.25" stroke-miterlimit="10"/>
<path d="M490.039 337.965L491.471 333.903C491.471 333.903 491.692 332.931 490.272 332.474" stroke="#6F3FF5" stroke-width="1.25" stroke-miterlimit="10"/>
<path d="M497.804 350.089L494.497 346.706" stroke="#6F3FF5" stroke-width="1.25" stroke-miterlimit="10"/>
<path d="M495.985 348.344C495.985 348.344 489.898 349.051 489.193 353.463" stroke="#6F3FF5" stroke-width="1.25" stroke-miterlimit="10"/>
<path d="M465.634 374.057L463.805 376.831C463.768 376.935 456.794 381.88 454.67 385.835C452.692 389.72 458.932 399.962 459.075 400.935C459.475 401.18 461.912 402.892 465.449 402.175C465.015 400.992 463.133 395.98 463.985 390.804L464.022 390.7L464.059 390.596L464.351 390.458L476.103 383.688" stroke="#6F3FF5" stroke-width="1.25" stroke-miterlimit="10"/>
<path d="M474.944 381.46C475.053 381.496 476.144 382.195 476.251 383.273C476.214 383.377 476.213 383.724 476.029 384.245C476.029 384.245 476.029 384.245 475.993 384.349C475.589 385.495 474.708 387.646 473.497 390.735C472.69 392.679 472.32 394.763 472.57 396.814L478.119 406.601C478.592 406.986 481.538 408.977 485.478 407.463L483.54 396.403C483.54 396.403 483.65 396.09 483.796 396.021C484.529 394.634 487.313 389.152 489.92 381.758" stroke="#6F3FF5" stroke-width="1.25" stroke-miterlimit="10"/>
<path d="M459.29 401.354L453.049 404.911C452.319 405.256 451.916 406.054 451.55 406.748C451.331 407.025 451.33 407.372 451.292 407.824C451.29 408.519 451.653 409.216 452.271 409.531C453.472 410.265 455.656 411.316 457.882 410.177C460.837 408.693 464.378 406.586 464.853 406.275L465.373 402.384" stroke="#6F3FF5" stroke-width="1.25" stroke-miterlimit="10"/>
<path d="M465.109 405.894L464.557 407.803C464.557 407.803 461.744 410.261 457.768 411.88C456.345 412.466 454.815 412.321 453.613 411.934C452.449 411.443 451.576 410.815 451.03 410.291C450.558 409.907 450.414 409.281 450.634 408.656L451.514 406.505" stroke="#6F3FF5" stroke-width="1.25" stroke-miterlimit="10"/>
<path d="M475.288 415.663L475.175 417.018L475.063 418.025C475.063 418.025 475.458 420.355 479.756 420.927C483.945 421.464 484.352 419.276 484.389 419.172L484.61 418.199L484.905 417.019" stroke="#6F3FF5" stroke-width="1.25" stroke-miterlimit="10"/>
<path d="M463.949 390.562L462.386 389.131" stroke="#6F3FF5" stroke-width="1.25" stroke-miterlimit="10"/>
<path d="M483.503 396.159L482.341 394.625" stroke="#6F3FF5" stroke-width="1.25" stroke-miterlimit="10"/>
<path d="M474.475 393.137C474.621 393.068 476.7 392.346 479.138 393.711" stroke="#6F3FF5" stroke-width="1.25" stroke-miterlimit="10"/>
<path d="M455.469 386.672C455.578 386.707 457.693 386.228 460.021 387.905" stroke="#6F3FF5" stroke-width="1.25" stroke-miterlimit="10"/>
<path d="M482.346 419.095L481.916 416.522C481.881 415.931 481.408 415.547 480.826 415.475L480.352 415.439C479.769 415.367 479.149 415.747 478.856 416.233L477.865 418.697" stroke="#6F3FF5" stroke-width="1.25" stroke-miterlimit="10"/>
<path d="M452.054 409.113C452.456 408.662 452.858 408.212 453.333 407.901C453.479 407.832 453.516 407.728 453.662 407.659L453.807 407.59L453.953 407.521C453.953 407.521 453.99 407.417 454.099 407.452C454.099 407.452 454.136 407.348 454.245 407.383C454.391 407.314 454.391 407.314 454.537 407.245C454.683 407.176 454.683 407.176 454.792 407.211C454.792 407.211 454.792 407.211 454.938 407.142C455.048 407.177 454.792 407.211 454.938 407.142C455.084 407.073 455.194 407.108 455.339 407.039C455.339 407.039 455.449 407.074 455.339 407.039C455.23 407.004 455.339 407.039 455.339 407.039L455.449 407.074L455.558 407.11C455.667 407.145 455.449 407.074 455.449 407.074C455.449 407.074 455.449 407.074 455.558 407.11C455.667 407.145 455.667 407.145 455.776 407.18C455.886 407.215 455.558 407.11 455.776 407.18L455.886 407.215L455.995 407.25C455.995 407.25 455.995 407.25 456.104 407.285C456.213 407.32 455.995 407.25 456.104 407.285L456.177 407.425C456.177 407.425 456.104 407.285 456.177 407.425C456.177 407.425 456.104 407.285 456.177 407.425L456.14 407.529C456.103 407.633 456.177 407.425 456.14 407.529L456.103 407.633C456.066 407.737 456.103 407.633 456.103 407.633L456.066 407.737C456.03 407.841 456.03 407.841 455.993 407.945L455.956 408.049C455.92 408.154 455.993 407.945 455.956 408.049C455.883 408.258 455.737 408.327 455.663 408.535C455.188 409.194 454.639 410.061 454.965 410.861C455.11 411.14 455.437 411.245 455.729 411.107C456.021 410.969 456.131 410.657 455.986 410.378C455.95 410.482 456.059 410.518 455.986 410.378C456.023 410.274 455.95 410.482 455.986 410.378L456.023 410.274C456.06 410.17 455.986 410.378 456.023 410.274C456.06 410.17 456.06 410.17 456.097 410.066L456.133 409.962C456.17 409.858 456.097 410.066 456.133 409.962C456.353 409.684 456.5 409.268 456.719 408.991C457.085 408.297 457.634 407.43 457.017 406.767C456.762 406.454 456.362 406.209 456.034 406.103C455.488 405.928 454.869 405.96 454.285 406.236C453.154 406.684 452.241 407.549 451.473 408.346C451.291 408.519 451.18 408.831 451.435 409.145C451.507 409.284 451.871 409.286 452.054 409.113Z" fill="#6F3FF5"/>
<path d="M485.185 407.601L485.112 407.809L484.87 416.428C484.87 416.428 484.867 417.471 483.953 418.336C483.588 418.682 483.15 418.889 482.749 418.992C482.603 419.061 482.494 419.026 482.348 419.095C481.692 419.232 480.963 419.229 480.016 419.156C479.068 419.083 478.267 418.941 477.648 418.626C477.539 418.591 477.321 418.521 477.211 418.485C475.756 417.785 475.248 416.81 475.213 416.219C475.177 415.975 475.142 415.732 475.142 415.732L475.252 415.42L477.863 406.636" stroke="#6F3FF5" stroke-width="1.25" stroke-miterlimit="10"/>
<path d="M489.555 381.757C480.848 380.579 473.421 378.188 465.743 374.093C465.233 373.813 465.053 373.291 465.236 372.771C465.603 371.729 465.897 370.896 466.228 369.959C466.448 369.334 467.287 369.024 467.906 369.34C475.293 373.225 482.502 375.545 490.953 376.757C491.645 376.864 492.117 377.596 491.896 378.221C491.566 379.158 491.272 379.991 490.905 381.032C490.612 381.518 490.137 381.829 489.555 381.757Z" stroke="#6F3FF5" stroke-width="1.25" stroke-miterlimit="10"/>
<path d="M470.127 370.285L468.182 375.11" stroke="#6F3FF5" stroke-width="1.25" stroke-miterlimit="10"/>
<path d="M474.895 372.632L473.132 377.631" stroke="#6F3FF5" stroke-width="1.25" stroke-miterlimit="10"/>
<path d="M480.463 374.425L478.7 379.424" stroke="#6F3FF5" stroke-width="1.25" stroke-miterlimit="10"/>
<path d="M487.166 375.77L485.768 380.77" stroke="#6F3FF5" stroke-width="1.25" stroke-miterlimit="10"/>
<path d="M498.724 347.137L503.126 349.83C504.035 350.354 504.726 351.156 504.869 352.13C505.013 352.756 504.388 354.527 504.388 354.527" stroke="#6F3FF5" stroke-width="1.25" stroke-miterlimit="10"/>
<path d="M476.529 347.995C476.529 347.995 472.363 352.22 467.507 369.094" stroke="#6F3FF5" stroke-width="1.25" stroke-miterlimit="10"/>
<path d="M473.307 353.336C473.307 353.336 480.69 358.611 492.855 361.019" stroke="#6F3FF5" stroke-width="1.25" stroke-miterlimit="10"/>
<path d="M472.352 356.043C472.352 356.043 480.609 361.6 492.664 363.972" stroke="#6F3FF5" stroke-width="1.25" stroke-miterlimit="10"/>
<path d="M497.804 350.088L499.222 351.241" stroke="#6F3FF5" stroke-width="1.25" stroke-miterlimit="10"/>
<path d="M500.097 351.174C499.879 351.104 499.623 351.138 499.332 351.276C498.565 351.725 496.776 353.004 495.313 355.084C492.533 358.828 490.586 364.695 496.296 368.852L497.177 366.352C497.177 366.352 493.432 363.176 496.58 358.043C498.667 354.54 500.346 353.573 501.148 353.368C501.549 353.265 501.805 352.884 501.697 352.501C501.479 352.083 501.08 351.491 500.097 351.174Z" stroke="#6F3FF5" stroke-width="1.25" stroke-miterlimit="10"/>
<path d="M498.029 361.177L496.524 365.447" stroke="#6F3FF5" stroke-width="1.25" stroke-miterlimit="10"/>
<path d="M495.312 368.188L491.317 376.758" stroke="#6F3FF5" stroke-width="1.25" stroke-miterlimit="10"/>
<path d="M501.293 353.299C501.293 353.299 512.18 356.919 517.184 365.835C517.184 365.835 519.216 369.04 519.828 371.788C519.828 371.788 517.635 374.213 512.314 374.472C512.314 374.472 511.528 368.769 506.764 365.032C502.037 361.192 497.808 361.802 497.808 361.802" stroke="#6F3FF5" stroke-width="1.25" stroke-miterlimit="10"/>
<path d="M492.234 374.503C492.234 374.503 497.042 375.354 498.878 370.147C500.714 364.941 501.633 362.337 501.633 362.337" stroke="#6F3FF5" stroke-width="1.25" stroke-miterlimit="10"/>
<path d="M475.733 345.42C475.733 345.42 472.046 347.943 469.838 355.929C468.478 360.13 470.409 360.172 470.409 360.172" stroke="#6F3FF5" stroke-width="1.25" stroke-miterlimit="10"/>
<path d="M478.674 362.948C481.207 363.764 483.952 362.466 484.804 360.051C485.656 357.635 484.292 355.016 481.759 354.201C479.225 353.385 476.48 354.682 475.629 357.098C474.777 359.513 476.14 362.133 478.674 362.948Z" fill="#5BF1CD" stroke="#6F3FF5" stroke-width="1.25" stroke-miterlimit="10"/>
<path d="M512.753 374.612L514.094 377.363C514.094 377.363 518.248 377.309 520.877 375.372L519.792 372.24" stroke="#6F3FF5" stroke-width="1.25" stroke-miterlimit="10"/>
<path d="M520.546 375.614C520.546 375.614 523.232 379.725 522.898 381.705C522.898 381.705 520.706 383.782 516.516 383.593C516.516 383.593 515.585 377.612 515.184 377.367" stroke="#6F3FF5" stroke-width="1.25" stroke-miterlimit="10"/>
<path d="M516.369 383.662L513.494 382.157L514.235 377.641" stroke="#6F3FF5" stroke-width="1.25" stroke-miterlimit="10"/>
<path d="M471.857 350.202C471.857 350.202 463.557 347.183 454.33 349.895C454.33 349.895 452.003 347.87 453.545 343.497C453.545 343.497 463.649 340.023 476.139 343.579" stroke="#6F3FF5" stroke-width="1.25" stroke-miterlimit="10"/>
<path d="M456.864 342.362C456.864 342.362 455.762 345.833 458.013 348.761" stroke="#6F3FF5" stroke-width="1.25" stroke-miterlimit="10"/>
<path d="M453.325 344.121C453.325 344.121 449.279 344.558 447.596 346.915C447.596 346.915 446.824 349.45 448.24 351.645C448.24 351.645 451.89 349.225 453.967 349.545" stroke="#6F3FF5" stroke-width="1.25" stroke-miterlimit="10"/>
<path d="M448.35 351.681L450.496 353.183L451.19 352.595L453.821 349.963" stroke="#6F3FF5" stroke-width="1.25" stroke-miterlimit="10"/>
</svg>
