<svg width="52" height="44" viewBox="0 0 52 44" fill="none" xmlns="http://www.w3.org/2000/svg">
<path d="M8.5498 31.3634C12.0798 34.4236 17.4098 37.6212 25.9998 37.6212C34.5898 37.6212 39.9198 34.4236 43.4498 31.3634M41.9998 10.7448C37.6898 8.22331 33.4298 5.8623 25.9998 5.8623C18.5698 5.8623 14.3298 8.24623 9.99981 10.7448" stroke="black" stroke-width="2"/>
<path d="M21.32 6.21776L19.45 2C15.4978 2.54408 11.7393 4.26716 8.55 6.99713C8.55 6.99713 3 16.2693 2 34.5043C7.63 41.9427 16.18 42 16.18 42L19.5 36.8997M32.5 36.8997L35.82 41.9656C35.82 41.9656 44.37 41.9427 50 34.5043C49 16.2808 43.45 6.99713 43.45 6.99713C43.45 6.99713 38.45 2.5043 32.55 2L30.73 6.22923" stroke="black" stroke-width="2"/>
<path d="M18.9093 29.5068C17.8248 29.4186 16.8147 28.8426 16.0991 27.9045C15.3836 26.9663 15.0206 25.7421 15.0893 24.4985C15.0233 23.2569 15.3876 22.0356 16.1028 21.1C16.8181 20.1643 17.8266 19.59 18.9093 19.5017C19.992 19.59 21.0005 20.1643 21.7158 21.1C22.431 22.0356 22.7953 23.2569 22.7293 24.4985C22.798 25.7421 22.435 26.9663 21.7195 27.9045C21.0039 28.8426 19.9938 29.4186 18.9093 29.5068V29.5068ZM33.0893 29.5068C32.0048 29.4186 30.9947 28.8426 30.2791 27.9045C29.5636 26.9663 29.2006 25.7421 29.2693 24.4985C29.2034 23.2569 29.5676 22.0356 30.2828 21.1C30.9981 20.1643 32.0067 19.59 33.0893 19.5017C34.172 19.59 35.1805 20.1643 35.8958 21.1C36.6111 22.0356 36.9753 23.2569 36.9093 24.4985C36.978 25.7421 36.615 26.9663 35.8995 27.9045C35.1839 28.8426 34.1738 29.4186 33.0893 29.5068V29.5068Z" stroke="black" stroke-width="2"/>
</svg>
