<svg width="64" height="52" viewBox="0 0 64 52" fill="none" xmlns="http://www.w3.org/2000/svg">
<path d="M9.46094 37.7043C14.0205 41.5294 20.9051 45.5265 32.0005 45.5265C43.096 45.5265 49.9806 41.5294 54.5401 37.7043M52.6672 11.931C47.1001 8.77913 41.5976 5.82788 32.0005 5.82788C22.4035 5.82788 16.9268 8.80779 11.3339 11.931" stroke="black"/>
<path d="M25.955 6.27221L23.5396 1C18.4347 1.6801 13.58 3.83395 9.46042 7.24642C9.46042 7.24642 2.29167 18.8367 1 41.6304C8.27208 50.9284 19.3158 51 19.3158 51L23.6042 44.6246M40.3958 44.6246L44.6842 50.957C44.6842 50.957 55.7279 50.9284 63 41.6304C61.7083 18.851 54.5396 7.24642 54.5396 7.24642C54.5396 7.24642 48.0812 1.63037 40.4604 1L38.1096 6.28653" stroke="black"/>
<path d="M22.8413 35.3836C21.4405 35.2733 20.1358 34.5533 19.2115 33.3807C18.2872 32.208 17.8184 30.6777 17.9071 29.1232C17.8219 27.5712 18.2924 26.0445 19.2163 24.875C20.1402 23.7055 21.4429 22.9875 22.8413 22.8772C24.2397 22.9875 25.5424 23.7055 26.4663 24.875C27.3902 26.0445 27.8607 27.5712 27.7755 29.1232C27.8642 30.6777 27.3954 32.208 26.4711 33.3807C25.5469 34.5533 24.2421 35.2733 22.8413 35.3836V35.3836ZM41.1572 35.3836C39.7563 35.2733 38.4516 34.5533 37.5274 33.3807C36.6031 32.208 36.1342 30.6777 36.223 29.1232C36.1378 27.5712 36.6082 26.0445 37.5321 24.875C38.456 23.7055 39.7587 22.9875 41.1572 22.8772C42.5556 22.9875 43.8583 23.7055 44.7822 24.875C45.7061 26.0445 46.1765 27.5712 46.0913 29.1232C46.1801 30.6777 45.7112 32.208 44.787 33.3807C43.8627 34.5533 42.558 35.2733 41.1572 35.3836V35.3836Z" stroke="black"/>
</svg>
