<svg width="30" height="30" viewBox="0 0 30 30" fill="none" xmlns="http://www.w3.org/2000/svg">
<path d="M8.00573 29C8.62406 29 9.21707 28.7542 9.6543 28.3166C10.0915 27.879 10.3372 27.2855 10.3372 26.6667C10.3367 26.0523 10.4574 25.4438 10.6925 24.8762C10.9275 24.3086 11.2722 23.7931 11.7069 23.3592C11.7069 23.3592 3.72757 22.4667 2.03146 19.0367C1.27917 17.2898 0.930509 15.3955 1.01146 13.495C0.942015 11.0728 1.74928 8.70704 3.2846 6.83333C2.98689 5.92588 2.8354 4.97678 2.8358 4.02167C2.8358 2.75 2.76003 2.16667 3.34289 1C5.95408 1 8.00573 1.49583 9.96995 3.05333C11.6241 2.71005 13.3109 2.54964 15 2.575C16.6891 2.54964 18.3759 2.71005 20.03 3.05333C21.9943 1.49583 24.0459 1 26.6571 1C27.24 2.1375 27.1642 2.75 27.1642 4.02167C27.1646 4.97678 27.0131 5.92588 26.7154 6.83333C28.2507 8.70704 29.058 11.0728 28.9885 13.495C29.0695 15.3955 28.7208 17.2898 27.9685 19.0367C26.2724 22.4667 18.2931 23.3592 18.2931 23.3592C18.7278 23.7931 19.0725 24.3086 19.3075 24.8762C19.5426 25.4438 19.6633 26.0523 19.6628 26.6667C19.6628 27.2855 19.9085 27.879 20.3457 28.3166C20.7829 28.7542 21.3759 29 21.9943 29" stroke="black" stroke-width="2"/>
<path d="M10.3374 26.0133C8.00599 27.18 6.65959 25.7625 5.23742 24.8467C3.81525 23.9308 2.76029 23.6042 1.01172 24.3333" stroke="black" stroke-width="2"/>
<path d="M9.64349 17.6482C10.6704 17.6482 11.5028 16.3894 11.5028 14.8366C11.5028 13.2837 10.6704 12.0249 9.64349 12.0249C8.61662 12.0249 7.78418 13.2837 7.78418 14.8366C7.78418 16.3894 8.61662 17.6482 9.64349 17.6482Z" stroke="black" stroke-width="2"/>
<path d="M20.3564 17.6482C21.3832 17.6482 22.2157 16.3894 22.2157 14.8366C22.2157 13.2837 21.3832 12.0249 20.3564 12.0249C19.3295 12.0249 18.4971 13.2837 18.4971 14.8366C18.4971 16.3894 19.3295 17.6482 20.3564 17.6482Z" stroke="black" stroke-width="2"/>
</svg>
