<svg width="50" height="50" viewBox="0 0 50 50" fill="none" xmlns="http://www.w3.org/2000/svg">
<path d="M13.0098 49C14.0698 49 15.0864 48.5786 15.8359 47.8284C16.5855 47.0783 17.0065 46.0609 17.0065 45C17.0057 43.9467 17.2127 42.9037 17.6157 41.9307C18.0186 40.9577 18.6096 40.0739 19.3546 39.33C19.3546 39.33 5.67583 37.8 2.76822 31.92C1.47858 28.9253 0.880873 25.678 1.01965 22.42C0.900597 18.2677 2.28447 14.2121 4.91646 11C4.4061 9.44436 4.14639 7.81734 4.14709 6.18C4.14709 4 4.01719 3 5.01637 1C9.49271 1 13.0098 1.85 16.3771 4.52C19.2127 3.93152 22.1044 3.65653 25 3.7C27.8956 3.65653 30.7873 3.93152 33.6229 4.52C36.9902 1.85 40.5073 1 44.9836 1C45.9828 2.95 45.8529 4 45.8529 6.18C45.8536 7.81734 45.5939 9.44436 45.0835 11C47.7155 14.2121 49.0994 18.2677 48.9803 22.42C49.1191 25.678 48.5214 28.9253 47.2318 31.92C44.3242 37.8 30.6454 39.33 30.6454 39.33C31.3904 40.0739 31.9814 40.9577 32.3843 41.9307C32.7873 42.9037 32.9943 43.9467 32.9934 45C32.9934 46.0609 33.4145 47.0783 34.1641 47.8284C34.9136 48.5786 35.9302 49 36.9902 49" stroke="black"/>
<path d="M17.0064 43.8798C13.0097 45.8798 10.7016 43.4498 8.2636 41.8798C5.82559 40.3098 4.01707 39.7498 1.01953 40.9998" stroke="black"/>
<path d="M15.8173 29.5399C17.5776 29.5399 19.0047 27.3819 19.0047 24.7199C19.0047 22.0579 17.5776 19.8999 15.8173 19.8999C14.0569 19.8999 12.6299 22.0579 12.6299 24.7199C12.6299 27.3819 14.0569 29.5399 15.8173 29.5399Z" stroke="black"/>
<path d="M34.1825 29.5399C35.9429 29.5399 37.3699 27.3819 37.3699 24.7199C37.3699 22.0579 35.9429 19.8999 34.1825 19.8999C32.4222 19.8999 30.9951 22.0579 30.9951 24.7199C30.9951 27.3819 32.4222 29.5399 34.1825 29.5399Z" stroke="black"/>
</svg>
