<svg width="44" height="44" viewBox="0 0 44 44" fill="none" xmlns="http://www.w3.org/2000/svg">
<path d="M11.5086 43C12.4361 43 13.3256 42.6313 13.9814 41.9749C14.6373 41.3185 15.0057 40.4283 15.0057 39.5C15.005 38.5784 15.1861 37.6657 15.5387 36.8143C15.8913 35.963 16.4084 35.1896 17.0603 34.5388C17.0603 34.5388 5.09136 33.2 2.54719 28.055C1.41876 25.4347 0.895764 22.5933 1.01719 19.7425C0.913022 16.1092 2.12391 12.5606 4.4269 9.75C3.98034 8.38882 3.75309 6.96518 3.7537 5.5325C3.7537 3.625 3.64004 2.75 4.51433 1C8.43112 1 11.5086 1.74375 14.4549 4.08C16.9361 3.56508 19.4663 3.32447 22 3.3625C24.5337 3.32447 27.0639 3.56508 29.5451 4.08C32.4914 1.74375 35.5689 1 39.4857 1C40.36 2.70625 40.2463 3.625 40.2463 5.5325C40.2469 6.96518 40.0197 8.38882 39.5731 9.75C41.8761 12.5606 43.087 16.1092 42.9828 19.7425C43.1042 22.5933 42.5812 25.4347 41.4528 28.055C38.9086 33.2 26.9397 34.5388 26.9397 34.5388C27.5916 35.1896 28.1087 35.963 28.4613 36.8143C28.8139 37.6657 28.995 38.5784 28.9943 39.5C28.9943 40.4283 29.3627 41.3185 30.0186 41.9749C30.6744 42.6313 31.5639 43 32.4914 43" stroke="black" stroke-width="2"/>
<path d="M15.0051 38.5199C11.508 40.2699 9.48841 38.1436 7.35516 36.7699C5.22191 35.3961 3.63945 34.9061 1.0166 35.9999" stroke="black" stroke-width="2"/>
<path d="M13.9657 25.9726C15.506 25.9726 16.7547 24.0844 16.7547 21.7551C16.7547 19.4258 15.506 17.5376 13.9657 17.5376C12.4254 17.5376 11.1768 19.4258 11.1768 21.7551C11.1768 24.0844 12.4254 25.9726 13.9657 25.9726Z" stroke="black" stroke-width="2"/>
<path d="M30.0341 25.9726C31.5744 25.9726 32.823 24.0844 32.823 21.7551C32.823 19.4258 31.5744 17.5376 30.0341 17.5376C28.4938 17.5376 27.2451 19.4258 27.2451 21.7551C27.2451 24.0844 28.4938 25.9726 30.0341 25.9726Z" stroke="black" stroke-width="2"/>
</svg>
