<svg width="54" height="43" viewBox="0 0 54 43" fill="none" xmlns="http://www.w3.org/2000/svg">
<path d="M52 4.97768C49.1459 4.547 46.2684 4.28862 43.3831 4.20396C41.8171 2.56501 39.7548 1.4845 37.5132 1.12853C35.2716 0.772553 32.9749 1.16082 30.9761 2.23364C28.9773 3.30646 27.387 5.00446 26.4497 7.06661C25.5124 9.12876 25.28 11.4409 25.7881 13.6477C17.2031 13.2131 10.7006 8.81452 4.62312 2.27494C3.79437 3.88599 2.22188 9.0265 3.44375 12.7362C4.89477 16.4028 7.38737 19.5671 10.6156 21.8407C7.50913 21.699 4.44878 21.0361 1.56312 19.8799C3.06125 24.7872 8.20375 31.9097 16.2894 33.0226C12.6374 35.9006 8.119 37.4653 3.465 37.4636C2.64175 37.4732 1.81865 37.4343 1 37.347C5.71717 40.3878 11.2149 42.0037 16.8312 42C35.8181 42 46.2094 26.2181 46.2094 12.5242V11.1781L52 4.97768Z" stroke="black"/>
</svg>
