<svg width="47" height="34" viewBox="0 0 47 34" fill="none" xmlns="http://www.w3.org/2000/svg">
<path d="M44 4.10453C41.6496 3.76839 39.2799 3.56673 36.9037 3.50065C35.6141 2.22147 33.9157 1.37815 32.0697 1.10031C30.2237 0.82248 28.3323 1.12552 26.6862 1.96284C25.0401 2.80017 23.7305 4.12543 22.9586 5.73491C22.1867 7.3444 21.9953 9.14901 22.4137 10.8713C15.3438 10.5322 9.98875 7.09914 4.98375 1.99507C4.30125 3.25248 3.00625 7.26459 4.0125 10.1599C5.20746 13.0217 7.26019 15.4914 9.91875 17.2659C7.36046 17.1553 4.84017 16.638 2.46375 15.7355C3.6975 19.5656 7.9325 25.1247 14.5912 25.9933C11.5838 28.2395 7.8627 29.4607 4.03 29.4594C3.35203 29.4669 2.67418 29.4365 2 29.3684C5.88473 31.7417 10.4123 33.0029 15.0375 33C30.6738 33 39.2312 20.6824 39.2312 9.99448V8.94388L44 4.10453Z" stroke="black" stroke-width="2"/>
</svg>
