<svg width="57" height="38" viewBox="0 0 57 38" fill="none" xmlns="http://www.w3.org/2000/svg">
<path d="M55.0371 6.81924C54.7722 5.50181 54.0548 4.29731 52.9906 3.38273C51.9264 2.46815 50.5714 1.89173 49.1247 1.73816C42.2497 1.33758 35.3748 1.01079 28.4998 1.00025C21.6249 0.989706 14.7499 1.3165 7.875 1.71708C6.42625 1.86853 5.06865 2.44401 4.00217 3.35875C2.93568 4.2735 2.21669 5.47916 1.95109 6.79816C0.68297 14.7956 0.68297 22.92 1.95109 30.9175C2.21692 32.2585 2.93404 33.4889 4.00113 34.4347C5.06821 35.3805 6.43134 35.9939 7.89792 36.1883C14.7729 36.5889 21.6478 37 28.5228 37C35.3977 37 42.2727 36.6416 49.1476 36.2305C50.6234 36.0171 51.9895 35.3839 53.0541 34.4196C54.1186 33.4553 54.8282 32.2085 55.083 30.8542C55.7056 26.8813 56.012 22.8718 55.9996 18.8578C55.9998 14.8287 55.6781 10.805 55.0371 6.81924ZM22.2666 26.121V11.4259L37.1623 18.8051L22.2666 26.121Z" stroke="black"/>
</svg>
