<svg width="44" height="30" viewBox="0 0 44 30" fill="none" xmlns="http://www.w3.org/2000/svg">
<path d="M42.2647 5.52608C42.0624 4.50141 41.5146 3.56457 40.7019 2.85323C39.8893 2.1419 38.8545 1.69357 37.7498 1.57413C32.4998 1.26256 27.2498 1.00839 21.9999 1.00019C16.7499 0.991994 11.5 1.24617 6.25 1.55773C5.14368 1.67552 4.10697 2.12312 3.29256 2.83459C2.47816 3.54606 1.92911 4.48379 1.72629 5.50968C0.757905 11.7299 0.757905 18.0489 1.72629 24.2691C1.92928 25.3122 2.4769 26.2691 3.29177 27.0047C4.10664 27.7404 5.14757 28.2175 6.2675 28.3687C11.5175 28.6802 16.7674 29 22.0174 29C27.2673 29 32.5173 28.7212 37.7673 28.4015C38.8943 28.2355 39.9375 27.743 40.7504 26.993C41.5633 26.243 42.1051 25.2733 42.2997 24.2199C42.7752 21.1299 43.0092 18.0114 42.9997 14.8894C42.9999 11.7556 42.7542 8.6261 42.2647 5.52608ZM17.2399 20.5386V9.10907L28.6148 14.8484L17.2399 20.5386Z" stroke="black"/>
<path d="M42.2647 5.52608C42.0624 4.50141 41.5146 3.56457 40.7019 2.85323C39.8893 2.1419 38.8545 1.69357 37.7498 1.57413C32.4998 1.26256 27.2498 1.00839 21.9999 1.00019C16.7499 0.991994 11.5 1.24617 6.25 1.55773C5.14368 1.67552 4.10697 2.12312 3.29256 2.83459C2.47816 3.54606 1.92911 4.48379 1.72629 5.50968C0.757905 11.7299 0.757905 18.0489 1.72629 24.2691C1.92928 25.3122 2.4769 26.2691 3.29177 27.0047C4.10664 27.7404 5.14757 28.2175 6.2675 28.3687C11.5175 28.6802 16.7674 29 22.0174 29C27.2673 29 32.5173 28.7212 37.7673 28.4015C38.8943 28.2355 39.9375 27.743 40.7504 26.993C41.5633 26.243 42.1051 25.2733 42.2997 24.2199C42.7752 21.1299 43.0092 18.0114 42.9997 14.8894C42.9999 11.7556 42.7542 8.6261 42.2647 5.52608ZM17.2399 20.5386V9.10907L28.6148 14.8484L17.2399 20.5386Z" stroke="black" stroke-width="2"/>
</svg>
